<?xml version="1.0" encoding="UTF-8" standalone="no"?>
<!-- Generator: Adobe Illustrator 23.0.4, SVG Export Plug-In  -->

<svg
   xmlns:dc="http://purl.org/dc/elements/1.1/"
   xmlns:cc="http://creativecommons.org/ns#"
   xmlns:rdf="http://www.w3.org/1999/02/22-rdf-syntax-ns#"
   xmlns:svg="http://www.w3.org/2000/svg"
   xmlns="http://www.w3.org/2000/svg"
   xmlns:sodipodi="http://sodipodi.sourceforge.net/DTD/sodipodi-0.dtd"
   xmlns:inkscape="http://www.inkscape.org/namespaces/inkscape"
   version="1.1"
   x="0px"
   y="0px"
   width="255.17"
   height="255.17"
   viewBox="0 0 255.17 255.16999"
   xml:space="preserve"
   id="svg17"
   sodipodi:docname="champion.svg"
   inkscape:version="0.92.3 (2405546, 2018-03-11)"><metadata
   id="metadata21"><rdf:RDF><cc:Work
       rdf:about=""><dc:format>image/svg+xml</dc:format><dc:type
         rdf:resource="http://purl.org/dc/dcmitype/StillImage" /><dc:title /></cc:Work></rdf:RDF></metadata><sodipodi:namedview
   pagecolor="#ffffff"
   bordercolor="#666666"
   borderopacity="1"
   objecttolerance="10"
   gridtolerance="10"
   guidetolerance="10"
   inkscape:pageopacity="0"
   inkscape:pageshadow="2"
   inkscape:window-width="1920"
   inkscape:window-height="1017"
   id="namedview19"
   showgrid="false"
   inkscape:zoom="0.92512738"
   inkscape:cx="-210.59166"
   inkscape:cy="127.55"
   inkscape:window-x="-8"
   inkscape:window-y="-8"
   inkscape:window-maximized="1"
   inkscape:current-layer="svg17" />
<style
   type="text/css"
   id="style2">
    .st0{fill:#FFFFFF;}
</style>
<defs
   id="defs4">
</defs>
<g
   id="bZiOE8_2_"
   transform="translate(5.7825474,1.4734192e-4)"
   style="fill:#000000;fill-opacity:1">
    <g
   id="g14"
   style="fill:#000000;fill-opacity:1">
        <path
   class="st0"
   d="m 113.5,0 c 1.29,2.78 2.63,5.55 3.87,8.36 2.31,5.26 4.51,10.57 6.87,15.8 1.66,3.67 3.53,7.24 5.31,10.85 0.34,0.68 0.72,1.33 1.07,2.01 2.06,4.05 4.12,8.11 6.18,12.17 1.02,2.01 0.64,3.19 -1.46,4.11 -2.58,1.14 -3.58,3.53 -4.77,5.78 -0.09,0.16 0.3,0.8 0.57,0.9 2.18,0.78 4.37,1.54 6.59,2.19 2.7,0.78 4.84,2.4 6.9,4.21 0.87,0.76 1.79,1.46 2.74,2.12 0.72,0.49 1.26,0.35 1.45,-0.62 0.27,-1.34 0.58,-2.65 -0.23,-3.94 -0.48,-0.77 0.08,-1.23 0.73,-1.44 2.15,-0.7 4.33,-1.34 6.55,-2.03 0.39,0.71 0.71,1.3 1.03,1.89 0.98,1.75 2.97,2.73 4.95,2.45 0.84,-0.12 1.35,-0.53 1.57,-1.4 0.4,-1.58 0.21,-3 -0.87,-4.28 -0.3,-0.36 -0.56,-0.76 -0.9,-1.23 0.93,-0.4 1.76,-0.82 2.62,-1.09 0.25,-0.08 0.68,0.19 0.93,0.41 0.8,0.7 1.47,1.61 2.35,2.16 1.27,0.79 2.35,0.38 3.44,-0.65 1.18,-1.11 2.43,-2.18 3.81,-3.02 2.03,-1.23 2.33,-1.65 1.84,-4.06 -0.04,-0.19 -0.04,-0.39 -0.07,-0.75 0.55,0.05 1.05,0.07 1.54,0.15 1.35,0.22 2.51,-0.12 3.23,-1.31 1.1,-1.82 2.76,-2.85 4.67,-3.55 1.09,-0.4 2.17,-0.8 3.27,-1.16 1,-0.33 2,-0.63 2.25,-1.86 0.03,-0.14 0.18,-0.26 0.29,-0.37 1.03,-1 4.4,-0.97 5.42,0.02 0.67,0.65 0.54,1.37 0.22,2.1 -3.65,8.16 -7.25,16.35 -11.02,24.46 -1.18,2.55 -2.94,4.83 -4.24,7.33 -1.45,2.79 -2.69,5.7 -2.5,8.97 0.08,1.37 -0.36,1.92 -1.77,1.93 -2.28,0.01 -4.56,-0.03 -6.84,-0.04 -0.15,0 -0.29,0.07 -0.61,0.15 0.27,0.44 0.49,0.79 0.71,1.14 1.45,2.34 3.13,4.58 4.26,7.06 0.84,1.84 1.04,3.99 1.39,6.03 0.35,2.04 0.85,2.45 2.64,1.44 1.23,-0.69 2.27,-1.73 3.39,-2.63 0.89,-0.71 1.76,-1.45 2.64,-2.17 0.12,-0.1 0.3,-0.2 0.33,-0.33 0.39,-1.54 1.49,-1.14 2.46,-0.86 2.32,0.67 4.56,1.44 5.9,3.75 0.27,0.47 1.12,0.75 1.75,0.86 5.58,0.99 11.18,1.86 16.76,2.9 2.86,0.53 5.65,1.47 8.52,1.93 3.03,0.49 5.83,1.6 8.63,2.72 2.44,0.98 4.84,2.1 7.29,3.07 1.07,0.42 2.2,0.72 3.33,0.92 1.24,0.22 2.07,0.82 2.76,1.87 0.65,0.98 0.34,1.56 -0.5,2.04 -1.94,1.11 -3.87,2.24 -5.86,3.25 -6.72,3.42 -13.5,6.73 -20.19,10.21 -2.47,1.29 -4.78,2.89 -7.1,4.45 -0.78,0.52 -1.28,0.5 -1.96,-0.09 -0.78,-0.68 -1.63,-1.29 -2.5,-1.86 -1.81,-1.18 -3.06,-1.19 -4.53,-0.11 -1.68,1.23 -2.47,3.1 -1.98,4.91 0.26,0.95 0.67,1.86 1.03,2.84 -2.06,1.03 -4.12,2.07 -6.19,3.1 -2.11,1.05 -4.06,2.16 -4.42,4.88 -0.2,1.47 -0.7,1.62 -1.95,0.85 -0.66,-0.41 -1.24,-0.98 -1.81,-1.52 -0.87,-0.82 -1.48,-0.71 -1.8,0.44 -0.48,1.73 -0.84,3.5 -1.35,5.22 -0.49,1.64 -1.11,3.23 -1.67,4.85 -0.1,0.28 -0.16,0.56 -0.33,1.16 1.77,-0.94 3.34,-0.66 4.86,-0.18 0.62,0.2 1.32,0.6 1.68,1.12 0.74,1.08 1.25,2.31 1.9,3.46 1.99,3.55 3.91,7.14 6.02,10.62 2.36,3.89 4.83,7.73 7.4,11.49 1.55,2.27 3.47,4.29 5.08,6.53 2.17,3.01 4.28,6.07 6.24,9.23 0.59,0.95 0.7,2.26 0.78,3.43 0.07,1.04 -0.49,1.3 -1.33,0.69 -1.13,-0.82 -2.29,-0.61 -3.55,-0.44 -0.88,0.12 -1.9,0 -2.72,-0.34 -3.94,-1.62 -7.71,-3.89 -11.79,-4.92 -5.89,-1.48 -11.17,-4.22 -16.62,-6.63 -2.46,-1.09 -4.91,-2.11 -7.6,-2.44 -0.39,-0.05 -0.76,-0.22 -1.15,-0.33 -2.22,-0.64 -4.42,-1.36 -6.66,-1.9 -1.08,-0.26 -1.6,-0.75 -1.64,-1.84 -0.04,-1.04 -0.16,-2.07 -0.23,-3.11 -0.06,-0.95 -0.59,-1.21 -1.37,-0.82 -0.49,0.24 -0.95,0.61 -1.3,1.02 -3.28,3.92 -7.55,6.36 -12.22,8.18 -0.57,0.22 -1.26,0.19 -1.89,0.18 -1.65,-0.02 -3.16,0.37 -4.48,1.41 -0.37,0.29 -0.81,0.55 -1.26,0.66 -2.35,0.57 -4.71,1.15 -7.08,1.61 -1.01,0.19 -1.2,0.91 -0.79,1.42 1.57,1.97 2.82,4.3 5.19,5.5 0.87,0.44 1.02,0.94 0.52,1.7 -0.61,0.94 -1.22,1.88 -1.89,2.78 -2.74,3.71 -5.18,7.58 -6.43,12.1 -0.44,1.6 -1.89,2.05 -3.35,2.31 -0.75,0.13 -1.51,0.14 -2.27,0.23 -0.98,0.12 -1.47,0.86 -1.07,1.78 0.52,1.21 1.31,2.12 2.69,2.53 0.74,0.22 1.43,0.81 1.98,1.38 0.18,0.19 0,0.96 -0.25,1.3 -1.27,1.74 -2.64,3.42 -3.92,5.15 -0.37,0.5 -0.6,1.11 -0.87,1.68 -0.66,1.35 -1.32,2.7 -1.94,4.07 -0.3,0.68 -0.52,1.4 -0.75,2.11 -0.38,1.16 -0.55,2.44 -1.16,3.46 -0.96,1.6 -1.5,3.23 -1.51,5.09 -0.01,0.91 -0.07,1.86 -0.32,2.73 -0.38,1.31 -1.45,1.53 -2.15,0.4 -0.83,-1.33 -1.56,-2.79 -2,-4.29 -1.13,-3.83 -2.06,-7.71 -3.11,-11.56 -0.2,-0.72 -0.47,-1.46 -0.87,-2.09 -3.99,-6.3 -6.68,-13.18 -8.75,-20.29 -1.4,-4.81 -3.8,-8.9 -7.17,-12.55 -2.02,-2.18 -1.68,-1.98 0.35,-3.56 2.27,-1.76 4.35,-3.77 6.45,-5.74 0.45,-0.42 0.64,-1.11 1.05,-1.88 -1.19,-0.13 -2.09,-0.23 -2.98,-0.32 -6.55,-0.63 -12.64,-2.63 -18.19,-6.19 -1.06,-0.68 -2.11,-1.31 -3.47,-1.46 -0.91,-0.1 -1.76,-0.85 -2.6,-1.38 -0.8,-0.5 -1.55,-1.09 -2.45,-1.73 -0.41,2.64 -1.16,5.05 0.52,7.36 0.61,0.84 -0.04,1.44 -0.83,1.73 -2.42,0.92 -4.85,1.82 -7.29,2.68 -1.62,0.57 -3.31,0.94 -4.9,1.56 -11.16,4.34 -22.58,8.01 -33.44,13.11 -1.27,0.6 -2.75,0.87 -4.16,1.04 -0.56,0.07 -1.45,-0.39 -1.73,-0.88 -0.28,-0.49 -0.26,-1.5 0.07,-1.95 2.19,-2.88 4.56,-5.64 6.78,-8.5 3.47,-4.48 7.06,-8.89 10.21,-13.6 0.98,-1.47 1.66,-2.2 3.41,-2.34 2.17,-0.18 3.31,-2.22 2.67,-4.34 -0.26,-0.87 -0.12,-1.53 0.37,-2.24 1.76,-2.53 3.5,-5.07 5.21,-7.62 0.56,-0.83 1.24,-1.28 2.27,-1.31 2.15,-0.06 2.32,-0.32 1.88,-2.45 -0.03,-0.15 0,-0.31 0,-0.56 0.95,-0.18 1.88,-0.38 2.81,-0.53 0.95,-0.15 1.25,-0.59 0.81,-1.49 -1.69,-3.51 -1.53,-7.3 -1.65,-11.05 -0.05,-1.44 0,-2.88 -0.05,-4.32 -0.01,-0.31 -0.27,-0.6 -0.41,-0.91 -0.33,0.17 -0.83,0.27 -0.97,0.54 -0.29,0.58 -0.38,1.26 -0.59,1.89 -0.24,0.72 -0.52,1.43 -0.78,2.14 -0.64,-0.24 -1.34,-0.38 -1.9,-0.73 -2.23,-1.39 -4.31,-3.07 -6.66,-4.2 -2.09,-1 -4.49,-1.33 -6.71,-2.08 -4.88,-1.64 -9.74,-3.35 -14.59,-5.07 -0.82,-0.29 -1.58,-0.76 -2.34,-1.2 -1.01,-0.58 -1.95,-1.08 -3.25,-0.87 -0.66,0.11 -1.53,-0.4 -2.15,-0.84 -1.54,-1.11 -3.15,-1.64 -5.1,-1.74 -1.88,-0.09 -3.75,-0.73 -5.56,-1.34 -0.52,-0.17 -0.99,-1.03 -1.1,-1.64 -0.06,-0.36 0.55,-1.02 1,-1.25 5.88,-3.06 11.81,-6.02 17.67,-9.11 5.51,-2.9 10.97,-5.92 16.43,-8.91 1.01,-0.56 1.91,-1.32 2.92,-1.89 1.86,-1.06 3.7,-2.21 5.66,-3.04 2.63,-1.1 4.4,-2.72 4.95,-5.64 0.69,-3.67 1.81,-7.2 3.9,-10.36 0.25,-0.38 0.14,-1.3 -0.16,-1.66 -0.59,-0.69 -1.15,-1.8 -2.43,-1.2 -0.72,0.34 -1.45,0.69 -2.14,1.08 -0.88,0.5 -1.59,0.32 -2,-0.55 C 45.06,85.5 44.2,83.89 43.73,82.18 41.83,75.29 39.99,68.39 38.28,61.45 36.96,56.11 35.85,50.71 34.66,45.33 c -0.13,-0.58 -0.27,-1.22 -0.15,-1.78 0.11,-0.5 0.47,-1.09 0.89,-1.34 0.42,-0.24 1.26,-0.34 1.57,-0.08 2.08,1.75 4.66,2.4 7.06,3.48 3.49,1.56 6.87,3.37 10.35,4.97 2.82,1.3 5.68,2.53 8.58,3.65 2.59,1 5.05,2.14 7.31,3.79 1.27,0.93 2.83,1.47 4.24,2.22 0.81,0.43 1.64,0.85 2.36,1.4 1.75,1.34 1.8,2.62 0.31,4.23 -0.43,0.46 -0.82,0.98 -1.1,1.53 -0.12,0.24 -0.04,0.81 0.14,0.93 0.22,0.14 0.66,0 0.98,-0.09 0.17,-0.05 0.29,-0.26 0.42,-0.42 2.35,-2.85 5.38,-4.72 8.77,-6.09 2.07,-0.84 4.13,-1.72 6.18,-2.6 1.1,-0.48 1.4,-1.05 0.68,-1.92 -1,-1.22 -2.23,-2.27 -3.42,-3.32 -0.24,-0.21 -0.79,-0.01 -1.14,-0.15 -0.63,-0.25 -1.38,-0.48 -1.77,-0.97 -0.24,-0.3 -0.08,-1.15 0.18,-1.6 1.66,-2.83 3.36,-5.62 5.1,-8.4 4.69,-7.48 9.06,-15.11 12.63,-23.23 2.84,-6.47 5.67,-12.93 8.21,-19.52 C 113.18,0 113.34,0 113.5,0 Z m 33.85,116.19 c 0.03,0 0.06,0 0.08,0 0,-2.8 0.03,-5.6 -0.01,-8.39 -0.06,-4.6 0.17,-9.3 -1.56,-13.62 -1.6,-3.98 -3.78,-7.73 -5.76,-11.55 -0.32,-0.62 -0.9,-1.12 -1.4,-1.63 -1.3,-1.3 -2.65,-2.55 -3.94,-3.85 -1.44,-1.46 -2.84,-3 -4.85,-3.62 -4.88,-1.51 -9.78,-2.94 -14.69,-4.32 -0.56,-0.16 -1.27,0.19 -1.9,0.34 -0.98,0.23 -1.99,0.79 -2.93,0.69 -4.25,-0.46 -8.31,-0.15 -11.93,2.37 -2.92,2.03 -5.78,4.14 -8.7,6.18 -2.92,2.04 -4.37,5.15 -5.3,8.3 -0.98,3.3 -1.38,6.82 -1.62,10.28 -0.69,10.01 -1.16,20.03 -1.78,30.05 -0.05,0.82 -0.36,1.8 -0.9,2.39 -1.3,1.41 -0.71,3.04 -0.85,4.59 -0.06,0.69 0.07,1.43 -0.17,2.05 -0.74,1.96 -1.62,3.87 -2.43,5.8 -0.06,0.15 -0.09,0.31 -0.14,0.45 -0.44,1.14 -0.79,2.33 -1.34,3.42 -0.77,1.53 -0.83,1.84 0.41,3.02 1.54,1.47 2.63,3.19 3.35,5.18 0.39,1.09 0.83,2.17 1.36,3.19 0.97,1.89 2.97,3.12 4.65,2.74 3.46,-0.78 6.06,1.01 8.27,3.08 1.44,1.35 2.67,2.99 4.22,4.3 0.63,0.53 0.94,1.45 1.37,2.21 0.19,0.34 0.25,0.78 0.49,1.09 2.78,3.55 2.94,7.64 2.47,11.87 -0.15,1.35 -0.29,2.7 -0.38,4.06 -0.05,0.74 0.07,1.46 0.97,1.7 0.85,0.23 1.49,-0.1 1.94,-0.81 0.59,-0.95 1.16,-1.91 1.73,-2.87 0.56,-0.94 1.29,-1.09 2.15,-0.39 0.49,0.4 0.89,0.93 1.39,1.32 0.48,0.37 1.05,0.63 1.57,0.94 0.2,-0.57 0.49,-1.12 0.6,-1.71 0.27,-1.45 0.46,-2.92 0.68,-4.37 0.14,-0.94 0.46,-1.03 1.23,-0.41 1.59,1.26 2.06,2.98 2.21,4.86 0.08,1.05 0.46,1.85 1.64,2.03 1.16,0.18 2.04,-0.22 2.67,-1.18 0.15,-0.23 0.22,-0.51 0.37,-0.75 0.11,-0.18 0.27,-0.39 0.45,-0.45 0.55,-0.2 3.91,1.04 4.2,1.53 0.08,0.13 0.1,0.3 0.12,0.46 0.11,1.03 0.77,1.7 1.69,1.74 1.03,0.04 0.95,-1.05 1.09,-1.73 1.06,-5.2 2.01,-10.43 3.15,-15.61 0.4,-1.8 0.82,-3.91 1.99,-5.15 2.34,-2.48 5.16,-4.52 7.88,-6.61 2.21,-1.71 4.58,-3.2 6.84,-4.86 0.63,-0.46 1.07,-1.18 1.63,-1.73 0.39,-0.38 0.8,-0.91 1.27,-0.99 1.1,-0.2 1.12,-0.8 1.09,-1.72 -0.05,-1.5 -0.28,-3.16 0.25,-4.48 0.84,-2.12 0.61,-3.81 -0.62,-5.62 -2.08,-3.05 -3.53,-6.39 -3.75,-10.1 -0.29,-4.59 -0.36,-9.15 -0.52,-13.71 z m 24.3,14.47 c 1.9,0.03 2.53,-0.2 3.92,-1.32 0.21,-0.17 0.48,-0.4 0.71,-0.4 0.89,0.02 1.23,-0.53 1.34,-1.24 0.41,-2.75 0.87,-5.51 1.11,-8.28 0.11,-1.23 -0.41,-2.44 -1.46,-3.27 -1.41,-1.11 -2.81,-2.24 -4.29,-3.26 -0.4,-0.27 -1.12,-0.3 -1.6,-0.16 -0.83,0.24 -1.57,0.75 -2.38,1.08 -2.45,0.99 -4.13,2.66 -4.77,5.28 -0.24,1.01 -0.49,2.01 -0.72,3.02 -0.43,1.88 -0.39,3.71 1.06,5.15 1.99,2.01 4.37,3.32 7.08,3.4 z m -56.99,77 c 2.34,0.11 4.46,-0.38 6.05,-2.26 0.13,-0.15 0.3,-0.31 0.47,-0.35 1.87,-0.46 2.09,-1.85 1.91,-3.42 -0.1,-0.86 -0.31,-1.71 -0.47,-2.57 -0.05,-0.26 -0.23,-0.56 -0.16,-0.78 0.36,-1.18 -0.23,-2.03 -1.06,-2.66 -1.04,-0.8 -2.17,-1.5 -3.32,-2.14 -0.3,-0.17 -1.07,-0.07 -1.2,0.15 -0.6,1 -1.51,1.22 -2.53,1.33 -0.99,0.11 -1.98,0.27 -2.97,0.41 -2.6,0.37 -4.25,2.04 -4.6,4.62 -0.08,0.59 -0.19,1.18 -0.32,1.76 -0.44,1.98 0.05,3.23 1.78,4.26 1.98,1.16 4.12,1.76 6.42,1.65 z m -63.4,-76.43 c 0.02,0.09 0.03,0.18 0.05,0.27 1.02,-0.3 2.06,-0.57 3.07,-0.92 0.9,-0.32 1.74,-0.89 2.66,-1.06 1.89,-0.35 2.48,-1.76 2.61,-3.27 0.2,-2.3 -0.24,-4.55 -1.63,-6.5 -1.08,-1.51 -2.47,-2.11 -4.42,-2.26 -2.06,-0.16 -3.98,-0.06 -5.87,0.62 -2.58,0.94 -4.41,4.35 -3.58,6.96 0.56,1.77 1.44,3.45 2.32,5.1 0.26,0.48 0.95,0.93 1.5,1.01 1.07,0.16 2.19,0.05 3.29,0.05 z m 70.59,-80.68 c -0.24,-1.54 -2.42,-4.74 -3.86,-5.3 -0.31,-0.12 -0.71,-0.08 -1.04,-0.02 -0.81,0.17 -1.61,0.42 -2.43,0.59 -4.69,1.01 -7.22,3.93 -7.05,8.15 0.11,2.76 2.06,5.03 4.76,5.57 2.27,0.45 4.52,0.49 6.68,-0.49 0.42,-0.19 0.94,-0.59 1.05,-0.99 0.69,-2.49 1.27,-5 1.89,-7.51 z m -74.39,65.62 c 0.54,0.09 1.06,0.25 1.58,0.25 1.38,-0.02 2.75,-0.08 4.12,-0.19 0.16,-0.01 0.46,-0.62 0.4,-0.68 -0.31,-0.33 -0.69,-0.79 -1.09,-0.82 -1.17,-0.1 -2.36,-0.02 -3.55,-0.02 -0.86,0 -1.31,0.45 -1.46,1.46 z m 85.35,77.76 c 0.53,0.36 0.75,0.64 0.9,0.61 1.72,-0.42 3.44,-0.86 5.13,-1.4 0.22,-0.07 0.26,-0.73 0.39,-1.11 -0.4,-0.1 -0.84,-0.36 -1.18,-0.26 -1.07,0.31 -2.1,0.74 -3.13,1.16 -0.63,0.26 -1.24,0.58 -2.11,1 z m -1.6,-0.14 c -1.3,0 -2.49,-0.01 -3.68,0.01 -0.64,0.01 -1.18,0.32 -1.02,1.01 0.15,0.62 0.57,1.18 0.88,1.77 0.38,-0.3 0.74,-0.65 1.15,-0.9 0.46,-0.27 0.99,-0.67 1.45,-0.63 1.07,0.1 1.42,-0.25 1.22,-1.26 z m 6.48,-11.88 c -0.78,0.73 -1.18,2.01 -1.14,3.68 0.01,0.32 0.14,0.82 0.36,0.91 0.29,0.13 0.78,0.05 1.08,-0.12 1.44,-0.81 1.3,-3.24 -0.3,-4.47 z m 21.1,-2.17 c -1.53,0.14 -4.38,2.83 -4.28,3.98 2.11,-0.04 4.38,-2.1 4.28,-3.98 z m 47.86,-58.39 c 1.8,0.15 2.99,-1.45 2.31,-3.09 -0.08,-0.19 -0.83,-0.36 -0.88,-0.28 -0.69,1.03 -1.67,1.95 -1.43,3.37 z M 134.89,51.03 c -0.29,-0.71 -0.5,-1.31 -0.79,-1.86 -0.13,-0.24 -0.43,-0.58 -0.62,-0.56 -0.24,0.03 -0.53,0.34 -0.63,0.6 -0.43,1.12 0.21,1.88 0.98,2.66 0.36,-0.29 0.69,-0.56 1.06,-0.84 z m -31.13,168.35 c 0.06,-0.16 0.12,-0.31 0.18,-0.47 -0.44,-0.75 -0.87,-1.5 -1.31,-2.25 -0.36,-0.6 -1.07,-0.43 -1.05,-0.02 0.03,0.76 0.37,1.57 0.8,2.22 0.22,0.33 0.91,0.36 1.38,0.52 z M 115.77,43.36 c -0.44,-0.33 -0.73,-0.68 -0.86,-0.63 -0.76,0.28 -1.5,0.62 -2.2,1.03 -0.11,0.06 0.01,0.54 0.03,0.83 0.63,-0.08 1.29,-0.07 1.89,-0.26 0.36,-0.13 0.64,-0.54 1.14,-0.97 z m 92.55,72.89 c 0.45,0.48 0.67,0.9 1,1.02 0.47,0.17 1.23,-1.04 1.07,-1.86 -0.08,-0.39 -0.5,-0.71 -0.77,-1.06 -0.4,0.6 -0.81,1.2 -1.3,1.9 z M 82.04,86.02 c -0.61,0.89 -1.1,1.44 -1.36,2.09 -0.07,0.18 0.51,0.63 0.79,0.96 0.45,-0.56 0.97,-1.08 1.3,-1.7 0.09,-0.18 -0.34,-0.65 -0.73,-1.35 z m 31.82,156.92 c 0.02,-0.16 0.1,-0.33 0.06,-0.47 -0.09,-0.27 -0.26,-0.52 -0.39,-0.78 -0.25,0.19 -0.57,0.34 -0.72,0.58 -0.18,0.29 -0.38,0.74 -0.27,0.99 0.2,0.49 0.62,0.89 0.94,1.33 0.13,-0.43 0.26,-0.87 0.38,-1.3 0.02,-0.11 0,-0.23 0,-0.35 z m 61.56,-80.95 c 0.65,-0.86 1.19,-1.56 1.75,-2.31 -0.36,-0.31 -0.62,-0.53 -1,-0.85 -0.27,1.07 -1.96,1.56 -0.75,3.16 z M 56.41,83.3 c -1.93,0.35 -2.42,1.13 -1.59,2.65 0.55,-0.91 1,-1.66 1.59,-2.65 z m 51.35,147.87 c 0.68,-0.6 0.59,-0.97 -0.7,-2.11 -0.24,0.23 -0.49,0.47 -0.84,0.81 0.59,0.49 1.06,0.89 1.54,1.3 z m -3.36,-9.34 c -0.57,0.76 -0.84,1.41 -0.1,1.89 0.24,0.15 0.8,-0.2 1.39,-0.38 -0.54,-0.63 -0.87,-1.02 -1.29,-1.51 z M 55.89,114.63 c 0.97,0.27 1.37,1.67 2.74,0.42 -0.99,-0.14 -1.42,-1.43 -2.74,-0.42 z m 144.31,4.47 c 0.2,-0.81 0.32,-1.3 0.44,-1.78 -0.55,0.02 -1.1,0.04 -1.65,0.06 -0.03,0.14 -0.06,0.27 -0.08,0.41 0.33,0.33 0.65,0.66 1.29,1.31 z M 73.7,143.65 c -0.15,-0.05 -0.31,-0.1 -0.46,-0.16 -0.38,0.32 -0.75,0.65 -1.15,0.98 0.46,0.56 0.87,1.05 1.4,0.37 0.22,-0.28 0.15,-0.79 0.21,-1.19 z m 94.42,-33.4 c -0.26,0.66 -0.45,1.17 -0.65,1.67 0.59,-0.21 1.17,-0.41 1.99,-0.7 -0.56,-0.4 -0.81,-0.58 -1.34,-0.97 z m 48.55,-2.72 c -0.26,0.28 -0.48,0.52 -0.75,0.82 0.34,0.32 0.61,0.58 0.92,0.88 0.33,-0.31 0.59,-0.56 0.89,-0.85 -0.4,-0.32 -0.7,-0.55 -1.06,-0.85 z m -124.62,78.1 c 1.03,-1.28 0.93,-1.62 -0.5,-2.01 0.16,0.64 0.31,1.23 0.5,2.01 z M 91.12,51.6 c 0.14,-0.01 0.27,-0.03 0.41,-0.04 0.03,-0.39 0.06,-0.79 0.1,-1.18 -0.44,0.07 -0.88,0.14 -1.59,0.26 0.52,0.46 0.8,0.71 1.08,0.96 z"
   id="path6"
   inkscape:connector-curvature="0"
   style="fill:#000000;fill-opacity:1" />
        <path
   class="st0"
   d="m 103.23,155.7 c -5.3,-0.2 -10.49,-1 -15.45,-2.93 -0.58,-0.22 -1.16,-0.58 -1.59,-1.02 -1.18,-1.19 -2.29,-2.45 -3.41,-3.71 -0.81,-0.92 -1.1,-1.93 -0.76,-3.2 0.57,-2.13 1.56,-3.92 3.48,-5.11 0.72,-0.45 1.12,-0.95 0.6,-1.88 -0.14,-0.25 0.16,-1.01 0.47,-1.2 1.63,-1.02 3.38,-1.4 5.24,-0.56 2.39,1.09 4.81,2.14 7.19,3.26 3.25,1.53 6.47,3.1 9.7,4.65 0.11,0.05 0.21,0.11 0.32,0.16 2.45,1.18 2.48,1.37 1.15,3.68 -0.65,1.14 -1.05,2.42 -1.73,3.54 -0.76,1.24 -1.59,2.49 -2.61,3.51 -0.62,0.61 -1.67,0.79 -2.52,1.17 -0.04,-0.11 -0.06,-0.24 -0.08,-0.36 z M 85.8,143.48 c 1.06,-0.97 1.06,-0.98 0.24,-1.7 -0.28,0.31 -0.57,0.62 -0.89,0.96 0.25,0.29 0.45,0.52 0.65,0.74 z"
   id="path8"
   inkscape:connector-curvature="0"
   style="fill:#000000;fill-opacity:1" />
        <path
   class="st0"
   d="m 129.87,152.52 c -2.29,-0.31 -4.25,-0.89 -5.82,-2.55 -0.96,-1.01 -2.02,-1.93 -3.05,-2.88 -0.52,-0.48 -0.67,-0.89 -0.06,-1.49 0.36,-0.35 0.52,-0.96 0.64,-1.48 0.25,-1.1 0.87,-1.49 1.99,-1.4 0.56,0.05 1.2,-0.15 1.73,-0.39 4.48,-2.04 8.35,-5.25 13.11,-6.76 1.17,-0.37 2.15,-0.4 3.16,0.32 2.28,1.6 3.94,4.97 3.39,7.07 -0.49,1.9 -1.63,3.24 -3.51,3.93 -0.55,0.2 -1.06,0.53 -1.57,0.84 -1.73,1.07 -3.37,2.31 -5.19,3.2 -1.49,0.74 -3.2,1.08 -4.82,1.59 z"
   id="path10"
   inkscape:connector-curvature="0"
   style="fill:#000000;fill-opacity:1" />
        <path
   class="st0"
   d="m 109.19,171.25 c -0.24,-0.97 -0.59,-1.78 -0.62,-2.61 -0.08,-1.99 -0.03,-3.99 0,-5.99 0.03,-2.44 1.02,-4.54 2.29,-6.57 0.4,-0.64 0.36,-1.54 0.61,-2.3 0.15,-0.47 0.36,-1.14 0.73,-1.29 0.98,-0.41 2.04,-0.72 3.09,-0.82 1.53,-0.16 2.56,0.6 3.22,1.98 0.43,0.89 1,1.7 1.43,2.59 0.52,1.11 1.24,2.22 1.38,3.4 0.4,3.32 0.55,6.67 0.79,10.01 0.07,1.01 -0.12,1.86 -1.4,1.89 -0.04,0 -0.09,0.01 -0.11,0.03 -1.5,1.55 -2.54,0.45 -3.66,-0.59 -1.87,-1.71 -3.95,-1.91 -6.16,-0.63 -0.43,0.25 -0.85,0.48 -1.59,0.9 z m 5.3,-9.27 c 0.77,-0.39 1.5,-1.98 1.22,-2.61 -0.09,-0.19 -0.32,-0.41 -0.51,-0.43 -0.18,-0.02 -0.48,0.16 -0.56,0.34 -0.45,0.86 -0.68,1.76 -0.15,2.7 z m -2.93,3.68 c -0.16,0 -0.32,0 -0.48,-0.01 -0.03,0.8 -0.07,1.6 -0.1,2.4 0.28,-0.06 0.71,-0.03 0.83,-0.21 0.52,-0.76 0.5,-1.53 -0.25,-2.18 z"
   id="path12"
   inkscape:connector-curvature="0"
   style="fill:#000000;fill-opacity:1" />
    </g>
</g>
</svg>