<?xml version="1.0" encoding="UTF-8" standalone="no"?>
<!-- Generated by IcoMoon.io -->

<svg
   xmlns:dc="http://purl.org/dc/elements/1.1/"
   xmlns:cc="http://creativecommons.org/ns#"
   xmlns:rdf="http://www.w3.org/1999/02/22-rdf-syntax-ns#"
   xmlns:svg="http://www.w3.org/2000/svg"
   xmlns="http://www.w3.org/2000/svg"
   xmlns:sodipodi="http://sodipodi.sourceforge.net/DTD/sodipodi-0.dtd"
   xmlns:inkscape="http://www.inkscape.org/namespaces/inkscape"
   version="1.1"
   width="215"
   height="215"
   viewBox="0 0 215 215"
   id="svg6"
   sodipodi:docname="dagger.svg"
   inkscape:version="0.92.3 (2405546, 2018-03-11)">
  <metadata
     id="metadata12">
    <rdf:RDF>
      <cc:Work
         rdf:about="">
        <dc:format>image/svg+xml</dc:format>
        <dc:type
           rdf:resource="http://purl.org/dc/dcmitype/StillImage" />
        <dc:title>w_dagger</dc:title>
      </cc:Work>
    </rdf:RDF>
  </metadata>
  <defs
     id="defs10" />
  <sodipodi:namedview
     pagecolor="#ffffff"
     bordercolor="#666666"
     borderopacity="1"
     objecttolerance="10"
     gridtolerance="10"
     guidetolerance="10"
     inkscape:pageopacity="0"
     inkscape:pageshadow="2"
     inkscape:window-width="1920"
     inkscape:window-height="1017"
     id="namedview8"
     showgrid="false"
     fit-margin-top="0"
     fit-margin-left="0"
     fit-margin-right="0"
     fit-margin-bottom="0"
     inkscape:zoom="1.3037281"
     inkscape:cx="-347.9904"
     inkscape:cy="57.561462"
     inkscape:window-x="-8"
     inkscape:window-y="-8"
     inkscape:window-maximized="1"
     inkscape:current-layer="svg6" />
  <title
     id="title2">w_dagger</title>
  <path
     d="m 155.74221,50.988873 q 3.74918,-0.83315 6.87349,-3.74917 2.29116,-2.08288 4.9989,-5.83205 l 1.04144,-1.24972 q 3.3326,-4.58233 5.41547,-6.24863 2.91603,-2.49945 8.3315,-7.70663 6.6652,-6.45692 10.31023,-9.37294 3.64503,-2.91602 5.51962,-7.2900598 0.83315,-2.91603 3.95746,-2.91603 h 0.41657 q 1.6663,0 2.49945,-0.2082798 1.24973,-0.62487 1.6663,-2.0828799 0.41658,-0.83315 1.24973,-0.93729 0.83315,-0.10415 1.04143,0.729 0.41658,1.4580199 2.49945,3.7491797 1.24973,1.6663 1.87459,2.7077398 1.24973,2.49945 1.45801,5.62376 0.20829,2.08287 0,5.83205 0,2.29116 -2.91602,3.74917 -3.3326,1.24973 -6.6652,3.95746 -1.87459,1.6663 -5.41547,5.20719 -2.91603,3.12431 -4.58233,4.58232 -0.41657,0.41658 -0.83315,1.87459 l -0.62486,1.24973 q -1.45801,2.49944 -2.49945,3.54088 -1.6663,1.6663 -3.85332,1.87459 -2.18702,0.20829 -4.68647,3.74917 v 0 q -1.87458,3.12432 -7.29006,8.53979 l -2.29116,2.49945 q -2.91602,3.12431 -3.02017,4.9989 -0.10414,1.87459 3.02017,5.20718 l 1.87459,2.08288 q 3.3326,3.3326 5.31133,4.894755 1.97873,1.562156 1.87459,2.811881 -0.10415,1.249724 -2.6036,2.499449 l -3.74917,2.082875 q -3.54089,2.291162 -7.70664,-1.041438 l -7.91492,-7.498352 q -1.6663,-1.6663 -2.91603,-1.56215 -1.24972,0.10414 -2.91602,1.77044 -0.62486,1.041439 -2.49945,2.916026 l -1.87459,2.291162 q -2.91602,3.540887 -2.49945,7.081774 0.41658,3.540886 4.16575,6.248623 2.91603,2.08288 3.02017,3.540892 0.10414,1.45801 -2.18702,4.37403 -3.95746,4.58233 -13.3304,12.49725 l -6.45691,5.62376 -2.08287,1.87459 q -9.58122,8.95636 -14.78841,12.70553 -2.08288,1.6663 -2.49945,2.70774 -1.24973,2.08287 -3.3326,4.16575 -1.24973,1.24972 -3.95746,3.54089 l -1.24973,1.24972 q -17.079564,15.41327 -25.411062,25.41107 -2.707738,3.3326 -8.539786,7.08178 l -3.3326,2.08287 q -5.207186,3.3326 -8.123211,4.37404 -2.916024,1.04143 -7.914924,3.54088 -4.165749,2.08288 -6.248623,2.91603 l -4.16575,1.6663 q -15.829847,6.6652 -24.161345,8.74807 -2.707737,0.62486 -7.4983489,2.91603 l -3.7491743,1.45801 q -0.416575,0.41657 -0.6248624,0.41657 -1.6662997,0.83315 -2.4994496,1.04144 -1.4580122,0.20829 -2.18701831,-0.72901 -0.72900612,-0.93729 -0.3124312,-1.6663 0.41657493,-0.729 1.45801221,-1.77044 l 6.4569114,-6.24862 Q 19.730506,189.29175 25.14598,183.04313 q 11.45581,-12.70554 29.368532,-30.61826 5.623761,-5.62376 16.662997,-17.70443 l 3.749174,-4.16575 q 3.749175,-3.95746 11.664098,-11.24753 9.997798,-9.37293 14.580119,-14.58012 4.9989,-5.623762 15.41327,-16.038133 6.6652,-6.665198 9.78951,-9.997794 6.45691,-6.87349 11.24752,-10.20609 0.83315,-0.62486 2.49945,-2.29116 2.49945,-3.12431 0.20829,-6.24863 -1.24972,-2.08287 -2.91602,-4.16574 -1.04144,-1.24973 -1.24973,-2.18702 -0.20828,-0.9373 1.04144,-2.08288 1.24972,-1.14558 0.62486,-2.18702 -0.62486,-1.04143 -2.70773,-1.24972 -2.08288,-0.20829 -2.49945,-1.04144 -0.41658,-0.83315 0.83315,-2.49945 0.20828,-0.41657 1.04143,-1.45801 l 0.83315,-0.83315 q 1.04144,-1.45801 2.18702,-1.56216 1.14558,-0.10414 2.70774,1.45802 1.56215,1.56215 5.31133,4.47818 2.91602,2.29116 4.16575,3.3326 2.29116,2.08287 3.54088,4.16575 0.41658,0.62486 1.24973,1.45801 1.6663,0.83315 2.60359,0.31243 0.9373,-0.52072 0.10415,-2.18702 -0.83315,-0.62486 -1.24973,-1.24972 -0.41657,-0.62487 -0.20829,-1.45802 z m 30.20169,-6.87348 q 0,-1.04144 -1.24973,-2.49945 l -0.41657,-0.20829 q -2.08288,-1.87459 -4.2699,-4.37404 -2.18701,-2.49945 -4.47818,-0.83315 -2.29116,2.29117 0,4.58233 l 6.24863,5.62376 q 1.45801,1.24972 2.81188,0.41657 1.35387,-0.83315 1.35387,-2.70773 z m -31.6597,31.4514 q 0,-0.20828 -0.20829,-0.62486 l -0.20828,-0.41657 q -2.70774,-5.41548 -8.12321,-8.12321 -1.87459,-1.45802 -3.12432,0.31243 -1.24972,1.77044 1.35387,3.3326 2.6036,1.56215 4.06161,2.81188 1.87459,1.87458 2.91602,4.16575 0.83315,1.24972 1.87459,0.62486 1.6663,-0.41658 1.45801,-2.08288 z M 68.886347,176.58622 q -0.624862,0.62486 -1.874587,1.45801 -0.624863,0.41657 -1.458013,1.35387 -0.833149,0.93729 -1.458012,1.14558 -1.249725,0.41657 -1.874587,1.45801 -0.624862,1.04144 -0.104144,1.77044 0.520719,0.72901 0.937294,0.72901 0.416575,0 1.249725,-0.62486 0.83315,-0.62486 1.249724,-0.62486 2.916025,-0.20829 4.9989,-3.95747 0.833149,-2.49945 -1.6663,-2.70773 z M 176.36267,80.357409 q -1.24972,0.624862 -1.04143,2.082875 0.20828,0.624862 0.729,0.937293 0.52072,0.312431 1.14558,0.104144 1.24973,-0.416575 0.83315,-1.6663 v 0 q -0.41657,-1.458012 -1.6663,-1.458012 z"
     id="path4"
     inkscape:connector-curvature="0"
     style="fill:#000000;fill-opacity:1;stroke-width:6.50898314" />
</svg>
