<?xml version="1.0" encoding="UTF-8" standalone="no"?>
<!-- Generated by IcoMoon.io -->

<svg
   xmlns:dc="http://purl.org/dc/elements/1.1/"
   xmlns:cc="http://creativecommons.org/ns#"
   xmlns:rdf="http://www.w3.org/1999/02/22-rdf-syntax-ns#"
   xmlns:svg="http://www.w3.org/2000/svg"
   xmlns="http://www.w3.org/2000/svg"
   xmlns:sodipodi="http://sodipodi.sourceforge.net/DTD/sodipodi-0.dtd"
   xmlns:inkscape="http://www.inkscape.org/namespaces/inkscape"
   version="1.1"
   width="215"
   height="215"
   viewBox="0 0 215 215"
   id="svg6"
   sodipodi:docname="mace.svg"
   inkscape:version="0.92.3 (2405546, 2018-03-11)">
  <metadata
     id="metadata12">
    <rdf:RDF>
      <cc:Work
         rdf:about="">
        <dc:format>image/svg+xml</dc:format>
        <dc:type
           rdf:resource="http://purl.org/dc/dcmitype/StillImage" />
        <dc:title>w_mace</dc:title>
      </cc:Work>
    </rdf:RDF>
  </metadata>
  <defs
     id="defs10" />
  <sodipodi:namedview
     pagecolor="#ffffff"
     bordercolor="#666666"
     borderopacity="1"
     objecttolerance="10"
     gridtolerance="10"
     guidetolerance="10"
     inkscape:pageopacity="0"
     inkscape:pageshadow="2"
     inkscape:window-width="1920"
     inkscape:window-height="1017"
     id="namedview8"
     showgrid="false"
     fit-margin-top="0"
     fit-margin-left="0"
     fit-margin-right="0"
     fit-margin-bottom="0"
     inkscape:zoom="1.84375"
     inkscape:cx="-208.84967"
     inkscape:cy="131.7576"
     inkscape:window-x="-8"
     inkscape:window-y="-8"
     inkscape:window-maximized="1"
     inkscape:current-layer="svg6" />
  <title
     id="title2">w_mace</title>
  <path
     d="m 86.44962,75.857535 q 1.292567,-1.29257 4.093129,-2.15428 l 1.723423,-0.64628 q 1.938851,-0.43086 2.369706,-2.04657 0.430856,-1.6157 -1.723423,-2.90827 l -2.800562,-1.93885 Q 79.3405,58.623305 73.416234,55.607315 q -5.924266,-3.01599 -9.58654,-6.24741 0.646283,-1.50799 2.585134,-1.07714 8.832543,0.86172 26.066772,0.43086 h 9.90968 q 3.01599,0 3.66228,-3.23142 1.50799,-4.52398 2.3697,-10.55596 0.43086,-3.44685 1.29257,-10.55597 l 0.21543,-2.58513 q 0.86171,-4.73942 2.15428,-14.6490996 0.43085,-1.29256 1.72342,-3.8777 l 0.86171,-1.29257 0.64628,1.07714 q 2.58514,4.95484 3.01599,7.5399796 1.29257,6.03198 6.03199,15.29538 1.29256,2.58513 3.44684,7.32454 0.86171,1.508 1.72343,1.83114 0.86171,0.32314 2.3697,-0.53857 l 0.21543,-0.21543 q 0.43086,-0.21542 0.43086,-0.43085 2.3697,-2.36971 7.97083,-6.46284 4.09313,-3.23142 6.24741,-4.95484 3.23141,-3.01599 5.60112,-6.03198 1.29257,-1.93885 4.73941,-4.95484 l 0.86171,-0.86171 q 7.10912,-6.6782696 10.7714,-9.90967964 1.07714,-1.07714 1.72342,-0.43086 0.43086,0.21543 0.43086,1.50800004 -1.07714,1.93885 -2.36971,6.03198 -1.72342,5.1702596 -3.23142,7.3245396 -5.60112,9.47883 -9.04797,20.89651 l -3.23142,10.12511 q -1.93885,6.03198 4.30856,6.03198 h 19.60394 q 1.72342,0 4.95484,-0.86172 l 2.80056,-0.64628 q 2.80056,-0.21543 4.41627,0.43086 1.61571,0.64628 3.33913,2.58513 -2.15428,1.29257 -6.24741,3.8777 -4.52398,3.01599 -7.10912,4.30856 -10.98682,4.95484 -20.46564,10.98682 -3.01599,1.72342 -1.29257,5.3857 l 5.60113,9.478823 q 3.44684,6.678264 7.10911,12.063961 0.86172,1.507991 0.86172,3.231421 0,1.07714 -0.43086,3.01599 -0.43086,1.93885 -0.43086,2.69284 0,0.754 -0.75399,0.86172 -0.754,0.10771 -1.61571,-0.32315 l -3.01599,-1.50799 q -4.52399,-1.93885 -6.24741,-3.66227 -3.44685,-3.23142 -11.41768,-7.970835 -4.73941,-2.800562 -7.10912,-4.523985 -0.86171,-0.861711 -1.93885,-0.861711 -1.93885,-0.646284 -2.90827,0.107713 -0.96943,0.753998 -0.32314,2.692849 0.43085,1.292567 0.86171,3.877701 l 0.64628,3.015988 q 0.64628,1.72342 -0.21543,2.36971 l -0.64628,0.64628 q -1.93885,2.15428 -3.12371,2.58514 -1.18485,0.43085 -1.83113,-0.86172 l -0.21543,-0.21542 q -1.29257,-2.36971 -5.81655,-5.601127 l -0.64629,-0.430856 q -1.93885,-1.077139 -3.1237,-0.861711 -1.18486,0.215428 -2.69285,1.938851 -3.66228,4.954843 -10.12511,15.295373 l -3.01599,4.95485 q -0.86171,1.07713 -0.64629,2.80056 0,1.07714 0.64629,3.23142 0.86171,3.23141 0.32314,4.09312 -0.53857,0.86172 -3.55456,2.15428 l -2.800562,1.29257 q -4.308557,1.93885 -6.03198,3.23142 -3.01599,2.36971 -4.09313,5.81655 -0.430856,1.72342 -2.800562,4.52399 l -0.646284,0.64628 q -5.170268,6.67826 -12.494816,19.17308 -0.861711,1.50799 -3.01599,4.30856 -3.01599,3.8777 -4.093129,6.03198 -1.723423,3.66227 -6.462836,10.55596 -3.231418,4.52399 -4.739413,6.89369 -3.662274,6.03198 -12.279388,17.66509 l -0.430856,0.86171 q -0.646284,0.86171 -1.077139,1.29257 -0.430856,0.43085 -1.184854,-0.10772 -0.753997,-0.53857 -0.538569,-1.07714 0.215428,-0.53857 1.077139,-1.40028 l 0.646284,-0.86171 q 1.723423,-2.58513 4.95484,-7.53997 l 3.015991,-4.30856 q 0.430855,-0.43086 0.430855,-0.64628 l 0.215428,-0.64629 q 0.430856,-0.86171 0.53857,-1.50799 0.107714,-0.64629 -0.753998,-1.29257 -0.861711,-0.64628 -1.400281,-0.32314 -0.538569,0.32314 -1.400281,1.40028 l -0.215428,0.21543 q -1.507995,1.50799 -3.01599,2.15428 -3.01599,0.64628 -5.385696,3.23141 -0.646284,1.508 -2.369707,0.86172 -0.861711,-0.43086 -0.861711,-1.93886 v -0.43085 l 3.01599,-10.34054 q 0.861711,-1.93885 -0.215428,-2.58513 -1.723423,-0.64629 -2.800562,1.29256 0,0.43086 -0.646284,1.07714 -0.861711,1.29257 -2.154279,0.96943 -1.292567,-0.32314 -2.585134,0.32314 -0.861712,0.21543 -2.154279,1.07714 l -1.292567,0.86171 q -1.507995,1.07714 -2.369707,0.21543 -0.646283,-0.43086 -0.538569,-1.07714 0.107714,-0.64628 0.753997,-1.29257 1.723423,-1.93885 4.308558,-6.46283 1.93885,-3.66228 3.01599,-5.17027 2.154279,-2.80056 4.523985,-4.52399 1.938851,-1.29256 4.739413,-5.81655 l 1.077139,-1.72342 q 2.800563,-4.73942 9.478826,-14.00281 4.954841,-7.10912 7.324548,-10.7714 6.03198,-9.47882 9.263398,-13.57195 4.093129,-5.81655 0.646283,-11.84853 -0.646283,-1.29257 -0.323141,-2.04657 0.323141,-0.754 1.400281,-1.83114 1.507995,-1.29256 5.170268,-1.29256 5.385697,0 9.478826,-4.73942 6.462836,-8.617111 10.12511,-15.941658 0.861712,-1.723423 2.154279,-5.816552 l 0.215428,-0.646284 q 0.215427,-1.507995 -0.861712,-2.585131 -3.231418,-3.8777 -7.109119,-5.3857 -0.215428,0 -0.861712,-0.43086 z m 6.678263,30.375325 q -2.800562,-0.43085 -3.662273,1.72343 -0.215428,0.64628 -1.07714,1.07714 l -0.646283,0.64628 q -1.723423,1.72342 -1.938851,2.58513 -0.215428,0.86172 1.077139,3.01599 0.215428,0.64629 1.292567,1.93886 l 0.861712,0.86171 q 1.077139,1.29256 2.800562,1.72342 1.077139,0.21543 3.01599,0.43086 h 1.507995 q 1.07714,0 1.507995,-1.07714 0.430856,-0.64629 0.861712,-2.58514 l 0.430856,-1.29257 q 1.077136,-1.93885 0,-4.52398 -0.861712,-4.30856 -6.031981,-4.52399 z m 4.954841,-5.17026 q 0,-1.507999 -1.723423,-1.507999 -1.077139,0 -1.615709,0.215428 -0.538569,0.215428 -0.323141,1.292571 0.215427,1.72342 2.154278,1.50799 0.646284,0 1.077139,-0.43086 0.430856,-0.43085 0.430856,-1.07713 z M 113.59353,42.466215 q -0.21543,-0.86171 -0.43085,-1.07714 -0.21543,-0.21543 -0.86172,0 -1.93885,0.43086 -1.93885,2.36971 0,1.29257 1.508,1.29257 1.72342,-0.64629 1.72342,-2.58514 z"
     id="path4"
     inkscape:connector-curvature="0"
     style="fill:#000000;fill-opacity:1;stroke-width:6.73212051" />
</svg>
