<?xml version="1.0" encoding="UTF-8" standalone="no"?>
<!-- Generated by IcoMoon.io -->

<svg
   xmlns:dc="http://purl.org/dc/elements/1.1/"
   xmlns:cc="http://creativecommons.org/ns#"
   xmlns:rdf="http://www.w3.org/1999/02/22-rdf-syntax-ns#"
   xmlns:svg="http://www.w3.org/2000/svg"
   xmlns="http://www.w3.org/2000/svg"
   xmlns:sodipodi="http://sodipodi.sourceforge.net/DTD/sodipodi-0.dtd"
   xmlns:inkscape="http://www.inkscape.org/namespaces/inkscape"
   version="1.1"
   width="215"
   height="215"
   viewBox="0 0 215 215"
   id="svg6"
   sodipodi:docname="unarmed.svg"
   inkscape:version="0.92.3 (2405546, 2018-03-11)">
  <metadata
     id="metadata12">
    <rdf:RDF>
      <cc:Work
         rdf:about="">
        <dc:format>image/svg+xml</dc:format>
        <dc:type
           rdf:resource="http://purl.org/dc/dcmitype/StillImage" />
        <dc:title>w_unarmed</dc:title>
      </cc:Work>
    </rdf:RDF>
  </metadata>
  <defs
     id="defs10" />
  <sodipodi:namedview
     pagecolor="#ffffff"
     bordercolor="#666666"
     borderopacity="1"
     objecttolerance="10"
     gridtolerance="10"
     guidetolerance="10"
     inkscape:pageopacity="0"
     inkscape:pageshadow="2"
     inkscape:window-width="1920"
     inkscape:window-height="1017"
     id="namedview8"
     showgrid="false"
     fit-margin-top="0"
     fit-margin-left="0"
     fit-margin-right="0"
     fit-margin-bottom="0"
     inkscape:zoom="1.84375"
     inkscape:cx="-118.61018"
     inkscape:cy="24.797047"
     inkscape:window-x="-8"
     inkscape:window-y="-8"
     inkscape:window-maximized="1"
     inkscape:current-layer="svg6" />
  <title
     id="title2">w_unarmed</title>
  <path
     d="m 19.009911,129.83268 q -0.185333,-0.74133 -1.482667,-0.556 l -0.185333,0.18534 0.185333,0.37066 h 0.185334 q 0.741333,0.18534 1.297333,0 z M 159.67798,94.804657 q 0,-1.48266 -1.85333,-2.224 -0.92667,0 -1.29734,0.37067 0,0.74133 0.64867,1.76067 0.64867,1.01933 1.39,1.39 1.112,0 1.112,-1.29734 z m -19.64534,30.209353 q 0,-0.556 -0.74134,-1.29733 -0.92666,0 -1.29733,1.112 0.556,0.92667 1.668,0.92667 0.37067,-0.18534 0.37067,-0.74134 z m -51.708031,-8.52533 q 0.926667,0.92666 1.668001,0.92666 l 0.370666,-0.37066 q -0.556,-2.224 -2.965334,-3.33601 -0.185334,0.18533 -0.278,0.834 -0.09267,0.64867 0.648667,1.39001 z M 27.720582,71.267317 q 4.818669,2.409334 11.305338,4.262668 3.706669,1.297334 11.305339,3.150668 6.486669,1.668001 9.637337,2.594668 1.112001,0.370667 2.038668,-0.370667 h 2.038667 q -0.370666,-1.482667 -1.668,-2.224001 -0.741334,-0.556 -2.409335,-1.112 -2.409334,-0.741334 -3.336001,-1.668001 -4.262669,-1.482667 -8.896004,-4.262668 -2.780001,-1.482669 -7.969337,-5.18934 L 37.91392,65.151313 q -2.409335,-1.482669 -7.59867,-4.07733 -1.853334,-0.741339 -3.428668,-0.0927 -1.575334,0.648669 -2.502001,2.501999 -1.297334,2.78 -0.370667,4.448001 0.741333,2.224002 3.706668,3.336003 z M 130.76597,23.080624 q 0.37066,1.112009 1.112,3.70667 l 0.18533,1.29734 q 0,0.926659 0.556,2.03866 l 0.37067,2.780009 q 0.556,3.70666 0.74133,5.560001 v 0.741329 q 0.37067,5.74534 -0.74133,10.93467 l -0.18534,0.37067 q -0.18533,0.926671 -0.556,1.297331 0.18534,0.37067 0,1.111999 l -0.37066,1.66801 q -0.556,1.29733 -0.556,2.96533 v 1.112 l 0.18533,1.112 q 0.37067,0.74133 0.92667,0.74133 h 0.18533 l 0.37067,0.74134 v -0.92667 l 0.556,-0.556 q 0.18533,-0.74133 0.18533,-2.224 v -2.78 l 0.74134,-3.70667 q 0.18533,-0.37067 0.92666,-1.112 0.18534,-0.18533 0,-0.556 v -0.18533 q 0,-2.96534 1.48267,-8.52534 0.74133,-2.96534 0.92667,-4.448 l 0.556,-2.224 q 0.74133,-3.15067 0.556,-4.63334 l -0.18534,-1.48267 q 0.37067,-0.92666 0.556,-2.224 v -1.29733 l 0.37067,-0.74133 q 0.556,-1.29734 0.37067,-2.78001 -0.18534,-0.92666 -0.92667,-2.59466 0,-0.18534 -0.556,-0.74134 -0.556,-0.556 -0.556,-0.92666 v -0.556 q -0.18533,-0.74134 -0.37067,-1.01934 -0.18533,-0.278 -0.92666,-0.278 -1.48267,0 -2.13134,0.46333 -0.64866,0.46334 -1.39,1.39001 l -0.37067,0.37066 -0.74133,1.48267 -0.74133,1.112 q -1.29734,0.92667 -0.37067,2.78 -0.37067,0.37067 -0.18533,0.741331 z M 108.34062,131.31535 q 0.92667,2.78 3.89201,4.91134 2.96533,2.13133 5.74533,1.946 0.37067,0 0.92667,-0.37067 l 0.37067,-0.18533 q 0.92666,-0.37067 1.39,-1.112 0.46333,-0.74134 0.278,-1.29734 -0.18534,-0.556 -0.74134,-1.29733 l -0.37066,-0.37067 q -2.59467,-3.336 -8.89601,-5.37467 -0.74133,-0.37066 -1.85333,0.37067 l -0.556,0.37067 q -0.37067,0.18533 -0.37067,1.01933 0,0.834 0.18533,1.39 z m 43.55336,-11.86134 q 0.92666,-0.556 1.85333,-1.85333 l 1.48267,-2.96534 q 0.37066,-0.37067 0.92666,-1.48267 l 0.55601,-0.92667 q 0.92666,-1.48266 2.78,-4.81866 2.224,-3.15067 3.15066,-5.93067 0.92667,-2.780014 0.74134,-4.448014 0.18533,-2.78 -1.112,-4.54066 -1.29734,-1.76067 -4.63334,-2.68734 l -0.556,-0.18533 q -1.29733,-0.18534 -1.85333,-0.556 -1.112,-0.37067 -1.57534,-1.39 -0.46333,-1.01934 -2.502,-1.946 l -1.112,-0.556004 q -2.40933,-1.482667 -4.81867,-3.614002 -2.40933,-2.131333 -5.004,-7.320668 -1.29733,-3.336002 -4.07733,-4.818669 -2.59467,-1.297339 -5.93067,-1.112002 -5.93067,0 -11.49068,3.70667 -0.37066,0.185333 -0.74133,0.555999 l -2.224,0.741333 -1.29733,0.185334 q -2.224,0.556 -3.33601,1.112 h -0.556 q -2.224,-0.370666 -4.63333,0.185334 -1.668,0.370667 -4.63334,1.297334 l -1.853336,0.556 q -6.857337,1.853334 -13.900006,5.745336 -0.926667,0.556 -2.780002,1.019334 -1.853334,0.463333 -2.780001,1.019333 l -3.892002,2.409338 q -8.15467,5.37467 -12.602672,7.41333 l -1.853334,0.74134 q -1.668001,0.74133 -2.224001,1.112 L 45.51259,104.25667 q -8.710671,5.004 -12.788006,7.96933 -1.112,0.74134 -3.150668,2.03867 -3.336001,1.85334 -4.818669,3.15067 -3.150668,2.59467 -8.340003,5.93067 -1.482668,1.112 -3.892002,3.52134 -1.668001,1.668 -2.5946687,2.40933 -0.3706668,0.37067 -0.4633335,1.01934 -0.092667,0.64866 0.2780001,1.01933 l 0.1853334,0.18533 q 0.3706677,0.37067 0.5560007,0.64867 0.185334,0.278 1.297334,0.834 l 0.556001,0.18533 q 1.668,0.92667 2.965334,0.556 1.297334,-0.37066 2.780001,-1.668 1.297334,-0.37066 2.038668,-1.112 0,-0.18533 0.370667,-0.556 h 2.780001 q 1.112001,0 1.853334,0.278 0.741334,0.278 1.204667,1.20467 0.463334,0.92667 0.278001,1.668 l -1.482668,1.85334 q -2.594668,3.336 -4.262668,4.63333 -0.741334,0.92667 -2.409335,2.40933 l -1.297334,1.29734 q -1.112,0.92667 -2.409334,2.40933 l -0.556,0.556 q -2.038668,1.668 -2.038668,3.52134 v 0.74133 l -2.4093351,7.784 q -1.4826673,3.33601 -1.6680007,5.37467 0,0.37067 -0.1853335,0.37067 l -1.1120004,2.224 q -1.297334,2.40934 -1.1120005,3.52134 -1.8533342,5.56 -3.1506681,8.15467 l -1.85333415,4.81867 q -0.55600025,1.48266 -0.64866695,3.058 -0.09266671,1.57533 0.46333354,1.76067 v 0.18533 h 0.37066683 q 2.59466783,-0.74134 3.33600143,-4.07734 0.3706669,-2.03866 1.0193338,-3.24333 0.648667,-1.20467 2.1313343,-3.24334 l 1.8533342,-2.96533 q 0.5560002,-0.74133 1.7606683,-2.03867 1.204667,-1.29733 1.760667,-2.03867 1.853334,-1.668 6.301336,-4.26266 1.482668,-0.55601 2.594668,-1.48267 l 0.370667,-0.37067 q 5.930669,-3.892 16.865341,-7.41334 4.448002,-1.48266 5.838003,3.33601 1.39,4.81866 1.39,10.564 v 0.92667 q -0.185333,1.112 -0.09267,1.76066 0.09267,0.64867 0.834001,1.01934 h 0.185333 l 0.926667,0.37067 q 0.926667,0 1.297334,-0.18534 0.741334,-0.18533 1.297334,-1.29733 l 0.185337,-0.37067 q 0.741333,-1.48267 0.926667,-2.224 l 0.185333,-0.92667 q 1.112,-3.15066 1.668001,-4.63333 l 2.409334,-4.07734 3.336002,-5.56 q 0.741333,-1.112 2.131334,-3.336 1.390001,-2.224 2.131334,-3.15067 l 0.556,-1.48267 q 3.521335,-5.18933 6.48667,-8.34 1.482667,-1.48267 4.077335,-4.81867 l 1.853334,-1.668 q 1.668001,-1.48267 2.409335,-2.40933 l 0.370666,-0.18534 q 1.297334,-0.74133 1.853335,-2.224 l 0.741333,-2.03867 q 0.370667,-0.556 0.370667,-1.112 0,-0.556 -0.370667,-1.48266 -0.926667,-2.03867 -2.224001,-5.93067 l -1.668,-4.44801 q -0.185334,-0.74133 -0.185334,-1.112 l 0.556,-0.92667 q 0.926667,-0.556 1.760668,-0.18533 0.834,0.37067 1.204667,1.112 0.741334,1.48267 2.780001,4.07734 2.780002,3.336 3.336002,5.56 0.741333,2.96534 2.502001,4.07734 1.760667,1.112 4.911335,0.74133 3.521335,-0.37067 6.301342,-1.668 l 1.48267,-0.92667 q 1.668,-1.112 2.59467,-1.48266 1.29733,-0.556 2.40933,0.18533 1.85333,1.29733 6.02334,2.96533 4.17,1.668 6.02333,2.78001 2.96534,1.85333 4.81867,4.448 2.40934,3.336 4.81867,3.42867 2.40933,0.0927 6.116,-2.50201 l 0.37067,-0.37066 q 1.48267,-1.112 2.224,-1.85334 l 0.74133,-0.556 q 2.03867,-2.03866 2.96534,-3.336 0.92667,-0.92667 1.112,-1.668 0.74133,-1.48267 0.556,-2.03867 -0.18533,-0.556 -1.48267,-2.03866 -0.18533,-0.18534 -0.556,-0.74134 l -0.37067,-0.556 q -2.96533,-3.892 -6.48666,-7.59867 -1.11201,-1.29734 -4.44801,-3.336 -1.85333,-1.112 -2.59466,-1.668 -1.66801,-1.112 -1.85334,-2.03867 -0.18533,-0.92667 1.112,-2.59467 0.556,-0.556 1.112,-1.85333 0.556,-1.29734 0.92667,-1.853344 1.112,-2.03867 0.18533,-3.15067 -1.112,-1.48266 -1.29733,-3.336 -0.18533,-1.29733 -0.18533,-3.70667 v -1.112 q 0,-2.59466 0.556,-3.335997 1.29733,-1.297334 4.448,-2.038668 l 0.18533,2.224001 q 0.37067,3.892004 0,5.930664 l -0.18533,0.55601 q -0.92667,1.48266 -0.37067,3.15066 0,3.892 2.224,5.560014 1.29734,1.668 3.15067,1.668 1.48267,0.37066 2.40933,0.37066 h 4.81867 q 1.85334,0 2.224,0.74134 0.37067,0.74133 -0.37066,2.03866 l -2.03867,2.03867 q -0.74133,0.74134 -1.112,2.68734 -0.37067,1.946 0.37067,2.68733 v 0 q 0.18533,1.29733 1.01933,2.50201 0.834,1.20466 2.502,2.87266 1.668,1.29734 2.502,1.57534 0.834,0.278 1.20467,0.278 0.37067,0 0.92667,-0.37067 z m 4.63333,-26.502684 q 0.18534,-0.37067 1.29734,-0.37067 1.85333,0.556 1.85333,2.03867 0,1.48267 -1.112,1.48267 -0.74133,-0.37067 -1.39,-1.39 -0.64867,-1.01934 -0.64867,-1.76067 z M 90.177943,116.85934 q 0,0.37067 -0.556,0.37067 -0.556,0 -1.482668,-0.92667 l -0.370666,-0.37066 q -1.112001,-0.92667 -0.926667,-1.66801 l 0.185333,-0.74133 q 2.965335,1.112 3.150668,3.336 z m -72.836032,12.60268 0.185333,-0.18534 q 0.926667,-0.18533 1.482667,0.556 -0.185333,0.18534 -0.741333,0 H 17.527244 Z M 138.1793,124.64335 q 0,-0.92667 1.29734,-1.112 l 0.18533,0.37066 q 0.37067,0.556 0.37067,1.01934 0,0.46333 -0.37067,0.64866 -0.37067,0.18534 -0.834,-0.0927 -0.46333,-0.278 -0.64867,-0.834 z m -20.94267,24.27867 q -1.85334,-1.112 -4.63334,-4.07733 -3.336,-3.52134 -5.56,-4.448 -1.668,-0.556 -1.29733,-1.85334 0,-0.18533 0.18533,-0.37066 0.37067,-0.556 0.74133,-1.48267 l 0.18534,-0.37067 q 0.556,-0.556 0.556,-1.48267 l -4.63334,-5.56 q -0.92667,-1.29733 -2.40933,-0.74133 -0.556009,0.37067 -0.556009,1.48267 v 0.37066 q -0.370667,0.74134 0.556009,2.59467 l 0.556,1.29733 q 0.556,2.03867 0,2.78001 -0.18534,0.556 -0.74134,0.556 -0.556003,0 -1.668003,-0.74134 -3.892002,-1.668 -10.008005,-0.37066 -2.038667,0.37066 -6.116002,2.224 -2.965335,1.29733 -4.633336,1.85333 -0.185333,0 -0.370667,0.556 l -0.741333,0.92667 1.112,-0.18534 0.185334,0.18534 q 0.556,0.37066 0.926667,0.37066 h 0.741333 q 1.297334,0 1.853334,-0.18533 4.262669,-1.85333 9.081338,-0.92667 3.706668,0.74134 8.71067,3.33601 l 0.92667,0.556 q 5.18934,2.78 7.41334,4.63333 0.74133,0.74134 2.40933,2.03867 l 1.112,0.92667 q 3.15067,3.15066 4.07734,5.18933 2.96533,5.18934 2.40933,11.49067 l -1.112,5.18934 q -0.92666,2.96533 -2.59466,6.48667 l -0.556,0.92667 q -4.44801,6.48666 -7.59867,9.26667 -0.18534,0 -0.37067,0.278 -0.18533,0.278 0,0.64866 l 0.37067,0.18534 q 0.92666,0 1.48266,-0.37067 0.556,-0.37067 1.29734,-0.74133 4.81867,-2.59467 8.15467,-6.67201 l 1.112,-1.112 1.112,-1.29733 q 1.29733,-1.29734 1.85333,-2.78 l 0.18534,-0.74134 q 0.74133,-1.48266 1.29733,-3.15066 l 0.74133,-1.48267 q 0.556,-1.112 0.556,-1.85334 v -2.78 q 0.18534,-3.892 0,-5.93067 -0.37066,-3.15066 -1.668,-5.46733 -1.29733,-2.31667 -3.52133,-6.95 z M 63.304598,61.259314 q 0.741333,6.301329 7.59867,8.525335 1.297334,0.556 3.892002,1.112 l 0.741333,0.185333 3.706668,0.556001 q 6.857337,1.112 13.52934,0 1.112,0 3.706668,-0.741334 7.042671,-2.409334 12.602681,-7.228005 0.556,-0.370661 1.29733,-1.297331 l 1.668,-1.668 q 1.48267,-1.29734 2.13134,-2.03867 0.64866,-0.74133 0.64866,-1.668 v -0.92667 l 0.37067,-0.74133 q 0.37067,-0.74133 0.74133,-2.224 v -0.18534 h 0.18534 q 1.112,-2.40933 1.48266,-5.93066 0.18534,-2.22401 -0.37066,-4.81867 -0.18534,-1.668 -1.112,-4.63334 l -0.74134,-2.96533 -0.18533,-1.112 q 0,-1.29734 -0.37067,-1.85334 -2.03866,-3.70667 -6.116,-7.228 -0.74133,-0.37067 -1.112,0.18533 -0.18533,0.18534 -0.18533,0.556 0,0.37067 0.556,0.92667 0,0.37067 0.18533,0.92667 l 0.18533,0.18533 q 2.96534,3.52133 3.52134,9.82267 -0.18533,1.112 0,1.668 0,0.18534 0.18533,0.37067 0.37067,8.15467 -3.336,15.01201 -2.78,3.52133 -4.63333,5.37466 -2.96534,2.78001 -6.301347,4.26267 -9.081337,3.892 -16.124007,3.70667 h -4.262669 q -2.224001,0.18533 -5.930669,-1.112 l -1.297334,-0.37067 q -1.853334,-0.74133 -2.872668,-1.85333 -1.019334,-1.112 -1.204667,-2.96533 -0.185333,-0.741339 -1.204667,-1.57534 -1.019334,-0.834 -1.204667,-0.0927 l -0.370667,0.18534 q -0.556,0.555999 -0.185334,0.926659 0,0.370671 0.185334,0.74134 z m 95.446712,19.64534 q 0.37067,0.185334 1.29734,0.926668 1.48266,0.926667 2.224,1.297333 1.29733,0.556001 2.59467,0.370667 2.59466,1.112001 5.56,1.668001 5.004,0.926664 9.73,-0.278 4.726,-1.204667 8.43267,-4.726002 l 0.37067,-0.370667 q 0.92667,-0.926667 1.112,-1.482667 0.18533,-0.556001 0.18533,-1.853335 v -1.112 q -1.112,0.556 -2.96533,1.575334 -1.85334,1.019334 -2.78,1.390001 l -0.74134,0.370666 q -0.92666,0.556001 -1.48266,0.370667 -1.668,-0.185333 -5.28201,0 -3.614,0.185334 -5.46733,0 -2.96534,-0.370667 -5.37467,-1.482668 l -1.29733,-0.741333 q -2.78001,-1.482668 -4.07734,-2.409334 -1.85333,-1.668002 -2.59467,-3.892003 l -0.37066,-1.111999 q -1.48267,-3.891999 -2.03867,-5.745339 -2.03867,-8.52533 -0.556,-14.27067 0.37066,-1.112 1.48267,-3.70667 0.92666,-0.92667 1.39,-2.31667 0.46333,-1.390001 0.834,-1.946 l 3.70666,-6.116 0.556,-0.556 q 1.48267,-0.92667 0.556,-2.78 -0.74133,0.37067 -2.03866,1.112 -2.03867,0.92667 -2.78,1.668 l -2.78001,3.52133 q -2.40933,2.96534 -3.52133,4.63334 l -0.37067,0.555999 q -1.29733,1.85333 -1.668,2.78 -0.74133,1.668 -0.74133,2.96534 v 0.741331 q -0.37067,1.48267 -0.37067,2.224 -0.92667,7.04267 0.556,13.15867 1.48267,6.116006 5.004,10.749342 1.112,2.224001 3.70667,4.818668 z m 26.68801,37.437356 q -0.92666,0 -2.96533,-0.18533 -4.07734,-0.37067 -5.93067,0.18533 l -3.336,1.112 q -4.81867,1.668 -7.04267,2.78 -3.336,1.85334 -4.448,3.892 l -0.74134,1.29734 q -2.03866,2.03867 -4.63333,6.48667 l -0.556,0.74133 q -1.668,3.15067 -2.40934,5.004 -1.112,2.78 -1.112,5.37467 -0.92666,5.18934 -0.74133,9.63734 0,3.336 0.92667,6.672 0.18533,0.92667 1.01933,3.058 0.834,2.13134 1.946,3.79934 2.59467,3.70667 7.228,7.59867 l 0.74134,0.556 q 1.29733,1.112 2.03867,0.556 0.92666,0 1.20466,-0.556 0.278,-0.556 -0.278,-1.29733 -0.18533,-0.18534 -0.37066,-0.74134 -0.18534,-0.556 -0.37067,-0.74133 -1.668,-0.556 -2.78,-2.03867 -0.74134,-0.92667 -1.85334,-2.96533 l -1.29733,-2.224 q -1.668,-2.59467 -2.03867,-4.44801 -0.74133,-2.59466 0.556,-5.18933 0.18534,-0.556 0,-1.668 v -3.70667 q 0,-1.48267 0.37067,-4.448 0.37067,-1.48267 1.29733,-4.26267 1.48267,-4.26267 1.85334,-6.48667 0.18533,-0.92667 1.29733,-2.78 0.556,-0.556 1.29734,-1.668 l 0.74133,-0.92667 q 0.556,-0.92667 2.03867,-2.03867 l 0.18533,-0.18533 q 1.85333,-1.668 5.56,-4.26267 h 0.18534 v -0.18533 q 0.74133,-0.37067 1.85333,-1.112 l 1.48267,-0.92667 q 2.78,-1.29733 5.93067,-2.40934 1.48266,0 2.40933,0.18534 0.556,0 0.92667,-0.278 0.37066,-0.278 0.556,-0.74134 0.18533,-0.46333 -0.74134,-0.46333 z m 29.46802,-21.498684 q -0.18534,-1.29733 -1.112,-2.224 -0.92667,-0.92667 -2.03867,-0.92667 h -0.74133 q -2.96534,0 -4.63334,0.834 -1.668,0.834 -5.18934,1.01934 -2.96533,0.18533 -4.448,0.74133 h -1.112 q -0.556,0 -0.74133,-0.18533 -1.668,-1.111999 -3.892,-0.741339 -1.29734,0 -3.892,0.92667 l -1.48267,0.37067 q -1.29734,0.556 -2.03867,0.37066 -1.668,-0.18533 -3.336,0.18534 -1.112,0.185329 -3.70667,1.112 v 0 q 0.18533,0.37066 0.74133,0.74133 l 0.37067,0.37067 v 0.18533 l 3.15067,0.741343 q 10.74934,2.03866 16.12401,3.336 h 0.556 q 0.37066,0.18533 1.112,0.18533 l 7.59867,1.48267 q 3.70667,0.556 7.04267,-3.892 1.29733,-0.74134 1.668,-2.038674 0.18533,-0.741339 0,-2.59467 z m -72.6507,90.998714 q -0.37067,-0.37067 0,-2.03867 0.37067,-5.37466 -2.03867,-8.896 -0.556,-0.92667 -0.556,-2.224 0,-1.85334 -0.74133,-2.78 -0.74134,-0.92667 -0.92667,-2.40934 -0.18533,-0.74133 -0.18533,-2.40933 v -1.48267 q 0.18533,-1.85333 0,-2.78 -0.556,-4.448 -2.78,-8.34 l -0.37067,0.37066 v 0.37067 l -0.18533,1.668 q -0.37067,0.92667 -0.18534,1.29734 0.37067,5.93066 0.37067,8.71067 l -0.18533,7.96933 q -0.18534,0.74134 -0.18534,2.03867 v 0.74133 l -0.37066,4.07734 v 0.92667 q -0.37067,6.85733 1.668,11.30533 0.18533,0.556 0.556,2.13134 0.37066,1.57533 0.556,2.31667 0.556,1.112 1.29733,1.29733 l 0.18533,0.18533 q 0.556,0.37067 1.01934,0.37067 0.46333,0 0.64866,-0.74133 v -0.37067 q 0.92667,-0.74133 2.03867,-3.892 0.92667,-1.85334 1.112,-3.614 0.18534,-1.76067 -0.74133,-3.79934 z M 165.60865,31.420633 q 0,-0.18533 -0.0927,-0.0927 l -0.278,0.278 h 0.18534 v 0.18534 z"
     id="path4"
     inkscape:connector-curvature="0"
     style="fill:#00000b;fill-opacity:1;stroke-width:5.79166937" />
</svg>
