<?xml version="1.0" encoding="UTF-8" standalone="no"?>
<!-- Generator: Adobe Illustrator 23.0.4, SVG Export Plug-In  -->

<svg
   xmlns:dc="http://purl.org/dc/elements/1.1/"
   xmlns:cc="http://creativecommons.org/ns#"
   xmlns:rdf="http://www.w3.org/1999/02/22-rdf-syntax-ns#"
   xmlns:svg="http://www.w3.org/2000/svg"
   xmlns="http://www.w3.org/2000/svg"
   xmlns:sodipodi="http://sodipodi.sourceforge.net/DTD/sodipodi-0.dtd"
   xmlns:inkscape="http://www.inkscape.org/namespaces/inkscape"
   version="1.1"
   x="0px"
   y="0px"
   width="219.47"
   height="219.47"
   viewBox="0 0 219.47 219.47"
   xml:space="preserve"
   id="svg9"
   sodipodi:docname="daughters_of_khaine.svg"
   inkscape:version="0.92.3 (2405546, 2018-03-11)"><metadata
   id="metadata13"><rdf:RDF><cc:Work
       rdf:about=""><dc:format>image/svg+xml</dc:format><dc:type
         rdf:resource="http://purl.org/dc/dcmitype/StillImage" /><dc:title /></cc:Work></rdf:RDF></metadata><sodipodi:namedview
   pagecolor="#ffffff"
   bordercolor="#666666"
   borderopacity="1"
   objecttolerance="10"
   gridtolerance="10"
   guidetolerance="10"
   inkscape:pageopacity="0"
   inkscape:pageshadow="2"
   inkscape:window-width="1920"
   inkscape:window-height="1017"
   id="namedview11"
   showgrid="false"
   inkscape:zoom="1.2347616"
   inkscape:cx="-139.30092"
   inkscape:cy="95.565002"
   inkscape:window-x="-8"
   inkscape:window-y="-8"
   inkscape:window-maximized="1"
   inkscape:current-layer="svg9" />
<defs
   id="defs2">
</defs>
<g
   id="_x33_cgpy9_2_"
   transform="translate(0.01044676,14.159658)"
   style="fill:#000000;fill-opacity:1">
    <g
   id="g6"
   style="fill:#000000;fill-opacity:1">
        <path
   d="m 108.35,191.13 c -4,0 -8,0 -12,0 -0.19,-0.06 -0.38,-0.14 -0.57,-0.17 -4.5,-0.7 -9.1,-1.01 -13.47,-2.18 -4.36,-1.16 -8.5,-3.16 -12.72,-4.84 -0.61,-0.24 -1.12,-0.76 -1.68,-1.14 -1.36,-0.92 -2.7,-1.85 -4.08,-2.73 -3.84,-2.45 -7.75,-4.8 -11.51,-7.36 -1.97,-1.34 -3.7,-3.01 -4.61,-5.39 -0.43,-1.11 -0.21,-1.79 0.48,-2.68 5.36,-6.93 12.23,-12.1 19.36,-17.02 5.7,-3.93 11.74,-7.28 17.85,-10.52 4.19,-2.22 8.55,-3.92 13.16,-5.02 1.6,-0.38 2.64,-1.31 2.9,-2.96 0.19,-1.18 0.37,-2.38 0.39,-3.57 0.19,-8.83 0.43,-17.66 0.47,-26.49 0.02,-6.04 -0.26,-12.07 -0.39,-18.11 -0.02,-0.92 -0.36,-1.38 -1.32,-1.48 -1.15,-0.11 -2.29,-0.34 -3.43,-0.54 -3.26,-0.58 -6.45,-1.31 -9.61,-2.41 -6.44,-2.24 -13.09,-3.9 -18.4,-8.56 -1.69,-1.48 -2.24,-1.46 -3.95,0.01 -3.75,3.24 -7.39,6.61 -11.13,9.86 -1.24,1.08 -1.98,2.36 -2.33,3.94 -0.96,4.28 -2.38,8.43 -2.69,12.87 -0.2,2.89 -1.13,5.72 -1.45,8.6 -0.55,4.92 -0.61,9.89 -2.28,14.64 -0.37,1.06 -0.53,2.29 -0.44,3.41 0.41,5.49 3.05,10.19 5.49,14.94 0.67,1.3 0.62,2.08 -0.51,3.03 -0.56,0.47 -0.96,1.13 -1.54,1.56 -0.34,0.25 -0.96,0.41 -1.34,0.28 -0.49,-0.17 -0.92,-0.62 -1.3,-1.02 -1.46,-1.53 -2.84,-3.15 -4.35,-4.64 -5.68,-5.58 -8.61,-12.7 -10.06,-20.19 -1.32,-6.81 -0.68,-13.8 1.12,-20.67 1.98,-7.56 3.47,-15.25 5.11,-22.89 0.5,-2.35 1.4,-4.39 3.35,-5.9 0.44,-0.34 0.76,-0.82 1.17,-1.2 3.48,-3.23 6.91,-6.51 10.47,-9.64 1.51,-1.33 1.67,-1.51 0.74,-3.25 -1.62,-3.06 -3.2,-6.15 -4.77,-9.23 -0.34,-0.66 -0.83,-0.97 -1.44,-0.54 -2.42,1.69 -5.1,3.15 -7.12,5.24 -3.78,3.9 -7.15,8.19 -10.71,12.3 -1.72,1.99 -3.05,4.16 -3.78,6.73 -0.72,2.53 -1.63,5.01 -2.43,7.52 -1.72,5.36 -3.74,10.64 -5.05,16.1 -1.62,6.75 -2.57,13.65 -3.95,20.46 -0.95,4.68 -0.85,9.36 -0.46,14.07 0.39,4.69 2.04,9.01 3.71,13.34 1.21,3.12 2.46,6.23 3.68,9.35 0.78,1.99 1.61,3.98 2.28,6.01 0.15,0.44 -0.08,1.31 -0.43,1.57 -2.63,1.95 -1.87,2.51 -4.27,0.2 -0.69,-0.66 -1.49,-1.22 -2.15,-1.92 -0.68,-0.72 -1.48,-1.45 -1.83,-2.34 -0.98,-2.49 -2.76,-4.35 -4.45,-6.33 C 6.71,140.3 3.65,136.12 2.4,130.98 1.81,128.54 1.48,126.03 1.19,123.53 0.7,119.33 -0.25,115.07 0.06,110.92 0.62,103.58 1.91,96.29 3.06,89 3.61,85.46 4.45,81.96 5.28,78.47 c 0.64,-2.7 1.46,-5.36 2.2,-8.04 0.25,-0.92 0.43,-1.88 0.77,-2.76 2.12,-5.45 4.59,-10.73 7.76,-15.65 2.85,-4.42 5.38,-9.07 9.27,-12.77 2.69,-2.56 5.18,-5.34 7.69,-8.09 6.48,-7.11 13.9,-13.07 22.01,-18.21 0.67,-0.43 1.38,-0.86 1.91,-1.43 2.74,-2.97 6.12,-5.13 9.39,-7.42 0.78,-0.55 1.59,-1.15 2.48,-1.42 0.61,-0.19 1.61,-0.09 2.04,0.3 2.13,1.95 2.14,3.01 0.71,5.56 -2.12,3.76 -4.1,7.57 -5.38,11.74 -0.98,3.2 -1.28,6.48 -1.76,9.76 -0.52,3.51 0.04,6.71 1.85,9.66 2.93,4.76 5.92,9.49 9.02,14.15 1.86,2.79 4.28,5.08 7.34,6.57 2.01,0.98 4.01,2.02 6.11,2.76 3.76,1.33 7.59,2.46 11.39,3.68 0.71,0.23 1.42,0.48 2.18,0.75 0.05,-0.27 0.1,-0.42 0.11,-0.57 0.16,-3.8 0.26,-7.59 0.49,-11.38 0.07,-1.16 0.4,-2.35 0.81,-3.45 0.5,-1.32 0.42,-1.63 -1.04,-1.7 -4.27,-0.21 -8.17,-1.59 -11.67,-3.93 -3.19,-2.14 -6.22,-4.56 -8.26,-7.9 -1.13,-1.86 -2.59,-3.13 -4.64,-3.7 -0.96,-0.27 -1.25,-0.8 -1.19,-1.75 0.21,-3.12 1.03,-6.06 2.55,-8.79 3.01,-5.4 6.75,-10.27 10.69,-15.02 3.22,-3.86 6.89,-7.01 11.56,-8.92 0.43,-0.18 0.94,-0.16 1.41,-0.23 -0.12,0.53 -0.09,1.19 -0.39,1.57 -1.24,1.51 -2.48,3.06 -3.92,4.37 -3.12,2.84 -5.2,6.35 -6.92,10.12 -0.23,0.51 -0.25,1.12 -0.4,1.83 0.55,-0.09 0.9,-0.14 1.23,-0.2 1.8,-0.36 3.59,-0.86 5.41,-1.06 6.79,-0.73 13.59,-1.44 20.45,-0.97 2.22,0.15 4.36,0.37 6.34,1.51 0.82,0.47 1.79,0.68 2.7,1.01 0.09,-0.1 0.18,-0.2 0.27,-0.3 -0.14,-0.51 -0.23,-1.05 -0.44,-1.53 -0.5,-1.13 -1.19,-2.2 -1.56,-3.36 -1.23,-3.94 -3.52,-7.13 -6.58,-9.83 -0.45,-0.4 -0.86,-0.83 -1.28,-1.26 -0.47,-0.48 -0.86,-1.02 -0.32,-1.67 0.52,-0.63 1.1,-0.58 1.8,-0.19 3.7,2.04 6.72,4.85 9.35,8.11 1.18,1.46 2.25,3.01 3.45,4.46 4.34,5.21 6.66,11.31 7.95,17.87 0.29,1.49 -0.06,2.66 -1.41,3.5 -1.63,1.02 -2.84,2.42 -3.77,4.11 -0.46,0.83 -1.03,1.61 -1.62,2.37 -3.85,5 -9.39,7.1 -15.17,8.72 -1.06,0.3 -1.42,0.77 -1.37,1.71 0.19,4.23 0.41,8.47 0.6,12.7 0.04,0.85 0.48,1.31 1.29,1.19 1.69,-0.26 3.46,-0.36 5.02,-0.98 3.81,-1.53 7.51,-3.33 11.26,-5.01 6.87,-3.07 12.25,-7.86 16.42,-14.08 0.6,-0.9 1.24,-1.77 1.83,-2.67 2.54,-3.93 4.5,-8.02 4.89,-12.82 0.54,-6.66 0.14,-13.14 -2.23,-19.47 -0.64,-1.72 -0.99,-3.64 -1.04,-5.48 -0.06,-2.34 2.03,-4.27 4.1,-3.87 2.26,0.43 4.5,1.04 6.36,2.6 0.59,0.5 1.46,0.84 2.23,0.9 2.01,0.16 3.76,0.7 4.98,2.42 0.22,0.31 0.59,0.52 0.89,0.79 2.63,2.33 5.31,4.61 7.86,7.02 2.26,2.13 4.26,4.55 6.58,6.61 4.44,3.94 8.61,8.12 12.22,12.83 1.82,2.38 3.48,4.88 5.09,7.41 1.48,2.31 3.01,4.63 4.14,7.12 1.32,2.89 2.1,6.02 3.34,8.96 4.23,10.05 6.15,20.55 6.3,31.4 0.07,5.04 0,10.08 0.05,15.12 0.02,1.42 0.25,2.84 0.39,4.27 0,2.56 0,5.12 0,7.68 -0.21,1.82 -0.28,3.66 -0.66,5.45 -0.62,2.93 -1.67,5.78 -2.12,8.72 -0.7,4.63 -2.98,8.51 -5.46,12.26 -3.64,5.5 -8.53,9.81 -13.72,13.8 -1.81,1.39 -3.81,1.77 -5.99,1.47 -2.43,-0.33 -2.7,-0.91 -1.18,-2.8 3.62,-4.49 6.17,-9.61 8.84,-14.65 0.52,-0.97 0.81,-2.08 1.09,-3.16 1.01,-3.9 1.77,-7.88 3,-11.71 1.42,-4.43 1.86,-8.95 1.6,-13.49 -0.37,-6.5 -1.21,-12.97 -1.84,-19.45 -0.27,-2.74 -0.24,-5.54 -0.81,-8.22 -1.43,-6.71 -2.95,-13.42 -4.79,-20.03 -1.18,-4.21 -2.7,-8.39 -4.66,-12.29 -1.09,-2.16 -3.29,-3.84 -5.21,-5.48 -1.61,-1.38 -3.58,-2.34 -5.33,-3.58 -2.38,-1.69 -4.66,-3.5 -7.04,-5.19 -1.22,-0.87 -1.82,-0.63 -2.14,0.77 -0.68,3.04 -1.36,6.08 -1.9,9.15 -0.12,0.67 0.19,1.66 0.67,2.13 1.53,1.51 3.13,3.01 4.9,4.22 3.03,2.08 5.35,4.8 7.47,7.71 0.57,0.78 1,1.76 1.16,2.7 1.3,7.57 2,15.22 2.13,22.88 0.11,6.63 -0.26,13.26 -0.41,19.89 -0.05,2.47 -0.79,4.71 -2.12,6.77 -1.81,2.81 -3.94,5.32 -6.46,7.53 -6.39,5.59 -13.42,10.19 -21.12,13.74 -0.47,0.22 -1.2,0.02 -1.75,-0.15 -0.39,-0.12 -0.69,-0.53 -1.05,-0.78 -1.48,-1.04 -1.59,-1.74 -0.35,-3.06 2.1,-2.25 4.3,-4.41 6.34,-6.72 2.04,-2.29 3.98,-4.67 5.86,-7.09 0.51,-0.65 0.86,-1.58 0.9,-2.4 0.12,-2.35 0.08,-4.71 0.03,-7.06 -0.15,-7.31 -0.34,-14.63 -0.49,-21.94 -0.09,-4.43 -1.38,-8.25 -4.9,-11.26 -2.53,-2.18 -4.78,-4.69 -7.16,-7.04 -1.29,-1.27 -2.36,-1.36 -3.97,-0.29 -1.73,1.15 -3.38,2.43 -5.18,3.47 -8.05,4.67 -16.63,7.69 -25.97,8.41 -1.77,0.14 -1.81,0.32 -1.86,2.21 -0.37,14.47 -0.75,28.94 -1.13,43.41 -0.09,3.28 -0.19,6.56 -0.32,9.83 -0.09,2.39 -1.29,3.93 -3.4,4.52 -2.5,0.7 -5.04,1.28 -7.48,2.13 -8.12,2.82 -16,6.16 -23.67,10.07 -6.94,3.54 -13.24,7.88 -18.74,13.4 -0.92,0.92 -0.99,1.47 -0.01,2.29 1.53,1.28 3.08,2.55 4.74,3.66 6.49,4.33 13.86,6.51 21.34,8.14 4.29,0.93 8.8,0.97 13.23,1.09 3.99,0.11 7.99,-0.16 11.99,-0.38 10.07,-0.57 19.33,-3.78 27.87,-9 2.88,-1.76 5.38,-4.13 8,-6.29 1,-0.82 0.81,-1.51 -0.41,-2.03 -0.22,-0.09 -0.45,-0.17 -0.68,-0.24 -3.63,-1.08 -7.28,-2.12 -10.89,-3.25 -5.9,-1.84 -11.83,-2.2 -17.84,-0.62 -1.17,0.31 -1.28,0.56 -0.6,1.52 0.14,0.2 0.31,0.37 0.42,0.58 0.86,1.57 0.78,3.25 0.01,4.72 -0.62,1.18 -2.04,0.85 -3.18,0.82 -6.07,-0.2 -12.15,-0.41 -18.22,-0.62 -2.64,-0.09 -5.31,-0.46 -7.9,-0.15 -1.9,0.22 -2.92,-0.29 -3.79,-1.81 -0.65,-1.14 -0.62,-1.85 0.48,-2.63 0.71,-0.51 1.53,-0.88 2.22,-1.42 4.41,-3.51 9.24,-6.29 14.45,-8.4 1.85,-0.75 3.7,-1.52 5.61,-2.04 4.65,-1.24 9.39,-1.89 14.21,-1.95 4.18,-0.05 8.38,-0.57 12.45,1.03 1.12,0.44 2.44,0.36 3.65,0.61 1.94,0.4 3.88,0.84 5.8,1.35 1.46,0.39 2.85,1.03 4.32,1.37 3.84,0.89 7.44,2.41 10.96,4.14 0.85,0.42 1.71,0.68 2.62,0.16 0.76,-0.44 1.49,-0.21 1.89,0.45 0.33,0.55 0.71,1.48 0.47,1.89 -1.86,3.16 -3.56,6.47 -5.88,9.27 -3.9,4.69 -8.64,8.52 -13.81,11.8 -4.46,2.83 -9.02,5.41 -14.01,7.27 -5.84,2.18 -11.95,3.19 -17.99,4.49 -2,0.41 -4.14,0.47 -6.23,0.71 z M 106.74,41.88 c 1.33,-0.15 3.04,-0.34 4.75,-0.52 6.28,-0.66 11.77,-3.07 16.44,-7.34 2,-1.83 1.67,-4.25 -0.8,-5.4 -1.63,-0.76 -3.24,-1.58 -4.94,-2.16 -1.84,-0.62 -3.74,-1.27 -5.65,-1.42 -4.1,-0.32 -8.24,-0.19 -12.34,-0.52 -3.1,-0.25 -6,0.31 -8.84,1.36 -2.8,1.04 -5.57,2.15 -8.34,3.27 -0.78,0.32 -1.47,0.86 -1.06,1.84 1.06,2.58 2.36,5.04 4.87,6.5 4.79,2.8 10.03,4.07 15.91,4.39 z"
   id="path4"
   inkscape:connector-curvature="0"
   style="fill:#000000;fill-opacity:1" />
    </g>
</g>
</svg>