<?xml version="1.0" encoding="UTF-8" standalone="no"?>
<!-- Generator: Adobe Illustrator 25.0.1, SVG Export Plug-In  -->

<svg
   xmlns:dc="http://purl.org/dc/elements/1.1/"
   xmlns:cc="http://creativecommons.org/ns#"
   xmlns:rdf="http://www.w3.org/1999/02/22-rdf-syntax-ns#"
   xmlns:svg="http://www.w3.org/2000/svg"
   xmlns="http://www.w3.org/2000/svg"
   xmlns:sodipodi="http://sodipodi.sourceforge.net/DTD/sodipodi-0.dtd"
   xmlns:inkscape="http://www.inkscape.org/namespaces/inkscape"
   version="1.1"
   x="0px"
   y="0px"
   width="222.222"
   height="222.222"
   viewBox="0 0 222.22199 222.222"
   style="overflow:visible"
   xml:space="preserve"
   id="svg10"
   sodipodi:docname="fyreslayers.svg"
   inkscape:version="0.92.3 (2405546, 2018-03-11)"><metadata
   id="metadata14"><rdf:RDF><cc:Work
       rdf:about=""><dc:format>image/svg+xml</dc:format><dc:type
         rdf:resource="http://purl.org/dc/dcmitype/StillImage" /><dc:title /></cc:Work></rdf:RDF></metadata><sodipodi:namedview
   pagecolor="#ffffff"
   bordercolor="#666666"
   borderopacity="1"
   objecttolerance="10"
   gridtolerance="10"
   guidetolerance="10"
   inkscape:pageopacity="0"
   inkscape:pageshadow="2"
   inkscape:window-width="1920"
   inkscape:window-height="1017"
   id="namedview12"
   showgrid="false"
   inkscape:zoom="1.0621062"
   inkscape:cx="-209.09407"
   inkscape:cy="111.1"
   inkscape:window-x="-8"
   inkscape:window-y="-8"
   inkscape:window-maximized="1"
   inkscape:current-layer="svg10" />
<defs
   id="defs2">
</defs>
<g
   id="g8"
   transform="translate(30.68218,8.3010173e-5)"
   style="fill:#000000;fill-opacity:1">
	<path
   d="m 104.72,152.55 c -2.65,-1.82 -5.13,-3.49 -7.57,-5.22 -0.88,-0.62 -1.85,-1.26 -2.44,-2.12 -0.69,-0.99 -1.54,-2.35 -1.32,-3.34 0.15,-0.69 1.99,-1.49 3.02,-1.43 2.79,0.17 5.57,0.68 8.3,1.27 1.82,0.39 3.56,1.16 6.03,1.99 -1.28,-2.43 -2.23,-4.22 -3.17,-6.03 -3.34,-6.47 -1.34,-13.06 5.07,-16.56 2.47,-1.35 5.02,-2.57 7.7,-3.93 -1.94,-1.58 -3.77,-2.9 -5.4,-4.41 -3.38,-3.13 -3.46,-6.12 -0.42,-9.56 3.22,-3.66 7.28,-5.42 12.23,-5.27 0.4,-2.26 -0.32,-3.84 -2.06,-5.23 -3.65,-2.91 -7.18,-5.96 -10.74,-8.97 -2.2,-1.85 -2.89,-3.95 -1.83,-6.86 1.63,-4.46 1.63,-9.1 0.8,-13.79 -0.8,-4.55 -1.36,-9.14 -2.06,-14 -3.57,4.78 -6.9,9.23 -10.22,13.68 -0.3,0.4 -0.59,0.81 -0.93,1.17 -1.22,1.29 -2.63,1.81 -4.23,0.75 -1.63,-1.07 -1.43,-2.59 -0.52,-3.94 2.48,-3.68 2.22,-7.71 1.77,-12.14 -0.81,0.42 -1.46,0.69 -2.05,1.06 -3.8,2.4 -7.48,5.01 -11.4,7.2 -4.92,2.75 -10.01,5.21 -15.07,7.68 -5,2.44 -10.06,4.77 -15.12,7.1 -2.86,1.31 -4.22,0.99 -5.53,-1.73 -3.47,-7.16 -9.71,-10.69 -16.79,-13.17 -3.1,-1.09 -6.24,-2.09 -9.79,-3.27 0.72,-0.54 0.99,-0.87 1.33,-0.97 5.23,-1.6 10.44,-3.3 15.73,-4.68 1.51,-0.39 3.26,0.12 4.89,0.23 1.39,0.09 2.84,0.46 4.17,0.21 0.89,-0.16 2.08,-1.05 2.32,-1.85 0.24,-0.82 -0.21,-2.36 -0.89,-2.84 -1.72,-1.21 -3.68,-2.68 -5.64,-2.83 -7.72,-0.58 -15.47,-0.71 -23.21,-0.99 -1.05,-0.04 -2.11,-0.01 -3.6,-0.01 3.46,-4.72 7.41,-7.84 12.97,-8.46 3.14,-0.35 6.3,-0.54 9.44,-0.9 2.71,-0.31 3.81,-1.8 3.24,-4.48 C 41.13,23.12 39.5,20.97 36.68,20.25 32.83,19.26 28.9,18.57 25,17.76 c -0.95,-0.2 -1.9,-0.37 -3.28,-0.64 3.43,-3.38 7.2,-5.13 11.43,-5.85 7.66,-1.29 14.66,0.7 21.27,4.48 1.59,0.91 3.13,1.92 4.79,2.68 1.97,0.89 3.94,0.9 5.32,-1.14 1.42,-2.09 0.33,-3.75 -1.32,-4.92 C 58.81,9.24 54.32,6.24 49.83,3.24 48.69,2.47 47.43,1.88 46.22,1.21 c 0.06,-0.22 0.13,-0.43 0.19,-0.65 3.54,0.64 7.22,0.85 10.57,2.02 6.73,2.34 13.36,5.04 19.88,7.93 2.45,1.08 4.4,3.25 6.73,4.66 1.8,1.09 3.77,2.15 5.8,2.55 3.07,0.6 4.86,-1.77 3.48,-4.61 C 91.54,10.36 89.72,7.84 88.06,5.26 87.02,3.7 85.87,2.18 84.33,0 c 7.36,2.15 13.84,4.4 18.09,10.33 1.92,2.68 3.24,5.79 4.81,8.71 0.47,0.88 0.67,2.04 1.37,2.63 1.05,0.9 2.39,1.85 3.68,1.97 1.74,0.17 2.93,-1.2 3.14,-2.95 0.35,-2.89 0.51,-5.8 0.72,-8.7 0.06,-0.9 0.01,-1.8 0.01,-3.01 4.24,1.18 7.49,3.33 10.19,6.37 5.39,6.05 7.3,13.5 8.38,21.25 0.31,2.22 0.32,4.48 0.37,6.73 0.04,1.94 -0.2,4.27 2.12,4.79 2.24,0.51 4.48,-0.35 5.87,-2.45 1.22,-1.85 2.33,-3.77 3.53,-5.74 2.6,2.37 2.7,5.35 3.1,8.19 0.72,5.19 1.33,10.4 2.01,15.59 0.12,0.9 0.31,1.81 0.61,2.67 1.2,3.39 4.02,4.17 6.76,1.93 0.43,-0.35 0.86,-0.7 1.45,-1.17 0.99,6.96 -0.31,13.12 -4.24,18.64 -0.69,0.97 -1.84,1.66 -2.89,2.31 -1.67,1.04 -2.93,2.67 -1.98,4.28 0.62,1.05 2.75,1.39 4.27,1.68 1,0.19 2.12,-0.29 3.5,-0.52 0,0.74 0.17,1.49 -0.03,2.12 -1.47,4.79 -3.07,9.52 -7.19,12.85 -0.95,0.77 -1.74,1.78 -2.49,2.77 -1.26,1.65 -1.34,3.45 0,5.05 1.44,1.71 3.29,1.77 5.19,0.73 1.13,-0.62 2.23,-1.31 3.69,-2.18 -1.6,6.1 -3.71,11.23 -9.82,13.61 -1.78,0.69 -3.34,1.95 -5.23,3.09 2.71,2.39 4.94,0.85 7.72,0.74 -1.21,1.85 -2.23,3.88 -3.68,5.52 -3.57,4.02 -8.37,6.22 -13.17,8.38 -3.75,1.68 -4.17,2.91 -1.65,6.11 1.17,1.48 0.88,2.35 -0.24,3.61 -5.09,5.72 -11.14,9.69 -18.86,10.81 -0.33,0.05 -0.67,0.07 -0.98,0.17 -1.92,0.6 -3.69,1.36 -3.31,3.9 0.29,1.94 2.36,3.18 4.82,2.9 1.36,-0.15 2.71,-0.28 4.07,-0.43 0.07,0.2 0.13,0.4 0.2,0.59 -2.37,1.3 -4.72,2.64 -7.12,3.89 -3.98,2.08 -8.07,3.96 -11.95,6.21 -5,2.9 -5.93,5.96 -3.64,11.3 0.68,1.58 0.22,2.47 -0.98,3.4 -8.29,6.41 -17.12,11.8 -27.29,14.7 -8.54,2.43 -17.03,5.06 -25.67,7.09 -4.9,1.15 -10.03,1.42 -15.08,1.75 -1.89,0.12 -3.83,-0.7 -6.38,-1.22 1.33,-1.43 2.15,-2.41 3.06,-3.3 6.18,-6.06 11.61,-12.63 14.21,-21.1 0.27,-0.87 0.52,-1.76 0.65,-2.66 0.43,-2.92 -0.29,-3.79 -3.2,-3.83 -1.73,-0.03 -3.51,-0.2 -5.19,0.09 -4.16,0.72 -6.78,4.07 -6.76,8.3 0.02,4.34 -0.99,5.66 -5.29,6.88 -1.83,0.52 -3.67,1 -5.53,1.44 -0.34,0.08 -0.76,-0.17 -1.22,-0.29 0.04,-0.44 -0.04,-0.83 0.12,-1.06 4.95,-7.53 5.75,-16.39 7.89,-24.8 2.31,-9.1 4.32,-18.27 6.47,-27.41 0.16,-0.69 0.38,-1.37 0.68,-2.44 1.25,1.88 2.29,3.46 3.34,5.03 2.12,3.16 3.2,3.37 6.29,1.23 4.06,-2.81 8.2,-5.44 13.26,-6.02 1.03,-0.12 2.09,-0.02 3.62,-0.02 -0.92,1.58 -1.55,2.91 -2.41,4.09 -3.87,5.32 -5.65,11.22 -5.39,17.8 0.13,3.24 0.01,6.5 -0.13,9.75 -0.21,5.04 2.01,9.04 5.41,12.42 1.06,1.05 2.69,2.05 4.1,2.12 6.14,0.31 12.34,0.73 18.45,0.23 7.2,-0.59 12.96,-6.63 14.2,-13.72 0.48,-2.74 0.71,-5.46 -0.75,-8.02 -0.16,-0.28 -0.26,-0.65 -0.22,-0.96 0.55,-5.09 -2.86,-7.61 -6.4,-10.14 -1.15,-0.82 -1.97,-2.08 -2.95,-3.14 1.24,-0.71 2.41,-1.81 3.74,-2.05 4.55,-0.84 9.13,-1.66 13.74,-1.97 4.25,-0.33 7.56,-2.21 10.8,-4.89 z"
   id="path4"
   inkscape:connector-curvature="0"
   style="fill:#000000;fill-opacity:1" />
	<path
   d="m 122.37,94.71 c -5.69,0.58 -9.12,3.05 -10.71,8.02 -1.5,4.7 -1.53,8.89 3.47,11.98 -0.93,0.88 -1.53,1.53 -2.21,2.06 -1.45,1.11 -2.92,2.21 -4.45,3.22 -5,3.29 -6.6,5.83 -4.27,14.03 0.54,1.88 1.52,3.64 2.52,5.96 -2.16,-0.37 -3.91,-0.92 -5.66,-0.91 -3.1,0.02 -6.33,-0.06 -9.28,0.73 -2.92,0.79 -3.33,2.98 -1.1,5.08 2.26,2.12 4.97,3.78 7.53,5.58 0.84,0.59 1.82,0.97 3.15,1.66 -2.68,2.09 -5.09,3.94 -8.1,3.6 -9.77,-1.11 -18.26,2.82 -26.79,6.53 -5.02,2.19 -7.35,7.24 -5.65,11.29 0.09,0.22 0.29,0.39 0.67,0.9 1,-1.43 1.92,-2.74 2.84,-4.06 2.31,-3.3 5.7,-4.32 9.41,-2.81 6.01,2.44 9.63,9.33 8.35,15.8 -1.16,5.83 -6.79,10.84 -13.39,10.43 -3.57,-0.22 -7.16,-0.01 -10.75,-0.03 -6.07,-0.03 -9.72,-3.09 -10.61,-9.07 -2.32,-15.5 2.62,-27.97 15.47,-37.22 6.76,-4.86 13.67,-9.58 18.85,-16.27 3.01,-3.88 5.28,-8.07 5.27,-13.18 0,-1.33 -0.05,-2.91 -1.7,-2.65 -1,0.16 -2.61,1.67 -2.55,2.47 0.43,5.49 -2.6,9.1 -6.19,12.49 -2.36,2.23 -4.68,4.51 -7.11,6.65 -5.54,4.86 -9.57,5.15 -15.36,0.6 -2.28,-1.79 -3.81,-1.84 -6.24,-0.36 -7.08,4.33 -14.57,1.86 -17.74,-5.86 -0.75,-1.84 -0.63,-4.22 -0.28,-6.25 0.2,-1.18 1.66,-2.14 2.55,-3.19 0.26,0.15 0.52,0.3 0.78,0.46 0,0.53 0,1.07 0,1.6 0.03,4.58 1.72,5.99 6.36,5.68 5.35,-0.35 9.03,-3.17 11.54,-7.63 1.34,-2.38 2.48,-4.91 3.36,-7.49 1.4,-4.09 3.83,-7.13 7.77,-8.96 0.79,-0.37 1.52,-0.89 2.37,-1.4 -2.9,-2.15 -8.11,-2.32 -11.07,-0.51 -3.46,2.12 -4.93,5.08 -3.57,9.18 -0.18,0.15 -0.35,0.3 -0.53,0.46 -2.44,-1.81 -4.88,-3.62 -7.38,-5.47 -3.9,3.27 -2.34,7.81 -2.78,12.56 -1.49,-1.7 -2.79,-2.92 -3.78,-4.36 -1.82,-2.65 -4.12,-3.86 -7.4,-4.36 -3.64,-0.55 -7.03,-2.58 -10.67,-3.31 -3.94,-0.79 -6.42,-3.63 -9.29,-5.81 C 5.06,100.34 2.66,97.3 0,94.59 c 0.2,-0.26 0.39,-0.52 0.59,-0.78 1.51,0.69 3.06,1.3 4.52,2.1 4.29,2.36 8.85,2.74 13.56,1.87 0.8,-0.15 1.52,-0.83 2.21,-1.37 1.36,-1.06 2.52,-2.52 4.03,-3.22 7.89,-3.64 14.18,-9.26 19.89,-15.63 1.09,-1.22 2.04,-2.38 4,-1.46 0.58,0.27 1.59,-0.2 2.33,-0.5 5.77,-2.34 11.48,-4.86 17.31,-7.04 8.87,-3.33 17,-7.96 25.13,-13.9 -0.21,1.5 -0.24,2.59 -0.52,3.61 -0.57,2 -1.29,3.95 -1.92,5.92 -0.82,2.61 0.14,4.05 2.88,4.09 3.46,0.05 6.31,-1.42 8.48,-4.07 1.58,-1.93 2.99,-4 4.52,-5.98 0.6,-0.77 1.31,-1.45 2.44,-2.68 0.54,1.46 1.15,2.43 1.23,3.44 0.56,7.17 0.67,14.27 -2.47,21.06 -1.26,2.73 -0.66,3.08 1.9,4.61 3.39,2.02 6.59,4.39 9.76,6.76 0.93,0.69 1.48,1.92 2.5,3.29 z m -69.51,38.68 c 3.52,0.86 4.29,0.45 5.51,-2.5 0.21,-0.51 0.85,-0.97 1.4,-1.2 3.29,-1.43 3.31,-1.44 2.08,-4.98 -0.17,-0.5 -0.27,-1.03 -0.45,-1.71 1.09,0.18 1.89,0.32 2.7,0.44 3.87,0.57 6.44,-1.59 6.1,-5.47 -0.14,-1.66 -1.02,-3.29 -1.7,-4.88 -0.82,-1.93 -2.16,-2.09 -3.69,-0.76 -0.61,0.54 -1.26,1.12 -1.64,1.82 -3.44,6.34 -6.83,12.72 -10.31,19.24 z m 6.01,-54.02 c -4.75,1.47 -7.28,3.46 -7.89,6.07 4.2,-0.08 6.47,-1.76 7.89,-6.07 z"
   id="path6"
   inkscape:connector-curvature="0"
   style="fill:#000000;fill-opacity:1" />
</g>
</svg>