<?xml version="1.0" encoding="UTF-8" standalone="no"?>
<!-- Generator: Adobe Illustrator 23.0.4, SVG Export Plug-In  -->

<svg
   xmlns:dc="http://purl.org/dc/elements/1.1/"
   xmlns:cc="http://creativecommons.org/ns#"
   xmlns:rdf="http://www.w3.org/1999/02/22-rdf-syntax-ns#"
   xmlns:svg="http://www.w3.org/2000/svg"
   xmlns="http://www.w3.org/2000/svg"
   xmlns:sodipodi="http://sodipodi.sourceforge.net/DTD/sodipodi-0.dtd"
   xmlns:inkscape="http://www.inkscape.org/namespaces/inkscape"
   version="1.1"
   x="0px"
   y="0px"
   width="225.87"
   height="225.87"
   viewBox="0 0 225.87001 225.86999"
   xml:space="preserve"
   id="svg11"
   sodipodi:docname="idoneth_deepkin.svg"
   inkscape:version="0.92.3 (2405546, 2018-03-11)"><metadata
   id="metadata15"><rdf:RDF><cc:Work
       rdf:about=""><dc:format>image/svg+xml</dc:format><dc:type
         rdf:resource="http://purl.org/dc/dcmitype/StillImage" /><dc:title /></cc:Work></rdf:RDF></metadata><sodipodi:namedview
   pagecolor="#ffffff"
   bordercolor="#666666"
   borderopacity="1"
   objecttolerance="10"
   gridtolerance="10"
   guidetolerance="10"
   inkscape:pageopacity="0"
   inkscape:pageshadow="2"
   inkscape:window-width="1920"
   inkscape:window-height="1017"
   id="namedview13"
   showgrid="false"
   inkscape:zoom="1.0448951"
   inkscape:cx="-223.44792"
   inkscape:cy="112.93"
   inkscape:window-x="-8"
   inkscape:window-y="-8"
   inkscape:window-maximized="1"
   inkscape:current-layer="svg11" />
<defs
   id="defs2">
</defs>
<g
   id="ULb5YF_2_"
   transform="translate(42.094998,0.00987468)"
   style="fill:#000000;fill-opacity:1">
    <g
   id="g8"
   style="fill:#000000;fill-opacity:1">
        <path
   d="m 67.28,225.86 c -0.3,-0.67 -0.8,-1.33 -0.86,-2.03 -0.76,-8.32 -1.83,-16.62 -1.73,-25 0.08,-6.2 0.23,-12.4 0.18,-18.59 -0.06,-6.12 -0.34,-12.23 -0.54,-18.35 -0.01,-0.34 -0.1,-0.81 -0.33,-0.97 -2.56,-1.86 -5.11,-3.74 -8.51,-3.73 -2.16,0.01 -3.83,0.83 -5.08,2.64 -2.09,3.03 -2.55,6.32 -1.72,9.84 1.91,8.08 3.85,16.16 5.75,24.24 0.16,0.67 0.12,1.39 0.17,2.08 -0.15,0.05 -0.29,0.1 -0.44,0.15 -0.32,-0.32 -0.69,-0.59 -0.94,-0.95 -1.61,-2.38 -3.24,-4.76 -4.76,-7.2 -0.67,-1.07 -1.22,-2.26 -1.6,-3.46 -1.41,-4.45 -2.74,-8.93 -4.07,-13.4 -0.87,-2.94 -1.97,-5.86 -2.43,-8.87 -0.4,-2.65 -0.38,-5.46 0.02,-8.11 1.05,-6.96 8.39,-10.91 14.88,-8.31 2.73,1.1 5.53,2.03 8.43,3.08 0,-0.55 0,-0.9 0,-1.26 0,-7.56 -0.01,-15.12 0.02,-22.68 0,-0.93 -0.18,-1.31 -1.21,-1.4 C 47.45,122.26 33.55,117.55 21.01,109.05 13.54,103.99 7.46,97.61 3.26,89.57 2.58,88.27 2.22,86.71 2.07,85.23 1.16,76.14 3.45,67.8 8.29,60.13 11,55.84 13.59,51.48 17.05,47.7 c 6.4,-7 14.44,-11.19 23.32,-14.09 4.36,-1.42 8.84,-1.73 13.34,-2.11 6.89,-0.59 13.74,-0.29 20.57,0.66 0.2,0.03 0.41,0.02 0.59,0.08 4.86,1.58 9.75,3.05 14.55,4.78 2.75,0.99 4.97,2.85 6.66,5.29 1.57,2.27 3.19,4.5 4.79,6.75 1.18,1.66 1.45,3.55 1.13,5.5 -0.75,4.6 -2.83,8.46 -6.56,11.33 -0.55,0.42 -1.28,0.59 -1.91,0.91 -0.66,0.33 -1.29,0.7 -1.94,1.06 -0.06,0.04 -0.09,0.18 -0.14,0.19 -2.3,0.28 -3.92,2.44 -6.4,2.27 -2.3,-0.15 -4.65,0.05 -6.89,-0.36 -2.62,-0.48 -5.14,-1.46 -7.7,-2.23 -0.19,-0.06 -0.43,-0.08 -0.55,-0.21 -0.34,-0.36 -0.63,-0.76 -0.93,-1.15 0.39,-0.28 0.74,-0.71 1.17,-0.82 C 73.56,64.7 77,63.96 80.4,63.1 86.05,61.68 90.67,58.58 94.5,54.25 97.2,51.2 96.9,48.27 93.59,45.9 89.44,42.94 84.7,41.42 79.73,40.57 75.21,39.79 70.71,39.75 66.14,40.48 c -4.37,0.7 -8.83,0.84 -13.24,1.3 -6.73,0.69 -13.21,2.27 -19.25,5.43 -2.33,1.22 -4.76,2.27 -7.11,3.45 -4.99,2.51 -8.93,6.19 -11.63,11.08 -1.89,3.42 -3.75,6.88 -5.34,10.45 -3.1,6.92 -1.58,13.03 4.2,17.95 1.37,1.17 2.79,2.29 4.07,3.55 3.65,3.58 8.36,5.41 12.68,7.87 4.32,2.46 9.02,3.88 13.85,4.84 6.03,1.21 12.05,2.54 18.14,3.29 3.85,0.48 7.84,0.23 11.73,-0.09 18.42,-1.53 34.63,-8.66 49.19,-19.82 4.26,-3.26 7.58,-7.44 10.79,-11.69 0.82,-1.08 1.63,-2.19 2.54,-3.19 0.56,-0.6 1.32,-1.02 1.98,-1.52 0.12,0.09 0.24,0.18 0.36,0.27 -0.14,0.68 -0.22,1.38 -0.42,2.05 -1.21,4.13 -3.57,7.69 -6.03,11.12 -2.99,4.17 -6,8.35 -10.03,11.68 -4.5,3.72 -8.79,7.68 -13.23,11.47 -1.6,1.37 -3.42,2.34 -5.67,2.2 -0.35,-0.02 -0.92,0.57 -1.09,1 -0.34,0.83 -0.83,1.34 -1.71,1.48 -0.2,0.03 -0.45,0.02 -0.57,0.14 -2.99,2.87 -6.87,3.95 -10.67,4.92 -4.71,1.2 -9.56,1.86 -14.36,2.66 -1.18,0.2 -1.6,0.57 -1.58,1.82 0.14,7.07 0.19,14.15 0.27,21.23 0,0.43 0,0.86 0,1.55 1.56,-0.93 3,-1.69 4.33,-2.61 3.07,-2.12 6.12,-2.02 9.2,-0.11 3.37,2.1 5.11,5.27 5.89,9.08 0.57,2.78 0.57,5.47 -0.15,8.28 -0.69,2.69 -0.73,5.53 -1.15,8.29 -1.33,8.72 -4.07,16.99 -7.94,24.89 -0.21,0.43 -0.37,0.91 -0.66,1.27 -0.24,0.3 -0.65,0.48 -0.98,0.71 -0.13,-0.35 -0.38,-0.71 -0.36,-1.05 0.05,-0.91 0.14,-1.84 0.34,-2.73 1.99,-9.16 3.33,-18.41 3.6,-27.78 0.06,-1.93 -0.22,-3.9 -0.61,-5.8 -0.37,-1.79 -1.78,-2.71 -3.62,-2.7 -2.86,0.02 -5.13,1.39 -7.05,3.36 -0.32,0.33 -0.36,1.03 -0.38,1.56 -0.16,4.47 -0.15,8.96 -0.48,13.42 -0.26,3.54 -0.87,7.06 -1.47,10.56 -1.14,6.63 -1.6,13.31 -1.9,20.02 -0.26,5.86 -1.04,11.7 -1.66,17.54 -0.1,0.91 -0.61,1.77 -0.93,2.65 -0.27,0.04 -0.51,0.04 -0.75,0.04 z"
   id="path4"
   inkscape:connector-curvature="0"
   style="fill:#000000;fill-opacity:1" />
        <path
   d="m 141.68,19.46 c -0.39,0.44 -0.73,0.95 -1.17,1.32 -3.96,3.3 -7.97,6.55 -11.9,9.88 -1.55,1.31 -2.96,2.8 -4.44,4.2 -0.69,0.66 -0.81,1.37 -0.46,2.27 3.26,8.49 2.55,16.65 -1.18,24.96 -3.12,6.96 -7.93,12.71 -12.07,18.94 -3.28,4.92 -7.84,8.71 -13.19,11.24 -1.85,0.87 -3.51,1.9 -5.25,2.91 -4.29,2.48 -9.13,3.35 -13.99,4.27 -6.43,1.21 -12.47,0.36 -18.65,-1.4 C 52.1,95.98 45.15,93.22 38.67,89.4 33.4,86.3 30.34,81.46 29.41,75.37 c -0.37,-2.4 0.24,-4.62 1.68,-6.57 3.02,-4.07 7.03,-6.52 12.11,-6.87 4.05,-0.28 8.13,-0.91 12.19,-0.01 0.49,0.11 0.9,0.58 1.35,0.89 -0.42,0.43 -0.76,1.09 -1.26,1.24 -2.71,0.81 -5.53,1.32 -8.19,2.25 -2.69,0.95 -5.3,2.17 -7.84,3.49 -1.13,0.59 -2.07,1.63 -2.95,2.6 -1.72,1.89 -1.56,3.85 0.61,5.26 2.2,1.43 4.5,2.76 6.9,3.81 6.35,2.78 13.05,4.54 19.78,6.07 5.39,1.23 10.84,0.62 16.2,-0.43 9.85,-1.93 18.99,-5.62 26.47,-12.42 3.82,-3.47 7.11,-7.57 10.33,-11.63 4.15,-5.22 3.14,-10.79 0.54,-16.37 C 115.1,41.9 111.65,38.37 107.29,35.39 99.76,30.24 91.5,27.47 82.55,26.41 76.4,25.69 70.26,24.85 64.09,24.36 c -2.84,-0.22 -5.76,0.08 -8.6,0.5 -6.35,0.95 -12.68,2.13 -19.01,3.23 -0.67,0.12 -1.34,0.28 -1.96,0.53 -6.72,2.77 -13.39,5.67 -19.5,9.67 -5.19,3.4 -9.05,8.11 -12.82,12.89 -0.47,0.6 -1.19,1 -1.8,1.5 C 0.27,52.59 0.13,52.51 0,52.42 0.03,51.9 -0.03,51.34 0.12,50.86 0.69,49.07 1.24,47.27 1.97,45.55 2.5,44.32 3.18,43.1 4.02,42.07 7.88,37.41 12.68,33.8 17.44,30.14 c 0.73,-0.56 1.43,-1.16 2.19,-1.67 0.91,-0.62 1.02,-1.27 0.2,-2.02 C 17.8,24.59 15.8,22.69 13.7,20.9 11.54,19.06 9.26,17.36 7.07,15.56 6.71,15.26 6.54,14.74 6.28,14.32 c 0.43,-0.25 0.86,-0.7 1.3,-0.72 1.54,-0.05 3.13,-0.16 4.63,0.13 4.31,0.84 8.63,1.76 12.08,4.83 0.65,0.58 1.03,1.1 1.03,2 -0.01,1.64 0.46,2.15 2.07,2.02 1.25,-0.1 2.54,-0.34 3.7,-0.8 3.52,-1.4 6.99,-2.95 10.48,-4.43 1.56,-0.66 1.61,-0.83 0.51,-2.03 C 39.89,12.93 37.74,10.5 35.48,8.19 34.03,6.71 32.37,5.44 30.85,4.03 30.13,3.36 29.42,2.63 28.87,1.82 28.22,0.84 28.83,-0.2 29.94,0.02 c 4.2,0.84 8.57,1.2 12.08,4.14 2.11,1.77 4.35,3.39 6.54,5.06 0.75,0.57 0.98,1.15 0.44,2.04 -0.56,0.93 -0.28,1.62 0.74,2.13 1.78,0.9 3.65,1.05 5.6,0.65 5.54,-1.12 11.11,-2.03 16.78,-1.5 6.36,0.59 12.71,1.35 18.82,3.4 1.52,0.51 3.19,0.73 4.8,0.82 1.47,0.09 2.2,-0.93 1.67,-2.27 -0.46,-1.17 -0.12,-1.97 0.6,-2.83 2.95,-3.52 5.54,-7.36 9.29,-10.15 0.29,-0.21 0.56,-0.47 0.89,-0.58 0.74,-0.26 1.2,0.02 1.11,0.84 -0.05,0.47 -0.22,0.93 -0.38,1.38 -1.76,4.88 -3.53,9.76 -5.29,14.64 -0.61,1.7 -0.53,1.94 1.06,2.72 4.17,2.02 7.93,4.64 11.34,7.76 1.04,0.95 2.19,1.37 3.62,1.14 1.45,-0.23 2.32,-0.98 2.57,-2.43 0.31,-1.79 1.38,-2.87 3.06,-3.51 3.62,-1.37 7.19,-2.89 10.84,-4.18 1.32,-0.47 2.81,-0.5 4.22,-0.62 0.41,-0.03 0.86,0.32 1.29,0.5 0.05,0.13 0.05,0.21 0.05,0.29 z"
   id="path6"
   inkscape:connector-curvature="0"
   style="fill:#000000;fill-opacity:1" />
    </g>
</g>
</svg>