<?xml version="1.0" encoding="UTF-8" standalone="no"?>
<!-- Generator: Adobe Illustrator 23.0.4, SVG Export Plug-In  -->

<svg
   xmlns:dc="http://purl.org/dc/elements/1.1/"
   xmlns:cc="http://creativecommons.org/ns#"
   xmlns:rdf="http://www.w3.org/1999/02/22-rdf-syntax-ns#"
   xmlns:svg="http://www.w3.org/2000/svg"
   xmlns="http://www.w3.org/2000/svg"
   xmlns:sodipodi="http://sodipodi.sourceforge.net/DTD/sodipodi-0.dtd"
   xmlns:inkscape="http://www.inkscape.org/namespaces/inkscape"
   version="1.1"
   x="0px"
   y="0px"
   width="235.64999"
   height="235.64999"
   viewBox="0 0 235.64999 235.65"
   xml:space="preserve"
   id="svg13"
   sodipodi:docname="stormcast_eternals.svg"
   inkscape:version="0.92.3 (2405546, 2018-03-11)"><metadata
   id="metadata17"><rdf:RDF><cc:Work
       rdf:about=""><dc:format>image/svg+xml</dc:format><dc:type
         rdf:resource="http://purl.org/dc/dcmitype/StillImage" /><dc:title /></cc:Work></rdf:RDF></metadata><sodipodi:namedview
   pagecolor="#ffffff"
   bordercolor="#666666"
   borderopacity="1"
   objecttolerance="10"
   gridtolerance="10"
   guidetolerance="10"
   inkscape:pageopacity="0"
   inkscape:pageshadow="2"
   inkscape:window-width="1920"
   inkscape:window-height="1017"
   id="namedview15"
   showgrid="false"
   inkscape:zoom="1.0014003"
   inkscape:cx="-388.61911"
   inkscape:cy="117.835"
   inkscape:window-x="-8"
   inkscape:window-y="-8"
   inkscape:window-maximized="1"
   inkscape:current-layer="svg13" />
<defs
   id="defs2">
</defs>
<g
   id="xyiOdb_2_"
   transform="translate(16.629997,-0.02000305)"
   style="fill:#000000;fill-opacity:1">
    <g
   id="g10"
   style="fill:#000000;fill-opacity:1">
        <path
   d="m 202.39,0.48 c -2.19,2.26 -4.51,4.41 -6.55,6.8 -6.51,7.58 -12.9,15.26 -19.36,22.88 -2.77,3.26 -5.62,6.45 -8.39,9.71 -0.42,0.5 -0.78,1.13 -0.93,1.76 -0.33,1.42 0.19,2.03 1.67,2.04 3,0.02 6,-0.04 8.99,0.01 0.75,0.01 1.49,0.34 2.23,0.52 -0.32,0.69 -0.47,1.55 -0.98,2.05 -2.71,2.7 -5.39,5.45 -8.3,7.94 -6.8,5.82 -13.73,11.5 -20.6,17.24 -0.06,0.05 -0.13,0.1 -0.18,0.16 -2.46,2.75 -2.73,1.8 -4.74,0.17 -3.14,-2.54 -6.29,-5.06 -9.93,-6.88 -0.51,-0.26 -0.96,-0.66 -1.63,-1.13 2.63,-2.25 5.12,-4.35 7.58,-6.48 1.05,-0.92 2.08,-1.88 3.04,-2.89 0.96,-1.01 0.78,-1.71 -0.54,-2.02 -1.08,-0.26 -2.2,-0.37 -3.3,-0.49 -0.79,-0.09 -1.61,-0.01 -2.39,-0.16 -0.4,-0.08 -0.91,-0.43 -1.05,-0.78 -0.1,-0.25 0.23,-0.82 0.52,-1.07 1.63,-1.42 3.3,-2.78 4.96,-4.16 5.01,-4.16 9.98,-8.37 15.02,-12.49 13.82,-11.3 27.32,-23.04 42.85,-32.08 0.54,-0.32 1.02,-0.74 1.53,-1.11 0.16,0.14 0.32,0.3 0.48,0.46 z"
   id="path4"
   inkscape:connector-curvature="0"
   style="fill:#000000;fill-opacity:1" />
        <path
   d="m 132.73,86.68 c -0.64,0.59 -1.1,1.09 -1.63,1.49 -4.66,3.51 -9.33,7 -14.01,10.49 -0.6,0.45 -1.32,0.94 -0.97,1.7 0.23,0.5 0.95,0.94 1.53,1.07 4.84,1.04 9.7,1.99 14.55,2.98 0.78,0.16 1.54,0.41 2.3,0.65 1.45,0.46 1.66,1.16 0.57,2.21 -3.46,3.33 -6.81,6.78 -10.47,9.86 -6.82,5.74 -13.98,11.07 -20.71,16.92 -4.59,3.98 -9.68,7.18 -14.58,10.69 -0.29,0.21 -0.61,0.41 -0.84,0.68 -0.54,0.64 -0.24,1.36 0.57,1.49 0.2,0.03 0.4,0.02 0.6,0.01 5.03,-0.3 10.05,-0.6 15.08,-0.91 0.98,-0.06 2.19,-0.45 2.68,0.7 0.49,1.15 -0.73,1.62 -1.41,2.2 -13.98,12.02 -28.01,23.97 -41.92,36.07 -3.71,3.22 -7.08,6.83 -10.53,10.33 -0.43,0.44 -0.61,1.26 -0.61,1.91 0,0.22 0.85,0.58 1.35,0.66 3.27,0.56 6.54,1.06 9.82,1.58 0.61,0.1 1.22,0.2 1.83,0.3 0.04,0.14 0.08,0.29 0.12,0.43 -20.5,11.56 -41,23.11 -61.5,34.67 -0.06,-0.07 -0.12,-0.13 -0.18,-0.2 0.08,-0.2 0.15,-0.41 0.26,-0.6 8.15,-14.18 15.2,-28.91 22.09,-43.72 1.77,-3.8 3.83,-7.46 5.78,-11.17 0.19,-0.37 0.51,-0.67 1.04,-0.93 0.02,0.37 0.05,0.74 0.05,1.11 0.01,2.96 -0.01,5.92 0.04,8.88 0.01,0.55 0.28,1.1 0.43,1.65 0.59,-0.26 1.3,-0.39 1.74,-0.81 5.53,-5.26 10.98,-10.62 16.56,-15.82 2.16,-2.01 4.6,-3.71 6.92,-5.56 0.34,-0.27 0.74,-0.52 0.97,-0.87 0.2,-0.3 0.35,-0.81 0.22,-1.09 -0.13,-0.26 -0.68,-0.51 -0.99,-0.46 -4.64,0.79 -9.11,-0.83 -13.69,-0.95 -2.2,-0.06 -4.39,-0.1 -6.59,-0.17 -0.5,-0.02 -1,-0.11 -1.86,-0.2 1.18,-1.12 2.05,-2.1 3.06,-2.91 10.68,-8.58 20.34,-18.27 30.28,-27.67 4.59,-4.34 9.37,-8.48 14.06,-12.71 0.27,-0.24 0.61,-0.44 0.78,-0.74 0.25,-0.46 0.51,-0.99 0.5,-1.48 0,-0.18 -0.79,-0.5 -1.2,-0.48 -3.06,0.19 -6.12,0.51 -9.18,0.66 -2.95,0.15 -5.91,0.17 -8.86,0.16 -0.41,0 -1.06,-0.43 -1.17,-0.79 -0.1,-0.32 0.33,-0.89 0.64,-1.24 0.34,-0.38 0.83,-0.62 1.24,-0.94 10.5,-8.24 20.98,-16.5 31.5,-24.72 2.74,-2.14 5.58,-4.15 8.37,-6.22 0.16,-0.12 0.3,-0.26 0.46,-0.39 2.54,-2.08 5.08,-4.17 7.64,-6.23 1.29,-1.04 2.93,-1.11 4.47,-0.13 1.45,0.93 2.79,2.01 4.22,2.96 2.26,1.49 4.57,2.92 6.85,4.38 0.51,0.32 1.02,0.71 1.73,1.22 z"
   id="path6"
   inkscape:connector-curvature="0"
   style="fill:#000000;fill-opacity:1" />
        <path
   d="m 101.24,235.67 c -0.22,-2.34 -0.37,-4.68 -0.67,-7.01 -0.43,-3.44 -1.06,-6.87 -1.43,-10.32 -0.76,-7.03 -1.33,-14.09 -2.14,-21.12 -0.63,-5.43 -1.52,-10.83 -2.29,-16.25 -0.04,-0.28 -0.15,-0.59 -0.07,-0.83 1.07,-3.25 -0.26,-6.51 0.07,-9.76 0.08,-0.82 -0.44,-1.32 -1.26,-1.49 -1.04,-0.21 -2.06,-0.46 -3.34,-0.75 2.13,-1.8 4.02,-3.5 6.05,-5.05 0.49,-0.37 1.38,-0.31 2.08,-0.28 4.56,0.18 9.13,0.16 13.64,-0.59 2.19,-0.37 4.4,-0.85 6.48,-1.62 2.8,-1.04 5.57,-2.25 8.19,-3.67 9.65,-5.23 17.42,-12.24 21.89,-22.62 2.01,-4.68 3.14,-9.33 2.76,-14.4 -0.37,-4.9 -0.57,-9.81 -0.9,-14.72 -0.06,-0.91 -0.24,-1.85 -0.58,-2.69 -1.77,-4.44 -3.26,-9.05 -5.51,-13.24 -4.18,-7.81 -10.91,-13.02 -18.82,-16.78 -1.08,-0.51 -2.09,-1.19 -3.2,-1.59 -1.37,-0.5 -2.81,-0.87 -4.24,-1.15 -4.59,-0.89 -9.22,-1.91 -13.91,-1.53 -10.1,0.8 -19.77,2.99 -27.72,9.88 -2.92,2.53 -5.5,5.36 -7.38,8.76 -2.15,3.87 -4.03,7.93 -6.52,11.57 -3.31,4.84 -3.57,10.27 -3.71,15.7 -0.12,4.46 0.2,8.96 0.71,13.39 0.26,2.25 1.31,4.42 2.11,6.59 0.42,1.13 0.31,1.93 -0.64,2.74 -1.37,1.16 -2.63,2.43 -4.25,3.95 -1.3,-3.95 -2.54,-7.67 -3.76,-11.4 -0.17,-0.53 -0.27,-1.09 -0.45,-1.61 -0.35,-0.97 -1.15,-1.26 -2.09,-1.32 -3.71,-0.23 -7.44,-0.31 -11.13,-0.7 -8.54,-0.92 -17.07,-1.9 -25.58,-3.04 -4.19,-0.56 -8.32,-1.52 -12.48,-2.31 -0.3,-0.06 -0.58,-0.2 -1.15,-0.4 0.49,-0.16 0.71,-0.23 0.94,-0.31 1.87,-0.64 3.71,-1.41 5.61,-1.9 7.07,-1.82 14.14,-3.7 21.27,-5.26 5.06,-1.11 10.24,-1.68 15.34,-2.64 2.54,-0.47 5.03,-1.24 7.53,-1.94 0.32,-0.09 0.7,-0.58 0.75,-0.93 1.29,-9.67 5.63,-17.84 11.91,-25.19 6.15,-7.2 13.41,-12.84 22.18,-16.33 3.61,-1.44 7.5,-2.2 11.3,-3.08 1.64,-0.38 2.59,-1.09 3.05,-2.73 2.05,-7.3 4.17,-14.58 6.27,-21.87 2.9,-10.05 5.79,-20.1 8.7,-30.15 0.14,-0.48 0.35,-0.94 0.53,-1.41 0.11,0 0.21,0 0.32,0 0.07,0.5 0.2,1.01 0.21,1.51 0.15,5.4 0.24,10.8 0.42,16.19 0.16,4.91 0.34,9.83 0.66,14.73 0.11,1.69 0.83,3.35 0.95,5.04 0.39,5.82 0.65,11.66 0.95,17.49 0.1,2.03 0.14,2.04 2,2.71 16.02,5.76 27.92,15.88 34.02,32.14 0.42,1.12 0.96,2.2 1.31,3.35 0.63,2.05 2.08,2.98 4.09,3.37 2.77,0.54 5.51,1.3 8.3,1.73 2.56,0.39 5.19,0.35 7.75,0.71 5.18,0.72 10.35,1.55 15.51,2.41 2.56,0.42 5.1,0.99 7.64,1.51 0.62,0.13 1.22,0.37 1.84,0.7 -2.27,0.69 -4.49,1.63 -6.92,1.46 -1.62,-0.12 -3.1,0.12 -4.49,0.94 -0.23,0.14 -0.54,0.31 -0.77,0.26 -2.62,-0.52 -4.79,0.88 -7.1,1.66 -1.21,0.41 -2.34,1.01 -3.7,0.66 -0.25,-0.07 -0.59,0.15 -0.88,0.25 -1.32,0.43 -2.61,0.97 -3.95,1.28 -3.97,0.91 -7.95,1.77 -11.94,2.57 -2.16,0.43 -3.04,1.68 -3.39,3.83 -0.65,3.97 -1.2,8.04 -2.52,11.81 -3.32,9.46 -9.22,17.2 -17.03,23.47 -7.34,5.88 -15.57,9.86 -24.92,11.31 -1.36,0.21 -1.96,0.88 -2.05,2.19 -0.04,0.56 -0.13,1.12 -0.29,1.65 -0.27,0.89 -0.1,1.58 0.54,2.29 0.33,0.37 0.51,1.09 0.43,1.59 -1.46,8.66 -2.9,17.33 -4.49,25.97 -1.2,6.48 -2.64,12.9 -3.91,19.37 -0.77,3.96 -1.4,7.95 -2.1,11.92 -0.08,0.43 -0.18,0.85 -0.27,1.28 -0.14,0.02 -0.25,0.04 -0.36,0.05 z"
   id="path8"
   inkscape:connector-curvature="0"
   style="fill:#000000;fill-opacity:1" />
    </g>
</g>
</svg>