<?xml version="1.0" encoding="UTF-8" standalone="no"?>
<!-- Generator: Adobe Illustrator 24.1.0, SVG Export Plug-In  -->

<svg
   xmlns:dc="http://purl.org/dc/elements/1.1/"
   xmlns:cc="http://creativecommons.org/ns#"
   xmlns:rdf="http://www.w3.org/1999/02/22-rdf-syntax-ns#"
   xmlns:svg="http://www.w3.org/2000/svg"
   xmlns="http://www.w3.org/2000/svg"
   xmlns:sodipodi="http://sodipodi.sourceforge.net/DTD/sodipodi-0.dtd"
   xmlns:inkscape="http://www.inkscape.org/namespaces/inkscape"
   version="1.1"
   x="0px"
   y="0px"
   width="215.757"
   height="215.757"
   viewBox="0 0 215.757 215.75701"
   xml:space="preserve"
   id="svg10"
   sodipodi:docname="stormcast_eternals_warrior.svg"
   inkscape:version="0.92.3 (2405546, 2018-03-11)"><metadata
   id="metadata14"><rdf:RDF><cc:Work
       rdf:about=""><dc:format>image/svg+xml</dc:format><dc:type
         rdf:resource="http://purl.org/dc/dcmitype/StillImage" /><dc:title /></cc:Work></rdf:RDF></metadata><sodipodi:namedview
   pagecolor="#ffffff"
   bordercolor="#666666"
   borderopacity="1"
   objecttolerance="10"
   gridtolerance="10"
   guidetolerance="10"
   inkscape:pageopacity="0"
   inkscape:pageshadow="2"
   inkscape:window-width="1920"
   inkscape:window-height="1017"
   id="namedview12"
   showgrid="false"
   inkscape:zoom="1.093808"
   inkscape:cx="-236.76295"
   inkscape:cy="107.88"
   inkscape:window-x="-8"
   inkscape:window-y="-8"
   inkscape:window-maximized="1"
   inkscape:current-layer="svg10" />
<defs
   id="defs2">
</defs>
<g
   id="g8"
   transform="translate(63.517325,-0.00305461)"
   style="fill:#000000;fill-opacity:1">
	<g
   id="g6"
   style="fill:#000000;fill-opacity:1">
		<path
   d="m 45.18,215.76 c -1.35,-0.15 -2.72,-0.27 -4.06,-0.47 -0.81,-0.12 -1.73,-0.2 -2.38,-0.63 -1.77,-1.18 -3.64,-2.34 -5.06,-3.88 -1.47,-1.59 -2.6,-3.56 -3.61,-5.5 -0.88,-1.69 -0.15,-3.13 1.43,-4.16 1.45,-0.95 2.59,-2.25 2.82,-4.09 0.03,-0.28 -0.11,-0.68 -0.32,-0.87 -0.89,-0.81 -1.9,-1.49 -2.75,-2.34 -1.37,-1.36 -0.67,-4.33 1.04,-5.2 0.8,-0.41 2.12,-0.54 1.91,-1.99 -0.04,-0.27 -0.18,-0.53 -0.27,-0.79 1.9,-0.26 1.95,-0.26 1.89,-2.27 -0.1,-3.65 -0.34,-7.3 -0.38,-10.94 -0.05,-4.26 0.05,-8.52 0.07,-12.78 0.01,-1.79 -0.05,-3.58 -0.01,-5.36 0.01,-0.38 0.23,-0.86 0.52,-1.12 1.35,-1.2 1.59,-2.42 0.67,-3.96 -0.2,-0.33 -0.36,-0.7 -0.64,-0.94 -1.24,-1.02 -1.23,-2.38 -1.22,-3.82 0.03,-14.76 0.01,-29.52 0.03,-44.29 0,-0.89 0.02,-1.61 -1.11,-1.87 -0.37,-0.08 -0.89,-0.76 -0.87,-1.15 0.18,-3.87 -0.42,-7.77 0.48,-11.62 0.22,-0.93 0.68,-1.39 1.43,-1.7 0.78,-0.33 0.93,-0.72 0.32,-1.35 C 34.97,82.52 34.86,82.28 34.84,82.08 34.59,78.06 34.3,74.05 34.13,70.03 34.01,67.1 34.07,64.16 34.04,61.23 34.03,59.95 32.75,58.6 31.5,58.56 27.09,58.4 22.68,58.25 18.28,58.09 17.98,58.08 17.61,58.13 17.38,57.98 15.81,56.99 14.06,57.36 12.37,57.31 10.43,57.24 8.47,57.16 6.54,57.3 5.71,57.36 4.8,57.84 4.14,58.39 2.75,59.55 1.48,59.41 1.19,57.67 0.83,55.52 0.86,53.29 0.78,51.1 0.73,49.65 0.85,48.2 0.75,46.75 0.66,45.52 0.2,44.3 0.2,43.07 0.2,35.02 0.27,26.98 0.33,18.93 0.34,17.1 0.69,15.2 0.33,13.46 -0.35,10.27 0.26,7.14 0.15,4 0.13,3.36 0.22,2.7 0.36,2.07 0.77,0.14 2.68,-0.58 4.32,0.52 4.65,0.74 5.12,0.73 5.47,0.94 6.11,1.32 6.7,1.81 7.33,2.22 7.83,2.55 8.36,3.06 8.89,3.08 10.31,3.13 11.74,2.94 13.16,2.87 14.79,2.79 16.42,2.7 18.05,2.69 28.65,2.6 39.24,2.52 49.84,2.48 c 1.74,-0.01 3.47,0.31 5.21,0.35 3.12,0.06 6.25,0.12 9.37,0.01 5.24,-0.18 10.47,-0.5 15.71,-0.76 0.19,-0.01 0.48,0.01 0.54,-0.1 0.83,-1.32 2.38,-0.99 3.54,-1.54 0.88,-0.42 2.36,0.36 2.77,1.43 0.29,0.76 0.48,1.59 0.52,2.39 0.2,3.5 0.06,7.03 0.52,10.49 1.34,10.06 0.28,20.15 0.61,30.21 0.13,3.96 0.03,7.93 0,11.89 -0.01,1.53 -0.39,1.69 -1.85,2.01 -1.25,0.27 -2.11,0.09 -3.09,-0.73 -0.7,-0.59 -1.69,-0.7 -2.78,-0.46 -1.69,0.36 -3.47,0.37 -5.22,0.4 -2.59,0.04 -5.19,-0.09 -7.78,-0.03 -3.04,0.07 -6.08,0.25 -9.11,0.42 -1.14,0.06 -2.6,1.94 -2.6,3.37 -0.01,1.98 0.05,3.97 0.05,5.95 0,2.51 0,5.03 -0.07,7.54 -0.04,1.28 -0.32,2.55 -0.37,3.83 -0.03,0.71 0.21,1.44 0.29,1.91 -0.13,1.2 -0.25,2.22 -0.37,3.33 1.77,0.2 1.98,1.46 2,2.77 0.04,3.24 0.04,6.47 0.02,9.71 0,0.3 -0.16,0.64 -0.34,0.9 -0.47,0.71 -1,1.38 -1.55,2.15 -0.07,-0.03 -0.31,-0.11 -0.67,-0.24 0,0.42 0,0.75 0,1.09 -0.01,14.69 -0.04,29.37 -0.01,44.06 0,1.2 -0.5,2.04 -1.08,3 -0.81,1.34 -1.4,2.83 -1.98,4.3 -0.34,0.85 0.4,1.26 0.95,1.75 0.32,0.28 0.64,0.76 0.65,1.15 0.08,3.62 0.07,7.24 0.13,10.86 0.04,2.78 0.18,5.55 0.21,8.33 0.04,3.76 0.01,7.53 0.01,11.45 1.04,0 2.24,0 3.12,0 0.48,1.5 1.08,2.74 1.24,4.04 0.2,1.64 0.1,3.34 -0.02,4.99 -0.02,0.28 -0.79,0.66 -1.25,0.73 -0.84,0.12 -1.11,0.64 -1.15,1.32 -0.04,0.75 -0.42,1.62 0.54,2.14 0.53,0.29 1.16,0.51 1.54,0.94 0.47,0.52 0.94,1.21 1.04,1.87 0.16,1.16 0.01,2.36 0.03,3.54 0.07,3.62 -1.69,6.05 -4.86,7.58 -0.34,0.17 -0.78,0.25 -1.01,0.51 -1.3,1.52 -3.06,2.06 -4.91,2.43 -1.06,0 -2.13,0 -3.2,0 z M 55.52,8.39 C 55.46,8.35 55.4,8.31 55.35,8.27 55.23,8.36 55.08,8.42 55,8.54 c -1.8,2.85 -4.59,4.06 -7.7,4.89 -0.86,0.23 -1.74,1 -2.25,1.76 -1.11,1.62 -2.43,2.75 -4.38,3.22 -0.76,0.18 -1.54,0.68 -2.1,1.25 -0.77,0.77 -1.28,1.79 -1.99,2.62 -0.93,1.08 -1.87,2.19 -2.98,3.07 -0.76,0.6 -2.36,0.13 -2.52,-0.55 -0.22,-0.98 0.53,-1.39 1.24,-1.8 1.4,-0.8 2.4,-1.87 2.89,-3.51 0.29,-0.97 0.84,-2.15 1.63,-2.63 1.44,-0.88 1.84,-2.3 2.74,-3.59 -3.83,1.11 -3.78,1.15 -6.11,3.95 -0.81,0.97 -1.8,1.98 -2.92,2.45 -2.05,0.87 -3.57,2.21 -4.53,4.1 -0.77,1.52 -1.87,2.38 -3.43,2.9 -4.59,1.54 -7.09,4.9 -7.72,9.58 -0.6,4.51 0.97,8.32 4.61,11.06 3.72,2.8 7.92,3.52 12.16,1.42 2.15,-1.06 4.3,-1.6 6.61,-1.91 1.07,-0.14 2.2,-0.45 3.1,-1.01 1.35,-0.83 2.61,-0.93 4.01,-0.33 1.45,0.62 2.86,0.5 4.14,-0.39 1.64,-1.14 3.21,-2.36 4.89,-3.6 -1.16,-0.57 -2.19,-0.66 -3.24,-0.22 -0.81,0.34 -1.65,0.62 -2.41,1.05 -1.14,0.65 -2.15,0.67 -3.31,-0.02 -0.74,-0.44 -1.67,-0.68 -2.53,-0.73 -0.77,-0.04 -1.57,0.27 -2.34,0.49 -1,0.28 -1.83,0.19 -2.28,-0.87 -0.38,-0.89 0,-2.15 1.02,-2.47 1,-0.31 2.23,-0.53 3.19,-0.24 3.06,0.92 5.77,0.8 8.1,-1.64 0.91,-0.95 2.04,-1.09 3.28,-0.82 1,0.22 2.01,0.5 3.02,0.57 0.77,0.06 1.75,0.1 2.31,-0.3 1.52,-1.08 2.86,-2.4 4.49,-3.83 -1.84,-0.54 -3.21,-0.29 -4.57,0.06 -1.37,0.35 -2.76,0.73 -4.15,0.14 -2.29,-0.97 -4.37,-0.61 -6.37,0.79 -0.52,0.36 -1.17,0.78 -1.74,0.75 -0.71,-0.04 -1.51,-0.39 -2.06,-0.85 -0.64,-0.53 -0.27,-1.28 0.14,-1.86 0.35,-0.49 0.74,-0.96 1.17,-1.4 1.49,-1.55 3.46,-1.91 5.46,-1.95 3.23,-0.05 5.77,-1.12 7.35,-4.11 0.94,-1.76 2.44,-2.43 4.5,-2.16 2.05,0.27 3.8,-0.51 5.22,-2.04 1.34,-1.45 2.75,-2.85 4.07,-4.33 1.11,-1.25 2.11,-2.59 3.16,-3.89 -2.36,0.25 -4.32,1.08 -5.73,2.87 -2.18,2.76 -4.92,3.83 -8.37,2.89 -1.88,-0.51 -3.46,0.01 -4.73,1.48 -0.35,0.4 -0.79,0.74 -1.07,1.18 -1.09,1.69 -2.69,2.27 -4.6,2.26 -1.71,-0.01 -3.18,0.63 -4.56,1.59 -0.78,0.54 -1.62,1.06 -2.51,1.33 -0.71,0.22 -1.61,0.25 -2.3,0.01 -1.35,-0.46 -1.49,-1.88 -0.28,-2.62 0.72,-0.45 1.59,-0.8 2.42,-0.9 1.65,-0.2 2.86,-1 3.44,-2.47 0.9,-2.3 2.47,-3.86 4.64,-4.96 0.75,-0.38 1.54,-1.01 1.9,-1.73 0.6,-1.3 0.93,-2.76 1.4,-4.15 z"
   id="path4"
   inkscape:connector-curvature="0"
   style="fill:#000000;fill-opacity:1" />
	</g>
</g>
</svg>