<?xml version="1.0" encoding="UTF-8" standalone="no"?>
<!-- Generator: Adobe Illustrator 24.1.0, SVG Export Plug-In  -->

<svg
   xmlns:dc="http://purl.org/dc/elements/1.1/"
   xmlns:cc="http://creativecommons.org/ns#"
   xmlns:rdf="http://www.w3.org/1999/02/22-rdf-syntax-ns#"
   xmlns:svg="http://www.w3.org/2000/svg"
   xmlns="http://www.w3.org/2000/svg"
   xmlns:sodipodi="http://sodipodi.sourceforge.net/DTD/sodipodi-0.dtd"
   xmlns:inkscape="http://www.inkscape.org/namespaces/inkscape"
   version="1.1"
   x="0px"
   y="0px"
   width="220.61"
   height="220.61"
   viewBox="0 0 220.61001 220.61"
   xml:space="preserve"
   id="svg10"
   sodipodi:docname="stormcast_eternals_sacrosanct.svg"
   inkscape:version="0.92.3 (2405546, 2018-03-11)"><metadata
   id="metadata14"><rdf:RDF><cc:Work
       rdf:about=""><dc:format>image/svg+xml</dc:format><dc:type
         rdf:resource="http://purl.org/dc/dcmitype/StillImage" /><dc:title /></cc:Work></rdf:RDF></metadata><sodipodi:namedview
   pagecolor="#ffffff"
   bordercolor="#666666"
   borderopacity="1"
   objecttolerance="10"
   gridtolerance="10"
   guidetolerance="10"
   inkscape:pageopacity="0"
   inkscape:pageshadow="2"
   inkscape:window-width="1920"
   inkscape:window-height="1017"
   id="namedview12"
   showgrid="false"
   inkscape:zoom="1.0698581"
   inkscape:cx="-235.30129"
   inkscape:cy="110.295"
   inkscape:window-x="-8"
   inkscape:window-y="-8"
   inkscape:window-maximized="1"
   inkscape:current-layer="svg10" />
<defs
   id="defs2">
</defs>
<g
   id="g8"
   transform="translate(58.181591)"
   style="fill:#000000;fill-opacity:1">
	<g
   id="g6"
   style="fill:#000000;fill-opacity:1">
		<path
   d="m 84.56,0 c 2.23,2.45 4.5,4.86 6.69,7.35 2,2.28 3.93,4.63 5.86,6.97 0.56,0.68 1.03,1.43 1.49,2.18 0.35,0.57 0.6,1.19 0.93,1.77 0.83,1.48 1.79,2.9 2.47,4.45 0.87,1.98 1.55,4.06 2.22,6.12 0.12,0.36 -0.19,0.88 -0.39,1.29 -0.2,0.4 -0.47,0.78 -0.76,1.13 -2.19,2.59 -4.46,5.13 -6.57,7.78 -1.52,1.91 -2.78,4.01 -4.28,5.94 -1.29,1.66 -2.77,3.18 -4.13,4.78 -2.06,2.43 -4.09,4.87 -6.09,7.26 2.62,2.88 6.12,3.01 9.31,3.84 2.36,0.61 4.76,1.03 7.16,1.46 0.94,0.17 1.92,0.12 2.88,0.15 0.62,0.02 1.25,0 2.14,0 -0.35,0.75 -0.5,1.38 -0.88,1.82 -1.47,1.71 -3.03,3.34 -4.53,5.02 -0.69,0.77 -1.45,1.5 -1.98,2.37 -1.57,2.59 -3.58,4.79 -5.7,6.92 -1.46,1.46 -2.71,3.14 -3.97,4.79 -3.36,4.38 -6.53,8.9 -9.15,13.78 -1.99,3.71 -4.12,7.35 -6.13,11.06 -0.56,1.03 -0.85,2.2 -1.36,3.27 -0.74,1.57 -1.56,3.09 -2.38,4.72 10.44,2.61 21,1.28 31.31,1.52 -1.02,2.16 -2.13,4.44 -3.16,6.76 -0.95,2.13 -1.61,4.41 -2.76,6.42 -0.9,1.58 -2.23,2.95 -3.56,4.22 -1.2,1.15 -2.09,2.45 -2.98,3.82 -1.67,2.56 -3.45,5.08 -5.38,7.45 -4.98,6.12 -10.15,12.08 -15.07,18.24 -3.72,4.65 -7.88,8.84 -12.23,12.87 -4.02,3.72 -7.99,7.51 -11.99,11.25 -1.35,1.26 -2.75,2.48 -4.13,3.71 -6.46,5.78 -13.05,11.4 -20.13,16.44 -2.8,2 -5.35,4.34 -8.12,6.38 -1.69,1.24 -3.57,2.24 -5.39,3.3 -1.14,0.66 -2.34,1.23 -3.82,2.01 0.1,-0.84 0.03,-1.49 0.27,-1.99 0.72,-1.55 1.42,-3.12 2.36,-4.54 2.72,-4.1 5.43,-8.21 8.36,-12.16 4.74,-6.39 9.77,-12.56 14.46,-18.98 4.19,-5.74 7.88,-11.81 11.19,-18.13 2.89,-5.5 6.27,-10.74 9.31,-16.17 1.75,-3.13 3.3,-6.37 4.82,-9.62 0.35,-0.74 0.21,-1.71 0.31,-2.68 -0.59,-0.03 -0.99,-0.02 -1.38,-0.09 -1.59,-0.27 -3.18,-0.57 -4.77,-0.86 -1.09,-0.2 -2.17,-0.44 -3.25,-0.62 -1.96,-0.32 -3.96,-0.5 -5.89,-0.95 -2.22,-0.52 -4.38,-1.26 -6.71,-1.96 0.69,-0.72 1.16,-1.44 1.82,-1.86 2.04,-1.29 2.9,-3.43 3.91,-5.4 3.24,-6.32 6.29,-12.74 9.55,-19.05 1.23,-2.39 2.95,-4.53 4.26,-6.89 2.01,-3.61 4,-7.26 5.75,-11 1.14,-2.43 1.84,-5.06 2.69,-7.45 -2.31,-0.63 -4.45,-1.4 -6.66,-1.76 -2.29,-0.37 -4.64,-0.34 -6.96,-0.51 -1.11,-0.08 -2.21,-0.19 -3.31,-0.29 -2.35,-0.22 -4.69,-0.46 -7.27,-0.71 0.34,-0.61 0.62,-1.32 1.07,-1.89 2.65,-3.32 5.33,-6.59 7.45,-10.32 2.72,-4.78 5.48,-9.58 8.66,-14.06 3.12,-4.39 6.74,-8.42 10.23,-12.54 2.07,-2.43 3.91,-4.98 5.5,-7.76 0.78,-1.36 1.97,-2.49 2.83,-3.82 1.32,-2.05 2.58,-4.13 3.73,-6.28 2.26,-4.21 4.59,-8.35 7.55,-12.13 C 80.87,6.88 81.55,5.37 82.3,3.94 82.95,2.7 83.49,1.41 84.09,0.14 84.24,0.11 84.4,0.05 84.56,0 Z"
   id="path4"
   inkscape:connector-curvature="0"
   style="fill:#000000;fill-opacity:1" />
	</g>
</g>
</svg>