<?xml version="1.0" encoding="UTF-8" standalone="no"?>
<!-- Generator: Adobe Illustrator 24.2.3, SVG Export Plug-In . SVG Version: 6.00 Build 0)  -->

<svg
   xmlns:dc="http://purl.org/dc/elements/1.1/"
   xmlns:cc="http://creativecommons.org/ns#"
   xmlns:rdf="http://www.w3.org/1999/02/22-rdf-syntax-ns#"
   xmlns:svg="http://www.w3.org/2000/svg"
   xmlns="http://www.w3.org/2000/svg"
   xmlns:sodipodi="http://sodipodi.sourceforge.net/DTD/sodipodi-0.dtd"
   xmlns:inkscape="http://www.inkscape.org/namespaces/inkscape"
   version="1.1"
   id="Layer_4"
   x="0px"
   y="0px"
   viewBox="0 0 740.26453 800"
   xml:space="preserve"
   sodipodi:docname="Warp Spiders [Aeldari, Eldar, Asuryani, Craftworlds, Aspect Warriors].svg"
   width="740.26453"
   height="800"
   inkscape:version="0.92.3 (2405546, 2018-03-11)"><metadata
   id="metadata9"><rdf:RDF><cc:Work
       rdf:about=""><dc:format>image/svg+xml</dc:format><dc:type
         rdf:resource="http://purl.org/dc/dcmitype/StillImage" /><dc:title></dc:title></cc:Work></rdf:RDF></metadata><defs
   id="defs7" /><sodipodi:namedview
   pagecolor="#ffffff"
   bordercolor="#666666"
   borderopacity="1"
   objecttolerance="10"
   gridtolerance="10"
   guidetolerance="10"
   inkscape:pageopacity="0"
   inkscape:pageshadow="2"
   inkscape:window-width="1920"
   inkscape:window-height="1017"
   id="namedview5"
   showgrid="false"
   fit-margin-top="0"
   fit-margin-left="0"
   fit-margin-right="0"
   fit-margin-bottom="0"
   inkscape:pagecheckerboard="true"
   inkscape:zoom="0.472"
   inkscape:cx="160.79203"
   inkscape:cy="95.047485"
   inkscape:window-x="-8"
   inkscape:window-y="-8"
   inkscape:window-maximized="1"
   inkscape:current-layer="Layer_4" />
<path
   d="M 633.55511,412.12024 556.71343,567.1022 h 72.72946 L 740.26453,347.19038 H 406.49299 V 321.21844 H 665.80361 L 509.95591,23.37475 h -72.72946 l 121.86774,232.8978 H 406.49299 V 0 H 333.76353 V 256.28056 H 181.16232 L 303.03006,23.37475 H 230.3006 L 74.46092,321.21042 h 259.31062 v 25.97194 H 0 L 110.82164,567.09419 H 183.5511 L 106.70942,412.11222 h 227.06212 v 28.56914 H 169.6994 l 86.99799,156.28858 c -71.81563,17.67535 -125.09018,82.47695 -125.09018,159.74349 0,6.44489 0.38477,12.79358 1.10622,19.04609 h 55.08617 c -1.08217,-6.18838 -1.6513,-12.55311 -1.6513,-19.04609 0,-56.88177 43.19839,-103.66333 98.58116,-109.36273 L 369.6994,800 454.66934,647.3507 c 55.38276,5.69138 98.58116,52.47295 98.58116,109.36273 0,6.49298 -0.56914,12.85771 -1.6513,19.04609 h 55.08617 c 0.72144,-6.25251 1.10621,-12.6012 1.10621,-19.04609 0,-77.26654 -53.27455,-142.06814 -125.09018,-159.72746 l 86.998,-156.28858 H 406.49299 V 412.12826 H 633.55511 Z M 467.53507,499.56713 369.6994,684.8497 271.86373,499.56713 Z"
   id="path2"
   inkscape:connector-curvature="0"
   style="stroke-width:0.8016032" />
</svg>