<?xml version="1.0" encoding="UTF-8" standalone="no"?>
<!-- Generated by IcoMoon.io -->

<svg
   xmlns:dc="http://purl.org/dc/elements/1.1/"
   xmlns:cc="http://creativecommons.org/ns#"
   xmlns:rdf="http://www.w3.org/1999/02/22-rdf-syntax-ns#"
   xmlns:svg="http://www.w3.org/2000/svg"
   xmlns="http://www.w3.org/2000/svg"
   xmlns:sodipodi="http://sodipodi.sourceforge.net/DTD/sodipodi-0.dtd"
   xmlns:inkscape="http://www.inkscape.org/namespaces/inkscape"
   version="1.1"
   width="215"
   height="215"
   viewBox="0 0 215 215"
   id="svg32"
   sodipodi:docname="realmstone.svg"
   inkscape:version="0.92.3 (2405546, 2018-03-11)">
  <metadata
     id="metadata38">
    <rdf:RDF>
      <cc:Work
         rdf:about="">
        <dc:format>image/svg+xml</dc:format>
        <dc:type
           rdf:resource="http://purl.org/dc/dcmitype/StillImage" />
        <dc:title>treasure-realmstone</dc:title>
      </cc:Work>
    </rdf:RDF>
  </metadata>
  <defs
     id="defs36" />
  <sodipodi:namedview
     pagecolor="#ffffff"
     bordercolor="#666666"
     borderopacity="1"
     objecttolerance="10"
     gridtolerance="10"
     guidetolerance="10"
     inkscape:pageopacity="0"
     inkscape:pageshadow="2"
     inkscape:window-width="1920"
     inkscape:window-height="1017"
     id="namedview34"
     showgrid="false"
     fit-margin-top="0"
     fit-margin-left="0"
     fit-margin-right="0"
     fit-margin-bottom="0"
     inkscape:zoom="1.84375"
     inkscape:cx="74.201772"
     inkscape:cy="22.032756"
     inkscape:window-x="-8"
     inkscape:window-y="-8"
     inkscape:window-maximized="1"
     inkscape:current-layer="svg32" />
  <title
     id="title2">treasure-realmstone</title>
  <g
     id="g859"
     transform="matrix(6.7207825,0,0,6.7207825,-0.02442082,-0.03815709)">
    <path
       id="path4"
       d="M 15.99,31.996 C 15.874,31.97 15.745,31.803 15.706,31.622 15.654,31.454 15.564,31.313 15.5,31.313 c -0.077,0 -0.129,-0.077 -0.129,-0.181 0,-0.104 -0.129,-0.206 -0.297,-0.258 -0.155,-0.039 -0.413,-0.181 -0.567,-0.335 -0.155,-0.142 -0.322,-0.258 -0.348,-0.258 -0.155,0 -0.593,-0.451 -0.593,-0.606 0,-0.09 -0.116,-0.168 -0.271,-0.168 -0.155,0 -0.387,-0.142 -0.529,-0.322 -0.142,-0.181 -0.387,-0.322 -0.567,-0.322 -0.271,0 -0.309,-0.052 -0.309,-0.516 0,-0.451 -0.039,-0.516 -0.297,-0.516 -0.155,0 -0.361,-0.116 -0.451,-0.258 -0.09,-0.155 -0.297,-0.322 -0.451,-0.387 C 10.201,26.967 9.943,26.76 8.834,25.652 7.983,24.801 7.79,24.543 7.906,24.401 8.048,24.233 8.022,23.834 7.829,23.241 7.777,23.086 7.816,22.893 7.919,22.79 8.009,22.687 8.112,22.493 8.125,22.352 8.151,22.21 8.306,21.836 8.473,21.514 8.64,21.192 8.808,20.805 8.86,20.65 c 0.039,-0.168 0.142,-0.297 0.206,-0.297 0.064,0 0.116,-0.116 0.116,-0.258 0,-0.232 0.245,-0.709 0.748,-1.483 0.09,-0.142 0.193,-0.361 0.232,-0.477 0.052,-0.129 0.129,-0.232 0.193,-0.232 0.064,0 0.116,-0.077 0.116,-0.181 0,-0.103 0.077,-0.271 0.168,-0.361 0.193,-0.193 0.4,-0.632 0.361,-0.787 -0.013,-0.064 0.039,-0.077 0.116,-0.026 0.064,0.039 0.129,0.026 0.129,-0.026 0,-0.064 0.142,-0.258 0.322,-0.451 0.18,-0.193 0.335,-0.49 0.348,-0.671 0.013,-0.168 0.09,-0.309 0.155,-0.297 0.077,0.013 0.129,-0.039 0.142,-0.129 0,-0.077 0.155,-0.322 0.361,-0.542 0.193,-0.219 0.348,-0.451 0.348,-0.516 0,-0.065 0.09,-0.181 0.193,-0.271 0.103,-0.09 0.193,-0.271 0.193,-0.4 0,-0.142 0.052,-0.245 0.129,-0.245 0.064,0 0.155,-0.142 0.206,-0.322 0.039,-0.181 0.129,-0.284 0.193,-0.245 0.064,0.039 0.116,-0.013 0.116,-0.116 0,-0.103 0.09,-0.219 0.193,-0.271 0.103,-0.039 0.193,-0.155 0.193,-0.271 0,-0.193 0.077,-0.322 0.49,-0.774 0.077,-0.09 0.155,-0.258 0.155,-0.374 0,-0.103 0.077,-0.245 0.181,-0.297 0.104,-0.052 0.206,-0.309 0.232,-0.554 0.026,-0.348 0.103,-0.464 0.335,-0.49 0.193,-0.026 0.284,0.026 0.284,0.155 0,0.116 0.09,0.206 0.206,0.206 0.155,0 0.193,0.077 0.129,0.322 -0.064,0.232 -0.026,0.322 0.103,0.322 0.116,0 0.219,0.193 0.271,0.516 0.052,0.284 0.142,0.542 0.206,0.593 0.064,0.039 0.116,0.309 0.116,0.606 0,0.297 0.09,0.658 0.193,0.787 0.103,0.142 0.193,0.413 0.193,0.619 0,0.193 0.052,0.361 0.129,0.361 0.064,0 0.168,0.232 0.206,0.516 0.052,0.284 0.142,0.554 0.193,0.593 0.064,0.039 0.116,0.258 0.116,0.49 0,0.232 0.09,0.529 0.193,0.67 0.103,0.129 0.193,0.4 0.193,0.58 0,0.193 0.077,0.413 0.168,0.49 0.103,0.077 0.168,0.322 0.155,0.554 -0.026,0.232 0,0.49 0.039,0.554 0.103,0.155 0.155,0.374 0.245,0.941 0.039,0.219 0.142,0.413 0.219,0.413 0.09,0 0.168,0.219 0.181,0.477 0.026,0.258 0.103,0.554 0.181,0.645 0.103,0.129 0.052,0.245 -0.206,0.49 -0.181,0.168 -0.335,0.348 -0.335,0.387 0,0.052 -0.077,0.168 -0.155,0.258 -0.387,0.426 -0.49,0.58 -0.49,0.696 0,0.064 -0.09,0.142 -0.193,0.193 -0.103,0.039 -0.193,0.129 -0.193,0.206 0,0.077 -0.077,0.232 -0.155,0.322 -0.335,0.374 -0.49,0.567 -0.49,0.632 0,0.039 -0.168,0.245 -0.387,0.477 -0.4,0.451 -0.774,1.689 -0.516,1.767 0.064,0.026 0.129,0.129 0.129,0.232 0,0.103 0.09,0.181 0.193,0.181 0.103,0 0.193,0.064 0.193,0.155 0,0.142 0.464,0.593 1.083,1.057 0.245,0.181 0.335,0.361 0.335,0.671 0,0.529 0.103,0.542 0.567,0.116 0.193,-0.181 0.4,-0.322 0.477,-0.322 0.142,0 0.374,-0.529 0.284,-0.671 -0.026,-0.064 -0.193,-0.103 -0.374,-0.103 -0.168,0 -0.309,-0.052 -0.309,-0.129 0,-0.064 -0.09,-0.129 -0.193,-0.129 -0.103,0 -0.193,-0.077 -0.193,-0.155 -0.013,-0.09 -0.245,-0.322 -0.516,-0.516 -0.284,-0.206 -0.503,-0.438 -0.49,-0.516 0.026,-0.103 -0.116,-0.181 -0.309,-0.206 -0.322,-0.039 -0.348,-0.077 -0.219,-0.297 0.168,-0.335 0.593,-0.761 0.748,-0.761 0.064,0 0.142,-0.103 0.193,-0.219 0.103,-0.335 0.361,-0.709 0.696,-1.006 0.155,-0.142 0.284,-0.322 0.284,-0.4 0,-0.064 0.232,-0.361 0.516,-0.632 0.284,-0.271 0.516,-0.593 0.529,-0.709 0,-0.142 0.026,-0.142 0.077,-0.026 0.052,0.129 0.116,0.116 0.309,-0.052 0.335,-0.297 0.309,-0.438 -0.103,-0.774 -0.335,-0.271 -0.348,-0.309 -0.193,-0.722 0.103,-0.271 0.116,-0.438 0.026,-0.464 -0.064,-0.026 -0.129,-0.258 -0.129,-0.516 0,-0.258 -0.09,-0.593 -0.193,-0.722 -0.103,-0.142 -0.193,-0.413 -0.193,-0.606 0,-0.193 -0.077,-0.374 -0.155,-0.413 -0.09,-0.026 -0.116,-0.103 -0.064,-0.168 0.052,-0.052 0.219,-0.039 0.348,0.052 0.155,0.09 0.258,0.103 0.258,0.026 0,-0.064 -0.129,-0.155 -0.297,-0.193 -0.361,-0.09 -0.735,-0.735 -0.735,-1.251 0,-0.206 -0.09,-0.464 -0.193,-0.567 -0.103,-0.116 -0.193,-0.335 -0.193,-0.516 0,-0.168 -0.052,-0.309 -0.116,-0.309 -0.064,0 -0.142,-0.129 -0.181,-0.284 -0.103,-0.49 -0.4,-1.186 -0.567,-1.367 -0.09,-0.09 -0.168,-0.309 -0.168,-0.477 0,-0.168 -0.064,-0.348 -0.129,-0.387 -0.064,-0.039 -0.129,-0.206 -0.129,-0.374 0,-0.155 -0.09,-0.4 -0.193,-0.542 -0.103,-0.129 -0.193,-0.438 -0.193,-0.658 0,-0.232 -0.052,-0.426 -0.116,-0.426 -0.155,0 -0.258,-0.464 -0.181,-0.774 0.077,-0.297 0.297,-0.348 0.297,-0.064 0,0.103 0.181,0.361 0.387,0.554 0.219,0.206 0.387,0.503 0.387,0.658 0,0.142 0.064,0.271 0.129,0.271 0.077,0 0.129,0.064 0.129,0.155 0,0.193 0.812,1.831 0.941,1.883 0.052,0.026 0.09,0.181 0.09,0.348 0,0.167 0.052,0.335 0.116,0.387 0.077,0.039 0.258,0.348 0.426,0.683 0.168,0.335 0.335,0.632 0.4,0.645 0.052,0.026 0.09,0.181 0.09,0.348 0,0.155 0.09,0.361 0.193,0.451 0.103,0.09 0.193,0.245 0.193,0.335 0,0.103 0.064,0.181 0.129,0.181 0.077,0 0.129,0.09 0.129,0.193 0,0.09 0.077,0.232 0.168,0.284 0.181,0.116 0.451,0.529 0.554,0.851 0.052,0.116 0.129,0.219 0.193,0.219 0.064,0 0.116,0.077 0.116,0.181 0,0.09 0.09,0.245 0.193,0.335 0.103,0.09 0.193,0.258 0.193,0.387 0,0.129 0.09,0.297 0.193,0.387 0.103,0.09 0.193,0.258 0.193,0.387 0,0.129 0.09,0.271 0.206,0.309 0.103,0.039 0.155,0.129 0.116,0.206 -0.039,0.064 0.026,0.129 0.155,0.129 0.193,0 0.206,0.026 0.039,0.129 -0.129,0.077 -0.142,0.129 -0.026,0.129 0.077,0 0.155,0.116 0.155,0.245 0,0.142 0.077,0.335 0.168,0.426 0.077,0.09 0.271,0.387 0.4,0.658 0.142,0.258 0.297,0.477 0.361,0.477 0.052,0 0.103,0.297 0.103,0.645 0,0.503 0.052,0.645 0.206,0.645 0.103,0 0.168,0.052 0.116,0.116 -0.039,0.077 0.039,0.181 0.155,0.258 0.129,0.077 0.155,0.142 0.077,0.142 -0.09,0 -0.168,0.103 -0.168,0.232 0,0.116 -0.632,0.838 -1.393,1.586 -0.761,0.761 -1.56,1.586 -1.792,1.831 -0.232,0.245 -0.606,0.529 -0.851,0.619 -0.245,0.09 -0.542,0.309 -0.645,0.49 -0.116,0.193 -0.322,0.348 -0.464,0.361 -0.348,0.026 -0.658,0.335 -0.658,0.645 0,0.129 -0.103,0.348 -0.219,0.49 -0.168,0.206 -0.193,0.219 -0.129,0.039 0.142,-0.4 -0.142,-0.245 -0.761,0.413 -0.335,0.361 -0.683,0.645 -0.787,0.645 -0.104,0 -0.155,0.052 -0.116,0.103 0.103,0.181 -0.606,0.761 -0.851,0.709 z m 0.671,-1.212 c 0,-0.142 -0.052,-0.232 -0.129,-0.181 -0.064,0.039 -0.09,0.155 -0.039,0.258 0.09,0.271 0.168,0.245 0.168,-0.077 z m -0.387,-0.051 c 0,-0.103 -0.052,-0.193 -0.129,-0.193 -0.064,0 -0.129,0.09 -0.129,0.193 0,0.103 0.064,0.193 0.129,0.193 0.077,0 0.129,-0.09 0.129,-0.193 z m 0.774,-0.297 c 0,-0.09 -0.052,-0.129 -0.129,-0.09 -0.064,0.039 -0.129,0.206 -0.129,0.361 0,0.232 0.026,0.245 0.129,0.09 0.064,-0.103 0.129,-0.271 0.129,-0.361 z m -1.238,0.052 c -0.052,-0.129 0.039,-0.206 0.297,-0.245 0.348,-0.052 0.348,-0.052 -0.052,-0.077 -0.335,-0.013 -0.426,-0.064 -0.426,-0.271 0,-0.258 -0.013,-0.258 -0.309,-0.039 -0.348,0.258 -0.335,0.438 0.039,0.335 0.155,-0.039 0.258,0.026 0.309,0.206 0.039,0.155 0.103,0.271 0.142,0.271 0.039,0 0.039,-0.077 0,-0.181 z m 2.875,-0.813 c -0.052,-0.039 -0.09,0 -0.09,0.09 0,0.09 0.039,0.129 0.09,0.09 0.039,-0.052 0.039,-0.129 0,-0.181 z m 1.032,-1.031 c -0.052,-0.039 -0.09,0 -0.09,0.09 0,0.09 0.039,0.129 0.09,0.09 0.039,-0.052 0.039,-0.129 0,-0.181 z m -6.435,-0.413 c 0.052,-0.335 0.4,-0.787 0.606,-0.787 0.09,0 0.284,-0.142 0.451,-0.322 0.167,-0.18 0.374,-0.322 0.477,-0.322 0.09,0 0.168,-0.052 0.168,-0.116 0,-0.064 0.181,-0.297 0.387,-0.503 0.426,-0.426 0.49,-0.671 0.193,-0.671 -0.103,0 -0.193,0.064 -0.193,0.129 0,0.077 -0.064,0.129 -0.142,0.129 -0.078,0 -0.206,0.077 -0.297,0.168 -0.09,0.077 -0.438,0.387 -0.787,0.671 -1.586,1.315 -1.921,1.767 -1.38,1.908 0.348,0.09 0.477,0.026 0.516,-0.284 z m 7.183,-0.928 c 0.142,-0.206 0.013,-0.245 -0.168,-0.039 -0.09,0.103 -0.103,0.181 -0.039,0.181 0.064,0 0.168,-0.064 0.206,-0.142 z m -0.838,-0.181 c 0,-0.026 -0.142,-0.206 -0.335,-0.387 -0.181,-0.181 -0.284,-0.387 -0.245,-0.451 0.052,-0.077 -0.064,-0.116 -0.245,-0.103 -0.193,0.013 -0.335,0.103 -0.335,0.206 0,0.09 0.064,0.129 0.129,0.09 0.155,-0.09 0.516,0.232 0.516,0.451 0,0.077 0.052,0.116 0.116,0.064 0.064,-0.039 0.155,-0.013 0.206,0.064 0.077,0.129 0.193,0.181 0.193,0.064 z m -1.419,-0.89 c 0,-0.039 -0.064,-0.103 -0.155,-0.155 -0.091,-0.052 -0.103,-0.039 -0.052,0.052 0.09,0.155 0.206,0.206 0.206,0.103 z m -2.875,-1.173 c 0.039,-0.116 -0.026,-0.309 -0.155,-0.451 -0.129,-0.142 -0.193,-0.335 -0.155,-0.438 0.052,-0.116 0.013,-0.168 -0.077,-0.129 -0.155,0.052 -0.696,-0.799 -0.632,-1.006 0.013,-0.052 -0.052,-0.103 -0.155,-0.103 -0.09,0 -0.206,-0.116 -0.245,-0.258 -0.039,-0.168 -0.013,-0.232 0.064,-0.168 0.09,0.039 0.103,0.013 0.052,-0.064 -0.052,-0.09 -0.168,-0.155 -0.258,-0.155 -0.09,0 -0.271,-0.206 -0.413,-0.451 -0.129,-0.245 -0.297,-0.451 -0.348,-0.451 -0.064,0 -0.09,-0.387 -0.064,-0.851 0.039,-0.606 0.116,-0.903 0.271,-1.019 0.116,-0.09 0.219,-0.309 0.219,-0.49 0,-0.181 0.064,-0.374 0.129,-0.413 0.077,-0.039 0.129,-0.284 0.129,-0.529 0,-0.245 0.064,-0.438 0.129,-0.438 0.077,0 0.129,-0.232 0.129,-0.503 0,-0.284 0.064,-0.554 0.129,-0.593 0.077,-0.052 0.103,-0.142 0.064,-0.206 -0.052,-0.064 -0.026,-0.116 0.039,-0.116 0.077,0 0.155,-0.193 0.193,-0.413 0.129,-0.761 0.4,-1.65 0.503,-1.65 0.064,0 0.103,-0.219 0.103,-0.477 0,-0.271 0.09,-0.606 0.193,-0.735 0.103,-0.142 0.193,-0.413 0.193,-0.619 0,-0.193 0.064,-0.361 0.129,-0.361 0.077,0 0.129,-0.09 0.129,-0.193 0,-0.103 0.116,-0.413 0.271,-0.696 0.271,-0.529 0.284,-0.928 0.052,-0.993 -0.129,-0.039 -0.58,0.799 -0.58,1.07 0,0.077 -0.09,0.168 -0.193,0.219 -0.103,0.039 -0.193,0.181 -0.193,0.322 0,0.141 -0.052,0.297 -0.129,0.335 -0.064,0.039 -0.129,0.284 -0.129,0.542 0,0.245 -0.077,0.606 -0.181,0.787 -0.232,0.464 -0.593,1.586 -0.593,1.87 0,0.116 -0.052,0.219 -0.129,0.219 -0.064,0 -0.168,0.232 -0.206,0.516 -0.052,0.284 -0.129,0.516 -0.193,0.516 -0.064,0 -0.116,0.219 -0.116,0.49 0,0.258 -0.09,0.593 -0.193,0.722 -0.103,0.142 -0.193,0.413 -0.193,0.619 0,0.193 -0.052,0.361 -0.116,0.361 -0.064,0 -0.155,0.206 -0.193,0.451 -0.052,0.245 -0.142,0.451 -0.206,0.451 -0.077,0 -0.129,0.142 -0.129,0.309 0,0.167 -0.09,0.374 -0.193,0.464 -0.116,0.09 -0.181,0.335 -0.168,0.567 0.026,0.438 0.309,1.109 0.477,1.109 0.052,0 0.168,0.142 0.245,0.322 0.077,0.168 0.374,0.464 0.658,0.645 0.348,0.219 0.503,0.387 0.451,0.516 -0.052,0.103 -0.013,0.193 0.064,0.193 0.077,0 0.142,0.155 0.142,0.335 0,0.245 0.052,0.322 0.181,0.271 0.129,-0.051 0.232,0.026 0.284,0.206 0.09,0.297 0.529,0.735 0.722,0.735 0.064,0 0.142,-0.09 0.193,-0.193 z m -0.413,-1.47 c -0.039,-0.064 0.039,-0.155 0.155,-0.181 0.142,-0.039 0.103,-0.064 -0.116,-0.077 -0.258,-0.013 -0.335,0.039 -0.284,0.181 0.052,0.103 0.129,0.193 0.206,0.193 0.064,0 0.09,-0.052 0.039,-0.116 z m -1.225,-0.193 c 0,-0.039 -0.064,-0.103 -0.155,-0.155 -0.091,-0.052 -0.103,-0.039 -0.052,0.052 0.09,0.155 0.206,0.206 0.206,0.103 z m 0.812,-0.684 c -0.09,-0.026 -0.245,-0.026 -0.322,0 -0.09,0.039 -0.026,0.064 0.155,0.064 0.181,0 0.245,-0.026 0.168,-0.064 z m 6.319,-2.321 c -0.09,-0.039 -0.181,-0.181 -0.181,-0.335 -0.013,-0.206 -0.039,-0.181 -0.103,0.103 -0.09,0.413 0.09,0.671 0.309,0.426 0.09,-0.09 0.077,-0.155 -0.026,-0.193 z m 0.18,-0.774 c -0.052,-0.039 -0.129,-0.039 -0.181,0 -0.039,0.052 0,0.09 0.09,0.09 0.09,0 0.129,-0.039 0.09,-0.09 z m -0.258,-0.644 c 0.013,-0.284 -0.013,-0.309 -0.103,-0.129 -0.077,0.116 -0.09,0.284 -0.052,0.348 0.116,0.181 0.129,0.168 0.155,-0.219 z M 20.31,18.096 c -0.039,-0.116 -0.103,-0.181 -0.129,-0.142 -0.039,0.039 -0.026,0.116 0.026,0.193 0.116,0.206 0.193,0.168 0.103,-0.052 z"
       inkscape:connector-curvature="0"
       style="fill:#ffffff" />
    <path
       id="path6"
       d="m 19.755,30.965 c 0,-0.116 0.155,-0.361 0.348,-0.516 0.309,-0.271 0.413,-0.297 1.341,-0.219 0.825,0.077 1.07,0.052 1.328,-0.129 0.193,-0.116 0.593,-0.206 0.98,-0.206 0.361,0 0.722,-0.052 0.812,-0.129 0.787,-0.632 1.122,-0.954 1.122,-1.109 0,-0.103 0.039,-0.181 0.103,-0.181 0.155,0 0.542,-0.774 0.542,-1.096 0,-0.168 0.09,-0.658 0.206,-1.083 0.142,-0.593 0.181,-1.289 0.155,-2.811 -0.026,-1.522 0,-2.024 0.129,-2.063 0.077,-0.039 0.155,-0.168 0.155,-0.284 0,-0.129 0.142,-0.4 0.322,-0.606 0.18,-0.206 0.361,-0.503 0.4,-0.658 0.052,-0.168 0.129,-0.297 0.193,-0.297 0.064,0 0.116,-0.181 0.116,-0.413 0,-0.297 -0.129,-0.516 -0.516,-0.89 -0.284,-0.271 -0.516,-0.554 -0.516,-0.632 0,-0.064 -0.052,-0.129 -0.129,-0.129 -0.064,0 -0.129,-0.116 -0.129,-0.245 0,-0.142 -0.052,-0.297 -0.129,-0.335 -0.064,-0.039 -0.129,-0.181 -0.129,-0.297 0,-0.193 0.026,-0.193 0.142,-0.026 0.09,0.142 0.116,0.026 0.09,-0.438 -0.013,-0.413 0.026,-0.658 0.129,-0.696 0.09,-0.026 0.155,-0.155 0.155,-0.297 0,-0.142 0.09,-0.284 0.193,-0.322 0.103,-0.052 0.193,-0.168 0.193,-0.271 0,-0.103 0.064,-0.142 0.142,-0.103 0.077,0.052 0.168,-0.026 0.206,-0.168 0.039,-0.155 0.245,-0.361 0.464,-0.464 0.645,-0.322 0.864,-0.529 0.864,-0.838 0,-0.284 -0.039,-0.284 -1.122,-0.258 -1.096,0.026 -1.483,0.155 -1.934,0.58 -0.09,0.09 -0.335,0.232 -0.554,0.335 -0.219,0.09 -0.426,0.297 -0.464,0.464 -0.116,0.438 -0.297,0.335 -0.387,-0.232 -0.052,-0.284 -0.129,-0.516 -0.193,-0.516 -0.309,0 0.064,-1.173 0.554,-1.741 0.155,-0.181 0.361,-0.322 0.451,-0.322 0.09,0 0.168,-0.052 0.168,-0.129 0,-0.064 0.077,-0.129 0.168,-0.129 0.271,0 1.251,-1.109 1.251,-1.418 0,-0.142 0.09,-0.297 0.193,-0.335 0.103,-0.052 0.193,-0.181 0.193,-0.297 0,-0.116 0.077,-0.309 0.181,-0.426 0.09,-0.129 0.142,-0.451 0.116,-0.774 -0.026,-0.4 0,-0.503 0.09,-0.361 0.09,0.142 0.129,0.155 0.129,0.026 0,-0.103 -0.116,-0.206 -0.258,-0.245 -0.245,-0.064 -0.271,-0.155 -0.232,-0.864 0.039,-0.67 0.077,-0.787 0.297,-0.838 0.142,-0.026 0.309,-0.116 0.361,-0.219 0.052,-0.103 0.155,-0.181 0.219,-0.181 0.168,0 0.168,0.683 0.013,0.851 -0.064,0.064 -0.142,0.748 -0.168,1.522 -0.026,0.98 -0.09,1.431 -0.193,1.47 -0.09,0.026 -0.168,0.142 -0.168,0.271 0,0.116 -0.09,0.335 -0.193,0.477 -0.103,0.129 -0.193,0.335 -0.193,0.438 0,0.271 -1.264,1.547 -1.509,1.547 -0.168,0 -0.554,0.709 -0.554,1.019 0,0.155 0.077,0.271 0.193,0.271 0.103,0 0.193,-0.052 0.193,-0.129 0,-0.064 0.142,-0.129 0.309,-0.129 0.167,0 0.335,-0.077 0.374,-0.168 0.064,-0.168 2.179,-0.554 2.385,-0.426 0.168,0.103 0.928,-0.168 0.928,-0.322 0,-0.064 0.09,-0.116 0.193,-0.116 0.103,0 0.193,-0.09 0.193,-0.193 0,-0.142 0.142,-0.193 0.516,-0.193 0.606,0 0.645,0.116 0.168,0.619 -1.044,1.083 -1.715,1.883 -1.715,2.037 0,0.103 -0.052,0.181 -0.103,0.181 -0.064,0 -0.193,0.142 -0.284,0.322 -0.09,0.168 -0.206,0.297 -0.258,0.284 -0.052,-0.013 -0.309,0.193 -0.567,0.464 -0.413,0.451 -0.464,0.567 -0.464,1.199 0,0.529 0.052,0.696 0.193,0.696 0.116,0 0.155,0.077 0.116,0.193 -0.052,0.116 0,0.193 0.103,0.193 0.103,0 0.335,0.181 0.503,0.413 0.168,0.232 0.413,0.516 0.542,0.645 0.245,0.258 0.284,1.238 0.052,1.547 -0.077,0.116 -0.09,0.077 -0.026,-0.09 0.077,-0.245 0.064,-0.232 -0.181,0.026 -0.155,0.155 -0.271,0.335 -0.271,0.413 0,0.064 -0.09,0.142 -0.193,0.193 -0.103,0.039 -0.193,0.181 -0.193,0.309 0,0.142 -0.142,0.387 -0.322,0.567 -0.309,0.309 -0.309,0.348 -0.361,3.017 -0.052,2.553 -0.219,3.92 -0.503,3.92 -0.064,0 -0.103,0.077 -0.103,0.168 0,0.091 -0.116,0.232 -0.258,0.322 -0.142,0.077 -0.335,0.361 -0.438,0.606 -0.103,0.245 -0.284,0.451 -0.387,0.451 -0.116,0 -0.206,0.064 -0.206,0.129 0,0.077 -0.09,0.129 -0.193,0.129 -0.103,0 -0.193,0.052 -0.193,0.103 0,0.348 -1.586,0.658 -3.83,0.748 -1.341,0.064 -1.457,0.052 -1.457,-0.168 z m 6.022,-1.29 c -0.052,-0.039 -0.09,0 -0.09,0.09 0,0.09 0.039,0.129 0.09,0.09 0.039,-0.052 0.039,-0.129 0,-0.181 z"
       inkscape:connector-curvature="0"
       style="fill:#ffffff" />
    <path
       id="path8"
       d="m 19.046,29.508 c 0.039,-0.064 0.103,-0.129 0.142,-0.129 0.039,0 0.026,0.064 -0.013,0.129 -0.039,0.077 -0.103,0.129 -0.142,0.129 -0.039,0 -0.026,-0.052 0.013,-0.129 z"
       inkscape:connector-curvature="0"
       style="fill:#ffffff" />
    <path
       id="path10"
       d="m 7.996,28.063 c -0.297,-0.271 -0.735,-0.49 -0.98,-0.49 -0.129,0 -0.348,-0.09 -0.49,-0.193 C 6.397,27.277 6.178,27.187 6.049,27.187 5.92,27.187 5.791,27.097 5.752,26.994 5.7,26.891 5.559,26.801 5.43,26.801 c -0.258,0 -2.437,-2.063 -2.437,-2.308 0,-0.077 -0.052,-0.142 -0.129,-0.142 -0.064,0 -0.155,-0.142 -0.206,-0.322 -0.039,-0.181 -0.142,-0.322 -0.232,-0.322 -0.168,0 -0.464,-0.593 -0.464,-0.928 0,-0.129 -0.077,-0.232 -0.155,-0.232 -0.116,0 -0.103,-0.052 0.026,-0.129 0.168,-0.103 0.155,-0.129 -0.026,-0.129 -0.155,0 -0.232,-0.103 -0.232,-0.309 0,-0.181 -0.052,-0.361 -0.129,-0.4 -0.064,-0.039 -0.129,-0.232 -0.129,-0.426 0,-0.194 -0.09,-0.464 -0.193,-0.593 -0.271,-0.361 -0.271,-3.507 0,-3.868 0.103,-0.142 0.193,-0.387 0.193,-0.542 0,-0.168 0.064,-0.335 0.129,-0.374 0.077,-0.039 0.129,-0.181 0.129,-0.297 0,-0.129 0.116,-0.322 0.258,-0.451 0.142,-0.116 0.258,-0.309 0.258,-0.426 0,-0.129 0.064,-0.181 0.206,-0.129 0.129,0.052 0.232,-0.039 0.335,-0.309 0.077,-0.232 0.219,-0.387 0.361,-0.387 0.129,0 0.258,-0.09 0.309,-0.193 0.039,-0.103 0.181,-0.193 0.322,-0.193 0.129,0 0.271,-0.09 0.322,-0.193 0.039,-0.103 0.181,-0.193 0.322,-0.193 0.141,0 0.297,-0.052 0.335,-0.129 0.142,-0.219 0.451,-0.142 0.451,0.116 0,0.322 -0.374,1.032 -0.696,1.328 -0.387,0.361 -0.98,1.496 -0.98,1.895 0,0.116 -0.09,0.322 -0.193,0.451 -0.103,0.142 -0.193,0.387 -0.193,0.542 0,0.155 -0.09,0.309 -0.193,0.361 -0.129,0.039 -0.193,0.245 -0.193,0.58 0,0.284 -0.052,0.554 -0.129,0.593 -0.077,0.039 -0.129,0.232 -0.129,0.413 0,0.193 -0.064,0.542 -0.155,0.774 -0.129,0.348 -0.129,0.49 0,0.683 0.09,0.142 0.155,0.503 0.155,0.825 0,0.335 0.077,0.619 0.181,0.722 0.103,0.077 0.155,0.232 0.116,0.335 -0.039,0.103 0.013,0.181 0.129,0.181 0.116,0 0.245,0.052 0.284,0.129 0.039,0.077 -0.013,0.09 -0.116,0.052 -0.219,-0.09 -0.284,0.142 -0.077,0.271 0.077,0.039 0.129,0.193 0.129,0.335 0,0.129 0.052,0.245 0.116,0.245 0.064,0 0.168,0.129 0.219,0.284 0.039,0.155 0.155,0.348 0.232,0.438 0.077,0.077 0.232,0.284 0.335,0.438 0.103,0.168 0.361,0.451 0.567,0.632 0.206,0.181 0.451,0.413 0.542,0.503 0.09,0.077 0.219,0.155 0.297,0.155 0.078,0 0.142,0.039 0.142,0.103 0,0.129 0.748,0.542 0.98,0.542 0.09,0 0.554,0.232 1.019,0.516 0.465,0.284 0.967,0.516 1.135,0.516 0.426,0 0.864,0.142 0.864,0.271 0,0.181 -1.251,0.142 -1.444,-0.039 z"
       inkscape:connector-curvature="0"
       style="fill:#ffffff" />
    <path
       id="path12"
       d="m 17.215,26.838 c 0.052,-0.039 0.129,-0.039 0.181,0 0.039,0.052 0,0.09 -0.09,0.09 -0.09,0 -0.129,-0.039 -0.09,-0.09 z"
       inkscape:connector-curvature="0"
       style="fill:#ffffff" />
    <path
       id="path14"
       d="M 6.139,25.962 C 6.087,25.859 5.984,25.769 5.894,25.769 c -0.206,0 -0.606,-0.451 -0.49,-0.554 0.039,-0.052 -0.013,-0.09 -0.129,-0.09 -0.116,0 -0.219,-0.09 -0.219,-0.193 0,-0.103 -0.077,-0.193 -0.181,-0.193 -0.09,0 -0.284,-0.206 -0.413,-0.464 C 4.32,24.017 4.165,23.708 4.088,23.566 4.024,23.437 3.907,23.321 3.83,23.321 3.766,23.321 3.791,23.257 3.894,23.192 4.062,23.089 4.049,23.063 3.868,23.063 3.7,23.063 3.636,22.96 3.636,22.702 3.636,22.509 3.559,22.264 3.481,22.173 3.21,21.915 3.3,19.078 3.584,18.421 c 0.129,-0.284 0.271,-0.516 0.335,-0.516 0.052,0 0.103,-0.116 0.103,-0.245 0,-0.696 0.967,-1.818 1.573,-1.818 0.206,0 0.4,-0.09 0.438,-0.193 0.052,-0.103 0.219,-0.193 0.387,-0.193 0.168,0 0.309,-0.052 0.309,-0.129 0,-0.064 0.103,-0.129 0.245,-0.129 0.129,0 0.309,-0.09 0.4,-0.193 0.091,-0.103 0.271,-0.193 0.413,-0.193 0.129,0 0.335,-0.077 0.451,-0.155 0.567,-0.464 0.941,-0.877 0.941,-1.057 0,-0.116 0.052,-0.206 0.129,-0.206 0.064,0 0.155,-0.206 0.206,-0.451 0.039,-0.245 0.129,-0.49 0.193,-0.529 0.155,-0.09 0.142,-1.56 -0.013,-1.663 -0.168,-0.103 -0.168,-0.928 0,-1.032 0.077,-0.039 0.129,-0.335 0.129,-0.645 0,-0.529 0.426,-1.612 0.671,-1.715 0.052,-0.026 0.103,-0.129 0.103,-0.232 0,-0.103 0.077,-0.168 0.168,-0.142 0.077,0.013 0.142,-0.039 0.129,-0.129 -0.013,-0.077 0.142,-0.181 0.348,-0.232 0.219,-0.052 0.387,-0.142 0.387,-0.219 0,-0.193 0.348,-0.49 0.58,-0.49 0.103,0 0.232,-0.077 0.271,-0.168 0.026,-0.09 0.297,-0.181 0.606,-0.206 0.297,-0.013 0.567,-0.077 0.58,-0.155 0.064,-0.155 1.663,-0.155 1.767,0.013 0.129,0.206 2.334,0.168 2.553,-0.064 0.103,-0.103 0.219,-0.155 0.258,-0.116 0.116,0.116 0.864,-0.374 0.864,-0.554 0,-0.09 0.09,-0.168 0.193,-0.168 0.103,0 0.193,-0.103 0.193,-0.232 0,-0.142 0.103,-0.438 0.219,-0.683 0.245,-0.503 1.483,-1.792 1.728,-1.792 0.077,0 0.219,-0.077 0.297,-0.181 0.142,-0.193 0.761,-0.258 2.308,-0.219 0.49,0 0.851,0.064 0.812,0.129 -0.142,0.232 1.032,-0.193 1.289,-0.464 0.155,-0.168 0.335,-0.297 0.426,-0.297 0.077,0 0.142,-0.064 0.142,-0.129 0,-0.258 0.49,-0.67 0.735,-0.619 0.309,0.052 0.361,0.503 0.116,0.993 C 27.45,1.209 27.36,1.57 27.36,1.79 c 0,0.206 -0.052,0.387 -0.129,0.387 -0.064,0 -0.155,0.142 -0.206,0.309 -0.039,0.168 -0.206,0.374 -0.387,0.464 -0.168,0.103 -0.309,0.245 -0.309,0.348 0,0.09 -0.09,0.168 -0.193,0.168 -0.103,0 -0.193,0.09 -0.193,0.193 0,0.103 -0.09,0.193 -0.193,0.193 -0.116,0 -0.271,0.064 -0.361,0.129 -0.58,0.49 -0.787,0.645 -0.864,0.645 -0.142,0 -0.787,0.683 -0.916,0.967 -0.064,0.142 -0.168,0.348 -0.219,0.451 -0.387,0.67 -0.464,0.954 -0.542,2.128 -0.052,0.709 -0.064,1.328 -0.039,1.393 0.09,0.155 0.4,0.103 0.477,-0.103 0.052,-0.155 0.322,-0.193 1.238,-0.193 0.683,0 1.16,-0.052 1.16,-0.129 0,-0.064 0.077,-0.129 0.181,-0.129 0.181,0 1.173,-0.89 1.173,-1.044 0,-0.052 0.039,-0.142 0.09,-0.193 0.181,-0.181 0.258,0.335 0.09,0.554 -0.129,0.155 -0.129,0.193 -0.013,0.116 0.297,-0.181 0.155,0.052 -0.374,0.58 -0.413,0.413 -0.49,0.554 -0.361,0.645 0.129,0.077 0.077,0.116 -0.168,0.116 -0.181,0 -0.361,0.064 -0.387,0.155 -0.039,0.116 -0.297,0.116 -1.109,-0.013 -1.006,-0.142 -1.083,-0.142 -1.431,0.103 -0.193,0.142 -0.4,0.232 -0.438,0.193 -0.038,-0.039 -0.168,0.064 -0.284,0.245 -0.297,0.464 -0.709,0.322 -0.709,-0.245 0,-0.232 0.064,-0.464 0.129,-0.503 C 22.254,9.617 22.241,8.663 22.06,8.547 21.983,8.495 21.944,8.276 21.996,7.993 c 0.039,-0.258 0.103,-0.722 0.155,-1.044 0.077,-0.554 0.735,-1.676 0.98,-1.676 0.052,0 0.103,-0.09 0.103,-0.193 0,-0.103 0.077,-0.193 0.181,-0.193 0.103,0 0.206,-0.09 0.258,-0.193 0.039,-0.103 0.155,-0.193 0.271,-0.193 0.116,0 0.335,-0.142 0.503,-0.322 0.168,-0.181 0.413,-0.322 0.567,-0.322 0.142,0 0.284,-0.09 0.335,-0.193 0.039,-0.103 0.155,-0.193 0.271,-0.193 0.103,0 0.348,-0.232 0.529,-0.516 0.193,-0.284 0.4,-0.516 0.451,-0.516 0.064,0 0.116,-0.09 0.116,-0.193 0,-0.103 0.064,-0.193 0.129,-0.193 0.077,0 0.129,-0.142 0.129,-0.322 0,-0.4 -0.129,-0.4 -0.529,-0.052 -0.168,0.155 -0.451,0.322 -0.619,0.387 -0.516,0.206 -2.398,0.077 -2.269,-0.155 0.09,-0.129 -0.322,-0.052 -0.658,0.116 -0.142,0.064 -0.4,0.206 -0.606,0.297 -0.193,0.09 -0.387,0.284 -0.426,0.438 -0.09,0.361 -0.155,0.735 -0.168,0.941 -0.013,0.077 -0.052,0.142 -0.103,0.142 -0.271,-0.039 -0.4,0.052 -0.658,0.503 -0.142,0.271 -0.387,0.593 -0.542,0.735 -0.142,0.129 -0.258,0.284 -0.258,0.348 0,0.064 -0.064,0.181 -0.129,0.271 -0.077,0.09 -0.284,0.335 -0.451,0.542 -0.322,0.387 -0.322,0.387 -1.689,0.387 -1.148,0 -1.38,-0.039 -1.483,-0.219 C 16.283,6.232 16.115,6.206 15.329,6.257 14.826,6.296 14.259,6.373 14.078,6.438 13.897,6.503 13.614,6.58 13.433,6.619 13.252,6.658 12.853,6.916 12.556,7.212 12.247,7.496 11.924,7.689 11.86,7.65 11.783,7.598 11.473,7.831 11.164,8.166 10.687,8.695 10.597,8.888 10.532,9.507 10.48,9.92 10.39,10.371 10.313,10.513 c -0.09,0.193 -0.09,0.361 0.013,0.542 0.181,0.335 0.181,1.277 0.013,1.38 -0.064,0.039 -0.129,0.374 -0.129,0.722 0,0.451 -0.052,0.658 -0.193,0.709 -0.103,0.052 -0.193,0.193 -0.193,0.322 0,0.129 -0.052,0.245 -0.129,0.245 -0.064,0 -0.129,0.064 -0.129,0.142 0,0.193 -0.645,0.941 -0.825,0.967 -0.348,0.039 -0.387,0.077 -0.142,0.181 0.219,0.09 0.206,0.116 -0.129,0.129 -0.206,0.013 -0.542,0.013 -0.735,0 -0.206,-0.013 -0.361,0.039 -0.361,0.116 0,0.064 -0.258,0.168 -0.58,0.219 -0.322,0.039 -0.58,0.129 -0.58,0.181 0,0.052 -0.193,0.129 -0.413,0.181 -0.297,0.064 -0.374,0.116 -0.258,0.193 0.142,0.09 0.129,0.129 -0.039,0.193 -0.309,0.116 -0.348,0.103 -0.245,-0.077 0.052,-0.09 0.039,-0.103 -0.052,-0.052 -0.219,0.129 -0.193,0.335 0.026,0.335 0.103,0 0.232,0.064 0.284,0.155 0.052,0.077 0.039,0.116 -0.026,0.064 -0.064,-0.039 -0.129,0.168 -0.129,0.451 -0.013,0.284 -0.09,0.58 -0.168,0.658 -0.078,0.078 -0.142,0.348 -0.142,0.606 0,0.271 -0.09,0.671 -0.206,0.903 -0.181,0.348 -0.206,0.658 -0.142,1.65 0.052,0.683 0.142,1.289 0.219,1.367 0.064,0.064 0.129,0.258 0.129,0.426 0,0.168 0.052,0.297 0.129,0.297 0.064,0 0.155,0.142 0.206,0.322 0.039,0.181 0.129,0.322 0.193,0.322 0.064,0 0.116,0.09 0.116,0.193 0,0.103 0.077,0.193 0.181,0.193 0.104,0 0.219,0.142 0.258,0.322 0.052,0.181 0.142,0.322 0.206,0.322 0.077,0 0.129,0.077 0.129,0.181 0,0.104 0.064,0.206 0.129,0.232 0.077,0.026 0.013,0.116 -0.129,0.206 C 6.251,26.14 6.199,26.14 6.135,25.972 Z m -0.31,-0.374 c 0,-0.039 -0.064,-0.103 -0.155,-0.155 -0.091,-0.052 -0.103,-0.039 -0.052,0.052 0.09,0.155 0.206,0.206 0.206,0.103 z"
       inkscape:connector-curvature="0"
       style="fill:#ffffff" />
    <path
       id="path16"
       d="m 17.473,25.936 c 0.052,-0.039 0.129,-0.039 0.181,0 0.039,0.052 0,0.09 -0.09,0.09 -0.09,0 -0.129,-0.039 -0.09,-0.09 z"
       inkscape:connector-curvature="0"
       style="fill:#ffffff" />
    <path
       id="path18"
       d="m 3.16,23.357 c 0.052,-0.039 0.129,-0.039 0.181,0 0.039,0.052 0,0.09 -0.09,0.09 -0.09,0 -0.129,-0.039 -0.09,-0.09 z"
       inkscape:connector-curvature="0"
       style="fill:#ffffff" />
    <path
       id="path20"
       d="m 3.315,22.931 c -0.039,-0.064 -0.013,-0.129 0.052,-0.129 0.077,0 0.142,0.064 0.142,0.129 0,0.077 -0.026,0.129 -0.052,0.129 -0.039,0 -0.103,-0.052 -0.142,-0.129 z"
       inkscape:connector-curvature="0"
       style="fill:#ffffff" />
    <path
       id="path22"
       d="m 7.673,16.136 c 0.052,-0.039 0.129,-0.039 0.181,0 0.039,0.052 0,0.09 -0.09,0.09 -0.09,0 -0.129,-0.039 -0.09,-0.09 z"
       inkscape:connector-curvature="0"
       style="fill:#ffffff" />
    <path
       id="path24"
       d="m 28.201,15.066 c 0.039,-0.064 0.103,-0.129 0.142,-0.129 0.026,0 0.052,0.064 0.052,0.129 0,0.077 -0.064,0.129 -0.142,0.129 -0.064,0 -0.09,-0.052 -0.052,-0.129 z"
       inkscape:connector-curvature="0"
       style="fill:#ffffff" />
    <path
       id="path26"
       d="m 22.592,10.94 c 0,-0.09 0.039,-0.129 0.09,-0.09 0.039,0.052 0.039,0.129 0,0.181 -0.052,0.039 -0.09,0 -0.09,-0.09 z"
       inkscape:connector-curvature="0"
       style="fill:#ffffff" />
    <path
       id="path28"
       d="m 22.721,10.553 c 0,-0.09 0.039,-0.129 0.09,-0.09 0.039,0.052 0.039,0.129 0,0.181 -0.052,0.039 -0.09,0 -0.09,-0.09 z"
       inkscape:connector-curvature="0"
       style="fill:#ffffff" />
    <path
       id="path30"
       d="m 11.671,7.883 c 0.052,-0.039 0.129,-0.039 0.181,0 0.039,0.052 0,0.09 -0.09,0.09 -0.09,0 -0.129,-0.039 -0.09,-0.09 z"
       inkscape:connector-curvature="0"
       style="fill:#ffffff" />
  </g>
</svg>
