<?xml version="1.0" encoding="UTF-8" standalone="no"?>
<!-- Generated by IcoMoon.io -->

<svg
   xmlns:dc="http://purl.org/dc/elements/1.1/"
   xmlns:cc="http://creativecommons.org/ns#"
   xmlns:rdf="http://www.w3.org/1999/02/22-rdf-syntax-ns#"
   xmlns:svg="http://www.w3.org/2000/svg"
   xmlns="http://www.w3.org/2000/svg"
   xmlns:sodipodi="http://sodipodi.sourceforge.net/DTD/sodipodi-0.dtd"
   xmlns:inkscape="http://www.inkscape.org/namespaces/inkscape"
   version="1.1"
   width="215"
   height="215"
   viewBox="0 0 215 215"
   id="svg6"
   sodipodi:docname="totem.svg"
   inkscape:version="0.92.3 (2405546, 2018-03-11)">
  <metadata
     id="metadata12">
    <rdf:RDF>
      <cc:Work
         rdf:about="">
        <dc:format>image/svg+xml</dc:format>
        <dc:type
           rdf:resource="http://purl.org/dc/dcmitype/StillImage" />
        <dc:title>treasure-totem</dc:title>
      </cc:Work>
    </rdf:RDF>
  </metadata>
  <defs
     id="defs10" />
  <sodipodi:namedview
     pagecolor="#ffffff"
     bordercolor="#666666"
     borderopacity="1"
     objecttolerance="10"
     gridtolerance="10"
     guidetolerance="10"
     inkscape:pageopacity="0"
     inkscape:pageshadow="2"
     inkscape:window-width="1920"
     inkscape:window-height="1017"
     id="namedview8"
     showgrid="false"
     fit-margin-top="0"
     fit-margin-left="0"
     fit-margin-right="0"
     fit-margin-bottom="0"
     inkscape:zoom="2.6074563"
     inkscape:cx="81.578657"
     inkscape:cy="72.238309"
     inkscape:window-x="-8"
     inkscape:window-y="-8"
     inkscape:window-maximized="1"
     inkscape:current-layer="svg6" />
  <title
     id="title2">treasure-totem</title>
  <path
     d="m 114.16064,213.39249 c -2.00223,-3.22508 -2.26427,-7.83425 -0.69876,-14.36502 1.82754,-7.65956 1.47816,-9.23178 -2.08958,-9.23178 -3.13773,0 -3.56774,-0.61142 -4.00447,-5.39529 -0.17469,-2.08958 -0.78611,-3.82977 -1.30347,-4.00447 -0.43673,-0.17469 -0.87346,-1.82754 -0.87346,-3.74243 0,-1.82754 -0.34938,-3.39305 -0.69876,-3.39305 -0.43673,0 -1.47816,-1.5655 -2.35162,-3.48039 -1.21613,-2.61365 -2.08958,-3.48039 -3.655088,-3.48039 -1.041431,0 -2.002235,-0.34939 -2.002235,-0.87346 0,-0.43673 -1.128776,-0.87346 -2.438963,-0.87346 -1.390814,0 -3.218357,-0.61142 -4.179161,-1.30347 -0.873458,-0.69876 -2.264272,-1.30347 -2.963038,-1.30347 -0.698767,0 -2.264272,-0.78611 -3.305703,-1.65285 -1.827543,-1.30347 -1.914889,-1.65285 -0.786112,-2.78834 0.698766,-0.69877 1.565505,-2.17693 1.827543,-3.22508 0.349383,-1.04143 1.041431,-1.91489 1.47816,-1.91489 0.436729,0 0.786112,-0.69877 0.786112,-1.5655 0,-0.87346 0.436729,-2.00224 0.960804,-2.52631 0.698766,-0.69877 1.04143,-5.56998 1.128776,-14.27768 0.08735,-9.74914 0.349383,-13.3236 1.216122,-13.67298 0.524075,-0.17469 1.041431,-1.21612 1.041431,-2.35162 0,-1.04143 0.611421,-2.43896 1.303468,-3.05038 0.692048,-0.61142 1.303468,-1.47816 1.303468,-2.00224 0,-1.30346 13.061556,-13.672971 14.452366,-13.672971 0.69877,0 1.21613,-0.611421 1.21613,-1.303468 0,-0.786112 0.52407,-1.303468 1.12877,-1.216123 3.39305,0.436729 4.17916,-0.08734 3.13773,-1.914888 -0.61142,-1.216123 -0.78611,-3.56774 -0.43673,-6.268741 0.69877,-4.965273 0,-5.832016 -4.52854,-5.832016 -1.7402,0 -3.05038,0.524079 -3.3057,1.303472 -0.34939,0.873458 -1.7402,1.303468 -3.91713,1.303468 -1.827538,0 -3.393043,0.349383 -3.393043,0.698766 0,0.436729 -1.565506,1.390814 -3.480395,2.264272 -1.914888,0.873458 -4.004469,2.002235 -4.615889,2.52631 -0.611421,0.61142 -2.438964,1.827543 -4.091815,2.701001 -3.050384,1.652851 -8.707705,7.316888 -8.707705,8.620358 0,0.34938 -0.960804,1.5655 -2.176926,2.701 -1.216122,1.13549 -2.176926,2.78835 -2.176926,3.82978 0,0.9608 -0.611421,1.91489 -1.303468,2.26427 -0.698766,0.26204 -1.303468,1.5655 -1.303468,2.87569 0,1.7402 -0.262038,2.08958 -0.786112,1.21612 -0.524075,-0.87345 -0.960804,-0.34938 -1.303469,1.7402 -0.61142,2.87569 -0.960803,4.00447 -2.963038,8.62036 -0.524075,1.21612 -1.216122,4.52854 -1.47816,7.40424 -0.349383,2.87569 -0.960803,5.65732 -1.303468,6.09404 -0.436729,0.52408 -0.873458,3.30571 -1.04143,6.09405 -0.262038,4.96528 -0.349384,5.22731 -2.351618,4.96528 -2.701001,-0.26204 -2.613655,-0.0874 -2.875693,-3.91713 -0.08735,-2.43896 -0.524075,-3.22507 -1.740197,-3.22507 -0.873458,0 -1.827543,0.61142 -2.08958,1.30347 -0.349383,0.69876 -1.041431,1.30346 -1.740197,1.30346 -1.565506,0 -1.565506,-0.43672 0.08734,-2.96303 1.041431,-1.47816 1.303469,-3.74244 1.128777,-8.00894 -0.262037,-5.83201 -0.349383,-6.00671 -2.875693,-6.70547 -1.390813,-0.43673 -4.353852,-1.30347 -6.530778,-2.00224 -2.176926,-0.69876 -4.965273,-1.30346 -6.268741,-1.39081 -1.303468,-0.0873 -2.264272,-0.52408 -2.176926,-0.9608 0.08735,-0.43673 -2.002235,-0.96081 -4.61589,-1.12878 -2.613655,-0.0874 -4.877927,-0.69877 -5.052619,-1.12878 -0.174691,-0.52407 -0.873458,-0.9608 -1.652851,-0.9608 -0.698766,0 -1.128777,-0.52408 -0.873458,-1.04143 0.436729,-1.30347 8.270976,-1.47816 9.144434,-0.17469 0.786112,1.04143 4.528544,1.39081 4.528544,0.34938 0,-0.34938 4.703235,-0.9608 10.360555,-1.30347 10.011173,-0.61142 10.447902,-0.69876 10.884631,-2.701 0.349383,-1.12878 0.960804,-2.08958 1.390814,-2.08958 0.524075,0 0.873458,-0.52407 0.873458,-1.21612 0,-1.65285 4.266507,-9.40647 6.09405,-11.14667 0.873458,-0.873456 1.914888,-2.438961 2.264271,-3.480392 0.262038,-1.128777 1.740198,-3.050384 3.050385,-4.441198 1.390814,-1.303468 2.526309,-2.788347 2.526309,-3.218357 0,-1.216122 -3.218357,-4.353852 -3.829778,-3.655086 -0.262037,0.262038 -0.524074,-0.349383 -0.524074,-1.303468 0,-1.740196 -10.447902,-12.886866 -18.544186,-19.854376 -2.264272,-1.91489 -4.091815,-3.91712 -4.091815,-4.35385 0,-0.52407 1.652852,-0.78611 3.917123,-0.61142 2.176927,0.17469 3.917124,0.69877 3.917124,1.12878 0,0.43001 0.61142,0.78611 1.303468,0.78611 0.698766,0 1.303468,0.43673 1.303468,0.87346 0,0.52407 0.698766,1.21612 1.47816,1.5655 2.963038,1.21613 8.096284,4.96528 8.096284,5.91936 0,0.61142 0.960803,1.30347 2.176926,1.56551 1.216122,0.34938 2.176926,0.9608 2.176926,1.39081 0,0.52407 0.611421,0.87346 1.303468,0.87346 0.692048,0 1.303468,0.34938 1.303468,0.69876 0,0.43673 1.565506,1.39082 3.480394,2.26428 2.264272,0.9608 3.480395,2.08958 3.480395,3.13773 0,1.74019 1.390814,3.137726 1.914888,2.00223 0.08735,-0.43673 2.089581,-1.5655 4.441198,-2.701 2.264272,-1.12878 4.091815,-2.43896 4.091815,-2.87569 0,-0.43673 1.216123,-0.78611 2.613655,-0.78611 1.47816,0 2.613656,-0.34939 2.613656,-0.87346 0,-0.43673 0.786112,-0.87346 1.652851,-0.87346 0.960804,0 2.264272,-0.61142 3.050381,-1.30347 0.69877,-0.69877 2.26427,-1.30347 3.39305,-1.30347 2.61366,0 7.65956,-2.52631 8.8824,-4.35385 0.43673,-0.69877 0.69876,-3.39305 0.52407,-5.91936 -0.17469,-2.87569 0.0873,-4.52854 0.69877,-4.52854 0.52407,0 0.9608,-0.43673 0.9608,-0.9608 0,-0.52408 -0.69876,-0.69877 -1.47816,-0.43673 -1.30347,0.43673 -1.30347,0.34938 0.0874,-0.78612 1.65285,-1.21612 1.65285,-1.30346 -0.52407,-1.30346 -1.30347,0 -2.61366,0.34938 -2.8757,0.87345 -0.26203,0.43673 -1.39081,0.87346 -2.5263,0.87346 -1.65286,0 -1.91489,-0.52407 -2.08958,-3.3057 -0.1747,-1.82754 0.34938,-4.52854 1.12877,-5.91936 0.69877,-1.39081 1.30347,-3.39305 1.30347,-4.4412 0,-1.04815 0.43673,-2.17692 0.87346,-2.43896 0.52407,-0.26204 0.87346,-1.82754 0.87346,-3.3057 0,-1.56551 0.61142,-3.56774 1.30346,-4.4412 0.69877,-0.9608 1.30347,-2.87569 1.30347,-4.17916 0,-1.39082 0.34939,-3.13773 0.78611,-4.00447 1.39082,-2.61366 4.4412,-13.1489 4.4412,-15.41318 0,-1.12877 0.43673,-2.35161 0.87346,-2.61365 0.52408,-0.26204 0.87346,-1.47816 0.87346,-2.701 0,-1.12878001 0.52408,-2.089580012317 1.12878,-2.089580012317 1.04143,0 2.70099,6.705470012317 3.74242,16.105220012317 0.34939,2.43896 0.87346,5.05262 1.30347,5.83201 0.43001,0.7794 0.78611,2.61366 0.78611,4.00447 0,1.39082 0.61142,4.26651 1.30347,6.26874 0.69205,2.00224 1.30347,4.79058 1.30347,6.1814 0,1.39081 0.34938,2.52631 0.78611,2.52631 0.43673,0 1.04143,1.04143 1.30347,2.26427 0.69877,2.61365 2.52631,4.70323 4.17916,4.70323 0.87346,0 0.78611,0.26204 -0.17469,0.87346 -0.87346,0.52408 -0.96081,0.87346 -0.17469,0.87346 0.52407,0 1.04143,0.87346 0.9608,2.00223 0,1.82755 -0.0874,1.82755 -0.78611,0.1747 -0.61142,-1.47816 -0.78611,-1.47816 -0.78611,-0.1747 -0.0874,1.04144 -0.78612,1.47816 -2.52631,1.47816 -4.09182,0 -5.48263,2.43897 -5.22731,8.79506 l 0.26203,5.56997 8.27098,0.17469 c 4.52854,0.0874 11.32136,0.43673 15.06379,0.69877 3.65509,0.34938 6.70547,0.26204 6.70547,-0.17469 0,-0.34939 0.9608,-1.82755 2.17693,-3.21836 1.21612,-1.39081 2.17692,-3.21836 2.17692,-4.00447 0,-0.87346 0.61142,-2.00223 1.30347,-2.61365 0.69205,-0.61143 1.30347,-1.65286 1.30347,-2.26428 0,-0.69876 0.43673,-1.21612 0.87346,-1.21612 0.52407,0 0.87346,-0.9608 0.87346,-2.17693 0,-1.39081 0.52407,-2.17692 1.30346,-2.17692 0.69877,0 1.30347,-0.78611 1.30347,-1.65285 0,-3.82978 5.74467,-10.36056 8.27098,-9.31913 0.9608,0.34939 1.04143,1.04143 0.34938,3.3057 -0.52407,1.91489 -0.52407,2.96304 0.0873,3.13773 0.43673,0.1747 0.87345,1.30347 0.87345,2.43897 0,1.30347 -0.34938,2.00223 -0.9608,1.65285 -0.52407,-0.34938 -0.69877,-1.21612 -0.43673,-1.91489 0.26204,-0.69877 0.17469,-1.04143 -0.26204,-0.78611 -0.43673,0.26204 -0.9608,1.5655 -1.21612,2.87569 -0.87346,4.17916 -2.52631,10.18587 -3.3057,11.75137 -0.43673,0.87346 -0.78611,2.26427 -0.78611,3.13773 0,0.78611 -0.61142,2.35162 -1.30347,3.3057 -1.30347,2.00224 -0.96081,2.96304 1.04143,2.96304 0.69877,0 1.82754,0.61142 2.52631,1.30347 0.78611,0.69877 2.701,1.30347 4.26651,1.30347 1.65285,0 3.22507,0.43673 3.48039,0.87346 0.26204,0.52407 1.30347,0.87345 2.17693,0.87345 0.87345,0 2.17692,0.61142 2.96303,1.30347 0.69877,0.69877 1.47816,1.30347 1.82755,1.30347 0.34938,0 1.74019,1.12878 3.13773,2.52631 2.35161,2.351617 3.56774,7.054853 1.82754,7.054853 -0.43673,0 -1.21612,0.960804 -1.7402,2.176926 -0.78611,1.565506 -1.65285,2.176926 -3.56774,2.176926 -1.5655,0 -3.56774,-0.873458 -4.96527,-2.176926 -1.30347,-1.216122 -3.05038,-2.176926 -3.91712,-2.176926 -0.86674,0 -2.08958,-0.611421 -2.8757,-1.303468 -0.69876,-0.698767 -2.26427,-1.303468 -3.48039,-1.303468 -1.21612,0 -2.35162,-0.349384 -2.701,-0.786113 -0.26204,-0.524074 -2.35162,-1.128776 -4.61589,-1.390813 -2.26427,-0.262041 -4.79058,-0.873461 -5.56998,-1.390811 -0.87345,-0.43673 -2.701,-0.78612 -4.09181,-0.78612 -1.39081,0 -2.96304,-0.61142 -3.56774,-1.30346 -0.9608,-1.12878 -3.22508,-1.30347 -12.97421,-1.12878 -11.23402,0.26204 -11.83872,0.34938 -11.5834,2.00223 0.0874,0.96081 0.26204,4.877931 0.26204,8.707709 0.0873,8.620359 1.47816,10.971968 4.87793,8.358321 1.65285,-1.390814 2.61365,-1.565505 4.79058,-0.873458 2.96304,0.786112 10.27321,8.096285 10.27321,10.098515 0,0.69877 0.52407,1.39081 1.12877,1.65285 0.61142,0.17469 1.21613,1.65285 1.30347,3.13773 0.17469,1.56551 0.52408,3.05039 0.96081,3.3057 1.04143,0.61142 2.96303,8.53302 2.78834,11.75809 0,1.47816 -0.26204,6.09405 -0.61142,10.36056 -0.61142,8.44567 0,10.62259 4.17916,14.45237 2.08958,1.91489 2.26427,2.52631 1.56551,4.79058 -1.65285,5.13997 -2.00224,5.65732 -3.13773,5.65732 -0.69877,0 -1.21612,0.34938 -1.21612,0.78611 0,0.43673 -1.04144,1.04143 -2.35162,1.39082 -1.82755,0.43673 -2.08958,0.69876 -1.04143,1.39081 0.87346,0.52408 0.26203,0.78611 -2.08958,0.78611 -2.08958,0 -3.4804,0.43673 -3.74243,1.30347 -0.34939,0.69877 -0.87346,1.30347 -1.39082,1.30347 -0.9608,0 -3.3057,2.17693 -3.3057,3.05038 0,0.34939 -0.61142,1.12878 -1.30347,1.82755 -0.69205,0.69876 -1.21612,2.61365 -1.12878,4.17916 0.0874,2.17692 -0.52407,3.56774 -2.26427,5.13996 -1.30347,1.21612 -2.96304,2.00224 -3.65508,1.7402 -0.69205,-0.26204 -2.17693,0.17469 -3.39305,0.9608 -2.701,1.7402 -6.1814,1.82755 -6.88015,0.0874 -0.87346,-2.35162 -4.00448,0 -4.00448,3.05038 0,2.52631 0.0874,2.52631 5.39528,2.78835 l 5.48263,0.26204 0.17469,3.48039 c 0.0874,2.43896 0,2.96304 -0.52407,1.7402 -0.61143,-1.47816 -0.78612,-1.30347 -1.12878,1.12877 -0.26204,2.08959 -0.0874,2.78835 0.9608,2.8757 0.96081,0 1.04143,0.17469 0.34939,0.52407 -0.61142,0.17469 -1.12878,1.56551 -1.12878,2.87569 0,2.78835 1.65285,7.1422 2.52631,6.53078 0.34938,-0.17469 0.69877,0.69877 0.78611,2.00224 0.0874,1.82754 0,2.08958 -0.69877,1.04143 -0.43672,-0.69877 -0.87345,-0.87346 -0.87345,-0.34938 0,0.69876 -2.35162,1.04143 -6.79282,1.12877 -5.65732,0.0873 -6.88016,-0.17469 -7.7469,-1.5655 z m 8.79505,-43.27648 c 0.78611,-0.69877 1.39081,-1.7402 1.39081,-2.17693 0,-0.43673 0.26204,-0.69877 0.69877,-0.52407 0.34938,0.0873 0.69876,-0.1747 0.78611,-0.69877 0.0874,-0.43673 -0.34938,-0.78611 -1.04143,-0.61142 -0.61142,0.0874 -1.04143,-0.43673 -0.9608,-1.30347 0,-0.87346 -0.43673,-1.47816 -0.96081,-1.30347 -0.69876,0.0873 -1.12876,-0.69876 -1.12876,-2.08958 0,-1.82754 -0.34939,-2.17692 -1.91489,-1.91489 -1.56551,0.17469 -2.17693,1.04143 -2.78835,3.91713 -0.69877,3.3057 -0.52408,3.91712 1.30346,5.91935 2.43897,2.52631 2.8757,2.61366 4.61589,0.78612 z m -12.10075,-6.35609 c 0.26204,-0.43673 0.0874,-1.04143 -0.43673,-1.39081 -0.43673,-0.26204 -0.87346,-0.0874 -0.87346,0.43672 0,0.52408 -0.43673,0.69877 -1.04143,0.34939 -0.61142,-0.34939 -0.69876,-0.26204 -0.34938,0.34938 0.78611,1.21612 2.00223,1.30347 2.701,0.26204 z m 1.91489,-2.87569 c -0.26204,-0.61142 -0.43673,-0.17469 -0.43673,1.04143 0,1.21612 0.17469,1.65285 0.43673,1.12877 0.17469,-0.61142 0.17469,-1.65285 0,-2.17692 z m 27.51392,-4.26651 c 1.04143,-0.87346 2.52631,-1.65285 3.22508,-1.65285 1.5655,-0.0873 5.22731,-2.96304 5.22731,-4.09182 0,-1.74019 -2.26427,-5.48263 -3.22508,-5.48263 -0.61142,0 -1.12877,-0.34938 -1.12877,-0.87345 0,-0.43673 -1.30347,-0.87346 -2.96304,-0.87346 -1.65957,0 -3.30571,0.43673 -3.56774,0.87346 -0.26204,0.52407 -1.30347,0.87345 -2.26428,0.87345 -0.9608,0 -1.91488,0.61143 -2.17692,1.30347 -0.34938,0.69877 -1.21612,1.30347 -2.08958,1.30347 -1.65285,0 -2.61366,1.65285 -2.61366,4.4412 0,1.7402 5.31466,7.7469 6.88016,7.7469 0.52408,0 0.96081,0.52408 1.04144,1.12878 0,0.52407 0.34938,0.0874 0.87345,-0.96081 0.43673,-1.12877 1.65286,-2.78834 2.78835,-3.74243 z m -37.26977,3.57446 c 0.69876,-1.12878 4.17916,-1.12878 5.30793,-0.0874 1.04143,1.12878 3.74243,-0.87346 4.09182,-3.05038 0.0874,-0.87346 0.61142,-2.17693 0.9608,-2.8757 0.52408,-0.78611 0.43673,-1.04143 0,-0.69876 -0.52407,0.26203 -0.9608,-0.26204 -0.9608,-1.30347 -0.17469,-1.65285 -0.0874,-1.65285 1.47816,0.17469 0.9608,1.12878 1.47816,2.35162 1.12877,2.87569 -0.26203,0.43673 -0.0874,0.61142 0.43673,0.26204 0.43673,-0.26204 1.12878,0 1.30347,0.52407 0.34938,0.69877 0.52408,0.61142 0.52408,-0.34938 0.0874,-0.78611 -0.43673,-1.65285 -0.96081,-1.82754 -0.61142,-0.26204 -0.17469,-0.52408 1.04143,-0.61142 2.00224,-0.17469 2.00224,-0.26204 -0.43673,-0.78611 -1.39081,-0.34939 -2.52631,-1.04143 -2.43896,-1.65286 0.17469,-0.61142 -0.61142,-1.04143 -1.7402,-1.04143 -1.12877,0 -2.35162,-0.34938 -2.87569,-0.87346 -0.43673,-0.43672 -2.08958,-0.87345 -3.56774,-1.04143 -1.47816,-0.0873 -2.52631,-0.52407 -2.35162,-0.87345 0.78611,-1.21613 -4.004466,-2.52631 -5.657318,-1.56551 -1.565505,0.78611 -4.441198,6.70547 -4.441198,8.96974 0,0.61142 1.216123,2.43897 2.701001,3.91713 2.701001,2.78834 5.395285,3.56774 6.443435,1.91488 z m 11.49605,-1.48488 c -0.34939,-0.26204 -0.87346,-0.26204 -1.21613,0 -0.26203,0.34938 0,0.61142 0.61142,0.61142 0.61143,0 0.87346,-0.26204 0.61143,-0.61142 z m 1.74019,-0.86674 c -0.34938,-0.26204 -0.61142,0 -0.61142,0.61142 0,0.61142 0.26204,0.87346 0.61142,0.61142 0.26204,-0.34938 0.26204,-0.87346 0,-1.21612 z m 12.45013,0.43001 c 0,-0.34938 -0.34938,-0.69876 -0.78611,-0.69876 -0.52407,0 -1.04143,0.34938 -1.30347,0.69876 -0.26203,0.43673 0.0874,0.78611 0.78612,0.78611 0.69876,0 1.30346,-0.34938 1.30346,-0.78611 z M 81.244714,93.144201 c -0.262037,-0.436729 -0.960803,-0.873458 -1.390814,-0.873458 -0.524074,0 -0.61142,0.436729 -0.349383,0.873458 0.262038,0.524074 0.960804,0.873458 1.390814,0.873458 0.524075,0 0.611421,-0.349384 0.349383,-0.873458 z M 76.722889,92.53278 c -1.390813,-0.524075 -1.478159,-4.61589 -0.174691,-4.61589 0.698766,0 0.698766,-0.349383 0,-1.216122 -0.786112,-0.960804 -0.698767,-1.303468 0.349383,-1.740197 0.786112,-0.262038 1.128777,-0.174692 0.873458,0.349383 -0.255318,0.524075 0.08735,0.611421 0.873458,0.349383 1.303468,-0.524075 1.303468,-0.698766 0.174692,-1.914888 -1.914889,-1.827546 -4.441198,-0.698767 -3.829778,1.740197 0.349383,1.04143 0.174692,2.351617 -0.174691,2.788346 -0.960804,1.216123 0.436729,4.877927 1.827543,4.790582 0.873458,0 0.873458,-0.174692 0.08734,-0.524075 z m 0.342665,-14.801757 c -0.349383,-0.26203 -0.873458,-0.26203 -1.216123,0 -0.262037,0.34939 0,0.61142 0.611421,0.61142 0.611421,0 0.873458,-0.26203 0.611421,-0.61142 z"
     id="path4"
     inkscape:connector-curvature="0"
     style="fill:#ffffff;stroke-width:6.71890783" />
</svg>
