<?xml version="1.0" encoding="UTF-8" standalone="no"?>
<!-- Generator: Adobe Illustrator 25.0.1, SVG Export Plug-In  -->

<svg
   xmlns:dc="http://purl.org/dc/elements/1.1/"
   xmlns:cc="http://creativecommons.org/ns#"
   xmlns:rdf="http://www.w3.org/1999/02/22-rdf-syntax-ns#"
   xmlns:svg="http://www.w3.org/2000/svg"
   xmlns="http://www.w3.org/2000/svg"
   xmlns:sodipodi="http://sodipodi.sourceforge.net/DTD/sodipodi-0.dtd"
   xmlns:inkscape="http://www.inkscape.org/namespaces/inkscape"
   version="1.1"
   x="0px"
   y="0px"
   width="287.45001"
   height="287.45001"
   viewBox="0 0 287.45002 287.45"
   style="overflow:visible"
   xml:space="preserve"
   id="svg11"
   sodipodi:docname="cities_of_sigmar.svg"
   inkscape:version="0.92.3 (2405546, 2018-03-11)"><metadata
   id="metadata15"><rdf:RDF><cc:Work
       rdf:about=""><dc:format>image/svg+xml</dc:format><dc:type
         rdf:resource="http://purl.org/dc/dcmitype/StillImage" /><dc:title /></cc:Work></rdf:RDF></metadata><sodipodi:namedview
   pagecolor="#ffffff"
   bordercolor="#666666"
   borderopacity="1"
   objecttolerance="10"
   gridtolerance="10"
   guidetolerance="10"
   inkscape:pageopacity="0"
   inkscape:pageshadow="2"
   inkscape:window-width="1920"
   inkscape:window-height="1017"
   id="namedview13"
   showgrid="false"
   inkscape:zoom="0.98806668"
   inkscape:cx="-537.91916"
   inkscape:cy="66.126623"
   inkscape:window-x="-8"
   inkscape:window-y="-8"
   inkscape:window-maximized="1"
   inkscape:current-layer="svg11"
   fit-margin-top="0"
   fit-margin-left="0"
   fit-margin-right="0"
   fit-margin-bottom="0" />
<defs
   id="defs2">
</defs>
<g
   id="gptGUm.tif_1_"
   transform="translate(-0.0099939,38.788376)"
   style="fill:#000000;fill-opacity:1">
	<g
   id="g8"
   style="fill:#000000;fill-opacity:1">
		<path
   d="m 102.63,181.93 c -1.25,1.02 -2.38,2.17 -3.7,3 -5.41,3.39 -10.82,6.77 -16.33,9.99 -8.32,4.86 -16.71,9.59 -25.47,14.6 -0.78,-1.84 -1.93,-3.89 -2.52,-6.09 -0.78,-2.9 -2.5,-3.73 -5.02,-2.67 -6.3,2.64 -12.51,5.5 -18.79,8.21 -1.39,0.6 -2.91,0.93 -4.62,0.89 8.4,-11.88 18.67,-21.72 29.32,-32.02 1.25,2.58 2.35,4.62 3.24,6.75 1.25,2.97 3.3,4.16 5.78,2.21 4.6,-3.62 8.83,-7.73 12.96,-11.87 0.72,-0.73 0.57,-2.73 0.25,-4 -0.55,-2.16 -1.7,-4.15 -2.34,-6.3 -0.89,-2.99 -1.71,-6.03 -2.22,-9.1 -0.42,-2.49 -1.83,-3.4 -4.07,-3.62 -14.62,-1.41 -29.24,-2.75 -43.85,-4.26 -7.29,-0.76 -14.56,-1.78 -21.81,-2.85 -1.21,-0.18 -2.29,-1.25 -3.43,-1.92 0.06,-0.34 0.13,-0.67 0.19,-1.01 5.3,-0.92 10.57,-2.1 15.91,-2.72 13.76,-1.58 27.55,-2.85 41.31,-4.4 3.88,-0.44 7.67,-1.61 11.54,-2.11 3.03,-0.39 4.63,-2.08 5.52,-4.73 0.72,-2.12 1.54,-4.24 1.94,-6.43 0.19,-1.02 -0.18,-2.5 -0.86,-3.26 -3.24,-3.59 -6.56,-7.11 -10.07,-10.43 -2.51,-2.36 -3.94,-1.78 -4.99,1.57 -1.33,4.22 -2.86,4.63 -6.08,1.71 -11.6,-10.51 -23.23,-21 -34.66,-32.24 2.32,0.94 4.7,1.75 6.95,2.83 7.43,3.56 14.78,7.28 22.23,10.79 3.32,1.57 5.37,0.31 6.21,-3.29 0.38,-1.63 0.97,-3.21 1.74,-5.69 9.01,5.24 17.39,9.98 25.62,14.96 3.01,1.82 5.24,2.06 7.63,-0.97 1.96,-2.49 4.61,-4.44 6.61,-6.9 0.85,-1.05 1.44,-2.99 1.09,-4.23 -1.87,-6.58 -3.97,-13.1 -6.26,-19.55 -0.39,-1.1 -2.06,-2.38 -3.19,-2.42 -1.65,-0.06 -3.47,0.66 -4.97,1.51 -3.67,2.07 -4.68,1.57 -5.8,-2.62 C 75.01,53.44 72.2,43.68 69.52,33.88 69.12,32.43 69,30.9 68.76,29.4 c 0.36,-0.22 0.72,-0.43 1.08,-0.65 2.36,3.17 4.79,6.29 7.07,9.51 2.16,3.06 4.11,6.28 6.26,9.35 2.25,3.22 5.11,1.22 7.27,0.17 3.03,-1.47 4.4,-0.97 5.67,2.09 0.94,2.24 2.76,4.1 4.08,6.2 3.75,5.98 7.31,12.08 11.2,17.96 3.08,4.64 4.02,4.76 9.26,2.94 0.78,-0.27 1.62,-0.34 2.44,-0.51 6.1,-1.32 7.03,-2.91 7.87,-9.01 1.72,-12.55 3.75,-25.07 5.96,-37.54 1.63,-9.19 3.73,-18.29 5.64,-27.42 0.17,-0.79 0.44,-1.56 1.47,-2.48 0.79,3.3 1.69,6.58 2.35,9.9 2.39,12.04 4.71,24.09 7.05,36.14 0.86,4.42 1.59,8.86 2.55,13.26 0.88,4.03 1.57,8.2 3.19,11.94 0.91,2.09 3.28,4.26 5.46,4.96 7.57,2.44 7.58,2.17 11.47,-4.98 4.38,-8.05 8.87,-16.04 13.37,-24.02 1.11,-1.98 2.45,-1.24 3.7,-0.04 1.61,1.55 3.24,3.08 4.84,4.64 2.13,2.08 3.93,1.77 5.5,-0.69 4.56,-7.16 9.07,-14.35 13.73,-21.44 1.33,-2.03 3.1,-3.77 4.67,-5.64 0.38,0.23 0.77,0.46 1.15,0.69 -5.31,16.52 -10.61,33.03 -16.23,50.52 -1.79,-1.92 -3.03,-3.07 -4.06,-4.39 -2.28,-2.92 -5.09,-2.88 -6.65,0.48 -2.09,4.49 -4.03,9.07 -5.54,13.77 -0.46,1.44 0.26,3.7 1.21,5.05 1.46,2.09 3.58,3.72 5.42,5.54 4,3.95 3.84,3.67 8.8,0.81 8.56,-4.94 17.34,-9.49 26.62,-14.52 1.08,2.93 2,5.18 2.76,7.49 1.11,3.35 2.89,4 5.88,2.45 5.65,-2.92 11.39,-5.65 17.12,-8.41 2.74,-1.31 5.53,-2.5 8.33,-3.75 -0.67,3.59 -21.28,24.04 -32.17,31.96 -0.21,-0.07 -0.52,-0.09 -0.63,-0.24 -3.97,-5.81 -3.92,-5.74 -9.91,-1.69 -2.53,1.71 -5.34,3.02 -8,4.54 -4.1,2.34 -4.82,4.18 -3.38,8.69 0.65,2.02 1.39,4.01 2.16,5.99 1.42,3.66 4.71,4.5 8.04,4.95 13.73,1.83 27.5,3.31 41.19,5.4 7.8,1.19 15.45,3.31 23.44,5.64 -2.1,0.65 -4.15,1.56 -6.29,1.91 -7.12,1.18 -14.27,2.15 -21.41,3.24 -9.91,1.51 -19.87,2.82 -29.72,4.68 -4.31,0.81 -8.87,2.05 -12.5,4.37 -4.28,2.73 -4.84,8.15 -5.88,12.85 -0.18,0.79 1,2.1 1.83,2.85 3.41,3.09 6.93,6.07 10.42,9.07 1.92,1.65 3.44,1.05 4.67,-0.9 1.05,-1.66 2.05,-3.35 3.4,-5.55 11.05,9.03 21.7,17.74 32.36,26.45 -0.2,0.41 -0.4,0.81 -0.61,1.22 -0.95,-0.26 -1.98,-0.37 -2.84,-0.8 -3.94,-2 -7.83,-4.12 -11.76,-6.13 -1.04,-0.53 -2.25,-0.74 -3.3,-1.26 -4.73,-2.39 -8.65,-0.91 -10.48,4.01 -2.15,5.79 -3.15,5.88 -8.74,2.69 -6.25,-3.56 -12.95,-6.33 -19.18,-9.91 -6.22,-3.58 -12.15,-7.67 -18.07,-11.74 -0.63,-0.43 -0.81,-2.42 -0.39,-3.29 1.88,-3.91 4.4,-7.53 6.01,-11.53 1.64,-4.07 2.58,-8.45 3.67,-12.73 0.52,-2.04 0.67,-4.18 1,-6.27 0.13,-0.81 0.55,-1.66 0.42,-2.43 -1.72,-10.51 -2.17,-21.42 -9.83,-30.03 -3.66,-4.11 -6.66,-8.9 -10.72,-12.54 -4.64,-4.16 -10.44,-6.52 -16.39,-8.8 -9.6,-3.68 -19.25,-2.53 -28.78,-1.64 -13.83,1.29 -25.27,7.69 -33.67,19.11 -8.83,12.01 -13.13,25.28 -11.1,40.17 1.43,10.44 5.32,19.99 12.02,28.27 0.27,0.32 0.49,0.74 1.03,1.58 z m 104.03,-37.39 c 2.39,1.29 3.76,2.56 5.18,2.61 0.86,0.03 2.66,-1.99 2.5,-2.76 -0.25,-1.2 -1.87,-3.01 -2.82,-2.96 -1.35,0.07 -2.63,1.59 -4.86,3.11 z M 81.52,143.67 c 0.02,-0.45 0.04,-0.9 0.06,-1.36 -1.14,-0.69 -2.32,-1.98 -3.42,-1.91 -1.12,0.07 -2.17,1.46 -3.25,2.27 1.05,1.03 1.97,2.62 3.18,2.89 0.95,0.22 2.27,-1.2 3.43,-1.89 z m 98.07,-60.48 c -1.29,1.73 -2.85,3.13 -2.6,3.62 0.62,1.22 1.94,2.35 3.23,2.81 0.46,0.17 2.38,-1.74 2.32,-2.61 -0.08,-1.07 -1.51,-2.06 -2.95,-3.82 z m -71.95,5.57 c -0.02,0.45 -0.05,0.89 -0.07,1.34 1.21,0.84 2.44,2.33 3.63,2.31 1.01,-0.02 1.98,-1.81 2.97,-2.81 -0.96,-0.86 -1.85,-2.31 -2.88,-2.41 -1.15,-0.13 -2.43,0.99 -3.65,1.57 z m 96.78,86.48 c -2.06,-1.29 -3.15,-2.52 -4.08,-2.41 -0.97,0.12 -2.42,1.49 -2.48,2.39 -0.06,0.92 1.35,2.75 2.06,2.71 1.17,-0.05 2.28,-1.27 4.5,-2.69 z m -116.01,8.5 c 1.46,-2.03 2.99,-3.24 2.84,-4.19 -0.17,-1.1 -1.83,-1.97 -2.84,-2.94 -0.81,0.97 -2.18,1.89 -2.28,2.93 -0.1,1.01 1.1,2.14 2.28,4.2 z m 113.35,-76.37 c -1.4,1.8 -2.81,2.82 -2.79,3.82 0.02,0.91 1.5,2.29 2.52,2.49 0.71,0.14 2.43,-1.33 2.47,-2.14 0.06,-1.08 -1.09,-2.22 -2.2,-4.17 z m -111.82,3.32 c -0.46,0.01 -0.92,0.02 -1.38,0.03 -0.63,1.05 -1.88,2.23 -1.71,3.13 0.19,0.95 1.65,2.07 2.72,2.27 0.6,0.11 2.14,-1.48 2.14,-2.31 0.01,-1.03 -1.13,-2.08 -1.77,-3.12 z m 58.38,-31.06 c -1.76,-0.94 -2.82,-1.97 -3.59,-1.79 -0.93,0.21 -1.61,1.47 -2.4,2.27 0.8,0.7 1.66,2.01 2.4,1.95 1,-0.09 1.92,-1.23 3.59,-2.43 z"
   id="path4"
   inkscape:connector-curvature="0"
   style="fill:#000000;fill-opacity:1" />
		<path
   d="m 179.12,118.58 c -0.55,3.89 -3.14,6.06 -4.92,8.63 -1.93,2.79 -4.23,5.33 -6.04,8.19 -2.52,3.97 -4.3,4.76 -8.35,2.52 -2.66,-1.47 -5.21,-3.25 -7.51,-5.23 -4.4,-3.79 -9.25,-6.01 -15.17,-5.7 -3.87,0.2 -7.77,3.21 -8.81,7 -1.66,6.05 -0.6,10.19 3.54,12.51 1.21,0.68 2.93,0.9 4.33,0.71 5.01,-0.65 9.77,-0.3 14.71,1.16 5.94,1.75 11.88,3.33 16.49,7.61 8.12,7.54 11.45,19.13 4.32,30.04 -2.09,3.19 -4.79,4.98 -8.07,6.89 -6.47,3.77 -13.14,3.04 -19.92,2.95 -2.49,-0.03 -4.98,-0.1 -7.47,0 -3.45,0.14 -6.59,0 -9.58,-2.42 -2.75,-2.23 -6.42,-3.3 -9.29,-5.42 -2.31,-1.71 -4.17,-4.11 -5.9,-6.45 -0.49,-0.65 -0.26,-2.66 0.37,-3.19 3.5,-2.93 7.25,-5.56 10.85,-8.38 1.71,-1.35 2.68,-1.74 4.02,0.69 4.27,7.76 15.01,12.97 23.75,11.88 6.4,-0.8 11.33,-9.79 8,-15.28 -4.13,-6.8 -10.45,-11.05 -18.35,-11.89 -5.65,-0.6 -11.64,-1.34 -16.62,3.12 -0.64,0.58 -3.27,-0.05 -4.19,-0.93 -11.83,-11.37 -11.59,-23.63 -1.22,-37.14 3.6,-4.7 8.42,-7.34 14.11,-9.44 9.55,-3.52 17.24,-0.02 25.06,4.32 5.97,3.31 12.5,3.31 19.02,3.48 0.67,0 1.37,-0.12 2.84,-0.23 z"
   id="path6"
   inkscape:connector-curvature="0"
   style="fill:#000000;fill-opacity:1" />
	</g>
</g>
</svg>