<?xml version="1.0" encoding="UTF-8" standalone="no"?>
<!-- Generator: Adobe Illustrator 24.2.0, SVG Export Plug-In  -->

<svg
   xmlns:dc="http://purl.org/dc/elements/1.1/"
   xmlns:cc="http://creativecommons.org/ns#"
   xmlns:rdf="http://www.w3.org/1999/02/22-rdf-syntax-ns#"
   xmlns:svg="http://www.w3.org/2000/svg"
   xmlns="http://www.w3.org/2000/svg"
   xmlns:sodipodi="http://sodipodi.sourceforge.net/DTD/sodipodi-0.dtd"
   xmlns:inkscape="http://www.inkscape.org/namespaces/inkscape"
   version="1.1"
   x="0px"
   y="0px"
   width="203.086"
   height="203.086"
   viewBox="0 0 203.086 203.086"
   style="overflow:visible"
   xml:space="preserve"
   id="svg9"
   sodipodi:docname="lumineth_realmlords.svg"
   inkscape:version="0.92.3 (2405546, 2018-03-11)"><metadata
   id="metadata13"><rdf:RDF><cc:Work
       rdf:about=""><dc:format>image/svg+xml</dc:format><dc:type
         rdf:resource="http://purl.org/dc/dcmitype/StillImage" /><dc:title /></cc:Work></rdf:RDF></metadata><sodipodi:namedview
   pagecolor="#ffffff"
   bordercolor="#666666"
   borderopacity="1"
   objecttolerance="10"
   gridtolerance="10"
   guidetolerance="10"
   inkscape:pageopacity="0"
   inkscape:pageshadow="2"
   inkscape:window-width="1920"
   inkscape:window-height="1017"
   id="namedview11"
   showgrid="false"
   inkscape:zoom="1.1621036"
   inkscape:cx="-215.10636"
   inkscape:cy="101.54"
   inkscape:window-x="-8"
   inkscape:window-y="-8"
   inkscape:window-maximized="1"
   inkscape:current-layer="svg9" />
<defs
   id="defs2">
</defs>
<g
   id="qaNiwy.tif_1_"
   transform="translate(52.047794,-0.00176591)"
   style="fill:#000000;fill-opacity:1">
	<g
   id="g6"
   style="fill:#000000;fill-opacity:1">
		<path
   d="m 48.82,185.42 c -2.83,-0.31 -6.42,0.38 -8.32,-1.12 -4.14,-3.27 -9.24,-7.19 -10.4,-11.75 -0.73,-2.88 4.35,-8.17 7.88,-11.06 13.48,-11.01 45.52,-7.65 54.56,7.82 2.97,5.09 3.36,17.67 -1.34,21.24 -6.12,4.65 -12.92,10.7 -19.91,11.42 -21.31,2.18 -42.88,2.24 -62.21,-9.88 C 0.83,186.9 -3.01,173.94 2.76,166 c 3.8,-5.24 9.66,-9.27 15.25,-12.78 5.43,-3.4 11.89,-5.08 17.55,-8.17 6.68,-3.65 10.53,-9.33 9.68,-17.48 -0.19,-1.84 -0.03,-3.72 -0.03,-5.58 0,-15.28 -1.04,-17.04 -15.48,-25.52 -2.73,9.83 -5.55,19.5 -8.08,29.25 -2.4,9.22 -8.03,11.19 -18.37,6.23 4.9,-11.83 10.45,-23.44 14.47,-35.56 3.12,-9.42 5.89,-9.68 -6.29,-15.23 C 10.07,80.53 8.78,79.7 7.49,79 8.11,74.16 8.69,69.53 9.34,64.43 14.77,68.6 20.19,72.75 27.4,78.29 32.64,64 37.64,51.07 42.06,37.95 44.05,32.05 41.43,29.36 35.59,31.59 26.39,35.1 17.59,39.7 9.47,43.45 13.81,34.8 21.72,26.65 32.87,24.35 42.51,22.36 45.93,18.58 43.29,8.13 29.43,11.58 15.56,14.85 5.45,26.9 2.75,16.89 2.43,16.34 15.73,8.67 22.82,4.58 31.14,2.58 39.06,0.13 c 1.81,-0.56 4.23,0.86 6.36,1.4 0.81,0.21 1.64,0.86 2.38,0.74 18.09,-2.93 22.9,-1.42 39.49,8.18 6.42,3.71 8.8,7.97 8.36,15.31 C 89.14,21.56 83.4,17.07 77,13.98 70.94,11.05 64.19,9.6 56.65,7.14 c 0,5.68 0,10 0,14.94 12.07,-0.53 21.62,3.97 30.35,12.24 8.3,7.87 8.67,20.01 -3.2,27.91 -2.15,1.43 -4.58,2.54 -7.02,3.43 -5.14,1.86 -5.5,4.67 -2.11,8.43 2.76,-1.52 5.57,-2.92 8.23,-4.56 2.62,-1.62 5.09,-3.48 7.69,-5.28 0.78,2.61 1.55,4.76 2.05,6.98 1.15,5.15 0.48,9.34 -5.68,10.67 -7.14,1.54 -7.24,4.98 -4.18,11.27 6.01,12.33 10.85,25.24 16.21,37.99 -7.35,3.71 -11.88,2.38 -15.29,-5.43 -2.3,-5.28 -4.53,-10.6 -6.92,-15.84 -2.27,-5 -4.71,-9.93 -7.49,-15.77 -3.82,2.56 -8.1,4.88 -11.63,8.06 -1.49,1.34 -1.83,4.47 -1.93,6.82 -0.39,9.45 -0.59,18.9 -0.64,28.36 -0.05,9.34 -6.29,12.89 -13.62,16.05 -7.78,3.36 -16.01,6.39 -22.69,11.4 -8.11,6.08 -7.47,16.69 1.37,20.72 17.11,7.79 35.19,12.13 53.35,3.29 3.1,-1.51 6.28,-6.91 6.04,-10.25 -0.28,-3.81 -3.57,-8.65 -6.95,-10.75 -9.16,-5.69 -18.96,-4.27 -28.33,0.39 -6.74,3.36 -6.92,8.68 -0.48,12.92 1.67,1.1 3.55,1.9 5.33,2.84 -0.08,0.48 -0.19,0.96 -0.29,1.45 z M 48.35,92.87 C 52.12,89.85 55.1,86.69 58.72,84.75 63.95,81.94 63,78.67 60.92,74.5 57.28,67.2 53.91,59.77 50.11,51.74 c -4.82,9.64 -9.43,18.61 -13.72,27.75 -0.57,1.22 -0.04,3.88 0.96,4.79 3.41,3.1 7.26,5.73 11,8.59 z M 57.7,30.56 c -1.5,6.39 4.66,23.88 9.41,27.07 0.79,0.54 2.24,1.28 2.69,0.96 3.02,-2.16 7.14,-4.06 8.38,-7.09 1.18,-2.89 0.31,-7.7 -1.45,-10.52 C 72.48,34.19 65.35,31.67 57.7,30.56 Z"
   id="path4"
   inkscape:connector-curvature="0"
   style="fill:#000000;fill-opacity:1" />
	</g>
</g>
</svg>