<?xml version="1.0" encoding="UTF-8" standalone="no"?>
<!-- Generator: Adobe Illustrator 24.1.0, SVG Export Plug-In  -->

<svg
   xmlns:dc="http://purl.org/dc/elements/1.1/"
   xmlns:cc="http://creativecommons.org/ns#"
   xmlns:rdf="http://www.w3.org/1999/02/22-rdf-syntax-ns#"
   xmlns:svg="http://www.w3.org/2000/svg"
   xmlns="http://www.w3.org/2000/svg"
   xmlns:sodipodi="http://sodipodi.sourceforge.net/DTD/sodipodi-0.dtd"
   xmlns:inkscape="http://www.inkscape.org/namespaces/inkscape"
   version="1.1"
   x="0px"
   y="0px"
   width="236"
   height="236"
   viewBox="0 0 236.00001 236"
   xml:space="preserve"
   id="svg10"
   sodipodi:docname="sylvaneth.svg"
   inkscape:version="0.92.3 (2405546, 2018-03-11)"><metadata
   id="metadata14"><rdf:RDF><cc:Work
       rdf:about=""><dc:format>image/svg+xml</dc:format><dc:type
         rdf:resource="http://purl.org/dc/dcmitype/StillImage" /><dc:title /></cc:Work></rdf:RDF></metadata><sodipodi:namedview
   pagecolor="#ffffff"
   bordercolor="#666666"
   borderopacity="1"
   objecttolerance="10"
   gridtolerance="10"
   guidetolerance="10"
   inkscape:pageopacity="0"
   inkscape:pageshadow="2"
   inkscape:window-width="1920"
   inkscape:window-height="1017"
   id="namedview12"
   showgrid="false"
   inkscape:zoom="1"
   inkscape:cx="-216.495"
   inkscape:cy="118"
   inkscape:window-x="-8"
   inkscape:window-y="-8"
   inkscape:window-maximized="1"
   inkscape:current-layer="svg10" />
<defs
   id="defs2">
</defs>
<g
   id="g8"
   transform="translate(26.950274,0.02)"
   style="fill:#000000;fill-opacity:1">
	<g
   id="g6"
   style="fill:#000000;fill-opacity:1">
		<path
   d="m 89.79,0 c 5.31,4.74 6.46,7.56 4.37,10.76 4.85,4.95 0.93,11.2 2.22,16.74 4.86,-2.78 9.48,-5.47 14.17,-8.02 0.47,-0.25 1.42,0.39 2.74,0.8 -8.3,16.22 -12.05,33.23 -10.91,51.46 0.88,-1.89 1.85,-3.74 2.61,-5.68 3.81,-9.71 9.95,-17.96 16.79,-25.61 5,-5.58 10.62,-10.64 16.26,-15.59 1.4,-1.23 3.96,-1.14 5.98,-1.66 -0.64,1.87 -0.82,4.11 -1.98,5.56 -7.25,9.01 -12.66,19.03 -17.43,29.5 -1.7,3.73 -4.83,6.83 -6.38,10.6 -4.54,11.01 -7.39,22.25 -6.22,34.52 1.13,11.76 2.91,23.25 7.32,34.21 2.92,7.26 7.23,13.63 13.52,18.48 8.67,6.68 24.1,3.14 30.6,-6.93 4.2,-6.5 3.88,-13.73 3.47,-20.92 -0.65,-11.58 -3.87,-22.24 -13.52,-29.58 -6.96,-5.3 -18.66,-4.93 -21.84,7.38 -2.04,7.89 -0.81,15.31 1.91,22.58 0.99,2.64 3.03,5.04 5.08,7.07 2.25,2.23 4.88,1.79 7.03,-0.58 3.59,-3.95 4.16,-11.51 1.42,-16.16 -1.41,-2.4 -3.04,-1.21 -4.81,-0.75 -1.28,0.33 -2.68,0.19 -4.02,0.27 0.17,-1.42 -0.07,-3.07 0.58,-4.21 1.52,-2.65 3.35,-4.95 7.03,-5.11 4.4,-0.2 7.68,1.55 9.66,5.14 3.68,6.67 4.82,23.15 -3.27,30.3 -3.68,3.26 -12.27,4.87 -17.31,2.28 -7.17,-3.69 -12.56,-9.13 -14.6,-17.11 -2.68,-10.44 -4.53,-21.14 0.81,-31.21 3.23,-6.1 7.65,-11.78 15.34,-12.77 7.74,-1 15.49,-2.75 23.03,1.55 15.09,8.61 23.33,21.01 22.53,38.79 -0.28,6.11 -0.28,12.24 -0.82,18.32 -1.81,20.37 -18.74,32.3 -37.18,31.3 -7.14,-0.38 -13.08,-4.15 -19.03,-7.7 -0.68,-0.41 -1.39,-0.78 -2.12,-1.11 -0.18,-0.08 -0.47,0.1 -1.31,0.32 2.07,4.79 3.66,9.74 6.22,14.13 5.08,8.73 10.71,17.14 16.04,25.73 0.63,1.02 0.73,2.36 1.07,3.55 -1.48,-0.07 -3.44,0.44 -4.37,-0.31 -5.49,-4.43 -11.46,-8.56 -15.89,-13.93 -6.4,-7.74 -11.77,-16.35 -17.28,-24.79 -1.85,-2.83 -2.76,-6.27 -4.62,-9.47 0,4.61 -0.31,9.25 0.09,13.83 0.4,4.59 1.39,9.14 2.32,13.67 0.96,4.67 1.82,9.41 3.35,13.91 1.46,4.31 3.71,8.35 5.83,12.97 -7.96,1.07 -11.13,-5.78 -17.5,-8.82 0,1.68 0.07,2.87 -0.01,4.05 -0.41,6.06 -0.42,12.21 -1.5,18.15 -0.41,2.26 -3.31,4.07 -5.07,6.08 -1.82,-1.82 -4.16,-3.34 -5.35,-5.5 -3.46,-6.28 -2.43,-13.19 -1.94,-19.96 0.06,-0.81 0.17,-1.61 0.38,-3.6 -1.9,1.41 -2.86,2.17 -3.86,2.86 -3.18,2.18 -6.31,4.47 -9.63,6.4 -0.88,0.51 -2.42,-0.1 -3.65,-0.2 0.18,-1.12 0.06,-2.42 0.59,-3.33 1.48,-2.53 3.12,-4.98 4.89,-7.32 5.52,-7.3 6.59,-15.88 7.3,-24.59 0.41,-5.04 0.91,-10.07 1.3,-15.11 0.09,-1.23 -0.1,-2.47 -0.21,-4.89 -3.27,6.52 -5.71,12.07 -8.72,17.28 -7.2,12.45 -15.92,23.64 -27.95,31.86 -0.77,0.52 -2.03,0.33 -3.06,0.46 0.13,-1.14 -0.1,-2.5 0.44,-3.4 6.01,-10.06 12.18,-20.02 18.18,-30.09 1.33,-2.23 2.12,-4.79 3.16,-7.2 -0.25,-0.27 -0.5,-0.53 -0.74,-0.8 -1.19,0.59 -2.41,1.12 -3.55,1.79 -12.1,7.09 -24.89,7.33 -37.33,2.03 C 10.64,168.5 3.36,160.84 1.92,149.73 0.64,139.79 -0.28,129.64 0.21,119.65 0.93,104.68 14.38,88.49 29.1,85.34 c 9.33,-2 18.6,-1.16 26.55,6.76 9.97,9.93 10.47,20.68 7.31,33.27 -1.42,5.65 -4.03,10.24 -6.81,15.08 -5.23,9.11 -23.31,10.73 -29.45,-0.65 -2.4,-4.44 -1.9,-10.55 -2.28,-15.93 -0.15,-2.17 0.74,-4.46 1.36,-6.64 1.7,-5.99 9.19,-9.51 14.92,-7.09 2.78,1.18 3.75,3.28 3.29,7.6 -3.55,-2.08 -6.85,-2.89 -9.47,1.38 -2.22,3.61 -1.05,13.5 2.19,16.26 3.37,2.86 6.99,2.71 9.84,-0.66 4.74,-5.59 8.18,-25.26 1.9,-33.46 -4.71,-6.16 -14.09,-6.7 -19.72,-2.19 -7.54,6.03 -11.84,14.22 -13.08,23.48 -1.37,10.2 -1.46,20.52 5.33,29.54 7.32,9.72 23.35,10.66 31.22,1.37 7.67,-9.05 12.56,-19.37 15.59,-31.04 C 71.18,109.36 71.31,96.48 68.81,83.6 67.48,76.78 64.26,70.26 61.35,63.85 55.62,51.21 49.19,38.93 40.59,27.92 c -0.86,-1.1 -1.46,-2.41 -2.18,-3.62 0.21,-0.33 0.43,-0.67 0.64,-1 1.31,0.46 2.82,0.64 3.9,1.41 7.78,5.52 14.85,11.91 19.91,20.01 5.33,8.53 9.92,17.52 14.83,26.32 0.26,0.46 0.47,0.95 1.32,1.17 C 79.26,62.94 79.7,53.69 76.72,45.1 73.67,36.6 69.2,28.6 65.18,19.92 c 7.33,-0.77 11.1,6.03 17.4,8.81 -0.17,-1.42 -0.3,-2.24 -0.36,-3.06 C 81.57,16.34 80.46,6.9 88.98,0 c 0.27,0 0.54,0 0.81,0 z"
   id="path4"
   inkscape:connector-curvature="0"
   style="fill:#000000;fill-opacity:1" />
	</g>
</g>
</svg>