<?xml version="1.0" encoding="UTF-8" standalone="no"?>
<!-- Created with Inkscape (http://www.inkscape.org/) -->

<svg
   xmlns:dc="http://purl.org/dc/elements/1.1/"
   xmlns:cc="http://creativecommons.org/ns#"
   xmlns:rdf="http://www.w3.org/1999/02/22-rdf-syntax-ns#"
   xmlns:svg="http://www.w3.org/2000/svg"
   xmlns="http://www.w3.org/2000/svg"
   xmlns:sodipodi="http://sodipodi.sourceforge.net/DTD/sodipodi-0.dtd"
   xmlns:inkscape="http://www.inkscape.org/namespaces/inkscape"
   width="215"
   height="215"
   viewBox="0 0 56.885415 56.885418"
   version="1.1"
   id="svg8"
   inkscape:version="0.92.3 (2405546, 2018-03-11)"
   sodipodi:docname="dawi_zharr.svg">
  <defs
     id="defs2" />
  <sodipodi:namedview
     id="base"
     pagecolor="#ffffff"
     bordercolor="#666666"
     borderopacity="1.0"
     inkscape:pageopacity="0.0"
     inkscape:pageshadow="2"
     inkscape:zoom="2.8"
     inkscape:cx="138.88038"
     inkscape:cy="116.72311"
     inkscape:document-units="px"
     inkscape:current-layer="layer1"
     showgrid="false"
     units="px"
     inkscape:window-width="1920"
     inkscape:window-height="1017"
     inkscape:window-x="-8"
     inkscape:window-y="-8"
     inkscape:window-maximized="1" />
  <metadata
     id="metadata5">
    <rdf:RDF>
      <cc:Work
         rdf:about="">
        <dc:format>image/svg+xml</dc:format>
        <dc:type
           rdf:resource="http://purl.org/dc/dcmitype/StillImage" />
        <dc:title />
      </cc:Work>
    </rdf:RDF>
  </metadata>
  <g
     inkscape:label="Layer 1"
     inkscape:groupmode="layer"
     id="layer1"
     transform="translate(0,-240.11458)">
    <path
       style="opacity:1;fill:#ffffff;fill-opacity:1;fill-rule:nonzero;stroke:none;stroke-width:7.73620081;stroke-linecap:butt;stroke-linejoin:miter;stroke-miterlimit:4;stroke-dasharray:none;stroke-dashoffset:0;stroke-opacity:1;paint-order:markers fill stroke"
       d="M 35.015625 0 L 35.300781 0.78710938 C 33.96411 2.2770779 36.416428 4.7643053 37.416016 6.640625 L 39.667969 12.867188 C 40.995975 18.006688 41.540959 23.205 44.642578 27.857422 C 45.150526 28.619346 45.723403 29.828456 46.333984 31.298828 L 49.552734 40.197266 C 52.102132 47.800259 54.772003 56.411328 56.601562 59.691406 L 57.650391 62.589844 L 56.947266 65.763672 C 55.568641 69.211932 53.572266 73.574765 53.572266 75.357422 C 53.572266 76.808735 52.85929 82.371378 51.853516 88.740234 L 46.705078 111.96094 C 44.358158 116.74265 43.845655 121.40253 42.142578 128.21484 C 41.886603 129.23874 42.098015 130.3992 42.361328 131.55859 L 40.826172 138.48047 C 36.432774 145.17537 34.285156 160.61856 34.285156 164.64258 C 34.285156 165.95211 31.740554 179.15904 30.150391 186.63672 L 29.248047 190.70117 C 29.092849 191.32934 28.978009 191.73488 28.927734 191.78516 C 26.061308 194.65161 26.303778 200.98167 26.632812 202.50391 L 26.402344 203.54102 L 31.044922 198.85547 C 38.655063 191.98828 48.013934 184.61214 53.113281 176.58398 L 57.419922 172.23828 C 57.859287 172.09482 58.266235 171.88678 58.572266 171.42773 C 58.728502 171.19338 58.924937 170.84103 59.103516 170.53711 L 64.248047 165.3457 L 61.480469 166.78906 C 61.86445 166.31043 62.260612 165.91993 62.662109 165.66602 C 61.607407 165.89806 60.168943 166.2588 59.642578 166.78516 C 57.422835 169.00491 56.785156 169.45944 56.785156 166.78516 C 56.785156 166.52818 58.055626 159.74929 59.650391 151.98242 L 63.128906 136.29492 C 64.183543 132.03537 65.133467 128.79623 65.714844 128.21484 C 67.389016 126.54067 67.369742 120.98692 67.650391 115.9082 L 69.576172 107.2207 C 69.599052 107.19609 69.619134 107.16602 69.642578 107.14258 C 72.018683 104.76648 73.044564 95.902133 73.957031 87.464844 L 77.689453 70.628906 L 83.013672 70.628906 C 83.378433 70.676556 83.706705 70.714844 83.927734 70.714844 C 85.028303 70.714844 96.402789 70.664954 96.427734 70.714844 C 96.470174 70.799724 96.511328 70.948709 96.548828 71.144531 L 96.548828 141.91406 C 96.481508 147.0844 96.427734 151.56571 96.427734 153.92773 C 96.427734 160.93115 95.679851 165.92994 96.548828 171.62305 L 96.548828 175.51758 C 96.442456 175.50299 96.310977 175.4575 96.183594 175.41797 L 89.169922 169.51953 L 89.855469 171.42773 C 88.617877 170.52693 87.891842 170.03443 89.285156 171.42773 C 89.607914 171.7505 90.381326 173.35862 91.355469 175.61133 L 99.253906 197.61719 C 99.260739 197.68933 99.285156 197.80053 99.285156 197.85742 C 99.285156 203.14846 101.97672 206.81278 103.92773 210.71484 C 103.99224 210.84385 104.24614 211.54106 104.43945 212.06445 L 105.49219 215 L 105.55469 214.82422 C 105.62587 214.95066 105.68584 215.02903 105.71484 215 C 106.92978 213.78503 116.77946 186.08558 118.21484 183.21484 C 118.86241 181.91969 118.45672 180.08223 118.58594 178.5293 L 119.58594 175.74414 C 120.52154 173.72788 121.0214 172.30259 121.13867 171.41602 L 121.82031 169.51953 L 120.9707 170.23438 C 119.88879 168.9895 115.01573 173.50382 114.44141 174.12695 L 114.44141 152.70312 C 114.5572 151.22975 114.64258 149.6568 114.64258 147.85742 C 114.64258 143.15886 114.5383 138.40093 114.44141 134.02148 L 114.44141 97.648438 C 114.65955 94.260466 114.96954 89.951205 114.44141 86.519531 L 114.44141 74.609375 C 114.62409 74.5291 114.57788 74.274841 114.44141 73.947266 L 114.44141 70.943359 C 115.16038 70.841858 116.15724 70.73594 117.50781 70.628906 L 136.04883 70.628906 C 136.56066 70.750385 136.96349 70.893178 137.14258 71.072266 C 137.26767 71.197354 137.38144 71.337094 137.49805 71.472656 L 141.00195 87.277344 C 141.35927 94.711075 141.58925 102.43409 145.21094 106.26172 L 145.84961 109.14844 C 145.68079 110.8708 145.17677 112.85158 145.71484 113.92773 C 152.19072 126.8795 149.97178 145.66034 156.42773 158.57227 C 157.48558 160.68789 156.95113 164.45113 157.85742 165.35742 C 158.03783 165.53783 158.27871 165.91868 158.53711 166.38086 L 159.29688 169.80664 L 157.81641 169.0332 C 157.59601 168.88118 157.16945 168.59914 157.14258 168.57227 C 156.04591 167.4756 152.71298 166.10466 151.36328 165.66406 L 150.75195 165.3457 L 150.91602 165.51172 C 150.63279 165.44045 150.60778 165.4826 151.07227 165.71484 C 151.11056 165.73399 151.1458 165.76076 151.18359 165.78125 L 153.64062 168.26172 C 155.05619 170.29019 156.2448 172.76594 157.85742 173.57227 C 160.10045 174.69376 176.25296 191.20998 184.3418 199.24609 C 184.34505 199.24933 184.34636 199.25068 184.34961 199.25391 L 188.59766 203.54102 L 188.54492 203.30273 C 188.77214 203.49804 188.9049 203.59509 188.92773 203.57227 C 188.9791 203.5209 187.42609 197.48433 185.96875 191.68164 L 183.55273 180.78906 C 183.23235 170.53535 175.42009 138.48425 171.35156 125.75195 L 164.31836 94.021484 C 163.96745 92.060009 163.56512 90.199976 163.0918 88.494141 L 160.60156 77.257812 C 160.58759 75.815889 160.49296 74.336308 160 72.857422 C 158.2107 67.489535 158.3808 61.9088 159.61914 56.314453 L 165.47656 40.117188 C 170.35659 29.500279 176.07227 19.562307 176.07227 11.785156 C 176.07227 9.6562996 181.04508 1.402499 180 0.35742188 C 179.96914 0.32655912 179.92034 0.32244402 179.86328 0.33203125 L 179.98438 0 L 179.58594 0.47265625 C 178.35837 1.2569418 174.91427 5.5484501 172.55469 8.8183594 L 160.12891 23.5625 C 156.46011 27.554029 152.94385 31.341317 152.14258 32.142578 C 151.53938 32.745791 142.73359 41.675412 142.14258 42.857422 C 141.60799 43.926603 141.32131 45.083401 141.06445 46.185547 L 137.0957 50.896484 L 93.298828 50.896484 C 86.091819 50.677786 80.025217 50.561423 77.902344 50.896484 L 71.078125 42.796875 C 69.296909 39.600201 67.714666 36.284984 65.357422 33.927734 C 56.646892 25.217208 52.323326 18.0382 45.357422 11.072266 C 44.141679 9.8565316 38.729604 3.9761417 36.431641 1.6816406 L 35.015625 0 z M 62.662109 165.66602 C 63.581683 165.4637 64.221287 165.35742 63.572266 165.35742 C 63.2681 165.35742 62.962989 165.47574 62.662109 165.66602 z "
       id="path876"
       transform="matrix(0.26458333,0,0,0.26458333,0,240.11458)" />
  </g>
</svg>
