<?xml version="1.0" encoding="UTF-8" standalone="no"?>
<!-- Generator: Adobe Illustrator 24.1.0, SVG Export Plug-In  -->

<svg
   xmlns:dc="http://purl.org/dc/elements/1.1/"
   xmlns:cc="http://creativecommons.org/ns#"
   xmlns:rdf="http://www.w3.org/1999/02/22-rdf-syntax-ns#"
   xmlns:svg="http://www.w3.org/2000/svg"
   xmlns="http://www.w3.org/2000/svg"
   xmlns:sodipodi="http://sodipodi.sourceforge.net/DTD/sodipodi-0.dtd"
   xmlns:inkscape="http://www.inkscape.org/namespaces/inkscape"
   version="1.1"
   x="0px"
   y="0px"
   width="217.939"
   height="217.939"
   viewBox="0 0 217.93899 217.939"
   xml:space="preserve"
   id="svg9"
   sodipodi:docname="khorne_daemons.svg"
   inkscape:version="0.92.3 (2405546, 2018-03-11)"><metadata
   id="metadata13"><rdf:RDF><cc:Work
       rdf:about=""><dc:format>image/svg+xml</dc:format><dc:type
         rdf:resource="http://purl.org/dc/dcmitype/StillImage" /><dc:title></dc:title></cc:Work></rdf:RDF></metadata><sodipodi:namedview
   pagecolor="#ffffff"
   bordercolor="#666666"
   borderopacity="1"
   objecttolerance="10"
   gridtolerance="10"
   guidetolerance="10"
   inkscape:pageopacity="0"
   inkscape:pageshadow="2"
   inkscape:window-width="1920"
   inkscape:window-height="1017"
   id="namedview11"
   showgrid="false"
   inkscape:zoom="1.0829662"
   inkscape:cx="-7.7320296"
   inkscape:cy="108.96"
   inkscape:window-x="-8"
   inkscape:window-y="-8"
   inkscape:window-maximized="1"
   inkscape:current-layer="svg9" />
<defs
   id="defs2">
</defs>
<g
   id="zHsEFn.tif_1_"
   transform="translate(1.7185742,0.00653398)">
	<g
   id="g6">
		<path
   d="m 214.46,9.81 c 0,3.38 0,6.76 0,10.14 -0.23,0.46 -0.64,0.92 -0.65,1.39 -0.05,2.54 -0.05,5.09 0.03,7.63 0.03,0.73 0.4,1.46 0.62,2.18 0,2.05 0,4.09 0,6.14 -0.52,0.82 -1.18,1.58 -1.52,2.46 -0.49,1.28 -1.31,1.77 -2.62,1.76 -2.13,-0.02 -4.26,-0.02 -6.38,0.03 -0.97,0.02 -2.23,0.58 -2.84,0.15 -1.56,-1.09 -3.14,-0.15 -4.68,-0.35 -1.76,-0.23 -3.64,0.74 -5.55,0.23 -0.23,-0.06 -0.55,0.01 -0.77,0.14 -1.42,0.78 -2.77,1.05 -4.04,-0.3 -0.17,-0.18 -0.55,-0.22 -0.84,-0.21 -2.2,0.02 -4.39,0.08 -6.59,0.11 -2.27,0.03 -4.53,0.03 -6.8,0.05 -2.23,0.02 -3.81,1.05 -5.1,2.87 -1.35,1.9 -2.91,3.65 -4.49,5.37 -4.27,4.69 -8.61,9.32 -12.89,14 -1.41,1.54 -2.74,3.15 -4.22,4.85 0.49,0.19 0.71,0.25 0.89,0.35 1.99,1.11 3.9,1.13 5.93,-0.03 0.5,-0.29 1.94,0.01 2.15,0.43 0.78,1.56 2.08,2.07 3.57,2.19 5.7,0.49 11.42,0.91 17.13,1.31 0.87,0.06 1.76,-0.07 2.64,-0.18 1.26,-0.15 2.52,-0.42 3.78,-0.52 4.38,-0.34 8.84,1.1 13.18,-0.55 0.16,-0.06 0.35,0 0.53,-0.01 3.12,-0.29 6.25,-0.57 9.37,-0.86 0.09,-0.01 0.17,-0.05 0.26,-0.06 1.75,-0.18 3.53,-0.62 5.25,-0.46 1.15,0.11 2.65,0.79 3.21,1.69 0.74,1.19 0.83,2.85 0.97,4.33 0.09,0.98 -0.31,2 -0.32,3.01 -0.07,4.31 -0.1,8.61 -0.06,12.92 0.01,0.53 0.55,1.04 0.85,1.57 0,0.89 0,1.78 0,2.67 -2.77,4.17 -5.56,8.33 -8.29,12.53 -0.5,0.77 -1.05,1.06 -1.95,1.07 -2.98,0.03 -5.95,0.12 -8.92,0.23 -5.85,0.21 -11.69,0.44 -17.54,0.65 -1.18,0.04 -2.36,0.01 -4.01,0.01 0.8,0.97 1.7,1.58 1.85,2.34 0.5,2.55 2.52,3.77 4.16,5.37 0.95,0.93 1.77,1.99 2.67,2.97 0.19,0.21 0.51,0.5 0.73,0.47 1.15,-0.15 1.4,0.58 1.67,1.44 0.16,0.52 0.48,1.04 0.85,1.45 1.1,1.25 2.56,2.08 3.82,3.11 1.79,1.47 3.16,3.47 4.71,5.24 0.47,0.53 0.9,1.1 1.43,1.57 1.08,0.96 2.29,1.79 3.32,2.8 1.12,1.1 2.06,2.39 3.14,3.54 3.14,3.31 6.33,6.57 9.47,9.88 0.31,0.32 0.58,0.84 0.58,1.27 0.06,6.57 0.07,13.13 0.1,19.7 0.02,3.81 -0.03,7.63 0.13,11.43 0.08,1.97 0.66,3.92 0.81,5.9 0.17,2.25 0.1,4.51 0.16,6.77 0.09,3.19 0.25,6.38 0.26,9.57 0,0.64 -0.35,1.52 -0.84,1.89 -2.56,1.91 -5.21,3.7 -7.85,5.48 -0.33,0.22 -0.84,0.24 -1.26,0.22 -3.05,-0.2 -6.09,-0.56 -9.14,-0.62 -3.41,-0.07 -6.84,-0.06 -10.24,0.26 -3.16,0.3 -6.27,1.17 -9.43,1.56 -3.11,0.38 -6.27,0.43 -8.97,2.36 -0.25,0.18 -0.69,0.1 -1.04,0.1 -10.02,-0.03 -20.03,-0.16 -30.02,0.91 -3.5,0.37 -7.09,0.19 -10.61,-0.04 -4.16,-0.26 -8.29,-0.86 -12.44,-1.28 -1.41,-0.14 -2.83,-0.29 -4.24,-0.28 -5.06,0.01 -10.12,0.08 -15.18,0.14 -7.54,0.09 -15.09,0.21 -22.63,0.28 -1.91,0.02 -3.83,0.09 -5.72,-0.12 -3.39,-0.38 -6.74,-1.19 -10.13,-1.38 -4.25,-0.24 -8.52,-0.1 -12.78,0.01 -3.54,0.09 -7.07,0.49 -10.6,0.55 -5.9,0.11 -11.8,0.01 -17.69,0.11 -2.4,0.04 -4.95,-0.44 -7.14,1.59 -1.14,-1.85 -3.12,-2.82 -2.96,-5.57 0.26,-4.37 -0.07,-8.78 -0.24,-13.18 -0.04,-0.99 -0.55,-1.95 -0.63,-2.94 -0.23,-2.86 -0.32,-5.74 -0.51,-8.6 -0.11,-1.72 -0.35,-3.43 -0.43,-5.15 -0.08,-1.64 0.35,-3.42 -0.16,-4.9 -0.91,-2.63 -0.64,-5.26 -0.68,-7.9 -0.01,-1 0.22,-2.01 0.37,-3.02 0.12,-0.82 0.4,-1.64 0.41,-2.46 0.05,-2.74 0.02,-5.48 0.02,-8.17 3.02,-0.81 4.9,-3.15 7.16,-4.87 1.61,-1.23 2.82,-3 4.18,-4.55 2.22,-2.53 4.46,-5.04 6.6,-7.62 2.6,-3.14 5.12,-6.34 7.66,-9.52 2.15,-2.69 4.19,-5.47 6.45,-8.07 1.44,-1.65 3.22,-3.01 4.79,-4.55 1.31,-1.28 2.54,-2.64 3.81,-3.96 -1.66,0.15 -2.34,-0.8 -3.05,-1.96 -0.8,-1.31 -2.22,-1.7 -3.71,-1.74 -0.75,-0.02 -1.51,0.03 -2.26,0.03 -6.93,0 -13.86,-0.01 -20.79,-0.02 -2.4,0 -4.8,0.01 -7.2,-0.03 -0.62,-0.01 -1.4,0.12 -1.53,-0.87 C 2.8,106.41 2.48,105.14 2.45,103.87 2.31,98.77 2.22,93.66 2.18,88.55 2.14,82.57 2.17,76.59 2.17,70.37 c 0.27,-0.06 0.85,-0.3 1.44,-0.32 2.17,-0.07 4.34,-0.07 6.52,-0.08 2.61,0 5.22,-0.02 7.83,0.03 2.25,0.04 4.5,0.24 6.76,0.24 2.34,0 4.67,-0.17 7.01,-0.26 5.37,-0.21 10.73,0.52 16.1,0.02 1.88,-0.18 3.81,0.05 5.71,0.15 1.96,0.1 3.91,0.3 5.86,0.4 0.56,0.03 1.13,-0.14 1.69,-0.22 0.34,-0.05 0.68,-0.17 1.01,-0.15 1.14,0.08 2.29,0.32 3.42,0.28 2.1,-0.07 4.19,-0.28 6.28,-0.44 0.24,-0.02 0.48,-0.1 1.09,-0.24 -8.46,-9.73 -16.74,-19.27 -25.04,-28.82 -0.38,0.24 -0.69,0.44 -1.05,0.67 -1.09,-1.68 -2.54,-2.86 -4.46,-2.92 -2.42,-0.06 -4.87,-0.38 -7.26,0.52 -0.85,0.32 -1.83,0.38 -2.76,0.39 -3.2,0.05 -6.39,0.11 -9.59,0.01 -3.46,-0.1 -7,0.77 -10.38,-0.73 -0.34,-0.15 -0.79,-0.06 -1.19,-0.06 -2.09,0 -4.18,0.04 -6.26,0 C 3.05,38.81 2.44,38.19 2.43,36.42 2.42,33.76 2.49,31.09 2.44,28.43 2.27,21.74 2.86,15.03 1.83,8.36 1.63,7.11 1.6,5.83 1.51,4.75 3.62,3.55 5.67,3.41 7.78,3.56 8.21,3.59 8.67,3.5 9.09,3.39 11.05,2.9 13.01,2.37 14.97,1.89 15.26,1.82 15.59,1.87 15.9,1.86 c 3.51,-0.02 7.02,0.06 10.52,-0.07 2.72,-0.11 5.42,-0.67 8.13,-0.7 9.33,-0.1 18.66,-0.06 27.98,-0.02 0.47,0 1.07,0.36 1.39,0.74 1.05,1.24 1.89,2.67 3.01,3.84 2.52,2.65 5.14,5.22 7.77,7.76 0.85,0.82 1.82,1.84 2.87,2.03 1.22,0.23 2.09,1.03 2.28,1.74 0.5,1.91 2.05,2.79 3.2,4.08 1.16,1.29 2.89,2.04 3.51,3.86 0.17,0.49 0.76,1.14 1.19,1.17 1.54,0.09 2.08,1.37 2.96,2.22 0.69,0.67 1.19,1.52 1.84,2.24 1.56,1.73 3.15,3.44 4.74,5.14 1.12,1.19 2.24,2.39 3.43,3.51 0.61,0.58 1.51,0.89 2.05,1.51 1.69,1.95 2.11,2.1 4.38,1.02 0.13,1.47 0.69,2.23 2.19,1.25 0.09,-0.06 0.26,-0.01 0.39,0 3.11,0.2 5.02,-0.98 6.49,-3.74 0.94,-1.76 2.04,-3.42 4.31,-3.79 0.6,-0.1 1.19,-0.59 1.66,-1.04 2.53,-2.43 4.99,-4.93 7.54,-7.34 1.64,-1.55 3.49,-2.89 5.1,-4.48 2.39,-2.36 4.28,-5.2 7.14,-7.12 1.08,-0.73 1.96,-1.78 2.85,-2.76 0.77,-0.85 1.45,-1.79 2.13,-2.73 1.82,-2.5 3.76,-4.93 5.38,-7.55 1.73,-2.81 2.47,-3.21 5.52,-1.97 0.21,0.08 0.39,0.23 0.61,0.27 0.98,0.22 1.96,0.54 2.95,0.6 4.72,0.27 9.44,-0.07 14.19,0.6 5.13,0.73 10.41,1.1 15.57,-0.31 0.34,-0.09 0.71,-0.07 1.06,-0.07 5.72,0 11.44,0 17.36,0 0.96,1.64 2.01,3.49 3.1,5.31 0.55,0.95 1.17,1.84 1.77,2.75 z M 62.72,153.41 c -0.8,1 -1.5,1.91 -2.22,2.79 -0.8,0.97 -1.06,2.05 -0.62,3.24 0.47,1.24 1.43,1.87 2.75,2 1.9,0.19 3.74,0.2 5.66,-0.26 1.49,-0.36 3.15,0.03 4.74,0.04 5.64,0.04 11.27,0.11 16.91,0.08 3.59,-0.02 7.24,0.14 10.76,-0.4 3.87,-0.59 7.66,-0.83 11.47,0.02 5.31,1.18 10.69,0.67 16.04,0.68 1.93,0.01 3.86,-0.5 5.79,-0.54 6.39,-0.15 12.78,-0.19 19.17,-0.3 1.86,-0.03 3.26,-0.87 3.94,-2.65 0.67,-1.77 0.19,-3.3 -1.17,-4.6 -0.26,-0.25 -0.53,-0.64 -0.54,-0.97 -0.03,-2.16 -1.05,-3.67 -2.81,-4.84 -1.28,-0.85 -2.72,-1.65 -3.64,-2.82 -2.05,-2.59 -3.93,-5.32 -5.67,-8.13 -2.3,-3.72 -4.97,-7.06 -8.31,-9.91 -3.3,-2.82 -6.44,-5.83 -9.62,-8.79 -1.32,-1.23 -2.74,-2.42 -3.75,-3.88 -2.28,-3.27 -4.18,-6.8 -7.02,-9.67 -2.36,-2.38 -4.62,-3.21 -7.31,-1.42 -1.32,0.88 -2.44,1.71 -2.83,3.32 -0.11,0.45 -0.4,0.9 -0.72,1.26 -1.02,1.14 -2.09,2.25 -3.15,3.36 -4.05,4.21 -8.1,8.42 -12.16,12.62 -2.58,2.68 -5.2,5.32 -7.74,8.05 -0.89,0.95 -1.51,2.16 -2.38,3.13 -0.64,0.72 -1.55,1.2 -2.21,1.9 -1.82,1.94 -3.55,3.96 -5.36,5.91 -0.83,0.9 -1.82,1.65 -2.64,2.56 -1.21,1.34 -2.31,2.78 -3.49,4.14 -1.13,1.3 -2.32,2.56 -3.62,3.98 0.7,0.05 1.16,0.08 1.75,0.1 z"
   id="path4"
   inkscape:connector-curvature="0"
   style="fill:#ffffff" />
	</g>
</g>
</svg>