<?xml version="1.0" encoding="utf-8"?>
<!-- Generator: Adobe Illustrator 24.3.0, SVG Export Plug-In . SVG Version: 6.00 Build 0)  -->
<svg version="1.1" id="Layer_2" xmlns="http://www.w3.org/2000/svg" xmlns:xlink="http://www.w3.org/1999/xlink" x="0px" y="0px"
	 viewBox="0 0 1000 1000" style="enable-background:new 0 0 1000 1000;" xml:space="preserve">
<g>
	<polygon points="642.42,431.89 559.66,431.89 581.94,223.38 403.67,595.83 489.62,595.83 419.59,904.62 	"/>
	<path d="M840.7,418.87c69.72-37.14,135.76-87.18,150.3-137.15c-110.75,48.89-218.33,93.07-304.35,105.21
		c-11.27,7.51-15.03,20.67-9.39,28.18c0,0,45.09,3.76,26.3,84.54c-7.51,48.85-78.91,72.06-78.91,72.06
		c-9.39,149.63-46.97,192.84-31.94,205.99c15.03,5.64,24.42,3.03,31.94-6s13.15-54.12,13.15-54.12c15.71,17.98,30.34,27,67.63,35.7
		c-13.59-15.56-18.74-29.89-16.91-46.97c19.12,11.09,46.93,5.15,75.15,5.64c-20.81-19.12-29.42-31.11-30.06-54.48
		c21.23,19.34,61.3,16.04,82.66,11.27c-22.65-20.68-55.16-32.62-60.12-65.76c28.03,16.43,75.31,11.12,110.85,5.64
		c-25.73-17.84-63.88-39.45-65.76-54.48c40.49-0.26,102.63-28.85,124-52.6c-37.33,1.69-91.12,7.69-124-7.51
		c64.97-18.55,137.33-51.78,170.96-92.06C938.13,408.38,870.94,430.82,840.7,418.87z"/>
	<path d="M293.87,499.66c-18.79-80.79,26.3-84.54,26.3-84.54c5.64-7.51,1.88-20.67-9.39-28.18
		c-86.02-12.14-193.6-56.32-304.35-105.21c14.54,49.97,80.58,100,150.3,137.15c-30.24,11.95-97.43-10.49-131.51-16.91
		c33.63,40.27,106,73.51,170.96,92.06c-32.88,15.2-86.67,9.2-124,7.51c21.37,23.76,83.5,52.35,124,52.6
		c-1.88,15.03-40.03,36.64-65.76,54.48c35.53,5.48,82.82,10.79,110.85-5.64c-4.96,33.13-37.47,45.07-60.12,65.76
		c21.37,4.77,61.43,8.06,82.66-11.27c-0.64,23.37-9.25,35.36-30.06,54.48c28.22-0.49,56.03,5.45,75.15-5.64
		c1.83,17.08-3.32,31.41-16.91,46.97c37.29-8.69,51.92-17.72,67.63-35.7c0,0,5.64,45.09,13.15,54.12s16.91,11.64,31.94,6
		c15.03-13.15-22.54-56.36-31.94-205.99C372.77,571.72,301.38,548.51,293.87,499.66z"/>
</g>
</svg>
