<?xml version="1.0" encoding="UTF-8" standalone="no"?>
<!-- Generator: Adobe Illustrator 23.0.4, SVG Export Plug-In  -->

<svg
   xmlns:dc="http://purl.org/dc/elements/1.1/"
   xmlns:cc="http://creativecommons.org/ns#"
   xmlns:rdf="http://www.w3.org/1999/02/22-rdf-syntax-ns#"
   xmlns:svg="http://www.w3.org/2000/svg"
   xmlns="http://www.w3.org/2000/svg"
   xmlns:sodipodi="http://sodipodi.sourceforge.net/DTD/sodipodi-0.dtd"
   xmlns:inkscape="http://www.inkscape.org/namespaces/inkscape"
   version="1.1"
   x="0px"
   y="0px"
   width="204.813"
   height="204.813"
   viewBox="0 0 204.81301 204.81301"
   xml:space="preserve"
   id="svg15"
   sodipodi:docname="ironjawz.svg"
   inkscape:version="0.92.3 (2405546, 2018-03-11)"><metadata
   id="metadata19"><rdf:RDF><cc:Work
       rdf:about=""><dc:format>image/svg+xml</dc:format><dc:type
         rdf:resource="http://purl.org/dc/dcmitype/StillImage" /><dc:title /></cc:Work></rdf:RDF></metadata><sodipodi:namedview
   pagecolor="#ffffff"
   bordercolor="#666666"
   borderopacity="1"
   objecttolerance="10"
   gridtolerance="10"
   guidetolerance="10"
   inkscape:pageopacity="0"
   inkscape:pageshadow="2"
   inkscape:window-width="1920"
   inkscape:window-height="1017"
   id="namedview17"
   showgrid="false"
   inkscape:zoom="1.1522875"
   inkscape:cx="-327.67935"
   inkscape:cy="102.40493"
   inkscape:window-x="-8"
   inkscape:window-y="-8"
   inkscape:window-maximized="1"
   inkscape:current-layer="svg15"
   fit-margin-top="0"
   fit-margin-left="0"
   fit-margin-right="0"
   fit-margin-bottom="0" />
<defs
   id="defs2">
</defs>
<g
   id="uIW29j_2_"
   transform="translate(2.2043289,0.0029297)"
   style="fill:#000000;fill-opacity:1">
    <g
   id="g12"
   style="fill:#000000;fill-opacity:1">
        <path
   d="m 114.48,204.81 c -0.1,-0.15 -0.17,-0.36 -0.31,-0.43 -0.25,-0.12 -0.56,-0.1 -0.8,-0.22 -3.7,-1.94 -7.4,-3.87 -11.08,-5.85 -2.41,-1.3 -4.72,-2.83 -7.19,-4.01 -3.06,-1.46 -6.27,-2.6 -9.36,-4 -1.62,-0.73 -3.08,-1.81 -4.68,-2.6 -1.53,-0.75 -3.16,-1.31 -4.74,-1.96 -1.07,-0.44 -2.14,-0.88 -3.21,-1.33 -2.1,-0.89 -4,0.25 -4.23,2.53 -0.12,1.23 -0.24,2.47 -0.45,3.68 -0.24,1.35 -0.96,1.73 -2.23,1.18 -6.11,-2.67 -12.17,-5.44 -17.92,-9.1 0.86,-1.34 0.2,-2.52 -0.35,-3.79 -1.06,-2.41 -1.91,-4.91 -3.01,-7.3 -0.78,-1.68 -1.74,-3.3 -2.81,-4.82 -0.36,-0.51 -1.28,-0.8 -1.98,-0.86 -1.47,-0.13 -2.96,-0.02 -4.44,-0.04 -2.48,-0.04 -3.54,-0.99 -3.54,-3.5 0,-4.07 0.19,-8.15 0.24,-12.22 0.1,-7.96 0.18,-15.91 0.2,-23.87 0.01,-4.56 -0.11,-9.11 -0.2,-13.67 -0.02,-1 -0.09,-2.01 -0.33,-2.97 -0.16,-0.64 -0.52,-1.4 -1.03,-1.76 -0.79,-0.55 -0.86,-1.02 -0.44,-1.78 2.21,-3.98 4.31,-8.02 6.63,-11.94 3.11,-5.26 6.31,-10.47 9.62,-15.61 1.37,-2.14 3.09,-4.05 4.69,-6.05 0.5,-0.63 1.29,-1.11 1.98,-0.6 0.46,0.34 0.82,1.22 0.75,1.8 -0.45,3.84 -1.11,7.66 -1.55,11.5 -0.35,3.09 -1.25,6.01 -2.39,8.88 -1.29,3.27 -1.46,6.57 -0.46,9.98 1.64,5.59 3.24,11.19 4.71,16.82 1.59,6.07 2.49,12.27 3.28,18.49 0.18,1.38 1.01,2.14 2.18,2.6 1.04,0.41 1.37,-0.44 1.59,-1.15 0.54,-1.71 0.99,-3.45 1.48,-5.18 0.87,-3.11 1.7,-6.24 2.64,-9.33 0.56,-1.86 1.13,-2.37 2.11,-2.1 1.11,0.3 1.66,0.6 1.51,2.68 -0.21,2.88 0.54,5.48 1.87,8.04 1,1.92 1.46,4.12 2.23,6.17 0.24,0.64 0.63,1.64 1.07,1.7 1.39,0.21 1.95,-0.55 2.21,-2.03 0.33,-1.84 0.78,-3.66 1.27,-5.46 0.19,-0.71 0.63,-1.36 0.83,-1.77 1.63,0.34 3.09,0.55 4.49,0.97 0.56,0.17 1.16,0.7 1.45,1.23 1.54,2.84 2.99,5.74 4.46,8.61 0.15,0.28 0.2,0.67 0.42,0.85 0.5,0.4 1.07,0.96 1.61,0.97 0.48,0 1.15,-0.57 1.4,-1.06 0.8,-1.56 1.49,-3.18 2.15,-4.81 0.44,-1.09 0.93,-1.51 2.31,-1.35 1.86,0.21 3.11,0.89 4.07,2.47 0.52,0.87 1.35,1.57 2.08,2.31 1.92,1.92 3.88,3.79 5.8,5.71 1.24,1.24 1.67,1.13 2.57,-0.37 2.25,-3.74 3.13,-7.83 3.29,-12.12 0.05,-1.25 0.5,-2.26 1.69,-2.81 1.32,-0.61 2.47,-0.33 3.22,0.87 0.76,1.2 1.25,2.6 2.72,3.23 0.24,0.1 0.24,0.66 0.45,0.94 0.45,0.61 0.96,1.17 1.45,1.75 0.52,-0.55 1.26,-1 1.53,-1.65 1.45,-3.5 2.79,-7.05 4.15,-10.59 1.57,-4.1 3.09,-8.22 4.67,-12.32 1.43,-3.72 2.08,-7.61 2.69,-11.52 0.19,-1.21 0.74,-2.36 0.95,-3.57 0.38,-2.15 0.76,-4.32 0.89,-6.5 0.41,-6.95 0.69,-13.9 1.03,-20.85 0.02,-0.4 -0.06,-0.91 0.16,-1.17 0.51,-0.61 1.1,-1.37 1.78,-1.53 0.52,-0.12 1.46,0.45 1.8,0.98 0.72,1.12 1.4,2.05 2.89,2.19 0.43,0.04 1.03,0.7 1.17,1.18 2.08,7.41 4.25,14.81 6.07,22.29 0.78,3.19 1.12,6.57 1.07,9.85 -0.05,3.61 1,6.93 1.71,10.35 0.64,3.05 1.44,6.07 1.87,9.14 0.3,2.16 0.27,4.4 0.08,6.58 -0.1,1.11 -0.64,2.35 -1.36,3.22 -4.13,4.99 -8.53,9.76 -12.54,14.84 -3.51,4.45 -6.96,9.01 -9.79,13.9 -2.11,3.64 -3.52,7.79 -4.64,11.88 -2.45,8.94 -5.95,17.36 -11.13,25.06 -0.37,0.54 -1.2,0.8 -1.86,1.11 -0.81,0.37 -1.66,0.65 -2.49,0.97 -0.21,0.02 -0.45,0.02 -0.69,0.02 z"
   id="path4"
   inkscape:connector-curvature="0"
   style="fill:#000000;fill-opacity:1" />
        <path
   d="m 0,49.29 c 0.21,-0.37 0.48,-0.73 0.62,-1.13 1.69,-4.94 4.68,-9.08 8.1,-12.9 4.34,-4.84 8.81,-9.58 13.3,-14.29 2.55,-2.68 5.35,-2.49 7.64,0.34 0.95,1.18 1.8,1.08 2.28,-0.45 1.16,-3.75 4.06,-5.65 7.41,-6.94 1.32,-0.51 2.9,-0.43 4.36,-0.47 2.42,-0.07 4.85,-0.02 7.37,-0.02 -0.02,0.1 -0.07,0.51 -0.23,0.87 -4.43,9.9 -7.6,20.23 -10.39,30.68 -0.68,2.56 -2.01,3.43 -4.65,3.24 C 30.17,47.8 24.57,46.47 18.87,47.3 14.75,47.89 11,49.36 8.83,53.2 7.48,55.59 6.34,58.12 5.42,60.7 4.97,61.95 5.25,63.46 5.21,64.86 5.2,65.17 5.24,65.5 5.2,65.81 5.07,66.79 5.66,68.18 4.47,68.6 3.1,69.09 1.54,69.1 0.29,67.96 0.21,67.88 0.1,67.83 0,67.77 0,66.97 0,66.17 0,65.37 0.12,65.28 0.34,65.18 0.33,65.09 0.3,62.74 0.24,60.4 0.18,58.06 0.18,58.02 0.06,57.98 0,57.94 0,55.05 0,52.17 0,49.29 Z"
   id="path6"
   inkscape:connector-curvature="0"
   style="fill:#000000;fill-opacity:1" />
        <path
   d="m 75.33,122.53 c -0.7,-1.1 -1.55,-1.96 -1.85,-2.98 -1.22,-4.21 -2.23,-8.49 -3.41,-12.71 -0.97,-3.49 -2.16,-6.92 -3.08,-10.42 -0.45,-1.71 -0.65,-3.53 -0.66,-5.3 -0.01,-1.9 -0.43,-3.54 -1.38,-5.22 -1.82,-3.18 -0.63,-6.69 2.8,-8.45 0.78,-0.4 1.23,-0.81 1.31,-1.62 0.26,-2.86 0.57,-5.72 0.72,-8.59 0.12,-2.34 0.52,-4.59 1.49,-6.74 0.7,-1.55 0.45,-1.84 -1.12,-2.42 -4.68,-1.73 -9.57,-2.5 -14.44,-3.39 -0.62,-0.11 -1.28,0.01 -1.9,-0.08 -1.17,-0.17 -2.41,-0.23 -3.46,-0.68 -2.12,-0.91 -2.42,-1.86 -1.82,-4.08 1.08,-4.01 2.19,-8.01 3.18,-12.04 0.61,-2.47 0.85,-5.05 1.57,-7.49 0.71,-2.4 1.92,-4.65 2.72,-7.02 1.03,-3.05 1.89,-6.16 2.78,-9.26 0.29,-1 0.94,-1.45 1.9,-1.77 3.44,-1.15 6.98,-1.65 10.59,-1.84 2.31,-0.12 4.6,-0.53 6.9,-0.74 3.7,-0.34 7.4,-0.63 11.1,-0.95 0.68,-0.06 1.35,-0.14 2.02,-0.26 2.07,-0.36 2.38,-0.68 2.59,-2.73 0.13,-1.3 0.81,-2.2 2.06,-2.5 3.13,-0.75 6.15,-1.78 9.49,-1.75 3.45,0.02 6.91,-0.68 10.37,-1.02 1.95,-0.19 3.91,-0.23 5.86,-0.45 1.58,-0.18 2.74,0.38 3.58,1.67 2.51,3.85 1.73,2.91 6.18,3.38 0.44,0.05 0.88,0.07 1.32,0.05 1.52,-0.07 2.55,0.67 3.63,1.7 3.25,3.07 5.11,6.87 6.55,11 2.1,6.03 4.39,11.99 6.4,18.05 0.63,1.9 0.66,4 0.92,6.01 0.11,0.85 -0.29,1.46 -1.1,1.79 -1.17,0.47 -1.56,1.4 -1.5,2.59 0.08,1.64 0.18,3.29 -0.88,4.73 -0.02,0.03 -0.05,0.07 -0.05,0.11 0.32,2.15 -1.33,2.62 -2.77,3.31 -2.81,1.34 -5.61,2.7 -8.42,4.04 -3.1,1.48 -4.52,4.56 -3.74,7.91 0.64,2.72 1.2,5.46 1.7,8.21 0.13,0.74 0.04,1.6 -0.2,2.32 -1.91,5.63 -3.78,11.26 -6.44,16.61 -2.58,5.2 -3.48,10.84 -3.7,16.6 -0.14,3.65 -0.58,7.25 -1.92,10.68 -0.28,0.7 -0.62,1.38 -0.95,2.07 -0.45,0.93 -1.29,1.11 -2.22,1.09 -0.9,-0.01 -0.85,-0.76 -1.08,-1.33 -0.45,-1.11 -0.96,-2.19 -1.5,-3.26 -0.14,-0.28 -0.5,-0.64 -0.73,-0.62 -0.26,0.02 -0.61,0.38 -0.72,0.67 -0.44,1.15 -0.75,2.36 -1.22,3.51 -0.89,2.18 -1.79,4.35 -2.8,6.47 -0.58,1.23 -1.16,1.28 -2.28,0.48 -0.39,-0.28 -0.74,-0.62 -1.15,-0.86 -0.85,-0.49 -1.34,-0.19 -1.42,0.8 -0.06,0.75 -0.04,1.54 -0.27,2.24 -0.15,0.47 -0.63,1.1 -1.03,1.14 -0.48,0.06 -1.19,-0.29 -1.5,-0.7 -1.21,-1.57 -1.54,-3.48 -1.16,-5.35 0.9,-4.46 0.24,-8.93 0.31,-13.39 0.03,-1.85 -2.52,-3.53 -4.31,-2.9 -0.52,0.18 -1.04,0.99 -1.17,1.59 -0.84,3.94 -1.53,7.91 -2.37,11.84 -0.43,2.03 -1.08,4.01 -1.62,6.01 -0.22,0.8 -0.56,1.81 -1.42,1.61 -0.58,-0.14 -1.21,-1.13 -1.37,-1.84 -0.56,-2.61 -0.82,-5.29 -1.41,-7.9 -0.49,-2.17 -1.33,-4.26 -1.91,-6.41 -1.05,-3.87 -1.19,-7.8 -0.59,-11.77 0.09,-0.59 0.15,-1.2 0.09,-1.79 -0.03,-0.38 -0.28,-1.02 -0.47,-1.03 -0.4,-0.03 -1,0.15 -1.22,0.46 -0.68,0.98 -1.38,1.99 -1.8,3.1 -1.44,3.85 -2.77,7.74 -4.11,11.63 -0.25,0.71 -0.5,1.48 -0.49,2.21 0.01,1.54 -0.89,2.56 -2,3.97 z m 48.35,-76.61 c 0,0.01 0,0.03 0,0.04 0.24,0 0.48,-0.01 0.72,0 2.25,0.06 3.23,-1.09 2.78,-3.3 -0.64,-3.13 -1.38,-6.24 -1.94,-9.38 -0.49,-2.71 -0.87,-2.78 -3.14,-1.09 -4.7,3.52 -9.4,7.05 -14.09,10.6 -1.15,0.87 -2.29,1.75 -3.35,2.71 -0.29,0.26 -0.41,0.83 -0.41,1.25 0,0.13 0.65,0.38 1.01,0.38 1.4,0 2.8,-0.02 4.19,-0.12 4.75,-0.36 9.49,-0.73 14.23,-1.09 z M 66.32,33.65 c 0.37,2.39 3.53,7.07 5.3,8.04 0.34,0.19 0.74,0.3 1.12,0.41 4.72,1.32 9.58,1.64 14.43,1.98 0.42,0.03 1.19,-0.5 1.29,-0.9 0.46,-1.8 0.74,-3.65 1.14,-5.75 -1.58,-0.23 -3.01,-0.56 -4.45,-0.62 -3.3,-0.13 -6.62,0.09 -9.85,-0.94 -2.2,-0.7 -4.45,-1.26 -6.68,-1.84 -0.7,-0.18 -1.44,-0.24 -2.3,-0.38 z M 94.34,72 c 0,0.64 -0.09,1.3 0.04,1.91 0.06,0.27 0.58,0.63 0.88,0.61 0.95,-0.05 2.99,-2 3.23,-2.91 0.61,-2.39 1.29,-4.76 1.83,-7.16 0.13,-0.59 0.08,-1.43 -0.26,-1.89 -1.36,-1.87 -2.81,-3.68 -4.34,-5.41 -0.37,-0.42 -1.21,-0.61 -1.81,-0.57 -0.29,0.02 -0.63,0.8 -0.76,1.28 -0.49,1.93 -0.88,3.88 -1.35,5.81 -0.29,1.17 -0.15,2.25 0.69,3.12 1.42,1.46 2.11,3.15 1.85,5.21 z"
   id="path8"
   inkscape:connector-curvature="0"
   style="fill:#000000;fill-opacity:1" />
        <path
   d="m 146.03,7.9 c 0.75,0.06 1.26,0.01 1.71,0.15 0.72,0.22 1.39,0.6 2.11,0.84 1.65,0.56 3.34,1.01 4.98,1.61 4.03,1.48 8.21,2.58 11.82,5.09 1.15,0.8 2.68,1.05 3.9,1.79 4.72,2.84 9.39,5.76 14.05,8.68 1.52,0.95 3.02,1.96 4.43,3.07 3.03,2.38 6.27,4.53 8.14,8.12 0.55,1.05 1.72,1.76 2.5,2.71 0.39,0.47 0.78,1.16 0.73,1.71 -0.08,0.88 -0.96,0.76 -1.64,0.76 -2.91,-0.01 -5.89,-0.41 -8.72,0.08 -3.55,0.61 -6.97,1.95 -10.44,2.99 -1.56,0.47 -3.11,0.98 -4.65,1.5 -0.83,0.28 -1.69,0.53 -2.45,0.94 -1.8,0.98 -3.72,1.62 -5.41,2.91 -2.56,1.95 -4.55,1.81 -6.53,0.08 -0.53,-0.47 -1.08,-1.2 -1.15,-1.87 -0.33,-3.32 -0.47,-6.65 -0.74,-9.97 -0.08,-1.03 -0.41,-2.04 -0.53,-3.07 -0.19,-1.62 -0.36,-3.24 -0.43,-4.86 -0.11,-2.44 -0.29,-4.89 -0.14,-7.31 0.15,-2.46 -1.08,-4.12 -2.94,-5.05 -2.84,-1.43 -4.48,-3.76 -5.97,-6.34 -0.83,-1.41 -1.63,-2.83 -2.63,-4.56 z"
   id="path10"
   inkscape:connector-curvature="0"
   style="fill:#000000;fill-opacity:1" />
    </g>
</g>
</svg>