<?xml version="1.0" encoding="UTF-8" standalone="no"?>
<svg
   xmlns:dc="http://purl.org/dc/elements/1.1/"
   xmlns:cc="http://creativecommons.org/ns#"
   xmlns:rdf="http://www.w3.org/1999/02/22-rdf-syntax-ns#"
   xmlns:svg="http://www.w3.org/2000/svg"
   xmlns="http://www.w3.org/2000/svg"
   xmlns:sodipodi="http://sodipodi.sourceforge.net/DTD/sodipodi-0.dtd"
   xmlns:inkscape="http://www.inkscape.org/namespaces/inkscape"
   width="215"
   height="215"
   viewBox="0 0 56.885415 56.885418"
   version="1.1"
   id="svg8"
   inkscape:version="1.0.2-2 (e86c870879, 2021-01-15)"
   sodipodi:docname="stoneclaws_gutstompas.svg">
  <defs
     id="defs2">
    <pattern
       id="EMFhbasepattern"
       patternUnits="userSpaceOnUse"
       width="6"
       height="6"
       x="0"
       y="0" />
  </defs>
  <sodipodi:namedview
     id="base"
     pagecolor="#ffffff"
     bordercolor="#666666"
     borderopacity="1.0"
     inkscape:pageopacity="0.0"
     inkscape:pageshadow="2"
     inkscape:zoom="1.2954194"
     inkscape:cx="155.79617"
     inkscape:cy="178.24882"
     inkscape:document-units="px"
     inkscape:current-layer="layer1"
     inkscape:document-rotation="0"
     showgrid="false"
     inkscape:snap-global="false"
     units="px"
     inkscape:window-width="1920"
     inkscape:window-height="1017"
     inkscape:window-x="-8"
     inkscape:window-y="-8"
     inkscape:window-maximized="1" />
  <metadata
     id="metadata5">
    <rdf:RDF>
      <cc:Work
         rdf:about="">
        <dc:format>image/svg+xml</dc:format>
        <dc:type
           rdf:resource="http://purl.org/dc/dcmitype/StillImage" />
        <dc:title></dc:title>
      </cc:Work>
    </rdf:RDF>
  </metadata>
  <g
     inkscape:label="Layer 1"
     inkscape:groupmode="layer"
     id="layer1"
     transform="translate(0,-240.11457)">
    <path
       style="fill:#000000;stroke-width:0.160044"
       d="m 32.478959,296.55986 c -0.260292,-0.24206 -0.868386,-0.80835 -1.351321,-1.2584 -0.96603,-0.90025 -1.516467,-1.63544 -1.452442,-1.93992 0.02491,-0.11837 -0.05727,-0.1596 -0.204968,-0.10291 -0.17521,0.0672 -0.246498,-0.005 -0.246498,-0.25207 0,-0.19066 -0.06949,-0.30371 -0.154421,-0.25121 -0.32396,0.20022 -1.394793,-1.14663 -3.669496,-4.61535 -0.262958,-0.40098 -0.407221,-0.84896 -0.411163,-1.2768 -0.0054,-0.58473 -0.04904,-0.65948 -0.386964,-0.66263 -0.323911,-0.003 -0.520437,-0.27887 -1.313841,-1.84406 -0.513121,-1.01227 -0.935888,-1.92399 -0.93948,-2.02604 -0.0042,-0.12219 0.198364,-0.0885 0.593642,0.0988 0.843769,0.39969 2.764985,1.01612 2.862632,0.91847 0.04481,-0.0448 -0.165524,-0.46629 -0.46734,-0.9367 -0.301822,-0.47041 -0.811194,-1.26359 -1.131937,-1.76264 -0.320742,-0.49905 -0.581548,-0.96718 -0.579571,-1.04029 0.0036,-0.12872 0.810227,-0.72821 2.181218,-1.62086 0.365424,-0.23792 1.069012,-0.70266 1.563539,-1.03275 0.494526,-0.33009 0.956176,-0.60016 1.025891,-0.60016 0.06972,0 0.258883,0.59416 0.420373,1.32036 0.161484,0.72619 0.348825,1.39238 0.416303,1.4804 0.06748,0.088 0.339295,0.7002 0.604025,1.36037 1.16402,2.90282 2.479313,5.35535 4.322953,8.06073 0.453873,0.66601 0.825216,1.25757 0.825216,1.31457 0,0.15772 -3.272458,-0.31996 -3.935731,-0.5745 -0.259836,-0.0997 -0.434418,-0.0229 -0.780141,0.34344 -0.244962,0.25954 -0.400412,0.51687 -0.345439,0.57184 0.05497,0.055 0.09996,0.0117 0.09996,-0.0962 0,-0.10789 0.06816,-0.15403 0.151476,-0.10254 0.09119,0.0564 0.05938,0.35474 -0.08002,0.74976 -0.283047,0.80223 -0.292262,1.14589 -0.01748,0.6509 0.218888,-0.39427 0.426135,-0.32048 0.426135,0.15172 0,0.16138 0.06687,0.29342 0.14861,0.29342 0.332335,0 0.649968,0.51097 0.554378,0.89182 -0.05364,0.21369 -0.02733,0.38853 0.05841,0.38853 0.08577,0 0.318941,0.45012 0.518152,1.00027 0.199217,0.55015 0.570004,1.41439 0.823971,1.92053 0.253966,0.50614 0.435393,0.92025 0.403169,0.92025 -0.03223,0 -0.271551,-0.19805 -0.531843,-0.44012 z m -2.134921,-3.17975 c 0,-0.13204 -0.07202,-0.19556 -0.160045,-0.14116 -0.08802,0.0544 -0.160038,0.20694 -0.160038,0.33898 0,0.13203 0.07202,0.19555 0.160038,0.14115 0.08803,-0.0544 0.160045,-0.20694 0.160045,-0.33897 z m -0.160045,-1.0843 c 0,-0.28197 -0.484095,-0.47728 -0.684999,-0.27638 -0.08324,0.0832 -0.102956,0.22964 -0.04384,0.32533 0.155891,0.25223 0.728816,0.21375 0.728816,-0.049 z m -1.280347,-4.01208 c 0,-0.10813 -0.144039,-0.32695 -0.32009,-0.48628 -0.198564,-0.17969 -0.32009,-0.49293 -0.32009,-0.82502 0,-0.60751 -0.148144,-0.67052 -0.545127,-0.23186 -0.188254,0.20802 -0.215326,0.32327 -0.08607,0.36636 0.103724,0.0346 0.198153,0.34812 0.209836,0.69678 0.02213,0.66012 0.257462,0.88688 0.778903,0.75052 0.155449,-0.0406 0.282635,-0.16238 0.282635,-0.2705 z m 2.730697,0.35396 c 0.133578,-0.537 0.133306,-1.4089 -4.83e-4,-1.32626 -0.09327,0.0576 -0.169575,0.19279 -0.169575,0.30034 0,0.10754 -0.216058,0.27708 -0.480133,0.37676 -0.521472,0.19684 -0.670754,0.54901 -0.178108,0.42017 0.166117,-0.0434 0.350414,-6e-4 0.409559,0.095 0.09359,0.15144 0.390682,0.24651 0.41868,0.13398 z m 9.112554,-1.18088 c -0.572158,-0.23587 -1.076299,-0.47586 -1.120309,-0.53332 -0.04402,-0.0574 -0.309519,-0.19725 -0.590014,-0.31065 -0.280494,-0.1134 -0.802637,-0.47635 -1.160315,-0.80656 -0.547389,-0.50534 -0.650193,-0.69928 -0.649438,-1.22513 0.0012,-0.91833 0.293266,-1.81667 0.836029,-2.57245 0.28965,-0.40334 0.510974,-0.94343 0.558165,-1.36211 0.07595,-0.67381 0.05267,-0.71677 -0.809537,-1.49275 -0.488256,-0.43944 -1.661125,-1.41115 -2.60638,-2.15935 -0.945255,-0.74821 -1.96476,-1.59444 -2.265572,-1.88051 -0.300807,-0.28609 -0.575532,-0.52015 -0.610496,-0.52015 -0.09047,0 -1.797112,-1.26501 -2.654687,-1.96773 -0.398004,-0.32613 -0.851539,-0.59297 -1.007853,-0.59297 -0.156314,0 -0.550473,0.23406 -0.875902,0.52014 -0.325435,0.28608 -1.296765,1.06029 -2.158511,1.72047 -0.861741,0.66018 -1.874831,1.4524 -2.251302,1.76049 -0.376472,0.30808 -1.214363,0.95547 -1.861987,1.43864 -1.584395,1.18207 -3.297547,2.90536 -3.435775,3.45611 -0.07845,0.31257 -0.02286,0.59715 0.183229,0.93786 0.984675,1.62793 1.221118,2.24794 1.150646,3.01725 -0.08589,0.93755 -0.54237,1.4359 -2.027848,2.21388 -0.87739,0.4595 -1.18561,0.53777 -2.079732,0.52819 -1.023623,-0.011 -2.092146,-0.23578 -2.564407,-0.5395 -0.128903,-0.0829 -0.249087,-0.353 -0.267076,-0.60021 -0.01796,-0.24721 -0.03858,-0.50349 -0.04572,-0.56951 -0.0071,-0.066 -0.226532,-0.12003 -0.487507,-0.12003 -0.326983,0 -0.533868,0.11093 -0.665462,0.35681 l -0.190957,0.35681 -0.159216,-0.35681 c -0.08757,-0.19625 -0.210398,-0.35681 -0.272954,-0.35681 -0.214467,0 -0.07746,-0.58377 0.202664,-0.8635 0.368042,-0.36752 0.357061,-0.62291 -0.02165,-0.50271 -0.165929,0.0527 -0.480969,0.0141 -0.700081,-0.0858 -0.4777831,-0.21769 -1.1454091,-1.47686 -1.0257221,-1.93455 0.06828,-0.26108 0.02358,-0.31001 -0.223955,-0.24528 -0.218701,0.0572 -0.309248,-0.001 -0.309248,-0.19943 0,-0.73484 -1.221474,-1.0201 -2.800626,-0.65404 -0.400303,0.0928 -0.697039,0.0914 -0.792219,-0.004 -0.236744,-0.23675 -0.568638,-0.17926 -0.4687,0.0812 0.06047,0.15755 -0.05321,0.26919 -0.349883,0.34365 -0.56351,0.14144 -0.936511,-0.0957 -1.001002,-0.63647 -0.02896,-0.24275 -0.246752,-0.57204 -0.504298,-0.76245 -0.436446,-0.32269 -0.445032,-0.35503 -0.230547,-0.86838 0.141717,-0.33916 0.16507,-0.56888 0.06418,-0.63124 -0.08724,-0.0539 -0.158612,-0.30983 -0.158612,-0.5687 0,-0.36899 0.07143,-0.47069 0.330606,-0.47069 0.465549,0 0.949741,-0.28845 0.949741,-0.56579 0,-0.15378 -0.165166,-0.23443 -0.480128,-0.23443 -0.552947,0 -0.583786,-0.11354 -0.208475,-0.76749 0.291723,-0.5083 1.256891,-1.16237 2.142535,-1.45194 1.551082,-0.50715 2.061754,-0.63861 2.87218,-0.73942 0.751462,-0.0935 0.944856,-0.0614 1.280353,0.21216 0.35414,0.28878 0.366095,0.33358 0.11511,0.43128 -0.15404,0.06 -0.280077,0.20936 -0.280077,0.33198 0,0.27663 0.478194,0.29919 0.48522,0.0229 0.0079,-0.30814 0.4750431,0.38162 0.4750431,0.70133 0,0.15403 0.07465,0.32619 0.165887,0.38258 0.262462,0.16221 1.938789,-0.41732 2.554859,-0.88325 0.308087,-0.233 0.956267,-0.67133 1.440399,-0.97407 0.484131,-0.30274 1.708466,-1.16351 2.720745,-1.91284 1.01228,-0.74932 2.020556,-1.48955 2.240617,-1.64496 0.220061,-0.1554 0.809664,-0.58583 1.310238,-0.95649 0.500567,-0.37067 1.309868,-0.96202 1.798445,-1.31411 0.48857,-0.3521 0.866209,-0.7122 0.839191,-0.80022 -0.09228,-0.30069 -6.862455,-5.45843 -7.503493,-5.71642 -0.156991,-0.0632 -0.285435,-0.17769 -0.285435,-0.25447 0,-0.32515 -3.721748,-2.59146 -4.255712,-2.59146 -0.02576,0 -0.440098,0.66826 -0.920789,1.48503 -0.4921451,0.83621 -1.0514281,1.57999 -1.2801181,1.70238 -0.936148,0.50101 -2.515204,-0.40073 -4.230412,-2.41583 -2.326309,-2.73304 -2.596547,-3.08763 -2.594503,-3.40437 0.003,-0.43486 1.109992,-2.40837 1.790251,-3.19104 0.501456,-0.57696 0.56013,-0.60323 0.803526,-0.35983 0.24339,0.24339 0.266302,0.23678 0.313741,-0.0905 0.04299,-0.29672 0.226531,-0.3903 1.150821,-0.58684 0.844767,-0.17962 1.168322,-0.19093 1.395953,-0.0488 0.223768,0.13975 0.395345,0.13993 0.700849,6.1e-4 0.222498,-0.10137 0.404542,-0.24579 0.404542,-0.32091 0,-0.0751 0.162047,-0.38677 0.360103,-0.69253 0.355349,-0.54859 0.375165,-0.55595 1.5026331,-0.55791 0.810287,-0.001 1.140373,-0.0602 1.135106,-0.20204 -0.02872,-0.7731 0.05267,-0.90756 0.612744,-1.01263 0.392847,-0.0737 0.543483,-0.17534 0.485154,-0.32734 -0.05418,-0.14124 0.0286,-0.22045 0.230474,-0.22045 0.173282,0 0.315065,0.0996 0.315065,0.22139 0,0.2455 0.594416,0.46225 0.718234,0.26191 0.04312,-0.0698 -0.0797,-0.16817 -0.272924,-0.21869 -0.65647,-0.17168 -0.198727,-0.24912 0.520118,-0.088 1.974913,0.44265 1.875162,0.37506 2.224997,1.5077 0.241353,0.7814 0.302415,1.33366 0.2498,2.25924 l -0.06963,1.22501 0.619547,0.73664 c 0.340752,0.40514 1.062651,1.06072 1.604211,1.45683 0.949814,0.69471 1.77546,1.34903 3.128038,2.47895 1.376162,1.14962 4.990637,4.03091 5.521517,4.40149 0.308087,0.21506 0.651796,0.47989 0.763804,0.5885 0.230517,0.22354 0.863349,-0.1527 2.860937,-1.70091 0.629229,-0.48768 1.346048,-1.03073 1.592921,-1.20678 0.246873,-0.17605 0.668304,-0.50121 0.936511,-0.72258 0.944614,-0.77967 2.41226,-1.87173 2.766757,-2.05872 0.197216,-0.10403 0.616627,-0.19885 0.932018,-0.21071 0.472528,-0.0178 0.559931,-0.0732 0.496637,-0.31527 -0.04227,-0.16154 -0.01155,-0.29371 0.06825,-0.29371 0.07978,0 0.145061,-0.0999 0.145061,-0.22204 0,-0.12212 0.504141,-0.62936 1.120308,-1.1272 0.616174,-0.49785 1.131562,-1.0281 1.145313,-1.17835 0.01373,-0.15025 0.03658,-0.45323 0.05079,-0.67329 0.05926,-0.91962 0.286415,-1.99226 0.55409,-2.61672 0.585412,-1.36571 3.272918,-3.15334 2.983534,-1.98454 -0.04904,0.19805 0.01832,0.12604 0.149717,-0.16005 0.285604,-0.62189 0.482251,-0.64867 0.962005,-0.131 l 0.360641,0.38914 0.09383,-0.46916 c 0.199241,-0.99621 1.329098,-0.43044 2.948897,1.47662 0.553606,0.65179 1.256075,1.38417 1.561047,1.62751 0.62584,0.49937 1.66231,0.90794 2.30327,0.90794 0.52,0 0.92452,0.28952 0.99834,0.71452 0.0343,0.19789 0.25448,0.37173 0.59392,0.46908 1.10509,0.31694 1.34881,2.13011 0.52932,3.9378 -0.13966,0.30809 -0.2941,0.59617 -0.3432,0.64018 -0.0491,0.044 -0.2943,0.35497 -0.54489,0.69101 -0.25579,0.34302 -0.5479,0.57558 -0.66603,0.53026 -0.11573,-0.0444 -0.24798,0.0171 -0.29389,0.13678 -0.0499,0.12996 -0.21628,0.18282 -0.41336,0.13128 -0.39902,-0.10435 -0.4462,0.23083 -0.0711,0.50511 0.22729,0.1662 0.17793,0.25841 -0.40586,0.7581 -0.75089,0.64274 -2.143065,1.4086 -2.560535,1.4086 -0.399293,0 -0.888668,-0.58822 -1.336101,-1.60599 -0.498197,-1.13323 -1.215433,-1.75493 -2.024625,-1.75493 -1.080901,0 -3.075164,1.21997 -6.867359,4.20103 -1.203648,0.94619 -2.548547,1.99897 -2.988669,2.33951 -0.440122,0.34053 -1.120181,0.90486 -1.511244,1.25404 l -0.711032,0.63488 1.200539,0.94669 c 0.660298,0.52067 1.412377,1.10368 1.67129,1.29558 0.258919,0.19189 1.074853,0.80406 1.813199,1.36037 0.738341,0.55632 1.854646,1.36635 2.480682,1.80009 1.243231,0.86135 5.716658,2.8568 6.232519,2.78011 0.225479,-0.0335 0.398736,-0.28024 0.581354,-0.82783 0.297324,-0.89156 1.005308,-1.62285 1.101969,-1.13825 0.03066,0.15374 -0.04136,0.34218 -0.160045,0.41875 -0.178936,0.11542 -0.1761,0.16474 0.01663,0.28869 0.352876,0.22695 0.530469,0.024 0.427877,-0.48898 -0.143706,-1.12893 2.367301,0.0548 2.879631,0.3176 0.78682,0.41312 1.98158,1.53215 1.98158,1.85598 0,0.13557 0.0669,0.24649 0.1487,0.24649 0.19409,0 0.51106,1.54252 0.53547,2.60584 0.0197,0.85818 -0.29114,1.81315 -0.63285,1.94428 -0.1061,0.0407 -0.44359,0.0333 -0.74999,-0.0164 -0.38678,-0.0628 -0.53115,-0.15801 -0.47224,-0.31153 0.0493,-0.1285 -0.0173,-0.22112 -0.159,-0.22112 -0.13412,0 -0.26923,0.0761 -0.30024,0.16916 -0.0394,0.11813 -0.27274,0.11931 -0.77355,0.004 -1.28467,-0.29601 -1.727746,-0.22963 -2.054578,0.30779 -0.160837,0.26448 -0.381001,0.87665 -0.489254,1.36038 -0.1474,0.65865 -0.267626,0.87951 -0.478762,0.87951 -0.45822,0 -0.505598,0.18025 -0.128425,0.48864 0.283385,0.2317 0.313704,0.32911 0.153236,0.49227 -0.110025,0.11188 -0.200052,0.32558 -0.200052,0.47491 0,0.6193 -1.564953,1.63273 -3.56752,2.31025 -1.812117,0.61309 -2.718708,0.64391 -3.954543,0.13444 z m 1.440392,-1.49986 c 0,-0.088 -0.03011,-0.16004 -0.06693,-0.16004 -0.03683,0 -0.181668,-0.044 -0.321898,-0.0978 -0.186621,-0.0716 -0.228442,-0.0287 -0.156011,0.16004 0.107448,0.28001 0.544843,0.35855 0.544843,0.0978 z m -1.408386,-0.51214 c -0.149372,-0.14937 -0.23473,-0.14937 -0.384103,0 -0.149378,0.14937 -0.106698,0.19205 0.192052,0.19205 0.29875,0 0.341424,-0.0427 0.192051,-0.19205 z m 6.369749,-1.17777 c 0,-0.13723 -0.07202,-0.20499 -0.160045,-0.1506 -0.08803,0.0544 -0.160045,0.16669 -0.160045,0.24951 0,0.0828 0.07202,0.1506 0.160045,0.1506 0.08803,0 0.160045,-0.11228 0.160045,-0.24951 z m -30.088258,-3.97856 c 0,-0.0368 0.04372,-0.18085 0.09714,-0.32009 0.06375,-0.16612 0.0087,-0.25315 -0.160045,-0.25315 -0.141457,0 -0.257189,0.0301 -0.257189,0.0669 0,0.0368 -0.04372,0.18085 -0.09714,0.32008 -0.06375,0.16613 -0.0087,0.25316 0.160045,0.25316 0.141457,0 0.25719,-0.0301 0.257189,-0.0669 z m 36.970151,-1.29344 c 0,-0.22006 -0.0276,-0.40011 -0.0614,-0.40011 -0.0337,0 -0.0958,0.18005 -0.13785,0.40011 -0.0421,0.22006 -0.0144,0.40011 0.0614,0.40011 0.0758,0 0.13786,-0.18005 0.13786,-0.40011 z m -0.86108,-0.20946 c -0.13838,-0.13839 -0.2996,-0.20363 -0.35825,-0.14498 -0.15347,0.15347 0.26483,0.60983 0.4526,0.49378 0.0936,-0.0578 0.0553,-0.19914 -0.0943,-0.3488 z m -0.0992,-1.471 c 0,-0.088 -0.14404,-0.16004 -0.32009,-0.16004 -0.17604,0 -0.32008,0.072 -0.32008,0.16004 0,0.088 0.14404,0.16004 0.32008,0.16004 0.17605,0 0.32009,-0.072 0.32009,-0.16004 z m -41.05127,-0.64018 c 0.05442,-0.088 0.02262,-0.16004 -0.07057,-0.16004 -0.09322,0 -0.16949,0.072 -0.16949,0.16004 0,0.088 0.03175,0.16005 0.07058,0.16005 0.03882,0 0.115086,-0.072 0.169484,-0.16005 z m 30.328329,0 c 0,-0.088 -0.108029,-0.16004 -0.240064,-0.16004 -0.132036,0 -0.240071,0.072 -0.240071,0.16004 0,0.088 0.108035,0.16005 0.240071,0.16005 0.132035,0 0.240064,-0.072 0.240064,-0.16005 z m 1.720548,-0.04 c -0.03664,-0.11003 -0.186422,-0.2233 -0.332867,-0.2517 -0.185666,-0.036 -0.237017,0.0246 -0.169666,0.20006 0.113532,0.29586 0.600512,0.3459 0.502533,0.0516 z m 8.807703,-0.11604 c -0.11499,-0.18413 -0.25673,-0.25677 -0.33951,-0.17399 -0.18402,0.18402 0.006,0.49008 0.30494,0.49008 0.19094,0 0.19705,-0.0559 0.0346,-0.31609 z m -25.252292,-4.32518 c 0,-0.088 -0.11228,-0.16005 -0.24951,-0.16005 -0.137236,0 -0.205004,0.072 -0.1506,0.16005 0.05442,0.088 0.166685,0.16004 0.24951,0.16004 0.08283,0 0.1506,-0.072 0.1506,-0.16004 z m -4.481228,-3.01416 c 0,-0.20839 -0.190256,-0.34698 -0.345022,-0.25133 -0.165523,0.10229 -0.0228,0.3847 0.194422,0.3847 0.08282,0 0.1506,-0.06 0.1506,-0.13337 z m 28.00769,-8.02888 c 0,-0.088 0.10428,-0.16004 0.23173,-0.16004 0.18799,0 0.20015,-0.0906 0.0644,-0.48013 -0.19334,-0.55462 -0.25389,-0.57114 -0.72061,-0.1965 -0.26897,0.21591 -0.31395,0.35546 -0.20521,0.63662 0.13728,0.35496 0.62972,0.5114 0.62972,0.20005 z m 1.8405,-1.60043 c 0.0544,-0.088 0.0226,-0.16005 -0.0706,-0.16005 -0.0932,0 -0.16949,0.072 -0.16949,0.16005 0,0.088 0.0318,0.16004 0.0706,0.16004 0.0388,0 0.11509,-0.072 0.16949,-0.16004 z m -1.36038,-1.19089 c 0,-0.0388 -0.072,-0.11509 -0.16003,-0.16949 -0.088,-0.0544 -0.16005,-0.0227 -0.16005,0.0706 0,0.0932 0.072,0.16949 0.16005,0.16949 0.088,0 0.16003,-0.0317 0.16003,-0.0706 z m -2.624643,-1.32707 c -0.02171,-0.0217 -0.169339,0.0555 -0.328096,0.17163 -0.251662,0.18402 -0.261627,0.26073 -0.07777,0.59851 l 0.210894,0.38744 0.117209,-0.55907 c 0.06446,-0.30749 0.09946,-0.57681 0.07776,-0.59851 z m 3.264823,-0.92801 c 0,-0.1348 -0.11287,-0.28841 -0.25082,-0.34134 -0.301,-0.1155 -0.62924,0.16772 -0.47799,0.41244 0.16304,0.2638 0.72881,0.20861 0.72881,-0.0711 z m 1.52042,-1.19531 c 0,-0.31269 -0.0917,-0.41074 -0.41967,-0.44878 -0.45041,-0.0522 -0.68232,0.26179 -0.51513,0.69751 0.0605,0.15755 0.24928,0.23088 0.51513,0.20005 0.32798,-0.038 0.41967,-0.13609 0.41967,-0.44878 z m -12.923546,0.12004 c -0.0367,-0.11003 -0.162712,-0.20006 -0.280077,-0.20006 -0.117366,0 -0.243402,0.09 -0.280077,0.20006 -0.03967,0.119 0.0738,0.20005 0.280077,0.20005 0.20628,0 0.319745,-0.0811 0.280077,-0.20005 z m 9.123496,-1.28036 c -0.07872,-0.23974 -0.921246,-0.36997 -0.921246,-0.1424 0,0.15188 0.315664,0.28405 0.773546,0.32389 0.11737,0.0102 0.18383,-0.0715 0.1477,-0.18149 z m 2.75976,-0.12505 c 0,-0.1916 -0.45142,-0.39713 -0.58307,-0.26547 -0.14016,0.14015 0.0976,0.43054 0.35245,0.43054 0.12685,0 0.23062,-0.0743 0.23062,-0.16507 z m -9.248589,-1.33213 c -0.05757,-0.5291 0.198371,-0.54602 0.533052,-0.0352 0.224137,0.34208 0.309992,0.3687 0.723888,0.22441 0.534545,-0.18634 0.625431,-0.45247 0.154524,-0.45247 -0.206607,0 -0.285005,-0.0783 -0.227741,-0.22756 0.119851,-0.31233 -0.214256,-0.89274 -0.513895,-0.89274 -0.173402,0 -0.21509,0.0949 -0.142351,0.3241 0.0566,0.17826 0.04342,0.30973 -0.02921,0.29216 -0.244473,-0.0591 -1.01234,0.39344 -1.01234,0.59666 0,0.37683 0.198975,0.72131 0.379822,0.65756 0.09918,-0.035 0.159603,-0.25406 0.134266,-0.48689 z m 2.006606,-2.28469 c 0.535174,-0.14342 0.435677,-0.35938 -0.160045,-0.34735 -0.613507,0.0124 -0.799541,0.0951 -0.673353,0.29924 0.1061,0.17166 0.325163,0.18431 0.833398,0.0481 z m -13.987937,4.24934 c 0.217274,0.25428 2.024717,3.19329 2.024717,3.29231 0,0.0502 -1.121192,0.8348 -2.720744,1.90392 -0.396113,0.26475 -0.756209,0.52151 -0.800219,0.57058 -0.04402,0.049 -0.35076,0.29103 -0.681656,0.53769 -0.676244,0.50409 -0.612364,0.57305 -1.010187,-1.09047 -0.147352,-0.61617 -0.332238,-1.20107 -0.410861,-1.29978 -0.07862,-0.0987 -0.254988,-0.55678 -0.39194,-1.01794 -0.330188,-1.11187 -1.49672,-3.51905 -2.739806,-5.65369 -0.553998,-0.95134 -1.007266,-1.79157 -1.007266,-1.86718 0,-0.0756 -0.0632,-0.16149 -0.140453,-0.19083 -0.17853,-0.0678 -1.482255,-2.08497 -1.400434,-2.16679 0.03356,-0.0336 0.62805,0.0186 1.321092,0.11586 2.859233,0.40134 2.940982,0.4007 2.936725,-0.0232 -0.0018,-0.20896 -0.06718,-0.65283 -0.144613,-0.9864 -0.128111,-0.55184 -0.09861,-0.6459 0.327509,-1.04414 0.290678,-0.27166 0.482119,-0.62463 0.50471,-0.93056 0.03042,-0.41158 0.10526,-0.49488 0.45377,-0.50493 0.281021,-0.008 0.542425,0.14484 0.800219,0.46823 0.210573,0.26415 0.605422,0.74518 0.877438,1.06895 0.563528,0.67074 2.626278,3.65861 2.626278,3.80414 0,0.0528 0.152861,0.31072 0.339701,0.5731 0.186839,0.26239 0.398355,0.73713 0.470042,1.05497 0.630263,0.34714 0.852549,1.58459 2.042567,3.89592 -3.33424,-1.31099 -4.64906,-2.18272 -3.276589,-0.5098 z m 0.613223,-3.70344 c -0.08861,-0.0886 -0.236781,-0.11435 -0.329263,-0.0572 -0.10786,0.0667 -0.06982,0.20389 0.106087,0.38274 0.217111,0.22074 0.285701,0.23266 0.329264,0.0572 0.03023,-0.1219 -0.01748,-0.29414 -0.106088,-0.38275 z m -21.605224,-0.26328 c -0.115721,-0.0734 -0.385796,-0.0999 -0.6001611,-0.0589 -0.272325,0.0521 -0.389769,0.002 -0.389769,-0.16462 0,-0.30286 0.415976,-0.65695 0.6221111,-0.52955 0.08579,0.053 0.201231,0.0232 0.256519,-0.0662 0.05527,-0.0895 0.232439,-0.16265 0.393657,-0.16265 0.215858,0 0.310372,0.14766 0.35853,0.56015 0.06758,0.5789 -0.158515,0.72772 -0.640887,0.42183 z m 1.293747,-1.57303 c 0.155716,-0.0406 0.371774,-0.0379 0.480129,0.006 0.108356,0.0438 -0.01905,0.077 -0.283125,0.0738 -0.264071,-0.003 -0.352725,-0.0391 -0.197004,-0.0797 z m 14.088526,-4.47138 c 0.05557,-0.0556 0.0202,-0.25215 -0.07862,-0.4368 -0.202997,-0.37931 -0.353826,-1.40858 -0.16264,-1.10989 0.129526,0.20235 0.855978,0.22391 0.99423,0.0295 0.04426,-0.0623 0.250302,0.0243 0.457852,0.19237 0.298187,0.24146 0.321293,0.30557 0.110115,0.30557 -0.146984,0 -0.222734,0.072 -0.16833,0.16004 0.05612,0.0908 -0.07836,0.16005 -0.310644,0.16005 -0.330158,0 -0.409555,0.0776 -0.409555,0.40011 0,0.26674 -0.08891,0.40011 -0.266737,0.40011 -0.146706,0 -0.221265,-0.0455 -0.165675,-0.10107 z m -1.318437,-3.05263 c -0.272005,-0.50219 -0.471923,-0.98096 -0.444264,-1.06393 0.02763,-0.083 0.425222,0.23006 0.883485,0.6956 0.653991,0.6644 0.794377,0.89323 0.652709,1.06393 -0.32835,0.39564 -0.591786,0.22782 -1.09193,-0.6956 z"
       id="path860"
       sodipodi:nodetypes="csssssscsscsssscssssssssssssscssssssssccssssscsccccsssssssccsssccccssscssssssssssssscsscscssscsssscsssscssssscsssssssssssssssssssssssssscssssscsscsssssssssscssssssssssssssscsssscsssssssssssssssssssscsssssssssccsssssssscsssssssccsssssssssssssssssssssssssssssssssssssssssssssssssssssssssssssssssssssssssssscssscscsssssssssssssssssssssssssssssssssssssssssssssscsssssssccsssssssscccssssssssssssssscccccssssssssssssssssssssscsss" />
  </g>
</svg>
