<?xml version="1.0" encoding="UTF-8" standalone="no"?>
<!-- Generator: Adobe Illustrator 23.0.4, SVG Export Plug-In  -->

<svg
   xmlns:dc="http://purl.org/dc/elements/1.1/"
   xmlns:cc="http://creativecommons.org/ns#"
   xmlns:rdf="http://www.w3.org/1999/02/22-rdf-syntax-ns#"
   xmlns:svg="http://www.w3.org/2000/svg"
   xmlns="http://www.w3.org/2000/svg"
   xmlns:sodipodi="http://sodipodi.sourceforge.net/DTD/sodipodi-0.dtd"
   xmlns:inkscape="http://www.inkscape.org/namespaces/inkscape"
   version="1.1"
   x="0px"
   y="0px"
   width="242.73"
   height="242.73"
   viewBox="0 0 242.73 242.73"
   xml:space="preserve"
   id="svg17"
   sodipodi:docname="brute.svg"
   inkscape:version="0.92.3 (2405546, 2018-03-11)"><metadata
   id="metadata21"><rdf:RDF><cc:Work
       rdf:about=""><dc:format>image/svg+xml</dc:format><dc:type
         rdf:resource="http://purl.org/dc/dcmitype/StillImage" /><dc:title /></cc:Work></rdf:RDF></metadata><sodipodi:namedview
   pagecolor="#ffffff"
   bordercolor="#666666"
   borderopacity="1"
   objecttolerance="10"
   gridtolerance="10"
   guidetolerance="10"
   inkscape:pageopacity="0"
   inkscape:pageshadow="2"
   inkscape:window-width="1920"
   inkscape:window-height="1017"
   id="namedview19"
   showgrid="false"
   inkscape:zoom="1.028681"
   inkscape:cx="-177.56149"
   inkscape:cy="114.71"
   inkscape:window-x="-8"
   inkscape:window-y="-8"
   inkscape:window-maximized="1"
   inkscape:current-layer="svg17" />
<style
   type="text/css"
   id="style2">
    .st0{fill:#FFFFFF;}
</style>
<defs
   id="defs4">
</defs>
<g
   id="NTpRR0_2_"
   transform="translate(0.00196237,6.647367)"
   style="fill:#000000;fill-opacity:1">
    <g
   id="g14"
   style="fill:#000000;fill-opacity:1">
        <path
   class="st0"
   d="m 0,112.08 c 0.6,-0.46 1.14,-1.21 1.8,-1.34 2.08,-0.41 3.87,-1.3 5.69,-2.38 3.32,-1.98 6.84,-3.62 10.24,-5.47 1.36,-0.74 2.77,-1.49 3.92,-2.51 2.86,-2.54 6.15,-4.44 9.31,-6.53 2.26,-1.5 4.48,-3.09 6.58,-4.8 1.42,-1.15 2.64,-2.55 3.9,-3.88 1.18,-1.24 1.84,-1.29 2.94,-0.01 0.57,0.66 1.05,1.41 1.63,2.07 0.99,1.15 2.09,1.15 2.81,-0.17 1.47,-2.72 2.25,-5.64 1.84,-8.76 -0.17,-1.35 -1.07,-2.07 -2.42,-1.98 -1.11,0.08 -2.22,0.28 -3.3,0.55 -1.85,0.46 -3.11,-0.05 -3.9,-1.82 C 39.09,70.67 37.5,66.18 37,61.38 36.7,58.48 36.61,55.56 36.36,52.66 36,48.57 34.25,44.9 32.79,41.15 32.47,40.33 32.19,39.48 31.76,38.73 31,37.39 31.14,36.09 31.61,34.71 c 0.23,-0.66 0.56,-0.95 1.2,-0.88 0.51,0.06 1.08,0.1 1.49,0.37 2.2,1.46 4.68,1.93 7.24,2.27 1.5,0.2 3,0.55 4.42,1.05 3.11,1.11 6.3,1.67 9.59,1.96 3.18,0.29 6.32,0.94 9.48,1.41 0.47,0.07 0.96,0.1 1.43,0.03 4.53,-0.68 8.91,0.07 13.24,1.31 2.62,0.75 3.29,2.69 1.8,4.96 -0.52,0.8 -1.21,1.49 -1.78,2.26 -1.27,1.74 -0.72,3.35 1.32,4.01 2.95,0.96 3.09,1.21 1.32,3.78 -1.97,2.86 -4,5.69 -6.11,8.45 -1.57,2.06 -2.92,4.19 -3.64,6.69 -0.89,3.13 -1.81,6.26 -2.71,9.39 -0.05,0.19 -0.07,0.4 -0.07,0.59 0.17,7.18 -0.14,14.4 1.63,21.47 0.32,1.26 0.32,2.61 0.35,3.92 0.04,1.88 0.01,3.76 -0.09,5.64 -0.05,0.85 -0.25,1.75 -0.62,2.51 -0.2,0.4 -0.89,0.73 -1.39,0.78 -0.7,0.07 -0.94,0.34 -1.13,0.97 -0.37,1.21 -0.8,2.41 -1.3,3.57 -1.72,3.95 -3.49,7.88 -5.21,11.82 -0.13,0.3 -0.14,0.71 -0.07,1.04 0.42,2.03 0.9,4.05 1.33,6.09 0.28,1.31 0.94,2.37 2.02,3.15 1.19,0.85 1.84,2.03 2.28,3.42 0.77,2.43 1.41,4.95 2.55,7.21 0.85,1.7 2.35,3.08 3.65,4.52 0.26,0.29 0.95,0.18 1.45,0.26 0.83,0.14 1.67,0.29 2.5,0.45 0.62,0.12 1.23,0.38 1.84,0.38 1.15,0.01 1.89,0.5 2.31,1.55 0.19,0.48 0.42,0.95 0.68,1.4 0.7,1.21 0.54,1.63 -0.83,2.06 -1.99,0.63 -2.14,0.79 -2.04,2.88 0.05,1.11 0.14,2.23 0.41,3.3 0.27,1.07 0.79,2.07 1.23,3.19 -0.51,0.17 -1.02,0.22 -1.38,0.49 -0.33,0.24 -0.63,0.71 -0.65,1.09 -0.01,0.23 0.52,0.63 0.85,0.7 1.32,0.29 2.13,0.96 2.32,2.08 0.17,1.02 -0.39,2.21 -1.63,2.65 -3.57,1.28 -7.16,2.47 -10.78,3.58 -2.29,0.71 -4.62,1.27 -6.96,1.79 -1.27,0.29 -2.59,0.38 -3.89,0.54 -0.95,0.12 -1.91,0.18 -2.85,0.35 -2.35,0.41 -4.68,1.03 -7.04,1.27 -3.77,0.38 -7.56,0.58 -11.34,0.74 -1.97,0.08 -2.94,-1.23 -2.6,-3.19 0.03,-0.16 0.05,-0.32 0.11,-0.47 1.33,-3.63 2.66,-7.26 4,-10.88 2.49,-6.72 4.61,-13.52 5.37,-20.7 0.17,-1.6 0.79,-3.16 1.13,-4.75 0.22,-1.01 0.56,-2.08 0.41,-3.05 -0.27,-1.74 0.55,-2.59 2.51,-2.89 0.71,-0.11 1.44,-0.09 2.14,-0.21 1.4,-0.25 2.23,-1.12 2.59,-2.49 0.81,-3.03 0.8,-5.91 -1.3,-8.51 -0.67,-0.83 -1.13,-1.84 -1.73,-2.73 -0.67,-0.99 -1.2,-1.05 -1.83,-0.1 -1.06,1.59 -2.08,3.22 -2.97,4.91 -0.47,0.88 -0.95,1.13 -1.78,0.64 -2.85,-1.67 -5.89,-2.94 -8.63,-4.88 -4.72,-3.34 -9.69,-6.35 -14.68,-9.27 -5.24,-3.06 -10.87,-5.18 -16.95,-5.94 -1.63,-0.2 -2.91,-1.03 -3.82,-2.4 0,-0.07 0,-0.15 0,-0.23 z M 65.8,60.15 C 66.08,57.81 65.38,55.7 64.29,53.71 63.52,52.3 61.93,51.82 60.4,52.22 59.85,52.37 59.11,52.25 58.58,52 c -1.51,-0.71 -1.89,-0.63 -2.77,0.84 -0.22,0.37 -0.46,0.78 -0.8,1.04 -1.34,1.02 -1.96,2.5 -2.52,3.99 -1.53,4.06 -0.88,6.55 2.41,9.36 1.96,1.67 4.2,2.51 6.76,1.92 1.07,-0.25 2.06,-0.87 3.09,-1.31 1.83,-0.79 2.24,-1.65 1.81,-3.6 -0.3,-1.35 -0.51,-2.72 -0.76,-4.09 z m -9.78,44.09 c -0.04,0 -0.08,-0.01 -0.11,-0.01 0,-0.24 0,-0.48 0,-0.72 -0.02,-1.63 -2.23,-4.63 -3.79,-5.11 -0.25,-0.08 -0.56,-0.07 -0.82,-0.01 -3.28,0.7 -6.37,1.84 -8.93,4.09 -0.45,0.4 -0.92,0.98 -1.02,1.55 -0.28,1.73 -0.5,3.48 -0.53,5.23 -0.03,2.14 1.27,3.69 3.38,4.01 1.89,0.29 3.81,0.46 5.72,0.45 2.87,-0.02 5.02,-1.9 5.52,-4.71 0.29,-1.59 0.39,-3.19 0.58,-4.77 z m 4.2,67.4 c 2.38,0.01 4,-0.67 4.26,-2.28 0.39,-2.46 0.54,-4.98 0.47,-7.47 -0.05,-1.66 -0.94,-1.97 -2.6,-1.5 -0.77,0.22 -1.61,0.24 -2.41,0.35 -0.99,0.14 -2.11,0.03 -2.95,0.47 -2.24,1.16 -3.17,3.57 -2.52,5.88 0.86,3.08 2.71,4.54 5.75,4.55 z m -16.01,13.27 c -0.74,-0.48 -1.2,-1.01 -1.56,-0.95 -0.38,0.06 -0.92,0.68 -0.93,1.06 0,0.32 0.64,0.88 1.04,0.91 0.36,0.03 0.76,-0.51 1.45,-1.02 z m -13.2,-76.69 c -0.33,-0.8 -0.59,-1.42 -0.85,-2.04 -0.28,0.29 -0.73,0.54 -0.81,0.88 -0.2,0.87 0.34,1.19 1.66,1.16 z"
   id="path6"
   inkscape:connector-curvature="0"
   style="fill:#000000;fill-opacity:1" />
        <path
   class="st0"
   d="m 127.2,0 c 2.47,1.65 4.26,3.92 5.99,6.29 5.67,7.74 11.4,15.43 17.09,23.15 1.13,1.54 2.2,3.12 3.36,4.79 -0.62,0.13 -1.07,0.24 -1.53,0.32 -1.52,0.28 -2.84,0.82 -3.99,1.97 -0.84,0.83 -2.01,1.48 -3.15,1.83 -2.19,0.67 -3.56,2.02 -4.33,4.11 -0.19,0.52 -0.32,1.14 -0.69,1.5 -1.25,1.24 -1.25,2.7 -1.17,4.32 0.28,5.23 0.39,10.46 0.68,15.69 0.14,2.63 0.53,5.24 0.78,7.86 0.15,1.59 0.37,3.19 0.35,4.78 -0.08,5.82 0.95,11.54 1.6,17.29 0.09,0.82 0.45,1.62 0.48,2.43 0.02,0.53 -0.19,1.18 -0.53,1.58 -0.52,0.59 -1.21,1.05 -1.88,1.48 -4.19,2.67 -7.71,6.06 -10.82,9.92 -1.4,1.74 -2.91,3.4 -4.43,5.04 -0.28,0.31 -0.98,0.63 -1.24,0.49 -0.57,-0.31 -1.3,-0.87 -1.37,-1.41 -0.11,-0.81 -0.52,-1.1 -1.06,-1.55 -0.9,-0.75 -1.69,-1.65 -2.46,-2.54 -0.66,-0.77 -1.12,-1.75 -1.87,-2.41 -2.25,-1.97 -4.62,-3.81 -6.89,-5.76 -0.87,-0.75 -1.72,-1.57 -2.4,-2.49 -1.2,-1.61 -2.79,-2.57 -4.59,-3.32 -0.5,-0.2 -0.86,-0.74 -1.28,-1.12 0.35,-0.34 0.65,-0.81 1.07,-1 1.48,-0.67 1.91,-1.97 2.14,-3.38 0.91,-5.4 1.78,-10.78 1.9,-16.29 0.17,-7.83 0.68,-15.65 0.95,-23.48 0.09,-2.71 -0.1,-5.43 -0.16,-8.15 -0.03,-1.49 -0.38,-1.95 -1.83,-2.15 -1.46,-0.21 -2.94,-0.32 -4.41,-0.47 -0.2,-0.02 -0.47,-0.08 -0.59,0.02 -1.27,1.06 -2.13,0.13 -3.16,-0.5 -0.71,-0.43 -1.64,-0.52 -2.49,-0.71 -0.53,-0.12 -1.08,-0.15 -1.75,-0.52 0.35,-0.32 0.69,-0.65 1.06,-0.95 1.31,-1.04 2.77,-1.93 3.92,-3.12 4.31,-4.47 9.28,-8.33 12.55,-13.78 1.45,-2.43 3.25,-4.65 4.86,-6.98 2.26,-3.26 4.74,-6.33 7.63,-9.06 1.22,-1.15 2.27,-2.46 3.4,-3.7 C 127.04,0 127.12,0 127.2,0 Z m 2.17,88.2 c -0.49,-1.5 -0.87,-2.96 -1.46,-4.33 -0.26,-0.61 -0.86,-1.17 -1.45,-1.52 -1.06,-0.62 -2.21,-1.11 -3.35,-1.57 -1.84,-0.74 -4.18,0.1 -5.26,1.74 -2.2,3.32 -2.47,6.69 -0.15,10.02 0.57,0.82 1.51,1.72 2.42,1.91 2.1,0.44 4.28,0.4 6.33,-0.47 0.45,-0.19 1.04,-0.49 1.2,-0.88 0.64,-1.57 1.14,-3.2 1.72,-4.9 z m -3.6,-49.09 c 1.59,-0.08 2.88,-0.8 3.75,-2.07 1.25,-1.8 2.35,-3.7 3.51,-5.57 0.37,-0.59 0.35,-1.13 -0.26,-1.56 -1.53,-1.07 -3.04,-2.16 -4.59,-3.2 -0.76,-0.51 -1.66,-0.84 -2.33,-1.43 -0.78,-0.69 -1.61,-1.02 -2.5,-0.55 -0.91,0.48 -0.37,1.33 -0.23,2.03 0.37,1.79 0.11,2.25 -1.62,2.85 -1.38,0.48 -1.88,1.14 -1.72,2.6 0.2,1.86 0.81,3.59 2.12,4.99 1.03,1.12 2.29,1.84 3.87,1.91 z m 21.47,-7.78 c 0.19,-0.13 0.38,-0.25 0.56,-0.38 -0.45,-0.65 -0.89,-1.29 -1.34,-1.94 -0.17,0.11 -0.34,0.23 -0.5,0.34 0.42,0.66 0.85,1.32 1.28,1.98 z"
   id="path8"
   inkscape:connector-curvature="0"
   style="fill:#000000;fill-opacity:1" />
        <path
   class="st0"
   d="m 138.9,188.39 c 1.54,-2.42 2.3,-4.95 1.94,-7.72 -0.09,-0.69 -0.55,-1.34 -0.84,-2 -0.67,0.43 -1.56,0.73 -1.95,1.34 -0.48,0.76 -0.65,1.77 -0.75,2.7 -0.09,0.88 -0.36,1.52 -1.15,1.95 -0.78,0.42 -1.23,-0.08 -1.81,-0.46 -1.43,-0.95 -2.91,-1.82 -4.38,-2.72 -1.31,-0.8 -2.63,-0.74 -3.99,-0.07 -2.23,1.08 -2.71,0.81 -2.89,-1.64 -0.07,-0.99 0.03,-2 -0.09,-2.99 -0.05,-0.45 -0.44,-0.87 -0.67,-1.3 -0.39,0.29 -0.8,0.54 -1.15,0.86 -0.62,0.56 -1.23,1.14 -1.79,1.76 -0.24,0.27 -0.42,0.65 -0.47,1.01 -0.06,0.43 0.07,0.87 0.07,1.31 0.01,1.99 -0.73,3.04 -2.63,3.66 -0.83,0.27 -1.7,0.44 -2.55,0.67 -1.73,0.48 -3.47,0.93 -5.18,1.47 -2.28,0.73 -3.73,-0.03 -4.34,-2.36 -0.19,-0.73 -0.31,-1.5 -0.61,-2.18 -0.16,-0.38 -0.63,-0.63 -0.95,-0.93 -0.26,0.36 -0.67,0.68 -0.75,1.07 -0.37,1.87 -0.34,3.69 0.4,5.52 0.49,1.2 0.67,2.55 0.81,3.85 0.13,1.26 -0.8,2.24 -1.96,2.49 -1.95,0.41 -3.88,0.89 -5.81,1.35 -0.47,0.11 -0.92,0.3 -1.39,0.36 -1.63,0.2 -2.53,-0.53 -2.39,-2.14 0.34,-3.96 -0.71,-7.78 -1.03,-11.66 -0.23,-2.8 0.03,-5.65 0.09,-8.47 0.05,-2.47 0.13,-4.94 0.16,-7.41 0.01,-0.72 -0.09,-1.44 -0.11,-2.16 -0.21,-6.79 -7.47,-9.89 -12.16,-8.97 -0.37,0.07 -0.82,0.23 -1.05,0.5 -0.65,0.74 -1.33,1.01 -2.21,0.47 -0.91,-0.56 -1.25,-1.37 -1.15,-2.45 0.07,-0.69 0.05,-1.41 -0.1,-2.08 -0.08,-0.37 -0.54,-0.64 -0.81,-0.97 -0.58,-0.72 -1.35,-1.36 -1.69,-2.18 -0.77,-1.84 -1.24,-3.8 -2.01,-5.64 -0.5,-1.19 -1.22,-2.31 -1.98,-3.37 -0.51,-0.72 -0.66,-1.33 -0.19,-2.08 0.04,-0.07 0.07,-0.14 0.12,-0.21 5.1,-7.04 6.55,-15.45 8.56,-23.58 1.03,-4.15 0.78,-8.52 -0.18,-12.84 -0.91,-4.07 -1.89,-8.17 -1.5,-12.43 0.95,-10.31 5.04,-19.3 11.41,-27.33 0.74,-0.93 1.65,-1.75 2.55,-2.53 3.1,-2.7 6.24,-5.37 9.36,-8.05 0.42,-0.36 0.82,-0.81 1.32,-1.03 0.5,-0.22 1.22,-0.44 1.64,-0.23 0.41,0.2 0.78,0.92 0.8,1.42 0.09,1.71 0.1,3.44 0.01,5.16 -0.4,7.7 -0.86,15.41 -1.25,23.11 -0.18,3.67 -0.27,7.35 -0.35,11.03 -0.02,1.01 -0.28,1.81 -0.93,2.61 -1.43,1.75 -1.91,3.78 -1.15,5.96 0.17,0.48 0.71,0.86 1.15,1.2 0.59,0.46 1.33,0.74 1.86,1.24 5.18,4.88 10.33,9.8 15.48,14.71 0.93,0.88 1.82,1.8 2.74,2.69 0.46,0.45 0.87,0.99 1.41,1.29 1.45,0.81 2.82,1.64 2.78,3.28 1.04,0.1 1.89,0.24 2.73,0.23 0.33,0 0.73,-0.26 0.96,-0.52 1.12,-1.24 2.19,-2.52 3.29,-3.79 1.33,1.19 1.38,1.18 2.5,-0.17 2.6,-3.14 5.22,-6.27 7.78,-9.44 0.42,-0.52 0.55,-1.27 0.84,-1.9 0.29,-0.63 0.47,-1.4 0.94,-1.85 1.85,-1.77 3.78,-3.45 5.71,-5.13 1.43,-1.24 1.52,-1.89 0.46,-3.47 -0.37,-0.55 -0.63,-1.2 -0.83,-1.83 -1.82,-5.81 -2.56,-11.77 -2.62,-17.84 -0.04,-3.4 -0.31,-6.79 -0.41,-10.19 -0.05,-1.56 -0.04,-3.12 0.09,-4.67 0.33,-4.14 -0.12,-8.22 -0.68,-12.31 -0.27,-1.96 -0.27,-1.96 1.48,-2.81 0.32,-0.16 0.65,-0.31 1.04,-0.5 0.56,1.07 1.17,1.15 2.12,0.33 1.14,-0.99 2.01,-0.64 3.1,0.41 1.31,1.26 2.76,2.43 4.31,3.36 2.4,1.43 4.24,3.34 5.84,5.58 3.4,4.75 5.91,9.98 7.88,15.43 1.31,3.62 1.5,7.5 0.98,11.36 -0.08,0.58 0.03,1.19 0.03,1.79 -0.01,0.99 -0.01,1.99 -0.06,2.98 -0.06,1.02 -0.24,2.04 -0.25,3.06 -0.02,5.04 -0.03,10.07 0.02,15.11 0.01,0.72 0.37,1.43 0.51,2.15 0.15,0.77 0.45,1.58 0.32,2.31 -0.37,2.06 -0.25,4.08 0.36,6.05 1.21,3.89 2.32,7.8 4.46,11.34 1.14,1.88 1.51,4.03 1.5,6.22 -0.01,2.16 0.05,4.28 0.92,6.35 0.28,0.67 -0.11,1.81 -0.52,2.56 -1.05,1.92 -2.4,3.69 -3.42,5.63 -1.05,2.01 -1.99,4.1 -2.71,6.24 -0.38,1.15 -0.3,2.5 -0.23,3.75 0.07,1.18 0.91,1.48 1.68,0.56 1.38,-1.64 2.8,-3.32 3.79,-5.19 1.14,-2.14 2.12,-4.27 4.31,-5.59 0.4,-0.24 0.61,-0.99 0.7,-1.53 0.82,-5.08 0.17,-10.12 -0.55,-15.15 -0.13,-0.91 -0.18,-1.84 -0.4,-2.73 -0.24,-0.95 -0.6,-1.88 -1,-2.78 -0.69,-1.56 -1.53,-3.07 -2.16,-4.66 -0.93,-2.37 -1.76,-4.79 -2.58,-7.21 -0.22,-0.66 -0.35,-1.4 -0.29,-2.09 0.33,-3.86 0.88,-7.71 1.09,-11.57 0.57,-10.66 1.19,-21.33 -1.49,-31.84 -0.95,-3.73 -2.86,-7 -4.94,-10.18 -1.18,-1.8 -2.34,-3.64 -3.69,-5.31 -1.12,-1.38 -2.5,-2.55 -3.8,-3.79 -0.4,-0.38 -1.05,-0.59 -1.29,-1.04 -0.3,-0.57 -0.5,-1.35 -0.35,-1.95 0.07,-0.28 1.09,-0.54 1.61,-0.45 2.62,0.45 4.49,-1.01 4.48,-3.73 0,-0.62 -0.38,-1.4 -0.84,-1.82 -1,-0.91 -2.19,-1.6 -3.27,-2.43 -0.95,-0.73 -0.89,-1.1 0.17,-1.69 0.56,-0.31 1.08,-0.68 1.64,-0.99 0.31,-0.17 0.65,-0.36 0.99,-0.39 3.86,-0.4 7.72,-0.73 11.57,-1.17 1.58,-0.18 3.17,-0.45 4.69,-0.91 7.23,-2.17 14.43,-4.42 21.65,-6.61 2.29,-0.69 3.26,0.28 2.56,2.58 -0.4,1.31 -1.06,2.54 -1.6,3.81 -0.2,0.48 -0.43,0.94 -0.61,1.43 -2.02,5.29 -4.04,10.58 -6.05,15.87 -2.02,5.3 -4.07,10.6 -4.47,16.34 -0.06,0.79 0.09,1.59 0.13,2.38 0.04,0.85 -0.31,1.19 -1.17,0.91 -1.25,-0.4 -1.78,-1.32 -2.1,-2.53 -0.25,-0.93 -0.6,-1.92 -1.18,-2.67 -0.77,-0.99 -2.22,-1.16 -3.16,-0.6 -1.12,0.66 -1.24,1.7 -0.91,2.83 0.56,1.91 1.32,3.78 1.71,5.72 0.51,2.54 0.79,5.13 1.06,7.71 0.08,0.72 -0.39,1.49 -0.35,2.22 0.11,1.82 0.32,3.64 0.6,5.45 0.21,1.38 0.61,2.73 0.91,4.09 0.22,0.99 0.61,1.17 1.38,0.5 0.93,-0.81 1.81,-1.7 2.66,-2.59 0.22,-0.24 0.3,-0.63 0.39,-0.97 0.14,-0.54 0.14,-1.14 0.38,-1.63 0.66,-1.35 0.79,-2.74 0.66,-4.2 -0.05,-0.53 0.09,-1.08 0.19,-2.06 1.51,1.25 2.78,2.24 3.98,3.32 1.81,1.63 3.58,3.31 5.36,4.97 0.03,0.03 0.06,0.06 0.1,0.07 2.18,0.39 3.44,2.59 5.68,2.9 0.39,0.05 0.88,0.34 1.08,0.66 0.76,1.21 1.95,1.71 3.19,2.19 3.42,1.33 6.88,2.58 10.21,4.09 2.9,1.31 5.66,2.96 8.49,4.43 2.2,1.13 4.44,2.2 6.65,3.32 0.75,0.38 1.47,0.81 2.18,1.26 0.98,0.62 1.67,1.43 1.29,2.68 -0.39,1.27 -1.75,2.08 -3,2.18 -1.15,0.09 -2.41,0.23 -3.41,0.76 -5.83,3.08 -11.61,6.25 -17.36,9.46 -1.67,0.93 -3.2,2.1 -4.8,3.15 -0.7,0.46 -1.41,0.9 -2.15,1.3 -2.79,1.54 -5.58,3.08 -8.4,4.56 -0.79,0.42 -1.7,0.6 -2.54,0.94 -0.87,0.36 -1.71,0.8 -2.59,1.15 -0.62,0.25 -1.53,0.75 -1.87,0.51 -0.63,-0.44 -1.08,-1.29 -1.35,-2.06 -0.25,-0.73 -0.07,-1.6 -0.27,-2.36 -0.46,-1.83 -2.16,-3.15 -4.03,-3.2 -0.38,-0.01 -0.99,0.15 -1.13,0.42 -0.97,1.87 -1.83,3.72 -1.26,6 0.45,1.8 0.48,3.66 0.04,5.57 -0.33,1.47 -0.1,3.09 -0.01,4.64 0.15,2.51 0.41,5.01 0.55,7.52 0.03,0.47 -0.25,0.99 -0.47,1.44 -0.88,1.73 -0.36,2.88 1.53,3.24 0.51,0.1 1.03,0.15 1.54,0.24 1.19,0.21 2.1,-0.07 2.66,-1.26 0.25,-0.52 0.72,-0.95 1.13,-1.39 0.69,-0.74 1.51,-1.02 2.49,-0.63 1.01,0.4 1.64,1.07 1.74,2.22 0.3,3.58 0.62,7.17 0.95,10.75 0.07,0.75 0.1,1.54 0.35,2.24 1.04,2.88 1.09,5.88 1.14,8.88 0.09,4.65 0.3,9.27 2.09,13.65 0.09,0.22 0.22,0.49 0.17,0.69 -0.15,0.5 -0.27,1.18 -0.63,1.38 -0.34,0.19 -1.2,0.04 -1.44,-0.27 -0.93,-1.17 -1.88,-1.35 -3.34,-0.98 -1.03,0.27 -2.26,-0.24 -3.4,-0.38 -1.66,-0.21 -3.32,-0.41 -4.98,-0.6 -0.2,-0.02 -0.43,0.04 -0.59,-0.04 -2.91,-1.49 -5.94,-0.65 -8.94,-0.49 -0.59,0.03 -1.18,-0.05 -1.77,-0.13 -1.4,-0.18 -2.8,-0.43 -4.2,-0.57 -1.18,-0.12 -2.38,-0.17 -3.57,-0.15 -1.17,0.03 -2.34,0.22 -3.52,0.29 -0.61,0.03 -1.33,0.13 -1.83,-0.13 -0.96,-0.48 -1.78,-0.42 -2.74,-0.05 -0.8,0.31 -1.69,0.48 -2.55,0.51 -0.42,0.02 -1.02,-0.33 -1.22,-0.69 -0.16,-0.29 0.04,-0.97 0.31,-1.26 0.97,-1.05 1.38,-2.3 1.6,-3.67 0.19,-1.18 0.44,-2.36 0.75,-3.51 0.68,-2.52 -0.37,-4.65 -2.82,-5.58 -2.21,-0.85 -2.25,-0.94 -1.57,-3.22 0.58,-1.94 1.1,-3.89 1.71,-5.82 0.44,-1.4 1.47,-1.89 2.91,-2.25 1.94,-0.48 3.76,-1.49 5.58,-2.36 0.2,-0.09 0.22,-0.86 0.1,-1.24 -0.36,-1.13 -0.79,-2.24 -1.28,-3.31 -0.17,-0.38 -0.6,-0.65 -0.94,-0.93 -0.1,-0.08 -0.31,-0.05 -0.47,-0.06 -6.56,-0.3 -6.37,0.19 -8.56,4.93 -1.93,4.19 -3.52,8.47 -3.76,13.16 -0.17,3.25 -0.51,6.5 -0.77,9.74 -0.02,0.24 0.02,0.52 -0.09,0.71 -1.47,2.5 -0.41,5.05 -0.12,7.56 0.22,1.93 0.3,1.94 -1.43,2.92 -0.42,0.23 -0.82,0.5 -1.22,0.76 -0.86,0.58 -1.76,0.62 -2.56,-0.02 -2.55,-2.04 -5.07,-4.13 -7.6,-6.2 -0.16,-0.11 -0.29,-0.32 -0.51,-0.58 z m 27.91,-57.76 c 0.25,-1.79 -1.05,-3.01 -2.34,-4.33 -1.01,-1.04 -2.09,-0.52 -3.13,-0.48 -1.31,0.05 -2.65,0.16 -3.91,0.5 -1.56,0.41 -3.25,0.8 -4.53,1.69 -1.71,1.2 -3.52,1.98 -5.47,2.57 -1.17,0.35 -2.45,0.66 -3.41,1.36 -1.42,1.05 -2.84,1.29 -4.5,0.97 -0.77,-0.15 -1.6,-0.2 -2.36,-0.06 -0.55,0.1 -1.03,0.57 -1.55,0.87 0.39,0.42 0.72,0.92 1.19,1.23 1.31,0.89 2.79,1.56 4,2.56 3.67,3.05 7.83,3.39 12.24,2.45 2.69,-0.57 5.34,-1.32 8.02,-1.94 3.8,-0.86 5.71,-3.22 5.75,-7.39 z m -54.46,4.03 c -0.06,-0.21 -0.11,-0.41 -0.17,-0.62 -0.77,-0.26 -1.52,-0.54 -2.3,-0.76 -3.77,-1.04 -7.56,-2.01 -10.76,-4.47 -0.47,-0.36 -1.23,-0.37 -1.86,-0.49 -0.35,-0.07 -0.74,0.03 -1.06,-0.08 -2.2,-0.81 -4.43,-1.56 -6.57,-2.51 -2.56,-1.14 -4.75,-0.18 -5.36,2.54 -0.23,1.01 -0.47,2.03 -0.58,3.06 -0.05,0.47 0.05,1.06 0.3,1.44 0.66,0.99 1.42,1.93 2.19,2.85 2.2,2.62 5.14,3.54 8.43,3.48 2.51,-0.05 5.02,-0.25 7.52,-0.36 0.28,-0.01 0.6,-0.03 0.82,0.1 1.37,0.8 2.54,0.22 3.69,-0.48 1.47,-0.89 2.92,-1.79 4.37,-2.71 0.46,-0.31 0.89,-0.66 1.34,-0.99 z m 92.19,-23.64 c 0.07,-3.3 -2.53,-6.96 -5.27,-7.85 -0.27,-0.09 -0.72,-0.11 -0.88,0.05 -0.84,0.82 -1.8,0.88 -2.88,0.71 -0.4,-0.06 -0.89,0.08 -1.26,0.27 -1.58,0.81 -2.82,1.97 -3.4,3.69 -0.72,2.16 -0.92,4.37 -0.49,6.61 0.21,1.09 0.71,2 1.75,2.57 1.68,0.92 3.32,1.91 4.97,2.88 0.82,0.48 1.38,0.28 1.88,-0.54 0.34,-0.55 0.81,-1.07 1.33,-1.45 2.56,-1.82 3.97,-4.29 4.25,-6.94 z m -89.35,47.93 c -0.01,0.24 -0.03,0.48 -0.04,0.72 -0.07,1.43 0.09,1.56 1.47,1.15 1.15,-0.34 2.3,-0.68 3.44,-1.05 2.41,-0.79 4.79,-1.12 7.27,-0.22 1.32,0.48 2.22,-0.46 1.97,-1.93 -0.08,-0.51 -0.33,-0.99 -0.45,-1.49 -0.26,-1.08 -0.47,-2.16 -0.72,-3.24 -0.55,-2.45 -1.04,-4.91 -1.71,-7.32 -0.17,-0.62 -0.86,-1.25 -1.46,-1.55 -0.76,-0.36 -1.69,-0.36 -2.54,-0.55 -1.17,-0.25 -2.08,0.16 -2.64,1.17 -2.44,4.47 -4.82,8.97 -4.59,14.31 z m 62.14,13.6 c 0.02,1.29 -0.22,2.65 0.9,3.61 1.72,1.47 5.04,1.65 7.15,0.47 2.2,-1.24 3.57,-3.83 3.25,-6.21 -0.14,-1.07 -0.32,-2.13 -0.53,-3.19 -0.28,-1.44 -0.89,-1.8 -2.38,-1.99 -0.89,-0.11 -1.88,-0.45 -2.57,-1.01 -1.32,-1.07 -3.23,-1.48 -4.88,-0.74 -1.35,0.61 -2.71,2.75 -2.58,4.18 0.03,0.37 0.17,0.83 0.43,1.07 1.13,1.07 1.38,2.38 1.21,3.81 z m 7.82,-133.7 c -1.16,0.11 -1.96,0.21 -2.75,0.24 -1.52,0.07 -2.7,0.76 -3.79,1.81 -2.9,2.8 -2.13,8.44 1.44,10.44 0.58,0.32 1.38,0.47 2.03,0.38 3.25,-0.43 5.51,-2.84 6.06,-6.06 0.41,-2.42 0.02,-4.53 -1.89,-6.19 -0.38,-0.33 -0.91,-0.51 -1.1,-0.62 z m 49.54,72.88 c 0.39,-0.58 0.89,-1.01 0.97,-1.51 0.08,-0.48 -0.2,-1.08 -0.48,-1.52 -0.12,-0.18 -0.97,-0.15 -0.99,-0.07 -0.19,0.67 -0.32,1.37 -0.35,2.06 -0.01,0.22 0.35,0.45 0.85,1.04 z M 98.85,191.1 c 0.76,-0.66 1.12,-2.48 0.66,-3.17 -0.36,-0.53 -0.75,-0.53 -1.09,0.04 -0.47,0.81 -0.29,2.27 0.43,3.13 z m 70.48,-73.57 c 0.57,-1.53 0.34,-2.12 -0.95,-2.6 0.32,0.88 0.6,1.66 0.95,2.6 z"
   id="path10"
   inkscape:connector-curvature="0"
   style="fill:#000000;fill-opacity:1" />
        <path
   class="st0"
   d="m 97.77,203.67 c 2.26,-0.99 4.47,-2.1 6.79,-2.93 1.48,-0.53 2.49,-1.33 2.71,-2.85 0.25,-1.73 0.35,-3.49 0.47,-5.25 0.1,-1.48 0.36,-1.81 1.87,-1.85 1.3,-0.03 2.21,-0.74 3.15,-1.53 0.62,-0.52 1.35,-0.99 2.11,-1.23 1.9,-0.61 3.82,-1.25 5.78,-1.54 2.36,-0.35 4.83,-0.74 7.14,-0.39 2.05,0.31 4,1.52 5.89,2.52 1.32,0.7 1.9,2.1 1.93,3.55 0.06,3.15 1.51,5.64 3.38,8 1.17,1.47 2.45,2.69 4.37,3.17 0.54,0.14 1.09,0.79 1.36,1.34 0.2,0.41 0.14,1.22 -0.15,1.52 -0.27,0.28 -1.08,0.32 -1.5,0.13 -1.51,-0.66 -2.97,-0.55 -4.23,0.35 -1.65,1.17 -3.3,2.41 -4.66,3.89 -2.03,2.2 -3.77,4.66 -5.69,6.96 -2.07,2.49 -2.9,5.5 -3.58,8.54 -0.48,2.12 -2.19,2.68 -3.75,3.28 -0.98,0.38 -1.84,-0.58 -2.34,-1.5 -0.85,-1.58 -1.78,-3.14 -2.45,-4.8 -2.6,-6.43 -7.34,-10.95 -12.93,-14.72 -1.19,-0.8 -2.51,-1.42 -3.69,-2.23 -0.78,-0.54 -1.43,-1.28 -2.13,-1.93 0.04,-0.18 0.1,-0.34 0.15,-0.5 z m 30.63,-3.61 c 0.03,-2.67 -1.77,-5.4 -4.24,-6.44 -2.4,-1.01 -5.13,0.17 -5.89,2.66 -0.42,1.36 -0.68,2.8 -0.81,4.22 -0.2,2.13 2.91,5.52 5.08,5.66 0.28,0.02 0.56,0.01 0.84,-0.04 2.41,-0.46 4.99,-3.58 5.02,-6.06 z m -5.83,22.04 c -1.01,0.56 -1.9,0.8 -1.74,1.94 0.03,0.21 0.2,0.39 0.31,0.58 0.2,-0.14 0.49,-0.25 0.58,-0.44 0.29,-0.58 0.5,-1.2 0.85,-2.08 z"
   id="path12"
   inkscape:connector-curvature="0"
   style="fill:#000000;fill-opacity:1" />
    </g>
</g>
</svg>