<?xml version="1.0" encoding="UTF-8" standalone="no"?>
<!-- Generator: Adobe Illustrator 23.0.4, SVG Export Plug-In  -->

<svg
   xmlns:dc="http://purl.org/dc/elements/1.1/"
   xmlns:cc="http://creativecommons.org/ns#"
   xmlns:rdf="http://www.w3.org/1999/02/22-rdf-syntax-ns#"
   xmlns:svg="http://www.w3.org/2000/svg"
   xmlns="http://www.w3.org/2000/svg"
   xmlns:sodipodi="http://sodipodi.sourceforge.net/DTD/sodipodi-0.dtd"
   xmlns:inkscape="http://www.inkscape.org/namespaces/inkscape"
   version="1.1"
   x="0px"
   y="0px"
   width="238.39999"
   height="238.39999"
   viewBox="0 0 238.39999 238.39999"
   xml:space="preserve"
   id="svg27"
   sodipodi:docname="elite.svg"
   inkscape:version="0.92.3 (2405546, 2018-03-11)"><metadata
   id="metadata31"><rdf:RDF><cc:Work
       rdf:about=""><dc:format>image/svg+xml</dc:format><dc:type
         rdf:resource="http://purl.org/dc/dcmitype/StillImage" /><dc:title /></cc:Work></rdf:RDF></metadata><sodipodi:namedview
   pagecolor="#ffffff"
   bordercolor="#666666"
   borderopacity="1"
   objecttolerance="10"
   gridtolerance="10"
   guidetolerance="10"
   inkscape:pageopacity="0"
   inkscape:pageshadow="2"
   inkscape:window-width="1920"
   inkscape:window-height="1017"
   id="namedview29"
   showgrid="false"
   inkscape:zoom="0.98997441"
   inkscape:cx="-30.823876"
   inkscape:cy="119.195"
   inkscape:window-x="-8"
   inkscape:window-y="-8"
   inkscape:window-maximized="1"
   inkscape:current-layer="svg27" />
<style
   type="text/css"
   id="style2">
    .st0{fill:#FFFFFF;}
</style>
<defs
   id="defs4">
</defs>
<g
   id="UMjqJD_2_"
   transform="translate(0.01672784,-3.0517578e-6)"
   style="fill:#000000;fill-opacity:1">
    <g
   id="g24"
   style="fill:#000000;fill-opacity:1">
        <path
   class="st0"
   d="m 123.82,0 c 1.1,0.63 1.3,1.69 1.45,2.84 0.34,2.61 0.72,5.22 1.17,7.82 0.14,0.8 0.63,1.54 0.86,2.34 0.33,1.14 0.55,2.32 0.86,3.46 0.22,0.79 0.35,1.7 0.83,2.31 0.88,1.11 1.25,2.31 1.24,3.66 -0.01,1.22 0.55,2.16 1.11,3.2 0.72,1.33 1.02,2.89 1.56,4.33 0.34,0.91 0.75,1.81 1.2,2.68 1.06,2.06 2.5,4 3.19,6.18 2.39,7.55 6.05,14.39 10.7,20.75 0.16,0.23 0.32,0.46 0.47,0.69 0.04,0.06 0.02,0.15 0.07,0.54 -3.1,0.25 -6.19,0.61 -9.29,0.74 -3.12,0.13 -6.25,0.03 -9.41,0.03 0,1.61 0.88,2.05 1.97,2.27 2.38,0.49 4.83,0.77 7.13,1.51 3.34,1.07 6.76,2.12 9.79,3.82 3.59,2.02 6.91,4.57 10.14,7.16 2.45,1.97 4.56,4.35 6.82,6.55 0.17,0.17 0.35,0.34 0.47,0.54 1.96,3.47 4.96,6.15 7.15,9.49 2.6,3.98 4.66,8.06 5.77,12.66 0.57,2.38 0.62,2.37 2.97,1.64 2.54,-0.78 2.73,-0.98 2.79,-3.69 0.09,-3.88 0.09,-7.76 0.22,-11.64 0.02,-0.69 0.46,-1.37 0.71,-2.05 0.71,0.37 1.5,0.64 2.12,1.13 1.6,1.23 2.97,2.87 4.72,3.79 5.79,3.04 11.68,5.88 17.59,8.69 1.7,0.81 3.57,1.32 5.39,1.83 1.6,0.45 3.11,0.96 4.27,2.25 0.36,0.4 0.87,0.73 1.37,0.94 2.31,0.95 4.66,1.83 6.98,2.77 3.18,1.29 6.36,2.59 9.52,3.92 0.91,0.38 0.76,1.08 0.08,1.43 -2.22,1.14 -4.49,2.18 -6.77,3.2 -1.08,0.48 -2.39,0.61 -3.31,1.29 -2.97,2.18 -6.32,3.56 -9.67,4.97 -2.28,0.96 -4.53,1.92 -6.34,3.77 -0.82,0.84 -2.19,1.11 -3.23,1.77 -2.97,1.87 -5.89,3.8 -8.84,5.71 -0.27,0.17 -0.53,0.39 -0.82,0.49 -4.05,1.35 -7.3,4.08 -10.86,6.28 -0.42,0.26 -0.92,0.39 -1.38,0.57 -0.12,-0.48 -0.35,-0.97 -0.35,-1.45 0.04,-4.19 0.1,-8.38 0.19,-12.57 0.04,-1.77 -0.11,-1.99 -1.89,-2.12 -0.96,-0.07 -1.92,-0.1 -2.88,-0.15 -0.93,-0.05 -1.5,0.34 -1.43,1.32 0.41,5.58 -1.46,10.74 -3.1,15.89 -0.95,3 -2.25,5.93 -4.6,8.35 -2.61,2.69 -4.83,5.75 -7.21,8.66 -0.33,0.4 -0.68,0.81 -0.9,1.27 -1.67,3.46 -4.45,5.89 -7.4,8.2 -1.5,1.18 -2.87,2.54 -4.3,3.81 -0.45,0.4 -0.87,0.84 -1.38,1.15 -3.75,2.26 -7.51,4.51 -11.28,6.72 -0.47,0.27 -1.03,0.47 -1.56,0.53 -0.78,0.08 -1.03,0.48 -1.03,1.18 -0.01,0.72 0.19,1.31 1.02,1.35 3.46,0.13 6.92,0.57 10.37,-0.35 2.36,-0.63 4.7,-0.11 7.39,0.67 -0.68,0.59 -1.09,0.91 -1.47,1.27 -0.77,0.72 -1.52,1.45 -2.29,2.17 -0.28,0.26 -0.54,0.64 -0.87,0.72 -1.25,0.3 -1.96,1.16 -2.58,2.18 -1.58,2.6 -3.05,5.27 -4.77,7.76 -3.35,4.86 -6.85,9.62 -10.25,14.44 -0.99,1.4 -1.68,3.04 -2.83,4.26 -2.59,2.75 -3.8,6.24 -5.48,9.48 -1.08,2.08 -2.17,4.16 -3.24,6.25 -0.41,0.8 -0.75,1.64 -1.28,2.78 -0.42,-0.82 -0.83,-1.39 -1.03,-2.03 -0.9,-2.88 -1.94,-5.65 -3.97,-7.98 -0.51,-0.59 -0.71,-1.51 -0.9,-2.31 -0.21,-0.85 -0.63,-1.29 -1.52,-1.41 -1.62,-0.22 -2.04,-1.05 -1.28,-2.51 0.92,-1.77 1.69,-3.55 1.03,-5.6 -0.09,-0.27 -0.19,-0.53 -0.3,-0.78 -0.05,-0.1 -0.13,-0.19 -0.26,-0.37 -0.47,0.9 -0.88,1.69 -1.42,2.73 -0.5,-0.54 -0.98,-0.9 -1.25,-1.37 -1.83,-3.19 -3.59,-6.41 -5.44,-9.59 -0.54,-0.93 -1.23,-1.77 -1.9,-2.61 -2.08,-2.59 -4.27,-5.09 -6.25,-7.74 -1.73,-2.32 -3.56,-4.48 -5.96,-6.14 -0.31,-0.22 -0.53,-0.58 -1.01,-1.15 0.85,-0.24 1.48,-0.56 2.13,-0.58 4.76,-0.16 9.51,-0.25 14.27,-0.37 0.48,-0.01 0.96,-0.05 1.44,-0.08 0.75,-0.04 1.39,-0.26 1.33,-1.17 -0.06,-0.83 -0.55,-1.2 -1.4,-1.34 -2.59,-0.42 -5.17,-0.89 -7.74,-1.45 -0.84,-0.18 -1.66,-0.6 -2.4,-1.04 -2.82,-1.67 -5.71,-3.25 -8.38,-5.13 -6.92,-4.87 -13.31,-10.36 -18.75,-16.87 -2.85,-3.41 -4.99,-7.31 -5.93,-11.65 -0.83,-3.84 -1.2,-7.8 -1.6,-11.72 -0.32,-3.1 -0.39,-6.22 -0.52,-9.33 -0.04,-0.94 -0.38,-1.29 -1.34,-1.15 -0.63,0.1 -1.28,0.02 -1.92,0.03 -1.41,0.01 -1.8,0.36 -1.79,1.76 0,1.92 0.03,3.84 0.07,5.75 0.05,2.34 0.09,4.67 0.18,7.01 0.04,0.94 -0.52,1.37 -1.46,0.92 -0.86,-0.41 -1.68,-0.92 -2.51,-1.4 -2.64,-1.56 -5.28,-3.12 -7.92,-4.69 -0.07,-0.04 -0.13,-0.1 -0.2,-0.12 -3.5,-0.93 -6.17,-3.46 -9.39,-4.91 -0.84,-0.38 -1.81,-0.55 -2.74,-0.66 -4.71,-0.56 -8.92,-2.32 -12.7,-5.17 -0.62,-0.47 -1.34,-0.83 -2.06,-1.12 -2.15,-0.86 -4.29,-1.75 -6.5,-2.45 -1.81,-0.57 -3.72,-0.8 -5.54,-1.33 -1.9,-0.55 -3.75,-1.25 -5.62,-1.92 -0.22,-0.08 -0.35,-0.39 -0.72,-0.83 1.7,-0.48 3.2,-1.13 4.74,-1.29 2.11,-0.22 4.08,-0.71 5.95,-1.68 2.86,-1.48 5.69,-2.92 8.77,-4.03 4.74,-1.7 9.18,-4.2 13.77,-6.32 5.61,-2.59 11.25,-5.13 16.87,-7.73 2.13,-0.99 4.23,-2.05 6.33,-3.12 1.14,-0.58 1.67,-0.29 1.62,0.99 -0.06,1.4 -0.14,2.8 -0.32,4.19 -0.38,2.97 -0.18,5.9 0.42,8.82 0.17,0.82 0.44,1.47 1.39,1.52 1.02,0.05 2.06,0.03 2.55,-1.1 0.25,-0.58 0.42,-1.21 0.56,-1.83 1.18,-5.6 3.92,-10.41 7.25,-14.98 1.4,-1.92 2.89,-3.68 4.77,-5.16 0.98,-0.77 1.7,-1.9 2.43,-2.94 3.82,-5.46 9.04,-9.32 14.63,-12.74 2.21,-1.35 4.51,-2.58 6.76,-3.88 2.77,-1.6 5.78,-2.5 8.88,-3.13 1.19,-0.24 2.21,-0.72 2.47,-2.39 -0.79,-0.12 -1.59,-0.4 -2.36,-0.33 -4.54,0.39 -9.07,0.87 -13.61,1.31 -0.54,0.05 -1.09,0.01 -1.96,0.01 0.41,-0.77 0.65,-1.33 0.97,-1.84 2.44,-3.8 4.95,-7.55 7.31,-11.39 0.98,-1.59 1.68,-3.35 2.44,-5.06 0.57,-1.26 1.08,-1.42 2.43,-1.22 1.05,0.16 2.25,0.14 3.22,-0.23 2.28,-0.87 2.52,-2.97 0.67,-4.6 -2.94,-2.58 -2.99,-3.03 -0.77,-6.21 1.73,-2.47 3.19,-5.07 3.69,-8.11 0.04,-0.27 0.13,-0.61 0.31,-0.76 1.95,-1.62 2.13,-4.14 3.21,-6.2 1.11,-2.11 2.23,-4.22 3.48,-6.25 0.89,-1.43 1.11,-2.93 1.24,-4.55 0.18,-2.32 0.71,-4.55 2.48,-6.27 C 123.02,0 123.42,0 123.82,0 Z m 1.57,71.62 c -8.21,0.69 -16.5,2.4 -23.44,8.11 -0.86,0.71 -1.81,1.33 -2.77,1.9 -2.4,1.43 -4.03,3.42 -4.95,6.08 -0.77,2.22 -1.83,4.29 -3.14,6.29 -2.19,3.33 -3.08,7.08 -2.59,11.09 0.27,2.18 0.78,4.37 0.68,6.53 -0.22,4.43 -0.74,8.84 -1.21,13.25 -0.12,1.14 -0.47,2.27 -0.84,3.36 -1.19,3.52 -2.47,7 -3.65,10.52 -0.2,0.61 -0.32,1.4 -0.1,1.96 1.12,2.95 2.35,5.85 3.55,8.77 0.28,0.67 0.69,1.01 1.5,0.69 0.4,-0.16 0.99,-0.17 1.37,0.02 3.78,1.86 7.9,2.91 11.29,5.69 4.25,3.49 6.96,7.59 7.19,13.21 0.1,2.59 0.47,5.17 0.73,7.76 0.07,0.65 0.3,1.33 1.11,0.91 1.75,-0.89 3.36,-0.74 4.99,0.28 0.36,0.22 0.84,0.24 1.26,0.38 0.98,0.35 1.58,0 2.24,-0.79 1,-1.2 1.99,-2.64 3.99,-2.07 0.25,0.07 0.58,-0.19 0.89,-0.28 0.24,-0.07 0.6,-0.22 0.72,-0.12 0.86,0.74 1.73,1.47 2.46,2.32 0.4,0.46 0.51,1.16 0.81,1.73 0.38,0.71 0.96,0.86 1.58,0.32 1.65,-1.47 2.88,-3.2 3.2,-5.46 0.23,-1.61 0.51,-3.22 0.73,-4.84 0.63,-4.61 2.3,-8.72 5.73,-11.96 0.82,-0.77 1.77,-1.59 2.81,-1.92 3.73,-1.17 7.5,-2.21 11.3,-3.16 2.28,-0.57 3.98,-1.8 4.79,-3.95 1.12,-2.97 1.53,-6.03 0.35,-9.13 -0.95,-2.5 -1.67,-5.1 -2.76,-7.53 -2.65,-5.89 -2.69,-12.01 -1.91,-18.24 0.38,-3.03 0.57,-6.04 -0.06,-9.06 -1.27,-6.09 -3.46,-11.87 -5.96,-17.53 -0.46,-1.04 -1.16,-2.04 -1.95,-2.85 -2.76,-2.84 -5.55,-5.65 -8.44,-8.35 -3.11,-2.88 -6.92,-3.92 -11.5,-3.93 z m 28.83,91.27 c -1.9,-0.93 -3.52,-0.74 -4.72,0.39 -0.66,0.62 -1.37,1.2 -2.06,1.8 -1.38,1.2 -2.65,2.43 -2.25,4.55 0.07,0.39 -0.31,0.85 -0.43,1.29 -0.12,0.45 -0.17,0.93 -0.24,1.39 0.39,-0.1 0.83,-0.11 1.17,-0.31 3.23,-1.83 5.47,-4.71 7.83,-7.46 0.35,-0.43 0.45,-1.07 0.7,-1.65 z m 7.18,-0.15 c -1.75,1.44 -2.1,3.43 -3.13,5.18 2.11,-0.39 3.82,-3.11 3.13,-5.18 z m 39.74,-28.89 c -0.12,-0.16 -0.25,-0.33 -0.37,-0.49 -1.44,0.5 -2.66,1.41 -3.88,2.31 -0.12,0.09 -0.1,0.6 0.03,0.73 0.15,0.14 0.56,0.18 0.76,0.08 0.6,-0.3 1.18,-0.66 1.71,-1.07 0.62,-0.48 1.17,-1.04 1.75,-1.56 z M 121,206.73 c 0.13,0.86 0.13,1.42 0.32,1.9 0.13,0.34 0.48,0.66 0.81,0.84 0.13,0.07 0.66,-0.26 0.69,-0.46 0.06,-0.38 0.01,-0.9 -0.22,-1.17 -0.32,-0.39 -0.86,-0.62 -1.6,-1.11 z m 33.44,-34.99 c -0.12,-0.13 -0.23,-0.25 -0.35,-0.38 -0.94,0.86 -1.88,1.72 -2.82,2.58 0.14,0.14 0.27,0.29 0.41,0.43 0.92,-0.87 1.84,-1.75 2.76,-2.63 z m -21.97,7.63 c 0.06,0.11 0.12,0.22 0.19,0.33 0.43,-0.2 1.1,-0.3 1.22,-0.62 0.18,-0.47 -0.04,-1.08 -0.09,-1.64 -0.09,-0.01 -0.19,-0.01 -0.28,-0.02 -0.35,0.66 -0.7,1.3 -1.04,1.95 z m -8.03,44.65 c -0.15,-0.1 -0.3,-0.19 -0.45,-0.29 -0.71,0.04 -1.18,0.38 -1.08,1.17 0.02,0.21 0.46,0.37 0.71,0.56 0.27,-0.49 0.55,-0.97 0.82,-1.44 z M 146,192.17 c 0.13,0.04 0.25,0.07 0.38,0.11 0.28,-0.75 0.58,-1.5 0.82,-2.26 0.05,-0.15 -0.14,-0.38 -0.22,-0.57 -0.18,0.12 -0.49,0.21 -0.53,0.37 -0.19,0.78 -0.3,1.57 -0.45,2.35 z"
   id="path6"
   inkscape:connector-curvature="0"
   style="fill:#000000;fill-opacity:1" />
        <path
   class="st0"
   d="m 85.29,61.25 c -0.71,0.45 -1.4,0.95 -2.15,1.34 -1.36,0.71 -2.84,1.2 -3.69,2.68 -0.31,0.54 -1.04,0.85 -1.6,1.22 -6.13,4.08 -12.16,8.25 -16.1,14.73 -1.28,2.1 -2.5,2.13 -4.22,0.33 -1.12,-1.17 -1.54,-2.63 -1.55,-4.17 -0.02,-7.13 -1.23,-14.11 -2.6,-21.07 -0.33,-1.68 -0.55,-3.39 -0.78,-5.09 -0.19,-1.39 0.78,-2.15 2.08,-1.63 0.85,0.34 1.63,0.87 2.5,1.15 1.39,0.44 2.83,0.75 4.25,1.1 0.5,0.12 1.07,0.07 1.52,0.28 3.48,1.66 7.55,1.62 10.78,4.21 1.69,1.35 4.17,1.71 6.29,2.51 1.74,0.66 3.48,1.31 5.21,1.96 0.02,0.15 0.04,0.3 0.06,0.45 z"
   id="path8"
   inkscape:connector-curvature="0"
   style="fill:#000000;fill-opacity:1" />
        <path
   class="st0"
   d="m 159.52,61.53 c 0.68,-1.5 1.86,-2.19 3.3,-2.45 4.95,-0.89 9.9,-1.76 14.86,-2.58 3.46,-0.57 6.94,-1.04 10.41,-1.54 1.52,-0.22 3.05,-0.39 4.58,-0.61 0.71,-0.11 1.4,-0.31 2.1,-0.44 0.79,-0.14 1.09,0.23 0.8,0.95 -0.56,1.39 -1,2.76 -0.52,4.29 0.08,0.25 -0.45,0.75 -0.76,1.06 -0.59,0.58 -1.35,1.03 -1.82,1.69 -1.75,2.45 -3.14,5.08 -4.06,7.97 -0.7,2.2 -1.74,4.3 -2.39,6.51 -0.58,1.97 -0.83,4.04 -1.22,6.07 -0.05,0.27 -0.04,0.56 -0.08,0.84 -0.23,1.61 -0.64,1.79 -1.99,0.87 -0.07,-0.04 -0.13,-0.1 -0.2,-0.14 -3.23,-1.82 -5.6,-4.4 -7.18,-7.78 -1.39,-2.96 -3.42,-5.36 -6.2,-7.26 -3.33,-2.25 -6.39,-4.91 -9.63,-7.45 z"
   id="path10"
   inkscape:connector-curvature="0"
   style="fill:#000000;fill-opacity:1" />
        <path
   class="st0"
   d="m 72.39,181.16 c -2.34,0.1 -4.58,0.59 -6.68,1.69 -0.53,0.28 -1.07,0.59 -1.64,0.72 -3.95,0.87 -7.92,1.64 -11.86,2.56 -2.05,0.48 -4.05,1.16 -6.05,1.81 -0.83,0.27 -1.6,0.74 -2.44,0.99 -0.55,0.16 -1.37,0.32 -1.72,0.04 -0.78,-0.61 -1.43,-1.52 -0.89,-2.62 0.8,-1.64 1.58,-3.33 2.6,-4.84 1.6,-2.36 2.9,-4.8 3.94,-7.48 2.38,-6.13 5.04,-12.15 7.58,-18.21 0.35,-0.83 0.95,-0.94 1.45,-0.31 0.64,0.79 1.33,1.67 1.57,2.62 0.74,2.98 2.04,5.59 4.13,7.85 0.97,1.05 1.74,2.29 2.57,3.46 1.01,1.42 2.2,2.59 3.78,3.41 0.68,0.35 1.26,1.11 1.64,1.81 0.97,1.79 2.16,3.34 3.81,4.55 0.37,0.27 0.54,0.8 0.8,1.21 -0.47,0.25 -0.91,0.57 -1.41,0.73 -0.35,0.11 -0.78,0.01 -1.18,0.01 z"
   id="path12"
   inkscape:connector-curvature="0"
   style="fill:#000000;fill-opacity:1" />
        <path
   class="st0"
   d="m 198.22,182.51 c -1.81,0.21 -3.13,0.55 -4.33,-0.51 -0.7,-0.62 -1.14,0.13 -1.48,0.64 -0.42,0.63 -0.81,0.62 -1.49,0.32 -3.91,-1.72 -7.89,-3.12 -12.21,-1.42 -1.86,0.74 -3.72,0.8 -5.73,0.45 -1.53,-0.27 -3.17,0.16 -4.76,0.16 -0.55,0 -1.4,-0.22 -1.59,-0.61 -0.24,-0.49 -0.17,-1.38 0.14,-1.84 0.58,-0.88 1.42,-1.6 2.18,-2.35 1.56,-1.54 3.32,-2.91 4.67,-4.61 4.87,-6.13 9.6,-12.36 14.4,-18.54 0.36,-0.47 0.87,-0.83 1.37,-1.3 2.32,10.17 4.79,20.04 8.83,29.61 z"
   id="path14"
   inkscape:connector-curvature="0"
   style="fill:#000000;fill-opacity:1" />
        <path
   class="st0"
   d="m 105.6,151.66 c -1.63,0.39 -3.01,-0.1 -4.43,-1.07 -1.19,-0.81 -2.68,-1.2 -4.04,-1.75 -0.44,-0.18 -0.92,-0.28 -1.37,-0.42 -4.51,-1.4 -5.18,-2.07 -6.63,-6.58 -0.39,-1.2 -0.24,-2.3 0.73,-3.18 2.64,-2.41 5.59,-4.23 9.24,-4.61 0.36,-0.04 0.79,0.11 1.11,0.3 3.41,1.95 7.28,3.07 10.3,5.73 0.47,0.42 1.22,0.56 1.87,0.72 3.21,0.82 4.45,4.19 2.47,6.85 -1.84,2.48 -4.25,3.94 -7.41,4.01 -0.6,0.01 -1.2,0 -1.84,0 z m -9.45,-5.48 c -0.05,-1.89 -1,-3.34 -2.15,-3.57 -0.41,-0.08 -0.89,0.15 -1.33,0.24 0.11,0.4 0.1,0.96 0.37,1.17 0.9,0.73 1.9,1.34 3.11,2.16 z"
   id="path16"
   inkscape:connector-curvature="0"
   style="fill:#000000;fill-opacity:1" />
        <path
   class="st0"
   d="m 151.91,140.52 c -0.01,2.79 -2.37,6.37 -4.63,7.32 -2.65,1.12 -5.26,2.33 -7.95,3.3 -2.56,0.92 -4.99,0.3 -7.19,-1.25 -0.16,-0.11 -0.29,-0.32 -0.46,-0.37 -2.24,-0.6 -2.65,-2.6 -3.28,-4.38 -0.16,-0.47 0.01,-1.23 0.31,-1.66 0.92,-1.31 2.15,-2.21 3.81,-2.47 0.73,-0.12 1.45,-0.41 2.14,-0.71 3.86,-1.7 7.72,-3.43 11.56,-5.16 1.01,-0.46 1.87,-0.19 2.65,0.47 1.65,1.39 2.82,3.04 3.04,4.91 z"
   id="path18"
   inkscape:connector-curvature="0"
   style="fill:#000000;fill-opacity:1" />
        <path
   class="st0"
   d="m 127.52,159.42 c 0.54,2.43 -1.4,3.63 -2.58,5.15 -0.16,0.21 -0.82,0.17 -1.2,0.07 -1.16,-0.3 -2.27,-0.76 -3.44,-1.01 -0.87,-0.19 -1.8,-0.24 -2.7,-0.18 -1.68,0.11 -2.35,-0.46 -2.17,-2.12 0.29,-2.65 0.52,-5.32 0.99,-7.95 0.34,-1.89 1.52,-3.4 3.37,-4.04 1.87,-0.65 3.77,-0.24 5.04,1.26 0.91,1.08 1.57,2.49 1.96,3.86 0.47,1.6 0.51,3.31 0.73,4.96 z"
   id="path20"
   inkscape:connector-curvature="0"
   style="fill:#000000;fill-opacity:1" />
        <path
   class="st0"
   d="m 146.6,168.91 c 0.6,-0.73 1.07,-1.3 1.56,-1.89 0.49,1.09 0.08,1.65 -1.56,1.89 z"
   id="path22"
   inkscape:connector-curvature="0"
   style="fill:#000000;fill-opacity:1" />
    </g>
</g>
</svg>