<?xml version="1.0" encoding="UTF-8" standalone="no"?>
<!-- Generator: Adobe Illustrator 23.0.4, SVG Export Plug-In  -->

<svg
   xmlns:dc="http://purl.org/dc/elements/1.1/"
   xmlns:cc="http://creativecommons.org/ns#"
   xmlns:rdf="http://www.w3.org/1999/02/22-rdf-syntax-ns#"
   xmlns:svg="http://www.w3.org/2000/svg"
   xmlns="http://www.w3.org/2000/svg"
   xmlns:sodipodi="http://sodipodi.sourceforge.net/DTD/sodipodi-0.dtd"
   xmlns:inkscape="http://www.inkscape.org/namespaces/inkscape"
   version="1.1"
   x="0px"
   y="0px"
   width="255.161"
   height="255.161"
   viewBox="0 0 255.161 255.16099"
   xml:space="preserve"
   id="svg25"
   sodipodi:docname="leader.svg"
   inkscape:version="0.92.3 (2405546, 2018-03-11)"><metadata
   id="metadata29"><rdf:RDF><cc:Work
       rdf:about=""><dc:format>image/svg+xml</dc:format><dc:type
         rdf:resource="http://purl.org/dc/dcmitype/StillImage" /><dc:title /></cc:Work></rdf:RDF></metadata><sodipodi:namedview
   pagecolor="#ffffff"
   bordercolor="#666666"
   borderopacity="1"
   objecttolerance="10"
   gridtolerance="10"
   guidetolerance="10"
   inkscape:pageopacity="0"
   inkscape:pageshadow="2"
   inkscape:window-width="1920"
   inkscape:window-height="1017"
   id="namedview27"
   showgrid="false"
   inkscape:zoom="0.92559909"
   inkscape:cx="-204.64227"
   inkscape:cy="127.485"
   inkscape:window-x="-8"
   inkscape:window-y="-8"
   inkscape:window-maximized="1"
   inkscape:current-layer="svg25" />
<style
   type="text/css"
   id="style2">
    .st0{fill:#FFFFFF;}
</style>
<defs
   id="defs4">
</defs>
<g
   id="JPliTk_2_"
   transform="translate(-1.6076979e-4,0.06650561)"
   style="fill:#000000;fill-opacity:1">
    <g
   id="g22"
   style="fill:#000000;fill-opacity:1">
        <path
   class="st0"
   d="m 0,129.16 c 1.31,-0.33 2.58,-0.65 3.98,-0.15 0.58,0.2 1.4,-0.43 2.06,-0.32 3.21,0.51 6.13,-0.7 9.16,-1.33 4.69,-0.99 9.37,-2.22 14.12,-2.61 4.44,-0.37 8.79,-1.08 13.16,-1.82 1.29,-0.22 2.56,-0.6 3.83,-0.97 2.06,-0.6 4.13,-0.77 6.28,-0.45 2.09,0.32 3.76,-0.39 4.99,-2.29 0.51,-0.78 1.53,-1.37 2.44,-1.7 0.49,-0.18 1.33,0.26 1.85,0.65 0.6,0.44 1.06,1.09 1.5,1.71 1.13,1.59 2.78,2.05 4.58,2.23 0.97,0.1 1.68,-0.36 1.99,-1.21 0.44,-1.23 0.86,-2.5 1.05,-3.79 0.41,-2.79 1.2,-5.45 2.38,-8.01 1.61,-3.48 3.44,-6.88 4.76,-10.46 1.8,-4.89 4.49,-9.26 7.16,-13.66 2.87,-4.74 6.5,-8.75 11.38,-11.61 3.16,-1.85 6.05,-4.16 9.12,-6.18 3.51,-2.31 7.16,-4.34 11.36,-5.23 2.1,-0.44 2.87,-2.12 2.15,-4.14 -0.12,-0.34 -0.24,-0.68 -0.37,-1.01 -0.5,-1.33 -1.41,-1.82 -2.85,-1.88 -2.1,-0.08 -2.6,-0.67 -2.05,-2.48 0.83,-2.74 1.32,-5.58 2.02,-8.36 0.41,-1.62 0.92,-3.22 1.43,-4.81 0.39,-1.21 0.49,-2.32 -0.5,-3.34 -0.3,-0.31 -0.36,-0.85 -0.58,-1.41 0.56,-0.17 1.03,-0.46 1.44,-0.4 2.06,0.28 4.02,-2.29 4.33,-4.12 0.27,-1.55 -0.09,-2.19 -1.61,-2.94 -1.79,-0.88 -1.78,-0.87 -0.85,-2.59 0.28,-0.52 0.56,-1.08 0.68,-1.66 0.96,-4.49 1.93,-8.98 2.79,-13.48 0.28,-1.44 0.25,-2.94 0.4,-4.41 0.19,-1.83 1.15,-3.11 2.85,-3.83 0.66,-0.28 1.34,-0.52 1.98,-0.83 0.99,-0.48 1.62,-0.26 1.85,0.83 0.45,2.11 0.82,4.23 1.21,6.35 0.1,0.55 0.16,1.11 0.27,1.65 1.51,7.5 3.24,14.96 4.46,22.5 0.88,5.42 2.46,10.62 3.86,15.89 0.17,0.65 0.24,1.34 0.33,2.01 0.26,2.1 0.44,4.21 0.76,6.3 0.18,1.21 -0.08,2.01 -1.31,2.43 -1.12,0.38 -1.83,1.22 -2.27,2.47 0.93,0.37 1.81,0.72 2.69,1.07 7.2,2.83 13.69,6.71 18.94,12.5 3.22,3.55 6.45,7.09 9.7,10.62 0.57,0.62 1.16,1.23 1.83,1.72 2.67,1.95 4.36,4.57 5.69,7.56 2.75,6.18 5.07,12.5 6.58,19.11 0.14,0.6 0.06,1.37 -0.21,1.92 -0.75,1.54 -0.59,2.04 1.23,2.66 0.31,-0.45 0.64,-0.93 1.01,-1.47 0.98,0.5 1.87,0.94 2.38,2.05 0.25,0.54 0.98,1.07 1.58,1.18 1.2,0.23 2.47,0.28 3.7,0.21 0.62,-0.03 1.29,-0.38 1.82,-0.76 0.99,-0.71 2.05,-0.89 3.18,-0.6 4.52,1.15 9.06,2.25 13.55,3.52 6.21,1.75 12.55,2.37 18.97,2.31 5.53,-0.05 10.66,1.86 15.94,3.07 1.85,0.42 3.76,0.54 5.65,0.81 0.94,0.13 1.89,0.24 2.8,0.47 0.63,0.16 0.81,0.67 0.12,0.96 -1.35,0.56 -2.72,1.28 -4.13,1.43 -4.73,0.49 -9.49,0.66 -14.22,1.13 -7.67,0.77 -15.33,1.63 -22.98,2.57 -1.63,0.2 -3.21,0.88 -4.8,1.38 -1.18,0.37 -2.33,0.81 -3.5,1.2 -1.44,0.48 -2.86,1.01 -4.32,1.41 -1.72,0.48 -3.48,0.81 -5.21,1.27 -0.76,0.2 -1.53,0.44 -2.21,0.83 -1.94,1.1 -3.8,2.33 -5.75,3.41 -0.67,0.37 -1.5,0.59 -2.27,0.66 -1.58,0.13 -2.47,0.68 -2.55,2.21 -0.1,1.92 -0.83,3.55 -1.69,5.19 -0.18,0.35 -0.39,0.71 -0.48,1.09 -0.75,3.01 -2.59,5.34 -4.64,7.57 -0.91,0.99 -1.62,2.16 -2.42,3.25 -0.24,0.32 -0.42,0.7 -0.71,0.96 -2.84,2.55 -5.06,5.75 -8.39,7.81 -1.72,1.06 -3.14,2.6 -4.8,3.79 -1.05,0.75 -2.32,1.2 -3.45,1.87 -1.39,0.83 -2.66,0.98 -4.16,0.09 -0.94,-0.56 -2.92,0.5 -3.55,1.89 -0.96,2.1 -1.82,4.27 -2.45,6.48 -0.2,0.72 0.34,1.75 0.76,2.51 0.52,0.95 1.36,1.8 0.48,2.9 -0.64,0.79 -1.81,0.65 -3.14,-0.23 -0.9,-0.59 -1.81,-1.17 -2.75,-1.7 -0.79,-0.45 -1.34,-0.25 -1.32,0.75 0.01,0.92 -0.35,1.15 -1.26,0.99 -1.46,-0.26 -2.01,0.37 -1.78,1.83 0.2,1.28 0.96,2.08 2.16,2.48 0.83,0.28 1.71,0.42 2.53,0.73 1.94,0.73 2.43,2.67 1.1,4.25 -0.59,0.7 -1.18,1.45 -1.91,1.99 -2.35,1.75 -2.59,4.31 -2.91,6.91 -0.19,1.57 -0.44,3.2 -1.06,4.62 -1.18,2.7 -1.88,5.48 -2.43,8.36 -1.27,6.74 -2.67,13.46 -4.17,20.16 -0.67,2.99 -0.41,5.96 -0.45,8.95 -0.02,1.63 -0.3,2.15 -1.42,2.35 -1.27,0.22 -2.21,-0.3 -2.52,-1.77 -0.42,-2.02 -0.68,-4.09 -0.88,-6.14 -0.51,-5.45 -0.69,-10.95 -1.52,-16.35 -0.56,-3.67 -1.95,-7.23 -3.03,-10.81 -0.53,-1.77 -1.1,-3.47 -0.75,-5.38 0.37,-1.99 -0.45,-3.83 -1.35,-5.49 -0.44,-0.81 -1.63,-1.22 -2.48,-1.8 -0.39,-0.27 -0.8,-0.51 -1.31,-0.83 0.98,-0.88 1.95,-1.6 2.72,-2.5 0.7,-0.82 1.36,-1.77 1.71,-2.78 0.42,-1.17 0.04,-1.5 -1.2,-1.52 -0.24,0 -0.48,0.04 -0.72,0.01 -0.88,-0.09 -1.21,-0.74 -0.78,-1.5 1,-1.79 0.83,-3.47 -0.4,-5.13 -1.02,-1.38 -1.99,-2.8 -2.88,-4.27 -0.23,-0.38 -0.22,-1.08 -0.03,-1.5 0.73,-1.67 0.43,-2.27 -1.31,-2.79 -1.94,-0.58 -3.84,-1.29 -5.73,-2.03 -6.97,-2.7 -12.75,-7.31 -18.68,-11.67 -1.23,-0.91 -2.37,-2.08 -3.22,-3.35 -4.34,-6.48 -8.35,-13.15 -10.84,-20.62 -0.32,-0.97 -0.17,-1.84 0.02,-2.86 0.25,-1.35 -0.24,-2.86 -0.54,-4.27 -0.02,-0.11 -1.13,-0.17 -1.63,0.03 -0.98,0.38 -1.9,0.94 -2.82,1.45 -0.93,0.52 -1.92,0.98 -2.74,1.65 -0.96,0.79 -1.92,1.07 -3.1,0.68 -1.21,-0.4 -2.41,-0.92 -3.66,-1.12 -1.79,-0.28 -3.63,-0.31 -5.45,-0.47 -1.14,-0.1 -2.32,-0.05 -3.39,-0.37 -3.87,-1.15 -7.67,-2.5 -11.76,-2.68 -0.64,-0.03 -1.34,-0.31 -1.89,-0.67 -1.03,-0.67 -2.09,-0.84 -3.3,-0.8 -3.04,0.11 -6.02,-0.19 -8.98,-1.13 -2.37,-0.76 -4.91,-1 -7.38,-1.44 -3.3,-0.58 -6.61,-1.13 -9.92,-1.69 -0.39,-0.07 -0.79,-0.13 -1.16,-0.27 -1.36,-0.52 -2.75,-0.99 -4.05,-1.64 -0.59,-0.3 -1,-0.96 -1.5,-1.46 C 0,129.48 0,129.32 0,129.16 Z m 133.56,52.5 c 2.09,0.69 2.61,1.3 3.17,3.75 0.2,0.88 0.6,1.23 1.49,1.1 0.86,-0.12 1.68,-0.01 1.76,-1.37 0.19,-3.15 0.6,-6.28 0.91,-9.43 0.4,-4.03 1.73,-7.58 4.82,-10.4 1.17,-1.07 2.05,-2.45 3.08,-3.67 2.54,-3.01 5.25,-5.81 9.08,-7.24 0.88,-0.33 1.65,-0.97 2.5,-1.4 1.38,-0.71 2.76,-1.42 4.17,-2.03 0.99,-0.42 1.79,-0.97 1.9,-2.09 0.14,-1.46 0.46,-2.98 0.24,-4.4 -0.59,-3.71 -1.47,-7.37 -3.9,-10.42 -0.15,-0.18 -0.24,-0.41 -0.32,-0.64 -1.44,-4.13 -2.61,-8.36 -2.56,-12.74 0.07,-6.52 -0.71,-12.91 -2.2,-19.24 -0.96,-4.08 -1.47,-8.28 -2.7,-12.27 -1.86,-6 -4.76,-11.25 -11.4,-13.41 -4.85,-1.58 -9.54,-3.64 -14.35,-5.36 -0.83,-0.29 -1.91,0 -2.85,0.17 -0.87,0.16 -1.7,0.75 -2.55,0.74 -3.37,-0.01 -6.61,0.42 -9.65,1.96 -0.78,0.4 -1.56,0.81 -2.37,1.14 -6.12,2.42 -10.87,5.91 -13.13,12.68 -2.91,8.72 -4.52,17.36 -2.49,26.46 0.22,1 0.37,2.1 0.18,3.08 -0.37,1.91 -0.84,3.84 -1.55,5.64 -1.14,2.89 -2.55,5.67 -3.8,8.52 -1.02,2.34 -1.94,4.73 -2.98,7.06 -0.75,1.68 -0.98,3.37 -0.45,5.13 0.83,2.79 1.56,5.63 2.57,8.35 0.47,1.25 1.37,2.44 2.35,3.36 1.03,0.97 2.32,1.72 3.61,2.31 2.65,1.21 5.37,2.25 8.07,3.34 2.52,1.02 5.04,1.98 6.86,4.19 2.57,3.12 4.28,6.61 5.13,10.56 0.39,1.83 0.74,3.7 1.44,5.41 0.56,1.36 0.61,2.49 -0.07,3.75 -0.78,1.44 -0.67,1.77 0.74,2.57 0.31,0.18 0.83,0.35 1.07,0.21 0.23,-0.13 0.37,-0.69 0.31,-1.03 -0.18,-1.11 0.31,-1.65 1.1,-1.84 1.07,1.12 1.96,2.22 3.02,3.12 1.31,1.12 1.95,0.84 2.29,-0.87 0.07,-0.37 -0.01,-0.78 -0.05,-1.17 -0.18,-1.79 -0.06,-3.49 1.65,-5.03 0.59,0.95 1.22,1.72 1.57,2.59 0.4,0.99 0.52,2.09 0.85,3.11 0.11,0.34 0.5,0.84 0.78,0.85 1.32,0.05 2.1,-0.06 2.15,-1.66 0.06,-1.1 0.33,-2.21 0.51,-3.44 z m -13.46,13.08 c -0.29,0.36 -0.77,0.69 -0.82,1.08 -0.09,0.78 0.36,1.51 1.18,1.43 0.44,-0.04 1.09,-0.71 1.17,-1.17 0.14,-0.77 -0.45,-1.2 -1.53,-1.34 z m 16.56,-4.67 c -0.4,-0.11 -0.74,-0.25 -1.08,-0.26 -0.08,0 -0.27,0.44 -0.23,0.65 0.04,0.23 0.29,0.42 0.47,0.67 0.31,-0.24 0.56,-0.43 0.88,-0.68 0.77,1.15 1.34,0.37 1.97,-0.18 -1,-0.89 -1,-0.89 -2.01,-0.2 z"
   id="path6"
   inkscape:connector-curvature="0"
   style="fill:#000000;fill-opacity:1" />
        <path
   class="st0"
   d="m 29.81,213.84 c 0.7,-0.85 1.35,-1.64 2.01,-2.43 2.9,-3.46 5.94,-6.75 9.21,-9.89 4.54,-4.36 8.48,-9.34 12.68,-14.05 1.25,-1.4 2.35,-2.99 3.79,-4.16 2.24,-1.82 3.01,-4.24 3.46,-6.88 0.17,-0.98 0.28,-1.98 0.46,-2.96 0.28,-1.51 1.13,-2.16 2.68,-2.13 1.81,0.03 2.74,-1.34 1.87,-2.97 -1.12,-2.11 -2.3,-4.22 -3.64,-6.19 -1.76,-2.6 -2.46,-5.42 -2.34,-8.51 0.08,-2.07 0.44,-2.45 2.44,-2.46 1.99,0 3.91,-0.23 5.69,-1.56 0.39,1.11 0.72,2.07 1.08,3.03 0.92,2.47 1.77,4.97 2.81,7.39 0.77,1.79 1.69,3.52 2.71,5.18 1.04,1.7 2.2,3.35 3.46,4.89 1.23,1.51 2.6,2.9 3.99,4.26 2.69,2.62 5.38,5.24 8.17,7.75 3.37,3.04 7.03,5.67 11.42,7.1 1.22,0.4 2.18,1.18 2.63,2.45 0.44,1.21 0.02,2.12 -1.17,2.6 -0.18,0.07 -0.38,0.11 -0.57,0.18 -1.79,0.63 -2.33,1.6 -2.07,3.51 0.1,0.76 0.02,1.54 0.02,2.72 -1.1,-0.49 -1.97,-0.69 -2.61,-1.19 -1.83,-1.42 -3.56,-2.96 -5.33,-4.46 -0.27,-0.23 -0.52,-0.51 -0.83,-0.69 -3.3,-1.95 -6.62,-3.85 -9.89,-5.84 -0.58,-0.35 -1.02,-0.98 -1.43,-1.54 -0.71,-0.98 -1.32,-0.99 -2.03,-0.01 -0.27,0.38 -0.58,0.78 -0.97,1.03 -1.61,1.03 -3.21,2.09 -4.91,2.97 -2.16,1.13 -4.39,2.15 -6.64,3.1 -1.51,0.64 -2.95,1.27 -4.24,2.37 -3.28,2.78 -7.22,4.53 -10.96,6.58 -1.29,0.7 -2.47,1.59 -3.72,2.37 -1.02,0.63 -2.12,1.13 -3.08,1.83 -3.06,2.24 -6.09,4.52 -9.08,6.85 -2.12,1.62 -2.8,1.66 -5.07,-0.24 z"
   id="path8"
   inkscape:connector-curvature="0"
   style="fill:#000000;fill-opacity:1" />
        <path
   class="st0"
   d="m 157.89,57.1 c 1.29,-0.35 2.34,-0.52 3.08,0.75 0.16,0.27 0.66,0.39 1.03,0.48 0.7,0.16 1.42,0.25 2.13,0.35 0.89,0.11 1.55,0.42 1.91,1.36 0.18,0.48 0.67,0.89 1.1,1.23 2.63,2.08 5.38,4.03 7.91,6.23 2.03,1.76 4.18,1.96 6.57,1.23 0.31,-0.09 0.66,-0.48 0.73,-0.8 0.19,-0.77 0.27,-1.57 0.32,-2.36 0.05,-0.71 0.25,-1.17 1.08,-1.02 1.48,0.27 2.62,-0.14 3.52,-1.44 0.38,-0.54 1.15,-0.82 1.77,-1.17 3.52,-1.96 7.2,-3.68 10.52,-5.94 2.09,-1.42 4.06,-2.88 6.45,-3.79 0.74,-0.28 1.21,-1.22 1.87,-1.78 0.7,-0.6 1.41,-1.29 2.25,-1.6 1.39,-0.52 2.48,-1.21 3.48,-2.37 1.9,-2.19 3.84,-4.41 6.81,-5.28 0.75,-0.22 1.41,-0.41 1.92,0.32 0.51,0.74 -0.03,1.25 -0.5,1.76 -2.91,3.14 -6.02,6.11 -8.65,9.46 -3.45,4.4 -6.55,9.07 -9.71,13.68 -0.75,1.1 -1.14,2.45 -1.74,3.66 -0.45,0.93 -0.94,1.84 -1.47,2.73 -1.04,1.75 -2.18,3.44 -3.17,5.21 -1.03,1.84 -2.61,3 -4.44,3.86 -0.48,0.23 -1.16,-0.01 -1.73,0.07 -0.63,0.09 -1.5,0.12 -1.79,0.52 -0.24,0.33 0.18,1.18 0.39,1.77 0.32,0.87 0.73,1.71 1.07,2.57 0.4,0.99 0.67,2.05 1.15,3 1.82,3.6 3.72,7.15 5.54,10.75 0.35,0.7 0.51,1.5 0.74,2.26 0.52,1.71 0.99,3.44 1.57,5.13 0.73,2.15 0.29,3.07 -1.92,3.54 -1.52,0.32 -3.06,0.57 -4.6,0.8 -1.19,0.18 -2.01,-0.35 -2.51,-1.74 -1.17,-3.23 -2.41,-6.44 -3.38,-9.73 -2.13,-7.23 -6.34,-13.31 -10.55,-19.38 -0.99,-1.43 -2.65,-2.4 -4.01,-3.57 -0.82,-0.7 -1.65,-1.39 -2.51,-2.05 -0.71,-0.55 -1.34,-1.1 -1.37,-2.11 -0.01,-0.31 -0.24,-0.71 -0.49,-0.92 -1.32,-1.1 -2.65,-2.18 -4.02,-3.22 -2.03,-1.55 -4.11,-3.04 -6.14,-4.59 -0.72,-0.55 -1.41,-0.96 -2.39,-0.84 -0.41,0.05 -1.15,-0.28 -1.26,-0.59 -0.14,-0.43 0.02,-1.14 0.33,-1.5 0.69,-0.82 1.52,-1.53 2.35,-2.22 0.88,-0.7 1.33,-1.49 0.76,-2.71 z"
   id="path10"
   inkscape:connector-curvature="0"
   style="fill:#000000;fill-opacity:1" />
        <path
   class="st0"
   d="m 200.17,154.05 c -1.7,4.16 -3.36,8.21 -5.02,12.26 -0.76,1.85 -1.52,3.69 -2.28,5.53 -0.09,0.22 -0.2,0.44 -0.29,0.66 -0.51,1.21 -1.03,2.72 -0.11,3.61 0.61,0.59 2.17,0.38 3.26,0.24 1.52,-0.2 1.8,-0.03 2.12,1.42 0.27,1.23 0.57,2.54 1.22,3.59 2.17,3.49 4.43,6.92 6.79,10.28 2.06,2.93 4.37,5.7 6.46,8.61 0.75,1.05 1.29,2.3 1.75,3.52 1.11,2.99 2.42,5.81 4.86,8 0.74,0.67 1.27,1.65 1.7,2.58 0.58,1.23 -0.01,1.99 -1.34,1.92 -1.75,-0.1 -3.21,-0.66 -4.33,-2.16 -1.88,-2.51 -4.34,-4.35 -7.25,-5.54 -1.92,-0.79 -3.52,-1.87 -4.27,-3.92 -0.05,-0.15 -0.13,-0.31 -0.24,-0.41 -2.18,-1.9 -4.18,-4.07 -6.6,-5.59 -2.25,-1.42 -4.52,-2.67 -6.13,-4.85 -0.47,-0.64 -0.96,-1.33 -1.59,-1.78 -0.57,-0.4 -1.38,-0.77 -2.03,-0.69 -1.83,0.22 -3.37,-0.59 -4.89,-1.29 -0.45,-0.21 -0.55,-1.25 -0.71,-1.94 -0.05,-0.21 0.21,-0.5 0.32,-0.76 0.33,-0.8 0.62,-1.63 -0.12,-2.34 -0.76,-0.72 -1.61,-0.44 -2.46,-0.11 -0.53,0.21 -1.13,0.25 -1.68,0.42 -0.67,0.21 -1.38,0.38 -1.98,0.72 -1.7,0.96 -3.34,2.01 -5.02,3 -1.82,1.07 -3.71,2.04 -5.48,3.19 -2.13,1.39 -4.48,1.39 -6.83,1.19 -1.36,-0.11 -2.39,-1.08 -3.05,-2.3 -0.58,-1.05 -0.37,-1.78 0.67,-2.42 5.17,-3.18 10.29,-6.45 15.54,-9.51 6.9,-4.02 12.58,-9.22 16.86,-16.01 1.87,-2.97 3.32,-6.09 4.48,-9.37 0.24,-0.68 0.47,-1.37 0.82,-1.99 0.6,-1.09 1.89,-1.34 2.72,-0.44 0.79,0.86 1.66,1.41 2.79,1.72 0.52,0.19 0.99,0.72 1.34,0.96 z m -40.56,37.29 c 1.69,1.19 3.87,0.9 5.05,-0.7 0.2,-0.27 0.24,-0.77 0.13,-1.08 -0.06,-0.17 -0.63,-0.24 -0.94,-0.2 -0.83,0.11 -1.65,0.46 -2.46,0.42 -1.23,-0.06 -1.63,0.55 -1.78,1.56 z m 29.12,-15.43 c 0.45,-0.73 0.8,-1.16 0.97,-1.66 0.06,-0.16 -0.33,-0.48 -0.52,-0.73 -0.39,0.43 -0.83,0.83 -1.14,1.32 -0.07,0.1 0.3,0.5 0.69,1.07 z m -3.07,11.14 c -0.12,-0.01 -0.24,-0.02 -0.37,-0.02 -0.09,0.47 -0.35,1.02 -0.2,1.39 0.13,0.32 0.74,0.45 1.14,0.66 0.07,-0.09 0.13,-0.17 0.2,-0.26 -0.26,-0.59 -0.51,-1.18 -0.77,-1.77 z"
   id="path12"
   inkscape:connector-curvature="0"
   style="fill:#000000;fill-opacity:1" />
        <path
   class="st0"
   d="m 102.09,58.91 c -1.38,-0.23 -2.27,0.18 -2.64,1.62 -0.1,0.39 -0.66,0.74 -1.09,0.94 -0.86,0.41 -1.85,0.57 -2.66,1.06 -3.94,2.36 -7.89,4.69 -11.13,8.06 -1.88,1.95 -4.02,3.65 -6.02,5.49 -0.37,0.34 -0.64,0.79 -0.94,1.2 -0.24,0.32 -0.4,0.76 -0.71,0.94 -2.86,1.65 -3.88,4.67 -5.42,7.28 -3.36,5.69 -5.81,11.8 -8.07,17.98 -0.4,1.1 -0.56,2.31 -0.72,3.49 -0.12,0.9 -0.45,1.24 -1.33,0.92 -0.22,-0.08 -0.47,-0.13 -0.67,-0.25 -1.63,-0.97 -3.28,-0.68 -4.97,-0.18 -0.53,0.16 -1.32,0.2 -1.71,-0.08 -0.73,-0.52 -1.09,-1.39 -0.72,-2.35 0.44,-1.16 0.84,-2.33 1.36,-3.45 1.17,-2.53 2.41,-5.04 3.61,-7.56 0.57,-1.19 1.23,-2.34 1.66,-3.58 0.75,-2.18 1.82,-4.14 3.29,-5.93 0.48,-0.58 0.7,-1.53 0.69,-2.31 -0.02,-1.11 0.31,-1.75 1.39,-2.03 0.71,-0.18 1.37,-0.43 1.49,-1.33 0.18,-1.31 -0.14,-1.69 -1.44,-1.93 -0.53,-0.1 -1.09,-0.42 -1.49,-0.79 -0.67,-0.62 -1.22,-1.37 -1.84,-2.05 -2,-2.17 -3.69,-4.48 -4.26,-7.49 C 57.52,65.35 56.91,64.17 56.37,63.02 55.76,61.74 54.94,60.63 53.58,60.01 53.12,59.8 52.7,59.44 52.35,59.07 50.36,56.89 48.36,54.7 46.44,52.45 46,51.93 45.86,51.17 45.54,50.54 45.3,50.06 45.09,49.51 44.72,49.15 c -1.39,-1.38 -2.83,-2.71 -4.25,-4.06 -0.15,-0.14 -0.29,-0.27 -0.44,-0.41 -0.61,-0.55 -1.14,-1.36 -0.49,-1.94 0.67,-0.6 1.33,-0.04 1.94,0.68 2.68,3.18 5.86,5.52 10.28,5.62 0.65,0.01 1.31,0.54 1.92,0.89 0.48,0.27 0.89,0.66 1.37,0.96 1.95,1.22 3.9,2.45 5.88,3.63 1.06,0.63 2.14,1.25 3.29,1.68 3.06,1.15 5.86,2.69 8.42,4.73 0.82,0.66 1.9,0.98 2.84,1.51 0.97,0.55 1.92,1.15 2.87,1.73 1.56,0.95 2.37,0.67 3.27,-0.84 0.34,-0.58 1.06,-1.05 1.71,-1.33 2.52,-1.09 5.07,-2.12 7.63,-3.1 1.67,-0.64 3.41,-1.11 5.08,-1.78 1.44,-0.58 2.84,-1.27 4.2,-2.01 0.87,-0.47 1.6,-0.63 2.38,0.1 0.38,0.35 0.87,0.58 1.23,0.95 0.38,0.4 1.01,1.22 0.94,1.29 -0.54,0.57 -1.21,1.04 -1.88,1.46 -0.23,0.11 -0.57,0 -0.82,0 z M 58.8,102.74 c -0.25,0.29 -0.56,0.56 -0.73,0.9 -0.15,0.29 -0.13,0.66 -0.19,1 0.39,0.06 0.85,0.28 1.17,0.16 0.86,-0.34 0.78,-1.2 -0.25,-2.06 z m 7.04,-29.17 c -0.17,0.21 -0.34,0.41 -0.51,0.62 0.4,0.36 0.79,0.73 1.23,1.05 0.03,0.02 0.4,-0.43 0.61,-0.67 -0.44,-0.34 -0.88,-0.67 -1.33,-1 z"
   id="path14"
   inkscape:connector-curvature="0"
   style="fill:#000000;fill-opacity:1" />
        <path
   class="st0"
   d="m 100.56,136.89 c 0.47,-1.44 1.75,-2.14 3.45,-1.62 3.54,1.1 7.07,2.24 10.56,3.51 2.25,0.81 4.41,1.87 6.61,2.82 2.89,1.25 3.35,3.16 1.69,5.83 -1.5,2.41 -3.19,4.64 -5.08,6.75 -1.01,1.12 -2.25,1.35 -3.6,1.02 -2.72,-0.66 -5.41,-1.4 -8.12,-2.08 -0.5,-0.13 -1.02,-0.23 -1.53,-0.21 -1.98,0.09 -3.54,-0.73 -4.93,-2.07 -1.24,-1.19 -2.51,-2.35 -3.84,-3.43 -2.13,-1.73 -2.63,-4.73 -0.9,-6.81 1.47,-1.76 3.3,-3.08 5.69,-3.71 z"
   id="path16"
   inkscape:connector-curvature="0"
   style="fill:#000000;fill-opacity:1" />
        <path
   class="st0"
   d="m 135.94,142.39 c 1.03,-0.29 2.1,-0.47 3.07,-0.89 2.2,-0.95 4.3,-2.11 6.52,-3.02 3.24,-1.33 6.53,-2.57 9.83,-3.72 1.85,-0.64 3.49,0.21 4.35,1.98 0.16,0.32 0.29,0.66 0.44,0.99 2.1,4.85 0.53,9.23 -4.22,11.6 -1.89,0.95 -3.81,1.86 -5.79,2.59 -1.32,0.49 -2.78,0.61 -4.17,0.96 -0.84,0.21 -1.72,0.4 -2.45,0.83 -2.37,1.4 -4.75,1.11 -6.6,-0.9 -0.46,-0.5 -0.95,-1 -1.51,-1.34 -2.16,-1.31 -2.83,-3.41 -2.97,-5.71 -0.12,-2 1.58,-3.62 3.5,-3.37 z"
   id="path18"
   inkscape:connector-curvature="0"
   style="fill:#000000;fill-opacity:1" />
        <path
   class="st0"
   d="m 128.95,164.9 c -0.89,1.2 -1.76,2.34 -2.57,3.51 -0.64,0.92 -1.29,1.05 -2.16,0.28 -0.65,-0.58 -1.42,-1.03 -2.12,-1.56 -0.71,-0.55 -0.89,-1.26 -0.61,-2.13 0.95,-2.91 1.89,-5.82 2.81,-8.74 0.41,-1.29 0.74,-2.61 1.21,-3.88 0.55,-1.5 1.58,-1.92 3.05,-1.3 1.61,0.68 2.88,1.86 3.51,3.44 1.39,3.47 2.66,7 3.85,10.54 0.44,1.3 -0.9,3.31 -2.56,4.25 -1.13,0.64 -2.41,0.42 -3.64,-0.61 -0.49,-0.41 -0.56,-0.77 -0.09,-1.3 0.92,-1 0.76,-1.62 -0.68,-2.5 z"
   id="path20"
   inkscape:connector-curvature="0"
   style="fill:#000000;fill-opacity:1" />
    </g>
</g>
</svg>