<?xml version="1.0" encoding="UTF-8" standalone="no"?>
<!-- Generator: Adobe Illustrator 23.0.4, SVG Export Plug-In  -->

<svg
   xmlns:dc="http://purl.org/dc/elements/1.1/"
   xmlns:cc="http://creativecommons.org/ns#"
   xmlns:rdf="http://www.w3.org/1999/02/22-rdf-syntax-ns#"
   xmlns:svg="http://www.w3.org/2000/svg"
   xmlns="http://www.w3.org/2000/svg"
   xmlns:sodipodi="http://sodipodi.sourceforge.net/DTD/sodipodi-0.dtd"
   xmlns:inkscape="http://www.inkscape.org/namespaces/inkscape"
   version="1.1"
   x="0px"
   y="0px"
   width="249.25"
   height="249.25"
   viewBox="0 0 249.25 249.25"
   xml:space="preserve"
   id="svg27"
   sodipodi:docname="sentience.svg"
   inkscape:version="0.92.3 (2405546, 2018-03-11)"><metadata
   id="metadata31"><rdf:RDF><cc:Work
       rdf:about=""><dc:format>image/svg+xml</dc:format><dc:type
         rdf:resource="http://purl.org/dc/dcmitype/StillImage" /><dc:title /></cc:Work></rdf:RDF></metadata><sodipodi:namedview
   pagecolor="#ffffff"
   bordercolor="#666666"
   borderopacity="1"
   objecttolerance="10"
   gridtolerance="10"
   guidetolerance="10"
   inkscape:pageopacity="0"
   inkscape:pageshadow="2"
   inkscape:window-width="1920"
   inkscape:window-height="1017"
   id="namedview29"
   showgrid="false"
   inkscape:zoom="0.94684052"
   inkscape:cx="-211.4693"
   inkscape:cy="124.625"
   inkscape:window-x="-8"
   inkscape:window-y="-8"
   inkscape:window-maximized="1"
   inkscape:current-layer="svg27" />
<style
   type="text/css"
   id="style2">
    .st0{fill:#FFFFFF;}
</style>
<defs
   id="defs4">
</defs>
<g
   id="csUGfn_2_"
   transform="translate(11.330052,0.01344151)"
   style="fill:#000000;fill-opacity:1">
    <g
   id="g24"
   style="fill:#000000;fill-opacity:1">
        <path
   class="st0"
   d="m 0,116.18 c 1.44,-0.72 2.7,-0.29 4.06,0.41 1.21,0.62 2.59,1.2 3.92,1.26 3.43,0.16 6.87,0.09 10.3,-0.03 1.74,-0.06 3.26,-0.88 4.38,-2.22 3.77,-4.49 8.68,-4.94 13.97,-3.99 1.68,0.3 3.31,0.95 5,1.21 1.01,0.16 2.22,0.16 3.1,-0.26 2.62,-1.23 5.13,-2.69 7.67,-4.09 0.83,-0.46 1.65,-0.46 2.07,0.39 0.42,0.85 0.7,1.85 0.74,2.8 0.12,2.66 0.1,5.34 0.11,8.01 0,0.91 0.15,1.91 -0.17,2.71 -0.73,1.85 -0.46,3.67 -0.31,5.54 0.17,2.1 0.56,4.22 -0.22,6.29 -0.65,1.74 -1.67,2.09 -2.77,0.65 -1.76,-2.32 -4.14,-3.4 -6.75,-4.27 -1.09,-0.37 -2.17,-0.82 -3.19,-1.36 -1.64,-0.87 -3.13,-0.75 -4.76,0.14 -1.67,0.91 -3.47,1.6 -5.24,2.3 -2.29,0.9 -4.56,0.19 -6.84,-0.17 -2.56,-0.4 -5.13,-0.69 -7.69,-1.09 -0.82,-0.13 -1.72,-0.26 -2.39,-0.69 -2.58,-1.65 -5.31,-3.17 -7.56,-5.21 -2.7,-2.44 -4.97,-5.36 -7.43,-8.07 0,-0.1 0,-0.18 0,-0.26 z m 48.63,9.17 c 0.41,0.54 0.67,0.86 0.92,1.19 0.39,-0.45 0.94,-0.85 1.12,-1.37 0.08,-0.24 -0.57,-0.72 -0.9,-1.09 -0.34,0.38 -0.69,0.77 -1.14,1.27 z m 1.03,-4.78 c 0,0.2 -0.01,0.41 -0.01,0.61 0.52,0.09 1.05,0.18 1.57,0.27 -0.02,-0.35 -0.05,-0.71 -0.07,-1.06 -0.5,0.05 -0.99,0.11 -1.49,0.18 z"
   id="path6"
   inkscape:connector-curvature="0"
   style="fill:#000000;fill-opacity:1" />
        <path
   class="st0"
   d="m 105.85,57.74 c -0.54,0.48 -1.08,0.96 -1.62,1.44 0.07,0.14 0.15,0.27 0.22,0.41 0.44,-0.05 0.92,-0.01 1.32,-0.17 1.46,-0.57 3.13,-0.73 4.13,-2.2 0.17,-0.25 0.63,-0.4 0.96,-0.42 2.32,-0.13 4.64,-0.17 6.74,1.11 0.3,0.18 0.62,0.39 0.96,0.45 2.5,0.43 5.01,0.81 7.51,1.26 0.65,0.12 1.31,0.38 1.9,0.69 1.93,1.02 3.78,2.2 5.76,3.12 1.98,0.93 3.67,2.08 4.77,4.01 0.35,0.62 0.82,1.19 1.3,1.72 3.28,3.62 5.51,7.81 6.78,12.52 0.57,2.09 1.18,4.12 3.33,5.31 0.56,0.31 0.91,1.34 1,2.08 0.32,2.69 0.52,5.4 0.7,8.11 0.43,6.7 0.74,13.41 1.26,20.1 0.14,1.84 0.9,3.63 1.3,5.46 0.17,0.77 0.28,1.59 0.2,2.37 -0.63,6.07 0.53,11.85 2.65,17.49 0.04,0.11 0.13,0.22 0.13,0.33 0.16,2.38 1.35,3.5 3.8,3.72 1.91,0.17 2.18,1.32 1.01,2.86 -2.05,2.7 -4.04,5.44 -6.06,8.17 -0.14,0.19 -0.25,0.44 -0.44,0.56 -1.63,1.1 -3.2,2.32 -4.94,3.2 -0.63,0.32 -1.77,0.05 -2.49,-0.32 -2.01,-1.02 -3.74,-1.2 -5.62,0.42 -1.12,0.97 -2.64,1.47 -3.99,2.15 -1.16,0.59 -1.86,1.5 -2.4,2.69 -2.2,4.86 -3.84,9.87 -4.73,15.16 -0.38,2.26 -1.2,4.47 -2.07,6.6 -1.25,3.05 -2.12,6.17 -2.77,9.39 -0.29,1.42 -1.18,2.76 -1.98,4.03 -0.55,0.87 -1.75,0.95 -2.51,0.09 -0.99,-1.11 -1.84,-2.38 -2.56,-3.69 -0.8,-1.46 -1.39,-3.04 -2.08,-4.57 -0.37,-0.83 -1.04,-1.17 -1.93,-1.15 -4.52,0.1 -9.03,0.21 -13.55,0.31 -1.14,0.03 -1.85,0.6 -2.18,1.7 -0.64,2.18 -1.32,4.36 -1.96,6.54 -0.36,1.2 -0.89,1.56 -2.12,1.39 -1.37,-0.18 -2.38,-0.87 -3.03,-2.09 -2,-3.8 -3.64,-7.75 -4.27,-12.02 -0.27,-1.84 -0.37,-3.78 -0.09,-5.61 0.32,-2.15 0.12,-4.19 -0.66,-6.11 -1.46,-3.58 -2.88,-7.21 -4.78,-10.56 -1.79,-3.15 -5.03,-4.56 -8.51,-5.25 -3.71,-0.73 -7.41,-0.17 -11.12,0.08 -0.87,0.06 -1.76,0.04 -2.63,-0.05 -1.63,-0.16 -2.64,-1.09 -3.24,-2.63 -1.31,-3.4 -1.67,-6.98 -2.03,-10.56 -0.03,-0.28 0.05,-0.6 -0.07,-0.83 -0.94,-1.83 -0.03,-3.12 1.07,-4.53 1.94,-2.49 3.15,-5.39 3.75,-8.47 0.79,-4.07 1.64,-8.15 2.06,-12.27 0.55,-5.35 0.86,-10.72 0.32,-16.14 -0.49,-4.92 0.24,-9.8 2.11,-14.46 0.54,-1.35 0.78,-2.83 1.16,-4.24 0.09,-0.35 0.13,-0.72 0.29,-1.03 2.56,-4.66 5.42,-9.06 8.68,-13.31 3.08,-4.02 7.34,-5.93 11.32,-8.41 3.88,-2.41 8.16,-4 12.68,-4.9 1.76,-0.35 3.48,-0.9 5.23,-1.28 0.66,-0.15 1.37,-0.08 2.06,-0.11 -0.03,0.13 -0.03,0.23 -0.03,0.34 z m 0.02,105.75 c 0.14,1.43 0.28,2.86 0.4,4.29 0.08,0.89 0.56,1.23 1.42,1.26 1.35,0.04 2.71,0.09 4.05,0.22 1.61,0.15 2.32,-0.27 2.26,-1.91 -0.16,-4.35 -0.43,-8.7 -0.75,-13.04 -0.09,-1.29 -1.77,-1.98 -2.61,-1.1 -2.69,2.89 -5.7,5.67 -4.77,10.28 z m 25.3,-14.91 c 0.39,-0.02 0.47,-0.03 0.55,-0.03 4.3,-0.37 10.79,-5.98 11.73,-10.13 0.2,-0.89 -0.21,-1.24 -1.03,-1.07 -1.25,0.26 -2.49,0.57 -3.72,0.89 -1.12,0.29 -1.98,0.89 -2.63,1.92 -0.29,0.47 -0.97,0.75 -1.54,0.97 -3.26,1.28 -6.53,2.51 -9.79,3.77 -0.11,0.04 -0.21,0.11 -0.31,0.19 -0.69,0.56 -0.7,1.29 0.13,1.57 2.28,0.74 4.59,1.35 6.61,1.92 z M 91.75,147.9 c -0.2,-1.48 -1.25,-2.2 -2.23,-2.92 -4.02,-2.92 -8.63,-4.61 -13.27,-6.2 -0.39,-0.13 -0.89,0.07 -1.34,0.12 0.05,0.42 0.05,0.85 0.17,1.25 0.8,2.58 2.73,4.24 4.75,5.84 1.41,1.12 2.92,1.89 4.77,1.99 1.07,0.06 2.15,0.22 3.19,0.48 1.39,0.34 2.66,0.15 3.96,-0.56 z m 5.14,49.24 c -1.6,0.21 -1.79,0.57 -1.34,2.56 0.43,-0.03 0.88,-0.05 1.39,-0.08 0,-0.64 0.01,-1.15 0,-1.66 0,-0.27 -0.03,-0.55 -0.05,-0.82 z M 97.01,60.2 c -0.61,0.23 -1.05,0.38 -1.47,0.55 -0.29,0.11 -0.59,0.22 -0.86,0.37 -0.15,0.08 -0.29,0.23 -0.34,0.39 -0.03,0.08 0.12,0.29 0.24,0.34 0.44,0.18 2.17,-0.87 2.43,-1.65 z m 26.76,137.09 c 0.17,0 0.33,0 0.5,-0.01 0.03,-0.52 0.07,-1.04 0.1,-1.56 -0.51,0.15 -1.02,0.29 -1.74,0.5 0.57,0.53 0.85,0.8 1.14,1.07 z m -28.9,-40.03 c 0.48,0.36 0.82,0.62 1.17,0.88 1.15,-0.75 0.32,-1.2 -0.19,-1.78 -0.31,0.28 -0.59,0.54 -0.98,0.9 z M 64.1,128.62 c -0.16,0.06 -0.31,0.12 -0.47,0.18 0,0.58 0,1.16 0,2.11 0.43,-0.38 0.86,-0.59 0.85,-0.77 -0.03,-0.51 -0.24,-1.01 -0.38,-1.52 z"
   id="path8"
   inkscape:connector-curvature="0"
   style="fill:#000000;fill-opacity:1" />
        <path
   class="st0"
   d="m 163.76,122.57 c -0.1,-0.95 -0.13,-1.91 -0.32,-2.85 -0.75,-3.76 0.33,-7.39 0.76,-11.06 0.14,-1.17 1.74,-2.28 2.98,-2.13 0.82,0.1 1.69,0.28 2.39,0.69 6.22,3.59 12.47,2.9 18.42,-0.3 4.96,-2.67 9.96,-2.43 15.14,-1.55 1.02,0.17 2.01,0.51 3.02,0.77 1.72,0.45 3.27,1.2 4.63,2.4 1.26,1.11 2.66,2.05 4.01,3.04 1.85,1.36 3.16,3.06 4.04,5.22 1.02,2.53 3.23,3.85 5.75,4.68 0.56,0.18 1.18,0.34 1.62,0.7 0.28,0.23 0.49,0.96 0.34,1.2 -0.21,0.32 -0.89,0.61 -1.23,0.5 -1.93,-0.63 -3.85,-1.31 -5.72,-2.1 -3.98,-1.7 -8.04,-3.15 -12.34,-3.69 -3.68,-0.47 -6.72,0.8 -9.07,3.78 -0.88,1.11 -2.11,1.94 -3.15,2.94 -2.06,1.98 -4.25,3.75 -7.13,4.42 -0.27,0.06 -0.53,0.23 -0.8,0.25 -3.61,0.23 -7.22,0.55 -10.83,0.6 -1.2,0.01 -2.43,-0.67 -3.61,-1.1 -0.97,-0.36 -1.88,-0.93 -2.87,-1.19 -0.77,-0.2 -1.68,-0.26 -2.42,-0.02 -0.83,0.27 -1.36,0.1 -1.94,-0.42 -1.26,-1.14 -1.81,-2.61 -1.67,-4.78 z m 24.25,1.05 c -0.04,-0.1 -0.07,-0.19 -0.11,-0.29 -0.59,0 -1.2,-0.1 -1.75,0.04 -0.33,0.08 -0.63,0.51 -0.81,0.85 -0.09,0.17 0.07,0.69 0.19,0.71 0.35,0.07 0.81,0.09 1.09,-0.09 0.51,-0.31 0.93,-0.8 1.39,-1.22 z"
   id="path10"
   inkscape:connector-curvature="0"
   style="fill:#000000;fill-opacity:1" />
        <path
   class="st0"
   d="m 199.28,37.65 c -0.05,0.13 -0.12,0.44 -0.26,0.72 -0.78,1.57 -1.49,3.19 -2.4,4.69 -0.88,1.46 -1.87,2.87 -2.98,4.15 -1.53,1.78 -3.16,3.49 -4.87,5.11 -1.35,1.28 -2.99,2.13 -4.85,2.46 -0.16,0.03 -0.3,0.11 -0.46,0.15 -2.67,0.67 -4.58,1.89 -4.85,5.04 -0.18,2.12 -0.89,4.21 -1.51,6.28 -0.91,3.05 -2.88,4.91 -6.19,5.11 -0.56,0.03 -1.11,0.14 -1.67,0.19 -2.07,0.21 -4,0.75 -5.47,2.38 -0.34,0.38 -0.76,0.72 -1.2,0.99 -1.68,1.05 -2.74,2.44 -3.07,4.47 -0.1,0.63 -0.88,1.49 -1.46,1.6 -0.58,0.11 -1.43,-0.48 -1.95,-0.98 -1.31,-1.27 -2.54,-2.63 -3.72,-4.02 -0.55,-0.65 -1.02,-1.44 -1.31,-2.24 -1.32,-3.68 -3.22,-6.94 -6.22,-9.52 -1.54,-1.33 -2.99,-2.77 -4.48,-4.17 -0.45,-0.42 -0.82,-0.93 0,-1.31 2.98,-1.37 5.97,-2.7 9.38,-2.5 2.26,0.13 4.54,0.16 6.81,0.15 0.99,0 1.98,-0.23 2.98,-0.32 1.8,-0.17 2.95,-1.18 3.52,-2.83 0.67,-1.96 1.33,-3.93 1.81,-5.95 0.56,-2.36 1.96,-3.74 4.26,-4.36 3.31,-0.9 6.6,-1.15 9.91,0.01 1.09,0.38 2.22,0.65 3.34,0.96 4.11,1.14 7.62,-0.22 10.81,-2.68 1.4,-1.07 2.23,-2.6 2.6,-4.34 0.19,-0.91 0.38,-1.78 1.61,-1.62 0.96,0.13 1.89,1.2 1.89,2.38 z m -37.25,33.31 c -0.11,-0.12 -0.22,-0.24 -0.34,-0.36 -0.68,-0.03 -1.52,-0.36 -1.7,0.69 -0.05,0.27 0.42,0.63 0.65,0.95 0.46,-0.42 0.93,-0.85 1.39,-1.28 z m 9.6,-3.64 c 0.07,0.07 0.14,0.14 0.2,0.21 0.42,-0.19 0.9,-0.32 1.24,-0.61 0.23,-0.19 0.34,-0.6 0.38,-0.92 0.02,-0.14 -0.33,-0.46 -0.44,-0.44 -0.31,0.08 -0.68,0.24 -0.85,0.49 -0.26,0.37 -0.36,0.85 -0.53,1.27 z"
   id="path12"
   inkscape:connector-curvature="0"
   style="fill:#000000;fill-opacity:1" />
        <path
   class="st0"
   d="m 99.23,0.73 c 1.15,-0.89 2.04,-0.93 2.95,-0.33 0.93,0.62 1.98,1.12 2.76,1.89 2.4,2.39 4.74,4.84 7.01,7.35 2,2.22 3.32,4.78 3.36,7.87 0,0.36 0.05,0.73 0.17,1.06 0.91,2.39 0.16,4.35 -1.45,6.16 -1.71,1.93 -2.61,4.15 -1.21,6.57 0.73,1.26 1.89,2.33 3.02,3.29 0.8,0.68 1.88,1.03 2.84,1.52 3.88,1.97 5.85,5.17 6.11,9.47 0.07,1.16 0.12,2.32 0.16,3.47 0.09,2.72 -1.66,4.08 -4.18,3.09 -3.81,-1.5 -7.78,-2.08 -11.82,-2.28 -1.47,-0.07 -2.96,0.18 -4.43,0.1 -1.61,-0.09 -3.2,-0.39 -4.81,-0.59 -0.35,-0.04 -0.71,-0.12 -1.05,-0.07 -2.61,0.34 -5.23,0.67 -7.83,1.06 -1.04,0.16 -1.44,-0.09 -1.65,-1.23 -0.29,-1.59 0.02,-2.79 1.2,-3.86 0.83,-0.75 1.51,-1.65 2.34,-2.41 1.55,-1.42 2.29,-3.13 2.19,-5.22 -0.03,-0.76 -0.07,-1.52 -0.06,-2.28 0.01,-0.9 -0.32,-1.49 -1.19,-1.86 -0.38,-0.16 -0.78,-0.62 -0.88,-1.01 -0.9,-3.57 -0.39,-6.9 1.94,-9.84 0.41,-0.52 0.97,-0.94 1.51,-1.35 0.86,-0.64 1.72,-1.31 2.66,-1.83 3.1,-1.73 4.76,-4.5 5.75,-7.77 0.73,-2.42 0.17,-4.6 -1.42,-6.49 C 102.4,4.24 101.37,3.45 100.5,2.51 100.01,1.99 99.66,1.35 99.23,0.73 Z m -5.3,47.35 c 0.7,-0.54 1.23,-0.96 1.76,-1.37 -0.32,-0.28 -0.75,-0.86 -0.93,-0.79 -0.63,0.24 -1.18,0.71 -1.76,1.09 0.26,0.29 0.5,0.57 0.93,1.07 z"
   id="path14"
   inkscape:connector-curvature="0"
   style="fill:#000000;fill-opacity:1" />
        <path
   class="st0"
   d="m 70.49,60.06 c -0.43,0.37 -0.7,0.59 -0.95,0.82 -1.55,1.37 -3.31,2.57 -4.61,4.14 -2.23,2.7 -4.18,5.63 -6.25,8.46 -0.12,0.16 -0.23,0.33 -0.38,0.46 -2.72,2.66 -3.64,6.02 -3.8,9.68 -0.03,0.7 -0.13,1.4 -0.2,2.08 -1.14,0.16 -1.85,-0.25 -2.37,-1.05 -0.92,-1.4 -1.85,-2.79 -2.74,-4.21 -0.66,-1.05 -1.25,-2.14 -1.87,-3.21 -1.03,-1.78 -2.64,-2.69 -4.61,-2.38 -5.96,0.95 -11.42,-3.91 -12.82,-10.48 -0.3,-1.4 0.32,-2.98 0.46,-4.47 0.21,-2.1 0.42,-4.19 0.51,-6.3 0.02,-0.47 -0.37,-1.07 -0.75,-1.43 -2.59,-2.5 -5.17,-5.03 -8.87,-5.9 -0.52,-0.12 -0.94,-0.65 -1.51,-1.06 0.4,-0.43 0.64,-0.93 0.99,-1.03 2.21,-0.58 4.43,-1.18 6.68,-1.55 1.2,-0.2 2.47,0.12 3.7,0.07 2.33,-0.09 4.52,0.41 6.64,1.33 1.21,0.52 2.39,1.12 3.64,1.55 1.8,0.63 2.8,1.89 3.29,3.66 0.51,1.84 0.97,3.71 1.6,5.51 0.56,1.61 0.83,1.63 2.5,1.45 3.93,-0.44 7.85,-0.91 11.79,-1.2 0.9,-0.07 1.9,0.42 2.75,0.87 0.84,0.44 1.5,1.21 2.32,1.7 1.21,0.72 2.5,1.32 3.76,1.97 0.27,0.15 0.56,0.27 1.1,0.52 z"
   id="path16"
   inkscape:connector-curvature="0"
   style="fill:#000000;fill-opacity:1" />
        <path
   class="st0"
   d="m 186.4,188.84 c -0.8,0.29 -2.34,0.87 -3.9,1.44 -2.43,0.88 -4.81,1.98 -7.31,2.54 -1.23,0.27 -2.79,-0.26 -4.03,-0.81 -3.05,-1.33 -5.11,-3.6 -5.75,-7 -0.58,-3.09 -3.03,-5.02 -6.23,-4.88 -1.84,0.08 -3.67,0.25 -5.5,0.43 -2.91,0.29 -5.29,-1.03 -6.96,-3.09 -1.42,-1.75 -2.19,-4.07 -1.43,-6.5 0.4,-1.26 1.3,-2.04 2.49,-2.59 1.18,-0.55 2.29,-1.25 3.44,-1.89 0.28,-0.16 0.54,-0.38 0.83,-0.46 3.15,-0.89 5.22,-3.39 7.71,-5.23 1.01,-0.74 1.97,-1.24 3.19,-1.44 0.58,-0.1 1.28,-0.52 1.57,-1.01 0.58,-0.97 1.36,-1.22 2.21,-0.76 1.21,0.66 2.49,1.37 3.37,2.38 1.2,1.36 2.18,2.97 3.01,4.59 0.38,0.74 0.34,1.8 0.23,2.68 -0.48,3.72 1.16,6.68 3.81,8.84 1.34,1.09 3.61,1.02 5.43,1.55 2.21,0.64 4.42,1.3 6.58,2.08 0.8,0.29 1.56,0.87 2.14,1.5 3.36,3.61 5.85,7.66 6.17,12.75 0.01,0.2 0.07,0.44 -0.02,0.59 -0.32,0.52 -0.69,1 -1.04,1.49 -0.4,-0.44 -1.07,-0.83 -1.16,-1.32 -0.25,-1.44 -0.42,-2.86 -1.76,-3.77 -1.83,-1.28 -3.92,-2 -7.09,-2.11 z"
   id="path18"
   inkscape:connector-curvature="0"
   style="fill:#000000;fill-opacity:1" />
        <path
   class="st0"
   d="m 25.36,189.68 c 1.41,0.24 2.81,0.5 4.21,0.72 0.59,0.09 1.21,0.24 1.78,0.14 2.91,-0.48 5.85,-0.86 8.69,-1.61 3.51,-0.93 5.71,-3.24 6,-7.05 0.03,-0.4 0.14,-0.8 0.1,-1.19 -0.3,-3.28 1.43,-5.84 3.11,-8.34 0.65,-0.96 1.82,-1.63 2.87,-2.23 0.81,-0.46 1.79,-0.66 2.72,-0.89 1.62,-0.4 3.13,-0.78 4.63,-1.79 1.52,-1.03 3.68,-1.17 5.58,-1.56 1.04,-0.21 2.18,-0.32 3.21,-0.14 2.78,0.48 4.32,2.43 5.14,4.97 0.43,1.32 0.61,2.72 0.89,4.09 0.03,0.15 0.06,0.33 0.02,0.47 -0.59,1.82 -1.06,3.68 -1.82,5.43 -0.91,2.07 -2.75,3.24 -4.85,3.79 -3.33,0.87 -5.77,2.78 -7.5,5.71 -0.69,1.16 -1.36,2.35 -2.98,2.51 -0.39,0.04 -0.75,0.65 -1.09,1.03 -1.97,2.26 -4.24,4.08 -7.32,4.48 -2.82,0.37 -5.62,0.4 -8.4,-0.58 -2.25,-0.79 -4.67,-1.07 -6.91,-1.88 -2.27,-0.83 -4.42,-2.01 -6.61,-3.07 -1.16,-0.55 -1.6,-1.43 -1.47,-3.01 z"
   id="path20"
   inkscape:connector-curvature="0"
   style="fill:#000000;fill-opacity:1" />
        <path
   class="st0"
   d="m 108.51,198.63 c 1.52,0.09 3.04,0.09 4.54,0.32 0.72,0.11 1.51,0.51 2.04,1.01 1.8,1.73 2.7,4.04 3.47,6.34 0.24,0.71 -0.07,1.73 -0.42,2.47 -0.52,1.11 -1.3,2.1 -1.97,3.14 -1.39,2.16 -1.16,4.1 0.66,5.93 0.73,0.74 1.51,1.45 2.11,2.28 2.21,3.05 1.74,6.33 -1.22,8.64 -2.2,1.72 -4.42,3.42 -6.67,5.08 -3.94,2.91 -3.27,7.34 -1.11,10.16 0.89,1.16 1.64,2.44 2.35,3.71 0.22,0.39 0.12,0.97 0.16,1.46 -0.53,-0.01 -1.14,0.16 -1.56,-0.05 -0.98,-0.49 -1.93,-1.1 -2.8,-1.78 -1.73,-1.34 -3.37,-2.78 -5.09,-4.12 -2.12,-1.64 -3.36,-3.84 -4.03,-6.36 -0.38,-1.41 0.33,-2.62 1.07,-3.81 1.84,-2.97 2.73,-6.2 2.24,-9.71 -0.3,-2.15 -1.56,-3.8 -3.06,-5.3 -1.74,-1.75 -3.45,-3.54 -5.14,-5.35 -0.96,-1.02 -0.66,-3.77 0.52,-4.52 0.73,-0.46 1.57,-0.78 2.38,-1.1 2.23,-0.85 3.83,-2.33 4.49,-4.64 1.22,-4.29 2.34,-4.16 5.85,-3.86 0.4,0.03 0.8,0.05 1.2,0.07 -0.01,0.03 -0.01,0.01 -0.01,-0.01 z"
   id="path22"
   inkscape:connector-curvature="0"
   style="fill:#000000;fill-opacity:1" />
    </g>
</g>
</svg>