<?xml version="1.0" encoding="UTF-8" standalone="no"?>
<svg
   xmlns:dc="http://purl.org/dc/elements/1.1/"
   xmlns:cc="http://creativecommons.org/ns#"
   xmlns:rdf="http://www.w3.org/1999/02/22-rdf-syntax-ns#"
   xmlns:svg="http://www.w3.org/2000/svg"
   xmlns="http://www.w3.org/2000/svg"
   xmlns:sodipodi="http://sodipodi.sourceforge.net/DTD/sodipodi-0.dtd"
   xmlns:inkscape="http://www.inkscape.org/namespaces/inkscape"
   x="0px"
   y="0px"
   width="182.97"
   height="182.97"
   viewBox="0 0 182.97001 182.97"
   xml:space="preserve"
   version="1.1"
   id="svg23"
   sodipodi:docname="shield.svg"
   inkscape:version="0.92.3 (2405546, 2018-03-11)"><metadata
     id="metadata27"><rdf:RDF><cc:Work
         rdf:about=""><dc:format>image/svg+xml</dc:format><dc:type
           rdf:resource="http://purl.org/dc/dcmitype/StillImage" /><dc:title></dc:title></cc:Work></rdf:RDF></metadata><sodipodi:namedview
     pagecolor="#ffffff"
     bordercolor="#666666"
     borderopacity="1"
     objecttolerance="10"
     gridtolerance="10"
     guidetolerance="10"
     inkscape:pageopacity="0"
     inkscape:pageshadow="2"
     inkscape:window-width="1920"
     inkscape:window-height="1017"
     id="namedview25"
     showgrid="false"
     inkscape:zoom="1.2900404"
     inkscape:cx="-7.9486054"
     inkscape:cy="91.470001"
     inkscape:window-x="-8"
     inkscape:window-y="-8"
     inkscape:window-maximized="1"
     inkscape:current-layer="svg23" /><defs
     id="defs2" /><g
     id="YXPmMc_2_"
     transform="translate(2.9300006,0.0300503)"><g
       id="g20"><path
         d="m 177.12,84.06 c -0.31,2.16 -0.61,4.33 -0.93,6.49 -0.65,4.46 -1.37,8.91 -1.95,13.38 -0.82,6.34 -2.22,12.54 -4.09,18.65 -0.34,1.1 -0.75,2.19 -1.22,3.24 -0.96,2.16 -1.99,4.3 -3.1,6.69 -0.9,0.06 -1.86,-0.48 -2.69,-1.46 -1.08,-1.28 -2.25,-2.49 -3.34,-3.77 -1.09,-1.28 -2.63,-1.36 -4.1,-1.72 -1.14,-0.28 -2.22,-0.79 -3.34,-1.15 -1.55,-0.51 -3.09,-1.06 -4.66,-1.44 -1.33,-0.33 -2.13,-1.02 -1.96,-2.27 0.53,-3.96 1.06,-7.91 1.74,-11.85 0.48,-2.79 1.44,-5.51 1.74,-8.31 0.36,-3.45 0.28,-6.94 0.35,-10.41 0.09,-4.59 0.23,-9.18 0.17,-13.77 -0.09,-6.71 -1.07,-13.28 -3.48,-19.59 -0.11,-0.29 0.1,-0.81 0.33,-1.09 0.54,-0.66 1.31,-1.09 1.42,-2.11 0.04,-0.34 0.69,-0.71 1.13,-0.91 2.73,-1.22 5.52,-2.31 8.2,-3.62 2.42,-1.18 4.2,-3.01 4.82,-5.77 0.15,-0.67 0.52,-1.3 0.79,-1.94 0.15,-0.07 0.29,-0.15 0.44,-0.22 0.26,0.4 0.48,0.84 0.79,1.19 0.32,0.35 0.7,0.8 1.11,0.86 1.7,0.25 2.32,1.49 2.93,2.84 2.09,4.61 4.35,9.16 5.36,14.18 0.21,1.05 0.47,2.11 0.6,3.17 0.38,3.17 0.32,6.45 1.16,9.48 0.88,3.17 1.03,6.41 1.75,9.57 0.03,0.54 0.03,1.1 0.03,1.66 z m -7.68,28.7 c 0.58,-0.49 1.21,-0.75 1.32,-1.16 0.5,-1.83 0.93,-3.7 1.19,-5.58 0.07,-0.47 -0.48,-1.25 -0.96,-1.51 -0.64,-0.35 -1.21,0.12 -1.41,0.85 -0.11,0.38 -0.17,0.78 -0.23,1.17 -0.13,0.73 -0.01,1.65 -0.41,2.17 -0.75,0.97 -0.6,1.95 -0.43,2.95 0.04,0.35 0.5,0.63 0.93,1.11 z m -6.1,16.43 c 0.67,0.07 1.37,-0.6 1.17,-1.25 -0.46,-1.51 -1.23,-2.84 -2.77,-3.54 -0.68,-0.31 -1.09,-0.18 -1.28,0.64 -0.29,1.3 1.54,4.01 2.88,4.15 z m -7.47,-5.53 c 0.66,-0.03 1.42,0.13 1.38,-0.96 -0.04,-1.23 -0.89,-2.13 -2.11,-2.13 -0.82,0 -1.25,0.42 -1.27,1.25 -0.03,1.18 0.64,1.79 2,1.84 z m -2.07,-6.23 c -0.05,-1 -0.61,-1.41 -1.54,-1.42 -0.87,-0.01 -1.07,0.52 -1.03,1.24 0.05,0.87 0.42,1.41 1.38,1.42 0.87,0.01 1.18,-0.46 1.19,-1.24 z m -2.74,-55.6 c 0,-0.92 0.06,-1.75 -0.04,-2.56 -0.03,-0.23 -0.48,-0.45 -0.78,-0.57 -0.11,-0.04 -0.42,0.2 -0.51,0.37 -0.53,1.01 -0.03,2.22 1.33,2.76 z m 0.08,-6.13 c 0.87,-1.02 0.87,-1.09 0.15,-1.86 -1.01,0.97 -1.02,1.05 -0.15,1.86 z"
         id="path4"
         inkscape:connector-curvature="0"
         style="fill:#ffffff" /><path
         d="m 85.2,182.94 c -3.82,-0.53 -7.58,-1.31 -11.52,-0.85 -1.87,0.22 -3.89,-0.27 -5.76,-0.74 -3.36,-0.85 -6.61,-2.21 -10,-2.84 -3.26,-0.61 -5.68,-2.62 -8.46,-4.04 -3.95,-2.02 -7.34,-4.79 -10.71,-7.62 -0.51,-0.43 -0.93,-0.96 -1.54,-1.59 0.77,-0.39 1.33,-0.78 1.95,-0.97 4.55,-1.4 8.77,-3.39 12.49,-6.43 2.08,-1.7 4.61,-1.6 6.89,-0.23 0.89,0.53 2,0.68 2.99,1.07 0.79,0.31 1.69,0.56 2.28,1.11 1.64,1.57 3.49,2.42 5.77,2.53 2.27,0.11 4.53,0.53 6.8,0.61 3.06,0.1 6.14,0.07 9.2,-0.03 5.19,-0.16 10.4,-0.17 15.55,-0.71 4.07,-0.43 8.06,-1.56 12.08,-2.42 1.44,-0.31 2.84,-0.83 4.28,-1.14 2.81,-0.6 5.42,-1.65 7.8,-3.24 0.86,-0.58 1.52,-0.5 2.36,0.12 3.35,2.45 6.39,5.2 8.73,8.64 0.97,1.43 0.88,1.62 -0.57,2.66 -0.16,0.11 -0.35,0.24 -0.42,0.4 -0.86,1.94 -2.69,2.87 -4.16,4.21 -2.54,2.3 -5.52,3.75 -8.64,4.99 -1.51,0.6 -3.09,0.99 -4.64,1.49 -1.13,0.37 -2.24,0.82 -3.39,1.13 -0.83,0.23 -1.7,0.33 -2.55,0.42 -0.6,0.07 -1.23,-0.06 -1.81,0.06 -4.29,0.91 -8.56,1.94 -12.88,2.74 -1.67,0.31 -3.43,0.07 -5.14,0.17 -1.3,0.08 -2.59,0.31 -3.88,0.48 -1.02,0.02 -2.06,0.02 -3.1,0.02 z"
         id="path6"
         inkscape:connector-curvature="0"
         style="fill:#ffffff" /><path
         d="M 0,96.78 C 0.85,92.78 2.04,88.79 1.37,84.64 0.82,81.25 1.28,78 1.96,74.68 2.5,72.01 2.74,69.31 4.37,67.01 4.51,66.82 4.58,66.58 4.64,66.35 6.34,59.9 10.33,54.74 14.48,49.8 c 1.88,-2.24 4.55,-3.84 6.98,-5.57 1.22,-0.87 1.85,-0.47 2.16,1.01 0.08,0.39 0.14,0.79 0.18,1.18 0.32,3.05 1.4,5.71 3.9,7.66 0.59,0.46 1.09,1.06 1.61,1.61 1.4,1.49 1.83,1.59 3.77,0.88 0.17,-0.06 0.36,-0.07 0.8,-0.16 -0.41,1.1 -0.7,2.03 -1.09,2.91 -1.59,3.61 -3.21,7.21 -4.83,10.81 -1.28,2.86 -1.83,5.87 -1.78,8.98 0.09,5.45 -0.44,10.84 -0.84,16.26 -0.32,4.3 0.37,8.68 0.62,13.02 0.1,1.83 0.24,3.66 0.33,5.48 0.01,0.25 -0.08,0.63 -0.26,0.76 -1.69,1.21 -2.91,3.06 -5.2,3.5 -0.74,0.14 -1.51,1.05 -1.92,1.8 -1.24,2.27 -2.01,4.69 -1.64,7.36 0.07,0.49 -0.17,1.02 -0.31,1.77 -1.53,-1 -2.86,-1.79 -4.09,-2.72 -0.31,-0.24 -0.4,-0.89 -0.42,-1.37 -0.02,-0.46 0.17,-0.94 0.27,-1.41 0.19,-0.89 -0.09,-1.2 -1.07,-1.36 -2.03,-0.33 -3.88,-1.26 -5.14,-2.94 -0.97,-1.3 -1.67,-2.81 -2.49,-4.23 -1.41,-2.41 -2,-5.01 -1.9,-7.8 0.03,-0.94 -0.15,-1.91 -0.38,-2.82 C 1.21,102.33 0.58,100.28 -0.01,98.22 0,97.74 0,97.26 0,96.78 Z"
         id="path8"
         inkscape:connector-curvature="0"
         style="fill:#ffffff" /><path
         d="m 119.58,145.4 c 0.25,-0.74 0.52,-1.3 0.61,-1.89 0.18,-1.18 0.27,-2.37 0.38,-3.56 0.05,-0.57 0.3,-1.27 -0.59,-1.43 -0.8,-0.15 -1.56,0.1 -1.67,0.95 -0.2,1.64 -0.25,3.3 -0.31,4.96 -0.01,0.46 0.23,0.93 0.27,1.41 0.18,1.73 -0.43,2.78 -2.17,3.21 -3.06,0.74 -6.14,1.55 -9.25,1.91 -6.3,0.74 -12.6,1.48 -18.86,2.54 -2.72,0.46 -5.59,0.01 -8.38,0.19 -5.96,0.38 -11.45,-1.57 -16.9,-3.45 -2.44,-0.84 -4.62,-2.5 -6.83,-3.91 -0.45,-0.29 -0.69,-1.16 -0.72,-1.77 -0.12,-2.72 -0.1,-5.44 -0.2,-8.15 -0.03,-0.78 -0.2,-1.6 -0.52,-2.3 -1.12,-2.52 -2.35,-4.98 -3.48,-7.49 -0.58,-1.28 -1.46,-2.16 -2.78,-2.64 -0.67,-0.24 -1.3,-0.64 -1.99,-0.82 -0.7,-0.18 -1.45,-0.16 -2.17,-0.28 -1.72,-0.3 -3.44,-0.57 -5.12,-1 -0.34,-0.09 -0.61,-0.79 -0.74,-1.26 -0.42,-1.47 -1.14,-2.71 -2,-4 -0.99,-1.5 -1.53,-3.42 -1.81,-5.23 -0.51,-3.31 -0.58,-6.68 -1.04,-10 -0.28,-2.04 -0.17,-4.03 -0.08,-6.07 0.11,-2.59 -0.13,-5.19 -0.2,-7.78 -0.02,-0.83 -0.06,-1.68 0.05,-2.49 0.53,-3.67 0.97,-7.35 1.72,-10.98 0.56,-2.69 1.53,-5.29 2.33,-7.92 0.45,-1.49 1.47,-2.55 2.44,-3.74 3.23,-3.97 7.57,-6.62 11.3,-9.97 1.43,-1.29 2.29,-2.87 2.34,-4.82 0.02,-0.87 0.29,-1.51 1.12,-1.95 0.33,-0.17 0.6,-0.63 0.71,-1.02 0.37,-1.18 1.06,-2.13 2.18,-2.57 1.66,-0.65 3.38,-1.13 5.09,-1.67 1.28,-0.41 2.71,-0.57 3.82,-1.24 3.34,-2.02 7.01,-2.51 10.78,-2.85 2.73,-0.25 5.43,-0.79 8.15,-1.18 0.47,-0.07 0.95,-0.1 1.42,-0.06 2.23,0.17 4.46,0.31 6.68,0.56 3.57,0.39 7.14,0.79 10.69,1.31 3.03,0.44 6.06,0.97 9.05,1.63 1.09,0.24 2.11,0.91 3.11,1.48 2.18,1.25 2.57,1.21 4.16,-0.72 1.11,-1.36 2.2,-1.19 2.76,0.48 0.45,1.36 0.82,2.76 1.13,4.15 0.44,1.93 1.31,3.58 2.8,4.9 2.21,1.96 4.35,3.99 6.59,5.92 0.47,0.41 1.2,0.63 1.84,0.71 1.09,0.14 1.76,0.63 2.08,1.68 2.77,9.09 4.94,18.28 4.55,27.89 -0.14,3.44 -0.03,6.89 -0.3,10.31 -0.29,3.74 -1.15,7.44 -1.29,11.18 -0.17,4.46 -1.48,8.64 -2.4,12.92 -0.17,0.77 -0.27,1.6 -0.19,2.38 0.13,1.24 -0.39,1.91 -1.46,2.42 -4.11,1.94 -7.55,4.65 -9.68,8.77 -1.83,3.55 -2.95,7.34 -3.37,11.29 -0.13,1.19 -0.71,1.69 -1.59,2.12 -0.86,0.42 -1.32,-0.18 -1.78,-0.76 -0.12,-0.22 -0.33,-0.34 -0.28,-0.3 z m -30.35,-0.66 c 1.96,-0.16 3.31,-0.29 4.66,-0.39 3.76,-0.27 7.51,-0.14 11.22,0.54 0.43,0.08 0.79,0.49 1.21,0.66 0.62,0.25 1.34,0.69 1.9,0.56 0.82,-0.19 0.81,-1.07 0.65,-1.82 -0.32,-1.48 -0.63,-2.97 -1,-4.43 -0.47,-1.83 -0.88,-3.67 -0.37,-5.55 0.54,-2 1.09,-4.01 1.74,-5.98 1.12,-3.42 3.42,-5.72 6.87,-6.81 1.25,-0.39 2.54,-0.68 3.81,-1.02 1.38,-0.36 2.74,-0.81 3.44,-2.17 2.1,-4.05 3.76,-8.06 1.85,-12.83 -1.29,-3.24 -1.92,-6.75 -2.71,-10.17 -0.27,-1.17 -0.22,-2.44 -0.14,-3.66 0.08,-1.37 0.41,-2.72 0.52,-4.09 0.12,-1.51 -0.01,-3.05 0.21,-4.55 0.66,-4.56 0.11,-9.01 -1.17,-13.37 -1.57,-5.36 -3.22,-10.69 -4.98,-15.99 -0.35,-1.06 -1.17,-2.13 -2.06,-2.83 -2.93,-2.34 -5.98,-4.54 -9.72,-5.5 -1.04,-0.27 -2.04,-0.71 -3.01,-1.18 -3.35,-1.61 -6.94,-2.39 -10.56,-3 -0.82,-0.14 -1.77,0.02 -2.56,0.31 -2.2,0.81 -4.32,1.84 -6.53,2.63 -2.89,1.03 -5.83,1.91 -8.75,2.83 -0.72,0.23 -1.46,0.44 -2.21,0.49 -1.16,0.07 -2.01,0.57 -2.79,1.41 -0.55,0.58 -1.28,1.21 -2.02,1.35 -1.1,0.21 -1.75,0.71 -2.35,1.61 -0.36,0.54 -1.07,0.86 -1.63,1.26 -0.18,0.13 -0.48,0.13 -0.62,0.29 -2.15,2.59 -3.95,5.38 -4.06,8.88 -0.16,5.23 -0.29,10.47 -0.25,15.71 0.01,1.8 0.28,3.55 -0.82,5.16 -0.18,0.26 -0.12,0.69 -0.15,1.05 -0.24,3.14 -0.47,6.29 -0.73,9.43 -0.25,3.05 -1.23,5.83 -3.09,8.3 -0.84,1.11 -1.67,2.27 -2.28,3.52 -0.36,0.75 -0.62,1.86 -0.33,2.57 1.3,3.19 3.01,6.16 5.23,8.83 1.85,2.22 4.12,3 6.95,2.45 0.71,-0.14 1.6,-0.19 2.21,0.12 3.7,1.88 6.8,4.43 8.78,8.21 2.19,4.21 3.17,8.57 2.33,13.31 -0.45,2.53 0.37,3.28 2.92,3.06 1.22,-0.11 2.47,-0.05 3.7,0.06 2.44,0.22 4.86,0.53 6.69,0.74 z m -30.59,-0.67 c 0.02,0.84 0.14,1.65 1.22,1.67 1.11,0.01 1.23,-0.85 1.21,-1.67 -0.02,-0.77 0.02,-1.68 -1.16,-1.7 -1.2,-0.02 -1.3,0.79 -1.27,1.7 z m 55.09,-0.16 c -0.04,-0.81 -0.12,-1.61 -1.25,-1.61 -1.1,0 -1.03,0.81 -1.02,1.51 0.01,0.68 -0.14,1.53 1.01,1.5 0.91,-0.03 1.27,-0.52 1.26,-1.4 z m 10.41,-86.09 c -1.12,1.09 -0.63,2.36 0.89,2.64 -0.33,-0.98 -0.61,-1.81 -0.89,-2.64 z"
         id="path10"
         inkscape:connector-curvature="0"
         style="fill:#ffffff" /><path
         d="m 122.32,32.33 c -0.57,-1.02 -1.18,-2.03 -1.71,-3.07 -0.81,-1.6 -2.16,-1.73 -3.21,-0.25 -0.11,0.16 -0.2,0.34 -0.31,0.51 -0.71,1.2 -0.87,1.16 -1.99,0.37 -0.9,-0.63 -1.9,-1.26 -2.95,-1.5 -3.53,-0.82 -7.1,-1.45 -10.66,-2.17 -5.91,-1.19 -11.88,-0.53 -17.81,-0.41 -9.22,0.19 -17.94,2.73 -26.23,6.76 -0.29,0.14 -0.58,0.27 -0.87,0.39 -1.83,0.78 -2.64,0.47 -3.67,-1.21 -1.24,-2 -2.54,-3.96 -3.86,-5.92 -0.35,-0.53 -0.84,-0.96 -1.27,-1.43 -0.65,-0.69 -1.47,-0.93 -2.29,-0.49 -1.18,0.64 -2.42,0.42 -3.31,-0.19 -1.57,-1.07 -3.29,-1.11 -5.01,-1.35 -0.2,-0.03 -0.39,-0.06 -0.91,-0.13 0.52,-0.54 0.83,-1.15 1.29,-1.29 1.81,-0.57 2.67,-1.91 2.94,-3.61 0.36,-2.23 1.62,-3.6 3.62,-4.38 2.12,-0.83 4.27,-1.57 6.38,-2.43 0.75,-0.31 1.41,-0.86 2.11,-1.28 1.12,-0.68 2.19,-1.49 3.39,-1.98 7.06,-2.93 14.38,-4.99 21.9,-6.43 2.87,-0.55 5.69,-0.32 8.55,-0.34 3.68,-0.03 7.35,-0.39 11.02,-0.52 1.18,-0.04 2.43,0.03 3.55,0.37 2.94,0.9 5.93,1.13 8.98,1.17 1.57,0.02 3.14,0.42 4.71,0.64 0.71,0.1 1.42,0.25 2.13,0.27 1.43,0.04 2.78,0.22 3.9,1.24 0.27,0.24 0.72,0.39 1.09,0.4 1.62,0.03 3.02,0.6 4.33,1.54 2.01,1.44 4.14,2.74 6.08,4.27 2.64,2.08 2.24,5.09 -0.81,6.46 -1.82,0.82 -2.81,2.18 -3.54,3.98 -1.05,2.57 -2.37,5.04 -3.52,7.57 -0.38,0.82 -0.59,1.72 -0.89,2.58 -0.2,0.58 -0.41,1.16 -0.61,1.74 -0.18,0.05 -0.36,0.09 -0.54,0.12 z"
         id="path12"
         inkscape:connector-curvature="0"
         style="fill:#ffffff" /><path
         d="m 59.99,104.61 c -0.31,-2.11 0.52,-3.95 1.66,-5.69 0.8,-1.23 1.69,-1.56 2.97,-0.89 2.43,1.28 5.21,1.32 7.68,2.35 1.72,0.72 3.72,0.78 5.17,2.21 0.37,0.37 1.17,0.46 1.75,0.42 0.99,-0.08 1.72,0.19 2.25,1.02 0.15,0.23 0.34,0.44 0.52,0.66 2.63,3.21 2.38,6.88 -0.54,9.93 -0.97,1.01 -1.9,1.65 -3.33,1.32 -0.19,-0.04 -0.4,0 -0.6,0.04 -3.59,0.79 -6.69,-0.34 -9.63,-2.3 -1.39,-0.93 -2.84,-1.81 -4.37,-2.47 -2.56,-1.12 -3.5,-3.1 -3.53,-5.71 0,-0.29 0,-0.57 0,-0.89 z m 3.7,-2.54 c -1.32,0.91 -1.35,1.7 -0.7,2.56 0.13,0.17 0.4,0.41 0.52,0.37 0.22,-0.08 0.55,-0.35 0.53,-0.52 -0.04,-0.74 -0.2,-1.47 -0.35,-2.41 z"
         id="path14"
         inkscape:connector-curvature="0"
         style="fill:#ffffff" /><path
         d="m 119.75,105.27 c -0.37,1.49 -0.59,2.8 -1.03,4.03 -0.73,2.04 -2.01,3.35 -4.39,3.66 -2.63,0.34 -5.2,1.12 -7.79,1.78 -2.05,0.52 -5.41,-1.06 -6.34,-3.15 -0.62,-1.38 -1.16,-2.81 -1.59,-4.25 -0.16,-0.54 -0.11,-1.32 0.18,-1.79 1.55,-2.56 3.57,-4.59 6.55,-5.48 2.52,-0.75 5.03,-1.55 7.53,-2.38 0.91,-0.3 1.39,-0.02 1.85,0.76 0.3,0.51 0.87,0.84 1.27,1.3 0.88,1.01 1.78,2.01 2.55,3.1 0.52,0.75 0.83,1.66 1.21,2.42 z"
         id="path16"
         inkscape:connector-curvature="0"
         style="fill:#ffffff" /><path
         d="m 84.73,126.83 c 0,-1.63 -0.1,-3.27 0.04,-4.89 0.08,-0.92 0.47,-1.85 0.89,-2.69 0.55,-1.1 1.25,-2.13 1.9,-3.18 1.04,-1.7 2.69,-1.9 4.07,-0.49 2.04,2.08 3.46,4.48 3.73,7.44 0.18,1.93 0.35,3.86 0.48,5.8 0.03,0.5 -0.03,1.05 -0.2,1.52 -0.43,1.18 -1.05,1.38 -2.09,0.67 -1.08,-0.75 -2.1,-1.58 -3.18,-2.35 -1.2,-0.85 -1.74,-0.67 -2.2,0.69 -0.6,1.75 -1.61,1.99 -2.73,0.47 -0.6,-0.81 -0.82,-1.91 -1.21,-2.88 0.15,-0.03 0.33,-0.07 0.5,-0.11 z"
         id="path18"
         inkscape:connector-curvature="0"
         style="fill:#ffffff" /></g></g></svg>