<?xml version="1.0" encoding="UTF-8" standalone="no"?>
<svg
   xmlns:dc="http://purl.org/dc/elements/1.1/"
   xmlns:cc="http://creativecommons.org/ns#"
   xmlns:rdf="http://www.w3.org/1999/02/22-rdf-syntax-ns#"
   xmlns:svg="http://www.w3.org/2000/svg"
   xmlns="http://www.w3.org/2000/svg"
   xmlns:sodipodi="http://sodipodi.sourceforge.net/DTD/sodipodi-0.dtd"
   xmlns:inkscape="http://www.inkscape.org/namespaces/inkscape"
   width="215"
   height="215"
   viewBox="0 0 56.885415 56.885418"
   version="1.1"
   id="svg8"
   inkscape:version="1.0.2-2 (e86c870879, 2021-01-15)"
   sodipodi:docname="clans_pestilens.svg">
  <defs
     id="defs2" />
  <sodipodi:namedview
     id="base"
     pagecolor="#ffffff"
     bordercolor="#666666"
     borderopacity="1.0"
     inkscape:pageopacity="0.0"
     inkscape:pageshadow="2"
     inkscape:zoom="0.677137"
     inkscape:cx="48.346264"
     inkscape:cy="556.03079"
     inkscape:document-units="px"
     inkscape:current-layer="layer1"
     inkscape:document-rotation="0"
     showgrid="false"
     units="px"
     inkscape:window-width="1920"
     inkscape:window-height="1017"
     inkscape:window-x="-8"
     inkscape:window-y="-8"
     inkscape:window-maximized="1" />
  <metadata
     id="metadata5">
    <rdf:RDF>
      <cc:Work
         rdf:about="">
        <dc:format>image/svg+xml</dc:format>
        <dc:type
           rdf:resource="http://purl.org/dc/dcmitype/StillImage" />
        <dc:title></dc:title>
      </cc:Work>
    </rdf:RDF>
  </metadata>
  <g
     inkscape:label="Layer 1"
     inkscape:groupmode="layer"
     id="layer1"
     transform="translate(0,-240.11457)">
    <path
       id="rect849"
       style="fill:#000000;fill-opacity:1;stroke-width:0.757278;paint-order:markers fill stroke"
       d="m 12.087146,240.11457 c 0,8.57325 3.689372,14.68891 8.746701,20.12814 H 6.8697717 v 4.2894 H 25.17989 c 0.178897,0.16537 0.355715,0.33108 0.536049,0.4961 -4.350023,3.02768 -8.343164,5.06206 -11.292935,6.98381 v 8.82609 c 4.2425,-4.81251 8.268177,-8.72042 11.920517,-12.097 v 28.25888 c 1.930764,-2.77921 3.944885,-4.79742 6.418932,-6.07505 -2.273864,-6.1268 -2.75971,-15.42835 -2.805661,-22.09331 4.503079,4.01491 9.06794,8.19835 12.650252,13.36229 v -11.032 c -3.773606,-1.6016 -7.742993,-3.86693 -11.545283,-6.62981 h 18.953884 v -4.2894 H 35.596939 c 5.684571,-5.48719 9.201331,-10.23202 9.201331,-17.34523 -3.938943,7.75806 -8.513969,13.2457 -13.041161,17.34523 h -5.99313 C 19.452927,254.56066 14.215165,247.55293 12.087146,240.11457 Z" />
  </g>
</svg>
