<?xml version="1.0" encoding="UTF-8" standalone="no"?>
<!-- Generator: Adobe Illustrator 24.1.0, SVG Export Plug-In  -->

<svg
   xmlns:dc="http://purl.org/dc/elements/1.1/"
   xmlns:cc="http://creativecommons.org/ns#"
   xmlns:rdf="http://www.w3.org/1999/02/22-rdf-syntax-ns#"
   xmlns:svg="http://www.w3.org/2000/svg"
   xmlns="http://www.w3.org/2000/svg"
   xmlns:sodipodi="http://sodipodi.sourceforge.net/DTD/sodipodi-0.dtd"
   xmlns:inkscape="http://www.inkscape.org/namespaces/inkscape"
   version="1.1"
   x="0px"
   y="0px"
   width="196.093"
   height="196.093"
   viewBox="0 0 196.093 196.09299"
   xml:space="preserve"
   id="svg10"
   sodipodi:docname="hedonites_of_slaanesh.svg"
   inkscape:version="0.92.3 (2405546, 2018-03-11)"><metadata
   id="metadata14"><rdf:RDF><cc:Work
       rdf:about=""><dc:format>image/svg+xml</dc:format><dc:type
         rdf:resource="http://purl.org/dc/dcmitype/StillImage" /><dc:title /></cc:Work></rdf:RDF></metadata><sodipodi:namedview
   pagecolor="#ffffff"
   bordercolor="#666666"
   borderopacity="1"
   objecttolerance="10"
   gridtolerance="10"
   guidetolerance="10"
   inkscape:pageopacity="0"
   inkscape:pageshadow="2"
   inkscape:window-width="1920"
   inkscape:window-height="1017"
   id="namedview12"
   showgrid="false"
   inkscape:zoom="1.2036517"
   inkscape:cx="-159.54257"
   inkscape:cy="98.035004"
   inkscape:window-x="-8"
   inkscape:window-y="-8"
   inkscape:window-maximized="1"
   inkscape:current-layer="svg10" />
<defs
   id="defs2">
</defs>
<g
   id="g8"
   transform="translate(2.1353813,-0.0022052)"
   style="fill:#000000;fill-opacity:1">
	<g
   id="g6"
   style="fill:#000000;fill-opacity:1">
		<path
   d="m 122.58,54.57 c 0.35,-0.06 0.61,-0.19 0.73,-0.11 3.25,2.21 5.23,0.1 7.11,-2.14 1.23,-1.46 2.38,-3 3.5,-4.54 2.28,-3.15 0.91,-6.57 0.09,-9.6 -2.82,-10.41 -0.5,-19.8 4.79,-28.75 2.09,-3.53 5.73,-5.17 9.18,-6.87 3.96,-1.96 8.29,-2.64 12.71,-2.55 0.88,0.02 1.76,0.27 2.65,0.41 0.02,0.21 0.05,0.43 0.07,0.64 -0.63,0.29 -1.25,0.63 -1.9,0.85 -3.95,1.37 -7.42,3.74 -9.48,7.19 -4.04,6.78 -5,13.83 0.34,21.75 5.19,7.71 15.19,10.35 23.6,6.4 2.28,-1.07 4.58,-2.14 6.72,-3.45 2.15,-1.32 4.07,-2.91 5.04,-5.46 0.43,-1.14 1.49,-2.04 2.57,-3.44 1.86,5.44 2.1,10.37 0.52,15.42 -3.86,12.35 -16.03,19.92 -28.2,18.99 -4.03,-0.31 -7.94,-0.61 -11.72,-2.26 -3.01,-1.31 -5.18,0.09 -6.01,3.33 -0.16,0.62 -0.82,1.22 -1.39,1.61 -3.69,2.51 -7.62,4.75 -9.33,9.28 -0.17,0.45 -0.9,0.96 -1.37,0.96 -1.69,0.03 -2.29,1.31 -2.97,2.42 -0.77,1.25 -0.67,2.45 0.7,3.36 1.3,0.87 2.54,1.84 3.83,2.74 0.26,0.18 0.64,0.43 0.89,0.36 2.56,-0.65 2.48,1.49 3.05,2.87 0.59,1.43 1.08,2.91 1.62,4.36 0.17,0.45 0.43,0.86 0.58,1.31 2.67,7.93 5.4,15.8 5.04,24.4 -0.16,3.94 0.85,7.93 0.58,11.85 -0.58,8.53 -1.89,16.97 -4.83,25.07 -0.05,0.13 -0.07,0.28 -0.15,0.38 -0.63,0.69 -1.28,1.37 -1.92,2.06 -0.27,-0.84 -0.69,-1.66 -0.79,-2.52 -0.72,-5.89 -1.31,-11.8 -2.1,-17.68 -0.15,-1.14 -1.04,-2.17 -1.43,-3.3 -0.24,-0.7 -0.35,-1.54 -0.22,-2.27 0.77,-4.19 0.66,-8.3 -0.89,-12.3 -0.44,-1.14 -0.87,-2.51 -1.75,-3.2 -2.66,-2.09 -2.06,-4.55 -1.29,-7.15 0.05,-0.18 0.01,-0.39 0.01,-0.7 -0.49,-0.19 -1,-0.58 -1.48,-0.55 -2.39,0.17 -3.13,-1.5 -4.07,-3.23 -2.16,-3.98 -5.55,-6.15 -10.17,-6.17 -1.84,-0.01 -2.71,1.3 -3.62,2.62 -0.48,0.7 -1.07,1.42 -1.77,1.86 -1.35,0.85 -1.59,1.88 -0.75,3.23 1.32,2.13 2.51,4.34 3.75,6.52 0.13,0.24 0.14,0.65 0.32,0.74 4.31,2.14 2.28,6.43 3.16,9.68 0.95,3.5 1.16,7.21 1.51,10.85 0.54,5.56 0.95,11.1 -1.02,16.58 -0.43,1.18 0.2,3.05 0.92,4.26 0.7,1.17 0.54,1.63 -0.24,2.58 -0.86,1.04 -1.83,2.36 -1.91,3.62 -0.23,3.7 -2.37,6.26 -4.63,8.78 -0.9,1 -1,1.79 -0.2,2.86 0.92,1.22 0.43,3.11 -0.97,3.12 -4.04,0.02 -5.45,3.46 -7.87,5.56 -2.2,1.91 -4.42,3.81 -6.55,5.8 -0.48,0.45 -0.55,1.3 -0.96,1.86 -0.53,0.74 -1.1,1.57 -1.85,2.02 -1.01,0.61 -2.27,0.8 -3.33,1.34 -6.62,3.39 -13.55,5.72 -20.96,6.6 -1.76,0.21 -3.52,0.71 -5.27,0.67 -2.77,-0.06 -5.54,-0.43 -8.3,-0.73 -3.61,-0.39 -7.23,-0.88 -10.63,0.94 -1.32,0.7 -2.01,0.55 -2.16,-1.1 -0.14,-1.54 -1.05,-2.45 -2.51,-3.14 -3.76,-1.77 -7.58,-3.51 -11.08,-5.73 -2.05,-1.3 -3.48,-3.54 -5.3,-5.24 -1.56,-1.46 -3.25,-2.78 -4.94,-4.1 -0.32,-0.25 -0.88,-0.28 -1.33,-0.25 -1.66,0.1 -2.67,-0.85 -3.01,-2.43 -0.38,-1.75 -1.07,-3.43 -1.65,-5.14 -0.08,-0.25 -0.27,-0.54 -0.49,-0.64 -3.8,-1.84 -4.86,-5.83 -6.21,-9.11 -2.18,-5.32 -3.71,-11.02 -4.65,-16.7 -1.2,-7.24 -0.4,-14.58 1.05,-21.76 1.32,-6.57 4.58,-12.15 9.55,-16.71 1.79,-1.64 1.78,-3.74 1.11,-5.89 -0.8,-2.59 -0.74,-2.58 1.85,-2.7 0.93,-0.04 1.99,-0.51 2.71,-1.12 2.59,-2.2 4.96,-4.67 7.61,-6.8 1.84,-1.48 3.94,-2.68 6.05,-3.76 2.22,-1.14 3.33,-2.84 3.68,-5.23 0.09,-0.63 0.67,-1.18 1.03,-1.77 0.51,0.39 1.14,0.68 1.52,1.17 1.73,2.22 2.19,2.22 4.86,1.4 3,-0.93 5.98,-2.41 9.31,-0.89 0.74,0.34 1.97,0.15 2.75,-0.24 3.32,-1.64 6.81,-1.17 10.26,-0.97 1.41,0.08 2.81,0.43 4.19,0.77 1.55,0.38 2.92,1.01 4.23,-0.8 1,-1.38 2.49,-1.15 3.63,0.27 0.28,0.34 0.68,0.62 1.08,0.83 3.59,1.92 7.24,3.73 10.77,5.74 3.17,1.8 4.81,1.44 6.68,-1.71 0.37,-0.62 1.01,-1.3 1.66,-1.48 2.96,-0.85 4.55,-3.93 3.62,-6.77 -1.39,-4.21 -4.02,-7.21 -8.16,-8.75 -1.78,-0.66 -3.69,-0.97 -5.56,-1.33 -1.53,-0.3 -2.8,-0.47 -4.1,-1.91 -1.26,-1.4 -3.72,-1.88 -5.75,-2.36 -2.57,-0.62 -5.28,-0.66 -7.85,-1.29 -1.4,-0.34 -2.64,-1.38 -3.95,-2.1 C 60.82,54 56.96,53.26 52.95,53.21 47.41,53.14 41.87,53.13 36.33,53.09 35.8,53.09 35.26,53 34.06,52.9 c 0.86,-0.95 1.3,-1.89 1.98,-2.13 4.25,-1.46 8.47,-3.44 12.86,-3.95 6.64,-0.78 13.41,-0.59 20.12,-0.63 4.48,-0.02 8.97,0.26 13.45,0.45 1.22,0.05 2.51,0.06 3.65,0.43 5.3,1.74 10.58,3.56 15.83,5.46 1.64,0.59 3.2,1.44 4.73,2.31 0.45,0.26 0.97,1 0.91,1.45 -0.29,2.29 1.26,3.53 2.67,4.76 2.79,2.42 8.56,2.05 11.11,-0.59 1.15,-1.2 1.8,-2.55 1.34,-4.27 -0.09,-0.54 -0.08,-1.08 -0.13,-1.62 z"
   id="path4"
   inkscape:connector-curvature="0"
   style="fill:#000000;fill-opacity:1" />
	</g>
</g>
</svg>