<?xml version="1.0" encoding="UTF-8" standalone="no"?>
<!-- Generated by IcoMoon.io -->

<svg
   xmlns:dc="http://purl.org/dc/elements/1.1/"
   xmlns:cc="http://creativecommons.org/ns#"
   xmlns:rdf="http://www.w3.org/1999/02/22-rdf-syntax-ns#"
   xmlns:svg="http://www.w3.org/2000/svg"
   xmlns="http://www.w3.org/2000/svg"
   xmlns:sodipodi="http://sodipodi.sourceforge.net/DTD/sodipodi-0.dtd"
   xmlns:inkscape="http://www.inkscape.org/namespaces/inkscape"
   version="1.1"
   width="215"
   height="215"
   viewBox="0 0 215 215"
   id="svg14"
   sodipodi:docname="fate.svg"
   inkscape:version="0.92.3 (2405546, 2018-03-11)">
  <metadata
     id="metadata20">
    <rdf:RDF>
      <cc:Work
         rdf:about="">
        <dc:format>image/svg+xml</dc:format>
        <dc:type
           rdf:resource="http://purl.org/dc/dcmitype/StillImage" />
        <dc:title>twists-fate</dc:title>
      </cc:Work>
    </rdf:RDF>
  </metadata>
  <defs
     id="defs18" />
  <sodipodi:namedview
     pagecolor="#ffffff"
     bordercolor="#666666"
     borderopacity="1"
     objecttolerance="10"
     gridtolerance="10"
     guidetolerance="10"
     inkscape:pageopacity="0"
     inkscape:pageshadow="2"
     inkscape:window-width="1920"
     inkscape:window-height="1017"
     id="namedview16"
     showgrid="false"
     fit-margin-top="0"
     fit-margin-left="0"
     fit-margin-right="0"
     fit-margin-bottom="0"
     inkscape:zoom="1.3037281"
     inkscape:cx="-484.15694"
     inkscape:cy="72.359069"
     inkscape:window-x="-8"
     inkscape:window-y="-8"
     inkscape:window-maximized="1"
     inkscape:current-layer="svg14" />
  <title
     id="title2">twists-fate</title>
  <g
     id="g832"
     transform="matrix(6.7186553,0,0,6.7186553,0.00823386,0.0020671)"
     style="fill:#000000;fill-opacity:1">
    <path
       id="path4"
       d="m 13.497,31.886 c -0.135,-0.068 -0.203,-0.248 -0.203,-0.507 0,-0.225 -0.079,-0.473 -0.169,-0.564 -0.09,-0.101 -0.169,-0.271 -0.169,-0.395 0,-0.113 -0.045,-0.214 -0.113,-0.214 -0.056,0 -0.113,-0.113 -0.113,-0.259 0,-0.146 -0.079,-0.361 -0.169,-0.485 -0.09,-0.113 -0.169,-0.316 -0.169,-0.451 0,-0.124 -0.079,-0.327 -0.169,-0.451 -0.09,-0.113 -0.169,-0.349 -0.169,-0.53 0,-0.293 -0.034,-0.395 -0.316,-0.936 -0.068,-0.135 -0.158,-0.428 -0.192,-0.654 -0.045,-0.225 -0.124,-0.406 -0.169,-0.406 -0.056,0 -0.124,-0.147 -0.169,-0.338 -0.045,-0.18 -0.124,-0.361 -0.18,-0.395 -0.056,-0.045 -0.101,-0.169 -0.101,-0.282 0,-0.124 -0.147,-0.372 -0.338,-0.564 -0.18,-0.192 -0.338,-0.44 -0.338,-0.564 0,-0.113 -0.056,-0.225 -0.113,-0.248 -0.068,-0.023 -0.135,-0.147 -0.147,-0.293 0,-0.135 -0.079,-0.248 -0.158,-0.248 -0.079,0 -0.147,-0.068 -0.147,-0.158 0,-0.09 -0.045,-0.18 -0.101,-0.203 C 9.54,22.73 9.45,22.594 9.416,22.459 c -0.124,-0.383 0.316,-0.338 0.8,0.079 0.203,0.192 0.327,0.338 0.259,0.338 -0.237,0 0.327,0.428 0.665,0.507 0.192,0.045 0.349,0.124 0.349,0.18 0,0.056 0.124,0.101 0.271,0.101 0.192,0 0.293,-0.079 0.338,-0.282 0.079,-0.327 -0.034,-1.161 -0.169,-1.251 -0.147,-0.079 -0.124,-1.736 0.011,-1.736 0.068,0 0.113,-0.147 0.113,-0.327 0,-0.18 0.079,-0.383 0.169,-0.462 0.09,-0.079 0.169,-0.214 0.169,-0.293 0,-0.09 0.045,-0.158 0.113,-0.158 0.056,0 0.135,-0.124 0.18,-0.282 0.034,-0.158 0.113,-0.282 0.158,-0.282 0.045,0 0.113,-0.09 0.158,-0.192 0.101,-0.316 0.316,-0.62 0.665,-0.936 0.18,-0.158 0.519,-0.462 0.744,-0.688 0.53,-0.507 1.263,-1.003 1.961,-1.33 0.293,-0.147 0.53,-0.293 0.53,-0.349 0,-0.045 0.124,-0.124 0.282,-0.158 0.158,-0.045 0.282,-0.124 0.282,-0.18 0,-0.068 0.045,-0.113 0.101,-0.113 0.09,0 0.316,-0.18 1.544,-1.285 0.271,-0.237 0.496,-0.53 0.496,-0.643 0,-0.124 0.045,-0.214 0.113,-0.214 0.056,0 0.135,-0.124 0.18,-0.282 0.034,-0.158 0.113,-0.282 0.169,-0.282 0.056,0 0.101,-0.09 0.101,-0.214 0,-0.113 0.079,-0.271 0.169,-0.349 0.113,-0.09 0.169,-0.338 0.169,-0.688 0,-0.293 0.056,-0.575 0.113,-0.609 0.068,-0.034 0.113,-0.406 0.101,-0.823 0,-0.53 -0.034,-0.688 -0.101,-0.53 -0.079,0.18 -0.101,0.192 -0.101,0.034 -0.011,-0.225 0.237,-0.417 0.304,-0.225 0.045,0.158 0.248,0.18 0.248,0.023 0,-0.056 -0.124,-0.135 -0.282,-0.18 C 20.563,8.322 20.506,8.243 20.506,7.938 20.506,7.735 20.427,7.51 20.337,7.431 20.247,7.352 20.168,7.172 20.168,7.014 20.168,6.867 20.123,6.766 20.078,6.8 20.022,6.834 19.977,6.789 19.977,6.699 19.977,6.507 19.605,5.752 19.413,5.538 19.334,5.459 19.266,5.324 19.266,5.234 19.266,5.155 19.221,5.065 19.176,5.042 19.131,5.031 18.973,4.817 18.827,4.591 18.692,4.354 18.523,4.163 18.466,4.163 c -0.057,0 -0.101,-0.079 -0.101,-0.169 0,-0.09 -0.056,-0.169 -0.113,-0.169 -0.068,0 -0.259,-0.124 -0.428,-0.282 -0.169,-0.158 -0.44,-0.282 -0.609,-0.282 -0.18,0 -0.316,-0.045 -0.316,-0.113 0,-0.056 -0.203,-0.147 -0.451,-0.18 C 16.2,2.923 15.963,2.844 15.929,2.799 15.85,2.664 12.761,2.675 12.705,2.81 12.694,2.866 12.547,2.934 12.401,2.957 12.243,2.98 12.097,3.058 12.074,3.126 12.051,3.205 11.961,3.261 11.882,3.261 11.375,3.261 10.022,4.467 9.267,5.606 8.929,6.113 8.827,6.373 8.861,6.609 8.895,6.823 8.884,6.88 8.805,6.778 8.726,6.654 8.692,6.665 8.625,6.812 8.512,7.116 8.546,8.649 8.67,8.728 8.738,8.762 8.783,9.1 8.783,9.472 c 0,0.564 0.056,0.744 0.338,1.139 0.18,0.248 0.338,0.519 0.338,0.597 0,0.068 0.124,0.203 0.282,0.282 0.158,0.079 0.282,0.214 0.282,0.304 0,0.147 0.203,0.203 0.597,0.169 0.113,-0.011 0.293,0.034 0.395,0.09 0.147,0.09 0.124,0.101 -0.113,0.045 -0.203,-0.045 -0.316,-0.023 -0.316,0.056 0,0.068 0.192,0.124 0.44,0.124 0.248,0 0.485,0.056 0.519,0.113 0.09,0.135 1.747,0.147 1.747,0.011 0,-0.056 0.169,-0.124 0.372,-0.158 0.451,-0.068 1.105,-0.316 1.296,-0.507 0.079,-0.068 0.203,-0.135 0.259,-0.135 0.056,0 0.124,-0.124 0.169,-0.282 0.034,-0.158 0.113,-0.282 0.169,-0.282 0.192,0 0.113,-1.33 -0.09,-1.578 -0.237,-0.271 -0.372,-0.293 -0.372,-0.056 0,0.09 -0.045,0.169 -0.113,0.169 -0.056,0 -0.113,0.192 -0.113,0.44 0,0.282 -0.068,0.485 -0.192,0.586 -0.169,0.124 -0.18,0.124 -0.056,-0.011 0.169,-0.192 0.18,-0.451 0.011,-0.451 -0.056,0 -0.09,0.034 -0.056,0.09 0.135,0.237 -0.665,0.812 -1.15,0.812 -0.169,0 -0.372,0.056 -0.44,0.124 -0.09,0.09 -0.192,0.09 -0.338,0 -0.124,-0.056 -0.428,-0.124 -0.688,-0.135 -0.248,-0.023 -0.451,-0.056 -0.44,-0.101 0.011,-0.034 -0.101,-0.192 -0.237,-0.338 -0.519,-0.541 -0.699,-1.06 -0.699,-1.939 0.011,-0.541 0.068,-0.902 0.169,-1.037 0.09,-0.124 0.169,-0.304 0.169,-0.406 0,-0.271 0.575,-0.857 0.936,-0.947 0.169,-0.034 0.304,-0.124 0.304,-0.18 0,-0.068 0.169,-0.113 0.372,-0.113 0.203,0 0.428,-0.056 0.496,-0.124 0.09,-0.09 0.147,-0.09 0.192,0 0.113,0.18 0.631,0.158 0.699,-0.034 0.045,-0.113 0.327,-0.158 1.071,-0.169 0.834,-0.023 1.003,0.011 1.003,0.147 0,0.101 0.056,0.18 0.124,0.18 0.135,0 0.778,0.609 0.778,0.744 0,0.045 0.113,0.192 0.259,0.327 0.462,0.451 0.643,0.936 0.643,1.747 0,0.428 0.045,0.8 0.101,0.834 0.056,0.034 0.079,0.271 0.045,0.53 -0.045,0.304 -0.023,0.496 0.068,0.552 0.113,0.056 0.101,0.124 -0.034,0.259 -0.101,0.09 -0.18,0.349 -0.18,0.575 0,0.214 -0.056,0.428 -0.135,0.473 -0.079,0.056 -0.09,0.034 -0.034,-0.068 0.068,-0.101 0.045,-0.124 -0.045,-0.068 -0.079,0.056 -0.113,0.147 -0.09,0.225 0.034,0.068 -0.011,0.282 -0.101,0.462 -0.113,0.248 -0.135,0.259 -0.09,0.068 0.045,-0.191 0.023,-0.248 -0.079,-0.214 -0.09,0.034 -0.147,0.124 -0.135,0.214 0.023,0.237 -1.06,1.116 -1.364,1.116 -0.147,0 -0.293,0.079 -0.338,0.169 -0.034,0.09 -0.135,0.169 -0.225,0.169 -0.09,0 -0.406,0.124 -0.71,0.271 -0.293,0.158 -0.924,0.338 -1.387,0.406 -0.463,0.068 -1.037,0.158 -1.274,0.192 -0.225,0.034 -0.485,0.011 -0.564,-0.056 C 11.16,14.838 10.743,14.747 10.304,14.702 9.684,14.634 9.47,14.567 9.267,14.353 9.132,14.206 8.996,14.082 8.963,14.082 8.862,14.082 7.881,13.067 7.881,12.966 7.881,12.91 7.802,12.842 7.712,12.797 7.622,12.763 7.543,12.65 7.543,12.549 7.543,12.448 7.419,12.245 7.261,12.098 7.103,11.951 6.979,11.737 6.979,11.602 c 0,-0.124 -0.045,-0.225 -0.113,-0.225 -0.056,0 -0.113,-0.068 -0.113,-0.158 0,-0.09 -0.068,-0.237 -0.147,-0.316 C 6.516,10.824 6.414,10.554 6.369,10.306 6.324,10.058 6.234,9.63 6.189,9.348 6.042,8.581 6.054,6.023 6.212,5.684 6.28,5.526 6.381,5.402 6.437,5.402 c 0.045,0 0.09,-0.101 0.09,-0.225 0,-0.271 0.237,-0.789 0.361,-0.789 0.045,0 0.09,-0.101 0.09,-0.225 C 6.978,4.05 7.046,3.904 7.125,3.859 7.215,3.814 7.373,3.622 7.497,3.431 7.813,2.935 8.76,2.022 8.951,2.022 9.041,2.022 9.12,1.977 9.12,1.921 9.12,1.865 9.244,1.786 9.402,1.752 9.56,1.707 9.684,1.628 9.684,1.572 c 0,-0.068 0.124,-0.113 0.282,-0.113 0.158,0 0.282,-0.045 0.282,-0.113 0,-0.056 0.203,-0.147 0.451,-0.18 0.248,-0.045 0.451,-0.113 0.451,-0.169 0,-0.056 0.124,-0.101 0.271,-0.101 0.147,0 0.327,-0.079 0.406,-0.169 0.079,-0.09 0.225,-0.169 0.338,-0.169 0.113,0 0.349,-0.079 0.519,-0.169 0.214,-0.113 0.654,-0.169 1.308,-0.169 0.541,0 1.015,-0.045 1.048,-0.113 0.09,-0.135 1.037,-0.147 1.116,-0.011 0.034,0.045 0.395,0.124 0.8,0.158 0.405,0.034 0.834,0.124 0.947,0.192 0.124,0.056 0.44,0.124 0.71,0.135 0.259,0.011 0.417,0.034 0.338,0.068 -0.395,0.124 0.203,0.473 0.823,0.473 0.214,0 0.395,0.045 0.395,0.113 0,0.056 -0.079,0.079 -0.169,0.045 -0.09,-0.045 -0.169,-0.011 -0.169,0.056 0,0.067 0.079,0.124 0.18,0.124 0.203,0 0.733,0.383 0.721,0.53 0,0.045 0.079,0.18 0.169,0.293 0.09,0.101 0.169,0.248 0.169,0.304 0,0.068 0.045,0.113 0.101,0.113 0.056,0 0.147,0.113 0.18,0.248 0.045,0.124 0.203,0.349 0.349,0.485 0.146,0.136 0.271,0.293 0.271,0.349 0,0.056 0.124,0.237 0.282,0.406 0.147,0.158 0.304,0.428 0.349,0.586 0.034,0.158 0.113,0.293 0.169,0.293 0.056,0 0.101,0.056 0.101,0.124 0,0.068 0.079,0.192 0.169,0.282 0.09,0.101 0.169,0.282 0.169,0.428 0,0.135 0.068,0.316 0.147,0.395 0.192,0.192 0.192,4.34 0,4.723 -0.079,0.147 -0.147,0.507 -0.147,0.8 0,0.338 -0.034,0.462 -0.101,0.361 -0.079,-0.124 -0.113,-0.09 -0.18,0.113 -0.045,0.147 -0.158,0.327 -0.237,0.417 -0.09,0.079 -0.158,0.225 -0.158,0.316 0,0.091 -0.045,0.158 -0.113,0.158 -0.056,0 -0.113,0.124 -0.113,0.271 0,0.147 -0.079,0.293 -0.169,0.338 -0.09,0.034 -0.169,0.135 -0.169,0.237 0,0.102 -0.124,0.293 -0.282,0.44 -0.158,0.147 -0.282,0.293 -0.282,0.327 0,0.101 -0.688,0.755 -0.8,0.755 -0.056,0 -0.101,0.079 -0.101,0.169 0,0.09 -0.056,0.169 -0.113,0.169 -0.068,0 -0.304,0.18 -0.53,0.395 -0.226,0.215 -0.451,0.395 -0.496,0.395 -0.045,0 -0.237,0.158 -0.417,0.338 -0.192,0.192 -0.372,0.338 -0.417,0.338 -0.124,0 -0.789,0.71 -0.755,0.823 0.011,0.045 -0.023,0.056 -0.09,0.023 -0.079,-0.045 -0.158,0.023 -0.192,0.158 -0.034,0.135 -0.113,0.237 -0.169,0.237 -0.147,0 -0.428,0.293 -0.428,0.44 0,0.068 -0.068,0.124 -0.135,0.124 -0.079,0 -0.259,0.147 -0.395,0.316 -0.135,0.18 -0.383,0.462 -0.541,0.631 -0.158,0.169 -0.248,0.372 -0.214,0.44 0.045,0.079 0.045,0.101 -0.011,0.056 -0.09,-0.09 -0.259,0.147 -0.496,0.665 -0.056,0.124 -0.169,0.271 -0.225,0.316 -0.068,0.034 -0.124,0.192 -0.124,0.338 0,0.146 -0.045,0.282 -0.101,0.304 -0.056,0.023 -0.135,0.271 -0.18,0.552 -0.079,0.519 -0.079,0.519 0.282,0.597 0.383,0.068 0.902,-0.011 0.902,-0.158 0,-0.045 0.124,-0.124 0.282,-0.158 0.158,-0.045 0.282,-0.124 0.282,-0.18 0,-0.068 0.068,-0.113 0.158,-0.113 0.09,0 0.18,-0.056 0.203,-0.124 0.068,-0.203 0.902,-0.327 1.251,-0.18 0.304,0.135 0.44,0.383 0.147,0.271 -0.113,-0.045 -0.135,0.011 -0.101,0.18 0.034,0.169 0.023,0.203 -0.045,0.101 -0.079,-0.101 -0.158,-0.079 -0.338,0.113 -0.135,0.147 -0.395,0.406 -0.586,0.586 -0.248,0.237 -0.349,0.428 -0.349,0.699 0,0.203 -0.045,0.406 -0.113,0.44 -0.056,0.034 -0.113,0.271 -0.113,0.519 0,0.237 -0.045,0.44 -0.113,0.44 -0.214,0 -0.564,0.395 -0.564,0.643 0,0.135 -0.045,0.282 -0.113,0.316 -0.056,0.034 -0.113,0.304 -0.113,0.597 0,0.338 -0.034,0.473 -0.101,0.383 -0.124,-0.203 -0.237,0.079 -0.237,0.631 0,0.282 -0.034,0.372 -0.101,0.259 -0.068,-0.101 -0.124,0.034 -0.18,0.428 -0.045,0.316 -0.113,0.575 -0.169,0.575 -0.045,0 -0.113,0.214 -0.147,0.485 -0.034,0.259 -0.192,0.733 -0.349,1.037 -0.158,0.316 -0.293,0.631 -0.293,0.71 0,0.158 -0.101,0.169 -0.361,0.011 z m 2.695,-6.606 c -0.034,-0.113 -0.056,-0.045 -0.056,0.135 0,0.192 0.023,0.271 0.056,0.203 0.023,-0.079 0.023,-0.237 0,-0.338 z m 1.24,-13.076 c -0.045,-0.034 -0.113,-0.034 -0.158,0 -0.034,0.045 0,0.079 0.079,0.079 0.079,0 0.113,-0.034 0.079,-0.079 z m -0.237,-0.372 c 0,-0.124 -0.079,-0.18 -0.18,-0.169 -0.09,0.023 -0.203,0.045 -0.248,0.045 -0.056,0.011 -0.09,0.068 -0.09,0.135 0,0.056 0.056,0.079 0.113,0.045 0.068,-0.034 0.113,-0.023 0.113,0.034 0,0.057 0.068,0.101 0.147,0.101 0.079,0 0.147,-0.09 0.147,-0.192 z m 0.27,-0.564 c 0,-0.056 -0.056,-0.113 -0.124,-0.113 -0.056,0 -0.079,0.056 -0.045,0.113 0.034,0.068 0.09,0.113 0.124,0.113 0.023,0 0.045,-0.045 0.045,-0.113 z M 14.467,9.848 C 14.58,9.442 14.456,9.375 14.163,9.679 c -0.135,0.135 -0.192,0.237 -0.135,0.225 0.248,-0.034 0.327,0.023 0.169,0.124 -0.147,0.09 -0.147,0.113 0.011,0.113 0.113,0 0.225,-0.124 0.259,-0.293 z m 4.464,-8.275 c 0,-0.056 -0.023,-0.113 -0.045,-0.113 -0.034,0 -0.09,0.056 -0.124,0.113 -0.034,0.068 -0.011,0.113 0.045,0.113 0.068,0 0.124,-0.045 0.124,-0.113 z"
       inkscape:connector-curvature="0"
       style="fill:#000000;fill-opacity:1" />
    <path
       id="path6"
       d="m 30.688,23.77 c -0.327,-0.248 -0.597,-0.496 -0.597,-0.541 0,-0.056 -0.113,-0.124 -0.248,-0.169 -0.147,-0.034 -0.406,-0.192 -0.586,-0.349 -0.18,-0.157 -0.372,-0.282 -0.44,-0.282 -0.056,0 -0.203,-0.124 -0.327,-0.282 -0.124,-0.158 -0.293,-0.282 -0.383,-0.282 -0.09,0 -0.158,-0.068 -0.158,-0.147 0,-0.09 -0.124,-0.225 -0.282,-0.304 -0.158,-0.079 -0.282,-0.214 -0.282,-0.304 0,-0.079 -0.079,-0.147 -0.169,-0.147 -0.09,0 -0.169,-0.045 -0.169,-0.113 0,-0.056 -0.124,-0.135 -0.282,-0.18 -0.158,-0.034 -0.282,-0.113 -0.282,-0.169 0,-0.056 -0.124,-0.101 -0.271,-0.101 -0.147,0 -0.327,-0.079 -0.406,-0.169 -0.09,-0.101 -0.338,-0.169 -0.631,-0.169 -0.271,0 -0.496,-0.045 -0.496,-0.101 0,-0.056 -0.113,-0.147 -0.248,-0.192 -0.147,-0.045 -0.282,-0.101 -0.316,-0.147 -0.147,-0.18 -0.8,-0.462 -1.082,-0.462 -0.44,0 -1.06,-0.248 -1.06,-0.417 0,-0.135 0.372,-0.203 0.767,-0.158 0.068,0.011 0.135,-0.034 0.135,-0.101 0,-0.067 0.079,-0.203 0.169,-0.293 0.09,-0.101 0.169,-0.248 0.169,-0.327 0,-0.203 -0.316,-0.507 -0.519,-0.507 -0.09,0 -0.158,-0.045 -0.158,-0.101 0,-0.068 -0.192,-0.124 -0.417,-0.147 -0.349,-0.023 -0.44,-0.079 -0.462,-0.293 -0.023,-0.147 0.034,-0.282 0.135,-0.316 0.101,-0.034 0.18,-0.18 0.18,-0.327 0,-0.147 0.079,-0.282 0.169,-0.327 0.09,-0.034 0.169,-0.147 0.169,-0.248 0,-0.101 0.124,-0.304 0.282,-0.451 0.158,-0.147 0.282,-0.316 0.282,-0.383 0,-0.056 0.079,-0.113 0.169,-0.113 0.09,0 0.169,-0.068 0.169,-0.147 0,-0.079 0.101,-0.203 0.225,-0.282 0.203,-0.124 0.271,-0.101 0.552,0.18 0.18,0.169 0.349,0.428 0.395,0.564 0.046,0.136 0.135,0.248 0.192,0.248 0.056,0 0.101,0.045 0.101,0.101 0,0.169 0.597,0.8 0.755,0.8 0.079,0 0.147,-0.124 0.147,-0.282 0,-0.327 0.395,-0.733 0.654,-0.654 0.203,0.056 0.586,0.767 0.586,1.082 0,0.101 0.056,0.192 0.113,0.192 0.068,0 0.113,0.068 0.113,0.147 0,0.079 0.158,0.304 0.338,0.507 0.192,0.203 0.338,0.417 0.338,0.485 0,0.056 0.056,0.101 0.113,0.101 0.068,0 0.113,0.124 0.113,0.271 0,0.147 0.079,0.327 0.169,0.406 0.09,0.079 0.169,0.237 0.169,0.349 0,0.101 0.079,0.271 0.169,0.372 0.09,0.09 0.169,0.214 0.169,0.282 0,0.068 0.056,0.124 0.113,0.124 0.068,0 0.113,0.124 0.113,0.271 0,0.158 0.079,0.349 0.169,0.451 0.09,0.09 0.169,0.192 0.169,0.237 0,0.034 0.124,0.18 0.271,0.316 0.147,0.136 0.304,0.417 0.338,0.609 0.045,0.203 0.203,0.462 0.361,0.586 0.147,0.113 0.271,0.271 0.271,0.338 0,0.067 0.056,0.124 0.113,0.124 0.068,0 0.113,0.101 0.113,0.225 0,0.237 0.372,0.676 0.564,0.676 0.068,0 0.113,0.079 0.113,0.169 0,0.101 0.101,0.169 0.282,0.169 0.225,0 0.282,0.056 0.282,0.282 0,0.44 -0.496,0.361 -1.206,-0.18 z"
       inkscape:connector-curvature="0"
       style="fill:#000000;fill-opacity:1" />
    <path
       id="path8"
       d="m 0.105,23.623 c 0,-0.18 0.056,-0.293 0.169,-0.293 0.101,0 0.169,-0.101 0.169,-0.282 0,-0.181 0.068,-0.282 0.169,-0.282 0.09,0 0.169,-0.09 0.169,-0.192 0,-0.271 1.432,-3.1 1.601,-3.168 0.056,-0.023 0.09,-0.169 0.09,-0.316 0,-0.147 0.045,-0.271 0.09,-0.271 0.124,0 0.473,-0.8 0.473,-1.082 0,-0.113 0.079,-0.316 0.169,-0.428 0.09,-0.124 0.169,-0.44 0.169,-0.71 0,-0.586 0.147,-0.62 0.654,-0.147 0.203,0.192 0.462,0.338 0.564,0.338 0.203,0 0.586,-0.372 0.586,-0.552 0,-0.056 0.068,-0.18 0.158,-0.271 0.169,-0.158 0.519,-1.093 0.519,-1.364 0,-0.361 0.372,-0.282 0.823,0.158 0.259,0.248 0.507,0.451 0.552,0.451 0.056,0 0.09,0.079 0.09,0.169 0,0.101 0.101,0.169 0.282,0.169 0.181,0 0.282,0.068 0.282,0.169 0,0.09 0.079,0.169 0.18,0.169 0.09,0 0.147,0.045 0.101,0.101 -0.034,0.056 0.023,0.18 0.113,0.271 0.09,0.101 0.169,0.259 0.169,0.349 0,0.101 0.068,0.147 0.158,0.113 0.09,-0.034 0.192,0 0.248,0.079 0.045,0.09 0.034,0.113 -0.045,0.056 -0.124,-0.079 -0.609,0.316 -0.519,0.417 0.034,0.034 -0.158,0.056 -0.406,0.056 -0.349,0.011 -0.53,0.079 -0.733,0.293 -0.147,0.158 -0.349,0.293 -0.44,0.293 -0.62,0 -0.676,0.372 -0.124,0.936 0.406,0.417 0.496,0.789 0.259,1.015 -0.18,0.169 -1.308,0.755 -1.465,0.755 -0.259,0 -1.668,0.676 -1.668,0.812 0,0.045 -0.068,0.09 -0.158,0.09 -0.09,0 -0.237,0.068 -0.316,0.147 -0.079,0.068 -0.293,0.214 -0.473,0.304 -0.18,0.09 -0.417,0.304 -0.507,0.473 -0.101,0.18 -0.214,0.316 -0.259,0.316 -0.056,0 -0.09,0.079 -0.09,0.169 0,0.101 -0.101,0.169 -0.282,0.169 -0.158,0 -0.282,0.045 -0.282,0.101 0,0.056 -0.101,0.124 -0.237,0.158 -0.135,0.034 -0.214,0.113 -0.18,0.158 0.034,0.056 -0.079,0.158 -0.271,0.225 -0.248,0.101 -0.304,0.09 -0.248,0 C 0.453,23.665 0.397,23.676 0.295,23.767 0.126,23.902 0.103,23.891 0.103,23.62 Z"
       inkscape:connector-curvature="0"
       style="fill:#000000;fill-opacity:1" />
    <path
       id="path10"
       d="m 8.481,17.277 c 0.045,-0.034 0.113,-0.034 0.158,0 0.034,0.045 0,0.079 -0.079,0.079 -0.079,0 -0.113,-0.034 -0.079,-0.079 z"
       inkscape:connector-curvature="0"
       style="fill:#000000;fill-opacity:1" />
    <path
       id="path12"
       d="m 8.797,17.175 c 0,-0.124 0.034,-0.158 0.068,-0.068 0.034,0.079 0.023,0.18 -0.011,0.214 C 8.82,17.366 8.786,17.298 8.798,17.174 Z"
       inkscape:connector-curvature="0"
       style="fill:#000000;fill-opacity:1" />
  </g>
</svg>
