<?xml version="1.0" encoding="UTF-8" standalone="no"?>
<!-- Generated by IcoMoon.io -->

<svg
   xmlns:dc="http://purl.org/dc/elements/1.1/"
   xmlns:cc="http://creativecommons.org/ns#"
   xmlns:rdf="http://www.w3.org/1999/02/22-rdf-syntax-ns#"
   xmlns:svg="http://www.w3.org/2000/svg"
   xmlns="http://www.w3.org/2000/svg"
   xmlns:sodipodi="http://sodipodi.sourceforge.net/DTD/sodipodi-0.dtd"
   xmlns:inkscape="http://www.inkscape.org/namespaces/inkscape"
   version="1.1"
   width="215"
   height="215"
   viewBox="0 0 215 215"
   id="svg6"
   sodipodi:docname="psychology.svg"
   inkscape:version="0.92.3 (2405546, 2018-03-11)">
  <metadata
     id="metadata12">
    <rdf:RDF>
      <cc:Work
         rdf:about="">
        <dc:format>image/svg+xml</dc:format>
        <dc:type
           rdf:resource="http://purl.org/dc/dcmitype/StillImage" />
        <dc:title>twists-psychology</dc:title>
      </cc:Work>
    </rdf:RDF>
  </metadata>
  <defs
     id="defs10" />
  <sodipodi:namedview
     pagecolor="#ffffff"
     bordercolor="#666666"
     borderopacity="1"
     objecttolerance="10"
     gridtolerance="10"
     guidetolerance="10"
     inkscape:pageopacity="0"
     inkscape:pageshadow="2"
     inkscape:window-width="1920"
     inkscape:window-height="1017"
     id="namedview8"
     showgrid="false"
     fit-margin-top="0"
     fit-margin-left="0"
     fit-margin-right="0"
     fit-margin-bottom="0"
     inkscape:zoom="1.3037281"
     inkscape:cx="-289.0343"
     inkscape:cy="44.477364"
     inkscape:window-x="-8"
     inkscape:window-y="-8"
     inkscape:window-maximized="1"
     inkscape:current-layer="svg6" />
  <title
     id="title2">twists-psychology</title>
  <path
     d="m 88.642395,214.21394 c 0.228426,-0.37623 0.154523,-0.75918 -0.302329,-0.75918 -0.37623,0 -1.363836,-0.98088 -2.123016,-2.27082 -1.289935,-2.27082 -2.875479,-2.94938 -3.406233,-1.43774 -0.456851,1.28994 -4.165412,-0.53075 -4.770069,-2.34472 -0.302328,-0.90699 -0.154523,-2.0424 0.302328,-2.49925 0.980888,-0.98088 1.135411,-9.31171 0.154524,-9.91637 -0.302329,-0.22842 -0.833083,-2.64705 -1.135411,-5.44862 -0.302328,-2.72768 -0.906985,-5.44863 -1.437739,-6.05329 -1.740068,-1.96849 -2.499248,-2.94938 -3.030002,-4.08479 -1.437739,-3.17781 -8.250204,-10.59493 -9.687943,-10.59493 -0.376231,0 -1.289934,-0.30233 -2.042396,-0.75918 -0.678559,-0.37623 -2.949381,-1.43774 -4.917874,-2.27082 -1.968493,-0.83308 -3.406232,-1.89459 -3.177806,-2.27082 0.302328,-0.45685 -0.833083,-0.75918 -2.57315,-0.75918 -1.740068,0 -3.103905,-0.30233 -3.103905,-0.75918 0,-0.37623 -0.906985,-0.75918 -1.968493,-0.75918 -1.135411,0 -3.708561,-0.98089 -5.750956,-2.27082 -1.968494,-1.20932 -4.01089,-2.27083 -4.393839,-2.27083 -0.456851,0 -0.75918,-0.30232 -0.75918,-0.75918 0,-0.37623 -0.678559,-0.75918 -1.437739,-0.75918 -0.75918,0 -1.592262,-0.53075 -1.894591,-1.13541 -0.456851,-1.28993 -6.510137,-1.66616 -6.510137,-0.37623 0,0.45685 -0.833082,0.75918 -1.894591,0.75918 -1.363836,0 -1.89459,-0.37623 -1.89459,-1.43774 0,-1.28993 1.437739,-4.99849 2.94938,-7.64554 0.987606,-1.74007 2.425345,-7.57165 2.875479,-11.35411 0.154523,-1.89459 0.604656,-4.08479 0.980887,-4.91788 0.376231,-0.83308 0.833083,-9.31171 0.980888,-18.85185 0.228426,-10.594925 0.678559,-17.488011 1.135411,-17.790339 0.456851,-0.228426 1.061508,-5.448628 1.363836,-11.810962 0.228426,-6.28171 0.75918,-11.65643 1.061509,-12.11329 0.302328,-0.37623 0.75918,-2.12301 0.980887,-3.78246 0.75918,-6.20781 2.123017,-12.86575 2.875479,-13.55103 0.37623,-0.45685 0.678559,-1.59226 0.678559,-2.57315 0,-0.98088 0.456851,-2.72767 1.061508,-3.78246 1.592262,-3.1039 2.57315,-5.60315 3.030002,-7.87397 0.302328,-1.20932 0.833082,-2.12302 1.209313,-2.12302 0.456852,0 0.75918,-0.45685 0.75918,-0.98089 0,-1.89459 17.790342,-20.20897 19.684933,-20.20897 0.456852,0 0.75918,-0.37623 0.75918,-0.83308 0,-1.20931 2.344724,-2.8754802 4.010889,-2.9493802 0.75918,0 1.511642,-0.53075 1.740068,-1.13541 0.302328,-0.75918 0.980887,-0.98761 1.89459,-0.75918 0.906985,0.30233 1.592263,0.0739 1.894591,-0.67856 0.228426,-0.67856 1.289934,-1.20931 2.270822,-1.20931 1.135411,0 1.81397,-0.45685 1.81397,-1.13541 0,-0.67856 0.678559,-1.13541 1.592262,-1.13541 0.833083,0 2.042396,-0.53076 2.647053,-1.13541 0.678559,-0.60466 1.81397,-1.13542 2.647052,-1.13542 0.75918,0 1.437739,-0.30232 1.437739,-0.75918005 0,-0.90698 48.600965,-1.0615 50.569455,-0.0739 0.67856,0.30233 2.64705,1.28994005 4.31322,2.04240005 4.08479,1.89459 10.52102,5.75095 10.82335,6.51013 0.15452,0.30233 0.60466,0.60466 0.98089,0.60466 0.37623,0 1.36383,0.6046602 2.12301,1.3638402 4.39384,4.01089 5.30083,4.69616 6.43624,4.69616 0.67856,0 1.20931,0.30233 1.20931,0.67856 0,0.37623 1.28994,1.51164 2.87548,2.42535 3.56076,2.27082 5.44863,3.86308 5.44863,4.69616 0,0.37624 0.83308,1.74007 1.89459,3.10391 1.06151,1.43774 1.89459,3.48013 1.89459,4.84397 0,1.36384 0.30233,2.42535 0.67856,2.42535 0.37623,0 0.90698,1.13541 1.20931,2.42534 0.60466,3.17781 2.87548,8.70706 5.60315,13.47713 2.64706,4.69616 4.01089,11.58253 4.39384,23.01054 0.22843,5.97938 0.0739,9.15719 -0.53075,9.54014 -0.45685,0.30233 -0.90699,4.770067 -1.06151,11.810958 -0.30233,10.977873 -0.0739,14.988763 0.98089,14.384113 0.22842,-0.15453 0.60465,1.74006 0.67856,4.31321 0.15452,2.49925 0.75918,5.30083 1.36383,6.13391 0.60466,0.83308 1.06151,2.12302 1.06151,2.87548 0,0.67856 0.83308,2.87548 1.89459,4.84397 1.06151,1.96849 1.89459,4.01089 1.89459,4.54164 0,0.60466 0.45685,1.06151 0.98089,1.06151 0.52404,0 1.06151,0.98089 1.13541,2.27082 0.15452,1.59227 -0.15452,2.27082 -0.98089,2.27082 -0.75918,0 -1.13541,0.75918 -1.13541,2.27083 0,2.57315 -2.12301,6.43623 -4.46774,8.02177 -0.83308,0.60466 -1.59226,1.74007 -1.66616,2.42535 0,0.75918 -0.22843,0.90698 -0.45685,0.37623 -0.22843,-0.67856 -1.13542,-0.45685 -3.10391,0.83308 -1.51164,0.90699 -3.40623,1.89459 -4.16541,2.19692 -0.75918,0.30233 -1.20931,0.75918 -1.06151,1.06151 0.22843,0.37623 -1.66616,0.67856 -4.23931,0.67856 -2.64706,0.0739 -4.77007,0.45685 -4.91788,0.98089 -0.15452,0.45685 -0.75918,0.83308 -1.43774,0.83308 -4.61554,0 -14.15568,10.59493 -11.65643,13.09417 1.28993,1.28994 1.0615,3.63466 -0.30233,3.10391 -0.67856,-0.30233 -1.13541,0 -1.13541,0.67856 0,0.60465 -0.22843,1.28993 -0.53076,1.43774 -1.13541,0.45685 -3.25843,5.97938 -3.25843,8.1763 0,1.28993 -0.30232,2.27082 -0.60465,2.27082 -1.28994,0 -4.16541,14.68644 -3.93699,20.28959 0.0739,3.70856 -1.13541,5.44863 -4.01089,5.44863 -1.36383,0 -2.87548,-0.37623 -3.40623,-0.90699 -0.67856,-0.67856 -1.36384,-0.60465 -2.80158,0.15453 -1.59226,0.83308 -2.27082,0.83308 -3.40623,0.15452 -0.83308,-0.45685 -2.80157,-1.13541 -4.54164,-1.36384 -1.66617,-0.30232 -3.25843,-0.83308 -3.48014,-1.13541 -0.22842,-0.37623 -3.25842,-0.67856 -6.81246,-0.67856 -3.55404,0 -6.28171,0.30233 -6.05329,0.60466 0.22843,0.37623 0,0.67856 -0.53075,0.67856 -0.53076,0.0739 -4.16542,0.30233 -8.1024,0.45685 -3.936988,0.22843 -7.417123,0.45685 -7.719451,0.45685 -0.228426,0.0739 -0.906985,1.28994 -1.363837,2.72768 C 92.109093,214.39534 91.497718,215 90.059979,215 c -1.061509,0 -1.666165,-0.30233 -1.43774,-0.75918 z m 7.195414,-9.99027 c 0,-1.59226 -1.289934,-3.1039 -2.123017,-2.57315 -1.061508,0.60466 -0.228426,3.48014 1.061508,3.48014 0.604657,0 1.061509,-0.45685 1.061509,-0.90699 z m 32.550681,0.14781 c 0.90699,-0.60466 0.83309,-0.75918 -0.53075,-0.75918 -0.98089,0 -1.74007,0.37623 -1.74007,0.75918 0,0.98089 0.83308,0.98089 2.27082,0 z m -5.97938,-3.25171 c -0.75918,-0.67856 -0.83308,-0.60466 -0.37623,0.45685 0.22843,0.75918 0.67856,1.13541 0.90699,0.90699 0.22842,-0.22843 0,-0.83309 -0.53076,-1.36384 z m 7.94788,0.67856 c 1.51164,-1.51164 1.36383,-1.96849 -0.75918,-1.96849 -1.43774,0 -1.74007,0.30232 -1.43774,1.51164 0.45685,1.81397 0.75918,1.89459 2.19692,0.45685 z m -4.46774,-4.31322 c 0.0739,-1.43774 0.0739,-1.51164 -0.30233,-0.30233 -0.22843,0.83309 -0.75918,1.81397 -1.28994,2.12302 -0.53075,0.45685 -0.45685,0.53075 0.30233,0.30233 0.60466,-0.15453 1.20932,-1.06151 1.28994,-2.12302 z m 7.26931,-1.20931 c -0.53075,-0.15453 -1.43774,-0.15453 -1.89459,0 -0.53075,0.22842 -0.15452,0.37623 0.90699,0.37623 1.06151,0 1.43774,-0.15452 0.98088,-0.37623 z m -4.77007,-0.53076 c 0,-0.22842 -0.37623,-0.60465 -0.90698,-0.90698 -0.53076,-0.30233 -0.60466,-0.22843 -0.30233,0.30233 0.53075,0.90698 1.20931,1.20931 1.20931,0.60465 z m -0.9876,-9.31171 c -0.30233,-0.22842 -0.75918,-0.22842 -1.06151,0 -0.22843,0.30233 0,0.53076 0.53075,0.53076 0.53076,0 0.75918,-0.22843 0.53076,-0.53076 z m 1.74678,-2.49925 c 0.60466,-1.13541 0.60466,-1.51164 -0.22842,-1.51164 -0.53076,0 -0.98089,0.67856 -0.98089,1.51164 0,0.83309 0.0739,1.51165 0.22843,1.51165 0.0739,0 0.53075,-0.67856 0.98088,-1.51165 z m -1.74678,-1.28993 c 0,-0.75918 -0.37623,-1.81397 -0.83308,-2.42535 -0.67856,-0.90698 -0.60466,-0.98088 0.53075,-0.60465 0.83308,0.30233 1.20931,0.22842 0.90698,-0.22843 -0.22842,-0.45685 -0.83308,-0.75918 -1.28993,-0.75918 -0.45685,0 -1.43774,-0.75918 -2.19692,-1.66616 -1.13541,-1.28994 -1.43774,-2.80158 -1.43774,-7.94788 0,-3.40623 -0.30233,-6.28171 -0.67856,-6.28171 -0.37623,0 -0.83308,-0.90698 -1.06151,-2.0424 -0.22842,-1.20931 -0.83308,-3.56075 -1.36383,-5.30082 -0.90699,-3.03 -0.90699,-3.25843 1.06151,-5.2202 2.19692,-2.19692 2.49924,-2.94938 1.28993,-3.70856 -0.37623,-0.22843 -0.75918,-1.89459 -0.75918,-3.56076 0,-5.75095 -2.27082,-11.05178 -6.05329,-14.15568 -1.89459,-1.51164 -4.23931,-3.48014 -5.30082,-4.39384 -1.06151,-0.98089 -2.12302,-1.74007 -2.42535,-1.74007 -0.37623,0 -0.60465,-0.53075 -0.60465,-1.13541 0,-0.60465 -0.53076,-1.13541 -1.13541,-1.13541 -1.28994,0 -3.93699,-1.36384 -5.52925,-2.80157 -0.530756,-0.53076 -1.363838,-0.98089 -1.740069,-0.98089 -0.376231,0 -1.666165,-0.83308 -2.801576,-1.89459 -1.13541,-1.06151 -2.499247,-1.89459 -3.030001,-1.89459 -0.530754,0 -1.135411,-0.53076 -1.363837,-1.13541 -0.302328,-0.60466 -0.906985,-1.13542 -1.511642,-1.13542 -0.604656,0 -1.061508,-0.30232 -1.061508,-0.75918 0,-0.37623 -0.456852,-0.75918 -1.061508,-0.75918 -0.604657,0 -1.592263,-0.45685 -2.123017,-0.98088 -0.530754,-0.53076 -1.511642,-1.20932 -2.123017,-1.51164 -2.270821,-1.06151 -4.239315,-2.49925 -6.966988,-5.22021 -1.592262,-1.592259 -3.177806,-2.875475 -3.634658,-2.875475 -0.376231,0 -0.75918,-0.302328 -0.75918,-0.678559 0,-0.376231 -0.75918,-0.980887 -1.666165,-1.289934 -1.968494,-0.604657 -9.687943,-8.021778 -9.687943,-9.311713 0,-0.456851 -0.302329,-0.833082 -0.67856,-0.833082 -0.37623,0 -0.980887,-0.75918 -1.289934,-1.666165 -0.302328,-0.980888 -0.75918,-1.894593 -0.980887,-2.123013 -0.980888,-0.67856 -2.042396,-11.28021 -1.209313,-11.65644 0.37623,-0.15452 0.154523,-0.37623 -0.530755,-0.37623 -1.740067,-0.0739 -1.81397,-3.56076 -0.228425,-6.58404 0.604656,-1.20931 1.13541,-3.48014 1.13541,-4.9985 0,-1.59226 0.302329,-2.87547 0.678559,-2.87547 0.376231,0 0.833083,-1.36384 1.135411,-3.03001 0.228426,-1.66616 0.833083,-3.03 1.209314,-3.03 0.456851,0 0.75918,-0.60465 0.75918,-1.36383 0,-0.67856 0.833082,-2.19692 1.89459,-3.33233 1.061509,-1.13541 1.894591,-2.57315 1.894591,-3.25843 0,-0.67856 0.530754,-1.36384 1.135411,-1.59226 0.604657,-0.30233 1.135411,-0.90699 1.135411,-1.51164 0,-0.60466 0.376231,-1.06151 0.75918,-1.06151 0.980887,0 5.300823,-4.31322 5.300823,-5.30083 0,-0.37623 0.456852,-0.53075 1.061509,-0.30232 0.530754,0.22842 1.511641,-0.0739 2.123016,-0.67856 0.611375,-0.60466 1.81397,-1.36384 2.727674,-1.59227 0.980887,-0.30232 1.437739,-0.90698 1.209313,-1.36383 -0.302328,-0.53076 -0.154524,-0.60466 0.302328,-0.30233 0.456852,0.30233 1.437739,-0.15452 2.196919,-1.06151 0.75918,-0.83308 2.123017,-1.51164 3.030002,-1.51164 0.980887,0 1.740067,-0.30233 1.740067,-0.75918 0,-0.45685 2.042396,-0.75918 4.541644,-0.75918 3.480135,0 4.615545,-0.30233 5.220202,-1.36384 0.376231,-0.67856 0.906985,-1.20931 1.135411,-1.06151 0.228426,0.0739 3.029998,0.15453 6.133908,0.15453 4.23931,0 5.52925,-0.22843 5.2202,-0.98761 -0.22843,-0.67856 0.45685,-0.90698 2.72767,-0.67856 1.66617,0.15453 3.25843,0.60466 3.48014,0.98761 0.22171,0.38295 3.40623,0.67856 7.1887,0.67856 3.86308,0 6.73856,0.30233 6.73856,0.75918 0,0.37623 -0.60466,0.53075 -1.28994,0.30233 -1.28993,-0.30233 0.15453,0.37623 4.31322,2.19691 3.33233,1.51165 10.59493,7.1887 9.61404,7.57165 -0.67856,0.30233 -0.67856,0.60466 -0.0739,1.06151 0.45685,0.30233 1.06151,1.36383 1.36384,2.34472 0.30232,0.90699 0.90698,1.66617 1.28993,1.66617 0.38295,0 0.67856,0.45685 0.67856,1.06151 0,0.60465 0.60466,2.19691 1.28993,3.63465 0.67856,1.36384 1.51165,3.10391 1.89459,3.78247 0.83309,1.81397 0.75919,12.48952 -0.0739,13.09417 -0.37623,0.22843 -0.98088,1.51164 -1.28993,2.80158 -0.22843,1.36383 -0.90699,3.1039 -1.36384,3.93698 -1.28993,2.27083 -9.84246,10.74946 -9.23781,9.15719 0.45685,-1.28993 0.37623,-1.36383 -0.83308,-0.30232 -1.74007,1.51164 -6.58404,3.70856 -8.02178,3.70856 -0.67856,0 -1.43774,0.30232 -1.66616,0.75918 -0.60466,0.90698 -9.23782,0.98088 -9.76857,0.0739 -0.22843,-0.30233 -1.36384,-0.83308 -2.49925,-1.13541 -1.20931,-0.22843 -2.72767,-0.90699 -3.48013,-1.51164 -1.36384,-1.06151 -1.36384,-1.20932 -0.15453,-3.78247 0.83309,-1.74006 1.81397,-2.72767 2.80158,-2.72767 0.75918,0 2.42534,-0.90699 3.70856,-2.12302 2.64706,-2.49924 4.31322,-9.91637 2.94938,-13.47712 -0.98088,-2.57315 -7.94787,-9.38562 -9.68794,-9.45952 -1.06151,0 -1.06151,-0.15452 0.22842,-0.75918 1.06151,-0.45685 0,-0.60466 -3.40623,-0.30233 -2.72767,0.22843 -4.99849,0.75918 -5.1463,1.13541 -0.15452,0.45685 -0.90698,0.75918 -1.66616,0.75918 -0.678562,0 -1.740071,0.53076 -2.270825,1.13541 -0.530754,0.60466 -1.437739,1.13541 -1.968493,1.13541 -0.604657,0 -1.061508,0.37624 -1.061508,0.75918 0,0.45686 -0.456852,0.75918 -0.906985,0.75918 -1.209314,0 -5.603152,4.01089 -8.707056,8.02178 -1.740068,2.19692 -2.499248,4.01089 -2.499248,5.83158 0,1.43774 -0.456851,2.80158 -0.906985,3.03 -0.678559,0.15453 -0.980887,2.19692 -0.980887,6.58404 0,4.38712 0.302328,6.43624 0.980887,6.66466 0.456852,0.15452 0.906985,0.98089 0.906985,1.81397 0,1.511643 3.480135,6.664661 4.541644,6.664661 0.302328,0 1.81397,1.209313 3.406232,2.647053 1.511642,1.511641 3.030002,2.499247 3.258428,2.344724 0.228425,-0.228426 0.833082,0.228426 1.437739,1.061508 0.530754,0.75918 2.196919,1.666165 3.634658,1.968493 1.511644,0.228426 2.875474,0.75918 3.103904,1.135411 0.22843,0.376231 1.28993,0.678559 2.42534,0.678559 1.13542,0 2.72768,0.530754 3.48014,1.135411 0.83308,0.604661 2.57315,1.135411 3.93699,1.135411 1.36383,0 2.64705,0.30233 2.94938,0.67856 0.53075,0.98089 9.31171,0.90698 9.84247,0 0.30232,-0.37623 1.28993,-0.67856 2.34472,-0.67856 1.05479,0 2.0424,-0.53075 2.27082,-1.135411 0.30233,-0.75918 1.51164,-1.135411 3.70856,-1.135411 1.9685,0 3.56076,-0.456851 4.16542,-1.135411 0.53075,-0.604656 1.59226,-1.13541 2.34472,-1.13541 0.83308,0 1.43774,-0.302329 1.43774,-0.75918 0,-0.376231 0.53075,-0.75918 1.13541,-0.75918 0.60466,0 1.13541,-0.530755 1.13541,-1.135411 0,-0.604657 0.53075,-1.135411 1.13541,-1.135411 0.60466,0 1.13541,-0.228426 1.13541,-0.604657 0,-0.302328 1.20931,-1.209313 2.64705,-1.968493 1.43774,-0.833082 2.64706,-1.81397 2.64706,-2.270822 0,-0.456851 1.0615,-1.289934 2.27082,-1.81397 1.36383,-0.604656 2.27082,-1.592262 2.27082,-2.425345 0,-0.759179 0.30233,-1.666169 0.75918,-1.894589 0.37623,-0.22843 1.28993,-1.74007 1.89459,-3.25843 0.67856,-1.51164 1.74007,-3.78246 2.27082,-5.0724 1.20932,-2.72767 2.94938,-14.98876 2.94938,-21.19657 0,-6.28171 -1.66616,-15.59342 -2.94938,-17.03116 -0.60465,-0.67856 -1.13541,-1.66617 -1.13541,-2.12302 0,-0.53075 -0.30233,-0.90698 -0.75918,-0.90698 -0.37623,0 -0.75918,-0.53076 -0.75918,-1.13542 0,-1.43773 -10.14479,-11.73705 -14.00788,-14.15568 -6.88637,-4.31322 -12.03938,-6.6646602 -14.68644,-6.6646602 -1.59226,0 -3.25842,-0.45685 -3.78246,-0.98761 -1.28993,-1.28993 -33.007536,-1.20931 -34.290751,0.0739 -0.530755,0.53075 -2.19692,0.90698 -3.708561,0.90698 -1.511642,0 -4.084792,0.6046602 -5.677054,1.2899402 -1.666165,0.67856 -3.406233,1.20931 -3.863084,1.0615 -0.530755,-0.0739 -0.980888,0.15453 -0.980888,0.53076 0,0.45685 -0.833082,0.9876 -1.894591,1.20931 -1.061508,0.30233 -1.894591,0.83308 -1.894591,1.20932 0,0.45685 -0.678559,0.75918 -1.592262,0.75918 -1.968493,0 -4.467741,1.36383 -4.467741,2.42534 0,0.45685 -0.833082,1.59226 -1.894591,2.57315 -1.061508,0.98089 -1.894591,1.96849 -1.894591,2.27082 0,0.30233 -0.75918,1.20932 -1.740067,2.12302 -2.042396,1.89459 -6.584039,8.93548 -6.584039,10.14479 0,0.53076 -0.302328,0.90699 -0.75918,0.90699 -0.376231,0 -0.906985,0.83308 -1.209313,1.89459 -0.228426,1.06151 -0.75918,1.89459 -1.135411,1.89459 -0.376231,0 -0.678559,0.83308 -0.678559,1.81397 0,0.98089 -0.530755,1.96849 -1.135411,2.27082 -0.678559,0.22843 -1.135411,1.43774 -1.135411,3.10391 0,1.43773 -0.302328,2.64705 -0.604657,2.64705 -0.302328,0 -1.13541,2.27082 -1.89459,5.1463 -1.43774,5.60315 -1.81397,19.45651 -0.530755,20.20897 0.456852,0.30233 0.604657,0.75918 0.456852,1.06151 -1.289934,2.04239 5.1463,15.969649 7.417122,15.969649 0.228425,0 2.801575,2.344724 5.677054,5.300823 2.94938,2.875479 5.603151,5.300819 5.979382,5.300819 0.376231,0 3.258428,2.49925 6.362332,5.52925 6.28171,6.05329 16.500408,11.88487 20.894246,11.88487 1.289934,0 2.425345,0.30232 2.425345,0.67855 0,0.37624 -0.75918,0.53076 -1.666165,0.22843 -1.061508,-0.22843 -1.437739,-0.15452 -1.061508,0.45685 0.302328,0.53076 1.135411,0.90699 1.894591,0.90699 0.75918,0 1.81397,0.53075 2.344724,1.13541 0.530754,0.60465 1.363836,1.13541 1.894591,1.13541 0.604656,0 1.13541,0.22842 1.289934,0.60466 0.154523,0.30232 1.666168,1.51164 3.480138,2.64705 1.81397,1.13541 3.40623,2.57315 3.70856,3.1778 0.22842,0.60466 0.75918,1.13542 1.28993,1.13542 0.45685,0 1.43774,2.12301 2.19692,4.77006 0.83308,2.57315 1.59226,5.22021 1.81397,5.83158 0.22171,0.61138 0.53075,3.03 0.60466,5.30083 0.15452,4.08479 0.15452,4.16541 -1.89459,4.23931 -1.51165,0.0739 -2.0424,-0.22843 -1.74007,-0.90698 0.22842,-0.60466 -0.15452,-1.06151 -0.83308,-1.06151 -0.67856,0 -1.20932,0.53075 -1.20932,1.13541 0,0.60465 -0.30233,1.13541 -0.75918,1.13541 -0.37623,0 -0.75918,0.75918 -0.75918,1.74007 0,0.98088 -0.37623,2.12301 -0.83308,2.57315 -0.67856,0.67856 -0.67856,1.81397 -0.0739,4.16541 0.90699,3.86308 0.60466,10.37322 -0.53075,12.56342 -1.06151,2.0424 -1.06151,4.91787 0.0739,6.05329 1.20931,1.20931 9.84246,1.13541 12.94637,-0.0739 3.25843,-1.28993 4.77007,-1.13541 4.46774,0.45685 -0.15452,0.90699 0.45685,1.43774 2.12302,1.74007 1.20931,0.30233 2.27082,0.75918 2.27082,1.13541 0,0.37623 0.30233,0.67856 0.60466,0.67856 0.37623,0 0.67855,-0.60465 0.67855,-1.28993 z m -2.0424,-20.66582 c 0,-0.37623 -0.30233,-0.75918 -0.75918,-0.75918 -0.37623,0 -0.75918,0.37623 -0.75918,0.75918 0,0.45685 0.37623,0.75918 0.75918,0.75918 0.45685,0 0.75918,-0.30233 0.75918,-0.75918 z m 2.12302,-6.12719 c 0.22842,-0.90698 0.15452,-0.90698 -0.45685,0 -0.45685,0.60466 -1.13541,0.75918 -1.66617,0.45685 -0.67856,-0.37623 -0.83308,-0.30233 -0.45685,0.30233 0.75918,1.13541 2.12302,0.75918 2.57315,-0.75918 z m -0.0806,-2.65377 c -0.22843,-0.22843 -0.90699,-0.30233 -1.43774,-0.0739 -0.60466,0.22843 -0.37623,0.45685 0.45685,0.45685 0.83308,0.0739 1.28993,-0.15452 0.98089,-0.37623 z m -46.323422,-4.08479 c 0.228426,-0.83308 1.289934,-1.74007 2.344724,-1.96849 0.980888,-0.22843 1.81397,-0.90699 1.81397,-1.51165 0,-0.60465 0.530754,-1.0615 1.135411,-1.0615 0.604657,0 1.135411,-0.30233 1.135411,-0.60466 0,-0.37623 0.833082,-1.06151 1.894591,-1.51164 1.135411,-0.53076 1.894591,-1.51164 1.894591,-2.42535 0,-0.83308 0.456851,-1.43774 0.980887,-1.28993 1.437739,0.22842 1.666165,-5.83158 0.228426,-7.26932 -0.678559,-0.67856 -1.209313,-1.51164 -1.209313,-1.96849 0,-0.37623 -1.592263,-0.98089 -3.560756,-1.20931 -4.239315,-0.53076 -7.947876,-1.81397 -8.707056,-2.94939 -0.376231,-0.53075 -0.833083,-0.53075 -1.511642,0.15453 -1.209313,1.20931 -4.393838,1.13541 -5.831577,-0.15453 -3.782463,-3.33233 -9.916369,-5.30082 -11.05178,-3.48013 -0.228426,0.45685 -1.289934,0.75918 -2.196919,0.75918 -1.135411,0 -2.499248,0.90698 -3.708561,2.57315 -1.740067,2.19692 -1.968493,3.25843 -1.968493,8.2502 0,4.77007 0.302328,5.97939 1.666165,7.64555 0.980887,1.06151 2.270821,1.96849 3.030001,1.96849 0.67856,0 1.289935,0.37623 1.289935,0.75918 0,0.45686 0.75918,0.75918 1.740067,0.75918 0.906985,0 2.344724,0.53076 3.103904,1.13541 0.833083,0.60466 2.042396,1.13542 2.801576,1.13542 0.678559,0 2.270822,0.53075 3.406232,1.13541 1.209314,0.60465 2.949381,1.13541 3.936987,1.13541 0.906985,0 1.666165,0.37623 1.666165,0.75918 0,0.45685 1.135411,0.75918 2.57315,0.75918 1.968493,0 2.727673,-0.37623 3.103904,-1.51164 z m 71.537602,-3.86309 c 1.43774,-0.60465 2.80158,-1.20931 3.03,-1.43773 0.37623,-0.37624 4.39384,-2.34473 8.55253,-4.0848 5.44863,-2.34472 6.96699,-3.1778 8.25021,-4.39383 0.75918,-0.75918 1.36383,-1.66617 1.36383,-1.9685 0,-0.30233 0.98089,-1.13541 2.12302,-1.81397 1.96849,-1.20931 2.12302,-1.59226 1.89459,-4.91787 -0.22842,-2.19692 -1.13541,-4.91788 -2.34472,-6.81247 -1.66617,-2.64705 -2.42535,-3.25842 -4.31322,-3.25842 -1.20931,0.0739 -2.94938,0.53075 -3.70856,1.13541 -0.83308,0.60465 -2.42534,1.13541 -3.63466,1.13541 -1.13541,0 -2.12301,0.37623 -2.12301,0.75918 0,0.45685 -1.20932,0.75918 -2.72768,0.75918 -2.72767,0 -8.93548,2.42534 -9.76856,3.78246 -0.22843,0.37623 -1.43774,0.75918 -2.64705,0.75918 -1.20932,0 -2.34473,0.30233 -2.57315,0.67856 -0.22843,0.30233 -1.81397,0.83308 -3.48014,1.13541 -1.66616,0.22843 -3.03,0.83308 -3.03,1.20931 0,0.45686 -0.60466,0.75918 -1.28994,0.75918 -2.04239,0 -4.77006,3.70857 -4.77006,6.58404 0,3.10391 2.27082,7.49775 5.07239,9.84247 1.89459,1.51164 2.80158,1.74007 7.80007,1.51164 3.10391,-0.15452 6.88637,-0.75918 8.32411,-1.36384 z M 43.602193,113.38409 c 0,-0.30233 -0.678559,-0.60466 -1.511642,-0.60466 -1.592262,0 -1.81397,0.60466 -0.980887,2.72768 0.456851,1.20931 0.530754,1.20931 1.511641,-0.15453 0.530754,-0.75918 0.980888,-1.59226 0.980888,-1.96849 z"
     id="path4"
     inkscape:connector-curvature="0"
     style="fill:#000000;stroke-width:6.71840715;fill-opacity:1" />
</svg>
