<?xml version="1.0" encoding="UTF-8" standalone="no"?>
<!-- Generated by IcoMoon.io -->

<svg
   xmlns:dc="http://purl.org/dc/elements/1.1/"
   xmlns:cc="http://creativecommons.org/ns#"
   xmlns:rdf="http://www.w3.org/1999/02/22-rdf-syntax-ns#"
   xmlns:svg="http://www.w3.org/2000/svg"
   xmlns="http://www.w3.org/2000/svg"
   xmlns:sodipodi="http://sodipodi.sourceforge.net/DTD/sodipodi-0.dtd"
   xmlns:inkscape="http://www.inkscape.org/namespaces/inkscape"
   version="1.1"
   width="215"
   height="215"
   viewBox="0 0 215 215"
   id="svg12"
   sodipodi:docname="climate.svg"
   inkscape:version="0.92.3 (2405546, 2018-03-11)">
  <metadata
     id="metadata18">
    <rdf:RDF>
      <cc:Work
         rdf:about="">
        <dc:format>image/svg+xml</dc:format>
        <dc:type
           rdf:resource="http://purl.org/dc/dcmitype/StillImage" />
        <dc:title>twists-climate</dc:title>
      </cc:Work>
    </rdf:RDF>
  </metadata>
  <defs
     id="defs16" />
  <sodipodi:namedview
     pagecolor="#ffffff"
     bordercolor="#666666"
     borderopacity="1"
     objecttolerance="10"
     gridtolerance="10"
     guidetolerance="10"
     inkscape:pageopacity="0"
     inkscape:pageshadow="2"
     inkscape:window-width="1920"
     inkscape:window-height="1017"
     id="namedview14"
     showgrid="false"
     fit-margin-top="0"
     fit-margin-left="0"
     fit-margin-right="0"
     fit-margin-bottom="0"
     inkscape:zoom="0.4609375"
     inkscape:cx="-1132.9541"
     inkscape:cy="-307.20436"
     inkscape:window-x="-8"
     inkscape:window-y="-8"
     inkscape:window-maximized="1"
     inkscape:current-layer="svg12" />
  <title
     id="title2">twists-climate</title>
  <g
     id="g832"
     transform="matrix(6.7180678,0,0,6.7180678,0.00515897,0.01252554)">
    <path
       id="path4"
       d="m 15.133,31.571 c -0.149,-0.183 -0.31,-0.333 -0.367,-0.344 -0.161,0 -0.768,-0.608 -0.768,-0.768 0,-0.08 -0.138,-0.149 -0.31,-0.16 -0.275,0 -0.287,-0.023 -0.092,-0.092 0.206,-0.08 0.195,-0.092 -0.069,-0.16 -0.161,-0.046 -0.482,-0.252 -0.711,-0.482 -0.229,-0.218 -0.47,-0.401 -0.539,-0.401 -0.057,0 -0.115,-0.069 -0.115,-0.138 0,-0.126 -0.631,-0.631 -0.963,-0.768 C 11.142,28.235 10.855,27.971 10.557,27.673 10.156,27.272 9.972,27.157 9.88,27.249 9.788,27.341 9.754,27.306 9.754,27.123 9.754,26.974 9.559,26.676 9.295,26.424 9.043,26.183 8.836,25.942 8.836,25.897 8.836,25.725 8.125,24.934 7.919,24.865 7.793,24.819 7.69,24.716 7.69,24.624 c 0,-0.092 -0.08,-0.16 -0.172,-0.16 -0.092,0 -0.172,-0.046 -0.172,-0.115 0,-0.057 -0.08,-0.115 -0.172,-0.115 -0.092,0 -0.172,-0.069 -0.172,-0.149 0,-0.08 -0.206,-0.367 -0.459,-0.631 -0.252,-0.252 -0.459,-0.527 -0.459,-0.596 0,-0.057 0.218,-0.115 0.482,-0.115 0.264,0 0.436,0.034 0.401,0.069 -0.138,0.149 0.482,0.505 0.86,0.505 0.275,0 0.482,-0.092 0.699,-0.321 0.287,-0.298 0.31,-0.401 0.31,-1.238 0,-0.527 -0.057,-0.975 -0.126,-1.043 C 8.63,20.635 8.572,20.107 8.561,19.396 L 8.55,18.215 9.353,18.181 c 0.447,-0.011 0.963,-0.103 1.17,-0.195 0.401,-0.195 1.353,-0.241 1.238,-0.057 -0.034,0.057 -0.138,0.08 -0.229,0.034 -0.092,-0.034 -0.172,-0.023 -0.172,0.011 0,0.046 0.126,0.126 0.287,0.183 l 0.287,0.115 v 1.949 c 0,1.158 0.046,1.938 0.103,1.903 0.057,-0.046 0.046,0.08 -0.023,0.275 -0.092,0.252 -0.092,0.436 0.011,0.722 0.08,0.206 0.138,0.665 0.138,1.009 0,0.78 0.229,1.02 0.975,1.02 h 0.516 v -0.459 c 0,-0.31 0.069,-0.482 0.206,-0.562 0.103,-0.069 0.126,-0.126 0.057,-0.126 -0.298,0 -0.493,-0.665 -0.493,-1.64 0,-0.527 -0.057,-1.135 -0.138,-1.341 -0.103,-0.298 -0.103,-0.401 0,-0.436 0.092,-0.023 0.138,-0.333 0.138,-0.837 0,-0.871 0.229,-1.594 0.505,-1.594 0.103,0 0.183,-0.046 0.183,-0.103 0,-0.057 0.126,-0.046 0.287,0.023 0.161,0.08 0.287,0.172 0.287,0.218 0,0.069 1.502,0.034 2.809,-0.08 0.573,-0.046 0.734,-0.011 0.975,0.183 l 0.287,0.229 -0.287,-0.138 c -0.275,-0.138 -0.287,-0.126 -0.08,0.092 0.149,0.172 0.195,0.424 0.183,1.135 -0.011,0.631 -0.034,0.814 -0.103,0.619 -0.069,-0.195 -0.092,-0.023 -0.103,0.596 -0.011,0.482 0.046,0.917 0.103,0.952 0.16,0.103 0.149,1.273 -0.023,1.731 -0.103,0.287 -0.103,0.447 -0.011,0.642 0.069,0.149 0.16,0.355 0.195,0.459 0.046,0.16 0.138,0.183 0.436,0.126 0.206,-0.034 0.401,-0.115 0.413,-0.172 0.023,-0.046 0.092,-0.092 0.16,-0.092 0.378,0 0.424,-0.436 0.436,-5.125 0,-1.043 0.034,-1.296 0.16,-1.296 0.092,0 0.183,-0.069 0.218,-0.138 0.034,-0.115 0.08,-0.115 0.229,0 0.092,0.08 0.527,0.172 0.952,0.195 1.009,0.057 1.181,0.252 1.192,1.296 0,0.55 0.046,0.734 0.183,0.791 0.149,0.057 0.149,0.08 0.023,0.16 -0.115,0.08 -0.115,0.103 0,0.103 0.069,0 0.138,0.08 0.138,0.172 0,0.092 -0.08,0.172 -0.183,0.172 -0.149,0 -0.172,0.149 -0.149,0.917 0.023,0.677 0.08,0.917 0.195,0.917 0.08,0 0.115,-0.057 0.08,-0.126 -0.046,-0.069 0.023,-0.149 0.16,-0.183 0.137,-0.034 0.241,-0.103 0.241,-0.16 0,-0.057 0.103,-0.103 0.241,-0.103 0.126,0 0.344,-0.057 0.47,-0.126 0.126,-0.069 0.447,-0.138 0.711,-0.16 0.252,-0.023 0.378,-0.011 0.275,0.023 -0.115,0.023 -0.206,0.103 -0.206,0.16 0,0.057 0.092,0.103 0.206,0.115 0.172,0 0.172,0.011 -0.023,0.092 -0.206,0.08 -0.206,0.092 -0.034,0.16 0.103,0.034 0.195,0.138 0.195,0.206 0,0.092 -0.046,0.092 -0.172,-0.011 -0.115,-0.103 -0.172,-0.103 -0.172,-0.011 0,0.069 -0.069,0.126 -0.138,0.126 -0.16,0 -2.614,2.488 -2.614,2.649 0,0.057 -0.069,0.103 -0.149,0.103 -0.092,0 -0.378,0.195 -0.642,0.436 -0.94,0.826 -3.681,3.589 -3.681,3.692 0,0.069 -0.08,0.115 -0.172,0.115 -0.103,0 -0.206,0.08 -0.241,0.172 -0.046,0.092 -0.138,0.172 -0.229,0.172 -0.218,0 -1.307,1.147 -1.307,1.376 0,0.092 -0.092,0.229 -0.218,0.31 -0.172,0.115 -0.252,0.08 -0.482,-0.195 z M 14.8,30.654 c 0.092,-0.057 0.126,-0.138 0.092,-0.183 -0.046,-0.034 -0.161,0.011 -0.264,0.115 -0.206,0.195 -0.103,0.241 0.172,0.069 z m -0.344,-0.459 c -0.092,-0.057 -0.218,-0.115 -0.287,-0.115 -0.057,0 -0.034,0.057 0.057,0.115 0.091,0.058 0.229,0.115 0.287,0.115 0.069,0 0.034,-0.057 -0.057,-0.115 z m 4.472,-3.887 c 0,-0.057 0.034,-0.183 0.069,-0.287 0.046,-0.138 0,-0.183 -0.172,-0.183 -0.183,0 -0.241,0.069 -0.241,0.287 0,0.183 0.069,0.287 0.172,0.287 0.092,0 0.172,-0.046 0.172,-0.103 z"
       inkscape:connector-curvature="0"
       style="fill:#ffffff" />
    <path
       id="path6"
       d="m 2.761,16.78 c 0,-0.057 -0.08,-0.115 -0.172,-0.115 -0.115,0 -0.172,-0.115 -0.172,-0.344 0,-0.287 -0.046,-0.344 -0.287,-0.344 -0.172,0 -0.287,0.069 -0.287,0.161 0,0.092 -0.126,0.195 -0.287,0.229 -0.161,0.046 -0.287,0.126 -0.287,0.183 0,0.069 -0.161,0.115 -0.355,0.115 -0.333,0 -0.355,-0.023 -0.287,-0.31 0.057,-0.241 0.046,-0.275 -0.046,-0.149 -0.103,0.149 -0.126,0.149 -0.229,0 C 0.295,16.114 0.26,15.965 0.295,15.896 0.318,15.816 0.272,15.747 0.18,15.747 c -0.298,0 -0.183,-0.218 0.149,-0.264 l 0.31,-0.046 -0.31,-0.023 c -0.333,-0.011 -0.436,-0.31 -0.206,-0.539 0.138,-0.138 0.195,-2.224 0.069,-2.431 -0.046,-0.08 -0.046,-0.138 0.011,-0.126 0.229,0.034 0.39,-0.023 0.321,-0.126 -0.034,-0.069 0.046,-0.115 0.195,-0.103 0.149,0 0.195,0.034 0.115,0.069 -0.103,0.034 -0.034,0.138 0.206,0.287 l 0.367,0.218 0.264,-0.298 c 0.149,-0.161 0.333,-0.287 0.401,-0.287 0.057,0 0.115,-0.08 0.115,-0.172 0,-0.092 0.057,-0.172 0.115,-0.172 0.069,0 0.115,-0.172 0.115,-0.367 0,-0.378 -0.527,-1.124 -0.78,-1.124 -0.069,0 -0.138,-0.057 -0.161,-0.138 C 1.442,10.013 1.304,10.059 1.04,10.243 0.834,10.392 0.696,10.461 0.742,10.381 0.799,10.289 0.731,10.243 0.559,10.243 0.41,10.243 0.226,10.14 0.146,10.014 0.031,9.819 0.043,9.75 0.249,9.544 0.387,9.406 0.604,9.326 0.788,9.338 1.476,9.395 1.499,9.372 1.51,8.73 1.51,8.397 1.556,8.019 1.602,7.893 1.659,7.767 1.659,7.583 1.613,7.492 1.235,6.724 1.212,6.655 1.361,6.609 1.43,6.575 1.499,6.38 1.499,6.173 1.499,5.944 1.568,5.772 1.671,5.726 1.774,5.692 1.809,5.588 1.763,5.474 1.717,5.348 1.729,5.302 1.809,5.348 1.889,5.405 1.97,5.291 2.015,5.073 2.061,4.878 2.244,4.591 2.428,4.431 2.611,4.259 2.761,4.053 2.761,3.961 2.761,3.869 2.83,3.823 2.933,3.869 3.093,3.926 3.564,3.548 3.564,3.353 3.564,3.227 4.252,2.562 4.378,2.562 4.447,2.562 4.55,2.516 4.63,2.447 4.974,2.183 5.559,1.679 5.868,1.381 6.235,1.048 6.659,0.968 6.659,1.243 6.659,1.438 7.06,1.472 7.175,1.289 7.221,1.232 7.37,1.128 7.496,1.06 7.794,0.934 8.138,0.716 8.344,0.544 8.413,0.475 8.619,0.441 8.78,0.475 8.986,0.509 9.067,0.486 9.044,0.372 9.021,0.246 9.296,0.211 10.443,0.189 c 0.791,-0.011 1.479,0.023 1.548,0.08 0.138,0.103 0.963,0.287 1.17,0.252 0.069,-0.023 0.161,0.023 0.206,0.092 0.034,0.057 0.241,0.115 0.459,0.115 0.229,0 0.436,0.069 0.493,0.172 0.046,0.103 0.206,0.195 0.333,0.206 0.138,0 0.218,0.057 0.195,0.103 -0.034,0.057 0.034,0.126 0.149,0.172 0.264,0.103 0.493,0.321 0.493,0.482 0,0.069 0.08,0.126 0.172,0.126 0.092,0 0.172,0.08 0.172,0.172 0,0.092 0.08,0.172 0.172,0.172 0.092,0 0.172,0.057 0.172,0.115 0,0.069 0.08,0.115 0.172,0.115 0.092,0 0.172,0.08 0.172,0.172 0,0.092 0.057,0.172 0.115,0.172 0.069,0 0.115,0.069 0.115,0.16 0,0.091 0.069,0.241 0.16,0.321 0.08,0.092 0.183,0.31 0.218,0.493 0.287,1.456 0.505,2.121 0.699,2.121 0.057,0 0.218,0.126 0.367,0.287 0.149,0.161 0.333,0.287 0.413,0.287 0.08,0 0.252,0.08 0.367,0.172 0.126,0.092 0.344,0.172 0.482,0.172 0.149,0 0.298,0.057 0.333,0.115 0.092,0.149 0.975,0.149 0.975,0 0,-0.057 0.069,-0.115 0.149,-0.115 0.092,0 0.31,-0.126 0.493,-0.287 0.183,-0.161 0.459,-0.321 0.619,-0.355 0.16,-0.034 0.378,-0.103 0.482,-0.172 0.527,-0.275 1.926,0 2.19,0.436 0.057,0.08 0.149,0.115 0.218,0.08 0.069,-0.046 0.092,-0.034 0.057,0.034 -0.103,0.16 0.333,0.493 0.665,0.493 0.149,0 0.31,0.057 0.344,0.115 0.034,0.069 0.378,0.115 0.757,0.115 0.379,0 0.677,-0.046 0.677,-0.115 0,-0.057 0.069,-0.115 0.16,-0.115 0.091,0 0.183,-0.057 0.206,-0.138 0.023,-0.069 0.16,-0.149 0.298,-0.172 0.229,-0.034 0.252,0.011 0.252,0.482 0,0.287 -0.046,0.516 -0.103,0.516 -0.057,0 -0.138,0.126 -0.172,0.287 -0.046,0.161 -0.126,0.287 -0.183,0.287 -0.069,0 -0.115,0.057 -0.115,0.126 0,0.069 -0.149,0.275 -0.333,0.459 -0.333,0.321 -0.367,0.333 -1.548,0.333 -1.112,0 -1.215,0.023 -1.387,0.264 -0.172,0.241 -0.172,0.252 0.252,0.344 1.135,0.241 2.018,0.321 2.11,0.183 0.046,-0.092 0.573,-0.161 1.41,-0.195 1.158,-0.046 1.399,-0.023 1.766,0.161 0.229,0.126 0.493,0.287 0.573,0.355 0.08,0.08 0.218,0.149 0.31,0.149 0.08,0 0.172,0.034 0.195,0.092 0.023,0.046 0.229,0.183 0.459,0.298 0.378,0.195 0.413,0.241 0.241,0.355 -0.092,0.069 -0.149,0.206 -0.115,0.298 0.046,0.115 0.069,0.103 0.069,-0.034 0.011,-0.252 0.241,-0.275 0.241,-0.034 0,0.195 0.069,0.195 -1.445,0.172 -1.112,-0.011 -1.158,0 -1.376,0.287 -0.31,0.413 -0.791,0.631 -1.433,0.631 -0.298,0 -0.585,0.057 -0.619,0.115 -0.046,0.069 -0.126,0.092 -0.183,0.057 -0.057,-0.046 -0.103,-0.011 -0.103,0.046 0,0.069 -0.206,0.126 -0.459,0.126 -0.253,0 -0.459,-0.046 -0.459,-0.103 0,-0.206 -0.47,-0.218 -0.711,-0.023 l -0.241,0.206 0.229,0.229 c 0.183,0.183 0.424,0.252 0.94,0.287 0.39,0.011 0.699,0 0.699,-0.046 0,-0.046 0.069,-0.057 0.16,-0.023 0.092,0.034 0.195,0.011 0.241,-0.057 0.092,-0.161 0.86,-0.161 0.86,-0.011 0,0.069 0.126,0.115 0.264,0.115 0.172,0 0.424,0.172 0.665,0.436 0.218,0.241 0.562,0.516 0.768,0.608 0.195,0.08 0.367,0.218 0.367,0.298 0,0.069 0.138,0.149 0.31,0.172 0.218,0.023 0.31,0.103 0.321,0.298 0.011,0.138 -0.057,0.31 -0.138,0.39 -0.103,0.08 -0.115,0.149 -0.034,0.206 0.057,0.034 -0.333,0.08 -0.871,0.08 -0.55,0.011 -1.043,0.069 -1.112,0.138 -0.16,0.16 -1.376,0.16 -1.536,0 -0.092,-0.092 -0.195,-0.092 -0.367,0.011 -0.16,0.08 -0.929,0.126 -2.167,0.126 -1.387,0 -1.972,0.034 -2.11,0.138 -0.218,0.172 -1.227,0.16 -1.571,-0.023 -0.138,-0.08 -1.066,-0.126 -2.396,-0.126 -1.812,0 -2.201,0.034 -2.316,0.172 -0.115,0.138 -0.298,0.16 -0.78,0.115 -0.355,-0.034 -0.688,-0.103 -0.757,-0.172 -0.057,-0.057 -0.573,-0.115 -1.124,-0.115 -0.596,0 -1.009,-0.046 -1.009,-0.115 0,-0.057 -0.08,-0.115 -0.172,-0.115 -0.092,0 -0.172,0.057 -0.172,0.115 0,0.069 -0.287,0.115 -0.631,0.115 -0.344,0 -0.734,0.069 -0.86,0.149 -0.195,0.115 -0.252,0.103 -0.333,-0.023 -0.069,-0.115 -0.321,-0.138 -0.883,-0.115 -1.514,0.057 -1.88,0.011 -1.88,-0.229 0,-0.126 -0.046,-0.264 -0.115,-0.298 -0.057,-0.034 -0.115,-0.218 -0.115,-0.413 0,-0.183 0.057,-0.333 0.115,-0.333 0.069,0 0.115,-0.103 0.115,-0.218 0,-0.126 -0.046,-0.264 -0.115,-0.298 -0.057,-0.034 -0.115,-0.195 -0.115,-0.355 0,-0.206 0.057,-0.275 0.241,-0.275 0.126,0 0.31,-0.08 0.401,-0.172 0.103,-0.092 0.378,-0.172 0.619,-0.172 0.275,0 0.459,-0.057 0.505,-0.172 0.034,-0.092 0.138,-0.172 0.218,-0.172 0.092,0 0.149,-0.103 0.138,-0.252 C 9.447,12.725 9.39,12.713 8.472,12.679 7.704,12.645 7.474,12.679 7.36,12.817 7.268,12.92 7.142,13 7.073,13 c -0.08,0 -0.252,0.115 -0.378,0.264 -0.183,0.195 -0.252,0.47 -0.298,1.158 -0.034,0.493 -0.103,0.94 -0.16,0.975 -0.103,0.08 -0.378,0.55 -0.378,0.642 0,0.103 0.631,-0.092 0.711,-0.218 0.046,-0.069 0.092,0.023 0.092,0.206 0,0.183 -0.034,0.31 -0.069,0.264 -0.103,-0.103 -0.39,0.218 -0.39,0.424 0,0.138 -0.115,0.183 -0.459,0.183 -0.631,0 -0.94,-0.287 -0.894,-0.837 0.034,-0.516 -0.046,-0.596 -0.355,-0.401 -0.172,0.103 -0.241,0.264 -0.241,0.585 0,0.321 -0.046,0.436 -0.149,0.39 -0.08,-0.034 -0.275,0.011 -0.436,0.103 -0.321,0.183 -0.906,0.206 -0.906,0.046 z M 1.064,16.344 c -0.16,-0.046 -0.183,-0.596 -0.023,-0.596 0.069,0 0.115,0.057 0.115,0.115 0,0.172 0.333,0.138 0.516,-0.046 0.115,-0.115 0.126,-0.183 0.023,-0.287 -0.172,-0.172 -0.424,-0.161 -0.424,0.034 0,0.092 -0.092,0.149 -0.195,0.138 -0.138,-0.011 -0.218,0.103 -0.264,0.401 -0.069,0.378 -0.046,0.413 0.16,0.355 0.126,-0.034 0.172,-0.08 0.092,-0.115 z m 2.27,-0.252 c 0,-0.126 -0.046,-0.229 -0.115,-0.229 -0.057,0 -0.115,0.103 -0.115,0.229 0,0.126 0.057,0.229 0.115,0.229 0.069,0 0.115,-0.103 0.115,-0.229 z M 29.82,15.404 c 0,-0.126 -0.08,-0.229 -0.172,-0.229 -0.149,0 -0.149,0.034 -0.034,0.229 0.08,0.126 0.16,0.229 0.172,0.229 0.023,0 0.034,-0.103 0.034,-0.229 z M 3.93,9.018 C 3.964,8.708 4.251,8.491 4.251,8.777 4.251,9.282 5.822,9.522 6.556,9.132 7.771,8.478 7.897,7.435 6.889,6.541 6.499,6.186 5.857,6.117 5.628,6.403 5.548,6.495 5.422,6.575 5.341,6.575 5.26,6.575 5.169,6.655 5.123,6.747 5.089,6.839 4.951,6.919 4.825,6.919 4.699,6.919 4.596,6.965 4.596,7.022 4.596,7.079 4.504,7.16 4.401,7.194 4.149,7.286 3.759,7.515 3.518,7.71 3.254,7.928 3.266,8.96 3.541,9.166 3.828,9.384 3.885,9.361 3.931,9.017 Z m 9.15,0.195 c 0,-0.057 -0.046,-0.115 -0.115,-0.115 -0.057,0 -0.115,0.057 -0.115,0.115 0,0.069 0.057,0.115 0.115,0.115 0.069,0 0.115,-0.046 0.115,-0.115 z M 26.518,8.846 c -0.069,-0.069 -0.183,-0.08 -0.252,-0.034 -0.103,0.069 -0.103,0.103 0.011,0.183 0.195,0.115 0.39,0 0.241,-0.149 z M 8.379,7.172 C 8.115,7.126 8.104,7.115 8.322,7.023 8.517,6.954 8.517,6.931 8.356,6.931 8.241,6.92 8.15,6.851 8.15,6.782 8.15,6.702 8.093,6.725 8.024,6.851 7.875,7.092 8.058,7.264 8.437,7.241 8.609,7.241 8.598,7.218 8.38,7.172 Z M 2.417,6.289 c 0,-0.16 0.046,-0.287 0.115,-0.287 0.057,0 0.138,-0.126 0.183,-0.287 0.034,-0.16 0.126,-0.287 0.183,-0.287 0.069,0 0.08,0.092 0.034,0.206 C 2.875,5.783 2.898,5.794 3.001,5.691 3.184,5.508 3.047,5.347 2.703,5.347 2.497,5.347 2.416,5.404 2.416,5.565 2.416,5.68 2.347,5.806 2.267,5.84 2.164,5.874 2.129,6.023 2.164,6.23 2.221,6.643 2.416,6.689 2.416,6.287 Z M 3.162,6.266 C 3.036,6.232 2.898,6.151 2.852,6.071 2.795,5.991 2.76,6.014 2.76,6.151 2.76,6.288 2.84,6.346 3.081,6.334 3.322,6.323 3.333,6.311 3.161,6.265 Z m 8.68,-2.007 c -0.103,-0.103 -0.172,-0.103 -0.275,0 -0.103,0.103 -0.08,0.138 0.138,0.138 0.218,0 0.241,-0.034 0.138,-0.138 z M 11.246,2.448 c 0,-0.057 -0.023,-0.115 -0.046,-0.115 -0.034,0 -0.092,0.057 -0.126,0.115 -0.034,0.069 -0.011,0.115 0.046,0.115 0.069,0 0.126,-0.046 0.126,-0.115 z"
       inkscape:connector-curvature="0"
       style="fill:#ffffff" />
    <path
       id="path8"
       d="M 19.902,5.544 C 19.948,5.475 19.822,5.395 19.627,5.361 19.363,5.304 19.249,5.212 19.203,4.983 19.111,4.582 18.676,3.699 18.469,3.481 18.274,3.275 17.896,2.426 17.964,2.311 18.021,2.231 17.987,2.208 17.861,2.254 17.735,2.3 17.701,2.277 17.746,2.151 c 0.057,-0.172 0.734,-0.229 0.883,-0.08 0.126,0.126 0.86,0.149 0.929,0.023 0.046,-0.057 0.195,-0.103 0.344,-0.103 0.149,0 0.413,-0.057 0.573,-0.138 0.206,-0.092 0.367,-0.092 0.55,-0.011 0.138,0.069 0.436,0.126 0.654,0.138 0.413,0.011 1.147,0.333 1.147,0.493 0,0.057 0.08,0.092 0.172,0.092 0.092,0 0.172,0.057 0.172,0.115 0,0.172 0.436,0.573 0.619,0.573 0.092,0 0.206,0.057 0.241,0.115 0.034,0.069 0.252,0.115 0.47,0.115 0.252,0 0.482,0.092 0.642,0.252 0.172,0.172 0.183,0.218 0.057,0.172 C 25.061,3.861 25.004,3.918 24.981,4.148 24.947,4.423 24.912,4.458 24.545,4.423 24.327,4.4 24.132,4.331 24.109,4.274 24.052,4.136 22.859,4.148 22.768,4.285 22.734,4.354 22.596,4.4 22.481,4.4 22.366,4.4 22.194,4.469 22.114,4.549 21.942,4.698 21.77,4.801 20.807,5.317 20.188,5.661 19.764,5.764 19.901,5.546 Z"
       inkscape:connector-curvature="0"
       style="fill:#ffffff" />
    <path
       id="path10"
       d="m 12.14,0.189 c 0.069,-0.023 0.206,-0.023 0.287,0 0.069,0.034 0.011,0.057 -0.149,0.057 -0.16,0 -0.218,-0.023 -0.138,-0.057 z"
       inkscape:connector-curvature="0"
       style="fill:#ffffff" />
  </g>
</svg>
