<?xml version="1.0" encoding="UTF-8" standalone="no"?>
<!-- Generator: Adobe Illustrator 24.3.0, SVG Export Plug-In . SVG Version: 6.00 Build 0)  -->

<svg
   xmlns:dc="http://purl.org/dc/elements/1.1/"
   xmlns:cc="http://creativecommons.org/ns#"
   xmlns:rdf="http://www.w3.org/1999/02/22-rdf-syntax-ns#"
   xmlns:svg="http://www.w3.org/2000/svg"
   xmlns="http://www.w3.org/2000/svg"
   xmlns:sodipodi="http://sodipodi.sourceforge.net/DTD/sodipodi-0.dtd"
   xmlns:inkscape="http://www.inkscape.org/namespaces/inkscape"
   version="1.1"
   id="Layer_2"
   x="0px"
   y="0px"
   viewBox="0 0 581.6944 800"
   xml:space="preserve"
   sodipodi:docname="Iron Knights 2 [Imperium, Adeptus Astartes, Space Marines, Imperial Fists, Chapter].svg"
   width="581.6944"
   height="800"
   inkscape:version="0.92.3 (2405546, 2018-03-11)"><metadata
   id="metadata9"><rdf:RDF><cc:Work
       rdf:about=""><dc:format>image/svg+xml</dc:format><dc:type
         rdf:resource="http://purl.org/dc/dcmitype/StillImage" /><dc:title></dc:title></cc:Work></rdf:RDF></metadata><defs
   id="defs7" /><sodipodi:namedview
   pagecolor="#ffffff"
   bordercolor="#666666"
   borderopacity="1"
   objecttolerance="10"
   gridtolerance="10"
   guidetolerance="10"
   inkscape:pageopacity="0"
   inkscape:pageshadow="2"
   inkscape:window-width="1920"
   inkscape:window-height="1017"
   id="namedview5"
   showgrid="false"
   fit-margin-top="0"
   fit-margin-left="0"
   fit-margin-right="0"
   fit-margin-bottom="0"
   inkscape:pagecheckerboard="true"
   inkscape:zoom="0.236"
   inkscape:cx="-173.27237"
   inkscape:cy="493.99784"
   inkscape:window-x="-8"
   inkscape:window-y="-8"
   inkscape:window-maximized="1"
   inkscape:current-layer="Layer_2" />
<path
   d="m 572.24252,260.50088 h -14.96276 c -0.0162,0.3156 -0.0243,0.61502 -0.0243,0.90634 0,28.94634 -28.8816,42.51722 -67.84628,42.51722 -38.96467,0 -70.5653,-31.59254 -70.5653,-70.56531 0,-38.97276 6.33631,-104.94161 70.5653,-104.94161 14.93849,0 49.24196,1.21386 70.7838,10.85185 h 8.31894 L 567.00677,90.4644 290.8391,0 14.67953,90.4644 0,567.21717 c 0,15.33501 246.0884,230.3245 290.84719,232.7603 46.5553,2.53291 290.8472,-209.28438 290.8472,-232.7603 z m -46.64431,182.74147 h -47.04084 v 37.08725 h -68.75261 v -37.08725 h -77.79987 v 77.79987 h 37.08725 v 68.75261 h -37.08725 v 47.04084 h -85.94077 v -47.04084 h -37.08724 v -68.75261 h 37.08724 V 443.24235 H 168.26426 V 480.3296 H 99.51164 V 443.24235 H 52.47081 v -85.94077 h 47.04083 v -37.09533 h 68.75262 v 37.08724 h 77.79986 v -77.79986 h -37.08724 v -68.75262 h 37.08724 v -47.04083 h 85.94077 v 47.04083 h 37.08725 v 68.75262 h -37.08725 v 77.79986 h 77.79987 v -37.08724 h 68.75261 v 37.08724 h 47.04084 z"
   id="path2"
   inkscape:connector-curvature="0"
   style="stroke-width:0.8092351" />
</svg>