<?xml version="1.0" encoding="UTF-8" standalone="no"?>
<!-- Generator: Adobe Illustrator 24.3.0, SVG Export Plug-In . SVG Version: 6.00 Build 0)  -->

<svg
   xmlns:dc="http://purl.org/dc/elements/1.1/"
   xmlns:cc="http://creativecommons.org/ns#"
   xmlns:rdf="http://www.w3.org/1999/02/22-rdf-syntax-ns#"
   xmlns:svg="http://www.w3.org/2000/svg"
   xmlns="http://www.w3.org/2000/svg"
   xmlns:sodipodi="http://sodipodi.sourceforge.net/DTD/sodipodi-0.dtd"
   xmlns:inkscape="http://www.inkscape.org/namespaces/inkscape"
   version="1.1"
   id="Layer_1"
   x="0px"
   y="0px"
   viewBox="0 0 800 800"
   xml:space="preserve"
   sodipodi:docname="Iron Knights [Imperium, Adeptus Astartes, Space Marines, Imperial Fists, Chapter].svg"
   width="800"
   height="800"
   inkscape:version="0.92.3 (2405546, 2018-03-11)"><metadata
   id="metadata9"><rdf:RDF><cc:Work
       rdf:about=""><dc:format>image/svg+xml</dc:format><dc:type
         rdf:resource="http://purl.org/dc/dcmitype/StillImage" /><dc:title></dc:title></cc:Work></rdf:RDF></metadata><defs
   id="defs7" /><sodipodi:namedview
   pagecolor="#ffffff"
   bordercolor="#666666"
   borderopacity="1"
   objecttolerance="10"
   gridtolerance="10"
   guidetolerance="10"
   inkscape:pageopacity="0"
   inkscape:pageshadow="2"
   inkscape:window-width="1920"
   inkscape:window-height="1017"
   id="namedview5"
   showgrid="false"
   inkscape:pagecheckerboard="true"
   fit-margin-top="0"
   fit-margin-left="0"
   fit-margin-right="0"
   fit-margin-bottom="0"
   inkscape:zoom="0.236"
   inkscape:cx="-30.772373"
   inkscape:cy="496.63001"
   inkscape:window-x="-8"
   inkscape:window-y="-8"
   inkscape:window-maximized="1"
   inkscape:current-layer="Layer_1" />
<polygon
   points="589.78,102.56 589.78,3.85 409.45,3.85 409.45,102.56 331.62,102.56 331.62,246.83 409.45,246.83 409.45,410.08 246.2,410.08 246.2,332.25 101.93,332.25 101.93,410.08 3.23,410.08 3.23,590.41 101.93,590.41 101.93,668.24 246.2,668.24 246.2,590.41 409.45,590.41 409.45,753.66 331.62,753.66 331.62,897.92 409.45,897.92 409.45,996.63 589.78,996.63 589.78,897.92 667.61,897.92 667.61,753.66 589.78,753.66 589.78,590.41 753.03,590.41 753.03,668.24 897.29,668.24 897.29,590.41 996,590.41 996,410.08 897.29,410.08 897.29,332.25 753.03,332.25 753.03,410.08 589.78,410.08 589.78,246.83 667.61,246.83 667.61,102.56 "
   id="polygon2"
   transform="matrix(0.80582612,0,0,0.80581801,-2.6028184,-3.1023993)" />
</svg>