<?xml version="1.0" encoding="UTF-8" standalone="no"?>
<!-- Generator: Adobe Illustrator 24.3.0, SVG Export Plug-In . SVG Version: 6.00 Build 0)  -->

<svg
   xmlns:dc="http://purl.org/dc/elements/1.1/"
   xmlns:cc="http://creativecommons.org/ns#"
   xmlns:rdf="http://www.w3.org/1999/02/22-rdf-syntax-ns#"
   xmlns:svg="http://www.w3.org/2000/svg"
   xmlns="http://www.w3.org/2000/svg"
   xmlns:sodipodi="http://sodipodi.sourceforge.net/DTD/sodipodi-0.dtd"
   xmlns:inkscape="http://www.inkscape.org/namespaces/inkscape"
   version="1.1"
   id="Layer_3"
   x="0px"
   y="0px"
   viewBox="0 0 840.44611 800"
   xml:space="preserve"
   sodipodi:docname="Necropolis Hawks [Imperium, Adeptus Astartes, Space Marines, Raven Guard, Chapter].svg"
   width="840.44611"
   height="800"
   inkscape:version="0.92.3 (2405546, 2018-03-11)"><metadata
   id="metadata9"><rdf:RDF><cc:Work
       rdf:about=""><dc:format>image/svg+xml</dc:format><dc:type
         rdf:resource="http://purl.org/dc/dcmitype/StillImage" /><dc:title></dc:title></cc:Work></rdf:RDF></metadata><defs
   id="defs7" /><sodipodi:namedview
   pagecolor="#ffffff"
   bordercolor="#666666"
   borderopacity="1"
   objecttolerance="10"
   gridtolerance="10"
   guidetolerance="10"
   inkscape:pageopacity="0"
   inkscape:pageshadow="2"
   inkscape:window-width="1920"
   inkscape:window-height="1017"
   id="namedview5"
   showgrid="false"
   fit-margin-top="0"
   fit-margin-left="0"
   fit-margin-right="0"
   fit-margin-bottom="0"
   inkscape:pagecheckerboard="true"
   inkscape:zoom="0.236"
   inkscape:cx="-28.012373"
   inkscape:cy="480.01"
   inkscape:window-x="-8"
   inkscape:window-y="-8"
   inkscape:window-maximized="1"
   inkscape:current-layer="Layer_3" />
<path
   d="M 840.44608,445.71561 C 822.64509,300.03896 754.44024,248.86006 677.62555,213.81409 L 748.34932,194.07546 610.18734,98.68472 C 646.52226,70.34467 652.92488,37.16894 636.50551,0 564.13896,41.12004 358.54719,74.00933 179.2736,152.95542 c -21.38141,11.51631 -27.96096,21.38141 -46.04838,41.12004 0,0 -97.041945,34.5405 -121.708913,59.20747 C 3.2855593,266.44201 0,338.80856 0,338.80856 30.715768,397.83069 62.838428,430.99799 97.033519,425.9854 50.985141,286.18064 389.7937,365.12674 151.6412,442.43005 c 44.91107,35.83787 92.93921,29.95756 142.76177,0 18.09585,39.14028 23.11685,78.8113 23.02418,118.42335 -32.11423,35.23131 -78.845,60.52169 -133.22521,80.58888 55.07102,16.19191 106.89862,26.94158 148.02708,19.73863 16.57101,26.7057 12.29979,57.24455 -6.57954,90.4624 50.50494,-7.03447 86.71349,-31.34761 107.73265,-74.00933 18.9383,44.56566 19.21631,85.40769 0,122.36602 42.35001,-15.27364 81.11961,-47.8428 115.95497,-99.34184 14.25427,23.85822 17.27867,55.96403 14.80186,92.10518 47.15199,-15.18939 81.54927,-69.97398 105.26427,-157.89218 23.58021,21.09497 31.9289,52.45943 32.89771,88.81119 60.21841,-38.20515 61.97913,-105.90453 39.47726,-185.85314 25.27354,5.64443 45.61031,24.30472 64.14423,47.69959 18.44968,-46.85713 9.49443,-105.28112 -24.66697,-174.33684 23.15056,-0.33698 42.05516,13.12539 59.19062,34.52365 z m -600.32224,-190.45292 -44.4056,-20.06719 88.8112,-29.60373 z"
   id="path2"
   inkscape:connector-curvature="0"
   style="stroke-width:0.8424511" />
</svg>