<?xml version="1.0" encoding="UTF-8" standalone="no"?>
<!-- Generated by IcoMoon.io -->

<svg
   xmlns:dc="http://purl.org/dc/elements/1.1/"
   xmlns:cc="http://creativecommons.org/ns#"
   xmlns:rdf="http://www.w3.org/1999/02/22-rdf-syntax-ns#"
   xmlns:svg="http://www.w3.org/2000/svg"
   xmlns="http://www.w3.org/2000/svg"
   xmlns:sodipodi="http://sodipodi.sourceforge.net/DTD/sodipodi-0.dtd"
   xmlns:inkscape="http://www.inkscape.org/namespaces/inkscape"
   version="1.1"
   width="215"
   height="215"
   viewBox="0 0 215 215"
   id="svg8"
   sodipodi:docname="active.svg"
   inkscape:version="0.92.3 (2405546, 2018-03-11)">
  <metadata
     id="metadata14">
    <rdf:RDF>
      <cc:Work
         rdf:about="">
        <dc:format>image/svg+xml</dc:format>
        <dc:type
           rdf:resource="http://purl.org/dc/dcmitype/StillImage" />
        <dc:title>misc-active</dc:title>
      </cc:Work>
    </rdf:RDF>
  </metadata>
  <defs
     id="defs12" />
  <sodipodi:namedview
     pagecolor="#ffffff"
     bordercolor="#666666"
     borderopacity="1"
     objecttolerance="10"
     gridtolerance="10"
     guidetolerance="10"
     inkscape:pageopacity="0"
     inkscape:pageshadow="2"
     inkscape:window-width="1920"
     inkscape:window-height="1017"
     id="namedview10"
     showgrid="false"
     fit-margin-top="0"
     fit-margin-left="0"
     fit-margin-right="0"
     fit-margin-bottom="0"
     inkscape:zoom="1.84375"
     inkscape:cx="-80.257405"
     inkscape:cy="90.791016"
     inkscape:window-x="-8"
     inkscape:window-y="-8"
     inkscape:window-maximized="1"
     inkscape:current-layer="svg8" />
  <title
     id="title2">misc-active</title>
  <g
     id="g823"
     transform="matrix(6.718143,0,0,6.718143,-0.0098246,-7.3086375e-4)">
    <path
       id="path4"
       d="m 23.662,9.747 c 0.958,-0.32 0.959,-1.381 0.03,-1.587 -0.803,-0.178 -2.226,0.17 -2.961,0.552 -0.859,0.447 -1.367,1.283 -2.063,1.922 -0.244,0.225 -0.886,1.319 -1.147,1.28 0.031,0.073 0.068,0.143 0.113,0.208 0.028,0.053 -0.554,-0.041 -0.276,0.51 -0.329,-0.167 -0.417,-0.169 -0.246,0.138 -1.181,0 -0.476,2.266 -1.706,0.452 C 14.739,12.238 14.444,11.324 13.957,10.265 13.718,9.746 13.398,9.043 13.2,8.632 13.106,8.437 13.374,8.526 13.234,8.293 13.206,8.246 12.754,7.95 12.677,7.926 12.123,7.756 11.242,8.028 10.66,8.16 10.226,8.259 8.5,8.7 8.728,8.869 8.447,8.804 7.711,9.105 7.764,9.601 7.93,9.484 7.867,9.385 8.093,9.569 c 0,-0.417 0.454,0.2 -0.223,0.136 0.197,0.282 0.453,0.204 0.753,0.39 0.659,0.408 -0.011,0.2 0.753,0.607 0.222,0.118 0.799,0.472 0.829,0.471 0.06,-10e-4 -0.393,-0.095 -0.257,-0.003 0.153,0.104 0.725,0.423 0.233,0.195 0.208,0.119 0.256,0.028 0.414,0.105 0.426,0.208 0.967,1.328 1.257,1.683 0.237,0.29 0.93,0.693 1.151,1.219 0.021,0 -0.305,-0.15 -0.268,-0.027 0.097,0.318 0.978,0.668 1.158,1.083 0.281,0.646 -0.334,1.064 -0.977,1.705 -0.485,0.484 -0.783,0.746 -1.456,1.464 -0.113,0.121 -0.449,0.903 -0.777,0.817 0.127,0.299 -0.393,0.921 -0.637,0.829 0.049,0.49 -0.441,0.648 -0.605,0.885 -0.353,0.512 -0.836,1.559 -1.204,2.235 0.392,0 0.297,0.757 0.674,0.863 0.262,0.073 0.077,-0.133 0.258,-0.17 0.564,-0.116 0.85,-1.044 1.502,-1.04 -0.402,-0.632 1.045,-1.202 1.123,-1.481 -0.016,-0.077 -0.066,-0.125 -0.151,-0.144 0.68,-0.189 1.425,-1.437 1.894,-1.99 0.479,-0.564 2.208,-1.708 1.976,-2.186 0.443,-0.244 1.838,2.149 2.17,2.535 0.475,0.552 0.573,0.907 0.883,1.459 0.079,0.142 0.781,1.035 0.781,0.976 0.214,0.44 0.489,0.904 0.753,1.278 0.096,0.136 0.754,0.824 0.73,0.964 0.088,-0.084 0.274,-0.517 0.367,-0.547 0.219,-0.071 0.263,0.043 0.442,-0.136 0.008,0.182 1.527,1.78 1.705,1.372 0.026,-0.06 -0.356,-1.099 -0.335,-0.757 -0.012,-0.203 0.292,-0.472 0.262,-0.595 -0.128,-0.522 -0.498,-0.795 -0.808,-1.215 -0.337,-0.456 -1.618,-1.786 -1.502,-2.264 -0.246,0.087 -0.884,-0.868 -1.081,-1.151 -0.197,-0.282 -0.721,-1.013 -0.492,-1.047 -0.52,-0.404 -1.833,-1.915 -1.681,-2.55 -0.163,0.115 -0.297,0.095 -0.403,-0.061 0.362,0.291 0.251,-0.448 0.4,-0.073 0.18,-0.243 0.163,-0.449 0.447,-0.735 0.194,-0.196 0.321,-0.254 0.513,-0.431 0.369,-0.34 0.912,-0.848 1.512,-1.291 0.688,-0.509 1.366,-1.194 2.041,-1.808 0.307,-0.279 1.474,-1.339 1.445,-1.391 z m -4.427,7.824 c 0.093,0.149 -0.272,-0.316 -0.214,-0.197 0.016,0.152 0.087,0.218 0.214,0.197 z m 2.154,3.172 c -0.061,-0.077 -0.117,-0.073 -0.168,0.012 0.048,0.08 0.104,0.077 0.168,-0.012 z m 1.957,4.565 c -0.07,-0.066 -0.129,-0.064 -0.178,0.007 0.059,0.065 0.118,0.063 0.178,-0.007 z m -3.343,-1.859 c -0.185,-0.141 -0.181,0.111 0,0 z"
       inkscape:connector-curvature="0"
       style="fill:#ffffff" />
    <path
       id="path6"
       d="M 1.661,21.789 C 1.636,21.582 1.623,21.372 1.579,21.169 1.56,21.082 1.493,20.972 1.418,20.936 0.929,20.703 0.954,20.43 1.025,19.955 1.049,19.79 0.964,19.609 0.932,19.434 0.928,19.413 0.937,19.373 0.951,19.367 1.027,19.333 1.113,19.317 1.182,19.273 1.236,19.238 1.286,19.174 1.304,19.114 1.312,19.088 1.242,19.014 1.197,19.002 1.069,18.967 1.079,18.722 0.884,18.802 0.885,18.748 0.888,18.695 0.885,18.642 0.882,18.586 0.872,18.531 0.865,18.475 0.859,18.426 0.829,18.363 0.849,18.331 0.916,18.227 1.006,18.137 1.077,18.036 1.101,18.002 1.098,17.947 1.107,17.902 1.079,17.913 1.052,17.928 1.024,17.934 0.998,17.94 0.961,17.948 0.943,17.935 0.857,17.878 0.782,17.8 0.69,17.756 0.508,17.669 0.411,17.549 0.463,17.34 0.468,17.322 0.469,17.289 0.476,17.287 0.75,17.235 0.535,17.14 0.498,17.058 0.423,16.89 0.554,16.628 0.722,16.594 0.753,16.588 0.8,16.547 0.8,16.522 0.799,16.335 0.871,16.148 0.675,15.979 0.576,15.895 0.545,15.689 0.548,15.54 0.552,15.327 0.631,15.117 0.651,14.903 0.672,14.673 0.663,14.441 0.666,14.21 0.666,14.191 0.651,14.169 0.656,14.153 0.717,13.96 0.69,13.847 0.453,13.804 0.385,13.791 0.293,13.572 0.314,13.469 0.39,13.1 0.43,12.684 0.634,12.391 0.876,12.044 0.915,11.694 0.978,11.312 1.07,10.751 1.25,10.211 1.631,9.763 1.662,9.727 1.697,9.677 1.697,9.634 1.689,9.247 1.917,8.963 2.092,8.648 2.295,8.283 2.425,7.877 2.639,7.52 2.843,7.18 3.111,6.878 3.356,6.563 3.647,6.19 3.935,5.813 4.239,5.451 4.489,5.153 4.71,4.78 5.033,4.603 5.627,4.278 5.931,3.676 6.454,3.302 6.671,3.147 6.929,3.049 7.169,2.929 7.502,2.763 7.842,2.608 8.17,2.432 8.466,2.274 8.763,2.231 9.086,2.329 9.136,2.344 9.22,2.311 9.265,2.272 9.381,2.171 9.493,2.062 9.59,1.943 9.876,1.591 10.238,1.387 10.68,1.274 10.995,1.193 11.278,1 11.588,0.894 c 0.573,-0.195 1.1,-0.515 1.725,-0.572 0.519,-0.047 1.029,-0.182 1.548,-0.237 0.293,-0.031 0.596,0.047 0.893,0.033 0.392,-0.018 0.782,-0.104 1.174,-0.114 0.511,-0.014 1.023,0.013 1.534,0.03 0.673,0.022 1.3,0.241 1.92,0.476 0.363,0.137 0.716,0.299 1.072,0.455 0.456,0.199 0.8,0.537 1.156,0.876 0.251,0.239 0.605,0.37 0.912,0.551 0.041,0.025 0.105,0.054 0.111,0.089 0.033,0.203 0.145,0.27 0.338,0.226 0.005,-10e-4 0.013,-0.005 0.014,-0.003 0.135,0.207 0.281,0.027 0.423,0.017 0.04,-0.003 0.088,0.025 0.123,0.051 0.215,0.155 0.408,0.33 0.508,0.587 0.008,0.021 0.032,0.035 0.05,0.052 0.024,0.022 0.163,-0.011 0.038,0.084 -0.009,0.007 0.014,0.09 0.04,0.107 0.11,0.066 0.227,0.119 0.342,0.176 0.004,0.002 0.01,10e-4 0.015,0.002 -0.072,0.322 0.313,0.288 0.392,0.499 0.02,0.052 0.111,0.074 0.164,0.117 0.072,0.059 0.141,0.122 0.209,0.186 0.024,0.022 0.036,0.068 0.062,0.075 0.532,0.15 0.8,0.627 1.173,0.968 0.22,0.201 0.365,0.483 0.554,0.719 0.038,0.047 0.133,0.043 0.192,0.079 0.104,0.064 0.206,0.132 0.297,0.212 0.324,0.29 0.319,0.679 0.317,1.071 -0.002,0.318 0.264,0.551 0.584,0.505 0.068,-0.01 0.119,-0.145 0.174,-0.225 0.039,-0.057 0.071,-0.118 0.107,-0.178 -0.004,0.076 0.005,0.154 -0.013,0.226 -0.033,0.127 -0.083,0.249 -0.124,0.374 -0.011,0.032 -0.012,0.067 -0.017,0.101 0.043,-0.012 0.086,-0.024 0.13,-0.037 0.09,-0.026 0.179,-0.061 0.271,-0.072 0.023,-0.003 0.087,0.083 0.078,0.11 -0.091,0.28 0.06,0.492 0.208,0.687 0.509,0.671 0.847,1.4 0.89,2.257 0.009,0.17 0.152,0.33 0.206,0.503 0.051,0.165 0.246,0.329 -0.009,0.523 -0.07,0.054 -0.024,0.286 -0.001,0.431 0.031,0.199 0.095,0.393 0.138,0.59 0.035,0.159 0.066,0.32 0.09,0.482 0.006,0.044 -0.035,0.095 -0.03,0.14 0.007,0.058 0.039,0.112 0.059,0.168 0.079,0.224 0.113,0.444 -0.018,0.667 -0.028,0.049 -0.003,0.128 -0.005,0.194 -0.008,0.337 -0.001,0.675 -0.035,1.01 -0.009,0.089 -0.075,0.16 0.02,0.235 0.011,0.009 0.014,0.051 0.01,0.053 -0.246,0.117 -0.071,0.32 -0.097,0.481 -0.039,0.24 -0.022,0.496 -0.101,0.72 -0.083,0.238 -0.255,0.444 -0.372,0.672 -0.03,0.059 -0.011,0.152 0.006,0.224 0.019,0.079 0.103,0.16 0.089,0.226 -0.049,0.237 -0.124,0.469 -0.199,0.699 -0.014,0.041 -0.074,0.073 -0.119,0.097 -0.118,0.063 -0.165,0.12 -0.048,0.241 0.043,0.045 0.023,0.154 0.022,0.234 0,0.005 -0.088,-0.004 -0.117,0.018 -0.115,0.087 -0.251,0.167 -0.326,0.284 -0.051,0.08 -0.04,0.225 -0.009,0.326 0.125,0.402 -0.086,0.675 -0.333,0.938 -0.165,0.175 -0.344,0.337 -0.501,0.519 -0.051,0.059 -0.069,0.162 -0.068,0.245 0.001,0.057 0.061,0.112 0.094,0.169 0.054,-0.04 0.104,-0.088 0.163,-0.117 0.088,-0.043 0.198,-0.121 0.273,-0.099 0.178,0.053 0.159,-0.066 0.184,-0.158 0.006,-0.022 0.017,-0.044 0.025,-0.066 0.015,0.01 0.037,0.017 0.042,0.03 0.008,0.02 0.014,0.051 0.005,0.067 -0.069,0.125 -0.142,0.247 -0.214,0.37 -0.004,0.007 -0.005,0.016 -0.007,0.024 0.013,0 0.03,0.007 0.039,0 0.059,-0.043 0.115,-0.091 0.175,-0.133 0.037,-0.026 0.079,-0.044 0.119,-0.065 0.016,0.047 0.055,0.102 0.043,0.14 -0.084,0.262 -0.145,0.54 -0.281,0.774 -0.132,0.228 -0.31,0.502 -0.531,0.583 -0.214,0.078 -0.318,0.23 -0.472,0.345 -0.26,0.195 -0.384,0.461 -0.486,0.777 -0.081,0.25 -0.342,0.442 -0.524,0.66 -0.137,0.164 -0.273,0.328 -0.411,0.492 -0.097,0.115 -0.195,0.229 -0.291,0.344 -0.126,0.149 -0.249,0.299 -0.378,0.446 -0.031,0.035 -0.079,0.055 -0.117,0.084 -0.062,0.047 -0.157,0.085 -0.179,0.147 -0.096,0.278 -0.317,0.44 -0.526,0.617 -0.247,0.209 -0.488,0.427 -0.734,0.638 -0.096,0.082 -0.212,0.145 -0.295,0.238 -0.085,0.095 -0.12,0.242 -0.216,0.319 -0.106,0.085 -0.262,0.104 -0.383,0.174 -0.137,0.079 -0.266,0.174 -0.386,0.277 -0.135,0.116 -0.265,0.155 -0.432,0.069 -0.032,-0.017 -0.11,0.028 -0.151,0.063 -0.123,0.103 -0.222,0.26 -0.361,0.314 -0.33,0.127 -0.648,0.268 -0.962,0.435 -0.491,0.262 -0.998,0.501 -1.516,0.703 -0.527,0.205 -1.068,0.387 -1.617,0.517 -0.387,0.091 -0.798,0.087 -1.198,0.111 -0.514,0.03 -1.018,0.076 -1.53,0.175 -0.581,0.113 -1.201,0.03 -1.805,0.02 -0.258,-0.004 -0.518,-0.018 -0.771,-0.062 -0.239,-0.041 -0.463,0.061 -0.697,0.034 -0.012,-10e-4 -0.026,0.018 -0.04,0.027 0.023,0.024 0.048,0.046 0.068,0.071 0.019,0.023 0.034,0.05 0.051,0.075 -0.027,-0.004 -0.055,-0.006 -0.081,-0.011 -0.154,-0.029 -0.341,-0.013 -0.456,-0.096 -0.404,-0.289 -0.886,-0.298 -1.334,-0.428 -0.217,-0.063 -0.427,-0.157 -0.632,-0.255 -0.033,-0.016 -0.012,-0.129 -0.031,-0.193 -0.009,-0.03 -0.053,-0.049 -0.082,-0.072 -0.017,0.039 -0.038,0.078 -0.048,0.119 -0.01,0.038 -0.008,0.079 -0.011,0.119 -0.027,-0.03 -0.054,-0.059 -0.08,-0.089 -0.088,-0.105 -0.176,-0.21 -0.264,-0.315 -0.034,-0.04 -0.063,-0.09 -0.107,-0.116 C 9.993,30.621 9.913,30.572 9.829,30.557 9.614,30.517 9.388,30.519 9.181,30.459 8.996,30.405 8.828,30.292 8.654,30.201 8.347,30.04 8.041,29.876 7.736,29.71 7.707,29.694 7.692,29.654 7.67,29.626 c 0.031,0.012 0.071,0.015 0.092,0.037 0.188,0.202 0.446,0.243 0.695,0.293 C 8.505,29.966 8.565,29.91 8.62,29.885 8.592,29.856 8.568,29.817 8.534,29.8 8.286,29.679 8.035,29.562 7.785,29.444 7.763,29.434 7.729,29.412 7.719,29.419 7.518,29.573 7.443,29.333 7.306,29.292 7.231,29.27 7.149,29.264 7.07,29.259 6.943,29.251 6.79,29.293 6.692,29.237 6.464,29.108 6.206,28.989 6.145,28.683 6.136,28.636 6.092,28.584 6.05,28.559 5.858,28.447 5.66,28.346 5.467,28.237 5.351,28.172 5.238,28.104 5.129,28.029 5.121,28.024 5.155,27.952 5.175,27.914 5.187,27.891 5.209,27.872 5.227,27.851 5.207,27.84 5.186,27.819 5.166,27.82 4.865,27.834 4.86,27.54 4.72,27.389 4.631,27.292 4.562,27.176 4.489,27.065 4.393,26.919 4.308,26.766 4.205,26.626 4.156,26.559 4.064,26.524 4.015,26.457 3.956,26.377 3.735,26.299 3.983,26.177 3.995,26.171 3.999,26.151 4.007,26.138 3.966,26.13 3.92,26.13 3.884,26.112 3.823,26.081 3.766,26.04 3.712,25.998 3.706,25.993 3.722,25.945 3.739,25.928 3.767,25.9 3.831,25.882 3.832,25.858 3.834,25.814 3.811,25.739 3.78,25.728 3.673,25.69 3.552,25.689 3.448,25.646 3.336,25.6 3.236,25.525 3.134,25.458 3.027,25.388 2.917,25.319 2.821,25.235 2.691,25.123 2.533,25.017 2.46,24.871 2.33,24.612 2.243,24.329 2.167,24.049 2.146,23.974 2.207,23.854 2.265,23.784 2.465,23.541 2.456,23.453 2.25,23.217 2.115,23.062 2.032,22.863 1.904,22.701 1.816,22.59 1.684,22.514 1.584,22.411 1.533,22.358 1.5,22.283 1.475,22.212 1.424,22.069 1.385,21.922 1.34,21.777 1.331,21.748 1.315,21.721 1.302,21.694 1.32,21.689 1.343,21.675 1.355,21.682 c 0.026,0.014 0.052,0.035 0.066,0.06 0.026,0.046 0.032,0.113 0.068,0.143 0.073,0.06 0.161,0.101 0.243,0.149 C 1.725,21.952 1.718,21.869 1.711,21.787 1.693,21.788 1.679,21.789 1.664,21.791 Z M 24.095,5.087 C 23.977,4.741 23.523,4.419 23.244,4.424 23.214,4.425 23.159,4.43 23.158,4.428 23.13,4.197 22.901,4.212 22.768,4.115 22.681,4.052 22.554,4.042 22.443,4.019 22.379,4.005 22.29,4.038 22.246,4.005 21.991,3.811 21.746,3.602 21.496,3.401 21.468,3.378 21.425,3.367 21.387,3.363 21.193,3.341 20.639,2.347 20.449,2.369 20.299,2.387 19.987,2.124 20.014,2.563 20.015,2.571 19.986,2.583 19.97,2.59 19.807,2.669 19.665,2.676 19.58,2.476 19.574,2.462 19.525,2.454 19.506,2.462 19.467,2.48 19.434,2.513 19.399,2.539 19.409,2.492 19.419,2.445 19.427,2.397 19.434,2.359 19.439,2.321 19.445,2.283 19.414,2.296 19.379,2.304 19.351,2.321 19.297,2.354 19.243,2.428 19.195,2.424 19.012,2.406 18.831,2.361 18.65,2.329 18.609,2.322 18.565,2.327 18.523,2.322 18.416,2.311 18.309,2.293 18.201,2.289 18.154,2.287 18.09,2.301 18.063,2.332 18.006,2.398 17.978,2.538 17.922,2.547 17.731,2.578 17.533,2.572 17.338,2.568 17.101,2.562 16.864,2.55 16.628,2.528 16.508,2.517 16.378,2.503 16.276,2.447 16.183,2.396 16.204,2.138 15.993,2.296 15.989,2.299 15.961,2.284 15.957,2.274 15.863,2.008 15.595,1.933 15.394,1.897 15.042,1.834 15.034,2.199 14.628,2.29 14.266,2.371 13.977,2.629 13.603,2.657 13.593,2.658 13.581,2.661 13.575,2.667 13.426,2.855 13.249,2.676 13.085,2.7 12.891,2.728 12.669,2.658 12.496,2.726 12.254,2.82 12.032,2.919 11.76,2.912 11.374,2.901 10.984,2.965 10.6,2.942 10.302,2.924 10.064,2.99 9.843,3.183 9.669,3.334 9.492,3.49 9.293,3.602 8.981,3.778 8.636,3.895 8.332,4.082 7.983,4.297 7.597,4.427 7.317,4.793 6.955,5.267 6.578,5.774 5.956,5.968 5.908,5.983 5.879,6.051 5.831,6.073 5.734,6.118 5.672,6.248 5.512,6.124 5.369,6.014 5.196,6.044 5.134,6.277 5.108,6.376 5.032,6.461 4.987,6.557 4.601,7.381 4.22,8.207 3.829,9.029 3.693,9.315 3.518,9.583 3.395,9.874 3.276,10.155 3.195,10.453 3.107,10.747 3.02,11.039 3.006,11.374 2.85,11.619 2.65,11.932 2.609,12.271 2.527,12.606 2.436,12.981 2.389,13.367 2.293,13.741 2.169,14.222 2.017,14.695 1.875,15.17 1.846,15.266 1.799,15.356 1.77,15.452 1.744,15.537 1.7,15.636 1.721,15.714 c 0.164,0.604 0.194,1.217 0.168,1.836 -0.008,0.195 -0.043,0.402 0.008,0.583 0.104,0.372 0.272,0.725 0.388,1.094 0.171,0.543 0.318,1.093 0.479,1.638 0.01,0.033 0.065,0.085 0.086,0.079 0.364,-0.099 0.553,0.287 0.869,0.319 0.022,0.002 0.058,0.095 0.05,0.139 -0.032,0.179 -0.049,0.369 -0.124,0.531 -0.17,0.365 -0.094,0.645 0.152,0.963 0.378,0.486 0.684,1.028 1.04,1.533 0.253,0.359 0.566,0.678 0.803,1.047 0.267,0.414 0.587,0.764 0.971,1.062 0.22,0.171 0.455,0.324 0.663,0.507 0.155,0.137 0.259,0.337 0.421,0.463 0.421,0.327 0.86,0.63 1.297,0.936 0.056,0.039 0.139,0.046 0.21,0.058 0.255,0.042 0.535,0.025 0.762,0.128 0.948,0.429 1.878,0.9 2.821,1.342 0.416,0.195 0.825,0.423 1.318,0.361 0.233,-0.029 0.472,-0.003 0.709,0.002 0.139,0.003 0.308,0.068 0.412,0.011 0.403,-0.221 0.816,-0.114 1.231,-0.105 0.216,0.005 0.442,-0.033 0.648,-0.099 0.269,-0.086 0.514,-0.255 0.786,-0.323 0.304,-0.076 0.627,-0.08 0.941,-0.112 0.25,-0.025 0.486,-0.069 0.653,-0.292 0.1,-0.133 0.235,-0.25 0.422,-0.181 0.185,0.068 0.332,0.045 0.453,-0.116 0.019,-0.025 0.06,-0.034 0.091,-0.049 0.159,-0.075 0.32,-0.149 0.479,-0.225 0.217,-0.102 0.43,-0.215 0.653,-0.301 0.125,-0.048 0.327,-0.002 0.392,-0.082 0.24,-0.298 0.616,-0.258 0.905,-0.421 0.186,-0.105 0.461,-0.144 0.553,-0.299 0.105,-0.177 0.187,-0.364 0.352,-0.491 0.183,-0.14 0.364,-0.312 0.575,-0.379 0.311,-0.098 0.567,-0.235 0.762,-0.501 0.098,-0.133 0.227,-0.244 0.354,-0.351 0.354,-0.299 0.718,-0.586 1.069,-0.887 0.099,-0.084 0.162,-0.21 0.259,-0.298 0.092,-0.084 0.224,-0.126 0.306,-0.216 0.205,-0.228 0.397,-0.468 0.581,-0.713 0.048,-0.064 0.074,-0.168 0.061,-0.246 -0.024,-0.148 -0.102,-0.288 -0.118,-0.436 -0.007,-0.068 0.076,-0.149 0.128,-0.217 0.01,-0.012 0.068,0.014 0.104,0.022 0.006,-0.055 0.029,-0.114 0.015,-0.163 -0.097,-0.334 -0.15,-0.377 0.088,-0.493 0.066,-0.032 0.158,-0.037 0.232,-0.022 0.181,0.036 0.666,-0.921 0.366,-1.018 -0.064,-0.021 -0.132,-0.042 -0.187,-0.08 -0.143,-0.099 -0.334,0.008 -0.459,0.044 -0.028,0.008 -0.051,0.031 -0.077,0.047 0.012,-0.031 0.018,-0.066 0.036,-0.093 0.139,-0.203 0.281,-0.405 0.42,-0.608 0.149,-0.217 -0.346,-0.231 -0.183,-0.436 0.181,-0.226 -0.071,-0.357 0.254,-0.43 0.109,-0.024 0.202,-0.125 0.301,-0.194 0.015,-0.01 0.036,-0.039 0.032,-0.047 -0.1,-0.185 0.083,-0.02 0.109,-0.086 0.028,-0.071 0.163,-0.108 0.176,-0.174 0.043,-0.223 0.04,-0.456 0.079,-0.68 0.026,-0.149 0.1,-0.29 0.142,-0.438 0.014,-0.047 0.012,-0.121 -0.016,-0.152 -0.027,-0.03 -0.081,-0.382 0.094,-0.466 0.034,-0.017 0.086,-0.04 0.092,-0.068 0.068,-0.331 0.142,-0.662 0.189,-0.997 0.038,-0.273 0.026,-0.553 0.065,-0.825 0.097,-0.675 0.147,-1.338 -0.278,-1.941 -0.041,-0.058 -0.033,-0.15 -0.045,-0.227 -0.058,-0.375 -0.094,-0.755 -0.178,-1.124 -0.089,-0.391 -0.232,-0.77 -0.337,-1.158 C 28.699,10.851 28.629,10.497 28.539,10.148 28.43,9.725 28.171,9.384 27.922,9.035 27.727,8.763 27.579,8.457 27.381,8.188 27.094,7.797 26.78,7.425 26.479,7.044 26.331,6.856 26.209,6.639 26.036,6.479 25.783,6.246 25.481,6.068 25.226,5.838 24.931,5.573 24.722,5.206 24.313,5.08 24.274,5.068 24.204,5.053 24.193,5.069 24.153,5.075 24.135,5.113 24.089,5.091 Z"
       inkscape:connector-curvature="0"
       style="fill:#ffffff" />
  </g>
</svg>
