<?xml version="1.0" encoding="UTF-8" standalone="no"?>
<!-- Generated by IcoMoon.io -->

<svg
   xmlns:dc="http://purl.org/dc/elements/1.1/"
   xmlns:cc="http://creativecommons.org/ns#"
   xmlns:rdf="http://www.w3.org/1999/02/22-rdf-syntax-ns#"
   xmlns:svg="http://www.w3.org/2000/svg"
   xmlns="http://www.w3.org/2000/svg"
   xmlns:sodipodi="http://sodipodi.sourceforge.net/DTD/sodipodi-0.dtd"
   xmlns:inkscape="http://www.inkscape.org/namespaces/inkscape"
   version="1.1"
   width="215"
   height="215"
   viewBox="0 0 215.00001 215"
   id="svg6"
   sodipodi:docname="circle.svg"
   inkscape:version="0.92.3 (2405546, 2018-03-11)">
  <metadata
     id="metadata12">
    <rdf:RDF>
      <cc:Work
         rdf:about="">
        <dc:format>image/svg+xml</dc:format>
        <dc:type
           rdf:resource="http://purl.org/dc/dcmitype/StillImage" />
        <dc:title>misc-circle</dc:title>
      </cc:Work>
    </rdf:RDF>
  </metadata>
  <defs
     id="defs10" />
  <sodipodi:namedview
     pagecolor="#ffffff"
     bordercolor="#666666"
     borderopacity="1"
     objecttolerance="10"
     gridtolerance="10"
     guidetolerance="10"
     inkscape:pageopacity="0"
     inkscape:pageshadow="2"
     inkscape:window-width="1920"
     inkscape:window-height="1017"
     id="namedview8"
     showgrid="false"
     fit-margin-top="0"
     fit-margin-left="0"
     fit-margin-right="0"
     fit-margin-bottom="0"
     inkscape:zoom="1.84375"
     inkscape:cx="-87.644205"
     inkscape:cy="122.64269"
     inkscape:window-x="-8"
     inkscape:window-y="-8"
     inkscape:window-maximized="1"
     inkscape:current-layer="svg6" />
  <title
     id="title2">misc-circle</title>
  <path
     d="m 50.695255,175.79429 c 0,-2.55242 -0.765726,-5.00408 0.120904,-6.09222 5.796676,-7.08632 3.465915,-13.87038 1.558318,-21.79631 -1.934464,-8.04683 -8.046834,-14.41444 -7.999816,-23.13296 0.02687,-1.83372 -3.271125,-4.31225 -5.548151,-5.4474 -6.145954,-3.14351 -12.63447,-5.64891 -18.874461,-8.59762 -2.230007,-1.04112 -4.184622,-2.67332 -8.792409,-5.66906 8.201323,0 13.400196,-0.5172 18.451297,0.12091 5.870562,0.74557 8.349094,-3.49279 11.767991,-6.535538 3.71444,-3.291276 4.40628,-6.73704 1.860579,-11.291092 -0.765726,-1.363528 0.295543,-4.184622 1.235908,-5.991463 3.418897,-6.5624 7.529633,-12.8024 10.652987,-19.51929 3.345011,-7.20722 1.70609,-10.1828 -6.192973,-13.62185 -3.741307,-1.6322 -5.346644,-6.1661 -4.063718,-11.4926 0.967232,-4.03685 4.258508,-2.92184 6.837794,-2.94871 6.663155,-0.10075 6.663155,0.0269 7.328127,6.98556 0.718707,7.42888 0.718707,7.50277 8.073702,7.52964 7.482615,0.0269 14.911496,0.67169 20.311875,-6.81093 1.860579,-2.57257 6.441498,-3.29127 9.860395,-4.6548 8.275206,-3.24426 10.202956,-5.8437 10.256686,-14.36743 0,-2.37778 -0.27539,-4.72869 -0.2015,-7.10647 0.24852,-7.7512908 5.47426,-16.9937308 6.21984,-15.10629076 2.27702,5.69592996 5.22574,12.13742076 4.48016,17.86021076 -1.83371,14.34056 -2.25687,13.54797 11.21721,19.91558 7.42888,3.51965 15.57647,4.75556 22.88444,9.36335 5.00409,3.1435 13.97114,2.89498 18.92148,-4.43315 2.35092,-3.46592 5.66906,-6.58927 6.91168,-10.40446 1.70609,-5.27276 5.27276,-4.48017 8.92003,-4.23836 0.74558,0.047 2.10239,1.93446 1.98149,2.12925 -2.57929,3.74131 -0.81946,10.27685 -6.41463,11.74113 -5.00409,1.30979 -5.54815,5.91758 -8.39612,8.6715 -3.59353,3.46592 -3.71444,5.74294 0.0739,8.94018 1.16202,0.96724 1.77998,3.4189 1.61205,5.07797 -1.08813,9.93428 1.18889,19.445399 2.77408,29.104287 1.14187,6.810926 4.78242,10.350726 11.96278,11.069436 4.48017,0.44331 8.92003,1.33666 13.35318,2.0285 -0.67169,7.50277 -7.65054,6.91168 -12.13742,9.61187 -5.0511,3.04947 -11.14332,4.97721 -11.34483,12.93001 -0.047,1.95462 -1.61205,5.47427 -5.37351,7.355 -5.50114,2.77407 -7.30798,11.06943 -3.56667,15.67722 3.64055,4.48016 4.50703,11.66724 11.78814,13.15167 1.43742,0.29554 2.59944,2.55242 3.56667,4.11074 0.34928,0.54406 -0.047,1.93446 -0.54407,2.52555 -0.49705,0.57093 -1.6322,0.91349 -2.4248,0.81946 -0.81946,-0.10076 -1.86057,-0.64482 -2.30389,-1.3098 -3.61369,-5.52128 -9.585,-7.23409 -15.28092,-8.92003 -5.00409,-1.48443 -11.24408,-6.26685 -14.11891,3.39203 -0.47018,1.61206 -3.68757,2.77408 -5.87056,3.4189 -7.89906,2.33076 -15.97276,4.11074 -23.82481,6.61614 -2.37778,0.76572 -5.97131,3.19724 -5.99146,4.93019 -0.0739,6.34075 -3.24426,13.47409 2.30389,18.92148 3.71444,3.64056 3.09649,6.23999 -0.36943,9.36335 -1.28964,1.16202 -1.53817,3.5398 -2.84796,4.63465 -1.01425,0.81946 -4.25851,0.76573 -4.31224,0.59109 -1.01425,-4.21149 -6.19298,-7.38186 -2.65318,-12.90315 1.58519,-2.47853 1.23591,-6.23999 1.68594,-9.43723 0.96724,-6.73704 -3.04946,-10.55223 -8.36924,-13.19869 -2.847962,-1.41054 -6.219841,-3.09648 -9.114821,-2.7472 -8.221473,0.9941 -13.353177,-3.21739 -18.081868,-8.83943 -2.552418,-3.06962 -4.876462,-3.14351 -8.369245,-0.59109 -4.507033,3.29128 -9.860394,5.54815 -15.576468,8.64464 z M 173.02326,109.18961 c 0.76572,-17.510933 -6.01834,-31.233543 -15.52945,-43.471713 -11.19706,-14.38758 -28.18407,-19.4454 -44.90241,-19.66705 -12.654625,-0.17464 -26.128706,2.92184 -37.030218,12.38594 -15.307793,13.27258 -24.818909,29.205039 -24.818909,49.510203 0.02687,17.43704 7.576652,31.99926 19.915579,44.45909 11.539617,11.64037 26.699638,13.97113 41.335738,17.9341 34.5987,-4.60779 61.10355,-28.01615 61.02967,-61.15057 z"
     id="path4"
     inkscape:connector-curvature="0"
     style="fill:#ffffff;stroke-width:6.71688986" />
</svg>
