<?xml version="1.0" encoding="UTF-8" standalone="no"?>
<!-- Generated by IcoMoon.io -->

<svg
   xmlns:dc="http://purl.org/dc/elements/1.1/"
   xmlns:cc="http://creativecommons.org/ns#"
   xmlns:rdf="http://www.w3.org/1999/02/22-rdf-syntax-ns#"
   xmlns:svg="http://www.w3.org/2000/svg"
   xmlns="http://www.w3.org/2000/svg"
   xmlns:sodipodi="http://sodipodi.sourceforge.net/DTD/sodipodi-0.dtd"
   xmlns:inkscape="http://www.inkscape.org/namespaces/inkscape"
   version="1.1"
   width="215"
   height="215"
   viewBox="0 0 215 215"
   id="svg14"
   sodipodi:docname="glove.svg"
   inkscape:version="0.92.3 (2405546, 2018-03-11)">
  <metadata
     id="metadata20">
    <rdf:RDF>
      <cc:Work
         rdf:about="">
        <dc:format>image/svg+xml</dc:format>
        <dc:type
           rdf:resource="http://purl.org/dc/dcmitype/StillImage" />
        <dc:title>misc-glove</dc:title>
      </cc:Work>
    </rdf:RDF>
  </metadata>
  <defs
     id="defs18" />
  <sodipodi:namedview
     pagecolor="#ffffff"
     bordercolor="#666666"
     borderopacity="1"
     objecttolerance="10"
     gridtolerance="10"
     guidetolerance="10"
     inkscape:pageopacity="0"
     inkscape:pageshadow="2"
     inkscape:window-width="1920"
     inkscape:window-height="1017"
     id="namedview16"
     showgrid="false"
     fit-margin-top="0"
     fit-margin-left="0"
     fit-margin-right="0"
     fit-margin-bottom="0"
     inkscape:zoom="1.3037281"
     inkscape:cx="-211.48528"
     inkscape:cy="-20.303751"
     inkscape:window-x="-8"
     inkscape:window-y="-8"
     inkscape:window-maximized="1"
     inkscape:current-layer="svg14" />
  <title
     id="title2">misc-glove</title>
  <g
     id="g832"
     transform="matrix(6.7189086,0,0,6.7189086,-0.02244545,-0.00740148)">
    <path
       id="path4"
       d="m 16.558,4.609 c -0.401,0.565 -0.711,1.1 -1.118,1.55 -0.547,0.608 -1.295,0.754 -2.091,0.729 -0.213,-0.006 -0.432,0.109 -0.632,0.195 -0.061,0.024 -0.097,0.146 -0.122,0.231 -0.097,0.353 -0.176,0.711 -0.274,1.064 -0.085,0.31 -0.043,0.401 0.274,0.492 0.055,0.018 0.115,0.043 0.164,0.079 0.742,0.553 1.398,1.191 2.03,1.872 0.322,0.353 0.474,0.675 0.432,1.143 -0.018,0.213 0.091,0.432 0.14,0.65 0.219,-0.079 0.444,-0.152 0.663,-0.243 0.049,-0.018 0.085,-0.109 0.097,-0.17 0.152,-0.614 0.225,-1.204 -0.31,-1.696 C 15.653,10.359 15.562,10.14 15.416,9.976 15.258,9.8 15.088,9.623 14.893,9.484 14.474,9.192 14.048,8.913 13.775,8.457 13.708,8.342 13.568,8.275 13.429,8.153 c 0.097,-0.152 0.182,-0.322 0.304,-0.456 0.134,-0.152 0.304,-0.188 0.523,-0.128 0.243,0.067 0.511,0.067 0.76,0.103 0.128,0.018 0.274,0.03 0.371,0.097 0.468,0.346 0.985,0.584 1.544,0.748 0.225,0.067 0.413,0.237 0.62,0.359 0.432,0.249 0.845,0.529 1.301,0.736 0.638,0.292 1.131,0.76 1.659,1.185 0.122,0.097 0.255,0.225 0.395,0.255 0.146,0.03 0.359,0.018 0.456,-0.067 C 21.83,10.572 22.28,10.14 22.705,9.69 22.827,9.562 22.9,9.331 22.887,9.161 22.875,9.009 22.711,8.869 22.62,8.723 22.492,8.82 22.359,8.905 22.243,9.021 21.89,9.361 21.556,9.72 21.197,10.06 21.069,10.175 20.917,10.188 20.772,10.036 20.596,9.854 20.407,9.69 20.207,9.531 20.007,9.372 19.958,9.257 20.158,9.026 20.954,8.084 21.72,7.117 22.498,6.157 22.857,5.719 23.27,5.488 23.841,5.738 c 0.073,0.03 0.158,0.043 0.237,0.036 0.292,-0.024 0.45,0.146 0.468,0.401 0.018,0.28 0.195,0.249 0.201,0.48 0.006,0.231 0.231,0.936 -0.018,1.665 -0.231,0.474 -0.45,0.906 -0.65,1.349 -0.122,0.261 -0.195,0.547 -0.328,0.796 -0.182,0.334 -0.407,0.644 -0.614,0.966 -0.115,0.176 -0.219,0.359 -0.328,0.541 -0.261,0.438 -0.523,0.875 -0.79,1.307 -0.322,0.529 -0.669,1.039 -0.96,1.58 -0.14,0.261 -0.225,0.577 -0.261,0.875 -0.109,0.936 0.164,1.83 0.359,2.729 0.134,0.644 0.346,1.246 0.638,1.836 0.134,0.267 0.073,0.486 -0.158,0.693 -0.553,0.498 -1.106,0.997 -1.635,1.52 -0.705,0.699 -1.392,1.422 -2.073,2.146 -0.517,0.547 -1.015,1.106 -1.514,1.672 -0.097,0.109 -0.158,0.249 -0.261,0.413 -0.049,-0.018 -0.146,-0.024 -0.195,-0.079 -0.231,-0.249 -0.462,-0.505 -0.669,-0.778 -0.717,-0.936 -1.404,-1.896 -2.152,-2.814 -0.237,-0.292 -0.602,-0.486 -0.924,-0.711 -0.468,-0.334 -0.948,-0.656 -1.422,-0.979 -0.158,-0.109 -0.316,-0.207 -0.486,-0.298 -0.182,-0.097 -0.219,-0.231 -0.109,-0.389 0.34,-0.48 0.48,-1.003 0.523,-1.599 0.043,-0.602 0.237,-1.191 0.365,-1.787 0.018,-0.097 0.036,-0.201 0.036,-0.298 0.018,-0.541 0.03,-1.088 0.061,-1.629 0.006,-0.091 0.061,-0.182 0.109,-0.261 0.237,-0.353 0.255,-0.571 -0.012,-0.869 C 10.963,13.899 10.61,13.577 10.27,13.249 10.039,13.024 9.857,12.732 9.468,12.738 9.413,12.738 9.328,12.623 9.298,12.543 9.018,11.838 8.581,11.236 8.113,10.647 7.931,10.416 7.815,10.142 7.487,10.033 7.323,9.978 7.305,9.759 7.414,9.589 7.45,9.528 7.505,9.486 7.548,9.425 7.876,8.993 7.87,8.969 7.378,8.683 7.098,8.519 7.092,8.288 7.335,8.057 7.42,7.978 7.511,7.856 7.517,7.753 7.553,7.236 7.93,6.908 8.173,6.507 8.526,5.923 8.872,5.334 9.225,4.75 9.316,4.604 9.432,4.476 9.517,4.331 9.602,4.179 9.645,4.009 9.73,3.851 9.779,3.76 9.858,3.62 9.937,3.614 c 0.486,-0.049 0.96,-0.103 1.453,0.079 0.474,0.176 0.991,0.322 1.489,0.31 0.547,-0.012 1.039,0.164 1.556,0.231 0.553,0.073 1.106,0.182 1.653,0.28 0.134,-0.006 0.243,0.03 0.474,0.091 z m 0.231,18.867 c 0.03,-0.34 -0.231,-0.596 -0.723,-0.644 -0.31,-0.03 -0.663,0.34 -0.675,0.675 -0.012,0.322 0.389,0.827 0.656,0.833 0.292,0.006 0.742,-0.517 0.742,-0.863 z"
       inkscape:connector-curvature="0"
       style="fill:#ffffff" />
    <path
       id="path6"
       d="m 8.224,23.884 c 0.462,-0.492 0.9,-0.948 1.313,-1.416 0.109,-0.122 0.164,-0.292 0.237,-0.45 0.091,-0.195 0.201,-0.219 0.377,-0.091 0.115,0.085 0.28,0.097 0.395,0.176 0.328,0.219 0.687,0.425 0.966,0.699 1.124,1.082 2.17,2.225 3.033,3.532 0.383,0.584 0.748,1.179 1.118,1.769 0.122,0.195 0.219,0.219 0.425,0.067 0.875,-0.663 1.416,-1.599 2.097,-2.431 0.383,-0.468 0.79,-0.912 1.191,-1.355 0.468,-0.523 0.942,-1.039 1.41,-1.562 0.334,-0.371 0.656,-0.76 0.997,-1.125 0.213,-0.231 0.286,-0.207 0.432,0.067 0.286,0.535 0.571,1.07 0.869,1.605 0.067,0.122 0.158,0.237 0.261,0.328 0.207,0.182 0.14,0.304 -0.036,0.462 -0.675,0.62 -1.374,1.216 -1.994,1.896 -0.584,0.644 -1.058,1.392 -1.617,2.067 -0.62,0.748 -1.264,1.477 -1.939,2.182 -0.541,0.571 -1.137,1.088 -1.708,1.629 -0.115,0.109 -0.577,0.085 -0.687,-0.067 C 15.115,31.52 14.89,31.149 14.653,30.79 14.155,30.055 13.668,29.313 13,28.705 12.733,28.462 12.55,28.121 12.344,27.812 11.767,26.943 10.94,26.323 10.186,25.636 9.602,25.101 8.976,24.615 8.369,24.098 8.308,24.049 8.272,23.958 8.223,23.885 Z m 7.683,6.892 c 0.48,0.03 0.705,-0.474 0.729,-0.893 0.024,-0.359 -0.31,-0.656 -0.669,-0.65 -0.444,0.006 -0.948,0.401 -0.942,0.729 0.006,0.346 0.517,0.893 0.881,0.814 z m 3.86,-4.297 c 0.006,-0.365 -0.267,-0.614 -0.687,-0.626 -0.359,-0.012 -0.76,0.395 -0.766,0.778 -0.006,0.359 0.389,0.802 0.711,0.802 0.365,0 0.735,-0.48 0.742,-0.954 z m 1.277,-2.687 c 0,0.061 -0.006,0.122 0,0.182 0.024,0.28 0.237,0.523 0.529,0.59 0.261,0.061 0.511,0.012 0.632,-0.231 0.158,-0.316 0.249,-0.663 0.103,-1.015 -0.036,-0.085 -0.115,-0.164 -0.195,-0.213 -0.602,-0.322 -1.07,-0.018 -1.07,0.687 z m -9.914,0.164 c 0,-0.456 -0.274,-0.802 -0.608,-0.833 -0.359,-0.036 -0.729,0.28 -0.742,0.705 -0.012,0.34 0.395,0.699 0.766,0.699 0.292,-0.006 0.584,-0.286 0.584,-0.571 z m 1.781,3.179 c 0.401,0.006 0.602,-0.182 0.602,-0.577 0.006,-0.413 -0.328,-0.754 -0.736,-0.76 -0.353,-0.006 -0.517,0.164 -0.523,0.541 -0.006,0.511 0.219,0.79 0.656,0.796 z"
       inkscape:connector-curvature="0"
       style="fill:#ffffff" />
    <path
       id="path8"
       d="m 22.478,4.968 c -0.134,0.17 -0.261,0.377 -0.444,0.535 -0.444,0.401 -0.736,0.9 -1.07,1.386 C 20.587,7.436 20.083,7.892 19.609,8.366 19.542,8.433 19.329,8.439 19.226,8.39 18.734,8.153 18.247,7.892 17.761,7.636 17.512,7.502 17.536,7.441 17.718,7.217 18.21,6.603 18.672,5.959 19.152,5.333 19.547,4.816 19.954,4.312 20.374,3.813 20.429,3.746 20.55,3.71 20.641,3.71 c 0.413,0.006 0.827,0.043 1.234,0.049 0.213,0.006 0.334,0.085 0.383,0.298 0.061,0.286 0.134,0.565 0.219,0.912 z"
       inkscape:connector-curvature="0"
       style="fill:#ffffff" />
    <path
       id="path10"
       d="m 17.913,1.102 c 0.389,0.061 0.772,0.097 1.137,0.201 0.115,0.03 0.201,0.243 0.249,0.389 0.115,0.328 0.219,0.663 0.28,1.003 0.03,0.158 0.006,0.365 -0.079,0.498 -0.383,0.608 -0.79,1.203 -1.197,1.793 -0.28,0.401 -0.571,0.796 -0.869,1.185 C 17.233,6.438 17.033,6.712 16.808,6.955 16.626,7.156 16.164,7.022 16.073,6.76 16.055,6.711 16.109,6.602 16.158,6.565 16.717,6.17 17.033,5.574 17.386,5.021 17.52,4.802 17.605,4.553 17.684,4.31 17.763,4.067 17.599,3.824 17.307,3.763 16.875,3.672 16.438,3.611 16.006,3.526 15.897,3.508 15.787,3.477 15.69,3.429 15.544,3.356 15.447,3.283 15.593,3.089 c 0.371,-0.492 0.711,-1.015 1.07,-1.514 0.201,-0.28 0.529,-0.328 0.839,-0.389 0.152,-0.03 0.292,-0.061 0.413,-0.085 z"
       inkscape:connector-curvature="0"
       style="fill:#ffffff" />
    <path
       id="path12"
       d="m 11.099,2.646 c 0.055,-0.122 0.073,-0.201 0.122,-0.261 0.365,-0.486 0.742,-0.973 1.112,-1.453 0.097,-0.128 0.195,-0.261 0.298,-0.377 0.164,-0.182 0.346,-0.304 0.608,-0.395 0.523,-0.176 1.039,-0.128 1.562,-0.158 0.237,-0.012 0.34,0.097 0.425,0.28 0.115,0.267 0.249,0.523 0.359,0.796 0.036,0.085 0.03,0.219 -0.012,0.304 C 15.293,1.88 14.996,2.367 14.716,2.865 14.619,3.041 14.497,3.139 14.284,3.108 13.628,3.017 12.971,2.932 12.321,2.841 11.926,2.78 11.537,2.713 11.099,2.646 Z"
       inkscape:connector-curvature="0"
       style="fill:#ffffff" />
  </g>
</svg>
