<?xml version="1.0" encoding="UTF-8" standalone="no"?>
<!-- Generated by IcoMoon.io -->

<svg
   xmlns:dc="http://purl.org/dc/elements/1.1/"
   xmlns:cc="http://creativecommons.org/ns#"
   xmlns:rdf="http://www.w3.org/1999/02/22-rdf-syntax-ns#"
   xmlns:svg="http://www.w3.org/2000/svg"
   xmlns="http://www.w3.org/2000/svg"
   xmlns:sodipodi="http://sodipodi.sourceforge.net/DTD/sodipodi-0.dtd"
   xmlns:inkscape="http://www.inkscape.org/namespaces/inkscape"
   version="1.1"
   width="215"
   height="215"
   viewBox="0 0 215 215"
   id="svg18"
   sodipodi:docname="attacks.svg"
   inkscape:version="0.92.3 (2405546, 2018-03-11)">
  <metadata
     id="metadata24">
    <rdf:RDF>
      <cc:Work
         rdf:about="">
        <dc:format>image/svg+xml</dc:format>
        <dc:type
           rdf:resource="http://purl.org/dc/dcmitype/StillImage" />
        <dc:title>characteristics-attacks</dc:title>
      </cc:Work>
    </rdf:RDF>
  </metadata>
  <defs
     id="defs22" />
  <sodipodi:namedview
     pagecolor="#ffffff"
     bordercolor="#666666"
     borderopacity="1"
     objecttolerance="10"
     gridtolerance="10"
     guidetolerance="10"
     inkscape:pageopacity="0"
     inkscape:pageshadow="2"
     inkscape:window-width="1920"
     inkscape:window-height="1017"
     id="namedview20"
     showgrid="false"
     fit-margin-top="0"
     fit-margin-left="0"
     fit-margin-right="0"
     fit-margin-bottom="0"
     inkscape:zoom="1.3037281"
     inkscape:cx="-311.72334"
     inkscape:cy="86.564059"
     inkscape:window-x="-8"
     inkscape:window-y="-8"
     inkscape:window-maximized="1"
     inkscape:current-layer="svg18" />
  <title
     id="title2">characteristics-attacks</title>
  <g
     id="g841"
     transform="matrix(6.7190975,0,0,6.7190975,-0.00440053,0.00741257)"
     style="fill:#000000;fill-opacity:1">
    <path
       id="path4"
       d="M 17.44,8.01 C 17.014,7.876 17.059,2.365 17.507,1.335 17.731,0.797 17.933,0.596 18.112,0.73 c 0.157,0.09 0.784,0.224 1.366,0.291 l 1.098,0.112 -0.426,0.56 C 19.904,2.007 19.59,2.679 19.411,3.194 19.254,3.709 19.053,4.09 18.941,4.045 18.851,3.978 18.717,4.314 18.627,4.807 18.358,6.42 17.731,8.122 17.44,8.01 Z"
       inkscape:connector-curvature="0"
       style="fill:#000000;fill-opacity:1" />
    <path
       id="path6"
       d="M 14.147,10.161 C 13.901,10.027 13.296,9.511 12.803,9.019 12.31,8.527 11.616,7.989 11.235,7.809 9.734,7.07 9.555,6.958 9.555,6.644 c 0,-0.179 0.426,-0.717 0.963,-1.187 l 0.941,-0.874 0.515,0.627 c 0.291,0.336 0.806,0.941 1.142,1.299 1.232,1.366 2.509,3.293 2.397,3.606 -0.134,0.381 -0.739,0.403 -1.366,0.045 z"
       inkscape:connector-curvature="0"
       style="fill:#000000;fill-opacity:1" />
    <path
       id="path8"
       d="m 0.774,31.373 c -0.829,-0.829 -0.963,-1.344 -0.538,-2.24 0.291,-0.605 0.538,-0.806 1.21,-0.918 0.448,-0.09 0.874,-0.224 0.941,-0.314 0.067,-0.067 0.336,-0.291 0.627,-0.493 0.291,-0.202 1.187,-0.986 1.994,-1.77 L 6.464,24.227 6.307,23.219 C 6.217,22.659 5.971,21.987 5.725,21.718 5.21,21.18 5.187,20.956 5.635,20.956 c 0.179,0 0.426,0.202 0.56,0.448 0.246,0.47 0.896,0.381 0.896,-0.134 0,-0.314 0.224,-0.538 3.83,-3.898 1.254,-1.165 3.606,-3.472 5.219,-5.13 1.613,-1.658 3.427,-3.472 4.032,-4.032 0.627,-0.56 1.725,-1.613 2.464,-2.307 0.739,-0.717 1.411,-1.299 1.478,-1.299 0.067,0 0.627,-0.448 1.232,-1.008 1.008,-0.896 5.667,-3.472 6.317,-3.472 0.694,0 -1.837,5.354 -3.091,6.474 -4.547,4.166 -6.026,5.6 -6.026,5.846 0,0.134 -0.134,0.202 -0.269,0.157 -0.157,-0.022 -0.269,0.09 -0.224,0.246 0.022,0.179 -0.045,0.246 -0.157,0.179 -0.112,-0.09 -0.582,0.224 -1.053,0.65 -0.448,0.426 -0.918,0.784 -1.008,0.784 -0.112,0 -0.202,0.09 -0.202,0.179 0,0.112 -0.672,0.829 -1.478,1.635 -4.256,4.166 -5.197,5.13 -6.72,6.854 -1.411,1.568 -1.635,1.926 -1.389,2.195 1.008,1.098 1.098,1.456 0.426,1.456 -0.224,0 -0.582,-0.246 -0.784,-0.56 -0.202,-0.314 -0.538,-0.56 -0.762,-0.56 -0.224,0 -0.493,-0.09 -0.627,-0.224 -0.134,-0.134 -0.896,0.47 -2.195,1.792 -1.075,1.12 -2.061,2.016 -2.173,2.016 -0.112,0 -0.224,0.134 -0.224,0.291 -0.022,0.134 -0.067,0.515 -0.09,0.784 -0.067,0.717 -0.739,1.344 -1.568,1.523 -0.56,0.09 -0.806,0 -1.277,-0.47 z m 6.765,-9.184 c 0,-0.179 -0.09,-0.336 -0.224,-0.336 -0.112,0 -0.224,0.157 -0.224,0.336 0,0.179 0.112,0.336 0.224,0.336 0.134,0 0.224,-0.157 0.224,-0.336 z m 8.355,-6.204 c 3.248,-3.248 7.168,-7.078 8.691,-8.534 1.523,-1.456 2.531,-2.509 2.24,-2.352 -1.03,0.56 -2.554,1.949 -8.086,7.347 -9.072,8.848 -9.61,9.408 -8.96,9.408 0.112,0 2.867,-2.643 6.115,-5.869 z"
       inkscape:connector-curvature="0"
       style="fill:#000000;fill-opacity:1" />
    <path
       id="path10"
       d="m 23.6,19.68 c -0.896,-0.851 -1.904,-1.859 -2.262,-2.262 -0.605,-0.694 -0.627,-0.762 -0.269,-1.12 0.336,-0.336 0.426,-0.336 1.434,0.179 0.582,0.314 1.098,0.627 1.165,0.694 0.202,0.269 2.352,1.299 2.979,1.456 0.56,0.134 0.627,0.224 0.493,0.739 -0.179,0.672 -1.187,1.814 -1.613,1.814 -0.179,0 -1.03,-0.672 -1.926,-1.501 z"
       inkscape:connector-curvature="0"
       style="fill:#000000;fill-opacity:1" />
    <path
       id="path12"
       d="m 17.149,26.736 c -0.157,-0.515 -0.112,-0.851 0.134,-0.941 0.157,-0.045 0.358,-0.515 0.448,-1.03 0.09,-0.493 0.291,-1.053 0.47,-1.21 0.179,-0.179 0.314,-0.627 0.314,-0.986 0,-0.359 0.067,-1.277 0.134,-2.038 0.179,-1.635 0.672,-1.882 0.851,-0.403 0.067,0.515 0.179,1.299 0.246,1.725 0.067,0.426 0.202,1.523 0.269,2.419 0.157,2.038 -0.045,2.33 -1.411,2.128 -0.672,-0.09 -0.986,-0.045 -0.986,0.134 0,0.202 -0.403,0.381 -0.47,0.202 z"
       inkscape:connector-curvature="0"
       style="fill:#000000;fill-opacity:1" />
    <path
       id="path14"
       d="m 24.249,13.386 c -0.179,-0.314 0.314,-0.672 1.098,-0.762 0.381,-0.067 1.03,-0.246 1.456,-0.448 1.926,-0.851 3.405,-1.344 3.808,-1.232 0.314,0.09 0.448,0 0.448,-0.246 0,-0.739 0.65,0.246 0.806,1.21 l 0.134,0.918 -1.411,0.246 c -2.15,0.381 -6.182,0.56 -6.339,0.314 z"
       inkscape:connector-curvature="0"
       style="fill:#000000;fill-opacity:1" />
    <path
       id="path16"
       d="m 4.291,14.305 c -0.09,-0.47 -0.202,-1.03 -0.269,-1.254 -0.09,-0.381 0.134,-0.403 3.45,-0.381 1.949,0.022 3.763,0.09 4.054,0.157 0.784,0.179 0.605,0.739 -0.224,0.739 -0.403,0 -1.187,0.157 -1.725,0.358 -0.56,0.179 -1.501,0.381 -2.128,0.448 -0.627,0.067 -1.21,0.224 -1.299,0.381 -0.112,0.202 -0.314,0.202 -0.851,0 -0.605,-0.224 -0.694,-0.224 -0.582,0.067 0.067,0.157 0.022,0.314 -0.09,0.314 -0.112,0 -0.269,-0.381 -0.336,-0.829 z"
       inkscape:connector-curvature="0"
       style="fill:#000000;fill-opacity:1" />
  </g>
</svg>
