<?xml version="1.0" encoding="UTF-8" standalone="no"?>
<!-- Generated by IcoMoon.io -->

<svg
   xmlns:dc="http://purl.org/dc/elements/1.1/"
   xmlns:cc="http://creativecommons.org/ns#"
   xmlns:rdf="http://www.w3.org/1999/02/22-rdf-syntax-ns#"
   xmlns:svg="http://www.w3.org/2000/svg"
   xmlns="http://www.w3.org/2000/svg"
   xmlns:sodipodi="http://sodipodi.sourceforge.net/DTD/sodipodi-0.dtd"
   xmlns:inkscape="http://www.inkscape.org/namespaces/inkscape"
   version="1.1"
   width="215"
   height="215"
   viewBox="0 0 215 215"
   id="svg8"
   sodipodi:docname="range.svg"
   inkscape:version="0.92.3 (2405546, 2018-03-11)">
  <metadata
     id="metadata14">
    <rdf:RDF>
      <cc:Work
         rdf:about="">
        <dc:format>image/svg+xml</dc:format>
        <dc:type
           rdf:resource="http://purl.org/dc/dcmitype/StillImage" />
        <dc:title>characteristics-range</dc:title>
      </cc:Work>
    </rdf:RDF>
  </metadata>
  <defs
     id="defs12" />
  <sodipodi:namedview
     pagecolor="#ffffff"
     bordercolor="#666666"
     borderopacity="1"
     objecttolerance="10"
     gridtolerance="10"
     guidetolerance="10"
     inkscape:pageopacity="0"
     inkscape:pageshadow="2"
     inkscape:window-width="1920"
     inkscape:window-height="1017"
     id="namedview10"
     showgrid="false"
     fit-margin-top="0"
     fit-margin-left="0"
     fit-margin-right="0"
     fit-margin-bottom="0"
     inkscape:zoom="1.3037281"
     inkscape:cx="-205.48526"
     inkscape:cy="-41.396971"
     inkscape:window-x="-8"
     inkscape:window-y="-8"
     inkscape:window-maximized="1"
     inkscape:current-layer="svg8" />
  <title
     id="title2">characteristics-range</title>
  <g
     id="g823"
     transform="matrix(6.7186893,0,0,6.7186893,-7.4905635e-7,0.00529197)"
     style="fill:#000000;fill-opacity:1">
    <path
       id="path4"
       d="m 18.888,23.935 c -0.111,-0.29 -2.851,-2.517 -2.851,-2.316 0,0.089 -0.111,0 -0.245,-0.2 -0.111,-0.223 -0.334,-0.401 -0.445,-0.401 -0.134,0 -0.156,0.134 -0.067,0.29 0.111,0.156 0,0.134 -0.245,-0.067 -0.379,-0.312 -0.379,-0.334 -0.022,-0.401 0.29,-0.067 0.334,-0.156 0.111,-0.401 -0.356,-0.445 0.245,-0.624 1.403,-0.445 l 0.891,0.156 -0.134,-0.846 c -0.29,-1.581 -1.626,-3.897 -2.918,-5.033 -0.713,-0.624 -2.405,-1.448 -3.363,-1.604 -0.468,-0.089 -1.002,-0.29 -1.18,-0.423 -0.178,-0.133 -1.18,-0.245 -2.338,-0.245 -1.982,0 -2.071,0.022 -3.274,0.846 -0.69,0.445 -1.359,0.824 -1.47,0.824 -0.134,0 -0.29,0.156 -0.379,0.334 -0.067,0.178 -0.267,0.334 -0.445,0.334 -0.178,0 -0.423,0.178 -0.557,0.379 -0.468,0.846 -0.49,0 -0.045,-1.225 C 1.85,12.043 3.52,10.262 4.967,9.594 5.412,9.371 5.836,9.104 5.902,9.015 5.969,8.904 6.325,8.748 6.681,8.659 7.06,8.57 7.349,8.436 7.349,8.347 7.349,8.057 6.146,7.055 5.634,6.877 5.344,6.81 5.122,6.632 5.122,6.521 5.122,6.254 1.18,6.254 1.002,6.543 0.802,6.877 0,6.81 0,6.454 0,5.897 1.492,4.828 2.94,4.36 4.454,3.87 7.506,3.67 7.238,4.07 7.149,4.226 7.416,4.315 7.951,4.315 c 0.468,0 1.359,0.134 1.96,0.312 1.247,0.334 3.697,1.604 3.964,2.071 0.089,0.156 0.29,0.29 0.423,0.29 0.379,0 2.606,2.405 3.653,3.897 1.269,1.871 1.67,2.851 1.804,4.387 0.067,0.713 0.223,1.359 0.312,1.425 0.111,0.067 0.2,0.445 0.2,0.824 0,0.401 0.067,1.091 0.156,1.559 0.111,0.757 0.2,0.846 0.601,0.713 1.314,-0.401 2.806,-0.267 2.806,0.245 0,0.156 -0.579,0.69 -1.269,1.158 -0.713,0.49 -1.715,1.336 -2.227,1.915 -0.913,1.002 -1.292,1.225 -1.448,0.824 z M 6.46,11.196 c 0,-0.245 -0.067,-0.245 -0.535,-0.067 -0.512,0.2 -0.445,0.512 0.089,0.379 0.245,-0.067 0.445,-0.2 0.445,-0.312 z"
       inkscape:connector-curvature="0"
       style="fill:#000000;fill-opacity:1" />
    <path
       id="path6"
       d="M 14.589,27.944 C 14.656,27.81 14.077,27.721 13.208,27.721 11.805,27.699 9.845,27.342 8.821,26.919 8.487,26.763 8.42,26.808 8.554,27.053 c 0.089,0.178 0,0.111 -0.178,-0.111 -0.2,-0.245 -0.356,-0.356 -0.356,-0.245 0,0.089 -0.223,0 -0.49,-0.245 C 7.263,26.229 7.129,26.162 7.218,26.318 7.396,26.63 5.859,25.783 5.325,25.249 4.835,24.781 4.412,23.935 4.568,23.712 4.635,23.601 4.546,23.445 4.412,23.4 c -0.223,-0.089 -0.223,-0.134 0,-0.134 0.134,-0.022 0.267,-0.178 0.267,-0.356 0,-0.178 0.29,-0.624 0.646,-0.98 1.047,-1.069 3.408,-2.004 6.37,-2.494 0.913,-0.156 1.67,-0.379 1.67,-0.468 0,-0.089 0.156,-0.178 0.356,-0.178 0.713,0 0.134,0.557 -0.69,0.668 -0.468,0.067 -0.891,0.245 -0.958,0.401 -0.067,0.2 0.089,0.245 0.557,0.178 0.713,-0.134 -0.2,0.134 -2.272,0.69 -1.604,0.445 -3.229,1.314 -3.229,1.759 0,0.245 0.379,0.312 1.67,0.312 1.715,0 2.272,0.334 0.98,0.601 -0.512,0.089 -0.601,0.178 -0.379,0.334 0.2,0.156 0.156,0.178 -0.2,0.111 -0.267,-0.067 -0.958,0 -1.537,0.111 -0.913,0.2 -1.002,0.267 -0.624,0.468 0.223,0.134 0.468,0.29 0.535,0.379 0.29,0.379 1.804,0.935 3.073,1.114 0.78,0.111 1.537,0.29 1.693,0.423 0.134,0.111 1.448,0.29 2.873,0.379 2.539,0.156 2.628,0.134 3.163,-0.356 0.312,-0.29 0.557,-0.646 0.557,-0.824 0,-0.356 0.379,-0.379 0.779,0 1.18,1.047 1.514,1.091 4.009,0.579 2.049,-0.445 4.566,-1.514 5.345,-2.294 0.334,-0.334 0.334,-0.356 -0.045,-0.49 -0.223,-0.067 -0.624,-0.223 -0.913,-0.334 -0.289,-0.111 -0.846,-0.2 -1.269,-0.2 -1.203,0 -0.913,-0.379 0.512,-0.668 1.871,-0.356 1.871,-0.379 1.604,-0.869 -0.111,-0.245 -0.49,-0.646 -0.824,-0.891 -0.356,-0.245 -0.757,-0.579 -0.935,-0.713 -0.156,-0.156 -0.779,-0.312 -1.381,-0.379 -0.601,-0.045 -1.091,-0.178 -1.091,-0.29 0,-0.112 -0.468,-0.2 -1.047,-0.223 -0.824,-0.022 -0.935,-0.067 -0.512,-0.178 0.624,-0.178 3.207,0.111 3.897,0.423 0.245,0.111 0.69,0.267 1.002,0.356 0.312,0.089 0.824,0.334 1.158,0.557 0.312,0.245 0.646,0.423 0.713,0.423 0.401,0 1.915,1.849 2.027,2.494 0.112,0.645 0.022,0.869 -0.869,1.804 -0.557,0.579 -1.314,1.18 -1.693,1.292 -0.356,0.134 -0.668,0.334 -0.668,0.445 0,0.111 -0.134,0.2 -0.312,0.2 -0.178,0 -0.601,0.111 -0.958,0.267 -0.334,0.134 -0.69,0.245 -0.757,0.223 -0.067,0 -0.624,0.134 -1.203,0.312 -0.601,0.156 -1.759,0.312 -2.606,0.312 -0.98,0 -1.492,0.089 -1.403,0.223 0.089,0.156 -1.114,0.223 -3.452,0.223 -2.16,0 -3.541,-0.089 -3.452,-0.2 z"
       inkscape:connector-curvature="0"
       style="fill:#000000;fill-opacity:1" />
  </g>
</svg>
