<?xml version="1.0" encoding="UTF-8" standalone="no"?>
<!-- Generated by IcoMoon.io -->

<svg
   xmlns:dc="http://purl.org/dc/elements/1.1/"
   xmlns:cc="http://creativecommons.org/ns#"
   xmlns:rdf="http://www.w3.org/1999/02/22-rdf-syntax-ns#"
   xmlns:svg="http://www.w3.org/2000/svg"
   xmlns="http://www.w3.org/2000/svg"
   xmlns:sodipodi="http://sodipodi.sourceforge.net/DTD/sodipodi-0.dtd"
   xmlns:inkscape="http://www.inkscape.org/namespaces/inkscape"
   version="1.1"
   width="215"
   height="215"
   viewBox="0 0 215 215"
   id="svg6"
   sodipodi:docname="move.svg"
   inkscape:version="0.92.3 (2405546, 2018-03-11)">
  <metadata
     id="metadata12">
    <rdf:RDF>
      <cc:Work
         rdf:about="">
        <dc:format>image/svg+xml</dc:format>
        <dc:type
           rdf:resource="http://purl.org/dc/dcmitype/StillImage" />
        <dc:title>characteristics-move</dc:title>
      </cc:Work>
    </rdf:RDF>
  </metadata>
  <defs
     id="defs10" />
  <sodipodi:namedview
     pagecolor="#ffffff"
     bordercolor="#666666"
     borderopacity="1"
     objecttolerance="10"
     gridtolerance="10"
     guidetolerance="10"
     inkscape:pageopacity="0"
     inkscape:pageshadow="2"
     inkscape:window-width="1920"
     inkscape:window-height="1017"
     id="namedview8"
     showgrid="false"
     fit-margin-top="0"
     fit-margin-left="0"
     fit-margin-right="0"
     fit-margin-bottom="0"
     inkscape:zoom="0.921875"
     inkscape:cx="-154.08683"
     inkscape:cy="122.96851"
     inkscape:window-x="-8"
     inkscape:window-y="-8"
     inkscape:window-maximized="1"
     inkscape:current-layer="svg6" />
  <title
     id="title2">characteristics-move</title>
  <path
     d="m 29.541315,214.43743 c -0.584517,-0.88013 0.880136,-4.40068 3.077117,-7.77341 2.196981,-3.37274 4.985199,-7.62561 6.013144,-9.53369 1.027945,-1.90808 2.492599,-3.52054 3.372735,-3.52054 0.732327,0 1.323564,-1.02795 1.323564,-2.19699 0,-1.02794 1.175754,-2.78821 2.640408,-3.52054 1.323563,-0.88014 1.908081,-1.61246 1.323563,-1.61246 -0.732327,0 0.443428,-2.05589 2.492599,-4.54849 2.049172,-2.4926 3.816163,-5.13301 3.816163,-5.86534 0,-0.73232 2.34479,-4.6963 5.133007,-8.80136 2.788218,-4.10506 5.133008,-8.35793 5.133008,-9.53369 0,-1.90808 17.307103,-25.81284 19.362993,-26.69298 0.732327,-0.29562 1.175755,-1.46465 1.175755,-2.4926 0,-1.17575 1.175754,-2.93602 2.640408,-3.95725 1.464654,-1.02123 3.224926,-3.66835 3.816163,-5.86533 1.323563,-5.57644 -2.34479,-5.42863 -7.625607,0 -4.696299,4.83739 -10.118206,6.74547 -10.118206,3.81616 0,-1.17576 0.443428,-1.76027 0.732327,-1.32356 0.880136,0.88013 15.990259,-14.81451 18.18724,-18.91957 0.880136,-1.76027 2.492599,-3.66836 3.520544,-4.252877 1.175755,-0.584518 2.055891,-2.055891 2.055891,-3.077117 0,-1.175755 1.027945,-2.34479 2.196981,-2.936027 1.323568,-0.443427 2.196978,-2.640408 2.196978,-5.280816 0,-3.668358 0.58452,-4.400678 3.52055,-4.400678 3.95725,0 8.21684,-3.52055 8.21684,-6.59766 0,-3.52055 -2.93603,-3.95726 -5.57643,-0.73233 -2.34479,2.93603 -3.95726,3.07712 -24.200388,3.37273 -11.878478,0.14781 -21.559975,0.73233 -21.559975,1.46466 0,0.58452 -1.760272,1.02794 -4.105062,1.02794 -2.196981,0 -5.576435,1.02795 -7.477797,2.344793 -2.196981,1.612463 -3.816163,1.908082 -4.837389,0.880136 -1.612463,-1.612459 9.681496,-9.096979 13.934368,-9.096979 1.175754,0 2.492599,-0.58452 2.788217,-1.17575 0.443427,-1.32357 4.837389,-3.95726 15.399022,-9.09698 3.372736,-1.61247 6.597662,-3.66836 7.041089,-4.40068 0.443427,-0.88014 2.196981,-1.46466 3.816163,-1.46466 1.464653,0 2.788217,-0.58452 2.788217,-1.17575 0,-0.73233 4.40068,-3.37274 9.977115,-6.01315 11.14615,-5.42862 18.33505,-9.38587 24.05257,-13.05423 8.50575,-5.57643 18.03943,-10.70944 21.27108,-11.44177 1.90808,-0.58451 3.95725,-1.61246 4.54849,-2.6404 0.58452,-0.88014 2.64041,-2.4926 4.6963,-3.52055 7.77341,-3.95725 10.85053,-6.01314 12.02628,-8.21684 0.73233,-1.32357 2.34479,-2.34479 3.52055,-2.34479 1.17575,0 1.76027,-0.7323296 1.32356,-1.4646596 -0.44343,-0.88013 0.29562,-1.90808 1.76027,-2.4926 1.46466,-0.44342 3.81617,-2.05589 5.28082,-3.66835 1.46465,-1.46465 3.22493,-2.6404100277788 3.95725,-2.6404100277788 1.76027,0 1.90808,3.3727400277788 0.29562,5.2808200277788 -2.05589,2.34479 -4.54849,12.6107996 -5.28082,21.8555896 -0.29561,4.83739 -1.61246,11.73739 -3.07711,15.39902 -1.32357,3.66836 -2.78822,12.32191 -3.22493,19.363 -0.73233,10.70944 -1.32356,12.75861 -3.52054,13.34985 -3.66836,1.02794 -3.52055,4.9852 0.14781,6.16095 2.4926,0.73233 2.93602,2.344792 3.22492,9.238071 0.14781,4.54849 0.14781,9.681504 0,11.293964 -1.46465,25.66504 -2.34479,45.61255 -2.19698,52.51255 0,5.71752 -0.44343,8.35793 -1.61246,7.92122 -0.88014,-0.29562 -1.90808,-2.05589 -2.19698,-4.10506 -0.44343,-3.22493 -0.58452,-3.37273 -1.76027,-0.58452 -0.88014,2.19698 -1.17576,1.32357 -1.17576,-3.37273 -0.14781,-3.66836 -1.61246,-9.09698 -3.81616,-13.20204 -2.05589,-3.81617 -3.66836,-7.77342 -3.66836,-8.65356 0,-1.02794 -0.58451,-1.90808 -1.17575,-1.90808 -0.73233,0 -3.22493,-5.71752 -5.57643,-12.6108 -3.81617,-11.29396 -3.95726,-12.75862 -1.90809,-14.22999 3.66836,-2.64041 4.9852,-8.357937 2.05589,-8.357937 -2.34479,0 -9.38587,6.893287 -9.53368,9.238077 0,0.58452 -0.73233,1.90808 -1.46466,2.93602 -2.93602,3.52055 -8.80136,12.90643 -8.80136,14.08218 0,0.73233 -0.88013,1.61247 -1.90808,2.05589 -1.02794,0.44343 -5.133,5.57644 -9.23807,11.44177 -3.95725,6.01315 -8.21684,11.87848 -9.53368,13.20204 -1.31685,1.32357 -3.66836,4.40068 -5.13301,7.04109 -1.46466,2.4926 -3.22493,4.54849 -3.95726,4.54849 -0.584514,0 -0.732323,0.73233 -0.295614,1.46466 0.443424,0.88013 0.147809,1.46465 -0.732327,1.46465 -0.880136,0 -1.175754,0.73233 -0.732327,1.46465 0.443427,0.88014 0.295618,1.46466 -0.584518,1.46466 -0.732327,0 -1.908081,1.32356 -2.34479,2.93602 -0.584518,1.61247 -1.612463,2.64041 -2.34479,2.19698 -0.732327,-0.58451 -1.323563,-0.1478 -1.323563,0.58452 0,0.88014 -0.880136,1.61246 -2.055891,1.61246 -2.492599,0 -2.196981,-3.22492 0.295619,-6.30876 1.027945,-1.17575 2.34479,-4.6963 2.788217,-7.92122 1.027945,-6.16095 4.548489,-12.02629 7.477794,-12.1741 1.02795,0 2.34479,-1.17575 2.78822,-2.4926 0.58452,-1.46465 2.78822,-4.40068 5.13301,-6.59766 4.25287,-4.10506 5.28082,-7.04109 2.4926,-7.04109 -2.19698,0 -29.185584,26.69299 -29.185584,28.89669 0,1.02794 -0.584518,1.90808 -1.464654,1.90808 -0.732327,0 -1.464654,0.58451 -1.464654,1.46465 0,0.73233 -2.34479,3.52054 -5.280816,6.16095 -5.280817,4.9852 -12.321906,12.02629 -20.679839,21.27108 -2.640408,2.93602 -4.837389,6.01314 -4.837389,7.04109 0,1.17575 -1.908082,2.78821 -4.400681,3.95725 -2.34479,1.02795 -4.40068,2.19698 -4.40068,2.78822 0,0.44342 -1.175754,2.05589 -2.640408,3.66835 -1.464654,1.46465 -3.372736,4.10506 -4.252872,5.57644 -0.880136,1.76027 -1.908081,2.19698 -2.492599,1.17575 z m 16.426968,-18.77175 c -0.584518,-0.44343 -1.760272,0.73232 -2.640408,2.6404 -1.760273,3.22493 -1.760273,3.22493 0.880136,0.88014 1.464654,-1.46465 2.196981,-2.93603 1.760272,-3.52054 z M 178.27088,11.589575 c 0,-0.88013 -0.58452,-1.02794 -1.46466,-0.58452 -0.73233,0.43671 -1.46465,1.61247 -1.46465,2.34479 0,0.88014 0.73232,1.02795 1.46465,0.58452 0.88014,-0.44343 1.46466,-1.61246 1.46466,-2.34479 z"
     id="path4"
     inkscape:connector-curvature="0"
     style="fill:#ffffff;stroke-width:6.71859598" />
</svg>
