<?xml version="1.0" encoding="UTF-8" standalone="no"?>
<!-- Generated by IcoMoon.io -->

<svg
   xmlns:dc="http://purl.org/dc/elements/1.1/"
   xmlns:cc="http://creativecommons.org/ns#"
   xmlns:rdf="http://www.w3.org/1999/02/22-rdf-syntax-ns#"
   xmlns:svg="http://www.w3.org/2000/svg"
   xmlns="http://www.w3.org/2000/svg"
   xmlns:sodipodi="http://sodipodi.sourceforge.net/DTD/sodipodi-0.dtd"
   xmlns:inkscape="http://www.inkscape.org/namespaces/inkscape"
   version="1.1"
   width="215"
   height="215"
   viewBox="0 0 215 215"
   id="svg18"
   sodipodi:docname="strength.svg"
   inkscape:version="0.92.3 (2405546, 2018-03-11)">
  <metadata
     id="metadata24">
    <rdf:RDF>
      <cc:Work
         rdf:about="">
        <dc:format>image/svg+xml</dc:format>
        <dc:type
           rdf:resource="http://purl.org/dc/dcmitype/StillImage" />
        <dc:title>characteristics-strength</dc:title>
      </cc:Work>
    </rdf:RDF>
  </metadata>
  <defs
     id="defs22" />
  <sodipodi:namedview
     pagecolor="#ffffff"
     bordercolor="#666666"
     borderopacity="1"
     objecttolerance="10"
     gridtolerance="10"
     guidetolerance="10"
     inkscape:pageopacity="0"
     inkscape:pageshadow="2"
     inkscape:window-width="1920"
     inkscape:window-height="1017"
     id="namedview20"
     showgrid="false"
     fit-margin-top="0"
     fit-margin-left="0"
     fit-margin-right="0"
     fit-margin-bottom="0"
     inkscape:zoom="1.3037281"
     inkscape:cx="-249.47223"
     inkscape:cy="16.526171"
     inkscape:window-x="-8"
     inkscape:window-y="-8"
     inkscape:window-maximized="1"
     inkscape:current-layer="svg18" />
  <title
     id="title2">characteristics-strength</title>
  <g
     id="g841"
     transform="matrix(6.71896,0,0,6.71896,-0.00336,-0.00671948)"
     style="fill:#ffffff;fill-opacity:1">
    <path
       id="path4"
       d="m 19.266,13.064 c -0.154,-0.11 -0.704,-0.198 -1.21,-0.198 -0.506,0 -0.968,-0.066 -1.034,-0.176 -0.044,-0.088 0.044,-1.408 0.22,-2.903 0.154,-1.518 0.286,-3.541 0.286,-4.508 0,-0.967 0.044,-2.375 0.132,-3.123 0.154,-1.232 0.22,-1.386 0.792,-1.583 0.418,-0.154 1.1,-0.154 2.001,0 2.397,0.374 2.991,1.078 2.617,3.057 -0.132,0.66 -0.374,2.111 -0.572,3.189 -0.176,1.1 -0.418,2.177 -0.528,2.419 -0.11,0.242 -0.264,0.924 -0.33,1.518 -0.198,1.539 -0.55,2.177 -1.386,2.353 -0.374,0.066 -0.814,0.044 -0.99,-0.044 z"
       inkscape:connector-curvature="0"
       style="fill:#ffffff;fill-opacity:1" />
    <path
       id="path6"
       d="M 4.113,8.973 C 3.607,8.357 3.321,7.587 3.035,6.114 2.881,5.344 2.661,4.728 2.573,4.728 c -0.11,0 -0.198,-0.176 -0.198,-0.396 0,-0.44 0.858,-1.364 1.254,-1.364 0.132,0 0.286,-0.11 0.33,-0.22 0.11,-0.352 2.617,-1.298 3.409,-1.32 0.374,0 0.77,0.11 0.858,0.242 0.132,0.242 0.572,2.903 0.902,5.388 L 9.238,7.982 8.116,8.136 C 7.5,8.224 6.994,8.378 6.994,8.488 6.994,8.598 6.818,8.686 6.62,8.686 6.4,8.686 5.938,8.84 5.586,9.016 4.772,9.434 4.486,9.434 4.112,8.972 Z M 4.531,7.544 C 4.399,7.148 3.915,7.082 3.915,7.456 c 0,0.198 0.154,0.352 0.352,0.352 0.198,0 0.308,-0.11 0.264,-0.264 z"
       inkscape:connector-curvature="0"
       style="fill:#ffffff;fill-opacity:1" />
    <path
       id="path8"
       d="M 12.822,11.481 C 13.086,9.304 12.14,6.467 11.261,6.797 10.667,7.017 10.293,6.137 10.161,4.136 9.963,1.607 10.095,1.145 11.107,0.507 c 0.704,-0.418 1.144,-0.506 2.661,-0.506 1.188,0 1.869,0.088 1.979,0.264 0.088,0.154 0.198,1.759 0.242,3.585 0.066,3.211 0.044,3.343 -0.396,3.453 -0.418,0.11 -0.484,0.198 -0.44,0.682 0,0.088 0.154,0.132 0.33,0.088 0.242,-0.044 0.308,0.352 0.308,2.155 0,1.21 -0.022,2.199 -0.044,2.221 -0.044,0 -0.748,0.066 -1.561,0.132 l -1.518,0.11 z"
       inkscape:connector-curvature="0"
       style="fill:#ffffff;fill-opacity:1" />
    <path
       id="path10"
       d="M 8.71,28.129 C 8.6,28.041 8.534,27.491 8.534,26.897 c 0,-0.572 -0.088,-1.056 -0.176,-1.056 -0.088,0 -0.286,-0.44 -0.44,-0.968 C 7.522,23.334 5.213,21.75 4.201,22.278 3.277,22.784 3.167,22.366 3.013,17.946 2.925,15.615 2.749,13.591 2.617,13.328 c -0.242,-0.44 -0.198,-1.32 0.088,-1.781 0.066,-0.11 0.44,-0.352 0.836,-0.528 0.858,-0.396 4.377,-1.451 4.816,-1.451 0.176,0 0.726,-0.286 1.188,-0.616 0.484,-0.352 0.99,-0.594 1.122,-0.55 0.528,0.176 1.056,1.693 1.056,2.947 0,1.276 -0.66,3.057 -1.144,3.057 -0.154,0 -0.352,0.132 -0.44,0.308 -0.22,0.374 -1.979,1.232 -2.529,1.232 -0.374,0 -0.99,0.814 -0.77,1.034 0.22,0.198 2.595,-0.374 2.925,-0.704 0.484,-0.484 2.837,-0.44 3.805,0.066 0.528,0.264 0.968,0.792 1.473,1.759 0.682,1.276 0.748,1.517 0.748,3.365 0,1.1 -0.088,1.935 -0.176,1.869 -0.11,-0.066 -0.308,0.198 -0.44,0.594 -0.22,0.638 -2.463,2.859 -3.013,3.013 -0.11,0.044 -0.594,0.308 -1.078,0.594 -0.88,0.572 -2.111,0.88 -2.375,0.594 z m 6.355,-8.159 c -0.066,-0.22 -0.11,-0.088 -0.11,0.264 0,0.374 0.044,0.528 0.11,0.396 0.044,-0.154 0.044,-0.462 0,-0.66 z"
       inkscape:connector-curvature="0"
       style="fill:#ffffff;fill-opacity:1" />
    <path
       id="path12"
       d="m 13.306,31.758 c -1.056,-0.176 -2.133,-1.188 -2.199,-2.089 -0.044,-0.55 0.044,-0.638 0.572,-0.704 0.33,-0.044 0.594,-0.154 0.594,-0.264 0,-0.11 0.22,-0.264 0.506,-0.352 0.264,-0.066 0.99,-0.66 1.583,-1.276 0.616,-0.638 1.254,-1.21 1.451,-1.298 0.44,-0.154 3.915,3.123 4.332,4.113 0.264,0.594 0.242,0.682 -0.44,1.386 L 19.001,32 16.56,31.956 c -1.32,-0.044 -2.793,-0.132 -3.255,-0.198 z"
       inkscape:connector-curvature="0"
       style="fill:#ffffff;fill-opacity:1" />
    <path
       id="path14"
       d="m 21.861,28.107 c -0.462,-0.066 -0.99,-0.242 -1.166,-0.418 -0.176,-0.176 -0.484,-0.308 -0.704,-0.308 -0.198,0 -0.792,-0.484 -1.32,-1.078 -0.902,-1.012 -1.232,-1.671 -1.803,-3.431 -0.264,-0.858 -0.264,-3.079 0.022,-4.091 0.242,-0.88 1.342,-2.155 2.265,-2.617 0.66,-0.33 0.792,-0.88 0.198,-0.88 -0.198,0 -0.748,0.198 -1.21,0.44 -0.44,0.242 -0.968,0.44 -1.144,0.44 -0.198,0 -0.396,0.264 -0.462,0.66 -0.088,0.374 -0.198,0.66 -0.242,0.66 -0.066,0 -0.55,-0.44 -1.078,-0.99 -0.638,-0.638 -1.232,-1.012 -1.759,-1.122 -0.418,-0.088 -0.836,-0.286 -0.902,-0.44 -0.066,-0.176 -0.264,-0.308 -0.44,-0.308 -0.176,0 -0.286,-0.154 -0.242,-0.374 0.066,-0.352 0.374,-0.396 3.145,-0.352 1.671,0.044 3.101,0.154 3.167,0.264 0.066,0.088 0.66,0.22 1.298,0.286 1.342,0.132 1.539,0.264 1.144,0.726 -0.242,0.286 -0.088,0.33 1.342,0.33 1.32,0 1.693,0.088 2.089,0.462 0.418,0.396 0.55,0.418 0.946,0.154 0.264,-0.154 0.462,-0.352 0.462,-0.44 0,-0.11 0.176,-0.176 0.418,-0.176 0.506,0 0.704,0.924 0.704,3.079 0,1.737 -0.154,2.507 -0.726,3.409 -0.22,0.374 -0.396,0.836 -0.396,1.056 0,0.198 -0.088,0.374 -0.198,0.374 -0.11,0 -0.242,0.198 -0.308,0.44 -0.066,0.242 -0.286,0.44 -0.484,0.44 -0.22,0 -0.726,0.198 -1.122,0.462 -0.638,0.396 -0.748,0.572 -0.748,1.32 0,0.572 0.154,1.012 0.462,1.32 0.374,0.374 0.418,0.506 0.176,0.66 -0.176,0.11 -0.352,0.176 -0.418,0.154 -0.066,-0.022 -0.506,-0.066 -0.968,-0.11 z"
       inkscape:connector-curvature="0"
       style="fill:#ffffff;fill-opacity:1" />
    <path
       id="path16"
       d="m 25.688,14.252 c 0,-0.33 -0.044,-0.352 -0.22,-0.066 -0.176,0.286 -0.286,0.286 -0.66,0.044 -0.242,-0.154 -0.55,-0.22 -0.66,-0.154 -0.132,0.088 -0.22,0.044 -0.22,-0.066 0,-0.11 -0.308,-0.264 -0.682,-0.352 -0.638,-0.132 -0.682,-0.176 -0.572,-0.946 0.044,-0.462 0.396,-1.979 0.77,-3.365 0.352,-1.407 0.726,-3.013 0.814,-3.563 0.198,-1.364 1.078,-2.067 1.803,-1.452 0.154,0.132 0.286,0.154 0.286,0.088 0,-0.088 0.286,0.044 0.638,0.286 0.352,0.264 0.726,0.462 0.858,0.462 0.11,0 0.55,0.33 0.99,0.748 L 29.625,6.664 29.207,7.5 c -0.242,0.462 -0.44,1.122 -0.44,1.451 0,0.329 -0.088,0.638 -0.176,0.704 -0.11,0.066 -0.484,0.792 -0.814,1.605 -0.352,0.814 -0.77,1.627 -0.946,1.803 -0.154,0.154 -0.352,0.572 -0.418,0.924 -0.132,0.682 -0.726,0.88 -0.726,0.264 z"
       inkscape:connector-curvature="0"
       style="fill:#ffffff;fill-opacity:1" />
  </g>
</svg>
