<?xml version="1.0" encoding="UTF-8" standalone="no"?>
<!-- Generator: Adobe Illustrator 23.0.4, SVG Export Plug-In  -->

<svg
   xmlns:dc="http://purl.org/dc/elements/1.1/"
   xmlns:cc="http://creativecommons.org/ns#"
   xmlns:rdf="http://www.w3.org/1999/02/22-rdf-syntax-ns#"
   xmlns:svg="http://www.w3.org/2000/svg"
   xmlns="http://www.w3.org/2000/svg"
   xmlns:sodipodi="http://sodipodi.sourceforge.net/DTD/sodipodi-0.dtd"
   xmlns:inkscape="http://www.inkscape.org/namespaces/inkscape"
   version="1.1"
   x="0px"
   y="0px"
   width="257.95999"
   height="257.95999"
   viewBox="0 0 257.95999 257.96"
   xml:space="preserve"
   id="svg10"
   sodipodi:docname="the_unmade.svg"
   inkscape:version="0.92.3 (2405546, 2018-03-11)"><metadata
   id="metadata14"><rdf:RDF><cc:Work
       rdf:about=""><dc:format>image/svg+xml</dc:format><dc:type
         rdf:resource="http://purl.org/dc/dcmitype/StillImage" /><dc:title></dc:title></cc:Work></rdf:RDF></metadata><sodipodi:namedview
   pagecolor="#ffffff"
   bordercolor="#666666"
   borderopacity="1"
   objecttolerance="10"
   gridtolerance="10"
   guidetolerance="10"
   inkscape:pageopacity="0"
   inkscape:pageshadow="2"
   inkscape:window-width="1920"
   inkscape:window-height="1017"
   id="namedview12"
   showgrid="false"
   inkscape:zoom="0.91487055"
   inkscape:cx="-224.04312"
   inkscape:cy="128.98"
   inkscape:window-x="-8"
   inkscape:window-y="-8"
   inkscape:window-maximized="1"
   inkscape:current-layer="svg10" />
<defs
   id="defs2">
</defs>
<g
   id="g8"
   transform="translate(16.934996,-4.2724608e-6)">
    <g
   id="g6">
        <path
   d="m 113.82,257.96 c -0.22,-0.7 -0.62,-1.39 -0.63,-2.09 -0.07,-3.96 -0.04,-7.92 -0.04,-11.87 0,-0.76 0.05,-1.52 0.04,-2.28 -0.02,-2.37 -0.03,-2.38 -2.42,-2.1 -0.98,0.11 -1.31,-0.63 -1.44,-1.28 -0.16,-0.8 -0.14,-1.68 0.01,-2.49 0.66,-3.3 1.04,-6.58 0.77,-9.99 -0.58,-7.44 -0.76,-14.92 -1.4,-22.36 -0.33,-3.87 -1.3,-7.69 -1.99,-11.61 -0.6,0.07 -0.97,0.05 -1.29,0.15 -2.7,0.91 -5.39,0.83 -8.12,0.09 -4.27,-1.16 -8.56,-2.23 -12.83,-3.4 -0.78,-0.22 -1.45,-0.83 -2.22,-1.13 -0.61,-0.24 -1.42,-0.59 -1.93,-0.38 -2.69,1.08 -5.31,2.32 -7.97,3.49 -0.24,0.11 -0.6,0.12 -0.85,0.03 -1.03,-0.39 -1.95,-0.29 -2.76,0.5 -1.05,1.03 -2.1,2.05 -3.16,3.06 -0.25,0.24 -0.52,0.54 -0.84,0.64 -5.77,1.74 -9.85,5.93 -14.26,9.67 -3.11,2.64 -6.29,5.19 -9.43,7.79 -1.03,0.86 -2.03,1.76 -3.04,2.64 -0.09,-0.06 -0.18,-0.12 -0.27,-0.18 0.27,-0.43 0.47,-0.91 0.8,-1.27 5.79,-6.14 11.63,-12.23 17.37,-18.41 1.74,-1.87 3.21,-3.98 4.82,-5.97 0.55,-0.68 1.21,-1.28 1.77,-1.96 0.29,-0.35 0.6,-0.77 0.68,-1.2 0.39,-1.95 1.09,-2.38 3.02,-1.78 0.26,0.08 0.53,0.14 0.8,0.22 0.38,-3.77 -1.16,-5.7 -5.1,-6.42 -1.97,-0.36 -2.61,-1.36 -2.44,-3.32 0.05,-0.62 -0.28,-1.44 -0.72,-1.91 -7.29,-7.81 -10.81,-17.52 -13.82,-27.46 -0.46,-1.52 -0.54,-3.15 -0.91,-4.7 -0.13,-0.55 -0.53,-1.09 -0.94,-1.51 -0.46,-0.48 -1.09,-0.81 -1.61,-1.25 -1.14,-0.97 -1.15,-2.08 0.04,-3.01 0.76,-0.6 1.2,-1.28 1.01,-2.26 -0.22,-1.16 -1,-1.42 -1.99,-0.78 -0.41,0.26 -0.95,0.4 -1.44,0.42 -3.87,0.16 -7.75,0.39 -11.62,0.38 -8.36,-0.03 -16.68,-0.56 -24.81,-2.75 -0.88,-0.24 -1.77,-0.41 -2.66,-0.61 -0.01,-0.21 -0.02,-0.42 -0.02,-0.64 1.51,-0.42 2.99,-1.03 4.53,-1.22 5.51,-0.7 11.06,-1.07 16.54,-1.94 4.68,-0.74 9.29,-1.97 13.92,-3 1.17,-0.26 2.3,-0.68 3.48,-0.9 0.67,-0.12 1.42,-0.12 2.06,0.07 0.88,0.26 1.38,0.18 1.74,-0.76 0.83,-2.15 1.76,-4.26 3,-6.51 0.8,1.57 1.7,3.1 2.36,4.72 0.27,0.67 0.09,1.56 0.03,2.34 -0.12,1.53 -0.29,3.06 -0.43,4.5 0.34,0.15 0.44,0.22 0.48,0.2 2.5,-1.28 5.28,-1.12 7.94,-1.6 1.48,-0.27 2.93,-0.77 4.37,-1.22 1.49,-0.47 2.35,-1.58 2.91,-2.98 1.73,-4.38 3.6,-8.7 5.14,-13.14 0.95,-2.75 0.82,-5.56 -1.38,-7.89 -2.12,-2.24 -4.23,-4.48 -6.35,-6.72 -0.22,-0.23 -0.44,-0.46 -0.69,-0.67 -1.99,-1.7 -2.7,-1.66 -4.51,0.2 -1.74,1.79 -1.74,1.79 -4.03,0.69 -2.05,-0.99 -2.07,-1.06 -0.95,-3.12 0.36,-0.67 0.75,-1.34 0.96,-2.06 0.16,-0.56 0.58,-1.28 -0.47,-1.68 -0.22,-0.08 -0.22,-1.08 -0.12,-1.61 0.07,-0.39 0.43,-0.76 0.75,-1.05 1.61,-1.46 1.71,-2.11 0.47,-3.93 -0.31,-0.46 -0.66,-0.93 -1.09,-1.27 -4.25,-3.44 -7.33,-7.9 -10.59,-12.19 -1.16,-1.53 -2.25,-3.11 -3.36,-4.67 -0.19,-0.27 -0.34,-0.56 -0.5,-0.84 0.09,-0.08 0.17,-0.16 0.26,-0.24 1.19,0.83 2.45,1.57 3.56,2.49 4.69,3.92 9.34,7.9 14,11.87 0.33,0.28 0.62,0.62 0.9,0.96 1.67,1.98 4.26,1.78 5.61,-0.45 0.44,-0.73 0.65,-1.69 1.8,-1.65 0.09,0 0.23,-0.1 0.28,-0.2 1.29,-2.4 3.53,-3.78 5.6,-5.36 1.01,-0.77 1.88,-1.73 2.82,-2.59 1.53,-1.4 2.99,-2.89 4.63,-4.15 0.95,-0.73 2.18,-1.12 3.29,-1.63 0.62,-0.28 1.32,-0.4 1.89,-0.73 5.77,-3.38 12.04,-5.49 18.47,-7.19 1.72,-0.45 3.5,-0.71 5.23,-1.15 0.38,-0.1 0.78,-0.55 0.95,-0.93 0.28,-0.6 0.16,-1.58 0.58,-1.89 1.06,-0.78 2.35,-1.15 3.83,-0.8 0,0.57 -0.13,1.16 0.04,1.65 0.14,0.4 0.61,0.88 0.99,0.94 0.35,0.06 0.98,-0.3 1.15,-0.64 1.09,-2.22 2.09,-4.49 3.11,-6.75 0.57,-1.26 0.52,-2.45 -0.3,-3.62 -1.29,-1.84 -1.74,-3.73 -1.08,-6.07 1.37,-4.8 2.63,-9.65 3.52,-14.55 0.99,-5.42 1.51,-10.92 2.24,-16.38 0.06,-0.44 0.19,-0.86 0.29,-1.3 0.16,-0.02 0.32,-0.04 0.48,-0.06 0.21,0.71 0.51,1.42 0.62,2.15 0.91,5.77 0.43,11.57 0.16,17.35 -0.23,4.71 -0.64,9.41 -0.87,14.13 -0.03,0.7 0.43,1.44 0.75,2.13 0.35,0.75 0.89,1.43 1.19,2.2 0.55,1.41 0.98,2.87 1.48,4.3 0.44,1.26 0.34,2.34 -0.09,3.73 -0.91,2.89 -1.15,5.99 -1.7,9.18 1.33,-0.28 1.65,-1.01 1.84,-1.85 0.39,-1.75 0.79,-3.5 1.22,-5.42 1.59,0.36 3.09,0.69 4.58,1.07 0.17,0.04 0.31,0.43 0.34,0.67 0.08,0.51 0.07,1.04 0.1,1.56 0.06,0.89 0.52,1.46 1.41,1.48 7.24,0.18 13.31,3.77 19.49,6.87 2.83,1.42 5.33,3.51 7.92,5.37 2.1,1.51 4.13,3.13 6.15,4.74 0.49,0.39 0.85,0.95 1.21,1.48 0.85,1.25 1.97,1.74 3.32,1.18 2.33,-0.95 4.63,-1.97 6.9,-3.06 0.53,-0.25 0.83,-0.96 1.34,-1.31 3.58,-2.48 7.18,-4.93 10.77,-7.39 0.14,-0.1 0.34,-0.12 0.62,0.01 -0.97,0.79 -1.98,1.54 -2.91,2.38 -0.88,0.8 -1.76,1.62 -2.5,2.54 -1.89,2.38 -3.64,4.87 -5.56,7.22 -1.21,1.48 -2.58,2.82 -3.95,4.15 -0.96,0.93 -1.07,1.23 -0.22,2.3 1.78,2.26 3.56,4.53 5.41,6.73 2.81,3.33 4.62,7.08 5.8,11.3 0.83,2.97 0.73,6.01 1.37,8.96 0.35,1.61 0.68,3.19 0.76,4.89 0.08,1.56 1.28,3.09 2.11,4.57 0.16,0.29 0.86,0.36 1.33,0.38 7.66,0.38 15.33,0.68 22.99,1.11 2.74,0.16 5.47,0.55 8.18,0.99 0.77,0.13 1.46,0.79 2.22,1.23 -0.23,0.25 -0.3,0.36 -0.32,0.35 -3.08,-1.11 -6.14,-0.32 -9.23,0.01 -3.89,0.41 -7.8,0.62 -11.71,0.92 -0.4,0.03 -0.81,0.01 -1.19,0.11 -3.44,0.89 -6.87,1.77 -10.3,2.71 -1.3,0.36 -1.64,1.63 -1.68,2.66 -0.13,3.02 -1.36,5.44 -3.42,7.56 -0.71,0.74 -1.26,1.64 -2.18,2.45 0,-4.54 0,-9.08 0,-13.76 -1.8,0.16 -3.59,0.24 -5.35,0.5 -2.8,0.41 -5.59,0.94 -8.37,1.44 -0.43,0.08 -0.94,0.16 -1.23,0.43 -1.67,1.54 -3.88,1.8 -5.87,2.56 -1.89,0.72 -3.21,1.91 -4.18,3.71 -2.55,4.68 -4.8,9.48 -6.27,14.61 -1.03,3.58 -1.07,7.04 0.97,10.39 1.7,2.8 3.14,5.75 4.77,8.59 0.57,1 1.37,1.86 2.06,2.79 0.38,0.51 0.76,0.95 0.32,1.71 -0.18,0.31 0.08,1.11 0.4,1.43 0.67,0.67 1.5,1.19 2.28,1.74 0.66,0.47 1.21,0.27 1.62,-0.38 0.53,-0.85 1.01,-1.72 1.56,-2.55 1.68,-2.52 3.31,-5.07 5.09,-7.52 2.04,-2.81 4.21,-5.53 6.32,-8.28 0.31,-0.41 0.64,-0.8 0.99,-1.26 0.99,0.72 0.75,1.58 0.41,2.37 -1.07,2.5 -2.17,4.98 -3.29,7.45 -0.77,1.71 -1.53,3.43 -2.4,5.09 -0.6,1.15 -0.41,2.21 0.21,3.17 0.43,0.66 0.58,1.14 0.24,1.92 -0.5,1.13 0,1.52 1.26,1.44 0.72,-0.05 1.67,0.08 2.17,0.53 1.02,0.92 1.93,2.03 2.67,3.19 2.52,3.99 4.79,8.13 7.45,12.02 2,2.92 4.42,5.56 6.7,8.27 1.31,1.56 2.67,3.09 4.12,4.52 1.08,1.07 1.35,2.37 1.65,4 -1.11,-0.67 -2.12,-1.11 -2.92,-1.79 -4.2,-3.58 -8.32,-7.23 -12.51,-10.83 -1.48,-1.27 -3.08,-2.42 -4.58,-3.67 -1.44,-1.19 -2.89,-2.39 -4.24,-3.68 -1.28,-1.22 -2.9,-1.19 -4.45,-1.49 -0.19,-0.04 -0.4,-0.01 -0.69,-0.01 0,-1.23 -0.66,-1.58 -1.81,-1.85 -0.66,-0.15 -1.13,-1.28 -1.58,-2.04 -0.2,-0.35 -0.13,-0.85 -0.15,-0.99 -0.68,-0.5 -1.11,-0.96 -1.64,-1.17 -0.42,-0.17 -0.98,-0.13 -1.45,-0.04 -2.35,0.44 -4.15,1.91 -6,3.28 -2.87,2.13 -6.19,3.27 -9.58,4.23 -1.46,-3.77 0.18,-6.13 4.2,-8.42 1.2,-0.68 2.61,-1 3.86,-1.62 2.52,-1.25 2.61,-1.31 1.95,-3.97 -0.31,-1.22 -0.9,-2.53 -1.76,-3.42 -1.43,-1.47 -3.16,-2.64 -4.79,-3.92 -0.78,-0.62 -1.58,-1.22 -2.4,-1.78 -0.52,-0.36 -1.06,-0.73 -1.64,-0.92 -1.61,-0.52 -1.88,-0.39 -2.7,0.99 -0.62,-0.24 -1.21,-0.61 -1.85,-0.7 -2.81,-0.42 -3.86,0.27 -4.33,3.04 -0.51,2.94 -0.84,5.92 -1.25,8.88 -0.02,0.17 -0.07,0.34 -0.1,0.52 -0.13,0.01 -0.25,0.03 -0.38,0.04 -0.26,-1.41 -0.53,-2.81 -0.77,-4.22 -0.27,-1.57 -0.45,-3.15 -0.77,-4.71 -0.18,-0.9 -0.84,-1.32 -1.78,-1.2 -0.99,0.13 -1.99,0.21 -2.96,0.42 -0.36,0.08 -0.82,0.4 -0.96,0.72 -0.84,1.93 -1.54,3.91 -2.41,5.83 -0.25,0.56 -0.8,1.24 -1.33,1.38 -1.7,0.44 -2.67,1.64 -3.34,3.05 -1.47,3.06 -1.62,6.4 -1.8,9.71 -0.06,1.07 0.8,1.05 1.52,1.01 3.27,-0.2 6.54,-0.35 9.79,-0.67 1.15,-0.11 1.7,0.28 2.07,1.23 -6.28,2.78 -8.51,5.02 -14.13,4.35 -0.33,4.04 -0.64,8.08 -0.99,12.11 -0.16,1.86 -0.27,3.75 -0.63,5.58 -0.63,3.23 -0.96,6.41 -0.32,9.72 0.33,1.72 -0.11,3.58 -0.14,5.38 -0.01,0.78 0.15,1.56 0.19,2.35 0.04,0.92 0.13,1.85 0.02,2.75 -0.56,4.55 -0.89,9.15 -2.25,13.57 -0.17,0.57 -0.23,1.18 -0.25,1.78 -0.01,0.2 0.23,0.41 0.54,0.92 -0.65,3.74 -1.37,7.86 -2.09,11.99 -0.34,0.03 -0.66,0.03 -0.98,0.03 z M 157.27,91.64 c -0.11,-0.04 -0.22,-0.07 -0.34,-0.11 -0.26,-1.22 -0.02,-2.37 0.67,-3.47 1.44,-2.3 2.85,-4.62 4.35,-6.88 0.28,-0.42 0.92,-0.86 1.38,-0.84 1.39,0.05 2.32,-0.58 2.93,-1.7 0.28,-0.51 0.6,-1.45 0.37,-1.68 -0.47,-0.48 -1.32,-0.9 -1.97,-0.85 -0.92,0.08 -1.54,-0.18 -2.12,-0.79 -1.59,-1.66 -3.08,-3.37 -5.18,-4.52 -1.75,-0.97 -3.11,-2.67 -4.89,-3.53 -1.1,-0.53 -1.95,-1.26 -2.92,-1.89 -0.8,-0.52 -1.35,-1.72 -2.62,-0.96 -0.06,0.03 -0.21,-0.07 -0.31,-0.12 -1.26,-0.59 -2.57,-1.09 -3.77,-1.79 -4.23,-2.49 -8.74,-3.58 -13.65,-3.05 -1.03,0.11 -1.52,0.43 -1.65,1.44 -0.22,1.74 -0.6,3.47 -0.73,5.22 -0.09,1.21 -0.22,2.61 0.28,3.63 2.54,5.15 5.64,9.94 10.09,13.71 0.24,0.2 0.5,0.49 0.78,0.52 1.11,0.14 1.61,0.9 2.08,1.78 1.44,2.68 3.42,4.88 5.87,6.71 1.78,1.33 3.38,2.92 5.03,4.41 0.29,0.26 0.61,0.65 0.63,0.99 0.11,1.56 1.28,2.32 2.27,3.23 1.12,1.03 2.22,2.08 3.37,3.07 3.34,2.9 2.3,2.91 6.55,1.45 0.04,-0.01 0.08,-0.03 0.11,-0.04 2.54,-0.76 4.28,0.26 5.04,2.79 0.21,0.69 0.75,1.41 1.34,1.82 1.44,1 3.1,1.7 4.49,2.75 2.27,1.7 4.63,1.98 7.3,1.2 1.95,-0.57 2.14,-0.62 2.32,-2.76 -1.2,0 -1.95,-0.57 -2.13,-1.8 -0.18,-1.27 -0.39,-2.53 -0.55,-3.79 -0.5,-3.96 -2.17,-7.49 -3.97,-10.97 -0.97,-1.87 -2.16,-3.62 -3.21,-5.46 -1.1,-1.93 -2.38,-3.69 -4.2,-5.02 -0.74,-0.54 -1.37,-0.65 -2.16,-0.1 -1.15,0.8 -2.35,1.51 -3.54,2.25 -0.3,0.19 -0.63,0.43 -0.96,0.44 -2.67,0.14 -4.65,1.29 -5.77,3.78 -0.11,0.34 -0.39,0.62 -0.61,0.93 z M 101.66,79.7 c 0.38,-0.1 0.77,-0.16 1.14,-0.3 0.36,-0.14 0.78,-0.28 1,-0.55 2.4,-3.04 5.32,-5.51 8.38,-7.85 1.43,-1.09 1.67,-2.25 1.07,-3.92 -1.03,-2.85 -2.05,-5.71 -2.99,-8.59 -0.31,-0.95 -0.83,-1.45 -1.79,-1.4 -1.79,0.09 -3.65,-0.04 -5.35,0.42 -7.37,1.99 -14.42,4.69 -21.05,8.66 -4.45,2.67 -8.61,5.63 -12.61,8.88 -0.43,0.35 -0.88,0.88 -0.96,1.39 -0.13,0.76 -0.49,0.91 -1.14,1.1 -0.84,0.25 -1.88,0.55 -2.35,1.18 -1.21,1.62 -2.18,3.42 -3.21,5.17 -0.66,1.11 -0.4,1.54 0.92,1.71 0.95,0.12 1.91,0.23 2.84,0.41 4.59,0.9 9.17,1.92 13.88,1.77 4.38,-0.14 8.75,-0.51 12.8,-0.76 0.63,-0.58 1.09,-1.32 1.54,-1.32 0.7,0.01 1.51,0.39 2.05,0.86 0.61,0.53 1.12,1.29 1.43,2.05 0.6,1.5 1.78,1.88 3.47,2.05 0.31,-3.64 0.62,-7.28 0.93,-10.96 z m -27.51,82.68 c 1.73,0.91 2.07,0.74 2.43,-0.94 0.1,-0.47 0.13,-0.95 0.23,-1.42 0.07,-0.3 0.13,-0.68 0.34,-0.85 0.84,-0.68 0.69,-1.43 0.31,-2.26 -1.05,-2.29 -2.12,-4.56 -3.1,-6.87 -0.72,-1.67 -1.8,-2.99 -3.28,-4.03 -2.97,-2.09 -6.04,-4.06 -8.84,-6.36 -3.55,-2.93 -7.73,-4.78 -11.58,-7.19 -0.71,-0.44 -1.64,-0.64 -2.49,-0.72 -1.09,-0.1 -1.94,1.23 -1.3,1.99 1.86,2.19 2.23,4.98 3.28,7.5 2.54,6.11 5.26,12.15 8.12,18.12 2.14,4.45 5.24,8.3 8.34,12.12 1.54,1.91 2.63,3.99 2.55,6.55 -0.01,0.41 0.37,0.84 0.74,1.6 0.39,-0.83 0.72,-1.26 0.79,-1.74 0.38,-2.5 1.34,-4.74 2.74,-6.84 0.8,-1.21 1,-2.5 0.77,-3.99 -0.23,-1.46 -0.05,-2.99 -0.05,-4.67 z m 57.69,-48.53 c -1.77,1.52 -3.56,3.05 -5.34,4.59 -0.62,0.53 -1.58,1.04 -1.1,2.01 0.47,0.97 1.5,0.45 2.26,0.35 1.46,-0.18 2.88,-0.47 4.37,0.04 0.6,0.2 1.43,-0.01 2.08,-0.25 3.24,-1.18 5.96,-2.99 7.42,-6.31 0.33,-0.76 0.88,-1.43 1.34,-2.12 0.71,-1.06 1.46,-2.1 2.17,-3.16 0.83,-1.23 0.72,-1.5 -0.69,-1.8 -0.35,-0.07 -0.71,-0.13 -1.05,-0.22 -1.31,-0.33 -2.45,-0.18 -3.6,0.67 -0.6,0.45 -1.56,0.47 -2.37,0.57 -0.57,0.07 -1.17,-0.04 -1.87,-0.07 0.28,0.76 0.51,1.38 0.86,2.31 -0.84,0 -1.5,-0.02 -2.16,0.01 -0.54,0.03 -1.13,0 -1.6,0.21 -1.04,0.47 -1.25,1.59 -0.72,3.17 z m 1.93,24.28 c -0.41,-1.4 -1.24,-2.32 -2.54,-2.86 -0.95,-0.39 -2.07,-0.66 -2.78,-1.34 -2.69,-2.56 -5.28,-5.24 -6.73,-8.77 -0.16,-0.39 -0.75,-0.92 -1.08,-0.88 -0.79,0.1 -0.75,0.84 -0.55,1.43 0.78,2.26 1.48,4.56 2.44,6.75 1.15,2.62 3.06,4.46 6.08,4.83 0.35,0.04 0.76,0.12 1.01,0.34 1.26,1.1 2.64,0.85 4.15,0.5 z m -28.47,-8.38 c -0.01,-0.15 -0.03,-0.31 -0.04,-0.46 -1.82,-0.87 -3.62,-1.77 -5.46,-2.59 -0.45,-0.2 -1.04,-0.3 -1.52,-0.2 -3,0.62 -6,1.28 -8.98,2 -0.31,0.07 -0.5,0.64 -0.74,0.98 0.38,0.19 0.74,0.44 1.14,0.55 0.24,0.06 0.53,-0.12 0.81,-0.16 1.7,-0.27 3.4,-0.32 4.68,1.08 1.06,1.16 2.27,1.3 3.69,0.91 1.42,-0.39 2.88,-0.62 4.28,-1.03 0.76,-0.25 1.43,-0.72 2.14,-1.08 z m -20.29,27.69 c -0.13,-0.41 -0.2,-0.95 -0.45,-1.38 -1.31,-2.23 -2.67,-4.43 -3.99,-6.66 -0.54,-0.9 -1.29,-0.93 -1.82,-0.2 -0.41,0.57 -0.77,1.56 -0.55,2.13 1.08,2.82 2.32,5.58 3.61,8.32 0.15,0.32 1,0.63 1.32,0.49 1.08,-0.47 1.67,-1.41 1.88,-2.7 z m 72.98,-27.42 c -0.13,-0.08 -0.25,-0.16 -0.38,-0.23 -0.22,0.08 -0.47,0.12 -0.64,0.25 -1.54,1.2 -3.1,2.38 -4.58,3.67 -0.32,0.28 -0.39,0.92 -0.44,1.41 -0.08,0.78 0.03,1.58 -0.06,2.35 -0.23,1.94 -0.54,3.88 -0.78,5.82 -0.04,0.36 0.11,0.75 0.17,1.12 0.09,-0.01 0.17,-0.02 0.26,-0.03 2.15,-4.78 4.3,-9.57 6.45,-14.36 z m -33.67,19.14 c -0.87,-2.16 -2.53,-2.74 -4.5,-3.22 -1.94,-0.48 -3.58,-0.16 -5.27,1.03 0.06,0.54 0.06,1.39 0.28,2.19 0.33,1.2 1.24,1.81 2.47,1.96 1.23,0.15 1.53,-0.76 1.86,-1.64 0.05,-0.14 0.15,-0.27 0.18,-0.32 1.65,0 3.23,0 4.98,0 z m -22.83,35.11 c 0.08,-0.1 0.16,-0.21 0.24,-0.31 -0.74,-0.91 -1.45,-1.85 -2.22,-2.73 -0.81,-0.92 -1.83,-1.25 -3.03,-0.81 -2.02,0.74 -4.05,1.47 -6.05,2.25 -0.36,0.14 -0.62,0.53 -0.92,0.81 0.4,0.26 0.8,0.74 1.21,0.75 3.58,0.07 7.18,0.04 10.77,0.04 z m 32.55,-41.68 c -0.58,0 -0.98,0.01 -1.39,0 -0.28,-0.01 -0.61,0.02 -0.81,-0.12 -0.64,-0.42 -1.18,-0.27 -1.56,0.28 -0.95,1.37 -1.89,2.75 -2.73,4.19 -0.31,0.53 -0.3,1.24 -0.45,1.95 1.78,-0.39 6.09,-4.29 6.94,-6.3 z m -0.17,-57.84 c -0.31,-1.93 -3.61,-6.76 -4.8,-6.99 0.62,2.42 1.23,4.78 1.85,7.2 1.03,-0.08 1.94,-0.14 2.95,-0.21 z m 15.15,61.79 c 0.12,-0.1 0.23,-0.2 0.35,-0.29 0.06,-3 1.25,-6.1 -0.92,-9.07 -0.18,0.41 -0.38,0.66 -0.38,0.91 -0.01,2.51 -0.02,5.02 0.07,7.52 0.02,0.31 0.58,0.61 0.88,0.93 z M 123.57,86.97 c 0,-1.44 0,-2.8 0,-4.27 -0.81,0.31 -1.53,0.55 -2.21,0.84 -0.63,0.27 -1.49,0.38 -1.35,1.38 0.14,1.01 0.7,1.68 1.74,1.85 0.59,0.11 1.19,0.13 1.82,0.2 z M 72.04,187.01 c 0.08,0.1 0.17,0.2 0.25,0.29 0.73,-0.27 1.49,-0.47 2.16,-0.84 0.29,-0.16 0.63,-0.78 0.52,-0.98 -0.32,-0.63 -0.84,-1.16 -1.32,-1.69 -0.02,-0.02 -0.49,0.24 -0.58,0.44 -0.37,0.91 -0.69,1.85 -1.03,2.78 z m 53.03,-92.59 c -0.92,1.26 -2.51,2.04 -2.7,3.88 2.3,0 3.3,-1.39 2.7,-3.88 z m -8.45,-32.86 c 0.51,1.79 0.92,3.21 1.35,4.71 0.85,-0.56 1.43,-1.15 1.13,-2.13 -0.33,-1.11 -0.94,-2.03 -2.48,-2.58 z m 5.39,38.27 c -3.31,1.57 -3.52,1.81 -2.74,3.13 1.52,-0.43 2.36,-1.44 2.74,-3.13 z m -32,25.79 c 0.09,0.07 0.18,0.13 0.27,0.2 1.08,-0.36 2.17,-0.69 3.22,-1.11 0.21,-0.09 0.4,-0.58 0.35,-0.84 -0.03,-0.17 -0.56,-0.42 -0.77,-0.35 -0.82,0.27 -1.64,0.58 -2.38,1.02 -0.34,0.19 -0.47,0.71 -0.69,1.08 z"
   id="path4"
   inkscape:connector-curvature="0"
   style="fill:#ffffff" />
    </g>
</g>
</svg>