<?xml version="1.0" encoding="UTF-8" standalone="no"?>
<!-- Generator: Adobe Illustrator 23.0.4, SVG Export Plug-In  -->

<svg
   xmlns:dc="http://purl.org/dc/elements/1.1/"
   xmlns:cc="http://creativecommons.org/ns#"
   xmlns:rdf="http://www.w3.org/1999/02/22-rdf-syntax-ns#"
   xmlns:svg="http://www.w3.org/2000/svg"
   xmlns="http://www.w3.org/2000/svg"
   xmlns:sodipodi="http://sodipodi.sourceforge.net/DTD/sodipodi-0.dtd"
   xmlns:inkscape="http://www.inkscape.org/namespaces/inkscape"
   version="1.1"
   x="0px"
   y="0px"
   width="215.94299"
   height="215.94299"
   viewBox="0 0 215.94299 215.94299"
   xml:space="preserve"
   id="svg15"
   sodipodi:docname="agile.svg"
   inkscape:version="0.92.3 (2405546, 2018-03-11)"><metadata
   id="metadata19"><rdf:RDF><cc:Work
       rdf:about=""><dc:format>image/svg+xml</dc:format><dc:type
         rdf:resource="http://purl.org/dc/dcmitype/StillImage" /><dc:title /></cc:Work></rdf:RDF></metadata><sodipodi:namedview
   pagecolor="#ffffff"
   bordercolor="#666666"
   borderopacity="1"
   objecttolerance="10"
   gridtolerance="10"
   guidetolerance="10"
   inkscape:pageopacity="0"
   inkscape:pageshadow="2"
   inkscape:window-width="1920"
   inkscape:window-height="1017"
   id="namedview17"
   showgrid="false"
   inkscape:zoom="1.0929974"
   inkscape:cx="-183.69644"
   inkscape:cy="107.96"
   inkscape:window-x="-8"
   inkscape:window-y="-8"
   inkscape:window-maximized="1"
   inkscape:current-layer="svg15" />
<style
   type="text/css"
   id="style2">
    .st0{fill:#FFFFFF;}
</style>
<defs
   id="defs4">
</defs>
<g
   id="QvmFbJ_2_"
   transform="translate(10.326497,0.03225842)"
   style="fill:#000000;fill-opacity:1">
    <g
   id="g12"
   style="fill:#000000;fill-opacity:1">
        <path
   class="st0"
   d="m 195.28,2.23 c -1.01,0.89 -1.93,1.91 -3.05,2.65 -1.58,1.05 -2.95,2.17 -4.05,3.79 -2.86,4.23 -5.97,8.28 -8.89,12.47 -1.11,1.59 -2,3.35 -2.99,5.03 -0.16,0.27 -0.33,0.55 -0.52,0.8 -3.96,5.41 -7.93,10.82 -11.9,16.22 -0.21,0.29 -0.43,0.72 -0.71,0.78 -1.53,0.31 -1.82,1.56 -2.39,2.72 -0.65,1.31 -1.39,2.7 -2.45,3.65 -1.88,1.69 -2.89,3.88 -4.13,5.97 -1.4,2.36 -2.88,4.68 -4.39,6.98 -0.64,0.97 -2.11,1.14 -2.82,0.24 -0.72,-0.92 -1.28,-2.02 -1.66,-3.12 -0.19,-0.55 -0.01,-1.43 0.34,-1.91 0.99,-1.31 1.42,-2.77 1.49,-4.35 0.14,-3.67 0.3,-7.35 0.31,-11.03 0,-1.34 -0.31,-2.7 -0.65,-4 -0.33,-1.25 -1.09,-1.6 -2.17,-0.95 -2.04,1.24 -4,2.6 -5.95,3.97 -2.8,1.98 -5.52,4.08 -8.35,6.03 -3.75,2.59 -7.58,5.05 -10.03,9.09 -0.88,1.45 -2.59,1.43 -3.53,-0.01 -2.1,-3.2 -4.55,-6.2 -5.65,-9.96 -0.17,-0.59 -0.35,-1.39 -0.1,-1.85 0.41,-0.75 2.3,-1.01 3.04,-0.77 0.4,0.14 0.92,0.16 1.32,0.03 1.58,-0.5 3.09,-1.28 4.7,-1.59 2.95,-0.57 5.65,-1.54 8.11,-3.34 3.22,-2.36 6.59,-4.51 9.85,-6.81 1.31,-0.92 1.47,-1.74 0.72,-3.2 -0.88,-1.7 -1.82,-3.38 -2.79,-5.03 -0.25,-0.42 -0.67,-0.78 -1.08,-1.07 -0.75,-0.52 -1.61,-0.9 -2.34,-1.46 -1.02,-0.78 -1.99,-0.91 -3.23,-0.48 -2.64,0.91 -7.05,-1.59 -7.71,-4.24 -0.04,-0.15 -0.03,-0.31 -0.06,-0.6 0.67,-0.09 1.33,-0.27 1.99,-0.26 2.31,0.03 4.63,0.12 6.94,0.19 0.32,0.01 0.65,0.04 0.96,-0.01 2.85,-0.46 5.69,-0.93 8.54,-1.41 4.24,-0.71 8.48,-1.44 12.72,-2.12 2.33,-0.38 4.66,-0.68 6.99,-1.02 0.2,-0.03 0.4,-0.07 0.58,-0.14 4.55,-1.55 9.08,-3.14 13.64,-4.65 3.86,-1.28 7.77,-2.41 11.62,-3.73 2.28,-0.78 4.64,-1.45 6.52,-3.15 1.15,-1.05 1.98,-0.75 3.19,0.9 0.02,0.27 0.02,0.51 0.02,0.75 z"
   id="path6"
   inkscape:connector-curvature="0"
   style="fill:#000000;fill-opacity:1" />
        <path
   class="st0"
   d="M 37.81,63.07 C 36.5,61.15 36.6,61.32 34.89,62.52 27.17,67.93 23.84,76.2 20.42,84.42 c -0.09,0.22 -0.18,0.46 -0.19,0.69 -0.19,5.91 -0.83,11.87 0.92,17.64 0.98,3.23 2.44,6.33 3.77,9.45 0.22,0.52 0.81,0.99 1.35,1.25 1.14,0.56 1.5,1.23 1.25,2.45 -0.59,2.81 -1.12,5.62 -1.68,8.43 -0.09,0.43 -0.11,0.91 -0.33,1.27 -1.01,1.63 -0.99,3.41 -0.91,5.22 0.04,0.87 0.04,1.78 -0.19,2.6 -0.35,1.26 -1.24,1.64 -2.42,1.1 -3.81,-1.76 -7.6,-3.54 -10.81,-6.33 -1.82,-1.58 -3.25,-3.39 -4.07,-5.67 -0.65,-1.8 -1.34,-3.59 -2.1,-5.35 -1.73,-4.05 -2.53,-8.35 -3.58,-12.59 -0.32,-1.29 -0.88,-2.52 -1.3,-3.78 -0.1,-0.29 -0.12,-0.62 -0.12,-0.93 0.04,-1.82 0.1,-3.64 0.15,-5.46 0,-0.12 -0.04,-0.24 -0.02,-0.36 0.42,-2.58 0.64,-5.22 1.33,-7.73 0.85,-3.15 1.96,-6.24 3.18,-9.27 1.59,-3.95 3.3,-7.87 5.16,-11.7 1.21,-2.51 2.85,-4.8 4.16,-7.27 2.12,-4.01 5.6,-6.66 9.16,-9.14 3.17,-2.21 6.6,-4.04 9.92,-6.02 1.1,-0.65 2.2,-1.29 3.33,-1.89 0.49,-0.26 1.02,-0.47 1.55,-0.61 2.35,-0.6 4.71,-1.17 7.07,-1.75 0.04,-0.01 0.08,-0.02 0.11,-0.04 3.83,-2.74 8.56,-2.27 12.81,-3.52 1.07,-0.32 2.28,-0.13 3.42,-0.29 1.13,-0.16 2.3,-0.31 3.35,-0.73 1.03,-0.42 1.95,-0.63 2.98,-0.14 0.25,0.12 0.54,0.24 0.8,0.22 2.18,-0.17 3.87,0.66 5.22,2.35 0.26,0.32 0.71,0.51 1.1,0.7 2.57,1.28 5.16,2.52 7.73,3.82 0.78,0.39 1.42,0.33 2.26,0.05 0.97,-0.33 2.08,-0.31 3.13,-0.31 0.49,0 1.01,0.26 1.45,0.53 4.14,2.46 7.69,5.5 10.83,9.25 2.37,2.82 3.55,6.06 5.08,9.2 2.04,4.2 4.11,8.39 5.82,12.73 0.8,2.03 0.96,4.36 1.11,6.58 0.27,3.87 0.49,7.75 0.41,11.62 -0.07,3.7 -0.34,7.42 -1.99,10.86 -0.1,0.21 -0.22,0.44 -0.24,0.67 -0.45,5.2 -2.89,9.58 -5.81,13.72 -2.09,2.96 -4.12,5.99 -6.89,8.43 -1.06,0.93 -1.74,2.29 -2.71,3.35 -2.79,3.05 -5.4,6.32 -9.46,7.89 -0.72,0.28 -1.23,1.09 -1.88,1.59 -0.84,0.64 -1.66,1.37 -2.61,1.79 -2.08,0.91 -4.25,1.58 -6.34,2.45 -1.77,0.73 -2.96,0.52 -3.92,-1.16 -0.45,-0.79 -0.73,-1.81 -0.71,-2.72 0.05,-2.91 -0.48,-5.7 -1.09,-8.53 -0.47,-2.16 -0.51,-4.43 -0.61,-6.66 -0.02,-0.45 0.51,-1.06 0.95,-1.34 0.26,-0.16 0.89,0.09 1.26,0.31 0.36,0.21 0.6,0.63 0.9,0.94 0.92,0.96 1.68,0.85 2.17,-0.39 0.45,-1.14 0.84,-2.22 2.2,-2.63 0.43,-0.13 0.71,-0.73 1.08,-1.1 3.51,-3.44 7.04,-6.86 10.55,-10.31 2.22,-2.18 3.19,-5.01 4.3,-7.84 1.34,-3.42 1.04,-7.1 2.13,-10.52 0.07,-0.23 0.15,-0.47 0.13,-0.7 -0.28,-3.68 -0.44,-7.37 -0.92,-11.02 -0.19,-1.48 -0.93,-2.96 -1.71,-4.26 -1.56,-2.6 -3.32,-5.07 -5.01,-7.59 -0.15,-0.23 -0.33,-0.46 -0.53,-0.65 -1.13,-1.05 -2.26,-2.1 -3.41,-3.13 -4.69,-4.24 -10.09,-6.94 -16.45,-7.57 -1.19,-0.12 -2.38,-0.29 -3.57,-0.4 -1.3,-0.12 -2.49,-0.13 -3.79,0.52 -1.26,0.63 -2.87,0.53 -4.31,0.84 -2.97,0.63 -5.94,1.26 -8.87,2.01 -2.23,0.57 -3.97,2 -5.55,3.63 -0.66,0.64 -1.36,1.23 -2.09,1.9 z m 0.44,-18.21 c 0.49,-0.52 0.98,-1.04 1.47,-1.57 -0.28,-0.16 -0.63,-0.51 -0.84,-0.45 -0.8,0.25 -1.18,0.85 -0.63,2.02 z m -0.3,14.27 c 0.09,0.08 0.19,0.15 0.28,0.23 0.56,-0.46 1.15,-0.9 1.67,-1.4 0.13,-0.13 0.07,-0.45 0.09,-0.69 -0.24,0.02 -0.59,-0.06 -0.7,0.07 -0.48,0.56 -0.9,1.19 -1.34,1.79 z"
   id="path8"
   inkscape:connector-curvature="0"
   style="fill:#000000;fill-opacity:1" />
        <path
   class="st0"
   d="m 86.73,195.98 c 0.07,-0.88 0.17,-1.75 0.19,-2.63 0.03,-1.12 -0.61,-1.8 -1.63,-1.81 -0.94,-0.01 -1.46,0.63 -1.42,1.8 0.02,0.48 0.25,0.97 0.18,1.42 -0.11,0.68 -0.28,1.4 -0.65,1.96 -0.49,0.72 -1.13,0.81 -1.9,0.12 -1.75,-1.57 -3.6,-3.05 -5.4,-4.57 -1.85,-1.55 -3.94,-2.18 -6.36,-1.8 -1.53,0.24 -2.83,-0.8 -3.35,-2.46 -2.3,-7.26 -4.59,-14.52 -6.92,-21.77 -0.15,-0.46 -0.48,-0.95 -0.87,-1.22 -1.7,-1.18 -3.46,-2.28 -5.2,-3.41 -0.36,-0.24 -0.84,-0.39 -1.07,-0.72 -2.53,-3.53 -5.2,-6.98 -7.46,-10.69 -1.25,-2.05 -2.5,-4.17 -3.54,-6.33 -1.65,-3.42 -3.16,-6.96 -3.46,-10.87 -0.23,-2.94 -0.84,-5.87 -0.9,-8.81 -0.08,-3.77 0.11,-7.55 0.41,-11.32 0.16,-2.01 0.8,-3.99 1.23,-5.98 0.59,-2.75 1.51,-5.37 2.97,-7.8 1.48,-2.47 2.8,-5.02 4.31,-7.48 0.55,-0.9 1.37,-1.66 2.15,-2.39 1.2,-1.12 2.59,-2.05 3.68,-3.25 3.51,-3.88 8.25,-6.14 12.2,-9.44 1.83,-1.53 3.95,-2.73 5.82,-4.22 0.69,-0.55 1.24,-1.45 1.54,-2.3 0.64,-1.84 2.69,-2.8 4.41,-1.87 1.12,0.61 2.25,1.22 3.31,1.93 1.65,1.11 2.93,2.54 3.66,4.47 0.59,1.57 1.41,3.04 2.09,4.57 0.68,1.51 0.35,2.75 -1.04,3.63 -2.19,1.38 -4.42,2.7 -6.63,4.05 -0.3,0.19 -0.58,0.43 -0.85,0.66 -2.33,2.07 -4.67,4.14 -6.97,6.24 -0.55,0.5 -0.91,1.2 -1.43,1.74 -0.49,0.5 -1.01,1.11 -1.62,1.3 -0.89,0.27 -1.4,0.75 -1.88,1.49 -1.35,2.08 -2.75,4.13 -4.22,6.11 -2.3,3.1 -3.74,6.5 -3.87,10.39 -0.14,4.15 -0.36,8.3 -0.33,12.45 0.01,1.38 0.64,2.78 1.08,4.14 0.58,1.78 1.25,3.53 1.87,5.29 0.47,1.31 0.89,2.65 1.41,3.94 0.63,1.59 1.24,3.21 2.05,4.71 0.73,1.35 1.56,2.7 2.6,3.82 1.76,1.9 3.72,3.63 5.6,5.43 1.05,1 1.59,1.07 2.73,0.25 1.32,-0.94 2.5,-2.01 4.24,-2.35 0.95,-0.19 1.69,-1.29 2.63,-1.81 2.27,-1.25 4.59,-2.43 6.9,-3.59 1.16,-0.58 2.18,-0.42 2.98,0.69 1.26,1.76 2.82,2.9 5.01,3.13 0.23,0.02 0.46,0.15 0.66,0.27 2.5,1.49 5.22,2.38 8.04,3.01 0.31,0.07 0.62,0.16 0.93,0.25 1.3,0.37 1.92,1.08 1.88,2.13 -0.05,1.08 -1,2.34 -2.07,2.51 -1.49,0.24 -2.41,1.21 -3.21,2.32 -0.83,1.14 -0.26,2.29 1.17,2.47 1.33,0.17 2.3,-0.45 3.13,-1.41 0.65,-0.75 1.28,-1.54 2,-2.23 0.97,-0.93 2.11,-1.17 3.43,-0.77 3.99,1.23 7.87,2.69 11.51,4.8 2.16,1.25 4.57,2.08 6.83,3.18 1.57,0.77 3.06,1.68 4.59,2.52 0.17,0.1 0.34,0.29 0.51,0.3 1.78,0.09 2.65,1.49 3.69,2.6 0.28,0.3 0.5,0.98 0.35,1.3 -0.24,0.5 -0.8,1.17 -1.25,1.19 -1.28,0.06 -2.27,0.46 -3.23,1.31 -0.4,0.35 -1.31,0.38 -1.88,0.21 -1.92,-0.55 -3.71,-0.22 -5.64,0.12 -3.48,0.62 -6.1,2.9 -9.24,4.12 -0.8,0.31 -1.02,0.99 -0.76,1.78 0.45,1.39 0.21,2.6 -0.82,3.64 -0.11,0.11 -0.23,0.24 -0.27,0.39 -1.03,3.13 -3.66,4.83 -6.03,6.76 -1.71,1.39 -2.02,3.03 -0.9,4.95 0.69,1.17 1.49,2.29 2.08,3.5 0.75,1.53 1.28,3.16 2.01,4.7 0.55,1.17 1.22,2.28 1.93,3.36 0.5,0.76 1.17,1.41 1.73,2.14 0.48,0.63 1.1,1.29 0.44,2.13 -0.7,0.89 -1.49,1.86 -2.78,1.44 -2.22,-0.73 -4.58,-1.18 -6.35,-2.91 -0.57,-0.56 -1.21,-1.05 -1.79,-1.59 -1.75,-1.61 -3.73,-2.81 -5.84,-3.91 -3.55,-1.86 -7.37,-3.36 -10.12,-6.5 -0.21,-0.24 -0.48,-0.42 -0.75,-0.59 -2.4,-1.54 -2.41,-1.56 -2.26,-4.33 z m 37.84,-26.66 c -0.16,0.11 -0.32,0.21 -0.48,0.32 0.11,0.43 0.13,0.94 0.37,1.28 0.33,0.47 0.8,0.89 1.29,1.2 0.33,0.21 0.8,0.21 1.21,0.3 -0.05,-0.5 0.09,-1.17 -0.18,-1.45 -0.63,-0.66 -1.46,-1.12 -2.21,-1.65 z"
   id="path10"
   inkscape:connector-curvature="0"
   style="fill:#000000;fill-opacity:1" />
    </g>
</g>
</svg>