<?xml version="1.0" encoding="UTF-8" standalone="no"?>
<!-- Generator: Adobe Illustrator 24.0.0, SVG Export Plug-In  -->

<svg
   xmlns:dc="http://purl.org/dc/elements/1.1/"
   xmlns:cc="http://creativecommons.org/ns#"
   xmlns:rdf="http://www.w3.org/1999/02/22-rdf-syntax-ns#"
   xmlns:svg="http://www.w3.org/2000/svg"
   xmlns="http://www.w3.org/2000/svg"
   xmlns:sodipodi="http://sodipodi.sourceforge.net/DTD/sodipodi-0.dtd"
   xmlns:inkscape="http://www.inkscape.org/namespaces/inkscape"
   version="1.1"
   x="0px"
   y="0px"
   width="526.5"
   height="526.5"
   viewBox="0 0 526.50001 526.5"
   xml:space="preserve"
   id="svg18"
   sodipodi:docname="ally_alternative.svg"
   inkscape:version="0.92.3 (2405546, 2018-03-11)"><metadata
   id="metadata22"><rdf:RDF><cc:Work
       rdf:about=""><dc:format>image/svg+xml</dc:format><dc:type
         rdf:resource="http://purl.org/dc/dcmitype/StillImage" /><dc:title /></cc:Work></rdf:RDF></metadata><sodipodi:namedview
   pagecolor="#ffffff"
   bordercolor="#666666"
   borderopacity="1"
   objecttolerance="10"
   gridtolerance="10"
   guidetolerance="10"
   inkscape:pageopacity="0"
   inkscape:pageshadow="2"
   inkscape:window-width="1920"
   inkscape:window-height="1017"
   id="namedview20"
   showgrid="false"
   inkscape:zoom="0.44824311"
   inkscape:cx="-540.56165"
   inkscape:cy="263.25"
   inkscape:window-x="-8"
   inkscape:window-y="-8"
   inkscape:window-maximized="1"
   inkscape:current-layer="svg18" />
<style
   type="text/css"
   id="style2">
    .st0{fill:#FFFFFF;}
</style>
<defs
   id="defs4">
</defs>
<g
   id="g16"
   transform="translate(118.02722,-0.04819379)"
   style="fill:#000000;fill-opacity:1">
    <path
   class="st0"
   d="m 154.4,75.9 c -6.6,9.3 -11.7,18.1 -18.4,25.5 -9,10 -21.3,12.4 -34.4,12 -3.5,-0.1 -7.1,1.8 -10.4,3.2 -1,0.4 -1.6,2.4 -2,3.8 -1.6,5.8 -2.9,11.7 -4.5,17.5 -1.4,5.1 -0.7,6.6 4.5,8.1 0.9,0.3 1.9,0.7 2.7,1.3 12.2,9.1 23,19.6 33.4,30.8 5.3,5.8 7.8,11.1 7.1,18.8 -0.3,3.5 1.5,7.1 2.3,10.7 3.6,-1.3 7.3,-2.5 10.9,-4 0.8,-0.3 1.4,-1.8 1.6,-2.8 2.5,-10.1 3.7,-19.8 -5.1,-27.9 -2.6,-2.4 -4.1,-6 -6.5,-8.7 -2.6,-2.9 -5.4,-5.8 -8.6,-8.1 -6.9,-4.8 -13.9,-9.4 -18.4,-16.9 -1.1,-1.9 -3.4,-3 -5.7,-5 1.6,-2.5 3,-5.3 5,-7.5 2.2,-2.5 5,-3.1 8.6,-2.1 4,1.1 8.4,1.1 12.5,1.7 2.1,0.3 4.5,0.5 6.1,1.6 7.7,5.7 16.2,9.6 25.4,12.3 3.7,1.1 6.8,3.9 10.2,5.9 7.1,4.1 13.9,8.7 21.4,12.1 10.5,4.8 18.6,12.5 27.3,19.5 2,1.6 4.2,3.7 6.5,4.2 2.4,0.5 5.9,0.3 7.5,-1.1 7.7,-6.8 15.1,-13.9 22.1,-21.3 2,-2.1 3.2,-5.9 3,-8.7 -0.2,-2.5 -2.9,-4.8 -4.4,-7.2 -2.1,1.6 -4.3,3 -6.2,4.9 -5.8,5.6 -11.3,11.5 -17.2,17.1 -2.1,1.9 -4.6,2.1 -7,-0.4 -2.9,-3 -6,-5.7 -9.3,-8.3 -3.3,-2.6 -4.1,-4.5 -0.8,-8.3 13.1,-15.5 25.7,-31.4 38.5,-47.2 5.9,-7.2 12.7,-11 22.1,-6.9 1.2,0.5 2.6,0.7 3.9,0.6 4.8,-0.4 7.4,2.4 7.7,6.6 0.3,4.6 3.2,4.1 3.3,7.9 0.1,3.8 3.8,15.4 -0.3,27.4 -3.8,7.8 -7.4,14.9 -10.7,22.2 -2,4.3 -3.2,9 -5.4,13.1 -3,5.5 -6.7,10.6 -10.1,15.9 -1.9,2.9 -3.6,5.9 -5.4,8.9 -4.3,7.2 -8.6,14.4 -13,21.5 -5.3,8.7 -11,17.1 -15.8,26 -2.3,4.3 -3.7,9.5 -4.3,14.4 -1.8,15.4 2.7,30.1 5.9,44.9 2.2,10.6 5.7,20.5 10.5,30.2 2.2,4.4 1.2,8 -2.6,11.4 -9.1,8.2 -18.2,16.4 -26.9,25 -11.6,11.5 -22.9,23.4 -34.1,35.3 -8.5,9 -16.7,18.2 -24.9,27.5 -1.6,1.8 -2.6,4.1 -4.3,6.8 -0.8,-0.3 -2.4,-0.4 -3.2,-1.3 -3.8,-4.1 -7.6,-8.3 -11,-12.8 -11.8,-15.4 -23.1,-31.2 -35.4,-46.3 -3.9,-4.8 -9.9,-8 -15.2,-11.7 -7.7,-5.5 -15.6,-10.8 -23.4,-16.1 -2.6,-1.8 -5.2,-3.4 -8,-4.9 -3,-1.6 -3.6,-3.8 -1.8,-6.4 5.6,-7.9 7.9,-16.5 8.6,-26.3 0.7,-9.9 3.9,-19.6 6,-29.4 0.3,-1.6 0.6,-3.3 0.6,-4.9 0.3,-8.9 0.5,-17.9 1,-26.8 0.1,-1.5 1,-3 1.8,-4.3 3.9,-5.8 4.2,-9.4 -0.2,-14.3 -5.2,-5.8 -11,-11.1 -16.6,-16.5 -3.8,-3.7 -6.8,-8.5 -13.2,-8.4 -0.9,0 -2.3,-1.9 -2.8,-3.2 -4.6,-11.6 -11.8,-21.5 -19.5,-31.2 -3,-3.8 -4.9,-8.3 -10.3,-10.1 -2.7,-0.9 -3,-4.5 -1.2,-7.3 0.6,-1 1.5,-1.7 2.2,-2.7 5.4,-7.1 5.3,-7.5 -2.8,-12.2 -4.6,-2.7 -4.7,-6.5 -0.7,-10.3 1.4,-1.3 2.9,-3.3 3,-5 0.6,-8.5 6.8,-13.9 10.8,-20.5 5.8,-9.6 11.5,-19.3 17.3,-28.9 1.5,-2.4 3.4,-4.5 4.8,-6.9 1.4,-2.5 2.1,-5.3 3.5,-7.9 0.8,-1.5 2.1,-3.8 3.4,-3.9 8,-0.8 15.8,-1.7 23.9,1.3 7.8,2.9 16.3,5.3 24.5,5.1 9,-0.2 17.1,2.7 25.6,3.8 9.1,1.2 18.2,3 27.2,4.6 2.2,-0.1 4,0.5 7.8,1.5 z m 3.8,310.4 c 0.5,-5.6 -3.8,-9.8 -11.9,-10.6 -5.1,-0.5 -10.9,5.6 -11.1,11.1 -0.2,5.3 6.4,13.6 10.8,13.7 4.8,0.1 12.2,-8.5 12.2,-14.2 z"
   id="path6"
   inkscape:connector-curvature="0"
   style="fill:#000000;fill-opacity:1" />
    <path
   class="st0"
   d="m 17.3,393 c 7.6,-8.1 14.8,-15.6 21.6,-23.3 1.8,-2 2.7,-4.8 3.9,-7.4 1.5,-3.2 3.3,-3.6 6.2,-1.5 1.9,1.4 4.6,1.6 6.5,2.9 5.4,3.6 11.3,7 15.9,11.5 18.5,17.8 35.7,36.6 49.9,58.1 6.3,9.6 12.3,19.4 18.4,29.1 2,3.2 3.6,3.6 7,1.1 14.4,-10.9 23.3,-26.3 34.5,-40 6.3,-7.7 13,-15 19.6,-22.3 7.7,-8.6 15.5,-17.1 23.2,-25.7 5.5,-6.1 10.8,-12.5 16.4,-18.5 3.5,-3.8 4.7,-3.4 7.1,1.1 4.7,8.8 9.4,17.6 14.3,26.4 1.1,2 2.6,3.9 4.3,5.4 3.4,3 2.3,5 -0.6,7.6 -11.1,10.2 -22.6,20 -32.8,31.2 -9.6,10.6 -17.4,22.9 -26.6,34 -10.2,12.3 -20.8,24.3 -31.9,35.9 -8.9,9.4 -18.7,17.9 -28.1,26.8 -1.9,1.8 -9.5,1.4 -11.3,-1.1 -4.1,-5.7 -7.8,-11.8 -11.7,-17.7 -8.2,-12.1 -16.2,-24.3 -27.2,-34.3 -4.4,-4 -7.4,-9.6 -10.8,-14.7 C 75.6,443.3 62,433.1 49.6,421.8 40,413 29.7,405 19.7,396.5 c -1,-0.8 -1.6,-2.3 -2.4,-3.5 z m 126.4,113.4 c 7.9,0.5 11.6,-7.8 12,-14.7 0.4,-5.9 -5.1,-10.8 -11,-10.7 -7.3,0.1 -15.6,6.6 -15.5,12 0.1,5.7 8.5,14.7 14.5,13.4 z m 63.5,-70.7 c 0.1,-6 -4.4,-10.1 -11.3,-10.3 -5.9,-0.2 -12.5,6.5 -12.6,12.8 -0.1,5.9 6.4,13.2 11.7,13.2 6,0 12.1,-7.9 12.2,-15.7 z m 21,-44.2 c 0,1 -0.1,2 0,3 0.4,4.6 3.9,8.6 8.7,9.7 4.3,1 8.4,0.2 10.4,-3.8 2.6,-5.2 4.1,-10.9 1.7,-16.7 -0.6,-1.4 -1.9,-2.7 -3.2,-3.5 -9.9,-5.3 -17.6,-0.3 -17.6,11.3 z m -163.1,2.7 c 0,-7.5 -4.5,-13.2 -10,-13.7 -5.9,-0.6 -12,4.6 -12.2,11.6 -0.2,5.6 6.5,11.5 12.6,11.5 4.8,-0.1 9.6,-4.7 9.6,-9.4 z m 29.3,52.3 c 6.6,0.1 9.9,-3 9.9,-9.5 0.1,-6.8 -5.4,-12.4 -12.1,-12.5 -5.8,-0.1 -8.5,2.7 -8.6,8.9 -0.1,8.4 3.6,13 10.8,13.1 z"
   id="path8"
   inkscape:connector-curvature="0"
   style="fill:#000000;fill-opacity:1" />
    <path
   class="st0"
   d="m 251.8,81.8 c -2.2,2.8 -4.3,6.2 -7.3,8.8 -7.3,6.6 -12.1,14.8 -17.6,22.8 -6.2,9 -14.5,16.5 -22.3,24.3 -1.1,1.1 -4.6,1.2 -6.3,0.4 -8.1,-3.9 -16.1,-8.2 -24.1,-12.4 -4.1,-2.2 -3.7,-3.2 -0.7,-6.9 8.1,-10.1 15.7,-20.7 23.6,-31 6.5,-8.5 13.2,-16.8 20.1,-25 0.9,-1.1 2.9,-1.7 4.4,-1.7 6.8,0.1 13.6,0.7 20.3,0.8 3.5,0.1 5.5,1.4 6.3,4.9 1,4.7 2.2,9.3 3.6,15 z"
   id="path10"
   inkscape:connector-curvature="0"
   style="fill:#000000;fill-opacity:1" />
    <path
   class="st0"
   d="m 176.7,18.2 c 6.4,1 12.7,1.6 18.7,3.3 1.9,0.5 3.3,4 4.1,6.4 1.9,5.4 3.6,10.9 4.6,16.5 0.5,2.6 0.1,6 -1.3,8.2 -6.3,10 -13,19.8 -19.7,29.5 -4.6,6.6 -9.4,13.1 -14.3,19.5 -3.3,4.4 -6.6,8.9 -10.3,12.9 -3,3.3 -10.6,1.1 -12.1,-3.2 -0.3,-0.8 0.6,-2.6 1.4,-3.2 9.2,-6.5 14.4,-16.3 20.2,-25.4 2.2,-3.6 3.6,-7.7 4.9,-11.7 1.3,-4 -1.4,-8 -6.2,-9 -7.1,-1.5 -14.3,-2.5 -21.4,-3.9 -1.8,-0.3 -3.6,-0.8 -5.2,-1.6 -2.4,-1.2 -4,-2.4 -1.6,-5.6 6.1,-8.1 11.7,-16.7 17.6,-24.9 3.3,-4.6 8.7,-5.4 13.8,-6.4 2.5,-0.5 4.8,-1 6.8,-1.4 z"
   id="path12"
   inkscape:connector-curvature="0"
   style="fill:#000000;fill-opacity:1" />
    <path
   class="st0"
   d="m 64.6,43.6 c 0.9,-2 1.2,-3.3 2,-4.3 6,-8 12.2,-16 18.3,-23.9 1.6,-2.1 3.2,-4.3 4.9,-6.2 2.7,-3 5.7,-5 10,-6.5 8.6,-2.9 17.1,-2.1 25.7,-2.6 3.9,-0.2 5.6,1.6 7,4.6 1.9,4.4 4.1,8.6 5.9,13.1 0.6,1.4 0.5,3.6 -0.2,5 -4.6,8.2 -9.5,16.2 -14.1,24.4 -1.6,2.9 -3.6,4.5 -7.1,4 -10.8,-1.5 -21.6,-2.9 -32.3,-4.4 -6.5,-1 -12.9,-2.1 -20.1,-3.2 z"
   id="path14"
   inkscape:connector-curvature="0"
   style="fill:#000000;fill-opacity:1" />
</g>
</svg>