<?xml version="1.0" encoding="UTF-8" standalone="no"?>
<!-- Generator: Adobe Illustrator 23.0.4, SVG Export Plug-In  -->

<svg
   xmlns:dc="http://purl.org/dc/elements/1.1/"
   xmlns:cc="http://creativecommons.org/ns#"
   xmlns:rdf="http://www.w3.org/1999/02/22-rdf-syntax-ns#"
   xmlns:svg="http://www.w3.org/2000/svg"
   xmlns="http://www.w3.org/2000/svg"
   xmlns:sodipodi="http://sodipodi.sourceforge.net/DTD/sodipodi-0.dtd"
   xmlns:inkscape="http://www.inkscape.org/namespaces/inkscape"
   version="1.1"
   x="0px"
   y="0px"
   width="240.59"
   height="240.59"
   viewBox="0 0 240.58999 240.58999"
   xml:space="preserve"
   id="svg25"
   sodipodi:docname="destroyer.svg"
   inkscape:version="0.92.3 (2405546, 2018-03-11)"><metadata
   id="metadata29"><rdf:RDF><cc:Work
       rdf:about=""><dc:format>image/svg+xml</dc:format><dc:type
         rdf:resource="http://purl.org/dc/dcmitype/StillImage" /><dc:title /></cc:Work></rdf:RDF></metadata><sodipodi:namedview
   pagecolor="#ffffff"
   bordercolor="#666666"
   borderopacity="1"
   objecttolerance="10"
   gridtolerance="10"
   guidetolerance="10"
   inkscape:pageopacity="0"
   inkscape:pageshadow="2"
   inkscape:window-width="1920"
   inkscape:window-height="1017"
   id="namedview27"
   showgrid="false"
   inkscape:zoom="1.0235503"
   inkscape:cx="-24.793245"
   inkscape:cy="115.285"
   inkscape:window-x="-8"
   inkscape:window-y="-8"
   inkscape:window-maximized="1"
   inkscape:current-layer="svg25" />
<style
   type="text/css"
   id="style2">
    .st0{fill:#FFFFFF;}
</style>
<defs
   id="defs4">
</defs>
<g
   id="Im8xX9_2_"
   transform="translate(0.00999817,5.0213474)"
   style="fill:#000000;fill-opacity:1">
    <g
   id="g22"
   style="fill:#000000;fill-opacity:1">
        <path
   class="st0"
   d="m 240.58,167.93 c -1.23,1.98 -1.6,2.01 -3.75,0.93 -4.51,-2.25 -8.28,-5.31 -11.44,-9.28 -2.05,-2.58 -4.72,-4.67 -6.89,-7.16 -2.52,-2.89 -4.79,-5.99 -7.19,-8.98 -2.06,-2.55 -4.14,-5.08 -6.25,-7.59 -0.79,-0.93 -1.29,-0.91 -1.94,0.19 -2.07,3.5 -4.08,7.04 -6.11,10.57 -0.38,0.66 -0.67,1.37 -1.11,1.98 -0.81,1.12 -1.81,1.23 -2.89,0.37 -0.37,-0.3 -0.76,-0.62 -1.02,-1.01 -1.92,-2.89 -3.9,-5.75 -5.7,-8.71 -1.41,-2.32 -2.65,-4.74 -3.86,-7.17 -0.75,-1.49 -1.33,-3.07 -1.96,-4.62 -0.36,-0.89 -0.1,-1.65 0.79,-1.97 1.86,-0.69 2.72,-2.14 3.5,-3.84 2.76,-6.04 5.48,-12.09 6.89,-18.6 0.5,-2.32 0.46,-4.76 0.68,-7.25 1.99,0.62 3.04,2.17 3.89,3.99 1.66,3.54 3.28,7.11 5.13,10.55 1.01,1.88 2.47,3.51 3.74,5.25 0.19,0.25 0.43,0.48 0.7,0.65 1.23,0.78 2.22,0.41 2.48,-1.03 0.27,-1.47 0.82,-2.72 1.97,-3.72 0.33,-0.29 0.48,-0.81 0.67,-1.24 0.42,-0.92 1.07,-1.52 2.12,-1.45 1.02,0.07 1.68,0.79 1.77,1.7 0.54,5.63 3.51,10.23 6.33,14.86 3.22,5.29 5.37,11.05 7.88,16.65 3.68,8.19 7.5,16.32 11.27,24.48 0.08,0.18 0.2,0.34 0.3,0.5 0,0.31 0,0.63 0,0.95 z m -26.42,-34.56 c 0.17,-0.03 0.34,-0.07 0.52,-0.1 -0.05,-0.59 -0.09,-1.18 -0.14,-1.77 -0.57,0.11 -1.14,0.22 -1.7,0.33 0.01,0.13 0.02,0.25 0.03,0.38 0.42,0.39 0.85,0.77 1.29,1.16 z"
   id="path6"
   inkscape:connector-curvature="0"
   style="fill:#000000;fill-opacity:1" />
        <path
   class="st0"
   d="m 115.78,230.57 c -2.06,-1.18 -2.37,-1.82 -2.1,-4.16 0.7,-5.95 1.35,-11.91 2.1,-17.86 0.66,-5.23 1.44,-10.44 2.12,-15.67 0.26,-2 0.39,-4.03 0.56,-6.04 0.1,-1.24 -0.72,-1.89 -1.75,-1.8 -3.66,0.35 -7.31,-0.91 -10.97,0.06 -1.29,0.35 -2.5,-0.12 -3.28,-1.23 -0.81,-1.15 -0.53,-2.37 0.11,-3.51 2.09,-3.73 4.23,-7.43 6.31,-11.16 0.95,-1.71 2,-3.39 2.69,-5.2 1.18,-3.09 3.52,-4.51 6.56,-4.8 1.92,-0.18 3.67,-0.68 5.36,-1.54 1.26,-0.64 2.46,-0.73 3.78,-0.09 1.27,0.62 2.61,0.61 3.94,0 0.45,-0.2 1,-0.21 1.51,-0.24 0.56,-0.03 1.15,0.13 1.67,0 2.52,-0.63 4.7,0.39 6.92,1.29 0.48,0.19 0.96,0.4 1.45,0.56 1.79,0.6 2.64,1.84 2.53,3.71 -0.09,1.4 -0.72,1.94 -2.09,1.8 -0.16,-0.02 -0.31,-0.06 -0.47,-0.09 -3.09,-0.71 -3.33,-0.6 -4.75,2.33 -0.64,1.33 -1.24,2.68 -1.86,4.02 -1.51,3.22 -1.46,6.57 -0.9,9.97 0.16,0.99 0.7,1.48 1.65,1.18 1.36,-0.42 2.71,-0.92 4.02,-1.48 2.03,-0.88 3.64,-0.19 4.06,1.96 0.11,0.53 -0.08,1.3 -0.43,1.7 -1.84,2.09 -3.21,4.43 -4.35,6.98 -0.66,1.47 -1.94,2.68 -2.96,3.98 -0.51,0.65 -1.24,1.17 -1.62,1.88 -2.31,4.24 -4.57,8.51 -6.8,12.79 -2.4,4.6 -4.76,9.21 -7.1,13.84 -0.63,1.24 -1.13,2.56 -1.64,3.86 -0.51,1.3 -1.24,2.39 -2.59,2.95 -0.56,0.01 -1.12,0.01 -1.68,0.01 z m -8.86,-51.39 c -0.51,0.67 -0.77,1.01 -1.15,1.5 0.61,0.49 1.16,0.96 1.76,1.36 0.06,0.04 0.64,-0.48 0.6,-0.57 -0.31,-0.72 -0.72,-1.39 -1.21,-2.29 z"
   id="path8"
   inkscape:connector-curvature="0"
   style="fill:#000000;fill-opacity:1" />
        <path
   class="st0"
   d="m 88.51,125.05 c 0.73,-0.92 1.42,-0.8 2.11,-0.17 0.73,0.67 1.52,1.01 2.49,0.61 0.25,-1.77 -0.92,-3.64 -2.54,-4.07 -1.65,-0.44 -3.26,-1.04 -5.05,-0.51 -0.43,0.13 -1.17,-0.41 -1.62,-0.8 -0.56,-0.49 -0.92,-1.22 -1.47,-1.72 -0.5,-0.46 -1.16,-0.75 -1.75,-1.11 -0.13,-0.08 -0.32,-0.08 -0.44,-0.18 -2.75,-2.12 -5.65,-4.14 -6.18,-7.98 -0.07,-0.51 -0.08,-1.08 -0.31,-1.52 -1.16,-2.19 -0.87,-4.39 -0.28,-6.65 0.37,-1.39 0.63,-2.81 0.85,-4.23 0.3,-1.88 0.71,-3.72 1.92,-5.23 2.2,-2.73 3.44,-5.79 3.65,-9.32 0.1,-1.7 0.69,-3.38 0.8,-5.08 0.15,-2.26 0.08,-4.54 0.06,-6.82 -0.06,-6.44 -0.14,-12.87 -0.24,-19.31 -0.02,-1.08 -0.13,-2.15 -0.22,-3.23 -0.44,-5.11 0.79,-9.84 3.32,-14.24 1.53,-2.65 3.12,-5.27 4.72,-7.88 0.3,-0.49 0.71,-0.98 1.18,-1.31 4.17,-2.97 8.36,-5.91 12.54,-8.85 0.26,-0.18 0.53,-0.37 0.82,-0.49 4.85,-1.86 8.79,-5.18 13,-8.07 2.69,-1.85 5.08,-4.1 8.17,-5.39 2.18,-0.92 4.38,-1.57 6.72,-1.52 9.29,0.2 17.73,2.68 24.57,9.35 1.29,1.26 2.6,2.5 3.95,3.68 1.08,0.94 2.31,1.71 3.35,2.69 1.42,1.33 2.89,2.67 4.05,4.22 2.27,3.04 4.23,6.32 6.54,9.32 2.41,3.14 3.31,6.71 3.47,10.5 0.13,2.94 -0.09,5.9 -0.15,8.86 -0.02,0.92 -0.03,1.84 -0.04,2.76 -0.03,3.48 0.09,6.96 -0.11,10.43 -0.29,5.25 0.36,10.42 1.44,15.48 0.68,3.18 2.21,6.26 3.75,9.17 2.1,3.96 2.62,8.27 3.43,12.53 0.08,0.44 -0.07,0.95 -0.2,1.41 -2.11,7.24 -5.4,14 -8.45,20.85 -0.41,0.93 -1.21,1.56 -2.17,1.43 -3.02,-0.42 -5.84,0.57 -8.75,0.96 -1.38,0.19 -2.79,0.35 -4.18,0.32 -1.67,-0.03 -2.52,0.87 -3.23,2.2 -0.59,1.1 -1.27,2.17 -2.02,3.17 -0.76,1.02 -0.66,3.22 0.5,4.18 1.19,0.98 1.16,2.03 0.96,3.41 -0.69,4.78 -2.56,9.22 -3.81,13.83 -0.62,2.28 -1.89,4.09 -3.83,5.49 -0.74,0.53 -1.31,0.51 -1.92,-0.02 -1.2,-1.04 -1.88,-2.34 -1.92,-3.97 -0.03,-1.16 -0.08,-2.32 -0.21,-3.46 -0.15,-1.27 -0.96,-1.6 -2.01,-0.81 -0.89,0.67 -1.74,1.41 -2.56,2.17 -1.33,1.23 -2.77,1.53 -4.38,0.61 -1.04,-0.6 -1.84,-0.52 -2.5,0.61 -0.53,0.89 -1.49,0.86 -2.37,0.66 -0.9,-0.2 -1.3,-0.89 -1.35,-1.77 -0.13,-2.23 -0.41,-4.44 0.43,-6.64 0.48,-1.26 -1.12,-4.69 -2.28,-5.43 -0.77,-0.49 -1.46,-0.25 -1.84,0.46 -1.65,3.06 -2.69,6.24 -1.62,9.75 0.57,1.87 -0.17,2.88 -2.11,2.88 -0.32,0 -0.65,0.01 -0.96,-0.04 -2.37,-0.42 -4.64,-0.27 -6.89,0.73 -1.35,0.6 -2.02,0.2 -2.75,-1.09 -1,-1.78 -1.97,-3.57 -2.97,-5.34 -0.23,-0.41 -0.48,-0.86 -0.84,-1.15 -0.3,-0.24 -0.81,-0.43 -1.16,-0.35 -0.24,0.05 -0.47,0.6 -0.51,0.95 -0.16,1.64 -0.03,3.22 0.66,4.8 0.54,1.22 0.69,2.61 1.01,3.93 0.18,0.74 0.47,1.46 0.51,2.21 0.03,0.51 -0.13,1.15 -0.45,1.54 -0.67,0.83 -1.53,1.51 -2.25,2.3 -1.23,1.36 -2.47,1.45 -3.83,0.21 -1.49,-1.34 -2.19,-3.13 -2.24,-5.02 -0.12,-4.16 -1.5,-8.08 -2.06,-12.14 -0.66,-4.81 -2.78,-8.78 -5.75,-12.44 -1.36,-1.73 -2.75,-3.49 -4.2,-5.31 z m 74.63,-36.8 c -2.88,1.02 -6.29,1.84 -9.25,3.85 -0.82,0.56 -1.85,0.81 -2.78,1.21 -0.54,0.23 -1.25,0.32 -1.57,0.73 -1.86,2.35 -4.27,3.9 -6.96,5.11 -0.34,0.16 -0.81,0.81 -0.72,1.04 0.76,1.91 1.15,4.02 2.81,5.47 2.48,2.17 5.26,3.44 8.63,3.18 0.56,-0.04 1.13,0.09 1.68,0 1.62,-0.27 3.35,-0.33 4.81,-0.99 2.64,-1.2 5.16,-2.7 7.65,-4.21 2.16,-1.31 3.55,-3.28 4.32,-5.7 0.3,-0.95 0.21,-1.78 -0.41,-2.59 -1.23,-1.63 -2.39,-3.3 -3.62,-4.93 -1.03,-1.34 -2.41,-2.06 -4.59,-2.17 z m -58.75,19.6 c 0,-0.03 -0.01,-0.07 -0.01,-0.1 1.9,-0.18 3.84,-0.22 5.71,-0.6 1.76,-0.35 3.45,-1.06 5.16,-1.62 0.07,-0.02 0.12,-0.1 0.18,-0.15 1.09,-1 2.19,-1.98 3.28,-2.99 0.75,-0.69 0.61,-1.3 -0.21,-1.84 -0.94,-0.61 -1.84,-1.27 -2.79,-1.86 -2.94,-1.83 -5.92,-3.62 -8.85,-5.46 -1.65,-1.04 -3.36,-2.03 -4.86,-3.26 -2.07,-1.7 -5.47,-1.77 -7.35,0.16 -1.9,1.95 -3.21,4.29 -3.93,6.91 -0.14,0.52 0.07,1.3 0.39,1.76 1.01,1.43 2.16,2.77 3.25,4.14 2.53,3.19 6.39,3.69 9.9,4.89 0.05,0.03 0.09,0.02 0.13,0.02 z m 32.7,18.66 c -0.23,-0.95 -0.39,-1.65 -0.57,-2.34 -0.19,-0.73 -0.49,-1.44 -0.56,-2.18 -0.29,-3.18 -0.59,-6.36 -0.76,-9.54 -0.18,-3.41 -1.38,-5.88 -5.14,-6.34 -0.19,-0.02 -0.39,-0.21 -0.56,-0.18 -0.39,0.06 -1.01,0.09 -1.12,0.33 -0.46,0.99 -0.92,2.03 -1.09,3.09 -0.38,2.43 -0.57,4.9 -0.88,7.34 -0.14,1.1 -0.58,2.2 -0.54,3.29 0.08,1.83 -0.2,3.55 -0.81,5.26 -0.41,1.15 0.26,1.83 1.42,1.44 0.48,-0.16 0.82,-0.68 1.25,-1.02 0.74,-0.58 1.47,-1.17 2.25,-1.69 0.19,-0.13 0.69,-0.1 0.85,0.06 1.65,1.65 3.87,1.76 6.26,2.48 z M 85.28,74.37 c -0.89,1.23 -2.07,6.94 -1.76,8.31 1.57,-0.43 3.03,-7 1.76,-8.31 z M 134.19,16.9 c -0.87,1.01 -0.43,4.27 0.62,5.06 1.05,-1.09 0.7,-4.23 -0.62,-5.06 z m -31.75,18.35 c -1.18,0.87 -1.31,4.29 -0.23,5.03 0.85,-1.04 1.02,-3.97 0.23,-5.03 z"
   id="path10"
   inkscape:connector-curvature="0"
   style="fill:#000000;fill-opacity:1" />
        <path
   class="st0"
   d="m 45.43,118.74 c 0.82,-0.61 1.47,-0.9 1.85,-1.4 3.35,-4.48 6.73,-8.93 9.91,-13.53 1.47,-2.12 2.99,-4.1 4.94,-5.81 1.33,-1.17 2.39,-2.64 3.55,-3.99 0.43,-0.5 0.81,-1.03 1.34,-1.72 0.17,0.48 0.34,0.72 0.34,0.96 0.02,2.51 0.04,5.02 0.01,7.54 0,0.33 -0.25,0.66 -0.4,0.98 -0.17,0.36 -0.46,0.69 -0.54,1.06 -0.63,2.99 -1.25,5.98 -1.78,8.98 -0.08,0.46 0.19,1.09 0.49,1.5 1.83,2.52 3.68,5.03 5.59,7.49 1.44,1.85 3.43,2.61 5.73,2.45 0.95,-0.07 1.77,0.08 2.38,0.82 0.79,0.95 1.6,1.91 2.26,2.95 0.24,0.37 0.21,1.05 0.05,1.49 -0.18,0.5 -0.59,0.95 -1,1.32 -2.54,2.31 -5.22,4.48 -7.66,6.89 -5.8,5.76 -12.83,9.88 -19.31,14.74 -0.57,0.42 -1.27,0.66 -1.89,1.02 -1.2,0.69 -2.44,1.32 -3.56,2.13 -1.18,0.85 -1.9,1.06 -2.79,-0.06 -0.89,-1.12 -1.56,-2.48 -2.07,-3.83 -0.8,-2.08 -1.43,-4.23 -2.03,-6.38 -0.41,-1.45 -0.68,-2.95 -0.97,-4.43 -0.34,-1.75 -0.7,-2.07 -2.31,-1.38 -2.23,0.96 -4.46,1.97 -6.52,3.23 -3.3,2.02 -6.53,4.18 -9.67,6.46 -2.28,1.66 -4.5,3.46 -6.5,5.45 -3.38,3.37 -6.74,6.71 -10.99,9.01 -0.52,0.28 -0.93,0.79 -1.45,1.05 -0.67,0.34 -1.4,0.53 -2.11,0.79 -0.11,-0.11 -0.22,-0.22 -0.33,-0.33 0.18,-0.61 0.2,-1.34 0.56,-1.82 5.14,-6.99 10.22,-14.02 15.53,-20.87 2.98,-3.85 6.1,-7.6 9.15,-11.39 2.54,-3.16 4.73,-6.51 7.06,-9.78 1.32,-1.85 3.01,-3.43 4.29,-5.29 1.24,-1.8 2.21,-3.79 3.25,-5.72 0.95,-1.74 2.16,-2.42 4.09,-2.3 0.88,0.06 0.91,0.68 0.93,1.27 0.07,2.56 0.07,5.12 0.15,7.68 0.05,0.81 0.25,1.62 0.43,2.77 z M 8.14,157.18 c 3.04,-1.27 4.55,-2.92 4.33,-4.66 -2.11,0.43 -3.96,2.38 -4.33,4.66 z"
   id="path12"
   inkscape:connector-curvature="0"
   style="fill:#000000;fill-opacity:1" />
        <path
   class="st0"
   d="m 68.49,48.79 c 0.83,0.35 1.29,1.18 1.66,2.22 0.93,2.62 0.9,5.31 1.02,8.03 0.16,3.38 0.78,6.74 1.01,10.12 0.2,2.9 0.14,5.82 0.17,8.73 0,0.23 -0.18,0.51 -0.36,0.66 -0.08,0.06 -0.47,-0.1 -0.58,-0.25 -2.36,-3.58 -6.51,-3.76 -9.99,-5.07 -2.77,-1.04 -5.83,-1.32 -8.76,-1.89 -0.62,-0.12 -1.3,-0.2 -1.91,-0.09 -2.2,0.43 -4.3,-0.05 -6.39,-0.61 -2.04,-0.55 -4.02,-1.32 -6.08,-1.81 -1.2,-0.29 -2.5,-0.34 -3.74,-0.29 -2.79,0.1 -5.6,0.18 -8.36,0.52 -5.11,0.63 -10.2,1.51 -15.02,3.44 C 9.92,73 9.5,72.34 9.06,71.37 9.38,71.12 9.69,70.88 10,70.64 17.77,64.67 26.47,60.46 35.59,57.02 c 0.71,-0.27 1.28,-0.88 1.95,-1.28 0.81,-0.48 1.63,-0.96 2.49,-1.34 1.15,-0.51 2.38,-0.84 3.5,-1.4 1.32,-0.65 2.58,-1.44 3.85,-2.19 0.93,-0.55 1.64,-0.25 1.85,0.69 0.21,0.94 0.11,1.94 0.14,2.92 0.02,0.84 0.02,1.69 0.03,2.53 0.81,-0.2 1.66,-0.31 2.43,-0.62 4.48,-1.79 8.96,-3.6 13.4,-5.49 1.09,-0.45 2.04,-1.26 3.26,-2.05 z"
   id="path14"
   inkscape:connector-curvature="0"
   style="fill:#000000;fill-opacity:1" />
        <path
   class="st0"
   d="m 183.9,43.81 c 0.46,0.75 0.91,1.45 1.33,2.17 2.12,3.67 7.43,3.86 9.73,0.26 0.48,-0.75 0.61,-1.81 0.66,-2.74 0.06,-1.05 0.58,-1.24 1.39,-1.05 0.53,0.12 1.07,0.34 1.51,0.66 1.61,1.18 3.39,1.58 5.36,1.74 2.2,0.18 4.4,0.68 6.55,1.25 2.19,0.58 4.33,1.39 6.47,2.17 0.77,0.28 1.45,0.82 2.22,1.09 1.31,0.45 2.63,0.92 3.99,1.14 2.75,0.43 5.21,1.45 7.44,3.1 1.38,1.02 2.77,2.02 4.14,3.05 0.38,0.28 0.7,0.65 1.33,1.24 -0.86,0.34 -1.51,0.78 -2.17,0.81 -2.39,0.12 -4.79,0.11 -7.19,0.11 -0.63,0 -1.32,0 -1.9,-0.21 -2.69,-0.99 -5.45,-0.53 -8.19,-0.47 -2.47,0.06 -4.93,0.08 -7.4,0.18 -0.82,0.03 -1.67,0.12 -2.45,0.35 -2.14,0.64 -4.28,1.29 -6.36,2.1 -1.92,0.75 -3.82,1.59 -5.61,2.61 -2.26,1.28 -4.37,2.81 -6.59,4.16 -1.56,0.94 -2.78,2.11 -3.43,3.85 -0.2,0.54 -0.6,1.02 -0.95,1.6 -1.34,-0.95 -1.69,-2.27 -1.73,-3.69 -0.06,-2 0,-4 -0.03,-6 -0.11,-5.39 -0.2,-10.79 -0.37,-16.18 -0.08,-2.43 -0.17,-2.43 2.25,-3.3 z"
   id="path16"
   inkscape:connector-curvature="0"
   style="fill:#000000;fill-opacity:1" />
        <path
   class="st0"
   d="m 91.46,151.5 c 0.43,2.1 -0.53,3.69 -1.78,5.17 -0.2,0.24 -0.44,0.5 -0.72,0.6 -3.89,1.34 -7.22,3.7 -10.69,5.81 -2.01,1.22 -3.99,2.5 -5.94,3.82 -3.63,2.47 -7.18,5.04 -10.84,7.45 -1.72,1.13 -3.67,1.92 -5.44,2.99 -1.49,0.9 -2.9,1.94 -4.28,2.99 -0.56,0.42 -1.01,0.73 -1.71,0.35 -0.68,-0.37 -0.74,-0.87 -0.45,-1.51 0.03,-0.07 0.09,-0.16 0.08,-0.22 -0.61,-2.98 1.49,-4.71 3.11,-6.64 6.16,-7.35 12.34,-14.68 18.5,-22.03 0.9,-1.08 2.05,-1.96 2.47,-3.45 0.15,-0.52 1.03,-1.02 1.66,-1.17 2.08,-0.5 3.71,-1.67 5.45,-2.84 1.45,-0.98 3.38,-1.26 5.13,-1.75 0.2,-0.06 0.77,0.47 0.82,0.78 0.28,1.89 1.34,3.38 2.33,4.94 0.75,1.17 1.38,2.42 2.02,3.66 0.16,0.29 0.19,0.69 0.28,1.05 z m -34.98,22.26 c -0.47,-0.73 -1.01,-1.14 -1.66,-0.43 -0.58,0.63 -0.87,1.36 0.14,2.04 0.5,-0.53 0.99,-1.05 1.52,-1.61 z"
   id="path18"
   inkscape:connector-curvature="0"
   style="fill:#000000;fill-opacity:1" />
        <path
   class="st0"
   d="m 193.67,182.57 c -3.51,-3.53 -7.13,-6.96 -10.51,-10.62 -4.4,-4.77 -8.88,-9.44 -14.09,-13.33 -1.14,-0.85 -2.45,-1.5 -3.75,-2.08 -2.51,-1.12 -3.48,-2.79 -3.08,-5.53 0.08,-0.51 0.14,-1.05 0.06,-1.55 -0.55,-3.45 0.89,-6.52 1.85,-9.66 0.59,-1.93 4.24,-2.86 5.84,-1.63 1.28,0.99 2.66,1.34 4.26,1.13 2.11,-0.27 3.49,0.98 3.41,3.13 -0.06,1.6 0.38,2.94 1.26,4.27 0.72,1.09 1.14,2.37 1.77,3.52 2.92,5.36 5.87,10.71 8.79,16.07 0.5,0.91 1.04,1.83 1.34,2.8 0.87,2.82 2.37,5.31 3.95,7.76 1.79,2.76 1.62,3.5 -1.1,5.72 z"
   id="path20"
   inkscape:connector-curvature="0"
   style="fill:#000000;fill-opacity:1" />
    </g>
</g>
</svg>