<?xml version="1.0" encoding="UTF-8" standalone="no"?>
<!-- Generator: Adobe Illustrator 24.0.0, SVG Export Plug-In  -->

<svg
   xmlns:dc="http://purl.org/dc/elements/1.1/"
   xmlns:cc="http://creativecommons.org/ns#"
   xmlns:rdf="http://www.w3.org/1999/02/22-rdf-syntax-ns#"
   xmlns:svg="http://www.w3.org/2000/svg"
   xmlns="http://www.w3.org/2000/svg"
   xmlns:sodipodi="http://sodipodi.sourceforge.net/DTD/sodipodi-0.dtd"
   xmlns:inkscape="http://www.inkscape.org/namespaces/inkscape"
   version="1.1"
   x="0px"
   y="0px"
   width="638.5"
   height="638.5"
   viewBox="0 0 638.50002 638.5"
   xml:space="preserve"
   id="svg20"
   sodipodi:docname="frenzied.svg"
   inkscape:version="0.92.3 (2405546, 2018-03-11)"><metadata
   id="metadata24"><rdf:RDF><cc:Work
       rdf:about=""><dc:format>image/svg+xml</dc:format><dc:type
         rdf:resource="http://purl.org/dc/dcmitype/StillImage" /><dc:title /></cc:Work></rdf:RDF></metadata><sodipodi:namedview
   pagecolor="#ffffff"
   bordercolor="#666666"
   borderopacity="1"
   objecttolerance="10"
   gridtolerance="10"
   guidetolerance="10"
   inkscape:pageopacity="0"
   inkscape:pageshadow="2"
   inkscape:window-width="1920"
   inkscape:window-height="1017"
   id="namedview22"
   showgrid="false"
   inkscape:zoom="0.36961629"
   inkscape:cx="-514.39387"
   inkscape:cy="319.25"
   inkscape:window-x="-8"
   inkscape:window-y="-8"
   inkscape:window-maximized="1"
   inkscape:current-layer="svg20" />
<style
   type="text/css"
   id="style2">
    .st0{fill:#FFFFFF;}
</style>
<defs
   id="defs4">
</defs>
<g
   id="g18"
   transform="translate(1.7,-0.26827554)"
   style="fill:#000000;fill-opacity:1">
    <path
   class="st0"
   d="m 419.3,69.1 c -3.1,4.7 -6.6,9.4 -9.6,14.5 -6.6,11.1 -7.5,22.9 -4,35.1 2.7,9.6 5,19.3 8.5,28.6 4.8,12.5 4.1,25 1.7,38.6 7.2,-0.3 13.9,-0.6 20.6,-1 0.7,0 1.4,-0.8 2.1,-1.3 5.9,-4.8 12.5,-8.9 17.4,-14.5 3.5,-4 6.2,-9.7 6.8,-15 1.5,-13.5 9.4,-23 18.5,-33.3 -1.3,6 -2.9,10.8 -3.1,15.6 -0.4,8.6 -0.5,17.2 0.1,25.8 0.7,10.7 0.2,21.3 -3.3,31.5 -2.2,6.4 -5.6,11.8 -10.8,16.4 -7.9,7.2 -14.8,15.2 -17.5,26.1 -0.6,2.3 -2.3,4.3 -3.8,6.3 -6.9,8.9 -13.7,18 -21,26.5 -3.3,3.9 -7.5,7.5 -14.7,7.3 5,-15.8 9.8,-31 14.6,-46.2 -0.3,-0.4 -0.6,-0.8 -0.8,-1.1 -11.1,7.7 -22.2,15.5 -33.5,23.3 -0.1,-0.7 -0.2,-1.8 -0.4,-2.9 -1.9,-11.9 -3.8,-23.7 -5.6,-35.6 -0.3,-1.6 -0.8,-3.3 -0.8,-4.9 -0.1,-14.4 0,-28.8 0,-42.6 -21.4,9.1 -34.4,27.6 -46.6,45.6 -11,-10.7 -22.3,-20.7 -32.3,-31.9 -5.7,-6.4 -9.4,-14.7 -13.5,-22.4 -1.1,-2.1 -0.6,-5.1 -0.4,-7.7 0.6,-9.1 1.4,-18.3 1.4,-27.5 -21.1,25.2 -21.5,55.2 -20.9,86.2 -12.9,-9.2 -20.5,-21.9 -28,-35 2.6,28.7 4.6,57.2 -7.7,84.8 -16.4,-12.7 -31.4,-26.5 -44.8,-42.8 -0.7,1.4 -1.2,2.3 -1.6,3.3 -6.3,19.9 -4.8,39 6.5,56.9 2.7,4.2 2,7.5 -1.1,10.6 -2.6,2.6 -2.9,8 -8.4,7.2 -1.3,-0.2 -2.7,-0.2 -3.8,-0.9 -7.4,-4.8 -14.8,-9.6 -18.4,-18.1 -4.8,-11.1 -9.6,-22.3 -13.9,-33.6 -3.8,-10.3 -4.7,-20.8 -2.3,-31.8 2.7,-12 4.1,-24.4 -0.4,-36.4 -1.8,-4.8 -4.7,-9.5 -8,-13.5 -5.3,-6.4 -11.3,-12.1 -17.7,-18.8 10,-0.9 18.9,0.6 27.7,2.8 13.7,3.4 23.8,12 33.5,21.6 6.8,6.7 14.1,13 22.2,20.3 2.5,-8.9 4.7,-16.5 6.6,-24.2 4.5,-18.3 8.6,-36.8 6.4,-55.6 -1.3,-11 -6,-21.6 -9.3,-32.4 -0.9,-2.8 -2,-5.5 -3.5,-9.5 13,6.4 24.9,12.5 32.8,24 1.6,2.2 2.1,5.2 3.1,7.8 2.5,6.5 4.7,13.1 7.5,19.5 1.1,2.5 3.7,4.4 6.4,7.5 4.3,-7.6 8,-14.2 11.8,-20.7 1.7,-3 3.4,-6 5.4,-8.8 9.8,-14.2 12.3,-30 11.6,-46.8 -0.1,-2.7 0.9,-6.2 2.6,-8.2 4.8,-5.7 9.9,-11.3 15.6,-16 9.5,-7.7 19.6,-14.8 29.9,-21.3 -2.8,6.2 -5.9,12.4 -8.4,18.7 -4.9,12.2 -5.2,24.2 2,35.9 3.3,5.4 6,11.1 9.4,16.5 8,12.7 10.3,26.4 7.7,41.1 -0.9,5.4 -0.8,10.9 -0.8,16.4 0.1,6.3 6.5,9.5 12.1,6.7 7.5,-3.8 12.5,-9.3 16.7,-16.8 12,-22.2 27.9,-40.4 51.5,-49.9 z"
   id="path6"
   inkscape:connector-curvature="0"
   style="fill:#000000;fill-opacity:1" />
    <path
   class="st0"
   d="m 438.5,318.9 c 1.6,3.2 2.5,5.4 3.7,7.4 6.3,11.4 14,21.7 24.8,29.2 3.4,2.4 3.8,4.2 1.1,7 -2.8,2.8 -5.7,5.6 -8.2,8 -13.1,-2.3 -19.2,-13.7 -28.9,-22.1 -10.6,10.8 -20.9,21.3 -31.2,31.8 -58.3,59.8 -116.7,119.7 -175,179.5 -14.1,14.4 -28,29 -42.1,43.3 -9.5,9.6 -21,16.5 -33,22.2 -9.9,4.6 -20.2,8.3 -30.4,12.4 -5,2 -6.4,0.9 -5.7,-4.3 1,-7.6 2,-15.1 3.1,-22.7 1.6,-10.8 7.4,-19.6 13.8,-27.8 7,-9 15.1,-17.3 22.9,-25.7 69.7,-74.3 139.4,-148.6 209.2,-222.8 6.7,-7.1 13.8,-13.8 20.4,-21 2.2,-2.4 3.2,-5.1 0,-8.6 -6,-6.4 -11.1,-13.6 -16.6,-20.4 -2.7,-3.2 -2.2,-5.8 0.9,-8.4 1.9,-1.6 3.5,-3.6 4.6,-4.7 5.7,4.2 11.2,8.2 16.7,12.2 6.3,4.6 12.5,9.5 19,13.7 1.5,1 5.2,0.6 6.5,-0.6 7.1,-6.4 13.8,-13.3 20.6,-20 6.8,-6.8 13.7,-13.4 20.2,-20.4 5.3,-5.6 10.6,-11.5 12.4,-19.3 0.6,-2.5 -0.3,-5.3 -0.7,-9.4 5.5,-8.5 15.5,-11 26.5,-11.4 1.3,-0.1 2.7,0.2 3.9,0.7 13.8,5.8 20.6,28.1 12.5,40.6 -1.5,2.3 -2.7,3.2 -5.9,2.1 -6,-2 -12.3,-0.5 -16.9,3.4 -7.5,6.5 -14.7,13.5 -21,21.1 -9.7,11.5 -18.6,23.8 -27.2,35 z"
   id="path8"
   inkscape:connector-curvature="0"
   style="fill:#000000;fill-opacity:1" />
    <path
   class="st0"
   d="m 256,439.6 c -24.6,-23.1 -48.8,-45.7 -73,-68.3 -0.8,-5.9 -5.8,-7.8 -9.9,-10.7 -3.2,-2.3 -5.8,-2.2 -8.9,0.1 -8.6,6.2 -17.4,12.1 -26.3,18.2 -3.7,-3.5 -6.9,-6.3 -9.9,-9.4 -2.1,-2.1 -1.9,-3.9 0.7,-6.1 7,-6.3 13.6,-13 20.4,-19.6 1.1,-1 1.9,-2.3 3,-3.3 6.4,-6 6.9,-11.6 1.1,-18.3 C 140.6,307.6 128,293 115,278.8 c -4.5,-5 -10,-9.5 -17.2,-10.2 -4.1,-0.4 -8.3,-0.1 -13.9,-0.1 -7.7,-7.1 -8.3,-25.4 0.4,-35.1 11.4,-12.8 23.7,-11.9 41.1,3 -4.3,3.1 -3,7.3 -0.9,10.6 3.7,5.7 7.9,11.3 12.6,16.2 6.4,6.6 13.6,12.5 20.4,18.8 6.4,6 12.6,12.3 19.2,18 5.5,4.8 6.8,4.5 12.7,-0.2 8.1,-6.3 16.2,-12.6 24.2,-19.1 2.2,-1.8 4,-4.3 6.1,-6.6 -0.1,0 0.3,-0.1 0.5,0.1 9.7,8.6 9.8,9.9 2.2,20.5 -3.2,4.5 -6.4,8.9 -9.6,13.4 -3.7,5.1 -3.7,6.5 1,11 10.4,10.2 21,20.1 31.4,30.3 15.3,14.8 30.5,29.7 45.8,44.6 0.9,0.9 1.8,1.9 3,3.2 -12.8,14 -25.2,28 -38,42.4 z"
   id="path10"
   inkscape:connector-curvature="0"
   style="fill:#000000;fill-opacity:1" />
    <path
   class="st0"
   d="m 538,369.9 c -21.1,7.2 -41,11 -62.1,12.9 4.4,-29.9 20.9,-53 38.7,-75.9 -13.4,7.1 -26.8,13.7 -43.2,14 5.4,-6.1 10.3,-12.7 16.2,-18.1 10.2,-9.3 21.3,-17.5 31.5,-26.7 6.5,-5.8 11.5,-13.3 18.2,-18.9 4.7,-3.9 10.8,-6.2 16.6,-8.6 5.8,-2.4 11.8,-4.6 17.9,-6.1 5.4,-1.3 11.1,-1.4 16.7,-2 2.6,-0.3 5.2,-0.4 8.7,-0.7 -1.8,1.4 -3.1,2.6 -4.6,3.5 -21,12.9 -31,33.6 -39.4,55.4 -4.1,10.7 -7.2,21.8 -10.7,32.7 -0.4,1.4 -0.6,2.8 -1.2,5.3 10,-1.8 19.4,-2.7 28.4,-5.2 22.6,-6.3 43.4,-3 62.9,9.9 0.5,0.4 1,0.8 2.5,1.9 -5.9,1.5 -11,3.4 -16.2,4.1 -20.8,2.7 -33.5,15.8 -39.7,34.2 -7.7,23.1 -24.8,36.6 -44.2,47.9 -9,5.2 -19.8,7.4 -29.9,10.5 -2,0.6 -4.7,-0.7 -7.1,-1.9 8.1,-2.6 10.8,-9.9 13.4,-15.9 5.1,-11.7 13,-21.5 18.8,-32.6 2.9,-5.9 4.8,-12.2 7.8,-19.7 z"
   id="path12"
   inkscape:connector-curvature="0"
   style="fill:#000000;fill-opacity:1" />
    <path
   class="st0"
   d="m 308,488.1 c 12.7,-13.7 25.1,-27.1 37.7,-40.7 14.6,14.2 28.5,28 42.6,41.6 26,25.3 52.2,50.4 78,75.8 5.7,5.6 10.3,12.1 15.4,18.2 8.9,10.7 9.7,24.1 12,36.9 2.1,11.5 1.9,11.5 -9.1,7.5 -10.7,-3.9 -21.5,-7.7 -32.2,-11.8 -3.3,-1.3 -6.3,-3.5 -9.4,-5.4 -1.1,-0.7 -2,-2 -3.2,-2.3 -9.9,-2.9 -16,-11 -23.1,-17.6 -7.4,-6.7 -14.5,-13.7 -21.8,-20.5 -28.5,-26.8 -57,-53.5 -85.6,-80.2 -0.4,-0.4 -0.8,-0.9 -1.3,-1.5 z"
   id="path14"
   inkscape:connector-curvature="0"
   style="fill:#000000;fill-opacity:1" />
    <path
   class="st0"
   d="m 147.6,330.7 c -2.1,0.9 -4.3,2 -6.6,2.7 -8.1,2.5 -16.3,4.8 -24.5,7.1 -1.2,0.4 -2.6,0.5 -3.8,0.6 -6.8,0.2 -9.2,4.9 -5.9,10.9 2.5,4.6 4.3,9.5 6.4,14.2 0.3,0.8 0.6,1.6 1,2.3 6.2,9.1 12.8,17.9 18.4,27.3 3.4,5.9 5.2,12.7 7.7,19.1 1.5,3.8 2.9,7.7 4.5,11.5 0.7,1.6 1.6,3.1 2.2,4.3 -13.8,-1.3 -27.3,-2.6 -41.2,-4 6.8,17.2 16.9,29.3 33.5,35.9 -4.8,2.2 -9.9,1.2 -14.5,-0.6 -11.3,-4.2 -22.4,-9.1 -33.6,-13.7 -1.5,-0.6 -3,-1.5 -4.1,-2.7 -6.9,-7.7 -16,-11.5 -25.6,-13.4 C 47.8,429.5 38.6,421.3 31.3,410.3 27.5,404.5 24.4,398.2 21.8,391.7 17.6,381.4 10.5,373.4 3.3,365.3 2.5,364.4 1.7,363.6 0,361.8 c 12.7,4.8 24.5,8.2 31.9,19.3 5.9,8.9 14.7,12.2 25.1,12.3 1.6,0 3.5,0.1 4.9,0.7 7.1,3.4 13.1,0.6 19,-2.9 2.5,-1.5 5.3,-2.7 8.2,-4.1 -0.8,-1.4 -1.3,-2.7 -2.1,-3.6 -11.9,-12.2 -14.3,-28.1 -17.4,-43.7 -1.2,-6.2 -2.8,-12.3 -4.5,-18.4 -4.4,-16.3 -15.6,-26.2 -30.8,-32.3 -1.6,-0.6 -3.2,-1.3 -6,-2.4 17.7,-1.7 33.7,-0.1 48.7,7 9.4,4.4 18.7,9.4 27.7,14.6 9.6,5.4 18.7,11.6 28.4,17 4.3,2.4 9.3,3.6 14.5,5.4 z"
   id="path16"
   inkscape:connector-curvature="0"
   style="fill:#000000;fill-opacity:1" />
</g>
</svg>