<?xml version="1.0" encoding="UTF-8" standalone="no"?>
<!-- Generator: Adobe Illustrator 23.0.4, SVG Export Plug-In  -->

<svg
   xmlns:dc="http://purl.org/dc/elements/1.1/"
   xmlns:cc="http://creativecommons.org/ns#"
   xmlns:rdf="http://www.w3.org/1999/02/22-rdf-syntax-ns#"
   xmlns:svg="http://www.w3.org/2000/svg"
   xmlns="http://www.w3.org/2000/svg"
   xmlns:sodipodi="http://sodipodi.sourceforge.net/DTD/sodipodi-0.dtd"
   xmlns:inkscape="http://www.inkscape.org/namespaces/inkscape"
   version="1.1"
   x="0px"
   y="0px"
   width="228"
   height="228"
   viewBox="0 0 228.00001 228"
   xml:space="preserve"
   id="svg17"
   sodipodi:docname="minion.svg"
   inkscape:version="0.92.3 (2405546, 2018-03-11)"><metadata
   id="metadata21"><rdf:RDF><cc:Work
       rdf:about=""><dc:format>image/svg+xml</dc:format><dc:type
         rdf:resource="http://purl.org/dc/dcmitype/StillImage" /><dc:title /></cc:Work></rdf:RDF></metadata><sodipodi:namedview
   pagecolor="#ffffff"
   bordercolor="#666666"
   borderopacity="1"
   objecttolerance="10"
   gridtolerance="10"
   guidetolerance="10"
   inkscape:pageopacity="0"
   inkscape:pageshadow="2"
   inkscape:window-width="1920"
   inkscape:window-height="1017"
   id="namedview19"
   showgrid="false"
   inkscape:zoom="1.0350877"
   inkscape:cx="-185.98627"
   inkscape:cy="114"
   inkscape:window-x="-8"
   inkscape:window-y="-8"
   inkscape:window-maximized="1"
   inkscape:current-layer="svg17" />
<style
   type="text/css"
   id="style2">
    .st0{fill:#FFFFFF;}
</style>
<defs
   id="defs4">
</defs>
<g
   id="zC7Ytp_2_"
   transform="translate(2.91,-0.03)"
   style="fill:#000000;fill-opacity:1">
    <g
   id="g14"
   style="fill:#000000;fill-opacity:1">
        <path
   class="st0"
   d="m 222.18,105.36 c -0.61,0.63 -1.33,0.74 -2.22,0.84 -1.67,0.18 -3.32,0.7 -4.95,1.18 -1.56,0.47 -3.07,1.08 -4.61,1.61 -1.05,0.36 -2.11,0.74 -3.18,1 -1.11,0.27 -2.24,0.41 -3.37,0.6 -0.9,0.15 -1.83,0.16 -2.7,0.42 -5.88,1.78 -11.76,3.56 -17.61,5.46 -1.65,0.54 -3.27,1.3 -4.76,2.19 -2.57,1.54 -5,3.3 -7.55,4.87 -0.93,0.57 -2,1.03 -3.07,1.24 -1.56,0.31 -2.25,-0.15 -3.01,-1.55 -0.98,-1.78 -1.58,-2.04 -3.31,-1.02 -2.7,1.59 -4.67,3.76 -5.31,7 -0.48,2.41 -1.38,4.69 -3.52,6.2 -0.97,0.69 -2.07,1.21 -2.96,1.99 -2.86,2.5 -5.67,5.06 -8.45,7.64 -1.29,1.2 -2.75,1.89 -4.41,2.49 -4.18,1.51 -7.87,3.73 -9.42,8.33 -0.42,1.25 -0.19,2.17 0.8,2.97 1.4,1.12 2.8,2.26 4.22,3.36 0.3,0.23 0.72,0.3 1.06,0.5 0.4,0.23 0.99,0.44 1.11,0.79 0.49,1.43 1.68,1.94 2.9,2.46 0.21,0.09 0.39,0.23 0.67,0.72 -0.57,0.22 -1.13,0.58 -1.71,0.63 -2.59,0.21 -5.18,0.36 -7.78,0.45 -1.24,0.05 -1.98,0.61 -2.19,1.78 -0.23,1.29 -0.5,2.61 -0.47,3.91 0.04,1.6 1.15,2.57 2.57,3.16 1.99,0.82 2.12,1.33 0.54,2.81 -1.13,1.06 -1.67,2.38 -2.1,3.83 -1.03,3.54 -2.03,7.11 -3.85,10.36 -0.19,0.34 -0.25,0.75 -0.37,1.13 -1.48,4.92 -3.05,9.81 -4.43,14.76 -1.35,4.83 -2.8,9.67 -2.89,14.76 0,0.28 -0.1,0.64 0.03,0.83 1.04,1.47 0.07,2.22 -0.99,2.95 -0.08,0 -0.16,0 -0.24,0 -1.5,-1.08 -2.02,-2.55 -1.94,-4.37 0.1,-2.35 0.4,-4.77 0.03,-7.06 -0.7,-4.4 -1.74,-8.75 -2.77,-13.09 -0.69,-2.91 -1.69,-5.74 -2.38,-8.65 -0.44,-1.86 -0.56,-3.79 -0.83,-5.68 -0.05,-0.32 -0.08,-0.65 -0.2,-0.93 -1.98,-4.75 -2.52,-9.94 -4.65,-14.68 -1.28,-2.84 -1.75,-6.04 -2.61,-9.06 -0.26,-0.92 -0.5,-1.86 -0.93,-2.7 -0.56,-1.1 -0.31,-1.76 0.72,-2.35 1.56,-0.9 2.5,-2.21 2.38,-4.11 -0.05,-0.82 -0.4,-1.3 -1.27,-1.48 -1.84,-0.38 -2.33,-0.99 -2.31,-2.9 0.03,-2.1 -1.1,-3.74 -2.15,-5.35 -0.84,-1.29 -3.39,-0.83 -4.04,0.57 -0.17,0.35 -0.36,0.69 -0.57,1.09 -2.69,-1.3 -5.17,-2.72 -7.31,-4.67 -1.83,-1.67 -3.67,-3.34 -5.53,-4.97 -0.72,-0.63 -1.59,-1.08 -2.27,-1.74 -0.79,-0.76 -1.64,-1.55 -2.13,-2.5 -0.98,-1.91 -2.26,-3.44 -4.08,-4.58 -1.01,-0.63 -1.88,-1.48 -2.79,-2.26 -0.75,-0.65 -1.52,-1.02 -2.59,-0.97 -0.67,0.03 -1.46,-0.35 -2.02,-0.78 -0.94,-0.72 -0.99,-1.52 -0.18,-2.37 1.56,-1.63 0.92,-3.51 0.76,-5.34 -0.01,-0.11 -0.1,-0.22 -0.19,-0.3 -1.04,-1.07 -2.16,-0.38 -3.25,-0.13 -0.86,0.2 -1.28,0.77 -1.09,1.69 0.03,0.16 0.1,0.37 0.03,0.47 -0.82,1.12 -0.3,2.29 -0.19,3.46 0.15,1.56 -0.62,2.15 -2.02,1.4 -3.26,-1.75 -6.62,-3.4 -9.61,-5.55 -3.1,-2.24 -6.46,-2.67 -10.03,-2.68 -0.6,0 -1.2,0.13 -1.79,0.13 -1.56,-0.01 -2.03,-0.89 -1.31,-2.27 0.65,-1.23 1.29,-2.48 1.86,-3.75 0.45,-1 -0.34,-2.79 -1.4,-3.38 -0.82,-0.46 -2.77,-0.06 -3.25,0.82 -0.22,0.4 -0.12,1.12 0.1,1.58 0.24,0.52 0.84,0.86 1.16,1.35 0.23,0.36 0.27,0.85 0.39,1.27 -0.44,0.05 -0.91,0.24 -1.31,0.14 -1.4,-0.33 -2.75,-0.88 -4.16,-1.11 -3.22,-0.52 -6.48,-0.82 -9.7,-1.34 -4.61,-0.75 -9.19,-1.66 -13.8,-2.41 -1.33,-0.21 -2.64,-0.23 -3.43,-1.86 0.63,-0.2 1.26,-0.54 1.9,-0.58 0.99,-0.05 1.99,0.15 2.98,0.18 0.4,0.01 0.85,-0.11 1.21,-0.29 0.71,-0.36 1.32,-1.01 2.06,-1.2 4,-1.06 7.71,-2.79 11.42,-4.58 2.03,-0.98 4.21,-1.72 6.38,-2.37 4.71,-1.41 9.07,-3.52 13.05,-6.41 0.98,-0.71 1.87,-0.9 2.98,-0.35 1.43,0.71 2.91,1.05 4.5,0.38 0.38,-0.16 0.91,0.02 1.47,0.05 1.45,-1.93 2.18,-4.25 2.76,-6.68 0.04,0.47 0.08,0.94 0.15,1.72 0.49,-0.88 0.83,-1.48 1.21,-2.16 0.22,0.19 0.41,0.35 0.62,0.53 0.27,-0.26 0.53,-0.5 0.78,-0.74 1.83,1.33 2.39,3.24 1.78,5.76 -0.41,1.7 -0.81,3.41 -1.08,5.14 -0.19,1.23 0.25,1.67 1.5,1.77 1.6,0.13 3.03,-0.39 4.18,-1.46 1.29,-1.19 2.52,-2.45 3.67,-3.78 1.47,-1.69 2.73,-3.57 4.27,-5.18 5.56,-5.82 11.04,-11.77 17.96,-16.06 4.14,-2.57 8.36,-5 12.56,-7.47 1.44,-0.85 1.91,-2.23 1.36,-4.26 -0.39,-1.43 -1.32,-2.1 -2.94,-2.11 -0.44,0 -0.89,0.13 -1.31,0.07 -0.74,-0.11 -1.87,-0.12 -2.11,-0.56 -0.31,-0.56 -0.07,-1.6 0.25,-2.29 0.92,-1.99 2.01,-3.9 3.01,-5.86 0.7,-1.39 1.45,-2.77 2,-4.22 0.44,-1.17 0.75,-2.42 0.9,-3.66 0.21,-1.86 0.98,-2.55 2.85,-2.23 1.45,0.25 2.86,0.27 4.2,-0.47 1.38,-0.76 2.08,-1.94 2.16,-3.5 0.06,-1.11 -0.53,-1.83 -1.66,-1.91 -0.87,-0.06 -1.76,0 -2.64,0.01 -1.63,0.03 -2.29,-0.88 -1.71,-2.37 0.09,-0.22 0.18,-0.44 0.29,-0.66 2.66,-5.35 5.35,-10.68 7.99,-16.04 0.83,-1.68 1.55,-3.42 2.26,-5.15 0.42,-1.03 0.9,-1.92 2.02,-2.39 0.32,-0.14 0.51,-0.71 0.66,-1.12 0.26,-0.67 0.45,-1.37 0.68,-2.06 0.08,0 0.16,0 0.24,0 0.32,0.58 0.73,1.12 0.93,1.73 0.47,1.42 0.79,2.89 1.27,4.32 1.12,3.36 2.32,6.7 3.44,10.06 0.54,1.62 0.97,3.29 1.45,4.93 1.05,3.59 2.35,7.14 3.09,10.8 0.89,4.39 1.73,8.76 3.53,12.9 0.62,1.43 1.2,2.87 1.74,4.33 0.9,2.44 2.03,4.61 4.42,6.04 1.64,0.98 1.5,2.44 -0.05,3.58 -0.74,0.54 -1.54,1.01 -2.27,1.56 -0.61,0.47 -0.75,1.13 -0.12,1.63 1.33,1.06 2.65,2.21 4.15,2.98 0.81,0.42 2.03,0.36 2.99,0.14 1.66,-0.38 3.24,-1.12 4.9,-1.55 0.68,-0.18 1.53,-0.11 2.2,0.12 1.14,0.38 1.33,1.15 0.69,2.16 -0.6,0.94 -1.25,1.85 -1.89,2.78 -1.03,1.51 -1.07,1.98 0.34,3.14 1.84,1.53 3.09,3.36 3.82,5.66 0.5,1.59 1.12,3.26 2.15,4.52 1,1.23 1.61,2.29 1.19,3.86 -0.05,0.2 0.34,0.61 0.61,0.79 0.6,0.4 1.33,0.62 1.88,1.07 0.97,0.82 1.8,1.82 2.77,2.64 1.33,1.14 2.84,1.39 4.46,0.58 0.86,-0.43 1.68,-1.05 2.58,-1.24 1.95,-0.4 2.4,-1.76 2.8,-3.42 0.26,-1.09 0.85,-2.14 1.47,-3.1 0.61,-0.94 1.45,-0.87 2.17,-0.05 3.12,3.57 6.89,6.1 11.53,7.31 0.87,0.23 1.83,0.79 2.36,1.5 1.4,1.87 3.25,2.87 5.41,3.52 3.82,1.16 7.63,2.32 11.41,3.61 3.09,1.05 6.12,2.28 9.18,3.43 0.22,0.08 0.46,0.18 0.62,0.34 1.22,1.16 2.7,1.38 4.24,1 1.51,-0.37 2.75,0.03 3.89,0.96 0.02,0.2 0.02,0.44 0.02,0.68 z m -106.71,54.7 c 0.34,-0.51 0.69,-0.83 0.78,-1.21 0.45,-1.89 0.8,-3.81 1.23,-5.71 0.4,-1.79 0.83,-2.05 2.59,-1.47 0.8,0.26 1.26,0.11 1.58,-0.7 0.82,-2.03 1.59,-4.1 2.61,-6.04 0.65,-1.23 1.55,-2.45 2.63,-3.31 1.64,-1.31 3.51,-2.35 5.32,-3.43 0.88,-0.53 1.43,-1.19 1.65,-2.21 0.43,-1.93 0.42,-3.75 -0.6,-5.56 -0.84,-1.5 -0.44,-2.44 1.14,-3.2 1.81,-0.87 3.65,-1.08 5.51,-0.04 0.37,0.21 0.99,0.35 1.34,0.18 2.77,-1.34 4.98,-3.29 5.06,-6.56 0.05,-2.08 -0.3,-4.22 -0.84,-6.24 -1.34,-4.98 -2.97,-9.88 -2.77,-15.13 0.06,-1.68 0.29,-3.36 0.19,-5.03 -0.21,-3.71 -0.48,-7.42 -0.94,-11.1 -0.18,-1.42 -0.88,-2.8 -1.48,-4.14 -0.57,-1.27 -1.45,-2.4 -1.99,-3.68 -0.8,-1.89 -2.15,-3.12 -3.96,-3.96 -1.12,-0.52 -2.39,-0.88 -3.31,-1.66 -2.22,-1.88 -4.88,-2.68 -7.56,-3.45 -4.41,-1.28 -8.95,-2.29 -13.46,-1.03 -4.52,1.27 -8.88,3.09 -13.28,4.75 -0.71,0.27 -1.33,0.88 -1.89,1.44 -1.71,1.73 -3.46,3.45 -5.02,5.31 -0.96,1.14 -1.95,2.46 -2.32,3.86 -0.88,3.3 -1.88,6.69 -1.96,10.06 -0.15,5.64 -0.34,11.26 -1.09,16.85 -0.51,3.77 -0.54,7.65 -2.5,11.14 -0.42,0.75 -0.22,2.04 0.07,2.96 0.48,1.51 1.32,2.91 1.9,4.39 0.54,1.38 1.42,2.34 2.78,2.95 0.71,0.32 1.42,0.8 1.94,1.38 1.97,2.17 4.29,2.06 6.81,1.3 2.06,-0.62 3.89,-0.67 5.69,1.09 3.49,3.42 5.17,7.72 6.53,12.21 0.21,0.69 0.1,1.52 -0.01,2.26 -0.22,1.53 0.28,2.07 1.83,1.82 1.84,-0.3 2.42,0.32 2.85,2.12 0.64,2.7 1.54,5.34 2.35,8.01 0.07,0.22 0.28,0.38 0.6,0.78 z M 53.25,96.39 c -0.51,-0.65 -0.83,-1.14 -1.23,-1.55 -0.13,-0.13 -0.54,-0.16 -0.67,-0.06 -0.16,0.13 -0.27,0.51 -0.2,0.69 0.33,0.79 0.97,1.07 2.1,0.92 z m 12.88,28.71 c 0.11,0.09 0.22,0.19 0.33,0.28 0.28,-0.43 0.73,-0.83 0.78,-1.29 0.03,-0.28 -0.54,-0.62 -0.84,-0.94 -0.09,0.07 -0.18,0.13 -0.27,0.2 0,0.59 0,1.17 0,1.75 z m 70.26,7.69 c -0.92,0.62 -0.61,1.11 0.14,1.72 0.28,-0.28 0.55,-0.55 0.86,-0.86 -0.41,-0.35 -0.67,-0.58 -1,-0.86 z"
   id="path6"
   inkscape:connector-curvature="0"
   style="fill:#000000;fill-opacity:1" />
        <path
   class="st0"
   d="m 102.82,125.64 c -2.8,-0.83 -5.93,-0.58 -8.52,-2.37 -0.34,-0.24 -0.8,-0.35 -1.22,-0.44 -3.26,-0.71 -4.89,-4.13 -3.37,-7.1 0.29,-0.57 0.58,-1.14 0.79,-1.74 0.82,-2.39 2.39,-3.36 4.92,-2.93 0.61,0.1 1.23,0.35 1.78,0.65 2.73,1.5 5.42,3.05 8.16,4.54 1.01,0.55 2.08,0.97 3.14,1.42 0.92,0.39 1.71,0.88 1.87,1.98 0.16,1.05 -0.58,1.54 -1.26,2.13 -0.74,0.64 -1.48,1.33 -2.03,2.14 -1.06,1.54 -2.75,1.23 -4.26,1.72 z"
   id="path8"
   inkscape:connector-curvature="0"
   style="fill:#000000;fill-opacity:1" />
        <path
   class="st0"
   d="m 130,122.67 c -3.53,0.05 -5.73,-0.91 -7.55,-2.79 -0.69,-0.72 -0.87,-1.48 -0.12,-2.2 0.77,-0.73 1.6,-1.42 2.48,-2 1.93,-1.26 3.93,-2.42 5.88,-3.67 0.27,-0.18 0.54,-0.62 0.53,-0.93 -0.01,-0.79 0.4,-1.07 1.08,-1.15 0.86,-0.11 1.94,-0.6 2.52,-0.26 1.23,0.74 2.37,1.79 3.24,2.94 1.21,1.6 1.56,3.58 1.54,5.56 -0.01,0.53 -0.42,1.33 -0.86,1.54 -3.06,1.47 -6.2,2.75 -8.74,2.96 z"
   id="path10"
   inkscape:connector-curvature="0"
   style="fill:#000000;fill-opacity:1" />
        <path
   class="st0"
   d="m 109.69,136.31 c 0.2,-0.64 0.46,-1.27 0.57,-1.92 0.21,-1.15 0.3,-2.33 0.5,-3.48 0.11,-0.62 0.18,-1.38 0.56,-1.81 0.94,-1.02 2.02,-1.93 3.11,-2.8 1.15,-0.91 1.9,-0.79 2.91,0.3 1.13,1.22 1.61,2.68 1.88,4.31 0.2,1.18 0.64,2.37 1.23,3.42 0.97,1.71 1.34,3.44 -1.22,4.64 -2.49,1.16 -4.83,1.75 -7.42,0.48 -1.32,-0.67 -2,-1.61 -2.12,-3.14 z"
   id="path12"
   inkscape:connector-curvature="0"
   style="fill:#000000;fill-opacity:1" />
    </g>
</g>
</svg>