<?xml version="1.0" encoding="UTF-8" standalone="no"?>
<!-- Generator: Adobe Illustrator 23.0.4, SVG Export Plug-In  -->

<svg
   xmlns:dc="http://purl.org/dc/elements/1.1/"
   xmlns:cc="http://creativecommons.org/ns#"
   xmlns:rdf="http://www.w3.org/1999/02/22-rdf-syntax-ns#"
   xmlns:svg="http://www.w3.org/2000/svg"
   xmlns="http://www.w3.org/2000/svg"
   xmlns:sodipodi="http://sodipodi.sourceforge.net/DTD/sodipodi-0.dtd"
   xmlns:inkscape="http://www.inkscape.org/namespaces/inkscape"
   version="1.1"
   x="0px"
   y="0px"
   width="226.60699"
   height="226.60699"
   viewBox="0 0 226.60699 226.60699"
   xml:space="preserve"
   id="svg13"
   sodipodi:docname="mount.svg"
   inkscape:version="0.92.3 (2405546, 2018-03-11)"><metadata
   id="metadata17"><rdf:RDF><cc:Work
       rdf:about=""><dc:format>image/svg+xml</dc:format><dc:type
         rdf:resource="http://purl.org/dc/dcmitype/StillImage" /><dc:title /></cc:Work></rdf:RDF></metadata><sodipodi:namedview
   pagecolor="#ffffff"
   bordercolor="#666666"
   borderopacity="1"
   objecttolerance="10"
   gridtolerance="10"
   guidetolerance="10"
   inkscape:pageopacity="0"
   inkscape:pageshadow="2"
   inkscape:window-width="1920"
   inkscape:window-height="1017"
   id="namedview15"
   showgrid="false"
   inkscape:zoom="1.2021189"
   inkscape:cx="-142.51332"
   inkscape:cy="98.160004"
   inkscape:window-x="-8"
   inkscape:window-y="-8"
   inkscape:window-maximized="1"
   inkscape:current-layer="svg13" />
<style
   type="text/css"
   id="style2">
    .st0{fill:#FFFFFF;}
</style>
<defs
   id="defs4">
</defs>
<g
   id="yLVVTW_2_"
   transform="translate(0.04316469,15.153497)"
   style="fill:#000000;fill-opacity:1">
    <g
   id="g10"
   style="fill:#000000;fill-opacity:1">
        <path
   class="st0"
   d="m 132.18,0 c 0.48,0 0.96,0 1.44,0 0.38,0.08 0.76,0.2 1.14,0.24 1.79,0.19 3.58,0.33 5.37,0.54 1.49,0.17 1.74,0.59 1.65,2.04 -0.06,0.94 0.03,1.9 0.14,2.85 0.12,1.07 0.44,2.12 0.5,3.19 0.3,5.31 0.56,10.62 0.79,15.94 0.12,2.76 1.01,3.51 3.77,3.21 1.86,-0.2 3.75,-0.31 5.62,-0.34 2.47,-0.05 4.96,0.13 7.42,0.01 5.87,-0.29 11.73,-0.71 17.6,-1.07 0.87,-0.05 1.75,-0.01 2.04,1.03 0.31,1.13 -0.36,2.47 -1.36,2.85 -1.42,0.54 -2.86,1.01 -4.26,1.61 -0.46,0.2 -0.79,0.68 -1.19,1.03 0.38,0.31 0.71,0.73 1.14,0.92 1.9,0.83 3.9,1.46 5.73,2.42 1.94,1.02 3.9,1.51 6.08,1.44 3.13,-0.09 6.23,0.1 9.24,1.09 0.79,0.26 1.58,0.41 1.44,1.53 -0.14,1.11 -0.68,1.67 -1.84,1.81 -1.3,0.16 -2.58,0.48 -3.84,0.86 -1.31,0.4 -1.55,1.67 -0.46,2.54 0.83,0.66 1.78,1.25 2.77,1.62 2.17,0.81 4.37,1.56 6.6,2.13 1.07,0.28 2.34,0.38 3.38,0.08 1.95,-0.57 3.63,-0.16 5.27,0.79 1.42,0.82 1.55,1.27 1.06,2.86 -0.53,1.7 -0.18,2.1 1.62,2.24 2.07,0.16 4.12,0.42 6.18,0.69 0.33,0.04 0.82,0.35 0.88,0.62 0.45,1.98 1.02,3.96 1.14,5.97 0.14,2.29 0.08,2.43 2.37,2.53 2.32,0.09 4.03,1.99 3.86,4.31 -0.11,1.62 -0.13,3.26 -0.4,4.85 -0.24,1.44 -0.01,2.77 0.44,4.1 0.95,2.85 1.16,5.78 1.01,8.75 -0.11,2.19 -0.23,4.37 -0.4,6.56 -0.21,2.66 -0.3,5.34 -0.77,7.96 -0.35,1.93 -1.36,3.74 -1.87,5.66 -1.6,6.02 -4.73,11.06 -9.07,15.52 -4.98,5.12 -10.89,8.68 -17.57,10.86 -5.34,1.75 -10.86,2.95 -16.32,4.32 -5.49,1.38 -11.08,1.42 -16.68,1.14 -1.05,-0.05 -1.6,-0.54 -1.78,-1.57 -0.23,-1.4 0.35,-2.31 1.89,-2.69 4.82,-1.2 9.46,-2.88 13.98,-4.94 3.85,-1.75 7.83,-3.22 11.67,-5 7.49,-3.49 13.64,-8.45 16.3,-16.61 1.06,-3.23 1.66,-6.66 2.04,-10.05 0.29,-2.59 0.32,-5.35 -0.27,-7.87 -1.05,-4.43 -1.8,-9.06 -4.8,-12.78 -0.82,-1.01 -1.63,-2.04 -2.57,-2.93 -1.72,-1.62 -4.07,-1.75 -6.19,-2.42 -4.68,-1.47 -9.39,-1.11 -14.08,0.04 -0.96,0.24 -1.57,0.91 -1.5,1.91 0.16,2.3 0.28,4.62 0.66,6.9 0.4,2.44 1.29,4.8 1.58,7.24 0.46,3.85 2.2,7.05 4.43,10.07 1.26,1.71 3.07,2.92 5.02,3.28 2.4,0.45 4.74,0.92 7.06,1.72 3.26,1.12 4.65,4.07 3,7.07 -2.94,5.34 -8.13,8.09 -13,11.2 -0.03,0.02 -0.07,0.03 -0.11,0.04 -1.52,0.48 -2.5,0.16 -3.4,-1.16 -1.98,-2.89 -4.63,-4.94 -7.86,-6.25 -1.85,-0.75 -3.71,-1.47 -5.58,-2.18 -4.87,-1.85 -9.62,-3.9 -13.73,-7.21 -1.33,-1.07 -2.81,-1.97 -4.28,-2.84 -3.95,-2.33 -7.19,-5.45 -10.04,-8.98 -0.78,-0.97 -1.26,-2.21 -1.71,-3.4 -0.29,-0.75 -0.63,-1.15 -1.44,-1.1 -0.52,0.03 -1.04,-0.02 -1.56,0.05 -1.19,0.16 -1.5,0.72 -1.03,1.81 1.67,3.89 4.05,7.27 7.4,9.88 3.06,2.38 6.2,4.66 9.32,6.96 1.62,1.19 1.6,2.06 -0.04,3.17 -0.51,0.34 -1,0.83 -1.28,1.37 -0.78,1.48 -0.41,3.6 0.71,4.85 0.43,0.48 0.86,0.95 1.26,1.44 1.35,1.63 1.24,3.46 -0.26,4.91 -2.12,2.05 -4.18,4.17 -6.37,6.14 -3.83,3.46 -6.81,7.63 -9.95,11.66 -0.3,0.39 -0.61,0.92 -0.61,1.38 -0.01,1.88 -1.07,2.96 -2.52,3.93 -0.72,0.48 -1.34,1.24 -1.74,2.01 -0.59,1.13 -0.21,1.65 1.06,1.67 4.52,0.08 9.04,0.19 13.56,0.18 4.72,0 9.43,-0.08 14.15,-0.18 4.48,-0.09 8.95,-0.27 13.43,-0.38 0.89,-0.02 1.41,-0.27 1.43,-1.3 0.04,-1.81 -0.01,-1.92 -1.89,-1.93 -0.28,0 -0.57,0 -0.84,-0.06 -0.9,-0.2 -1.37,-0.74 -1.36,-1.7 0.02,-0.91 0.22,-1.68 1.28,-1.87 1.77,-0.32 3.53,-0.71 5.31,-0.91 0.74,-0.08 1.66,0.07 2.27,0.47 1.69,1.12 3.12,0.88 4.58,-0.36 1.68,-1.42 3.6,-2.29 5.78,-2.73 2.11,-0.43 4.19,-1.02 6.23,-1.7 2.46,-0.81 4.88,-1.77 7.3,-2.7 1.78,-0.69 1.91,-0.65 2.56,1.18 0.2,0.56 0.34,1.16 0.58,1.7 0.59,1.29 0.3,2.24 -0.86,3.09 -1.25,0.92 -2.51,1.89 -3.55,3.04 -0.86,0.95 -1.58,2.11 -2.07,3.3 -0.57,1.39 -0.12,1.92 1.36,2.02 0.64,0.04 1.28,0.03 1.92,0.02 4.68,-0.07 9.35,-0.15 14.03,-0.2 1.38,-0.01 2.76,0.06 4.14,0.14 0.28,0.02 0.76,0.23 0.78,0.4 0.11,0.97 0.4,2.05 0.08,2.89 -0.39,1.04 -1.18,2.03 -2.02,2.79 -2.84,2.57 -5.6,5.28 -8.72,7.48 -9.62,6.81 -19.36,13.48 -30.03,18.59 -3.41,1.63 -6.95,3.01 -10.51,4.29 -2.77,1 -5.71,1.53 -8.49,2.52 -10.22,3.64 -20.8,5.62 -31.54,6.86 -1.78,0.21 -3.6,0.06 -5.39,0.2 -3.34,0.26 -6.67,0.62 -10,0.9 -1.51,0.13 -3.02,0.17 -4.53,0.24 -2.24,0 -4.48,0 -6.72,0 -0.31,-0.06 -0.61,-0.15 -0.93,-0.19 -3.33,-0.45 -6.66,-0.86 -9.98,-1.34 -8.68,-1.25 -17.07,-3.67 -25.48,-6.12 -12.06,-3.51 -23.46,-8.36 -33.9,-15.38 -3.55,-2.39 -6.93,-5.01 -10.45,-7.43 -4.77,-3.28 -8.8,-7.4 -13.05,-11.28 -0.11,-0.1 -0.19,-0.24 -0.31,-0.4 3.31,-1.25 6.66,-1.86 10.13,-1.5 1.3,0.13 2.12,-0.35 2.74,-1.36 -0.46,-1.1 -1.33,-1.47 -2.41,-1.49 -0.96,-0.02 -1.93,0.01 -2.87,-0.13 -0.69,-0.1 -1.34,-0.45 -2.23,-0.77 0.6,-0.56 0.91,-0.95 1.3,-1.2 2.04,-1.26 4.04,-2.62 6.19,-3.65 1.25,-0.61 2.77,-0.9 4.16,-0.91 0.86,0 2.13,0.59 2.5,1.29 1.01,1.9 2.27,2.12 4.03,1.32 0.25,-0.11 0.55,-0.11 0.82,-0.15 1.04,-0.18 1.77,-0.74 2.04,-1.78 0.42,-1.58 0.88,-3.15 1.16,-4.75 0.27,-1.5 0.73,-2.83 1.81,-3.96 4.5,-4.72 8.64,-9.67 12.08,-15.28 4.04,-6.59 8.76,-12.75 13.02,-19.21 1.45,-2.21 2.44,-4.73 3.54,-7.16 0.46,-1.01 -0.01,-1.74 -1.14,-1.89 -1.14,-0.15 -2.31,-0.14 -3.47,-0.13 -2.35,0.01 -3.12,-0.66 -3.5,-2.99 -0.44,-2.68 0.41,-5.04 1.62,-7.35 0.91,-1.72 0.67,-2.87 -0.57,-4.38 -0.42,-0.5 -0.68,-1.26 -0.73,-1.92 -0.12,-1.59 -0.6,-1.95 -2.1,-1.29 -0.44,0.19 -0.83,0.48 -1.24,0.73 -4.6,2.81 -9.16,5.7 -13.82,8.42 -2.86,1.67 -5.85,3.12 -8.78,4.64 -0.78,0.41 -1.13,1.01 -1.28,1.88 -0.08,0.46 -0.51,1.11 -0.88,1.19 -0.45,0.09 -1.22,-0.19 -1.48,-0.57 -0.64,-0.95 -1.25,-1.99 -1.55,-3.08 -0.86,-3.12 -2.49,-5.87 -3.99,-8.69 -0.98,-1.84 -1.88,-2.11 -3.85,-1.32 -2.6,1.05 -4.74,2.8 -6.34,5.11 -0.72,1.03 -1.58,1.52 -2.74,1.13 -1.42,-0.47 -2.79,-1.1 -4.53,-1.8 1.98,-1.05 2.06,-2.63 1.84,-4.4 2.06,0.6 3.72,0.2 4.82,-1.56 0.86,-1.36 1.84,-2.31 3.6,-2.38 1.17,-0.04 1.47,-0.87 0.93,-1.88 -0.96,-1.78 -2.71,-2.76 -4.55,-2.46 -3.11,0.51 -4.21,1.08 -4.28,3.53 -0.02,0.67 -0.42,0.81 -0.98,0.58 C 10.36,72.46 10.04,72.28 9.71,72.15 8.17,71.56 7.1,72.17 6.83,73.78 6.77,74.13 6.84,74.59 6.64,74.82 6.36,75.16 5.77,75.64 5.52,75.54 4.51,75.13 3.33,74.73 2.68,73.94 1.71,72.76 1.03,71.31 0.4,69.89 -0.38,68.12 -0.1,66.44 1,64.79 c 1.37,-2.06 2.54,-4.25 3.84,-6.35 0.69,-1.12 1.35,-2.3 2.23,-3.25 2.28,-2.46 4.25,-4.98 5.72,-8.12 1.8,-3.83 3.76,-7.56 5.16,-11.57 0.15,-0.43 0.42,-0.82 0.63,-1.21 1.37,0.29 1.02,1.31 1.2,2.12 0.14,0.6 0.36,1.43 0.81,1.67 0.77,0.43 1.27,-0.29 1.65,-0.95 0.44,-0.76 1.16,-0.89 1.86,-0.53 0.44,0.22 0.79,0.67 1.1,1.07 2.68,3.49 5.35,6.98 7.99,10.5 0.53,0.71 1.1,1.4 2.04,1.21 1.6,-0.33 3.18,-0.81 4.9,-1.26 -0.42,-0.61 -0.64,-0.94 -0.88,-1.26 -2.86,-3.85 -5.74,-7.69 -8.59,-11.55 -1.67,-2.26 -1.7,-5.02 -0.13,-7.33 1.24,-1.82 2.52,-3.61 3.75,-5.42 0.42,-0.61 0.88,-1.08 1.67,-0.77 0.92,0.36 0.54,1.08 0.43,1.74 -0.33,1.96 -0.67,3.93 -0.94,5.9 -0.04,0.29 0.16,0.72 0.4,0.9 0.17,0.13 0.72,0.07 0.85,-0.1 0.94,-1.22 2.07,-0.86 3.27,-0.56 2.09,0.52 2.92,0.16 4.19,-1.61 1.58,-2.21 3.12,-4.45 4.77,-6.62 0.55,-0.73 1.35,-1.26 2.04,-1.88 0.17,0.08 0.34,0.17 0.52,0.25 -0.14,0.89 -0.21,1.8 -0.43,2.67 -0.49,1.92 -1.14,3.81 -1.57,5.75 -0.29,1.32 0.76,2.12 1.97,1.54 0.77,-0.36 1.45,-0.99 2.04,-1.61 2.26,-2.37 4.49,-4.78 6.7,-7.2 0.81,-0.89 1.7,-1.09 3,-0.54 -0.3,0.75 -0.6,1.46 -0.88,2.18 -0.59,1.51 -1.28,3 -1.69,4.56 -0.12,0.48 0.42,1.52 0.89,1.7 1.71,0.68 3.5,0.98 5.4,0.62 1.07,-0.2 2.2,-0.09 3.3,-0.06 1.11,0.04 2.21,0.23 3.32,0.22 1.87,-0.01 3.74,-0.17 5.61,-0.19 1.11,-0.01 2.28,0.37 3.33,0.15 1.92,-0.4 3.36,0.55 4.96,1.14 -3.15,8.9 -14.75,23.68 -21.76,29.33 -1.62,1.3 -3.07,2.8 -4.67,4.14 -2.63,2.2 -5.32,4.34 -7.99,6.5 -0.7,0.57 -1.35,0.47 -2.05,-0.09 -0.42,-0.33 -0.97,-0.69 -1.47,-0.7 -1.75,-0.02 -3.51,0.04 -5.25,0.22 -0.42,0.04 -0.82,0.59 -1.17,0.96 -0.46,0.48 -0.85,1.02 -1.27,1.54 -0.25,-0.66 -0.51,-1.32 -0.76,-1.98 -0.04,-0.1 0,-0.24 0.01,-0.36 0.21,-3.51 0.42,-7.01 0.64,-10.52 0.07,-1.2 -0.21,-1.46 -1.37,-1.18 -0.97,0.23 -1.94,0.49 -2.9,0.75 -0.81,0.21 -1.16,0.71 -1.12,1.58 0.1,2.12 0.1,4.24 0.21,6.36 0.2,4.14 0.21,4.13 -3.43,6.1 -0.99,0.54 -1.83,0.44 -2.59,-0.36 -1.13,-1.19 -2.32,-2.33 -3.36,-3.59 -0.98,-1.19 -2.2,-1.67 -3.68,-1.63 -1.2,0.04 -1.53,0.55 -0.81,1.49 1.85,2.4 3.77,4.74 5.7,7.08 0.67,0.81 1.56,1.18 2.66,1.11 1.05,-0.07 1.85,0.4 2.26,1.42 0.65,1.63 0.84,1.74 2.43,0.92 4.33,-2.23 8.63,-4.51 12.94,-6.77 0.57,-0.3 1.17,-0.57 1.75,-0.85 -0.2,0.51 -0.52,0.8 -0.87,1.03 -1.24,0.81 -2.52,1.56 -3.73,2.4 -0.58,0.4 -1.16,0.88 -1.56,1.45 -0.62,0.9 -0.22,2.3 0.66,2.33 1.24,0.05 2.71,0.22 3.71,-0.33 3.39,-1.86 6.87,-3.7 9.86,-6.13 C 69.49,64 78.97,53.61 86.08,41.21 c 1.07,-1.86 1.95,-3.83 2.93,-5.74 0.18,-0.35 0.38,-0.72 0.66,-0.98 1.13,-1.03 1.24,-2.13 0.23,-3.23 -0.67,-0.74 -1.3,-1.59 -2.13,-2.09 -1.03,-0.62 -1.11,-1.44 -1.09,-2.44 0.07,-4.28 0.11,-8.56 0.18,-12.84 0.02,-1.12 -0.36,-1.85 -1.43,-2.36 -0.75,-0.36 -1.35,-1.06 -2.06,-1.65 0.67,-0.81 1.27,-1.45 1.79,-2.15 1.59,-2.16 3.62,-3.27 6.38,-3.04 0.79,0.07 1.4,0.25 1.56,0.99 0.31,1.43 0.68,2.89 0.66,4.33 -0.04,2.51 -0.63,5.03 -0.49,7.52 0.17,2.98 0.96,5.97 3.88,7.55 3.25,1.75 6.77,2.8 10.46,3.26 5.64,0.71 11.02,-0.44 16.19,-2.45 5.02,-1.95 9.07,-5.08 10.5,-10.66 0.06,-0.23 0.12,-0.48 0.25,-0.67 1.83,-2.71 0.35,-8.05 -2.62,-10.04 -2.14,-1.49 -2.01,-3.09 0.25,-4.52 z m -38.5,100.39 c 0.26,-1.8 0.6,-3.41 0.69,-5.03 0.05,-0.86 -0.04,-1.93 -0.52,-2.58 -1.42,-1.93 -3.06,-3.69 -4.61,-5.51 -0.1,-0.12 -0.22,-0.24 -0.35,-0.32 -0.85,-0.53 -1.78,-0.66 -2.57,-0.02 -0.86,0.7 -0.26,1.46 0.2,2.11 1.01,1.44 2.06,2.85 3.11,4.26 1.36,1.84 1.39,4.17 0.36,5.95 -1.63,2.83 -3.12,5.73 -4.6,8.64 -0.92,1.81 -1.56,3.77 -2.56,5.53 -2.6,4.6 -5.57,8.95 -9.08,12.91 -0.42,0.47 -0.95,0.83 -1.42,1.26 -1.03,0.93 -2.27,1.71 -3.02,2.82 -1.44,2.14 -2.63,4.45 -3.85,6.73 -0.68,1.27 -1.34,1.58 -2.57,0.81 -0.44,-0.28 -0.73,-0.8 -1.12,-1.17 -0.32,-0.31 -0.68,-0.75 -1.05,-0.79 -0.7,-0.07 -1.44,0.04 -2.14,0.19 -0.93,0.2 -1.63,0.81 -1.73,1.77 -0.36,3.29 -2.05,6.11 -3.21,9.11 -0.35,0.9 -1.32,1.67 -2.18,2.22 -0.69,0.44 -0.95,0.96 -0.67,1.53 0.17,0.34 0.86,0.59 1.33,0.6 0.95,0.02 1.9,-0.23 2.85,-0.24 6.87,-0.08 13.75,-0.09 20.62,-0.19 9.95,-0.14 19.91,-0.32 29.86,-0.48 0.59,-0.01 1.29,0.13 1.29,-0.79 0,-0.85 -0.44,-1.36 -1.31,-1.38 -0.64,-0.02 -1.34,0.2 -1.9,-0.01 -0.65,-0.24 -1.23,-0.77 -1.74,-1.28 -0.15,-0.15 -0.07,-0.86 0.11,-0.96 1.27,-0.73 2.52,-1.71 3.9,-1.96 3.16,-0.57 6.32,-1.32 9.6,-1.11 1.27,0.08 2.47,-0.57 3.11,-1.73 1.38,-2.52 3.49,-3.51 6.26,-3.28 0.94,0.08 1.45,-0.39 1.8,-1.24 0.59,-1.44 1.21,-2.87 1.91,-4.25 2.69,-5.3 5.34,-10.63 8.18,-15.86 1.37,-2.52 1.86,-5.08 1.85,-7.91 -0.01,-2.26 -0.64,-3.83 -2.53,-5.15 -2.42,-1.69 -3.58,-4.2 -3.19,-7.18 0.27,-2.05 0.8,-4.07 1.21,-6.11 0.06,-0.28 0.07,-0.58 0.1,-0.81 -1.08,0.19 -2.04,0.46 -3.02,0.5 -2.5,0.11 -5.03,-0.11 -7.5,0.2 -4.24,0.54 -8.33,1.79 -12.31,3.36 -1.33,0.53 -2.66,1.07 -3.95,1.69 -4.34,2.05 -8.61,4.24 -13.64,5.15 z M 92.04,38.81 c -0.13,0.04 -0.26,0.09 -0.39,0.13 -0.06,0.66 -0.12,1.31 -0.17,1.97 -0.08,1.1 -0.09,2.22 -0.23,3.31 -0.17,1.38 -0.58,2.74 -0.65,4.13 -0.14,2.75 -0.17,5.51 -0.16,8.26 0.01,1.47 0.15,2.94 0.29,4.41 0.2,2.03 0.62,4.04 0.64,6.07 0.1,7.03 1.74,13.86 2.68,20.78 0.13,0.94 0.66,1.52 1.64,1.61 0.96,0.09 1.63,-0.28 1.93,-1.23 0.05,-0.15 0.11,-0.3 0.18,-0.44 1.12,-2.49 3.38,-3.1 5.58,-1.5 0.61,0.45 1.22,0.91 1.84,1.35 1.51,1.08 3.19,1.59 5.04,1.67 3.01,0.13 5.86,-0.45 8.67,-1.5 1.41,-0.53 2.89,-0.93 4.37,-1.16 3,-0.47 6.02,-0.77 9.03,-1.16 1.75,-0.22 2.04,-0.52 1.66,-2.23 -0.38,-1.71 -0.97,-3.37 -1.47,-5.05 -1.05,-3.52 -2.28,-7.03 -1.72,-10.79 0.52,-3.55 1.02,-7.12 1.78,-10.63 0.67,-3.07 1.73,-6.06 2.53,-9.11 0.22,-0.83 0.44,-1.88 0.11,-2.57 -0.84,-1.78 -1.98,-3.41 -2.99,-5.07 -3.18,1.46 -3.4,1.89 -3.7,5.05 -0.44,4.48 -0.39,9.03 -2.06,13.33 -0.29,0.74 -0.36,1.55 -0.55,2.33 -1.32,5.51 -2.18,11.13 -4.38,16.41 -0.34,0.82 -0.71,1.08 -1.54,0.54 0.19,-0.52 0.37,-1.04 0.56,-1.55 2.34,-6.31 3.67,-12.9 4.95,-19.47 0.7,-3.63 0.9,-7.36 1.29,-11.05 0.05,-0.47 -0.13,-0.97 -0.21,-1.45 -0.49,0.09 -1.02,0.09 -1.46,0.27 -2.51,1.03 -4.94,2.26 -7.5,3.14 -6.11,2.09 -12.03,1.45 -17.69,-1.66 -1.05,-0.58 -1.73,-0.35 -1.84,0.88 -0.18,1.88 -0.12,3.78 -0.23,5.67 -0.28,4.97 -0.2,9.9 1.21,14.72 0.94,3.22 1.91,6.42 2.84,9.64 0.08,0.27 -0.07,0.61 -0.12,0.92 -0.35,-0.13 -0.74,-0.21 -1.02,-0.43 -0.19,-0.15 -0.22,-0.5 -0.31,-0.77 -0.72,-2.2 -1.63,-4.36 -2.1,-6.61 -1.31,-6.28 -2.54,-12.59 -3.57,-18.92 -0.42,-2.56 -0.88,-5.22 0.09,-7.82 0.1,-0.28 -0.03,-0.75 -0.22,-1.02 -0.84,-1.17 -1.75,-2.28 -2.63,-3.4 z m -53.29,18.1 c 2.21,0.05 3.76,-1.36 3.78,-3.41 0.01,-1.96 -1.07,-3.02 -3.15,-3.08 -2.31,-0.07 -4.06,1.45 -4.1,3.59 -0.05,1.79 1.22,2.85 3.47,2.9 z M 20.44,54.52 c 2.17,0.01 4.21,-2.17 4.13,-4 C 24.54,49.76 24.55,49 24.42,48.26 24.34,47.8 24.1,47.12 23.77,47.02 c -0.43,-0.14 -1.2,0.02 -1.49,0.35 -1.44,1.65 -2.8,3.38 -4.1,5.14 -0.17,0.23 -0.03,1.03 0.2,1.17 0.74,0.42 1.59,0.66 2.06,0.84 z M 140.05,31.97 c -0.19,-0.46 -0.39,-0.95 -0.59,-1.43 -0.51,0.3 -1.19,0.48 -1.5,0.92 -1.29,1.82 -2.48,3.71 -3.66,5.6 -0.24,0.38 -0.41,0.9 -0.38,1.34 0.03,0.41 0.28,1.02 0.59,1.14 0.31,0.12 0.98,-0.11 1.22,-0.41 1.27,-1.63 2.5,-3.3 3.65,-5.03 0.36,-0.56 0.42,-1.32 0.67,-2.13 z m -3.06,49.53 c 0.96,-2.74 0.3,-5.23 -0.17,-7.7 -0.06,-0.3 -0.91,-0.52 -1.42,-0.62 -0.12,-0.02 -0.56,0.61 -0.51,0.9 0.36,2.47 0.58,4.99 2.1,7.42 z"
   id="path6"
   inkscape:connector-curvature="0"
   style="fill:#000000;fill-opacity:1" />
        <path
   class="st0"
   d="m 92.59,103.28 c 1.27,0.62 2.42,1.08 3.46,1.74 0.53,0.34 0.96,0.95 1.26,1.53 1.42,2.69 1.98,5.63 2.38,8.61 0.21,1.58 0.54,3.15 0.84,4.72 0.29,1.5 -0.09,2 -1.59,2.05 -1.74,0.06 -2.77,1.33 -2.49,3.05 0.13,0.8 0.55,1.32 1.38,1.42 1.59,0.19 3.2,0.63 4.76,0.47 1.69,-0.17 3.37,-0.83 4.57,-2.22 0.65,-0.76 1.22,-1.6 1.92,-2.29 0.29,-0.28 0.89,-0.46 1.28,-0.37 0.24,0.06 0.46,0.68 0.51,1.07 0.17,1.4 -0.31,2.58 -1.34,3.56 -0.83,0.8 -1.22,1.77 -1.01,2.93 0.22,1.23 1.08,1.86 2.33,1.67 1.19,-0.18 2.19,-0.69 2.88,-1.74 0.61,-0.93 1.29,-1.82 1.93,-2.74 1.13,0.94 1.45,2.1 0.86,3.45 -1.36,3.15 -3.53,5.52 -6.61,7.15 -3.32,1.75 -6.85,1.87 -10.39,1.51 -1.39,-0.14 -2.71,-1.09 -4.02,-1.75 -1.05,-0.53 -2,-1.02 -3.27,-0.56 -1.08,0.38 -2.18,-0.69 -1.92,-1.73 0.74,-2.95 0.44,-5.89 -0.25,-8.77 -0.49,-2.04 -1.33,-3.99 -2.01,-5.98 -0.14,-0.41 -0.39,-0.83 -0.4,-1.24 -0.01,-0.88 -0.46,-1.31 -1.23,-1.55 -0.87,-0.27 -1.17,-0.82 -0.71,-1.64 2.28,-4.12 4.58,-8.23 6.88,-12.35 z"
   id="path8"
   inkscape:connector-curvature="0"
   style="fill:#000000;fill-opacity:1" />
    </g>
</g>
</svg>