<?xml version="1.0" encoding="UTF-8" standalone="no"?>
<!-- Generated by IcoMoon.io -->

<svg
   xmlns:dc="http://purl.org/dc/elements/1.1/"
   xmlns:cc="http://creativecommons.org/ns#"
   xmlns:rdf="http://www.w3.org/1999/02/22-rdf-syntax-ns#"
   xmlns:svg="http://www.w3.org/2000/svg"
   xmlns="http://www.w3.org/2000/svg"
   xmlns:sodipodi="http://sodipodi.sourceforge.net/DTD/sodipodi-0.dtd"
   xmlns:inkscape="http://www.inkscape.org/namespaces/inkscape"
   version="1.1"
   width="215"
   height="215"
   viewBox="0 0 215 215"
   id="svg14"
   sodipodi:docname="orientation.svg"
   inkscape:version="0.92.3 (2405546, 2018-03-11)">
  <metadata
     id="metadata20">
    <rdf:RDF>
      <cc:Work
         rdf:about="">
        <dc:format>image/svg+xml</dc:format>
        <dc:type
           rdf:resource="http://purl.org/dc/dcmitype/StillImage" />
        <dc:title>twists-orientation</dc:title>
      </cc:Work>
    </rdf:RDF>
  </metadata>
  <defs
     id="defs18" />
  <sodipodi:namedview
     pagecolor="#ffffff"
     bordercolor="#666666"
     borderopacity="1"
     objecttolerance="10"
     gridtolerance="10"
     guidetolerance="10"
     inkscape:pageopacity="0"
     inkscape:pageshadow="2"
     inkscape:window-width="1920"
     inkscape:window-height="1017"
     id="namedview16"
     showgrid="false"
     fit-margin-top="0"
     fit-margin-left="0"
     fit-margin-right="0"
     fit-margin-bottom="0"
     inkscape:zoom="1.84375"
     inkscape:cx="-159.77184"
     inkscape:cy="120.00261"
     inkscape:window-x="-8"
     inkscape:window-y="-8"
     inkscape:window-maximized="1"
     inkscape:current-layer="svg14" />
  <title
     id="title2">twists-orientation</title>
  <g
     id="g822"
     transform="translate(32.17784)">
    <path
       style="fill:#ffffff;stroke-width:6.71877003"
       inkscape:connector-curvature="0"
       id="path4"
       d="m 73.405328,214.15344 c 0,-0.45688 -0.537502,-1.30344 -1.14891,-1.91485 -0.611408,-0.68532 -1.148909,-2.14329 -1.148909,-3.2922 0,-1.14891 -0.839847,-3.90361 -1.91485,-6.04689 -1.068284,-2.2172 -1.914849,-4.43439 -1.914849,-4.89799 0,-0.5375 -0.537502,-1.67969 -1.14891,-2.44563 -0.611408,-0.83985 -1.14891,-2.14329 -1.14891,-2.8286 0,-0.76594 -0.309063,-1.45126 -0.76594,-1.60579 -0.38297,-0.0739 -0.839846,-0.92047 -0.994378,-1.76032 -0.537501,-2.44563 -2.371726,-6.50376 -2.909227,-6.50376 -0.309064,0 -0.76594,-0.99438 -1.068285,-2.2172 -0.228438,-1.22282 -0.994378,-2.68079 -1.605786,-3.13766 -0.537501,-0.53751 -0.839846,-1.30345 -0.611408,-1.6797 0.309064,-0.45687 0.07391,-1.06828 -0.456876,-1.37735 -0.76594,-0.45687 -0.611408,-0.99437 0.685314,-2.37172 0.839847,-0.92047 1.605786,-2.2172 1.605786,-2.8286 0,-0.76594 0.611409,-0.99438 1.988756,-0.68532 2.29782,0.38297 3.366104,-1.53188 2.828603,-5.28095 -0.228438,-1.37735 0,-2.68079 0.456876,-2.90923 1.068285,-0.68531 1.14891,-4.28657 0.07391,-4.28657 -0.38297,0 -0.76594,-0.38297 -0.76594,-0.83985 0,-0.5375 -0.611408,-1.37735 -1.303442,-1.91485 -0.765939,-0.5375 -0.994378,-1.06828 -0.537501,-1.06828 0.920471,0 0.920471,-2.68079 0,-3.59455 -0.309064,-0.38297 -0.537502,-0.22844 -0.456877,0.15453 0.611408,2.98314 0.07391,3.44002 -4.669545,3.44002 -3.063759,0 -5.428766,0.45687 -6.886739,1.30344 -1.988756,1.14891 -2.217195,1.76031 -2.217195,4.97189 0,3.52063 -0.07391,3.67516 -2.217194,3.67516 -1.303441,0 -2.526257,-0.30906 -2.754696,-0.76594 -0.228438,-0.38297 -1.303441,-0.76594 -2.371726,-0.76594 -1.068284,0 -3.749073,-0.99437 -6.046893,-2.29782 -2.297819,-1.22281 -4.669545,-2.29781 -5.35486,-2.29781 -0.611408,0 -2.526257,-0.83985 -4.20595,-1.91485 -1.679692,-1.07501 -4.058137,-1.91485 -5.280953,-1.91485 -1.222816,0 -2.371726,-0.45688 -2.68079,-1.14891 -0.228438,-0.61141 -0.920471,-1.14891 -1.531879,-1.14891 -0.611408,0 -1.222816,-0.30907 -1.377348,-0.68532 -0.07391,-0.38297 -2.143288,-0.76594 -4.4343883,-0.92047 -2.291101,-0.15453 -4.8173586,-0.68531 -5.6639237,-1.14891 -0.7659398,-0.5375 -1.9148495,-0.76594 -2.5262576,-0.5375 -0.8398463,0.30906 -1.0682845,0 -0.8398463,-0.99438 0.1545318,-0.83984 0.994378,-1.53188 2.1432877,-1.76032 1.0682845,-0.0739 2.0626625,-0.45687 2.2978195,-0.76594 0.8398464,-1.30344 5.8117367,-3.13766 8.3379937,-3.13766 1.53188,0 3.440011,-0.5375 4.205951,-1.14891 0.839846,-0.61141 2.445632,-1.14891 3.594542,-1.14891 1.148909,0 2.371726,-0.30906 2.600164,-0.76594 0.228438,-0.38297 1.303441,-0.76594 2.217194,-0.76594 0.994378,0 2.217194,-0.5375 2.754696,-1.14891 0.537501,-0.61141 1.686411,-1.14891 2.600164,-1.14891 0.920471,0 2.371726,-0.5375 3.211572,-1.14891 0.76594,-0.61141 2.217194,-1.14891 3.211572,-1.14891 0.920472,0 1.686411,-0.30906 1.686411,-0.76594 0,-0.38297 1.53188,-0.76594 3.366104,-0.76594 2.29782,0 3.520636,-0.38297 3.822981,-1.14891 0.228438,-0.61141 0.920471,-1.14891 1.605786,-1.14891 0.920471,0 1.148909,0.99438 1.148909,4.66955 0,5.81173 0.920472,7.57205 3.822981,7.57205 1.303441,0 2.297819,-0.30906 2.297819,-0.76594 0,-0.38297 0.839846,-0.76594 1.91485,-0.76594 1.075003,0 1.914849,0.38297 1.914849,0.76594 0,0.45688 0.685315,0.76594 1.53188,0.76594 0.76594,0 1.834224,0.61141 2.217194,1.37735 0.685314,1.14891 0.76594,1.14891 0.839846,-0.30906 0,-0.92048 -0.537501,-2.06267 -1.14891,-2.60017 -0.920471,-0.76594 -1.148909,-2.8286 -1.148909,-9.413 0,-4.66954 0.228438,-8.18346 0.537501,-7.88111 0.309064,0.22843 0.456877,4.05813 0.309064,8.41862 -0.154532,6.88674 0,7.95502 1.14891,8.41861 0.920471,0.38297 1.068284,0.22844 0.537501,-0.45687 -0.38297,-0.5375 -0.611408,-4.89799 -0.537501,-9.56081 0.07391,-4.74345 -0.154532,-8.41862 -0.537502,-8.18346 -0.38297,0.23515 -0.685315,0.0739 -0.685315,-0.38297 0,-0.38297 0.456877,-0.92048 0.994378,-1.06829 0.537502,-0.22844 0.38297,-0.45687 -0.38297,-0.45687 -1.148909,-0.0739 -1.377347,-0.83985 -1.377347,-5.20033 0.07391,-2.90923 0.382969,-8.64706 0.839846,-12.85301 0.456876,-4.20595 0.920471,-14.156449 1.068284,-22.030848 0.309064,-12.16097 0.154532,-14.45879 -0.76594,-14.76786 -0.611408,-0.30906 -1.148909,-0.92047 -1.148909,-1.53188 0,-0.6114 -0.537502,-1.06828 -1.14891,-1.06828 -0.611408,0 -1.14891,-0.30906 -1.14891,-0.68532 0,-0.37625 -1.222816,-0.0739 -2.680789,0.53751 -1.451254,0.68531 -2.680789,1.45125 -2.680789,1.76031 0,0.99438 -3.822981,4.51502 -4.897984,4.51502 -0.611408,0 -1.377348,0.38297 -1.605786,0.83984 -0.309063,0.38297 -1.377348,1.06829 -2.371726,1.45126 -1.068284,0.45688 -1.834224,1.37735 -1.834224,2.29782 0,0.83984 -0.309063,1.53188 -0.76594,1.53188 -0.38297,0 -1.834224,1.14891 -3.211572,2.60016 -1.53188,1.53188 -2.983134,2.44563 -3.44001,2.14329 -0.611408,-0.38297 0,-0.99438 1.531879,-1.68641 1.303442,-0.5375 1.988756,-1.14891 1.451255,-1.37735 -1.53188,-0.45688 -0.994378,-2.7547 0.994378,-4.28658 1.222816,-0.92047 1.914849,-2.21719 1.914849,-3.59454 0,-1.22281 0.38297,-2.21719 0.76594,-2.21719 0.456876,0 0.76594,-0.61141 0.76594,-1.45126 0,-0.76594 0.839846,-2.06266 1.914849,-2.8286 0.994378,-0.76594 2.062663,-2.37172 2.29782,-3.52063 0.309063,-1.14891 0.765939,-2.14329 1.068284,-2.14329 0.839846,0 3.137666,-4.36048 3.137666,-6.04689 0,-0.92048 0.38297,-1.60579 0.76594,-1.60579 0.456876,0 0.765939,-0.68532 0.765939,-1.45126 0,-0.83984 0.537502,-1.98875 1.14891,-2.68078 0.611408,-0.61141 1.14891,-1.45126 1.14891,-1.83423 0,-0.38297 0.537501,-1.14891 1.14891,-1.67969 0.611408,-0.5375 1.148909,-1.67969 1.148909,-2.52626 0,-0.84656 0.839847,-2.29782 1.91485,-3.2922 1.068284,-0.99437 1.914849,-2.21719 1.914849,-2.75469 0,-0.5375 0.537502,-1.67969 1.14891,-2.44563 0.611408,-0.83985 1.14891,-2.14329 1.14891,-2.82861 0,-0.76594 0.309063,-1.45125 0.685314,-1.60578 0.920472,-0.30907 5.428767,-9.03003 5.428767,-10.48128 0,-0.76594 0.309063,-1.60579 0.685314,-2.06267 0.38297,-0.38297 0.839846,-1.91485 0.994378,-3.3661 0.154532,-1.60579 0.611408,-2.60016 1.222816,-2.44563 0.611408,0.0739 0.920472,-0.76594 0.920472,-2.52626 0,-4.66955 2.983134,-2.90923002 4.20595,2.52626 0.228438,1.37734 0.839846,2.44563 1.222816,2.44563 0.38297,0 0.685315,0.76594 0.685315,1.76032 0,0.92047 1.377348,4.43439 3.063759,7.80049 1.686411,3.3661 3.063759,6.50377 3.063759,6.96065 0,0.45687 0.537502,1.30344 1.14891,1.83422 0.611408,0.53078 1.14891,1.76032 1.14891,2.7547 0,0.99437 0.309063,1.83422 0.685314,1.83422 0.376251,0 0.920472,1.22282 1.14891,2.68079 0.309063,1.45125 0.839846,2.68079 1.14891,2.68079 0.38297,0 0.839846,1.30344 1.148909,2.90923 0.228439,1.60578 1.068285,3.59454 1.834225,4.43438 0.765939,0.83985 1.679686,2.60017 1.914846,3.97752 0.30906,1.37734 1.06828,3.05704 1.67969,3.67516 0.61141,0.68532 0.92047,1.53188 0.68532,1.91485 -0.22844,0.45688 0.22844,0.99438 0.99438,1.14891 1.068281,0.30907 1.451251,0.99438 1.303441,2.68079 -0.0739,1.22282 0.15453,2.2172 0.5375,2.2172 0.38297,0 0.68531,0.83984 0.68531,1.83422 0,1.06828 0.5375,2.37173 1.14891,3.06376 0.61141,0.61141 1.14891,1.30344 1.14891,1.60579 0,0.30234 0.5375,0.99437 1.14891,1.60578 0.61141,0.68532 1.14891,1.83423 1.14891,2.68079 0,0.76594 0.30907,1.45126 0.68532,1.45126 0.37625,0 0.92047,0.83984 1.14891,1.91485 0.30906,1.06828 0.83984,1.91484 1.22281,1.91484 0.45688,0 0.76594,0.83985 0.76594,1.91485 0,1.22282 0.45688,1.91485 1.14891,1.91485 0.61141,0 1.14891,0.45688 1.14891,0.99438 0,0.68532 -0.76594,0.92047 -2.29782,0.68532 -1.22281,-0.15454 -2.29782,-0.61141 -2.29782,-0.99438 0,-0.38297 -0.45687,-0.68532 -0.99438,-0.68532 -0.5375,0 -1.60578,-0.92047 -2.44563,-2.06266 -0.83984,-1.14219 -2.14329,-2.68079 -2.8286,-3.44001 -0.76594,-0.76594 -1.37735,-1.60579 -1.37735,-1.83422 0,-0.83985 -4.897981,-4.89799 -5.892357,-4.89799 -0.537502,0 -0.994378,-0.30906 -0.994378,-0.76594 0,-0.38297 -0.456877,-0.76594 -0.994378,-0.76594 -0.611409,0 -1.91485,-0.68531 -2.909228,-1.60578 -0.994378,-0.83985 -2.680789,-2.29782 -3.749074,-3.13767 -1.303441,-0.99438 -1.451254,-1.37735 -0.537501,-1.06828 0.839846,0.30906 1.222816,0.15453 0.920471,-0.38297 -0.456876,-0.68532 -4.669545,-0.45688 -5.428766,0.30906 -0.228438,0.15453 0,1.22282 0.456876,2.37173 0.38297,1.14891 0.839846,4.36048 0.920472,7.18908 0,2.8286 0.309063,5.50939 0.611408,5.89236 0.685314,0.99438 1.760318,12.543946 1.605786,17.8249 -0.07391,2.297819 0.228438,4.515013 0.611408,5.052515 0.537502,0.611408 0.839846,7.652683 0.839846,18.281773 l 0.07391,17.36802 1.988756,1.53188 c 1.068284,0.83985 2.445632,1.53188 2.983134,1.53188 0.611408,0 1.068284,0.38297 1.068284,0.76594 0,0.45688 2.062663,0.76594 4.58892,0.76594 5.811741,0 7.498151,-1.37735 7.800501,-6.6583 0.22843,-3.44001 0.38297,-3.67517 2.14328,-3.44001 1.06829,0.15453 2.44564,0.76594 3.13767,1.37735 0.61141,0.6114 1.60579,1.06828 2.06266,1.06828 0.5375,0 0.92047,0.30906 0.92047,0.61141 0,0.38297 2.29782,1.14891 5.05252,1.67969 3.3661,0.68532 4.58892,1.22282 3.67517,1.53188 -1.30345,0.45688 -1.30345,0.61141 0.22843,1.37735 0.92048,0.5375 2.44564,0.92047 3.44001,0.92047 0.99438,0 2.14329,0.30906 2.60017,0.68532 0.83985,0.76593 8.18346,3.13766 9.71534,3.13766 0.61141,0 2.14329,0.5375 3.2922,1.14891 1.22281,0.61141 4.13204,1.14891 6.42314,1.22282 2.29782,0 3.74908,0.22843 3.2922,0.45687 -0.5375,0.15453 -0.99438,0.83985 -0.99438,1.45126 0,0.68531 0.38297,0.92047 0.76594,0.68531 0.45688,-0.22844 0.76594,-0.0739 0.76594,0.30907 0,0.45687 -1.14891,0.83984 -2.60016,0.83984 -1.45126,0 -2.90923,0.38297 -3.13767,0.76594 -0.22844,0.45688 -1.45125,0.76594 -2.75469,0.76594 -2.52626,0 -11.6302,2.98314 -12.01317,3.90361 -0.15453,0.38297 -0.99437,0.68531 -1.83422,0.68531 -0.92047,0 -2.68079,0.83985 -3.97751,1.83423 -1.29672,0.99437 -3.13767,1.98875 -4.05814,2.29782 -0.99438,0.30906 -1.76032,0.92047 -1.76032,1.30344 0,0.38297 -0.5375,0.68531 -1.14891,0.68531 -0.6114,0 -1.14891,0.30906 -1.14891,0.76594 0,0.38297 -0.83984,0.92047 -1.91485,1.22282 -1.06828,0.22844 -1.91484,0.76594 -1.91484,1.06828 0,0.30235 -0.68532,0.76594 -1.60579,0.99438 -0.92047,0.22844 -1.45126,0.68531 -1.22282,1.06828 0.22844,0.30907 -0.45687,0.68532 -1.53188,0.68532 -1.53188,0.15453 -1.83422,-0.15453 -1.53188,-1.37735 0.45688,-1.60579 -0.76594,-5.96627 -1.67969,-5.96627 -0.30906,0 -1.76032,-0.99438 -3.13766,-2.29782 -2.371731,-2.14328 -2.983141,-2.29782 -8.566442,-2.29782 -5.583298,0 -6.194706,0.15454 -7.881117,1.98876 -3.366104,3.59454 -2.29782,9.64144 1.679692,10.48128 1.14891,0.22844 2.909228,1.14891 3.822981,1.98876 0.920471,0.92047 1.988756,1.60578 2.297819,1.60578 0.38297,0 0.76594,1.06829 0.839846,2.29782 0.07391,1.30344 -0.154531,2.29782 -0.611408,2.29782 -0.38297,0 -0.537501,-0.61141 -0.309063,-1.30344 0.154532,-0.76594 -0.07391,-0.5375 -0.611408,0.5375 -0.537502,0.99438 -1.760318,2.68079 -2.68079,3.67517 -0.920471,0.99438 -1.914849,2.52626 -2.143287,3.2922 -0.309064,0.83984 -0.839847,1.45125 -1.222816,1.45125 -0.38297,0 -0.685315,0.76594 -0.685315,1.67969 0,2.14329 -2.371726,8.49253 -3.366104,9.17784 -0.537502,0.38297 -0.76594,3.13767 -0.611408,7.11518 0.154532,4.74345 0,6.50377 -0.611408,6.1208 -0.537502,-0.30906 -0.76594,-1.14891 -0.537502,-1.91485 0.154532,-0.76594 0.07391,-1.83422 -0.309063,-2.37172 -0.456877,-0.68532 -0.685315,0 -0.685315,2.14328 0,2.90923 -1.914849,7.95503 -3.211572,8.49253 -0.38297,0.15453 -0.611408,1.14891 -0.611408,2.14329 0,1.14891 -0.456876,1.83422 -1.14891,1.83422 -0.611408,0 -1.148909,-0.38297 -1.148909,-0.83984 z M 69.35391,153.2545 c -0.228439,-0.76594 -0.38297,-0.30906 -0.38297,0.92047 0,1.30345 0.154531,1.83423 0.38297,1.37735 0.154531,-0.5375 0.154531,-1.60578 0,-2.29782 z m 10.017686,-7.80721 c 0.154532,-2.90923 -0.154532,-5.20033 -0.685315,-5.89236 -0.920471,-1.14891 -4.97189,-1.53188 -5.428766,-0.45688 -0.07391,0.30907 -1.222816,1.06829 -2.445632,1.6797 -3.749074,1.91485 -4.132044,3.29219 -1.686412,6.50377 2.526258,3.29219 4.434389,4.13204 7.65268,3.52063 2.297819,-0.5375 2.371726,-0.61141 2.600164,-5.35486 z m -13.847385,1.68641 c -0.228439,-0.76594 -0.38297,-0.30906 -0.38297,0.92047 0,1.30345 0.154531,1.83423 0.38297,1.37735 0.154531,-0.5375 0.154531,-1.60578 0,-2.29782 z m 21.883034,1.29673 c -0.228438,-0.83985 -0.685314,-1.30345 -1.068284,-1.06829 -1.068285,0.61141 -0.76594,2.60017 0.38297,2.60017 0.685314,0 0.920471,-0.53751 0.685314,-1.53188 z m -27.009456,-0.30235 c 0,-0.22844 -0.309064,-0.61141 -0.76594,-0.83984 -0.38297,-0.22844 -0.76594,-0.0739 -0.76594,0.30906 0,0.45687 0.38297,0.83984 0.76594,0.83984 0.456876,0 0.76594,-0.15453 0.76594,-0.30906 z m 25.249138,-2.75469 c 0,-0.38297 -0.309063,-0.76594 -0.765939,-0.76594 -0.38297,0 -0.76594,0.38297 -0.76594,0.76594 0,0.45687 0.38297,0.76594 0.76594,0.76594 0.456876,0 0.765939,-0.30907 0.765939,-0.76594 z m -22.722881,-1.30345 c -0.537501,-0.15453 -1.605786,-0.15453 -2.297819,0 -0.76594,0.22844 -0.309063,0.38297 0.920472,0.38297 1.303441,0 1.834224,-0.15453 1.377347,-0.38297 z m 55.389544,-10.70972 c -0.30906,-0.22843 -0.76594,-0.22843 -1.06829,0 -0.22843,0.30907 0,0.53751 0.53751,0.53751 0.5375,0 0.76594,-0.22844 0.5375,-0.53751 z M 97.203209,57.162652 c -1.14891,-1.14891 -1.60578,-0.38297 -1.06828,1.68641 0.38297,1.60579 0.5375,1.60579 1.22281,0.45688 0.45688,-0.83985 0.38297,-1.60579 -0.15453,-2.14329 z m -34.050724,0.45688 c -0.76594,-0.83985 -1.451255,-0.53751 -1.686412,0.76594 -0.154531,1.14891 0,1.22281 0.920472,0.45687 0.611408,-0.45687 0.920471,-1.06828 0.76594,-1.22281 z" />
    <path
       style="fill:#ffffff;stroke-width:6.71877003"
       inkscape:connector-curvature="0"
       id="path6"
       d="m 34.389429,74.678482 c 0,-1.60578 1.605786,-2.37172 2.29782,-1.14891 0.38297,0.53751 0.456876,1.30345 0.309063,1.60579 -0.685314,1.06828 -2.600164,0.68531 -2.600164,-0.45688 z" />
    <path
       style="fill:#ffffff;stroke-width:6.71877003"
       inkscape:connector-curvature="0"
       id="path8"
       d="m 39.744289,68.100812 c 0,-0.5375 0.228438,-0.76594 0.537502,-0.5375 0.228438,0.30906 0.228438,0.76594 0,1.06828 -0.309064,0.22844 -0.537502,0 -0.537502,-0.5375 z" />
    <path
       style="fill:#ffffff;stroke-width:6.71877003"
       inkscape:connector-curvature="0"
       id="path10"
       d="m 101.25463,56.470622 c -0.30906,-0.53751 -0.22844,-0.61141 0.30907,-0.30907 0.5375,0.30235 0.92047,0.68532 0.92047,0.92047 0,0.61141 -0.68532,0.30907 -1.22282,-0.6114 z" />
    <path
       style="fill:#ffffff;stroke-width:6.71877003"
       inkscape:connector-curvature="0"
       id="path12"
       d="m 98.882909,53.030612 c 0.30906,-0.22844 0.76594,-0.22844 1.06828,0 0.228441,0.30906 0,0.5375 -0.5375,0.5375 -0.5375,0 -0.76594,-0.22844 -0.5375,-0.5375 z" />
  </g>
</svg>
