<?xml version="1.0" encoding="UTF-8" standalone="no"?>
<!-- Created with Inkscape (http://www.inkscape.org/) -->

<svg
   xmlns:dc="http://purl.org/dc/elements/1.1/"
   xmlns:cc="http://creativecommons.org/ns#"
   xmlns:rdf="http://www.w3.org/1999/02/22-rdf-syntax-ns#"
   xmlns:svg="http://www.w3.org/2000/svg"
   xmlns="http://www.w3.org/2000/svg"
   xmlns:sodipodi="http://sodipodi.sourceforge.net/DTD/sodipodi-0.dtd"
   xmlns:inkscape="http://www.inkscape.org/namespaces/inkscape"
   width="215"
   height="215"
   viewBox="0 0 56.885415 56.885418"
   version="1.1"
   id="svg8"
   inkscape:version="0.92.3 (2405546, 2018-03-11)"
   sodipodi:docname="destruction.svg">
  <defs
     id="defs2" />
  <sodipodi:namedview
     id="base"
     pagecolor="#ffffff"
     bordercolor="#666666"
     borderopacity="1.0"
     inkscape:pageopacity="0.0"
     inkscape:pageshadow="2"
     inkscape:zoom="1.4"
     inkscape:cx="0.39126429"
     inkscape:cy="157.49363"
     inkscape:document-units="px"
     inkscape:current-layer="layer1"
     showgrid="false"
     units="px"
     inkscape:window-width="1920"
     inkscape:window-height="1017"
     inkscape:window-x="-8"
     inkscape:window-y="-8"
     inkscape:window-maximized="1" />
  <metadata
     id="metadata5">
    <rdf:RDF>
      <cc:Work
         rdf:about="">
        <dc:format>image/svg+xml</dc:format>
        <dc:type
           rdf:resource="http://purl.org/dc/dcmitype/StillImage" />
        <dc:title></dc:title>
      </cc:Work>
    </rdf:RDF>
  </metadata>
  <g
     inkscape:label="Layer 1"
     inkscape:groupmode="layer"
     id="layer1"
     transform="translate(0,-240.11457)">
    <path
       style="fill:#ffffff;fill-opacity:1;stroke-width:0.10872404"
       d="m 27.429413,294.97728 c -0.281961,-0.10202 -0.782893,-0.4224 -1.113179,-0.71194 -0.330285,-0.28955 -0.758268,-0.63274 -0.951075,-0.76268 -0.46012,-0.31007 -0.946159,-1.01228 -1.069874,-1.54572 -0.186702,-0.80502 -0.121301,-2.35848 0.221657,-5.26511 0.05292,-0.44848 0.250187,-1.37807 0.438376,-2.06575 0.252132,-0.92134 0.366748,-1.634 0.435614,-2.70852 0.107059,-1.67045 0.178059,-1.81088 0.89089,-1.76204 0.188871,0.0129 0.627372,0.73532 0.627372,1.03352 0,0.0878 0.174639,0.49332 0.388082,0.90131 0.213447,0.40797 0.436703,1.01087 0.496123,1.33976 0.11217,0.62087 0.485446,1.80807 0.800758,2.54681 0.337275,0.7902 0.07026,8.1031 -0.323678,8.8649 -0.197565,0.38205 -0.17131,0.37782 -0.841066,0.13546 z m 9.724288,-0.15832 c -0.184398,-0.22598 -0.384231,-1.77615 -0.322341,-2.50052 0.03192,-0.37381 0.187098,-1.11902 0.344795,-1.65601 0.157696,-0.537 0.384042,-1.58301 0.502997,-2.3245 0.208381,-1.29894 0.336576,-1.89578 0.936257,-4.35893 0.392261,-1.61121 0.364027,-1.55457 0.662765,-1.32923 0.353027,0.26628 0.443241,1.00089 0.521806,4.24903 0.03702,1.53062 0.134861,3.35765 0.21742,4.06006 l 0.150103,1.27712 -0.274375,0.4081 c -0.150908,0.22447 -0.602112,0.731 -1.002687,1.12566 -0.40057,0.39465 -0.822487,0.82274 -0.9376,0.95133 -0.23191,0.25907 -0.628026,0.30758 -0.79914,0.0979 z m -5.800903,-0.3252 c -0.07233,-0.13508 -0.16753,-0.56362 -0.211557,-0.95231 -0.04403,-0.38869 -0.138005,-1.07365 -0.208841,-1.52214 -0.195053,-1.23499 -0.09858,-3.36615 0.194405,-4.2946 0.220067,-0.69735 0.553694,-1.96326 1.117508,-4.24023 0.313927,-1.2678 0.623296,-2.17633 1.055129,-3.09864 0.209988,-0.44849 0.449385,-1.13058 0.531997,-1.51576 0.08261,-0.38519 0.161321,-0.71146 0.174914,-0.72505 0.0136,-0.0136 0.155137,-0.0575 0.314547,-0.0975 0.416503,-0.10454 0.532921,0.18787 0.623937,1.56717 0.04205,0.63716 0.112586,1.21694 0.156752,1.28839 0.04417,0.0715 0.125583,1.46432 0.18093,3.09523 0.05535,1.63091 0.158068,3.18545 0.228269,3.45454 0.0702,0.26909 0.132824,1.02744 0.139164,1.68523 0.01081,1.12156 -0.0072,1.22784 -0.289673,1.70835 -0.365872,0.6224 -2.330893,2.94567 -2.886041,3.4122 -0.559873,0.4705 -0.951444,0.55258 -1.12144,0.23508 z m -20.783382,-3.20834 c -2.1567417,-2.18492 -2.4371741,-2.50689 -2.5949609,-2.97931 -0.06685,-0.20017 -0.2305173,-0.48626 -0.3636938,-0.63576 -0.1331764,-0.1495 -0.4684262,-0.61428 -0.7449913,-1.03288 -0.2765697,-0.41858 -0.7162472,-1.05462 -0.9770623,-1.4134 -0.2608141,-0.3588 -0.5605311,-0.8236 -0.6660358,-1.03288 -0.1055093,-0.2093 -0.3055606,-0.50286 -0.4445601,-0.65235 -0.3266073,-0.35127 -1.0298361,-1.7621 -1.4594428,-2.92797 -0.1857586,-0.50412 -0.5555297,-1.26599 -0.8217154,-1.69307 -0.2661847,-0.42707 -0.5790098,-1.05274 -0.6951706,-1.39036 -0.2825274,-0.82119 -0.6502531,-2.9488 -0.82294842,-4.76147 -0.1525434,-1.60121 -0.5135823,-3.48588 -0.7994264,-4.17316 -0.1538175,-0.36983 -0.1794102991242,-0.9204 -0.1794102991242,-3.8597 0,-2.43031 0.040514999124,-3.58659 0.1391929991242,-3.97195 0.076562,-0.299 0.2131389,-1.13074 0.303518,-1.84831 0.090379,-0.71759 0.2332124,-1.84827 0.3174105,-2.51265 0.084191,-0.66439 0.25340192,-1.59096 0.37600552,-2.05905 0.1226073,-0.4681 0.2237445,-1.00089 0.2247513,-1.18397 0.00121,-0.18308 0.1757448,-0.74875 0.3883125,-1.25703 0.212563,-0.50829 0.4656236,-1.11986 0.5623596,-1.35905 0.096732,-0.2392 0.2576834,-0.55721 0.3576651,-0.70671 0.099983,-0.1495 0.243359,-0.46751 0.318607,-0.7067 0.075254,-0.2392 0.3320237,-0.85077 0.5706077,-1.35906 0.2385792,-0.50828 0.6052925,-1.2911 0.8149145,-1.73958 0.488196,-1.04449 0.4037418,-0.90243 1.2377521,-2.08222 0.3951872,-0.55903 0.7985439,-1.17246 0.8963521,-1.36317 0.3206412,-0.6252 0.8482197,-0.82087 0.9919822,-0.36791 0.074197,0.23377 -0.2225404,1.83203 -0.3740246,2.01455 -0.1403466,0.16911 -0.5741693,1.49511 -0.8763477,2.67859 -0.1283649,0.50276 -0.2751105,1.46719 -0.3260941,2.14319 -0.050985,0.67599 -0.1674688,1.45881 -0.2588622,1.73958 -0.2885888,0.88664 -0.391045,2.26589 -0.3890351,5.23715 0.00122,1.95604 0.05178,3.19889 0.1568089,3.86255 0.164325,1.03832 0.4879324,2.24687 0.7154742,2.67204 0.075543,0.14115 0.2970209,0.84529 0.4921821,1.56477 0.3196512,1.17842 0.7819254,2.44113 1.3623329,3.72126 0.1137367,0.25087 0.2067988,0.49234 0.2067988,0.53661 0,0.0443 0.090987,0.18151 0.2021958,0.30496 0.3267596,0.36274 0.9426213,1.64132 1.5400174,3.19719 0.3063326,0.79783 0.7571586,1.82527 1.0018396,2.2832 0.244682,0.45794 0.603884,1.14306 0.798227,1.5225 0.194343,0.37944 0.460216,0.80364 0.590826,0.94267 0.130612,0.13903 0.526538,0.87532 0.879844,1.63619 0.853986,1.83917 0.955783,2.00088 2.391465,3.79906 0.334529,0.419 0.69468,0.92898 0.800335,1.13328 0.499379,0.9657 0.421127,3.5709 -0.144794,4.82061 -0.183281,0.40472 -0.388545,0.94126 -0.456142,1.1923 -0.07149,0.2655 -0.438144,0.86728 -0.876499,1.4386 -0.414478,0.5402 -1.00358,1.31243 -1.309115,1.71607 -0.860913,1.13735 -0.861904,1.13699 -3.057446,-1.08725 z m 33.277185,1.19598 c -0.199344,-0.22854 -0.479427,-1.09225 -0.572925,-1.76677 -0.03731,-0.2691 -0.156521,-0.75835 -0.264935,-1.08724 -0.369825,-1.12191 -0.432812,-1.35963 -0.662626,-2.50066 -0.126458,-0.62788 -0.373469,-1.69142 -0.548914,-2.36343 -0.503705,-1.92937 -0.41222,-2.44182 0.571166,-3.19935 0.695688,-0.53591 3.412621,-3.55118 4.011413,-4.45189 1.175922,-1.76883 1.379814,-2.15806 1.944496,-3.71198 0.103265,-0.28419 0.263374,-0.60221 0.355791,-0.70671 0.09242,-0.10452 0.303099,-0.60589 0.46818,-1.11417 0.165085,-0.50829 0.4333,-1.19325 0.59604,-1.52214 0.162738,-0.32889 0.352594,-0.86707 0.4219,-1.19596 0.06931,-0.3289 0.217117,-0.89154 0.328474,-1.25033 0.111353,-0.35879 0.251523,-0.89697 0.311485,-1.19597 0.05996,-0.29899 0.184132,-0.74285 0.275929,-0.98635 0.229226,-0.60805 0.672824,-5.70796 0.661311,-7.60285 -0.01389,-2.28542 -0.446406,-6.95413 -0.743813,-8.02891 -0.08528,-0.30816 -0.186104,-0.95169 -0.224073,-1.43008 -0.03797,-0.47838 -0.16006,-1.35905 -0.271314,-1.95703 -0.292057,-1.56981 -0.310541,-1.94696 -0.09741,-1.988 0.324106,-0.0625 0.830657,0.51377 1.293819,1.47167 0.252966,0.52317 0.727951,1.40431 1.055516,1.95809 0.327566,0.55377 0.73206,1.38552 0.898871,1.84831 0.583986,1.62017 0.662662,1.82647 1.025814,2.68975 0.51837,1.2323 0.929234,2.50192 1.055527,3.26172 0.05964,0.3588 0.155721,0.80738 0.213521,0.99687 0.0578,0.1895 0.154061,0.92339 0.213916,1.63086 0.05986,0.70749 0.201736,1.67775 0.315291,2.15613 0.615682,2.59375 0.508528,9.92678 -0.164432,11.25294 -0.158375,0.31209 -0.333149,1.03218 -0.482669,1.98863 -0.12892,0.82466 -0.308445,1.67661 -0.398947,1.8932 -0.0905,0.21661 -0.229876,0.76503 -0.309718,1.21872 -0.186786,1.06136 -0.61359,2.28927 -1.018278,2.92956 -0.175449,0.2776 -0.353351,0.67597 -0.395335,0.88526 -0.04198,0.2093 -0.213414,0.6007 -0.380961,0.86979 -0.167547,0.2691 -0.537556,1.00299 -0.822249,1.63086 -0.284694,0.62788 -0.803167,1.58022 -1.152162,2.11629 -0.348994,0.53609 -0.634538,1.03219 -0.634538,1.10247 0,0.0703 -0.216184,0.42143 -0.480405,0.78035 -0.264226,0.35892 -0.553542,0.79241 -0.64293,0.9633 -0.361064,0.69028 -3.24966,3.66537 -3.99639,4.11605 -0.198161,0.11959 -0.460516,0.27789 -0.583013,0.35175 -0.330897,0.19953 -0.975701,0.17046 -1.170419,-0.0527 z m -24.276278,-0.41096 c -0.522888,-0.17811 -1.301338,-0.98961 -1.613465,-1.68198 -0.206669,-0.45844 -0.22145,-0.72214 -0.23464,-4.18588 -0.0078,-2.03314 -0.06736,-4.0597 -0.132497,-4.50347 -0.139918,-0.95333 -0.103143,-1.09582 0.28282,-1.09582 0.303499,0 0.773628,0.26642 0.773628,0.43841 0,0.055 0.243767,0.6142 0.541703,1.24277 0.297937,0.62857 0.599526,1.37587 0.670198,1.66069 0.07067,0.28481 0.191118,0.61568 0.267657,0.73528 0.07654,0.1196 0.269691,0.75564 0.429224,1.41342 0.234987,0.96888 0.306477,1.59851 0.376519,3.31608 0.04756,1.16606 0.120587,2.22798 0.162298,2.35982 0.07981,0.25227 0.05548,0.26492 -0.762377,0.39638 -0.179395,0.0289 -0.521875,-0.0142 -0.761068,-0.0957 z m 10.459008,-11.64497 c -0.134744,-0.13475 -0.08106,-0.56202 0.141584,-1.12686 0.159451,-0.40454 0.217449,-0.80805 0.217449,-1.51289 0,-1.0977 -0.185331,-1.68665 -0.561743,-1.78508 -0.134303,-0.0351 -0.250895,-0.0536 -0.259089,-0.041 -0.0081,0.0126 -0.10818,0.31643 -0.222195,0.67521 -0.184415,0.58035 -0.242003,0.65631 -0.521674,0.68823 -0.40311,0.046 -0.496164,-0.11106 -0.504297,-0.85131 -0.0037,-0.32889 -0.06808,-0.74219 -0.143277,-0.91845 l -0.136715,-0.32046 -0.25276,0.25277 c -0.224052,0.22405 -0.246177,0.3254 -0.194778,0.89226 0.05128,0.5655 0.03123,0.65824 -0.173431,0.80158 -0.127281,0.0892 -0.294642,0.1621 -0.371913,0.1621 -0.227209,0 -0.550566,-0.63981 -0.626006,-1.23865 -0.124314,-0.98678 -0.251574,-1.26201 -0.583521,-1.26201 -0.211699,0 -0.348375,0.0915 -0.486973,0.32617 -0.252468,0.42739 -0.454798,0.41147 -0.910459,-0.0717 -0.506034,-0.53654 -0.891133,-1.43456 -1.061847,-2.47612 -0.0932,-0.56866 -0.205568,-0.90951 -0.329769,-1.00033 -0.136128,-0.0995 -0.478745,-0.12082 -1.235011,-0.0768 -1.031541,0.0601 -1.052885,0.0564 -1.481515,-0.26055 -0.239192,-0.17687 -0.679525,-0.68186 -0.978516,-1.12218 -0.600402,-0.8842 -0.687347,-1.38686 -0.347416,-2.00853 0.751346,-1.37409 0.725741,-1.25662 0.726888,-3.33467 l 10e-4,-1.92469 -0.416362,-0.79342 c -0.228999,-0.43637 -0.442897,-0.89704 -0.475329,-1.02369 -0.12162,-0.47498 -2.280189,-1.20133 -4.000891,-1.3463 -1.12793,-0.095 -1.506337,-0.17556 -2.158636,-0.45943 -0.525906,-0.22888 -1.961006,-1.52494 -2.59446,-2.34312 -0.3533427,-0.45639 -0.4239895,-0.61347 -0.9622484,-2.13951 -0.1467081,-0.41594 -0.3763167,-0.97859 -0.510242,-1.25033 -0.2327319,-0.47222 -0.2433909,-0.61419 -0.2411389,-3.21216 0.00206,-2.35149 0.028559,-2.78409 0.1966485,-3.20736 0.1068649,-0.26909 0.3361734,-0.89606 0.5095765,-1.39328 0.3644949,-1.04514 0.5640853,-1.39122 1.4329373,-2.48458 0.480102,-0.60418 0.698545,-0.79727 0.901966,-0.79727 0.196175,0 0.286932,0.0737 0.337156,0.27382 0.08455,0.33691 0.04199,0.51712 -0.397558,1.68321 -0.325334,0.86308 -0.349193,1.02115 -0.361044,2.39193 l -0.0127,1.46778 0.407717,0.8359 c 0.224242,0.45975 0.407971,0.949 0.408287,1.08724 3.24e-4,0.13824 0.08594,0.38119 0.190267,0.53991 0.231384,0.35199 1.32429,1.75663 1.73721,2.23271 0.315063,0.36327 2.236153,1.33842 2.636726,1.33842 0.121761,0 0.67343,0.102 1.225931,0.22667 0.749174,0.16904 1.239481,0.21395 1.9287,0.17664 1.035902,-0.0561 1.438145,-0.20128 3.261721,-1.17758 0.841169,-0.45034 1.301792,-0.62891 1.750304,-0.67854 0.334787,-0.037 0.824045,-0.14342 1.087241,-0.2364 0.622485,-0.21989 2.423753,-0.38949 3.282679,-0.30909 0.371266,0.0348 1.025727,0.18059 1.454359,0.32404 0.428632,0.14346 0.90277,0.26085 1.053642,0.26085 0.150871,0 0.307056,0.053 0.347076,0.11773 0.08085,0.13081 2.403306,1.29401 2.592718,1.29855 0.108862,0.003 1.269604,1.09655 1.71743,1.61858 0.101314,0.1181 0.370404,0.24385 0.597983,0.27946 0.227578,0.0356 0.731796,0.14291 1.120487,0.23846 1.319876,0.32448 1.373469,0.31899 2.927934,-0.30036 1.297929,-0.51713 1.481535,-0.62436 1.89133,-1.10453 0.249616,-0.29249 0.833024,-0.95012 1.296462,-1.46141 0.463433,-0.51128 0.84261,-0.97578 0.84261,-1.03223 0,-0.0565 0.126101,-0.36917 0.280224,-0.69496 0.154121,-0.32578 0.32147,-0.87317 0.371882,-1.2164 0.05042,-0.34325 0.168221,-0.9421 0.261793,-1.33079 0.239619,-0.99538 0.21717,-1.43707 -0.144465,-2.84227 -0.407005,-1.5815 -0.442185,-1.93849 -0.205709,-2.08774 0.134598,-0.085 0.262273,-0.0737 0.481354,0.0424 0.393433,0.20857 1.723418,2.96053 1.873877,3.87737 0.361808,2.20469 0.377633,2.46565 0.193966,3.19802 -0.09755,0.38899 -0.177373,0.83848 -0.177373,0.99886 0,0.16039 -0.09686,0.57313 -0.215242,0.91722 -0.118384,0.34407 -0.287085,0.99253 -0.374896,1.44102 -0.253097,1.29269 -0.526818,2.1418 -1.223259,3.79464 -0.204197,0.48461 -1.412581,1.94174 -1.680891,2.02689 -0.115137,0.0366 -0.337217,0.18497 -0.493521,0.32982 -0.1563,0.14485 -0.362658,0.26396 -0.458573,0.26468 -0.286661,0.002 -1.982715,0.6003 -2.62272,0.92494 -0.976325,0.49526 -2.214325,1.9242 -2.509977,2.89711 -0.06059,0.19938 -0.154101,1.02312 -0.207805,1.83054 -0.05501,0.82694 -0.174299,1.68157 -0.273171,1.95703 -0.09654,0.26895 -0.203195,0.85595 -0.237006,1.30443 -0.06565,0.87069 -0.265313,1.41342 -0.519989,1.41342 -0.08608,0 -0.33375,0.15562 -0.550377,0.34582 -0.334518,0.29371 -0.486626,0.34857 -1.00948,0.36409 -0.33859,0.01 -0.823547,0.0746 -1.077692,0.14344 -0.254142,0.0689 -0.659988,0.17672 -0.901884,0.23972 -0.510817,0.13307 -0.601755,0.30306 -0.703886,1.31589 -0.104207,1.03343 -0.49358,2.93039 -0.674575,3.28642 -0.08767,0.17245 -0.200088,0.60145 -0.249826,0.95335 -0.06208,0.43919 -0.179797,0.746 -0.375418,0.97848 -0.15674,0.18627 -0.381491,0.52785 -0.499443,0.75906 -0.117952,0.2312 -0.25839,0.42037 -0.312086,0.42037 -0.05369,0 -0.165331,0.026 -0.248096,0.0578 -0.08276,0.0318 -0.184617,0.0236 -0.226342,-0.0181 z m -0.315057,-8.21567 c 0.190575,-0.19058 0.158654,-0.88721 -0.08774,-1.915 -0.119176,-0.49712 -0.216685,-1.04655 -0.216685,-1.22095 0,-0.50421 -0.308416,-1.14828 -0.617234,-1.28898 -0.225718,-0.10284 -0.328499,-0.095 -0.535995,0.0409 -0.267829,0.17549 -0.312296,0.30065 -0.425727,1.19834 -0.03777,0.29899 -0.15755,0.69658 -0.266157,0.88355 -0.374846,0.64527 -0.477282,1.78759 -0.186388,2.07849 0.143113,0.14311 0.219665,0.14787 0.501461,0.0311 0.342482,-0.14186 0.411131,-0.13303 1.149507,0.1479 0.536664,0.20417 0.526009,0.20348 0.684959,0.0445 z m 3.961618,-2.52845 c 0.447128,-0.0941 0.669118,-0.53029 0.74606,-1.46595 0.05093,-0.61931 0.02724,-0.9069 -0.09596,-1.16599 -0.146623,-0.3083 -0.221049,-0.34851 -0.718725,-0.38833 -0.823261,-0.0658 -1.300941,0.11266 -1.370113,0.51202 -0.04912,0.28354 -0.113924,0.33301 -0.529078,0.40389 -0.260211,0.0444 -0.539985,0.13627 -0.621722,0.2041 -0.21009,0.17435 -0.297732,0.7573 -0.165964,1.10387 0.139336,0.36648 0.849974,0.74218 1.585798,0.8384 0.55415,0.0725 0.640567,0.0694 1.169704,-0.042 z M 25.4431,269.29414 c 0.15093,-0.16678 0.192506,-0.36665 0.17358,-0.83446 -0.01369,-0.33833 -0.07865,-0.71668 -0.144351,-0.84076 -0.176166,-0.33267 -1.371606,-1.61844 -1.644112,-1.76833 -0.396028,-0.21783 -1.050535,0.0265 -1.050535,0.39204 0,0.0999 -0.195703,0.36718 -0.434897,0.59383 -0.516604,0.48954 -0.568828,0.91825 -0.20373,1.67244 0.27336,0.56468 0.587561,0.72849 1.671505,0.87144 1.232489,0.16253 1.416223,0.15282 1.63254,-0.0862 z"
       id="path826"
       inkscape:connector-curvature="0" />
  </g>
</svg>
