<?xml version="1.0" encoding="UTF-8" standalone="no"?>
<!-- Generated by IcoMoon.io -->

<svg
   xmlns:dc="http://purl.org/dc/elements/1.1/"
   xmlns:cc="http://creativecommons.org/ns#"
   xmlns:rdf="http://www.w3.org/1999/02/22-rdf-syntax-ns#"
   xmlns:svg="http://www.w3.org/2000/svg"
   xmlns="http://www.w3.org/2000/svg"
   xmlns:sodipodi="http://sodipodi.sourceforge.net/DTD/sodipodi-0.dtd"
   xmlns:inkscape="http://www.inkscape.org/namespaces/inkscape"
   version="1.1"
   width="215"
   height="215"
   viewBox="0 0 215 215"
   id="svg16"
   sodipodi:docname="wild_creatures.svg"
   inkscape:version="0.92.3 (2405546, 2018-03-11)">
  <metadata
     id="metadata22">
    <rdf:RDF>
      <cc:Work
         rdf:about="">
        <dc:format>image/svg+xml</dc:format>
        <dc:type
           rdf:resource="http://purl.org/dc/dcmitype/StillImage" />
        <dc:title>twists-wild-creatures</dc:title>
      </cc:Work>
    </rdf:RDF>
  </metadata>
  <defs
     id="defs20" />
  <sodipodi:namedview
     pagecolor="#ffffff"
     bordercolor="#666666"
     borderopacity="1"
     objecttolerance="10"
     gridtolerance="10"
     guidetolerance="10"
     inkscape:pageopacity="0"
     inkscape:pageshadow="2"
     inkscape:window-width="1920"
     inkscape:window-height="1017"
     id="namedview18"
     showgrid="false"
     fit-margin-top="0"
     fit-margin-left="0"
     fit-margin-right="0"
     fit-margin-bottom="0"
     inkscape:zoom="1.3037281"
     inkscape:cx="-353.55738"
     inkscape:cy="-20.505959"
     inkscape:window-x="-8"
     inkscape:window-y="-8"
     inkscape:window-maximized="1"
     inkscape:current-layer="svg16" />
  <title
     id="title2">twists-wild-creatures</title>
  <g
     id="g835"
     transform="matrix(6.7204687,0,0,6.7204687,0.01008023,-0.06005941)"
     style="fill:#000000;fill-opacity:1">
    <path
       id="path4"
       d="m 20.043,31.88 c 0,-0.08 0.034,-0.114 0.08,-0.08 0.034,0.046 0.034,0.114 0,0.16 -0.046,0.034 -0.08,0 -0.08,-0.08 z"
       inkscape:connector-curvature="0"
       style="fill:#000000;fill-opacity:1" />
    <path
       id="path6"
       d="m 20.443,31.88 c -0.046,-0.069 0,-0.251 0.103,-0.4 0.103,-0.149 0.183,-0.377 0.183,-0.514 0,-0.183 -0.069,-0.229 -0.343,-0.229 -0.194,0 -0.377,0.069 -0.411,0.16 -0.069,0.183 -0.377,0.114 -0.526,-0.091 -0.069,-0.091 -0.126,-0.069 -0.194,0.046 -0.137,0.206 -0.091,0.263 0.286,0.274 0.469,0.023 0.446,0.24 -0.023,0.274 -0.217,0.011 -0.503,0.08 -0.617,0.137 -0.263,0.137 -3.783,0.149 -3.555,0.011 0.217,-0.137 -0.091,-0.217 -0.983,-0.263 -0.389,-0.011 -0.674,-0.069 -0.652,-0.114 0.034,-0.057 -0.217,-0.091 -0.549,-0.091 -0.366,0 -0.709,-0.069 -0.846,-0.171 -0.114,-0.091 -0.309,-0.171 -0.411,-0.171 -0.102,0 -0.332,-0.08 -0.514,-0.171 -0.171,-0.091 -0.492,-0.229 -0.686,-0.309 -0.206,-0.08 -0.377,-0.217 -0.377,-0.286 0,-0.08 -0.103,-0.149 -0.229,-0.149 -0.286,0 -1.006,-0.446 -1.486,-0.914 -0.194,-0.183 -0.423,-0.343 -0.514,-0.343 -0.091,0 -0.171,-0.08 -0.171,-0.171 0,-0.091 -0.046,-0.171 -0.103,-0.171 -0.183,0 -2.069,-1.897 -2.069,-2.08 0,-0.103 -0.046,-0.206 -0.114,-0.229 C 5.551,25.881 5.459,25.584 5.425,25.195 5.414,25.138 5.368,25.149 5.322,25.218 5.265,25.309 5.231,25.195 5.219,24.955 5.208,24.726 5.139,24.498 5.059,24.452 4.968,24.383 4.91,24.018 4.91,23.298 L 4.899,22.235 5.505,22.224 c 0.469,-0.011 0.594,0.011 0.594,0.16 0,0.103 0.126,0.32 0.263,0.48 0.149,0.149 0.297,0.354 0.32,0.423 0.126,0.366 2.526,2.835 2.857,2.938 0.114,0.046 0.217,0.126 0.217,0.183 0,0.057 0.069,0.103 0.16,0.103 0.08,0 0.217,0.08 0.297,0.171 0.08,0.091 0.183,0.137 0.24,0.103 0.057,-0.034 0.194,0 0.297,0.057 0.16,0.091 0.171,0.114 0.034,0.126 -0.332,0.011 1.246,0.8 1.589,0.8 0.137,0 0.24,0.057 0.24,0.114 0,0.069 0.309,0.114 0.686,0.114 0.423,0 0.686,0.046 0.686,0.126 0,0.069 -0.08,0.103 -0.171,0.057 -0.091,-0.034 -0.171,-0.023 -0.171,0.034 0,0.137 1.36,0.24 1.68,0.114 0.149,-0.057 0.492,-0.103 0.743,-0.103 0.514,0 1.234,-0.217 1.234,-0.366 0,-0.046 0.08,-0.091 0.171,-0.091 0.137,0 0.171,-0.16 0.171,-0.8 0,-0.64 0.034,-0.8 0.171,-0.8 0.091,0 0.171,-0.057 0.171,-0.126 0,-0.16 0.286,-0.446 0.446,-0.446 0.069,0 0.126,-0.08 0.126,-0.171 0,-0.091 0.057,-0.171 0.126,-0.171 0.08,0 0.251,-0.126 0.4,-0.286 0.149,-0.16 0.366,-0.286 0.491,-0.286 0.126,0 0.263,-0.057 0.309,-0.137 0.057,-0.08 0.034,-0.091 -0.069,-0.034 -0.091,0.057 -0.126,0.046 -0.08,-0.023 0.046,-0.057 0.537,-0.126 1.097,-0.126 0.812,-0.011 1.052,0.023 1.166,0.171 0.149,0.171 0.137,0.171 -0.103,0.046 -0.149,-0.08 -0.354,-0.126 -0.457,-0.091 -0.114,0.023 -0.023,0.091 0.24,0.171 0.24,0.069 0.526,0.091 0.629,0.057 0.171,-0.069 0.171,-0.057 0.034,0.114 -0.137,0.171 -0.126,0.194 0.034,0.194 0.126,0 0.183,-0.103 0.183,-0.343 0,-0.229 -0.057,-0.343 -0.171,-0.343 -0.091,0 -0.171,-0.08 -0.171,-0.171 0,-0.103 -0.08,-0.297 -0.171,-0.446 -0.126,-0.183 -0.183,-0.56 -0.183,-1.132 0,-0.777 0.034,-0.914 0.297,-1.28 0.331,-0.423 0.343,-0.377 -0.171,-0.994 -0.206,-0.263 -1.052,-0.286 -1.257,-0.034 -0.08,0.091 -0.24,0.171 -0.354,0.171 -0.137,0 -0.24,0.114 -0.286,0.286 -0.034,0.16 -0.114,0.286 -0.171,0.286 -0.16,0 -0.126,0.64 0.046,0.777 0.08,0.069 0.126,0.331 0.103,0.697 -0.034,0.469 -0.091,0.583 -0.286,0.652 -0.137,0.046 -0.491,0.331 -0.777,0.629 -0.297,0.309 -0.594,0.56 -0.652,0.56 -0.069,0 -0.183,0.103 -0.251,0.229 -0.068,0.126 -0.171,0.206 -0.24,0.171 -0.057,-0.046 -0.103,0 -0.103,0.091 0,0.206 -0.263,0.434 -0.537,0.48 -0.114,0.011 -0.194,0.091 -0.171,0.16 0.011,0.091 -0.149,0.126 -0.526,0.114 -0.572,-0.023 -1.052,0.229 -1.052,0.56 0,0.126 -0.229,0.514 -0.526,0.926 -0.023,0.023 -0.126,0 -0.24,-0.046 -0.194,-0.08 -0.194,-0.091 0.023,-0.171 0.171,-0.08 0.114,-0.103 -0.251,-0.103 -0.411,-0.011 -0.492,-0.046 -0.492,-0.24 0,-0.126 -0.046,-0.229 -0.091,-0.229 -0.057,0 -0.194,-0.229 -0.32,-0.514 -0.16,-0.389 -0.263,-0.514 -0.457,-0.514 -0.137,0 -0.274,0.08 -0.32,0.171 -0.034,0.091 -0.194,0.171 -0.354,0.171 h -0.286 v -1.189 c 0,-0.949 0.034,-1.2 0.171,-1.257 0.091,-0.034 0.171,-0.171 0.171,-0.297 0,-0.343 0.606,-0.914 0.96,-0.914 0.16,0 0.286,0.034 0.274,0.091 -0.034,0.114 0.366,0.72 0.64,0.972 0.263,0.24 0.789,0.251 1.029,0.023 0.091,-0.091 0.217,-0.171 0.286,-0.171 0.069,0 0.126,-0.08 0.126,-0.171 0,-0.091 0.034,-0.171 0.091,-0.171 0.046,0 0.183,-0.183 0.297,-0.4 l 0.217,-0.4 -0.411,-0.389 c -0.24,-0.217 -0.423,-0.446 -0.423,-0.514 0,-0.068 -0.057,-0.126 -0.126,-0.126 -0.217,0 -1.223,-1.12 -1.44,-1.6 -0.046,-0.091 -0.103,-0.194 -0.149,-0.229 -0.034,-0.034 -0.149,-0.194 -0.263,-0.366 -0.286,-0.446 -0.251,-0.983 0.08,-1.292 0.149,-0.137 0.309,-0.366 0.354,-0.491 0.034,-0.137 0.149,-0.251 0.24,-0.251 0.091,0 0.194,-0.08 0.229,-0.171 0.046,-0.091 0.137,-0.171 0.229,-0.171 0.092,0 0.16,-0.046 0.16,-0.114 0,-0.057 0.069,-0.114 0.16,-0.114 0.08,0 0.217,-0.08 0.297,-0.171 0.08,-0.091 0.286,-0.171 0.457,-0.171 0.183,0 0.343,-0.057 0.366,-0.126 0.023,-0.069 0.286,-0.149 0.583,-0.183 0.297,-0.034 0.572,-0.114 0.606,-0.16 0.034,-0.057 0.194,-0.103 0.366,-0.103 0.172,0 0.56,-0.091 0.857,-0.194 0.697,-0.251 0.686,-0.503 -0.034,-1.029 -0.286,-0.206 -0.56,-0.423 -0.629,-0.469 -0.411,-0.297 -0.766,-0.48 -0.972,-0.48 -0.194,0 -0.229,-0.069 -0.229,-0.457 0,-0.251 -0.046,-0.457 -0.114,-0.457 -0.057,0 -0.114,-0.08 -0.114,-0.171 0,-0.091 0.057,-0.171 0.114,-0.171 0.069,0 0.114,-0.183 0.114,-0.4 0,-0.251 0.069,-0.434 0.171,-0.469 0.091,-0.046 0.171,-0.194 0.171,-0.343 0,-0.149 0.057,-0.274 0.114,-0.274 0.069,0 0.114,-0.126 0.114,-0.286 0,-0.217 -0.057,-0.286 -0.251,-0.286 -0.526,0 -0.892,0.56 -0.892,1.36 0,0.309 -0.069,0.697 -0.16,0.857 -0.171,0.332 -0.114,1.326 0.08,1.452 0.149,0.103 -0.263,0.297 -0.572,0.263 -0.206,-0.011 -0.263,0.046 -0.263,0.274 0,0.228 0.046,0.274 0.274,0.229 0.286,-0.057 0.423,0.08 0.332,0.343 -0.034,0.091 -0.286,0.137 -0.72,0.137 -0.366,0 -0.709,0.057 -0.743,0.114 -0.034,0.069 -0.263,0.114 -0.503,0.114 -0.229,0 -0.526,0.08 -0.652,0.171 -0.114,0.091 -0.332,0.171 -0.469,0.171 -0.149,0 -0.263,0.046 -0.263,0.103 0,0.057 -0.137,0.137 -0.297,0.171 -0.297,0.08 -0.96,0.674 -0.96,0.869 0,0.069 -0.034,0.114 -0.091,0.114 -0.091,0 -0.343,0.663 -0.446,1.154 -0.034,0.183 0.011,0.366 0.126,0.48 0.103,0.091 0.183,0.229 0.183,0.297 0,0.068 0.057,0.126 0.114,0.126 0.069,0 0.114,0.069 0.114,0.16 0,0.251 -0.537,0.297 -0.754,0.057 -0.114,-0.126 -0.24,-0.217 -0.297,-0.217 -0.149,0 -0.434,-0.297 -0.434,-0.446 0,-0.069 -0.08,-0.126 -0.171,-0.126 -0.091,0 -0.171,-0.08 -0.171,-0.171 0,-0.229 -0.149,-0.217 -0.377,0.034 -0.137,0.149 -0.194,0.423 -0.194,0.914 0,0.64 -0.023,0.709 -0.229,0.709 -0.457,0 -1.417,-0.823 -1.314,-1.109 0.023,-0.08 -0.034,-0.149 -0.137,-0.149 -0.16,0 -0.171,-0.149 -0.103,-1.28 0.08,-1.143 0.114,-1.314 0.411,-1.737 0.343,-0.492 0.732,-0.869 0.903,-0.869 0.057,0 0.126,-0.08 0.171,-0.171 0.034,-0.091 0.194,-0.171 0.354,-0.171 0.16,0 0.286,-0.046 0.286,-0.114 0,-0.057 0.046,-0.114 0.114,-0.114 0.057,0 0.446,-0.149 0.834,-0.343 0.4,-0.183 0.892,-0.343 1.086,-0.343 0.4,0 0.411,-0.034 0.366,-0.903 -0.011,-0.309 0.034,-0.537 0.126,-0.594 0.091,-0.046 0.171,-0.389 0.194,-0.834 0.023,-0.411 0.091,-0.754 0.149,-0.754 0.058,0 0.103,-0.103 0.103,-0.229 0,-0.126 0.08,-0.263 0.171,-0.297 0.091,-0.046 0.171,-0.194 0.171,-0.343 0,-0.24 -0.046,-0.274 -0.457,-0.274 -0.389,0 -0.457,0.034 -0.457,0.24 0,0.126 -0.08,0.309 -0.171,0.4 -0.091,0.103 -0.171,0.274 -0.171,0.4 0,0.114 -0.046,0.217 -0.114,0.217 -0.057,0 -0.114,0.171 -0.114,0.377 0,0.251 -0.08,0.411 -0.229,0.514 -0.137,0.08 -0.206,0.194 -0.171,0.251 0.103,0.171 0.286,0.137 0.286,-0.046 0,-0.091 0.08,-0.183 0.171,-0.229 0.126,-0.046 0.171,0.023 0.171,0.263 0,0.263 -0.08,0.354 -0.457,0.537 -0.251,0.114 -0.457,0.263 -0.457,0.309 0,0.057 -0.046,0.057 -0.114,0.023 -0.057,-0.034 -0.114,-0.011 -0.114,0.057 0,0.068 -0.057,0.091 -0.114,0.057 -0.069,-0.046 -0.251,0 -0.4,0.103 -0.149,0.103 -0.4,0.183 -0.549,0.183 -0.16,0 -0.343,0.08 -0.423,0.171 -0.08,0.091 -0.183,0.137 -0.24,0.103 -0.057,-0.034 -0.103,0.023 -0.103,0.114 0,0.103 -0.057,0.183 -0.126,0.183 -0.137,0 -1.052,0.674 -1.109,0.823 -0.023,0.057 -0.114,0.091 -0.206,0.091 -0.092,0 -0.16,0.08 -0.16,0.171 0,0.091 -0.08,0.171 -0.171,0.171 -0.103,0 -0.297,0.126 -0.446,0.286 -0.149,0.16 -0.309,0.286 -0.366,0.286 -0.057,0.011 -0.229,0.16 -0.389,0.343 -0.149,0.194 -0.343,0.343 -0.434,0.343 -0.08,0 -0.229,0.08 -0.32,0.171 C 4.417,15.605 4.234,15.628 3.891,15.57 3.628,15.536 3.4,15.456 3.377,15.399 3.32,15.273 2.931,15.285 2.84,15.422 c -0.126,0.206 -0.4,0.126 -0.4,-0.114 0,-0.217 0.366,-0.686 0.526,-0.686 0.171,0 0.377,-0.423 0.389,-0.766 0,-0.263 -0.057,-0.377 -0.183,-0.377 -0.126,0 -0.16,-0.091 -0.137,-0.309 0.034,-0.32 0.046,-0.32 0.88,-0.343 0.457,0 0.869,-0.057 0.914,-0.126 0.034,-0.057 0.183,-0.137 0.332,-0.183 0.137,-0.046 0.251,-0.137 0.251,-0.194 0,-0.057 0.08,-0.103 0.171,-0.103 0.091,0 0.171,-0.08 0.171,-0.171 0,-0.091 0.08,-0.171 0.171,-0.171 0.091,0 0.171,-0.091 0.171,-0.217 0,-0.114 0.08,-0.274 0.171,-0.354 0.091,-0.08 0.171,-0.251 0.171,-0.389 0,-0.217 -0.057,-0.24 -0.537,-0.206 -0.309,0.023 -0.594,0.091 -0.663,0.149 -0.057,0.057 -0.217,0.103 -0.354,0.103 -0.137,0 -0.309,0.08 -0.389,0.171 -0.08,0.091 -0.217,0.171 -0.309,0.171 -0.092,0 -0.229,0.069 -0.32,0.149 -0.08,0.069 -0.32,0.263 -0.526,0.423 -0.206,0.16 -0.434,0.354 -0.514,0.434 -0.08,0.069 -0.183,0.137 -0.24,0.137 -0.046,0 -0.183,0.137 -0.297,0.297 -0.171,0.229 -0.194,0.4 -0.137,0.903 l 0.08,0.629 H 1.878 c -0.24,0 -0.354,-0.057 -0.354,-0.171 0,-0.103 -0.103,-0.171 -0.274,-0.171 -0.16,0 -0.32,-0.057 -0.354,-0.114 C 0.862,13.754 0.725,13.709 0.61,13.709 0.381,13.709 0.176,13.252 0.313,13.046 0.347,13 0.267,12.863 0.153,12.76 c -0.206,-0.171 -0.206,-0.537 0,-0.537 0.046,0 0.114,-0.114 0.16,-0.263 0.034,-0.137 0.24,-0.377 0.469,-0.526 0.217,-0.149 0.4,-0.309 0.4,-0.366 0,-0.057 0.08,-0.103 0.171,-0.103 0.149,0 0.194,-0.16 0.16,-0.537 C 1.502,10.291 1.033,10.382 0.941,10.531 0.884,10.611 0.781,10.6 0.598,10.462 0.449,10.359 0.392,10.279 0.472,10.279 c 0.069,0 0.137,-0.126 0.137,-0.274 0,-0.148 0.08,-0.332 0.171,-0.411 C 0.883,9.514 0.951,9.262 0.951,8.977 0.951,8.645 0.985,8.554 1.054,8.668 1.145,8.805 1.18,8.771 1.237,8.531 1.283,8.36 1.351,8.222 1.408,8.222 1.454,8.222 1.579,8.028 1.705,7.799 1.911,7.388 1.968,7.307 2.299,6.919 2.368,6.828 2.436,6.668 2.436,6.565 2.436,6.474 2.482,6.394 2.539,6.394 2.596,6.394 2.768,6.2 2.905,5.971 3.054,5.731 3.282,5.411 3.419,5.262 3.556,5.113 3.739,4.862 3.83,4.702 4.013,4.348 4.904,3.422 5.064,3.422 c 0.057,0 0.114,-0.057 0.114,-0.126 0,-0.08 0.114,-0.24 0.263,-0.377 C 5.59,2.782 5.738,2.587 5.784,2.473 5.83,2.359 5.955,2.244 6.058,2.199 6.172,2.153 6.309,2.062 6.355,1.97 6.538,1.684 6.869,1.81 7.132,2.279 7.303,2.576 7.475,2.736 7.624,2.736 7.875,2.736 9.018,2.199 9.27,1.959 9.35,1.89 9.499,1.822 9.59,1.822 c 0.091,0 0.16,-0.046 0.16,-0.114 0,-0.057 0.08,-0.114 0.171,-0.114 0.091,0 0.171,-0.08 0.171,-0.171 0,-0.103 0.103,-0.171 0.286,-0.171 0.16,0 0.286,-0.046 0.286,-0.091 0,-0.137 0.834,-0.48 1.166,-0.48 0.16,0 0.32,-0.08 0.366,-0.171 0.034,-0.091 0.16,-0.171 0.286,-0.171 0.126,0 0.263,-0.046 0.297,-0.114 0.08,-0.137 1.349,-0.16 1.475,-0.034 0.126,0.126 0.343,0.114 0.434,-0.011 0.034,-0.057 0.183,-0.126 0.32,-0.149 0.251,-0.034 0.251,-0.034 0.069,0.251 -0.32,0.492 -0.206,0.686 0.389,0.652 0.286,-0.023 0.56,-0.091 0.629,-0.149 0.057,-0.057 0.263,-0.103 0.457,-0.103 0.194,0 0.411,-0.057 0.48,-0.126 0.194,-0.194 1.737,-0.251 2.492,-0.103 0.377,0.08 1.017,0.137 1.429,0.137 0.412,0 0.652,0.023 0.549,0.057 -0.114,0.023 -0.206,0.08 -0.206,0.114 0,0.034 0.091,0.137 0.206,0.217 0.343,0.263 0.034,0.56 -0.617,0.594 -0.812,0.046 -0.96,0.114 -0.686,0.32 0.126,0.091 0.183,0.16 0.114,0.16 -0.057,0.011 0.057,0.091 0.24,0.206 0.251,0.137 0.743,0.217 1.829,0.263 1.669,0.091 2.16,0.171 2.355,0.4 0.069,0.091 0.297,0.16 0.491,0.16 0.251,0 0.309,0.034 0.194,0.103 -0.126,0.08 -0.103,0.114 0.091,0.183 0.217,0.069 0.926,0.686 0.926,0.812 0,0.206 -0.4,0.389 -0.846,0.389 -0.572,0 -0.743,0.137 -0.48,0.411 0.103,0.091 0.183,0.251 0.183,0.343 0,0.092 0.057,0.16 0.114,0.16 0.069,0 0.114,0.069 0.114,0.149 0.011,0.194 0.537,0.766 0.72,0.766 0.08,0 0.251,0.08 0.377,0.171 0.114,0.091 0.331,0.171 0.48,0.171 0.137,0 0.251,0.057 0.251,0.114 0,0.069 0.091,0.114 0.217,0.114 0.114,0 0.274,0.069 0.343,0.16 0.08,0.091 0.263,0.194 0.411,0.229 0.16,0.046 0.286,0.126 0.286,0.183 0,0.069 0.069,0.114 0.149,0.114 0.08,0 0.274,0.126 0.446,0.286 0.171,0.16 0.343,0.286 0.377,0.286 0.149,0 0.514,0.48 0.514,0.686 0,0.343 -0.469,0.526 -0.903,0.343 -0.183,-0.069 -0.4,-0.103 -0.457,-0.057 -0.16,0.091 -0.16,1.2 -0.011,1.2 0.057,0 0.137,0.126 0.183,0.286 0.034,0.16 0.114,0.286 0.171,0.286 0.057,0 0.103,0.114 0.103,0.263 0,0.251 0.354,0.652 0.583,0.652 0.057,0 0.091,0.046 0.057,0.103 -0.034,0.057 0.046,0.126 0.171,0.16 0.137,0.034 0.206,0.114 0.171,0.171 -0.126,0.194 0.034,0.423 0.457,0.652 0.274,0.149 0.354,0.24 0.251,0.309 -0.114,0.069 -0.114,0.091 0,0.091 0.069,0 0.137,0.08 0.137,0.171 0,0.091 0.08,0.171 0.171,0.171 0.091,0 0.171,0.08 0.171,0.171 0,0.091 0.08,0.171 0.183,0.171 0.091,0 0.137,0.057 0.103,0.114 -0.034,0.069 0.011,0.114 0.103,0.114 0.092,0 0.206,0.046 0.24,0.114 0.034,0.069 -0.011,0.08 -0.103,0.046 -0.194,-0.08 -0.251,0.126 -0.069,0.24 0.149,0.091 0.149,0.629 -0.011,0.629 -0.057,0 -0.08,-0.069 -0.034,-0.137 0.069,-0.114 0.046,-0.114 -0.091,0 -0.149,0.114 -0.24,0.103 -0.526,-0.057 -0.343,-0.194 -0.366,-0.194 -0.526,0.023 -0.194,0.251 -0.24,0.743 -0.08,0.743 0.057,0 0.137,0.263 0.183,0.572 0.046,0.32 0.126,0.572 0.183,0.572 0.057,0 0.103,0.274 0.103,0.606 0,0.32 0.069,0.72 0.149,0.88 0.08,0.16 0.16,0.491 0.183,0.743 0.011,0.24 0.114,0.514 0.217,0.606 0.114,0.08 0.137,0.126 0.057,0.091 -0.08,-0.046 -0.114,0.057 -0.091,0.331 0.023,0.217 0,0.4 -0.046,0.4 -0.046,0 -0.069,0.149 -0.034,0.32 0.034,0.309 0.023,0.32 -0.446,0.354 -0.274,0.011 -0.514,0.046 -0.549,0.069 -0.023,0.034 -0.034,0.674 -0.023,1.429 0.023,1.086 -0.011,1.429 -0.149,1.623 -0.103,0.137 -0.183,0.377 -0.183,0.514 0,0.149 -0.046,0.263 -0.114,0.263 -0.057,0 -0.114,0.16 -0.114,0.343 0,0.194 -0.046,0.343 -0.114,0.343 -0.057,0 -0.103,-0.069 -0.08,-0.137 0.011,-0.08 -0.091,-0.16 -0.229,-0.183 -0.149,-0.023 -0.263,-0.114 -0.263,-0.206 0,-0.092 -0.046,-0.16 -0.103,-0.16 -0.183,0 -0.812,0.583 -0.812,0.754 0,0.091 -0.046,0.16 -0.091,0.16 -0.057,0 -0.194,0.206 -0.32,0.457 -0.114,0.251 -0.286,0.457 -0.354,0.457 -0.08,0 -0.149,0.08 -0.149,0.171 0,0.091 -0.046,0.171 -0.103,0.171 -0.057,0 -0.126,0.137 -0.149,0.32 -0.023,0.171 -0.091,0.297 -0.171,0.286 -0.069,-0.023 -0.24,0.103 -0.354,0.251 -0.126,0.16 -0.286,0.286 -0.354,0.286 -0.183,0 -1.474,1.337 -1.554,1.612 -0.046,0.114 -0.194,0.251 -0.354,0.286 -0.149,0.034 -0.274,0.114 -0.274,0.171 0,0.057 -0.08,0.103 -0.171,0.103 -0.091,0 -0.171,0.046 -0.171,0.103 0,0.057 -0.114,0.149 -0.251,0.194 -0.149,0.034 -0.331,0.126 -0.423,0.206 -0.091,0.069 -0.366,0.126 -0.617,0.137 -0.263,0 -0.491,0.069 -0.514,0.137 -0.023,0.08 -0.183,0.137 -0.366,0.137 -0.183,0 -0.4,0.08 -0.503,0.171 -0.194,0.194 -0.48,0.229 -0.583,0.057 z m 6.538,-4.08 c -0.046,-0.034 -0.08,0 -0.08,0.08 0,0.08 0.034,0.114 0.08,0.08 0.034,-0.046 0.034,-0.114 0,-0.16 z m -5.395,-0.629 c 0.069,-0.046 0.023,-0.091 -0.08,-0.091 -0.114,0 -0.206,0.08 -0.206,0.194 0,0.103 0.034,0.137 0.091,0.08 0.046,-0.057 0.137,-0.137 0.194,-0.183 z m 0.252,0.172 c -0.046,-0.034 -0.114,-0.034 -0.16,0 -0.034,0.046 0,0.08 0.08,0.08 0.08,0 0.114,-0.034 0.08,-0.08 z M 21.929,26.6 c 0.069,-0.046 0.023,-0.091 -0.08,-0.091 -0.114,0 -0.206,0.08 -0.206,0.194 0,0.103 0.034,0.137 0.091,0.08 0.046,-0.057 0.137,-0.137 0.194,-0.183 z m 1.2,0.205 c 0,-0.023 -0.126,-0.069 -0.286,-0.091 -0.149,-0.034 -0.251,-0.011 -0.217,0.034 0.057,0.103 0.503,0.149 0.503,0.057 z m -0.754,-0.48 c 0.034,-0.091 0.023,-0.137 -0.046,-0.103 -0.069,0.034 -0.114,0.114 -0.114,0.183 0,0.16 0.08,0.126 0.16,-0.08 z m 0.034,-0.468 c -0.046,-0.034 -0.114,-0.034 -0.16,0 -0.034,0.046 0,0.08 0.08,0.08 0.08,0 0.114,-0.034 0.08,-0.08 z m -0.251,-0.24 c -0.034,-0.034 -0.126,0 -0.206,0.08 -0.103,0.114 -0.091,0.126 0.069,0.057 0.114,-0.034 0.171,-0.103 0.137,-0.137 z m -4.572,-0.595 c 0.034,-0.057 0.046,-0.114 0.011,-0.114 -0.035,0 -0.091,0.057 -0.126,0.114 -0.034,0.069 -0.046,0.114 -0.011,0.114 0.035,0 0.091,-0.046 0.126,-0.114 z M 8.122,17.398 c -0.046,-0.034 -0.08,0 -0.08,0.08 0,0.08 0.034,0.114 0.08,0.08 0.034,-0.046 0.034,-0.114 0,-0.16 z m 2.171,-0.022 c -0.011,-0.137 -0.091,-0.194 -0.251,-0.183 -0.354,0.046 -0.354,0.057 -0.126,0.229 0.297,0.229 0.4,0.217 0.377,-0.046 z m 1.806,-2.755 c 0.034,-0.057 0.046,-0.114 0.011,-0.114 -0.035,0 -0.091,0.057 -0.126,0.114 -0.034,0.069 -0.046,0.114 -0.011,0.114 0.035,0 0.091,-0.046 0.126,-0.114 z M 30.73,14.175 c -0.023,-0.206 -0.24,-0.297 -0.343,-0.137 -0.091,0.16 0.011,0.32 0.206,0.32 0.091,0 0.16,-0.08 0.137,-0.183 z m -15.682,-0.24 c 0.034,-0.126 0.011,-0.206 -0.046,-0.16 -0.057,0.034 -0.103,0.137 -0.103,0.229 0,0.229 0.08,0.194 0.149,-0.069 z m -4.32,-2.629 c 0.034,-0.057 0.046,-0.114 0.011,-0.114 -0.035,0 -0.091,0.057 -0.126,0.114 -0.034,0.069 -0.046,0.114 -0.011,0.114 0.035,0 0.091,-0.046 0.126,-0.114 z m -0.435,-0.297 c -0.034,-0.034 -0.137,-0.046 -0.217,-0.011 -0.091,0.034 -0.057,0.069 0.069,0.069 0.126,0.011 0.194,-0.023 0.149,-0.057 z m -3.68,-0.937 c -0.034,-0.034 -0.126,0 -0.206,0.08 -0.103,0.114 -0.091,0.126 0.069,0.057 0.114,-0.034 0.171,-0.103 0.137,-0.137 z M 5.504,9.215 C 5.687,9.181 5.618,9.169 5.333,9.169 4.944,9.18 4.864,9.215 4.899,9.386 4.979,9.786 5.128,9.889 5.162,9.569 5.185,9.34 5.276,9.249 5.505,9.215 Z M 5.23,8.723 C 5.264,8.632 5.253,8.586 5.184,8.62 5.115,8.654 5.07,8.734 5.07,8.803 c 0,0.16 0.08,0.126 0.16,-0.08 z M 4.921,8.426 C 4.887,8.335 4.852,8.369 4.852,8.495 4.841,8.621 4.875,8.689 4.909,8.644 4.943,8.61 4.955,8.507 4.92,8.427 Z M 5.218,8.197 C 4.898,8.037 4.886,7.865 5.195,7.397 5.332,7.191 5.401,7.111 5.366,7.226 5.331,7.341 5.343,7.409 5.412,7.363 5.469,7.329 5.515,7.169 5.503,7.02 5.48,6.803 5.412,6.734 5.206,6.734 c -0.297,0 -0.937,0.332 -0.937,0.48 0,0.046 -0.08,0.091 -0.171,0.091 -0.091,0 -0.171,0.08 -0.171,0.171 0,0.091 -0.046,0.171 -0.114,0.171 -0.057,0 -0.114,0.08 -0.114,0.171 0,0.08 -0.091,0.217 -0.194,0.274 -0.171,0.103 -0.16,0.114 0.114,0.126 0.183,0 0.4,-0.069 0.492,-0.16 C 4.191,7.967 4.362,7.909 4.465,7.921 4.579,7.944 4.705,7.898 4.751,7.83 4.808,7.761 4.842,7.807 4.842,7.956 4.842,8.093 4.933,8.23 5.048,8.253 5.402,8.344 5.482,8.322 5.219,8.196 Z M 6.064,6.311 c -0.046,-0.034 -0.114,-0.034 -0.16,0 -0.034,0.046 0,0.08 0.08,0.08 0.08,0 0.114,-0.034 0.08,-0.08 z M 5.916,6.06 C 5.95,6.003 5.905,5.923 5.802,5.889 5.551,5.786 5.528,5.798 5.528,5.992 c 0,0.183 0.286,0.24 0.389,0.069 z M 24.238,4.425 C 24.204,4.334 24.169,4.368 24.169,4.494 24.158,4.62 24.192,4.688 24.226,4.643 24.26,4.609 24.272,4.506 24.237,4.426 Z M 19.277,2.334 C 19.243,2.231 19.186,2.174 19.163,2.208 19.129,2.242 19.14,2.311 19.186,2.379 19.289,2.562 19.357,2.528 19.277,2.333 Z M 19.769,2.162 C 19.758,1.785 19.678,1.739 19.483,1.979 c -0.091,0.114 -0.103,0.183 -0.011,0.24 0.069,0.034 0.091,0.126 0.057,0.183 -0.046,0.057 0,0.103 0.091,0.103 0.103,0 0.16,-0.114 0.149,-0.343 z"
       inkscape:connector-curvature="0"
       style="fill:#000000;fill-opacity:1" />
    <path
       id="path8"
       d="m 19.62,31.572 c 0.046,-0.034 0.114,-0.034 0.16,0 0.034,0.046 0,0.08 -0.08,0.08 -0.08,0 -0.114,-0.034 -0.08,-0.08 z"
       inkscape:connector-curvature="0"
       style="fill:#000000;fill-opacity:1" />
    <path
       id="path10"
       d="m 5.756,22.05 c -0.137,-0.091 -0.114,-0.114 0.091,-0.114 0.149,0 0.229,0.046 0.194,0.114 -0.08,0.137 -0.069,0.137 -0.286,0 z"
       inkscape:connector-curvature="0"
       style="fill:#000000;fill-opacity:1" />
    <path
       id="path12"
       d="M 5.333,20.153 C 5.059,19.867 4.841,19.559 4.841,19.479 c 0,-0.24 -0.354,-0.629 -0.572,-0.629 -0.343,0 -0.629,0.48 -0.629,1.063 0,0.297 -0.034,0.549 -0.08,0.572 C 3.526,20.496 3.331,20.394 3.149,20.256 2.795,19.993 2.795,20.005 2.555,17.901 2.406,16.598 2.498,16.495 3.675,16.495 c 0.492,0 0.88,-0.057 0.96,-0.137 0.08,-0.08 0.206,-0.137 0.286,-0.137 0.251,0 0.606,0.377 0.606,0.652 0,0.149 0.046,0.354 0.103,0.469 0.069,0.103 0.149,0.434 0.183,0.743 0.046,0.297 0.114,0.514 0.183,0.48 0.057,-0.046 0.103,0.137 0.103,0.4 0,0.263 0.08,0.617 0.183,0.8 0.126,0.194 0.16,0.423 0.114,0.617 -0.114,0.446 -0.503,0.366 -1.063,-0.229 z m 0.194,-0.731 c 0,-0.057 -0.023,-0.114 -0.046,-0.114 -0.034,0 -0.091,0.057 -0.126,0.114 -0.034,0.069 -0.011,0.114 0.046,0.114 0.069,0 0.126,-0.046 0.126,-0.114 z m -0.08,-0.378 c 0.034,-0.091 -0.011,-0.16 -0.091,-0.16 -0.08,0 -0.126,0.069 -0.091,0.16 0.034,0.08 0.069,0.149 0.091,0.149 0.022,0 0.057,-0.069 0.091,-0.149 z"
       inkscape:connector-curvature="0"
       style="fill:#000000;fill-opacity:1" />
    <path
       id="path14"
       d="m 21.758,0.905 c 0,-0.057 0.057,-0.114 0.126,-0.114 0.057,0 0.08,0.057 0.046,0.114 -0.034,0.069 -0.091,0.114 -0.126,0.114 -0.023,0 -0.046,-0.046 -0.046,-0.114 z"
       inkscape:connector-curvature="0"
       style="fill:#000000;fill-opacity:1" />
  </g>
</svg>
