<?xml version="1.0" encoding="UTF-8" standalone="no"?>
<!-- Generated by IcoMoon.io -->

<svg
   xmlns:dc="http://purl.org/dc/elements/1.1/"
   xmlns:cc="http://creativecommons.org/ns#"
   xmlns:rdf="http://www.w3.org/1999/02/22-rdf-syntax-ns#"
   xmlns:svg="http://www.w3.org/2000/svg"
   xmlns="http://www.w3.org/2000/svg"
   xmlns:sodipodi="http://sodipodi.sourceforge.net/DTD/sodipodi-0.dtd"
   xmlns:inkscape="http://www.inkscape.org/namespaces/inkscape"
   version="1.1"
   width="215"
   height="215"
   viewBox="0 0 215 215"
   id="svg6"
   sodipodi:docname="monster_of_order.svg"
   inkscape:version="0.92.3 (2405546, 2018-03-11)">
  <metadata
     id="metadata12">
    <rdf:RDF>
      <cc:Work
         rdf:about="">
        <dc:format>image/svg+xml</dc:format>
        <dc:type
           rdf:resource="http://purl.org/dc/dcmitype/StillImage" />
        <dc:title>monster-of-order</dc:title>
      </cc:Work>
    </rdf:RDF>
  </metadata>
  <defs
     id="defs10" />
  <sodipodi:namedview
     pagecolor="#ffffff"
     bordercolor="#666666"
     borderopacity="1"
     objecttolerance="10"
     gridtolerance="10"
     guidetolerance="10"
     inkscape:pageopacity="0"
     inkscape:pageshadow="2"
     inkscape:window-width="1920"
     inkscape:window-height="1017"
     id="namedview8"
     showgrid="false"
     fit-margin-top="0"
     fit-margin-left="0"
     fit-margin-right="0"
     fit-margin-bottom="0"
     inkscape:zoom="0.921875"
     inkscape:cx="-130.41844"
     inkscape:cy="-14.019516"
     inkscape:window-x="-8"
     inkscape:window-y="-8"
     inkscape:window-maximized="1"
     inkscape:current-layer="svg6" />
  <title
     id="title2">monster-of-order</title>
  <path
     d="m 67.835102,28.936976 c -0.853256,1.04809 -1.471363,1.9215 -2.203685,2.6807 -1.027939,1.06153 -1.518393,2.3179 -1.713231,3.74895 -0.06719,0.49717 -0.01344,0.92716 0.443424,1.16231 0.51061,0.26202 0.987627,0.0941 1.310118,-0.3628 0.315772,-0.43671 0.51061,-0.97419 0.866693,-1.37059 1.491519,-1.61917 1.504956,-3.56083 1.289962,-5.86529 z M 145.26641,195.62424 c -0.15453,-0.3628 -0.38968,-0.75919 -0.49717,-1.18246 -0.36952,-1.49152 -1.22278,-2.74789 -2.12307,-3.9102 -1.68635,-2.17009 -3.93707,-3.42646 -6.79917,-3.21819 -1.43105,0.1075 -2.12306,0.90029 -2.35149,2.33806 -0.10078,0.6517 -0.34265,1.3034 -0.64498,1.88791 -0.73904,1.44449 -1.67964,2.7882 -2.3179,4.273 -1.28325,2.99648 -3.2585,5.34125 -5.7914,7.37025 -2.70757,2.17681 -5.82498,3.63474 -8.7274,5.4689 -0.84653,0.53749 -1.79385,0.77936 -2.82851,0.81295 -0.94059,0.0336 -1.86775,0.30905 -2.80163,0.4703 -0.38296,0.0739 -0.76592,0.14781 -1.20934,0.24187 0.0202,-0.26203 -0.007,-0.40312 0.0537,-0.5039 1.07497,-2.02228 1.36387,-4.19237 1.23621,-6.44309 -0.0873,-1.49152 -0.0806,-2.99647 -0.30233,-4.46783 -0.12094,-0.80623 -0.49717,-1.63933 -0.98091,-2.31119 -0.92044,-1.28324 -2.19025,-1.5587 -3.72208,-1.06824 -1.63261,0.52404 -3.07038,1.30339 -4.30659,2.47242 -1.04809,0.98763 -2.008846,2.08275 -3.110688,3.00991 -1.558704,1.3034 -3.184594,2.51946 -4.810483,3.74224 -1.444489,1.08168 -2.983037,2.03572 -4.36034,3.19131 -1.222777,1.02122 -2.492583,1.92822 -3.930353,2.62695 -3.070378,1.4848 -6.328876,2.4254 -9.55378,3.45334 -0.262024,0.0873 -0.530766,0.13437 -0.779352,0.24858 -2.324619,1.03466 -4.743298,1.01451 -7.195569,0.63155 -2.049158,-0.32249 -4.105035,-0.62483 -6.160912,-0.9406 -0.309053,-0.0538 -0.624825,-0.13437 -0.933879,-0.16124 -0.644981,-0.0605 -0.78607,-0.41655 -0.765915,-1.02122 0.0739,-1.85432 0.100779,-3.70864 0.134371,-5.56297 0.03359,-1.96853 -0.873411,-3.50036 -2.378367,-4.6358 -1.431051,-1.08168 -1.981973,-2.3179 -1.538548,-4.10503 0.342646,-1.39074 0.409832,-2.84867 0.651699,-4.25956 0.228431,-1.33028 0.51061,-2.64711 0.772634,-3.96395 0.194838,-0.96747 0.382957,-1.93494 0.584514,-2.90241 0.497173,-2.37837 1.001064,-4.76346 1.511674,-7.1351 0.05375,-0.26875 0.107497,-0.53077 0.181401,-0.79279 0.893567,-2.98976 1.793853,-5.96608 2.680702,-8.95583 0.241868,-0.81967 0.36952,-1.67964 0.644981,-2.48587 0.826382,-2.43883 1.713231,-4.85079 2.559768,-7.28291 0.262024,-0.76591 0.41655,-1.57214 0.671855,-2.34477 0.772634,-2.31118 1.585578,-4.60893 2.344775,-6.92011 0.262023,-0.80623 0.396394,-1.65276 0.604669,-2.47914 0.100779,-0.38968 0.167964,-0.81295 0.356084,-1.16231 1.068249,-1.8812 2.109625,-3.76239 3.406305,-5.51594 1.934943,-2.61351 3.634737,-5.39499 5.415153,-8.12272 0.517328,-0.79951 0.907004,-1.67964 1.471363,-2.43884 0.624825,-0.81966 1.350429,-1.57214 2.089469,-2.29774 0.483736,-0.46358 1.101843,-0.79279 1.605734,-1.25637 2.613517,-2.4254 5.233752,-4.8508 7.813676,-7.30979 2.667265,-2.54633 4.702986,-5.61671 6.785737,-8.6199 1.175746,-1.69307 2.526172,-3.21818 3.802702,-4.81048 0.55764,-0.70545 1.122,-1.39746 1.73338,-2.05588 1.53183,-1.65276 3.13085,-3.24506 4.62237,-4.93813 0.58451,-0.658426 0.97419,-1.504963 1.39746,-2.284315 0.69201,-1.249651 1.37058,-2.50602 2.00884,-3.789263 0.29562,-0.591233 0.50389,-1.222777 0.6853,-1.867758 0.16796,-0.597951 0.16796,-1.256369 0.3628,-1.840883 0.96075,-2.902414 0.76591,-5.878732 -0.007,-8.693805 -0.5778,-2.10963 -1.65277,-4.18566 -3.59443,-5.56968 -1.06825,-0.7592 -2.19697,-1.4848 -3.09053,-2.4254 -1.53183,-1.61245 -3.38615,-1.73338 -5.37484,-1.55198 -1.169031,0.11421 -2.338059,0.22843 -3.500369,0.38967 -2.868821,0.38296 -5.489056,1.35715 -7.927891,2.94945 -1.820727,1.18918 -2.163373,2.94272 -2.143217,4.81048 0.02016,1.3773 0.389675,2.747888 0.624825,4.293155 -0.456862,0 -0.933879,0 -1.410896,0.0067 -0.591233,0 -1.222776,-0.134371 -1.760261,0.04031 -1.90135,0.624825 -3.628017,-0.04031 -5.374841,-0.591233 -1.316836,-0.41655 -2.116344,-0.214993 -2.821792,0.954035 -1.34371,2.217122 -1.303399,4.447681 0.02687,6.658084 0.255305,0.423269 0.550921,0.826382 0.826382,1.242932 0.02015,0.02688 -0.0067,0.08734 -0.01344,0.275461 -0.456861,-0.04031 -0.92716,-0.05375 -1.384021,-0.127652 -0.846538,-0.127653 -1.699794,-0.221713 -2.512739,-0.456862 -0.483735,-0.134371 -0.933878,-0.470298 -1.330273,-0.799508 -0.342646,-0.282179 -0.550921,-0.718885 -0.88013,-1.021219 -0.537484,-0.497173 -1.128717,-0.765915 -1.941661,-0.638263 -1.558704,0.248587 -3.137564,0.356083 -4.4544,0.497173 -3.406306,-1.316836 -5.166566,-3.89676 -6.550588,-6.81933 0.06719,-0.08734 0.134371,-0.181401 0.201557,-0.27546 0.671855,0.295616 1.336991,0.611388 2.015565,0.88013 0.456862,0.174682 0.940597,0.36952 1.417614,0.403113 1.11528,0.0739 1.558704,-0.685292 1.001065,-1.672919 -0.241868,-0.436707 -0.517329,-0.846537 -0.752478,-1.276527 -0.08734,-0.14781 -0.100778,-0.34264 -0.167964,-0.57108 1.336992,-0.77263 2.855385,0.55764 4.232688,-0.42998 -0.06719,-1.31684 -1.101843,-1.96854 -1.99541,-2.63367 -0.866693,-0.63827 -1.874476,-1.08841 -2.781481,-1.67292 -0.262023,-0.16797 -0.604669,-0.58452 -0.544202,-0.77264 0.100778,-0.32249 0.450143,-0.64498 0.772633,-0.79279 0.396395,-0.1814 0.873412,-0.21499 1.323555,-0.23515 0.671855,-0.0403 1.370584,-0.0941 2.029002,-0.007 1.666201,0.21499 2.64711,-0.57108 3.278654,-2.01557 0.22843,-0.51733 0.557639,-0.99435 0.806226,-1.43105 -0.752478,-1.44449 -2.626954,-0.97419 -3.38615,-2.30446 0.295616,-0.88685 1.068249,-1.37731 1.840883,-1.29669 1.242932,0.13438 2.485864,-0.0739 3.742233,0.38296 1.619171,0.58452 3.419743,-0.87341 3.473491,-2.60008 0.06719,-2.25071 -1.43777,-3.80942 -3.70864,-3.84301 -0.409832,-0.007 -0.812945,0 -1.222777,-0.0269 -1.968535,-0.1075 -3.211467,0.87341 -4.064723,2.5732 -0.41655,0.8331 -0.954035,1.62589 -1.538549,2.3515 -0.907004,1.12871 -1.780416,2.25071 -2.331337,3.62801 -0.376239,0.9406 -1.041375,1.7737 -1.545267,2.66727 -0.752478,1.33699 -1.370584,2.76132 -2.230559,4.01769 -0.859975,1.25637 -1.988691,2.33806 -2.9696,3.5138 -0.577795,0.69873 -1.558704,1.12872 -1.551985,2.23728 0,0.0739 -0.08734,0.16125 -0.161245,0.215 -1.874476,1.525107 -3.587707,3.245056 -5.697332,4.501426 -2.311182,1.370584 -4.763453,1.572141 -7.32994,1.189183 -0.342646,-0.05375 -0.678574,-0.262023 -0.97419,-0.46358 -2.270871,-1.619171 -3.795982,-3.695203 -3.863167,-6.611059 -0.0067,-0.16124 0.04703,-0.32249 0.100778,-0.67185 0.315772,0.34265 0.638262,0.53748 0.692011,0.78607 0.188119,0.88685 0.839819,1.464644 1.29668,2.170092 0.685292,1.061531 1.605734,1.53183 2.808355,1.605734 1.565422,0.100778 3.043504,-0.05375 4.440963,-0.893568 1.787134,-1.074968 3.500365,-2.203688 4.844075,-3.856448 0.792789,-0.97419 1.827446,-1.73339 2.653828,-2.6807 0.611388,-0.69201 1.121998,-1.49824 1.572141,-2.31118 1.11528,-2.01557 2.210404,-4.03785 3.245061,-6.10045 0.873411,-1.75354 1.699793,-3.53396 2.438834,-5.34797 0.288898,-0.71888 0.214994,-1.58557 0.456861,-2.33133 0.295617,-0.88013 0.638263,-1.79386 1.175747,-2.53962 0.571077,-0.78607 0.718885,-1.6326 0.765915,-2.51273 0.04703,-0.81967 -0.530766,-1.54527 -1.357148,-1.5923 -0.69201,-0.0403 -1.424333,0.0941 -2.102906,0.27546 -0.859975,0.22843 -1.679638,0.63826 -2.532894,0.88685 -1.538549,0.44342 -2.08947,1.10184 -2.102907,2.70086 -0.0067,0.85325 -0.0067,1.70651 -0.0067,2.72773 -0.530766,0 -1.175747,-0.007 -1.827446,0.007 -0.577796,0.007 -1.054813,-0.1814 -1.437771,-0.62483 -0.530765,-0.61811 -1.256369,-0.67857 -1.995409,-0.61139 -0.799508,0.0739 -1.25637,0.53749 -1.222777,1.337 0.03359,0.75247 0.208275,1.50495 0.342646,2.25071 0.147808,0.78607 0.322491,1.57214 0.55764,2.66726 -0.994345,-0.73904 -1.90135,-1.20933 -2.539612,-1.93494 -0.6517,-0.74576 -1.02122,-1.72667 -1.538549,-2.64711 -1.209339,0.71217 -1.336991,2.19697 -2.553049,2.80836 -1.054813,0.53076 -1.941662,1.38402 -3.070379,2.21712 -0.06719,-0.59123 -0.181401,-1.06825 -0.161245,-1.53183 0.100778,-2.11634 0.235149,-4.23269 0.389676,-6.34231 0.100778,-1.35043 0.228431,-2.69414 0.389676,-4.03785 0.05375,-0.44343 0.161245,-0.91373 0.376239,-1.28996 0.980909,-1.66621 1.316836,-3.5474 1.746824,-5.37485 0.201556,-0.84653 0.577795,-1.50495 0.967471,-2.21712 0.409832,-0.75248 0.772634,-1.52511 1.175747,-2.28431 0.08062,-0.1478 0.27546,-0.22843 0.342646,-0.28217 0.597951,0.22171 1.128716,0.41655 1.76026,0.65169 1.048094,-1.22277 2.102907,-2.50602 3.211468,-3.73551 1.323555,-1.47808 2.721013,-2.8957 4.037849,-4.37378 0.503892,-0.55764 0.900286,-1.22277 1.336992,-1.85432 0.577796,-0.84653 1.101843,-1.69307 2.062596,-2.25071 1.236213,-0.72561 1.981972,-1.90135 2.485864,-3.27866 1.115279,-3.05022 3.231623,-5.48905 4.924698,-7.97492 0.893567,0.81295 1.713231,1.57215 2.50602,2.29775 2.062595,-1.1959 3.117408,-2.99648 4.031131,-4.91798 0.288897,-0.61139 0.671855,-1.18247 0.97419,-1.78714 0.933878,-1.85432 1.847601,-3.71535 2.774762,-5.56968 0.1814,-0.3628 0.403113,-0.70544 0.611388,-1.06153 0.356083,-0.6181002 0.718885,-1.2227702 1.061531,-1.8543202 0.409832,-0.75247 0.718885,-1.57214 1.216058,-2.25743 0.389676,-0.53077 0.967471,-0.9406 1.525111,-1.3034 0.248586,-0.16124 0.772633,-0.16796 0.980909,-0.007 0.174682,0.13437 0.167963,0.65842 0.0739,0.95404 -0.194838,0.64498 -0.530766,1.24965 -0.759197,1.88791 -0.342646,0.96075 -0.866693,1.90135 -0.315772,2.9763202 0.100779,0.19484 -0.05375,0.52405 -0.08734,0.78607 -0.0739,0.61811 -0.141089,1.23621 -0.228431,2.04916 0.456862,-0.215 0.718885,-0.33593 0.980909,-0.45686 0.32249,-0.15453 0.658418,-0.46358 0.967471,-0.44343 1.632608,0.13437 2.660547,-0.98091 3.816138,-1.78713 0.859974,-0.59124 1.639326,-1.2295002 2.761324,-1.3101202 0.51061,-0.0336 1.095124,-0.26874 1.491519,-0.59795 1.088405,-0.90701 2.485864,-1.39746 3.392868,-2.53961 0.114216,-0.13438 0.262024,-0.24859 0.403114,-0.35609 1.148872,-0.87341 2.237277,-1.76698 3.117407,-2.9696 0.779352,-1.06825 1.908069,-1.86776 3.003193,-2.88897998091 C 97.67222,0.41638582 97.65206,0.77918582 97.61847,1.1419858 c -0.161245,1.52511 -0.262024,3.05694 -0.51061,4.56861 -0.161245,0.96076 -0.46358,1.92151 -0.866693,2.81508 -0.846538,1.8879102 -1.800572,3.7355102 -2.761325,5.7040502 0.356083,0.10078 0.591233,0.19484 0.8331,0.22171 2.526176,0.21499 4.91798,-0.34937 7.242598,-1.28996 0.92044,-0.37624 1.84088,-0.77264 2.80164,-1.00779 3.35255,-0.8331 5.85186,-2.9763102 8.18991,-5.3210902 1.25637,-1.26309 2.30446,-2.74117 3.46677,-4.14534 0.97419,1.65276 0.54421,3.30552 0.32249,4.92469 -0.12765,0.93388 -0.41655,1.84089 -0.57779,2.7613302 -0.43671,2.45899 -1.6662,4.44768 -3.49365,6.09372 -0.94731,0.85998 -1.25637,1.81401 -0.61139,3.0032 0.38968,0.71888 0.6853,1.47808 1.07497,2.19696 0.56436,1.0481 1.33699,1.33028 2.48587,0.93388 1.02793,-0.34936 2.04915,-0.71216 3.07037,-1.07497 2.28431,-0.80622 4.6694,-1.03465 7.05448,-1.23621 0.38968,-0.0336 0.88013,-0.0739 1.17575,0.12093 1.52511,0.9406 3.20475,0.81295 4.87767,0.82639 0.1814,0 0.35608,-0.0202 0.53749,-0.0202 0.0403,0 0.0806,0.0403 0.1814,0.0941 -0.12094,0.18812 -0.1814,0.43671 -0.34937,0.5442 -1.14215,0.72561 -2.29103,1.43105 -3.45334,2.12307 -0.30905,0.1814 -0.73904,0.22843 -0.96747,0.47701 -1.26309,1.39746 -2.48586,2.83523 -3.71536,4.273 -0.047,0.0537 -0.0202,0.17468 -0.0269,0.36952 0.29562,-0.0202 0.58452,-0.007 0.85998,-0.0605 2.50602,-0.49717 5.11281,-0.59795 7.45759,-1.80729 0.19484,-0.10077 0.45014,-0.16796 0.6517,-0.12093 1.27652,0.29562 2.4993,-0.19484 3.74895,-0.22843 0.75248,-0.0202 1.7401,0.45686 2.08275,1.14215 0.35608,0.70545 0.20156,1.41762 -0.45014,2.09619 -0.12094,0.12765 -0.24859,0.27546 -0.40312,0.3628 -2.37164,1.36387 -3.32568,3.84973 -4.70298,5.99295 -0.73904,1.14216 -0.90701,2.36493 0.19484,3.65489 0.75247,-0.38295 1.57214,-0.79279 2.3918,-1.20934 0.24187,-0.12093 0.45014,-0.36952 0.69873,-0.40311 2.36493,-0.34264 4.65596,-1.16231 7.08135,-1.04809 1.35043,0.0605 2.72774,-0.0269 4.04457,0.21499 2.21712,0.40311 4.40065,0.96747 6.57746,1.57214 1.44449,0.40312 1.41762,0.49046 1.61246,2.15666 -0.20156,0.047 -0.40312,0.13437 -0.61139,0.14781 -2.12306,0.0873 -3.92364,0.99434 -5.54281,2.27758 -0.58451,0.46358 -1.16903,0.70545 -1.93494,0.81967 -1.57214,0.24858 -2.86882,1.14215 -3.62802,2.56648 -0.71888,1.35043 -1.27652,2.77477 -1.8476,4.05129 0.55092,0.37624 1.14887,0.73904 1.68636,1.16231 0.82638,0.6517 1.67963,1.1959 2.73445,1.4109 0.97419,0.18812 1.92822,0.48373 2.90241,0.69201 0.6517,0.13437 1.31684,0.27546 1.98197,0.27546 1.2295,0.007 2.26416,0.53748 3.33241,1.02794 0.45014,0.20827 0.907,0.51061 1.37058,0.53076 2.3179,0.11422 3.78926,1.50496 5.09266,3.19803 0.51733,0.67186 1.04138,1.33699 1.54527,2.01557 0.13437,0.1814 0.19484,0.40311 0.27546,0.57779 -0.38968,0.69201 -0.84654,0.5778 -1.39746,0.30906 -0.76591,-0.36952 -1.61917,-0.58452 -2.34477,-1.00779 -1.14888,-0.67185 -2.27759,-0.37624 -3.39287,-0.0605 -1.26981,0.35608 -2.43884,0.92716 -3.46006,1.80057 -0.69201,0.60467 -1.04809,1.32355 -1.13543,2.22384 -0.26874,2.86882 1.2698,4.96501 3.95723,5.85186 0.89356,0.2889 1.8476,0.35608 2.76132,0.58451 0.36952,0.0873 0.77935,0.26203 1.02122,0.53077 2.35149,2.62023 4.38721,5.48905 6.31544,8.4385 0.0605,0.10078 0.0739,0.23515 0.16796,0.59123 -1.49152,-1.04138 -3.00319,-1.02122 -4.5283,-0.82638 -0.89357,0.11421 -1.79385,0.16796 -2.51946,0.85997 -0.18812,0.1814 -0.57779,0.20828 -0.88013,0.22843 -2.41868,0.15453 -4.30659,2.264156 -4.39393,4.75002 -0.0605,1.847602 0.76591,3.399587 1.43105,5.018758 0.46358,1.121998 1.18247,1.981973 2.20369,2.660547 1.30339,0.873411 2.53961,1.874475 3.79598,2.821791 0.1478,0.107497 0.29561,0.214994 0.40983,0.356083 1.82744,2.170093 3.78254,4.259565 5.43531,6.564025 1.02122,1.43106 1.94838,2.91586 3.24506,4.13191 0.30233,0.27546 0.42998,0.74576 0.49045,1.31012 -0.59123,-0.26874 -1.18918,-0.51733 -1.7737,-0.79951 -1.40417,-0.67857 -2.8621,-1.06153 -4.44768,-1.02122 -0.69873,0.0202 -1.39746,-0.22171 -2.09619,-0.32921 -1.43777,-0.21499 -2.8621,-0.40983 -4.17893,0.51733 -0.92045,0.64498 -1.9551,1.12872 -2.84195,1.81401 -0.80623,0.62483 -1.5923,1.33699 -2.17681,2.15666 -0.61139,0.85997 -0.79951,1.96853 -0.40983,2.97631 0.88013,2.29775 1.95509,4.49472 4.14534,5.87874 0.40312,0.2553 0.88013,0.44342 1.34371,0.55764 1.11528,0.27546 2.08947,1.34371 2.17009,2.47242 0.047,0.67858 -0.16796,1.28997 -0.74575,1.65277 -0.56436,0.3628 -1.16231,0.71216 -1.80058,0.907 -1.89463,0.5778 -3.54067,1.57886 -4.98516,2.88898 -2.47243,2.25071 -3.95723,5.09938 -4.87767,8.29069 -0.45014,1.58558 -0.61139,3.1846 -0.55092,4.8172 0.0403,0.99435 0.12093,2.00885 -0.0202,2.97632 -0.41655,2.88226 0.81967,5.17329 2.40524,7.39041 0.22844,0.31577 0.47702,0.69201 0.5039,1.05481 0.16796,2.029 1.40417,3.14428 3.13756,3.87661 0.16796,0.0672 0.34936,0.10077 0.51733,0.15452 0.12765,0.0403 0.24858,0.10078 0.37624,0.15453 0.56435,1.71323 1.76698,2.8957 3.18459,3.89676 0.29562,0.21499 0.67186,0.34265 0.89357,0.60467 1.42433,1.71323 3.45333,2.43211 5.40171,3.21819 1.89463,0.75919 3.92364,1.22277 5.96608,0.94731 1.17574,-0.15453 2.32462,-0.65842 3.43318,-1.13543 0.7256,-0.30906 1.37058,-0.8331 2.00884,-1.31684 0.22843,-0.17468 0.37624,-0.49717 0.47702,-0.78607 0.41655,-1.18247 1.22278,-2.10963 2.02228,-3.02335 0.23515,-0.26874 0.63827,-0.38968 0.9406,-0.57108 0.60467,1.52512 1.17575,2.88226 1.6662,4.26628 0.12766,0.35609 0.0538,0.79951 0.0134,1.19591 -0.0537,0.49045 -0.24859,0.97419 -0.23515,1.46464 0.0873,3.31225 -1.34371,6.0131 -3.34584,8.47881 -1.16903,1.43105 -2.34477,2.85539 -3.58099,4.23941 -2.63367,2.96288 -5.80482,5.27406 -9.07676,7.48447 -3.05022,2.06259 -6.34231,3.65489 -9.69487,5.11281 -1.07497,0.46358 -2.23056,0.76592 -3.29209,1.25637 -1.75354,0.81295 -3.46677,1.72667 -5.26063,2.63367 z"
     id="path4"
     inkscape:connector-curvature="0"
     style="fill:#ffffff;stroke-width:6.71855164" />
</svg>
