<?xml version="1.0" encoding="UTF-8" standalone="no"?>
<!-- Generated by IcoMoon.io -->

<svg
   xmlns:dc="http://purl.org/dc/elements/1.1/"
   xmlns:cc="http://creativecommons.org/ns#"
   xmlns:rdf="http://www.w3.org/1999/02/22-rdf-syntax-ns#"
   xmlns:svg="http://www.w3.org/2000/svg"
   xmlns="http://www.w3.org/2000/svg"
   xmlns:sodipodi="http://sodipodi.sourceforge.net/DTD/sodipodi-0.dtd"
   xmlns:inkscape="http://www.inkscape.org/namespaces/inkscape"
   version="1.1"
   width="215"
   height="215"
   viewBox="0 0 215 215"
   id="svg14"
   sodipodi:docname="everchosen.svg"
   inkscape:version="0.92.3 (2405546, 2018-03-11)">
  <metadata
     id="metadata20">
    <rdf:RDF>
      <cc:Work
         rdf:about="">
        <dc:format>image/svg+xml</dc:format>
        <dc:type
           rdf:resource="http://purl.org/dc/dcmitype/StillImage" />
        <dc:title>factions-chaos-everchosen</dc:title>
      </cc:Work>
    </rdf:RDF>
  </metadata>
  <defs
     id="defs18" />
  <sodipodi:namedview
     pagecolor="#ffffff"
     bordercolor="#666666"
     borderopacity="1"
     objecttolerance="10"
     gridtolerance="10"
     guidetolerance="10"
     inkscape:pageopacity="0"
     inkscape:pageshadow="2"
     inkscape:window-width="1920"
     inkscape:window-height="1017"
     id="namedview16"
     showgrid="false"
     fit-margin-top="0"
     fit-margin-left="0"
     fit-margin-right="0"
     fit-margin-bottom="0"
     inkscape:zoom="0.4609375"
     inkscape:cx="-1130.2178"
     inkscape:cy="105.40484"
     inkscape:window-x="-8"
     inkscape:window-y="-8"
     inkscape:window-maximized="1"
     inkscape:current-layer="svg14" />
  <title
     id="title2">factions-chaos-everchosen</title>
  <g
     id="g832"
     transform="translate(3.1821505,182.9984)"
     style="fill:#000000;fill-opacity:1">
    <path
       style="fill:#000000;stroke-width:6.71862507;fill-opacity:1"
       inkscape:connector-curvature="0"
       id="path4"
       d="m 105.21102,30.788244 c 1.88794,-1.310132 1.88794,-1.599032 -0.14781,-1.599032 -1.31013,0 -2.76135,-1.014513 -3.34587,-2.183554 -0.43671,-1.162322 -0.14781,-2.183553 0.58452,-2.183553 0.87342,0 1.45122,0.725612 1.45122,1.451223 0,0.873422 0.72561,1.451223 1.45122,1.451223 2.61355,0 1.45123,-2.472454 -2.03574,-4.071486 C 100.55502,22.490742 98.955983,19.292677 95.757917,9.2617696 93.574364,2.2878368 90.524108,-7.5952606 88.925075,-12.68126 l -2.909164,-9.298577 3.775867,-3.923677 c 5.811611,-6.10723 4.938189,-11.33432 -2.909165,-16.279228 l -4.938189,-3.050256 -10.89761,3.345875 c -5.95942,1.746843 -11.193229,2.909165 -11.48213,2.613545 -0.288901,-0.295619 1.162322,-5.670519 3.198065,-11.918841 2.909165,-9.157486 3.345876,-11.91884 2.035744,-14.821286 -2.183553,-4.649289 -7.847354,-5.959421 -14.969097,-3.634777 -4.797098,1.599033 -6.832842,1.599033 -11.193229,0.14781 -10.89761,-3.775867 -17.730452,-6.685032 -17.730452,-7.699544 0,-0.725612 -2.613545,-1.162322 -5.95942,-1.162322 -5.2338091,0 -14.391295,-3.634776 -14.391295,-5.811611 0,-1.451223 13.806774,-7.121743 21.076327,-8.720775 4.071487,-0.873422 9.446387,-2.613545 12.059932,-3.775868 7.558453,-3.486968 14.821287,-4.360388 14.821287,-1.746842 0,6.973933 11.045419,6.537222 16.420319,-0.58452 l 2.909165,-3.775866 -3.923677,-9.8831 c -2.183553,-5.3749 -3.345875,-10.31981 -2.761355,-10.89761 0.725611,-0.72561 3.775867,-0.2889 6.973933,0.87342 7.847354,2.76136 13.081163,2.61355 17.878261,-0.2889 8.431874,-5.23381 9.735288,-10.03091 4.071487,-15.69471 l -3.634776,-3.63477 3.775867,-9.00968 c 2.035743,-5.086 4.797098,-12.05993 6.248321,-15.69471 1.451223,-3.63477 3.486967,-8.72077 4.649289,-11.19323 1.16232,-3.05025 2.90916,-4.79709 4.64929,-4.79709 1.59903,0 2.47245,0.2889 2.03574,0.72561 -1.31013,1.31013 4.36039,18.01935 10.03091,29.64929 4.36039,9.00968 4.7971,10.89761 3.05025,11.91884 -1.31013,0.72561 -3.34587,2.90916 -4.64928,4.93819 -2.32465,3.48697 -2.18356,3.92368 1.31013,9.44639 4.5082,6.97393 7.26955,7.26955 21.80194,2.18355 11.19323,-3.92368 15.4058,-3.63478 15.1169,1.16232 -0.14781,2.90917 -0.2889,2.90917 -0.87342,0.43671 -0.58452,-2.03574 -2.03574,0 -5.67052,7.84736 -4.5082,9.44638 -4.7971,11.19323 -3.48696,16.131415 1.45122,5.233809 2.03574,5.670519 6.53722,5.670519 3.77586,0 5.3749,-0.873421 6.83284,-3.486966 l 1.88793,-3.634778 12.35555,4.360389 c 6.83285,2.324645 15.99033,5.67052 20.344,7.269553 4.35367,1.599032 10.03091,3.486966 12.35555,4.212578 2.47246,0.58452 3.34588,1.162322 2.03575,1.310132 -1.31014,0.147809 -2.76136,1.162322 -3.34588,2.324644 -0.43671,1.162322 -2.03574,2.183553 -3.63478,2.183553 -1.59903,0 -3.19806,0.58452 -3.63477,1.310132 -0.43671,0.725611 -3.92368,1.746842 -7.69955,2.324644 -3.77586,0.577802 -10.0309,2.613545 -13.80677,4.508198 -7.99516,4.071486 -11.62322,4.360387 -14.24349,1.310131 -1.01451,-1.310131 -4.21257,-2.183553 -7.41064,-2.183553 -5.086,0 -5.95942,0.584521 -8.13625,5.085999 -2.32465,4.93819 -2.32465,5.52271 0.72561,14.095676 1.88793,5.085999 4.64929,10.460899 6.10723,12.059932 3.48696,3.634776 3.77587,7.410643 0.72561,8.572965 -1.74684,0.584521 -1.88793,0.288901 -0.43671,-2.035743 1.45122,-2.324644 1.45122,-3.198066 -0.14781,-4.649289 -1.74684,-1.599032 -1.88793,-1.451223 -1.16232,0.725612 1.16232,3.050256 -2.76136,3.345875 -6.10723,0.58452 -4.21258,-3.486966 -17.73045,-8.431874 -20.63962,-7.558453 -1.45122,0.58452 -4.5082,3.198066 -6.53722,5.959421 l -3.92368,5.085999 9.5942,11.918841 -2.61355,10.319808 c -1.45122,5.6705191 -4.50819,14.5323856 -6.83284,19.4772936 -2.47245,5.0859994 -4.7971,12.2077414 -5.23381,15.9903274 -0.58452,4.071487 -1.88793,6.832842 -3.19806,7.121743 -1.88794,0.58452 -1.88794,0.43671 0,-0.873421 z m 7.69955,-89.088968 c 7.41064,-2.183553 13.65896,-8.572965 15.1169,-15.405807 l 1.01452,-5.3749 1.01451,5.085999 c 0.72561,3.775867 1.01451,2.909165 0.87342,-3.923677 -0.14781,-5.085999 -0.72561,-9.157486 -1.16232,-9.157486 -0.43671,0 -1.88794,-2.613545 -3.05026,-5.67052 -6.97393,-17.730455 -36.912125,-18.314975 -44.181677,-0.873421 -3.198066,7.847354 -2.613545,19.766195 1.310132,25.577806 6.973933,10.460899 16.279225,13.517873 29.064775,9.735287 z" />
    <path
       style="fill:#000000;stroke-width:6.71862507;fill-opacity:1"
       inkscape:connector-curvature="0"
       id="path6"
       d="m 85.585919,21.919659 c 0.43671,-0.725611 1.162322,-1.451223 1.599032,-1.451223 0.436711,0 0.288901,0.725612 -0.147809,1.451223 -0.436711,0.873421 -1.162322,1.451223 -1.599033,1.451223 -0.436711,0 -0.288901,-0.58452 0.14781,-1.451223 z" />
    <path
       style="fill:#000000;stroke-width:6.71862507;fill-opacity:1"
       inkscape:connector-curvature="0"
       id="path8"
       d="m 124.97722,21.778568 c 0.72561,-1.162322 0.2889,-1.451223 -1.16232,-0.873421 -1.88794,0.58452 -2.03575,0 -1.01452,-3.775867 2.18356,-8.572966 4.93819,-15.5536174 5.95942,-15.5536174 0.72561,0 1.16233,-1.31013191 1.16233,-2.9091647 0,-1.5990327 2.03574,-7.1217425 4.36038,-12.2077419 4.93819,-10.319808 6.10723,-11.045419 19.04059,-11.045419 h 8.13625 l 1.31013,-10.4609 1.31014,-10.608709 13.80677,-6.832841 c 7.55845,-3.775868 15.258,-6.832842 17.00484,-6.973933 1.74684,0 3.63478,-0.58452 4.07149,-1.451223 3.34587,-5.3749 8.13625,2.909165 5.086,8.720775 -2.18356,4.212578 -3.34588,2.909165 -1.59904,-1.887933 1.16232,-3.050256 1.01452,-3.634777 -0.58452,-3.050256 -1.01451,0.43671 -2.32464,2.183553 -2.76135,3.923677 -0.43671,1.887934 -3.05026,5.811611 -5.95942,9.009676 -3.92368,4.360388 -5.086,6.832842 -4.64929,9.883098 0.2889,2.183553 0,4.360387 -0.72561,4.797098 -0.58452,0.43671 -1.16233,3.486966 -1.16233,6.832842 0,4.508197 0.43672,5.522709 1.45123,3.923677 1.01451,-1.599033 1.45122,-0.584521 1.45122,3.634776 0,4.212578 -0.43671,5.2338086 -1.45122,3.634776 -0.87342,-1.310132 -1.45123,-1.451223 -1.45123,-0.436711 0,0.873421 0.72562,2.1835534 1.45123,2.6135454 0.87342,0.4367106 1.31013,2.6135451 1.31013,4.7970983 -0.14781,2.6135451 -0.43671,3.0502557 -0.87342,1.3101318 -0.58452,-2.472454 -0.87342,-2.472454 -2.32465,-0.4367106 -1.31013,1.7468425 -6.10723,2.6135452 -18.16716,3.63477616 L 151.58297,1.3001989 140.68536,9.5842636 c -5.95942,4.5081974 -11.33432,9.2985774 -11.91884,10.6087094 -0.58452,1.310131 -1.88793,2.613545 -2.90916,2.909164 -1.16232,0.14781 -1.59904,-0.288901 -0.87342,-1.310132 z" />
    <path
       style="fill:#000000;stroke-width:6.71862507;fill-opacity:1"
       inkscape:connector-curvature="0"
       id="path10"
       d="m 79.196506,16.98147 c -1.310132,-1.599033 -1.310132,-2.183553 0.14781,-2.761355 1.014512,-0.436711 0.288901,-0.873421 -1.599033,-0.873421 -1.887933,-0.14781 -7.121742,-3.050256 -11.48213,-6.6850323 L 58.415799,0.12443956 H 46.496958 c -6.396131,0 -14.243485,-0.43671062 -17.293741,-0.87342125 l -5.3749,-1.01451241 v -7.5584532 c 0,-20.3439967 -1.310132,-24.7043847 -11.045419,-38.2222577 -6.9739332,-9.883098 -8.7207757,-13.081163 -7.2695527,-14.391295 1.3101319,-1.451223 2.9091646,-1.310132 7.4106437,1.014512 3.198065,1.451223 11.48213,5.3749 18.456063,8.572966 13.658964,6.248321 15.405807,8.431874 13.806774,18.019352 -1.162322,7.558453 1.310132,9.594197 12.792262,10.030907 l 10.030908,0.436711 3.923677,7.410644 c 2.035743,4.071486 4.938189,10.6087085 6.537222,14.5323855 1.451223,3.9236771 3.634776,7.9951639 4.938189,9.0096762 1.887934,1.5990328 1.887934,1.7468426 0,0.8734213 -1.746842,-0.8734213 -1.887933,-0.5845204 -0.288901,1.0145124 0.873422,1.0145124 1.746843,3.0502556 1.746843,4.5081976 0,1.457941 0.873421,2.613545 1.887933,2.613545 1.162323,0 1.014513,0.58452 -0.43671,1.451223 -3.050256,2.035743 -5.233809,1.746842 -7.121743,-0.58452 z" />
    <path
       style="fill:#000000;stroke-width:6.71862507;fill-opacity:1"
       inkscape:connector-curvature="0"
       id="path12"
       d="m 206.21883,-78.362538 c 0.43671,-0.725612 1.16232,-1.451223 1.59903,-1.451223 0.43671,0 0.28891,0.725611 -0.14781,1.451223 -0.43671,0.873421 -1.16232,1.451223 -1.59903,1.451223 -0.43671,0 -0.2889,-0.584521 0.14781,-1.451223 z" />
  </g>
</svg>
