<?xml version="1.0" encoding="UTF-8" standalone="no"?>
<!-- Generator: Adobe Illustrator 24.1.0, SVG Export Plug-In  -->

<svg
   xmlns:dc="http://purl.org/dc/elements/1.1/"
   xmlns:cc="http://creativecommons.org/ns#"
   xmlns:rdf="http://www.w3.org/1999/02/22-rdf-syntax-ns#"
   xmlns:svg="http://www.w3.org/2000/svg"
   xmlns="http://www.w3.org/2000/svg"
   xmlns:sodipodi="http://sodipodi.sourceforge.net/DTD/sodipodi-0.dtd"
   xmlns:inkscape="http://www.inkscape.org/namespaces/inkscape"
   version="1.1"
   x="0px"
   y="0px"
   width="243.323"
   height="243.323"
   viewBox="0 0 243.323 243.323"
   xml:space="preserve"
   id="svg11"
   sodipodi:docname="slaves_to_darkness.svg"
   inkscape:version="0.92.3 (2405546, 2018-03-11)"><metadata
   id="metadata15"><rdf:RDF><cc:Work
       rdf:about=""><dc:format>image/svg+xml</dc:format><dc:type
         rdf:resource="http://purl.org/dc/dcmitype/StillImage" /><dc:title /></cc:Work></rdf:RDF></metadata><sodipodi:namedview
   pagecolor="#ffffff"
   bordercolor="#666666"
   borderopacity="1"
   objecttolerance="10"
   gridtolerance="10"
   guidetolerance="10"
   inkscape:pageopacity="0"
   inkscape:pageshadow="2"
   inkscape:window-width="1920"
   inkscape:window-height="1017"
   id="namedview13"
   showgrid="false"
   inkscape:zoom="0.97003579"
   inkscape:cx="-195.94361"
   inkscape:cy="121.645"
   inkscape:window-x="-8"
   inkscape:window-y="-8"
   inkscape:window-maximized="1"
   inkscape:current-layer="svg11" />
<defs
   id="defs2">
</defs>
<g
   id="Su125h.tif_1_"
   transform="translate(0.57149902,0.06014241)"
   style="fill:#000000;fill-opacity:1">
	<g
   id="g8"
   style="fill:#000000;fill-opacity:1">
		<path
   d="m 122.16,0 c 0.21,0.3 0.37,0.67 0.65,0.88 0.75,0.54 0.95,1.3 1.28,2.13 1.88,4.74 3.73,9.52 5.95,14.1 2.74,5.64 5.85,11.1 8.79,16.65 0.52,0.99 0.98,2.01 1.45,2.98 -0.82,1.16 -1.78,0.8 -2.87,0.49 -2.83,-0.81 -5.07,-2.62 -7.47,-4.15 -0.23,-0.15 -0.49,-0.26 -1,-0.54 0.11,1.44 0,2.73 0.35,3.87 1,3.36 1.38,6.77 1.35,10.25 -0.01,1.56 0.08,1.55 1.62,1.61 1.03,0.04 2.08,0.18 3.07,0.46 3.49,0.97 7,1.88 10.4,3.11 1.47,0.53 2.61,1.9 4.01,2.67 2.95,1.61 5.99,3.05 8.96,4.61 1.45,0.76 2.92,1.55 4.23,2.52 1.5,1.1 2.83,2.43 4.35,3.76 2.97,-3.58 7.53,-5.57 9.46,-10.23 -1.23,-0.6 -2.28,-1.06 -3.28,-1.61 -1.09,-0.59 -1.26,-1.59 -0.35,-2.44 0.5,-0.47 1.15,-0.83 1.8,-1.07 2.85,-1.02 5.72,-2 8.61,-2.93 1.18,-0.38 2.45,-0.49 3.6,-0.95 1.84,-0.73 3.6,-1.67 5.42,-2.45 1.71,-0.73 3.44,-1.46 5.22,-2.01 0.63,-0.19 1.55,-0.05 2.09,0.32 0.32,0.22 0.3,1.21 0.15,1.77 -0.72,2.74 -1.41,5.49 -2.33,8.16 -1.16,3.36 -2.58,6.63 -3.8,9.98 -0.64,1.75 -1.09,3.57 -1.63,5.35 -0.29,0.95 -0.59,1.89 -0.88,2.83 -2.53,-0.44 -2.66,-2.71 -3.63,-4.66 -1.06,0.99 -2.15,1.8 -2.99,2.82 -1.87,2.28 -3.61,4.66 -5.4,7.01 -0.46,0.61 -0.63,1.23 -0.13,1.94 1.02,1.47 1.96,3 3.02,4.43 3.28,4.42 5.41,9.45 7.47,14.49 0.63,1.55 0.82,3.29 1.16,4.95 0.46,2.26 0.86,4.52 1.29,6.79 0.02,0.08 0.06,0.17 0.05,0.24 -0.61,2.72 1.43,3.58 3.24,4.57 0.35,0.19 0.8,0.3 1.19,0.28 3.93,-0.25 7.86,-0.54 11.81,-0.82 -0.39,-2.26 -0.97,-4.51 -2.64,-6.37 -0.52,-0.58 -0.86,-1.46 -0.96,-2.24 -0.27,-2.06 1.29,-3.25 3.18,-2.31 2.07,1.02 3.98,2.37 5.98,3.54 0.99,0.58 2.06,1.03 3.06,1.61 2.84,1.65 5.61,3.44 8.51,4.99 2.85,1.52 5.87,2.71 8.72,4.22 2.59,1.37 5.04,2.98 7.87,4.68 -0.34,0.17 -0.54,0.35 -0.78,0.4 -2.11,0.44 -3.03,2.5 -4.72,3.44 -1.57,0.87 -3.34,1.45 -5.07,1.96 -5.23,1.52 -10.1,3.76 -14.8,6.53 -2.7,1.59 -5.8,2.48 -8.69,3.74 -0.62,0.27 -1.13,0.81 -1.88,1.36 -0.51,-0.11 -0.53,-0.56 -0.3,-1.29 0.88,-2.8 1.69,-5.61 2.53,-8.47 -3.13,0 -6.28,-0.27 -9.36,0.1 -1.79,0.22 -3.47,1.46 -5.17,2.31 -0.24,0.12 -0.3,0.64 -0.41,0.99 -0.93,3.19 -1.87,6.38 -2.75,9.58 -0.31,1.12 -0.55,2.27 -0.66,3.42 -0.26,2.69 -1.32,5.07 -2.72,7.31 -1.88,3 -3.71,6.03 -5.7,8.96 -1.19,1.74 -2.64,3.31 -4.06,5.06 1.85,2.51 3.78,5.12 5.69,7.73 0.52,0.71 1.14,0.73 1.7,0.18 1.62,-1.62 3.66,-2.89 4.45,-5.24 0.1,-0.31 0.88,-0.72 1.02,-0.62 0.41,0.29 0.86,0.78 0.94,1.25 0.24,1.25 0.21,2.56 0.44,3.81 0.39,2.13 0.82,4.25 1.38,6.34 0.76,2.85 1.61,5.68 2.52,8.48 1.07,3.28 2.28,6.51 3.35,9.79 0.61,1.86 0.03,2.59 -1.89,2.22 -1.27,-0.24 -2.43,-0.99 -3.68,-1.39 -2.28,-0.73 -4.61,-1.31 -6.87,-2.08 -1.51,-0.51 -2.91,-1.38 -4.43,-1.84 -3.24,-0.97 -6.56,-1.71 -9.8,-2.68 -0.65,-0.19 -1.31,-0.91 -1.58,-1.55 -0.14,-0.34 0.44,-1.13 0.87,-1.54 1.23,-1.16 2.55,-2.23 3.79,-3.29 -1.77,-3.64 -4.95,-5.75 -7.37,-8.17 -4.55,2.85 -9.05,5.73 -13.62,8.49 -1.23,0.75 -2.66,1.18 -4.03,1.68 -4.17,1.54 -8.33,3.15 -12.55,4.52 -1.38,0.45 -2.97,0.28 -4.46,0.36 -1.14,0.06 -3.24,1.97 -3.25,3.08 -0.03,4 -0.01,8.01 0,12.01 0,0.31 0.12,0.63 0.2,1.01 3.35,-1.69 6.45,-3.65 9.83,-4.99 0.1,0.15 0.19,0.3 0.29,0.44 -0.25,0.69 -0.48,1.4 -0.76,2.08 -0.47,1.16 -1.11,2.27 -1.43,3.46 -0.84,3.2 -2.48,5.99 -4.22,8.73 -0.71,1.12 -1.62,2.12 -2.23,3.28 -1.67,3.17 -3.65,6.26 -4.7,9.63 -1.01,3.23 -2.51,6.2 -3.8,9.28 -0.35,0.84 -0.8,1.65 -1.31,2.4 -0.24,0.35 -0.76,0.76 -1.12,0.72 -0.37,-0.03 -0.85,-0.5 -1.02,-0.89 -2.43,-5.55 -4.73,-11.17 -7.25,-16.68 -1.37,-2.98 -3.16,-5.76 -4.65,-8.69 -1,-1.96 -1.83,-4 -2.68,-6.03 -0.94,-2.21 -1.86,-4.43 -2.71,-6.68 -0.14,-0.38 -0.06,-1.09 0.21,-1.3 0.33,-0.27 1.05,-0.41 1.42,-0.23 2.3,1.11 4.66,2.16 5.99,4.56 0.17,0.3 0.52,0.5 0.94,0.89 0.05,-0.54 0.1,-0.89 0.11,-1.25 0.02,-1.46 -0.02,-2.92 0.04,-4.38 0.16,-3.56 0.36,-7.13 0.54,-10.69 0.02,-0.45 0,-0.91 0,-1.39 -2.32,-0.48 -4.56,-0.91 -6.79,-1.42 -9.05,-2.09 -17.29,-5.96 -24.82,-11.36 -0.78,-0.56 -1.53,-0.78 -2.4,-0.53 -1.28,0.37 -2.59,0.69 -3.8,1.22 -0.62,0.27 -1.06,0.95 -1.57,1.46 -1.72,1.75 -3.42,3.52 -5.16,5.24 -0.55,0.54 -1.24,0.95 -1.67,1.28 0.97,2.76 3.07,2.79 4.97,3.09 0.86,0.13 1.75,0.03 2.62,0.02 0.95,-0.01 1.04,0.53 0.75,1.24 -0.12,0.29 -0.36,0.58 -0.61,0.77 -2.15,1.61 -4.35,3.08 -7.24,2.89 -0.93,-0.06 -1.88,0.13 -2.81,0.25 -2.51,0.32 -5.03,0.67 -7.54,1.01 -0.37,0.05 -0.76,0.04 -1.11,0.16 -1.45,0.47 -2.9,0.94 -4.32,1.47 -1.19,0.44 -2.42,0.86 -3.5,1.5 -1.14,0.68 -2.28,1.03 -3.56,0.84 -0.39,-0.06 -0.83,-0.37 -1.05,-0.7 -0.14,-0.22 0.03,-0.7 0.16,-1.02 0.24,-0.61 0.64,-1.17 0.8,-1.8 0.48,-1.85 0.88,-3.71 1.29,-5.58 0.54,-2.46 1.04,-4.94 1.6,-7.4 0.5,-2.22 1.11,-4.41 1.56,-6.63 0.56,-2.75 0.97,-5.53 1.52,-8.28 0.1,-0.53 0.54,-0.99 0.82,-1.48 0.46,0.36 1.12,0.62 1.33,1.09 0.73,1.62 1.27,3.33 1.93,4.99 0.31,0.77 0.68,1.52 1.07,2.25 0.44,0.84 0.93,0.96 1.58,0.14 0.8,-1.01 1.58,-2.06 2.53,-2.91 1.32,-1.18 2.77,-2.23 4.21,-3.28 0.65,-0.48 0.98,-1 1,-1.86 0.03,-1.4 0.22,-2.81 0.41,-4.2 0.15,-1.09 -0.31,-1.92 -0.89,-2.76 -3.71,-5.34 -6.6,-11.12 -8.56,-17.31 -1.11,-3.48 -1.81,-7.09 -2.71,-10.64 -0.1,-0.4 -0.14,-0.89 -0.39,-1.16 -1.04,-1.06 -2.15,-2.07 -3.26,-3.06 -0.16,-0.14 -0.47,-0.14 -0.71,-0.14 -4.17,-0.01 -8.34,-0.01 -12.73,-0.01 0.47,1.14 1.01,2.13 1.28,3.18 0.3,1.19 1.25,2 1.63,3.05 0.55,1.5 0.78,3.13 1.03,4.72 0.06,0.38 -0.26,1.04 -0.58,1.21 -0.34,0.17 -1.07,0.06 -1.34,-0.21 -2.45,-2.51 -5.55,-3.89 -8.71,-5.21 -1.49,-0.63 -2.88,-1.5 -4.33,-2.22 -0.62,-0.31 -1.33,-0.45 -1.94,-0.78 -1.52,-0.84 -3.01,-1.75 -4.51,-2.63 -1.22,-0.71 -2.41,-1.46 -3.67,-2.09 -2.07,-1.03 -4.15,-2.04 -6.29,-2.91 -1.67,-0.68 -3.29,-1.51 -5.23,-1.46 -0.66,0.02 -1.35,-0.78 -2.2,-1.31 0.67,-0.51 1.1,-1.01 1.65,-1.23 2.04,-0.81 3.69,-2.17 5.46,-3.41 3.44,-2.41 6.97,-4.71 10.92,-6.29 2.47,-0.99 4.92,-2.03 7.31,-3.19 2.17,-1.05 4.24,-2.31 6.37,-3.45 0.43,-0.23 0.94,-0.5 1.39,-0.46 1.44,0.12 2.47,-0.56 3.43,-1.47 0.53,-0.51 1.17,-1.12 1.78,-0.4 0.28,0.33 0.17,1.27 -0.1,1.75 -1.28,2.32 -2.66,4.57 -4.17,7.12 1.55,0 2.82,0.01 4.08,0 2.84,-0.01 5.67,-0.02 8.51,-0.06 2.1,-0.03 3.41,-1.21 3.94,-3.29 1.42,-5.55 3.76,-10.75 6.15,-15.93 1.25,-2.72 2.45,-5.47 3.75,-8.16 0.61,-1.27 1.49,-2.4 2.12,-3.66 0.59,-1.18 1.15,-2.41 1.43,-3.68 0.14,-0.61 -0.2,-1.56 -0.66,-2.02 -0.77,-0.77 -1.84,-1.24 -2.73,-1.9 -1.5,-1.11 -2.96,-2.28 -4.43,-3.43 -0.28,-0.22 -0.53,-0.48 -0.66,-0.59 -1.62,1.51 -2.82,3.2 -2.86,5.75 -1.32,-1.46 -2.07,-2.64 -2.32,-4.33 -0.64,-4.4 -1.28,-8.82 -2.97,-13 -1.07,-2.66 -1.89,-5.41 -2.88,-8.1 -0.3,-0.81 -0.66,-1.66 -1.2,-2.32 -0.89,-1.09 -1.36,-2.29 -1.38,-3.65 -0.01,-0.38 0.27,-0.89 0.57,-1.12 0.26,-0.2 0.82,-0.23 1.14,-0.1 1.24,0.53 2.46,1.14 3.66,1.77 1.31,0.69 2.59,1.44 3.9,2.13 0.95,0.5 1.9,1.03 2.91,1.39 2.02,0.72 4.06,1.39 6.12,1.97 2.76,0.78 5.54,1.48 8.33,2.17 1.31,0.33 2.65,0.55 4.39,0.9 -2.44,1.61 -4.61,3.04 -6.98,4.61 2.43,2.3 4.47,4.58 6.87,6.38 1.45,1.09 3.37,1.68 5.39,0.69 2.73,-1.33 5.6,-2.36 8.3,-3.73 1.7,-0.85 3.24,-2.04 4.79,-3.15 2.48,-1.79 5.1,-3.28 8.03,-4.24 2.8,-0.93 5.52,-2.11 8.33,-3.02 1.36,-0.44 2.85,-0.5 4.28,-0.71 0.77,-0.11 1.12,-0.49 1.18,-1.31 0.23,-3.4 0.55,-6.79 0.78,-10.18 0.04,-0.54 -0.27,-1.11 -0.5,-1.97 -1.42,0.26 -2.81,0.51 -4.21,0.76 -0.45,0.08 -0.9,0.28 -1.34,0.23 -1.27,-0.12 -2.28,0.24 -3.34,0.98 -0.49,0.35 -1.94,0.19 -2.21,-0.22 -0.38,-0.57 -1.2,-1.34 -0.54,-2.38 1.55,-2.46 2.95,-5 4.49,-7.46 1.34,-2.13 2.88,-4.13 4.16,-6.29 1.35,-2.28 2.45,-4.71 3.74,-7.03 1.37,-2.47 2.82,-4.9 4.26,-7.34 0.2,-0.34 0.6,-0.57 0.86,-0.89 0.31,-0.38 0.86,-0.85 0.81,-1.2 -0.23,-1.55 0.93,-2.4 1.56,-3.52 C 121.83,0 121.99,0 122.16,0 Z m 2.32,62.72 c -9.5,-0.01 -16.98,1.48 -22.95,3.82 -10.43,4.09 -19.01,10.71 -25.41,19.77 -4.15,5.89 -8.05,12.15 -8.85,19.67 -0.25,2.31 -0.56,4.61 -0.72,6.92 -0.21,3.14 -0.3,6.3 -0.45,9.45 -0.01,0.25 -0.14,0.49 -0.14,0.73 -0.02,2.44 -0.16,4.89 0.02,7.31 0.13,1.67 0.67,3.31 1.09,4.95 0.6,2.36 1.06,4.78 1.93,7.04 2.27,5.87 5.7,11.07 9.9,15.74 0.95,1.06 2.23,1.83 3.36,2.73 0.74,0.59 1.53,1.14 2.2,1.81 1.8,1.78 3.32,3.94 5.35,5.38 9.01,6.39 19.11,9.84 30.16,10.11 16.42,0.4 30.43,-5.39 41.99,-17.03 5.2,-5.23 9.27,-11.22 11.5,-18.35 0.32,-1.03 0.62,-2.07 1.06,-3.05 1.93,-4.31 3.25,-8.72 2.84,-13.53 -0.12,-1.41 0.05,-2.84 -0.06,-4.25 -0.21,-2.55 -0.6,-5.09 -0.78,-7.64 -0.21,-2.89 -0.22,-5.79 -0.4,-8.69 -0.08,-1.23 -0.24,-2.49 -0.62,-3.65 -1.93,-5.95 -4.8,-11.43 -8.6,-16.39 C 155.53,70.75 140.44,63.23 124.48,62.72 Z"
   id="path4"
   inkscape:connector-curvature="0"
   style="fill:#000000;fill-opacity:1" />
		<path
   d="m 127.06,169.76 c -0.48,-0.76 -0.77,-1.22 -1.06,-1.68 -0.47,0.31 -0.93,0.63 -1.67,1.12 -2.39,-0.57 -5.13,-1.22 -7.87,-1.88 -0.2,-0.05 -0.41,-0.22 -0.59,-0.18 -1.62,0.34 -2.76,-0.43 -3.76,-1.57 -0.13,-0.15 -0.37,-0.23 -0.48,-0.39 -0.98,-1.37 -3.37,-1.18 -3.49,-3.72 -0.08,-1.67 -1.35,-3.27 -2.02,-4.93 -0.52,-1.27 -0.92,-2.59 -1.41,-3.87 -1.24,-3.27 -4.18,-5.56 -8.18,-4.67 -1.5,0.33 -3.12,-0.02 -4.29,-1.14 -0.51,-0.49 -0.94,-1.35 -0.93,-2.05 0.03,-4.72 -1.29,-8.96 -4.23,-12.67 -1.28,-1.62 -1.88,-3.49 -2.06,-5.54 -0.16,-1.83 -0.48,-3.64 -0.63,-5.46 -0.05,-0.58 0.11,-1.25 0.38,-1.77 0.63,-1.2 1.56,-2.27 2.02,-3.52 0.4,-1.09 0.39,-2.36 0.45,-3.55 0.06,-1.16 0.05,-2.34 -0.07,-3.5 -0.24,-2.28 0.64,-4.22 1.57,-6.19 0.44,-0.94 0.9,-1.9 1.11,-2.91 0.81,-3.95 2.77,-7.4 4.57,-10.92 0.48,-0.93 1.32,-1.72 2.13,-2.43 2.84,-2.49 5.61,-5.07 9.23,-6.48 4.79,-1.87 9.67,-3.36 14.79,-3.93 0.97,-0.11 1.99,0.12 2.97,0.28 3.53,0.58 7.14,0.89 10.54,1.88 4.6,1.34 8.27,4.32 11.5,7.83 0.83,0.9 1.9,1.58 2.83,2.4 0.37,0.32 0.72,0.71 0.95,1.13 1.63,3 3.35,5.95 4.77,9.04 0.71,1.54 1.04,3.33 1.23,5.03 0.4,3.68 0.52,7.39 0.89,11.08 0.17,1.69 0.5,3.52 1.89,4.64 2.25,1.81 1.84,3.94 1,6.09 -0.93,2.4 -2.05,4.74 -3.15,7.07 -1.48,3.14 -2.83,6.31 -3.33,9.78 -0.07,0.45 -0.21,0.89 -0.34,1.33 -0.66,2.23 -0.66,2.18 -2.99,1.92 -1.77,-0.19 -3.41,0.19 -5.06,0.98 -2.63,1.26 -4.11,3.41 -5.17,5.94 -0.39,0.94 -0.57,1.99 -0.67,3.01 -0.26,2.52 -0.41,5.04 -0.64,7.56 -0.03,0.31 -0.19,0.65 -0.4,0.88 -1.33,1.49 -2.68,2.97 -4.05,4.42 -0.54,0.57 -1.11,1 -1.58,-0.13 -0.1,-0.24 -0.52,-0.51 -0.76,-0.48 -0.25,0.03 -0.65,0.4 -0.65,0.63 -0.04,1.56 -1.13,1.47 -2.18,1.48 -0.45,0.05 -0.9,0.04 -1.11,0.04 z m 9.14,-33.81 c 0.03,-0.15 0.06,-0.31 0.09,-0.46 1.25,0 2.49,0.06 3.74,-0.01 1.79,-0.1 3.43,-0.66 4.75,-1.93 0.23,-0.22 0.6,-0.69 0.54,-0.78 -0.73,-1.03 0.25,-1.94 0.15,-2.93 -0.1,-1.05 0.2,-2.14 0.09,-3.19 -0.07,-0.66 -0.45,-1.68 -0.91,-1.83 -1.27,-0.4 -2.75,-0.82 -3.98,-0.52 -2.16,0.51 -4.25,1.42 -6.26,2.4 -1.87,0.91 -3.61,2.1 -4.27,4.3 -0.39,1.3 0.01,2.94 1,3.32 1.65,0.64 3.37,1.1 5.06,1.63 z m -37.67,-4.48 c 0.2,0.41 0.52,1.08 0.86,1.74 0.17,0.33 0.47,0.61 0.56,0.95 0.35,1.27 1.31,1.82 2.47,1.99 3.3,0.48 6.59,0.89 9.88,-0.23 1.78,-0.61 2.19,-1.04 2.11,-2.95 -0.06,-1.22 -0.71,-1.99 -1.64,-2.64 -0.44,-0.31 -0.99,-0.57 -1.26,-0.99 -1.26,-1.97 -3.4,-2.6 -5.33,-3.52 -0.55,-0.27 -1.31,-0.2 -1.96,-0.17 -0.86,0.05 -1.72,0.21 -2.58,0.33 -1.19,0.16 -2.2,0.59 -2.48,1.91 -0.22,1.04 -0.37,2.11 -0.63,3.58 z m 24.66,18.49 c 0.32,0.28 0.49,0.47 0.69,0.6 1.1,0.74 2.32,1.37 3.6,0.74 1.27,-0.62 1.65,-1.84 1.58,-3.27 -0.17,-3.41 -1.86,-6.22 -3.52,-9.03 -0.21,-0.35 -0.82,-0.58 -1.27,-0.65 -2.58,-0.43 -4.1,1.2 -5.48,2.97 -1.97,2.54 -2.36,5.53 -2.32,8.62 0.02,1.4 0.62,1.96 2.02,1.88 1.74,-0.08 3.41,-0.37 4.7,-1.86 z"
   id="path6"
   inkscape:connector-curvature="0"
   style="fill:#000000;fill-opacity:1" />
	</g>
</g>
</svg>