<?xml version="1.0" encoding="UTF-8" standalone="no"?>
<!-- Generator: Adobe Illustrator 24.1.0, SVG Export Plug-In  -->

<svg
   xmlns:dc="http://purl.org/dc/elements/1.1/"
   xmlns:cc="http://creativecommons.org/ns#"
   xmlns:rdf="http://www.w3.org/1999/02/22-rdf-syntax-ns#"
   xmlns:svg="http://www.w3.org/2000/svg"
   xmlns="http://www.w3.org/2000/svg"
   xmlns:sodipodi="http://sodipodi.sourceforge.net/DTD/sodipodi-0.dtd"
   xmlns:inkscape="http://www.inkscape.org/namespaces/inkscape"
   version="1.1"
   x="0px"
   y="0px"
   width="212.82401"
   height="212.82401"
   viewBox="0 0 212.82401 212.824"
   xml:space="preserve"
   id="svg14"
   sodipodi:docname="tzeentch_daemons.svg"
   inkscape:version="0.92.3 (2405546, 2018-03-11)"><metadata
   id="metadata18"><rdf:RDF><cc:Work
       rdf:about=""><dc:format>image/svg+xml</dc:format><dc:type
         rdf:resource="http://purl.org/dc/dcmitype/StillImage" /><dc:title /></cc:Work></rdf:RDF></metadata><sodipodi:namedview
   pagecolor="#ffffff"
   bordercolor="#666666"
   borderopacity="1"
   objecttolerance="10"
   gridtolerance="10"
   guidetolerance="10"
   inkscape:pageopacity="0"
   inkscape:pageshadow="2"
   inkscape:window-width="1920"
   inkscape:window-height="1017"
   id="namedview16"
   showgrid="false"
   inkscape:zoom="1.1088662"
   inkscape:cx="-182.78028"
   inkscape:cy="106.415"
   inkscape:window-x="-8"
   inkscape:window-y="-8"
   inkscape:window-maximized="1"
   inkscape:current-layer="svg14" />
<defs
   id="defs2">
</defs>
<g
   id="g12"
   transform="translate(11.883914,-0.00600696)"
   style="fill:#000000;fill-opacity:1">
	<g
   id="g10"
   style="fill:#000000;fill-opacity:1">
		<path
   d="m 119.9,0 c 1.19,1.5 1.35,5.85 0.44,7.74 -2.05,4.23 -4.9,7.9 -8.01,11.36 -1.41,1.57 -3.04,3.11 -5.36,3.39 -0.21,0.03 -0.44,0.11 -0.62,0.24 -3.53,2.49 -7.44,4.56 -9.62,8.56 -0.15,0.27 -0.34,0.54 -0.4,0.83 -0.62,3.01 -1.62,5.94 -1.46,9.1 0.12,2.21 -0.03,4.44 -0.16,6.66 -0.17,2.87 0.67,5.51 1.59,8.17 0.77,2.22 1.76,4.5 1.84,6.77 0.09,2.59 -0.24,5.42 -1.25,7.78 -1.63,3.85 -3.97,7.41 -5.99,11.1 -0.93,1.71 -2.34,2.9 -3.82,4.14 -2.64,2.22 -5.09,4.69 -7.42,7.25 -2.03,2.23 -2.99,5.05 -3.06,8.07 -0.05,2.3 -0.14,4.66 0.31,6.89 0.87,4.3 3.99,7.11 7.27,9.71 0.27,0.22 0.56,0.41 0.84,0.61 -1.54,2.11 -3.65,3.03 -6.08,3.67 -1.84,0.48 -3.49,1.66 -5.23,2.51 -0.39,0.19 -0.8,0.44 -1.22,0.47 -2.25,0.15 -3.47,1.58 -4.4,3.4 -0.12,0.24 -0.15,0.57 -0.34,0.72 -2.66,2.03 -3.47,5.71 -6.56,7.36 -0.22,0.12 -0.39,0.37 -0.54,0.58 -2.14,2.94 -4.42,5.79 -6.35,8.86 -1.09,1.73 -1.77,3.78 -2.33,5.77 -1.16,4.09 -2.52,8.19 -3.05,12.37 -0.47,3.73 -0.16,7.61 0.21,11.39 0.38,3.92 1.18,7.8 1.91,11.68 0.21,1.1 0.79,2.14 1.29,3.17 0.94,1.94 2.02,3.83 2.9,5.8 0.71,1.6 1.32,3.28 1.76,4.97 0.41,1.59 0.53,3.25 0.77,4.85 -2.76,0.69 -4.84,-0.3 -6.92,-1.31 -1.98,-0.96 -3.97,-1.9 -5.94,-2.89 -0.46,-0.23 -0.83,-0.64 -1.24,-0.96 -0.41,-0.33 -0.79,-0.83 -1.25,-0.94 -1.54,-0.36 -2.2,-1.51 -2.86,-2.75 -0.3,-0.57 -0.72,-1.16 -1.25,-1.5 -2.4,-1.54 -4.9,-2.92 -7.28,-4.49 -0.98,-0.65 -1.94,-1.5 -2.59,-2.47 -1.34,-2.01 -3.36,-3.23 -5.07,-4.81 -0.63,-0.58 -1.1,-1.34 -1.63,-2.02 -0.11,-0.14 -0.16,-0.33 -0.29,-0.45 -3.58,-3.1 -5.02,-7.68 -7.76,-11.38 -2.57,-3.48 -4.21,-7.64 -6.31,-11.48 -0.67,-1.22 -1.59,-2.31 -2.24,-3.54 -0.39,-0.76 -0.46,-1.68 -0.7,-2.53 -0.23,-0.84 -0.49,-1.67 -0.74,-2.5 -0.04,-0.13 -0.16,-0.23 -0.18,-0.35 -0.42,-2.21 -0.84,-4.43 -1.26,-6.65 -0.02,-0.09 0.03,-0.19 0,-0.26 -1.24,-2.6 -0.56,-5.68 -2.06,-8.22 -0.16,-0.28 -0.15,-0.68 -0.15,-1.03 -0.03,-5.6 -0.05,-11.2 -0.04,-16.8 0,-0.46 0.23,-0.92 0.4,-1.36 0.13,-0.37 0.44,-0.71 0.47,-1.08 0.2,-2.66 1.17,-5.08 2.13,-7.53 0.96,-2.43 1.65,-4.97 2.55,-7.43 1.6,-4.34 4.42,-7.86 7.74,-10.98 6.57,-6.17 14.27,-10.5 22.63,-13.75 3.98,-1.55 8.01,-3.06 11.2,-6.02 3.96,-3.67 6.46,-8.1 6.49,-13.67 0.02,-2.67 0.02,-5.34 0.08,-8 0.1,-4.4 1.27,-8.53 3.21,-12.48 0.73,-1.49 0.98,-3.25 1.87,-4.62 1.11,-1.71 2.7,-3.11 4,-4.71 1.39,-1.71 2.53,-3.67 4.1,-5.17 1.43,-1.37 2.67,-3.27 5.03,-3.3 0.09,0 0.18,-0.02 0.26,-0.04 2.55,-0.67 5.1,-1.33 7.64,-2.01 1.58,-0.42 3.17,-0.79 4.72,-1.31 0.99,-0.33 1.88,-0.96 2.87,-1.33 0.9,-0.34 1.85,-0.69 2.79,-0.72 2.4,-0.09 4.8,-0.01 7.2,0.01 0.44,0 0.92,0.09 1.33,-0.03 2.38,-0.66 4.79,-1.23 7.09,-2.1 1.71,-0.64 3.33,-1.58 4.87,-2.58 1.85,-1.2 3.47,-2.79 5.38,-3.87 1.25,-0.7 2.5,-1.26 3.32,-2.48 C 119.55,0 119.72,0 119.9,0 Z"
   id="path4"
   inkscape:connector-curvature="0"
   style="fill:#000000;fill-opacity:1" />
		<path
   d="m 97.65,126.28 c 5.23,0.04 9.78,1.09 14.12,3.05 0.24,0.11 0.49,0.25 0.74,0.28 5.22,0.7 9.32,3.84 13.17,6.9 4.42,3.52 8.25,7.85 10.76,13.08 0.87,1.82 1.75,3.63 1.58,5.82 -0.09,1.22 0.56,2.48 0.74,3.75 0.19,1.34 0.28,2.71 0.29,4.07 0.03,5.78 0.11,11.55 -0.07,17.32 -0.05,1.63 -0.92,3.24 -1.44,4.85 -0.16,0.5 -0.63,0.97 -0.62,1.45 0.03,2.97 -1.74,5.1 -3.4,7.19 -5.05,6.38 -10.98,11.82 -18.57,15 -6.35,2.65 -12.98,4.35 -20,3.61 -4.03,-0.42 -8.04,-1 -11.79,-2.59 -0.98,-0.41 -1.63,-1.56 -2.48,-2.31 -1.65,-1.45 -3.33,-2.88 -5.03,-4.28 -0.33,-0.27 -0.8,-0.37 -1.21,-0.54 -1.34,-0.54 -2.72,-0.99 -4,-1.62 -3.08,-1.52 -4.93,-4.21 -6.54,-7.11 -0.39,-0.7 -0.7,-1.44 -1.14,-2.1 -1.91,-2.9 -3.23,-6.07 -4.37,-9.33 -0.1,-0.29 -0.2,-0.61 -0.39,-0.84 -2.38,-2.76 -2.81,-6.08 -2.87,-9.56 -0.04,-2.26 -0.36,-4.51 -0.44,-6.77 -0.03,-0.8 0.33,-1.61 0.45,-2.43 1.4,-9.47 5.65,-17.43 12.61,-23.96 6.89,-6.47 15.1,-10.37 24.29,-12.31 0.69,-0.15 1.38,-0.38 2.08,-0.44 1.32,-0.11 2.66,-0.14 3.53,-0.18 z"
   id="path6"
   inkscape:connector-curvature="0"
   style="fill:#000000;fill-opacity:1" />
		<path
   d="m 182.28,133.43 c 2.87,-0.39 5.31,1.63 5.44,4.8 0.01,0.35 0.03,0.72 0.16,1.04 1.6,3.81 1.5,7.62 0.13,11.47 -0.23,0.64 -0.24,1.42 -0.14,2.1 0.4,2.71 -0.67,5.15 -1.46,7.6 -0.84,2.61 -2.01,5.11 -3.03,7.66 -2.19,5.49 -5.42,10.34 -8.91,15.08 -3.72,5.05 -8.51,8.89 -13.38,12.68 -1.43,1.11 -2.72,2.42 -4.17,3.5 -1.02,0.76 -2.17,1.37 -3.32,1.94 -3.3,1.62 -6.66,3.13 -9.92,4.81 -1.59,0.82 -2.19,-0.42 -2.88,-1.23 -0.27,-0.32 0.05,-1.22 0.22,-1.82 0.4,-1.4 0.88,-2.77 1.3,-4.16 0.49,-1.59 0.88,-3.21 1.44,-4.78 0.76,-2.12 1.84,-4.14 2.41,-6.31 0.48,-1.81 0.41,-3.77 0.61,-5.66 0.09,-0.87 0.27,-1.73 0.39,-2.59 0.13,-0.87 0.35,-1.75 0.35,-2.63 0.03,-6.84 -0.17,-13.69 0.13,-20.52 0.08,-1.89 1.6,-3.73 2.52,-5.56 0.07,-0.14 0.64,-0.05 0.98,-0.02 3.36,0.25 6.72,0.72 10.08,0.71 2.5,-0.01 5,-0.65 7.5,-1.01 0.13,-0.02 0.27,-0.04 0.39,-0.1 1.96,-0.9 3.8,-2.03 6.02,-2.4 0.81,-0.14 1.71,-1.15 2.12,-1.98 1.4,-2.78 3.07,-5.45 3.5,-8.67 0.15,-1.3 0.94,-2.53 1.52,-3.95 z"
   id="path8"
   inkscape:connector-curvature="0"
   style="fill:#000000;fill-opacity:1" />
	</g>
</g>
</svg>