<?xml version="1.0" encoding="UTF-8" standalone="no"?>
<!-- Generator: Adobe Illustrator 24.1.0, SVG Export Plug-In  -->

<svg
   xmlns:dc="http://purl.org/dc/elements/1.1/"
   xmlns:cc="http://creativecommons.org/ns#"
   xmlns:rdf="http://www.w3.org/1999/02/22-rdf-syntax-ns#"
   xmlns:svg="http://www.w3.org/2000/svg"
   xmlns="http://www.w3.org/2000/svg"
   xmlns:sodipodi="http://sodipodi.sourceforge.net/DTD/sodipodi-0.dtd"
   xmlns:inkscape="http://www.inkscape.org/namespaces/inkscape"
   version="1.1"
   x="0px"
   y="0px"
   width="221.65117"
   height="221.65117"
   viewBox="0 0 221.65118 221.65117"
   xml:space="preserve"
   id="svg13"
   sodipodi:docname="tzeentch_arcanites.svg"
   inkscape:version="0.92.3 (2405546, 2018-03-11)"><metadata
   id="metadata17"><rdf:RDF><cc:Work
       rdf:about=""><dc:format>image/svg+xml</dc:format><dc:type
         rdf:resource="http://purl.org/dc/dcmitype/StillImage" /><dc:title /></cc:Work></rdf:RDF></metadata><sodipodi:namedview
   pagecolor="#ffffff"
   bordercolor="#666666"
   borderopacity="1"
   objecttolerance="10"
   gridtolerance="10"
   guidetolerance="10"
   inkscape:pageopacity="0"
   inkscape:pageshadow="2"
   inkscape:window-width="1920"
   inkscape:window-height="1017"
   id="namedview15"
   showgrid="false"
   fit-margin-top="0"
   fit-margin-left="0"
   fit-margin-right="0"
   fit-margin-bottom="0"
   inkscape:zoom="1.0648378"
   inkscape:cx="-198.63138"
   inkscape:cy="110.84124"
   inkscape:window-x="-8"
   inkscape:window-y="-8"
   inkscape:window-maximized="1"
   inkscape:current-layer="svg13" />
<defs
   id="defs2">
</defs>
<g
   id="CZg9uR.tif_1_"
   transform="translate(20.679089,-0.0050826)"
   style="fill:#000000;fill-opacity:1">
	<g
   id="g10"
   style="fill:#000000;fill-opacity:1">
		<path
   d="m 80.01,110.56 c -1.35,2.09 -3.31,1.31 -5.11,0.79 -1.57,-0.45 -3.05,-1.16 -4.74,-1.22 -0.81,-0.02 -1.6,-0.44 -2.41,-0.63 -2.91,-0.69 -5.81,-1.37 -8.73,-2.03 -2.05,-0.46 -4.09,-1.01 -6.17,-1.25 -1.29,-0.15 -2.64,0.23 -4.05,0.38 0.51,1.11 0.42,2.24 1.11,3.27 0.57,0.85 0.6,2.08 0.8,3.15 0.49,2.6 0.83,5.23 1.42,7.81 0.76,3.31 1.75,6.56 2.54,9.86 0.55,2.33 0.59,4.72 -0.46,6.93 -0.68,1.44 -2.07,2.3 -3.53,2.74 -2,0.61 -4.08,0.97 -6.13,1.41 -1.66,0.36 -3.35,0.61 -4.98,1.05 -1.59,0.43 -3.11,0.99 -4.57,1.9 -2.28,1.42 -4.82,2.43 -7.24,3.62 -0.03,0.01 -0.05,0.02 -0.08,0.03 -1.81,0.73 -1.9,1.05 -0.77,2.66 0.62,0.88 1.19,1.8 1.82,2.68 0.28,0.4 0.59,0.8 0.96,1.1 2.09,1.74 4.18,3.49 6.33,5.16 1.61,1.25 3.3,2.39 4.95,3.58 1.51,1.09 3.08,2.12 4.51,3.3 0.92,0.76 1.64,1.75 2.47,2.66 0.95,-0.12 1.89,0.63 2.22,1.8 0.53,1.91 1.07,3.82 1.61,5.73 0.03,0.11 0.08,0.22 0.08,0.34 0.03,0.99 0.05,1.98 0.07,2.97 -1.29,0.84 -2.44,2.01 -4.09,2.06 -0.52,0.01 -1.08,-0.31 -1.57,-0.57 -0.76,-0.42 -1.48,-0.93 -2.21,-1.4 -0.36,-0.23 -0.71,-0.47 -1.08,-0.69 -0.42,-0.25 -0.82,-0.65 -1.26,-0.7 -1.72,-0.17 -2.89,-1.38 -4.27,-2.15 -1.93,-1.08 -3.8,-2.25 -5.69,-3.39 -0.69,-0.42 -1.39,-0.82 -2.04,-1.29 -1.73,-1.24 -3.46,-2.47 -5.14,-3.77 -1.27,-0.98 -2.47,-2.06 -3.72,-3.08 -0.66,-0.55 -1.36,-1.05 -2.01,-1.61 -2.1,-1.78 -4.21,-3.55 -5.58,-6.04 -0.77,-1.4 -1.78,-2.68 -3.16,-3.6 -0.33,-0.22 -0.59,-0.6 -0.78,-0.96 -0.67,-1.27 -1.44,-2.51 -1.91,-3.85 -0.44,-1.25 -1.39,-2.08 -2,-3.14 C 4.69,144.92 4.05,143.51 4.16,141.93 4.19,141.52 4.11,141 3.87,140.7 3.14,139.8 3.25,138.78 3.19,137.75 3.15,137.09 2.88,136.44 2.7,135.79 2.53,135.17 2.31,134.57 2.17,133.94 1.99,133.11 2.04,132.18 1.68,131.44 1.09,130.23 1.2,128.98 1.04,127.74 0.95,127.04 0.57,126.37 0.33,125.69 0.22,125.38 0.08,125.05 0.07,124.73 0.02,119.37 0,114.01 0,108.65 c 0,-0.33 0.03,-0.74 0.22,-0.98 0.74,-0.93 0.7,-2.03 0.82,-3.12 0.05,-0.49 0.27,-0.96 0.44,-1.43 0.07,-0.19 0.27,-0.34 0.29,-0.52 0.18,-1.25 0.82,-2.38 1.08,-3.56 0.36,-1.61 1,-3.02 1.84,-4.38 0.09,-0.14 0.21,-0.32 0.2,-0.47 -0.04,-1.47 0.74,-2.71 1.31,-3.96 0.67,-1.47 1.57,-2.88 2.57,-4.15 3.11,-3.95 6.83,-7.26 11.12,-9.87 3.21,-1.96 6.5,-3.82 9.87,-5.49 2.62,-1.3 5.44,-2.2 8.12,-3.39 3.07,-1.36 5.97,-3.01 8.16,-5.65 2.6,-3.14 4.39,-6.61 4.45,-10.79 0.04,-2.48 0,-4.96 0.09,-7.43 0.06,-1.74 0.15,-3.5 0.44,-5.22 0.21,-1.26 0.72,-2.48 1.18,-3.69 0.47,-1.23 1.07,-2.41 1.56,-3.63 0.44,-1.11 0.79,-2.25 1.24,-3.35 0.43,-1.05 1,-1.97 1.9,-2.78 1.38,-1.24 2.52,-2.75 3.75,-4.15 0.47,-0.54 0.94,-1.09 1.37,-1.66 0.31,-0.4 0.56,-0.85 0.84,-1.28 0.14,-0.21 0.26,-0.45 0.43,-0.62 0.22,-0.22 0.53,-0.37 0.74,-0.6 2.39,-2.59 5.72,-2.65 8.83,-3.14 4.15,-0.65 8.35,-0.72 12.56,-0.71 2.64,0.01 5.29,-0.16 7.92,-0.4 1.36,-0.12 2.72,-0.45 4.03,-0.87 2.24,-0.72 4.61,-1.16 6.54,-2.58 1.26,-0.93 2.5,-1.93 3.58,-3.07 1.63,-1.73 3.08,-3.64 4.68,-5.4 0.27,-0.29 0.92,-0.32 1.39,-0.3 0.13,0.01 0.33,0.61 0.34,0.94 0.05,0.98 0,1.96 0.02,2.94 0.02,1.62 -0.92,2.88 -1.58,4.23 -0.8,1.67 -1.92,3.11 -3.18,4.48 -1.25,1.36 -2.15,3.06 -3.43,4.4 -1.08,1.13 -2.47,1.95 -3.74,2.89 -0.12,0.09 -0.33,0.08 -0.5,0.08 -1.22,0.06 -2.17,0.7 -3.06,1.44 -0.49,0.4 -0.9,0.95 -1.45,1.21 -2.58,1.24 -4.29,3.33 -5.79,5.65 -0.11,0.17 -0.29,0.34 -0.3,0.52 -0.11,2.13 -1.41,3.96 -1.37,6.15 0.05,3.02 -0.12,6.04 -0.28,9.06 -0.15,2.78 0.71,5.32 1.6,7.89 0.75,2.17 1.45,4.4 1.74,6.66 0.2,1.57 -0.22,3.26 -0.6,4.85 -1.15,4.8 -4.04,8.72 -6.53,12.86 -1.24,2.06 -3.28,2.99 -4.83,4.57 -2.01,2.05 -4.11,4.05 -5.95,6.24 -1.56,1.86 -2.31,4.19 -2.46,6.62 -0.15,2.44 -0.32,4.88 0.3,7.31 0.54,2.11 1.69,3.85 3.15,5.38 1.36,1.46 2.88,2.78 4.35,4.18 z"
   id="path4"
   inkscape:connector-curvature="0"
   style="fill:#000000;fill-opacity:1" />
		<path
   d="m 35.38,151.75 c 1.08,-1.46 2.87,-1.99 4.68,-2.52 2.15,-0.63 4.28,-1.31 6.41,-2.01 2.71,-0.88 5.4,-1.81 8.1,-2.71 0.97,-0.32 2,-0.53 2.91,-0.97 0.52,-0.25 0.93,-0.83 1.27,-1.33 0.56,-0.83 1.06,-1.71 1.5,-2.61 0.52,-1.05 1.07,-2.12 1.36,-3.24 0.14,-0.56 -0.3,-1.25 -0.42,-1.9 -0.07,-0.38 -0.02,-0.77 -0.02,-1.16 -0.01,-0.54 0.11,-1.11 -0.04,-1.61 -0.82,-2.76 -1.68,-5.51 -2.59,-8.24 -1.07,-3.22 -2.22,-6.42 -3.29,-9.63 -0.13,-0.38 -0.18,-1.03 0.03,-1.23 0.41,-0.39 0.91,-0.87 1.67,-0.52 1.12,0.52 2.34,0.84 3.41,1.45 2.68,1.54 5.59,2.14 8.61,2.49 0.59,0.07 1.17,0.43 1.7,0.74 0.99,0.57 1.89,1.32 2.93,1.78 0.84,0.37 1.82,0.52 2.74,0.55 1.29,0.04 2.47,0.23 3.59,0.97 1.4,0.92 3.03,0.24 3.68,-1.42 0.92,-2.38 1.81,-4.79 2.75,-7.16 0.29,-0.74 0.77,-1.41 1.09,-2.15 1.03,-2.37 2.04,-4.75 3.04,-7.13 0.91,-2.17 1.8,-4.36 2.72,-6.53 0.47,-1.11 0.97,-2.21 1.54,-3.27 0.15,-0.28 0.59,-0.55 0.9,-0.56 0.5,-0.01 0.99,0.13 1.16,0.8 1.12,4.3 2.84,8.38 4.56,12.47 0.21,0.5 0.3,1.05 0.47,1.57 0.84,2.51 1.7,5.01 2.52,7.52 0.4,1.22 0.61,2.53 1.16,3.69 0.99,2.07 2.44,3.74 4.72,4.55 0.89,0.32 1.76,0.77 2.51,1.34 0.91,0.7 1.74,0.44 2.68,0.18 1.4,-0.4 2.82,-0.72 4.25,-1.03 4.2,-0.91 8.59,-1.08 12.5,-3.16 0.3,-0.16 0.66,-0.39 0.96,-0.35 0.46,0.06 0.95,0.26 1.32,0.54 0.14,0.1 0.08,0.62 -0.03,0.9 -0.93,2.29 -1.95,4.55 -2.83,6.86 -0.51,1.33 -0.79,2.74 -1.24,4.1 -0.72,2.17 -1.64,4.29 -2.22,6.51 -0.57,2.22 -0.24,4.39 1.54,6.06 0.48,0.45 1.19,0.67 1.79,1 0.82,0.46 1.65,0.92 2.46,1.38 0.75,0.43 1.51,0.83 2.22,1.31 1.36,0.91 2.66,1.92 4.05,2.79 2.07,1.3 4.19,2.51 6.29,3.77 0.52,0.31 1.03,0.63 1.51,1 0.74,0.58 0.6,1.53 -0.18,2.06 -1.45,0.98 -2.87,2.02 -4.3,3.03 -0.09,0.07 -0.16,0.18 -0.26,0.23 -1.98,1.05 -3.95,2.13 -5.96,3.12 -1.05,0.52 -2.19,0.89 -3.29,1.31 -1.15,0.44 -1.81,1.31 -2.1,2.46 -0.29,1.15 -0.61,2.28 -1.53,3.12 -0.1,0.09 -0.17,0.25 -0.18,0.39 -0.02,1.17 -0.55,2.14 -1.1,3.12 -0.17,0.31 -0.26,0.72 -0.25,1.08 0.03,1.17 -0.33,2.18 -0.98,3.15 -0.16,0.24 -0.05,0.83 0.14,1.13 0.56,0.92 1.33,1.72 1.81,2.68 1.52,3 2.94,6.06 4.41,9.09 0.83,1.7 1.71,3.37 2.53,5.07 0.2,0.43 0.32,0.94 0.32,1.41 0,1.44 -0.53,1.84 -1.92,1.52 -3.03,-0.69 -6,-1.53 -8.85,-2.86 -2.15,-1.01 -4.52,-1.52 -6.77,-2.33 -1.16,-0.42 -2.28,-0.96 -3.38,-1.53 -1.36,-0.71 -2.72,-0.95 -4.12,-0.21 -0.96,0.51 -1.89,1.09 -2.83,1.65 -0.17,0.1 -0.32,0.3 -0.5,0.33 -1.79,0.34 -3.06,1.53 -4.36,2.65 -0.37,0.32 -0.71,0.78 -0.85,1.24 -1.01,3.42 -1.96,6.86 -2.93,10.29 -0.05,0.16 -0.12,0.32 -0.2,0.48 -1.61,3.21 -3.17,6.45 -4.86,9.62 -0.53,0.99 -1.37,1.83 -2.14,2.67 -0.12,0.13 -0.75,0.02 -0.92,-0.18 -0.77,-0.91 -1.71,-1.8 -2.13,-2.87 -0.64,-1.64 -0.84,-3.44 -1.37,-5.13 -0.33,-1.05 -0.9,-2.03 -1.37,-3.04 -0.46,-0.99 -1.01,-1.95 -1.37,-2.97 -1.02,-2.9 -1.96,-5.84 -2.94,-8.76 -0.08,-0.24 -0.24,-0.46 -0.32,-0.71 -0.85,-2.6 -2.99,-3.09 -5.3,-3.23 -2.14,-0.13 -4.2,0.4 -6.28,0.8 -1.15,0.22 -2.37,0.09 -3.52,0.33 -2.98,0.63 -5.92,1.52 -8.92,2.01 -2.38,0.39 -4.44,1.55 -6.67,2.27 -0.9,0.29 -1.83,0.47 -2.75,0.69 -0.25,0.06 -0.51,0.07 -0.77,0.06 -0.72,-0.02 -1.45,-0.07 -2.26,-0.11 -0.11,-0.5 -0.29,-1.21 -0.42,-1.93 -0.03,-0.16 0.11,-0.37 0.23,-0.52 1.87,-2.33 3.28,-4.93 4.59,-7.6 0.23,-0.47 0.74,-0.8 1.01,-1.25 1.03,-1.7 2.02,-3.42 3.02,-5.13 0.46,-0.8 0.89,-1.61 1.33,-2.42 0.63,-1.14 1.26,-2.27 1.87,-3.42 0.06,-0.12 0.02,-0.36 -0.07,-0.48 -1.02,-1.39 -1.05,-3.14 -1.71,-4.67 -0.52,-1.22 -0.91,-2.49 -1.36,-3.73 -0.06,-0.16 -0.17,-0.33 -0.17,-0.49 0.01,-2.06 -1.43,-3.18 -2.81,-4.3 -3.24,-2.64 -6.66,-5.01 -10.33,-7.02 -0.81,-0.44 -1.47,-1.17 -2.14,-1.82 -1.38,-1.37 -2.72,-2.78 -4.14,-4.23 z m 58.64,22.68 c 2.92,0.2 5.44,-0.71 7.59,-2.69 0.48,-0.44 1.03,-0.82 1.6,-1.13 3.4,-1.84 5.33,-4.65 5.74,-8.5 0.06,-0.56 0.19,-1.14 0.4,-1.66 1.14,-2.92 1.1,-5.79 -0.2,-8.65 -0.2,-0.44 -0.33,-0.93 -0.38,-1.4 -0.35,-3.4 -1.96,-6.02 -4.8,-7.91 -0.54,-0.36 -1.05,-0.8 -1.49,-1.29 -2.12,-2.33 -4.74,-3.48 -7.89,-3.5 -1.28,-0.01 -2.58,0.01 -3.85,-0.11 -3.7,-0.35 -6.63,1.31 -9.41,3.45 -0.47,0.36 -0.98,0.7 -1.52,0.96 -3.86,1.87 -5.88,4.93 -6.09,9.21 -0.03,0.62 -0.13,1.26 -0.3,1.86 -0.47,1.69 -0.67,3.37 -0.21,5.11 0.27,1 0.54,2.02 0.59,3.04 0.15,3.14 1.29,5.78 3.73,7.78 1.62,1.33 3.28,2.64 5.05,3.77 2.69,1.71 5.62,2.64 8.88,2.01 0.85,-0.18 1.71,-0.24 2.56,-0.35 z"
   id="path6"
   inkscape:connector-curvature="0"
   style="fill:#000000;fill-opacity:1" />
		<path
   d="m 171.03,117.47 c 0.85,0.01 1.61,0.25 2.11,0.94 2.12,2.94 4.19,5.92 5.36,9.41 0.26,0.79 0.5,1.59 0.81,2.37 0.61,1.51 0.94,3.04 0.9,4.7 -0.06,2.5 0.05,5.01 0.08,7.51 0,0.34 0.03,0.72 -0.1,1.02 -0.99,2.32 -0.97,4.8 -1.32,7.23 -0.31,2.14 -0.99,4.27 -1.79,6.3 -1.5,3.81 -3.51,7.37 -5.82,10.76 -0.81,1.19 -1.95,1.93 -3,2.82 -1.62,1.37 -3.25,2.75 -4.77,4.22 -2.27,2.19 -4.5,4.4 -7.54,5.51 -2.16,0.79 -4.32,1.57 -6.5,2.32 -1.14,0.39 -2.32,0.64 -3.44,1.07 -0.85,0.33 -1.61,0.87 -2.44,1.26 -1.84,0.86 -3.77,1.36 -5.81,1.5 -0.52,0.03 -0.81,-0.18 -1.09,-0.64 -1.13,-1.88 -1.69,-3.95 -2.21,-6.05 -0.1,-0.39 -0.18,-0.79 -0.33,-1.16 -0.73,-1.9 -0.24,-3.2 1.15,-4.6 1.51,-1.52 3.36,-2.23 5.25,-2.98 0.62,-0.25 1.22,-0.69 1.68,-1.18 1.42,-1.5 2.74,-3.09 4.17,-4.58 0.77,-0.81 1.61,-1.57 2.52,-2.22 1.62,-1.16 2.42,-2.89 3.4,-4.5 0.16,-0.26 0.2,-0.74 0.07,-0.99 -0.56,-1.01 -0.37,-2.08 -0.31,-3.13 0.04,-0.71 -0.2,-1.07 -0.82,-1.41 -2.34,-1.3 -4.66,-2.62 -6.93,-4.03 -1.88,-1.16 -3.65,-2.51 -5.53,-3.67 -2.02,-1.24 -4.11,-2.38 -6.19,-3.51 -0.91,-0.5 -1.07,-1.24 -0.26,-1.89 0.78,-0.62 1.6,-0.97 2.69,-0.92 2.49,0.12 4.98,0.21 7.46,-0.43 1.03,-0.26 2.18,-0.13 3.27,-0.03 3.92,0.36 7.82,0.98 11.74,1.14 3.41,0.14 6.51,-1.05 8.68,-3.84 0.92,-1.18 1.52,-2.64 2.11,-4.03 0.74,-1.75 1.56,-3.52 1.88,-5.36 0.38,-2.17 1.59,-4.18 1.33,-6.46 -0.09,-0.81 -0.3,-1.61 -0.46,-2.47 z"
   id="path8"
   inkscape:connector-curvature="0"
   style="fill:#000000;fill-opacity:1" />
	</g>
</g>
</svg>