<?xml version="1.0" encoding="UTF-8" standalone="no"?>
<!-- Generated by IcoMoon.io -->

<svg
   xmlns:dc="http://purl.org/dc/elements/1.1/"
   xmlns:cc="http://creativecommons.org/ns#"
   xmlns:rdf="http://www.w3.org/1999/02/22-rdf-syntax-ns#"
   xmlns:svg="http://www.w3.org/2000/svg"
   xmlns="http://www.w3.org/2000/svg"
   xmlns:sodipodi="http://sodipodi.sourceforge.net/DTD/sodipodi-0.dtd"
   xmlns:inkscape="http://www.inkscape.org/namespaces/inkscape"
   version="1.1"
   width="215"
   height="215"
   viewBox="0 0 215 215"
   id="svg12"
   sodipodi:docname="chaotic_beast.svg"
   inkscape:version="0.92.3 (2405546, 2018-03-11)">
  <metadata
     id="metadata18">
    <rdf:RDF>
      <cc:Work
         rdf:about="">
        <dc:format>image/svg+xml</dc:format>
        <dc:type
           rdf:resource="http://purl.org/dc/dcmitype/StillImage" />
        <dc:title>monster-chaotic-beasts</dc:title>
      </cc:Work>
    </rdf:RDF>
  </metadata>
  <defs
     id="defs16" />
  <sodipodi:namedview
     pagecolor="#ffffff"
     bordercolor="#666666"
     borderopacity="1"
     objecttolerance="10"
     gridtolerance="10"
     guidetolerance="10"
     inkscape:pageopacity="0"
     inkscape:pageshadow="2"
     inkscape:window-width="1920"
     inkscape:window-height="1017"
     id="namedview14"
     showgrid="false"
     fit-margin-top="0"
     fit-margin-left="0"
     fit-margin-right="0"
     fit-margin-bottom="0"
     inkscape:zoom="1.84375"
     inkscape:cx="-100.33967"
     inkscape:cy="92.876445"
     inkscape:window-x="-8"
     inkscape:window-y="-8"
     inkscape:window-maximized="1"
     inkscape:current-layer="svg12" />
  <title
     id="title2">monster-chaotic-beasts</title>
  <g
     id="g832"
     transform="matrix(6.7192691,0,0,6.7192691,-0.00705313,-0.00989151)"
     style="fill:#000000;fill-opacity:1">
    <path
       id="path4"
       d="m 2.168,21.161 c 0.056,-0.25 0.218,-0.431 0.389,-0.612 0.196,-0.207 0.371,-0.435 0.554,-0.654 0.019,-0.023 0.033,-0.053 0.056,-0.073 0.547,-0.509 0.917,-1.161 1.396,-1.724 0.334,-0.395 0.695,-0.767 1.051,-1.142 0.151,-0.159 0.35,-0.212 0.571,-0.226 0.23,-0.015 0.458,-0.053 0.683,0.027 0.081,0.028 0.178,0.05 0.235,0.108 0.352,0.361 0.747,0.692 0.84,1.233 0.037,0.216 0.03,0.396 -0.136,0.564 -0.226,0.23 -0.431,0.481 -0.65,0.718 -0.218,0.237 -0.482,0.408 -0.79,0.508 -0.014,0.005 -0.031,0.008 -0.044,0.015 -0.706,0.434 -1.536,0.561 -2.272,0.92 C 3.909,20.892 3.765,20.96 3.615,21.01 3.515,21.043 3.396,21.023 3.299,21.061 3.003,21.179 2.678,21.243 2.45,21.502 2.386,21.575 2.286,21.544 2.231,21.455 2.205,21.413 2.19,21.363 2.171,21.316 2.17,21.262 2.17,21.211 2.17,21.159 Z"
       inkscape:connector-curvature="0"
       style="fill:#000000;fill-opacity:1" />
    <path
       id="path6"
       d="M 17.808,6.168 C 17.749,6.01 17.7,5.879 17.651,5.748 c 0.145,-0.083 0.334,-0.067 0.475,0.067 0.071,0.065 0.131,0.145 0.182,0.227 0.358,0.566 0.78,1.079 1.227,1.577 0.207,0.231 0.366,0.506 0.554,0.753 0.101,0.132 0.221,0.25 0.335,0.373 0.059,0.063 0.131,0.117 0.185,0.183 0.108,0.131 0.21,0.266 0.309,0.403 0.149,0.208 0.284,0.408 0.585,0.436 0.259,0.024 0.502,0.056 0.752,-0.055 C 22.426,9.635 22.614,9.59 22.799,9.553 23.057,9.499 23.219,9.355 23.294,9.105 23.392,8.788 23.44,8.466 23.393,8.134 23.376,8.012 23.383,7.888 23.363,7.767 23.339,7.612 23.326,7.445 23.259,7.306 23.056,6.88 22.771,6.521 22.387,6.233 21.969,5.92 21.581,5.566 21.178,5.234 20.83,4.947 20.489,4.658 20.204,4.299 20.046,4.099 19.813,3.958 19.61,3.795 19.483,3.694 19.35,3.601 19.205,3.494 19.356,3.39 19.374,3.273 19.277,3.14 c 0.128,-0.1 0.249,-0.069 0.363,-0.005 0.251,0.139 0.503,0.277 0.749,0.425 0.881,0.526 1.801,0.949 2.814,1.165 0.203,0.044 0.411,0.145 0.575,0.275 0.527,0.414 1.037,0.853 1.552,1.283 0.051,0.042 0.099,0.09 0.151,0.131 0.482,0.382 0.967,0.76 1.445,1.147 0.113,0.092 0.207,0.212 0.298,0.33 0.107,0.137 0.205,0.282 0.294,0.432 0.051,0.086 0.087,0.185 0.11,0.284 0.05,0.203 0.094,0.408 0.131,0.613 0.073,0.409 0.118,0.821 0.035,1.236 -0.018,0.089 -0.01,0.182 -0.027,0.272 -0.036,0.195 -0.051,0.4 -0.126,0.58 -0.104,0.249 -0.254,0.479 -0.387,0.715 -0.078,0.139 -0.166,0.271 -0.245,0.408 -0.291,0.495 -0.659,0.925 -1.105,1.288 -0.21,0.172 -0.434,0.327 -0.644,0.5 -0.709,0.582 -1.546,0.939 -2.359,1.339 -0.104,0.051 -0.223,0.077 -0.339,0.1 -0.273,0.056 -0.486,0.218 -0.684,0.395 -0.062,0.055 -0.092,0.174 -0.091,0.263 0.005,0.218 0.082,0.409 0.23,0.586 0.407,0.488 0.793,0.993 1.192,1.488 0.171,0.21 0.362,0.404 0.529,0.618 0.199,0.254 0.381,0.52 0.57,0.78 0.339,0.468 0.353,1.028 0.422,1.565 0.05,0.396 0.038,0.799 0.065,1.198 0.041,0.598 -0.137,1.144 -0.385,1.674 -0.133,0.287 -0.293,0.564 -0.425,0.853 -0.062,0.132 -0.115,0.281 -0.122,0.425 -0.017,0.353 -0.167,0.656 -0.335,0.948 -0.145,0.253 -0.325,0.486 -0.495,0.724 -0.103,0.142 -0.237,0.14 -0.308,-0.019 -0.042,-0.094 -0.05,-0.221 -0.026,-0.322 0.042,-0.178 0.113,-0.35 0.183,-0.521 0.217,-0.527 0.308,-1.069 0.23,-1.637 -0.015,-0.11 -0.013,-0.226 -0.004,-0.337 0.017,-0.225 -0.041,-0.432 -0.1,-0.647 -0.158,-0.576 -0.486,-1.053 -0.81,-1.542 -0.189,-0.286 -0.339,-0.598 -0.612,-0.819 -0.059,-0.047 -0.117,-0.109 -0.186,-0.132 -0.299,-0.096 -0.602,-0.164 -0.92,-0.08 -0.457,0.122 -0.881,0.312 -1.232,0.631 -0.357,0.326 -0.573,0.747 -0.693,1.212 -0.042,0.167 -0.053,0.343 -0.071,0.516 -0.026,0.233 -0.047,0.467 -0.065,0.701 -0.006,0.096 -0.026,0.208 0.013,0.286 0.118,0.239 0.04,0.47 0.014,0.707 -0.014,0.124 0.005,0.251 0.01,0.377 0.001,0.026 0.018,0.054 0.012,0.074 -0.081,0.236 -0.001,0.466 0.017,0.699 0.013,0.172 -10e-4,0.348 -0.022,0.52 -0.047,0.396 -0.098,0.792 -0.162,1.186 -0.04,0.242 -0.103,0.481 -0.159,0.721 -0.049,0.209 -0.121,0.403 -0.242,0.59 -0.131,0.201 -0.199,0.445 -0.29,0.671 -0.096,0.236 -0.187,0.473 -0.28,0.712 -0.059,0.151 -0.117,0.302 -0.172,0.454 -0.033,0.092 -0.021,0.232 -0.166,0.216 -0.132,-0.015 -0.178,-0.127 -0.166,-0.254 0.035,-0.341 0.059,-0.685 0.112,-1.024 0.087,-0.566 0.145,-1.128 0.017,-1.696 -0.022,-0.094 -0.028,-0.21 -0.137,-0.205 -0.072,0.004 -0.158,0.083 -0.204,0.151 -0.074,0.108 -0.13,0.221 -0.284,0.227 -0.122,0.004 -0.209,-0.037 -0.248,-0.16 -0.01,-0.035 -0.021,-0.069 -0.036,-0.101 -0.064,-0.145 -0.158,-0.158 -0.25,-0.032 -0.051,0.069 -0.095,0.146 -0.136,0.223 -0.101,0.194 -0.275,0.246 -0.455,0.119 -0.073,-0.051 -0.121,-0.137 -0.191,-0.194 -0.055,-0.045 -0.126,-0.078 -0.195,-0.096 -0.013,-0.004 -0.074,0.085 -0.074,0.13 0.004,0.625 -0.133,1.247 -0.044,1.873 10e-4,0.005 0,0.012 10e-4,0.015 0.207,0.409 0.166,0.878 0.314,1.302 0.031,0.089 0.005,0.195 0.005,0.294 0,0.008 -0.012,0.015 -0.028,0.035 C 14.951,31.958 14.907,31.925 14.872,31.884 14.76,31.748 14.623,31.663 14.45,31.621 14.379,31.603 14.296,31.545 14.265,31.482 14.147,31.245 14.051,30.997 13.94,30.755 13.898,30.664 13.836,30.582 13.791,30.491 13.702,30.309 13.609,30.127 13.536,29.938 13.462,29.743 13.406,29.54 13.347,29.339 13.321,29.25 13.294,29.161 13.289,29.07 13.236,28.244 13.084,27.433 12.88,26.632 c -0.101,-0.396 -0.033,-0.774 0.049,-1.155 0.071,-0.33 0.045,-0.635 -0.133,-0.933 -0.049,-0.081 -0.045,-0.227 -0.008,-0.318 0.158,-0.384 0.019,-0.738 -0.087,-1.093 -0.021,-0.067 -0.109,-0.118 -0.173,-0.166 -0.126,-0.091 -0.2,-0.203 -0.192,-0.363 0.012,-0.242 -0.109,-0.411 -0.309,-0.527 -0.155,-0.09 -0.308,-0.187 -0.473,-0.255 -0.45,-0.187 -0.899,-0.118 -1.301,0.114 -0.298,0.172 -0.576,0.399 -0.812,0.65 -0.44,0.468 -0.72,1.026 -0.885,1.659 -0.13,0.491 0.003,0.931 0.095,1.389 0.03,0.15 0.074,0.298 0.107,0.448 0.012,0.055 0.008,0.114 0.012,0.2 C 8.504,26.2 8.456,25.936 8.234,25.791 8.23,25.913 8.206,26.014 8.229,26.104 c 0.054,0.203 0.137,0.396 0.196,0.598 0.018,0.06 -0.006,0.133 -0.012,0.2 C 8.353,26.889 8.282,26.893 8.233,26.861 7.656,26.485 7.258,25.967 7.027,25.319 6.971,25.16 6.9,25.006 6.854,24.843 6.819,24.721 6.805,24.593 6.798,24.466 6.768,23.919 6.738,23.372 6.724,22.824 6.718,22.585 6.745,22.345 6.764,22.107 6.777,21.944 6.795,21.78 6.824,21.618 6.846,21.504 6.877,21.387 6.928,21.282 7.283,20.553 7.725,19.889 8.352,19.358 8.669,19.09 8.96,18.792 9.264,18.509 9.45,18.336 9.487,18.123 9.471,17.878 c -0.017,-0.222 0,-0.446 0.014,-0.67 0.01,-0.153 0.042,-0.304 0.064,-0.457 C 9.563,16.656 9.527,16.597 9.432,16.565 9.278,16.512 9.13,16.434 8.973,16.397 8.841,16.366 8.698,16.383 8.561,16.373 7.882,16.326 7.254,16.088 6.621,15.86 6.405,15.782 6.173,15.748 5.962,15.662 5.536,15.491 5.109,15.316 4.698,15.11 4.232,14.878 3.856,14.533 3.56,14.098 3.425,13.9 3.256,13.726 3.112,13.532 2.891,13.233 2.784,12.884 2.726,12.522 2.663,12.126 2.653,11.73 2.709,11.328 2.764,10.934 2.774,10.533 2.787,10.135 2.805,9.564 3.042,9.098 3.389,8.656 3.963,7.921 4.498,7.156 5.059,6.412 5.372,5.999 5.749,5.656 6.246,5.468 6.36,5.424 6.465,5.359 6.572,5.297 7.375,4.835 8.257,4.613 9.156,4.439 9.328,4.406 9.497,4.339 9.659,4.268 10.436,3.929 11.136,3.448 11.872,3.034 11.975,2.976 12.084,2.929 12.193,2.888 12.246,2.867 12.306,2.871 12.364,2.865 12.373,2.879 12.383,2.892 12.392,2.906 12.179,3.205 11.974,3.509 11.75,3.799 11.555,4.05 11.35,4.294 11.129,4.523 10.756,4.91 10.322,5.223 9.811,5.403 9.357,5.562 8.986,5.819 8.673,6.183 8.383,6.52 8.061,6.832 7.753,7.154 7.612,7.303 7.468,7.449 7.327,7.599 7.296,7.632 7.263,7.67 7.247,7.711 6.988,8.401 6.809,9.095 7.185,9.805 c 0.024,0.045 0.044,0.096 0.08,0.13 0.563,0.514 1.205,0.844 1.986,0.853 0.25,0.003 0.423,-0.073 0.52,-0.332 0.108,-0.29 0.26,-0.557 0.457,-0.808 0.289,-0.37 0.541,-0.771 0.699,-1.223 0.065,-0.187 0.168,-0.362 0.244,-0.547 0.081,-0.199 0.131,-0.411 0.225,-0.602 0.242,-0.499 0.581,-0.926 1.003,-1.286 0.113,-0.096 0.24,-0.1 0.361,0.012 0.15,0.139 0.203,0.299 0.135,0.449 -0.264,0.584 -0.139,1.278 0.313,1.727 0.08,0.08 0.16,0.159 0.235,0.244 0.269,0.305 0.618,0.47 1.014,0.485 0.671,0.028 1.332,-0.04 1.935,-0.381 0.027,-0.015 0.056,-0.03 0.086,-0.033 0.321,-0.05 0.506,-0.255 0.609,-0.544 C 17.219,7.578 17.389,7.215 17.381,6.81 17.377,6.647 17.35,6.484 17.33,6.321 c -0.024,-0.196 0.024,-0.24 0.205,-0.182 0.038,0.013 0.08,0.019 0.121,0.026 0.035,0.003 0.071,0.001 0.154,0.006 z m -1.206,16.154 c -0.226,0.083 -0.287,0.163 -0.328,0.411 -0.055,0.341 -0.162,0.656 -0.42,0.902 -0.036,0.035 -0.068,0.078 -0.091,0.123 -0.068,0.136 -0.144,0.113 -0.236,0.026 -0.175,-0.163 -0.237,-0.371 -0.278,-0.599 -0.03,-0.162 -0.103,-0.317 -0.167,-0.471 -0.013,-0.032 -0.072,-0.062 -0.109,-0.062 -0.024,0 -0.067,0.053 -0.071,0.086 -0.018,0.15 -0.042,0.303 -0.033,0.452 0.015,0.249 0.053,0.497 0.083,0.744 0.008,0.065 0.028,0.128 0.044,0.192 0.041,0.167 0.096,0.331 0.122,0.5 0.08,0.521 0.146,1.043 0.225,1.565 0.023,0.153 0.128,0.189 0.236,0.089 0.331,-0.31 0.599,-0.663 0.688,-1.12 0.13,-0.672 0.277,-1.342 0.281,-2.034 0.001,-0.173 0.038,-0.345 0.054,-0.518 0.006,-0.087 0.001,-0.176 0.001,-0.286 z m 0.89,-2.004 c 0.1,-0.033 0.169,-0.049 0.232,-0.078 0.281,-0.133 0.564,-0.262 0.838,-0.409 0.103,-0.055 0.199,-0.144 0.264,-0.24 0.263,-0.386 0.405,-0.824 0.493,-1.279 0.015,-0.082 -0.01,-0.172 -0.018,-0.258 -0.085,0.022 -0.18,0.024 -0.251,0.068 -0.749,0.449 -1.193,1.147 -1.537,1.921 -0.031,0.071 -0.014,0.163 -0.021,0.276 z m -5.714,-1.95 c -0.114,0.022 -0.154,0.077 -0.109,0.169 0.054,0.11 0.115,0.218 0.186,0.317 0.173,0.241 0.363,0.471 0.53,0.716 0.354,0.521 0.785,0.675 1.37,0.473 0.158,-0.054 0.192,-0.137 0.082,-0.259 -0.164,-0.181 -0.327,-0.371 -0.521,-0.514 -0.345,-0.257 -0.707,-0.49 -1.073,-0.716 -0.14,-0.086 -0.309,-0.126 -0.466,-0.186 z m 5.242,1.479 c -0.168,-0.012 -0.241,0.035 -0.227,0.162 0.005,0.047 0.063,0.121 0.104,0.126 0.118,0.015 0.153,-0.069 0.123,-0.287 z"
       inkscape:connector-curvature="0"
       style="fill:#000000;fill-opacity:1" />
    <path
       id="path8"
       d="m 29.828,19.005 c 0,0.038 0.003,0.05 0,0.059 -0.032,0.081 -0.064,0.162 -0.096,0.241 -0.071,-0.051 -0.142,-0.099 -0.21,-0.154 -0.038,-0.032 -0.064,-0.082 -0.104,-0.11 -0.091,-0.062 -0.173,-0.063 -0.219,0.058 -0.027,0.072 -0.049,0.146 -0.083,0.214 -0.05,0.098 -0.133,0.14 -0.226,0.064 -0.148,-0.121 -0.319,-0.149 -0.499,-0.177 -0.296,-0.047 -0.59,-0.115 -0.888,-0.16 -0.307,-0.047 -0.618,-0.117 -0.925,-0.108 -0.706,0.021 -1.363,-0.217 -2.04,-0.335 -0.04,-0.006 -0.083,-0.022 -0.112,-0.047 -0.318,-0.28 -0.645,-0.552 -0.947,-0.849 -0.148,-0.145 -0.162,-0.357 -0.145,-0.564 0.013,-0.157 0.014,-0.317 0,-0.473 -0.026,-0.268 0.046,-0.435 0.291,-0.552 0.259,-0.123 0.523,-0.232 0.789,-0.34 0.053,-0.022 0.122,-0.024 0.177,-0.012 0.635,0.145 1.232,0.376 1.755,0.779 0.929,0.713 1.939,1.3 2.979,1.836 0.1,0.051 0.195,0.113 0.285,0.181 0.153,0.118 0.241,0.273 0.218,0.45 z"
       inkscape:connector-curvature="0"
       style="fill:#000000;fill-opacity:1" />
    <path
       id="path10"
       d="m 15.898,6.725 c -0.008,0.055 0,0.118 -0.027,0.162 C 15.684,7.204 15.46,7.468 15.056,7.52 14.681,7.567 14.212,7.353 14.03,7.022 13.817,6.636 13.793,6.223 13.858,5.797 c 0.105,-0.694 0.209,-1.388 0.317,-2.081 0.069,-0.445 0.118,-0.894 0.219,-1.332 0.169,-0.735 0.21,-1.505 0.561,-2.195 0.059,-0.117 0.13,-0.214 0.264,-0.181 0.135,0.035 0.178,0.162 0.186,0.29 0.017,0.285 0.015,0.571 0.039,0.856 0.031,0.367 0.065,0.734 0.121,1.098 0.071,0.476 0.153,0.949 0.248,1.42 0.058,0.285 0.189,0.561 0.213,0.847 0.03,0.35 0.098,0.685 0.208,1.016 0.009,0.028 0.004,0.06 0.005,0.091 0.005,0.209 0.01,0.417 0.017,0.626 0.001,0.056 0.014,0.112 0.017,0.168 0.009,0.255 -0.024,0.29 -0.286,0.299 -0.031,10e-4 -0.06,0.008 -0.091,0.012 0.004,-0.04 0.024,-0.089 0.009,-0.118 -0.023,-0.044 -0.068,-0.081 -0.11,-0.108 -0.01,-0.006 -0.076,0.038 -0.073,0.049 0.013,0.051 0.032,0.105 0.065,0.144 0.022,0.023 0.074,0.019 0.113,0.028 z"
       inkscape:connector-curvature="0"
       style="fill:#000000;fill-opacity:1" />
  </g>
</svg>
