<?xml version="1.0" encoding="UTF-8" standalone="no"?>
<svg
   xmlns:dc="http://purl.org/dc/elements/1.1/"
   xmlns:cc="http://creativecommons.org/ns#"
   xmlns:rdf="http://www.w3.org/1999/02/22-rdf-syntax-ns#"
   xmlns:svg="http://www.w3.org/2000/svg"
   xmlns="http://www.w3.org/2000/svg"
   xmlns:sodipodi="http://sodipodi.sourceforge.net/DTD/sodipodi-0.dtd"
   xmlns:inkscape="http://www.inkscape.org/namespaces/inkscape"
   width="215"
   height="215"
   viewBox="0 0 56.885415 56.885418"
   version="1.1"
   id="svg8"
   inkscape:version="1.0.2-2 (e86c870879, 2021-01-15)"
   sodipodi:docname="wraith_fleet.svg">
  <defs
     id="defs2">
    <pattern
       id="EMFhbasepattern"
       patternUnits="userSpaceOnUse"
       width="6"
       height="6"
       x="0"
       y="0" />
  </defs>
  <sodipodi:namedview
     id="base"
     pagecolor="#ffffff"
     bordercolor="#666666"
     borderopacity="1.0"
     inkscape:pageopacity="0.0"
     inkscape:pageshadow="2"
     inkscape:zoom="1.7303319"
     inkscape:cx="255.4414"
     inkscape:cy="59.196527"
     inkscape:document-units="px"
     inkscape:current-layer="layer1"
     inkscape:document-rotation="0"
     showgrid="false"
     inkscape:snap-global="false"
     units="px"
     inkscape:window-width="1920"
     inkscape:window-height="1017"
     inkscape:window-x="-8"
     inkscape:window-y="-8"
     inkscape:window-maximized="1" />
  <metadata
     id="metadata5">
    <rdf:RDF>
      <cc:Work
         rdf:about="">
        <dc:format>image/svg+xml</dc:format>
        <dc:type
           rdf:resource="http://purl.org/dc/dcmitype/StillImage" />
        <dc:title></dc:title>
      </cc:Work>
    </rdf:RDF>
  </metadata>
  <g
     inkscape:label="Layer 1"
     inkscape:groupmode="layer"
     id="layer1"
     transform="translate(0,-240.11457)">
    <path
       style="fill:#ffffff;stroke-width:0.140264;fill-opacity:1"
       d="m 11.309821,294.19207 c -0.4243,-0.35376 -0.790949,-0.69492 -0.814777,-0.75814 -0.02383,-0.0632 0.108268,-0.35628 0.293546,-0.65123 0.185278,-0.29497 0.362571,-0.61013 0.393984,-0.70036 0.129053,-0.37072 2.093767,-2.52684 3.092652,-3.39395 1.818866,-1.57892 1.943843,-1.64776 1.943843,-1.07071 0,0.44295 0.184488,0.448 0.469598,0.0129 0.1929,-0.2944 0.195171,-0.35951 0.01768,-0.50682 -0.112011,-0.093 -0.171543,-0.22098 -0.132294,-0.28449 0.08176,-0.13228 1.866923,-1.39565 1.97209,-1.39565 0.03817,0 0.398079,-0.24073 0.799799,-0.53495 0.401718,-0.29422 1.127006,-0.7834 1.611751,-1.08705 1.379408,-0.86409 2.602303,-1.62205 3.666401,-2.27246 0.538317,-0.32904 1.013659,-0.65472 1.056316,-0.72374 0.06861,-0.11102 -1.157771,-1.07635 -2.177128,-1.7137 -0.202671,-0.12671 -0.589628,-0.45808 -0.859904,-0.73638 -0.270277,-0.27829 -0.531897,-0.50599 -0.581374,-0.50599 -0.242099,0 -2.542678,-2.14646 -4.15976,-3.88108 -1.529331,-1.6405 -3.594778,-4.38936 -4.276833,-5.69196 -0.248895,-0.47534 -0.329748,-0.5259 -0.839642,-0.52506 -0.608872,10e-4 -1.155288,0.29156 -1.586636,0.84372 -0.366531,0.46919 -0.871158,1.47878 -0.871158,1.74289 0,0.11783 -0.236696,0.36415 -0.5259915,0.54738 -0.776148,0.49159 -2.892176,2.18234 -3.022315,2.41488 -0.158209,0.28271 -0.365761,0.25081 -0.289059,-0.0444 0.04743,-0.18256 -0.06478,-0.28535 -0.437826,-0.40108 -0.557762,-0.17305 -0.720797,-0.0581 -0.500783,0.35295 0.08044,0.1503 0.105717,0.37889 0.05618,0.50798 -0.04968,0.12947 -0.0099,0.28423 0.08861,0.34514 0.18874,0.11665 0.0805,0.42232 -0.149546,0.42232 -0.0745,0 -0.196005,-0.15925 -0.270008,-0.3539 -0.113623,-0.29884 -0.194899,-0.33941 -0.52252,-0.26079 -0.213382,0.0512 -0.412743,0.11425 -0.443022,0.14011 -0.122085,0.10425 0.317364,0.47458 0.563154,0.47458 0.369808,0 0.334258,0.42225 -0.08387,0.99617 -1.195465,1.64092 -2.001902,2.96999 -2.746306,4.52617 -0.769777,1.60922 -1.13156495,2.20786 -0.907306,1.50129 0.05188,-0.16348 0.006,-0.31577 -0.116211,-0.38573 -0.26163795,-0.14979 -0.06509,-1.53559 0.336003,-2.36906 0.15094,-0.31365 0.274436,-0.65232 0.274436,-0.75261 0,-0.25087 1.570494,-3.42206 2.134861,-4.31077 0.793348,-1.2493 1.962962,-2.85233 2.081133,-2.85233 0.06231,0 0.15336,-0.12624 0.20233,-0.28053 0.114866,-0.36191 0.307031,-0.35843 0.423224,0.008 0.08834,0.27834 0.103494,0.27521 0.443636,-0.0918 0.265777,-0.28678 0.37982,-0.33525 0.464886,-0.19762 0.07083,0.1146 0.209202,0.14266 0.372335,0.0755 0.208072,-0.0857 0.218812,-0.1219 0.05409,-0.18246 -0.238237,-0.0876 -0.694683,-0.60311 -0.701523,-0.79234 -0.0079,-0.21845 3.3372585,-3.33027 4.4064845,-4.09912 0.411529,-0.29592 0.412769,-0.3011 0.245462,-1.02591 -0.230029,-0.99654 -0.221379,-1.04507 0.217571,-1.22082 0.212149,-0.0849 0.624711,-0.25838 0.916803,-0.38542 l 0.531077,-0.23098 0.193928,0.45986 c 0.149617,0.3548 0.278661,0.45987 0.564782,0.45987 0.369799,0 0.502727,0.17658 1.425436,1.89357 0.22905,0.42622 0.247049,0.75302 0.03423,0.62149 -0.08577,-0.053 -0.211042,-0.009 -0.278381,0.0969 -0.204875,0.32347 -0.142069,0.70937 0.166028,1.02013 0.161016,0.16241 0.650188,0.80651 1.087048,1.43135 0.846701,1.21101 1.417043,1.92806 2.369171,2.9786 0.326167,0.35988 0.594422,0.7286 0.596123,0.81937 0.0017,0.0908 0.09128,0.18545 0.199059,0.2104 0.107783,0.025 0.762278,0.58777 1.454432,1.25072 0.692156,0.66296 1.818026,1.6413 2.501934,2.1741 0.683909,0.5328 1.349804,1.0634 1.479766,1.17912 0.129962,0.11572 0.657641,0.49443 1.172622,0.84158 0.51498,0.34715 1.127718,0.78555 1.36164,0.97421 0.419023,0.33795 0.431789,0.33932 0.863394,0.0926 0.522036,-0.29844 2.179061,-1.45907 3.288982,-2.30371 0.630281,-0.47965 0.876656,-0.58979 1.183583,-0.52912 0.347466,0.0687 0.379299,0.0435 0.307327,-0.24329 -0.06569,-0.26173 0.06784,-0.44422 0.7345,-1.00382 1.563677,-1.31255 4.564023,-4.48742 5.731798,-6.06519 0.15856,-0.21423 0.555636,-0.8181 0.882391,-1.34194 l 0.594097,-0.95243 -0.287138,-0.36504 -0.287138,-0.36503 0.513123,-0.92676 c 0.845237,-1.52659 1.009253,-1.72001 1.318294,-1.55462 0.229962,0.12307 0.297732,0.0718 0.479174,-0.36243 0.195215,-0.46722 0.244699,-0.49846 0.649043,-0.40965 0.240737,0.0529 0.71516,0.21887 1.054272,0.36887 0.663101,0.29333 0.743451,0.51117 0.406161,1.1012 -0.215618,0.37719 -0.281576,1.12212 -0.09936,1.12212 0.06107,0 0.341146,0.20513 0.622383,0.45585 0.281237,0.25073 0.744918,0.64522 1.030404,0.87665 1.846232,1.49671 4.444163,4.39827 5.930111,6.6232 1.359939,2.03626 2.82588,5.11347 2.82588,5.93191 0,0.23688 0.121317,0.60172 0.2696,0.81075 0.39133,0.55164 1.000338,3.6183 1.092177,5.49969 0.08104,1.66018 -0.0085,2.06186 -0.15813,0.70902 -0.163947,-1.48269 -1.484126,-5.47954 -2.180042,-6.60012 -0.07187,-0.11572 -0.294856,-0.5148 -0.495532,-0.88684 -1.392557,-2.58175 -4.107869,-5.60831 -6.471742,-7.21359 -0.952501,-0.64683 -1.057376,-0.7619 -1.310179,-1.43754 -0.479175,-1.28065 -1.378198,-2.10397 -2.29745,-2.10397 -0.440686,0 -0.558459,0.0773 -0.895166,0.58781 -0.345437,0.52371 -0.392718,0.55342 -0.433594,0.27245 -0.02521,-0.17345 -0.119913,-0.29029 -0.210396,-0.25965 -0.09049,0.0306 -0.306536,-0.13578 -0.480112,-0.36983 l -0.315594,-0.42554 v 0.4208 c 0,0.23143 0.157797,0.63467 0.35066,0.89608 0.192863,0.26142 0.350659,0.53195 0.350659,0.60119 0,0.13477 -0.15964,0.35473 -1.301852,1.79378 -0.402591,0.50721 -0.889774,1.12895 -1.082637,1.38165 -1.396048,1.82913 -4.805477,4.94282 -7.658909,6.99455 -0.719697,0.51749 -1.308917,1.00402 -1.309379,1.08116 -4.21e-4,0.0772 0.505235,0.45586 1.123769,0.84159 0.618533,0.38572 1.610904,1.01097 2.205268,1.38943 0.594364,0.37846 1.427816,0.90812 1.852115,1.17702 1.476344,0.93563 3.30008,2.18035 3.902594,2.66354 0.431799,0.34629 0.563042,0.52964 0.455857,0.63682 -0.196348,0.19635 -0.194335,0.65547 0.0026,0.65547 0.08437,0 0.186405,-0.12623 0.226753,-0.28052 0.04036,-0.15429 0.136328,-0.28053 0.213282,-0.28053 0.207652,0 1.718332,1.31875 2.888109,2.52116 0.998161,1.02603 2.409555,2.95894 2.409555,3.29991 0,0.1924 -1.577936,1.47267 -1.81506,1.47267 -0.08557,0 -0.21119,-0.14202 -0.279161,-0.31559 -0.324275,-0.82816 -2.336483,-2.99994 -3.913412,-4.22376 -0.411246,-0.31916 -1.010879,-0.78495 -1.332511,-1.03507 -0.647708,-0.50372 -4.81081,-3.30083 -5.143375,-3.45575 -0.234244,-0.10912 -0.478506,-0.25647 -1.402642,-0.84616 -0.347155,-0.22151 -0.978343,-0.62413 -1.402643,-0.89469 -0.424299,-0.27057 -1.136369,-0.735 -1.582376,-1.03209 -0.446008,-0.29708 -0.899156,-0.54014 -1.006997,-0.54014 -0.107841,0 -0.563471,0.24183 -1.012513,0.53741 -0.449041,0.29557 -1.510746,0.96015 -2.359345,1.47685 -0.848599,0.51669 -2.133088,1.31632 -2.854421,1.77695 -0.721332,0.46063 -1.335461,0.83751 -1.364732,0.83751 -0.02927,0 -0.385871,0.2522 -0.792447,0.56045 -0.851212,0.64535 -1.023734,0.68244 -1.144557,0.24606 l -0.08738,-0.31559 -0.244573,0.31252 c -0.182578,0.2333 -0.331175,0.28964 -0.586219,0.22228 l -0.341645,-0.0902 0.304904,0.4282 0.304905,0.4282 -0.804845,0.61092 c -0.442664,0.336 -1.349656,1.0943 -2.015538,1.6851 -0.665881,0.59081 -1.344409,1.14576 -1.507841,1.23322 -0.16343,0.0875 -0.297419,0.23571 -0.29775,0.32943 -2.8e-4,0.0937 -0.240107,0.48627 -0.532833,0.87234 -0.292724,0.38606 -0.574508,0.81211 -0.626183,0.94678 -0.133558,0.34805 -0.221426,0.31528 -1.084609,-0.40439 z m 12.623783,-16.04222 c 0,-0.19375 -0.09351,-0.28053 -0.302269,-0.28053 -0.293382,0 -0.294805,0.008 -0.04839,0.28053 0.139632,0.15429 0.275651,0.28053 0.302269,0.28053 0.02662,0 0.04839,-0.12624 0.04839,-0.28053 z M 7.5376335,271.66281 c 0.479591,-0.55993 0.58268,-0.80652 0.337176,-0.80652 -0.120341,0 -0.279917,0.16074 -0.354611,0.3572 -0.120857,0.31788 -0.189957,0.34704 -0.627717,0.26492 -0.56436,-0.10588 -0.690634,0.14863 -0.176315,0.35536 0.465405,0.18707 0.525527,0.17455 0.821467,-0.17096 z m 33.0607125,-1.7533 c -0.02601,-0.13501 -0.140216,-0.24547 -0.253826,-0.24547 -0.113604,0 -0.227822,0.11046 -0.253825,0.24547 -0.03316,0.17222 0.04259,0.24546 0.253825,0.24546 0.211259,0 0.286995,-0.0732 0.253826,-0.24546 z m 2.130664,-2.4897 c 0,-0.11571 -0.09468,-0.21039 -0.210396,-0.21039 -0.21903,0 -0.278276,0.16589 -0.116883,0.32728 0.161388,0.1614 0.327279,0.10214 0.327279,-0.11689 z M 0.14324555,284.28395 c 0.08318,-1.41276 0.179334,-1.67277 0.435804,-1.17842 0.146505,0.28239 0.146872,0.49178 0.002,1.11519 -0.552218,3.13955 -0.738957,3.43865 -0.437763,0.0632 z M 22.905031,271.21514 c -0.132979,-0.30408 -0.277372,-0.71436 -0.320874,-0.91172 -0.0435,-0.19737 -0.109824,-0.47177 -0.147383,-0.60979 -0.05754,-0.21145 -0.0081,-0.23585 0.313867,-0.15503 0.364386,0.0915 0.377419,0.0771 0.280319,-0.30983 -0.136739,-0.54481 -0.208303,-0.59253 -0.431281,-0.28759 -0.173715,0.23757 -0.192695,0.22048 -0.233995,-0.21062 -0.07141,-0.7454 0.135538,-1.83484 0.421619,-2.21957 0.513321,-0.69032 1.286696,-0.44412 1.286772,0.40964 1.7e-5,0.1974 -0.157984,0.89602 -0.351114,1.55248 -0.19313,0.65646 -0.401772,1.66636 -0.463648,2.24423 l -0.112503,1.05067 z m 10.426452,-0.57275 c 0,-0.69426 -0.09555,-1.32736 -0.279205,-1.84987 -0.626121,-1.78143 -0.508024,-2.7589 0.32359,-2.67834 0.578961,0.0561 0.903269,0.68843 0.984877,1.92034 0.08264,1.24754 -0.517658,3.66335 -0.9103,3.66335 -0.06543,0 -0.118962,-0.47496 -0.118962,-1.05548 z m -4.097791,0.55781 c -0.04229,-0.0423 -0.01084,-0.33708 0.06988,-0.65509 0.105362,-0.41509 0.10067,-0.80136 -0.01663,-1.36927 -0.311408,-1.50768 -0.09362,-2.45275 0.527793,-2.29024 1.000398,0.26161 0.947849,2.27647 -0.100814,3.86549 -0.37604,0.56981 -0.36751,0.56183 -0.480236,0.44911 z m -2.395622,-0.65951 c -0.449877,-0.76966 -0.659414,-1.54389 -0.654821,-2.41955 0.0045,-0.85911 0.250683,-1.22993 0.775182,-1.16766 0.61344,0.0728 0.700533,0.36546 0.491635,1.65182 -0.104072,0.64085 -0.144464,1.44264 -0.09243,1.83487 0.114099,0.86012 -0.0563,0.89308 -0.519563,0.10052 z m -2.049838,-0.6092 c -0.105854,-0.22424 -0.223211,-0.89569 -0.260797,-1.4921 -0.07561,-1.1999 0.147617,-1.79103 0.676358,-1.79103 0.398865,0 0.488869,0.36229 0.275432,1.10867 -0.101386,0.35456 -0.255033,1.08058 -0.341435,1.61341 -0.156063,0.96238 -0.158366,0.96608 -0.349558,0.56105 z m 6.740636,-0.33884 c -0.0094,-0.41611 -0.116963,-1.05739 -0.239086,-1.42507 -0.284983,-0.85801 -0.227229,-1.43696 0.148134,-1.48496 0.15429,-0.0197 0.3663,0.0198 0.471133,0.0879 0.437019,0.28367 0.355085,2.69178 -0.111179,3.26759 -0.250032,0.30877 -0.252086,0.30537 -0.269002,-0.44541 z m -3.247547,-2.19714 c -4.22e-4,-0.0638 -0.200284,-0.32898 -0.444282,-0.58934 -0.429398,-0.4582 -0.469543,-0.47068 -1.251127,-0.38899 -0.532487,0.0557 -0.825001,0.0319 -0.858899,-0.0698 -0.02828,-0.0848 -0.31708,-0.16118 -0.641792,-0.16969 -0.324713,-0.009 -0.590386,-0.0671 -0.590386,-0.13022 0,-0.16459 -0.908616,-0.5212 -1.328005,-0.5212 -0.277495,0 -0.355166,-0.0708 -0.355166,-0.32385 0,-0.57848 -0.30757,-0.81531 -1.199113,-0.92334 -0.459095,-0.0556 -0.96808,-0.17407 -1.131077,-0.2632 -0.482679,-0.26395 -1.193623,-1.15832 -1.5642,-1.96777 -0.389243,-0.85021 -0.361182,-1.6484 0.06899,-1.96226 1.037205,-0.75679 1.11581,-1.1364 0.401532,-1.93908 -0.477509,-0.53662 -0.477881,-0.53815 -0.219721,-0.90069 0.142229,-0.19975 0.300262,-0.52918 0.351183,-0.73206 0.08733,-0.34796 -0.196426,-1.91523 -0.483431,-2.67011 -0.07203,-0.18944 -0.26348,-1.08465 -0.425453,-1.98934 l -0.294497,-1.6449 0.352844,-1.02228 c 0.513554,-1.4879 0.993906,-2.33886 1.861309,-3.29738 2.365588,-2.61405 6.229999,-4.0546 9.385869,-3.49879 1.505575,0.26516 3.816616,1.21391 4.260877,1.74921 0.094,0.11327 0.273639,0.20703 0.399196,0.20837 0.315108,0.003 1.981591,1.56887 1.981591,1.86152 0,0.13069 0.131613,0.31706 0.292473,0.41415 0.323639,0.19533 0.815164,1.08493 1.267615,2.29421 0.302769,0.80923 0.246844,1.02986 -0.262645,1.03611 -0.09643,0.001 -0.17533,0.14732 -0.17533,0.32475 0,0.17744 -0.0715,0.39411 -0.158888,0.4815 -0.269373,0.26937 -0.02347,0.6393 0.374379,0.56324 0.193742,-0.037 0.384963,-0.0144 0.424934,0.0503 0.03999,0.0647 -0.128542,0.86097 -0.374459,1.76956 -0.712195,2.63129 -0.793031,3.10608 -0.631717,3.71045 0.07875,0.29503 0.22482,0.53641 0.324599,0.53641 0.277137,0 0.216222,0.34582 -0.113472,0.64419 -0.397164,0.35943 -0.702626,0.97521 -0.607162,1.22399 0.0428,0.11153 0.326385,0.40254 0.630194,0.64669 0.495166,0.39793 0.552383,0.50919 0.552383,1.07408 0,0.74026 -0.366576,1.52502 -1.082578,2.31756 -0.59872,0.66271 -1.131368,0.96645 -1.694808,0.96645 -0.805985,0 -1.255016,0.259 -1.352813,0.78031 -0.08067,0.42999 -0.138992,0.48212 -0.539939,0.48259 -0.247227,2.8e-4 -0.656166,0.12652 -0.908753,0.28053 -0.252586,0.154 -0.639351,0.28 -0.859476,0.28 -0.220126,0 -0.477448,0.0931 -0.571829,0.20677 -0.129065,0.15551 -0.368,0.18848 -0.963958,0.133 -0.864362,-0.0805 -0.899138,-0.0658 -1.46087,0.61778 -0.210909,0.25664 -0.383762,0.41443 -0.384119,0.35066 z m -0.700847,-4.51928 c 0,-2.29254 0.01289,-2.25977 -0.888124,-2.25871 -0.874996,10e-4 -2.009754,1.02267 -1.636051,1.47295 0.09572,0.11534 0.286002,0.2097 0.422855,0.2097 0.352835,0 0.979372,0.76476 1.465323,1.7886 0.228791,0.48203 0.465487,0.87642 0.52599,0.87642 0.0605,0 0.110007,-0.94003 0.110007,-2.08896 z m 2.236547,1.07205 c 0.550941,-1.05925 0.912917,-1.47086 1.515522,-1.72333 0.250722,-0.10505 0.455858,-0.28236 0.455858,-0.39402 0,-0.28581 -0.911358,-1.05306 -1.370149,-1.15349 -0.210734,-0.0461 -0.454807,-0.1054 -0.542382,-0.13171 -0.08758,-0.0263 -0.292712,0.0457 -0.455858,0.15994 -0.277882,0.19463 -0.296632,0.33138 -0.296632,2.16351 0,1.07566 0.05348,1.95575 0.118835,1.95575 0.06536,0 0.324022,-0.39449 0.574806,-0.87665 z m -4.335296,-4.14961 c 0.85293,-0.43268 1.539362,-0.97198 1.534697,-1.20573 -0.0016,-0.0825 -0.238342,-0.32638 -0.52599,-0.5419 -0.287649,-0.21553 -0.838379,-0.6406 -1.223847,-0.94461 -0.385467,-0.30401 -1.030362,-0.65639 -1.4331,-0.78307 -0.924069,-0.29065 -2.254364,-0.21357 -2.453445,0.14217 -0.07416,0.13251 -0.317123,0.44855 -0.53992,0.7023 l -0.405087,0.46137 0.398541,0.61725 c 0.463014,0.7171 1.168522,1.4026 1.767519,1.71739 0.701857,0.36884 1.971429,0.29604 2.880632,-0.16517 z m 9.205842,-0.25193 c 0.628838,-0.53299 1.558891,-1.66217 1.579978,-1.91825 0.0051,-0.0622 -0.297848,-0.42513 -0.673267,-0.80651 -0.615239,-0.62503 -0.744188,-0.69344 -1.307052,-0.69344 -1.3021,0 -2.340236,0.46554 -3.627253,1.62658 -0.350629,0.3163 -0.729342,0.60812 -0.841586,0.64847 -0.30457,0.1095 -0.01778,0.51884 0.707784,1.01024 0.908769,0.61547 1.504301,0.7893 2.550164,0.74439 0.866429,-0.0372 0.988213,-0.0834 1.611232,-0.61148 z m 1.983783,-2.70811 c 0.03507,-0.1052 -0.01753,-0.1578 -0.122731,-0.12273 -0.101254,0.0337 -0.21171,0.14421 -0.245463,0.24546 -0.03507,0.1052 0.01753,0.1578 0.122732,0.12273 0.101252,-0.0337 0.211711,-0.14421 0.245462,-0.24546 z m -2.217928,-2.39326 c 0,-0.0772 -0.06684,-0.14027 -0.148543,-0.14027 -0.0817,0 -0.109532,0.0631 -0.06185,0.14027 0.04768,0.0771 0.114523,0.14026 0.148543,0.14026 0.03402,0 0.06185,-0.0631 0.06185,-0.14026 z m -14.485206,-0.50553 c -0.04661,-0.0466 -0.167587,-0.0516 -0.26884,-0.0111 -0.111893,0.0447 -0.07866,0.078 0.08474,0.0847 0.147861,0.006 0.230705,-0.0271 0.184096,-0.0737 z m 16.963496,-2.35441 c 0.01301,-0.009 0.06696,-0.18855 0.119874,-0.39939 0.08228,-0.32783 0.042,-0.40394 -0.278258,-0.5257 -0.558027,-0.21216 -1.197792,-0.18025 -1.197792,0.0598 0,0.11116 0.05465,0.23589 0.121453,0.27718 0.0668,0.0413 0.09199,0.22921 0.05597,0.41763 -0.06301,0.32962 -0.04245,0.33961 0.544801,0.26458 0.335658,-0.0429 0.620937,-0.0852 0.633953,-0.0941 z"
       id="path860"
       sodipodi:nodetypes="csssssssssssssssssscssssssssssscssssssssssssssssssssscsssscssssssssssssssssscccssssssssssssssssssssccscsssssscsssssscsssscssssssssssssscsscccssscssccsssssssssssssssssssscsccssssssssssscssssssssssssssssssssssssssssccsssssscsssssssssssscsssscssscssscssssssssssssssssssscssssssssssssssssssssscsssssssssscsssssssssssscssssssssss" />
  </g>
</svg>
