<?xml version="1.0" encoding="UTF-8" standalone="no"?>
<!-- Generated by IcoMoon.io -->

<svg
   xmlns:dc="http://purl.org/dc/elements/1.1/"
   xmlns:cc="http://creativecommons.org/ns#"
   xmlns:rdf="http://www.w3.org/1999/02/22-rdf-syntax-ns#"
   xmlns:svg="http://www.w3.org/2000/svg"
   xmlns="http://www.w3.org/2000/svg"
   xmlns:sodipodi="http://sodipodi.sourceforge.net/DTD/sodipodi-0.dtd"
   xmlns:inkscape="http://www.inkscape.org/namespaces/inkscape"
   version="1.1"
   width="215"
   height="215"
   viewBox="0 0 215 215"
   id="svg14"
   sodipodi:docname="hammerhal.svg"
   inkscape:version="0.92.3 (2405546, 2018-03-11)">
  <metadata
     id="metadata20">
    <rdf:RDF>
      <cc:Work
         rdf:about="">
        <dc:format>image/svg+xml</dc:format>
        <dc:type
           rdf:resource="http://purl.org/dc/dcmitype/StillImage" />
        <dc:title>factions-order-cities-of-sigmar-hammerhal</dc:title>
      </cc:Work>
    </rdf:RDF>
  </metadata>
  <defs
     id="defs18" />
  <sodipodi:namedview
     pagecolor="#ffffff"
     bordercolor="#666666"
     borderopacity="1"
     objecttolerance="10"
     gridtolerance="10"
     guidetolerance="10"
     inkscape:pageopacity="0"
     inkscape:pageshadow="2"
     inkscape:window-width="1920"
     inkscape:window-height="1017"
     id="namedview16"
     showgrid="false"
     fit-margin-top="0"
     fit-margin-left="0"
     fit-margin-right="0"
     fit-margin-bottom="0"
     inkscape:zoom="0.65186407"
     inkscape:cx="-157.64947"
     inkscape:cy="-35.89711"
     inkscape:window-x="-8"
     inkscape:window-y="-8"
     inkscape:window-maximized="1"
     inkscape:current-layer="svg14" />
  <title
     id="title2">factions-order-cities-of-sigmar-hammerhal</title>
  <g
     id="g832"
     transform="matrix(6.7195025,0,0,6.7195025,-0.02015843,-0.01202868)">
    <path
       id="path4"
       d="m 13.445,31.384 c -0.399,-0.285 -0.437,-0.399 -0.323,-1.198 0.152,-0.989 0.133,-3.746 -0.019,-5.438 -0.057,-0.628 -0.38,-1.73 -0.685,-2.472 -0.323,-0.723 -0.646,-1.597 -0.742,-1.939 -0.096,-0.342 -0.475,-1.046 -0.837,-1.578 -0.723,-1.084 -0.799,-1.369 -0.399,-1.692 0.57,-0.475 1.312,-2.396 1.426,-3.708 0.114,-1.293 0.114,-1.312 0.875,-1.711 0.646,-0.342 1.103,-0.399 3.137,-0.399 1.997,0 2.491,0.057 3.137,0.38 0.837,0.418 0.761,0.114 1.16,4.373 0.057,0.628 0.171,1.217 0.247,1.293 0.076,0.076 0.114,-0.133 0.076,-0.475 l -0.076,-0.628 0.475,0.761 c 0.266,0.418 0.532,0.875 0.608,1.008 0.076,0.152 -0.266,1.084 -0.761,2.092 -0.475,1.008 -0.875,1.959 -0.875,2.092 0,0.133 -0.076,0.38 -0.171,0.57 -0.475,0.97 -0.818,3.29 -0.856,5.799 l -0.019,2.662 -0.551,0.19 c -0.913,0.304 -1.027,-0.076 -1.046,-3.271 -0.019,-1.654 -0.133,-3.156 -0.266,-3.651 -0.228,-0.78 -0.285,-0.837 -0.875,-0.837 -0.475,0 -0.742,0.133 -1.046,0.532 -0.361,0.494 -0.399,0.856 -0.494,3.993 -0.095,3.746 -0.171,3.917 -1.103,3.252 z m 3.327,-9.888 c 0.038,-0.133 -0.247,-0.19 -0.742,-0.19 -0.818,0.019 -0.818,0.019 -0.932,-0.742 l -0.114,-0.761 -0.038,0.894 c 0,0.551 0.076,0.913 0.228,0.989 0.38,0.152 1.521,0.038 1.597,-0.19 z m 2.244,-2.168 c 0.057,-0.114 -0.019,-0.133 -0.171,-0.076 -0.342,0.133 -0.399,0.266 -0.133,0.266 0.114,0 0.247,-0.076 0.304,-0.19 z m -1.103,-0.513 c 0.133,0.152 1.198,-0.247 1.198,-0.437 0,-0.304 -0.761,-0.399 -1.426,-0.19 -0.456,0.152 -0.666,0.342 -0.666,0.589 0,0.323 0.057,0.342 0.399,0.171 0.209,-0.133 0.437,-0.171 0.494,-0.133 z m -3.499,-0.247 c 0.095,-0.076 -0.133,-0.247 -0.494,-0.361 -1.027,-0.342 -1.806,0.152 -0.837,0.551 0.418,0.171 1.046,0.076 1.331,-0.19 z m 6.789,-0.266 c 0,-0.057 -0.095,-0.152 -0.228,-0.228 -0.133,-0.076 -0.152,-0.057 -0.076,0.076 0.133,0.228 0.304,0.304 0.304,0.152 z m -1.902,-6.275 c 0,-0.057 -0.095,-0.152 -0.228,-0.228 -0.133,-0.076 -0.152,-0.057 -0.076,0.076 0.133,0.228 0.304,0.304 0.304,0.152 z"
       inkscape:connector-curvature="0"
       style="fill:#ffffff" />
    <path
       id="path6"
       d="M 10.478,29.064 C 9.261,28.398 6.504,25.641 5.991,24.576 5.782,24.12 5.363,22.579 5.059,21.153 4.774,19.727 4.47,18.624 4.413,18.7 4.337,18.757 4.28,18.738 4.28,18.624 c 0,-0.304 0.532,-0.456 0.646,-0.19 0.057,0.133 0.057,-0.076 0,-0.437 -0.057,-0.399 0.019,-1.046 0.19,-1.521 0.171,-0.475 0.304,-0.989 0.304,-1.16 0,-0.171 0.133,-0.418 0.285,-0.551 0.152,-0.133 0.742,-0.932 1.312,-1.787 1.35,-2.035 2.529,-3.099 4.392,-4.012 L 12.93,8.224 h 2.567 c 2.909,0 3.594,0.19 5.685,1.445 1.921,1.16 3.004,2.301 3.765,3.955 0.361,0.78 0.78,1.692 0.951,1.997 0.19,0.38 0.323,1.312 0.361,2.814 0.095,2.472 -0.228,4.126 -1.179,6.199 -0.989,2.111 -3.252,4.202 -4.583,4.202 -0.342,0 -0.628,-0.038 -0.628,-0.076 0,-0.038 -0.057,-0.228 -0.133,-0.418 -0.076,-0.228 -0.057,-0.285 0.095,-0.19 0.133,0.076 0.228,0.038 0.228,-0.057 0,-0.114 -0.076,-0.209 -0.19,-0.209 -0.475,0 0.095,-4.297 0.78,-5.876 0.875,-1.997 1.559,-3.175 2.111,-3.651 l 0.57,-0.475 -0.666,-0.456 c -0.685,-0.475 -1.426,-1.54 -1.559,-2.282 -0.038,-0.228 -0.095,-1.198 -0.114,-2.187 -0.019,-1.692 -0.057,-1.806 -0.437,-1.787 -0.209,0.019 -0.989,-0.209 -1.73,-0.475 -2.016,-0.742 -5.058,-0.589 -6.94,0.342 l -0.856,0.437 -0.019,1.217 c -0.038,2.187 -0.78,3.879 -1.902,4.392 -0.646,0.304 -0.57,0.723 0.323,1.578 0.494,0.475 1.065,1.369 1.54,2.377 0.418,0.894 0.837,1.768 0.932,1.939 0.57,1.103 0.951,5.476 0.532,6.275 -0.247,0.475 -0.856,0.418 -1.959,-0.19 z M 22.667,16.533 c -0.076,-0.057 -0.19,-0.057 -0.266,0 -0.057,0.076 0,0.133 0.133,0.133 0.133,0 0.19,-0.057 0.133,-0.133 z m -1.141,-1.331 c -0.076,-0.057 -0.19,-0.057 -0.266,0 -0.057,0.076 0,0.133 0.133,0.133 0.133,0 0.19,-0.057 0.133,-0.133 z m 0.19,-3.575 c -0.076,-0.152 -0.228,-0.285 -0.361,-0.266 -0.19,0 -0.19,0.038 0,0.114 0.114,0.038 0.228,0.228 0.228,0.399 0,0.152 0.057,0.247 0.114,0.171 0.076,-0.057 0.076,-0.247 0.019,-0.418 z"
       inkscape:connector-curvature="0"
       style="fill:#ffffff" />
    <path
       id="path8"
       d="M 27.401,19.348 C 27.344,19.272 27.249,18.911 27.192,18.549 27.135,18.187 27.021,17.693 26.926,17.427 26.831,17.161 26.603,16.305 26.432,15.525 25.9,13.186 25.329,12.197 23.504,10.41 20.519,7.482 17.172,6.531 13.692,7.577 12.969,7.786 12.285,8.033 12.171,8.109 12.076,8.166 11.639,8.337 11.201,8.451 9.965,8.812 7.607,10.714 5.554,13.034 5.307,13.3 5.269,13.395 5.459,13.262 5.725,13.053 5.706,13.224 5.307,14.232 5.041,14.878 4.756,15.601 4.661,15.81 4.566,16.019 4.433,16.666 4.357,17.236 4.3,17.806 4.148,18.434 4.053,18.643 3.844,19.023 3.692,19.004 0.954,18.605 L 0.003,18.453 0.668,18.301 C 2.303,17.94 3.33,17.198 3.33,16.4 c 0,-0.475 0.133,-0.875 1.008,-3.156 0.361,-0.932 0.418,-0.989 0.532,-0.57 l 0.133,0.475 0.019,-0.513 C 5.041,12.332 4.965,12.104 4.851,12.104 4.756,12.104 4.623,11.781 4.566,11.4 4.319,9.784 4.091,9.27 3.311,8.662 2.893,8.339 2.626,7.997 2.741,7.939 3.045,7.749 5.137,7.996 5.099,8.224 5.08,8.338 5.346,8.699 5.669,9.023 6.277,9.612 6.296,9.612 6.753,9.289 7.381,8.871 8.597,8.167 9.358,7.825 9.833,7.597 9.966,7.407 10.081,6.779 10.157,6.361 10.29,5.961 10.404,5.904 c 0.152,-0.095 0.323,0.057 0.97,0.951 0.076,0.133 0.19,0.152 0.285,0.019 C 11.735,6.76 12.134,6.57 12.553,6.437 14.968,5.657 15.158,5.391 14.645,3.623 14.436,2.862 14.398,2.482 14.531,2.349 14.645,2.235 14.74,1.931 14.74,1.702 c 0,-0.513 0.78,-1.388 1.236,-1.388 0.342,0 0.38,0.399 0.076,0.704 -0.418,0.418 -0.38,1.635 0.095,2.529 0.247,0.475 0.513,1.141 0.589,1.483 0.133,0.627 0.589,0.875 1.35,0.78 0.209,-0.019 0.494,0 0.646,0.076 1.103,0.418 1.578,0.475 2.016,0.323 0.646,-0.247 0.589,-0.266 0.742,0.399 0.076,0.323 0.266,0.628 0.437,0.685 0.19,0.076 0.742,0.418 1.255,0.761 0.494,0.342 1.027,0.627 1.141,0.627 0.133,0 0.494,-0.304 0.818,-0.665 0.513,-0.589 0.913,-0.78 1.445,-0.685 0.076,0 0.133,-0.114 0.133,-0.266 0,-0.304 0.38,-0.342 1.141,-0.095 0.437,0.133 0.437,0.152 0.057,0.171 C 27.689,7.16 27.461,7.331 27.385,7.54 27.309,7.749 27.176,7.882 27.081,7.825 26.986,7.749 26.834,7.92 26.72,8.186 26.625,8.452 26.359,9.042 26.15,9.479 25.713,10.411 25.675,10.658 26.017,11 c 0.78,0.856 1.806,3.137 2.396,5.381 0.114,0.418 0.266,0.856 0.361,0.989 0.228,0.361 1.141,0.628 2.13,0.628 0.513,0 0.989,0.076 1.046,0.19 0.076,0.114 -0.019,0.133 -0.209,0.057 -0.209,-0.076 -0.285,-0.038 -0.209,0.076 0.076,0.114 -0.361,0.361 -1.065,0.589 -1.369,0.437 -2.928,0.666 -3.061,0.437 z M 4.222,15.868 C 4.165,15.735 4.127,15.83 4.127,16.096 c 0,0.266 0.038,0.361 0.095,0.247 0.038,-0.133 0.038,-0.361 0,-0.475 z M 4.983,8.167 C 4.907,8.11 4.793,8.11 4.717,8.167 4.66,8.243 4.717,8.3 4.85,8.3 4.983,8.3 5.04,8.243 4.983,8.167 Z"
       inkscape:connector-curvature="0"
       style="fill:#ffffff" />
    <path
       id="path10"
       d="m 31.147,19.005 c 0.076,-0.057 0.19,-0.057 0.266,0 0.057,0.076 0,0.133 -0.133,0.133 -0.133,0 -0.19,-0.057 -0.133,-0.133 z"
       inkscape:connector-curvature="0"
       style="fill:#ffffff" />
    <path
       id="path12"
       d="m 31.756,18.758 c 0.057,-0.095 0.152,-0.19 0.209,-0.19 0.057,0 0.038,0.095 -0.019,0.19 -0.057,0.114 -0.152,0.19 -0.209,0.19 -0.057,0 -0.038,-0.076 0.019,-0.19 z"
       inkscape:connector-curvature="0"
       style="fill:#ffffff" />
  </g>
</svg>
