<?xml version="1.0" encoding="UTF-8" standalone="no"?>
<!-- Created with Inkscape (http://www.inkscape.org/) -->

<svg
   xmlns:dc="http://purl.org/dc/elements/1.1/"
   xmlns:cc="http://creativecommons.org/ns#"
   xmlns:rdf="http://www.w3.org/1999/02/22-rdf-syntax-ns#"
   xmlns:svg="http://www.w3.org/2000/svg"
   xmlns="http://www.w3.org/2000/svg"
   xmlns:sodipodi="http://sodipodi.sourceforge.net/DTD/sodipodi-0.dtd"
   xmlns:inkscape="http://www.inkscape.org/namespaces/inkscape"
   width="215"
   height="215"
   viewBox="0 0 56.885415 56.885418"
   version="1.1"
   id="svg8"
   inkscape:version="0.92.3 (2405546, 2018-03-11)"
   sodipodi:docname="phoenicium.svg">
  <defs
     id="defs2" />
  <sodipodi:namedview
     id="base"
     pagecolor="#ffffff"
     bordercolor="#666666"
     borderopacity="1.0"
     inkscape:pageopacity="0.0"
     inkscape:pageshadow="2"
     inkscape:zoom="0.98994949"
     inkscape:cx="253.64121"
     inkscape:cy="94.592942"
     inkscape:document-units="px"
     inkscape:current-layer="layer1"
     showgrid="false"
     units="px"
     inkscape:window-width="1920"
     inkscape:window-height="1017"
     inkscape:window-x="-8"
     inkscape:window-y="-8"
     inkscape:window-maximized="1" />
  <metadata
     id="metadata5">
    <rdf:RDF>
      <cc:Work
         rdf:about="">
        <dc:format>image/svg+xml</dc:format>
        <dc:type
           rdf:resource="http://purl.org/dc/dcmitype/StillImage" />
        <dc:title></dc:title>
      </cc:Work>
    </rdf:RDF>
  </metadata>
  <g
     inkscape:label="Layer 1"
     inkscape:groupmode="layer"
     id="layer1"
     transform="translate(0,-240.11457)">
    <path
       style="fill:#fffff3;fill-opacity:1;stroke-width:0.10872068"
       d="m 28.055886,296.91807 c -0.532176,-0.1481 -0.970216,-1.33418 -0.604752,-1.63749 0.08641,-0.0717 0.308211,-0.36586 0.492891,-0.65366 0.580364,-0.90442 1.079886,-0.80907 1.610457,0.30739 l 0.276967,0.58282 -0.201932,0.59407 c -0.111063,0.32674 -0.301475,0.6638 -0.423138,0.74902 -0.231735,0.16231 -0.691964,0.18545 -1.150493,0.0579 z m 2.391039,-2.04814 c -0.374854,-0.18941 -0.380993,-0.20366 -0.411992,-0.95695 -0.021,-0.51031 0.02493,-0.89966 0.138061,-1.17043 l 0.169526,-0.40574 0.332568,0.17198 c 0.644205,0.33313 0.885439,1.71469 0.396979,2.27353 -0.243852,0.27899 -0.24582,0.27927 -0.625142,0.0876 z m -5.028333,-0.0888 -0.298982,-0.16475 0.0016,-1.70888 c 8.63e-4,-0.93989 0.04601,-1.77895 0.100203,-1.8646 0.06176,-0.0976 0.292146,-0.15846 0.617248,-0.16308 0.456907,-0.006 0.538883,0.0284 0.688022,0.29327 0.15818,0.28086 0.153229,0.32874 -0.07531,0.72822 -0.289603,0.50622 -0.311154,0.97334 -0.06672,1.44603 0.217334,0.42028 0.231849,1.13143 0.02718,1.33166 -0.241315,0.23607 -0.67022,0.28018 -0.993311,0.10213 z m 2.474834,-1.08274 c -0.533293,-0.18991 -0.707682,-0.41524 -0.709607,-0.91692 -8.63e-4,-0.21281 -0.02947,-0.4912 -0.06367,-0.61864 -0.04,-0.14908 0.01248,-0.30418 0.147159,-0.43488 0.115138,-0.11175 0.2401,-0.28879 0.277696,-0.39343 0.104845,-0.29183 1.326642,-0.27535 1.484723,0.02 0.179374,0.33517 0.133978,1.52918 -0.07772,2.04411 -0.212121,0.51597 -0.345366,0.5537 -1.058588,0.29972 z m -4.549586,-0.56092 c -0.03986,-0.0399 -0.07248,-0.31016 -0.07248,-0.60065 0,-0.46357 0.0333,-0.54084 0.272232,-0.63168 0.628876,-0.2391 1.146137,0.45989 0.767717,1.03743 -0.127702,0.19489 -0.27276,0.26738 -0.535092,0.26738 -0.197943,0 -0.392512,-0.0326 -0.432376,-0.0725 z m 8.54785,-0.55814 c -0.07243,-0.046 -0.207626,-0.26544 -0.300443,-0.48758 -0.132951,-0.3182 -0.228319,-0.40389 -0.449493,-0.40389 -0.392915,0 -0.842408,-0.35092 -1.17379,-0.91639 -0.566046,-0.96588 -0.275394,-1.58418 0.744698,-1.58418 0.823363,0 1.107566,0.26192 1.295567,1.19401 0.137241,0.68043 0.155629,0.70795 0.532473,0.79708 0.453216,0.10717 0.553931,0.28516 0.396506,0.70068 -0.230514,0.60845 -0.697664,0.92134 -1.045518,0.70027 z m -9.966365,-1.35611 c -0.135677,-0.10032 -0.22191,-0.33272 -0.256316,-0.69079 -0.04513,-0.46965 -0.01357,-0.58511 0.243373,-0.89047 0.470963,-0.55971 0.590039,-0.58901 1.824683,-0.44891 0.610909,0.0693 1.148602,0.16115 1.194875,0.20406 0.04627,0.0429 0.09118,0.26557 0.0998,0.49479 0.01221,0.32482 -0.04505,0.46697 -0.259532,0.6443 -0.562861,0.46537 -1.014985,0.66252 -1.555208,0.67813 -0.298982,0.009 -0.665914,0.0482 -0.815405,0.0879 -0.166534,0.0442 -0.350991,0.0136 -0.476269,-0.079 z m 4.546522,-0.86719 c 0.108859,-0.82188 0.267443,-1.07697 0.877857,-1.41212 l 0.542284,-0.29774 0.298982,0.32663 c 0.43765,0.47813 0.411061,1.01545 -0.07652,1.54631 -0.355211,0.38675 -0.408999,0.40771 -1.046334,0.40771 h -0.671873 z m 6.717366,0.28037 c -0.296404,-0.11916 -0.567877,-0.88318 -0.567877,-1.5982 0,-0.6497 0.02465,-0.72208 0.334503,-0.98282 0.368942,-0.31044 0.510444,-0.33244 1.094581,-0.17019 0.300423,0.0834 0.44252,0.20759 0.587634,0.5134 0.221071,0.46587 0.224741,1.16085 0.0078,1.48723 -0.480386,0.7229 -0.938472,0.95893 -1.456698,0.75058 z m -8.558846,-2.00321 c -0.374837,-0.21593 -0.489243,-0.44883 -0.489243,-0.99599 0,-0.52804 0.574052,-3.30927 0.768407,-3.72287 0.0562,-0.11959 0.149902,-0.47561 0.20823,-0.79115 0.05833,-0.31554 0.154362,-0.66397 0.213408,-0.7743 0.05905,-0.11033 0.178082,-0.51264 0.264525,-0.89402 0.209184,-0.92292 0.461486,-1.6747 0.761779,-2.26988 0.253596,-0.50261 0.529312,-1.35466 0.685158,-2.11735 0.110898,-0.54272 0.40691,-0.70576 1.284239,-0.70738 1.108086,-0.002 1.463847,0.37508 1.741738,1.84625 0.03953,0.20928 0.189749,0.71368 0.333815,1.12086 0.14407,0.40719 0.261941,0.86217 0.261941,1.01107 0,0.1489 0.08072,0.42682 0.179384,0.61761 0.09866,0.19079 0.218116,0.73109 0.265453,1.20066 0.04737,0.46994 0.179409,1.03251 0.293684,1.25134 0.114188,0.21867 0.28468,0.54435 0.37887,0.72373 0.480673,0.91548 0.607115,2.92056 0.2407,3.81689 l -0.1381,0.33782 -1.284229,0.0791 c -1.17246,0.0722 -1.297255,0.0617 -1.433909,-0.12038 -0.182126,-0.24269 -0.10312,-1.02815 0.138053,-1.37247 0.268758,-0.3837 0.197554,-1.0681 -0.212201,-2.03967 -0.207002,-0.49082 -0.448218,-0.9718 -0.536035,-1.06884 -0.347053,-0.38348 -0.439088,-0.85931 -0.496685,-2.56788 -0.03225,-0.95675 -0.09807,-1.73953 -0.146271,-1.73953 -0.09874,0 -0.449404,0.63238 -0.94028,1.69569 -0.385508,0.83508 -0.40803,1.23264 -0.123472,2.17962 0.114194,0.38002 0.340722,1.22239 0.503395,1.87192 l 0.295769,1.18096 -0.311124,0.65094 c -0.171117,0.35802 -0.483263,0.79201 -0.693656,0.96441 -0.210393,0.1724 -0.476095,0.39562 -0.59045,0.49606 -0.254791,0.22377 -1.126435,0.30757 -1.422893,0.1368 z m -4.007156,-0.73342 c -0.0997,-0.11016 -0.282551,-0.5002 -0.406335,-0.86675 -0.123785,-0.36654 -0.355571,-0.85415 -0.515082,-1.08357 -2.1465,-3.08729 -2.435021,-3.76802 -2.037604,-4.80749 0.08002,-0.20929 0.243004,-0.64961 0.362197,-0.97849 0.119194,-0.32888 0.39002,-0.89151 0.601837,-1.25029 0.39923,-0.67622 0.767875,-1.8641 0.886258,-2.85579 0.08366,-0.70079 -0.05016,-0.79205 -0.685799,-0.46777 -0.768955,0.39229 -1.20948,0.25874 -1.212283,-0.3675 -8.63e-4,-0.18238 -0.03077,-0.44086 -0.06657,-0.57441 -0.07815,-0.29157 -1.02305,-0.89876 -1.398645,-0.89876 -0.147126,0 -0.598941,0.21546 -1.004033,0.47879 -0.877974,0.57074 -0.882192,0.56749 -1.029884,-0.79386 -0.115922,-1.0685 -0.252157,-1.33782 -0.824437,-1.62977 -0.368694,-0.18809 -0.449578,-0.19361 -0.840996,-0.0574 -0.238188,0.0829 -0.591141,0.15145 -0.78434,0.15235 -0.412834,0.002 -0.432637,-0.0536 -0.495162,-1.38855 -0.02376,-0.50738 -0.09999,-0.95856 -0.174492,-1.03284 -0.08443,-0.0842 -0.404291,-0.12155 -0.884064,-0.10329 -0.6997097,0.0266 -0.7642707,0.01 -0.9323067,-0.24691 -0.13387,-0.20431 -0.161601,-0.39439 -0.10728,-0.73531 0.217936,-1.36778 0.223388,-1.31413 -0.176651,-1.7383 -0.363676,-0.38561 -0.387308,-0.39349 -0.991964,-0.33109 -0.510552,0.0527 -0.658757,0.0283 -0.843285,-0.13867 -0.240405,-0.21756 -0.23402,-0.3286 0.06514,-1.1328 0.369616,-0.99359 0.003,-1.87669 -1.05098,-2.53191 -0.429309,-0.26687 -0.526568,-0.38441 -0.526568,-0.63632 0,-0.19684 0.08221,-0.35866 0.226482,-0.44582 0.441517,-0.26672 0.67026,-0.91582 0.653217,-1.85361 -0.01716,-0.94408 -0.160912,-1.3327 -0.656226,-1.77403 -0.516082,-0.45983 -0.495152,-0.64603 0.143365,-1.27551 0.626249,-0.61737 1.009823,-1.33327 1.377464,-2.57088 0.301624,-1.01538 0.34646,-2.27708 0.09137,-2.57124 -0.480904,-0.55457 -0.275696,-1.09172 0.394999,-1.03393 0.206356,0.0178 0.550609,-0.0674 0.812411,-0.20093 0.35422,-0.1807 0.510532,-0.35601 0.709483,-0.79567 0.420143,-0.92847 0.442894,-1.2856 0.117295,-1.8412 -0.485864,-0.82906 -0.307314,-1.26877 0.6252997,-1.53988 0.66097,-0.19215 1.461043,-0.836 1.891991,-1.52255 0.153273,-0.24419 0.368437,-0.54182 0.478142,-0.66141 0.756258,-0.82442 1.59625,-2.04286 1.662371,-2.41133 0.178016,-0.99203 0.271969,-1.20418 0.557468,-1.25876 0.471623,-0.0902 0.746899,0.32545 1.13468,1.71311 0.133681,0.47838 0.306414,1.16332 0.383851,1.52209 0.250589,1.16103 0.446422,1.83499 0.726591,2.50058 0.151023,0.35878 0.410818,1.06818 0.577323,1.57645 0.375015,1.14476 0.823677,2.04465 1.191862,2.39054 0.172071,0.16165 0.368655,0.55969 0.508394,1.02938 0.125313,0.4212 0.336315,0.88814 0.468894,1.03763 0.397173,0.44783 0.600562,0.79654 0.600562,1.02964 0,0.13203 -0.337392,0.54681 -0.842585,1.03583 -0.947439,0.91712 -1.452513,1.77157 -1.917757,3.24433 -0.238811,0.75597 -0.283836,1.10092 -0.283836,2.17455 0,1.08545 0.034,1.34037 0.227623,1.70674 0.125193,0.23687 0.290344,0.6568 0.367004,0.93317 0.07666,0.27636 0.341383,0.79994 0.588274,1.1635 0.662879,0.97614 2.582617,2.89793 3.165925,3.16931 0.269084,0.12519 0.611554,0.29862 0.761045,0.3854 0.149491,0.0868 0.434022,0.15849 0.632291,0.15937 0.19827,8.3e-4 0.442891,0.0441 0.543603,0.096 0.100713,0.0519 0.359734,0.12624 0.575605,0.16515 0.332108,0.0599 0.474668,0.0142 0.926664,-0.2967 0.293796,-0.2021 0.640963,-0.40134 0.771482,-0.44277 0.764995,-0.2428 1.061719,-1.46417 0.513885,-2.11523 -0.152118,-0.18078 -0.360602,-0.35536 -0.463299,-0.38796 -0.102699,-0.0326 -0.345762,-0.32516 -0.54014,-0.65014 -0.372612,-0.62296 -0.454685,-0.67003 -1.6312,-0.93543 -0.717943,-0.16195 -1.220776,-0.0723 -1.547896,0.27587 -0.295518,0.31456 -0.720352,0.35706 -0.798399,0.0799 -0.152389,-0.54123 -0.169963,-0.92014 -0.07927,-1.70925 0.07711,-0.671 0.149642,-0.9042 0.32124,-1.03285 0.635345,-0.47635 0.866564,-0.61639 1.286959,-0.77948 0.252959,-0.0981 0.695244,-0.35116 0.982853,-0.56228 0.720858,-0.52915 2.403514,-1.25037 3.332501,-1.42837 1.026642,-0.19671 1.782732,-0.38361 2.138085,-0.69055 0.671637,-0.58013 0.90301,-0.98515 0.971649,0.21903 0.01327,0.23296 -0.05478,0.6418 -0.121733,0.9077 -0.144429,0.57357 0.249511,1.30323 1.430675,1.00466 0.01689,0.82498 -0.474542,0.84147 -0.268737,1.5345 0.187829,0.63248 0.612392,1.03557 1.207977,1.14688 0.653557,0.12214 0.704444,0.21752 0.403401,0.75614 -0.144785,0.25906 -0.233682,0.54807 -0.197542,0.64224 0.03616,0.0942 0.293782,0.25485 0.572545,0.35705 0.743329,0.27252 0.841546,0.38899 0.672393,0.79735 -0.125492,0.30297 0.120916,0.84045 0.666842,0.93412 0.154655,0.23371 -0.114123,0.51279 -0.07526,0.66764 0.082,0.32669 0.386961,0.33681 0.745786,0.17023 0.654461,-0.30383 2.3665,-1.84683 2.732143,-2.46238 0.898921,-1.51332 1.204048,-2.5963 1.197548,-4.25042 -0.0065,-1.64672 -0.69808,-3.13273 -1.958665,-4.20842 -0.335753,-0.28651 -0.654165,-0.52093 -0.707588,-0.52093 -0.15138,0 -0.395783,-0.57421 -0.34365,-0.80738 0.02576,-0.11518 0.293601,-0.53104 0.595223,-0.92413 0.301618,-0.39309 0.617861,-0.86148 0.70276,-1.04087 0.0849,-0.17939 0.394529,-0.76648 0.688061,-1.30464 0.293531,-0.53817 0.734042,-1.39435 0.978909,-1.90262 0.244867,-0.50827 0.51738,-1.05813 0.605583,-1.22193 0.0882,-0.16379 0.256204,-0.57635 0.373334,-0.91679 0.117131,-0.34045 0.318556,-0.79353 0.447612,-1.00685 0.129051,-0.21332 0.318806,-0.75478 0.42167,-1.20325 0.102868,-0.44848 0.240828,-0.96218 0.306586,-1.14157 0.06575,-0.17939 0.197505,-0.6163 0.292776,-0.97092 0.163309,-0.60787 0.390613,-0.91797 1.060701,-1.44703 0.216913,-0.17127 0.268466,-0.0835 0.41095,0.69931 0.148763,0.81735 0.629021,1.78998 1.282832,2.59801 0.286661,0.35428 0.600365,0.79723 0.697118,0.98433 0.227313,0.43958 1.082599,1.19154 1.463351,1.28656 0.325615,0.0813 0.918193,0.42262 1.168948,0.67338 0.21358,0.21358 0.202629,0.63116 -0.02568,0.97961 -0.129795,0.19809 -0.180465,0.47904 -0.167936,0.93114 0.0233,0.84077 0.189694,1.3255 0.531972,1.54977 0.213161,0.13967 0.26088,0.24058 0.209878,0.44379 -0.065,0.25898 -0.0546,0.26302 0.676321,0.26302 0.833134,0 1.071907,0.11855 1.204632,0.59809 0.07354,0.2657 0.02264,0.4568 -0.274979,1.03272 -0.307424,0.59485 -0.366645,0.82712 -0.374226,1.46773 -0.005,0.41857 0.05208,1.00566 0.126746,1.30465 0.162676,0.65142 0.810903,1.47892 1.378587,1.75984 0.264907,0.1311 0.424814,0.29965 0.477358,0.50319 0.07269,0.28159 0.04266,0.32233 -0.375542,0.50943 -0.250003,0.11184 -0.542935,0.32945 -0.65096,0.48357 -0.277567,0.39602 -0.540699,1.74863 -0.455813,2.34308 0.121877,0.85353 0.180707,0.98219 0.529059,1.1571 0.393687,0.19768 0.715222,0.56014 0.718707,0.8102 0.0037,0.27926 -0.365261,0.53328 -0.775002,0.53328 -0.530201,0 -1.327224,0.29093 -1.671746,0.61022 -0.367072,0.34018 -0.299197,0.70048 0.228505,1.21298 0.28083,0.27273 0.37241,0.45302 0.37241,0.73314 0,0.49504 -0.266345,0.63326 -1.035204,0.5372 -0.551885,-0.069 -0.607983,-0.0537 -0.908545,0.24684 -0.306701,0.30671 -0.665083,1.22569 -0.665954,1.70768 -8.22e-4,0.44486 -0.3725,0.8703 -0.878482,1.00551 -0.723905,0.19345 -1.210561,0.56981 -1.38273,1.06936 -0.404954,1.17499 -0.731889,1.466 -1.646975,1.466 -0.512531,0 -1.034547,0.23206 -1.194556,0.53104 -0.05964,0.11144 -0.08,0.4428 -0.04523,0.73636 0.04739,0.40015 0.02248,0.56754 -0.0996,0.66884 -0.270722,0.22468 -0.888303,0.18476 -1.325921,-0.0857 -0.24541,-0.15167 -0.574621,-0.24938 -0.840231,-0.24938 -0.398059,0 -0.508069,0.0713 -1.242739,0.80602 -0.755484,0.75548 -0.813858,0.84816 -0.930981,1.47794 -0.16923,0.90999 0.0099,1.71374 0.517175,2.32094 0.20516,0.24556 0.373018,0.49848 0.373018,0.56204 0,0.0636 0.200522,0.37549 0.445602,0.69316 0.762248,0.98801 0.825117,1.76347 0.233904,2.88499 -0.224239,0.42536 -0.471403,0.90116 -0.549255,1.05731 -0.07785,0.15615 -0.189336,0.3573 -0.247735,0.44699 -0.0584,0.0897 -0.1904,0.30485 -0.293334,0.47812 -0.102929,0.17328 -0.318429,0.46957 -0.47889,0.65844 -0.160457,0.18886 -0.496383,0.76592 -0.746497,1.28235 -0.364048,0.75167 -0.518112,0.96106 -0.772352,1.04969 -0.352444,0.12286 -0.766085,0.0127 -1.111309,-0.29608 -0.218569,-0.19548 -0.824431,-1.44781 -1.039646,-2.14898 -0.07184,-0.23407 -0.170878,-0.52342 -0.220077,-0.64302 -0.248454,-0.60396 -0.990748,-3.33947 -1.489842,-5.49039 -0.381878,-1.64573 -0.29271,-2.38994 0.311578,-2.6006 0.451815,-0.1575 0.845527,-0.14219 1.174143,0.0457 0.474604,0.27131 0.605254,0.20181 0.914054,-0.48629 0.314936,-0.70177 0.461887,-1.5986 0.300752,-1.83549 -0.0836,-0.1229 -0.14313,-0.11995 -0.358542,0.0177 -0.142065,0.0908 -0.723079,0.24154 -1.291146,0.33497 -1.381649,0.22724 -6.506247,0.34031 -8.04533,0.17751 -0.627861,-0.0664 -1.334661,-0.1308 -1.570664,-0.14307 l -0.429098,-0.0223 -0.247523,0.70669 c -0.136138,0.38867 -0.248822,0.86569 -0.250407,1.06002 l -0.0029,0.35335 h 0.672959 c 0.370128,0 0.962573,0.0598 1.316544,0.13293 0.507079,0.10473 0.663896,0.18636 0.739356,0.38483 0.191233,0.50298 -0.20097,2.17181 -0.621903,2.6462 -0.08499,0.0958 -0.195537,0.48718 -0.245667,0.86977 -0.249818,1.90661 -2.275802,7.14198 -2.992467,7.73286 -0.287134,0.23674 -0.31773,0.23631 -0.538485,-0.008 z M 38.35635,271.4884 c 0.220788,-0.28087 0.167184,-1.04072 -0.09712,-1.37672 -0.128159,-0.16293 -0.395536,-0.67101 -0.594171,-1.12905 -0.300164,-0.69218 -0.407675,-0.83862 -0.636689,-0.86721 -0.21356,-0.0267 -0.300012,0.03 -0.384315,0.2517 -0.173762,0.45703 -0.132523,0.75353 0.278591,2.00299 0.288346,0.87634 0.44815,1.20639 0.625142,1.29114 0.28482,0.13639 0.622163,0.0643 0.808561,-0.17285 z m -19.859599,-0.70509 c 0.297591,-0.20055 0.404797,-0.38134 0.564088,-0.9513 0.309795,-1.10848 0.347991,-1.55854 0.146464,-1.72579 -0.369036,-0.30627 -0.664448,-0.0629 -1.205611,0.99318 -0.707629,1.38095 -0.722923,1.42976 -0.533018,1.70088 0.209122,0.29857 0.56866,0.29263 1.028077,-0.017 z m -2.82155,-0.95597 c 0.11959,-0.064 0.308648,-0.32916 0.420129,-0.58923 0.111479,-0.26008 0.371744,-0.66026 0.578363,-0.8893 0.405333,-0.44931 0.72675,-1.11248 0.72675,-1.49947 0,-0.15017 -0.100198,-0.28672 -0.265719,-0.36214 -0.238606,-0.10871 -0.321803,-0.0706 -0.815405,0.37315 -0.302327,0.27182 -0.549686,0.54303 -0.549686,0.6027 0,0.0597 -0.213496,0.36091 -0.474436,0.66942 -0.648874,0.7672 -0.745173,0.97375 -0.614368,1.31779 0.154223,0.40564 0.614718,0.58027 0.994372,0.37708 z m 25.400541,-0.13949 c 0.05971,-0.0369 0.133247,-0.19621 0.163412,-0.35401 0.04139,-0.21652 -0.03139,-0.38366 -0.296527,-0.68112 -0.19326,-0.2168 -0.531244,-0.65818 -0.751074,-0.98083 -0.437951,-0.6428 -1.29477,-1.37723 -1.47604,-1.2652 -0.224921,0.13901 -0.117566,0.8416 0.218289,1.42861 0.183053,0.31995 0.374896,0.60773 0.426318,0.63951 0.05142,0.0318 0.178813,0.28966 0.283086,0.57308 0.24889,0.67645 0.512786,0.89001 0.971854,0.78647 0.193667,-0.0437 0.400977,-0.1096 0.460682,-0.14651 z m 2.155398,-1.56688 c 0.06504,-0.0439 0.145377,-0.18727 0.178521,-0.31852 0.04682,-0.18542 -0.02367,-0.29456 -0.315951,-0.48925 -0.206915,-0.13782 -0.482946,-0.43826 -0.613402,-0.66763 -0.130457,-0.22937 -0.312212,-0.55064 -0.403899,-0.71393 -0.09169,-0.16329 -0.346189,-0.47638 -0.565555,-0.69575 -0.240183,-0.24018 -0.427456,-0.55134 -0.470762,-0.78217 -0.08385,-0.44698 -0.143734,-0.50093 -0.46328,-0.41736 -0.374756,0.098 -0.312174,0.60564 0.129064,1.04688 0.200952,0.20095 0.49593,0.62531 0.655504,0.94302 0.159574,0.3177 0.398783,0.71452 0.531573,0.88183 0.132795,0.1673 0.379819,0.52736 0.548943,0.80013 0.291637,0.47037 0.524016,0.59189 0.789244,0.41275 z M 13.4099,267.61782 c 0.131823,-0.14311 0.410915,-0.49397 0.620202,-0.77968 0.209288,-0.28572 0.585907,-0.74585 0.836931,-1.02251 0.557122,-0.61401 0.685159,-0.93086 0.685159,-1.69555 0,-0.60752 -0.08611,-0.71706 -0.331376,-0.42153 -0.07731,0.0931 -0.298742,0.23546 -0.492078,0.31624 -0.193337,0.0808 -0.386892,0.25831 -0.430121,0.39452 -0.04323,0.1362 -0.231411,0.39921 -0.41818,0.58444 -0.926332,0.91875 -1.47641,1.67479 -1.549053,2.12908 -0.06046,0.37809 -0.03746,0.48875 0.126507,0.60865 0.303373,0.22183 0.684934,0.17627 0.952009,-0.11366 z m 32.023026,-2.19114 c 0.188407,-0.41351 0.158887,-0.54802 -0.213338,-0.97196 -0.349839,-0.39844 -1.395941,-1.23421 -1.846913,-1.47556 -0.140368,-0.0751 -0.493026,-0.32457 -0.783689,-0.55433 -0.40885,-0.32317 -0.624706,-0.41773 -0.953597,-0.41773 -0.26946,0 -0.423852,0.0498 -0.421662,0.1359 0.0055,0.21495 0.275862,0.51642 0.463189,0.51642 0.09398,0 0.271511,0.14133 0.394513,0.31408 0.122999,0.17274 0.339085,0.34304 0.480189,0.37846 0.141103,0.0354 0.70921,0.54233 1.262463,1.12648 0.885406,0.93485 1.182677,1.1882 1.428584,1.21752 0.03526,0.004 0.120866,-0.11697 0.190261,-0.26928 z m -34.11276,-0.16551 c 0.19648,-0.18354 0.444541,-0.39486 0.551245,-0.4696 0.106705,-0.0747 0.486743,-0.41072 0.844531,-0.74664 0.357787,-0.33592 0.763148,-0.66992 0.900801,-0.74223 0.137653,-0.0723 0.485197,-0.32669 0.77232,-0.56528 0.865095,-0.71889 0.521412,-1.23065 -0.486515,-0.72445 -0.933382,0.46876 -2.957608,1.86615 -3.377546,2.33162 -0.239037,0.26496 -0.181998,0.90878 0.0987,1.11403 0.258678,0.18915 0.293036,0.17941 0.696468,-0.19745 z m 35.322351,-2.60175 c 0.04793,0 0.11568,-0.10911 0.150555,-0.24246 0.08199,-0.31355 -0.364258,-0.79306 -0.898568,-0.96554 -0.214373,-0.0692 -0.616501,-0.29051 -0.893616,-0.49179 -0.340556,-0.24736 -0.745757,-0.41608 -1.250289,-0.52062 -0.410538,-0.0851 -0.942136,-0.20619 -1.18132,-0.26917 -0.5532,-0.14568 -0.846908,-0.14993 -0.761044,-0.011 0.03694,0.0598 0.159722,0.10872 0.272814,0.10872 0.113091,0 0.244747,0.0666 0.292565,0.14806 0.04782,0.0814 0.307104,0.2551 0.576186,0.38593 0.675479,0.32843 1.103009,0.57207 1.884405,1.07389 0.368794,0.23683 0.776194,0.46309 0.905336,0.50279 0.129141,0.0397 0.295984,0.14589 0.370758,0.23599 0.07478,0.0901 0.20551,0.13713 0.290511,0.10451 0.08501,-0.0326 0.193774,-0.0593 0.241707,-0.0593 z m -35.74648,-0.58138 c 0.49791,-0.25997 1.223299,-0.64449 1.611976,-0.8545 0.388676,-0.21001 0.847912,-0.41578 1.020525,-0.45726 0.404493,-0.0972 1.063404,-0.59869 0.97487,-0.74194 -0.100299,-0.16229 -1.368938,-0.0335 -1.680413,0.17057 -0.144899,0.095 -0.516065,0.2268 -0.824814,0.29301 -0.308748,0.0662 -0.821817,0.26169 -1.140152,0.4344 -0.318334,0.17269 -0.785185,0.41164 -1.0374447,0.53098 -0.499873,0.23649 -0.7037,0.64727 -0.464299,0.93573 0.218178,0.26289 0.580919,0.18963 1.5397517,-0.31099 z m 36.786932,-2.46898 c 0.125747,-0.20346 -0.05366,-0.63816 -0.341107,-0.82651 -0.316769,-0.20755 -0.883121,-0.32762 -2.217647,-0.47015 -0.50827,-0.0543 -1.144285,-0.14815 -1.413371,-0.2086 -0.601942,-0.13521 -1.633966,-0.14849 -1.831089,-0.0235 -0.122082,0.0774 -0.122082,0.13105 0,0.32853 0.165359,0.2675 0.217426,0.28251 1.551693,0.44744 0.533985,0.066 1.055257,0.16516 1.158379,0.22035 0.103123,0.0552 0.531462,0.13231 0.951871,0.17139 0.457482,0.0425 0.887247,0.15205 1.070395,0.2728 0.333785,0.22008 0.957641,0.27152 1.070876,0.0883 z m -37.34937,-0.33076 c 0.508269,-0.063 1.168747,-0.1816 1.467729,-0.26347 0.298982,-0.0819 0.837149,-0.17795 1.195928,-0.21349 1.606074,-0.15911 2.208359,-0.41015 1.957573,-0.81593 -0.165957,-0.26853 -4.374464,-0.0446 -4.715445,0.25088 -0.09767,0.0847 -0.4330377,0.18245 -0.7452567,0.21733 -0.718222,0.0803 -0.987896,0.22516 -1.076571,0.57847 -0.09059,0.36095 0.112771,0.50117 0.611395,0.42157 0.209288,-0.0334 0.796379,-0.11233 1.3046477,-0.17536 z m 16.378361,-0.45155 c -0.09052,-0.34613 -0.848353,-0.24702 -1.074794,0.0326 -0.195618,0.24158 -0.196938,0.2655 -0.02173,0.39361 0.294568,0.0996 1.153412,-0.16027 1.096527,-0.42623 z m 18.140453,-2.57591 c 2.96455,-0.2638 3.356076,-0.40878 2.983559,-1.10484 -0.106558,-0.1991 -0.196149,-0.21028 -1.223106,-0.15254 -0.60947,0.0343 -1.4506,0.13235 -1.869173,0.21796 -0.418576,0.0856 -1.246738,0.23409 -1.840363,0.32995 -1.287903,0.20798 -1.721009,0.39811 -1.67262,0.73427 0.06144,0.42676 0.413029,0.49313 1.46882,0.27727 0.526326,-0.1076 1.495122,-0.24353 2.152883,-0.30207 z m -29.748694,0.14355 c 1.176324,-0.23526 -1.027854,-1.09377 -3.949884,-1.53844 -1.3391947,-0.2038 -2.0765487,-0.22496 -2.2373057,-0.0642 -0.06706,0.067 -0.1621,0.30006 -0.211205,0.51779 -0.118353,0.52476 0.04947,0.60907 1.213425,0.60964 0.7553187,3.3e-4 1.6980647,0.11689 3.7851907,0.46785 0.452513,0.0761 1.040672,0.0792 1.399779,0.007 z m 26.867595,-2.30451 c 0.08969,-0.10657 0.367455,-0.32411 0.617249,-0.48342 0.24979,-0.1593 1.005417,-0.73162 1.67917,-1.27182 0.673749,-0.54019 1.287604,-0.98217 1.364111,-0.98217 0.07651,0 0.217118,-0.15085 0.312458,-0.33522 0.136876,-0.26469 0.148903,-0.40536 0.05715,-0.66855 -0.06391,-0.18333 -0.116198,-0.44833 -0.116198,-0.5889 0,-0.50666 -0.706519,-0.19238 -1.551249,0.69002 -0.04594,0.048 -0.749003,0.77219 -1.562372,1.60934 -1.644103,1.69217 -1.833115,1.93044 -1.734726,2.18683 0.08731,0.22751 0.697303,0.1256 0.934403,-0.15611 z m -26.134604,0.0893 c 0.303289,0 -0.0581,-0.42037 -2.253766,-2.6216 -1.899109,-1.90392 -2.210021,-2.17366 -2.439166,-2.11615 -0.290856,0.073 -0.592737,0.56323 -0.592737,0.96255 0,0.19187 0.197505,0.40985 0.768349,0.84798 0.422593,0.32435 1.101678,0.85881 1.509078,1.18769 1.908819,1.54092 2.443077,1.89538 2.705436,1.79496 0.07963,-0.0305 0.215898,-0.0554 0.302806,-0.0554 z"
       id="path826"
       inkscape:connector-curvature="0"
       sodipodi:nodetypes="ccssccccccccccccccccccccccccccccccccsccscccscsccsccccsccccccsccscscscsccccccsscscccccccscsccccsccccssccsccccsccccccssccscscccccccscccscsccscscccsssssccccccsccsccsccccscccccscsccccccccsscccccccccccccsscccssssccccccccscccccscccccccccccsccscccscsccccsccssccscccccccccccccccccccccsccccccccccccccccccsccccccsccscccccccccccccccsccsccssccccccscccssccccccscsccsccccsccsccccccccccscccccccccccccsccsccccscccsccccscscccscscscccccccccccccccccccscscssccccsscssscss" />
  </g>
</svg>
