<?xml version="1.0" encoding="UTF-8" standalone="no"?>
<!-- Generated by IcoMoon.io -->

<svg
   xmlns:dc="http://purl.org/dc/elements/1.1/"
   xmlns:cc="http://creativecommons.org/ns#"
   xmlns:rdf="http://www.w3.org/1999/02/22-rdf-syntax-ns#"
   xmlns:svg="http://www.w3.org/2000/svg"
   xmlns="http://www.w3.org/2000/svg"
   xmlns:sodipodi="http://sodipodi.sourceforge.net/DTD/sodipodi-0.dtd"
   xmlns:inkscape="http://www.inkscape.org/namespaces/inkscape"
   version="1.1"
   width="215"
   height="215"
   viewBox="0 0 215 215"
   id="svg6"
   sodipodi:docname="axe.svg"
   inkscape:version="0.92.3 (2405546, 2018-03-11)">
  <metadata
     id="metadata12">
    <rdf:RDF>
      <cc:Work
         rdf:about="">
        <dc:format>image/svg+xml</dc:format>
        <dc:type
           rdf:resource="http://purl.org/dc/dcmitype/StillImage" />
        <dc:title>w_axe</dc:title>
      </cc:Work>
    </rdf:RDF>
  </metadata>
  <defs
     id="defs10" />
  <sodipodi:namedview
     pagecolor="#ffffff"
     bordercolor="#666666"
     borderopacity="1"
     objecttolerance="10"
     gridtolerance="10"
     guidetolerance="10"
     inkscape:pageopacity="0"
     inkscape:pageshadow="2"
     inkscape:window-width="1920"
     inkscape:window-height="1017"
     id="namedview8"
     showgrid="false"
     fit-margin-top="0"
     fit-margin-left="0"
     fit-margin-right="0"
     fit-margin-bottom="0"
     inkscape:zoom="1.3037281"
     inkscape:cx="-68.995032"
     inkscape:cy="-45.071298"
     inkscape:window-x="-8"
     inkscape:window-y="-8"
     inkscape:window-maximized="1"
     inkscape:current-layer="svg6" />
  <title
     id="title2">w_axe</title>
  <path
     d="m 110.29473,156.73235 q -5.89889,-0.42135 -10.32305,-2.31742 -1.685401,-0.8427 -5.688219,-1.26405 H 93.862112 Q 93.651438,152.9402 93.124751,152.9402 H 92.38739 l -1.264047,-0.42134 q -2.106746,-0.8427 -2.317421,-1.47473 -0.842698,-1.26404 -1.685397,-4.21349 l -0.421349,-1.26405 q 0,-0.42135 0.632024,-1.05337 l 0.210675,-0.21067 q 3.792142,-6.10957 9.269681,-12.64048 l 12.851154,-15.80059 q 2.10674,-2.5281 4.84551,-6.95226 1.6854,-3.3708 3.58147,-6.53092 1.05337,-1.47472 0.94804,-2.949437 -0.10534,-1.474723 1.36938,-1.474723 h 0.42135 q 0.63202,0 1.05337,0.210673 0.42135,0.21068 0.42135,0.94804 0,0.73736 0.42135,0.948027 0.42135,0.21068 1.47472,0.21068 2.94945,0.21067 5.79355,-1.685397 2.84411,-1.896071 4.10816,-5.477539 1.6854,-4.634841 1.6854,-8.848332 0.42134,-7.162934 -5.68822,-10.112384 -1.26405,-0.63202 -2.94944,-2.52809 l -1.47473,-1.47472 q -1.05337,-0.63203 -3.16011,-1.6854 l -2.31742,-1.26405 q -2.10675,-1.05337 -5.68822,-4.00282 l -2.10674,-1.68539 q -1.47473,-1.26405 -4.42417,-4.00282 -2.10675,-2.10674 -3.26546,-3.37079 -1.15871,-1.26405 -2.42275,-1.47472 -1.89608,-0.21068 -2.949448,0.42134 -1.053373,0.63203 -1.474723,2.5281 -0.842698,2.94944 -3.370793,3.79214 l -1.264048,-1.26405 q -3.160118,-2.94944 -4.002817,-5.05619 -0.421349,-1.26404 -2.738769,-3.58146 -1.264048,-1.26405 -1.685397,-1.89607 l -1.264048,-1.6854 q -6.320237,-9.05901 -10.11238,-13.06183 -2.31742,-2.52809 -6.530912,-8.00563 -4.213492,-5.47754 -6.741587,-8.00563 l -2.528095,-3.16012 q -2.528095,-2.94945 -3.792142,-4.2134897 -0.632024,-0.63203 -0.210675,-1.8960796 0.421349,-0.63202 1.264048,0 l 4.002817,1.2640496 q 4.634841,1.2640497 6.741587,2.3174197 v 0 q 0,0.21068 0.210674,0.21068 2.317421,-0.42135 6.320238,0.84269 3.160119,0.8427 4.634841,0.8427 0.632023,0 1.896071,0.21068 l 0.421349,0.21067 q 2.528095,1.05338 8.216309,2.10675 4.845516,0.8427 7.162936,1.68539 1.053373,0.42135 3.160119,0.63203 2.949445,0.63202 4.108155,1.36938 1.15871,0.73736 3.6868,0.8427 2.5281,0.10534 3.58147,0.52669 2.94945,1.26405 8.21631,0.8427 h 0.42135 q 1.47472,0 2.10675,0.42135 l 0.21067,0.42134 q 0.63202,0.42135 0,0.8427 -1.26405,0.8427 -1.26405,1.6854 0,0.8427 0.63203,2.31742 0.63202,1.47472 0.52668,2.31742 -0.10533,0.8427 0.8427,1.6854 0.94804,0.8427 2.21209,1.26405 1.26404,0.42134 2.94944,2.10674 l 1.26405,1.26405 q 6.10956,5.68821 10.53373,8.00563 1.68539,0.8427 5.05619,2.94945 4.63484,2.94944 6.95226,4.00281 1.68539,0.63203 4.63484,2.5281 l 2.52809,1.47472 q 1.89608,1.05337 3.26546,0.73736 1.36938,-0.31601 2.84411,-1.79073 3.16012,-2.94945 3.58146,-8.00564 v -4.00281 q 0,-1.05338 0.73737,-1.47473 0.73736,-0.42134 1.58006,0.31602 0.84269,0.73736 2.73877,2.00141 1.89607,1.26404 2.73876,2.10674 1.6854,1.26405 5.05619,3.37079 2.73877,1.6854 4.00282,2.5281 2.10675,1.47472 6.42558,3.79214 4.31883,2.31742 6.2149,3.68681 1.89607,1.36938 5.47754,3.89748 l 4.00281,2.73877 1.26405,1.47472 q 1.05337,1.6854 1.89607,2.10674 l 5.05619,4.2135 q 0.8427,0.8427 1.26405,1.05337 -0.63202,1.89607 -1.58006,2.73877 -0.94804,0.8427 -2.84411,0.63202 -1.89607,-0.21067 -3.58146,1.05338 -1.26405,0.84269 -2.73877,2.73877 -1.89608,2.528091 -6.53092,6.741582 -3.37079,3.370794 -9.48035,10.53373 l -3.79215,4.42416 q -2.10674,2.10675 -5.05619,7.37361 l -2.31742,4.2135 q -2.73877,4.21349 -4.63484,5.89888 -1.05337,0.8427 -2.31742,2.94945 -1.05337,1.6854 -1.89607,2.52809 -10.11238,10.74441 -20.85678,21.48881 -1.47472,1.26405 -4.63484,2.94945 -2.5281,1.26404 -3.68681,2.0014 -1.15871,0.73737 -3.26545,1.58006 -2.94945,1.26405 -4.2135,2.31742 -0.84269,0.42135 -2.52809,0.63203 -1.26405,0 -1.89607,0.21067 -5.68822,1.47472 -16.01127,1.05338 -0.8427,-0.21068 -0.8427,-0.8427 0.42135,-0.21068 1.05337,-0.21068 h 1.05338 q 1.05337,-0.63202 1.15871,-1.15871 0.10533,-0.52668 -0.73736,-1.15871 -0.8427,-0.63202 -1.79074,0.21068 -0.94803,0.8427 -0.73736,2.31742 z M 130.51949,52.448428 q 0.42135,-1.47472 0,-2.73877 -0.42135,-0.8427 -1.47472,-2.52809 l -0.8427,-1.26405 q -0.8427,-1.05337 -1.47472,-1.15871 -0.63203,-0.10534 -2.31742,0.31601 -2.10675,0.8427 -3.26546,1.05337 -1.15871,0.21068 -1.6854,0.8427 -0.52668,0.63203 -0.94803,1.89607 l -0.42135,1.05338 q -0.63202,1.89607 -0.21067,2.73877 l 0.84269,1.68539 q 1.26405,2.73877 2.73877,3.68681 1.47473,0.94803 2.84411,1.15871 1.36938,0.21067 2.42276,-0.63203 l 0.42135,-0.21067 q 2.10674,-1.47472 2.73877,-2.31742 1.05337,-1.6854 0.63202,-3.58147 z m 41.71357,-1.6854 q 0,-0.84269 -0.63202,-1.05337 -1.47473,-0.42135 -1.6854,0.63203 -0.21068,0.42134 0,0.73736 0.21067,0.31601 0.63202,0.31601 1.47472,0 1.6854,-0.63203 z m 38.9748,22.75286 q 0,-0.8427 -0.63203,-0.94804 -0.63202,-0.10533 -1.47472,0.73737 l -0.21067,0.21067 q -0.21068,0.63202 0.8427,0.63202 h 0.42134 q 1.05338,0 1.05338,-0.63202 z M 109.45203,43.600098 q 0.63203,0 0.63203,-0.21068 -0.42135,-0.63202 -1.05338,-1.05337 l -0.21067,0.21068 q -0.42135,1.05337 0.63202,1.05337 z m 20.01409,59.831582 q -0.42135,0 -0.42135,0.42135 l 0.21067,0.84269 q 0.63203,0 0.63203,-0.84269 z M 7.4855314,181.38127 q 0,-1.47472 1.053373,-2.52809 0.6320237,-0.63203 2.1067456,-1.47472 5.266865,-3.79215 8.426984,-6.95226 1.896071,-1.89608 4.845515,-6.10957 l 0.842699,-1.05337 q 2.106745,-2.31742 3.160118,-3.37079 l 1.264048,-1.26405 q 2.31742,-2.5281 2.949444,-4.00282 0.842699,-2.10674 4.213492,-5.05619 1.474722,-1.26405 3.581468,-4.42417 1.896071,-2.73876 3.160119,-4.00281 1.685396,-1.89607 4.634841,-5.89889 3.581468,-4.84552 5.477539,-6.95226 l 1.474722,-1.6854 q 8.848333,-9.9017 12.219126,-15.37924 v -0.42135 q 2.317421,-2.31742 5.793551,-7.58429 3.476131,-5.26686 5.582877,-7.373606 1.264047,-1.474722 3.160119,-5.05619 l 1.264047,-2.317421 q 2.317421,-4.002817 8.005634,-11.165755 l 2.317421,-2.94944 q 3.792142,-5.26687 7.794956,-8.63766 0.8427,-0.8427 2.10675,-2.94944 l 0.63202,0.21067 q 1.26405,0.21067 1.6854,0.63202 1.6854,1.6854 5.89889,4.42417 2.94944,1.6854 4.21349,2.63343 1.26405,0.94804 3.05478,3.05478 1.79074,2.10675 2.73877,2.84411 0.94804,0.73736 0.8427,1.15871 -0.10534,0.42135 -1.15871,1.05337 l -1.05337,0.42135 q -0.8427,2.106749 -3.79215,5.477543 -2.94944,3.370793 -4.00281,5.477539 -1.6854,3.370793 -6.10957,9.059003 l -1.89607,2.317427 q -0.63202,0.84269 -2.10674,2.31742 l -1.26405,1.47472 -2.528096,3.16012 q -5.898888,6.95226 -8.426983,10.53373 l -0.42135,0.42135 q -3.370793,4.84551 -5.688214,6.32023 l -2.106745,2.10675 -3.370794,4.63484 q -5.05619,7.37361 -8.216309,10.32305 -2.106746,3.79215 -7.162936,10.95508 -4.002817,5.47754 -5.688214,8.42699 -1.053372,1.89607 -3.370793,5.58287 -2.31742,3.68681 -3.370793,5.58288 l -2.317421,4.00282 q -4.213492,7.16293 -5.688214,10.95508 -0.632023,1.89607 -2.31742,5.05619 -2.949444,6.10956 -3.370794,9.48035 -1.053372,1.05337 -1.896071,3.79214 -0.421349,2.10675 -1.053373,2.94945 -0.842698,1.6854 -1.474722,2.52809 -2.31742,1.89607 -4.002817,0.21068 -2.31742,-2.31742 -8.216309,-5.68822 -3.160119,-1.89607 -4.634841,-2.94944 l -1.053373,-0.63202 q -1.685396,-1.05338 -2.528095,-1.89607 -1.474722,-1.47473 -4.8455153,-4.42417 -3.7921426,-2.94945 -5.372202,-4.74018 -1.58005941,-1.79073 -1.47472212,-3.6868 0.10533729,-1.89608 1.79073402,-3.3708 1.4747221,-1.89607 2.3174204,-2.52809 1.4747221,-1.26405 3.3707934,-1.05338 0.4213492,0.8427 0.6320238,0.8427 0.8426983,0 0.8426983,-0.21067 0.2106746,-0.63203 -0.6320237,-0.63203 -0.2106746,-0.21067 -0.6320238,0 z m 24.0169026,18.75004 q -2.738769,3.16012 -2.738769,4.21349 0,1.05338 0.210674,1.26405 0.210675,0.21068 0.632024,0.31601 0.421349,0.10534 0.632024,-0.10533 0.842698,-0.21068 1.474722,-0.8427 0.632024,-0.63203 0.842698,-1.47472 1.264048,-2.10675 -1.053373,-3.3708 z M 152.64032,39.175928 h -1.26405 q -1.68539,0 -2.21208,0.42135 -0.52669,0.42135 -0.31601,2.10675 l 0.21067,0.42135 q 0.21068,0.63202 -0.31601,1.15871 -0.52668,0.52668 -1.58006,-0.10534 -1.05337,-0.63202 -2.94944,-1.47472 -3.79214,-1.89607 -5.05619,-3.79215 -1.6854,-0.42134 -3.16012,-1.89607 -0.8427,-0.8427 -2.31742,-2.73877 -2.5281,-3.16012 -4.21349,-4.21349 -1.05338,-0.63202 -0.21068,-1.47472 l 3.79215,-4.63484 q 1.68539,-1.6854 3.47613,-1.47472 1.79073,0.21067 4.31883,-1.47473 l 0.42134,-0.42134 q 6.53092,-4.2135 19.17139,-13.0618293 l 0.21068,-0.21067 q 1.26404,-0.8427 1.68539,-1.26405 0.8427,-0.8427 0.8427,-2.10675 0,-1.26404 0.73736,-1.05337 0.73736,0.21067 1.26405,0.73736 0.52669,0.52669 0.31601,1.05337 -0.21067,0.52669 -0.42135,1.58006 -0.21067,1.05338 -0.63202,1.6854 -1.6854,2.3174196 -3.58147,7.5842893 -1.26405,3.16011 -1.89607,4.63484 -1.47472,2.73877 -2.5281,5.68821 l -0.42134,0.8427 q -1.05338,3.37079 -1.26405,5.05619 -0.42135,2.94944 0.8427,5.26686 v 0.42135 q 0,2.10675 -0.42135,2.5281 -0.42135,0.42135 -2.5281,0.21067 z"
     id="path4"
     inkscape:connector-curvature="0"
     style="fill:#ffffff;fill-opacity:1;stroke-width:6.58358097" />
</svg>
