<?xml version="1.0" encoding="UTF-8" standalone="no"?>
<!-- Generated by IcoMoon.io -->

<svg
   xmlns:dc="http://purl.org/dc/elements/1.1/"
   xmlns:cc="http://creativecommons.org/ns#"
   xmlns:rdf="http://www.w3.org/1999/02/22-rdf-syntax-ns#"
   xmlns:svg="http://www.w3.org/2000/svg"
   xmlns="http://www.w3.org/2000/svg"
   xmlns:sodipodi="http://sodipodi.sourceforge.net/DTD/sodipodi-0.dtd"
   xmlns:inkscape="http://www.inkscape.org/namespaces/inkscape"
   version="1.1"
   width="215"
   height="215"
   viewBox="0 0 215 215"
   id="svg6"
   sodipodi:docname="fangs.svg"
   inkscape:version="0.92.3 (2405546, 2018-03-11)">
  <metadata
     id="metadata12">
    <rdf:RDF>
      <cc:Work
         rdf:about="">
        <dc:format>image/svg+xml</dc:format>
        <dc:type
           rdf:resource="http://purl.org/dc/dcmitype/StillImage" />
        <dc:title>w_fangs</dc:title>
      </cc:Work>
    </rdf:RDF>
  </metadata>
  <defs
     id="defs10" />
  <sodipodi:namedview
     pagecolor="#ffffff"
     bordercolor="#666666"
     borderopacity="1"
     objecttolerance="10"
     gridtolerance="10"
     guidetolerance="10"
     inkscape:pageopacity="0"
     inkscape:pageshadow="2"
     inkscape:window-width="1920"
     inkscape:window-height="1017"
     id="namedview8"
     showgrid="false"
     fit-margin-top="0"
     fit-margin-left="0"
     fit-margin-right="0"
     fit-margin-bottom="0"
     inkscape:zoom="1.84375"
     inkscape:cx="-117.04877"
     inkscape:cy="93.39375"
     inkscape:window-x="-8"
     inkscape:window-y="-8"
     inkscape:window-maximized="1"
     inkscape:current-layer="svg6" />
  <title
     id="title2">w_fangs</title>
  <path
     d="m 206.87371,43.826671 q -0.21469,-0.64409 -0.64408,-1.71757 -2.57636,-7.08498 -4.93802,-10.30542 -12.88178,-15.24344 -30.48687,-22.1137198 l -4.93802,-1.50287 q -4.50862,-1.50288 -6.65558,-2.36166 -3.64984,-1.50288 -6.2262,-3.43514 -1.07348,-0.85879 -3.22044,-1.50288004 l -1.71757,-0.42939 q -2.79105,-0.85879 -3.86453,-0.10735 -1.07348,0.75144004 -0.32205,3.75719004 0.75144,3.00574 -0.10735,4.83066 -0.85878,1.8249198 -3.64983,2.4690098 -9.01725,1.71757 -13.52587,1.93227 -7.72907,0.21469 -22.9725,-0.2147 l -9.017247,-0.2147 q -5.152711,0 -7.729067,-0.21469 -4.079229,-0.4294 -7.51437,-1.50288 -2.361659,-0.64409 -3.542489,-1.9322598 -1.18083,-1.28818 -1.18083,-3.64984 0,-2.36166 -1.502874,-3.22044 -1.502874,-0.85879 -4.079229,0 -1.502874,0.21469 -4.293926,1.28817 l -1.073482,0.4294 q -3.220444,1.07348 -9.23194,4.29392 -5.367408,3.0057498 -8.158459,4.0792298 -8.15846,2.79105 -12.022993,6.22619 -5.7968,4.72332 -11.164207,12.023 -3.005748,4.29392 -8.587852,13.74056 -3.864533,6.22619 -5.7967997,9.23194 -1.2881778,1.71757 -0.6440889,3.32779 0.6440889,1.61022 3.4351406,0.96614 1.932267,-0.4294 2.576356,0.21469 0.644089,0.64409 0.644089,2.36166 0,27.266431 7.51437,49.809539 3.43514,11.16421 6.440889,18.24919 4.079229,9.66133 9.23194,16.96101 2.146963,3.43514 4.293926,4.72331 0.858785,0.64409 1.824919,0.75144 0.966133,0.10735 1.932266,-0.42939 0.966134,-0.53674 0.966134,-1.28818 0,-0.75144 -0.429393,-1.82492 l -0.214696,-0.42939 q -0.858786,-3.64984 -0.858786,-8.37316 v -3.22044 q 0.429393,-13.09647 1.502875,-19.96676 l 0.858785,-4.72331 q 3.649837,-19.107975 6.440889,-28.554609 0.858785,-2.79105 3.005748,-8.37316 2.361659,-6.44089 3.43514,-9.66133 1.717571,-5.58211 1.932267,-10.30542 0.214696,-2.57636 0.214696,-7.51437 0,-3.22045 2.791052,-3.43514 1.288178,-0.2147 1.71757,0.42939 0.429393,0.64409 0.644089,1.93226 l 0.214697,0.64409 q 1.71757,5.7968 1.288177,12.23769 -0.214696,5.58211 1.932267,11.8083 1.288178,3.86453 4.938015,11.16421 1.71757,3.649832 5.152711,3.005743 1.502874,-0.214696 2.146963,-1.288173 0.429392,-0.64409 0.858785,-2.36166 l 1.073482,-5.15271 q 1.288177,-5.36741 1.932266,-7.94377 1.288178,-4.29392 3.220445,-7.51437 0.429392,-0.85878 0.858785,-3.11309 0.429392,-2.25432 0.858785,-3.1131 0.644089,-1.50287 2.254311,-1.50287 1.610222,0 2.469007,1.28817 0.644089,0.64409 1.288178,2.68371 0.644089,2.03961 1.073482,2.8984 l 0.429392,0.64409 q 0.64409,1.50287 1.28818,2.14696 1.07348,1.07348 2.57635,0.96613 1.50288,-0.10735 2.8984,-1.07348 1.39553,-0.96613 2.14697,-2.36166 0.75143,-1.39552 1.61022,-4.40127 v -0.2147 q 0.64409,-1.93227 1.28818,-2.79105 0.85878,-1.28818 2.36166,-1.07348 1.50287,0.21469 1.93226,1.50287 0.42939,0.64409 0.64409,2.57636 v 0.64409 q 0.2147,1.07348 0,3.43514 v 5.15271 q 0,7.29967 0.2147,11.05686 0.21469,3.75718 2.03961,5.15271 1.82492,1.39552 5.90415,1.39552 2.57636,0 4.50862,-1.71757 1.07348,-1.07348 2.57636,-3.64983 1.93226,-3.22045 6.01149,-9.01725 7.08498,-10.52012 9.66134,-16.31692 1.07348,-2.14696 2.469,-2.79105 1.39553,-0.64409 2.68371,1.71757 2.36166,4.07923 3.43514,7.08498 1.28818,4.07923 1.50287,8.05111 0.2147,3.97188 0.4294,12.34504 0.21469,8.373154 0.42939,12.66708 0.21469,6.655585 -0.2147,14.814049 l -1.28818,14.81404 q -1.28817,10.94951 -1.50287,16.31692 l -0.2147,1.71757 q -0.42939,2.14696 -0.21469,3.00575 0,1.28817 1.28818,2.14696 1.71757,1.07348 3.43514,0.42939 1.07348,-0.21469 3.00574,-1.71757 l 0.64409,-0.64409 q 1.28818,-0.85878 3.00575,-3.43514 3.22045,-4.29392 7.62172,-13.95526 4.40127,-9.66133 7.62172,-14.2773 3.22044,-4.61597 6.22619,-11.271556 2.14696,-4.508623 4.93802,-12.237689 l 0.21469,-0.858785 q 0.64409,-1.717571 1.93227,-7.084979 l 1.50287,-6.65558 q 1.71757,-6.65559 1.71757,-17.6051 0,-3.22044 1.28818,-4.83067 1.28818,-1.61022 4.50862,-1.39552 1.71757,0 2.57636,-0.85879 0.85878,-0.85878 0.21469,-2.79105 z M 180.89546,106.0886 q -0.21469,0.21469 -0.85878,0.32204 l -0.64409,0.10735 q -0.42939,-1.28818 -0.42939,-1.93227 0.21469,-1.93226 1.28817,-4.07923 0.64409,-1.288175 2.03962,-3.542486 1.39552,-2.254311 2.03961,-3.327793 0.2147,-0.429392 0.64409,-0.644088 0.4294,-0.214697 0.75144,0.107348 0.32204,0.322044 0.53674,0.751437 l 0.42939,0.858785 q -3.00575,6.226197 -5.7968,11.378907 z m 12.66708,-30.272179 -1.71757,5.36741 q -0.21469,0.64408 -0.64408,2.146958 -0.64409,2.36166 -1.71758,3.435141 l -0.42939,0.644089 q -0.42939,0.644089 -0.85878,0.858785 -0.4294,0.214696 -1.07348,0 -1.28818,-0.644089 -0.4294,-2.576355 l 2.79105,-8.373158 q 0.64409,-2.79105 3.22045,-2.57635 h 0.42939 q 0.42939,0.42939 0.42939,0.85878 z m 0.64409,96.828029 q 0,-0.2147 -0.21469,-0.85879 l -0.2147,-0.64409 -0.64409,-1.28817 q -3.86453,-7.94377 -5.5821,-12.023 -2.57636,-6.87028 -3.22045,-12.88177 0,-0.64409 -0.42939,-1.50288 -0.64409,-1.50287 -2.36166,-1.50287 -1.28818,0.21469 -1.28818,1.93226 -0.42939,6.44089 -2.57635,13.52587 -1.71757,5.15271 -4.93802,12.88178 -2.14696,4.72332 -4.18657,6.54824 -2.03962,1.82491 -5.58211,1.82491 -3.54249,0 -5.68945,-1.82491 -2.14696,-1.82492 -3.64984,-6.54824 -2.36166,-7.51437 -6.22619,-22.32842 l -2.36166,-9.44663 q -2.14696,-9.87603 -3.86453,-14.59935 -2.57636,-8.15846 -6.44089,-13.95526 -0.42939,-0.42939 -0.85879,-1.61022 -0.42939,-1.18083 -0.85878,-1.71757 -0.42939,-0.53674 -1.50287,-0.32205 -1.07349,0.2147 -1.39553,1.07348 -0.32204,0.85879 -0.10735,2.57636 v 1.07348 q 0,3.00575 0.32205,9.12459 0.32204,6.11885 0.32204,9.33929 -0.2147,4.72332 -0.64409,13.95526 -0.64409,10.09073 -0.85878,15.02874 -0.2147,8.37316 0.42939,15.02874 0.85878,3.64984 -2.14696,4.29393 -1.28818,0.2147 -1.82492,-0.42939 -0.53674,-0.64409 -0.75144,-2.14697 l -0.2147,-1.07348 q -0.64408,-2.79105 -1.28817,-8.15846 l -0.64409,-4.50862 q -0.2147,-1.71757 -0.64409,-2.57635 -0.42939,-0.85879 -1.93227,-1.07349 -1.50287,-0.21469 -2.36166,1.07349 -0.42939,0.64408 -0.85878,2.57635 -0.64409,2.79105 -2.36166,4.07923 -1.71757,1.28818 -4.72332,1.71757 -2.57636,0.42939 -4.29393,-0.85878 -1.07348,-1.07349 -2.36165,-3.43515 l -0.2147,-0.42939 q -0.85879,-1.71757 -1.50288,-2.36166 -1.07348,-1.07348 -2.683699,-1.07348 -1.610223,0 -2.683704,1.07348 -0.644089,0.85879 -1.502874,2.79105 l -0.214696,0.2147 q -0.858786,1.71757 -2.254312,5.47476 -1.395525,3.75718 -2.254311,5.47475 -1.502874,3.43514 -4.508622,3.22045 -1.502874,-0.2147 -2.361659,-1.18083 -0.858785,-0.96614 -1.502874,-2.68371 -2.361659,-8.58785 -1.932267,-21.46963 v -3.22044 q 0.214697,-7.94376 0.214697,-12.02299 0,-6.65559 -0.858786,-12.023 -1.073481,-6.01149 0.429393,-11.3789 l 0.214696,-0.42939 q 0.644089,-2.36166 0.644089,-3.43514 0,-2.14697 -1.502874,-2.57636 -1.502874,-0.42939 -2.576355,0.42939 -0.644089,0.4294 -1.610223,1.93227 -0.966133,1.50288 -1.395526,1.93227 -0.429392,0.42939 -0.429392,0.85878 -2.361659,5.7968 -7.729067,17.3904 -5.367407,11.8083 -7.729066,18.03449 -4.07923,10.09073 -5.582104,18.89328 -0.644089,4.29392 -3.542489,8.58785 -2.8984,4.29392 -5.7968,4.29392 -2.8984,0 -5.474755,-4.29392 -2.146963,-3.43514 -4.07923,-11.16421 l -1.073481,-3.86453 q -0.429393,-1.50288 -0.858786,-4.50863 -0.858785,-4.29392 -1.502874,-6.44088 -1.288177,-3.22045 -3.649837,-5.26006 -2.361659,-2.03962 -3.542488,-1.82492 -1.18083,0.21469 -2.683704,3.00575 -1.932267,3.64983 -4.508622,11.5936 -1.71757,6.01149 -3.005748,8.80254 -1.932267,5.36741 -0.429393,10.52012 0.858785,3.22045 4.508622,8.80255 1.717571,3.00575 4.508622,5.7968 1.717571,1.71757 5.582104,4.72332 4.723318,3.86453 6.870281,6.0115 6.440889,7.08497 13.096474,11.1642 2.576356,1.71757 4.615971,1.61022 2.039614,-0.10734 4.61597,-2.03961 4.508622,-4.29393 8.158459,-6.65559 4.723319,-3.22044 9.231941,-4.50862 10.090726,-3.00575 18.034489,-4.29392 9.66133,-1.50288 18.67858,-0.85879 9.01724,0.64409 15.02874,3.43514 7.08498,3.22045 11.80829,10.09073 2.36166,3.86453 3.97189,5.04536 1.61022,1.18083 3.32779,0.64409 1.71757,-0.53674 5.5821,-2.8984 2.57636,-1.71757 8.15846,-3.86453 4.50862,-1.71757 6.65559,-2.79106 13.52586,-7.94376 27.05173,-18.89327 4.07923,-3.22044 6.22619,-8.37315 0.64409,-1.28818 0.32205,-1.93227 -0.32205,-0.64409 -1.71757,-1.61022 -1.39553,-0.96614 -1.61023,-1.82492 z m -150.931491,11.3789 q -0.644089,0.2147 -1.073482,-0.10735 -0.429393,-0.32204 -0.322044,-0.64409 0.107348,-0.32204 0.53674,-0.64408 0.429393,-0.32205 0.644089,-0.32205 0.214697,0 0.858785,0.2147 l 1.073482,0.64409 z"
     id="path4"
     inkscape:connector-curvature="0"
     style="fill:#ffffff;fill-opacity:1;stroke-width:6.70925903" />
</svg>
