<?xml version="1.0" encoding="UTF-8" standalone="no"?>
<!-- Generated by IcoMoon.io -->

<svg
   xmlns:dc="http://purl.org/dc/elements/1.1/"
   xmlns:cc="http://creativecommons.org/ns#"
   xmlns:rdf="http://www.w3.org/1999/02/22-rdf-syntax-ns#"
   xmlns:svg="http://www.w3.org/2000/svg"
   xmlns="http://www.w3.org/2000/svg"
   xmlns:sodipodi="http://sodipodi.sourceforge.net/DTD/sodipodi-0.dtd"
   xmlns:inkscape="http://www.inkscape.org/namespaces/inkscape"
   version="1.1"
   width="215"
   height="215"
   viewBox="0 0 215 215"
   id="svg6"
   sodipodi:docname="reach_weapon.svg"
   inkscape:version="0.92.3 (2405546, 2018-03-11)">
  <metadata
     id="metadata12">
    <rdf:RDF>
      <cc:Work
         rdf:about="">
        <dc:format>image/svg+xml</dc:format>
        <dc:type
           rdf:resource="http://purl.org/dc/dcmitype/StillImage" />
        <dc:title>w_reach_weapon</dc:title>
      </cc:Work>
    </rdf:RDF>
  </metadata>
  <defs
     id="defs10" />
  <sodipodi:namedview
     pagecolor="#ffffff"
     bordercolor="#666666"
     borderopacity="1"
     objecttolerance="10"
     gridtolerance="10"
     guidetolerance="10"
     inkscape:pageopacity="0"
     inkscape:pageshadow="2"
     inkscape:window-width="1920"
     inkscape:window-height="1017"
     id="namedview8"
     showgrid="false"
     fit-margin-top="0"
     fit-margin-left="0"
     fit-margin-right="0"
     fit-margin-bottom="0"
     inkscape:zoom="1.84375"
     inkscape:cx="55.909082"
     inkscape:cy="14.405653"
     inkscape:window-x="-8"
     inkscape:window-y="-8"
     inkscape:window-maximized="1"
     inkscape:current-layer="svg6" />
  <title
     id="title2">w_reach_weapon</title>
  <path
     d="m 194.50848,131.74651 q -0.42914,0.21457 -1.502,0.85828 -1.93114,1.07285 -2.78942,1.28743 -1.71657,0.42914 -3.43313,-0.42915 -1.28743,-0.42914 -4.29142,-0.85828 l -1.93114,-0.42914 q -3.6477,-0.85829 -6.22255,3.00399 -0.85829,1.502 -1.82386,2.46757 -0.96557,0.96556 -2.68213,1.39471 -0.85829,0.21457 -2.253,1.50199 -1.39471,1.28743 -2.25299,1.502 l -1.07285,0.64371 q -1.93114,1.07285 -3.004,1.28743 -1.93113,0.64371 -3.43313,-0.42915 -1.07285,-0.42914 -2.14571,0.42915 l -0.42914,0.21457 q -1.502,0.85828 -2.78942,0.85828 -1.28743,0 -2.57485,-1.07285 -2.78942,-2.14571 -6.00799,0.64371 l -1.50199,1.71656 q -3.21857,3.86228 -4.72056,6.00799 -0.85828,0.85828 -1.71657,1.28742 -1.28742,1.07286 -1.93114,-0.42914 -0.21457,-0.85828 -0.21457,-2.78942 v -10.2994 q 0,-1.28743 -0.32185,-2.14571 -0.32186,-0.85828 -1.39471,-1.50199 l -3.21857,-3.21857 q -3.86227,-3.21856 -4.50598,-7.29541 0,-0.64371 -0.21458,-0.85828 -2.1457,-2.14571 -3.00399,-5.1497 -0.64371,-1.93114 -1.07285,-6.00798 l -0.21457,-2.78943 q -0.64371,-3.43313 -4.29142,-4.50598 -4.29141,-1.502 -6.22255,-4.29142 -0.64371,-0.85828 -1.502,-0.96557 -0.85828,-0.10729 -1.93113,-0.10729 h -0.85829 q -2.36028,0 -4.18413,1.28743 -1.823851,1.28742 -2.467563,3.6477 -0.643713,2.36028 -2.574851,4.50599 -1.287425,1.502 -4.076846,3.43314 l -1.287425,0.85828 q -1.716567,0.85828 -2.36028,1.71657 -1.501996,1.93113 -3.647704,2.1457 -1.287425,0.21458 -4.184132,-0.21457 -2.896707,-0.42914 -4.505988,0.42915 -1.609281,0.85828 -2.896707,3.43313 -0.21457,0.42914 -0.429141,1.502 l -0.429142,1.28742 q -1.501996,3.86228 -6.007984,10.2994 -3.003992,4.29142 -4.291417,6.6517 -0.643713,1.07285 -2.574851,1.07285 -2.360279,-0.42914 -3.647704,1.502 -3.218563,2.78942 -3.647705,5.25698 -0.429141,2.46757 1.716567,3.32585 1.287425,0.85829 2.145709,1.07286 1.931137,0.64371 1.931137,3.00399 v 11.58683 q 0,1.93113 -1.931137,4.93513 l -0.643713,0.85828 q -1.501996,2.36028 -1.39471,3.86227 0.107285,1.502 1.609281,4.07685 1.072854,1.71657 2.789421,1.502 7.50998,-0.42914 12.230539,4.93513 1.501996,1.28742 4.93513,3.43313 1.287425,0.85828 1.716567,1.28743 0.858283,1.07285 0.858283,2.1457 0.214571,1.71657 2.145709,2.14571 1.501996,0 2.467565,1.18014 0.965568,1.18014 2.252994,0.10729 3.003992,-3.43314 7.080838,-4.29142 1.072854,-0.21457 1.716567,0.32186 0.643712,0.53642 0.107285,1.39471 -0.536427,0.85828 -0.750998,2.68213 -0.214571,1.82386 -1.180139,2.57485 -0.965569,0.751 -0.965569,2.14571 0,1.39471 1.072854,2.03843 l 0.858283,0.64371 q 1.287426,1.07285 1.931138,1.28742 1.287425,0.64372 2.36028,0 3.003992,-1.28742 7.080839,-4.07684 0.85828,-0.42915 1.07285,-1.71657 v -0.64371 q 0.21457,-2.78942 -0.10728,-3.54042 -0.32186,-0.751 -2.68214,-2.46757 2.14571,-0.85828 3.64771,0.21457 l 0.85828,0.85829 q 1.07285,0.85828 1.502,1.50199 0.42914,0.64372 0.42914,1.71657 0,2.36028 -0.85829,4.93513 -0.64371,1.71657 -2.36028,4.50599 -1.28742,1.28742 -1.50199,2.14571 -0.42914,2.36028 -0.96557,2.78942 Q 102.45758,215 100.31187,215 h -6.437121 q -1.716567,0 -2.789422,-1.93114 -2.145708,-4.29142 -4.720559,-6.86627 -3.003992,-3.00399 -7.188123,-3.96956 -4.184132,-0.96557 -6.329841,1.60928 -2.57485,2.78943 -3.862275,2.89671 -1.287425,0.10729 -3.862275,-2.68213 -0.858284,-0.85829 -3.003992,-2.253 -2.145709,-1.39471 -3.003993,-2.25299 -2.360279,-1.93114 -3.433133,-3.43314 -1.501996,-1.93113 -1.716567,-4.29141 0,-0.42914 -0.429142,-1.28743 -3.218563,-3.6477 -4.076846,-10.94311 -0.214571,-1.28743 -1.501996,-3.86228 -0.643713,-1.28742 -3.218563,-0.85828 -0.858283,0.42914 -0.858283,1.93114 v 0.42914 q 0,1.50199 0.429141,2.36028 0.858284,1.28742 0.858284,2.36028 0.858283,6.86627 3.862275,10.51397 0.429142,0.64371 0.321856,1.07285 -0.107285,0.42915 -0.643712,1.18014 -0.536427,0.751 -1.394711,0.10729 l -0.429141,-0.42914 q -4.93513,-2.36028 -4.720559,-7.50998 0.214571,-3.00399 -1.501996,-6.00799 -0.858284,-1.71656 -3.433134,-4.93513 L 36.7989,175.51896 q -1.072854,-1.07285 -3.218563,-1.50199 -3.218562,-0.64372 -5.1497,-3.64771 -4.291417,-5.36427 -5.364272,-9.87026 -2.789421,-7.08084 1.287425,-11.15768 0.643713,-0.64372 0.965569,-2.46757 0.321857,-1.82385 0.107286,-3.11128 -0.214571,-1.28742 0,-2.36027 0.429142,-5.14971 -3.218563,-7.50998 -1.716567,-1.07286 -1.716567,-3.64771 v -13.51796 q 0,-1.93114 1.501996,-3.43314 2.145709,-1.93114 2.57485,-3.00399 0.858284,-1.93114 -0.214571,-4.29142 -0.429141,-0.64371 0.214571,-1.93113 l 0.214571,-0.21458 q 1.501996,-3.86227 3.003992,-8.7974 l 0.214571,-0.214571 q 0.214571,-0.858283 0.214571,-1.39471 0,-0.536427 -0.429142,-1.394711 -0.858283,-1.287425 -1.072854,-3.218563 0,-1.072854 0.214571,-3.218563 l 0.214571,-1.716566 q 0.214571,-1.287426 1.716567,-3.003996 1.072854,-1.07285 1.609281,-1.93113 0.536427,-0.85829 2.038423,-2.68214 1.501996,-1.82385 2.145709,-2.68214 2.360279,-3.21856 5.793413,-3.21856 2.789421,0 5.1497,-3.21856 0.858284,-1.93114 3.003992,-3.21856 2.574851,-1.07286 1.287426,-4.29142 -1.931138,-4.29142 2.145708,-7.29541 l 1.716567,-1.28743 q 3.862275,-3.00399 6.115269,-4.3987 2.252995,-1.39471 3.862276,-1.18014 1.609281,0.21457 3.75499,-0.42914 1.072854,-0.42914 3.433134,-1.502 l 1.931137,-0.85828 1.287426,-0.42914 q 2.360279,-0.64371 2.896706,-1.71657 0.536427,-1.07285 1.609282,-3.00399 1.501996,-2.57485 1.931137,-4.07685 1.501996,-4.07684 4.505988,-4.72055 1.072855,-0.21458 3.003992,-1.28743 3.003992,-1.502 5.042416,-1.502 2.038423,0 3.111277,-2.36028 1.931138,-3.21856 5.793412,-6.00798 2.14571,-1.71657 7.08084,-4.50599 1.28742,-0.64371 4.72056,-1.07285 5.1497,-0.64371 6.22255,-4.72056 0.64371,-1.502 2.89671,-3.54042 2.253,-2.03842 2.68214,-3.75499 1.502,0.64371 2.78941,3.00399 l 0.42914,1.07286 q 0.21457,0 0.21457,0.42914 V 5.1497 q 1.502,3.86228 2.14571,4.93513 0.85829,1.502 2.14571,2.36028 1.07286,0.64371 4.72056,2.14571 l 0.42914,0.21457 q 2.14571,0.64371 2.78942,1.502 1.28743,1.71656 4.07685,2.78942 7.08084,4.29141 7.93912,12.01596 0.21457,1.71657 1.39471,3.21857 1.18014,1.50199 2.89672,1.60928 1.71657,0.10728 5.1497,1.60928 2.14571,1.07285 3.43313,1.39471 1.28742,0.32186 1.18014,2.25299 -0.10728,1.93114 -2.03843,1.93114 -2.78942,0 -7.08083,1.93114 -2.57486,1.07285 -4.07686,2.78942 -1.50199,1.71657 -2.57484,4.50599 -2.14571,5.1497 -4.72055,7.93912 -3.21857,3.64771 -8.15371,4.72056 l -0.85827,0.21457 q -1.71658,0.21457 -1.93115,0.64371 -1.71657,1.07286 -3.86226,1.502 -1.502,0.21457 -3.86228,0.21457 -2.36028,0 -3.43313,0.751 -1.07286,0.751 -1.502,2.68213 l -0.21457,1.07286 q -1.07285,4.29142 -2.57485,6.00798 -0.21458,0.21457 -0.21458,1.07286 l -0.21457,0.64371 v 1.07285 q 0,1.28743 -0.75099,1.28743 -0.751,0 -0.85829,-0.32186 -0.10728,-0.32185 -0.10728,-1.07285 0,-0.751 -0.21457,-0.96557 -1.28743,-1.93114 -2.36028,-6.22256 -0.85829,-3.21856 -1.60928,-4.93513 -0.751,-1.71656 -1.60929,-2.57485 -1.07285,-1.28742 -2.78942,-1.39471 -1.71656,-0.10728 -4.50599,-2.68213 l -2.36027,-1.71657 q -1.71657,-1.71657 -3.003997,-2.14571 -2.145709,-0.64371 -3.647705,-2.36028 -1.072854,-1.07285 -2.467565,-3.54042 -1.39471,-2.46756 -3.111277,-3.86227 -1.716567,-1.39471 -4.505988,-1.39471 -0.429142,0 -1.287426,-0.64371 l -0.858283,-0.42915 q -1.931138,-1.07285 -4.076846,-0.96557 -2.145709,0.10729 -3.862276,1.39472 l -0.858283,0.85828 q -1.716567,1.50199 -1.823852,2.25299 -0.107286,0.751 0.858283,2.14571 0.965569,1.39471 0.858283,2.253 -0.107285,0.85828 -1.180139,2.36027 -1.501996,2.36028 -5.578843,5.57885 l -2.57485,2.36028 q -1.931138,1.93113 -7.080838,3.86227 l -2.574851,1.07286 q -1.072854,0.21457 -4.076846,0.21457 -1.716567,0.21457 -2.789421,1.28742 -1.072854,1.07286 -1.072854,2.78942 v 1.28743 q -0.214571,1.71657 0,2.57485 0.429141,2.78942 -0.429142,5.57884 -0.858283,1.931139 -2.57485,4.935131 l -1.287425,1.931138 q -0.858284,4.720559 -6.866268,7.50998 -4.505988,1.716567 -5.793413,6.007981 -0.643713,1.93114 -0.321856,3.96956 0.321856,2.03843 1.931137,2.78943 1.609282,0.75099 2.038424,1.82385 0.429141,1.07285 0.429141,2.78942 v 16.73653 q 0,3.6477 -2.57485,5.36427 -1.716567,1.28742 -2.252994,4.07684 -0.536427,2.78942 0.321856,4.72056 0.858284,1.93114 1.287425,1.93114 1.501996,0.42914 2.574851,1.502 0.643712,0.64371 1.609281,2.36028 0.965569,1.71656 1.609282,2.36028 l 0.21457,0.64371 q 0.429142,1.07285 1.287426,1.07285 h 0.429141 q 1.716567,0 2.36028,-0.85828 1.931137,-2.14571 5.364271,-4.50599 0.858284,-0.42914 1.501996,-2.57485 l 0.214571,-1.07285 q 0.214571,-0.42915 0.214571,-1.07286 v -0.64371 q 1.716567,-1.71657 1.609281,-3.54042 -0.107285,-1.82385 -1.501996,-3.96956 -1.39471,-2.14571 -0.107285,-4.93513 l 0.214571,-0.85828 q 0.858283,-2.36028 1.287425,-3.64771 0.858283,-1.93114 2.360279,-3.00399 1.072855,-0.85828 2.789421,-2.78942 l 1.501996,-1.502 q 1.931138,-2.36028 3.647705,-3.43313 2.36028,-1.28743 5.364272,-0.85829 1.287425,0.21458 2.57485,-0.42914 0.858283,-0.42914 2.252994,-1.71656 1.39471,-1.28743 2.252994,-1.71657 1.501996,-1.28743 1.501996,-4.07685 0,-2.14571 1.287425,-3.86227 0.858283,-1.28743 3.003992,-3.00399 6.866267,-4.505993 13.088822,-5.578847 1.716567,-0.429142 2.789422,0.214571 1.501996,0.858283 2.896706,0.643712 1.394711,-0.214571 3.325849,-1.072854 l 0.42914,-0.214571 q 0.64371,-0.429142 1.07285,-0.429142 4.72056,0.643713 6.6517,-4.076846 0.42914,-1.501996 4.07685,-1.501996 h 1.50199 q 2.78943,-0.214571 4.07685,0.429142 2.1457,1.072854 4.50598,-0.214571 l 0.42915,-0.214571 q 1.71656,-1.072854 2.78943,-0.214571 0.6437,0.214571 1.93112,-1.072854 4.93513,-5.149702 14.16168,-6.222552 1.28743,-0.21457 3.43313,-1.07286 l 0.8583,-0.21457 q 1.50198,-0.42914 2.14571,-0.42914 1.28742,-0.21457 2.25299,0.42914 0.96557,0.64371 2.25299,0.42914 0.85829,-0.21457 2.57486,-0.85828 5.79341,-1.93114 10.51397,-7.08084 1.07285,-1.50199 2.36027,-2.14571 0.64371,-0.64371 1.502,-0.21457 0.85829,0.42914 0.85829,1.28743 v 3.43313 q 0,4.50599 -0.64372,6.6517 -1.07285,3.862273 2.57485,6.222553 2.36028,1.501996 4.93512,5.1497 2.57486,3.647705 3.21857,6.437126 l 0.42915,1.502001 q 2.36028,2.78942 2.57484,6.43712 0,2.36028 -0.85829,7.08084 -0.85828,4.72056 2.14571,7.72455 1.93115,1.28743 4.50599,4.93513 2.14571,3.00399 3.64771,4.29142 z M 65.765966,53.85729 q -0.858283,-1.28743 -1.39471,-2.36028 -0.536428,-1.07286 -1.609282,-1.502 -1.072854,-0.42914 -1.931138,0.42914 l -0.858283,0.64371 q -4.076846,2.36028 -5.471557,4.39871 -1.394711,2.03842 0.536427,3.11127 3.003992,1.07286 2.57485,4.72056 v 0.42914 q -0.21457,0.85829 0.214571,1.28743 1.072855,0.42914 2.145709,-0.42914 l 0.429142,-0.42914 q 2.360279,-1.502 6.651696,-4.72056 l 1.072855,-0.64371 1.716566,-1.502 q 0.858284,-0.85828 0.643713,-2.03842 -0.214571,-1.18014 -1.716567,-1.18014 -1.072854,-0.21457 -3.003992,-0.21457 z m 6.007984,143.5479 q 0.214571,-1.07286 -1.072854,-3.21856 l -0.429142,-0.85829 q -0.429142,-1.28742 -1.501996,-2.14571 -0.643712,-0.64371 -2.145708,-1.28742 -2.145709,-0.85828 -3.003992,-1.93114 0,-0.42914 -1.072855,0.21457 -1.501996,0.64372 -2.467565,3.43314 -0.965569,2.78942 -0.107285,4.29141 l 0.214571,0.42914 q 0.858283,0.64372 1.287425,0.85829 1.931138,0.85828 6.007984,3.86227 l 0.214571,0.21457 q 1.287425,0.85829 2.360279,-0.21457 1.716567,-1.50199 1.716567,-3.6477 z M 42.806884,84.755489 q 0,-2.574849 -0.536427,-3.754989 -0.536427,-1.18014 -2.252994,-2.46757 -0.429142,-0.42914 -1.18014,-0.53642 -0.750998,-0.10729 -1.180139,0.32185 -4.291418,3.21857 -4.93513,8.368267 -0.214571,1.287425 1.18014,3.325848 1.39471,2.038423 2.682135,2.252994 2.789422,0.214571 4.291418,-2.789421 0.21457,-0.429142 0.965568,-1.394711 0.750998,-0.965569 1.072855,-1.609281 0.321856,-0.643713 -0.107286,-1.716567 z m 38.193613,21.886231 q -0.214571,0.64371 0.321856,1.50199 0.536427,0.85829 0.536427,1.28743 1.287426,4.72056 5.364272,2.57485 1.716567,-0.85829 4.93513,-2.78942 l 1.716567,-1.07286 q 0.643712,-0.42914 0.750998,-0.96557 0.107285,-0.53642 0.107285,-1.60928 0,-1.07285 -0.750998,-1.82385 -0.750998,-0.751 -2.252994,-1.60928 -1.931138,-1.28743 -3.862275,0 -3.003993,2.36028 -6.866268,4.50599 z M 31.6492,121.66168 v 0 -2.57485 q 0,-2.57485 -1.501996,-2.57485 -1.072855,0 -2.789421,-0.64372 -1.287426,-0.64371 -2.038424,-0.751 -0.750998,-0.10728 -1.609281,0.53643 -0.429142,0.21457 -0.858284,1.502 v 0.21457 q -0.858283,1.50199 0,5.04241 0.858284,3.54042 2.36028,4.61328 l 0.214571,0.21457 q 0.643712,0.21457 0.858283,0.21457 3.003992,0.64371 4.184132,-0.21457 1.18014,-0.85828 1.18014,-3.86228 z m 21.027944,36.69161 q -0.858284,0.42914 -1.287425,1.93114 l -0.214571,0.85828 q -1.287425,3.43314 -3.647705,0.42915 -0.429142,-0.42915 -0.858283,-1.71657 v -0.64371 q -0.214571,-1.07286 -1.072855,-0.85829 -0.858283,0.21457 -1.39471,0.751 -0.536427,0.53643 -0.536427,1.18014 0,3.64771 0.214571,5.36427 0.21457,1.71657 1.931137,3.86228 1.287425,1.07285 3.003992,1.28742 1.072855,0 2.789421,-0.64371 1.072855,-0.42914 1.823853,-1.39471 0.750998,-0.96557 0.536427,-2.25299 -0.214571,-1.28743 0,-3.43314 v -1.71657 q 0,-1.28742 -0.214571,-1.93113 -0.214571,-0.64372 -1.072854,-1.07286 z m -20.598803,9.01198 q 2.36028,-1.71657 3.218563,-4.50599 0.429142,-1.93114 0.214571,-5.36427 0,-0.85828 -0.643712,-1.39471 -0.643713,-0.53643 -1.501997,-0.53643 l -1.072854,-0.21457 q -1.716567,-0.21457 -2.57485,-0.42914 -2.57485,-0.85828 -3.218563,-0.42914 -0.643712,0.42914 -0.643712,3.00399 0,1.71657 0.858283,3.21856 l 1.287425,1.93114 q 2.36028,3.43313 4.076846,4.72056 z m 33.043913,-38.19361 q 0,-1.502 -1.18014,-3.32585 -1.18014,-1.82385 -2.467565,-2.03843 -1.931138,-0.42914 -2.789421,0.42915 l -1.287425,1.07285 q -2.789422,2.78942 -3.433134,4.50599 -0.214571,0.85828 -0.214571,2.78942 1.072854,2.36028 2.57485,1.07285 1.287425,-0.64371 3.433134,-0.21457 2.36028,0 3.862276,-1.18014 1.501996,-1.18014 1.501996,-3.11127 z M 120.48154,92.050898 v 0 h -1.93114 q -0.85829,0 -1.60928,0.429142 -0.751,0.429142 -0.751,1.287425 0,3.647705 -1.71657,6.007984 -0.42914,0.858281 -0.10728,1.823851 0.32185,0.96557 1.39471,1.39471 2.57485,0.64371 4.72056,-0.85828 1.502,-1.07286 2.78942,-4.291419 0.64371,-1.716566 1.07286,-2.360279 0.85828,-1.287425 0,-2.36028 -0.85829,-1.072854 -2.57485,-1.287425 -0.21458,0.214571 -1.28743,0.214571 z M 91.72904,30.03992 q -3.433134,-1.28742 -6.222555,2.14571 -0.858283,1.07285 -0.965569,2.36028 -0.107285,1.28742 0.965569,1.71657 1.716567,0.64371 1.823852,1.71656 0.107286,1.07286 -0.750998,2.57485 -0.214571,0.42914 0,1.07286 v 0.64371 q 0,0.85828 0.750998,1.18014 0.750998,0.32186 1.716567,-0.10729 0.965569,-0.42914 0.965569,-1.28742 0,-1.502 0.965569,-4.07685 0.965569,-2.57485 0.965569,-3.86227 0.429142,-2.14571 -0.214571,-4.07685 z M 41.73403,169.51098 q -1.716567,-0.64372 -3.433134,0 1.072855,1.50199 1.823853,1.50199 0.750998,0 1.609281,-1.50199 z"
     id="path4"
     inkscape:connector-curvature="0"
     style="fill:#ffffff;fill-opacity:1;stroke-width:6.70533943" />
</svg>
