<?xml version="1.0" encoding="UTF-8" standalone="no"?>
<!-- Generated by IcoMoon.io -->

<svg
   xmlns:dc="http://purl.org/dc/elements/1.1/"
   xmlns:cc="http://creativecommons.org/ns#"
   xmlns:rdf="http://www.w3.org/1999/02/22-rdf-syntax-ns#"
   xmlns:svg="http://www.w3.org/2000/svg"
   xmlns="http://www.w3.org/2000/svg"
   xmlns:sodipodi="http://sodipodi.sourceforge.net/DTD/sodipodi-0.dtd"
   xmlns:inkscape="http://www.inkscape.org/namespaces/inkscape"
   version="1.1"
   width="215"
   height="215"
   viewBox="0 0 215 215"
   id="svg6"
   sodipodi:docname="sword.svg"
   inkscape:version="0.92.3 (2405546, 2018-03-11)">
  <metadata
     id="metadata12">
    <rdf:RDF>
      <cc:Work
         rdf:about="">
        <dc:format>image/svg+xml</dc:format>
        <dc:type
           rdf:resource="http://purl.org/dc/dcmitype/StillImage" />
        <dc:title>w_sword</dc:title>
      </cc:Work>
    </rdf:RDF>
  </metadata>
  <defs
     id="defs10" />
  <sodipodi:namedview
     pagecolor="#ffffff"
     bordercolor="#666666"
     borderopacity="1"
     objecttolerance="10"
     gridtolerance="10"
     guidetolerance="10"
     inkscape:pageopacity="0"
     inkscape:pageshadow="2"
     inkscape:window-width="1920"
     inkscape:window-height="1017"
     id="namedview8"
     showgrid="false"
     fit-margin-top="0"
     fit-margin-left="0"
     fit-margin-right="0"
     fit-margin-bottom="0"
     inkscape:zoom="1.84375"
     inkscape:cx="-220.33642"
     inkscape:cy="42.369286"
     inkscape:window-x="-8"
     inkscape:window-y="-8"
     inkscape:window-maximized="1"
     inkscape:current-layer="svg6" />
  <title
     id="title2">w_sword</title>
  <path
     d="m 214.382,1.6755929 q 0,-0.42964 -0.32223,-0.85928004 -0.32223,-0.42964 -0.53705,-0.42964 -2.1482,-0.64446 -6.65942,-0.21482 l -1.28893,0.21482 q -0.21482,0 -0.64446,0.42964 -0.42964,1.71856004 -3.65194,3.86677004 l -6.44461,4.72604 q -4.72604,3.4371201 -7.08906,5.3705001 -1.0741,0.85928 -3.65194,2.36303 -3.86677,2.36302 -5.37051,3.86676 -2.57784,3.00748 -6.22978,4.2964 -0.64447,0.21482 -1.71857,0.85928 -1.0741,0.64446 -1.61115,0.75187 -0.53705,0.10741 -0.85928,0.42965 -0.32223,0.32223 -0.10741,0.75187 0.21482,1.93338 -0.64446,3.2223 -0.64446,1.0741 -2.36302,2.36302 l -3.65194,-2.36302 q -5.37051,-3.2223 -7.73353,-5.37051 -1.50374,-1.50374 -5.58533,-3.43712 l -0.64446,-0.21482 q -2.36302,-1.50374 -4.51122,-0.21482 -0.64446,0.42964 -2.25561,0.75187 -1.61115,0.32223 -2.25561,0.75187 -1.07411,0.42964 -1.71857,1.50374 -0.21482,0.21482 -1.50374,0.21482 -0.64446,0 -0.85928,0.64446 v 0.21482 q 0,0.85928 1.0741,0.85928 3.43713,0.21482 7.51871,3.00749 1.93338,1.0741 5.04827,3.75935 3.1149,2.68525 4.83346,3.75935 0.64446,0.21482 1.50374,1.0741 l 0.64446,0.42965 q 1.50374,1.0741 1.71856,2.47043 0.21482,1.39633 -1.0741,2.68525 l -0.64446,0.64446 q -1.50374,1.71856 -2.1482,1.71856 -0.64446,0 -2.79266,-1.28892 l -0.85929,-0.42964 q -0.42964,-0.42964 -0.42964,-0.64446 -1.0741,-0.64446 -2.1482,-0.64446 -1.0741,0 -1.71856,0.85928 l -32.00821,32.22303 -16.111519,16.541153 q -1.718561,1.0741 -3.222303,3.007482 -4.296404,4.081592 -12.674391,12.459572 -11.38547,11.38547 -17.185615,16.64857 -5.800145,5.26309 -15.896694,16.86338 l -2.148202,2.36302 -3.222302,3.22231 q -6.229786,6.65942 -9.022448,10.09655 l -0.21482,0.21482 q -0.859281,1.28892 -1.718562,1.93338 l -7.948347,8.37798 q -1.503741,1.28893 -4.081583,4.29641 l -8.807628,10.31137 q -1.2889216,1.28892 -3.2223033,4.51122 -2.7926624,3.86676 -4.7260441,5.80015 -2.36302211,2.36302 -2.14820192,6.22978 0.21482018,2.1482 0.21482018,6.3372 v 6.98165 q -0.21482018,1.50374 0.64446054,2.14821 h 3.6519433 q 5.1556843,-0.21482 7.5187073,0 7.518706,0.21482 13.963312,-5.37051 l 2.792662,-2.36302 q 7.733527,-6.44461 10.95583,-10.20396 3.222303,-3.75935 6.014965,-5.47792 l 0.644461,-0.42964 q 2.792662,-1.93338 3.651943,-3.2223 1.503741,-1.71856 4.940864,-4.72604 4.511224,-4.08159 6.229785,-6.65943 3.007483,-1.93338 7.948347,-7.30388 l 3.222303,-3.43713 3.222303,-3.00748 17.830076,-17.83008 q 9.666921,-10.09654 16.970801,-18.47453 3.86676,-4.94087 13.10403,-14.17813 6.65943,-6.65943 9.88173,-10.31137 3.65194,-4.296411 12.02993,-12.244757 l 2.1482,-2.148202 q 5.80015,-5.370508 10.09655,-7.948348 3.22231,-2.1482 4.94087,-4.51122 0.85928,-1.28892 3.43712,-4.29641 l 0.42964,-0.42964 q 2.36302,-2.36302 3.2223,-4.2964 1.0741,-2.57784 0.42964,-5.37051 l -0.64446,-1.93338 q -0.85928,-1.50374 0.85928,-3.00748 1.50375,-1.0741 3.00749,1.0741 l 0.42964,0.64446 q 1.50374,2.36302 2.36302,3.00748 5.58532,5.58533 7.51871,12.45957 l 0.42964,1.28893 q 1.50374,3.65194 2.79266,5.15568 2.1482,-1.71856 3.65194,-4.2964 1.0741,-1.71856 2.36302,-4.94087 1.0741,-2.36302 0.21482,-4.94086 -0.42964,-1.93338 -2.1482,-4.08159 l -1.28892,-1.71856 q -4.2964,-5.15568 -6.65943,-7.5187 -1.0741,-0.85928 -2.57784,-2.79267 l -1.93338,-2.1482 q -0.42964,-0.64446 -0.53705,-1.0741 -0.10741,-0.42964 0.32223,-1.0741 2.1482,-4.51122 7.30389,-8.80763 l 0.85928,-0.64446 q 1.50374,-1.50374 1.93338,-2.36302 1.28892,-2.1482 4.72604,-6.01497 l 2.36303,-3.00748 1.71856,-2.36302 q 3.86676,-5.3705 6.4446,-7.73353 l 0.42964,-0.42964 q 2.14821,-2.1482 3.22231,-2.79266 2.1482,-1.0741001 4.51122,-0.64446 0.85928,0.21482 1.39633,-0.3222301 0.53705,-0.53705 0.53705,-1.39633 z M 114.70543,79.655323 q 0.42964,0.64446 0.10741,1.0741 -0.32223,0.42964 -0.96669,1.0741 l -0.85928,0.64446 q -0.42964,0.644464 -1.50374,1.503744 l -0.64446,0.644461 q -0.42964,0.42964 -0.85928,0.10741 -0.42964,-0.32223 -0.53705,-0.64446 -0.10741,-0.322231 0.10741,-0.644461 0.21482,-0.32223 1.0741,-1.181514 l 3.00748,-3.43712 0.21482,0.21482 q 0.64446,0.21482 0.85928,0.64446 z m 42.74922,-22.77094 q -0.85928,3.00748 -3.32971,5.58533 -2.47043,2.57784 -6.76684,7.94834 l -2.36302,2.79267 q -1.50374,1.71856 -4.94086,4.94086 l -5.58533,5.370504 q -6.65942,6.014965 -9.45209,9.666909 -4.2964,5.370504 -8.16316,7.733534 -0.85928,0.42964 -1.50374,1.50374 l -0.85929,1.0741 q -3.2223,3.43712 -10.31136,9.98914 -7.089079,6.55201 -10.526202,10.31137 -3.437123,3.75935 -10.955829,10.41877 l -4.726044,4.08159 q -4.940865,4.08158 -7.303887,8.16317 -0.42964,0.64446 -1.503741,1.50374 l -0.644461,0.64446 q -1.074101,1.28892 -3.222303,3.11489 -2.148201,1.82597 -3.007482,2.90007 -1.503741,1.71856 -4.511224,4.72605 l -7.948347,7.94834 q -2.792662,2.79267 -8.163167,9.02245 l -4.726044,5.37051 -2.577843,3.2223 q -3.007482,3.86676 -4.940864,5.15568 -3.007482,1.93338 -4.940864,4.29641 -0.859281,1.28892 -3.222303,2.79266 l -0.859281,0.64446 -1.288921,0.64446 q -0.859281,0 -1.611151,-1.28892 -0.751871,-1.28892 -0.322231,-2.1482 0.644461,-1.50374 2.363023,-3.86677 l 0.42964,-0.64446 q 2.363022,-2.57784 4.081583,-5.80014 1.503742,-1.93338 2.363023,-2.36302 1.718561,-0.64446 2.685252,-3.00749 0.966691,-2.36302 3.329713,-4.94086 1.288921,-1.50374 4.296404,-4.2964 3.866763,-3.65195 10.741009,-11.17065 8.163167,-9.02245 12.674391,-13.10404 5.155684,-4.72604 15.037413,-14.39295 8.163167,-8.16316 12.459571,-12.02993 l 2.363022,-2.57784 q 3.222303,-3.43712 5.263095,-4.94086 2.040791,-1.50375 5.69274,-5.15569 l 1.50374,-1.71856 q 4.72605,-4.94086 6.65943,-7.303891 3.2223,-3.651943 6.44461,-6.444605 1.93338,-1.288921 4.51122,-4.726044 3.65194,-5.155687 7.94835,-7.733527 l 0.64446,-0.42964 q 0.42964,-0.64446 0.85928,-0.85928 l 2.36302,-2.36302 q 5.58532,-5.80015 8.59281,-7.94835 0.85928,-0.64446 1.93338,-2.36302 l 1.0741,-1.50374 1.50374,-1.50374 q 1.71856,-1.71857 2.79266,-2.36303 1.50374,-1.0741 4.08159,-4.08158 0.85928,-1.28892 2.04079,-1.28892 1.18151,0 2.47043,1.0741 0.64446,0.21482 0.85928,0.53705 0.21482,0.32223 0.21482,1.18151 z"
     id="path4"
     inkscape:connector-curvature="0"
     style="fill:#ffffff;fill-opacity:1;stroke-width:6.71313095" />
</svg>
