<?xml version="1.0" encoding="UTF-8" standalone="no"?>
<!-- Generator: Adobe Illustrator 23.0.4, SVG Export Plug-In  -->

<svg
   xmlns:dc="http://purl.org/dc/elements/1.1/"
   xmlns:cc="http://creativecommons.org/ns#"
   xmlns:rdf="http://www.w3.org/1999/02/22-rdf-syntax-ns#"
   xmlns:svg="http://www.w3.org/2000/svg"
   xmlns="http://www.w3.org/2000/svg"
   xmlns:sodipodi="http://sodipodi.sourceforge.net/DTD/sodipodi-0.dtd"
   xmlns:inkscape="http://www.inkscape.org/namespaces/inkscape"
   version="1.1"
   x="0px"
   y="0px"
   width="228.939"
   height="228.939"
   viewBox="0 0 228.939 228.93899"
   xml:space="preserve"
   id="svg17"
   sodipodi:docname="flesh_eater_courts.svg"
   inkscape:version="0.92.3 (2405546, 2018-03-11)"><metadata
   id="metadata21"><rdf:RDF><cc:Work
       rdf:about=""><dc:format>image/svg+xml</dc:format><dc:type
         rdf:resource="http://purl.org/dc/dcmitype/StillImage" /><dc:title /></cc:Work></rdf:RDF></metadata><sodipodi:namedview
   pagecolor="#ffffff"
   bordercolor="#666666"
   borderopacity="1"
   objecttolerance="10"
   gridtolerance="10"
   guidetolerance="10"
   inkscape:pageopacity="0"
   inkscape:pageshadow="2"
   inkscape:window-width="1920"
   inkscape:window-height="1017"
   id="namedview19"
   showgrid="false"
   inkscape:zoom="1.2405539"
   inkscape:cx="-133.40815"
   inkscape:cy="84.010002"
   inkscape:window-x="-8"
   inkscape:window-y="-8"
   inkscape:window-maximized="1"
   inkscape:current-layer="svg17" />
<defs
   id="defs2">
</defs>
<g
   id="fsydAo_2_"
   transform="translate(0.0092051,30.42629)"
   style="fill:#000000;fill-opacity:1">
    <g
   id="g14"
   style="fill:#000000;fill-opacity:1">
        <path
   d="m 228.93,97.7 c -0.31,0.54 -0.62,1.09 -0.91,1.6 -0.16,0 -0.24,0.02 -0.31,0 -0.67,-0.19 -1.34,-0.39 -2.02,-0.59 -0.12,0.64 -0.35,1.28 -0.35,1.92 0,3.64 0.2,7.28 0.05,10.91 -0.28,6.56 -2.29,12.78 -4.09,19.04 -2.12,7.38 -4.49,14.65 -7.75,21.62 -1.02,2.17 -2.22,4.15 -3.96,5.8 -2.55,2.42 -5.1,4.85 -7.66,7.26 -0.28,0.26 -0.6,0.47 -0.9,0.71 -0.11,-0.06 -0.23,-0.12 -0.34,-0.18 0.96,-3.44 1.67,-6.98 2.97,-10.29 1.29,-3.3 1.74,-6.64 1.68,-10.08 -0.11,-6.28 -1.61,-12.26 -4.27,-17.93 -0.55,-1.18 -1.32,-2.29 -2.18,-3.26 -0.44,-0.49 -1.33,-0.84 -1.99,-0.8 -1.26,0.06 -2.51,0.41 -3.75,0.7 -1.47,0.34 -2.95,0.66 -4.37,1.13 -1.06,0.35 -2.17,0.79 -3.05,1.46 -1.49,1.13 -2.84,2.45 -4.21,3.74 -0.57,0.54 -1.12,1.15 -1.54,1.81 -1.64,2.6 -3.2,5.26 -4.86,7.85 -0.47,0.73 -1.17,1.3 -1.77,1.94 -0.19,-0.05 -0.38,-0.1 -0.57,-0.16 -0.08,-0.68 -0.36,-1.43 -0.19,-2.04 0.38,-1.37 0.87,-2.75 1.52,-4.01 2.25,-4.36 4.58,-8.69 6.91,-13.01 0.59,-1.09 0.53,-2.07 -0.04,-3.17 -0.91,-1.77 -1.75,-3.59 -2.52,-5.43 -1.73,-4.09 -4.92,-6.71 -8.68,-8.78 -0.98,-0.54 -2.02,-0.96 -3.01,-1.49 -3.05,-1.63 -6,-1.32 -8.87,0.44 -1.36,0.83 -2.71,1.06 -4.19,0.27 -0.84,-0.45 -0.99,-1.02 -0.74,-1.87 0.18,-0.6 0.37,-1.25 0.33,-1.86 -0.18,-2.87 -0.33,-5.75 -0.72,-8.59 -0.31,-2.24 -0.88,-4.46 -1.47,-6.65 -0.22,-0.82 -0.7,-1.65 -1.29,-2.26 -2.04,-2.14 -2.68,-4.72 -2.75,-7.56 -0.09,-3.55 -0.32,-7.1 -0.45,-10.65 -0.05,-1.48 -0.44,-2.66 -1.79,-3.53 -1.27,-0.82 -1.66,-2.17 -1.5,-3.37 0.98,-0.25 1.76,-0.54 2.56,-0.63 0.51,-0.06 1.06,0.16 1.59,0.27 0.99,0.21 1.98,0.59 2.98,0.62 3.39,0.1 6.79,0.09 10.18,0.12 0.44,0 0.89,-0.05 1.32,0.04 2.3,0.46 3.45,-0.67 4.31,-2.69 1.29,-3.02 2.14,-6.08 2.17,-9.38 0.04,-4.4 0.22,-8.79 0.25,-13.19 0.04,-6.02 -1.08,-11.74 -4.34,-16.94 -1.29,-2.06 -2.27,-4.31 -3.42,-6.46 -0.86,-1.62 -0.81,-3.22 -0.01,-4.82 1.11,-2.23 2.78,-3.89 5.04,-4.94 1.27,-0.6 2.21,-0.25 2.65,1.07 0.23,0.71 0.25,1.49 0.31,2.24 0.19,2.68 1.41,4.14 3.96,4.85 0.71,0.2 1.4,0.59 2.01,1.01 4.25,2.91 8.35,6.06 12.74,8.73 6.57,3.99 12.24,9.01 17.24,14.74 2.9,3.32 5.22,7.16 7.62,10.88 1.77,2.75 3.23,5.7 4.88,8.53 2.56,4.39 3.91,9.26 5.56,14 3.03,8.74 5.09,17.71 5.77,26.96 0.03,0.43 0.15,0.86 0.23,1.28 0,0.99 0,2.03 0,3.07 z M 210.8,53.36 c -0.13,0.06 -0.26,0.13 -0.4,0.19 0.14,0.5 0.26,1.01 0.41,1.51 1.2,3.84 2.63,7.63 3.54,11.53 1.45,6.19 1.79,12.63 4.28,18.58 0.06,0.14 0.03,0.32 0.03,0.48 -0.02,9.88 -0.05,19.75 -0.08,29.63 0,0.35 0,0.7 0,1.06 0.34,-0.24 0.46,-0.48 0.5,-0.74 0.52,-3.31 1.02,-6.62 1.56,-9.93 0.19,-1.13 0.77,-2.25 0.72,-3.36 -0.31,-6.02 -0.52,-12.07 -1.21,-18.06 -1.15,-9.98 -4.1,-19.51 -8,-28.75 -0.32,-0.77 -0.9,-1.43 -1.35,-2.14 z M 187.11,40.53 c 0.16,0.8 0.27,1.53 0.46,2.23 0.65,2.34 1.52,4.65 1.98,7.03 1.82,9.45 2.44,19.02 2.4,28.62 -0.02,3.67 -0.33,7.35 -0.44,11.02 -0.03,0.89 0.2,1.79 0.31,2.68 1.44,-1.5 1.8,-3.23 1.79,-4.98 -0.01,-6.43 0.08,-12.87 -0.24,-19.28 -0.33,-6.66 -1.13,-13.3 -1.66,-19.95 -0.25,-3.07 -2.41,-5.03 -4.06,-7.29 -0.06,-0.06 -0.23,-0.04 -0.54,-0.08 z"
   id="path4"
   inkscape:connector-curvature="0"
   style="fill:#000000;fill-opacity:1" />
        <path
   d="m 29.73,168.02 c -2.75,-2.67 -5.4,-5.45 -8.28,-7.97 -2.64,-2.31 -4.73,-4.93 -6.21,-8.11 C 12.51,146.07 9.73,140.22 8.1,133.93 6.61,128.14 5.26,122.3 4.02,116.45 3.6,114.44 3.59,112.32 3.59,110.24 c 0,-3.39 0.16,-6.79 0.26,-10.18 C 3.89,98.62 3.64,98.41 2.26,98.81 0.75,99.25 -0.11,98.63 0,96.94 0.12,94.95 0.43,92.97 0.72,91 2.45,79.11 5.71,67.65 10.77,56.76 13.93,49.96 18.05,43.74 22.86,37.96 27.84,31.97 33.27,26.48 39.66,21.97 44.85,18.3 49.93,14.48 55.08,10.77 55.98,10.12 56.98,9.6 57.98,9.1 58.87,8.65 59.31,8 59.28,7.01 59.27,6.77 59.25,6.53 59.27,6.29 59.45,4.72 59.98,4.4 61.5,4.81 c 2.45,0.66 3.84,2.4 4.97,4.53 0.85,1.59 1.19,3.07 0.25,4.74 -1.14,2.01 -2.12,4.11 -3.31,6.09 -1.89,3.14 -3.6,6.36 -3.85,10.09 -0.35,5.14 -0.59,10.29 -0.81,15.44 -0.07,1.59 0.13,3.19 0.14,4.79 0.03,3.69 1.5,6.91 3.22,10.05 0.2,0.36 0.8,0.73 1.2,0.71 2.55,-0.09 5.09,-0.32 7.64,-0.42 1.35,-0.05 2.74,-0.11 4.04,0.16 1.71,0.36 3.23,0.38 4.63,-0.78 0.15,-0.13 0.34,-0.21 0.52,-0.3 0.07,-0.03 0.15,-0.03 0.31,-0.05 0.39,0.94 0.27,1.74 -0.56,2.4 -0.25,0.2 -0.51,0.38 -0.77,0.57 -1.6,1.19 -1.57,1.41 -0.25,2.81 0.44,0.47 0.79,1.25 0.76,1.88 -0.18,4.47 -0.45,8.94 -0.75,13.41 -0.04,0.64 -0.27,1.44 -0.7,1.85 -2.69,2.54 -3.71,5.85 -4.26,9.31 -0.49,3.11 -0.7,6.27 -0.99,9.41 -0.06,0.63 -0.02,1.29 0.12,1.9 0.15,0.69 0.41,1.39 -0.32,1.83 -0.74,0.44 -1.56,0.89 -2.46,0.33 -2.84,-1.73 -5.92,-2.03 -9.14,-1.6 -0.27,0.04 -0.56,0.08 -0.81,0.2 -3.61,1.66 -7.05,3.58 -9.78,6.55 -0.43,0.47 -0.82,1 -1.09,1.57 -1.23,2.6 -2.47,5.19 -3.55,7.85 -0.27,0.67 -0.16,1.7 0.17,2.36 1.96,3.97 4.12,7.86 6.05,11.84 0.75,1.56 1.18,3.29 1.6,4.98 0.14,0.56 -0.21,1.25 -0.34,1.88 -0.15,0.05 -0.29,0.1 -0.44,0.14 -0.45,-0.49 -1.02,-0.92 -1.34,-1.49 -1.67,-2.91 -3.24,-5.88 -4.93,-8.78 -0.33,-0.56 -1,-0.93 -1.52,-1.38 -0.83,-0.72 -1.82,-1.33 -2.48,-2.18 -1.27,-1.65 -2.84,-2.6 -4.87,-3 -1.92,-0.38 -3.79,-0.95 -5.69,-1.45 -1.99,-0.52 -3.84,0.15 -4.75,2 -3.81,7.7 -6.09,15.76 -4.8,24.42 0.6,4.01 2.23,7.73 5.04,10.8 0.15,0.17 0.39,0.41 0.36,0.58 -0.31,1.55 0.78,2.33 1.69,3.21 0.34,0.34 0.69,0.66 1.03,1.01 1.19,1.23 1.17,1.51 -0.16,2.52 -0.19,0.14 -0.37,0.3 -0.56,0.44 -0.07,-0.01 -0.15,-0.01 -0.23,-0.01 z M 18.54,54.91 c -0.63,0.58 -1.22,0.88 -1.44,1.36 -1.04,2.28 -2.19,4.53 -2.93,6.91 -2.48,7.95 -4.64,16 -6.02,24.22 -0.51,3.06 -0.7,6.2 -0.67,9.31 0.04,3.79 0.4,7.58 0.75,11.36 0.27,2.94 0.72,5.86 1.13,8.79 0.05,0.38 0.35,0.73 0.54,1.09 0.12,-0.05 0.24,-0.11 0.37,-0.16 0.02,-0.35 0.08,-0.71 0.05,-1.06 -0.17,-1.98 -0.55,-3.97 -0.52,-5.95 0.11,-7.23 0.36,-14.45 0.54,-21.68 0.02,-0.59 -0.14,-1.19 -0.09,-1.78 0.06,-0.7 0.24,-1.4 0.43,-2.09 0.09,-0.33 0.42,-0.61 0.5,-0.94 0.61,-2.44 1.35,-4.86 1.73,-7.33 0.88,-5.69 2.05,-11.31 3.84,-16.78 0.18,-0.55 0.5,-1.06 0.79,-1.57 0.59,-1.04 1.3,-2.03 1,-3.7 z m 17.03,38.41 c 0.15,0 0.3,0.01 0.44,0.01 0.1,-0.52 0.27,-1.04 0.27,-1.57 0,-3.63 -0.06,-7.26 -0.06,-10.89 0,-8 0.38,-15.97 1.76,-23.86 0.69,-3.96 1.74,-7.86 2.63,-11.78 0.09,-0.39 0.13,-0.79 0.19,-1.18 -0.14,-0.07 -0.28,-0.14 -0.41,-0.21 -1.22,1.63 -2.47,3.24 -3.64,4.91 -0.25,0.36 -0.31,0.93 -0.28,1.39 0.2,2.82 -0.24,5.56 -0.7,8.32 -0.35,2.11 -0.25,4.3 -0.42,6.44 -0.33,4.06 -0.78,8.1 -1.03,12.16 -0.15,2.54 -0.12,5.1 0,7.64 0.11,2.42 0.42,4.83 0.7,7.24 0.05,0.48 0.36,0.92 0.55,1.38 z"
   id="path6"
   inkscape:connector-curvature="0"
   style="fill:#000000;fill-opacity:1" />
        <path
   d="m 114.26,29.48 c 5.29,-1.63 9.54,1.23 14.01,3.23 4.03,1.8 6.3,5.03 7.67,9.04 1.16,3.39 2.5,6.76 3.29,10.24 0.99,4.38 1.71,8.86 2.16,13.33 0.35,3.43 0.15,6.92 0.12,10.39 0,0.52 -0.27,1.14 -0.61,1.54 -0.75,0.86 -1.1,1.64 -0.56,2.79 0.69,1.46 1.54,2.72 2.65,3.93 0.8,0.87 1.01,2.28 1.46,3.45 0.33,0.88 0.68,1.75 0.94,2.66 0.27,0.95 0.48,1.92 0.61,2.89 0.12,0.83 0.08,1.67 0.14,2.51 0.06,0.97 0.44,1.71 1.31,2.28 1.25,0.81 1.34,1.35 0.78,2.74 -0.6,1.49 -1.41,2.74 -2.99,3.41 -0.6,0.26 -1.1,0.79 -1.58,1.26 -1.51,1.46 -2.97,2.99 -4.5,4.43 -1.06,1 -1.91,1.05 -3.15,0.32 -1.82,-1.06 -2.4,-0.78 -2.92,1.21 -0.62,2.35 -1.02,4.85 -2.13,6.96 -0.92,1.74 -0.53,2.77 0.45,4.06 0.35,0.46 0.97,0.97 0.33,1.67 -0.68,0.74 -2.11,1.1 -2.72,0.48 -1.08,-1.1 -2.19,-1.39 -3.67,-0.93 -1.68,0.52 -2.94,1.47 -3.65,3.05 -1.44,3.21 -2.68,6.49 -2.89,10.05 -0.05,0.8 -1.15,1.69 -1.97,1.57 -1.05,-0.16 -1.24,-0.99 -1.03,-1.82 0.71,-2.75 -0.19,-5.39 -0.48,-8.07 -0.1,-0.93 -0.67,-1.52 -1.71,-1.47 -1.03,0.05 -1.29,0.68 -1.4,1.59 -0.36,3.19 -0.64,6.37 -0.05,9.56 0.17,0.93 -0.19,1.59 -1.07,1.88 -0.98,0.31 -1.37,-0.35 -1.62,-1.14 -0.91,-2.89 -1.81,-5.79 -2.73,-8.68 -0.51,-1.6 -1.43,-2.92 -2.72,-4.01 -0.53,-0.45 -0.95,-0.62 -1.57,-0.18 -1.38,1 -2.8,0.71 -4.18,-0.02 -1.33,-0.7 -1.78,-1.87 -1.63,-3.32 0.06,-0.64 0.05,-1.28 0.16,-1.91 0.23,-1.37 -0.01,-2.64 -0.83,-3.75 -0.49,-0.66 -0.49,-1.15 0.13,-1.76 1.2,-1.17 1.11,-1.9 -0.21,-2.92 -2.48,-1.92 -4.24,-1.67 -6.17,0.89 -1.22,1.62 -3.65,1.66 -5.03,0.16 -0.86,-0.93 -1.78,-1.82 -2.76,-2.62 -2.11,-1.71 -3.21,-3.91 -3.5,-6.59 -0.21,-1.99 -0.47,-3.97 -0.79,-5.94 -0.08,-0.48 -0.38,-0.95 -0.68,-1.36 -1.04,-1.42 -1.05,-2.43 0.09,-3.77 0.31,-0.36 0.64,-0.74 1.03,-1 1.68,-1.12 2.59,-2.74 3.32,-4.57 0.48,-1.19 0.35,-2.23 -0.14,-3.34 -0.16,-0.37 -0.27,-0.92 -0.12,-1.26 0.92,-2.12 1.86,-4.24 2.9,-6.3 0.56,-1.1 0.44,-1.97 0.01,-3.14 -0.75,-2.04 -1.13,-4.22 -1.52,-6.37 -0.67,-3.66 0.7,-6.99 1.8,-10.38 0.53,-1.65 0.74,-3.4 1.1,-5.11 0.11,-0.5 0.15,-1.03 0.36,-1.49 1.16,-2.63 2.33,-5.25 3.56,-7.85 1.28,-2.7 3.16,-4.79 5.81,-6.33 4,-2.31 8.16,-4.21 12.53,-5.65 0.41,-0.14 0.85,-0.22 1.28,-0.25 1.77,-0.11 3.53,-0.18 5.28,-0.27 z M 95.2,104.99 c 3.89,-0.28 7.74,-0.62 10.71,-3.68 1.07,-1.11 1.39,-1.68 0.59,-3 -0.43,-0.72 -1.09,-1.5 -1.82,-1.8 -3.84,-1.54 -7.68,-3.12 -11.9,-3.47 -1.6,-0.13 -3.18,-0.67 -4.73,-1.14 -0.81,-0.25 -1.4,-0.2 -1.87,0.51 -0.62,0.93 -1.28,1.83 -1.82,2.8 -0.18,0.32 -0.23,0.94 -0.04,1.22 1.31,1.99 2.55,4.07 4.11,5.85 1.73,1.97 4.09,2.87 6.77,2.71 z M 138.83,89.1 c -0.18,-0.06 -0.27,-0.12 -0.33,-0.11 -5.16,1.31 -10.6,1.63 -15.42,4.2 -0.14,0.07 -0.31,0.18 -0.44,0.16 -1.92,-0.37 -3,1.02 -4.26,2.02 -0.64,0.51 -0.69,0.96 -0.03,1.56 0.45,0.41 0.84,0.98 1.04,1.55 1.03,3.06 4.81,5.15 7.95,4.3 2.04,-0.55 4.12,-1.03 6.09,-1.77 1.19,-0.45 2.44,-1.13 3.28,-2.06 1.14,-1.25 1.98,-2.8 2.8,-4.3 0.33,-0.62 0.44,-1.49 0.32,-2.19 -0.21,-1.17 -0.67,-2.29 -1,-3.36 z m -18.62,26.87 c -0.62,-0.8 -1.36,-1.55 -1.87,-2.44 -0.51,-0.89 -0.79,-1.91 -1.17,-2.87 -0.03,-0.07 -0.07,-0.15 -0.13,-0.2 -1.24,-1 -1.38,-2.46 -1.63,-3.87 -0.19,-1.06 -0.33,-2.14 -0.61,-3.17 -0.11,-0.41 -0.64,-1.1 -0.79,-1.05 -0.55,0.17 -1.23,0.49 -1.46,0.95 -0.32,0.64 -0.35,1.47 -0.36,2.22 -0.02,1.48 -0.51,2.74 -1.18,4.06 -0.9,1.76 -1.5,3.69 -2.04,5.59 -0.36,1.25 0,1.6 1.27,1.71 1.02,0.08 1.95,0.14 2.87,0.84 0.95,0.73 6.15,-0.71 7.1,-1.77 z"
   id="path8"
   inkscape:connector-curvature="0"
   style="fill:#000000;fill-opacity:1" />
        <path
   d="m 124.23,157.14 c -0.92,-0.43 -1.43,-0.66 -1.84,-0.86 0,-3.63 0.03,-7.21 -0.02,-10.78 -0.01,-0.8 -0.33,-1.61 -0.51,-2.41 -0.04,-0.19 -0.16,-0.38 -0.16,-0.57 0.06,-3.41 -0.02,-6.84 0.28,-10.24 0.12,-1.44 0.91,-2.88 1.62,-4.2 1.01,-1.86 2,-2.04 4.5,-1.17 1.52,0.53 2.41,1.93 2.18,3.57 -0.37,2.6 -0.77,5.19 -1.17,7.79 -0.01,0.04 -0.01,0.08 -0.02,0.12 -1.6,6.21 -3.21,12.4 -4.86,18.75 z"
   id="path10"
   inkscape:connector-curvature="0"
   style="fill:#000000;fill-opacity:1" />
        <path
   d="m 104.63,132.45 c -0.2,1.58 -0.35,2.77 -0.5,3.95 -0.78,6.04 -0.5,12.11 -0.72,18.17 -0.01,0.36 0.12,0.82 -0.06,1.05 -0.33,0.43 -0.82,0.97 -1.28,1.01 -0.41,0.03 -1.13,-0.46 -1.28,-0.87 -2.85,-7.84 -3.23,-16.05 -3.41,-24.27 -0.03,-1.36 1.28,-2.64 2.93,-3.08 1.47,-0.39 2.35,-0.05 3.18,1.42 0.53,0.92 0.86,1.95 1.14,2.62 z"
   id="path12"
   inkscape:connector-curvature="0"
   style="fill:#000000;fill-opacity:1" />
    </g>
</g>
</svg>