<?xml version="1.0" encoding="UTF-8" standalone="no"?>
<!-- Generator: Adobe Illustrator 23.0.4, SVG Export Plug-In  -->

<svg
   xmlns:dc="http://purl.org/dc/elements/1.1/"
   xmlns:cc="http://creativecommons.org/ns#"
   xmlns:rdf="http://www.w3.org/1999/02/22-rdf-syntax-ns#"
   xmlns:svg="http://www.w3.org/2000/svg"
   xmlns="http://www.w3.org/2000/svg"
   xmlns:sodipodi="http://sodipodi.sourceforge.net/DTD/sodipodi-0.dtd"
   xmlns:inkscape="http://www.inkscape.org/namespaces/inkscape"
   version="1.1"
   x="0px"
   y="0px"
   width="232.68401"
   height="232.68401"
   viewBox="0 0 232.68401 232.68401"
   xml:space="preserve"
   id="svg11"
   sodipodi:docname="nighthaunt.svg"
   inkscape:version="0.92.3 (2405546, 2018-03-11)"><metadata
   id="metadata15"><rdf:RDF><cc:Work
       rdf:about=""><dc:format>image/svg+xml</dc:format><dc:type
         rdf:resource="http://purl.org/dc/dcmitype/StillImage" /><dc:title /></cc:Work></rdf:RDF></metadata><sodipodi:namedview
   pagecolor="#ffffff"
   bordercolor="#666666"
   borderopacity="1"
   objecttolerance="10"
   gridtolerance="10"
   guidetolerance="10"
   inkscape:pageopacity="0"
   inkscape:pageshadow="2"
   inkscape:window-width="1920"
   inkscape:window-height="1017"
   id="namedview13"
   showgrid="false"
   inkscape:zoom="1.0141814"
   inkscape:cx="-428.98129"
   inkscape:cy="116.35"
   inkscape:window-x="-8"
   inkscape:window-y="-8"
   inkscape:window-maximized="1"
   inkscape:current-layer="svg11" />
<defs
   id="defs2">
</defs>
<g
   id="PebTEM_2_"
   transform="translate(61.669672,1.0779819e-4)"
   style="fill:#000000;fill-opacity:1">
    <g
   id="g8"
   style="fill:#000000;fill-opacity:1">
        <path
   d="m 109.32,93.36 c 0,2.08 0,4.16 0,6.24 -0.18,0.69 -0.44,1.37 -0.51,2.07 -0.34,3.29 -0.68,6.59 -0.9,9.89 -0.1,1.5 0.17,3.03 0.05,4.53 -0.37,4.46 -0.8,8.91 -1.3,13.36 -0.41,3.69 -0.75,7.41 -1.5,11.04 -0.97,4.69 -2.26,9.31 -3.54,13.92 -0.3,1.06 -0.92,2.2 -1.74,2.91 -1.18,1.03 -1.76,2.22 -1.99,3.68 -0.14,0.95 -0.26,1.9 -0.33,2.85 -0.19,2.46 -0.69,4.82 -1.98,6.97 -0.92,1.53 -1.85,3.07 -2.76,4.6 -0.83,1.4 -1.87,1.83 -3.33,1.16 -1.98,-0.9 -3.75,-0.43 -5.42,0.71 -1.16,0.79 -2.27,1.64 -3.37,2.51 -0.36,0.29 -0.7,0.67 -0.91,1.08 -0.45,0.89 -1.13,1.23 -2.06,1.01 -1.07,-0.25 -1.24,0.21 -1.12,1.15 0.16,1.18 0.35,2.39 0.25,3.56 -0.14,1.57 -0.51,3.12 -0.84,4.66 -0.61,2.93 -1.28,5.85 -1.86,8.78 -0.11,0.55 0.05,1.15 0.08,1.73 0.19,0.04 0.39,0.09 0.58,0.13 0.3,-0.58 0.73,-1.13 0.87,-1.75 0.74,-3.35 1.62,-6.7 2.03,-10.1 0.42,-3.47 3.07,-4.77 5.26,-6.64 1.34,1.58 1.32,2.42 0.39,4 -0.72,1.22 -1.49,2.53 -1.76,3.89 -0.67,3.45 -1.15,6.93 -1.56,10.42 -0.52,4.32 -1.55,8.42 -4.43,11.82 -1.55,1.83 -3.2,3.57 -4.82,5.35 -0.74,0.81 -1.6,1.24 -2.76,1.17 -0.55,-0.03 -1.17,0.16 -1.67,0.43 -0.88,0.47 -1.67,1.1 -2.53,1.6 -1.21,0.69 -1.94,1.7 -2.4,3.01 -0.63,1.77 -1.29,3.53 -2.1,5.22 -1.15,2.39 -3.44,3.02 -5.73,1.65 -1.44,-0.86 -2.83,-1.81 -4.19,-2.79 -0.83,-0.6 -1.74,-1.23 -2.3,-2.06 -2.77,-4.05 -6.02,-7.78 -8.13,-12.28 -0.4,-0.85 -1.19,-1.51 -1.66,-2.33 -0.75,-1.29 -1.53,-2.6 -2.04,-4 -0.72,-1.97 -1.21,-4.02 -1.79,-6.04 -0.16,-0.57 -0.43,-1.16 -0.39,-1.72 0.09,-1.13 -0.36,-1.93 -1.18,-2.6 -1.17,-0.97 -2.35,-1.92 -3.5,-2.91 -2.58,-2.21 -4.09,-4.97 -4.24,-8.42 -0.11,-2.55 -1.06,-4.81 -2.57,-6.85 -0.33,-0.44 -0.78,-1 -0.73,-1.46 0.08,-0.77 0.52,-1.49 0.8,-2.24 0.52,0.26 1.1,0.44 1.54,0.79 0.65,0.52 1.17,1.21 1.83,1.73 0.52,0.41 1.12,0.78 1.75,0.96 1.04,0.3 1.67,0.88 1.87,1.94 0.48,2.51 0.99,5.01 1.42,7.52 0.23,1.35 0.86,2.07 2.25,2.22 0,-0.68 0.08,-1.37 -0.02,-2.03 -0.22,-1.46 -0.54,-2.9 -0.8,-4.36 -0.2,-1.12 0.25,-1.9 1.52,-2.52 1.09,2.44 2.13,4.8 3.2,7.15 0.26,0.57 0.6,1.1 0.9,1.66 0.12,-0.03 0.25,-0.06 0.37,-0.08 0.19,-0.51 0.39,-1.01 0.56,-1.53 0.65,-2 1.11,-4.09 1.97,-6 1.06,-2.35 0.9,-3.96 -1.06,-5.65 -1.72,-1.49 -3.5,-2.93 -5.14,-4.51 -1.22,-1.17 -2.61,-1.88 -4.17,-2.49 -2.82,-1.1 -5.84,-2.02 -8.27,-3.72 -2.39,-1.67 -4.91,-2.92 -7.46,-4.22 -0.61,-0.31 -1.22,-1.19 -1.28,-1.86 -0.08,-0.92 0.17,-2 0.64,-2.8 1.81,-3.11 3.89,-6.06 5.61,-9.21 0.96,-1.76 1.45,-3.78 2.03,-5.71 0.29,-0.98 -0.14,-1.77 -1.33,-2.21 -0.86,2.77 -2.13,5.23 -4.65,6.99 -0.24,-1.24 -0.48,-2.49 -0.25,-3.64 0.93,-4.69 0.87,-9.09 -1.75,-13.41 -1.44,-2.37 -2.11,-5.23 -2.93,-7.93 -0.78,-2.56 -1.61,-5.09 -3.56,-6.96 -4.39,-4.22 -5.72,-9.63 -6.34,-15.38 -0.59,-5.46 1.17,-10.43 3.31,-15.28 0.76,-1.72 1.88,-3.35 3.1,-4.8 1.85,-2.2 3.82,-4.33 5.95,-6.26 2.53,-2.3 2.1,-4.39 0.78,-6.61 -0.76,-1.27 -1.65,-2.46 -2.4,-3.73 -2.12,-3.64 -1.72,-6.48 1.32,-9.35 1.48,-1.4 2.57,-3.01 3.25,-4.96 0.4,-1.15 0.96,-2.33 1.73,-3.26 1.65,-1.99 1.74,-3.99 0.64,-6.23 -1.23,-2.49 -1.08,-5.11 -0.49,-7.74 0.17,-0.75 0.56,-1.22 1.41,-1.15 0.78,0.06 1.21,0.45 1.39,1.23 0.64,2.84 1.32,5.66 1.97,8.49 0.4,1.76 0.29,3.43 -0.46,5.14 -0.77,1.74 -1.43,3.56 -1.82,5.42 -0.57,2.74 -1.17,5.37 -3.27,7.44 -0.42,0.41 -0.65,1.41 -0.46,1.96 0.65,1.9 1.52,3.85 3.3,4.86 1.72,0.98 3,2.34 4.4,3.63 0.89,0.82 1.43,0.72 1.87,-0.39 1.17,-2.96 3.12,-5.27 5.68,-7.12 2.63,-1.9 3.04,-3.73 1.52,-6.61 -1.03,-1.94 -2.1,-3.86 -3,-5.86 -1.72,-3.82 -1.66,-7.42 1.49,-10.61 1.2,-1.22 1.78,-2.73 2.05,-4.48 0.37,-2.43 1.12,-4.81 1.7,-7.21 0.27,-1.08 0.62,-2.15 0.81,-3.25 0.99,-5.99 1.93,-11.99 2.9,-17.98 0.11,-0.69 0.15,-1.52 1.14,-1.57 0.93,-0.05 1.55,0.43 1.71,1.33 0.29,1.67 0.72,3.36 0.73,5.04 0.03,5.11 0.36,10.27 -0.98,15.27 -0.92,3.44 -1.03,6.84 -0.27,10.31 0.55,2.51 0.66,4.97 -0.89,7.27 -0.26,0.39 -0.11,1.23 0.12,1.75 0.42,0.94 1.02,1.81 1.57,2.69 2.58,4.13 2.97,8.69 2.64,13.4 -0.05,0.65 -0.01,1.31 -0.01,1.96 0.13,0.07 0.26,0.14 0.39,0.21 0.47,-0.29 1.01,-0.5 1.39,-0.88 1.9,-1.87 3.27,-1.85 5.02,0.11 0.32,0.36 0.6,0.77 0.99,1.04 0.51,0.35 1.1,0.81 1.66,0.82 2.86,0.01 4.91,1.43 6.63,3.54 2.02,2.48 3.44,5.19 3.44,8.48 0,1.23 0.58,1.76 1.88,1.97 1.06,0.17 2.11,0.86 3.01,1.52 0.84,0.62 1.49,1.5 2.38,2.43 0,-0.99 0.11,-1.78 -0.02,-2.53 -0.35,-1.96 -0.65,-3.96 -1.26,-5.85 -1.43,-4.43 -0.98,-8.68 0.98,-12.81 0.23,-0.49 0.83,-1.03 1.34,-1.13 1.7,-0.33 2.13,-0.55 2.38,-2.29 0.27,-1.85 0.41,-3.73 0.52,-5.6 0.08,-1.35 0.44,-2.53 1.63,-3.29 0.87,-0.55 1.78,-0.32 2.03,0.63 0.9,3.41 2.44,6.74 1.38,10.42 -0.05,0.19 -0.03,0.4 -0.02,0.6 0.13,2.54 0.26,5.08 0.4,7.62 0.26,4.99 0.52,9.98 0.77,14.96 0.02,0.36 -0.01,0.72 -0.06,1.07 -0.19,1.57 -0.4,3.14 -0.6,4.71 -0.15,1.18 -0.2,2.39 -0.45,3.55 -0.37,1.71 -0.92,3.39 -1.34,5.1 -0.75,3.04 -0.37,5.83 1.87,8.21 0.72,0.77 1.11,0.77 1.63,-0.1 0.98,-1.65 1.98,-3.28 2.92,-4.96 0.24,-0.43 0.46,-0.99 0.41,-1.47 -0.29,-2.86 -0.43,-5.76 -1.06,-8.55 -0.73,-3.24 -0.57,-6.27 0.52,-9.4 0.82,-2.34 1.27,-4.82 1.71,-7.27 0.41,-2.31 0.54,-4.67 0.88,-6.99 0.25,-1.65 1,-3.3 0.92,-4.91 -0.18,-3.42 -0.73,-6.83 -1.21,-10.23 -0.23,-1.65 -1.25,-2.85 -2.71,-3.6 -2.08,-1.05 -3.41,-2.74 -3.83,-4.94 -0.49,-2.54 -0.82,-5.13 -0.88,-7.71 -0.07,-2.91 0.86,-5.63 2.91,-7.79 1.52,-1.6 1.97,-3.44 1.64,-5.52 -0.27,-1.69 -0.59,-3.39 -1.02,-5.04 -0.82,-3.12 -1.36,-6.25 -0.8,-9.48 0.14,-0.82 0.39,-1.52 1.34,-1.56 0.9,-0.04 1.35,0.51 1.55,1.36 0.44,1.82 0.86,3.66 1.4,5.45 1.38,4.63 2.83,9.24 4.23,13.86 0.54,1.78 0.48,3.53 -0.25,5.28 -0.27,0.64 -0.31,1.4 -0.34,2.11 -0.15,3.7 0.47,7.43 -0.37,11.11 -0.07,0.3 -0.05,0.66 0.04,0.95 0.55,1.7 1.17,3.38 1.71,5.08 0.54,1.7 1.51,3.43 1.44,5.12 -0.17,4.01 -0.59,8.05 -1.38,11.99 -0.71,3.59 -0.68,6.92 0.79,10.3 0.81,1.85 1.29,3.84 1.84,5.8 0.3,1.07 0.33,2.22 0.66,3.28 0.71,2.3 0.87,4.63 0.68,7 -0.32,4 -0.33,4.01 2.95,6.25 0.46,0.31 0.97,0.55 1.65,0.94 0.34,-3.5 0.27,-6.62 -0.98,-9.61 -1.02,-2.46 -1.5,-5.04 -0.83,-7.62 0.61,-2.34 1.55,-4.6 2.42,-6.87 0.72,-1.87 1.11,-3.68 1.03,-5.78 -0.14,-3.69 1.17,-4.8 4.4,-3.63 0.15,0.05 0.3,0.11 0.46,0.13 0.93,0.1 1.33,0.57 1.23,1.52 -0.06,0.55 0,1.12 0.05,1.68 0.36,3.73 0.35,7.42 -0.76,11.05 -0.15,0.49 -0.16,1.02 -0.26,1.53 -0.59,3 0.83,5.56 1.68,8.24 z M 24.54,77.53 c -0.45,0.41 -0.83,0.7 -1.15,1.04 -2.96,3.14 -5.92,6.28 -8.86,9.44 -2.74,2.95 -4.17,6.62 -4.04,10.47 0.14,4.36 0.88,8.76 1.89,13.02 1.44,6.09 3.65,11.99 4.5,18.23 0.06,0.46 0.31,0.89 0.47,1.34 0.16,-0.02 0.32,-0.05 0.49,-0.07 0,-1.89 0.09,-3.79 -0.02,-5.67 -0.12,-1.95 -0.55,-3.88 -0.63,-5.83 -0.13,-2.92 -0.55,-5.7 -2.37,-8.14 -1.04,-1.38 -1.08,-2.97 -0.46,-4.56 0.3,-0.78 0.72,-1.53 0.91,-2.34 0.17,-0.71 0.27,-1.52 0.09,-2.21 -0.59,-2.27 -0.04,-4.11 2.03,-5.34 1.49,-0.89 3.13,-1.52 4.8,-2.31 0.2,2.04 -0.24,3.68 -1.93,4.81 -0.75,0.5 -0.93,0.99 -0.48,1.9 0.34,0.68 0.39,1.6 0.28,2.37 -0.19,1.25 -0.66,2.46 -0.93,3.71 -0.14,0.65 0.11,1.34 0.86,1.27 0.45,-0.04 1.09,-0.53 1.23,-0.96 1.01,-3.02 1.88,-6.08 2.86,-9.11 0.62,-1.92 1.66,-3.6 3.05,-5.1 0.49,-0.53 0.82,-1.56 0.68,-2.26 C 26.99,87.04 26.02,82.88 25.09,78.72 24.97,78.34 24.75,78 24.54,77.53 Z m 49.2,90.13 c 1.43,0 2.45,-0.54 3.78,-1.69 1.87,-1.62 3.65,-3.4 5.74,-4.69 3.5,-2.16 5.31,-5.54 7.14,-8.94 0.16,-0.3 -0.17,-1.24 -0.43,-1.32 -1.72,-0.47 -3.52,-1.22 -5.23,-1.07 -3.61,0.32 -7.2,1.02 -10.2,3.37 -0.81,0.64 -1.78,1.08 -2.59,1.72 -0.47,0.37 -0.91,0.9 -1.11,1.44 -0.75,2.02 -1.89,3.77 -3.39,5.31 -0.5,0.51 -1.06,0.98 -1.51,1.54 -0.94,1.19 -0.71,1.87 0.74,2.33 1.98,0.62 3.96,1.21 5.95,1.8 0.42,0.12 0.87,0.16 1.11,0.2 z m -32.13,-1.53 c 0.02,0.1 0.04,0.2 0.07,0.29 2.27,-0.59 4.54,-1.16 6.8,-1.76 1.48,-0.4 1.61,-0.79 0.5,-1.86 -1.78,-1.71 -3.8,-3.21 -5.41,-5.06 -1.54,-1.77 -3.38,-2.62 -5.53,-3.3 -1.47,-0.47 -2.81,-1.41 -4.15,-2.25 -1.08,-0.68 -2.02,-1.57 -3.09,-2.26 -1.09,-0.71 -1.58,-0.44 -1.78,0.83 -0.2,1.3 -0.49,2.59 -0.61,3.9 -0.25,2.89 0.55,5.5 2.65,7.51 2.92,2.8 6.49,4.08 10.55,3.96 z m 19.84,10.54 c 0.19,-0.06 0.37,-0.11 0.56,-0.17 -0.87,-2.22 -1.72,-4.45 -2.66,-6.64 -0.09,-0.21 -1.04,-0.37 -1.17,-0.2 -0.95,1.15 -2.18,2.27 -2.57,3.62 -0.82,2.78 -1.22,5.69 -1.69,8.56 -0.39,2.37 1.03,4.92 3.16,5.96 1.27,0.62 1.59,0.44 2.17,-0.85 0.27,-0.61 0.71,-1.36 1.26,-1.58 2.01,-0.83 2.65,-1.98 2.07,-4.08 -0.43,-1.53 -0.76,-3.08 -1.13,-4.62 z m -7.14,47.25 c 0.17,-0.66 0.31,-1.02 0.36,-1.4 0.31,-2.26 0.62,-4.51 0.9,-6.77 0.11,-0.87 0.4,-1.84 0.14,-2.6 -0.86,-2.51 -0.13,-4.67 0.94,-6.9 0.5,-1.03 0.75,-2.27 0.78,-3.42 0.06,-3.07 -0.04,-6.15 -0.13,-9.22 -0.01,-0.45 -0.26,-1.11 -0.59,-1.26 -0.36,-0.16 -1.02,0.05 -1.39,0.31 -0.83,0.6 -1.04,1.5 -1.03,2.54 0.01,1.22 0.19,2.65 -0.37,3.61 -1.17,2 -1.65,4.02 -1.48,6.27 0.33,4.26 0.67,8.52 0.99,12.79 0.04,0.55 0.17,1.22 -0.07,1.65 -0.9,1.64 0.01,2.82 0.95,4.4 z m 14.93,-30.36 c -0.14,-0.08 -0.29,-0.16 -0.43,-0.24 -0.73,0.85 -1.53,1.66 -2.17,2.58 -0.72,1.04 -1.42,1.8 -2.83,1.15 -0.58,-0.26 -0.85,0.08 -0.7,0.77 0.4,1.9 0.77,3.8 1.09,5.71 0.29,1.73 -0.13,3.33 -1.14,4.77 -1.31,1.87 -2.02,3.97 -2.42,6.19 -0.15,0.83 -0.2,1.68 -0.3,2.52 0.13,0.07 0.26,0.15 0.39,0.22 0.57,-0.63 1.11,-1.3 1.72,-1.9 0.7,-0.69 1.37,-1.54 2.22,-1.94 1.88,-0.89 2.74,-2.27 2.89,-4.3 0.27,-3.66 0.6,-7.31 0.97,-10.97 0.17,-1.52 0.47,-3.03 0.71,-4.56 z m -24.55,-4.83 c -0.17,0.46 -0.31,0.7 -0.34,0.95 -0.33,3.21 -0.68,6.41 -0.92,9.62 -0.04,0.58 0.25,1.28 0.6,1.77 1.91,2.68 3.61,5.45 4.66,8.6 0.11,0.34 0.43,0.61 0.66,0.91 0.22,-0.78 0.15,-1.4 0.1,-2.03 -0.28,-3.06 -0.69,-6.11 -0.81,-9.17 -0.11,-2.8 -0.27,-5.49 -2.24,-7.73 -0.44,-0.5 -0.65,-1.18 -0.99,-1.77 -0.18,-0.34 -0.4,-0.65 -0.72,-1.15 z m 0.77,-44.86 c 0.15,-0.11 0.3,-0.22 0.44,-0.34 -0.14,-0.39 -0.2,-0.83 -0.42,-1.16 -1.43,-2.15 -2.89,-4.28 -4.35,-6.41 -1.5,-2.2 -3.01,-4.39 -4.5,-6.6 -0.42,-0.63 -0.79,-1.3 -1.18,-1.96 -0.15,0.03 -0.29,0.06 -0.44,0.08 -0.21,1.3 -0.62,2.62 -0.57,3.91 0.05,1.28 0.56,2.54 0.92,3.8 0.1,0.34 0.33,0.68 0.59,0.92 0.73,0.67 1.51,1.29 2.28,1.91 2.42,1.96 4.83,3.9 7.23,5.85 z m 21.74,41.84 c 1.68,-1.12 2.25,-2.54 1.6,-3.82 -0.52,1.26 -1.02,2.44 -1.6,3.82 z M 62.96,166.3 c 0.38,0.81 0.68,1.46 1.05,2.25 0.65,-1.47 0.56,-1.66 -1.05,-2.25 z"
   id="path4"
   inkscape:connector-curvature="0"
   style="fill:#000000;fill-opacity:1" />
        <path
   d="m 59.64,0 c 1.41,1.02 1.74,2.64 1.83,4.14 0.25,4.18 0.33,8.38 0.32,12.56 0,1.29 -0.58,2.56 -0.79,3.86 -0.2,1.21 -0.5,2.47 -0.34,3.66 0.72,5.6 1.8,11.13 4.57,16.15 0.42,0.76 0.87,1.63 1.56,2.09 4.47,2.97 3.84,11.84 -0.37,15.37 -3.25,2.72 -6.98,2.85 -10.59,0.61 -1.8,-1.12 -2.22,-2.65 -2.64,-4.4 -0.41,-1.74 -0.02,-3.32 0.89,-4.81 1.45,-2.39 1.27,-2.93 -0.43,-5.2 -2.12,-2.85 -4.06,-5.83 -5.98,-8.82 -0.95,-1.48 -1.21,-3.21 -1.06,-4.96 0.34,-3.95 1.71,-7.42 4.63,-10.24 1.4,-1.36 2.72,-2.83 3.88,-4.4 0.61,-0.82 0.96,-1.91 1.14,-2.94 C 56.91,9.14 57.39,5.58 58.04,2.04 58.17,1.32 58.78,0.69 59.17,0.01 59.32,0 59.48,0 59.64,0 Z"
   id="path6"
   inkscape:connector-curvature="0"
   style="fill:#000000;fill-opacity:1" />
    </g>
</g>
</svg>