<?xml version="1.0" encoding="UTF-8" standalone="no"?>
<!-- Generator: Adobe Illustrator 24.1.0, SVG Export Plug-In  -->

<svg
   xmlns:dc="http://purl.org/dc/elements/1.1/"
   xmlns:cc="http://creativecommons.org/ns#"
   xmlns:rdf="http://www.w3.org/1999/02/22-rdf-syntax-ns#"
   xmlns:svg="http://www.w3.org/2000/svg"
   xmlns="http://www.w3.org/2000/svg"
   xmlns:sodipodi="http://sodipodi.sourceforge.net/DTD/sodipodi-0.dtd"
   xmlns:inkscape="http://www.inkscape.org/namespaces/inkscape"
   version="1.1"
   x="0px"
   y="0px"
   width="244.774"
   height="244.774"
   viewBox="0 0 244.774 244.774"
   xml:space="preserve"
   id="svg12"
   sodipodi:docname="restless_dead.svg"
   inkscape:version="0.92.3 (2405546, 2018-03-11)"><metadata
   id="metadata16"><rdf:RDF><cc:Work
       rdf:about=""><dc:format>image/svg+xml</dc:format><dc:type
         rdf:resource="http://purl.org/dc/dcmitype/StillImage" /><dc:title></dc:title></cc:Work></rdf:RDF></metadata><sodipodi:namedview
   pagecolor="#ffffff"
   bordercolor="#666666"
   borderopacity="1"
   objecttolerance="10"
   gridtolerance="10"
   guidetolerance="10"
   inkscape:pageopacity="0"
   inkscape:pageshadow="2"
   inkscape:window-width="1920"
   inkscape:window-height="1017"
   id="namedview14"
   showgrid="false"
   inkscape:zoom="0.96413106"
   inkscape:cx="109.22518"
   inkscape:cy="150.96758"
   inkscape:window-x="-8"
   inkscape:window-y="-8"
   inkscape:window-maximized="1"
   inkscape:current-layer="svg12" />
<defs
   id="defs2">

	

		
		
	</defs>

<path
   style="fill:#000000;fill-opacity:1"
   d="M 118.63867 0.00390625 C 116.09867 -0.06609375 113.50898 0.7539063 110.95898 1.2539062 C 109.44898 1.5539062 107.99828 2.1038281 106.48828 2.4238281 C 99.778279 3.8338281 92.967656 4.9235938 86.347656 6.6835938 C 79.717656 8.4435937 73.177344 10.623984 66.777344 13.083984 C 61.307344 15.183984 56.71875 18.743984 53.21875 23.583984 C 50.90875 26.773984 48.337422 29.764141 46.107422 32.994141 C 43.347422 36.994141 40.578047 41.033437 38.248047 45.273438 C 36.698047 48.073438 35.837578 51.273984 34.767578 54.333984 C 33.207578 58.773984 31.627578 63.214844 30.267578 67.714844 C 28.387578 73.944844 28.008516 80.454453 28.728516 86.814453 C 29.528516 93.854453 31.368516 100.76437 32.728516 107.73438 C 32.858516 108.41437 32.957188 109.13469 32.867188 109.80469 C 32.197187 114.83469 31.138359 119.59492 27.068359 123.29492 C 23.208359 126.80492 23.167734 132.32391 26.177734 136.50391 C 27.067734 137.74391 27.457422 139.50445 27.607422 141.06445 C 28.067422 145.84445 28.277188 150.65336 28.617188 155.44336 C 29.087187 162.03336 30.397188 168.40469 34.867188 173.55469 C 37.177188 176.22469 39.948281 178.50438 42.488281 180.98438 C 44.058281 182.52437 45.437734 184.29328 47.177734 185.61328 C 51.077734 188.58328 53.717266 187.19359 56.447266 185.18359 C 57.927266 184.08359 59.188125 182.68336 60.578125 181.44336 C 63.378125 178.95336 64.788906 179.09375 67.128906 181.84375 C 68.378906 183.31375 69.77875 184.67484 71.21875 185.96484 C 72.92875 187.49484 73.897891 189.23477 73.837891 191.63477 C 73.807891 192.89477 74.047266 194.36406 74.697266 195.41406 C 76.817266 198.80406 76.9475 202.43359 76.4375 206.18359 C 75.8475 210.50359 75.608516 214.68344 76.978516 219.02344 C 77.808516 221.65344 77.218984 224.71445 77.458984 227.56445 C 77.528984 228.44445 78.248906 229.98461 78.628906 229.97461 C 79.878906 229.92461 81.138594 229.415 82.308594 228.875 C 83.308594 228.415 84.437344 227.00438 85.027344 227.23438 C 85.967344 227.59438 86.647734 228.91313 87.177734 229.95312 C 88.227734 232.01312 89.187578 234.1232 90.017578 236.2832 C 90.817578 238.3632 92.778984 238.61391 94.208984 238.25391 C 95.198984 238.00391 96.1275 236.1743 96.4375 234.9043 C 96.8075 233.3643 96.337344 231.64492 96.527344 230.04492 C 96.627344 229.16492 97.358828 228.36344 97.798828 227.52344 C 98.448828 228.00344 99.178281 228.41438 99.738281 228.98438 C 102.05828 231.35438 103.04844 234.28492 103.39844 237.54492 C 103.69844 240.38492 105.66781 242.07438 108.50781 242.23438 C 109.35781 242.28437 110.21836 242.23391 111.06836 242.25391 C 114.96836 242.36391 115.57719 242.17367 116.86719 238.51367 C 117.80719 235.84367 118.27805 232.99359 118.74805 230.18359 C 119.03805 228.43359 119.16781 226.61492 121.25781 226.29492 C 123.09781 226.01492 124.59898 227.67436 124.95898 229.98438 C 125.36898 232.58438 126.03836 235.1832 126.06836 237.7832 C 126.10836 241.1632 126.62875 243.93344 130.46875 244.77344 L 130.9375 244.77344 C 131.6775 244.59344 132.51891 244.56336 133.12891 244.19336 C 134.53891 243.35336 136.42789 242.64352 137.08789 241.35352 C 138.86789 237.88352 140.16883 234.14461 141.54883 230.47461 C 141.91883 229.47461 141.94813 228.34344 142.07812 227.27344 C 142.23812 225.88344 142.26836 224.31375 144.06836 224.09375 C 146.15836 223.83375 147.66742 225.09328 147.60742 227.36328 C 147.52742 230.43328 146.92773 233.48469 146.67773 236.55469 C 146.60773 237.51469 146.76891 239.24398 147.12891 239.33398 C 148.44891 239.65398 150.31898 239.9732 151.20898 239.2832 C 154.05898 237.0932 155.86766 234.14492 155.59766 230.29492 C 155.51766 229.22492 155.50828 228.09469 155.73828 227.05469 C 155.93828 226.16469 156.5875 224.6243 156.9375 224.6543 C 157.9975 224.7343 159.02883 225.42406 160.04883 225.91406 C 160.21883 226.00406 160.28844 226.29391 160.39844 226.50391 C 161.18844 228.00391 161.36852 230.23469 163.72852 230.05469 C 165.67852 229.91469 168.73789 226.37344 168.83789 224.27344 C 169.00789 220.78344 169.11711 217.29445 169.03711 213.81445 C 168.89711 208.06445 171.1982 202.91453 172.9082 197.64453 C 174.2882 193.40453 176.28758 189.35477 177.76758 185.13477 C 179.20758 181.05477 182.10883 180.07344 185.54883 182.77344 C 188.13883 184.81344 190.95859 185.25484 193.05859 183.71484 C 194.60859 182.58484 195.98797 181.2043 197.41797 179.9043 C 201.23797 176.4343 205.02867 172.92391 208.88867 169.50391 C 209.48867 168.97391 210.40875 168.73391 211.21875 168.50391 C 216.24875 167.11391 218.46797 163.3043 219.66797 158.6543 C 219.93797 157.6043 219.95805 156.49312 220.24805 155.45312 C 221.15805 152.19312 220.91883 149.21445 218.54883 146.56445 C 218.00883 145.95445 217.67898 145.08344 217.45898 144.27344 C 215.24898 136.06344 212.62742 127.95336 213.60742 119.19336 C 214.35742 112.52336 213.21711 105.77445 214.28711 99.064453 C 215.82711 89.464453 214.70711 79.843436 212.53711 70.523438 C 210.97711 63.813437 207.83773 57.465078 205.42773 50.955078 C 204.94773 49.655078 204.56797 48.304609 204.16797 46.974609 C 202.92797 42.824609 202.21789 38.413984 200.33789 34.583984 C 198.25789 30.343984 195.36742 26.414375 192.35742 22.734375 C 187.95742 17.344375 181.85766 14.284609 175.59766 11.474609 C 170.18766 9.0446098 165.02789 6.0435936 159.58789 3.6835938 C 156.78789 2.4735938 153.66867 1.6335936 150.63867 1.4335938 C 139.98867 0.7435937 129.30867 0.30390625 118.63867 0.00390625 z M 74.238281 26.933594 C 74.971162 26.929298 75.738091 27.261529 76.527344 28.050781 C 80.611914 32.135352 75.037686 31.105535 89.728516 43.451172 C 95.841551 48.588343 104.81523 55.292486 115.14453 62.486328 C 112.74118 64.109741 110.33734 65.732065 107.89453 67.363281 C 98.174008 60.676739 89.919258 54.889825 87.162109 52.619141 C 79.620069 46.407799 74.586537 43.85115 72.310547 46.019531 C 70.034567 48.187911 66.016116 51.152615 63.691406 49.869141 C 61.366696 48.585667 55.061159 46.514636 56.724609 41.984375 C 58.388059 37.454114 65.739941 38.857952 66.925781 37.541016 C 67.297048 36.798481 70.280727 26.95679 74.238281 26.933594 z M 165.47266 26.933594 C 169.43021 26.95679 172.41389 36.798481 172.78516 37.541016 C 173.971 38.857952 181.32288 37.454114 182.98633 41.984375 C 184.64978 46.514636 178.34424 48.585667 176.01953 49.869141 C 173.69482 51.152615 169.67832 48.187911 167.40234 46.019531 C 165.12635 43.85115 160.09282 46.407799 152.55078 52.619141 C 145.00874 58.830483 96.671883 91.131388 88.193359 97.173828 C 79.714835 103.21626 75.972628 103.16092 73.341797 111.66016 C 72.153298 117.60266 64.813467 116.333 60.140625 111.66016 C 57.723524 109.24306 63.969907 102.81872 62.523438 99.925781 C 61.710777 98.300461 56.049068 98.740746 56.472656 95.890625 C 57.141035 91.393422 72.368983 95.492168 77.007812 92.773438 C 104.2053 77.144039 135.29159 55.796809 149.98242 43.451172 C 164.67325 31.105535 159.09902 32.135352 163.18359 28.050781 C 163.97285 27.261529 164.73978 26.929298 165.47266 26.933594 z M 132.02148 73.869141 C 142.0998 80.455777 152.66441 87.004555 162.70312 92.773438 C 167.34195 95.492168 182.56991 91.393422 183.23828 95.890625 C 183.66187 98.740746 178.00016 98.300461 177.1875 99.925781 C 175.74103 102.81872 181.98937 109.24306 179.57227 111.66016 C 174.89942 116.333 167.55764 117.60266 166.36914 111.66016 C 163.73831 103.16092 159.9961 103.21626 151.51758 97.173828 C 147.88753 94.586783 136.63745 86.968757 124.72461 78.863281 C 127.19894 77.175702 129.56111 75.550229 132.02148 73.869141 z M 54.84375 125.65039 C 55.361719 125.62398 55.870391 125.70859 56.337891 125.93359 C 62.107891 128.70359 68.428984 128.95336 74.458984 130.44336 C 81.368984 132.14336 87.957187 135.20328 94.617188 137.86328 C 97.447187 138.99328 100.30734 140.31422 102.77734 142.07422 C 107.79734 145.66422 107.93836 150.59391 103.31836 154.50391 C 101.44836 156.09391 99.367344 157.45414 97.277344 158.74414 C 94.507344 160.45414 91.668984 161.91453 88.208984 161.89453 C 84.968984 161.87453 81.718281 162.24367 77.488281 162.51367 C 75.838281 162.42367 73.187656 162.45375 70.597656 162.09375 C 64.817656 161.30375 60.417812 158.11383 56.507812 153.92383 C 52.377812 149.50383 49.588984 144.325 47.208984 138.875 C 46.028984 136.175 46.428047 133.61352 48.498047 131.35352 C 49.368047 130.39352 50.098828 129.28383 50.798828 128.17383 C 51.653828 126.81633 53.289844 125.72961 54.84375 125.65039 z M 194.06836 126.11328 C 196.19648 126.23938 197.06586 127.4582 197.56836 130.5332 C 198.00836 133.2432 198.22719 136.03344 198.11719 138.77344 C 197.96719 142.56344 194.65734 144.6732 192.77734 147.5332 C 191.22734 149.8932 189.55719 152.37469 187.36719 154.05469 C 184.98719 155.87469 182.0582 157.22375 179.1582 158.09375 C 174.2082 159.58375 169.10859 160.55383 164.05859 161.67383 C 162.78859 161.95383 161.45844 161.96375 160.14844 162.09375 C 152.72844 161.21375 146.89828 157.8343 142.98828 151.4043 C 142.55828 150.6943 142.54875 149.75438 142.21875 148.98438 C 141.62875 147.60437 141.13805 146.11336 140.24805 144.94336 C 138.61805 142.80336 139.03883 140.86477 141.04883 139.13477 C 144.21883 136.40477 147.72789 135.30469 151.83789 135.05469 C 153.70789 134.93469 155.45719 133.36383 157.36719 132.92383 C 163.45719 131.51383 169.58852 130.25445 175.72852 129.06445 C 180.95852 128.05445 186.22828 127.21422 191.48828 126.32422 C 192.51078 126.15172 193.35898 126.07125 194.06836 126.11328 z M 125.41797 159.49023 C 125.62553 159.4882 125.84336 159.49617 126.06836 159.51367 C 127.89836 159.64367 128.45891 160.72438 128.62891 162.23438 C 128.94891 165.00437 129.5275 167.79469 129.4375 170.55469 C 129.2875 175.08469 131.38742 178.70312 133.35742 182.45312 C 133.92742 183.53312 134.57836 184.65398 134.81836 185.83398 C 135.44836 188.92398 136.73711 191.65414 138.53711 194.24414 C 140.18711 196.62414 139.75773 198.46336 136.92773 199.44336 C 133.37773 200.67336 129.61781 201.31422 126.50781 202.07422 C 124.84781 201.78422 123.84867 201.70336 122.88867 201.44336 C 119.81867 200.55336 117.19859 198.59344 113.80859 198.27344 C 111.30859 198.04344 110.10773 195.99359 110.92773 193.68359 C 112.72773 188.60359 114.55797 183.44367 117.16797 178.76367 C 119.01797 175.44367 120.39836 172.15461 121.06836 168.47461 C 121.48836 166.19461 122.05813 163.94359 122.57812 161.68359 C 122.95439 160.03859 123.96506 159.50445 125.41797 159.49023 z "
   id="path4" /></svg>