<?xml version="1.0" encoding="UTF-8" standalone="no"?>
<!-- Generator: Adobe Illustrator 23.0.4, SVG Export Plug-In  -->

<svg
   xmlns:dc="http://purl.org/dc/elements/1.1/"
   xmlns:cc="http://creativecommons.org/ns#"
   xmlns:rdf="http://www.w3.org/1999/02/22-rdf-syntax-ns#"
   xmlns:svg="http://www.w3.org/2000/svg"
   xmlns="http://www.w3.org/2000/svg"
   xmlns:sodipodi="http://sodipodi.sourceforge.net/DTD/sodipodi-0.dtd"
   xmlns:inkscape="http://www.inkscape.org/namespaces/inkscape"
   version="1.1"
   x="0px"
   y="0px"
   width="229.429"
   height="229.429"
   viewBox="0 0 229.429 229.429"
   xml:space="preserve"
   id="svg15"
   sodipodi:docname="berzerker.svg"
   inkscape:version="0.92.3 (2405546, 2018-03-11)"><metadata
   id="metadata19"><rdf:RDF><cc:Work
       rdf:about=""><dc:format>image/svg+xml</dc:format><dc:type
         rdf:resource="http://purl.org/dc/dcmitype/StillImage" /><dc:title></dc:title></cc:Work></rdf:RDF></metadata><sodipodi:namedview
   pagecolor="#ffffff"
   bordercolor="#666666"
   borderopacity="1"
   objecttolerance="10"
   gridtolerance="10"
   guidetolerance="10"
   inkscape:pageopacity="0"
   inkscape:pageshadow="2"
   inkscape:window-width="1920"
   inkscape:window-height="1017"
   id="namedview17"
   showgrid="false"
   inkscape:zoom="1.106838"
   inkscape:cx="2.2274137"
   inkscape:cy="106.61"
   inkscape:window-x="-8"
   inkscape:window-y="-8"
   inkscape:window-maximized="1"
   inkscape:current-layer="svg15" />
<style
   type="text/css"
   id="style2">
    .st0{fill:#FFFFFF;}
</style>
<defs
   id="defs4">
</defs>
<g
   id="aOVHgY_2_"
   transform="translate(-1.176336e-4,8.1046156)">
    <g
   id="g12">
        <path
   class="st0"
   d="m 72.96,213.22 c -0.35,-0.19 -0.74,-0.33 -1.04,-0.58 -1.19,-0.97 -2.51,-1.33 -4.03,-1.1 -1.62,0.24 -2.53,-0.98 -3.56,-1.89 -0.17,-0.15 -0.09,-0.68 -0.02,-1.01 0.57,-2.5 0.49,-5.02 -0.58,-7.3 -1.88,-4.01 -2.3,-8.35 -3.35,-12.55 -0.92,-3.66 -2.46,-7.25 -4.92,-10.28 -0.28,-0.34 -0.58,-0.68 -0.95,-0.91 -1.79,-1.13 -3.5,-2.32 -4.76,-4.11 -0.34,-0.49 -1.23,-0.7 -1.91,-0.83 -1.13,-0.22 -2.32,-0.18 -3.45,-0.41 -0.79,-0.16 -1.61,-0.48 -2.27,-0.93 -1,-0.67 -1.83,-0.68 -2.68,0.15 -0.06,0.06 -0.11,0.12 -0.18,0.16 -1.19,0.75 -2.38,1.49 -3.56,2.23 -1.86,-0.91 -3.84,-1.64 -5.02,-3.52 -0.28,-0.44 -0.53,-0.89 -0.75,-1.36 -0.61,-1.31 -1.28,-2.55 -2.61,-3.31 -0.33,-0.19 -0.61,-0.53 -0.81,-0.87 -2.41,-4.16 -4.4,-8.44 -3.49,-13.47 0.11,-0.58 0.21,-1.25 0.56,-1.68 3.01,-3.61 4.29,-7.85 4.87,-12.43 0.52,-4.08 1.66,-8.12 1.75,-12.2 0.11,-5 1.26,-9.81 1.81,-14.72 0.05,-0.48 0.11,-0.96 0.11,-1.43 -0.01,-5.92 -0.12,-11.83 0.01,-17.75 0.05,-2.28 0.64,-4.55 0.96,-6.83 0.18,-1.3 0.44,-2.6 0.46,-3.9 0.08,-3.66 0.59,-7.24 1.66,-10.74 0.66,-2.17 1.72,-4.12 3.25,-5.81 2.45,-2.68 4.67,-5.64 7.39,-8 5.11,-4.44 11.02,-7.6 17.5,-9.69 1.76,-0.57 3.38,-1.57 5.08,-2.34 1.48,-0.67 2.97,-1.3 4.47,-1.93 0.59,-0.25 1.23,-0.37 1.79,-0.67 3.75,-2.01 7.84,-2.94 11.96,-3.71 0.91,-0.17 1.94,-0.12 2.84,0.1 3.4,0.86 6.82,1.67 10.14,2.8 4.57,1.55 8.86,3.66 13.07,6.12 4.52,2.64 8.17,6.23 12.2,9.39 1.42,1.11 2.44,2.82 3.44,4.38 1.18,1.85 2.06,3.88 3.22,5.75 2.94,4.76 5.17,9.81 6.67,15.2 0.11,0.38 0.13,0.86 0.37,1.13 2.39,2.72 2.37,6.21 2.94,9.47 1.63,9.3 1.05,18.56 -0.82,27.76 -0.05,0.23 -0.09,0.47 -0.12,0.71 -0.33,2.17 -0.32,2.18 1.89,2.24 0.32,1.23 0.59,2.51 0.99,3.75 2.05,6.34 3,12.9 4.09,19.44 0.2,1.23 0.75,2.44 1.32,3.56 1.04,2.02 1.33,4.03 0.64,6.24 -0.72,2.32 -1.67,4.45 -3.36,6.27 -2.02,2.16 -3.94,4.41 -5.82,6.7 -0.56,0.68 -0.98,1.57 -1.19,2.42 -0.37,1.52 -1.24,2.36 -2.75,2.6 -3.05,0.49 -5.98,0.61 -8.74,-1.32 -1.66,-1.17 -3.54,-0.66 -5.2,0.36 -2.49,1.53 -4.21,3.75 -5.63,6.26 -0.94,1.66 -1.54,3.35 -1.52,5.32 0.05,3.98 -0.56,7.86 -2.03,11.62 -0.38,0.98 -0.25,2.19 -0.23,3.3 0.01,0.75 -0.18,1.13 -0.97,1.14 -1.17,0.01 -1.72,0.76 -1.93,1.78 -0.19,0.94 -0.28,1.9 -0.41,2.85 -0.23,1.73 -1.18,3.04 -2.48,4.11 -1.63,1.33 -4.34,0.5 -5.33,-1.58 -0.28,-0.58 -0.64,-1.13 -0.92,-1.63 -1.69,1.61 -3.31,3.04 -4.78,4.6 -0.76,0.8 -1.47,0.89 -2.33,0.42 -1.75,-0.96 -2.93,-2.29 -2.97,-4.44 -0.03,-1.96 -0.09,-3.92 -0.28,-5.87 -0.06,-0.59 -0.42,-1.34 -0.88,-1.67 -1,-0.71 -1.76,-0.24 -1.76,0.99 0,0.96 0.13,1.92 0.09,2.87 -0.03,0.66 -0.07,1.45 -0.43,1.93 -1.2,1.58 -1.55,3.39 -1.79,5.26 -0.22,1.69 -0.6,1.82 -2.32,1.66 -1.61,-0.15 -2.59,-1.11 -3.59,-2.16 -0.61,-0.64 -1.16,-1.34 -1.85,-1.87 -0.34,-0.26 -1.02,-0.37 -1.38,-0.2 -0.37,0.18 -0.63,0.75 -0.76,1.21 -0.1,0.35 0.03,0.79 0.11,1.18 0.42,2.19 0.21,2.62 -1.74,3.58 -0.44,-0.01 -0.92,-0.01 -1.4,-0.01 z m 59.27,-58.37 c 1.22,-0.91 1.56,-1.79 1.24,-2.92 -0.17,-0.61 -0.26,-1.25 -0.42,-1.87 -0.98,-3.73 -1.97,-7.46 -2.97,-11.19 -0.68,-2.52 -4.74,-5.22 -7.21,-4.81 -5.19,0.86 -9.39,3.64 -13.32,6.9 -0.69,0.57 -1.2,1.39 -1.68,2.17 -1.74,2.87 -3.37,5.8 -5.16,8.63 -0.5,0.79 -1.34,1.5 -2.18,1.9 -0.98,0.47 -1.33,1.03 -1.15,2.05 0.23,1.29 0.75,1.82 1.96,1.8 2.85,-0.03 5.64,-0.33 8.3,-1.5 2.94,-1.28 6,-2.18 9.23,-2.36 0.31,-0.02 0.66,-0.08 0.9,-0.26 2.29,-1.62 4.92,-2.42 7.55,-3.24 2.41,-0.75 2.54,-0.71 3.53,1.69 0.41,0.99 0.88,1.93 1.38,3.01 z m -89.44,-9.27 c 0.14,1.25 -0.16,2.73 1.11,3.4 1.26,0.66 2.23,2.44 4.11,1.42 0.13,-0.07 0.42,0.19 0.65,0.23 0.69,0.14 1.38,0.36 2.07,0.36 2.48,-0.01 4.97,-0.3 7.42,-0.1 1.83,0.15 3.67,0.73 5.4,1.39 2.38,0.91 4.64,2.12 6.98,3.13 0.51,0.22 1.19,0.24 1.75,0.15 2.05,-0.33 2.39,-1.19 1.06,-2.77 -2.33,-2.76 -4.36,-5.77 -7.24,-8.08 -2.42,-1.94 -4.59,-4.19 -6.92,-6.25 -0.46,-0.4 -1.12,-0.61 -1.71,-0.82 -2.29,-0.8 -4.61,-1.51 -6.88,-2.37 -1.78,-0.68 -1.94,-0.66 -2.99,0.93 -0.83,1.26 -1.77,2.44 -2.64,3.68 -0.56,0.79 -1.24,1.55 -1.57,2.44 -0.36,1.01 -0.41,2.16 -0.6,3.26 z M 82.05,183 c 1.71,-0.99 3.38,-1.92 5,-2.92 0.71,-0.44 1.29,-0.43 1.98,-0.01 1.32,0.82 2.71,1.54 4.02,2.37 0.66,0.42 1.21,1.01 1.83,1.49 0.29,0.22 0.7,0.56 0.95,0.49 0.28,-0.08 0.62,-0.58 0.61,-0.89 -0.05,-1.17 -0.12,-2.37 -0.4,-3.5 -0.29,-1.15 -1.09,-2.21 -1.21,-3.36 -0.37,-3.63 -1.61,-6.89 -3.3,-10.09 -0.86,-1.61 -1.05,-3.58 -1.55,-5.38 -0.45,-1.6 -1.61,-2.17 -3.12,-1.57 -1.85,0.74 -3.49,4.15 -3.11,6.1 0.29,1.47 0.65,3.06 0.38,4.48 -0.61,3.36 -1.51,6.68 -2.45,9.97 -0.28,1 -0.32,1.77 0.37,2.82 z m -1.89,21.12 c 0.48,0.82 0.89,1.6 1.4,2.32 0.19,0.27 0.59,0.38 0.89,0.57 0.17,-0.33 0.53,-0.71 0.46,-1 -0.18,-0.8 -0.46,-1.59 -0.86,-2.31 -0.2,-0.37 -0.72,-0.56 -1.09,-0.83 -0.22,0.37 -0.45,0.73 -0.8,1.25 z m -10.28,2.69 c -0.4,-0.41 -0.79,-0.82 -1.19,-1.24 -0.4,0.63 -0.94,1.22 -1.15,1.9 -0.18,0.58 0.09,1.23 0.94,1.18 1.05,-0.05 1.07,-0.87 1.4,-1.84 z m 36.96,-1.65 c 0.53,-0.6 1,-1.13 1.51,-1.7 -0.53,-0.48 -0.6,-1.62 -1.67,-0.98 -0.76,0.44 -0.69,1.64 0.16,2.68 z"
   id="path6"
   inkscape:connector-curvature="0"
   style="fill:#ffffff" />
        <path
   class="st0"
   d="M 0,91.3 C 1.04,90.47 2.05,90.2 3.38,90.92 5.7,92.18 7.94,90.79 8.4,88 8.85,85.27 8.46,82.59 8.04,79.9 7.32,75.24 6.58,70.58 6.04,65.9 5.56,61.69 6.1,57.53 7.21,53.44 c 0.91,-3.35 1.66,-6.72 3.24,-9.88 1.82,-3.65 3.92,-7.01 7.01,-9.75 3.02,-2.67 5.79,-5.63 8.85,-8.26 1.46,-1.25 3.31,-2.04 5.01,-3.01 3.53,-2.03 7.05,-4.08 10.61,-6.05 3.8,-2.11 7.71,-4.03 11.43,-6.28 2.16,-1.31 4.04,-3.09 6.04,-4.68 1.06,-0.84 2.06,-1.76 3.14,-2.58 0.57,-0.43 1.16,-0.45 1.58,0.34 0.58,1.07 1.1,1.16 2.02,0.34 1.07,-0.96 2.08,-1.99 3.14,-2.96 1.26,-1.15 2.35,-0.83 2.73,0.87 0.39,1.74 -0.07,3.34 -1.25,4.68 -0.47,0.53 -1.05,0.98 -1.62,1.41 -2.4,1.79 -4.88,3.49 -7.21,5.37 -1.76,1.43 -3.34,3.08 -4.98,4.65 -0.86,0.83 -1.83,1.61 -2.49,2.58 -1.97,2.88 -4.11,5.7 -3.06,9.63 0.52,1.95 0.59,4.01 0.88,6.17 1.17,-0.51 2.44,-1.06 3.84,-1.67 0,0.34 0.07,0.57 -0.01,0.69 -1.22,1.7 -2.47,3.36 -4.73,3.75 -0.31,0.05 -0.61,0.17 -0.91,0.3 -8.93,3.9 -15.21,10.37 -19.05,19.31 -2.18,5.06 -4.08,10.2 -5.88,15.42 -2.2,6.37 -2.73,12.85 -2.92,19.45 -0.06,2.16 -0.29,4.31 -0.27,6.47 0.04,3.83 0.15,7.66 0.35,11.49 0.18,3.6 0.53,7.2 -0.81,10.67 -0.34,0.89 -0.74,1.77 -1.23,2.59 -0.57,0.95 -1.14,0.94 -1.89,0.15 -1.01,-1.07 -2.09,-2.08 -3.09,-3.16 -0.57,-0.61 -1.13,-1.25 -1.56,-1.96 -1.94,-3.27 -3.67,-6.64 -4.54,-10.39 C 9.51,108.83 9.44,108.5 9.29,108.23 6.52,103.33 3.73,98.44 0.95,93.55 0.65,93.02 0.31,92.52 0,92.02 0,91.78 0,91.54 0,91.3 Z"
   id="path8"
   inkscape:connector-curvature="0"
   style="fill:#ffffff" />
        <path
   class="st0"
   d="m 70.38,30.98 c 0.97,-1.27 1.84,-1.98 3.12,-2.26 0.53,-0.11 1.1,-0.78 1.29,-1.32 0.09,-0.25 -0.68,-0.84 -1.12,-1.21 -0.36,-0.29 -0.8,-0.47 -1.45,-0.83 0.61,-0.54 1.01,-1.05 1.54,-1.31 2.07,-1.03 4.16,-2.04 6.29,-2.95 5.36,-2.27 10.65,-4.78 16.16,-6.65 6.87,-2.33 13.89,-4.4 21.17,-5.03 3.88,-0.33 7.83,-0.11 11.72,0.17 3.86,0.28 7.69,0.96 11.53,1.46 3.09,0.41 6.01,-0.26 8.92,-1.26 5.53,-1.91 11.06,-3.9 16.7,-5.45 4.95,-1.36 10.02,-1.51 14.97,0.45 0.95,0.38 2.01,0.52 3.03,0.68 1.97,0.3 3.12,1.52 3.76,3.28 0.51,1.41 -0.4,2.61 -1.87,2.33 -3.57,-0.7 -7.09,-0.23 -10.61,0.22 -1.29,0.16 -2.52,0.73 -3.78,1.09 -1.14,0.32 -2.3,0.6 -3.44,0.91 -1.68,0.47 -3.38,0.88 -5.01,1.46 -1.08,0.39 -2.05,1.06 -3.1,1.57 -4.61,2.23 -6.12,6.35 -6.38,11.01 -0.16,2.81 1.63,4.76 3.97,6.13 2.23,1.3 4.71,1.78 7.24,1.86 2.52,0.07 5.06,0.14 7.55,-0.11 2,-0.2 3.95,-0.92 5.93,-1.37 5.72,-1.3 11.43,-2.68 17.18,-3.83 3.67,-0.74 7.44,-1.55 11.18,-0.82 3.55,0.69 7.02,1.83 10.52,2.78 0.15,0.04 0.33,0.08 0.43,0.19 1.88,2.08 4.51,2.63 7.01,3.43 2.01,0.64 3.55,1.78 4.39,3.77 0.52,1.24 0.06,2.23 -1.26,2.36 -1.74,0.17 -3.51,0.29 -5.26,0.23 -4.89,-0.17 -9.78,-0.08 -14.53,1.15 -1.96,0.51 -3.81,1.59 -5.6,2.59 -1.8,1 -3.42,2.34 -5.62,2.43 -0.39,0.02 -0.84,0.3 -1.15,0.58 -3.35,3.03 -6.74,6.01 -9.97,9.16 -1.74,1.69 -2.81,3.81 -3.76,6.14 -1.96,4.8 -2.49,9.97 -4.39,14.77 -1.82,4.59 -4.89,8.19 -8.25,11.64 -2,2.06 -4.28,4.02 -5.66,6.46 -1.62,2.85 -2.97,6.14 -1.05,9.54 0.86,1.53 1.79,3.02 2.74,4.49 0.25,0.39 0.65,0.79 1.06,0.94 2.83,1.02 5.61,1.85 8.64,0.34 1.45,-0.72 3.22,-0.91 4.87,-1.07 2.77,-0.26 5.57,-0.51 8.33,-0.38 1.94,0.09 3.58,1.16 4.7,2.95 0.51,0.81 1.48,1.33 2.08,2.1 0.39,0.51 0.87,1.48 0.65,1.83 -0.39,0.62 -1.23,1.05 -1.97,1.3 -0.65,0.22 -1.5,-0.11 -2.12,0.13 -1.5,0.6 -3,1.06 -4.63,1.13 -0.43,0.02 -0.92,0.33 -1.26,0.65 -5.04,4.66 -10.75,8.58 -15.08,14 -3.55,4.44 -5.91,9.58 -8.62,14.51 -0.62,1.13 -1.05,1.26 -1.9,0.31 -0.34,-0.38 -0.62,-0.84 -0.81,-1.32 -1.4,-3.52 -2.85,-7.02 -4.14,-10.58 -1.6,-4.39 -2.93,-8.87 -4.62,-13.22 -1.58,-4.05 -1.89,-8.08 -1.07,-12.34 0.47,-2.48 0.38,-5.07 0.53,-7.61 0.07,-1.16 0.03,-2.32 0.14,-3.47 0.54,-5.74 -0.86,-11.18 -2.42,-16.62 -1.11,-3.87 -2.03,-7.8 -3.18,-11.67 -0.66,-2.21 -1.6,-4.33 -2.39,-6.51 -0.2,-0.55 -0.4,-1.16 -0.36,-1.73 0.11,-1.53 -0.44,-2.79 -1.29,-4.01 -0.9,-1.31 -1.62,-2.75 -2.59,-4 -0.99,-1.28 -2.02,-2.63 -3.33,-3.52 -1.6,-1.08 -2.86,-2.35 -3.62,-4.04 -1.71,-3.81 -4.57,-6.46 -8.09,-8.57 -3.61,-2.16 -7.05,-4.55 -9.88,-7.73 -1.09,-1.22 -2.58,-1.62 -4.17,-1.86 -4.06,-0.62 -8.1,-1.39 -12.15,-2.05 -1,-0.16 -2.03,-0.13 -3.04,-0.14 -1.87,-0.02 -3.78,0.21 -5.61,-0.06 -2.97,-0.43 -5.81,0.18 -8.68,0.66 -2.51,0.42 -4.99,0.98 -7.49,1.47 -0.44,0.1 -0.86,0.14 -1.57,0.25 z m 82.02,56.2 c -0.1,-0.54 -0.19,-1.29 -0.41,-2 -0.08,-0.25 -0.52,-0.39 -0.79,-0.58 -0.17,0.26 -0.5,0.53 -0.49,0.79 0.03,0.94 0.14,1.89 0.3,2.82 0.04,0.25 0.37,0.44 0.57,0.66 0.24,-0.22 0.53,-0.41 0.69,-0.68 0.11,-0.21 0.07,-0.53 0.13,-1.01 z m -4.02,-69.55 c -0.68,-0.46 -1.01,-0.86 -1.4,-0.92 -0.83,-0.12 -1.68,0.67 -1.48,1.45 0.13,0.52 0.72,0.93 1.1,1.39 0.51,-0.56 1.03,-1.12 1.78,-1.92 z"
   id="path10"
   inkscape:connector-curvature="0"
   style="fill:#ffffff" />
    </g>
</g>
</svg>