<?xml version="1.0" encoding="UTF-8" standalone="no"?>
<!-- Generator: Adobe Illustrator 23.0.4, SVG Export Plug-In  -->

<svg
   xmlns:dc="http://purl.org/dc/elements/1.1/"
   xmlns:cc="http://creativecommons.org/ns#"
   xmlns:rdf="http://www.w3.org/1999/02/22-rdf-syntax-ns#"
   xmlns:svg="http://www.w3.org/2000/svg"
   xmlns="http://www.w3.org/2000/svg"
   xmlns:sodipodi="http://sodipodi.sourceforge.net/DTD/sodipodi-0.dtd"
   xmlns:inkscape="http://www.inkscape.org/namespaces/inkscape"
   version="1.1"
   x="0px"
   y="0px"
   width="232.57001"
   height="232.57001"
   viewBox="0 0 232.57 232.57"
   xml:space="preserve"
   id="svg21"
   sodipodi:docname="bulwark.svg"
   inkscape:version="0.92.3 (2405546, 2018-03-11)"><metadata
   id="metadata25"><rdf:RDF><cc:Work
       rdf:about=""><dc:format>image/svg+xml</dc:format><dc:type
         rdf:resource="http://purl.org/dc/dcmitype/StillImage" /><dc:title></dc:title></cc:Work></rdf:RDF></metadata><sodipodi:namedview
   pagecolor="#ffffff"
   bordercolor="#666666"
   borderopacity="1"
   objecttolerance="10"
   gridtolerance="10"
   guidetolerance="10"
   inkscape:pageopacity="0"
   inkscape:pageshadow="2"
   inkscape:window-width="1920"
   inkscape:window-height="1017"
   id="namedview23"
   showgrid="false"
   inkscape:zoom="1.0147482"
   inkscape:cx="-6.4455308"
   inkscape:cy="116.285"
   inkscape:window-x="-8"
   inkscape:window-y="-8"
   inkscape:window-maximized="1"
   inkscape:current-layer="svg21" />
<style
   type="text/css"
   id="style2">
    .st0{fill:#FFFFFF;}
</style>
<defs
   id="defs4">
</defs>
<g
   id="ZKJ2ZA_2_"
   transform="translate(0.06083797,0.00750366)">
    <g
   id="g18">
        <path
   class="st0"
   d="m 110.74,0 c 2.24,0 4.48,0 6.72,0 1.19,0.08 2.38,0.2 3.57,0.23 3.83,0.1 7.66,0.09 11.31,1.6 0.91,0.38 2.12,0.53 3.05,0.27 1.67,-0.47 3.15,0 4.68,0.39 1.12,0.28 2.25,0.55 3.36,0.88 4.57,1.37 9.4,1.92 13.61,4.42 0.3,0.18 0.67,0.24 1.01,0.36 2.1,0.73 4.22,1.39 6.28,2.21 1.18,0.47 2.25,1.19 3.37,1.8 0.8,0.43 1.57,0.95 2.41,1.28 2.59,1 5,2.28 7.18,4.02 1.3,1.04 2.64,2.1 4.13,2.84 2.82,1.41 5.24,3.07 6.53,6.15 0.62,1.47 1.31,2.56 0.06,4.11 -1.23,1.53 -0.73,2.58 1.16,3.29 0.22,0.08 0.53,0.14 0.63,0.31 0.25,0.41 0.48,0.87 0.53,1.33 0.01,0.12 -0.68,0.45 -1.05,0.44 -0.63,-0.01 -1.26,-0.2 -1.89,-0.31 -1.76,-0.31 -3.5,-0.26 -4.85,1.05 -2.18,2.1 -4.33,4.24 -6.36,6.48 -1.55,1.72 -2.45,3.83 -2.83,6.13 -0.24,1.46 -0.43,2.92 -0.64,4.39 -1.08,7.69 2.54,12.89 9.43,17.05 0.73,0.44 1.65,0.64 2.51,0.75 2.09,0.29 4.2,0.55 6.3,0.66 5.29,0.28 10.02,-1.11 13.56,-5.27 1.72,-2.01 3.34,-4.15 4.71,-6.41 1.07,-1.76 1.65,-3.8 2.52,-5.68 0.34,-0.74 0.86,-1.39 1.46,-2.33 0.62,0.84 1.04,1.31 1.34,1.85 2.22,4.02 4.44,8.04 6.58,12.11 0.55,1.04 0.82,2.23 1.21,3.35 0.34,0.97 0.59,1.97 1.02,2.9 0.63,1.37 1.57,2.62 2.04,4.03 0.9,2.68 1.46,5.48 2.34,8.17 2.45,7.45 3.8,15.1 4.4,22.89 0.62,8.08 0.36,16.14 -0.73,24.18 -0.33,2.44 -0.49,4.94 -1.96,7.09 -0.25,0.37 -0.28,1.01 -0.19,1.49 0.43,2.5 -1.1,4.53 -1.53,6.82 -0.02,0.1 -0.16,0.17 -0.25,0.25 -2.02,1.8 -2.46,4.27 -2.45,6.74 0.01,2.75 -0.7,5.14 -2.16,7.44 -1.17,1.84 -2.46,3.74 -3.01,5.8 -0.68,2.58 -1.9,4.79 -3.17,7.04 -1,1.77 -2.02,3.54 -3.04,5.3 -0.18,0.32 -0.42,0.61 -0.63,0.91 -0.13,-0.01 -0.25,-0.02 -0.38,-0.04 -0.21,-0.99 -0.45,-1.97 -0.61,-2.96 -0.18,-1.1 -0.17,-2.24 -0.43,-3.32 -1.64,-6.71 -6.15,-10.85 -12.32,-13.35 -1.36,-0.55 -2.98,-0.81 -4.43,-0.68 -2.01,0.18 -4,0.78 -5.95,1.34 -5.95,1.71 -10.72,4.9 -13.21,10.85 -0.25,0.59 -0.56,1.15 -0.8,1.74 -3.36,7.96 -0.99,17.23 6.01,22.3 3.02,2.19 6.44,3.82 9.7,5.66 0.74,0.42 1.57,0.67 2.26,0.96 -1.97,1.73 -3.87,3.48 -5.84,5.14 -5.22,4.39 -11.13,7.75 -17.17,10.82 -6,3.04 -11.96,6.33 -18.88,6.95 -0.44,0.04 -1,0.29 -1.23,0.64 -0.67,1 -1.64,1.36 -2.71,1.59 -4.09,0.9 -8.18,1.86 -12.29,2.66 -4.14,0.8 -8.45,0.16 -12.54,1.41 -0.22,0.07 -0.48,0.04 -0.72,0.03 -5.35,-0.16 -10.71,-0.21 -16.05,-0.53 -2.94,-0.17 -5.91,-0.55 -8.76,-1.28 -2.38,-0.61 -4.57,-1.92 -7.16,-1.33 -0.18,0.04 -0.39,-0.05 -0.58,-0.11 -4.1,-1.32 -8.23,-2.53 -12.28,-3.98 -8.68,-3.1 -17.03,-6.9 -24.64,-12.17 -1.57,-1.08 -3.12,-2.19 -4.78,-3.36 0.32,-0.23 0.46,-0.36 0.62,-0.45 4.91,-2.67 8.26,-6.88 11.13,-11.49 2.2,-3.53 3.01,-7.44 2.35,-11.62 -1.04,-6.63 -4.66,-11.63 -9.86,-15.59 -0.83,-0.63 -2.05,-0.8 -3.11,-1.07 -0.64,-0.16 -1.35,-0.07 -2.01,-0.18 -2.12,-0.33 -4.21,-0.55 -6.21,0.53 -0.2,0.11 -0.46,0.15 -0.7,0.16 -4.29,0.17 -7.23,2.65 -9.83,5.72 -0.75,0.88 -1.42,1.84 -2.24,2.66 -1.94,1.96 -2.4,4.28 -1.75,6.85 0.27,1.08 0.02,1.78 -1,2.3 -0.23,-0.26 -0.5,-0.5 -0.7,-0.79 -2.27,-3.29 -4.74,-6.46 -6.73,-9.91 -2.67,-4.62 -5.08,-9.41 -7.38,-14.23 -1.4,-2.93 -3.04,-5.84 -2.91,-9.28 0.01,-0.37 -0.25,-0.75 -0.41,-1.11 -1.49,-3.28 -2.83,-6.6 -3.36,-10.2 -0.41,-2.72 -0.97,-5.43 -1.48,-8.13 -2.23,-11.96 -2.2,-23.93 0.08,-35.88 0.63,-3.28 1.61,-6.5 2.45,-9.74 0.94,-3.62 1.89,-7.25 2.88,-10.86 0.4,-1.45 1.24,-2.58 2.71,-3.15 0.27,-0.1 0.57,-0.36 0.66,-0.62 0.58,-1.65 1.12,-3.32 1.64,-5 0.5,-1.63 0.85,-3.3 1.44,-4.89 0.54,-1.45 1.53,-2.76 1.9,-4.24 0.44,-1.76 1.19,-3.28 2.19,-4.74 1.17,-1.69 2.45,-1.66 3.41,0.16 1.28,2.44 2.54,4.89 3.78,7.35 0.64,1.27 1.34,2.57 2.76,3.01 2.36,0.73 4.74,1.53 7.17,1.8 1.84,0.2 3.76,-0.42 5.64,-0.63 3.93,-0.43 7.2,-2.16 9.68,-5.18 1.61,-1.97 3.06,-4.1 4.36,-6.29 4.25,-7.22 3.09,-14.11 -1.65,-20.59 -1.48,-2.02 -3.31,-3.79 -5.05,-5.62 -0.44,-0.46 -1.09,-0.78 -1.7,-0.99 -1.22,-0.42 -2.47,-0.71 -3.98,-1.13 2.02,-1.55 3.79,-2.9 5.56,-4.25 5.01,-3.8 10.18,-7.33 16.19,-9.44 1.35,-0.47 2.67,-1.09 3.91,-1.79 4.14,-2.34 8.45,-4.29 13,-5.69 8.77,-2.71 17.69,-4.6 26.9,-4.91 1.09,-0.04 2.13,-0.42 3.17,-0.64 z m 6.85,222.74 c 1.5,-2.19 2.92,-4.12 4.2,-6.15 1.47,-2.32 2.8,-4.73 4.22,-7.08 1.04,-1.71 2.22,-3.33 3.18,-5.08 2.68,-4.86 5.2,-9.82 7.96,-14.63 1.44,-2.52 3.28,-4.81 4.92,-7.21 0.27,-0.39 0.45,-0.83 0.68,-1.24 1.35,-2.43 2.72,-4.85 4.05,-7.29 0.21,-0.39 0.48,-0.94 0.35,-1.27 -0.13,-0.34 -0.69,-0.62 -1.11,-0.73 -0.4,-0.1 -0.86,0.07 -1.3,0.08 -1.66,0.03 -3.33,0.05 -4.99,0.05 -0.72,0 -1.44,-0.14 -2.14,-0.07 -1.78,0.16 -1.96,-0.07 -1.89,-1.83 0.09,-2.43 0.07,-4.86 0.02,-7.29 -0.05,-2.68 -0.2,-5.35 -0.25,-8.03 -0.04,-2.24 0.07,-4.47 -0.01,-6.71 -0.08,-2.03 -0.47,-4.06 -0.46,-6.09 0.02,-2.9 0.24,-5.8 0.47,-8.69 0.03,-0.4 0.59,-1 1,-1.09 1.2,-0.27 2.44,-0.44 3.67,-0.47 4.6,-0.1 9.2,-0.03 13.79,-0.22 4.23,-0.18 8.45,-0.7 12.68,-0.91 3.11,-0.15 6.24,-0.01 9.35,-0.04 4.04,-0.04 8.07,-0.1 12.11,-0.19 1.17,-0.02 1.87,0.4 1.87,1.63 0,2.47 -0.05,4.95 -0.04,7.42 0,0.59 0.07,1.21 0.28,1.75 0.27,0.69 0.67,0.88 1.32,0.19 1.03,-1.1 2.11,-2.17 3.3,-3.09 8.53,-6.6 17.1,-13.15 25.63,-19.75 1.05,-0.82 1.95,-1.83 2.94,-2.76 -0.52,-0.65 -0.91,-1.16 -1.32,-1.64 -9.42,-11.03 -20.38,-20.43 -31.41,-29.75 -0.39,-0.33 -0.91,-0.49 -1.55,-0.83 -0.05,0.75 -0.11,1.22 -0.11,1.69 0,2.84 0.03,5.68 0.02,8.52 0,1.93 -0.3,2.18 -2.26,2.15 -2.08,-0.04 -4.16,-0.12 -6.23,-0.07 -5.56,0.14 -11.11,0.4 -16.66,0.52 -8.67,0.18 -17.35,0.3 -26.02,0.43 -1.55,0.02 -2.01,-0.37 -1.88,-1.9 0.35,-4.45 -0.28,-8.83 -0.66,-13.24 -0.39,-4.54 -0.56,-9.09 -0.13,-13.65 0.51,-5.33 0.97,-10.68 0.07,-16.03 -0.18,-1.09 0.37,-1.4 1.36,-1.39 2.88,0.01 5.76,0.03 8.63,-0.07 1.65,-0.06 1.92,-0.59 1.06,-2.05 -2.49,-4.27 -4.57,-8.75 -7.71,-12.66 -3,-3.73 -5.5,-7.85 -8.31,-11.75 -3.03,-4.21 -6.08,-8.42 -9.27,-12.52 -1.52,-1.95 -3.4,-3.62 -5.15,-5.45 -1.17,1.83 -2.15,3.38 -3.14,4.93 -6.05,9.45 -12.1,18.9 -18.16,28.35 -0.19,0.3 -0.37,0.62 -0.61,0.89 -2.74,2.96 -4.8,6.39 -6.61,9.96 -0.37,0.73 -0.77,2.08 -0.46,2.37 0.6,0.54 1.71,0.52 2.61,0.74 0.04,0.01 0.08,-0.01 0.12,-0.01 2.75,-0.07 5.51,-0.14 8.26,-0.21 0.76,-0.02 1.11,0.4 1.05,1.13 -0.08,1.08 -0.08,2.18 -0.34,3.22 -1.35,5.57 -1.29,11.26 -1.64,16.92 -0.09,1.47 0.21,3 -0.07,4.42 -0.51,2.53 -0.64,5.06 -0.57,7.62 0.04,1.56 0.1,3.13 -0.01,4.68 -0.04,0.49 -0.61,1.32 -0.98,1.34 -3.3,0.2 -6.61,0.33 -9.92,0.32 -2.46,-0.01 -4.93,-0.33 -7.39,-0.39 -2.87,-0.07 -5.75,-0.03 -8.63,-0.01 -2.15,0.02 -4.31,0.13 -6.46,0.13 -2.35,0 -4.69,-0.07 -7.04,-0.11 -0.2,0 -0.46,-0.12 -0.58,-0.03 -1.22,0.89 -2.53,0.33 -3.82,0.32 -1.24,-0.01 -1.66,-0.63 -1.65,-1.7 0.01,-1.76 0.09,-3.51 0.1,-5.27 0,-0.7 -0.12,-1.39 -0.19,-2.09 -0.13,-0.02 -0.27,-0.04 -0.4,-0.06 -0.43,0.4 -0.87,0.79 -1.27,1.22 -2.11,2.27 -4.12,4.64 -6.32,6.8 -3.85,3.77 -7.46,7.82 -12.02,10.81 -0.36,0.24 -0.68,0.56 -0.99,0.86 -3.11,3.05 -6.18,6.14 -9.34,9.14 -1.06,1.01 -2.36,1.76 -3.5,2.69 -0.79,0.64 -1.5,1.37 -2.43,2.22 1.59,0.88 2.93,1.59 4.24,2.34 0.93,0.53 1.85,1.1 2.74,1.69 1.65,1.1 3.27,2.26 4.93,3.34 2.14,1.39 4.59,2.42 6.43,4.12 4.91,4.51 10.37,8.44 14.47,13.8 0.55,0.72 1.17,0.61 1.57,-0.23 0.15,-0.32 0.21,-0.68 0.27,-1.04 0.42,-2.51 0.84,-5.03 1.29,-7.79 3.02,-0.12 6,-0.31 8.99,-0.34 2.72,-0.03 5.44,0.21 8.15,0.15 7.84,-0.16 15.67,-0.41 23.51,-0.64 1.69,-0.05 1.88,0.11 1.84,1.8 -0.07,2.44 -0.15,4.88 -0.27,7.31 -0.24,4.67 -0.47,9.34 -0.78,14 -0.1,1.5 -0.47,2.99 -0.62,4.49 -0.13,1.21 -0.21,2.44 -0.16,3.66 0.05,1.34 0.37,2.67 0.41,4.01 0.04,1.72 -0.15,3.44 -0.12,5.15 0.02,1.17 -0.42,1.65 -1.58,1.73 -1.79,0.12 -3.59,0.31 -5.36,0.59 -1.45,0.23 -1.87,1.14 -1.16,2.43 0.4,0.72 0.98,1.35 1.51,2 1.71,2.1 3.42,4.2 5.14,6.3 0.38,0.46 0.73,0.97 1.17,1.36 3.03,2.71 5.41,5.96 7.92,9.14 5.07,6.43 10.38,12.67 14.91,19.52 1.39,2.13 3.01,4.12 4.69,6.39 z M 18.17,58.86 c -0.13,0.25 -0.58,0.79 -0.46,0.98 0.39,0.64 0.99,1.15 1.5,1.71 0.25,-0.3 0.69,-0.59 0.72,-0.92 0.08,-0.77 -0.88,-1.82 -1.76,-1.77 z m 45.48,136.8 c -0.19,-0.25 -0.38,-0.58 -0.65,-0.81 -0.1,-0.08 -0.58,0.08 -0.6,0.18 -0.18,0.86 -0.33,1.73 -0.4,2.61 -0.01,0.15 0.37,0.47 0.57,0.48 0.21,0 0.53,-0.25 0.61,-0.46 0.19,-0.6 0.29,-1.23 0.47,-2 z M 21.5,176.96 c 0.01,-0.17 0.02,-0.34 0.03,-0.51 -0.55,-0.08 -1.1,-0.17 -1.65,-0.25 -0.03,0.46 -0.26,1.17 -0.06,1.34 0.8,0.67 1.18,-0.21 1.68,-0.58 z"
   id="path6"
   inkscape:connector-curvature="0"
   style="fill:#ffffff" />
        <path
   class="st0"
   d="m 104.1,116.41 c 0.42,-3.54 1.27,-6.33 3.59,-8.43 1.45,-1.31 2.97,-2.56 4.53,-3.72 0.48,-0.36 1.23,-0.38 1.87,-0.48 0.7,-0.11 1.42,-0.07 2.11,-0.19 2.04,-0.34 3.97,-0.09 5.8,0.91 0.21,0.11 0.41,0.29 0.64,0.32 2.61,0.37 3.95,2.03 4.57,4.44 0.04,0.15 0.07,0.32 0.15,0.45 1.8,2.99 1.01,5.99 0.03,8.99 -0.95,2.93 -2.7,5.22 -5.39,6.76 -1.18,0.68 -2.32,1.41 -3.48,2.11 -0.27,0.16 -0.55,0.33 -0.85,0.44 -1.67,0.65 -6.99,-0.8 -8.04,-2.24 -1.48,-2.03 -2.99,-4.05 -4.31,-6.18 -0.66,-1.07 -0.93,-2.39 -1.22,-3.18 z m 14.48,-10.94 c 0,-0.19 -0.01,-0.37 -0.01,-0.56 -0.38,-0.27 -0.74,-0.72 -1.14,-0.77 -0.71,-0.09 -1.33,0.33 -1.19,1.11 0.08,0.42 0.63,1.07 0.94,1.05 0.48,-0.02 0.94,-0.52 1.4,-0.83 z"
   id="path8"
   inkscape:connector-curvature="0"
   style="fill:#ffffff" />
        <path
   class="st0"
   d="m 116.36,160.47 c 2.52,0.53 4.91,0.97 7.26,1.58 0.51,0.13 1.01,0.79 1.26,1.32 0.66,1.4 1.26,2.85 1.73,4.33 0.17,0.54 -0.22,1.25 -0.12,1.84 1,5.69 -1.41,10.21 -4.96,14.29 -0.71,0.82 -1.73,1.39 -2.64,2.01 -0.31,0.21 -0.75,0.36 -1.13,0.35 -3.91,-0.12 -7.42,-1 -9.48,-4.84 -0.49,-0.92 -1.35,-1.66 -2.11,-2.43 -2.93,-2.98 -3.07,-5.14 -1.47,-8.96 1.48,-3.52 4.14,-5.85 7.01,-7.96 1.27,-0.95 3.14,-1.07 4.65,-1.53 z"
   id="path10"
   inkscape:connector-curvature="0"
   style="fill:#ffffff" />
        <path
   class="st0"
   d="m 193.98,103.49 c 3.1,1.71 5.31,4.07 6.19,7.45 0.57,2.18 -1.27,6.05 -3.24,7.3 -0.57,0.36 -1.18,0.69 -1.69,1.13 -0.76,0.64 -0.67,1.16 0.21,1.65 1.18,0.65 1.27,0.95 0.63,2.14 -1.35,2.54 -3.01,3.42 -5.87,3.11 -0.55,-0.06 -1.1,-0.17 -1.65,-0.28 -3.39,-0.74 -9.53,-5.8 -10.92,-8.99 -1.11,-2.55 -0.87,-5.03 0.56,-7.33 1.03,-1.65 2.3,-3.16 3.48,-4.72 0.45,-0.6 0.99,-0.61 1.7,-0.38 0.65,0.21 1.4,0.3 2.08,0.21 1.58,-0.2 3.14,-0.56 4.72,-0.8 0.49,-0.07 1.17,-0.15 1.49,0.11 1.03,0.84 1.7,0.47 2.31,-0.6 z m -1.41,2.35 c 0.72,0.54 0.96,1.71 2.03,1.13 0.23,-0.12 0.26,-1.15 0.01,-1.48 -0.66,-0.91 -1.29,-0.19 -2.04,0.35 z"
   id="path12"
   inkscape:connector-curvature="0"
   style="fill:#ffffff" />
        <path
   class="st0"
   d="m 105.79,51.56 c 0.14,-0.78 0.29,-1.56 0.43,-2.35 0.25,-1.33 0.64,-2.66 0.71,-4 0.18,-3.79 4.72,-7.61 8.71,-6.54 0.98,0.26 2.19,-0.18 3.26,-0.41 1.69,-0.37 1.95,-0.17 2.94,1.24 1.13,1.62 2.37,3.2 3.75,4.61 1.57,1.6 1.95,3.06 1.27,5.14 -0.69,2.12 -1.2,4.3 -1.7,6.47 -0.34,1.45 -0.47,2.92 -2.38,3.25 -0.59,0.1 -1.09,0.65 -1.65,0.93 -2.17,1.08 -4.38,1.29 -6.83,0.89 -3.1,-0.5 -8.75,-5.31 -8.51,-9.23 z m 8.88,-8.33 c 0.43,-0.65 0.9,-1.07 0.91,-1.49 0.01,-0.38 -0.49,-0.77 -0.76,-1.16 -0.37,0.48 -0.83,0.93 -1.06,1.48 -0.07,0.17 0.45,0.59 0.91,1.17 z"
   id="path14"
   inkscape:connector-curvature="0"
   style="fill:#ffffff" />
        <path
   class="st0"
   d="m 65.68,112.34 c -0.1,0.46 -0.18,0.94 -0.31,1.39 -0.63,2.18 -1.3,4.36 -1.9,6.55 -0.64,2.3 -2.03,3.98 -4.17,4.96 -1.45,0.66 -2.96,1.21 -4.48,1.65 -1.32,0.38 -2.74,0.21 -3.73,-0.76 -2.24,-2.2 -4.61,-4.35 -6.42,-6.89 -2.89,-4.03 -1.73,-8.07 2.59,-10.58 0.21,-0.12 0.48,-0.2 0.6,-0.39 1.21,-1.93 3.22,-2.48 5.21,-3.12 0.79,-0.25 1.53,-0.66 2.27,-1.05 1.21,-0.62 2.14,-0.21 2.92,0.74 0.86,1.05 1.7,2.11 2.51,3.2 0.56,0.75 1.15,1.07 2.15,0.83 0.47,-0.11 1.29,0.13 1.56,0.5 0.6,0.84 0.95,1.86 1.39,2.81 -0.07,0.07 -0.13,0.11 -0.19,0.16 z m -6.26,6.04 c 0.31,-0.32 0.57,-0.6 0.89,-0.95 -0.32,-0.36 -0.59,-0.67 -0.85,-0.97 -1.03,0.71 -0.98,1.27 -0.04,1.92 z"
   id="path16"
   inkscape:connector-curvature="0"
   style="fill:#ffffff" />
    </g>
</g>
</svg>