<?xml version="1.0" encoding="UTF-8" standalone="no"?>
<!-- Generator: Adobe Illustrator 23.0.4, SVG Export Plug-In  -->

<svg
   xmlns:dc="http://purl.org/dc/elements/1.1/"
   xmlns:cc="http://creativecommons.org/ns#"
   xmlns:rdf="http://www.w3.org/1999/02/22-rdf-syntax-ns#"
   xmlns:svg="http://www.w3.org/2000/svg"
   xmlns="http://www.w3.org/2000/svg"
   xmlns:sodipodi="http://sodipodi.sourceforge.net/DTD/sodipodi-0.dtd"
   xmlns:inkscape="http://www.inkscape.org/namespaces/inkscape"
   version="1.1"
   x="0px"
   y="0px"
   width="249.412"
   height="249.412"
   viewBox="0 0 249.41201 249.412"
   xml:space="preserve"
   id="svg17"
   sodipodi:docname="chaotic_beast.svg"
   inkscape:version="0.92.3 (2405546, 2018-03-11)"><metadata
   id="metadata21"><rdf:RDF><cc:Work
       rdf:about=""><dc:format>image/svg+xml</dc:format><dc:type
         rdf:resource="http://purl.org/dc/dcmitype/StillImage" /><dc:title></dc:title></cc:Work></rdf:RDF></metadata><sodipodi:namedview
   pagecolor="#ffffff"
   bordercolor="#666666"
   borderopacity="1"
   objecttolerance="10"
   gridtolerance="10"
   guidetolerance="10"
   inkscape:pageopacity="0"
   inkscape:pageshadow="2"
   inkscape:window-width="1920"
   inkscape:window-height="1017"
   id="namedview19"
   showgrid="false"
   inkscape:zoom="0.94646077"
   inkscape:cx="-23.732696"
   inkscape:cy="124.675"
   inkscape:window-x="-8"
   inkscape:window-y="-8"
   inkscape:window-maximized="1"
   inkscape:current-layer="svg17" />
<style
   type="text/css"
   id="style2">
    .st0{fill:#FFFFFF;}
</style>
<defs
   id="defs4">
</defs>
<g
   id="KkkD7I_2_"
   transform="translate(16.896824,0.00183738)">
    <g
   id="g14">
        <path
   class="st0"
   d="m 0,164.93 c 0.44,-1.95 1.7,-3.36 3.03,-4.77 1.53,-1.61 2.89,-3.39 4.32,-5.1 0.15,-0.18 0.26,-0.41 0.44,-0.57 4.26,-3.97 7.15,-9.05 10.88,-13.44 2.6,-3.08 5.42,-5.98 8.19,-8.9 1.18,-1.24 2.73,-1.65 4.45,-1.76 1.79,-0.12 3.57,-0.41 5.32,0.21 0.63,0.22 1.39,0.39 1.83,0.84 2.74,2.81 5.82,5.39 6.55,9.61 0.29,1.68 0.23,3.09 -1.06,4.4 -1.76,1.79 -3.36,3.75 -5.07,5.6 -1.7,1.85 -3.76,3.18 -6.16,3.96 -0.11,0.04 -0.24,0.06 -0.34,0.12 -5.5,3.38 -11.97,4.37 -17.71,7.17 -1.11,0.54 -2.23,1.07 -3.4,1.46 -0.78,0.26 -1.71,0.1 -2.46,0.4 -2.31,0.92 -4.84,1.42 -6.62,3.44 -0.5,0.57 -1.28,0.33 -1.71,-0.37 C 0.28,166.9 0.16,166.51 0.01,166.15 0,165.73 0,165.33 0,164.93 Z"
   id="path6"
   inkscape:connector-curvature="0"
   style="fill:#ffffff" />
        <path
   class="st0"
   d="m 121.9,48.07 c -0.46,-1.23 -0.84,-2.25 -1.22,-3.27 1.13,-0.65 2.6,-0.52 3.7,0.52 0.55,0.51 1.02,1.13 1.42,1.77 2.79,4.41 6.08,8.41 9.56,12.29 1.61,1.8 2.85,3.94 4.32,5.87 0.79,1.03 1.72,1.95 2.61,2.91 0.46,0.49 1.02,0.91 1.44,1.43 0.84,1.02 1.64,2.07 2.41,3.14 1.16,1.62 2.21,3.18 4.56,3.4 2.02,0.19 3.91,0.44 5.86,-0.43 1.33,-0.6 2.8,-0.95 4.24,-1.24 2.01,-0.42 3.27,-1.54 3.86,-3.49 0.76,-2.47 1.14,-4.98 0.77,-7.57 -0.13,-0.95 -0.08,-1.92 -0.23,-2.86 -0.19,-1.21 -0.29,-2.51 -0.81,-3.59 -1.58,-3.32 -3.8,-6.12 -6.8,-8.36 -3.26,-2.44 -6.28,-5.2 -9.42,-7.79 -2.71,-2.24 -5.37,-4.49 -7.59,-7.29 -1.23,-1.56 -3.05,-2.66 -4.63,-3.93 -0.99,-0.79 -2.03,-1.51 -3.16,-2.35 1.18,-0.81 1.32,-1.72 0.56,-2.76 1,-0.78 1.94,-0.54 2.83,-0.04 1.96,1.08 3.92,2.16 5.84,3.31 6.87,4.1 14.04,7.4 21.93,9.08 1.58,0.34 3.2,1.13 4.48,2.14 4.11,3.23 8.08,6.65 12.1,10 0.4,0.33 0.77,0.7 1.18,1.02 3.76,2.98 7.54,5.92 11.26,8.94 0.88,0.72 1.61,1.65 2.32,2.57 0.83,1.07 1.6,2.2 2.29,3.37 0.4,0.67 0.68,1.44 0.86,2.21 0.39,1.58 0.73,3.18 1.02,4.78 0.57,3.19 0.92,6.4 0.27,9.63 -0.14,0.69 -0.08,1.42 -0.21,2.12 -0.28,1.52 -0.4,3.12 -0.98,4.52 -0.81,1.94 -1.98,3.73 -3.02,5.57 -0.61,1.08 -1.29,2.11 -1.91,3.18 -2.27,3.86 -5.14,7.21 -8.61,10.04 -1.64,1.34 -3.38,2.55 -5.02,3.9 -5.53,4.54 -12.05,7.32 -18.39,10.44 -0.81,0.4 -1.74,0.6 -2.64,0.78 -2.13,0.44 -3.79,1.7 -5.33,3.08 -0.48,0.43 -0.72,1.36 -0.71,2.05 0.04,1.7 0.64,3.19 1.79,4.57 3.17,3.8 6.18,7.74 9.29,11.6 1.33,1.64 2.82,3.15 4.12,4.82 1.55,1.98 2.97,4.05 4.44,6.08 2.64,3.65 2.75,8.01 3.29,12.2 0.39,3.09 0.3,6.23 0.51,9.34 0.32,4.66 -1.07,8.92 -3,13.05 -1.04,2.24 -2.28,4.4 -3.31,6.65 -0.48,1.03 -0.9,2.19 -0.95,3.31 -0.13,2.75 -1.3,5.11 -2.61,7.39 -1.13,1.97 -2.53,3.79 -3.86,5.64 -0.8,1.11 -1.85,1.09 -2.4,-0.15 -0.33,-0.73 -0.39,-1.72 -0.2,-2.51 0.33,-1.39 0.88,-2.73 1.43,-4.06 1.69,-4.11 2.4,-8.33 1.79,-12.76 -0.12,-0.86 -0.1,-1.76 -0.03,-2.63 0.13,-1.75 -0.32,-3.37 -0.78,-5.04 -1.23,-4.49 -3.79,-8.21 -6.31,-12.02 -1.47,-2.23 -2.64,-4.66 -4.77,-6.38 -0.46,-0.37 -0.91,-0.85 -1.45,-1.03 -2.33,-0.75 -4.69,-1.28 -7.17,-0.62 -3.56,0.95 -6.87,2.43 -9.6,4.92 -2.78,2.54 -4.47,5.82 -5.4,9.45 -0.33,1.3 -0.41,2.67 -0.55,4.02 -0.2,1.82 -0.37,3.64 -0.51,5.46 -0.05,0.75 -0.2,1.62 0.1,2.23 0.92,1.86 0.31,3.66 0.11,5.51 -0.11,0.97 0.04,1.96 0.08,2.94 0.01,0.2 0.14,0.42 0.09,0.58 -0.63,1.84 -0.01,3.63 0.13,5.45 0.1,1.34 -0.01,2.71 -0.17,4.05 -0.37,3.09 -0.76,6.17 -1.26,9.24 -0.31,1.89 -0.8,3.75 -1.24,5.62 -0.38,1.63 -0.94,3.14 -1.89,4.6 -1.02,1.57 -1.55,3.47 -2.26,5.23 -0.75,1.84 -1.46,3.69 -2.18,5.55 -0.46,1.18 -0.91,2.35 -1.34,3.54 -0.26,0.72 -0.16,1.81 -1.29,1.68 -1.03,-0.12 -1.39,-0.99 -1.29,-1.98 0.27,-2.66 0.46,-5.34 0.87,-7.98 0.68,-4.41 1.13,-8.79 0.13,-13.22 -0.17,-0.73 -0.22,-1.64 -1.07,-1.6 -0.56,0.03 -1.23,0.65 -1.59,1.18 -0.58,0.84 -1.01,1.72 -2.21,1.77 -0.95,0.03 -1.63,-0.29 -1.93,-1.25 -0.08,-0.27 -0.16,-0.54 -0.28,-0.79 -0.5,-1.13 -1.23,-1.23 -1.95,-0.25 -0.4,0.54 -0.74,1.14 -1.06,1.74 -0.79,1.51 -2.14,1.92 -3.55,0.93 -0.57,-0.4 -0.94,-1.07 -1.49,-1.51 -0.43,-0.35 -0.98,-0.61 -1.52,-0.75 -0.1,-0.03 -0.58,0.66 -0.58,1.01 0.03,4.87 -1.04,9.72 -0.34,14.6 0.01,0.04 0,0.09 0.01,0.12 1.61,3.19 1.29,6.84 2.45,10.15 0.24,0.69 0.04,1.52 0.04,2.29 0,0.06 -0.09,0.12 -0.22,0.27 -0.33,-0.32 -0.67,-0.58 -0.94,-0.9 -0.87,-1.06 -1.94,-1.72 -3.29,-2.05 -0.55,-0.14 -1.2,-0.59 -1.44,-1.08 -0.92,-1.85 -1.67,-3.78 -2.53,-5.67 -0.33,-0.71 -0.81,-1.35 -1.16,-2.06 -0.69,-1.42 -1.42,-2.84 -1.99,-4.31 -0.58,-1.52 -1.01,-3.1 -1.47,-4.67 -0.2,-0.69 -0.41,-1.39 -0.45,-2.1 -0.41,-6.44 -1.6,-12.76 -3.19,-19 -0.79,-3.09 -0.26,-6.03 0.38,-9 0.55,-2.57 0.35,-4.95 -1.04,-7.27 -0.38,-0.63 -0.35,-1.77 -0.06,-2.48 1.23,-2.99 0.15,-5.75 -0.68,-8.52 -0.16,-0.52 -0.85,-0.92 -1.35,-1.29 -0.98,-0.71 -1.56,-1.58 -1.5,-2.83 0.09,-1.89 -0.85,-3.2 -2.41,-4.11 -1.21,-0.7 -2.4,-1.46 -3.69,-1.99 -3.51,-1.46 -7.01,-0.92 -10.14,0.89 -2.32,1.34 -4.49,3.11 -6.33,5.07 -3.43,3.65 -5.61,8 -6.9,12.93 -1.01,3.83 0.02,7.26 0.74,10.83 0.23,1.17 0.58,2.32 0.83,3.49 0.09,0.43 0.06,0.89 0.09,1.56 -2.07,-0.64 -2.45,-2.7 -4.18,-3.83 -0.03,0.95 -0.22,1.74 -0.04,2.44 0.42,1.58 1.07,3.09 1.53,4.66 0.14,0.47 -0.05,1.04 -0.09,1.56 -0.47,-0.1 -1.02,-0.07 -1.4,-0.32 -4.5,-2.93 -7.6,-6.97 -9.4,-12.02 -0.44,-1.24 -0.99,-2.44 -1.35,-3.71 -0.27,-0.95 -0.38,-1.95 -0.44,-2.94 -0.23,-4.26 -0.47,-8.53 -0.58,-12.8 -0.05,-1.86 0.16,-3.73 0.31,-5.59 0.1,-1.27 0.24,-2.55 0.47,-3.81 0.17,-0.89 0.41,-1.8 0.81,-2.62 2.77,-5.68 6.21,-10.86 11.1,-15 2.47,-2.09 4.74,-4.41 7.11,-6.62 1.45,-1.35 1.74,-3.01 1.61,-4.92 -0.13,-1.73 0,-3.48 0.11,-5.22 0.08,-1.19 0.33,-2.37 0.5,-3.56 0.11,-0.74 -0.17,-1.2 -0.91,-1.45 -1.2,-0.41 -2.35,-1.02 -3.58,-1.31 -1.03,-0.24 -2.14,-0.11 -3.21,-0.19 -5.29,-0.37 -10.19,-2.22 -15.12,-4 -1.68,-0.61 -3.49,-0.87 -5.14,-1.54 -3.32,-1.33 -6.65,-2.7 -9.85,-4.3 -3.63,-1.81 -6.56,-4.5 -8.87,-7.89 -1.05,-1.54 -2.37,-2.9 -3.49,-4.41 C 5.63,103.13 4.79,100.41 4.34,97.59 3.85,94.5 3.77,91.42 4.21,88.28 c 0.43,-3.07 0.51,-6.2 0.61,-9.3 0.14,-4.45 1.99,-8.08 4.69,-11.53 4.47,-5.73 8.64,-11.69 13.02,-17.49 2.44,-3.22 5.38,-5.89 9.25,-7.36 0.89,-0.34 1.71,-0.85 2.54,-1.33 6.26,-3.6 13.13,-5.33 20.14,-6.69 1.34,-0.26 2.66,-0.78 3.92,-1.33 6.06,-2.64 11.51,-6.39 17.25,-9.62 0.8,-0.45 1.65,-0.82 2.5,-1.14 0.41,-0.16 0.88,-0.13 1.33,-0.18 0.07,0.11 0.15,0.21 0.22,0.32 -1.66,2.33 -3.26,4.7 -5,6.96 -1.52,1.96 -3.12,3.86 -4.84,5.64 -2.91,3.02 -6.29,5.46 -10.27,6.86 -3.54,1.24 -6.43,3.24 -8.87,6.08 -2.26,2.63 -4.77,5.06 -7.17,7.57 -1.1,1.16 -2.22,2.3 -3.32,3.47 -0.24,0.26 -0.5,0.55 -0.62,0.87 -2.02,5.38 -3.41,10.79 -0.48,16.32 0.19,0.35 0.34,0.75 0.62,1.01 4.39,4.01 9.39,6.58 15.48,6.65 1.95,0.02 3.3,-0.57 4.05,-2.59 0.84,-2.26 2.03,-4.34 3.56,-6.3 2.25,-2.88 4.22,-6.01 5.45,-9.53 0.51,-1.46 1.31,-2.82 1.9,-4.26 0.63,-1.55 1.02,-3.2 1.75,-4.69 1.89,-3.89 4.53,-7.22 7.82,-10.02 0.88,-0.75 1.87,-0.78 2.81,0.09 1.17,1.08 1.58,2.33 1.05,3.5 -2.06,4.55 -1.08,9.96 2.44,13.46 0.62,0.62 1.25,1.24 1.83,1.9 2.1,2.38 4.82,3.66 7.9,3.78 5.23,0.22 10.38,-0.31 15.08,-2.97 0.21,-0.12 0.44,-0.23 0.67,-0.26 2.5,-0.39 3.94,-1.99 4.75,-4.24 1.03,-2.89 2.35,-5.72 2.29,-8.88 -0.03,-1.27 -0.24,-2.54 -0.4,-3.81 -0.19,-1.53 0.19,-1.87 1.6,-1.42 0.3,0.1 0.62,0.15 0.94,0.2 0.27,0.02 0.55,0.01 1.2,0.05 z m -9.4,125.91 c -1.76,0.65 -2.24,1.27 -2.56,3.2 -0.43,2.66 -1.26,5.11 -3.27,7.03 -0.28,0.27 -0.53,0.61 -0.71,0.96 -0.53,1.06 -1.12,0.88 -1.84,0.2 -1.36,-1.27 -1.85,-2.89 -2.17,-4.67 -0.23,-1.26 -0.8,-2.47 -1.3,-3.67 -0.1,-0.25 -0.56,-0.48 -0.85,-0.48 -0.19,0 -0.52,0.41 -0.55,0.67 -0.14,1.17 -0.33,2.36 -0.26,3.52 0.12,1.94 0.41,3.87 0.65,5.8 0.06,0.51 0.22,1 0.34,1.5 0.32,1.3 0.75,2.58 0.95,3.9 0.62,4.06 1.14,8.13 1.75,12.2 0.18,1.19 1,1.47 1.84,0.69 2.58,-2.42 4.67,-5.17 5.36,-8.73 1.01,-5.24 2.16,-10.46 2.19,-15.85 0.01,-1.35 0.3,-2.69 0.42,-4.04 0.05,-0.68 0.01,-1.37 0.01,-2.23 z m 6.94,-15.62 c 0.78,-0.26 1.32,-0.38 1.81,-0.61 2.19,-1.04 4.4,-2.04 6.53,-3.19 0.8,-0.43 1.55,-1.12 2.06,-1.87 2.05,-3.01 3.16,-6.42 3.84,-9.97 0.12,-0.64 -0.08,-1.34 -0.14,-2.01 -0.66,0.17 -1.4,0.19 -1.96,0.53 -5.84,3.5 -9.3,8.94 -11.98,14.97 -0.24,0.55 -0.11,1.27 -0.16,2.15 z M 74.9,143.16 c -0.89,0.17 -1.2,0.6 -0.85,1.32 0.42,0.86 0.9,1.7 1.45,2.47 1.35,1.88 2.83,3.67 4.13,5.58 2.76,4.06 6.12,5.26 10.68,3.69 1.23,-0.42 1.5,-1.07 0.64,-2.02 -1.28,-1.41 -2.55,-2.89 -4.06,-4.01 -2.69,-2 -5.51,-3.82 -8.36,-5.58 -1.09,-0.67 -2.41,-0.98 -3.63,-1.45 z m 40.86,11.53 c -1.31,-0.09 -1.88,0.27 -1.77,1.26 0.04,0.37 0.49,0.94 0.81,0.98 0.92,0.12 1.19,-0.54 0.96,-2.24 z"
   id="path8"
   inkscape:connector-curvature="0"
   style="fill:#ffffff" />
        <path
   class="st0"
   d="m 215.59,148.12 c 0,0.3 0.02,0.39 0,0.46 -0.25,0.63 -0.5,1.26 -0.75,1.88 -0.55,-0.4 -1.11,-0.77 -1.64,-1.2 -0.3,-0.25 -0.5,-0.64 -0.81,-0.86 -0.71,-0.48 -1.35,-0.49 -1.71,0.45 -0.21,0.56 -0.38,1.14 -0.65,1.67 -0.39,0.76 -1.04,1.09 -1.76,0.5 -1.15,-0.94 -2.49,-1.16 -3.89,-1.38 -2.31,-0.37 -4.6,-0.9 -6.92,-1.25 -2.39,-0.37 -4.82,-0.91 -7.21,-0.84 -5.5,0.16 -10.62,-1.69 -15.9,-2.61 -0.31,-0.05 -0.65,-0.17 -0.87,-0.37 -2.48,-2.18 -5.03,-4.3 -7.38,-6.62 -1.15,-1.13 -1.26,-2.78 -1.13,-4.4 0.1,-1.22 0.11,-2.47 0,-3.69 -0.2,-2.09 0.36,-3.39 2.27,-4.3 2.02,-0.96 4.08,-1.81 6.15,-2.65 0.41,-0.17 0.95,-0.19 1.38,-0.09 4.95,1.13 9.6,2.93 13.68,6.07 7.24,5.56 15.11,10.13 23.22,14.31 0.78,0.4 1.52,0.88 2.22,1.41 1.19,0.92 1.88,2.13 1.7,3.51 z"
   id="path10"
   inkscape:connector-curvature="0"
   style="fill:#ffffff" />
        <path
   class="st0"
   d="m 107.01,52.41 c -0.06,0.43 0,0.92 -0.21,1.26 -1.46,2.47 -3.2,4.53 -6.35,4.93 -2.92,0.37 -6.58,-1.3 -8,-3.88 -1.66,-3.01 -1.85,-6.23 -1.34,-9.55 0.82,-5.41 1.63,-10.82 2.47,-16.22 0.54,-3.47 0.92,-6.97 1.71,-10.38 1.32,-5.73 1.64,-11.73 4.37,-17.11 0.46,-0.91 1.01,-1.67 2.06,-1.41 1.05,0.27 1.39,1.26 1.45,2.26 0.13,2.22 0.12,4.45 0.3,6.67 0.24,2.86 0.51,5.72 0.94,8.56 0.55,3.71 1.19,7.4 1.93,11.07 0.45,2.22 1.47,4.37 1.66,6.6 0.23,2.73 0.76,5.34 1.62,7.92 0.07,0.22 0.03,0.47 0.04,0.71 0.04,1.63 0.08,3.25 0.13,4.88 0.01,0.44 0.11,0.87 0.13,1.31 0.07,1.99 -0.19,2.26 -2.23,2.33 -0.24,0.01 -0.47,0.06 -0.71,0.09 0.03,-0.31 0.19,-0.69 0.07,-0.92 -0.18,-0.34 -0.53,-0.63 -0.86,-0.84 -0.08,-0.05 -0.59,0.3 -0.57,0.38 0.1,0.4 0.25,0.82 0.51,1.12 0.17,0.18 0.58,0.15 0.88,0.22 z"
   id="path12"
   inkscape:connector-curvature="0"
   style="fill:#ffffff" />
    </g>
</g>
</svg>