<?xml version="1.0" encoding="UTF-8" standalone="no"?>
<!-- Generator: Adobe Illustrator 23.0.4, SVG Export Plug-In  -->

<svg
   xmlns:dc="http://purl.org/dc/elements/1.1/"
   xmlns:cc="http://creativecommons.org/ns#"
   xmlns:rdf="http://www.w3.org/1999/02/22-rdf-syntax-ns#"
   xmlns:svg="http://www.w3.org/2000/svg"
   xmlns="http://www.w3.org/2000/svg"
   xmlns:sodipodi="http://sodipodi.sourceforge.net/DTD/sodipodi-0.dtd"
   xmlns:inkscape="http://www.inkscape.org/namespaces/inkscape"
   version="1.1"
   x="0px"
   y="0px"
   width="249.36"
   height="249.36"
   viewBox="0 0 249.35999 249.36"
   xml:space="preserve"
   id="svg21"
   sodipodi:docname="fly.svg"
   inkscape:version="0.92.3 (2405546, 2018-03-11)"><metadata
   id="metadata25"><rdf:RDF><cc:Work
       rdf:about=""><dc:format>image/svg+xml</dc:format><dc:type
         rdf:resource="http://purl.org/dc/dcmitype/StillImage" /><dc:title></dc:title></cc:Work></rdf:RDF></metadata><sodipodi:namedview
   pagecolor="#ffffff"
   bordercolor="#666666"
   borderopacity="1"
   objecttolerance="10"
   gridtolerance="10"
   guidetolerance="10"
   inkscape:pageopacity="0"
   inkscape:pageshadow="2"
   inkscape:window-width="1920"
   inkscape:window-height="1017"
   id="namedview23"
   showgrid="false"
   inkscape:zoom="0.94642284"
   inkscape:cx="-32.247963"
   inkscape:cy="124.68"
   inkscape:window-x="-8"
   inkscape:window-y="-8"
   inkscape:window-maximized="1"
   inkscape:current-layer="svg21" />
<style
   type="text/css"
   id="style2">
    .st0{fill:#FFFFFF;}
</style>
<defs
   id="defs4">
</defs>
<g
   id="Ul1X6r_2_"
   transform="translate(25.39,0.00923879)">
    <g
   id="g18">
        <path
   class="st0"
   d="m 146.88,0 c 1.25,0.15 2.51,0.26 3.75,0.48 0.63,0.11 1.22,0.43 1.79,0.83 -2.25,2.1 -4.67,3.24 -7.71,3 -1.4,-0.11 -2.88,0.08 -4.24,0.44 -2.97,0.79 -5.88,1.79 -8.82,2.7 -0.38,0.12 -0.78,0.32 -1.15,0.27 -2.74,-0.32 -5.25,0.54 -7.66,1.59 -3.61,1.57 -7.42,2.42 -11.18,3.52 -3.74,1.09 -7.34,2.66 -10.99,4.04 -1.71,0.64 -3.44,1.27 -5.11,2 -0.66,0.29 -1.24,0.81 -1.8,1.28 -0.91,0.76 -1.7,1.72 -2.7,2.33 -5.18,3.16 -10.42,6.23 -15.62,9.36 -0.82,0.49 -1.69,1.01 -2.27,1.74 -1.25,1.54 -2.89,2.34 -4.69,2.96 -0.87,0.3 -1.71,0.67 -2.58,0.98 -0.97,0.35 -1.54,1 -1.97,1.94 -0.37,0.81 -0.98,1.54 -1.59,2.21 -0.45,0.49 -1.02,0.91 -1.61,1.24 -5.36,2.98 -8.9,7.82 -12.66,12.42 -0.55,0.68 -0.72,1.65 -1.12,2.47 -0.51,1.05 -0.91,2.23 -1.65,3.09 -1.29,1.5 -1.4,3.09 -0.86,4.82 0.35,1.11 1.39,1.43 2.56,0.81 1.91,-1.01 3.75,-2.13 5.67,-3.11 3.34,-1.71 6.73,-3.32 10.07,-5.02 5.35,-2.71 11.17,-3.41 17.01,-4.08 5.08,-0.58 10.15,-1.31 15.24,-1.8 8.01,-0.77 16.03,-1.19 24.05,-0.11 7.17,0.97 14.4,1.6 21.48,3.01 8.6,1.72 17.02,4.28 25.37,7.04 8.12,2.69 14.99,7.2 21.09,13.08 3.45,3.33 7.07,6.49 10.59,9.75 0.41,0.38 0.68,0.9 1.01,1.36 -0.08,0.13 -0.16,0.26 -0.23,0.4 -0.47,-0.12 -1.01,-0.13 -1.41,-0.37 -3.91,-2.32 -7.83,-4.64 -11.69,-7.04 -2.57,-1.6 -5.11,-3.28 -7.56,-5.06 -2.8,-2.02 -5.66,-3.9 -9.06,-4.78 -0.27,-0.07 -0.53,-0.19 -0.78,-0.3 -1.93,-0.86 -3.89,-1.43 -6.05,-1.65 -2.35,-0.24 -4.78,-0.86 -6.9,-1.87 -1.95,-0.93 -3.86,-1.28 -5.95,-1.55 -2.44,-0.32 -4.78,-1.29 -7.21,-1.72 -5.11,-0.91 -10.26,-1.56 -15.36,-2.51 -4.31,-0.8 -8.62,-1.26 -12.99,-1.1 -1.2,0.04 -2.39,0.16 -3.59,0.22 -3.34,0.16 -6.7,0.19 -10.02,0.51 -2.42,0.23 -4.78,1.09 -7.19,1.23 -6.07,0.33 -11.66,2.6 -17.48,3.92 -1.13,0.26 -2.27,0.5 -3.36,0.88 -1.8,0.61 -3.56,1.32 -5.34,2 -0.97,0.37 -1.95,0.71 -2.89,1.13 -1.52,0.67 -3.09,1.27 -4.5,2.12 -1.85,1.12 -3.57,2.38 -5.85,2.57 -1.19,0.1 -4.21,4.06 -4.1,5.27 0.04,0.39 0.49,0.86 0.87,1.05 0.39,0.2 0.94,0.13 1.41,0.14 5,0.11 10,0.17 14.99,0.35 1.9,0.07 3.79,0.46 5.69,0.67 0.87,0.1 1.75,0.17 2.62,0.14 2.3,-0.08 4.53,0.21 6.71,0.99 1.31,0.47 2.69,0.73 4.04,1.1 7.96,2.23 15.88,4.57 23.3,8.3 2.64,1.33 5.31,2.62 7.84,4.14 2.87,1.73 5.62,3.66 8.36,5.59 1.67,1.17 3.18,2.56 4.83,3.75 6.78,4.86 12.21,11.01 17.01,17.76 0.26,0.37 0.36,0.86 0.54,1.3 -0.12,0.1 -0.24,0.2 -0.36,0.3 -0.43,-0.28 -0.9,-0.52 -1.3,-0.85 -5.5,-4.46 -10.97,-8.95 -16.48,-13.39 -3.96,-3.19 -8.53,-5.29 -13.16,-7.31 -2.71,-1.18 -5.32,-2.58 -8.02,-3.75 -1.79,-0.77 -3.66,-1.37 -5.52,-1.96 -3.96,-1.24 -7.95,-2.41 -11.91,-3.64 -4.37,-1.36 -8.73,-2.77 -13.1,-4.15 -0.34,-0.11 -0.72,-0.23 -1.05,-0.17 -2.57,0.47 -4.98,-0.48 -7.46,-0.73 -1.81,-0.19 -3.66,-0.13 -5.49,-0.04 -2.63,0.13 -5.24,0.37 -7.86,0.6 -0.75,0.06 -1.5,0.2 -2.24,0.36 -1.71,0.37 -3.42,0.76 -5.12,1.18 -0.57,0.14 -1.22,0.3 -1.62,0.68 -0.34,0.33 -0.37,0.98 -0.54,1.49 0.46,0.14 0.94,0.44 1.38,0.4 2.03,-0.22 4.03,-0.63 6.06,-0.79 7.04,-0.56 14.03,-0.6 20.9,1.47 3.57,1.07 7.12,2.15 10.35,4.05 2.85,1.68 6.14,1.97 9.17,3.06 7.32,2.62 14.88,4.58 21.9,8.05 1.57,0.78 3.24,1.36 4.85,2.06 3.45,1.5 6.34,3.71 8.37,6.92 0.36,0.57 0.68,1.18 0.91,1.81 0.5,1.4 0.04,2.32 -1.37,2.81 -0.56,0.19 -1.19,0.22 -1.73,0.46 -0.53,0.23 -1.13,0.54 -1.42,0.99 -0.46,0.7 -0.56,1.63 -1.65,1.83 -0.15,0.03 -0.29,0.86 -0.2,1.26 0.63,3.01 0.14,4.05 -2.74,5.34 -0.99,0.44 -1.46,1.13 -1.53,2.21 -0.27,4.12 -2.63,7.16 -6.63,8.3 -3.04,0.86 -4.46,3.09 -5.29,5.83 -0.5,1.66 0.04,3.23 1.37,4.33 1.6,1.32 3.31,2.5 4.98,3.73 0.41,0.3 0.85,0.56 1.49,0.99 -0.65,0.51 -1.11,1.11 -1.69,1.29 -3.43,1.07 -6.87,2.07 -10.33,3.05 -0.64,0.18 -1.35,0.17 -2.02,0.19 -2.79,0.09 -5.58,0.27 -8.36,0.2 -2.3,-0.06 -4.59,-0.49 -6.9,-0.65 -2.15,-0.14 -4.33,-0.38 -6.44,-0.14 -3.08,0.35 -5.23,-1.01 -7.14,-3.1 -0.43,-0.47 -0.79,-1.01 -1.12,-1.55 -0.78,-1.27 -0.67,-1.82 0.51,-2.75 0.91,-0.72 1.85,-1.4 2.77,-2.11 1.18,-0.9 2.08,-1.96 2.88,-3.28 1.09,-1.79 2.43,-3.51 4.77,-4.06 0.94,-0.22 1.83,-0.97 2.59,-1.64 2.19,-1.93 4.31,-3.94 6.45,-5.92 0.35,-0.33 0.71,-0.64 1.03,-1 1.77,-1.99 1.54,-3.95 -0.76,-5.27 -3.6,-2.07 -7.09,-4.48 -10.93,-5.94 -3.76,-1.44 -7.15,-3.23 -10.27,-5.7 -0.84,-0.66 -2.04,-0.86 -3.05,-1.32 -1.33,-0.6 -2.74,-1.11 -3.95,-1.9 -5.04,-3.31 -9.91,-6.87 -15.98,-8.23 -1.1,-0.25 -2.21,-1.17 -2.97,-2.08 -2.88,-3.46 -7.23,-4.94 -11.49,-3.37 -2.72,1 -5.26,2.49 -7.9,3.72 -0.81,0.38 -1.76,0.49 -2.55,0.9 -0.66,0.34 -1.31,0.84 -1.74,1.44 -0.62,0.85 -1.33,1 -1.96,0.12 -0.74,-1.04 -0.76,-2.17 -0.12,-3.27 1.18,-2.04 2.4,-4.06 3.58,-6.09 0.24,-0.41 0.51,-0.83 0.63,-1.28 0.26,-0.99 -0.32,-1.89 -1.32,-1.98 -0.94,-0.08 -1.32,-0.59 -1.51,-1.42 -0.68,-2.94 -0.53,-5.82 0.77,-8.55 3.81,-8.04 7.15,-16.33 12.37,-23.64 1.46,-2.05 2.89,-4.12 4.4,-6.13 1.84,-2.45 3.62,-4.96 5.65,-7.24 5.63,-6.34 12.15,-11.69 19.05,-16.58 0.67,-0.48 1.2,-1.15 1.81,-1.71 0.76,-0.7 1.47,-1.5 2.34,-2.04 5.9,-3.6 11.82,-7.16 17.76,-10.69 1.82,-1.08 3.75,-1.98 5.55,-3.09 1.49,-0.91 2.92,-1.93 4.26,-3.04 1.54,-1.28 3.28,-2 5.23,-2.18 3.5,-0.32 6.77,-1.45 10.08,-2.52 2.91,-0.94 5.93,-1.57 8.89,-2.37 1.57,-0.43 3.16,-0.84 4.68,-1.42 2.64,-1 5.32,-1.67 8.16,-1.77 1.3,-0.04 2.59,-0.41 3.89,-0.6 2.24,-0.32 4.49,-0.62 6.74,-0.93 0.74,-0.1 1.48,-0.19 2.22,-0.28 C 144.8,0 145.84,0 146.88,0 Z m -44.52,116.61 c -0.15,-1.17 -0.89,-1.25 -1.54,-1.22 -0.28,0.01 -0.54,0.5 -0.81,0.77 0.49,0.37 0.93,0.85 1.48,1.07 0.2,0.08 0.65,-0.45 0.87,-0.62 z"
   id="path6"
   inkscape:connector-curvature="0"
   style="fill:#ffffff" />
        <path
   class="st0"
   d="m 0,196.8 c 0.74,-0.66 1.48,-1.33 2.23,-1.98 2.65,-2.3 5.26,-4.55 7.31,-7.52 2.81,-4.07 6.07,-7.83 9.17,-11.69 1.27,-1.58 2.63,-3.1 3.91,-4.67 2,-2.44 4.06,-4.84 5.94,-7.37 3.11,-4.19 6.48,-8.14 10.29,-11.68 4.27,-3.97 7.6,-8.62 10.42,-13.67 0.66,-1.18 1.39,-2.35 2.28,-3.36 0.46,-0.53 1.31,-0.78 2.04,-0.99 1.29,-0.37 2.62,-0.61 3.94,-0.9 0.46,-0.1 0.92,-0.29 1.38,-0.28 1.68,0.05 3.36,0.13 5.03,0.28 0.49,0.04 1.06,0.21 1.42,0.52 1.73,1.52 3.12,3.24 3.8,5.54 1.29,4.36 0.61,8.49 -1.33,12.43 -0.59,1.19 -1.75,2.16 -2.8,3.06 -2.52,2.16 -5.17,4.16 -7.67,6.34 -1.5,1.31 -2.81,2.83 -4.2,4.26 -0.39,0.4 -0.75,0.83 -1.18,1.19 -9.39,7.81 -19.46,14.69 -29.47,21.64 -2.24,1.56 -4.36,3.18 -6.34,5.01 -0.73,0.67 -1.43,0.8 -2.4,0.49 -0.59,-0.2 -1.43,-0.15 -1.99,0.13 -2.85,1.44 -5.64,3.01 -8.46,4.5 -1.85,0.98 -1.95,0.94 -3.32,-0.56 0,-0.24 0,-0.48 0,-0.72 z"
   id="path8"
   inkscape:connector-curvature="0"
   style="fill:#ffffff" />
        <path
   class="st0"
   d="m 171.54,58.46 c -0.71,-0.27 -1.33,-0.51 -1.97,-0.76 -0.13,0.25 -0.23,0.38 -0.27,0.53 -0.46,1.69 -0.45,1.67 -2.02,0.96 -8.49,-3.82 -17.45,-6.12 -26.52,-8.06 -2.81,-0.6 -5.6,-1.33 -8.43,-1.78 -5.04,-0.8 -10.11,-1.44 -15.17,-2.1 -1.54,-0.2 -3.11,-0.42 -4.65,-0.34 -5.62,0.26 -11.23,0.66 -16.85,0.97 -1.87,0.1 -3.76,0.29 -5.6,0.09 -2.57,-0.28 -4.99,0.27 -7.47,0.72 -4.04,0.73 -8.11,1.38 -12.19,1.86 -3.38,0.4 -6.51,1.56 -9.69,2.59 -1.06,0.34 -2.13,0.72 -3.22,0.92 -0.51,0.09 -1.33,-0.02 -1.59,-0.36 -0.26,-0.34 -0.21,-1.24 0.08,-1.61 1.06,-1.39 2.09,-2.91 3.46,-3.93 5.65,-4.18 11.18,-8.61 17.21,-12.18 8.27,-4.88 16.45,-10.03 25.41,-13.64 3.58,-1.44 7.27,-2.62 10.9,-3.96 5.8,-2.15 11.66,-4.14 17.7,-5.53 2.8,-0.64 5.58,-1.34 8.38,-1.99 0.17,-0.04 0.38,0.04 0.81,0.1 -0.53,1.06 -0.94,2.04 -1.5,2.93 -2.75,4.4 -3.02,9 -0.39,13.38 2.21,3.69 4.39,7.58 8.42,9.78 5.54,5.38 12.45,8.77 18.89,12.82 2.57,1.61 4.62,3.65 6.52,5.93 0.84,0.97 0.74,1.58 -0.25,2.66 z"
   id="path10"
   inkscape:connector-curvature="0"
   style="fill:#ffffff" />
        <path
   class="st0"
   d="m 64.68,75.59 c 1.34,-2.31 3.14,-3.47 5.54,-3.92 2.22,-0.42 4.45,-0.99 6.55,-1.81 4.37,-1.72 8.93,-2.41 13.55,-2.87 4.69,-0.46 9.4,-0.79 14.1,-1.2 3.14,-0.27 6.26,-0.79 9.4,-0.83 4.11,-0.05 8.25,0.01 12.32,0.46 7.58,0.84 15.21,1.61 22.67,3.12 8.07,1.63 16.21,3.4 23.6,7.29 2.73,1.44 5.19,3.42 7.66,5.29 1.36,1.03 1.65,2.5 1.11,3.74 -0.46,1.07 -1.17,1.44 -2.3,1.09 -1.35,-0.43 -2.67,-0.4 -3.99,0.08 -0.3,0.11 -0.62,0.26 -0.92,0.23 -2.93,-0.25 -5.23,1.75 -7.97,2.16 -2.72,0.41 -5.45,0.82 -8.16,1.3 -1.37,0.25 -2.71,0.67 -4.06,1.02 -0.23,0.06 -0.52,0.1 -0.67,0.25 -1.54,1.59 -3.74,1.92 -5.56,2.96 -2.07,1.19 -3.97,2.66 -5.9,4.08 -0.49,0.36 -0.83,0.97 -1.17,1.5 -0.89,1.36 -1.72,2.76 -2.65,4.08 -0.14,0.2 -0.8,0.26 -1.06,0.11 -0.43,-0.25 -0.76,-0.7 -1.08,-1.11 -2.88,-3.74 -6.48,-6.74 -10.12,-9.67 -1.44,-1.16 -3.19,-1.93 -4.77,-2.93 -4.48,-2.83 -9.39,-4.76 -14.21,-6.87 -0.51,-0.22 -1.03,-0.46 -1.49,-0.77 -4.77,-3.16 -10.25,-3.96 -15.73,-4.35 -5.38,-0.38 -10.58,-1.6 -15.84,-2.54 -1.24,-0.22 -2.37,-0.38 -3.71,-0.02 -1.62,0.45 -3.42,0.13 -5.14,0.13 z m 13.84,0.23 c 0.35,-0.71 0.67,-1.22 0.84,-1.77 0.04,-0.13 -0.43,-0.6 -0.62,-0.57 -0.52,0.06 -1.02,0.31 -1.63,0.52 0.28,0.41 0.38,0.58 0.5,0.73 0.21,0.28 0.45,0.54 0.91,1.09 z m 32.82,5.64 c -0.04,0.11 -0.08,0.22 -0.12,0.34 1.02,0.37 2.04,0.74 3.33,1.2 -0.51,-1.43 -1.27,-1.71 -3.21,-1.54 z m 27.09,15.52 c -0.23,0.04 -0.45,0.09 -0.68,0.13 0.11,0.63 0.23,1.26 0.34,1.89 0.23,-0.09 0.67,-0.21 0.67,-0.27 -0.06,-0.59 -0.2,-1.17 -0.33,-1.75 z"
   id="path12"
   inkscape:connector-curvature="0"
   style="fill:#ffffff" />
        <path
   class="st0"
   d="m 77.41,168.16 c 1.33,-0.41 2.31,-0.72 3.3,-1.01 0.26,-0.08 0.56,-0.12 0.83,-0.09 2.17,0.21 4.34,0.43 6.5,0.67 0.47,0.05 0.97,0.13 1.4,0.32 3.27,1.45 6.58,1.01 9.86,0.12 2.46,-0.67 4.87,-1.54 7.31,-2.32 2.16,-0.69 3.23,-0.02 3.35,2.26 0.06,1.06 -0.11,2.14 -0.23,3.2 -0.4,3.57 -0.91,7.13 -1.2,10.71 -0.25,3.02 -0.08,6.09 -0.41,9.1 -0.35,3.25 -1.06,6.46 -1.62,9.68 -0.06,0.35 -0.18,0.71 -0.17,1.06 0.2,5.73 -1.73,11.05 -3.05,16.51 -0.77,3.15 -0.83,6.47 -1.21,9.72 -0.17,1.51 -0.39,3.01 -0.5,4.52 -0.21,2.86 -0.26,5.74 -0.57,8.6 -0.25,2.24 -0.72,4.47 -1.24,6.67 -0.18,0.76 -0.62,1.64 -1.75,1.43 -1.96,-0.36 -3.09,-1.22 -3.21,-2.41 -0.32,-3.09 -0.63,-6.17 -0.95,-9.26 -0.02,-0.16 -0.05,-0.31 -0.08,-0.47 -0.79,-3.74 -1.86,-7.45 -2.33,-11.23 -0.76,-6.11 -2.9,-11.86 -4.11,-17.84 -0.57,-2.81 -1.18,-5.59 -2.05,-8.35 -0.94,-2.98 -1.82,-6.18 -1.69,-9.24 0.14,-3.39 -0.16,-6.55 -1.25,-9.7 -0.36,-1.03 -0.4,-2.17 -1.35,-2.98 -0.32,-0.27 -0.47,-0.84 -0.54,-1.3 -0.48,-2.92 -0.48,-6 -3.04,-8.37 z"
   id="path14"
   inkscape:connector-curvature="0"
   style="fill:#ffffff" />
        <path
   class="st0"
   d="m 137.09,135.59 c 1.62,0.46 3.59,0.76 5.32,1.57 3.4,1.57 6.39,3.74 8.71,6.78 0.86,1.13 2.1,1.96 3.13,2.96 1.77,1.73 3.48,3.52 5.29,5.21 1.3,1.22 2.68,2.37 4.1,3.46 1.68,1.28 3.49,2.39 5.14,3.71 3,2.39 5.98,4.82 8.85,7.36 1.97,1.74 3.71,3.73 5.62,5.54 3.64,3.46 6.64,7.46 9.61,11.47 1.57,2.11 2.93,4.38 4.38,6.58 0.42,0.63 0.61,1.4 -0.06,1.8 -0.37,0.22 -1.13,-0.08 -1.67,-0.27 -0.7,-0.25 -1.34,-0.69 -2.05,-0.94 -1.51,-0.52 -3.09,-0.85 -4.54,-1.49 -1.33,-0.59 -2.53,-1.48 -3.76,-2.27 -0.4,-0.26 -0.7,-0.67 -1.11,-0.91 -4.91,-2.98 -9.8,-6 -14.76,-8.9 -2.79,-1.63 -5.7,-3.06 -8.53,-4.61 -7.77,-4.27 -15.52,-8.55 -23.29,-12.83 -1.52,-0.84 -3.11,-1.52 -4.7,-2.23 -2.86,-1.26 -5.6,-3.01 -6.62,-6.33 -0.53,-1.72 -1.01,-3.45 -1.46,-5.18 -0.09,-0.36 -0.03,-0.79 0.06,-1.16 1.19,-4.77 5.23,-8.29 10.38,-9.05 0.56,-0.1 1.12,-0.16 1.96,-0.27 z"
   id="path16"
   inkscape:connector-curvature="0"
   style="fill:#ffffff" />
    </g>
</g>
</svg>