<?xml version="1.0" encoding="UTF-8" standalone="no"?>
<!-- Generator: Adobe Illustrator 24.0.0, SVG Export Plug-In  -->

<svg
   xmlns:dc="http://purl.org/dc/elements/1.1/"
   xmlns:cc="http://creativecommons.org/ns#"
   xmlns:rdf="http://www.w3.org/1999/02/22-rdf-syntax-ns#"
   xmlns:svg="http://www.w3.org/2000/svg"
   xmlns="http://www.w3.org/2000/svg"
   xmlns:sodipodi="http://sodipodi.sourceforge.net/DTD/sodipodi-0.dtd"
   xmlns:inkscape="http://www.inkscape.org/namespaces/inkscape"
   version="1.1"
   x="0px"
   y="0px"
   width="616.70001"
   height="616.70001"
   viewBox="0 0 616.70002 616.7"
   xml:space="preserve"
   id="svg24"
   sodipodi:docname="priest.svg"
   inkscape:version="0.92.3 (2405546, 2018-03-11)"><metadata
   id="metadata28"><rdf:RDF><cc:Work
       rdf:about=""><dc:format>image/svg+xml</dc:format><dc:type
         rdf:resource="http://purl.org/dc/dcmitype/StillImage" /><dc:title></dc:title></cc:Work></rdf:RDF></metadata><sodipodi:namedview
   pagecolor="#ffffff"
   bordercolor="#666666"
   borderopacity="1"
   objecttolerance="10"
   gridtolerance="10"
   guidetolerance="10"
   inkscape:pageopacity="0"
   inkscape:pageshadow="2"
   inkscape:window-width="1920"
   inkscape:window-height="1017"
   id="namedview26"
   showgrid="false"
   inkscape:zoom="0.38268201"
   inkscape:cx="-135.88539"
   inkscape:cy="308.35001"
   inkscape:window-x="-8"
   inkscape:window-y="-8"
   inkscape:window-maximized="1"
   inkscape:current-layer="svg24" />
<style
   type="text/css"
   id="style2">
    .st0{fill:#FFFFFF;}
</style>
<defs
   id="defs4">
</defs>
<g
   id="g22"
   transform="translate(118.82066,0.22032746)">
    <path
   class="st0"
   d="m 114.9,596.2 c 4.9,-20.6 10.4,-40.7 14.3,-61.2 1.7,-9.3 0.2,-19.2 -0.2,-28.8 -0.1,-3.8 -0.2,-7.9 -1.7,-11.2 -2.9,-6.1 -6.8,-11.8 -10.6,-17.4 -2,-3 -4.7,-5.6 -7.3,-8.1 -7.8,-7.6 -16.9,-7.6 -26.6,-4.3 -9.7,3.4 -20.5,-0.8 -23.9,-9.7 -1.2,-3.1 -0.9,-6.8 -0.9,-10.3 0.2,-13.6 -2.6,-26.5 -8,-38.9 -1,-2.4 -2.2,-4.9 -3.9,-6.9 -10,-11.6 -14.7,-25.1 -15.3,-40.4 -0.2,-6.7 -1.5,-13.4 -1.9,-20.2 -0.1,-2.2 0.4,-4.7 1.3,-6.7 2.5,-5.2 5.3,-10.3 8.2,-15.3 0.8,-1.4 2.5,-2.4 4.6,-4.3 0,-5 -0.2,-11.1 0,-17.3 0.3,-7.1 1.2,-14.2 1.2,-21.3 0,-4.7 -1,-9.5 -1.6,-14.4 2.2,1.7 4.5,3.5 7,5.2 3.4,2.4 6.9,3.9 11.5,3.2 3.4,-0.6 7.1,0.6 10.6,1.5 17.5,4.2 35.4,2.9 53.1,3.2 6.1,0.1 12.2,1.3 18.3,1.5 2.9,0.1 5.9,-1 8.9,-1.2 2.5,-0.2 5.1,0.1 7.6,0.2 0,0.5 0,1.1 0,1.6 -1.1,0.4 -2.2,0.8 -4.1,1.4 0.9,0.5 1.4,1.1 2,1.2 5.3,1 10.6,2.3 16,2.8 4.1,0.4 8.3,-0.2 12.4,-0.7 7.3,-0.9 14.7,-2 22,-2.9 2.6,-0.3 5.3,-0.5 7.9,-0.7 10.7,-0.8 21.4,-1.8 32.1,-2.4 6,-0.4 12.2,-0.8 18.2,-0.1 12.6,1.5 24.9,0.8 37.3,-2.1 20.8,-4.8 42.2,-7.5 61.9,-16.2 3.5,3.3 4.8,13.2 2.8,18.6 -0.8,2.1 -1.1,4.4 -1.6,6.6 -1.1,4.7 -2.8,9.4 -3,14.2 -0.4,11.8 0.5,24.4 8.2,33.4 11.2,13.3 7.8,25.7 1.7,38.9 -7.9,17.3 -16.3,34.5 -23.7,52.1 -3.3,7.9 -4.6,16.7 -7,25 -1.3,4.4 -2.9,8.7 -4.6,13 -1.3,3.3 -3.9,3.2 -7,2.4 -5.6,-1.4 -11.3,-3.1 -16.9,-3 -9.9,0.2 -18.2,5.2 -23.8,13.1 -2.5,3.4 -2.1,8.8 -3.7,13 -3.7,10.1 -2,20.4 -1.4,30.6 1.3,23.5 8.3,45.8 15.7,67.9 0.8,2.5 1,4.2 -1.3,6 -8.8,6.8 -17.3,13.8 -26.1,20.4 -2.3,1.7 -5.6,2 -8.2,3.4 -12,6.7 -25,5.4 -37.9,5.4 -13,0 -26,0.7 -38.9,-0.2 -10,-0.7 -20.1,-2.5 -29.7,-5.2 -14.5,-4.1 -28.6,-9.4 -42.9,-14.3 -0.7,0.3 -1.2,-0.2 -1.1,-0.1 z M 310.6,365.4 c -0.3,0 -0.7,-0.1 -1,-0.1 0,-3.5 0.1,-7 0,-10.5 -0.3,-11.3 -8.4,-18.2 -19.5,-16.3 -6.2,1.1 -12.3,2.6 -18.3,4.4 -10.7,3.3 -20.9,7.8 -28.2,16.9 -5.2,6.4 -4.4,13.9 -3.3,21.4 0.2,1.1 1.4,2.3 2.4,3 2.8,2 5.8,3.9 8.8,5.6 11,6.3 23.4,6 35.4,6.6 5.4,0.3 11.2,-2.5 16.3,-4.9 3.9,-1.8 5.4,-5.6 5.2,-10.5 -0.2,-5.2 1.4,-10.4 2.2,-15.6 z m -188.8,32 c 0,0 0,0 0,0 0.8,-0.1 1.7,-0.2 2.5,-0.1 12.5,1.8 23,-3.9 33.8,-8.5 1.4,-0.6 3.1,-1.8 3.7,-3.1 3.7,-7.6 4.7,-23.9 -6.7,-29.7 -7.2,-3.7 -14.4,-7.6 -21.9,-10.6 -4.9,-2 -10.4,-3.1 -15.7,-3.5 -4,-0.3 -8.2,1.3 -12.3,1.4 -3.5,0.1 -5.2,1.9 -7.1,4.6 -6.7,9.7 -7.1,20.5 -4.6,31.1 2.9,12.1 9.1,20.2 22.3,18.5 2,-0.3 4,-0.1 6,-0.1 z m 81.7,70 c 1.4,1.8 2,3.4 3.2,4.2 11.1,7.2 18.7,6.8 22.6,-3.8 1.5,-4.2 0.9,-9.7 -0.2,-14.2 -2.2,-9.5 -5.5,-18.7 -8,-28.1 -2.4,-9.3 -9.8,-12.4 -17.7,-14.7 -3.7,-1.1 -17.1,6.2 -19.3,9.7 -9.1,15.1 -12.5,31.6 -11.6,49.1 0.2,5.1 2.4,7.1 7.6,7.1 8.5,0.1 16.6,-1 23.4,-9.3 z"
   id="path6"
   inkscape:connector-curvature="0"
   style="fill:#ffffff" />
    <path
   class="st0"
   d="m 19.2,176.9 c 5.7,0 11.3,-0.1 17,0.1 1.2,0 2.4,0.8 3.6,1.2 3.5,1.2 6.9,2.4 10.4,3.7 1.2,0.4 2.3,1 3.5,1.5 2.8,1.2 5.7,2.2 8.5,3.5 1.3,0.7 2.4,1.9 4.6,2.5 C 64.1,185 62.1,179.9 58.7,176.2 50.2,167 41.9,158 37.8,146 36.7,142.6 36.1,139 35.9,135.4 35,118.6 31.1,102.9 19.1,90.4 13.4,84.4 7,79.1 1.2,72.6 c 6.6,3.2 13.6,5.9 19.8,9.6 10.2,6.2 20.8,12.2 27.4,22.7 4.8,7.7 9.5,15.6 13.5,23.7 4.5,9.2 10.8,16.7 19.5,22.1 2,1.2 4.6,1.7 7,1.9 0.7,0.1 2.4,-1.9 2.3,-2.8 -0.6,-8.5 -1.1,-17.1 -2.4,-25.6 -0.8,-5 -3.1,-9.7 -4.6,-14.1 6.7,1.4 11,7.3 14.6,14 0.2,0.4 0.4,0.9 0.5,1.4 1.2,3.6 2.8,7 7.1,6.9 2.7,-0.1 6.1,-8 5.3,-11.3 -1.8,-8 -5.8,-13.3 -13.9,-16.9 C 81.6,97.1 66.6,88.5 51.4,80.4 32.7,70.6 17.5,56.9 6.2,39.2 -1.8,26.8 -1.4,13.6 3.7,0 4.1,1.5 4.7,2.9 4.8,4.4 7,21.4 16.1,33 31.5,40.1 55.4,51 79.1,62.2 102.9,73.2 c 8.5,4 17.1,8.1 27.1,7.4 1.9,-8.8 -3.9,-14 -9.2,-18.5 -3.6,-3.1 -9.1,-4 -13.7,-6 -6.4,-2.7 -11.9,-6.2 -15.4,-12.6 -2.1,-3.9 -7.5,-5.6 -8,-10.9 -0.5,-4.8 -1,-9.6 -1.4,-14.3 0.4,-0.1 0.9,-0.2 1.3,-0.2 1.3,2.3 2.3,4.9 4,6.9 1.7,2 4.3,3.2 6.1,5 4.5,4.6 10.1,5.9 16.2,6.4 4,0.3 8.4,0.5 12,2.2 9.6,4.4 20.6,6 27.5,15.7 2.5,3.6 7.9,5 11.2,8.1 7.6,7.4 14.9,15.2 22.1,23 3.2,3.4 6.7,5.2 11.4,4.7 5.8,-0.5 7.8,-3.1 5.2,-8.7 -2.2,-4.8 -4.8,-9.5 -8,-13.7 -5.2,-6.9 -11.4,-13 -19.6,-16.7 8.5,1 17.3,1.2 25.5,3.3 7.9,2.1 14.5,7.5 19.4,14.2 9.8,13.6 18.9,27.7 28.8,41.1 2.8,3.8 7.2,7.1 11.6,8.7 7.7,2.9 14.7,-3.9 12.3,-12 -2.3,-7.6 -6.1,-14.8 -9,-21.7 13.4,5.7 20.9,17.4 26.3,31.2 5.8,14.7 -1.9,27.9 -4.6,41.6 5.4,1.2 13.6,-2.4 16.9,-5.7 7.7,-7.6 8.2,-17.2 8.4,-27 0,-2 0.8,-4 1.2,-5.9 0.5,0 1.1,-0.1 1.6,-0.1 0.9,2.4 1.8,4.8 2.8,7.1 6.2,13.2 5.6,27.3 4.6,41.1 -0.4,5.1 -4.6,10 -7.1,15 -0.9,1.7 -1.8,3.5 -3.1,6 6.2,0 11,-2.2 15,-5.1 6.2,-4.5 9.7,-11 10.4,-18.9 0.2,-2.2 2.1,-4.2 3.5,-6.9 7.3,10.8 6.5,21.2 5.4,31.9 -1.1,11.5 -10,17.7 -14.9,25.7 2.1,3.6 3.9,7.3 6.3,10.5 1.2,1.6 3.4,2.3 5.5,3.7 -2.1,0.6 -3.7,1.4 -5.4,1.4 -3.3,0.1 -6.8,0.3 -9.9,-0.5 -3.8,-0.9 -7.3,-2.8 -10.9,-4.4 -1.3,-0.6 -2.9,-1.4 -3.5,-2.6 -2.2,-4 -5.7,-4.9 -9.7,-5.9 -4.8,-1.2 -9.4,-3.6 -14.7,-5.7 3.3,-2.3 5.4,-3.7 6.8,-4.7 -4.2,-2.2 -8.4,-3.9 -12.1,-6.5 -5.3,-3.7 -0.4,-8.4 -0.1,-13.2 -8.6,2.1 -12.2,-5.1 -17.6,-8.7 -8.3,-5.5 -16.8,-9.7 -26.9,-10.2 -2,-0.1 -4.1,-1.2 -6,-2.1 -9.7,-4.4 -12.3,-4.9 -24.4,-4 2.8,1.1 4.6,1.8 6.4,2.5 -0.1,0.3 -0.1,0.6 -0.2,0.9 -3.1,-0.5 -6.2,-1 -9.3,-1.4 -4.3,-0.6 -8.8,-1.9 -13,-1.5 -14.8,1.1 -28.8,5.7 -40.5,14.6 -5.2,3.9 -9.9,3.8 -15.3,4.5 -2.7,0.3 -5.7,0.9 -7.9,2.3 -8,4.9 -15.8,10.2 -23.5,15.6 -3.1,2.2 -4.3,5.1 -4.4,9.5 -0.1,4.1 -3.4,8.3 -5.7,12.3 -2,3.5 -4.6,6.8 -6.9,10.1 -4.2,5.9 -7.8,12.4 -15.6,14.4 -0.9,0.2 -1.5,1.4 -2.4,1.7 -3.3,1.1 -7,3.4 -10,2.7 -4.5,-1 -6.4,-5.5 -6.2,-10.2 0.3,-6.9 -3,-12.5 -6.7,-17.8 -3.2,-4.6 -7.3,-8.7 -11.4,-13.4 5,-2.2 9.6,-1.9 13.4,0.1 3.9,2 7.1,5.4 11.2,7.7 -3.7,-7 -7.1,-14.2 -11,-21.1 -3.9,-6.7 -8.8,-12.4 -16.7,-14.6 -3.1,-0.9 -6.1,-2 -9.1,-3.1 -0.2,0 -0.1,-0.3 -0.1,-0.6 z"
   id="path8"
   inkscape:connector-curvature="0"
   style="fill:#ffffff" />
    <path
   class="st0"
   d="m 100.6,230.8 c 7.2,-1.6 14.4,-3.2 21.7,-4.8 9,-1.9 17.6,-2.3 26,3.4 3.4,2.3 8.4,2.2 12.7,3.2 0.2,-0.5 0.3,-1 0.5,-1.6 -1.9,-1.5 -4.2,-2.7 -5.4,-4.6 -0.9,-1.4 -1.3,-4.8 -0.6,-5.3 2.8,-2 6.2,-3.2 9.4,-4.6 4,-1.8 9.3,-0.3 12.1,-5 0.2,-0.4 0.7,-0.8 1.1,-0.9 10.8,-2.1 21.9,-5.2 32.7,-2.3 5.6,1.5 10.1,7 15.4,10.8 -3,4.6 -5.4,8.4 -7.9,12.2 0.2,0.3 0.3,0.6 0.5,0.9 1.8,-1 3.6,-1.9 5.3,-3 3.7,-2.4 7.1,-5.3 11.1,-7.3 13.1,-6.6 27,-5.5 41,-4 4.8,0.5 9.8,0.3 14.4,1.5 4.5,1.2 8.6,3.7 12.8,5.7 0.7,0.3 1.4,1.3 2.1,1.3 7.7,-0.2 13.2,5.1 19.6,7.8 6.5,2.8 11.4,7.7 14.9,14.8 -3.6,1.4 -6.7,2.9 -10,3.8 -8.8,2.3 -17.6,4.3 -26.5,6.3 -2.1,0.5 -4.3,0.1 -6.4,0.4 -5.3,0.9 -10.7,2 -16,3 -6.3,1.1 -12.3,4 -18.9,-0.2 -3,-1.9 -7.7,-1.1 -11.5,-2 -2.3,-0.6 -4.6,-1.8 -6.7,-3 -3.2,-1.8 -6.1,-4.4 -9.5,-5.7 -5.6,-2.1 -11.6,-3.5 -17.4,-5.2 -0.6,-0.2 -1.3,-0.7 -1.4,-1.2 -1.2,-4.3 -4.6,-3.6 -7.7,-3.7 -4.3,-0.2 -8.8,-1 -10,5.1 -0.1,0.4 -1.2,0.7 -2.4,0.5 1.2,-1.5 2.3,-3 4.7,-6 -9.2,-0.7 -17,-1.3 -24.8,-1.9 0,0.3 0,0.6 -0.1,0.9 5.9,3 11.9,6 18.5,9.4 -2.3,2.7 -4.1,4.7 -6.2,7.1 17.7,-5.5 33.1,1.5 48.9,6.8 -15,2.1 -27.8,12.3 -43.8,10.5 -4.9,-0.5 -10,1.6 -15.1,2.5 -1.4,0.3 -2.9,0.4 -5.6,0.8 5.7,-4.5 2.2,-8.1 0.1,-11.1 -1,-1.4 -4.5,-1.4 -6.9,-1.3 -12.4,0.4 -24.9,1.6 -37.3,1.2 -10.9,-0.3 -21.9,-1.5 -32.5,-3.6 -6.8,-1.4 -13.2,-5.1 -19.5,-8.3 -1.1,-0.6 -1.9,-4.2 -1.2,-5.4 3.1,-5.7 7.5,-10.4 13.7,-12.9 4.2,-1.7 8.4,-3.3 12.6,-5 z"
   id="path10"
   inkscape:connector-curvature="0"
   style="fill:#ffffff" />
    <path
   class="st0"
   d="m 275.4,211.5 c -9.6,0.8 -20.4,0.9 -30.8,2.8 -9.1,1.7 -16.1,-2 -23.6,-5.4 -1.5,-0.7 -3.1,-2.2 -3.7,-3.8 -1.9,-4.9 -3.9,-9.9 -4.9,-15 -1.1,-5.3 1.7,-8.2 7.2,-9.2 2.9,-0.5 6,-1 8.6,-2.2 7.1,-3.2 14.3,-2.3 21.4,-0.8 2.4,0.5 4.8,1.9 6.8,3.5 4.3,3.6 8.4,7.5 12.5,11.4 2.8,2.7 6.5,5 3.2,10.3 -0.8,1.4 2,5.1 3.3,8.4 z"
   id="path12"
   inkscape:connector-curvature="0"
   style="fill:#ffffff" />
    <path
   class="st0"
   d="m 219,173.8 c -2.3,2.1 -4.3,3.7 -6,5.6 -3.5,3.8 -7.7,7.2 -8.8,12.8 -0.3,1.5 -1.5,3.3 -2.8,3.9 -6.3,2.8 -12.6,5.6 -19.2,7.6 -2.1,0.6 -5.2,-1 -7.4,-2.3 -4.7,-2.7 -9.2,-5.7 -13.6,-8.8 -4.6,-3.3 -4.1,-8.5 -1.2,-12.9 5.5,-8.1 14.3,-7.5 21.9,-10 2.2,-0.7 4.8,-0.3 6.8,-1.1 11.1,-4.4 20.3,1.1 30.3,5.2 z"
   id="path14"
   inkscape:connector-curvature="0"
   style="fill:#ffffff" />
    <path
   class="st0"
   d="m 104.4,211.7 c 1.4,-8.4 8,-11.1 13.7,-14.7 3.6,-2.3 7.3,-4.5 11,-6.8 5.2,-3.2 19.4,-2.4 24.8,1.5 0.5,0.4 1,0.8 1.6,1.2 7.6,5.6 7.6,7.8 -0.1,13.7 -7,5.4 -15.2,6.7 -23.6,8 -3.4,0.5 -6.9,0.9 -10.3,1.6 -6.6,1.4 -12.3,0 -17.1,-4.5 z"
   id="path16"
   inkscape:connector-curvature="0"
   style="fill:#ffffff" />
    <path
   class="st0"
   d="m 100.7,230.7 c -1.9,-0.7 -3.8,-1.5 -5.7,-2.2 1.1,-1.8 2.1,-3.8 3.3,-5.5 4.4,-6.1 9.5,-6.3 15.6,-2.1 1.5,1 4.3,0.2 6.5,0.2 0.2,0.5 0.5,0.9 0.7,1.4 -2.5,1.4 -4.9,3 -7.5,4 -4.3,1.6 -8.7,2.9 -13,4.3 0,0 0.1,-0.1 0.1,-0.1 z"
   id="path18"
   inkscape:connector-curvature="0"
   style="fill:#ffffff" />
    <path
   class="st0"
   d="m 143.8,183 c 2.1,-1.1 4.3,-2.2 7.5,-3.8 0,2.1 0.3,4.3 -0.1,4.4 -2.1,0.8 -4.4,1 -6.7,1.5 -0.2,-0.7 -0.5,-1.4 -0.7,-2.1 z"
   id="path20"
   inkscape:connector-curvature="0"
   style="fill:#ffffff" />
</g>
</svg>