<?xml version="1.0" encoding="UTF-8" standalone="no"?>
<!-- Generator: Adobe Illustrator 24.0.0, SVG Export Plug-In  -->

<svg
   xmlns:dc="http://purl.org/dc/elements/1.1/"
   xmlns:cc="http://creativecommons.org/ns#"
   xmlns:rdf="http://www.w3.org/1999/02/22-rdf-syntax-ns#"
   xmlns:svg="http://www.w3.org/2000/svg"
   xmlns="http://www.w3.org/2000/svg"
   xmlns:sodipodi="http://sodipodi.sourceforge.net/DTD/sodipodi-0.dtd"
   xmlns:inkscape="http://www.inkscape.org/namespaces/inkscape"
   version="1.1"
   x="0px"
   y="0px"
   width="514.29999"
   height="514.29999"
   viewBox="0 0 514.3 514.3"
   xml:space="preserve"
   id="svg10"
   sodipodi:docname="terrifying.svg"
   inkscape:version="0.92.3 (2405546, 2018-03-11)"><metadata
   id="metadata14"><rdf:RDF><cc:Work
       rdf:about=""><dc:format>image/svg+xml</dc:format><dc:type
         rdf:resource="http://purl.org/dc/dcmitype/StillImage" /><dc:title></dc:title></cc:Work></rdf:RDF></metadata><sodipodi:namedview
   pagecolor="#ffffff"
   bordercolor="#666666"
   borderopacity="1"
   objecttolerance="10"
   gridtolerance="10"
   guidetolerance="10"
   inkscape:pageopacity="0"
   inkscape:pageshadow="2"
   inkscape:window-width="1920"
   inkscape:window-height="1017"
   id="namedview12"
   showgrid="false"
   inkscape:zoom="0.45887615"
   inkscape:cx="-88.615039"
   inkscape:cy="257.14999"
   inkscape:window-x="-8"
   inkscape:window-y="-8"
   inkscape:window-maximized="1"
   inkscape:current-layer="svg10" />
<style
   type="text/css"
   id="style2">
    .st0{fill:#FFFFFF;}
</style>
<defs
   id="defs4">
</defs>
<g
   id="g8"
   transform="translate(74.174842,-0.0726436)">
    <path
   class="st0"
   d="m 14.5,201.2 c -0.4,0.1 -0.2,0 0,0 10.8,1.6 20.3,0.5 28.6,-8.2 8.2,-8.6 17.8,-15.8 26.7,-23.9 5.1,-4.6 8.9,-4.9 13.4,0.3 3,3.5 5.3,7.5 9.3,11.3 0.2,-2.9 0.8,-5.8 0.4,-8.5 C 91.4,164 81.8,156.7 74,159 c -4.7,1.4 -8.8,5.5 -12.8,8.8 -9.4,7.9 -18.4,16.2 -27.7,24.2 -5.2,4.5 -11.7,2.6 -17.7,2.7 -3.1,0.1 -6.2,-0.8 -9.2,-1.5 -5.5,-1.4 -7.6,-6 -5.6,-11.3 1.8,-4.9 3,-10.1 4.8,-15 1.7,-4.4 4.9,-8.5 5.6,-13 1.3,-9.3 1.4,-18.8 1.9,-28.2 0.1,-1.1 -0.2,-2.3 0.1,-3.4 4.8,-18.7 10.8,-37 22.7,-52.6 4.3,-5.6 9.9,-10.2 15.2,-15 5.5,-5.1 11.7,-9.6 16.9,-15 7.2,-7.3 16.1,-11.5 25.3,-15.1 17.7,-6.8 33.5,-18.5 52.8,-21 14.1,-1.8 28.4,-3.7 42.6,-3.5 11.4,0.2 22.8,3.7 34.2,5.6 2.3,0.4 4.7,0.2 6.9,0.8 10.4,3 21.3,5 30.1,12 1,0.8 2.2,1.5 3.5,1.8 14.4,3.4 26.6,10.9 37.6,20.5 8,7 16.6,13.6 23.2,21.7 5.9,7.3 10.7,16.1 13.6,25 5.6,17.4 9.5,35.4 14.3,53.2 1.3,4.9 2.7,9.9 4.5,14.6 0.8,2 2.8,3.7 4.4,5.3 7.3,7.1 5.4,21.7 -3.5,26 -1.5,0.7 -3.6,0.5 -6.2,0.9 -2.2,8.6 -10.8,6.3 -17.4,7.3 -7.6,1.2 -14.6,-0.4 -20.7,-6.7 -8.5,-8.8 -18.3,-16.4 -27.5,-24.4 -3.3,-2.8 -6.6,-5.3 -11.4,-5.1 -10.8,0.2 -18.5,11.1 -14.8,23 1.8,-2.6 3.1,-4.7 4.6,-6.7 1.4,-2 2.8,-4.1 4.5,-5.9 3.9,-4.2 7.2,-4.5 11.5,-0.8 10.5,9.2 21.1,18.2 31.2,27.8 7.5,7.2 16.3,6.6 25.2,5.2 5.1,-0.8 10,-3 15.6,-4.8 -2,4.2 -4.3,8.3 -5.9,12.6 -2.6,7.5 -6,15 -6.9,22.7 -2.2,19.3 -3.1,38.7 -4.7,58 -1.1,13.2 -2.7,26.3 -4,39.5 -0.5,5.1 -1.1,10.2 -1.2,15.3 -0.4,14.4 -5.3,27.9 -7.8,41.9 -1,5.7 -0.3,11.6 -1,17.4 -0.9,6.5 -2.3,12.9 -4,19.3 -1,4 -3.2,7.7 -4.4,11.6 -2.4,7.9 -8.4,12.4 -14.7,16.8 -12.8,8.9 -25.6,17.6 -36.3,29.2 -4.6,5 -10.3,8.9 -15.5,13.3 -3.3,2.8 -6.6,5.5 -9.7,8.5 -5.1,4.9 -12.6,3.2 -18.2,6.7 -2.2,1.4 -4.8,2.2 -7.3,3 -2.4,0.8 -4.9,2.1 -7.3,2.1 -19,0.1 -38.1,0.1 -57.1,-0.2 -3.2,-0.1 -6.8,-1.6 -9.4,-3.5 -4.5,-3.3 -8.3,-7.7 -12.7,-11.2 -10.3,-8.1 -20.8,-15.9 -31.3,-23.7 -9.1,-6.8 -18,-14.1 -27.6,-20.1 -8.4,-5.3 -11,-14.4 -15.8,-21.9 -3.3,-5.1 -3.2,-12.7 -3.6,-19.3 -1.2,-20.3 -4.9,-40.1 -10.2,-59.8 -1.8,-6.7 -2.1,-13.8 -3.9,-20.4 -3.4,-12 -4.4,-24.1 -4.1,-36.4 0.2,-11.1 0.2,-22.2 -0.5,-33.3 -0.6,-10.2 -1.4,-20.5 -3.4,-30.6 -2.6,-11 -6.3,-21.7 -9.3,-32.7 z m 258.6,53.5 c -0.3,0.2 -0.7,0.3 -1,0.5 0,-2.5 0.3,-5 -0.1,-7.4 -0.2,-1.2 -1.5,-2.8 -2.7,-3.2 -0.9,-0.3 -2.3,1.2 -3.5,1.6 -1.8,0.6 -4.3,2 -5.4,1.3 -1.3,-0.8 -2.1,-3.7 -1.7,-5.3 1.4,-5.2 1.4,-10 -2.5,-14.9 -0.8,3 -1.1,5.7 -2.3,8 -2.1,3.9 -4.3,8 -7.4,11.1 -1.3,1.3 -4.9,0.2 -7.9,0.2 0.5,-2.4 0.9,-3.9 1.1,-5.3 0.6,-6.6 1.2,-13.2 1.5,-19.8 0,-1 -1.5,-2.1 -2.3,-3.1 -0.7,1 -1.8,2 -1.9,3 -0.7,5.1 -1.3,10.2 -1.8,15.3 -0.6,5.9 -4.4,9.8 -9.1,12.3 -2.3,1.2 -5.8,0.2 -8.9,0.2 0,-10 0.1,-19.8 -0.1,-29.6 0,-1.6 -1.4,-3.2 -2.1,-4.8 -0.8,1.6 -2.1,3.2 -2.2,4.9 -0.2,5.8 0.5,11.7 -0.2,17.5 -0.5,3.9 -1.7,9.3 -4.4,10.8 -4.3,2.5 -10.1,2.7 -15.4,3.3 -3.6,0.5 -7.8,-2.9 -7.5,-5.8 0.8,-7.7 2,-15.3 2.9,-22.9 0.2,-1.6 0.6,-3.6 -0.1,-4.8 -0.7,-1.3 -2.6,-2.4 -4.1,-2.6 -0.7,-0.1 -2.5,2.2 -2.4,3.4 0.3,8.8 1,17.7 1.2,26.5 0,1.2 -1.5,3.6 -2.3,3.6 -6.7,0.3 -13.7,3 -20.2,-1.8 -1.7,-9 -2.2,-18.4 1.1,-27.8 0.5,-1.5 -0.4,-3.5 -0.7,-5.2 -0.7,0 -1.3,0 -2,0 -3.4,9.5 -3.3,19.6 -3.5,29.6 -4,0.4 -7.5,0.7 -10.8,1 -6.4,-7.8 -7.9,-16.9 -7.9,-26.6 -1,0.9 -1.9,1.9 -1.8,2.8 0.4,8 1.1,16 1.5,24.1 0.1,1.2 -0.4,3.3 -1,3.4 -2,0.4 -8.3,-5.3 -8.9,-7.5 -1.3,-4.6 -2.7,-9.2 -4,-13.8 -0.5,0 -0.9,0.1 -1.4,0.1 0,3.7 0,7.4 0,11.1 -0.1,3.5 0.5,7.3 -0.5,10.6 -0.8,2.7 -11.3,3.2 -13.1,0.6 -1.9,-2.8 -3.1,-6.2 -4.7,-9.3 -0.3,0 -0.5,0 -0.8,-0.1 0,2.9 0,5.8 0,8.8 -1.2,-1.5 -1.5,-3.3 -2.2,-4.8 -0.7,-1.5 -1.8,-3.7 -3,-4 -1.6,-0.3 -4.4,0.5 -5.1,1.8 -3.6,5.8 -7.7,11.7 -6.1,19.3 -2.5,-0.9 -4.3,-1 -3.8,2.5 0.2,1.2 0.1,2.6 -0.2,3.8 -2.5,11.2 -5.2,22.4 -7.5,33.7 -0.9,4.1 -2.3,8.7 -1.4,12.5 3.5,14.8 7.4,29.5 12,43.9 2.3,7.2 6.1,14.1 10.1,20.6 2.3,3.6 6.4,6 9.7,9 0.5,-0.3 1,-0.6 1.6,-0.9 -1.5,-5 -1.6,-9.4 2.2,-13.6 3.1,-3.5 5,-8.2 7.4,-12.4 0.6,0.1 1.2,0.1 1.8,0.2 0.5,1.9 1.4,3.8 1.6,5.7 1.2,9.8 2.2,19.7 3.5,29.5 0.4,3 2,5.8 5.6,4.7 3,-0.9 4.4,-3 3.7,-6.9 -1.6,-8.1 -2.3,-16.4 -3.3,-24.6 -0.4,-3.6 2.1,-5.4 5,-5.7 4.9,-0.5 9.9,-0.1 15.9,-0.1 0.6,8 1.1,17 2.1,26 0.4,3.6 1.8,7.2 2.8,10.8 0.8,-0.1 1.6,-0.2 2.3,-0.2 0.5,-2.3 1.4,-4.6 1.3,-6.9 -0.4,-9.1 -1.2,-18.2 -1.6,-27.3 -0.2,-5.5 2.6,-8.2 8,-8.2 3.2,0 6.4,-0.2 9.5,0.2 1.5,0.2 3.6,1.2 4.1,2.4 1.7,4.9 3.7,10 4.1,15.2 0.4,6 -1,12.1 -1.1,18.2 0,1.9 1.7,3.8 2.6,5.7 1.4,-1.1 3.7,-2 4,-3.3 0.8,-3.4 0.9,-7.1 1,-10.7 0.2,-7.3 0.1,-14.6 0.2,-21.9 0.1,-5.7 1.8,-7.3 7.3,-7.2 4,0.1 8,0.1 12,0.1 4.4,0 7.5,0.4 8.6,6.3 0.6,3.5 -0.6,4.9 -1.4,7.5 -2.7,8.6 -4.3,17.5 -6.4,26.3 2.6,0.9 4.8,1.7 7.8,2.7 1.4,-9.4 2.7,-18.3 4.1,-27.2 0.5,-3.4 1.2,-6.8 2.3,-10.1 0.4,-1.1 2,-2.3 3.2,-2.5 6.7,-1 13,4.6 12.9,11.3 0,1.7 -0.2,3.3 -0.2,5 0,7 0,14 0,22.4 1.7,-3.1 3.4,-5.1 3.8,-7.3 1.1,-6 1.6,-12.1 2.5,-18.2 0.3,-2.3 0.9,-4.6 1.4,-7 0.7,0 1.4,0 2.1,0 1.8,6.5 5.7,12.2 5.8,19.4 0,2 1.6,4.5 3.3,5.7 0.9,0.6 4.6,-0.8 5.1,-2.1 3.5,-8.4 6.9,-16.8 9.4,-25.5 2.6,-9.1 3.9,-18.7 6.3,-27.9 1.4,-5.3 4.5,-10.2 5.8,-15.6 2.6,-10.7 4.5,-21.5 6.6,-32.4 0.2,-0.8 -0.4,-1.9 -0.8,-2.7 -1.3,-2.7 -3,-5.3 -3.8,-8.2 -2.2,-7.1 -4.1,-14.3 -6.1,-21.4 -1.8,3.9 -2.5,7.9 -4,11.5 -0.5,1.3 -3,2.7 -4.4,2.6 -1.1,-0.1 -2.1,-2.4 -2.5,-3.1 3,-1.8 6.1,-2.6 7,-4.5 0.4,-1.3 -2.1,-4 -3.2,-6.1 z M 173.2,70 c -6.5,4.6 -12.3,7.9 -15.2,15.3 -4.8,12 -8.7,24.1 -10.6,36.9 -0.6,4.2 1.5,7.8 5.7,8.3 2.9,0.3 5.9,0.1 8.8,0.5 6,0.9 9.7,-3.5 13.8,-6.4 1.1,-0.8 1.4,-3.3 1.4,-5 0.2,-5.3 -0.2,-10.7 0.1,-16 0.4,-5 1.4,-9.9 2.2,-14.8 0.5,0.1 0.9,0.1 1.4,0.2 1.1,10.9 2.4,21.8 3.3,32.8 0.6,6.7 3.3,9 9.8,8.1 2.6,-0.4 5.3,0.1 7.9,0.4 4.5,0.6 7.1,-1.2 8.5,-5.5 2.2,-7.1 0.4,-13.8 -2.1,-20.2 -2.5,-6.3 -5.8,-12.3 -8.8,-18.5 -1.8,-3.7 -3.3,-7.6 -5.3,-11.2 -0.8,-1.4 -2.7,-2.3 -3.5,-2.9 -0.7,2.7 -1.3,4.8 -1.9,6.9 -2.5,-1.2 -5.1,-2.5 -7.6,-3.7 -5.1,-0.8 -5.2,3 -4.5,7.2 -6.5,-2.1 -7.7,-5.6 -3.4,-12.4 z m 68.3,-0.8 c -0.2,6.1 0.7,11.7 4.8,16.4 1.7,2 3.5,3.9 5,6.1 6.1,9.1 14.3,14.2 25.5,15 12.8,0.9 20.4,-7.1 27.7,-15.4 2.6,-2.9 2.8,-6.8 0.4,-10.7 -2.3,-3.6 -3.5,-8 -6.1,-11.3 -2.4,-3.1 -5.6,-6.4 -9.1,-7.5 -8.5,-2.7 -17.4,-3.9 -26,-6.1 -3.1,-0.8 -6.1,-2.4 -9.1,-3.8 -5.9,-2.9 -9.5,-1.4 -11.1,5.1 -1,4.1 -1.3,8.2 -2,12.2 z M 78.1,113.6 c 6.5,-1 11.6,-1.1 16.2,-2.6 4,-1.3 7.6,-4 11.1,-6.4 6.6,-4.6 11.6,-10.7 14.2,-18.4 2.3,-6.9 0.9,-13.1 -2.7,-19.5 -2.2,-3.9 -4.4,-4.9 -8.3,-4 -8.3,1.9 -15.8,6.4 -24.7,6.6 -4.5,0.1 -9.1,2.3 -13.4,4.2 -6.2,2.7 -10.1,7.9 -13.2,13.7 -4.6,8.6 -0.4,20 7.6,22.6 4.7,1.5 9.5,2.7 13.2,3.8 z"
   id="path6"
   inkscape:connector-curvature="0"
   style="fill:#ffffff" />
</g>
</svg>