<?xml version="1.0" encoding="UTF-8" standalone="no"?>
<!-- Generator: Adobe Illustrator 23.0.4, SVG Export Plug-In  -->

<svg
   xmlns:dc="http://purl.org/dc/elements/1.1/"
   xmlns:cc="http://creativecommons.org/ns#"
   xmlns:rdf="http://www.w3.org/1999/02/22-rdf-syntax-ns#"
   xmlns:svg="http://www.w3.org/2000/svg"
   xmlns="http://www.w3.org/2000/svg"
   xmlns:sodipodi="http://sodipodi.sourceforge.net/DTD/sodipodi-0.dtd"
   xmlns:inkscape="http://www.inkscape.org/namespaces/inkscape"
   version="1.1"
   x="0px"
   y="0px"
   width="237.96001"
   height="237.96001"
   viewBox="0 0 237.96 237.96"
   xml:space="preserve"
   id="svg11"
   sodipodi:docname="thrall.svg"
   inkscape:version="0.92.3 (2405546, 2018-03-11)"><metadata
   id="metadata15"><rdf:RDF><cc:Work
       rdf:about=""><dc:format>image/svg+xml</dc:format><dc:type
         rdf:resource="http://purl.org/dc/dcmitype/StillImage" /><dc:title></dc:title></cc:Work></rdf:RDF></metadata><sodipodi:namedview
   pagecolor="#ffffff"
   bordercolor="#666666"
   borderopacity="1"
   objecttolerance="10"
   gridtolerance="10"
   guidetolerance="10"
   inkscape:pageopacity="0"
   inkscape:pageshadow="2"
   inkscape:window-width="1920"
   inkscape:window-height="1017"
   id="namedview13"
   showgrid="false"
   inkscape:zoom="0.99176329"
   inkscape:cx="-30.748983"
   inkscape:cy="118.98"
   inkscape:window-x="-8"
   inkscape:window-y="-8"
   inkscape:window-maximized="1"
   inkscape:current-layer="svg11" />
<style
   type="text/css"
   id="style2">
      .st0{fill:#FFFFFF;}
</style>
<defs
   id="defs4">
</defs>
<g
   id="_x31_tAkz0_2_"
   transform="translate(24.185003,0.00139601)">
      <g
   id="g8">
            <path
   class="st0"
   d="m 97.44,0 c 0.31,0.6 0.83,1.18 0.91,1.81 1.01,8.81 1.98,17.63 2.92,26.45 0.1,0.91 0.56,1.2 1.39,1.31 7.82,1.08 15.08,3.77 21.93,7.64 4.27,2.41 8.15,5.34 11.74,8.68 1.26,1.18 1.61,1.32 3.03,0.38 3.83,-2.53 7.67,-5.06 11.38,-7.77 6.12,-4.47 12.9,-7.85 19.29,-11.86 0.33,-0.21 0.78,-0.23 1.5,-0.44 -0.47,0.64 -0.71,1 -0.98,1.33 -3.69,4.52 -7.43,9.01 -11.07,13.57 -2.92,3.65 -5.72,7.4 -8.58,11.09 -1.2,1.55 -2.4,3.1 -3.63,4.62 -0.67,0.83 -0.66,1.59 -0.2,2.53 1.93,3.9 3.85,7.81 5.66,11.76 1.65,3.59 2.22,7.48 2.81,11.36 0.07,0.47 0.16,0.95 0.17,1.43 0.03,0.95 0.51,1.48 1.42,1.65 2.4,0.44 4.79,0.87 7.19,1.31 5.57,1.04 11.14,2.1 16.71,3.11 1.41,0.25 2.87,0.23 4.27,0.52 1.45,0.3 2.86,0.84 4.28,1.27 0,0.11 0,0.23 0,0.34 -1.76,0.41 -3.51,0.89 -5.28,1.23 -3.65,0.69 -7.34,1.18 -10.97,1.96 -4.91,1.06 -9.78,2.34 -14.67,3.49 -1.73,0.41 -2.62,1.27 -2.99,3.18 -1.17,6.03 -2.53,12.04 -5.37,17.59 -1.96,3.83 -4.28,7.4 -7.18,10.58 -1.51,1.66 -1.52,1.82 -0.39,3.74 4.62,7.89 9.25,15.79 13.87,23.69 0.22,0.38 0.43,0.76 0.76,1.37 -0.54,0 -0.98,0.13 -1.3,-0.02 -1.15,-0.54 -2.35,-1.04 -3.35,-1.79 -6.3,-4.73 -12.54,-9.53 -18.81,-14.3 -2.19,-1.66 -2.35,-1.63 -4.79,-0.26 -3.76,2.11 -7.41,4.49 -11.35,6.16 -5.99,2.55 -12.39,3.67 -18.91,3.92 -2.48,0.1 -4.95,0.23 -7.43,0.3 -1.07,0.03 -1.45,0.47 -1.46,1.54 -0.01,1.07 0.36,1.54 1.44,1.57 2.07,0.06 3.86,0.89 5.49,2.13 2.6,1.97 4.92,4.19 6.57,7.06 1.27,2.23 2.18,4.49 1.95,7.15 -0.16,1.85 0.2,2.08 2.02,2.09 2.12,0.01 4.24,0.09 6.36,-0.02 0.66,-0.03 1.5,-0.42 1.9,-0.93 2.6,-3.35 5.95,-5.1 10.18,-5.63 7.73,-0.98 14.89,0.81 21.8,4.03 2.32,1.08 3.89,2.88 4.23,5.58 0.05,0.4 0.52,0.91 0.91,1.07 2.9,1.14 5.8,2.27 8.76,3.24 0.83,0.27 1.95,0.23 2.76,-0.1 2.88,-1.16 5.71,-1.07 8.33,0.41 3.75,2.13 7.52,4.29 10.95,6.86 3.28,2.45 5.25,5.88 5.05,10.23 -0.04,0.92 -0.06,1.84 0.01,2.76 0.41,4.99 -2.42,8.35 -5.79,11.39 -1.5,1.36 -3.44,1.63 -5.41,1.51 -1.4,-0.09 -2.78,-0.36 -4.18,-0.37 -0.63,0 -1.46,0.25 -1.85,0.7 -1.96,2.26 -3.78,4.65 -5.72,6.94 -0.86,1.02 -1.16,2.1 -1.16,3.4 0,1.55 -0.05,3.13 -0.36,4.64 -0.84,4.06 -3.84,6.79 -7.96,7.15 -6.81,0.59 -13.64,1.06 -20.46,-0.02 -1.3,-0.21 -2.62,-0.26 -3.93,-0.42 -2.29,-0.27 -4.21,-1.33 -5.67,-3.05 -0.64,-0.75 -1.06,-1.78 -1.34,-2.75 -0.44,-1.52 -1.2,-2.32 -2.74,-2.35 -2.04,-0.05 -4.08,-0.03 -6.12,-0.05 -1.28,-0.01 -1.95,0.87 -2.68,1.76 -1.51,1.84 -3.09,3.64 -4.7,5.4 -0.72,0.79 -1.67,1.06 -2.79,1.11 -2.37,0.1 -4.56,-0.21 -6.65,-1.5 -3.76,-2.33 -7.77,-4.29 -11.39,-6.83 -2.79,-1.95 -5.2,-4.46 -7.64,-6.86 -1.46,-1.44 -1.62,-3.31 -0.89,-5.25 0.67,-1.8 0.61,-1.86 -1.23,-2.59 -0.85,-0.34 -1.69,-0.71 -2.51,-1.14 -0.96,-0.5 -1.53,-0.35 -1.87,0.76 -0.24,0.79 -0.65,1.55 -1.07,2.26 -1.53,2.54 -3.64,3.94 -6.75,3.98 -6.48,0.07 -12.95,0.34 -19.43,0.48 -2.08,0.04 -3.89,-0.76 -5.45,-2.15 -1.24,-1.11 -1.5,-1.08 -2.93,-0.22 -1.74,1.05 -3.49,2.11 -5.3,3.04 -3.66,1.88 -7.35,3.69 -11.04,5.5 -4.17,2.04 -8.61,0.4 -10.72,-3.76 -1.57,-3.09 0.15,-8.05 3.99,-8.41 0.65,-0.06 1.31,-0.57 1.86,-1.01 3.03,-2.41 6.35,-4.3 10.06,-5.44 0.67,-0.21 1.41,-0.36 2.09,-0.28 0.51,0.06 1.31,0.48 1.38,0.85 0.11,0.58 -0.13,1.39 -0.52,1.85 -0.58,0.68 -1.41,1.17 -2.17,1.69 -1.84,1.25 -3.69,2.48 -5.48,4.02 0.29,0 0.62,0.09 0.87,-0.01 1.29,-0.53 2.6,-1.03 3.83,-1.68 2.5,-1.33 4.95,-2.77 7.44,-4.12 0.77,-0.42 1.12,-0.97 1.02,-1.83 -0.11,-0.91 -0.18,-1.83 -0.32,-2.74 -0.73,-4.65 1.68,-8.06 6.3,-8.95 3.88,-0.74 7.73,-1.61 11.63,-2.24 4.45,-0.72 8.93,-1.3 13.41,-1.8 2.8,-0.31 7.79,2.81 8.76,5.44 0.33,0.9 0.3,1.97 0.25,2.95 -0.06,1.24 0.45,1.81 1.59,2.29 2.82,1.18 5.55,2.59 8.35,3.83 0.39,0.17 1.08,0.07 1.45,-0.18 1.56,-1.04 3.02,-2.23 4.57,-3.28 1.51,-1.03 3.04,-0.83 4.45,0.23 1.34,1.01 2.61,2.12 3.98,3.09 2.05,1.45 4.22,2.72 6.22,4.24 3.05,2.31 6.07,4.68 8.97,7.18 1.12,0.97 2.12,1.72 3.66,1.6 1.15,-0.09 2.32,-0.03 3.48,-0.02 0.69,0 1.04,-0.31 1.06,-1 0.07,-2.55 1.44,-4.29 3.44,-5.72 2.73,-1.94 5.7,-2.97 9.07,-2.95 4.64,0.03 9.28,0.05 13.92,-0.07 3.39,-0.08 6.04,1.2 8.18,3.74 1.23,1.46 1.46,1.45 2.77,0.02 1.79,-1.94 3.56,-3.9 5.38,-5.81 0.74,-0.78 0.79,-1.37 0.11,-2.26 -2.5,-3.27 -4.91,-6.6 -7.34,-9.92 -0.97,-1.33 -1.11,-2.8 -0.63,-4.33 0.27,-0.86 0.05,-1.62 -0.71,-1.95 -2.22,-0.96 -4.49,-1.82 -6.78,-2.62 -0.32,-0.11 -0.93,0.24 -1.25,0.54 -2.15,2 -4.71,2.79 -7.59,2.7 -4.19,-0.13 -8.41,-0.08 -12.57,-0.51 -2.75,-0.28 -5.49,-1.08 -8.12,-1.98 -1.33,-0.45 -2.51,-1.53 -3.58,-2.52 -1.07,-0.99 -2.14,-1.64 -3.64,-1.81 -3.21,-0.36 -6.41,-0.88 -9.59,-1.42 -1.12,-0.19 -1.91,0.15 -2.68,0.91 -2.23,2.22 -4.73,4.05 -7.69,5.2 -2.57,1 -5.17,1.27 -7.88,0.7 -4.31,-0.92 -8.38,-2.37 -11.78,-5.31 -2.25,-1.94 -3.81,-4.29 -4.31,-7.27 -0.05,-0.31 -0.08,-0.67 -0.25,-0.92 -1.25,-1.91 -0.58,-3.69 0.14,-5.58 1.71,-4.48 4.64,-7.88 8.72,-10.34 0.21,-0.12 0.4,-0.29 0.62,-0.36 2.87,-1 3.22,-3.45 3.48,-5.97 0.09,-0.85 -0.45,-1.08 -1.12,-1.27 -2.68,-0.78 -5.36,-1.59 -8.04,-2.37 -5.65,-1.63 -10.62,-4.57 -15.29,-8.06 -1.27,-0.95 -2.39,-1.09 -3.73,-0.31 -5.88,3.4 -11.76,6.78 -17.65,10.15 -2.98,1.71 -5.97,3.39 -8.97,5.06 -0.41,0.23 -0.91,0.31 -1.37,0.46 -0.06,-0.09 -0.12,-0.18 -0.17,-0.27 0.25,-0.34 0.49,-0.69 0.75,-1.02 6.01,-7.68 12.03,-15.36 18.03,-23.06 1.29,-1.65 1.29,-2.12 -0.01,-3.79 -5.76,-7.39 -9.37,-15.76 -11.25,-24.89 -0.55,-2.69 -0.78,-5.46 -1.07,-8.2 C 32.54,94.37 32,93.7 30.85,93.37 22.82,91.09 14.81,88.73 6.54,87.49 4.34,87.16 2.06,87.2 0.01,86.16 c 0,-0.16 0,-0.32 0,-0.48 1.07,-0.3 2.12,-0.79 3.21,-0.88 3.81,-0.34 7.64,-0.58 11.46,-0.81 3.15,-0.19 6.31,-0.23 9.45,-0.5 2.22,-0.19 4.42,-0.73 6.64,-0.96 2.05,-0.21 2.47,-0.44 2.8,-2.49 1.31,-7.96 4.23,-15.3 8.59,-22.05 0.99,-1.54 0.95,-2.75 -0.07,-4.25 C 37.65,47.2 33.29,40.59 28.92,34 c -0.3,-0.46 -0.48,-0.99 -0.72,-1.49 0.12,-0.1 0.24,-0.21 0.35,-0.31 1.61,1 3.25,1.95 4.82,3.02 5.23,3.58 9.92,7.95 15.72,10.7 0.92,0.44 1.64,0.75 2.44,-0.13 4.83,-5.28 10.95,-8.61 17.37,-11.48 5.85,-2.62 11.97,-4.2 18.32,-4.93 1.43,-0.17 2.19,-0.88 2.54,-2.26 1.16,-4.52 2.37,-9.03 3.61,-13.53 C 94.62,9.05 95.92,4.53 97.2,0 c 0.08,0 0.16,0 0.24,0 z m -9.56,136.3 c 0.17,0.01 0.34,0.02 0.51,0.03 0.42,0.69 0.96,1.34 1.23,2.08 0.73,1.98 1.4,4 1.99,6.02 0.22,0.76 0.59,1.05 1.34,1 2.95,-0.17 5.92,-0.15 8.85,-0.52 9.7,-1.22 18.38,-4.93 26.07,-10.97 0.85,-0.67 1.19,-1.48 0.96,-2.51 -0.13,-0.62 -0.33,-1.23 -0.47,-1.86 -0.34,-1.49 0.39,-2.39 1.9,-2.2 0.68,0.08 1.37,0.41 1.97,0.77 0.97,0.59 1.71,0.45 2.37,-0.45 1.47,-2 2.97,-3.97 4.43,-5.97 5.45,-7.45 8.34,-15.84 9.24,-24.98 0.09,-0.92 -0.17,-1.51 -0.98,-1.96 -0.9,-0.51 -1.79,-1.07 -2.61,-1.7 -0.9,-0.69 -0.89,-1.28 0.09,-1.86 0.78,-0.46 1.67,-0.75 2.53,-1.06 0.82,-0.3 1.27,-0.78 1.14,-1.7 -0.45,-3.04 -0.73,-6.12 -1.37,-9.12 -1.4,-6.6 -4.2,-12.63 -7.96,-18.22 -0.56,-0.84 -1.13,-1.17 -2.06,-0.54 -0.56,0.37 -1.19,0.66 -1.83,0.89 -0.49,0.18 -1.04,0.2 -1.56,0.3 -0.08,-0.53 -0.28,-1.07 -0.21,-1.58 0.18,-1.22 0.43,-2.44 0.75,-3.63 0.26,-0.98 -0.02,-1.7 -0.74,-2.35 -1.16,-1.05 -2.26,-2.15 -3.43,-3.18 -8.75,-7.69 -18.94,-12.02 -30.52,-13.11 -1.18,-0.11 -2,0.19 -2.56,1.27 -0.53,1.03 -1.13,2.03 -1.76,2.99 -0.69,1.06 -1.52,1.05 -2.07,-0.06 -0.5,-1.03 -0.89,-2.13 -1.18,-3.23 -0.2,-0.76 -0.52,-1.12 -1.31,-1.04 -0.91,0.09 -1.83,0.16 -2.74,0.28 -12.39,1.55 -22.9,6.91 -31.74,15.67 -0.8,0.8 -0.95,1.57 -0.46,2.57 0.61,1.26 1.26,2.52 1.65,3.84 0.16,0.55 -0.17,1.38 -0.54,1.89 -0.17,0.23 -1.04,0.14 -1.49,-0.05 -0.8,-0.34 -1.53,-0.86 -2.29,-1.3 -1.51,-0.86 -2.29,-0.67 -3.14,0.85 -1.41,2.5 -2.82,5.01 -4.16,7.56 -2.46,4.69 -3.75,9.74 -4.49,14.96 -0.17,1.22 0.22,1.92 1.48,2.1 0.71,0.1 1.43,0.23 2.1,0.46 0.5,0.16 0.94,0.5 1.41,0.76 -0.27,0.49 -0.43,1.15 -0.85,1.43 -0.94,0.64 -1.96,1.25 -3.04,1.56 -1.19,0.34 -1.64,0.9 -1.61,2.1 0.29,12.52 4.45,23.59 12.29,33.33 0.73,0.91 1.45,1.1 2.48,0.6 1.94,-0.95 3.88,-1.88 5.85,-2.75 0.99,-0.44 2.19,-1.34 3.06,-0.25 0.78,0.98 -0.33,1.91 -0.88,2.74 -1.35,2.02 -2.74,4.01 -4.18,6.1 7.3,6.2 15.5,10.3 25.03,12.16 0.77,-1.96 1.5,-3.85 2.28,-5.72 0.36,-0.84 0.82,-1.63 1.23,-2.44 z m -20.77,64.96 c -0.9,-1.7 -2.14,-1.72 -3.45,-1.51 -5.55,0.89 -11.1,1.78 -16.65,2.69 -0.94,0.15 -1.95,0.26 -2.77,0.69 -0.57,0.3 -0.87,1.11 -1.3,1.7 0.5,0.23 0.97,0.56 1.49,0.67 1.66,0.34 2.57,1.53 2.27,3.2 -0.16,0.9 -0.42,1.78 -0.71,2.65 -0.41,1.26 -0.1,1.76 1.23,1.69 3.93,-0.21 7.85,-0.45 11.78,-0.71 1.43,-0.09 2.87,-0.23 4.29,-0.44 0.85,-0.12 1.75,-0.48 1.75,-1.49 0,-1.14 -1.01,-0.86 -1.73,-0.92 -1.19,-0.09 -1.59,-0.49 -1.48,-1.67 0.13,-1.35 0.39,-2.69 0.51,-4.04 0.12,-1.26 0.81,-1.64 1.98,-1.74 0.93,-0.08 1.82,-0.49 2.79,-0.77 z m 65.1,27.75 c 0.85,0.21 1.33,0.39 1.82,0.44 1.35,0.15 2.73,0.13 4.05,0.39 5.61,1.1 11.24,0.42 16.86,0.3 0.66,-0.01 1.62,-0.02 1.48,-1.1 -0.14,-0.99 -0.96,-0.89 -1.7,-0.77 -2.25,0.35 -4.97,-1.4 -5.61,-3.61 -0.59,-2.04 0.09,-3.73 1.91,-4.77 0.81,-0.46 0.88,-0.98 0.1,-1.51 -0.4,-0.27 -0.94,-0.38 -1.44,-0.45 -4.8,-0.69 -9.63,-0.19 -14.45,-0.23 -0.48,0 -0.96,0.18 -1.74,0.34 0.62,0.67 1,1.17 1.46,1.57 1.4,1.23 2.02,2.77 1.35,4.51 -0.41,1.07 -1.23,2.01 -1.97,2.92 -0.51,0.62 -1.2,1.12 -2.12,1.97 z m 9.02,-45.71 c -0.21,-0.52 -0.33,-0.9 -0.5,-1.25 -1.07,-2.2 -0.78,-3.47 1.09,-5.03 0.27,-0.23 0.63,-0.69 0.56,-0.9 -0.1,-0.29 -0.56,-0.57 -0.91,-0.65 -1.56,-0.34 -3.13,-0.62 -4.7,-0.9 -3.93,-0.71 -7.84,-1.42 -11.87,-0.59 -1.68,0.35 -1.82,0.41 -1.19,2.05 0.64,1.67 1.26,3.36 1.87,5.04 0.37,1.02 0.99,1.68 2.11,1.87 4.09,0.69 8.2,0.98 12.35,0.66 0.35,-0.03 0.69,-0.17 1.19,-0.3 z m -47.64,28.05 c -0.1,1.36 -0.17,2.31 -0.25,3.26 -0.17,2.16 -1.09,3.17 -3.22,3.52 -0.28,0.05 -0.61,-0.02 -0.82,0.11 -0.46,0.28 -1.21,0.66 -1.21,1 0,0.56 0.35,1.35 0.81,1.65 2.47,1.6 5.04,3.06 7.55,4.61 2.04,1.25 4.06,2.55 6.08,3.83 0.59,0.38 1.18,0.59 1.68,-0.1 0.48,-0.65 0.21,-1.2 -0.31,-1.69 -0.09,-0.08 -0.18,-0.16 -0.26,-0.25 -0.93,-0.97 -1.16,-4 -0.33,-5.04 0.2,-0.25 0.58,-0.39 0.91,-0.48 1.33,-0.33 1.63,-1.2 0.61,-2.16 -0.84,-0.79 -1.84,-1.39 -2.77,-2.08 -1.73,-1.28 -3.46,-2.56 -5.19,-3.84 -0.99,-0.71 -1.99,-1.42 -3.28,-2.34 z m 84.69,-6.18 c 1,-0.31 1.87,-0.54 2.72,-0.85 1.24,-0.45 1.69,-1.22 1.13,-2.43 -0.83,-1.8 -1.78,-3.56 -2.85,-5.23 -0.94,-1.47 -2.03,-2.88 -3.23,-4.14 -1.25,-1.31 -2.65,-2.52 -4.11,-3.58 -1.01,-0.73 -1.66,-0.36 -2.39,0.64 -0.98,1.34 -2.04,2.64 -3.16,3.87 -0.53,0.59 -0.51,1 -0.04,1.53 1.52,1.69 3.03,3.4 4.58,5.06 0.27,0.29 0.82,0.61 1.12,0.52 1.91,-0.57 3.37,0.74 5.03,1.16 0.45,0.12 0.79,1 1.01,1.59 0.19,0.55 0.13,1.17 0.19,1.86 z M 86.85,180.88 c 0.04,-0.1 0.07,-0.21 0.11,-0.31 0.2,0 0.4,0.01 0.6,0 1.36,-0.05 2.67,-0.82 2.88,-2.09 0.09,-0.53 -0.64,-1.29 -1.14,-1.81 -0.83,-0.87 -1.01,-1.76 -0.23,-2.66 0.72,-0.83 1.64,-1.49 2.39,-2.29 0.34,-0.36 0.82,-1.06 0.68,-1.32 -0.41,-0.77 -1.04,-1.44 -1.7,-2.03 -0.11,-0.1 -0.87,0.38 -1.19,0.72 -0.65,0.7 -1.17,1.53 -1.82,2.22 -1.07,1.15 -2.49,1.3 -3.89,0.91 -1.23,-0.34 -1.45,-1.48 -1.5,-2.61 0,-0.08 -0.01,-0.16 -0.03,-0.24 -0.19,-0.98 -0.83,-1.27 -1.46,-0.52 -0.94,1.12 -1.91,2.31 -2.48,3.63 -0.95,2.17 0.23,4.9 2.86,6.3 1.83,0.97 3.94,1.42 5.92,2.1 z"
   id="path6"
   inkscape:connector-curvature="0"
   style="fill:#ffffff" />
      </g>
</g>
</svg>