<?xml version="1.0" encoding="UTF-8" standalone="no"?>
<!-- Generator: Adobe Illustrator 23.0.4, SVG Export Plug-In  -->

<svg
   xmlns:dc="http://purl.org/dc/elements/1.1/"
   xmlns:cc="http://creativecommons.org/ns#"
   xmlns:rdf="http://www.w3.org/1999/02/22-rdf-syntax-ns#"
   xmlns:svg="http://www.w3.org/2000/svg"
   xmlns="http://www.w3.org/2000/svg"
   xmlns:sodipodi="http://sodipodi.sourceforge.net/DTD/sodipodi-0.dtd"
   xmlns:inkscape="http://www.inkscape.org/namespaces/inkscape"
   version="1.1"
   x="0px"
   y="0px"
   width="241.01601"
   height="241.01601"
   viewBox="0 0 241.016 241.016"
   xml:space="preserve"
   id="svg17"
   sodipodi:docname="warrior.svg"
   inkscape:version="0.92.3 (2405546, 2018-03-11)"><metadata
   id="metadata21"><rdf:RDF><cc:Work
       rdf:about=""><dc:format>image/svg+xml</dc:format><dc:type
         rdf:resource="http://purl.org/dc/dcmitype/StillImage" /><dc:title></dc:title></cc:Work></rdf:RDF></metadata><sodipodi:namedview
   pagecolor="#ffffff"
   bordercolor="#666666"
   borderopacity="1"
   objecttolerance="10"
   gridtolerance="10"
   guidetolerance="10"
   inkscape:pageopacity="0"
   inkscape:pageshadow="2"
   inkscape:window-width="1920"
   inkscape:window-height="1017"
   id="namedview19"
   showgrid="false"
   inkscape:zoom="0.97974093"
   inkscape:cx="-6.594406"
   inkscape:cy="120.44"
   inkscape:window-x="-8"
   inkscape:window-y="-8"
   inkscape:window-maximized="1"
   inkscape:current-layer="svg17" />
<style
   type="text/css"
   id="style2">
    .st0{fill:#FFFFFF;}
</style>
<defs
   id="defs4">
</defs>
<g
   id="oMWtO6_2_"
   transform="translate(0.03008201,0.06475576)">
    <g
   id="g14">
        <path
   class="st0"
   d="m 0,121.6 c 3.24,-1.12 6.51,-2.17 9.71,-3.39 3.02,-1.15 5.98,-2.46 8.93,-3.76 0.75,-0.33 1.34,-1.03 2.08,-1.4 1.41,-0.71 2.66,-1.36 3.71,-2.77 0.87,-1.18 2.77,-1.62 4.25,-2.32 1.51,-0.72 3.07,-1.33 4.59,-2.02 0.94,-0.42 1.88,-0.87 2.8,-1.35 1.77,-0.92 3.55,-1.8 5.26,-2.81 0.84,-0.5 1.54,-1.24 2.27,-1.9 0.67,-0.6 1.3,-1.25 2.05,-1.98 0.42,0.89 0.68,1.61 1.08,2.23 0.48,0.75 1.09,1.42 1.65,2.12 0.27,0.34 0.74,0.63 0.81,1 0.55,2.64 2.7,3.26 4.82,3.65 2.95,0.55 5.53,-0.68 7.74,-2.49 0.75,-0.62 1.33,-1.82 1.4,-2.8 0.23,-3.25 -0.51,-6.29 -3.92,-7.64 -1.93,-0.77 -3.6,-2.01 -5.88,-1.56 -1.16,0.23 -1.61,-0.6 -1.51,-1.72 0.04,-0.48 -0.12,-1.02 0.07,-1.42 0.26,-0.56 0.68,-1.09 1.16,-1.47 0.64,-0.51 1.56,-0.72 2.1,-1.29 5.43,-5.74 11.53,-10.72 17.49,-15.87 2.3,-1.99 4.1,-4.56 6.26,-6.74 1.39,-1.4 2.98,-2.62 4.54,-3.84 1.43,-1.12 2.87,-2.27 4.45,-3.14 0.74,-0.41 1.84,-0.29 2.74,-0.16 0.25,0.04 0.48,0.92 0.56,1.44 0.27,1.65 0.44,3.33 0.72,4.98 0.1,0.62 0.29,1.27 0.61,1.8 1.49,2.4 6.34,3.72 8.87,2.47 2.29,-1.13 3.24,-3.58 2.37,-6.22 -0.65,-1.99 -1.95,-3.46 -3.82,-4.42 -1.49,-0.77 -3,-1.5 -4.48,-2.28 -1.6,-0.85 -1.97,-2.29 -0.97,-3.81 0.55,-0.83 1.29,-1.54 1.8,-2.4 0.85,-1.42 1.58,-2.92 2.36,-4.38 0.13,-0.24 0.21,-0.56 0.42,-0.71 1.32,-0.93 1.77,-2.4 2.47,-3.74 2.11,-4.08 4.42,-8.05 6.47,-12.16 1.28,-2.56 2.22,-5.28 3.35,-7.92 0.58,-1.35 1.17,-2.7 1.84,-4.02 1.42,-2.81 2.98,-5.56 4.3,-8.41 0.63,-1.35 0.82,-2.9 1.26,-4.35 0.22,-0.72 0.51,-1.42 0.87,-2.08 0.14,-0.27 0.56,-0.58 0.81,-0.54 0.26,0.03 0.58,0.42 0.69,0.71 0.59,1.57 1,3.21 1.7,4.73 0.98,2.13 1.96,4.3 3.28,6.22 2.62,3.82 5.45,7.49 8.23,11.2 0.81,1.09 1.19,2.25 1.02,3.58 -0.24,1.99 0.3,3.57 2.11,4.7 1.52,0.94 2.04,2.62 2.52,4.24 0.31,1.07 0.72,1.91 1.95,2.16 0.34,0.07 0.64,0.54 0.89,0.89 1.02,1.41 2.11,2.79 2.99,4.3 0.62,1.07 0.96,2.32 1.38,3.5 0.43,1.22 0.68,2.53 1.24,3.69 0.7,1.47 1.65,2.82 2.46,4.25 0.63,1.12 0.28,2.01 -0.98,2.39 -0.99,0.3 -2.01,0.54 -3.03,0.7 -1.95,0.3 -3.37,1.46 -4.58,2.85 -0.43,0.49 -0.6,1.41 -0.53,2.1 0.47,4.7 6.13,7.55 10.54,5.36 1.19,-0.59 2.13,-1.27 2.4,-2.84 0.34,-1.99 1.1,-3.91 1.72,-5.85 0.39,-1.24 2.31,-1.78 3.21,-0.93 3.23,3.03 6.52,6 9.67,9.11 1.26,1.24 2.29,2.74 3.27,4.23 1.57,2.37 3.79,4.01 6.08,5.53 4.84,3.22 8.51,7.48 11.3,12.5 0.47,0.84 0.28,2.08 0.24,3.12 -0.01,0.2 -0.72,0.51 -1.12,0.53 -0.67,0.04 -1.35,-0.16 -2.02,-0.18 -3.96,-0.07 -6.28,3.69 -4.5,7.25 1.28,2.56 3.66,3.56 6.16,4.39 0.26,0.09 0.63,-0.03 0.92,-0.14 1.97,-0.73 3.64,-1.83 4.52,-3.85 0.49,-1.11 1.38,-1.62 2.55,-1.67 0.6,-0.03 1.2,0.01 1.8,0 1.27,-0.02 2.07,0.59 2.28,1.83 0.29,1.69 1.05,2.8 2.84,3.27 1.8,0.48 3.54,1.22 5.27,1.92 1.02,0.41 1.97,0.97 2.95,1.48 0.63,0.33 1.23,0.76 1.89,1.03 2.61,1.08 5.24,2.12 7.86,3.17 0.11,0.04 0.24,0.08 0.32,0.16 3.63,3.35 8.5,4.1 12.78,6.09 1.88,0.88 3.83,1.6 5.34,3.13 1.37,1.39 1.2,2.73 -0.49,3.68 -6.98,3.94 -13.98,7.85 -20.92,11.86 -1.82,1.05 -3.52,1.62 -5.51,0.62 -0.56,-0.28 -1.23,-0.35 -1.82,-0.58 -0.81,-0.31 -1.41,-0.21 -1.97,0.55 -0.22,0.3 -0.86,0.43 -1.3,0.41 -1.25,-0.04 -1.58,0.17 -1.32,1.3 0.6,2.57 -0.08,4.58 -2.12,6.29 -1.46,1.22 -2.65,2.75 -4.08,4.02 -0.91,0.81 -1.44,0.68 -1.94,-0.45 -0.59,-1.33 -1.11,-2.71 -1.43,-4.12 -0.44,-1.94 -2.69,-3.97 -4.69,-3.87 -1.18,0.06 -2.45,0.08 -3.52,0.52 -3.44,1.42 -4.3,5.81 -1.79,8.62 1.73,1.92 3.9,2.83 6.46,2.31 1.46,-0.3 2.47,0.22 3.53,1.2 -2.17,2.97 -4.32,5.94 -6.52,8.88 -0.3,0.4 -0.8,0.66 -1.2,0.99 -1.2,0.98 -2.5,1.86 -3.57,2.97 -5.17,5.39 -10.31,10.82 -15.4,16.29 -2.04,2.19 -3.83,4.61 -5.94,6.73 -1.12,1.12 -2.69,1.79 -4.04,2.69 -0.46,0.31 -0.88,0.68 -1.32,1.01 -0.86,0.63 -1.38,0.48 -1.7,-0.53 -0.66,-2.09 -1.35,-4.18 -1.94,-6.29 -0.62,-2.2 -1.97,-3.57 -4.27,-3.76 -2.27,-0.19 -4.22,0.58 -5.4,2.62 -0.61,1.05 -1.06,2.25 -1.32,3.44 -0.51,2.38 0.68,4.22 3.05,4.77 1.32,0.31 2.3,1.02 3.21,1.95 0.59,0.6 0.66,1.2 0.13,1.8 -2.87,3.27 -4.8,7.13 -7.03,10.83 -3.86,6.39 -8.11,12.54 -12.2,18.8 -0.09,0.13 -0.18,0.26 -0.26,0.4 -2.78,4.69 -5.57,9.38 -8.35,14.07 -0.08,0 -0.16,0 -0.24,0 -0.42,-0.42 -0.85,-0.82 -1.24,-1.26 -2.7,-3.03 -4.44,-6.69 -6.52,-10.12 -1.84,-3.03 -3.62,-6.1 -5.51,-9.1 -1.32,-2.09 -2.78,-4.09 -4.16,-6.14 -0.17,-0.26 -0.32,-0.58 -0.33,-0.88 -0.05,-1.86 -1.02,-3.23 -2.29,-4.46 -1.61,-1.56 -3.26,-3.08 -4.77,-4.72 -1.73,-1.88 -1.4,-3.91 0.67,-5.39 1.3,-0.93 2.55,-1.93 3.79,-2.93 2.51,-2.03 2.93,-4.76 2.03,-7.59 -0.69,-2.15 -1.78,-4.33 -4.21,-5.04 -1.79,-0.53 -3.61,-0.25 -5.34,0.65 -1.68,0.87 -2.81,2.02 -2.96,3.99 -0.04,0.47 -0.23,0.93 -0.33,1.4 -0.65,3.11 -0.64,3.11 -3.73,3.56 -0.2,0.03 -0.41,0.1 -0.59,0.05 -0.52,-0.15 -1.13,-0.23 -1.53,-0.55 -2.03,-1.67 -4.1,-3.31 -5.99,-5.13 -4.43,-4.27 -8.75,-8.65 -13.16,-12.95 -1.84,-1.79 -3.64,-3.56 -4.86,-5.88 -0.59,-1.12 -1.42,-2.13 -2.25,-3.1 -1.87,-2.18 -3.92,-4.23 -5.69,-6.49 -1.21,-1.55 -2.13,-3.34 -3.1,-5.06 -0.44,-0.78 -0.12,-1.36 0.77,-1.63 0.51,-0.16 0.99,-0.41 1.64,-0.69 -0.45,-0.61 -0.95,-1.04 -1.09,-1.57 -0.15,-0.55 -0.06,-1.22 0.11,-1.79 0.08,-0.25 0.58,-0.49 0.92,-0.53 1.85,-0.2 3.74,-0.18 5.55,-0.54 3.41,-0.67 5.58,-5.68 3.88,-8.7 -1.07,-1.9 -3.96,-3.23 -6.18,-2.83 -3.59,0.64 -5.39,2.85 -5.84,6.36 -0.23,1.86 -1.04,3.7 -1.88,5.41 -0.68,1.4 -1,1.34 -2.32,0.51 -6.28,-3.97 -12.76,-7.56 -19.75,-10.16 -0.33,-0.12 -0.63,-0.33 -0.94,-0.52 -2.2,-1.33 -4.38,-2.7 -6.6,-3.99 -2.38,-1.38 -4.79,-2.7 -7.2,-4.02 -0.9,-0.5 -1.8,-1.17 -2.78,-1.35 -3.86,-0.71 -6.37,-3.42 -9.1,-5.83 C 0,121.76 0,121.68 0,121.6 Z m 134.17,66.43 c 0.17,-0.23 0.29,-0.31 0.31,-0.41 0.61,-2.92 1.25,-5.84 1.77,-8.78 0.12,-0.7 0.03,-1.55 -0.27,-2.18 -0.52,-1.08 -0.44,-1.98 0.23,-2.91 3.54,-4.95 8,-8.56 14.12,-9.76 1.53,-0.3 3.07,-0.52 4.59,-0.85 3.52,-0.77 5.27,-3.14 4.84,-6.68 -0.36,-2.96 0.12,-5.73 1.53,-8.34 0.43,-0.79 0.35,-1.48 -0.11,-2.25 -0.47,-0.78 -0.88,-1.61 -1.18,-2.46 -0.67,-1.92 -1.35,-3.85 -1.85,-5.82 -0.36,-1.41 -0.64,-2.9 -0.61,-4.35 0.15,-7.47 0.35,-14.95 0.67,-22.41 0.18,-4.18 -0.79,-8.13 -2.44,-11.85 -1.71,-3.85 -3.89,-7.5 -5.93,-11.2 -0.42,-0.76 -1,-1.48 -1.66,-2.03 -3.66,-3.08 -7.57,-5.78 -12.26,-7.05 -4.24,-1.15 -8.5,-2.22 -12.76,-3.29 -0.73,-0.18 -1.52,-0.35 -2.24,-0.24 -2.84,0.43 -5.76,0.68 -8.47,1.55 -6.24,2.02 -12.14,4.85 -17.75,8.25 -2.3,1.39 -3.92,3.37 -4.97,5.84 -0.59,1.4 -1.19,2.79 -1.8,4.18 -3.04,6.92 -4.01,14.17 -3.45,21.66 0.07,0.95 0.4,1.95 0.2,2.84 -0.46,2.05 -0.52,4.09 0.08,6.05 0.9,2.92 0.58,5.67 -0.6,8.4 -0.72,1.66 -0.56,3.18 0.56,4.61 0.55,0.71 0.78,1.52 0.24,2.34 -1.38,2.09 -2.69,4.24 -4.22,6.22 -1.25,1.62 -1.43,3.6 -0.18,5.25 2.71,3.56 5.43,7.11 8.09,10.71 0.69,0.93 1.25,1.24 2.35,0.6 1.73,-0.99 3.55,-1.09 5.37,-0.07 0.94,0.53 1.91,0.98 2.87,1.47 4.82,2.45 8.65,5.44 9.69,11.42 0.67,3.85 2.75,7.45 3.19,11.47 0.04,0.38 0.52,0.71 0.8,1.07 0.32,-0.32 0.77,-0.59 0.93,-0.98 0.33,-0.84 0.82,-0.97 1.6,-0.67 0.89,0.34 1.81,0.64 2.72,0.93 1.52,0.49 1.63,0.34 1.89,-1.23 0.19,-1.14 0.48,-2.34 1.06,-3.31 0.53,-0.89 1.29,-0.75 1.91,0.12 0.7,0.97 1.34,1.99 2.04,2.96 0.67,0.94 2.63,0.87 3.26,-0.09 0.84,-1.3 2.16,-1.53 3.42,-0.58 0.81,0.58 1.61,1.22 2.42,1.85 z M 107.68,41.59 c 0.72,-1.77 1.44,-3.54 2.26,-5.57 -2.22,0.86 -3.38,3.62 -2.26,5.57 z m 44.21,44.51 c 0.62,1.17 1.01,2.35 2.43,2.66 0.12,-1.96 -0.56,-2.73 -2.43,-2.66 z m 4.43,5.45 c -0.11,0.07 -0.22,0.15 -0.32,0.22 0.42,0.87 0.82,1.75 1.29,2.59 0.09,0.17 0.43,0.21 0.65,0.31 0.07,-0.21 0.25,-0.43 0.21,-0.61 -0.26,-1.11 -0.82,-2 -1.83,-2.51 z m -41.36,118.1 c 0.34,-0.29 0.67,-0.58 1.13,-0.98 -0.87,-0.25 -1.03,-1.53 -1.99,-0.85 -0.09,0.07 0.56,1.19 0.86,1.83 z m 32.1,-14.52 c -0.37,0.29 -0.67,0.53 -1.06,0.82 0.75,0.59 1.28,1.48 2.04,0.23 -0.15,-0.19 -0.26,-0.35 -0.4,-0.5 -0.15,-0.17 -0.33,-0.32 -0.58,-0.55 z M 126.39,25.64 c -1.18,0.92 -1.1,1.49 0.11,1.99 -0.03,-0.61 -0.06,-1.18 -0.11,-1.99 z"
   id="path6"
   inkscape:connector-curvature="0"
   style="fill:#ffffff" />
        <path
   class="st0"
   d="m 112.71,158.13 c -0.72,-1.09 -1.48,-0.94 -2.37,-0.46 -1.12,0.6 -2.28,1.15 -3.46,1.62 -0.54,0.22 -1.2,0.37 -1.75,0.27 -2.61,-0.49 -5.32,-0.51 -7.77,-1.74 -2.53,-1.27 -5.07,-2.55 -7.67,-3.66 -2.06,-0.88 -2.36,-2.77 -2.93,-4.52 -0.08,-0.26 0.14,-0.72 0.37,-0.96 2.22,-2.3 4.65,-4.42 7.93,-4.82 1.74,-0.21 3.56,0.22 5.34,0.41 4.68,0.51 8.95,2.33 13.15,4.29 2.62,1.22 3.2,3.49 1.69,5.99 -0.73,1.19 -1.61,2.28 -2.53,3.58 z"
   id="path8"
   inkscape:connector-curvature="0"
   style="fill:#ffffff" />
        <path
   class="st0"
   d="m 140.42,157.47 c -1.15,-0.2 -1.95,-0.16 -2.37,0.93 -0.08,0.22 -0.83,0.43 -1.11,0.3 -2.24,-1.03 -4.48,-2.05 -6.62,-3.26 -1.07,-0.6 -1.79,-1.59 -1.98,-2.97 -0.24,-1.81 0.55,-2.78 1.92,-3.86 3.04,-2.39 6.51,-3.58 10.18,-4.52 2.15,-0.55 4.2,-1.5 6.25,-2.36 2.4,-1 4.75,-0.98 7.04,0.22 2.72,1.43 3.15,4.62 1.04,6.83 -3.57,3.75 -7.96,6.23 -12.59,8.35 -0.59,0.27 -1.31,0.26 -1.76,0.34 z"
   id="path10"
   inkscape:connector-curvature="0"
   style="fill:#ffffff" />
        <path
   class="st0"
   d="m 128.35,166.21 c 0,0.52 0,1.04 0,1.56 0,2.65 0.02,2.69 -2.3,3.92 -0.38,0.2 -1.24,0.06 -1.54,-0.26 -0.71,-0.76 -1.47,-0.87 -2.45,-0.89 -1.63,-0.03 -3.27,-0.24 -4.86,-0.57 -1.4,-0.29 -2.09,-1.59 -1.96,-3.16 0.16,-1.91 0.34,-3.82 0.46,-5.73 0.08,-1.29 0.44,-2.38 1.47,-3.27 1.33,-1.14 2.6,-2.37 3.87,-3.58 0.67,-0.64 1.27,-0.65 2,-0.07 3.3,2.63 5.18,5.98 5.3,10.24 0.02,0.6 0,1.2 0,1.8 -0.01,0.01 0,0.01 0.01,0.01 z m -2.82,1.02 c -0.21,-0.28 -0.38,-0.61 -0.64,-0.77 -0.09,-0.06 -0.51,0.25 -0.65,0.48 -0.29,0.47 -0.55,0.97 -0.71,1.49 -0.08,0.26 0.03,0.8 0.19,0.85 0.26,0.09 0.79,0.01 0.92,-0.18 0.35,-0.54 0.57,-1.19 0.89,-1.87 z"
   id="path12"
   inkscape:connector-curvature="0"
   style="fill:#ffffff" />
    </g>
</g>
</svg>