<?xml version="1.0" encoding="UTF-8" standalone="no"?>
<!-- Generator: Adobe Illustrator 24.1.0, SVG Export Plug-In  -->

<svg
   xmlns:dc="http://purl.org/dc/elements/1.1/"
   xmlns:cc="http://creativecommons.org/ns#"
   xmlns:rdf="http://www.w3.org/1999/02/22-rdf-syntax-ns#"
   xmlns:svg="http://www.w3.org/2000/svg"
   xmlns="http://www.w3.org/2000/svg"
   xmlns:sodipodi="http://sodipodi.sourceforge.net/DTD/sodipodi-0.dtd"
   xmlns:inkscape="http://www.inkscape.org/namespaces/inkscape"
   version="1.1"
   x="0px"
   y="0px"
   width="207.132"
   height="207.132"
   viewBox="0 0 207.132 207.13201"
   xml:space="preserve"
   id="svg12"
   sodipodi:docname="seraphon.svg"
   inkscape:version="0.92.3 (2405546, 2018-03-11)"><metadata
   id="metadata16"><rdf:RDF><cc:Work
       rdf:about=""><dc:format>image/svg+xml</dc:format><dc:type
         rdf:resource="http://purl.org/dc/dcmitype/StillImage" /><dc:title /></cc:Work></rdf:RDF></metadata><sodipodi:namedview
   pagecolor="#ffffff"
   bordercolor="#666666"
   borderopacity="1"
   objecttolerance="10"
   gridtolerance="10"
   guidetolerance="10"
   inkscape:pageopacity="0"
   inkscape:pageshadow="2"
   inkscape:window-width="1920"
   inkscape:window-height="1017"
   id="namedview14"
   showgrid="false"
   inkscape:zoom="1.1893363"
   inkscape:cx="-21.304551"
   inkscape:cy="99.214996"
   inkscape:window-x="-8"
   inkscape:window-y="-8"
   inkscape:window-maximized="1"
   inkscape:current-layer="svg12" />
<defs
   id="defs2">
</defs>
<g
   id="g10"
   transform="translate(2.3416206e-4,4.3545163)"
   style="fill:#000000;fill-opacity:1">
	<g
   id="g8"
   style="fill:#000000;fill-opacity:1">
		<path
   d="m 15.31,118.14 c 0.31,0.3 0.57,0.42 0.62,0.6 1.65,5.66 6.04,9.61 9.04,14.43 0.37,0.59 1.25,1.09 1.96,1.2 3.51,0.56 6.32,-0.21 8.07,-3.81 1.49,-3.06 3.47,-5.89 5.25,-8.8 0.62,-1.01 1.29,-1.99 2.12,-3.27 0.65,0.78 1.11,1.25 1.48,1.78 2.85,4.14 5.71,8.27 8.51,12.44 1.83,2.73 4.56,3.89 7.61,3.83 1.26,-0.03 2.95,-1.11 3.64,-2.22 1.77,-2.8 3.07,-5.9 4.59,-8.86 1.13,-2.2 2.31,-4.37 3.76,-7.1 1.07,1.56 1.82,2.47 2.37,3.49 2.11,3.94 4.09,7.95 6.29,11.84 0.45,0.8 1.57,1.39 2.51,1.72 0.97,0.34 2.14,0.09 3.15,0.38 2.15,0.61 3.19,-0.46 3.73,-2.28 0.36,-1.23 0.71,-2.52 0.72,-3.79 0.1,-8.74 0.11,-17.48 0.13,-26.22 0,-0.64 -0.23,-1.29 -0.49,-2.67 -1.76,1.63 -3.24,2.75 -4.41,4.14 -1.85,2.21 -3.51,4.59 -5.21,6.93 -2.36,3.24 -4.92,3.23 -6.9,-0.22 -2.11,-3.69 -4.04,-7.48 -6.04,-11.24 -1.15,-2.15 -2.62,-2.61 -4.3,-0.94 -4.25,4.21 -8.38,8.53 -12.46,12.91 -1.43,1.54 -2.08,1.63 -3.23,-0.16 -2.7,-4.22 -5.41,-8.44 -8.13,-12.64 -1.57,-2.43 -4.35,-2.55 -6.02,-0.21 -2.9,4.08 -5.79,8.18 -8.62,12.32 -1.72,2.51 -4.11,2.69 -5.58,0.05 C 16.9,107.12 14.5,102.36 12.26,97.55 11.15,95.17 9.48,93.49 7.03,93.3 2.68,92.96 1.61,89.59 1.24,86.59 0.46,80.49 0.45,74.3 0.25,68.15 0.06,62.37 -0.06,56.59 0.03,50.81 c 0.02,-1.15 0.83,-2.56 1.71,-3.38 5.44,-5.08 11.08,-9.95 16.5,-15.06 1.66,-1.56 3.24,-2.48 5.6,-2.4 4.79,0.17 9.6,0.07 14.4,0.07 3.36,0 3.53,-0.23 4.45,-3.56 1.9,-6.89 1.32,-13.72 -0.25,-20.55 -0.71,-3.1 0.17,-4.35 3.42,-4.54 2.51,-0.15 5.03,-0.11 7.54,-0.08 3.43,0.05 6.85,0.14 10.28,0.28 2.7,0.11 4.14,2.6 3.34,5.17 -0.92,2.96 -1.81,5.97 -2.23,9.03 -1.1,7.92 5.77,13.6 11.95,13.93 1.44,0.08 2.97,0.29 4.32,-0.08 1.6,-0.43 3.35,-1.11 4.52,-2.22 3.28,-3.11 5.15,-6.9 4.56,-11.65 -0.23,-1.88 0.16,-3.83 -0.09,-5.7 -0.23,-1.74 -0.7,-3.52 -1.46,-5.09 -1.2,-2.45 -0.23,-4.96 2.52,-4.99 5.69,-0.06 11.39,0.25 17.08,0.42 0.91,0.03 1.82,0.12 2.73,0.15 3.53,0.11 4.76,2.28 3.35,5.56 -1.03,2.4 -1.97,4.88 -2.58,7.41 -0.92,3.8 -0.42,7.55 1.21,11.13 1.16,2.55 3.03,4.27 5.81,4.6 2.63,0.31 5.32,0.48 7.96,0.34 2.5,-0.13 4.45,-1.58 5.61,-3.82 3.12,-6.01 3.28,-12.07 0.2,-18.17 -0.41,-0.81 -0.78,-1.66 -1.08,-2.51 -0.81,-2.29 0.45,-4.24 2.93,-4.34 5.78,-0.23 11.57,-0.47 17.35,-0.48 1.85,0 3.75,0.6 5.54,1.17 1.3,0.42 1.9,1.49 1.31,2.92 -0.12,0.28 -0.16,0.62 -0.34,0.84 -4.63,5.83 -2.13,12.6 -2.39,18.98 -0.09,2.15 4.43,5.55 7.01,5.81 0.83,0.08 1.69,0.17 2.51,0.06 4.27,-0.57 7.5,1.13 10.07,4.41 0.37,0.48 0.76,0.98 1.25,1.33 2.71,1.91 3.69,4.56 3.87,7.79 0.15,2.74 2.14,4.32 5.34,4.66 5.8,0.61 11.59,0.5 17.18,-1.35 1.99,-0.66 2.89,0.1 3.5,1.71 0.32,0.84 0.63,1.76 0.6,2.64 -0.17,5.63 -0.42,11.25 -0.69,16.88 -0.04,0.75 -0.26,1.5 -0.48,2.23 -0.54,1.77 -1.44,2.26 -3.43,1.63 -4.03,-1.29 -8.15,-2.47 -12.32,-3.15 -3.77,-0.62 -6.17,2.47 -8.89,4.44 -0.33,0.24 -0.4,0.99 -0.38,1.5 0.11,4.03 0.11,8.08 0.46,12.09 0.37,4.24 4.22,4.93 7.22,5.88 2.37,0.75 5.12,0.34 7.7,0.37 2.49,0.04 4.12,-1.66 5.97,-2.98 0.63,-0.45 1.81,-0.7 2.45,-0.41 0.62,0.28 1.19,1.36 1.22,2.11 0.24,6.01 0.43,12.03 0.47,18.04 0.03,3.92 -1.89,5.13 -5.17,3.18 -3.2,-1.91 -6.44,-2.46 -10.06,-1.77 -1.63,0.31 -3.35,0.08 -5.02,0.21 -2.51,0.18 -3.79,1.45 -4.43,3.86 -1.42,5.42 -1.05,10.88 -0.41,16.33 0.32,2.71 4.05,5.79 7.62,6.34 4.04,0.62 8.04,0.41 11.96,-0.88 3.08,-1.02 5.15,-0.03 5.35,3.2 0.31,4.99 0.25,10.04 -0.1,15.04 -0.21,2.97 -1.81,3.8 -4.74,2.95 -6.58,-1.91 -13.27,-3.02 -20.06,-1.92 -2.77,0.45 -5.5,1.67 -8,3.01 -1.07,0.57 -1.65,2.27 -2.21,3.56 -3.43,7.88 -6.78,15.79 -10.16,23.69 -1.1,2.57 -2.31,5.11 -3.33,7.71 -1.15,2.92 -3.58,4.08 -6.31,4.05 -9.28,-0.09 -18.56,-0.66 -27.84,-0.64 -4.26,0.01 -6.22,-1.75 -7.75,-5.57 -2.01,-4.99 -4.9,-9.62 -7.35,-14.43 -0.86,-1.68 -1.63,-3.42 -2.28,-5.2 -0.97,-2.64 -3.26,-4.42 -6.28,-4.47 -18.81,-0.33 -37.61,-0.59 -56.42,-0.97 -3.71,-0.08 -7.4,-0.71 -11.11,-0.89 -3.87,-0.19 -7.75,-0.05 -11.62,-0.28 -1.14,-0.07 -2.58,-0.6 -3.29,-1.42 -4.02,-4.68 -7.88,-9.49 -11.72,-14.32 -0.53,-0.66 -0.77,-1.63 -0.92,-2.49 -0.18,-1.04 0.04,-2.16 -0.19,-3.19 -2.01,-8.69 2.75,-14.98 7.4,-21.34 1.18,-1.58 2.15,-3.28 3.32,-5.09 z M 130.36,52 c -1.37,0 -2.75,-0.12 -4.11,0.02 -4.34,0.44 -8.38,1.74 -11.44,5.01 -4.87,5.22 -4.29,11.88 -4.55,18.29 -0.02,0.42 0.25,0.87 0.42,1.29 0.71,1.76 1.38,3.55 2.17,5.27 0.44,0.95 0.88,2.13 1.68,2.65 5.45,3.52 10.58,7.58 17.79,7.19 7.91,-0.43 14.56,-4.53 17.12,-12.01 0.85,-2.49 0.79,-5.37 0.79,-8.07 C 150.19,59.62 142.29,51.87 130.36,52 Z M 25.1,71.95 C 32.77,67.48 39.78,63.4 46.79,59.32 46.76,59.01 46.74,58.7 46.71,58.39 45.65,58.03 44.61,57.4 43.54,57.35 39.16,57.14 34.77,57.04 30.38,57.02 c -5.52,-0.03 -5.99,0.42 -5.91,5.85 0.04,2.88 0.39,5.76 0.63,9.08 z"
   id="path4"
   inkscape:connector-curvature="0"
   style="fill:#000000;fill-opacity:1" />
		<path
   d="m 145.96,72.7 c 0.45,10.28 -8.97,15.62 -18.42,13.77 -4.67,-0.92 -8.18,-3.59 -11.27,-6.91 -0.97,-1.04 -1.58,-2.63 -1.84,-4.06 -0.79,-4.42 -0.33,-8.73 1.68,-12.85 2.24,-4.61 6.26,-6.16 10.94,-6.6 1.58,-0.15 3.19,0 4.79,0.01 6.62,0.03 11.96,4.27 13.38,10.79 0.42,1.91 0.5,3.9 0.74,5.85 z m -15.66,7.86 c 6.34,0.36 7.87,-4.64 8.51,-9.43 0.48,-3.62 -4.7,-7.69 -10.84,-7.33 -4.51,0.27 -8.1,3.63 -8.05,8.15 0.04,4.64 4.8,8.59 10.38,8.61 z"
   id="path6"
   inkscape:connector-curvature="0"
   style="fill:#000000;fill-opacity:1" />
	</g>
</g>
</svg>