<?xml version="1.0" encoding="UTF-8" standalone="no"?>
<svg
   xmlns:dc="http://purl.org/dc/elements/1.1/"
   xmlns:cc="http://creativecommons.org/ns#"
   xmlns:rdf="http://www.w3.org/1999/02/22-rdf-syntax-ns#"
   xmlns:svg="http://www.w3.org/2000/svg"
   xmlns="http://www.w3.org/2000/svg"
   xmlns:sodipodi="http://sodipodi.sourceforge.net/DTD/sodipodi-0.dtd"
   xmlns:inkscape="http://www.inkscape.org/namespaces/inkscape"
   x="0px"
   y="0px"
   width="234.52"
   height="234.52"
   viewBox="0 0 234.52 234.52"
   xml:space="preserve"
   version="1.1"
   id="svg18"
   sodipodi:docname="dagger.svg"
   inkscape:version="0.92.3 (2405546, 2018-03-11)"><metadata
     id="metadata22"><rdf:RDF><cc:Work
         rdf:about=""><dc:format>image/svg+xml</dc:format><dc:type
           rdf:resource="http://purl.org/dc/dcmitype/StillImage" /><dc:title /></cc:Work></rdf:RDF></metadata><sodipodi:namedview
     pagecolor="#ffffff"
     bordercolor="#666666"
     borderopacity="1"
     objecttolerance="10"
     gridtolerance="10"
     guidetolerance="10"
     inkscape:pageopacity="0"
     inkscape:pageshadow="2"
     inkscape:window-width="1920"
     inkscape:window-height="1017"
     id="namedview20"
     showgrid="false"
     inkscape:zoom="1.0063966"
     inkscape:cx="-200.52055"
     inkscape:cy="117.25"
     inkscape:window-x="-8"
     inkscape:window-y="-8"
     inkscape:window-maximized="1"
     inkscape:current-layer="svg18" /><defs
     id="defs2" /><g
     id="g16"
     transform="translate(12.230002,2.1362305e-6)"
     style="fill:#000000;fill-opacity:1"><path
       d="m 102.64,0 c -1.88,3.42 -4.44,6.25 -4.96,9.41 -0.94,5.75 -3.91,10.11 -7.23,14.5 -1.89,2.51 -1.07,5.03 1.62,5.36 5.27,0.66 7.86,4.52 7.18,9.81 -0.76,5.95 -1.23,11.96 -1.41,17.96 -0.1,3.34 -1.28,4.86 -4.61,5.07 -3.65,0.23 -7.33,0.53 -10.9,1.25 -2.12,0.43 -4.45,1.31 -6.01,2.72 -3.73,3.39 -3.92,14.9 -0.1,19.66 1.48,-1.92 2.86,-3.69 4.21,-5.47 2.68,-3.51 5.06,-7.31 8.12,-10.44 2.11,-2.16 6.61,-1.56 7.91,0.28 1.82,2.6 0.92,9.21 -1.48,10.69 -2.91,1.79 -5.85,3.55 -9.19,5.58 1.44,0.71 2.57,1.17 3.61,1.78 4.23,2.5 5.62,9 2.15,11.15 -2.29,1.42 -2.64,3.16 -2.64,5.36 -0.02,5.53 -0.2,11.07 0.03,16.59 0.18,4.27 0.71,8.55 1.44,12.76 0.7,4.04 2.25,7.96 2.74,12.01 1.13,9.21 -0.26,18.54 2.36,27.78 3.76,13.25 0.03,27.4 4.32,40.78 1.34,4.18 0.38,9.05 0.83,13.56 0.22,2.16 1.27,4.23 1.95,6.34 0.54,-2.05 1.24,-4.08 1.58,-6.17 0.96,-5.93 1.77,-11.89 2.66,-17.84 0.54,-3.67 1.19,-7.33 -0.5,-11.12 -1.55,0.92 -2.68,1.58 -3.82,2.25 -2.83,-5.21 -1.94,-7.41 3.04,-9.4 1.03,-0.41 1.94,-2.21 2.12,-3.48 0.65,-4.76 0.11,-9.85 1.59,-14.29 3.09,-9.26 2.46,-18.75 3.14,-28.17 0.09,-1.24 -0.09,-2.92 0.62,-3.62 2.72,-2.66 2.27,-5.97 2.53,-9.21 0.72,-8.83 1.25,-17.7 2.47,-26.47 0.98,-7.01 1.42,-7.02 -4.81,-10.64 -2.56,-1.49 -2.61,-3.85 -1.9,-5.92 0.43,-1.24 2.33,-2.13 3.74,-2.84 1.1,-0.55 2.47,-0.56 4.51,-0.98 -1.27,-1.04 -1.77,-1.53 -2.34,-1.92 -2.44,-1.68 -5.1,-3.11 -7.29,-5.07 -2.69,-2.41 -1.89,-6.72 1.46,-7.95 2.19,-0.8 4.7,-0.67 6.99,-1.24 8.15,-2.01 13.56,3.7 13.7,11.35 0.02,1.22 0.65,2.43 0.99,3.64 0.43,0.01 0.86,0.02 1.29,0.04 0.49,-1.83 1.36,-3.65 1.39,-5.48 0.06,-3.91 -0.28,-7.83 -0.51,-11.75 -0.23,-4.06 -1.46,-4.9 -5.43,-5.09 -6.01,-0.29 -12.01,-0.98 -18,-1.53 -2.23,-0.2 -3.37,-1.4 -3.39,-3.73 -0.09,-7.71 -0.37,-15.43 -0.34,-23.14 0.02,-5.18 1.33,-6.27 6.55,-6.77 1.15,-0.11 3.11,-0.52 3.22,-1.07 0.21,-1.14 -0.42,-2.54 -0.97,-3.7 -2.83,-5.9 -9.29,-9.47 -10.34,-16.66 C 106.19,4.34 104.11,2.38 102.64,0 Z"
       id="path4"
       inkscape:connector-curvature="0"
       style="fill:#000000;fill-opacity:1" /><path
       d="m 0,116.85 c 0.94,0.67 1.39,1.27 1.9,1.33 5.25,0.62 10.23,1.59 15.27,3.75 6.02,2.58 8.34,4.41 9.76,10.97 1.18,5.45 3.25,10.71 4.98,16.04 0.18,0.56 0.8,0.96 1.16,1.47 3.11,4.35 6.14,8.78 9.35,13.06 2.32,3.08 5.03,5.88 7.29,9 1.67,2.3 5.06,4.21 3.52,7.68 -1.49,3.34 -3.9,6.25 -5.58,9.52 -0.62,1.21 -0.33,2.9 -0.5,4.9 2.74,-2.43 4.91,-4.13 6.81,-6.1 2.4,-2.49 4.25,-5.59 6.91,-7.71 3.54,-2.83 3.72,-4.8 0.08,-7.64 -2.73,-2.13 -5.35,-4.45 -7.7,-6.98 -2.08,-2.24 -3.66,-4.95 -5.58,-7.36 -2.64,-3.31 -5.62,-6.35 -6.09,-10.92 -0.15,-1.43 -1.15,-2.75 -1.72,-4.14 -1.98,-4.84 -5.08,-9.56 -5.65,-14.56 -0.85,-7.46 -0.55,-15.2 0.49,-22.66 0.83,-5.96 3.58,-11.53 6.7,-16.93 3.4,-5.9 7.91,-10.15 13.59,-13.6 1.6,-0.97 3.49,-3.03 3.52,-4.63 0.04,-1.89 -1.65,-3.91 -2.87,-5.68 -0.74,-1.08 -2.09,-1.71 -3.03,-2.68 -4.06,-4.18 -8.07,-8.41 -12.1,-12.62 -0.46,0.2 -0.92,0.4 -1.38,0.59 0.5,2.02 0.91,4.07 1.52,6.06 0.43,1.41 1.19,2.71 1.71,4.09 0.93,2.45 2.11,4.87 2.57,7.41 0.39,2.16 0.64,4.88 -0.33,6.65 -1.69,3.12 -4.14,5.92 -6.67,8.47 -6.11,6.14 -8.74,13.9 -11.04,21.93 -0.87,3.05 -2.36,5.92 -6.03,6.59 -6.41,1.17 -12.82,2.32 -19.22,3.53 -0.42,0.07 -0.77,0.53 -1.64,1.17 z"
       id="path6"
       inkscape:connector-curvature="0"
       style="fill:#000000;fill-opacity:1" /><path
       d="m 173.24,51.37 c -2.37,1.38 -4.58,2.32 -6.36,3.77 -5.54,4.51 -10.87,9.28 -16.39,13.82 -2.78,2.29 -3.09,4.14 -0.36,6.16 6.48,4.8 12,10.18 14.02,18.46 1.6,6.55 5.26,12.95 5.33,19.44 0.1,10.5 -0.67,21.42 -3.6,31.41 -2.34,7.98 -4.69,16.55 -10.15,23.45 -1.32,1.67 -2.62,3.38 -3.79,5.15 -1.13,1.7 -1.13,3.35 1.38,3.44 4.53,0.17 6.86,3.59 9.87,6.1 2.98,2.48 6.1,4.78 9.16,7.15 0.41,-0.31 0.81,-0.63 1.22,-0.94 -0.37,-1.16 -0.47,-2.52 -1.16,-3.45 -2.79,-3.8 -5.87,-7.4 -8.58,-11.25 -0.76,-1.08 -1.34,-3.18 -0.81,-4.14 2.86,-5.06 6.56,-9.55 8.18,-15.39 1.62,-5.84 4.35,-11.37 6.08,-17.18 0.84,-2.84 0.25,-6.07 0.77,-9.04 0.3,-1.73 1.1,-4.25 2.37,-4.78 4.82,-2.03 9.84,-3.71 14.94,-4.88 3.4,-0.78 7.05,-0.45 10.58,-0.7 1.11,-0.08 2.21,-0.43 4.12,-0.81 -1.22,-0.86 -1.58,-1.33 -2,-1.38 -7.36,-0.87 -14.75,-1.56 -22.09,-2.6 -2.77,-0.39 -6.42,-0.76 -7.92,-2.57 -2.24,-2.71 -2.95,-6.69 -4.29,-10.13 -1.45,-3.73 -2.66,-7.57 -4.37,-11.17 -1.43,-3 -3.15,-5.95 -5.25,-8.51 -2.43,-2.95 -4.15,-6.2 -2.61,-9.64 1.63,-3.66 4.4,-6.8 6.67,-10.18 1.94,-2.91 5.51,-5.02 5.04,-9.61 z"
       id="path8"
       inkscape:connector-curvature="0"
       style="fill:#000000;fill-opacity:1" /><path
       d="m 102.64,0 c 1.47,2.38 3.55,4.34 3.88,6.55 1.06,7.18 7.52,10.75 10.34,16.66 0.56,1.16 1.19,2.56 0.97,3.7 -0.1,0.55 -2.06,0.96 -3.22,1.07 -5.22,0.51 -6.52,1.6 -6.55,6.77 -0.04,7.71 0.25,15.43 0.34,23.14 0.03,2.33 1.16,3.53 3.39,3.73 6,0.55 11.99,1.24 18,1.53 3.97,0.19 5.2,1.03 5.43,5.09 0.22,3.92 0.57,7.84 0.51,11.75 -0.03,1.83 -0.9,3.65 -1.39,5.48 -0.43,-0.01 -0.86,-0.02 -1.29,-0.04 -0.35,-1.21 -0.97,-2.42 -0.99,-3.64 -0.13,-7.65 -5.55,-13.36 -13.7,-11.35 -2.3,0.57 -4.81,0.44 -6.99,1.24 -3.35,1.23 -4.15,5.54 -1.46,7.95 2.19,1.96 4.85,3.38 7.29,5.07 0.57,0.39 1.07,0.87 2.34,1.92 -2.04,0.41 -3.41,0.43 -4.51,0.98 -1.41,0.7 -3.31,1.59 -3.74,2.84 -0.71,2.07 -0.66,4.43 1.9,5.92 6.22,3.62 5.78,3.63 4.81,10.64 -1.22,8.77 -1.75,17.63 -2.47,26.47 -0.27,3.25 0.19,6.55 -2.53,9.21 -0.71,0.69 -0.52,2.38 -0.62,3.62 -0.69,9.42 -0.06,18.91 -3.14,28.17 -1.48,4.44 -0.94,9.53 -1.59,14.29 -0.17,1.27 -1.09,3.07 -2.12,3.48 -4.98,2 -5.87,4.19 -3.04,9.4 1.13,-0.67 2.27,-1.34 3.82,-2.25 1.7,3.79 1.05,7.46 0.5,11.12 -0.88,5.95 -1.69,11.9 -2.66,17.84 -0.34,2.09 -1.04,4.11 -1.58,6.17 -0.68,-2.11 -1.73,-4.19 -1.95,-6.34 -0.45,-4.52 0.51,-9.39 -0.83,-13.56 -4.29,-13.39 -0.56,-27.54 -4.32,-40.78 -2.62,-9.23 -1.23,-18.56 -2.36,-27.78 -0.5,-4.05 -2.04,-7.97 -2.74,-12.01 -0.73,-4.21 -1.25,-8.49 -1.44,-12.76 -0.24,-5.52 -0.05,-11.06 -0.03,-16.59 0.01,-2.2 0.35,-3.94 2.64,-5.36 3.47,-2.15 2.08,-8.65 -2.15,-11.15 -1.04,-0.61 -2.17,-1.08 -3.61,-1.78 3.35,-2.03 6.28,-3.79 9.19,-5.58 2.4,-1.48 3.31,-8.09 1.48,-10.69 -1.3,-1.85 -5.8,-2.45 -7.91,-0.28 -3.06,3.14 -5.44,6.93 -8.12,10.44 -1.36,1.78 -2.73,3.55 -4.21,5.47 -3.82,-4.77 -3.64,-16.27 0.1,-19.66 1.56,-1.42 3.89,-2.3 6.01,-2.72 3.58,-0.72 7.25,-1.02 10.9,-1.25 3.33,-0.21 4.51,-1.73 4.61,-5.07 0.18,-6 0.65,-12.01 1.41,-17.96 0.68,-5.28 -1.91,-9.15 -7.18,-9.81 -2.69,-0.34 -3.51,-2.85 -1.62,-5.36 3.31,-4.39 6.29,-8.75 7.23,-14.5 0.53,-3.19 3.09,-6.02 4.97,-9.44 z"
       id="path10"
       inkscape:connector-curvature="0"
       style="fill:#000000;fill-opacity:1" /><path
       d="m 0,116.85 c 0.87,-0.64 1.22,-1.1 1.65,-1.18 6.4,-1.21 12.81,-2.37 19.22,-3.53 3.67,-0.67 5.16,-3.54 6.03,-6.59 2.29,-8.03 4.92,-15.79 11.04,-21.93 2.53,-2.54 4.98,-5.35 6.67,-8.47 0.97,-1.78 0.72,-4.49 0.33,-6.65 -0.46,-2.54 -1.65,-4.96 -2.57,-7.41 -0.52,-1.38 -1.28,-2.69 -1.71,-4.09 -0.61,-1.99 -1.03,-4.04 -1.52,-6.06 0.46,-0.2 0.92,-0.4 1.38,-0.59 4.03,4.21 8.04,8.44 12.1,12.62 0.94,0.97 2.29,1.6 3.03,2.68 1.22,1.77 2.91,3.79 2.87,5.68 -0.03,1.6 -1.92,3.66 -3.52,4.63 -5.68,3.45 -10.18,7.7 -13.59,13.6 -3.11,5.4 -5.87,10.97 -6.7,16.93 -1.04,7.45 -1.33,15.2 -0.49,22.66 0.57,5 3.67,9.72 5.65,14.56 0.57,1.39 1.57,2.72 1.72,4.14 0.47,4.58 3.45,7.62 6.09,10.92 1.92,2.4 3.5,5.11 5.58,7.36 2.35,2.53 4.98,4.85 7.7,6.98 3.65,2.84 3.46,4.81 -0.08,7.64 -2.66,2.12 -4.51,5.22 -6.91,7.71 -1.89,1.97 -4.07,3.67 -6.81,6.1 0.17,-2 -0.12,-3.68 0.5,-4.9 1.68,-3.27 4.09,-6.18 5.58,-9.52 1.54,-3.46 -1.86,-5.38 -3.52,-7.68 -2.26,-3.12 -4.98,-5.91 -7.29,-9 -3.21,-4.28 -6.24,-8.7 -9.35,-13.06 -0.36,-0.51 -0.98,-0.91 -1.16,-1.47 -1.73,-5.33 -3.8,-10.59 -4.98,-16.04 -1.42,-6.56 -3.74,-8.38 -9.76,-10.97 C 12.14,119.76 7.16,118.79 1.91,118.17 1.39,118.12 0.94,117.53 0,116.85 Z"
       id="path12"
       inkscape:connector-curvature="0"
       style="fill:#000000;fill-opacity:1" /><path
       d="m 173.24,51.37 c 0.46,4.59 -3.11,6.7 -5.06,9.61 -2.26,3.38 -5.04,6.52 -6.67,10.18 -1.53,3.45 0.19,6.7 2.61,9.64 2.1,2.55 3.83,5.51 5.25,8.51 1.71,3.6 2.92,7.44 4.37,11.17 1.34,3.45 2.04,7.43 4.29,10.13 1.51,1.82 5.15,2.18 7.92,2.57 7.34,1.04 14.73,1.73 22.09,2.6 0.41,0.05 0.78,0.52 2,1.38 -1.91,0.39 -3.01,0.73 -4.12,0.81 -3.53,0.25 -7.18,-0.09 -10.58,0.7 -5.09,1.17 -10.12,2.86 -14.94,4.88 -1.26,0.53 -2.07,3.05 -2.37,4.78 -0.51,2.97 0.07,6.2 -0.77,9.04 -1.72,5.82 -4.46,11.34 -6.08,17.18 -1.62,5.83 -5.32,10.33 -8.18,15.39 -0.54,0.95 0.04,3.06 0.81,4.14 2.71,3.85 5.8,7.45 8.58,11.25 0.68,0.93 0.79,2.29 1.16,3.45 -0.41,0.31 -0.81,0.63 -1.22,0.94 -3.06,-2.38 -6.18,-4.67 -9.16,-7.15 -3.01,-2.51 -5.34,-5.93 -9.87,-6.1 -2.51,-0.09 -2.51,-1.74 -1.38,-3.44 1.18,-1.78 2.47,-3.48 3.79,-5.15 5.46,-6.9 7.81,-15.47 10.15,-23.45 2.93,-10 3.7,-20.91 3.6,-31.41 -0.06,-6.49 -3.73,-12.89 -5.33,-19.44 -2.02,-8.28 -7.54,-13.66 -14.02,-18.46 -2.73,-2.02 -2.42,-3.87 0.36,-6.16 5.51,-4.54 10.84,-9.31 16.39,-13.82 1.81,-1.45 4.01,-2.39 6.38,-3.77 z"
       id="path14"
       inkscape:connector-curvature="0"
       style="fill:#000000;fill-opacity:1" /></g></svg>