<?xml version="1.0" encoding="UTF-8" standalone="no"?>
<svg
   xmlns:dc="http://purl.org/dc/elements/1.1/"
   xmlns:cc="http://creativecommons.org/ns#"
   xmlns:rdf="http://www.w3.org/1999/02/22-rdf-syntax-ns#"
   xmlns:svg="http://www.w3.org/2000/svg"
   xmlns="http://www.w3.org/2000/svg"
   xmlns:sodipodi="http://sodipodi.sourceforge.net/DTD/sodipodi-0.dtd"
   xmlns:inkscape="http://www.inkscape.org/namespaces/inkscape"
   x="0px"
   y="0px"
   width="211.702"
   height="211.702"
   viewBox="0 0 211.702 211.70199"
   xml:space="preserve"
   version="1.1"
   id="svg15"
   sodipodi:docname="hammer.svg"
   inkscape:version="0.92.3 (2405546, 2018-03-11)"><metadata
     id="metadata19"><rdf:RDF><cc:Work
         rdf:about=""><dc:format>image/svg+xml</dc:format><dc:type
           rdf:resource="http://purl.org/dc/dcmitype/StillImage" /><dc:title /></cc:Work></rdf:RDF></metadata><sodipodi:namedview
     pagecolor="#ffffff"
     bordercolor="#666666"
     borderopacity="1"
     objecttolerance="10"
     gridtolerance="10"
     guidetolerance="10"
     inkscape:pageopacity="0"
     inkscape:pageshadow="2"
     inkscape:window-width="1920"
     inkscape:window-height="1017"
     id="namedview17"
     showgrid="false"
     inkscape:zoom="1.341521"
     inkscape:cx="-123.36743"
     inkscape:cy="86.330002"
     inkscape:window-x="-8"
     inkscape:window-y="-8"
     inkscape:window-maximized="1"
     inkscape:current-layer="svg15" /><defs
     id="defs2" /><g
     id="EmbwOm_2_"
     transform="translate(0.00773904,19.520938)"
     style="fill:#000000;fill-opacity:1"><g
       id="g12"
       style="fill:#000000;fill-opacity:1"><path
         d="m 122.3,51.46 c -0.94,-1.16 -1.7,-2.14 -2.5,-3.08 -4.06,-4.74 -9.14,-7.26 -15.45,-7.07 -1.68,0.05 -3.37,0.09 -5.03,0.31 -0.96,0.13 -2.02,0.4 -2.77,0.97 -1.69,1.27 -3.22,2.75 -4.81,4.15 -0.14,0.13 -0.29,0.3 -0.35,0.48 -0.68,2.26 -2.67,3.06 -4.52,3.99 -0.31,0.16 -0.77,0.11 -1.15,0.05 -2.69,-0.48 -4.56,0.71 -5.06,3.43 -0.58,3.13 -1.46,6.21 -1.08,9.48 0.1,0.82 -0.67,1.77 -1.11,2.63 -0.25,0.49 -0.66,0.89 -0.95,1.35 -0.73,1.18 -1.53,1.29 -2.71,0.61 -0.87,-0.5 -1.85,-0.95 -2.83,-1.1 -2.28,-0.34 -4.58,-0.61 -6.88,-0.65 -1.11,-0.02 -2.24,0.51 -3.33,0.88 -2,0.68 -3.97,0.69 -6,0.06 C 54.6,67.58 53.36,67.38 52.14,67.24 50.01,66.99 49.7,66.69 49.71,64.56 49.74,53.72 50.07,42.88 49.67,32.05 49.45,25.94 49.22,19.84 49.28,13.73 c 0.03,-2.88 0.14,-5.76 0.15,-8.64 0,-0.88 0.29,-1.25 1.18,-1.21 0.47,0.02 0.94,-0.12 1.51,-0.2 0.46,1.67 0.92,3.34 1.38,5.01 0.13,0.02 0.26,0.04 0.39,0.06 0.21,-0.46 0.56,-0.9 0.6,-1.37 C 54.61,5.73 54.41,4.12 53.54,2.64 52.79,1.36 53.03,0.86 54.52,0.85 58.12,0.84 61.71,0.99 65.31,0.91 67.09,0.87 68.86,0.41 70.64,0.2 71.7,0.09 72.78,0.01 73.86,0 c 2.16,-0.02 3.25,1.01 3.47,3.19 0.02,0.16 0.01,0.32 0.02,0.48 0.12,1.84 0.55,2.44 2.36,2.5 3.31,0.1 6.62,0.03 9.94,0.02 0.44,0 0.88,-0.11 1.31,-0.11 7.83,-0.02 15.67,-0.11 23.5,-0.03 6.99,0.07 13.99,0.29 20.98,0.5 2.84,0.08 5.67,0.32 8.5,0.48 0.8,0.04 1.23,0.43 1.36,1.23 0.21,1.32 0.15,2.52 -0.81,3.6 -0.27,0.3 -0.25,0.93 -0.21,1.4 0.02,0.33 0.26,0.66 0.46,0.96 4.08,6.14 7.02,12.89 10.41,19.4 0.8,1.54 1.9,2.93 2.9,4.37 0.98,1.41 2.05,2.76 2.98,4.2 0.74,1.15 0.49,1.85 -0.71,2.68 -0.78,-1.01 -1.54,-2.04 -2.36,-3.02 -0.18,-0.22 -0.56,-0.27 -0.85,-0.39 -0.08,0.36 -0.27,0.74 -0.2,1.08 0.07,0.37 0.34,0.71 0.56,1.05 0.61,0.91 0.72,1.73 0.04,2.76 -0.3,0.46 -0.13,1.35 0.06,1.98 0.24,0.8 0.79,1.55 0.08,2.34 -0.69,0.77 -1.54,1.1 -2.59,0.8 -0.73,-0.21 -1.48,-0.33 -2.22,-0.52 -1.52,-0.39 -3,-0.53 -4.6,-0.28 -1.71,0.27 -3.71,0.53 -5.21,-0.09 -1.77,-0.74 -3.13,-0.03 -4.69,0.09 -3.15,0.26 -6.31,0.41 -9.46,0.45 -1.21,0.01 -2.43,-0.43 -3.64,-0.66 -1.1,-0.21 -2.18,-0.33 -2.94,1 z m -46.67,5.59 c -1.54,-0.14 -2.1,0.18 -1.82,1.12 0.31,1.02 0.17,1.67 -0.7,2.37 -0.3,0.24 -0.03,1.19 -0.02,1.82 0.38,-0.07 0.97,0 1.12,-0.22 1.01,-1.53 1.85,-3.15 1.42,-5.09 z M 53.46,20.47 c 1.02,-1.06 0.94,-5.6 -0.12,-6.43 -0.99,0.9 -0.9,5.6 0.12,6.43 z M 72.36,6.24 C 73.24,5.73 73.52,4.6 73.04,3.54 72.93,3.29 72.61,2.94 72.41,2.95 72.12,2.98 71.75,3.23 71.61,3.5 71.06,4.57 71.57,5.4 72.36,6.24 Z m 83.9,34.65 c -0.8,-1 -1.27,-1.58 -1.74,-2.17 -0.11,0.21 -0.36,0.49 -0.3,0.63 0.31,0.66 0.69,1.3 1.11,1.9 0.04,0.06 0.54,-0.21 0.93,-0.36 z M 54.75,62.13 c 1.01,-0.87 0.91,-1.37 -0.32,-2.1 -0.26,0.25 -0.53,0.52 -0.74,0.72 0.41,0.53 0.74,0.96 1.06,1.38 z"
         id="path4"
         inkscape:connector-curvature="0"
         style="fill:#000000;fill-opacity:1" /><path
         d="m 103.67,46.71 c 6.12,-0.19 14.18,3.35 15.8,11.33 0.32,1.6 0.47,3.24 0.55,4.87 0.03,0.68 -0.12,1.53 -0.52,2.03 -0.7,0.89 -0.75,1.76 -0.66,2.8 0.55,6.33 1.11,12.66 1.55,19 0.15,2.14 -0.22,4.32 -0.09,6.46 0.3,5.17 0.06,10.29 -0.59,15.42 -0.22,1.79 0.13,3.65 0.21,5.48 0.03,0.72 0.15,1.46 0.04,2.15 -0.97,5.7 -0.18,11.41 -0.01,17.11 0.1,3.23 0.23,6.48 0.64,9.68 0.46,3.54 0.97,7.13 2.01,10.53 0.85,2.78 2.35,5.4 3.86,7.91 1.63,2.71 1.7,2.53 -1.2,3.72 -1.96,0.8 -3.83,1.96 -5.53,3.24 -1.36,1.02 -2.7,1.66 -4.39,1.95 -3.3,0.56 -6.55,1.35 -9.82,2.06 -1.52,0.33 -2.97,0.32 -4.43,-0.38 -1.99,-0.95 -4.12,-0.73 -6.25,-0.58 -1.02,0.07 -2.07,0.03 -3.09,-0.13 -2.12,-0.33 -4.23,-0.74 -6.33,-1.2 -0.54,-0.12 -1.21,-0.39 -1.47,-0.81 -0.15,-0.25 0.26,-1.03 0.61,-1.39 3.2,-3.27 4.56,-7.3 5.06,-11.74 0.14,-1.26 0.59,-2.48 0.82,-3.73 0.29,-1.55 0.68,-3.12 0.72,-4.68 0.05,-2.23 -0.27,-4.47 -0.28,-6.71 -0.01,-2.03 0.24,-4.05 0.29,-6.08 0.02,-0.85 -0.01,-1.79 -0.36,-2.53 -0.51,-1.09 -0.61,-2.11 -0.37,-3.25 0.45,-2.19 0.93,-4.38 1.25,-6.59 0.13,-0.86 -0.15,-1.78 -0.21,-2.67 -0.13,-1.86 -0.38,-3.72 -0.32,-5.58 0.06,-2.2 0.29,-4.34 -0.53,-6.5 -0.32,-0.85 -0.02,-1.95 0.05,-2.94 0.17,-2.5 0.39,-5 0.54,-7.5 0.07,-1.07 0.04,-2.15 0.03,-3.22 -0.03,-4.43 0.27,-8.89 -0.21,-13.27 -0.41,-3.74 -0.87,-7.49 -1.2,-11.23 -0.4,-4.52 0.28,-9.02 1.23,-13.44 1.03,-4.84 5.72,-8.9 10.81,-9.44 0.59,-0.06 1.19,-0.1 1.79,-0.15 z m 12.24,42.36 c 0.7,-0.64 0.92,-4.12 0.22,-4.72 -0.14,-0.13 -0.76,0 -0.89,0.2 -0.56,0.85 -0.08,3.78 0.67,4.52 z m -0.27,60.78 c 0.74,-1.21 0.35,-2.37 0.02,-3.51 -0.04,-0.14 -0.67,-0.29 -0.79,-0.18 -1.04,0.94 -0.64,2.97 0.77,3.69 z m -17.56,9.01 c 0.6,0.7 1.15,1.28 1.96,0.56 0.65,-0.57 0.34,-1.54 -0.72,-2.42 -0.41,0.61 -0.8,1.2 -1.24,1.86 z"
         id="path6"
         inkscape:connector-curvature="0"
         style="fill:#000000;fill-opacity:1" /><path
         d="m 39.17,66.39 c 0.07,5.02 -0.41,9.94 -1.98,14.77 -0.89,2.72 -1.13,5.6 -0.75,8.53 0.22,1.69 0.07,3.43 0,5.15 -0.11,2.5 0.08,4.94 0.82,7.35 0.26,0.83 0.29,1.72 0.49,2.57 0.39,1.67 0.63,3.4 1.27,4.97 2.17,5.28 4.5,10.49 6.75,15.73 2.04,4.74 5.74,8.04 9.79,10.93 3.9,2.78 7.98,5.32 12.05,7.86 2.79,1.74 4.94,4.03 6.53,6.87 0.26,0.46 0.44,1.06 0.4,1.58 -0.26,3.69 -0.85,7.29 -2.91,10.5 -0.51,0.79 -0.88,1.01 -1.68,0.4 -0.33,-0.26 -0.9,-0.36 -1.33,-0.31 -1.04,0.13 -1.76,-0.29 -2.41,-1.03 -0.39,-0.44 -0.8,-0.93 -1.3,-1.2 -5.8,-3.11 -10.58,-7.58 -15.53,-11.8 -2.33,-1.99 -3.51,-2.14 -5.81,-0.11 -3.42,3.02 -6.68,6.18 -9.45,9.85 -1.53,2.03 -3.4,3.81 -5.18,5.64 -1.03,1.05 -1.73,0.84 -2.53,-0.37 -1.38,-2.1 -1.27,-4.24 -0.25,-6.38 1.19,-2.48 2.54,-4.89 3.76,-7.36 1.9,-3.87 3.89,-7.7 5.55,-11.67 0.61,-1.46 0.42,-3.27 0.56,-4.92 0.02,-0.25 -0.11,-0.58 -0.28,-0.78 -2.85,-3.26 -3.93,-7.38 -5.39,-11.28 -2.21,-5.91 -3.22,-12.1 -3.65,-18.39 -0.22,-3.15 -0.47,-6.3 -0.69,-9.45 -0.07,-1.07 -0.48,-1.8 -1.63,-2.05 -0.48,-0.1 -0.93,-0.43 -1.34,-0.74 C 22.73,91.02 22.48,90.69 22.24,90.37 20.15,87.56 17.39,86.33 13.88,86.43 10.85,86.51 7.81,86.27 4.77,86.2 3.79,86.18 2.98,85.9 2.38,85.09 1.74,84.22 1.02,83.41 0.42,82.52 c -0.74,-1.1 -0.54,-1.62 0.76,-1.97 1.12,-0.3 2.27,-0.45 3.4,-0.72 2.6,-0.62 5.16,-1.46 7.79,-1.85 4.5,-0.65 9.03,-1.04 13.56,-1.5 0.88,-0.09 1.44,-0.38 1.59,-1.29 1.22,-7.54 4.56,-14.35 7.36,-21.35 0.31,-0.77 0.75,-1.5 1.19,-2.21 0.2,-0.31 0.56,-0.51 0.85,-0.76 0.22,0.31 0.57,0.59 0.63,0.93 0.56,3.01 1.19,6.02 1.56,9.06 0.24,1.83 0.06,3.69 0.06,5.53 z"
         id="path8"
         inkscape:connector-curvature="0"
         style="fill:#000000;fill-opacity:1" /><path
         d="m 176.91,63.49 c 0.94,1.48 2.13,3.23 3.15,5.08 0.33,0.6 0.25,1.46 0.26,2.2 0.01,1.61 0.21,1.9 1.78,2.1 1.23,0.16 2.48,0.17 3.69,0.42 0.98,0.2 1.89,0.7 2.85,0.98 0.66,0.2 1.35,0.35 2.03,0.37 0.98,0.03 1.99,-0.22 2.94,-0.07 2.09,0.32 4.23,0.59 6.2,1.31 2.48,0.91 5.07,0.82 7.59,1.27 0.57,0.1 1.21,0.03 1.76,-0.14 0.67,-0.21 1.22,-0.3 1.71,0.33 0.52,0.67 1.13,1.29 0.65,2.24 -0.02,0.04 -0.03,0.07 -0.04,0.11 -1.56,3.92 -1.74,3.99 -6,3.9 -1.29,-0.03 -2.59,0.29 -3.89,0.42 -0.34,0.03 -0.69,-0.09 -1.04,-0.09 -0.96,0 -1.98,-0.16 -2.88,0.09 -1.61,0.44 -3.16,1.1 -4.7,1.73 -1.07,0.44 -2.15,0.89 -3.12,1.51 -1.05,0.67 -2.06,0.9 -3.28,0.66 -1.41,-0.27 -2.85,-0.4 -4.28,-0.54 -1.53,-0.15 -2.02,0.38 -2.14,1.93 -0.22,2.82 -0.32,5.68 -0.84,8.45 -1.65,8.74 -3.06,17.56 -6.36,25.89 -0.9,2.28 -2.28,4.38 -3.48,6.54 -1.41,2.53 -1.24,3.03 0.81,5.03 1.77,1.72 3.27,3.7 4.92,5.54 1.19,1.32 2.34,2.72 3.7,3.86 1.71,1.43 3.69,2.54 5.41,3.97 0.96,0.79 1.75,1.87 2.35,2.96 0.31,0.55 0.26,1.54 -0.05,2.1 -0.22,0.39 -1.17,0.54 -1.77,0.49 -0.81,-0.07 -1.66,-0.31 -2.4,-0.68 -2.04,-1.01 -4,-2.18 -6.04,-3.18 -1.38,-0.68 -2.88,-1.11 -4.26,-1.8 -1.72,-0.87 -3.41,-1.56 -5.39,-1.8 -1.05,-0.13 -2.08,-0.9 -3.34,-0.67 -0.41,0.08 -0.93,-0.19 -1.34,-0.42 -1.02,-0.56 -1.83,-0.34 -2.55,0.5 -0.8,0.95 -1.64,1.86 -2.4,2.84 -2.62,3.37 -6.23,5.45 -9.79,7.6 -1.45,0.88 -2.97,1.66 -4.37,2.62 -0.44,0.3 -0.7,1 -0.84,1.56 -0.18,0.73 -0.05,1.53 -0.23,2.25 -0.27,1.09 -1,1.31 -1.88,0.66 -4.92,-3.61 -5.49,-9.41 -1.34,-13.53 1.33,-1.32 2.76,-2.55 4.1,-3.87 4.49,-4.42 8.35,-9.34 12.01,-14.46 3.62,-5.07 6.57,-10.46 9.13,-16.11 1.47,-3.24 1.85,-6.69 2.21,-10.14 0.84,-7.99 1.61,-15.99 2.28,-23.99 0.41,-4.93 0.91,-9.87 -0.26,-14.8 -0.27,-1.13 -0.06,-2.38 -0.07,-3.58 -0.01,-0.72 0.4,-0.92 1.02,-0.75 1.83,0.49 3.65,1.08 5.5,1.48 0.61,0.12 1.32,-0.2 2.32,-0.37 z"
         id="path10"
         inkscape:connector-curvature="0"
         style="fill:#000000;fill-opacity:1" /></g></g></svg>