<?xml version="1.0" encoding="UTF-8" standalone="no"?>
<!-- Generator: Adobe Illustrator 24.1.0, SVG Export Plug-In  -->

<svg
   xmlns:dc="http://purl.org/dc/elements/1.1/"
   xmlns:cc="http://creativecommons.org/ns#"
   xmlns:rdf="http://www.w3.org/1999/02/22-rdf-syntax-ns#"
   xmlns:svg="http://www.w3.org/2000/svg"
   xmlns="http://www.w3.org/2000/svg"
   xmlns:sodipodi="http://sodipodi.sourceforge.net/DTD/sodipodi-0.dtd"
   xmlns:inkscape="http://www.inkscape.org/namespaces/inkscape"
   version="1.1"
   x="0px"
   y="0px"
   width="217"
   height="217"
   viewBox="0 0 216.99999 217"
   xml:space="preserve"
   id="svg9"
   sodipodi:docname="devoted_of_sigmar.svg"
   inkscape:version="0.92.3 (2405546, 2018-03-11)"><metadata
   id="metadata13"><rdf:RDF><cc:Work
       rdf:about=""><dc:format>image/svg+xml</dc:format><dc:type
         rdf:resource="http://purl.org/dc/dcmitype/StillImage" /><dc:title /></cc:Work></rdf:RDF></metadata><sodipodi:namedview
   pagecolor="#ffffff"
   bordercolor="#666666"
   borderopacity="1"
   objecttolerance="10"
   gridtolerance="10"
   guidetolerance="10"
   inkscape:pageopacity="0"
   inkscape:pageshadow="2"
   inkscape:window-width="1920"
   inkscape:window-height="1017"
   id="namedview11"
   showgrid="false"
   inkscape:zoom="0.35355339"
   inkscape:cx="-923.90566"
   inkscape:cy="268.63127"
   inkscape:window-x="-8"
   inkscape:window-y="-8"
   inkscape:window-maximized="1"
   inkscape:current-layer="svg9" />
<defs
   id="defs2">
</defs>

<path
   style="fill:#000000;fill-opacity:1;stroke:none;stroke-width:2.59382725px;stroke-linecap:butt;stroke-linejoin:miter;stroke-opacity:1"
   d="M 46.683814,4.5500002e-7 C 60.900064,13.839421 72.722134,27.450551 79.456224,41.030091 c 6.7341,13.57955 6.287,44.71313 6.287,44.71313 0,0 -31.13358,0.4471 -44.71312,-6.28699 C 27.450534,72.722131 13.839424,60.900081 3.95e-6,46.683831 7.825844,72.703291 9.103724,84.889391 9.103724,108.5 c 0,23.6106 -1.27788,35.79671 -9.10372005,61.81617 C 13.839424,156.09992 27.450534,144.27788 41.030104,137.54378 c 13.57954,-6.73409 44.71312,-6.28699 44.71312,-6.28699 0,0 0.4471,31.13358 -6.287,44.71312 -6.73409,13.57954 -18.55616,27.19067 -32.77241,41.03009 26.01946,-7.82586 38.2056,-9.10374 61.816206,-9.10374 23.6106,0 35.79671,1.27788 61.81617,9.10374 -14.21625,-13.83942 -26.03832,-27.45055 -32.77241,-41.03009 -6.7341,-13.57954 -6.287,-44.71312 -6.287,-44.71312 0,0 31.13358,-0.4471 44.71312,6.28699 13.57954,6.7341 27.19068,18.55614 41.0301,32.77239 -7.82587,-26.01946 -9.10372,-38.20557 -9.10372,-61.81617 0,-23.610609 1.27785,-35.796709 9.10372,-61.816169 -13.83942,14.21625 -27.45056,26.0383 -41.0301,32.7724 -13.57954,6.73409 -44.71312,6.28699 -44.71312,6.28699 0,0 -0.4471,-31.13358 6.287,-44.71313 C 144.27787,27.450551 156.09994,13.839421 170.31619,4.5500001e-7 144.29673,7.8258504 132.11062,9.1037304 108.50002,9.1037304 84.889414,9.1037304 72.703274,7.8258504 46.683814,4.5500002e-7 Z"
   id="path831"
   inkscape:connector-curvature="0" /></svg>