<?xml version="1.0" encoding="UTF-8" standalone="no"?>
<!-- Generator: Adobe Illustrator 24.1.0, SVG Export Plug-In  -->

<svg
   xmlns:dc="http://purl.org/dc/elements/1.1/"
   xmlns:cc="http://creativecommons.org/ns#"
   xmlns:rdf="http://www.w3.org/1999/02/22-rdf-syntax-ns#"
   xmlns:svg="http://www.w3.org/2000/svg"
   xmlns="http://www.w3.org/2000/svg"
   xmlns:sodipodi="http://sodipodi.sourceforge.net/DTD/sodipodi-0.dtd"
   xmlns:inkscape="http://www.inkscape.org/namespaces/inkscape"
   version="1.1"
   x="0px"
   y="0px"
   width="244.774"
   height="244.774"
   viewBox="0 0 244.774 244.774"
   xml:space="preserve"
   id="svg12"
   sodipodi:docname="khorne_bloodbound.svg"
   inkscape:version="0.92.3 (2405546, 2018-03-11)"><metadata
   id="metadata16"><rdf:RDF><cc:Work
       rdf:about=""><dc:format>image/svg+xml</dc:format><dc:type
         rdf:resource="http://purl.org/dc/dcmitype/StillImage" /><dc:title></dc:title></cc:Work></rdf:RDF></metadata><sodipodi:namedview
   pagecolor="#ffffff"
   bordercolor="#666666"
   borderopacity="1"
   objecttolerance="10"
   gridtolerance="10"
   guidetolerance="10"
   inkscape:pageopacity="0"
   inkscape:pageshadow="2"
   inkscape:window-width="1920"
   inkscape:window-height="1017"
   id="namedview14"
   showgrid="false"
   inkscape:zoom="0.96413106"
   inkscape:cx="-30.761819"
   inkscape:cy="122.39"
   inkscape:window-x="-8"
   inkscape:window-y="-8"
   inkscape:window-maximized="1"
   inkscape:current-layer="svg12" />
<defs
   id="defs2">
</defs>
<g
   id="g10"
   transform="translate(24.028057,-0.005896)">
	<g
   id="g8">
		<path
   d="m 106.91,244.78 c -0.16,0 -0.31,0 -0.47,0 -3.84,-0.84 -4.36,-3.61 -4.4,-6.99 -0.03,-2.6 -0.7,-5.2 -1.11,-7.8 -0.36,-2.31 -1.86,-3.97 -3.7,-3.69 -2.09,0.32 -2.22,2.14 -2.51,3.89 -0.47,2.81 -0.94,5.66 -1.88,8.33 -1.29,3.66 -1.9,3.85 -5.8,3.74 -0.85,-0.02 -1.71,0.03 -2.56,-0.02 -2.84,-0.16 -4.81,-1.85 -5.11,-4.69 -0.35,-3.26 -1.34,-6.19 -3.66,-8.56 -0.56,-0.57 -1.29,-0.98 -1.94,-1.46 -0.44,0.84 -1.17,1.64 -1.27,2.52 -0.19,1.6 0.28,3.32 -0.09,4.86 -0.31,1.27 -1.24,3.1 -2.23,3.35 -1.43,0.36 -3.39,0.11 -4.19,-1.97 -0.83,-2.16 -1.79,-4.27 -2.84,-6.33 -0.53,-1.04 -1.21,-2.36 -2.15,-2.72 -0.59,-0.23 -1.72,1.18 -2.72,1.64 -1.17,0.54 -2.43,1.05 -3.68,1.1 -0.38,0.01 -1.1,-1.53 -1.17,-2.41 -0.24,-2.85 0.35,-5.91 -0.48,-8.54 -1.37,-4.34 -1.13,-8.52 -0.54,-12.84 0.51,-3.75 0.38,-7.38 -1.74,-10.77 -0.65,-1.05 -0.89,-2.52 -0.86,-3.78 0.06,-2.4 -0.91,-4.14 -2.62,-5.67 -1.44,-1.29 -2.84,-2.65 -4.09,-4.12 -2.34,-2.75 -3.75,-2.89 -6.55,-0.4 -1.39,1.24 -2.65,2.64 -4.13,3.74 -2.73,2.01 -5.37,3.4 -9.27,0.43 -1.74,-1.32 -3.12,-3.09 -4.69,-4.63 -2.54,-2.48 -5.31,-4.76 -7.62,-7.43 -4.47,-5.15 -5.78,-11.52 -6.25,-18.11 -0.34,-4.79 -0.55,-9.6 -1.01,-14.38 -0.15,-1.56 -0.54,-3.32 -1.43,-4.56 -3.01,-4.18 -2.97,-9.7 0.89,-13.21 4.07,-3.7 5.13,-8.46 5.8,-13.49 C 8.93,109.14 8.83,108.42 8.7,107.74 7.34,100.77 5.5,93.86 4.7,86.82 3.98,80.46 4.36,73.95 6.24,67.72 c 1.36,-4.5 2.94,-8.94 4.5,-13.38 1.07,-3.06 1.93,-6.26 3.48,-9.06 2.33,-4.24 5.1,-8.28 7.86,-12.28 2.23,-3.23 4.8,-6.22 7.11,-9.41 3.5,-4.84 8.09,-8.4 13.56,-10.5 6.4,-2.46 12.94,-4.64 19.57,-6.4 6.62,-1.76 13.43,-2.85 20.14,-4.26 1.51,-0.32 2.96,-0.87 4.47,-1.17 2.55,-0.5 5.14,-1.32 7.68,-1.25 10.67,0.3 21.35,0.74 32,1.43 3.03,0.2 6.15,1.04 8.95,2.25 5.44,2.36 10.6,5.36 16.01,7.79 6.26,2.81 12.36,5.87 16.76,11.26 3.01,3.68 5.9,7.61 7.98,11.85 1.88,3.83 2.59,8.24 3.83,12.39 0.4,1.33 0.78,2.68 1.26,3.98 2.41,6.51 5.55,12.86 7.11,19.57 2.17,9.32 3.29,18.94 1.75,28.54 -1.07,6.71 0.07,13.46 -0.68,20.13 -0.98,8.76 1.64,16.87 3.85,25.08 0.22,0.81 0.55,1.68 1.09,2.29 2.37,2.65 2.61,5.63 1.7,8.89 -0.29,1.04 -0.31,2.15 -0.58,3.2 -1.2,4.65 -3.42,8.46 -8.45,9.85 -0.81,0.23 -1.73,0.47 -2.33,1 -3.86,3.42 -7.65,6.93 -11.47,10.4 -1.43,1.3 -2.81,2.68 -4.36,3.81 -2.1,1.54 -4.92,1.1 -7.51,-0.94 -3.44,-2.7 -6.34,-1.72 -7.78,2.36 -1.48,4.22 -3.48,8.27 -4.86,12.51 -1.71,5.27 -4.01,10.42 -3.87,16.17 0.08,3.48 -0.03,6.97 -0.2,10.46 -0.1,2.1 -3.16,5.64 -5.11,5.78 -2.36,0.18 -2.54,-2.05 -3.33,-3.55 -0.11,-0.21 -0.18,-0.5 -0.35,-0.59 -1.02,-0.49 -2.05,-1.18 -3.11,-1.26 -0.35,-0.03 -1,1.51 -1.2,2.4 -0.23,1.04 -0.22,2.17 -0.14,3.24 0.27,3.85 -1.54,6.8 -4.39,8.99 -0.89,0.69 -2.76,0.37 -4.08,0.05 -0.36,-0.09 -0.52,-1.82 -0.45,-2.78 0.25,-3.07 0.85,-6.12 0.93,-9.19 0.06,-2.27 -1.45,-3.53 -3.54,-3.27 -1.8,0.22 -1.83,1.79 -1.99,3.18 -0.13,1.07 -0.16,2.2 -0.53,3.2 -1.38,3.67 -2.68,7.41 -4.46,10.88 -0.66,1.29 -2.55,2 -3.96,2.84 -0.61,0.37 -1.45,0.4 -2.19,0.58 z M 66.09,72.03 c -0.8,1.08 -1.21,1.83 -1.8,2.41 -3.3,3.24 -6.7,6.38 -9.94,9.67 -2.16,2.2 -4.96,3.98 -5.02,7.67 -0.11,6.51 -0.53,13.02 -0.57,19.53 -0.02,3.74 2.03,5.33 6.1,5.33 2.17,0 4.35,-0.2 6.5,0.03 5.75,0.62 11.47,1.88 17.22,2.05 9.9,0.29 19.83,0.01 29.74,-0.17 8.58,-0.16 17.15,-0.54 25.73,-0.76 3.25,-0.08 6.51,0.08 9.76,0.02 2.61,-0.04 3.55,-1.04 3.66,-3.65 0.1,-2.17 0.21,-4.33 0.25,-6.5 0.1,-4.79 0.24,-9.57 0.16,-14.36 -0.02,-1.02 -0.77,-2.17 -1.48,-3 -4.01,-4.7 -8.1,-9.34 -12.18,-13.98 -1.16,-1.32 -2.37,-2.59 -4.07,-4.44 1.66,-0.68 2.89,-1.55 4.17,-1.65 3.24,-0.25 6.5,-0.25 9.75,-0.17 2.04,0.05 3.2,-0.89 3.29,-2.76 0.18,-3.92 0.28,-7.87 0.09,-11.79 -0.1,-2.03 -1.35,-3.15 -3.76,-3.1 -7.67,0.13 -15.34,0.05 -23.01,-0.09 -0.88,-0.02 -2.08,-0.75 -2.51,-1.5 -0.33,-0.58 0.05,-1.93 0.57,-2.57 1.7,-2.1 3.57,-4.07 5.45,-6.01 2.17,-2.25 4.64,-3.62 8,-3.47 4.17,0.2 8.37,0.05 12.53,-0.27 0.99,-0.08 2.62,-1.35 2.7,-2.2 0.36,-3.61 0.32,-7.26 0.3,-10.9 -0.01,-2.13 -1.19,-3.24 -3.36,-3.3 -7.9,-0.24 -15.8,-0.51 -23.7,-0.72 -0.65,-0.02 -1.46,0.19 -1.93,0.61 -2.66,2.34 -5.28,4.73 -7.83,7.19 -3.44,3.32 -6.75,6.78 -10.23,10.06 -1.65,1.55 -3.69,1.35 -5.32,-0.11 -1.71,-1.53 -3.55,-2.94 -5.2,-4.54 -3.53,-3.42 -7.38,-6.64 -10.32,-10.52 -1.85,-2.44 -3.8,-3.25 -6.41,-3.17 -6.81,0.23 -13.61,0.66 -20.41,0.91 -2.26,0.08 -3.93,0.98 -4.12,3.23 -0.31,3.9 -0.52,7.85 -0.21,11.74 0.09,1.16 1.97,2.97 3.2,3.11 3.97,0.46 8.03,0.5 12.04,0.3 3.63,-0.18 6.65,0.38 8.91,3.59 1.13,1.61 2.72,2.93 4.22,4.24 1.81,1.58 1.84,2.81 -0.41,3.75 -1.96,0.82 -4.16,1.58 -6.23,1.53 -5.79,-0.13 -11.59,-0.57 -17.35,-1.15 -2.3,-0.23 -3.54,0.67 -3.88,2.61 -0.41,2.34 -0.38,4.75 -0.5,7.14 -0.23,4.72 3.44,9.45 8.66,8.97 1.84,-0.17 3.73,-0.1 5.57,0.07 0.98,0.11 1.91,0.64 3.18,1.09 z m -12.63,90.49 c 4.23,-0.27 7.48,-0.64 10.72,-0.62 3.46,0.02 6.3,-1.44 9.07,-3.15 2.09,-1.29 4.17,-2.65 6.04,-4.24 4.62,-3.91 4.48,-8.84 -0.54,-12.43 -2.47,-1.76 -5.33,-3.08 -8.16,-4.21 -6.66,-2.66 -13.25,-5.72 -20.16,-7.42 -6.03,-1.49 -12.35,-1.74 -18.12,-4.51 -1.87,-0.9 -4.4,0.43 -5.54,2.24 -0.7,1.11 -1.43,2.22 -2.3,3.18 -2.07,2.26 -2.47,4.82 -1.29,7.52 2.38,5.45 5.17,10.63 9.3,15.05 3.91,4.19 8.31,7.38 14.09,8.17 2.59,0.36 5.24,0.33 6.89,0.42 z m 82.66,-0.42 c 1.31,-0.13 2.64,-0.14 3.91,-0.42 5.05,-1.12 10.15,-2.09 15.1,-3.58 2.9,-0.87 5.83,-2.22 8.21,-4.04 2.19,-1.68 3.86,-4.16 5.41,-6.52 1.88,-2.86 5.19,-4.97 5.34,-8.76 0.11,-2.74 -0.11,-5.53 -0.55,-8.24 -0.67,-4.1 -1.99,-4.9 -6.08,-4.21 -5.26,0.89 -10.53,1.73 -15.76,2.74 -6.14,1.19 -12.27,2.45 -18.36,3.86 -1.91,0.44 -3.66,2.01 -5.53,2.13 -4.11,0.25 -7.62,1.35 -10.79,4.08 -2.01,1.73 -2.43,3.67 -0.8,5.81 0.89,1.17 1.38,2.66 1.97,4.04 0.33,0.77 0.34,1.71 0.77,2.42 3.91,6.43 9.74,9.81 17.16,10.69 z m -33.64,39.98 c 3.11,-0.76 6.87,-1.4 10.42,-2.63 2.83,-0.98 3.26,-2.82 1.61,-5.2 -1.8,-2.59 -3.09,-5.32 -3.72,-8.41 -0.24,-1.18 -0.89,-2.3 -1.46,-3.38 -1.97,-3.75 -4.07,-7.37 -3.92,-11.9 0.09,-2.76 -0.49,-5.55 -0.81,-8.32 -0.17,-1.51 -0.73,-2.59 -2.56,-2.72 -1.8,-0.14 -3.06,0.29 -3.49,2.17 -0.52,2.26 -1.09,4.51 -1.51,6.79 -0.67,3.68 -2.05,6.97 -3.9,10.29 -2.61,4.68 -4.44,9.84 -6.24,14.92 -0.82,2.31 0.38,4.36 2.88,4.59 3.39,0.32 6.01,2.28 9.08,3.17 0.96,0.26 1.96,0.34 3.62,0.63 z"
   id="path4"
   inkscape:connector-curvature="0"
   style="fill:#ffffff" />
		<path
   d="m 120.78,92.52 c -2.16,0.35 -3.72,0.82 -5.28,0.81 -5.27,-0.02 -10.53,-0.29 -15.8,-0.32 -5.96,-0.04 -11.92,0.07 -17.87,0.1 -1.01,0.01 -2.04,0.11 -3.01,-0.08 -0.9,-0.18 -2.45,-0.66 -2.47,-1.06 -0.06,-1.29 0.05,-2.95 0.82,-3.87 2.66,-3.18 5.61,-6.1 8.46,-9.12 3.27,-3.46 6.51,-6.95 9.87,-10.31 0.5,-0.5 1.68,-0.66 2.44,-0.5 0.85,0.18 1.71,0.79 2.34,1.43 5.78,5.83 11.55,11.66 17.2,17.61 1.23,1.3 1.95,3.09 3.3,5.31 z"
   id="path6"
   inkscape:connector-curvature="0"
   style="fill:#ffffff" />
	</g>
</g>
</svg>