<?xml version="1.0" encoding="UTF-8" standalone="no"?>
<!-- Generated by IcoMoon.io -->

<svg
   xmlns:dc="http://purl.org/dc/elements/1.1/"
   xmlns:cc="http://creativecommons.org/ns#"
   xmlns:rdf="http://www.w3.org/1999/02/22-rdf-syntax-ns#"
   xmlns:svg="http://www.w3.org/2000/svg"
   xmlns="http://www.w3.org/2000/svg"
   xmlns:sodipodi="http://sodipodi.sourceforge.net/DTD/sodipodi-0.dtd"
   xmlns:inkscape="http://www.inkscape.org/namespaces/inkscape"
   version="1.1"
   width="215"
   height="215"
   viewBox="0 0 214.99999 215"
   id="svg28"
   sodipodi:docname="creature.svg"
   inkscape:version="0.92.3 (2405546, 2018-03-11)">
  <metadata
     id="metadata34">
    <rdf:RDF>
      <cc:Work
         rdf:about="">
        <dc:format>image/svg+xml</dc:format>
        <dc:type
           rdf:resource="http://purl.org/dc/dcmitype/StillImage" />
        <dc:title>treasure-creature</dc:title>
      </cc:Work>
    </rdf:RDF>
  </metadata>
  <defs
     id="defs32" />
  <sodipodi:namedview
     pagecolor="#ffffff"
     bordercolor="#666666"
     borderopacity="1"
     objecttolerance="10"
     gridtolerance="10"
     guidetolerance="10"
     inkscape:pageopacity="0"
     inkscape:pageshadow="2"
     inkscape:window-width="1920"
     inkscape:window-height="1017"
     id="namedview30"
     showgrid="false"
     fit-margin-top="0"
     fit-margin-left="0"
     fit-margin-right="0"
     fit-margin-bottom="0"
     inkscape:zoom="1.84375"
     inkscape:cx="-77.937322"
     inkscape:cy="47.636854"
     inkscape:window-x="-8"
     inkscape:window-y="-8"
     inkscape:window-maximized="1"
     inkscape:current-layer="svg28" />
  <title
     id="title2">treasure-creature</title>
  <g
     id="g853"
     transform="matrix(6.7190843,0,0,6.7190843,0.00568435,-0.00930917)"
     style="fill:#000000;fill-opacity:1">
    <path
       id="path4"
       d="M 5.317,31.767 C 4.849,31.481 4.914,31.351 5.642,31.13 c 0.559,-0.156 1.403,-0.819 1.403,-1.092 0,-0.065 0.065,-0.117 0.143,-0.117 0.182,0 0.429,-0.26 0.741,-0.767 C 8.15,28.777 8.176,28.543 8.124,26.62 8.085,25.204 8.111,24.463 8.202,24.398 8.28,24.359 8.345,24.19 8.345,24.047 c 0,-0.273 0.741,-1.559 0.936,-1.637 0.065,-0.026 0.104,-0.104 0.104,-0.156 0,-0.065 0.26,-0.377 0.572,-0.689 0.455,-0.468 0.611,-0.559 0.741,-0.442 0.104,0.091 0.143,0.104 0.091,0.052 -0.104,-0.143 0.286,-0.611 0.507,-0.611 0.091,0 0.169,-0.052 0.169,-0.13 0,-0.065 0.065,-0.13 0.143,-0.13 0.195,0 0.507,0.338 0.416,0.442 -0.052,0.039 -0.013,0.078 0.078,0.078 0.091,0 0.143,0.091 0.104,0.182 -0.052,0.13 -0.013,0.169 0.104,0.117 0.299,-0.104 -0.052,0.754 -0.429,1.053 -0.208,0.169 -0.26,0.273 -0.156,0.338 0.104,0.065 0.026,0.13 -0.182,0.182 -0.182,0.039 -0.338,0.143 -0.338,0.208 0,0.078 -0.117,0.13 -0.26,0.13 -0.364,0 -0.689,0.364 -0.949,1.053 -0.234,0.624 -0.299,1.806 -0.104,2.014 0.221,0.221 0.26,1.105 0.065,1.182 -0.117,0.039 -0.182,0.273 -0.182,0.689 0,0.351 -0.052,0.663 -0.117,0.715 -0.065,0.039 -0.156,0.247 -0.208,0.455 -0.052,0.221 -0.143,0.39 -0.208,0.39 -0.065,0 -0.117,0.091 -0.117,0.195 0,0.104 -0.091,0.195 -0.195,0.195 -0.104,0 -0.195,0.052 -0.195,0.117 0,0.065 -0.169,0.299 -0.39,0.507 -0.494,0.507 -1.507,1.312 -1.39,1.105 0.078,-0.117 0.039,-0.143 -0.091,-0.091 -0.117,0.039 -0.208,0.156 -0.208,0.26 0,0.26 -0.884,0.234 -1.338,-0.052 z"
       inkscape:connector-curvature="0"
       style="fill:#000000;fill-opacity:1" />
    <path
       id="path6"
       d="m 4.486,31.261 c -0.299,-0.117 -0.182,-0.26 0.221,-0.26 0.234,0 0.377,0.065 0.351,0.143 -0.052,0.169 -0.338,0.221 -0.572,0.117 z"
       inkscape:connector-curvature="0"
       style="fill:#000000;fill-opacity:1" />
    <path
       id="path8"
       d="m 18.442,30.611 c -0.052,-0.039 -0.091,-0.312 -0.091,-0.585 0,-0.312 -0.052,-0.481 -0.13,-0.429 -0.065,0.039 -0.13,-0.039 -0.13,-0.182 0,-0.156 -0.078,-0.273 -0.156,-0.273 -0.117,0 -0.104,-0.052 0.026,-0.13 0.156,-0.104 0.13,-0.13 -0.104,-0.13 -0.169,0 -0.26,-0.052 -0.221,-0.13 0.039,-0.065 0.026,-0.13 -0.052,-0.13 -0.065,0 -0.143,0.078 -0.182,0.169 -0.026,0.078 -0.065,-0.845 -0.078,-2.066 -0.013,-1.871 0.013,-2.248 0.182,-2.313 0.299,-0.104 0.234,-0.468 -0.13,-0.754 -0.273,-0.221 -0.325,-0.364 -0.325,-1.001 0,-0.858 -0.065,-0.975 -0.403,-0.754 -0.195,0.13 -0.247,0.312 -0.247,0.962 0,0.455 0.052,0.819 0.13,0.819 0.078,0 0.13,0.195 0.13,0.442 0,0.247 -0.052,0.494 -0.13,0.533 -0.065,0.039 -0.13,0.455 -0.13,0.91 0,0.754 -0.143,1.143 -0.312,0.871 -0.039,-0.065 -0.078,-0.832 -0.091,-1.728 -0.013,-1.04 -0.065,-1.65 -0.169,-1.702 -0.091,-0.065 -0.078,-0.104 0.052,-0.104 0.169,0 0.169,-0.013 0,-0.13 -0.169,-0.104 -0.169,-0.13 0,-0.13 0.117,0 0.078,-0.078 -0.117,-0.221 -0.286,-0.195 -0.325,-0.195 -0.481,0.026 -0.104,0.13 -0.221,0.455 -0.26,0.702 -0.052,0.26 -0.143,0.507 -0.221,0.546 -0.065,0.052 -0.156,0.663 -0.195,1.364 -0.052,1.053 -0.117,1.377 -0.364,1.767 -0.234,0.377 -0.312,0.676 -0.312,1.273 0,0.611 -0.039,0.78 -0.195,0.78 -0.143,0 -0.195,-0.169 -0.195,-0.702 0,-0.442 -0.065,-0.728 -0.156,-0.767 -0.13,-0.052 -0.117,-0.104 0.026,-0.208 0.156,-0.117 0.13,-0.143 -0.143,-0.143 -0.364,0 -0.767,0.455 -0.767,0.845 0,0.117 -0.091,0.299 -0.208,0.416 -0.104,0.117 -0.169,0.286 -0.13,0.377 0.052,0.13 -0.039,0.182 -0.312,0.182 -0.377,0 -0.39,-0.013 -0.39,-0.65 0,-0.637 -0.013,-0.663 -0.416,-0.741 -0.234,-0.052 -0.468,-0.078 -0.52,-0.065 -0.156,0.039 -0.026,-0.754 0.143,-0.923 0.104,-0.104 0.182,-0.104 0.312,0.026 0.13,0.13 0.104,0.143 -0.091,0.065 -0.182,-0.065 -0.221,-0.052 -0.156,0.065 0.065,0.091 0.221,0.143 0.351,0.104 0.156,-0.039 0.247,0.026 0.286,0.221 0.026,0.143 0.065,0.026 0.078,-0.273 0,-0.312 -0.039,-0.559 -0.117,-0.559 -0.065,0 -0.13,-0.091 -0.13,-0.195 0,-0.104 -0.078,-0.195 -0.169,-0.195 -0.104,0 -0.286,-0.117 -0.429,-0.273 -0.273,-0.299 -0.13,-0.663 0.286,-0.754 0.13,-0.026 0.273,-0.091 0.312,-0.143 0.039,-0.052 0.247,-0.13 0.455,-0.156 0.221,-0.039 0.312,-0.039 0.234,-0.013 -0.13,0.039 -0.13,0.104 0.013,0.247 0.234,0.221 0.39,0.247 0.26,0.026 -0.065,-0.104 -0.026,-0.117 0.117,-0.065 0.13,0.039 0.221,0.026 0.221,-0.039 0,-0.078 -0.052,-0.13 -0.117,-0.13 -0.078,0 -0.104,-0.117 -0.078,-0.26 0.026,-0.143 -0.013,-0.26 -0.078,-0.26 -0.078,0 -0.104,-0.052 -0.065,-0.117 0.039,-0.065 -0.078,-0.104 -0.26,-0.104 -0.507,0 -0.52,-0.13 -0.065,-0.585 0.312,-0.312 0.403,-0.364 0.338,-0.169 -0.091,0.26 -0.078,0.26 0.117,0.013 0.117,-0.143 0.208,-0.39 0.208,-0.546 0,-0.156 0.078,-0.351 0.182,-0.429 0.104,-0.091 0.208,-0.442 0.234,-0.78 0.026,-0.494 0,-0.624 -0.156,-0.611 -0.104,0.013 -0.182,-0.065 -0.156,-0.156 0.013,-0.104 -0.091,-0.208 -0.234,-0.247 -0.143,-0.039 -0.221,-0.117 -0.182,-0.182 0.039,-0.065 -0.078,-0.117 -0.273,-0.117 -0.182,0 -0.364,-0.091 -0.403,-0.195 -0.052,-0.104 -0.156,-0.195 -0.234,-0.195 -0.091,0 -0.247,-0.143 -0.338,-0.325 -0.26,-0.468 -0.832,-0.442 -1.053,0.052 -0.117,0.273 -0.234,0.351 -0.416,0.299 -0.195,-0.052 -0.234,-0.026 -0.169,0.117 0.052,0.104 0.013,0.078 -0.091,-0.039 -0.104,-0.13 -0.26,-0.234 -0.364,-0.234 -0.143,0 -0.143,-0.026 0.013,-0.13 0.156,-0.104 0.143,-0.13 -0.104,-0.13 -0.299,0 -1.066,-0.338 -1.066,-0.468 0,-0.039 0.065,-0.026 0.156,0.026 0.091,0.052 0.104,0.039 0.052,-0.065 -0.052,-0.078 -0.247,-0.13 -0.442,-0.117 -0.338,0.026 -0.351,0.052 -0.39,0.91 -0.026,0.507 0.013,0.884 0.078,0.884 0.078,0 0.156,0.078 0.195,0.182 0.065,0.156 -0.026,0.169 -0.403,0.117 -0.26,-0.039 -0.494,-0.13 -0.52,-0.195 -0.026,-0.052 -0.13,-0.104 -0.234,-0.104 -0.104,0 -0.221,-0.091 -0.26,-0.195 -0.052,-0.117 -0.247,-0.195 -0.507,-0.195 -0.351,0 -0.442,0.052 -0.481,0.299 -0.026,0.156 0.039,0.429 0.143,0.598 0.156,0.247 0.169,0.325 0.039,0.377 -0.078,0.026 -0.156,0.13 -0.156,0.234 0,0.598 -1.442,-0.299 -1.897,-1.182 C 2.817,19.758 2.83,18.94 3.103,18.329 3.298,17.9 3.558,17.64 3.519,17.939 c -0.052,0.273 0.039,0.312 0.195,0.078 0.143,-0.182 0.143,-0.273 0.039,-0.338 -0.104,-0.065 -0.078,-0.104 0.065,-0.104 0.299,0 0.442,-0.26 0.221,-0.403 -0.13,-0.078 -0.143,-0.117 -0.013,-0.117 0.234,0 0.182,-0.234 -0.078,-0.286 -0.208,-0.052 -1.196,0.351 -1.196,0.494 0,0.039 0.078,0.026 0.169,-0.026 C 2.999,17.198 2.908,17.315 2.713,17.51 2.505,17.705 2.31,17.822 2.258,17.77 2.128,17.64 2.167,16.276 2.31,16.172 2.375,16.12 2.544,15.86 2.674,15.6 c 0.143,-0.273 0.299,-0.494 0.364,-0.494 0.052,0 0.104,-0.091 0.104,-0.195 0,-0.104 0.065,-0.195 0.13,-0.195 0.078,0 0.364,-0.234 0.637,-0.52 0.273,-0.286 0.585,-0.52 0.689,-0.52 0.117,0 0.234,-0.091 0.286,-0.195 0.052,-0.143 0.26,-0.195 0.728,-0.195 0.351,0 0.65,-0.052 0.65,-0.13 0,-0.065 0.078,-0.13 0.169,-0.13 0.182,0 0.611,-0.455 0.611,-0.65 0,-0.169 0.351,-0.169 0.442,-0.013 0.052,0.065 0,0.156 -0.078,0.182 -0.117,0.052 -0.104,0.078 0.039,0.078 0.156,0.013 0.208,-0.13 0.234,-0.637 0.013,-0.52 0.091,-0.741 0.377,-1.053 0.195,-0.208 0.442,-0.546 0.546,-0.741 0.585,-1.053 1.728,-2.365 2.066,-2.365 0.065,0 0.143,-0.091 0.195,-0.195 0.156,-0.416 0.286,-0.169 0.312,0.585 0.013,0.585 0.078,0.832 0.286,1.04 0.247,0.247 0.286,0.247 0.468,0.065 0.117,-0.104 0.26,-0.195 0.325,-0.195 0.078,0 0.26,-0.143 0.429,-0.325 0.169,-0.182 0.364,-0.325 0.455,-0.325 0.078,0 0.143,-0.052 0.143,-0.117 0,-0.065 0.13,-0.169 0.299,-0.221 0.156,-0.052 0.507,-0.234 0.793,-0.403 0.273,-0.182 0.611,-0.299 0.741,-0.26 C 15.27,7.515 15.335,7.489 15.27,7.398 15.218,7.32 15.257,7.294 15.374,7.333 15.517,7.385 15.582,7.307 15.595,7.06 15.621,6.8 15.53,6.657 15.296,6.527 14.971,6.358 14.841,6.007 15.114,6.007 c 0.065,0 0.104,-0.052 0.052,-0.117 -0.039,-0.078 0.052,-0.104 0.195,-0.078 0.182,0.039 0.26,-0.013 0.26,-0.169 0,-0.13 0.182,-0.299 0.429,-0.39 0.221,-0.091 0.598,-0.26 0.832,-0.377 0.221,-0.104 0.455,-0.182 0.494,-0.156 0.052,0.026 0.143,-0.052 0.208,-0.182 0.078,-0.117 0.208,-0.221 0.312,-0.221 0.104,0 0.455,-0.143 0.793,-0.325 0.338,-0.182 0.689,-0.325 0.793,-0.325 0.104,0 0.273,-0.091 0.377,-0.195 0.117,-0.104 0.377,-0.195 0.585,-0.195 0.208,0 0.377,-0.039 0.377,-0.104 0,-0.156 1.338,-0.429 2.56,-0.494 0.962,-0.065 1.105,-0.039 0.975,0.117 -0.13,0.143 -0.039,0.169 0.546,0.117 0.416,-0.026 0.793,0.013 0.936,0.104 0.234,0.143 0.234,0.143 -0.013,0.078 -0.247,-0.078 -0.247,-0.065 -0.026,0.104 0.182,0.13 0.195,0.195 0.065,0.247 -0.13,0.052 -0.13,0.078 0,0.078 0.13,0.013 0.13,0.052 0,0.195 -0.117,0.13 -0.221,0.143 -0.338,0.052 -0.091,-0.078 -0.208,-0.104 -0.247,-0.052 -0.052,0.052 -0.026,0.13 0.052,0.182 0.078,0.052 -0.182,0.104 -0.585,0.117 -0.39,0.013 -0.754,0.078 -0.793,0.13 -0.117,0.156 -0.923,0.559 -1.105,0.559 -0.312,0 -0.988,0.728 -0.988,1.066 0,0.208 -0.117,0.377 -0.325,0.494 -0.182,0.091 -0.325,0.221 -0.325,0.273 0,0.143 0.611,0.234 1.533,0.234 0.442,-0.013 0.884,0.052 0.975,0.13 0.091,0.065 0.416,0.169 0.715,0.221 0.299,0.052 0.546,0.13 0.546,0.195 0,0.065 0.117,0.117 0.26,0.117 0.221,0 2.859,2.443 2.859,2.664 0,0.039 0.065,0.143 0.13,0.234 0.078,0.091 0.234,0.273 0.338,0.416 0.117,0.143 0.156,0.182 0.104,0.078 -0.052,-0.117 -0.039,-0.156 0.052,-0.091 0.078,0.052 0.117,0.169 0.078,0.26 -0.039,0.091 0.026,0.247 0.143,0.338 0.104,0.091 0.195,0.26 0.195,0.39 0,0.13 0.091,0.403 0.195,0.598 0.104,0.208 0.195,0.585 0.195,0.832 0,0.26 0.065,0.533 0.156,0.624 0.195,0.195 0.169,4.171 -0.026,4.366 -0.078,0.078 -0.13,0.234 -0.13,0.364 0,0.13 -0.091,0.273 -0.195,0.312 -0.104,0.052 -0.195,0.195 -0.195,0.338 0,0.143 -0.091,0.338 -0.195,0.442 -0.104,0.117 -0.195,0.312 -0.195,0.455 0,0.13 -0.052,0.247 -0.13,0.247 -0.065,0 -0.13,0.156 -0.13,0.364 0,0.273 -0.026,0.312 -0.13,0.156 -0.091,-0.143 -0.13,-0.143 -0.13,-0.026 0,0.104 -0.065,0.13 -0.156,0.078 -0.104,-0.065 -0.117,-0.026 -0.065,0.13 0.052,0.143 -0.013,0.325 -0.182,0.507 -0.195,0.221 -0.247,0.234 -0.182,0.065 0.052,-0.13 0.039,-0.234 -0.039,-0.234 -0.065,0 -0.169,0.143 -0.208,0.312 -0.039,0.169 -0.169,0.338 -0.273,0.39 -0.117,0.039 -0.169,0.026 -0.13,-0.039 0.039,-0.078 -0.104,-0.117 -0.325,-0.117 -0.234,0.013 -0.39,0.078 -0.39,0.182 0,0.104 -0.156,0.208 -0.351,0.247 -0.208,0.039 -0.559,0.13 -0.806,0.195 -0.247,0.065 -0.533,0.065 -0.65,0.013 -0.117,-0.065 -0.455,-0.143 -0.767,-0.182 -0.312,-0.039 -0.663,-0.156 -0.78,-0.247 -0.117,-0.104 -0.481,-0.273 -0.806,-0.364 -0.325,-0.104 -0.663,-0.26 -0.754,-0.351 -0.091,-0.091 -0.26,-0.169 -0.364,-0.169 -0.104,0 -0.182,-0.117 -0.182,-0.26 0,-0.143 -0.078,-0.26 -0.169,-0.26 -0.234,0 -0.741,-0.442 -0.741,-0.637 0,-0.182 0.871,-0.195 0.936,0 0.052,0.156 1.455,0.286 1.832,0.169 0.182,-0.052 0.221,-0.221 0.221,-1.001 0,-0.91 -0.013,-0.962 -0.442,-1.364 -0.481,-0.455 -0.858,-0.52 -1.169,-0.221 -0.104,0.104 -0.247,0.195 -0.325,0.195 -0.078,0 -0.143,0.091 -0.143,0.195 0,0.104 -0.052,0.195 -0.117,0.195 -0.065,0 -0.156,0.117 -0.208,0.247 -0.052,0.182 -0.182,0.234 -0.481,0.221 -0.351,-0.013 -0.455,0.052 -0.65,0.442 -0.325,0.676 -0.299,1.273 0.091,1.637 0.208,0.195 0.26,0.312 0.156,0.351 -0.091,0.039 0.026,0.078 0.234,0.091 0.221,0.013 0.325,0.052 0.247,0.078 -0.078,0.039 0.13,0.351 0.481,0.715 0.585,0.611 0.637,0.715 0.637,1.286 0,0.351 0.065,0.676 0.13,0.715 0.169,0.104 0.169,0.624 0,0.793 -0.195,0.195 -0.221,4.639 -0.026,4.704 0.247,0.078 0.182,0.377 -0.104,0.455 -0.169,0.039 -0.312,-0.039 -0.468,-0.273 -0.182,-0.286 -0.234,-0.676 -0.234,-2.209 -0.013,-1.351 0.026,-1.91 0.156,-2.001 0.247,-0.221 0.182,-0.637 -0.169,-0.962 -0.26,-0.234 -0.325,-0.429 -0.325,-0.897 0,-0.442 0.039,-0.572 0.169,-0.507 0.117,0.078 0.117,0.065 0,-0.091 -0.078,-0.104 -0.169,-0.351 -0.195,-0.572 -0.026,-0.312 -0.104,-0.39 -0.351,-0.39 -0.247,0 -0.325,0.078 -0.364,0.39 -0.039,0.26 0.013,0.429 0.169,0.546 0.221,0.156 0.221,0.182 -0.013,0.351 -0.169,0.117 -0.234,0.351 -0.247,0.806 -0.013,0.585 -0.039,0.637 -0.299,0.598 -0.273,-0.039 -0.299,0.013 -0.299,0.468 0,0.455 0.039,0.533 0.364,0.611 0.195,0.052 0.286,0.117 0.208,0.156 -0.091,0.026 -0.13,0.39 -0.104,0.988 0.026,0.702 0.013,0.793 -0.052,0.351 -0.078,-0.481 -0.117,-0.546 -0.208,-0.325 -0.143,0.338 -0.208,2.04 -0.078,2.209 0.377,0.481 -0.039,1.806 -0.429,1.403 z m 0.182,-3.652 c 0.195,-0.364 0.013,-0.546 -0.559,-0.546 -0.338,0 -0.338,0.013 -0.338,0.897 0,0.715 0.052,0.975 0.247,1.195 0.13,0.156 0.26,0.351 0.26,0.429 0.013,0.078 0.065,-0.26 0.13,-0.754 0.052,-0.507 0.169,-1.053 0.26,-1.221 z m -7.03,-0.987 c 0,-0.039 -0.065,-0.104 -0.156,-0.156 -0.091,-0.052 -0.104,-0.039 -0.052,0.052 0.091,0.156 0.208,0.208 0.208,0.104 z m 7.627,-1.533 c -0.039,-0.104 -0.078,-0.065 -0.078,0.078 -0.013,0.143 0.026,0.221 0.065,0.169 0.039,-0.039 0.052,-0.156 0.013,-0.247 z m 7.42,-2.833 c 0.299,-0.013 0.325,-0.026 0.117,-0.143 -0.351,-0.208 -0.65,-0.091 -0.689,0.273 -0.039,0.273 -0.026,0.286 0.091,0.104 0.065,-0.13 0.286,-0.234 0.481,-0.234 z M 22.6,20.956 c -0.026,-0.338 -0.078,-0.39 -0.377,-0.39 -0.299,0 -0.364,0.052 -0.364,0.312 0,0.247 0.078,0.338 0.364,0.377 0.195,0.026 0.364,0.065 0.377,0.078 0.013,0 0.013,-0.156 0,-0.377 z m 4.457,0.117 c 0,-0.065 -0.052,-0.117 -0.13,-0.117 -0.065,0 -0.13,0.091 -0.13,0.208 0,0.104 0.065,0.156 0.13,0.117 0.078,-0.039 0.13,-0.13 0.13,-0.208 z M 13.283,21.034 c 0,-0.039 -0.065,-0.104 -0.156,-0.156 -0.091,-0.052 -0.104,-0.039 -0.052,0.052 0.091,0.156 0.208,0.208 0.208,0.104 z m 14.385,-0.416 c -0.117,-0.117 -0.364,0.078 -0.273,0.234 0.052,0.078 0.13,0.078 0.221,-0.013 0.078,-0.078 0.104,-0.169 0.052,-0.221 z M 3.927,19.994 c 0,-0.026 -0.117,-0.078 -0.26,-0.117 -0.143,-0.039 -0.234,-0.013 -0.182,0.052 0.065,0.117 0.442,0.169 0.442,0.065 z m 19.946,-0.207 c -0.039,-0.065 0,-0.104 0.091,-0.065 0.208,0.065 0.546,-0.182 0.663,-0.494 0.052,-0.143 0.156,-0.195 0.247,-0.143 0.091,0.052 0.13,0.052 0.078,-0.013 -0.052,-0.052 -0.013,-0.299 0.091,-0.546 0.221,-0.533 0.273,-2.573 0.065,-2.703 -0.065,-0.039 -0.13,-0.221 -0.13,-0.39 0,-0.156 -0.091,-0.325 -0.195,-0.377 -0.104,-0.039 -0.195,-0.143 -0.195,-0.234 0,-0.091 -0.143,-0.325 -0.325,-0.52 -0.182,-0.195 -0.325,-0.429 -0.325,-0.507 0,-0.091 -0.039,-0.117 -0.091,-0.078 -0.039,0.052 -0.143,0 -0.234,-0.117 -0.182,-0.26 -1.364,-0.416 -1.364,-0.195 0,0.195 0.247,0.455 0.559,0.572 0.13,0.052 0.208,0.143 0.169,0.208 -0.039,0.065 0.013,0.143 0.117,0.182 0.351,0.143 0.845,1.104 0.845,1.637 0,0.286 0.052,0.559 0.13,0.598 0.065,0.039 0.117,0.26 0.104,0.494 -0.013,0.234 0.026,0.741 0.065,1.131 0.052,0.481 0.052,0.585 -0.026,0.325 -0.104,-0.377 -0.117,-0.364 -0.13,0.169 -0.013,0.39 -0.065,0.533 -0.169,0.468 -0.104,-0.065 -0.117,-0.026 -0.065,0.117 0.039,0.13 0.026,0.221 -0.039,0.221 -0.078,0 -0.13,0.091 -0.13,0.195 0,0.104 0.065,0.195 0.143,0.195 0.065,0 0.091,-0.052 0.052,-0.13 z M 3.108,19.306 c -0.052,-0.039 -0.091,0 -0.091,0.091 0,0.091 0.039,0.13 0.091,0.091 0.039,-0.052 0.039,-0.13 0,-0.182 z M 3.511,18.812 C 3.472,18.344 3.277,18.409 3.277,18.89 c 0,0.221 0.052,0.364 0.13,0.312 0.065,-0.039 0.117,-0.221 0.104,-0.39 z m 10.032,-4.873 c 0,-0.065 -0.026,-0.13 -0.052,-0.13 -0.039,0 -0.104,0.065 -0.143,0.13 -0.039,0.078 -0.013,0.13 0.052,0.13 0.078,0 0.143,-0.052 0.143,-0.13 z m 0.728,-0.494 c -0.091,-0.156 -0.988,-0.156 -0.988,0.013 0,0.052 0.065,0.065 0.13,0.026 0.078,-0.039 0.13,-0.013 0.13,0.078 0,0.13 0.039,0.13 0.156,0.013 0.247,-0.247 0.533,-0.195 0.429,0.078 -0.065,0.169 -0.039,0.182 0.078,0.065 0.078,-0.078 0.117,-0.208 0.065,-0.273 z m -2.612,-0.442 c 0.364,-0.156 0.858,-0.299 1.104,-0.312 0.442,-0.013 0.559,-0.26 0.234,-0.455 -0.091,-0.052 -0.039,-0.117 0.104,-0.156 0.13,-0.026 -0.13,-0.065 -0.585,-0.078 -0.702,-0.013 -0.897,0.039 -1.273,0.325 -0.234,0.182 -0.429,0.403 -0.429,0.507 0,0.104 -0.104,0.247 -0.221,0.325 -0.169,0.104 -0.182,0.169 -0.065,0.208 0.078,0.039 0.117,0.143 0.065,0.221 -0.039,0.091 0.026,0.052 0.169,-0.065 0.143,-0.13 0.546,-0.351 0.897,-0.52 z m 1.403,0.364 c -0.052,-0.273 -0.026,-0.312 0.234,-0.26 l 0.312,0.065 -0.312,-0.182 c -0.169,-0.104 -0.429,-0.156 -0.585,-0.117 -0.234,0.065 -0.234,0.091 -0.039,0.13 0.13,0.026 0.221,0.169 0.221,0.364 0,0.169 0.052,0.312 0.117,0.312 0.052,0 0.078,-0.143 0.052,-0.312 z m 2.95,-7.225 c 0,-0.143 -0.052,-0.26 -0.13,-0.26 -0.065,0 -0.13,0.117 -0.13,0.26 0,0.143 0.065,0.26 0.13,0.26 0.078,0 0.13,-0.117 0.13,-0.26 z"
       inkscape:connector-curvature="0"
       style="fill:#000000;fill-opacity:1" />
    <path
       id="path10"
       d="m 24.107,16.447 c 0.052,-0.039 0.13,-0.039 0.182,0 0.039,0.052 0,0.091 -0.091,0.091 -0.091,0 -0.13,-0.039 -0.091,-0.091 z"
       inkscape:connector-curvature="0"
       style="fill:#000000;fill-opacity:1" />
    <path
       id="path12"
       d="m 19.156,28.428 c 0,-0.208 0.026,-0.286 0.065,-0.156 0.026,0.117 0.026,0.299 0,0.39 -0.039,0.078 -0.065,-0.013 -0.065,-0.234 z"
       inkscape:connector-curvature="0"
       style="fill:#000000;fill-opacity:1" />
    <path
       id="path14"
       d="m 19.325,26.284 c 0.039,-0.065 0.104,-0.13 0.143,-0.13 0.026,0 0.052,0.065 0.052,0.13 0,0.078 -0.065,0.13 -0.143,0.13 -0.065,0 -0.091,-0.052 -0.052,-0.13 z"
       inkscape:connector-curvature="0"
       style="fill:#000000;fill-opacity:1" />
    <path
       id="path16"
       d="m 19.624,22.814 c 0.078,-0.026 0.234,-0.026 0.325,0 0.078,0.039 0.013,0.065 -0.169,0.065 -0.182,0 -0.247,-0.026 -0.156,-0.065 z"
       inkscape:connector-curvature="0"
       style="fill:#000000;fill-opacity:1" />
    <path
       id="path18"
       d="m 26.68,22.177 c 0,-0.143 0.039,-0.182 0.078,-0.078 0.039,0.091 0.026,0.208 -0.013,0.247 -0.039,0.052 -0.078,-0.026 -0.065,-0.169 z"
       inkscape:connector-curvature="0"
       style="fill:#000000;fill-opacity:1" />
    <path
       id="path20"
       d="m 26.407,22.125 c 0,-0.091 0.039,-0.13 0.091,-0.091 0.039,0.052 0.039,0.13 0,0.182 -0.052,0.039 -0.091,0 -0.091,-0.091 z"
       inkscape:connector-curvature="0"
       style="fill:#000000;fill-opacity:1" />
    <path
       id="path22"
       d="m 7.085,20.865 c 0.052,-0.039 0.13,-0.039 0.182,0 0.039,0.052 0,0.091 -0.091,0.091 -0.091,0 -0.13,-0.039 -0.091,-0.091 z"
       inkscape:connector-curvature="0"
       style="fill:#000000;fill-opacity:1" />
    <path
       id="path24"
       d="m 12.607,7.741 c 0.091,-0.039 0.208,-0.026 0.247,0.013 0.052,0.039 -0.026,0.078 -0.169,0.065 -0.143,0 -0.182,-0.039 -0.078,-0.078 z"
       inkscape:connector-curvature="0"
       style="fill:#000000;fill-opacity:1" />
    <path
       id="path26"
       d="M 12.88,7.507 C 12.841,7.481 12.633,7.442 12.412,7.416 12.178,7.403 12.022,7.351 12.061,7.299 12.087,7.247 11.996,7.169 11.866,7.117 11.723,7.078 11.58,6.935 11.541,6.818 11.502,6.701 11.45,5.155 11.437,3.388 c -0.039,-3.742 0.026,-4.002 0.676,-2.612 0.234,0.481 0.468,0.975 0.533,1.079 0.247,0.416 0.637,1.286 0.637,1.416 0,0.078 0.052,0.143 0.117,0.143 0.065,0 0.156,0.208 0.195,0.455 0.052,0.247 0.143,0.455 0.208,0.455 0.078,0 0.13,0.091 0.13,0.195 0,0.104 0.052,0.195 0.117,0.195 0.052,0 0.143,0.364 0.195,0.793 l 0.078,0.806 -0.663,0.624 c -0.689,0.676 -0.689,0.676 -0.78,0.572 z m 0.234,-0.156 c -0.052,-0.039 -0.13,-0.039 -0.182,0 -0.039,0.052 0,0.091 0.091,0.091 0.091,0 0.13,-0.039 0.091,-0.091 z"
       inkscape:connector-curvature="0"
       style="fill:#000000;fill-opacity:1" />
  </g>
</svg>
