<?xml version="1.0" encoding="UTF-8" standalone="no"?>
<!-- Generated by IcoMoon.io -->

<svg
   xmlns:dc="http://purl.org/dc/elements/1.1/"
   xmlns:cc="http://creativecommons.org/ns#"
   xmlns:rdf="http://www.w3.org/1999/02/22-rdf-syntax-ns#"
   xmlns:svg="http://www.w3.org/2000/svg"
   xmlns="http://www.w3.org/2000/svg"
   xmlns:sodipodi="http://sodipodi.sourceforge.net/DTD/sodipodi-0.dtd"
   xmlns:inkscape="http://www.inkscape.org/namespaces/inkscape"
   version="1.1"
   width="215"
   height="215"
   viewBox="0 0 215 215"
   id="svg26"
   sodipodi:docname="skull.svg"
   inkscape:version="0.92.3 (2405546, 2018-03-11)">
  <metadata
     id="metadata32">
    <rdf:RDF>
      <cc:Work
         rdf:about="">
        <dc:format>image/svg+xml</dc:format>
        <dc:type
           rdf:resource="http://purl.org/dc/dcmitype/StillImage" />
        <dc:title>treasure-skull</dc:title>
      </cc:Work>
    </rdf:RDF>
  </metadata>
  <defs
     id="defs30" />
  <sodipodi:namedview
     pagecolor="#ffffff"
     bordercolor="#666666"
     borderopacity="1"
     objecttolerance="10"
     gridtolerance="10"
     guidetolerance="10"
     inkscape:pageopacity="0"
     inkscape:pageshadow="2"
     inkscape:window-width="1920"
     inkscape:window-height="1017"
     id="namedview28"
     showgrid="false"
     fit-margin-top="0"
     fit-margin-left="0"
     fit-margin-right="0"
     fit-margin-bottom="0"
     inkscape:zoom="1.84375"
     inkscape:cx="-138.79686"
     inkscape:cy="90.996257"
     inkscape:window-x="-8"
     inkscape:window-y="-8"
     inkscape:window-maximized="1"
     inkscape:current-layer="svg26" />
  <title
     id="title2">treasure-skull</title>
  <g
     id="g850"
     transform="matrix(6.7182207,0,0,6.7182207,0.00790812,-0.00965684)"
     style="fill:#000000;fill-opacity:1">
    <path
       id="path4"
       d="m 15.344,31.839 c 0.013,-0.395 -0.051,-0.612 -0.166,-0.612 -0.076,0 -0.255,-0.115 -0.408,-0.255 -0.153,-0.127 -0.319,-0.217 -0.382,-0.178 -0.051,0.038 -0.102,-0.089 -0.102,-0.268 0,-0.191 0.051,-0.306 0.127,-0.255 0.076,0.038 0.127,-0.064 0.127,-0.229 0,-0.178 -0.089,-0.357 -0.204,-0.395 -0.28,-0.115 -0.306,-0.102 -0.319,0.153 0,0.127 -0.038,0.153 -0.076,0.064 -0.076,-0.204 -0.548,0.026 -0.548,0.255 0,0.089 0.051,0.076 0.127,-0.038 0.089,-0.14 0.127,-0.051 0.127,0.357 0,0.293 -0.051,0.535 -0.127,0.535 -0.064,0 -0.089,-0.102 -0.038,-0.217 0.051,-0.153 -0.013,-0.115 -0.178,0.076 l -0.255,0.319 -0.089,-0.28 c -0.051,-0.14 -0.051,-0.51 -0.013,-0.803 0.064,-0.382 0.025,-0.561 -0.089,-0.637 -0.127,-0.089 -0.115,-0.115 0.051,-0.115 0.115,0 0.242,0.076 0.268,0.166 0.038,0.089 0.076,0.064 0.076,-0.076 0.013,-0.191 -0.076,-0.217 -0.497,-0.191 -0.472,0.026 -0.51,0.051 -0.51,0.395 0,0.191 -0.051,0.331 -0.102,0.293 -0.204,-0.115 -0.535,0.433 -0.535,0.879 0,0.497 -0.204,0.701 -0.319,0.319 -0.038,-0.14 -0.127,-0.255 -0.166,-0.255 -0.051,0 -0.204,-0.217 -0.344,-0.472 C 10.653,30.106 10.474,29.8 10.385,29.698 10.296,29.596 10.207,29.252 10.168,28.933 10.002,27.607 9.862,26.945 9.709,26.639 9.531,26.308 9.123,25.874 8.982,25.874 c -0.166,0 -0.714,-0.51 -0.548,-0.51 0.497,-0.026 -0.905,-0.51 -1.44,-0.51 -0.472,0 -0.612,-0.051 -0.612,-0.204 0,-0.102 -0.051,-0.153 -0.127,-0.115 -0.064,0.038 -0.127,0.013 -0.127,-0.064 0,-0.077 -0.14,-0.268 -0.319,-0.433 C 5.631,23.872 5.49,23.681 5.49,23.592 c 0,-0.076 -0.051,-0.14 -0.115,-0.14 -0.064,0 -0.153,-0.166 -0.204,-0.37 C 5.133,22.878 5.005,22.636 4.903,22.547 4.801,22.471 4.725,22.33 4.725,22.241 4.725,22.139 4.661,22.05 4.598,22.024 4.522,21.998 4.611,21.833 4.789,21.642 4.967,21.451 5.108,21.183 5.108,21.03 c 0,-0.14 0.089,-0.255 0.191,-0.255 0.102,0 0.191,-0.089 0.191,-0.191 0,-0.102 0.051,-0.191 0.115,-0.191 0.064,0 0.153,-0.178 0.204,-0.382 0.051,-0.217 0.14,-0.357 0.204,-0.306 0.127,0.076 0.191,-2.192 0.127,-4.474 -0.038,-1.402 0.115,-2.294 0.306,-1.81 0.051,0.115 0.153,0.217 0.242,0.217 0.076,0 0.153,0.115 0.166,0.255 0.013,0.14 0.255,0.472 0.535,0.727 0.331,0.293 0.523,0.574 0.523,0.765 0,0.166 0.064,0.408 0.153,0.535 0.115,0.191 0.115,0.319 0,0.586 -0.089,0.178 -0.153,0.433 -0.153,0.574 0,0.127 -0.076,0.319 -0.178,0.408 -0.497,0.484 -0.981,0.867 -1.096,0.867 -0.064,0 -0.127,0.14 -0.127,0.306 0,0.28 0.064,0.293 0.918,0.37 1.083,0.089 1.313,-0.064 1.453,-0.93 0.051,-0.28 0.14,-0.548 0.191,-0.586 C 9.226,17.426 9.213,15.348 9.06,15.068 8.996,14.953 8.843,14.635 8.729,14.367 8.615,14.099 8.194,13.551 7.799,13.156 7.404,12.761 7.098,12.391 7.111,12.34 7.137,12.289 7.009,12.238 6.831,12.238 c -0.204,0 -0.319,-0.076 -0.319,-0.204 0,-0.102 0.051,-0.166 0.115,-0.127 0.064,0.039 0.153,-0.076 0.191,-0.255 0.089,-0.331 0.727,-1.071 0.93,-1.071 0.051,0 0.306,-0.229 0.548,-0.51 0.242,-0.281 0.548,-0.51 0.676,-0.51 0.115,0 0.217,-0.051 0.217,-0.127 0,-0.064 0.14,-0.153 0.319,-0.204 0.178,-0.038 0.319,-0.115 0.319,-0.166 0,-0.038 0.178,-0.153 0.408,-0.255 0.217,-0.102 0.51,-0.293 0.637,-0.421 0.14,-0.14 0.331,-0.217 0.446,-0.178 0.102,0.038 0.344,0 0.523,-0.089 1.058,-0.535 1.262,-0.599 1.976,-0.574 0.523,0.026 0.765,-0.013 0.854,-0.14 0.178,-0.306 0.574,-0.28 0.701,0.026 0.076,0.153 0.306,0.331 0.51,0.408 0.217,0.064 0.433,0.191 0.484,0.28 0.051,0.089 0.242,0.166 0.408,0.166 0.178,0 0.319,0.064 0.319,0.127 0,0.076 0.076,0.127 0.178,0.127 0.089,0 0.242,0.089 0.331,0.191 0.089,0.102 0.255,0.191 0.37,0.191 0.115,0 0.382,0.166 0.599,0.357 0.229,0.191 0.586,0.484 0.803,0.663 0.204,0.178 0.382,0.395 0.395,0.484 0,0.076 0.051,0.153 0.102,0.153 0.204,0 0.829,1.466 0.892,2.078 0.026,0.331 0.102,0.599 0.166,0.599 0.166,0 0.14,3.786 -0.013,3.888 -0.064,0.038 -0.115,0.268 -0.115,0.484 l 0.013,0.408 0.102,-0.382 c 0.089,-0.344 0.102,-0.331 0.115,0.191 0,0.408 -0.026,0.523 -0.115,0.382 -0.102,-0.153 -0.127,-0.127 -0.127,0.102 0,0.178 -0.051,0.268 -0.14,0.204 -0.089,-0.051 -0.115,0 -0.064,0.153 0.038,0.14 0.026,0.306 -0.026,0.395 -0.052,0.089 -0.115,-0.166 -0.127,-0.574 -0.038,-0.918 -0.064,-1.045 -0.255,-1.389 -0.204,-0.37 -0.204,-3.085 0,-3.569 0.178,-0.433 0.229,-0.816 0.102,-0.739 -0.127,0.077 -0.28,-0.306 -0.178,-0.459 0.089,-0.14 -0.204,-0.153 -0.433,-0.013 -0.089,0.064 -0.127,0.204 -0.076,0.319 0.038,0.115 0.026,0.217 -0.051,0.217 -0.077,0 -0.14,0.727 -0.14,1.925 -0.013,1.058 -0.026,1.963 -0.038,2.014 0,0.038 0,0.408 0.013,0.816 0.013,0.497 0.064,0.727 0.178,0.727 0.102,0 0.178,0.191 0.191,0.472 0.038,0.586 0.064,0.599 0.586,0.586 0.331,-0.013 0.459,0.064 0.625,0.344 0.115,0.191 0.178,0.382 0.127,0.421 -0.038,0.051 0.026,0.229 0.14,0.395 0.115,0.178 0.204,0.433 0.204,0.586 0,0.14 0.089,0.255 0.191,0.255 0.102,0 0.191,0.089 0.191,0.191 0,0.102 0.064,0.191 0.127,0.191 0.076,0 0.127,0.14 0.127,0.306 0,0.178 -0.051,0.357 -0.127,0.395 -0.064,0.038 -0.127,0.242 -0.127,0.446 0,0.357 -0.14,0.561 -1.045,1.53 -0.204,0.204 -0.357,0.408 -0.357,0.446 0,0.038 -0.14,0.293 -0.319,0.548 -0.204,0.306 -0.319,0.395 -0.319,0.242 0,-0.115 0.064,-0.217 0.127,-0.217 0.076,0 0.127,-0.064 0.127,-0.14 0,-0.076 -0.115,-0.115 -0.255,-0.076 -0.191,0.051 -0.255,0.013 -0.229,-0.14 0.026,-0.166 -0.076,-0.229 -0.433,-0.255 -0.408,-0.038 -0.548,0.026 -1.02,0.51 -0.739,0.727 -0.905,1.134 -0.943,2.282 -0.038,0.956 -0.408,2.027 -0.701,2.027 -0.064,0 -0.115,0.089 -0.115,0.191 0,0.102 -0.051,0.191 -0.127,0.191 -0.064,0 -0.166,0.153 -0.204,0.357 -0.051,0.191 -0.127,0.408 -0.191,0.472 -0.051,0.076 -0.115,0.319 -0.14,0.561 -0.038,0.408 -0.344,0.739 -0.319,0.37 z M 13.585,29.43 c -0.076,-0.421 -0.191,-0.459 -0.191,-0.076 0,0.191 0.051,0.344 0.115,0.344 0.076,0 0.102,-0.127 0.076,-0.268 z m -1.517,0.051 c -0.115,-0.115 -1.096,-0.153 -1.096,-0.051 0,0.051 0.268,0.089 0.586,0.102 0.318,0.013 0.548,-0.013 0.51,-0.051 z m 3.238,-0.166 c 0,-0.14 -0.051,-0.268 -0.127,-0.268 -0.37,-0.064 -0.421,-0.026 -0.446,0.242 -0.013,0.217 0.051,0.28 0.28,0.28 0.204,0 0.293,-0.076 0.293,-0.255 z m -3.059,-0.573 c 0,-0.102 -0.089,-0.191 -0.191,-0.191 -0.102,0 -0.191,0.089 -0.191,0.191 0,0.102 0.089,0.191 0.191,0.191 0.102,0 0.191,-0.089 0.191,-0.191 z m 0.994,-2.052 c 0.191,-0.127 0.408,-0.166 0.65,-0.115 0.217,0.038 0.408,0.026 0.459,-0.064 0.038,-0.064 0.14,-0.102 0.204,-0.064 0.178,0.115 0.14,-0.064 -0.076,-0.268 -0.102,-0.115 -0.191,-0.331 -0.191,-0.484 0,-0.166 -0.14,-0.625 -0.319,-1.02 -0.179,-0.395 -0.319,-0.829 -0.319,-0.969 0,-0.191 -0.089,-0.255 -0.319,-0.255 -0.204,0 -0.319,0.076 -0.319,0.191 0,0.115 -0.076,0.229 -0.153,0.255 -0.115,0.051 -0.166,0.331 -0.14,0.867 0.013,0.701 0,0.727 -0.064,0.217 -0.051,-0.357 -0.115,-0.497 -0.166,-0.37 -0.051,0.102 -0.064,0.357 -0.038,0.574 0.051,0.306 0.038,0.331 -0.064,0.115 -0.115,-0.242 -0.127,-0.242 -0.127,0.038 -0.013,0.153 0.076,0.319 0.178,0.357 0.255,0.102 0.242,0.433 -0.013,0.625 -0.191,0.127 -0.191,0.166 0.013,0.357 0.268,0.268 0.433,0.268 0.803,0.013 z m 1.389,-0.013 c -0.051,-0.038 -0.089,0 -0.089,0.089 0,0.089 0.038,0.127 0.089,0.089 0.038,-0.051 0.038,-0.127 0,-0.178 z m -2.128,-0.676 c 0,-0.064 -0.064,-0.127 -0.14,-0.127 -0.064,0 -0.089,0.064 -0.051,0.127 0.038,0.076 0.102,0.127 0.14,0.127 0.025,0 0.051,-0.051 0.051,-0.127 z m -5.711,-2.23 c 0.064,-0.28 0.026,-0.319 -0.293,-0.319 -0.204,0 -0.37,0.051 -0.37,0.115 0,0.561 0.574,0.727 0.663,0.204 z m 4.13,0 c 0.051,-0.229 0.166,-0.319 0.395,-0.319 0.293,0 0.306,-0.038 0.28,-0.701 -0.025,-0.484 -0.089,-0.701 -0.204,-0.701 -0.089,0 -0.166,-0.051 -0.166,-0.127 0,-0.064 -0.089,-0.127 -0.191,-0.127 -0.102,0 -0.191,-0.051 -0.191,-0.127 0,-0.064 -0.089,-0.127 -0.204,-0.127 -0.115,0 -0.153,0.064 -0.102,0.166 0.051,0.076 -0.025,0.051 -0.166,-0.064 -0.14,-0.127 -0.459,-0.229 -0.714,-0.229 -0.255,0 -0.497,-0.051 -0.535,-0.127 -0.038,-0.064 -0.331,-0.127 -0.65,-0.127 -0.306,0 -0.561,0.064 -0.561,0.127 0,0.076 -0.051,0.127 -0.127,0.127 -0.064,0 -0.242,0.115 -0.382,0.255 -0.255,0.255 -0.331,0.905 -0.178,1.466 0.076,0.306 1.249,0.701 2.052,0.701 0.293,0 0.574,0.064 0.612,0.127 0.038,0.076 0.28,0.127 0.51,0.127 0.37,0 0.459,-0.051 0.523,-0.319 z m 7.406,-0.128 c 0.242,-0.102 0.586,-0.191 0.752,-0.191 0.178,0 0.306,-0.076 0.306,-0.191 0,-0.102 0.076,-0.153 0.178,-0.115 0.191,0.076 0.586,-0.268 0.586,-0.51 0,-0.089 -0.166,-0.37 -0.382,-0.599 -0.204,-0.242 -0.382,-0.472 -0.382,-0.523 0,-0.064 -0.089,-0.102 -0.191,-0.102 -0.102,0 -0.191,-0.064 -0.191,-0.14 0,-0.102 -0.064,-0.102 -0.191,0.013 -0.115,0.102 -0.357,0.127 -0.637,0.076 -0.497,-0.102 -0.548,-0.166 -0.229,-0.395 0.191,-0.14 0.191,-0.166 -0.089,-0.14 -0.178,0 -0.523,0.217 -0.79,0.497 -0.268,0.255 -0.561,0.472 -0.676,0.472 -0.102,0 -0.293,0.051 -0.421,0.115 -0.115,0.064 -0.319,0.153 -0.433,0.191 -0.357,0.102 -0.306,1.045 0.064,1.428 0.242,0.268 0.395,0.306 1.275,0.306 0.599,0 1.173,-0.076 1.453,-0.191 z m -3.684,-4.13 -0.051,-0.777 h 0.867 c 0.828,0 0.867,-0.013 0.867,-0.306 0,-0.217 -0.089,-0.331 -0.319,-0.382 -0.178,-0.051 -0.319,-0.14 -0.319,-0.204 0,-0.076 -0.089,-0.127 -0.191,-0.127 -0.102,0 -0.191,-0.102 -0.191,-0.242 0,-0.127 -0.089,-0.408 -0.191,-0.599 -0.293,-0.574 -0.242,-1.211 0.14,-1.619 0.178,-0.191 0.382,-0.306 0.459,-0.268 0.089,0.064 0.115,0.013 0.064,-0.115 -0.051,-0.128 -0.025,-0.204 0.064,-0.178 0.166,0.038 0.242,-0.382 0.14,-0.777 -0.051,-0.217 -0.115,-0.255 -0.204,-0.166 -0.191,0.191 -0.382,0.178 -0.268,-0.013 0.051,-0.102 0.038,-0.127 -0.025,-0.064 -0.063,0.063 -0.127,0.166 -0.127,0.229 -0.013,0.064 -0.025,0.178 -0.038,0.242 0,0.076 -0.153,0.127 -0.331,0.127 -0.28,0 -0.319,-0.051 -0.319,-0.51 0,-0.459 0.038,-0.51 0.319,-0.51 0.178,0 0.319,-0.038 0.319,-0.089 0,-0.064 0.038,-0.229 0.076,-0.37 0.14,-0.51 -0.79,-1.058 -1.16,-0.701 -0.076,0.076 -0.382,0.14 -0.688,0.166 -0.319,0.025 -0.586,0.102 -0.612,0.191 -0.025,0.076 0.127,0.319 0.331,0.535 l 0.395,0.408 v 3.441 c 0,2.269 0.038,3.416 0.127,3.365 0.076,-0.038 0.127,-0.026 0.127,0.051 0,0.153 0.535,0.255 0.688,0.127 0.064,-0.051 0.089,-0.446 0.051,-0.867 z m -2.384,-2.37 c -0.025,-0.918 -0.102,-1.619 -0.191,-1.746 -0.166,-0.242 -0.115,-0.994 0.064,-0.994 0.051,0 0.127,0.217 0.153,0.484 l 0.051,0.472 0.013,-0.472 c 0.025,-0.395 -0.038,-0.51 -0.357,-0.701 -0.204,-0.115 -0.382,-0.293 -0.382,-0.382 0,-0.089 -0.089,-0.166 -0.191,-0.166 -0.102,0 -0.191,-0.051 -0.191,-0.127 0,-0.064 -0.051,-0.127 -0.127,-0.127 -0.064,0 -0.127,0.178 -0.127,0.382 0,0.217 0.064,0.382 0.127,0.382 0.076,0 0.127,0.115 0.127,0.255 0,0.191 -0.076,0.255 -0.344,0.242 -0.204,0 -0.28,-0.038 -0.191,-0.076 0.268,-0.102 0.166,-0.319 -0.127,-0.268 -0.217,0.025 -0.306,0.14 -0.331,0.395 -0.025,0.191 -0.102,0.319 -0.166,0.28 -0.064,-0.051 -0.115,0.013 -0.115,0.115 0,0.115 0.064,0.204 0.14,0.204 0.076,0 0.229,0.089 0.331,0.204 0.127,0.115 0.319,0.166 0.484,0.127 0.306,-0.076 0.446,0.102 0.446,0.535 0,0.191 -0.025,0.191 -0.127,0.026 -0.089,-0.153 -0.127,-0.102 -0.127,0.191 0,0.293 -0.038,0.344 -0.127,0.191 -0.089,-0.153 -0.127,-0.102 -0.127,0.191 0,0.293 -0.038,0.344 -0.127,0.191 -0.102,-0.153 -0.127,-0.14 -0.127,0.102 0,0.166 -0.076,0.28 -0.191,0.28 -0.102,0 -0.191,0.089 -0.191,0.191 0,0.102 -0.051,0.191 -0.127,0.191 -0.191,0 -0.153,0.612 0.038,0.676 0.076,0.026 0.446,0.026 0.79,0 0.497,-0.051 0.688,-0.026 0.816,0.14 0.102,0.115 0.268,0.191 0.382,0.178 0.178,-0.038 0.204,-0.255 0.153,-1.568 z m 6.131,-1.148 c 0.038,-0.178 0.013,-0.319 -0.051,-0.319 -0.064,0 -0.076,-0.064 -0.026,-0.153 0.051,-0.076 0.038,-0.102 -0.038,-0.064 -0.076,0.051 -0.268,-0.051 -0.433,-0.217 -0.268,-0.28 -0.752,-0.319 -0.752,-0.064 0,0.064 -0.166,0.115 -0.382,0.115 -0.37,0 -0.446,0.102 -0.382,0.51 0.051,0.331 0.446,0.497 1.224,0.51 0.739,0 0.79,-0.026 0.841,-0.319 z m -2.485,-0.65 c -0.038,-0.038 -0.153,-0.051 -0.242,-0.013 -0.102,0.038 -0.064,0.076 0.076,0.076 0.14,0.013 0.217,-0.025 0.166,-0.064 z m 1.44,-1.007 c 0,-0.37 -0.433,-0.459 -0.561,-0.115 -0.102,0.268 0.013,0.433 0.319,0.433 0.178,0 0.242,-0.089 0.242,-0.319 z"
       inkscape:connector-curvature="0"
       style="fill:#000000;fill-opacity:1" />
    <path
       id="path6"
       d="m 19.334,26.065 c 0.051,-0.102 0.14,-0.191 0.204,-0.191 0.076,0 0.064,0.076 -0.026,0.191 -0.089,0.102 -0.178,0.191 -0.204,0.191 -0.026,0 -0.013,-0.089 0.026,-0.191 z"
       inkscape:connector-curvature="0"
       style="fill:#000000;fill-opacity:1" />
    <path
       id="path8"
       d="m 19.002,25.759 c 0,-0.076 0.051,-0.166 0.127,-0.204 0.076,-0.038 0.089,0.013 0.051,0.115 -0.089,0.229 -0.178,0.268 -0.178,0.089 z"
       inkscape:connector-curvature="0"
       style="fill:#000000;fill-opacity:1" />
    <path
       id="path10"
       d="m 22.189,20.023 c 0,-0.217 0.472,-0.688 0.548,-0.561 0.038,0.064 -0.064,0.242 -0.242,0.408 -0.166,0.166 -0.306,0.229 -0.306,0.153 z"
       inkscape:connector-curvature="0"
       style="fill:#000000;fill-opacity:1" />
    <path
       id="path12"
       d="m 22.89,19.756 c 0.038,-0.064 0.102,-0.127 0.14,-0.127 0.038,0 0.026,0.064 -0.013,0.127 -0.038,0.076 -0.102,0.127 -0.14,0.127 -0.038,0 -0.026,-0.051 0.013,-0.127 z"
       inkscape:connector-curvature="0"
       style="fill:#000000;fill-opacity:1" />
    <path
       id="path14"
       d="m 20.914,19.501 c 0,-0.089 0.038,-0.127 0.089,-0.089 0.038,0.051 0.038,0.127 0,0.178 -0.051,0.038 -0.089,0 -0.089,-0.089 z"
       inkscape:connector-curvature="0"
       style="fill:#000000;fill-opacity:1" />
    <path
       id="path16"
       d="m 22.915,19.348 c -0.204,-0.102 -0.204,-0.14 -0.026,-0.395 0.115,-0.153 0.191,-0.548 0.191,-0.918 0,-0.382 0.076,-0.752 0.191,-0.905 0.14,-0.178 0.178,-0.625 0.191,-1.733 0,-0.854 0.051,-1.517 0.127,-1.568 0.229,-0.14 0.127,-0.523 -0.217,-0.841 -0.178,-0.166 -0.293,-0.229 -0.242,-0.153 0.064,0.115 0.026,0.14 -0.089,0.089 -0.268,-0.102 -0.37,-0.561 -0.14,-0.65 0.217,-0.076 0.255,-1.823 0.038,-2.039 -0.306,-0.306 0.28,-2.46 0.752,-2.753 0.076,-0.051 0.153,-0.306 0.153,-0.535 V 6.501 h -1.326 c -1.3,0 -1.326,-0.013 -1.402,-0.306 -0.076,-0.331 0.013,-0.714 0.178,-0.714 0.051,0 0.14,-0.153 0.191,-0.344 0.089,-0.331 0.102,-0.331 0.191,-0.102 0.102,0.242 0.115,0.242 0.115,-0.026 0.013,-0.166 -0.064,-0.293 -0.14,-0.293 -0.115,0 -0.102,-0.051 0.026,-0.14 0.229,-0.153 -0.395,-0.089 -1.211,0.127 -0.28,0.076 -1.224,0.14 -2.103,0.14 -1.032,-0.013 -1.835,0.064 -2.294,0.191 -0.382,0.102 -0.854,0.191 -1.045,0.191 -0.191,0 -0.382,0.064 -0.421,0.127 -0.127,0.217 -0.956,0.153 -0.956,-0.064 0,-0.127 -0.127,-0.191 -0.395,-0.191 -0.357,0 -0.395,-0.038 -0.344,-0.319 0.051,-0.217 0.013,-0.319 -0.102,-0.319 -0.102,0 -0.178,-0.14 -0.178,-0.319 0,-0.395 -0.127,-0.395 -0.535,-0.026 C 11.711,4.458 11.379,4.675 11.035,4.828 10.627,5.006 9.799,6.013 9.862,6.256 9.887,6.371 9.811,6.6 9.671,6.766 9.544,6.932 9.442,7.021 9.454,6.944 9.518,6.498 9.39,6.511 8.919,6.995 8.639,7.301 8.333,7.556 8.231,7.569 8.129,7.582 7.938,7.747 7.785,7.939 7.53,8.258 7.148,8.296 7.148,7.977 7.148,7.901 6.944,7.837 6.651,7.837 6.307,7.837 6.179,7.888 6.218,8.003 6.256,8.105 6.218,8.13 6.091,8.079 5.976,8.041 5.874,8.104 5.823,8.245 5.785,8.372 5.606,8.64 5.428,8.844 5.25,9.048 5.109,9.29 5.109,9.392 c 0,0.089 -0.051,0.166 -0.127,0.166 -0.064,0 -0.127,0.064 -0.127,0.127 0,0.076 -0.14,0.421 -0.319,0.79 -0.255,0.535 -0.331,0.918 -0.395,2.192 -0.051,0.854 -0.127,1.568 -0.166,1.606 -0.255,0.217 -0.548,1.02 -0.484,1.351 0.191,0.956 0.382,1.657 0.51,1.721 0.064,0.051 0.14,0.268 0.153,0.497 0.026,0.229 0.089,0.446 0.153,0.497 0.064,0.038 0.115,0.255 0.127,0.459 0,0.217 -0.013,0.28 -0.051,0.166 C 4.357,18.837 4.217,18.735 4.09,18.735 3.899,18.735 3.657,18.34 3.695,18.072 3.708,18.008 3.58,17.97 3.415,17.97 3.211,17.97 3.186,17.932 3.3,17.855 3.44,17.779 3.427,17.728 3.236,17.651 3.109,17.587 2.968,17.562 2.917,17.562 2.853,17.575 2.815,17.396 2.815,17.167 c 0,-0.229 -0.089,-0.535 -0.191,-0.676 -0.242,-0.319 -0.242,-1.122 0,-1.364 0.102,-0.102 0.204,-0.37 0.217,-0.574 0.013,-0.217 0.076,-0.357 0.127,-0.331 0.051,0.038 0.102,-0.14 0.102,-0.395 0,-0.28 0.076,-0.484 0.191,-0.523 0.242,-0.102 0.268,-1.211 0.038,-1.619 -0.166,-0.306 -0.153,-0.981 0.038,-1.16 0.064,-0.076 0.115,-0.204 0.115,-0.306 0,-0.14 0.676,-1.122 0.905,-1.3 C 4.408,8.881 4.459,8.741 4.484,8.6 4.509,8.459 4.675,8.281 4.828,8.205 4.994,8.129 5.121,8.027 5.121,7.976 5.083,7.657 5.134,7.517 5.274,7.517 c 0.076,0 0.268,-0.229 0.395,-0.51 0.14,-0.28 0.293,-0.51 0.357,-0.51 0.051,0 0.102,-0.076 0.102,-0.166 0,-0.293 0.446,-0.714 0.739,-0.688 0.331,0.026 0.37,0.293 0.089,0.612 -0.268,0.28 -0.127,0.879 0.204,0.879 0.127,0 0.229,0.038 0.229,0.102 C 7.351,7.491 7.427,7.504 7.669,7.274 7.835,7.121 7.949,6.828 7.988,6.497 8.014,6.191 8.09,5.885 8.166,5.796 8.23,5.72 8.255,5.605 8.204,5.567 8.166,5.516 8.28,5.478 8.459,5.478 8.65,5.478 8.803,5.427 8.803,5.363 8.803,5.299 8.956,5.21 9.147,5.159 9.338,5.121 9.619,4.942 9.784,4.764 9.937,4.598 10.103,4.458 10.141,4.458 c 0.038,0 0.229,-0.14 0.421,-0.319 0.191,-0.178 0.408,-0.319 0.484,-0.319 0.089,0 0.178,-0.089 0.229,-0.191 0.038,-0.102 0.178,-0.191 0.319,-0.191 0.127,0 0.268,-0.089 0.319,-0.191 0.038,-0.102 0.115,-0.191 0.166,-0.178 0.178,0.038 1.185,-0.433 1.185,-0.548 0,-0.051 0.115,-0.102 0.255,-0.102 0.331,0 1.402,-0.663 1.402,-0.867 0,-0.089 0.064,-0.127 0.127,-0.089 0.076,0.038 0.166,-0.013 0.204,-0.115 0.051,-0.115 0.217,-0.204 0.421,-0.191 0.178,0 0.255,0.038 0.178,0.076 -0.102,0.038 -0.166,0.293 -0.166,0.625 0,0.306 -0.051,0.561 -0.115,0.561 -0.166,0 -0.523,0.752 -0.523,1.109 0,0.268 0.051,0.293 0.574,0.293 0.395,0 0.599,-0.064 0.65,-0.191 0.051,-0.102 0.204,-0.191 0.357,-0.191 0.14,0 0.382,-0.089 0.51,-0.191 0.14,-0.102 0.357,-0.191 0.484,-0.191 0.127,0 0.229,-0.051 0.229,-0.127 0,-0.178 0.433,-0.153 0.612,0.026 0.127,0.127 0.191,0.127 0.28,-0.013 0.089,-0.153 0.14,-0.153 0.306,-0.026 0.242,0.204 2.116,0.217 2.485,0.026 0.14,-0.076 0.395,-0.14 0.561,-0.14 0.178,0 0.382,-0.089 0.472,-0.191 0.09,-0.102 0.306,-0.191 0.472,-0.191 0.217,0 0.523,-0.204 0.918,-0.612 0.637,-0.663 1.173,-1.045 1.453,-1.045 0.102,0 0.255,-0.089 0.344,-0.191 0.089,-0.102 0.293,-0.191 0.446,-0.191 0.153,0 0.497,-0.089 0.739,-0.191 0.51,-0.217 1.708,-0.255 1.988,-0.076 0.153,0.102 0.153,0.153 0.026,0.319 -0.102,0.115 -0.293,0.217 -0.446,0.217 -0.14,0.013 -0.038,0.064 0.242,0.115 l 0.51,0.089 -0.663,0.025 c -0.37,0 -0.676,0.076 -0.676,0.14 0,0.076 -0.115,0.127 -0.268,0.127 -0.14,0 -0.217,-0.051 -0.178,-0.127 0.229,-0.37 -0.752,0.038 -1.224,0.51 -0.204,0.204 -0.599,0.497 -0.879,0.65 -0.28,0.166 -0.51,0.37 -0.51,0.459 0,0.089 -0.038,0.166 -0.102,0.166 -0.051,0 -0.242,0.127 -0.421,0.293 -0.178,0.153 -0.421,0.344 -0.548,0.408 -0.127,0.076 -0.306,0.357 -0.408,0.637 -0.217,0.637 -0.217,0.637 0,0.867 0.229,0.217 2.014,0.204 2.09,-0.026 0.026,-0.076 0.166,-0.14 0.319,-0.14 0.153,0 0.446,-0.089 0.65,-0.191 0.268,-0.14 0.739,-0.191 1.784,-0.178 0.93,0.013 1.287,0.051 1.032,0.115 -0.204,0.051 -0.306,0.102 -0.204,0.115 0.102,0.013 0.051,0.115 -0.153,0.268 -0.382,0.306 -0.472,0.319 -0.472,0.064 0,-0.115 -0.191,0.013 -0.497,0.319 -0.268,0.28 -0.535,0.51 -0.586,0.51 -0.038,0 -0.166,0.076 -0.255,0.153 -0.421,0.37 -0.574,0.484 -0.676,0.484 -0.064,0 -0.255,0.191 -0.433,0.421 -0.191,0.217 -0.484,0.586 -0.676,0.79 -0.752,0.867 -0.841,1.122 -0.841,2.358 0,0.739 -0.038,1.122 -0.127,1.071 -0.064,-0.038 -0.089,-0.28 -0.051,-0.535 0.038,-0.331 0.026,-0.421 -0.064,-0.28 -0.204,0.319 -0.14,0.816 0.14,1.058 0.242,0.217 0.293,0.217 0.79,0.025 0.676,-0.255 3.046,-0.229 3.097,0.038 0.013,0.089 0,0.102 -0.038,0.025 -0.089,-0.204 -0.331,-0.153 -0.255,0.051 0.051,0.115 0.013,0.166 -0.076,0.127 -0.535,-0.204 -2.384,1.16 -2.384,1.733 0,0.14 -0.051,0.255 -0.115,0.255 -0.064,0 -0.166,0.127 -0.217,0.293 -0.051,0.153 -0.217,0.497 -0.382,0.752 -0.268,0.408 -0.306,0.637 -0.319,1.886 0,0.777 -0.051,1.389 -0.089,1.338 -0.089,-0.076 -0.535,0.79 -0.535,1.045 0,0.089 -0.064,0.166 -0.14,0.166 -0.076,0 -0.115,-0.089 -0.064,-0.191 0.038,-0.102 0.013,-0.191 -0.064,-0.191 -0.064,0 -0.102,0.153 -0.089,0.331 0.038,0.37 -0.204,0.497 -0.574,0.28 z m 0.255,-0.191 c -0.051,-0.038 -0.089,0 -0.089,0.089 0,0.089 0.038,0.127 0.089,0.089 0.038,-0.051 0.038,-0.127 0,-0.178 z m 0.293,-6.756 c 0,-0.14 0.127,-0.166 0.548,-0.102 0.382,0.051 0.484,0.038 0.344,-0.064 -0.14,-0.089 -0.14,-0.127 -0.026,-0.127 0.102,0 0.064,-0.102 -0.102,-0.28 -0.255,-0.268 -0.28,-0.28 -0.433,-0.076 -0.153,0.204 -0.178,0.204 -0.37,0 -0.204,-0.191 -0.217,-0.191 -0.217,0.013 0,0.115 0.076,0.217 0.166,0.217 0.076,0 -0.013,0.115 -0.204,0.242 -0.242,0.153 -0.306,0.255 -0.191,0.293 0.306,0.102 0.484,0.064 0.484,-0.115 z m -9.1,-7.66 c 0.013,-0.089 0,-0.102 -0.038,-0.026 -0.102,0.217 -0.421,0.153 -0.331,-0.076 0.038,-0.115 0.191,-0.178 0.408,-0.153 0.28,0.038 0.331,-0.013 0.331,-0.28 0,-0.204 -0.076,-0.331 -0.217,-0.357 -0.141,-0.026 -0.229,0.038 -0.229,0.153 0,0.14 -0.115,0.204 -0.395,0.204 -0.306,0 -0.382,0.038 -0.319,0.204 0.038,0.115 0.076,0.268 0.076,0.357 0,0.217 0.676,0.191 0.714,-0.026 z M 13.521,4.664 c 0,-0.038 -0.051,-0.102 -0.127,-0.14 -0.064,-0.038 -0.127,-0.013 -0.127,0.051 0,0.076 0.064,0.14 0.127,0.14 0.076,0 0.127,-0.026 0.127,-0.051 z"
       inkscape:connector-curvature="0"
       style="fill:#000000;fill-opacity:1" />
    <path
       id="path18"
       d="m 5.746,8.794 c 0,-0.089 0.038,-0.127 0.089,-0.089 0.038,0.051 0.038,0.127 0,0.178 -0.051,0.038 -0.089,0 -0.089,-0.089 z"
       inkscape:connector-curvature="0"
       style="fill:#000000;fill-opacity:1" />
    <path
       id="path20"
       d="m 5.874,8.412 c 0,-0.089 0.038,-0.127 0.089,-0.089 0.038,0.051 0.038,0.127 0,0.178 -0.051,0.038 -0.089,0 -0.089,-0.089 z"
       inkscape:connector-curvature="0"
       style="fill:#000000;fill-opacity:1" />
    <path
       id="path22"
       d="m 29.365,4.753 c 0.051,-0.038 0.127,-0.038 0.178,0 0.038,0.051 0,0.089 -0.089,0.089 -0.089,0 -0.127,-0.038 -0.089,-0.089 z"
       inkscape:connector-curvature="0"
       style="fill:#000000;fill-opacity:1" />
    <path
       id="path24"
       d="m 15.879,1.911 c 0.038,-0.064 0.102,-0.127 0.14,-0.127 0.026,0 0.051,0.064 0.051,0.127 0,0.076 -0.064,0.127 -0.14,0.127 -0.064,0 -0.089,-0.051 -0.051,-0.127 z"
       inkscape:connector-curvature="0"
       style="fill:#000000;fill-opacity:1" />
  </g>
</svg>
