<?xml version="1.0" encoding="UTF-8" standalone="no"?>
<!-- Generated by IcoMoon.io -->

<svg
   xmlns:dc="http://purl.org/dc/elements/1.1/"
   xmlns:cc="http://creativecommons.org/ns#"
   xmlns:rdf="http://www.w3.org/1999/02/22-rdf-syntax-ns#"
   xmlns:svg="http://www.w3.org/2000/svg"
   xmlns="http://www.w3.org/2000/svg"
   xmlns:sodipodi="http://sodipodi.sourceforge.net/DTD/sodipodi-0.dtd"
   xmlns:inkscape="http://www.inkscape.org/namespaces/inkscape"
   version="1.1"
   width="215"
   height="215"
   viewBox="0 0 215 215"
   id="svg16"
   sodipodi:docname="orrery.svg"
   inkscape:version="0.92.3 (2405546, 2018-03-11)">
  <metadata
     id="metadata22">
    <rdf:RDF>
      <cc:Work
         rdf:about="">
        <dc:format>image/svg+xml</dc:format>
        <dc:type
           rdf:resource="http://purl.org/dc/dcmitype/StillImage" />
        <dc:title>treasure-orrery</dc:title>
      </cc:Work>
    </rdf:RDF>
  </metadata>
  <defs
     id="defs20" />
  <sodipodi:namedview
     pagecolor="#ffffff"
     bordercolor="#666666"
     borderopacity="1"
     objecttolerance="10"
     gridtolerance="10"
     guidetolerance="10"
     inkscape:pageopacity="0"
     inkscape:pageshadow="2"
     inkscape:window-width="1920"
     inkscape:window-height="1017"
     id="namedview18"
     showgrid="false"
     fit-margin-top="0"
     fit-margin-left="0"
     fit-margin-right="0"
     fit-margin-bottom="0"
     inkscape:zoom="1.3037281"
     inkscape:cx="-65.118565"
     inkscape:cy="76.619599"
     inkscape:window-x="-8"
     inkscape:window-y="-8"
     inkscape:window-maximized="1"
     inkscape:current-layer="svg16" />
  <title
     id="title2">treasure-orrery</title>
  <g
     id="g835"
     transform="matrix(6.7185835,0,0,6.7185835,-0.00138981,0.06513768)">
    <path
       id="path4"
       d="m 16.013,31.724 c -0.039,-0.066 -0.21,-0.131 -0.38,-0.131 -0.157,0 -0.406,-0.092 -0.55,-0.197 -0.131,-0.105 -0.354,-0.197 -0.485,-0.197 -0.131,0 -0.314,-0.079 -0.419,-0.157 -0.092,-0.092 -0.354,-0.314 -0.577,-0.498 -0.223,-0.184 -0.406,-0.432 -0.406,-0.563 0,-0.131 -0.066,-0.197 -0.144,-0.157 -0.079,0.052 -0.17,-0.026 -0.21,-0.183 -0.04,-0.157 -0.118,-0.275 -0.183,-0.275 -0.066,0 -0.118,-0.131 -0.118,-0.301 0,-0.406 -0.642,-1.009 -1.075,-1.009 -0.197,0 -0.393,-0.066 -0.432,-0.131 -0.052,-0.079 -0.131,-0.105 -0.183,-0.079 -0.197,0.131 -0.432,-0.157 -0.341,-0.432 0.039,-0.144 0.118,-0.262 0.17,-0.249 0.197,0.039 0.812,-0.197 0.812,-0.301 0,-0.066 0.157,-0.118 0.367,-0.118 0.262,0 0.393,-0.092 0.524,-0.354 0.079,-0.197 0.157,-0.419 0.157,-0.511 0,-0.092 0.118,-0.432 0.262,-0.773 0.249,-0.59 1.402,-1.9 1.677,-1.9 0.066,0 0.197,-0.092 0.288,-0.197 0.092,-0.118 0.38,-0.197 0.681,-0.197 0.275,0 0.485,-0.052 0.446,-0.118 -0.052,-0.066 -0.013,-0.144 0.066,-0.17 0.105,-0.039 0.118,-0.262 0.052,-0.734 -0.092,-0.655 -0.105,-0.681 -0.498,-0.681 -0.236,-0.013 -0.563,-0.092 -0.747,-0.197 -0.184,-0.105 -0.55,-0.183 -0.812,-0.197 -0.262,0 -0.511,-0.052 -0.563,-0.118 -0.039,-0.066 -0.249,-0.157 -0.459,-0.21 -0.223,-0.052 -0.393,-0.144 -0.393,-0.21 0,-0.066 -0.092,-0.118 -0.197,-0.118 -0.105,0 -0.197,-0.092 -0.197,-0.197 0,-0.105 -0.079,-0.197 -0.17,-0.197 -0.105,0 -0.262,-0.144 -0.354,-0.328 -0.092,-0.17 -0.223,-0.288 -0.288,-0.249 -0.052,0.039 -0.144,-0.039 -0.197,-0.17 -0.053,-0.131 -0.223,-0.367 -0.393,-0.524 -0.17,-0.157 -0.301,-0.406 -0.301,-0.563 0,-0.144 -0.092,-0.262 -0.197,-0.262 -0.157,0 -0.197,-0.17 -0.197,-0.721 V 16.129 H 8.817 c -0.957,0 -1.284,0.052 -1.454,0.21 -0.105,0.118 -0.288,0.17 -0.393,0.131 -0.105,-0.039 -0.197,-0.026 -0.197,0.026 0,0.066 -0.21,0.079 -0.459,0.052 -0.249,-0.027 -0.459,-0.105 -0.459,-0.183 0,-0.066 -0.052,-0.079 -0.131,-0.039 -0.197,0.118 -0.17,-1.284 0.026,-1.481 0.118,-0.118 0.118,-0.157 0,-0.157 -0.197,0 -0.223,-1.651 -0.026,-1.769 0.079,-0.039 0.131,-0.249 0.131,-0.446 0,-0.197 0.092,-0.472 0.197,-0.616 0.105,-0.131 0.197,-0.341 0.197,-0.459 0,-0.118 0.092,-0.393 0.197,-0.59 0.105,-0.21 0.197,-0.485 0.197,-0.603 0,-0.131 0.066,-0.236 0.131,-0.236 0.079,0 0.131,-0.118 0.131,-0.249 0,-0.144 0.092,-0.341 0.197,-0.459 C 7.207,9.156 7.299,8.986 7.299,8.881 7.299,8.776 7.443,8.54 7.613,8.357 7.783,8.174 7.954,7.964 7.967,7.898 8.072,7.61 9.29,6.43 9.408,6.496 9.474,6.548 9.526,6.509 9.526,6.43 c 0,-0.079 0.066,-0.105 0.131,-0.066 0.079,0.039 0.131,0.013 0.131,-0.066 0,-0.183 0.328,-0.524 0.511,-0.524 0.079,0 0.144,-0.092 0.144,-0.197 0,-0.105 0.105,-0.197 0.249,-0.197 0.131,0 0.314,-0.092 0.406,-0.197 0.092,-0.105 0.249,-0.197 0.341,-0.197 0.105,0 0.183,-0.052 0.183,-0.131 0,-0.066 0.131,-0.131 0.301,-0.131 0.17,0 0.419,-0.092 0.563,-0.197 0.131,-0.105 0.354,-0.197 0.485,-0.197 0.118,0 0.223,-0.039 0.223,-0.105 0,-0.052 0.131,-0.157 0.288,-0.223 0.157,-0.079 0.341,-0.249 0.419,-0.393 0.079,-0.131 0.223,-0.328 0.314,-0.432 0.236,-0.262 0.197,-0.314 -0.105,-0.157 -0.144,0.079 -0.262,0.105 -0.262,0.079 0,-0.131 0.773,-0.472 1.101,-0.498 0.183,-0.013 0.367,-0.105 0.393,-0.197 0.052,-0.105 0.341,-0.17 0.826,-0.183 0.55,0 0.681,-0.039 0.498,-0.118 -0.249,-0.105 -0.249,-0.118 0.039,-0.118 0.157,-0.013 0.288,0.052 0.288,0.118 0,0.079 0.21,0.131 0.472,0.131 0.721,0 0.957,0.38 0.97,1.533 0,0.878 -0.026,0.943 -0.288,0.983 -0.17,0.026 -0.314,0.144 -0.341,0.288 -0.039,0.144 -0.131,0.341 -0.236,0.446 -0.105,0.092 -0.183,0.249 -0.183,0.354 0,0.354 -1.402,0.446 -2.018,0.131 C 15.172,5.864 14.923,5.772 14.832,5.772 14.741,5.772 14.596,5.68 14.504,5.575 14.412,5.47 14.242,5.378 14.124,5.378 13.81,5.378 12.958,5.837 12.67,6.164 12.5,6.347 12.421,6.387 12.382,6.269 12.33,6.138 12.264,6.151 12.094,6.321 11.976,6.452 11.793,6.518 11.688,6.478 11.583,6.426 11.491,6.465 11.491,6.53 11.491,6.609 11.386,6.7 11.242,6.753 10.888,6.858 9.722,8.011 9.473,8.496 9.355,8.732 9.211,8.915 9.159,8.915 9.107,8.915 8.989,9.098 8.897,9.308 8.792,9.531 8.648,9.78 8.569,9.871 8.333,10.133 7.953,10.88 7.953,11.09 c 0,0.105 -0.052,0.183 -0.131,0.183 -0.066,0 -0.131,0.105 -0.131,0.236 0,0.131 -0.079,0.341 -0.17,0.485 -0.105,0.17 -0.17,0.668 -0.17,1.376 l 0.013,1.114 3.014,0.079 0.157,-0.367 c 0.092,-0.21 0.197,-0.524 0.249,-0.734 0.039,-0.197 0.131,-0.393 0.197,-0.432 0.066,-0.039 0.118,-0.183 0.118,-0.328 0,-0.144 0.079,-0.288 0.183,-0.328 0.104,-0.04 0.21,-0.183 0.249,-0.328 0.039,-0.144 0.197,-0.301 0.341,-0.341 0.157,-0.039 0.275,-0.157 0.275,-0.249 0,-0.105 0.079,-0.183 0.183,-0.183 0.104,0 0.21,-0.039 0.236,-0.092 0.092,-0.223 2.031,-0.957 2.503,-0.957 0.301,0 0.328,-0.983 0.026,-1.101 C 14.938,9.071 14.898,8.9 14.938,8.389 c 0.026,-0.367 0.092,-0.708 0.144,-0.76 0.092,-0.079 0.76,-0.131 1.887,-0.157 0.262,0 0.406,-0.052 0.354,-0.131 -0.039,-0.066 0.026,-0.144 0.157,-0.157 0.131,0 0.301,-0.026 0.38,-0.026 0.17,-0.026 0.97,-0.839 0.97,-0.996 0,-0.079 0.052,-0.131 0.131,-0.131 0.066,0 0.157,-0.21 0.21,-0.459 0.039,-0.249 0.131,-0.498 0.197,-0.537 0.144,-0.079 0.157,-2.804 0.013,-2.804 -0.052,0 -0.21,-0.197 -0.341,-0.446 C 18.909,1.536 18.66,1.3 18.49,1.261 18.32,1.209 18.176,1.13 18.176,1.064 c 0,-0.066 -0.17,-0.157 -0.393,-0.21 -0.21,-0.052 -0.393,-0.144 -0.393,-0.21 0,-0.21 -1.612,-0.144 -1.939,0.092 -0.301,0.21 -1.206,0.21 -1.219,0 0,-0.079 0.249,-0.236 0.563,-0.354 0.747,-0.301 3.053,-0.341 3.433,-0.052 0.157,0.118 0.55,0.197 0.957,0.197 0.511,0 0.668,0.039 0.616,0.17 -0.026,0.092 0.118,0.367 0.341,0.616 0.21,0.236 0.393,0.485 0.393,0.55 0,0.052 0.144,0.105 0.314,0.105 0.183,0 0.367,0.052 0.406,0.131 0.039,0.066 0.393,0.131 0.76,0.131 0.485,0 0.629,0.039 0.485,0.131 -0.131,0.079 -0.144,0.131 -0.026,0.131 0.079,0 0.157,0.131 0.157,0.275 0,0.249 -0.052,0.262 -0.446,0.197 C 21.871,2.898 21.7,2.938 21.582,3.082 21.49,3.187 21.359,3.279 21.294,3.279 c -0.301,0 -0.76,0.603 -0.76,1.022 0,0.223 -0.052,0.419 -0.131,0.419 -0.066,0 -0.131,0.131 -0.131,0.288 0,0.616 -1.245,2.463 -1.664,2.463 -0.066,0 -0.288,0.17 -0.498,0.393 -0.197,0.21 -0.419,0.354 -0.485,0.314 -0.066,-0.04 -0.197,0 -0.301,0.079 -0.223,0.183 -0.275,1.572 -0.066,1.572 0.079,0 0.131,0.079 0.131,0.183 0,0.21 0.393,0.341 1.022,0.341 0.223,0 0.419,0.066 0.419,0.131 0,0.079 0.144,0.131 0.328,0.131 0.184,0 0.563,0.144 0.852,0.328 0.288,0.183 0.577,0.328 0.655,0.328 0.078,0 0.17,0.092 0.21,0.197 0.052,0.105 0.17,0.197 0.275,0.197 0.105,0 0.144,0.052 0.105,0.131 -0.039,0.079 0.026,0.131 0.157,0.144 0.131,0 0.17,0.039 0.079,0.079 -0.092,0.026 -0.17,0.118 -0.17,0.197 0,0.079 0.079,0.105 0.17,0.066 0.249,-0.092 0.144,4.036 -0.105,4.416 -0.105,0.144 -0.197,0.406 -0.197,0.563 0,0.17 -0.052,0.301 -0.131,0.301 -0.066,0 -0.131,0.092 -0.131,0.197 0,0.367 -1.232,1.9 -1.533,1.9 -0.052,0 -0.223,0.131 -0.367,0.301 -0.144,0.17 -0.485,0.472 -0.747,0.668 -0.459,0.341 -0.498,0.419 -0.498,1.048 0,0.38 0.066,0.747 0.157,0.839 0.21,0.21 0.118,0.262 -0.459,0.341 -0.852,0.105 -2.45,0.681 -2.45,0.891 0,0.052 -0.079,0.105 -0.17,0.105 -0.157,0 -0.616,0.446 -0.616,0.603 0,0.052 -0.144,0.223 -0.328,0.393 -0.184,0.17 -0.328,0.354 -0.328,0.419 0,0.079 -0.079,0.275 -0.17,0.459 -0.105,0.21 -0.183,0.878 -0.21,1.651 -0.026,1.114 0,1.323 0.17,1.323 0.131,0 0.17,0.079 0.118,0.223 -0.052,0.144 -0.039,0.183 0.066,0.118 0.105,-0.066 0.131,-0.026 0.079,0.105 -0.052,0.144 0,0.21 0.131,0.21 0.118,0 0.21,0.066 0.21,0.131 0,0.197 0.498,0.655 0.708,0.655 0.105,0 0.223,0.092 0.262,0.21 0.039,0.105 0.131,0.157 0.21,0.118 0.079,-0.039 0.17,0 0.21,0.105 0.039,0.105 0.301,0.223 0.59,0.275 0.275,0.039 0.511,0.131 0.511,0.197 0,0.38 3.014,-0.642 3.315,-1.127 0.183,-0.288 0.485,-0.197 0.485,0.144 0,0.249 -0.144,0.406 -0.55,0.655 -0.314,0.183 -0.485,0.341 -0.393,0.341 0.092,0 0.039,0.118 -0.118,0.275 -0.197,0.197 -0.38,0.262 -0.642,0.197 -0.236,-0.039 -0.432,0 -0.524,0.118 -0.183,0.223 -1.9,0.275 -2.031,0.066 z m -3.591,-4.167 c -0.079,-0.026 -0.144,-0.183 -0.144,-0.367 0,-0.236 -0.052,-0.288 -0.223,-0.223 -0.275,0.105 -0.55,0.432 -0.563,0.655 0,0.197 0.668,0.288 0.904,0.118 0.118,-0.092 0.118,-0.157 0.026,-0.183 z m -0.642,-9.54 c -0.026,-0.131 -0.092,-0.275 -0.144,-0.314 -0.066,-0.039 -0.144,-0.223 -0.197,-0.419 -0.118,-0.485 -0.603,-0.511 -0.603,-0.039 0,0.183 0.066,0.328 0.131,0.328 0.079,0 0.131,0.066 0.131,0.131 0,0.197 0.432,0.642 0.59,0.603 0.079,-0.026 0.105,-0.157 0.092,-0.288 z m 9.579,-3.944 c -0.105,-0.039 -0.17,-0.314 -0.17,-0.708 0,-0.354 -0.052,-0.642 -0.131,-0.642 -0.066,0 -0.131,-0.144 -0.131,-0.328 0,-0.262 -0.066,-0.328 -0.328,-0.328 -0.183,0 -0.328,0.066 -0.328,0.131 0,0.079 0.066,0.131 0.131,0.131 0.079,0 0.131,0.118 0.131,0.275 0,0.157 0.079,0.459 0.183,0.681 0.105,0.236 0.21,0.524 0.262,0.655 0.039,0.118 0.17,0.223 0.301,0.21 0.144,0 0.17,-0.039 0.079,-0.079 z M 6.211,11.845 c -0.052,-0.039 -0.092,0 -0.092,0.092 0,0.092 0.039,0.131 0.092,0.092 0.039,-0.052 0.039,-0.131 0,-0.183 z m 8.754,-8.491 c 0,-0.183 -0.066,-0.328 -0.157,-0.328 -0.17,0 -0.236,0.537 -0.079,0.694 0.131,0.131 0.21,0 0.236,-0.367 z m 7.534,-0.589 c 0,-0.066 -0.066,-0.131 -0.144,-0.131 -0.066,0 -0.092,0.066 -0.052,0.131 0.039,0.079 0.105,0.131 0.144,0.131 0.026,0 0.052,-0.052 0.052,-0.131 z"
       inkscape:connector-curvature="0"
       style="fill:#ffffff" />
    <path
       id="path6"
       d="m 16.118,28.631 c -0.236,-0.118 -0.432,-0.301 -0.432,-0.393 0,-0.105 -0.092,-0.183 -0.197,-0.183 -0.105,0 -0.197,-0.118 -0.197,-0.249 0,-0.144 -0.066,-0.275 -0.131,-0.301 -0.079,-0.026 -0.183,-0.38 -0.223,-0.799 -0.066,-0.655 -0.039,-0.799 0.275,-1.271 0.537,-0.826 0.839,-0.957 2.031,-0.904 0.943,0.052 1.075,0.092 1.376,0.419 0.183,0.197 0.341,0.419 0.341,0.498 0,0.157 0.97,0.157 1.284,0 0.118,-0.066 0.459,-0.223 0.747,-0.354 0.288,-0.144 0.55,-0.288 0.59,-0.328 0.039,-0.052 0.197,-0.118 0.367,-0.17 0.157,-0.052 0.288,-0.144 0.288,-0.21 0,-0.052 0.105,-0.131 0.236,-0.183 0.288,-0.092 0.642,-0.328 1.061,-0.694 0.183,-0.17 0.38,-0.301 0.432,-0.301 0.118,0 1.022,-0.865 1.022,-0.983 0,-0.052 0.183,-0.314 0.393,-0.59 0.223,-0.275 0.393,-0.629 0.393,-0.799 0,-0.17 0.092,-0.432 0.197,-0.563 0.105,-0.144 0.197,-0.38 0.197,-0.537 0,-0.157 0.066,-0.341 0.131,-0.406 0.183,-0.183 0.314,-1.9 0.157,-2.123 -0.17,-0.236 -3.407,-0.262 -3.787,-0.026 -0.629,0.393 -0.852,-0.223 -0.59,-1.638 l 0.092,-0.524 0.079,0.655 0.092,0.655 -0.026,-0.76 c -0.013,-0.524 0.039,-0.747 0.157,-0.747 0.079,0 0.157,0.144 0.157,0.301 0,0.301 0.052,0.314 1.546,0.472 0.839,0.092 2.018,0.183 2.621,0.223 l 1.075,0.066 v 1.232 c 0,0.826 -0.066,1.337 -0.197,1.586 -0.105,0.21 -0.197,0.603 -0.197,0.878 0,0.262 -0.052,0.485 -0.118,0.485 -0.066,0 -0.144,0.236 -0.197,0.524 -0.039,0.288 -0.144,0.524 -0.21,0.524 -0.079,0 -0.131,0.144 -0.131,0.314 0,0.17 -0.039,0.341 -0.092,0.367 -0.066,0.026 -0.223,0.262 -0.354,0.537 -0.144,0.262 -0.301,0.485 -0.354,0.485 -0.066,0 -0.59,0.472 -1.166,1.048 -0.576,0.576 -1.14,1.048 -1.245,1.048 -0.105,0 -0.223,0.066 -0.262,0.131 -0.052,0.079 -0.38,0.262 -0.734,0.419 -0.354,0.157 -0.642,0.328 -0.642,0.393 0,0.052 -0.144,0.105 -0.314,0.105 -0.183,0 -0.354,0.052 -0.393,0.118 -0.039,0.052 -0.419,0.236 -0.852,0.406 -0.786,0.288 -0.93,0.459 -0.93,1.14 0,0.157 -0.197,0.472 -0.419,0.708 -0.406,0.406 -0.498,0.432 -1.481,0.472 -0.773,0.026 -1.166,-0.013 -1.468,-0.17 z m 1.887,-0.799 c -0.052,-0.039 -0.092,0 -0.092,0.092 0,0.092 0.039,0.131 0.092,0.092 0.039,-0.052 0.039,-0.131 0,-0.183 z"
       inkscape:connector-curvature="0"
       style="fill:#ffffff" />
    <path
       id="path8"
       d="M 0.013,26.941 C -0.026,26.836 0.026,26.653 0.144,26.535 0.262,26.43 0.524,26.116 0.721,25.854 0.918,25.592 1.311,25.133 1.599,24.832 2.372,24.02 2.569,23.757 2.49,23.679 2.438,23.64 2.464,23.6 2.542,23.6 c 0.118,0 0.708,-0.577 2.11,-2.031 0.079,-0.105 0.157,-0.236 0.157,-0.301 0,-0.393 1.376,-0.105 1.533,0.328 0.052,0.131 0.157,0.092 0.38,-0.157 0.17,-0.183 0.393,-0.328 0.498,-0.328 0.341,0 0.485,-0.432 0.262,-0.852 -0.236,-0.459 -0.21,-1.913 0.052,-2.005 0.079,-0.026 0.157,0.039 0.157,0.144 0,0.131 0.105,0.17 0.367,0.118 0.249,-0.052 0.288,-0.092 0.131,-0.131 -0.288,-0.052 -0.314,-0.419 -0.039,-0.419 0.105,0 0.197,-0.092 0.197,-0.21 0,-0.131 0.092,-0.183 0.288,-0.157 0.196,0.026 0.314,0.17 0.406,0.498 0.066,0.249 0.17,0.511 0.236,0.59 0.066,0.066 0.118,0.288 0.118,0.485 0,0.498 0.93,1.939 1.258,1.939 0.144,0 0.406,0.328 0.354,0.472 -0.026,0.066 0.079,0.249 0.21,0.406 0.262,0.275 0.262,0.275 0.013,0.76 -0.144,0.275 -0.223,0.55 -0.17,0.629 0.039,0.079 0.013,0.092 -0.066,0.039 -0.092,-0.052 -0.157,-0.039 -0.157,0.013 0,0.066 -0.249,0.092 -0.55,0.052 C 9.789,23.443 9.619,23.325 8.911,22.578 8.256,21.884 8.085,21.752 8.007,21.936 c -0.039,0.118 -0.183,0.223 -0.301,0.223 -0.432,0 -0.865,0.786 -0.537,0.983 0.249,0.157 0.131,0.563 -0.288,1.035 -0.223,0.262 -0.485,0.472 -0.563,0.472 -0.078,0 -0.393,0.118 -0.694,0.262 C 4.982,25.225 4.733,25.239 4.471,24.977 4.327,24.833 4.314,24.78 4.432,24.78 c 0.092,0 0.131,-0.039 0.092,-0.079 -0.157,-0.144 -0.76,0.38 -0.76,0.655 0,0.183 -0.144,0.367 -0.393,0.524 -0.223,0.118 -0.367,0.288 -0.328,0.354 0.079,0.105 -0.406,0.183 -0.826,0.131 -0.105,-0.013 -0.275,0.052 -0.393,0.157 -0.328,0.275 -1.14,0.616 -1.454,0.616 -0.157,0 -0.314,-0.092 -0.354,-0.197 z m 1.691,-1.245 c 0.039,-0.144 0.013,-0.262 -0.052,-0.262 -0.065,0 -0.118,0.118 -0.118,0.262 0,0.144 0.026,0.262 0.052,0.262 0.026,0 0.079,-0.118 0.118,-0.262 z m 0.314,-0.157 c -0.039,-0.092 -0.066,-0.026 -0.066,0.157 0,0.183 0.026,0.249 0.066,0.17 0.026,-0.092 0.026,-0.249 0,-0.328 z m 6.434,-6.722 c -0.039,-0.039 -0.118,0.026 -0.157,0.157 -0.079,0.183 -0.066,0.197 0.066,0.079 0.092,-0.092 0.131,-0.197 0.092,-0.236 z"
       inkscape:connector-curvature="0"
       style="fill:#ffffff" />
    <path
       id="path10"
       d="m 23.888,12.789 c -0.118,-0.17 -0.21,-0.524 -0.21,-0.773 0,-0.38 -0.288,-1.153 -0.524,-1.389 C 23.023,10.496 22.748,10.037 22.682,9.815 22.63,9.684 22.551,9.579 22.499,9.579 22.433,9.579 22.342,9.448 22.289,9.291 22.237,9.121 22.066,8.859 21.896,8.701 21.726,8.543 21.582,8.36 21.582,8.308 c 0,-0.066 -0.131,-0.17 -0.288,-0.236 -0.314,-0.144 -0.498,-0.59 -0.236,-0.59 0.183,0 0.524,-0.328 0.524,-0.511 0,-0.079 0.21,-0.144 0.472,-0.144 0.419,0 0.59,0.105 1.31,0.852 0.773,0.786 1.101,1.009 1.101,0.734 0,-0.052 0.301,-0.249 0.655,-0.419 0.367,-0.17 0.655,-0.354 0.655,-0.406 0,-0.066 0.092,-0.105 0.21,-0.105 0.314,0 0.17,-0.655 -0.249,-1.088 C 25.539,6.198 25.408,5.976 25.448,5.897 25.5,5.831 25.867,5.779 26.274,5.779 26.68,5.766 27.165,5.687 27.349,5.582 c 0.184,-0.105 0.485,-0.183 0.668,-0.197 0.197,0 0.419,-0.092 0.511,-0.197 0.092,-0.105 0.249,-0.197 0.341,-0.197 0.105,0 0.288,-0.052 0.419,-0.118 0.236,-0.118 0.839,-0.393 1.599,-0.708 0.249,-0.118 0.603,-0.223 0.786,-0.249 0.288,-0.039 0.328,0.013 0.328,0.354 0,0.314 -0.066,0.406 -0.301,0.432 -0.17,0.026 -0.511,0.262 -0.76,0.524 -0.865,0.93 -2.018,2.306 -2.018,2.424 0,0.066 -0.236,0.354 -0.524,0.629 -0.38,0.367 -0.524,0.616 -0.524,0.904 0,0.275 -0.066,0.393 -0.21,0.393 -0.105,0 -0.17,-0.052 -0.118,-0.118 C 27.585,9.379 27.507,9.275 27.389,9.196 27.206,9.091 27.179,9.039 27.323,8.908 27.402,8.816 27.48,8.607 27.48,8.436 27.48,8.2 27.401,8.135 27.166,8.135 c -0.708,0 -1.441,0.524 -1.821,1.297 -0.262,0.537 -0.275,0.76 -0.052,0.826 0.105,0.039 0.17,0.446 0.197,1.232 l 0.039,1.166 -0.472,0.236 c -0.642,0.301 -0.917,0.288 -1.166,-0.105 z"
       inkscape:connector-curvature="0"
       style="fill:#ffffff" />
    <path
       id="path12"
       d="m 21.752,12.763 c 0.052,-0.039 0.131,-0.039 0.183,0 0.039,0.052 0,0.092 -0.092,0.092 -0.092,0 -0.131,-0.039 -0.092,-0.092 z"
       inkscape:connector-curvature="0"
       style="fill:#ffffff" />
    <path
       id="path14"
       d="m 19.878,10.758 c -0.17,-0.105 -0.157,-0.131 0.039,-0.131 0.118,0 0.223,0.066 0.223,0.131 0,0.157 -0.013,0.157 -0.262,0 z"
       inkscape:connector-curvature="0"
       style="fill:#ffffff" />
  </g>
</svg>
