<?xml version="1.0" encoding="UTF-8" standalone="no"?>
<!-- Generated by IcoMoon.io -->

<svg
   xmlns:dc="http://purl.org/dc/elements/1.1/"
   xmlns:cc="http://creativecommons.org/ns#"
   xmlns:rdf="http://www.w3.org/1999/02/22-rdf-syntax-ns#"
   xmlns:svg="http://www.w3.org/2000/svg"
   xmlns="http://www.w3.org/2000/svg"
   xmlns:sodipodi="http://sodipodi.sourceforge.net/DTD/sodipodi-0.dtd"
   xmlns:inkscape="http://www.inkscape.org/namespaces/inkscape"
   version="1.1"
   width="215"
   height="215"
   viewBox="0 0 215 215"
   id="svg32"
   sodipodi:docname="potions.svg"
   inkscape:version="0.92.3 (2405546, 2018-03-11)">
  <metadata
     id="metadata38">
    <rdf:RDF>
      <cc:Work
         rdf:about="">
        <dc:format>image/svg+xml</dc:format>
        <dc:type
           rdf:resource="http://purl.org/dc/dcmitype/StillImage" />
        <dc:title>treasure-potions</dc:title>
      </cc:Work>
    </rdf:RDF>
  </metadata>
  <defs
     id="defs36" />
  <sodipodi:namedview
     pagecolor="#ffffff"
     bordercolor="#666666"
     borderopacity="1"
     objecttolerance="10"
     gridtolerance="10"
     guidetolerance="10"
     inkscape:pageopacity="0"
     inkscape:pageshadow="2"
     inkscape:window-width="1920"
     inkscape:window-height="1017"
     id="namedview34"
     showgrid="false"
     fit-margin-top="0"
     fit-margin-left="0"
     fit-margin-right="0"
     fit-margin-bottom="0"
     inkscape:zoom="1.3037281"
     inkscape:cx="-181.62451"
     inkscape:cy="202.62121"
     inkscape:window-x="-8"
     inkscape:window-y="-8"
     inkscape:window-maximized="1"
     inkscape:current-layer="svg32" />
  <title
     id="title2">treasure-potions</title>
  <g
     id="g859"
     transform="matrix(6.71887,0,0,6.71887,-0.00259581,0.00671858)">
    <path
       id="path4"
       d="m 16.149,31.934 c -0.371,-0.038 -0.461,-0.09 -0.32,-0.179 0.128,-0.077 0.09,-0.115 -0.166,-0.115 -0.295,0 -0.359,-0.051 -0.359,-0.32 0,-0.179 -0.051,-0.32 -0.128,-0.32 -0.064,0 -0.128,-0.077 -0.128,-0.154 0,-0.09 -0.141,-0.448 -0.32,-0.794 -0.359,-0.717 -0.397,-1.038 -0.141,-1.14 0.359,-0.141 0.717,-1.166 0.717,-2.05 0,-0.461 0.051,-0.871 0.102,-0.909 0.192,-0.115 0.282,-2.152 0.141,-2.959 -0.077,-0.423 -0.154,-1.14 -0.192,-1.601 -0.051,-0.807 -0.128,-1.063 -0.512,-1.832 -0.102,-0.205 -0.179,-0.448 -0.179,-0.551 0,-0.103 -0.09,-0.218 -0.192,-0.256 -0.102,-0.051 -0.192,-0.179 -0.192,-0.295 0,-0.269 -0.512,-0.781 -0.781,-0.781 -0.102,0 -0.333,-0.102 -0.538,-0.231 l -0.346,-0.243 0.32,-0.346 c 0.179,-0.192 0.32,-0.397 0.32,-0.474 0,-0.064 0.077,-0.115 0.166,-0.115 0.077,0 0.231,-0.179 0.333,-0.397 0.09,-0.218 0.333,-0.564 0.538,-0.769 0.205,-0.205 0.371,-0.5 0.371,-0.628 0,-0.141 0.051,-0.256 0.115,-0.256 0.064,0 0.141,-1.383 0.154,-3.074 0.038,-2.229 0.09,-3.1 0.218,-3.228 0.41,-0.41 0.038,-1.511 -0.525,-1.511 -0.115,0 -0.218,-0.051 -0.218,-0.128 0,-0.064 -0.115,-0.128 -0.256,-0.128 -0.141,0 -0.256,-0.064 -0.256,-0.141 0,-0.077 0.115,-0.167 0.256,-0.205 0.231,-0.064 0.32,-0.269 0.269,-0.576 0,-0.064 0.295,-0.102 0.653,-0.115 4.112,-0.038 4.88,-0.013 4.522,0.141 -0.231,0.102 -0.231,0.115 0.077,0.115 0.32,0.013 0.884,0.423 0.884,0.653 0,0.064 -0.09,0.077 -0.218,0.038 -0.141,-0.051 -0.179,-0.038 -0.115,0.064 0.128,0.218 -0.026,0.41 -0.243,0.32 -0.102,-0.038 -0.192,-0.205 -0.192,-0.371 0,-0.243 -0.064,-0.307 -0.32,-0.307 -0.256,0 -0.32,0.064 -0.32,0.307 0,0.231 0.077,0.333 0.282,0.359 0.154,0.026 0.295,0.115 0.333,0.218 0.038,0.103 0,0.141 -0.064,0.102 -0.064,-0.038 -0.218,0.038 -0.333,0.179 -0.179,0.205 -0.218,0.525 -0.218,1.768 0,1.345 -0.026,1.55 -0.269,1.857 -0.141,0.192 -0.231,0.435 -0.192,0.538 0.09,0.243 0.384,0.166 0.41,-0.09 0.026,-0.41 0.051,-0.5 0.166,-0.5 0.064,0 0.141,0.423 0.179,0.935 0.038,0.5 0.115,1.102 0.154,1.332 0.077,0.359 0.051,0.41 -0.205,0.448 -0.205,0.026 -0.32,0.141 -0.346,0.346 -0.026,0.166 -0.192,0.448 -0.359,0.64 -0.346,0.371 -0.692,1.038 -0.692,1.345 0,0.115 -0.051,0.205 -0.128,0.205 -0.077,0 -0.128,0.423 -0.128,1.012 0,0.64 -0.064,1.14 -0.192,1.371 -0.243,0.474 -0.243,1.255 0,1.512 0.102,0.102 0.192,0.346 0.192,0.525 0,0.41 0.397,1.601 0.538,1.601 0.064,0 0.102,0.154 0.102,0.359 0.013,0.192 0.09,0.487 0.192,0.666 0.102,0.179 0.179,0.474 0.192,0.653 0,0.179 0.038,0.371 0.077,0.41 0.115,0.115 0.551,1.383 0.564,1.614 0,0.102 0.09,0.295 0.205,0.41 0.192,0.218 0.192,0.256 0,0.551 -0.115,0.179 -0.205,0.436 -0.205,0.576 0,0.14 -0.051,0.282 -0.115,0.32 -0.051,0.038 -0.141,0.231 -0.179,0.423 -0.038,0.205 -0.179,0.474 -0.307,0.615 -0.307,0.32 -0.628,0.974 -0.743,1.473 -0.051,0.205 -0.141,0.384 -0.205,0.384 -0.064,0 -0.115,0.09 -0.115,0.205 0,0.282 -0.884,1.358 -1.038,1.268 -0.064,-0.051 -0.077,0.013 -0.038,0.115 0.038,0.115 0.064,0.192 0.038,0.179 -0.026,-0.013 -0.282,-0.038 -0.551,-0.064 z m 1.076,-14.321 c 0,-0.231 -0.051,-0.295 -0.192,-0.243 -0.205,0.077 -0.256,0.333 -0.102,0.474 0.166,0.179 0.295,0.077 0.295,-0.231 z"
       inkscape:connector-curvature="0"
       style="fill:#ffffff" />
    <path
       id="path6"
       d="m 8.13,31.127 c 0,-0.064 -0.115,-0.128 -0.269,-0.128 -0.307,0 -1.025,-0.371 -1.178,-0.602 -0.051,-0.09 -0.179,-0.166 -0.256,-0.166 -0.09,0 -0.346,-0.166 -0.576,-0.384 -0.231,-0.205 -0.5,-0.384 -0.576,-0.384 -0.09,0 -0.077,-0.051 0.038,-0.128 0.167,-0.115 0.167,-0.128 0,-0.128 -0.115,0 -0.346,-0.141 -0.512,-0.32 C 4.622,28.708 4.378,28.464 4.263,28.336 4.135,28.221 4.032,27.99 4.032,27.836 c 0,-0.166 -0.051,-0.295 -0.128,-0.295 -0.064,0 -0.128,-0.102 -0.128,-0.218 0,-0.128 -0.09,-0.397 -0.192,-0.602 C 3.482,26.529 3.392,26.145 3.392,25.888 3.392,25.631 3.315,25.337 3.238,25.26 3.136,25.158 3.059,24.581 3.033,23.723 2.995,22.57 3.02,22.314 3.187,22.173 c 0.115,-0.09 0.205,-0.333 0.205,-0.525 0,-0.192 0.09,-0.423 0.192,-0.512 0.102,-0.09 0.192,-0.243 0.192,-0.359 0,-0.102 0.141,-0.384 0.32,-0.615 0.397,-0.512 0.397,-0.653 0.038,-0.999 -0.423,-0.384 -0.743,-0.922 -0.743,-1.23 0,-0.141 -0.051,-0.256 -0.115,-0.256 -0.064,0 -0.141,-0.128 -0.179,-0.282 -0.077,-0.256 0.589,-1.652 0.82,-1.742 0.064,-0.026 0.115,-0.166 0.115,-0.307 0,-0.256 0.32,-0.922 0.576,-1.204 0.346,-0.371 0.986,-0.564 1.857,-0.564 1.307,0 1.435,-0.141 1.383,-1.588 C 7.822,11.209 7.771,10.888 7.656,10.888 7.541,10.888 7.489,10.632 7.489,9.991 7.489,9.274 7.451,9.094 7.297,9.094 7.195,9.094 7.105,9.03 7.105,8.966 7.105,8.889 6.99,8.71 6.862,8.556 6.619,8.3 6.619,8.287 6.888,7.864 7.183,7.403 7.247,7.39 8.451,7.441 c 3.19,0.128 3.215,0.128 4.522,0.038 0.897,-0.064 1.05,-0.038 1.05,0.128 0,0.115 0.077,0.205 0.166,0.205 0.115,0 0.115,0.026 -0.013,0.115 -0.09,0.051 -0.192,0.218 -0.205,0.346 -0.026,0.128 -0.115,0.231 -0.179,0.218 -0.09,-0.026 -0.115,0.051 -0.064,0.179 0.051,0.128 0.026,0.179 -0.051,0.128 -0.077,-0.051 -0.218,-0.013 -0.32,0.077 -0.09,0.09 -0.423,0.269 -0.743,0.41 -0.32,0.128 -0.679,0.359 -0.82,0.487 -0.218,0.218 -0.231,0.307 -0.077,0.909 0.09,0.397 0.128,1.05 0.077,1.678 -0.038,0.564 -0.102,1.947 -0.154,3.074 l -0.077,2.049 0.384,0.423 c 0.205,0.218 0.423,0.41 0.5,0.41 0.154,0 0.807,0.717 0.807,0.884 0,0.064 0.09,0.141 0.192,0.192 0.102,0.038 0.192,0.154 0.192,0.243 0,0.102 0.09,0.256 0.192,0.346 0.102,0.09 0.192,0.269 0.192,0.384 0,0.128 0.064,0.256 0.141,0.282 0.064,0.026 0.141,0.231 0.141,0.448 0.013,0.307 0.064,0.384 0.218,0.333 0.141,-0.051 0.115,0 -0.051,0.128 -0.231,0.192 -0.231,0.205 -0.026,0.218 0.192,0 0.218,0.179 0.218,1.845 0,1.025 -0.051,1.883 -0.115,1.921 -0.064,0.038 -0.154,0.282 -0.192,0.525 -0.051,0.243 -0.141,0.448 -0.205,0.448 -0.051,0 -0.141,0.179 -0.192,0.384 -0.051,0.218 -0.141,0.384 -0.205,0.384 -0.064,0 -0.115,0.141 -0.115,0.32 0,0.179 -0.051,0.32 -0.115,0.32 -0.064,0 -0.166,0.115 -0.205,0.256 -0.051,0.141 -0.487,0.666 -0.973,1.166 -0.858,0.871 -0.922,0.909 -1.217,0.756 -0.256,-0.141 -0.359,-0.141 -0.628,0 -0.179,0.09 -0.32,0.243 -0.32,0.333 0,0.154 -0.359,0.371 -0.538,0.333 -0.064,-0.013 -0.102,0.038 -0.102,0.102 0,0.077 -0.09,0.128 -0.192,0.128 -0.102,0 -0.192,0.064 -0.192,0.128 0,0.077 -0.231,0.128 -0.512,0.128 -0.281,0 -0.512,-0.051 -0.512,-0.128 z m 4.522,-6.456 c 0.333,-0.346 0.423,-3.382 0.09,-3.715 -0.064,-0.064 -0.128,-0.231 -0.128,-0.359 0,-0.128 -0.051,-0.231 -0.102,-0.231 -0.064,0 -0.205,-0.231 -0.333,-0.512 -0.256,-0.589 -0.602,-0.948 -1.14,-1.217 -0.32,-0.154 -0.397,-0.154 -0.551,0 -0.102,0.09 -0.179,0.32 -0.179,0.5 0,0.307 0.538,1.473 0.756,1.614 0.218,0.141 0.909,1.383 0.909,1.64 0,0.141 0.064,0.307 0.128,0.346 0.077,0.038 0.128,0.538 0.128,1.102 0,1.012 0.077,1.166 0.423,0.833 z M 6.849,18.189 c 0,-0.064 0.09,-0.128 0.192,-0.128 0.102,0 0.333,-0.141 0.512,-0.32 0.282,-0.295 0.32,-0.436 0.32,-1.281 0,-1.076 -0.115,-1.217 -0.999,-1.217 -0.397,0 -0.589,0.09 -0.961,0.474 -0.397,0.397 -0.474,0.551 -0.474,1.025 0,0.307 0.115,0.794 0.256,1.063 0.231,0.448 0.32,0.512 0.705,0.512 0.243,0 0.448,-0.051 0.448,-0.128 z m 4.356,-0.832 c 0,-0.256 -0.064,-0.32 -0.32,-0.32 -0.256,0 -0.32,0.064 -0.32,0.32 0,0.256 0.064,0.32 0.32,0.32 0.256,0 0.32,-0.064 0.32,-0.32 z M 8.515,9.3 C 8.515,9.018 8.144,8.775 7.977,8.941 7.682,9.236 7.759,9.479 8.143,9.479 8.374,9.479 8.514,9.415 8.514,9.3 Z M 13.51,7.942 c 0,-0.064 -0.026,-0.128 -0.051,-0.128 -0.038,0 -0.102,0.064 -0.141,0.128 -0.038,0.077 -0.013,0.128 0.051,0.128 0.077,0 0.141,-0.051 0.141,-0.128 z"
       inkscape:connector-curvature="0"
       style="fill:#ffffff" />
    <path
       id="path8"
       d="m 22.989,28.821 c 0,-0.09 0.038,-0.128 0.09,-0.09 0.038,0.051 0.038,0.128 0,0.179 -0.051,0.038 -0.09,0 -0.09,-0.09 z"
       inkscape:connector-curvature="0"
       style="fill:#ffffff" />
    <path
       id="path10"
       d="M 22.989,28.578 C 22.592,28.527 22.425,28.45 22.451,28.322 22.477,28.22 22.413,28.181 22.31,28.22 c -0.09,0.038 -0.282,-0.102 -0.423,-0.307 -0.128,-0.205 -0.282,-0.371 -0.333,-0.371 -0.064,0 -0.102,-0.115 -0.102,-0.256 0,-0.141 -0.141,-0.487 -0.32,-0.769 -0.179,-0.282 -0.32,-0.602 -0.32,-0.704 0,-0.115 -0.09,-0.231 -0.192,-0.269 -0.102,-0.051 -0.192,-0.231 -0.192,-0.423 0,-0.179 -0.09,-0.448 -0.192,-0.576 -0.102,-0.141 -0.192,-0.359 -0.192,-0.487 0,-0.128 -0.051,-0.231 -0.128,-0.231 -0.064,0 -0.128,-0.102 -0.128,-0.243 0,-0.128 -0.09,-0.307 -0.192,-0.397 -0.102,-0.09 -0.192,-0.295 -0.192,-0.461 0,-0.166 -0.051,-0.307 -0.115,-0.307 -0.141,0 -0.192,-0.243 -0.397,-1.793 -0.077,-0.602 -0.231,-1.255 -0.333,-1.447 -0.128,-0.269 -0.154,-0.615 -0.09,-1.345 0.051,-0.64 0.115,-0.897 0.179,-0.73 0.064,0.167 0.09,0.013 0.09,-0.41 0,-0.371 0.051,-0.756 0.141,-0.845 0.077,-0.102 0.154,-0.333 0.166,-0.512 0.012,-0.179 0.077,-0.295 0.128,-0.269 0.051,0.038 0.102,0.013 0.102,-0.051 0,-0.077 0.179,-0.192 0.384,-0.269 0.218,-0.064 0.384,-0.192 0.384,-0.256 0,-0.077 0.077,-0.141 0.179,-0.141 0.102,0 0.269,-0.077 0.359,-0.179 0.102,-0.09 0.32,-0.218 0.487,-0.269 0.371,-0.115 0.769,-0.538 0.769,-0.794 0,-0.128 0.192,-0.166 0.679,-0.166 0.359,0.013 1.319,0.013 2.126,0.013 1.422,0 1.934,0.128 1.934,0.461 0,0.077 0.179,0.166 0.397,0.192 0.243,0.026 0.461,0.141 0.551,0.295 0.077,0.141 0.218,0.307 0.307,0.359 0.077,0.051 0.154,0.192 0.154,0.282 0,0.102 0.051,0.192 0.102,0.192 0.115,0 0.384,1.127 0.5,2.049 0.026,0.32 0.128,0.64 0.205,0.704 0.243,0.205 0.256,0.576 0.026,0.576 -0.154,0 -0.192,0.154 -0.192,0.73 0,0.653 -0.295,1.793 -0.525,1.96 -0.038,0.038 -0.115,0.282 -0.166,0.551 -0.051,0.256 -0.141,0.474 -0.205,0.474 -0.077,0 -0.128,0.141 -0.128,0.32 0,0.179 -0.051,0.32 -0.115,0.32 -0.064,0 -0.154,0.166 -0.205,0.384 -0.051,0.205 -0.141,0.41 -0.205,0.448 -0.064,0.051 -0.115,0.192 -0.115,0.32 0,0.128 -0.166,0.41 -0.384,0.615 -0.205,0.218 -0.384,0.448 -0.384,0.525 0,0.077 -0.051,0.141 -0.115,0.141 -0.064,0 -0.154,0.141 -0.192,0.32 -0.051,0.179 -0.141,0.32 -0.205,0.32 -0.077,0 -0.128,0.064 -0.128,0.128 0,0.077 -0.231,0.384 -0.512,0.666 -0.282,0.295 -0.512,0.615 -0.512,0.717 0,0.09 -0.102,0.295 -0.218,0.461 -0.179,0.243 -0.269,0.269 -0.512,0.154 -0.32,-0.154 -0.41,-0.41 -0.102,-0.282 0.102,0.038 0.192,0.013 0.192,-0.051 0,-0.077 -0.32,-0.128 -0.704,-0.128 -0.692,0 -0.692,0 -0.666,0.384 0.026,0.371 0.102,0.436 0.448,0.397 0.077,-0.013 0.154,0.038 0.154,0.115 0,0.064 0.192,0.141 0.423,0.141 0.218,0.013 0.307,0.038 0.192,0.077 -0.128,0.026 -0.231,0.102 -0.231,0.166 0,0.064 0.102,0.141 0.231,0.166 0.295,0.077 -0.026,0.064 -0.743,-0.026 z m 1.678,-9.517 c 0.128,-0.166 0.231,-0.397 0.243,-0.525 0,-0.128 0.064,-0.192 0.141,-0.154 0.077,0.051 0.166,-0.026 0.205,-0.179 0.039,-0.153 0.115,-0.269 0.179,-0.269 0.064,0 0.115,-0.051 0.115,-0.115 0,-0.064 0.231,-0.461 0.525,-0.897 0.538,-0.794 0.564,-1.102 0.154,-1.255 -0.128,-0.051 -0.423,-0.282 -0.64,-0.512 -0.384,-0.397 -0.423,-0.512 -0.423,-1.204 v -0.756 h -0.5 c -0.295,0 -0.589,0.09 -0.704,0.205 -0.115,0.102 -0.205,0.166 -0.205,0.115 0,-0.038 -0.115,-0.013 -0.269,0.077 -0.192,0.102 -0.231,0.179 -0.128,0.282 0.077,0.077 0.141,0.41 0.141,0.73 0,0.551 -0.026,0.602 -0.448,0.807 -0.256,0.115 -0.538,0.218 -0.64,0.218 -0.115,0 -0.192,0.128 -0.192,0.32 0,0.179 0.051,0.32 0.115,0.32 0.064,0 0.141,0.102 0.192,0.231 0.077,0.243 0.32,0.64 0.551,0.884 0.077,0.09 0.218,0.333 0.32,0.551 0.09,0.205 0.205,0.384 0.256,0.384 0.051,0 0.141,0.231 0.179,0.512 0.102,0.602 0.436,0.692 0.833,0.231 z m -5.264,-0.872 c 0,-0.205 0,-0.423 0.013,-0.474 0.026,-0.256 -0.243,-0.128 -0.384,0.166 -0.115,0.256 -0.115,0.384 0,0.512 0.231,0.282 0.371,0.205 0.371,-0.205 z m 0.691,-2.369 c 0.038,-0.102 0,-0.179 -0.077,-0.154 -0.077,0.013 -0.166,-0.051 -0.192,-0.141 -0.038,-0.09 0.09,-0.192 0.32,-0.231 0.243,-0.051 0.371,-0.141 0.333,-0.243 -0.077,-0.192 -0.487,-0.32 -0.64,-0.205 -0.179,0.128 -0.205,0.743 -0.051,0.845 0.115,0.077 0.115,0.128 -0.013,0.205 -0.141,0.09 -0.141,0.115 0.026,0.115 0.115,0 0.243,-0.09 0.295,-0.192 z m 0.333,-0.244 c 0,-0.038 -0.064,-0.102 -0.154,-0.154 -0.09,-0.052 -0.102,-0.038 -0.051,0.051 0.09,0.154 0.205,0.205 0.205,0.102 z"
       inkscape:connector-curvature="0"
       style="fill:#ffffff" />
    <path
       id="path12"
       d="m 24.116,16.435 c -0.256,-0.064 -0.32,-0.423 -0.064,-0.423 0.09,0 0.231,0.115 0.32,0.256 0.154,0.256 0.141,0.269 -0.256,0.166 z"
       inkscape:connector-curvature="0"
       style="fill:#ffffff" />
    <path
       id="path14"
       d="m 17.494,18.932 c 0,-0.231 0.051,-0.538 0.115,-0.679 0.077,-0.192 0.115,-0.077 0.115,0.423 0.013,0.359 -0.038,0.666 -0.115,0.666 -0.064,0 -0.128,-0.192 -0.115,-0.41 z"
       inkscape:connector-curvature="0"
       style="fill:#ffffff" />
    <path
       id="path16"
       d="m 26.422,12.592 c 0.077,-0.026 0.231,-0.026 0.32,0 0.077,0.038 0.013,0.064 -0.166,0.064 -0.179,0 -0.243,-0.026 -0.154,-0.064 z"
       inkscape:connector-curvature="0"
       style="fill:#ffffff" />
    <path
       id="path18"
       d="m 25.974,12.387 c -0.064,-0.115 -0.64,-0.231 -1.665,-0.346 -1.102,-0.115 -1.588,-0.218 -1.627,-0.346 -0.038,-0.102 -0.026,-0.154 0.026,-0.115 0.051,0.026 0.179,0.013 0.282,-0.051 0.141,-0.09 0.154,-0.166 0.038,-0.41 -0.09,-0.166 -0.179,-0.525 -0.205,-0.807 -0.064,-0.704 -0.371,-1.755 -0.564,-1.96 -0.09,-0.09 -0.166,-0.256 -0.166,-0.359 0,-0.103 -0.051,-0.179 -0.128,-0.179 -0.064,0 -0.128,-0.141 -0.128,-0.307 0,-0.282 0.064,-0.32 0.704,-0.397 0.384,-0.051 0.704,-0.141 0.704,-0.205 0,-0.064 0.154,-0.115 0.359,-0.102 0.192,0 0.269,0.038 0.166,0.077 -0.436,0.179 0.231,0.256 1.537,0.192 1.332,-0.064 1.422,-0.051 1.716,0.231 0.423,0.397 0.397,0.705 -0.064,0.986 -0.205,0.115 -0.384,0.269 -0.384,0.333 0,0.051 -0.154,0.243 -0.333,0.423 -0.32,0.282 -0.346,0.384 -0.359,1.435 -0.013,1.076 -0.026,1.114 -0.295,1.089 -0.192,-0.026 -0.295,0.038 -0.295,0.154 0,0.154 0.09,0.179 0.359,0.115 0.448,-0.102 0.436,-0.102 0.704,0.013 0.218,0.09 0.218,0.102 -0.038,0.282 -0.141,0.102 -0.231,0.243 -0.192,0.307 0.051,0.064 0.051,0.115 0.013,0.115 -0.038,0 -0.115,-0.077 -0.166,-0.166 z m -0.372,-2.242 c 0.013,-0.41 -0.218,-0.564 -0.346,-0.231 -0.102,0.256 0.051,0.73 0.205,0.679 0.064,-0.013 0.141,-0.218 0.141,-0.448 z"
       inkscape:connector-curvature="0"
       style="fill:#ffffff" />
    <path
       id="path20"
       d="m 26.678,12.207 c 0.09,-0.038 0.205,-0.026 0.243,0.013 0.051,0.038 -0.026,0.077 -0.166,0.064 -0.141,0 -0.179,-0.038 -0.077,-0.077 z"
       inkscape:connector-curvature="0"
       style="fill:#ffffff" />
    <path
       id="path22"
       d="m 14.164,8.249 c 0,-0.141 0.038,-0.179 0.077,-0.077 0.038,0.09 0.026,0.205 -0.013,0.243 C 14.19,8.466 14.151,8.389 14.164,8.249 Z"
       inkscape:connector-curvature="0"
       style="fill:#ffffff" />
    <path
       id="path24"
       d="M 27.895,7.763 C 27.459,7.558 27.498,7.097 27.946,7.11 c 0.269,0 0.346,0.064 0.384,0.346 0.051,0.41 -0.051,0.487 -0.436,0.307 z m 0.346,-0.141 c 0,-0.102 -0.09,-0.192 -0.192,-0.192 -0.166,0 -0.179,0.038 -0.038,0.192 0.205,0.231 0.231,0.231 0.231,0 z"
       inkscape:connector-curvature="0"
       style="fill:#ffffff" />
    <path
       id="path26"
       d="m 8.515,6.597 c 0,-0.102 -0.09,-0.192 -0.192,-0.192 -0.218,0 -0.269,-0.833 -0.064,-1.153 0.179,-0.282 2.19,-0.359 2.459,-0.09 0.102,0.115 0.423,0.218 0.692,0.243 0.448,0.038 0.5,0.077 0.461,0.346 -0.013,0.179 -0.115,0.41 -0.205,0.512 -0.09,0.115 -0.141,0.295 -0.115,0.397 0.051,0.167 0.038,0.167 -0.09,0 C 11.346,6.506 11.295,6.506 11.243,6.634 11.205,6.749 11.128,6.762 11.012,6.66 10.769,6.455 9.308,6.417 9.232,6.622 9.142,6.853 8.515,6.84 8.515,6.596 Z"
       inkscape:connector-curvature="0"
       style="fill:#ffffff" />
    <path
       id="path28"
       d="M 23.13,5.88 C 22.887,5.675 22.874,5.611 23.002,5.009 l 0.141,-0.653 h 1.512 c 1.499,0 1.512,0 1.563,0.32 0.09,0.448 -0.256,1.089 -0.589,1.089 -0.154,0 -0.333,0.051 -0.397,0.115 -0.077,0.064 -0.512,0.141 -0.986,0.167 -0.653,0.038 -0.909,0 -1.114,-0.167 z"
       inkscape:connector-curvature="0"
       style="fill:#ffffff" />
    <path
       id="path30"
       d="M 17.801,4.355 C 17.135,4.317 16.789,4.253 16.968,4.214 17.224,4.15 17.186,4.124 16.776,4.112 16.494,4.099 16.046,4.061 15.79,4.022 L 15.303,3.932 V 3.125 c 0,-0.564 0.051,-0.82 0.166,-0.82 0.141,0 0.858,-0.897 0.858,-1.076 0,-0.231 0.82,-1.23 1.025,-1.23 0.282,0 1.191,1.012 1.102,1.23 -0.064,0.154 0.154,0.435 0.346,0.435 0.051,0 0.064,-0.064 0.013,-0.154 -0.051,-0.09 -0.038,-0.102 0.064,-0.051 0.09,0.064 0.102,0.167 0.026,0.295 -0.115,0.218 0.102,0.551 0.359,0.551 0.243,0 0.166,1.563 -0.09,1.857 -0.192,0.231 -0.333,0.256 -1.371,0.192 z M 18.98,4.138 c -0.051,-0.038 -0.09,0 -0.09,0.09 0,0.09 0.038,0.128 0.09,0.09 0.038,-0.051 0.038,-0.128 0,-0.179 z M 18.122,0.756 c -0.154,-0.205 -0.32,-0.359 -0.359,-0.32 -0.064,0.077 0.461,0.717 0.576,0.717 0.038,0 -0.064,-0.179 -0.218,-0.397 z M 17.571,0.167 c -0.051,-0.038 -0.128,-0.038 -0.179,0 -0.038,0.051 0,0.09 0.09,0.09 0.09,0 0.128,-0.038 0.09,-0.09 z"
       inkscape:connector-curvature="0"
       style="fill:#ffffff" />
  </g>
</svg>
