<?xml version="1.0" encoding="UTF-8" standalone="no"?>
<!-- Generated by IcoMoon.io -->

<svg
   xmlns:dc="http://purl.org/dc/elements/1.1/"
   xmlns:cc="http://creativecommons.org/ns#"
   xmlns:rdf="http://www.w3.org/1999/02/22-rdf-syntax-ns#"
   xmlns:svg="http://www.w3.org/2000/svg"
   xmlns="http://www.w3.org/2000/svg"
   xmlns:sodipodi="http://sodipodi.sourceforge.net/DTD/sodipodi-0.dtd"
   xmlns:inkscape="http://www.inkscape.org/namespaces/inkscape"
   version="1.1"
   width="215"
   height="215"
   viewBox="0 0 215 215"
   id="svg32"
   sodipodi:docname="supplies.svg"
   inkscape:version="0.92.3 (2405546, 2018-03-11)">
  <metadata
     id="metadata38">
    <rdf:RDF>
      <cc:Work
         rdf:about="">
        <dc:format>image/svg+xml</dc:format>
        <dc:type
           rdf:resource="http://purl.org/dc/dcmitype/StillImage" />
        <dc:title>treasure-supplies</dc:title>
      </cc:Work>
    </rdf:RDF>
  </metadata>
  <defs
     id="defs36" />
  <sodipodi:namedview
     pagecolor="#ffffff"
     bordercolor="#666666"
     borderopacity="1"
     objecttolerance="10"
     gridtolerance="10"
     guidetolerance="10"
     inkscape:pageopacity="0"
     inkscape:pageshadow="2"
     inkscape:window-width="1920"
     inkscape:window-height="1017"
     id="namedview34"
     showgrid="false"
     fit-margin-top="0"
     fit-margin-left="0"
     fit-margin-right="0"
     fit-margin-bottom="0"
     inkscape:zoom="1.3037281"
     inkscape:cx="78.041841"
     inkscape:cy="66.893685"
     inkscape:window-x="-8"
     inkscape:window-y="-8"
     inkscape:window-maximized="1"
     inkscape:current-layer="svg32" />
  <title
     id="title2">treasure-supplies</title>
  <g
     id="g859"
     transform="matrix(6.7181062,0,0,6.7181062,0.01654682,0.00968158)">
    <path
       id="path4"
       d="m 17.599,31.873 c -0.18,-0.09 -0.657,-0.373 -1.056,-0.631 -0.399,-0.258 -0.824,-0.476 -0.94,-0.476 -0.116,0 -0.232,-0.09 -0.27,-0.193 -0.052,-0.129 -0.258,-0.193 -0.579,-0.193 -0.464,0 -0.502,-0.026 -0.502,-0.348 0,-0.438 0.167,-0.708 0.386,-0.657 0.09,0.026 0.18,-0.077 0.206,-0.219 0.013,-0.142 0.116,-0.309 0.219,-0.386 0.103,-0.064 0.219,-0.399 0.27,-0.734 0.051,-0.335 0.142,-0.644 0.219,-0.682 0.064,-0.052 0.116,-0.348 0.116,-0.67 0,-0.464 0.064,-0.657 0.335,-0.889 0.18,-0.167 0.386,-0.309 0.476,-0.309 0.09,0 0.077,0.052 -0.039,0.129 -0.142,0.09 -0.155,0.129 -0.026,0.129 0.103,0 0.206,-0.116 0.245,-0.258 0.039,-0.167 0.18,-0.258 0.373,-0.258 0.167,0 0.309,-0.052 0.309,-0.129 0,-0.064 0.142,-0.129 0.322,-0.129 0.18,0 0.322,-0.064 0.322,-0.129 0,-0.077 0.103,-0.18 0.232,-0.219 0.116,-0.052 0.283,-0.155 0.373,-0.219 0.412,-0.361 0.528,-0.438 0.785,-0.515 0.142,-0.052 0.476,-0.309 0.721,-0.567 1.481,-1.545 2.009,-2.176 2.009,-2.369 0,-0.116 0.09,-0.296 0.193,-0.412 0.103,-0.103 0.193,-0.245 0.193,-0.309 0,-0.077 0.077,-0.296 0.18,-0.502 0.245,-0.489 0.425,-0.94 0.528,-1.288 0.052,-0.167 0.142,-0.296 0.206,-0.296 0.064,0 0.116,-0.283 0.116,-0.631 0,-0.657 0.116,-0.785 0.657,-0.785 0.142,0 0.283,-0.077 0.322,-0.18 0.064,-0.18 0.515,-0.18 0.682,0 0.039,0.052 -0.026,0.052 -0.155,0.013 -0.129,-0.052 -0.206,-0.039 -0.167,0.026 0.052,0.064 0.322,0.09 0.631,0.064 0.296,-0.026 0.438,-0.013 0.309,0.026 -0.18,0.064 -0.206,0.116 -0.077,0.258 0.077,0.103 0.232,0.18 0.322,0.18 0.103,0 0.18,0.064 0.18,0.129 0,0.077 0.052,0.129 0.116,0.129 0.077,0 0.322,0.18 0.554,0.386 0.232,0.219 0.489,0.386 0.579,0.386 0.09,0 0.167,0.064 0.167,0.129 0,0.077 0.142,0.129 0.309,0.129 0.18,0 0.361,0.052 0.399,0.129 0.052,0.077 -0.013,0.09 -0.142,0.039 -0.155,-0.052 -0.193,-0.039 -0.129,0.064 0.052,0.09 0.206,0.155 0.348,0.155 0.129,0 0.245,0.052 0.245,0.129 0,0.064 0.142,0.155 0.322,0.206 0.18,0.039 0.322,0.129 0.322,0.193 0,0.064 0.309,0.116 0.682,0.116 0.605,0 0.734,0.052 1.03,0.386 0.438,0.476 0.438,0.811 0.026,1.082 -0.18,0.116 -0.322,0.27 -0.322,0.361 0,0.077 -0.09,0.206 -0.193,0.283 -0.103,0.077 -0.206,0.322 -0.219,0.554 -0.013,0.219 -0.077,0.373 -0.129,0.348 -0.052,-0.039 -0.103,0.052 -0.103,0.193 0,0.206 -0.077,0.27 -0.322,0.27 -0.167,0 -0.361,-0.09 -0.412,-0.193 -0.064,-0.116 -0.335,-0.206 -0.644,-0.232 -0.296,-0.013 -0.502,-0.077 -0.464,-0.129 0.039,-0.064 0.167,-0.09 0.296,-0.052 0.155,0.039 0.219,-0.013 0.206,-0.219 -0.013,-0.232 -0.077,-0.27 -0.528,-0.232 -0.631,0.064 -0.708,0.129 -0.412,0.335 0.258,0.193 0.283,0.335 0.064,0.335 -0.155,0 -1.275,0.682 -1.674,1.03 -0.129,0.103 -0.232,0.283 -0.232,0.412 0,0.116 -0.064,0.258 -0.155,0.309 -0.09,0.064 -0.103,0.039 -0.039,-0.077 0.064,-0.116 0.052,-0.142 -0.039,-0.077 -0.09,0.052 -0.155,0.18 -0.155,0.283 0,0.103 -0.052,0.18 -0.129,0.18 -0.064,0 -0.167,0.155 -0.206,0.361 -0.052,0.193 -0.142,0.412 -0.206,0.502 -0.064,0.09 -0.116,0.618 -0.116,1.185 0,0.579 -0.052,1.043 -0.116,1.043 -0.064,0 -0.103,-0.219 -0.09,-0.476 0.026,-0.412 -0.013,-0.489 -0.219,-0.489 -0.142,0 -0.27,0.077 -0.296,0.167 -0.039,0.077 0.026,0.155 0.142,0.155 0.129,0 0.206,0.116 0.206,0.322 0,0.27 -0.064,0.322 -0.386,0.322 -0.206,0 -0.386,-0.052 -0.386,-0.103 0,-0.206 -1.159,-0.386 -1.713,-0.27 -0.644,0.142 -1.919,0.747 -2.06,0.979 -0.052,0.09 -0.18,0.167 -0.283,0.167 -0.09,0 -0.206,0.116 -0.258,0.245 -0.039,0.142 -0.155,0.283 -0.258,0.322 -0.103,0.039 -0.193,0.155 -0.193,0.27 0,0.103 -0.052,0.193 -0.103,0.193 -0.193,0 -0.541,0.76 -0.541,1.198 0,0.258 -0.052,0.476 -0.116,0.502 -0.077,0.026 -0.155,0.206 -0.193,0.412 -0.09,0.476 -0.103,0.489 -0.464,0.283 z m 0.464,-0.927 c -0.039,-0.116 -0.077,-0.27 -0.077,-0.361 0,-0.103 -0.116,-0.155 -0.309,-0.116 -0.219,0.052 -0.296,0.142 -0.27,0.335 0.039,0.373 0.013,0.348 0.399,0.348 0.258,0 0.322,-0.052 0.258,-0.206 z m -3.464,-1.301 c -0.052,-0.039 -0.129,-0.039 -0.18,0 -0.039,0.052 0,0.09 0.09,0.09 0.09,0 0.129,-0.039 0.09,-0.09 z m 10.727,-8.589 c 0,-0.103 0.064,-0.206 0.155,-0.232 0.09,-0.039 0.155,-0.283 0.142,-0.567 0,-0.785 -0.077,-1.095 -0.219,-0.953 -0.077,0.077 -0.18,0.077 -0.296,-0.013 -0.129,-0.116 -0.167,-0.013 -0.18,0.541 -0.013,0.592 -0.039,0.631 -0.116,0.309 -0.064,-0.258 -0.103,-0.296 -0.116,-0.129 -0.026,0.464 0.245,1.223 0.438,1.223 0.103,0 0.193,-0.077 0.193,-0.18 z m 0.257,-2.408 c 0,-0.077 0.09,-0.219 0.193,-0.322 0.103,-0.116 0.193,-0.373 0.193,-0.579 0,-0.348 -0.039,-0.373 -0.476,-0.373 -0.631,0 -0.94,0.296 -0.94,0.927 0,0.489 0,0.489 0.515,0.489 0.283,0 0.515,-0.064 0.515,-0.142 z"
       inkscape:connector-curvature="0"
       style="fill:#ffffff" />
    <path
       id="path6"
       d="M 8.328,25.988 C 7.723,25.949 7.079,25.846 6.886,25.769 6.706,25.692 6.229,25.614 5.83,25.602 5.444,25.589 5.135,25.512 5.148,25.447 5.161,25.37 4.981,25.292 4.736,25.267 4.234,25.228 3.307,24.842 3.307,24.688 c 0,-0.052 -0.09,-0.103 -0.193,-0.103 -0.103,0 -0.193,-0.052 -0.193,-0.129 0,-0.064 -0.142,-0.155 -0.322,-0.206 -0.18,-0.039 -0.322,-0.129 -0.322,-0.193 0,-0.064 -0.09,-0.116 -0.193,-0.116 -0.103,0 -0.193,-0.052 -0.193,-0.129 0,-0.064 -0.142,-0.155 -0.322,-0.206 -0.18,-0.039 -0.322,-0.155 -0.322,-0.258 0,-0.103 -0.129,-0.18 -0.296,-0.18 -0.206,0 -0.296,-0.077 -0.309,-0.258 -0.026,-0.27 0.142,-0.348 0.283,-0.129 0.039,0.077 0.425,0.129 0.837,0.129 0.412,0 0.798,0.064 0.837,0.129 0.039,0.077 0.451,0.129 0.914,0.129 0.463,0 0.824,-0.052 0.824,-0.129 0,-0.077 0.644,-0.129 1.674,-0.129 1.442,0 1.674,-0.026 1.79,-0.219 0.077,-0.129 0.142,-0.155 0.142,-0.077 0,0.116 0.09,0.129 0.335,0.039 0.18,-0.077 0.502,-0.129 0.708,-0.129 0.206,0 0.412,-0.077 0.451,-0.18 0.039,-0.103 0.167,-0.155 0.322,-0.116 0.129,0.039 0.386,-0.026 0.567,-0.142 0.167,-0.116 0.425,-0.206 0.579,-0.206 0.142,0 0.258,-0.052 0.258,-0.129 0,-0.064 0.155,-0.167 0.361,-0.206 0.399,-0.103 1.558,-0.682 1.803,-0.914 0.09,-0.09 0.258,-0.167 0.348,-0.167 0.103,0 0.232,-0.09 0.296,-0.206 0.103,-0.18 0.129,-0.18 0.193,-0.013 0.039,0.116 -0.013,0.232 -0.116,0.27 -0.103,0.038 -0.18,0.129 -0.18,0.206 0,0.077 0.116,0.026 0.27,-0.116 0.154,-0.142 0.232,-0.309 0.193,-0.386 -0.064,-0.09 -0.013,-0.103 0.129,-0.052 0.167,0.064 0.206,0.039 0.142,-0.116 -0.077,-0.219 0.27,-0.618 0.528,-0.618 0.09,0 0.155,-0.077 0.155,-0.18 0,-0.103 0.09,-0.206 0.193,-0.258 0.103,-0.039 0.193,-0.155 0.193,-0.258 0,-0.116 0.142,-0.232 0.322,-0.283 0.232,-0.052 0.322,-0.167 0.322,-0.386 0,-0.167 0.064,-0.309 0.129,-0.309 0.129,0 0.901,-1.519 0.901,-1.79 0,-0.348 0.515,-0.721 0.94,-0.67 0.695,0.064 0.953,0.695 0.489,1.185 -0.193,0.206 -0.373,0.258 -0.811,0.232 l -0.554,-0.039 0.039,0.76 c 0.013,0.425 0.103,0.901 0.18,1.056 0.103,0.219 0.09,0.399 -0.077,0.811 -0.258,0.644 -0.27,1.339 -0.026,1.545 0.103,0.077 0.206,0.309 0.232,0.489 0.052,0.489 0.399,0.399 1.082,-0.27 0.296,-0.296 0.618,-0.605 0.721,-0.682 0.296,-0.245 0.876,-0.94 0.876,-1.056 0,-0.064 0.219,-0.219 0.489,-0.361 0.258,-0.129 0.528,-0.322 0.579,-0.399 0.052,-0.09 0.219,-0.167 0.348,-0.167 0.155,0 0.27,-0.09 0.283,-0.219 0.026,-0.438 -0.052,-1.004 -0.167,-1.12 -0.18,-0.193 -0.142,-0.438 0.116,-0.695 0.193,-0.206 0.258,-0.206 0.644,-0.039 0.219,0.116 0.425,0.283 0.425,0.399 0.026,0.361 -0.039,0.708 -0.155,0.824 -0.064,0.077 -0.116,0.309 -0.116,0.541 0,0.219 -0.09,0.476 -0.193,0.567 -0.103,0.091 -0.193,0.258 -0.193,0.373 0,0.116 -0.09,0.322 -0.193,0.451 -0.103,0.142 -0.193,0.361 -0.193,0.489 0,0.128 -0.052,0.232 -0.129,0.232 -0.064,0 -0.129,0.116 -0.129,0.258 0,0.129 -0.167,0.425 -0.386,0.644 -0.206,0.219 -0.386,0.451 -0.386,0.515 0,0.206 -1.777,1.932 -1.996,1.932 -0.116,0 -0.232,0.09 -0.27,0.193 -0.052,0.103 -0.219,0.193 -0.386,0.193 -0.167,0 -0.309,0.064 -0.309,0.129 0,0.077 -0.09,0.129 -0.193,0.129 -0.116,0 -0.232,0.09 -0.27,0.193 -0.052,0.103 -0.18,0.193 -0.309,0.193 -0.129,0 -0.296,0.09 -0.386,0.193 -0.09,0.103 -0.361,0.193 -0.592,0.193 -0.245,0 -0.438,0.052 -0.438,0.116 0,0.064 -0.142,0.155 -0.322,0.193 -0.18,0.052 -0.322,0.129 -0.322,0.193 0,0.052 -0.335,0.116 -0.734,0.129 -0.425,0.013 -0.824,0.103 -0.94,0.206 -0.167,0.155 -1.262,0.27 -2.06,0.206 -0.103,-0.013 -0.631,0 -1.159,0.013 -0.528,0.026 -1.455,0 -2.06,-0.039 z m 5.55,-4.79 c -0.129,-0.116 -0.142,-0.103 -0.064,0.077 0.039,0.129 0.116,0.193 0.155,0.155 0.039,-0.038 0,-0.142 -0.09,-0.232 z"
       inkscape:connector-curvature="0"
       style="fill:#ffffff" />
    <path
       id="path8"
       d="m 18.063,20.889 c -0.103,-0.27 0.039,-1.301 0.193,-1.404 0.064,-0.039 0.116,-0.502 0.116,-1.03 0,-0.901 0.026,-0.992 0.386,-1.339 0.219,-0.219 0.425,-0.386 0.451,-0.386 0.18,0 0.579,-0.476 0.579,-0.682 0,-0.67 -0.914,-1.378 -1.777,-1.378 -0.155,0 -0.283,-0.052 -0.283,-0.129 0,-0.064 -0.142,-0.155 -0.322,-0.206 -0.232,-0.052 -0.322,-0.167 -0.322,-0.399 0,-0.309 0.039,-0.322 0.554,-0.258 0.618,0.077 1.584,0.322 1.919,0.489 0.129,0.064 0.425,0.116 0.657,0.116 0.232,0 0.528,0.077 0.67,0.18 0.142,0.09 0.438,0.206 0.644,0.245 0.824,0.167 1.61,0.412 1.61,0.502 0,0.064 0.232,0.103 0.502,0.103 0.695,0 1.21,0.502 0.708,0.695 -0.554,0.219 -1.854,-0.116 -1.854,-0.464 0,-0.052 -0.142,-0.103 -0.322,-0.103 -0.18,0 -0.322,0.077 -0.322,0.167 0,0.077 -0.18,0.348 -0.386,0.592 -0.438,0.489 -0.476,0.682 -0.193,0.914 0.103,0.09 0.193,0.361 0.193,0.592 0,0.309 -0.064,0.438 -0.193,0.438 -0.103,0 -0.193,0.064 -0.193,0.129 0,0.077 -0.116,0.129 -0.258,0.129 -0.142,0 -0.296,0.09 -0.335,0.193 -0.052,0.103 -0.129,0.193 -0.206,0.193 -0.167,0 -0.489,0.335 -0.489,0.502 0,0.077 -0.09,0.142 -0.193,0.142 -0.103,0 -0.193,0.064 -0.193,0.142 0,0.077 -0.232,0.373 -0.515,0.644 -0.283,0.283 -0.515,0.592 -0.515,0.695 0,0.258 -0.206,0.245 -0.309,-0.026 z m 2.421,-3.065 c 0.399,-0.605 -0.309,-1.365 -0.837,-0.889 -0.129,0.116 -0.245,0.296 -0.245,0.399 0,0.09 -0.064,0.167 -0.129,0.167 -0.206,0 0.245,0.618 0.489,0.682 0.322,0.064 0.502,-0.026 0.721,-0.361 z"
       inkscape:connector-curvature="0"
       style="fill:#ffffff" />
    <path
       id="path10"
       d="m 19.789,17.567 c 0,-0.116 0.064,-0.193 0.142,-0.167 0.078,0.026 0.142,0.103 0.142,0.167 0,0.064 -0.064,0.142 -0.142,0.167 -0.078,0.025 -0.142,-0.052 -0.142,-0.167 z"
       inkscape:connector-curvature="0"
       style="fill:#ffffff" />
    <path
       id="path12"
       d="m 12.578,19.511 c 0,-0.026 0.09,-0.09 0.206,-0.129 0.103,-0.039 0.155,-0.026 0.116,0.052 -0.077,0.129 -0.322,0.18 -0.322,0.077 z"
       inkscape:connector-curvature="0"
       style="fill:#ffffff" />
    <path
       id="path14"
       d="m 13.479,19.151 c -0.296,-0.399 -0.515,-0.464 -0.515,-0.167 0,0.232 -0.386,0.258 -0.399,0.039 0,-0.09 -0.013,-0.425 -0.026,-0.747 -0.013,-0.322 -0.09,-0.567 -0.155,-0.554 -0.077,0.013 -0.155,-0.335 -0.167,-0.811 -0.026,-0.451 -0.129,-0.992 -0.232,-1.185 -0.09,-0.193 -0.18,-0.425 -0.18,-0.502 0,-0.09 -0.052,-0.167 -0.129,-0.167 -0.064,0 -0.129,-0.077 -0.129,-0.18 0,-0.103 -0.09,-0.206 -0.193,-0.258 -0.103,-0.039 -0.193,-0.219 -0.193,-0.399 0,-0.18 -0.052,-0.322 -0.116,-0.322 -0.064,0 -0.167,-0.116 -0.206,-0.258 -0.039,-0.142 -0.232,-0.296 -0.412,-0.335 -0.283,-0.077 -0.296,-0.103 -0.103,-0.206 0.155,-0.09 0.193,-0.219 0.129,-0.451 -0.052,-0.232 -0.026,-0.296 0.077,-0.219 0.103,0.052 0.116,0.039 0.064,-0.052 C 10.542,12.3 10.349,12.261 10.143,12.3 9.911,12.352 9.718,12.3 9.576,12.171 9.473,12.055 9.177,11.965 8.945,11.965 8.559,11.965 8.507,11.913 8.353,11.45 8.237,11.077 8.237,10.858 8.327,10.677 8.391,10.548 8.456,10.149 8.456,9.788 c 0,-0.361 0.064,-0.657 0.129,-0.657 0.077,0 0.129,-0.232 0.129,-0.515 0,-0.502 0.077,-0.579 0.489,-0.528 0.27,0.039 0.541,-0.335 0.541,-0.773 0,-0.412 0.438,-1.275 0.657,-1.275 0.064,0 0.116,-0.116 0.116,-0.258 0,-0.335 0.348,-1.03 0.515,-1.03 0.077,0 0.129,-0.077 0.129,-0.18 0,-0.09 0.09,-0.245 0.193,-0.335 0.116,-0.09 0.18,-0.245 0.142,-0.348 -0.039,-0.09 0.013,-0.167 0.116,-0.167 0.103,0 0.193,-0.052 0.193,-0.129 0,-0.064 -0.077,-0.129 -0.155,-0.129 -0.09,0 -0.026,-0.09 0.142,-0.206 C 11.96,3.142 12.165,2.846 12.268,2.614 12.435,2.228 12.423,2.138 12.191,1.713 11.869,1.159 11.959,0.979 12.333,1.391 12.668,1.752 12.887,1.687 12.938,1.224 12.964,0.979 12.886,0.773 12.719,0.619 12.449,0.361 12.358,0.168 12.564,0.297 c 0.064,0.039 0.18,-0.013 0.27,-0.116 0.193,-0.232 0.889,-0.245 1.172,-0.026 0.116,0.09 0.245,0.283 0.296,0.451 0.064,0.193 0.193,0.283 0.399,0.283 0.167,0 0.348,0.052 0.386,0.129 0.052,0.077 -0.013,0.09 -0.155,0.039 -0.155,-0.052 -0.103,0.039 0.129,0.258 0.335,0.322 0.451,0.348 1.545,0.373 1.095,0.013 1.12,0.026 0.412,0.09 l -0.773,0.077 0.631,0.103 c 0.348,0.052 0.927,0.09 1.288,0.103 0.489,0 0.592,0.039 0.399,0.116 -0.232,0.103 -0.219,0.116 0.103,0.116 0.193,0.013 0.464,-0.052 0.605,-0.142 0.245,-0.155 0.335,-0.142 1.326,0.361 0.206,0.103 0.476,0.18 0.618,0.18 0.142,0 0.348,0.052 0.476,0.116 0.116,0.077 0.451,0.167 0.734,0.206 0.412,0.077 0.464,0.116 0.283,0.206 -0.129,0.077 -0.219,0.283 -0.219,0.502 0,0.245 -0.064,0.373 -0.155,0.348 -0.103,-0.013 -0.18,0.155 -0.206,0.425 -0.026,0.245 -0.103,0.502 -0.167,0.579 -0.064,0.064 -0.116,0.322 -0.116,0.579 0,0.708 -0.129,0.798 -1.056,0.785 -0.734,-0.013 -0.876,0.026 -1.236,0.348 -0.219,0.193 -0.425,0.502 -0.476,0.682 -0.09,0.386 -0.592,0.708 -0.901,0.579 -0.116,-0.039 -0.18,-0.026 -0.129,0.039 0.039,0.064 0,0.193 -0.09,0.296 -0.464,0.476 -0.734,1.764 -0.399,1.867 0.064,0.026 0.103,0.399 0.09,0.85 -0.026,0.785 -0.026,0.785 0.064,0.155 0.064,-0.464 0.116,-0.579 0.193,-0.425 0.103,0.232 0.052,0.837 -0.129,1.584 -0.103,0.489 -0.412,0.837 -0.708,0.837 -0.502,0 -0.657,0.837 -0.232,1.21 0.232,0.193 0.27,0.335 0.206,0.889 -0.026,0.361 -0.129,0.682 -0.206,0.708 -0.077,0.026 -0.142,0.18 -0.142,0.348 0,0.155 -0.09,0.361 -0.193,0.451 -0.103,0.09 -0.193,0.245 -0.193,0.348 0,0.193 -0.09,0.322 -0.67,0.953 -0.206,0.206 -0.361,0.412 -0.361,0.451 0,0.219 -0.773,0.798 -1.12,0.85 -0.335,0.052 -0.464,-0.013 -0.682,-0.309 z m -2.614,-6.503 c -0.052,-0.039 -0.129,-0.039 -0.18,0 -0.039,0.052 0,0.09 0.09,0.09 0.09,0 0.129,-0.039 0.09,-0.09 z m 1.326,-4.893 c 0.335,-0.283 0.386,-0.425 0.386,-0.966 0,-0.528 0.064,-0.695 0.373,-1.017 0.206,-0.206 0.464,-0.373 0.567,-0.373 0.412,0 1.378,-0.631 1.378,-0.889 0,-0.245 0.979,-0.167 1.172,0.09 0.167,0.193 0.155,0.206 -0.052,0.039 -0.116,-0.103 -0.258,-0.142 -0.296,-0.103 -0.052,0.039 0.129,0.18 0.373,0.296 0.451,0.219 0.476,0.219 1.236,-0.155 0.438,-0.206 0.785,-0.451 0.785,-0.541 0,-0.09 0.052,-0.142 0.103,-0.103 0.193,0.116 0.541,-0.438 0.541,-0.876 0,-0.386 -0.052,-0.451 -0.386,-0.528 C 18.165,2.577 17.985,2.5 17.985,2.436 17.985,2.372 17.599,2.333 17.122,2.359 16.44,2.372 16.182,2.333 15.937,2.153 15.77,2.024 15.499,1.921 15.332,1.921 c -0.167,0 -0.309,-0.052 -0.309,-0.129 0,-0.064 -0.167,-0.129 -0.386,-0.129 -0.361,0 -0.464,0.142 -0.399,0.554 0.013,0.064 -0.039,0.077 -0.103,0.026 -0.167,-0.09 -0.927,0.219 -1.21,0.502 -0.116,0.129 -0.219,0.386 -0.219,0.592 0,0.206 -0.052,0.399 -0.116,0.438 C 12.526,3.827 12.5,3.723 12.538,3.582 12.59,3.376 12.564,3.324 12.435,3.363 12.332,3.389 12.229,3.556 12.216,3.711 12.19,3.878 12.01,4.162 11.83,4.355 c -0.193,0.18 -0.579,0.798 -0.863,1.365 -0.284,0.567 -0.592,1.107 -0.67,1.198 -0.232,0.232 -0.206,0.541 0.026,0.541 0.103,0 0.193,0.064 0.193,0.142 0,0.258 0.425,0.489 0.876,0.502 0.27,0 0.541,-0.116 0.798,-0.348 z m 3.438,-2.061 c -0.052,-0.039 -0.129,-0.039 -0.18,0 -0.039,0.052 0,0.09 0.09,0.09 0.09,0 0.129,-0.039 0.09,-0.09 z M 15.616,5.282 c 0,-0.142 -0.052,-0.219 -0.103,-0.193 -0.052,0.039 -0.103,0.155 -0.103,0.258 0,0.103 0.052,0.18 0.103,0.18 0.052,0 0.103,-0.116 0.103,-0.245 z M 13.994,1.471 c 0,-0.258 -0.322,-0.245 -0.567,0.013 -0.232,0.219 -0.27,0.361 -0.077,0.245 0.077,-0.039 0.129,-0.013 0.129,0.064 0,0.103 0.077,0.103 0.258,0 0.142,-0.077 0.258,-0.219 0.258,-0.322 z"
       inkscape:connector-curvature="0"
       style="fill:#ffffff" />
    <path
       id="path16"
       d="m 24.141,16.511 c 0.09,-0.039 0.206,-0.026 0.245,0.013 0.052,0.039 -0.026,0.077 -0.167,0.064 -0.142,0 -0.18,-0.039 -0.077,-0.077 z"
       inkscape:connector-curvature="0"
       style="fill:#ffffff" />
    <path
       id="path18"
       d="m 25.197,15.893 c 0,-0.103 -0.052,-0.193 -0.129,-0.193 -0.064,0 -0.129,-0.129 -0.129,-0.283 0,-0.167 -0.09,-0.412 -0.193,-0.541 -0.309,-0.412 -0.245,-1.043 0.167,-1.481 0.193,-0.206 0.412,-0.464 0.502,-0.554 0.27,-0.296 0.605,-0.554 0.747,-0.567 0.064,-0.013 0.206,-0.026 0.309,-0.039 0.09,0 0.142,-0.09 0.103,-0.193 -0.039,-0.09 -0.013,-0.232 0.039,-0.283 0.077,-0.077 0.039,-0.258 -0.064,-0.438 -0.103,-0.18 -0.232,-0.425 -0.27,-0.541 -0.052,-0.142 -0.219,-0.232 -0.386,-0.232 -0.167,0 -0.309,-0.064 -0.309,-0.142 0,-0.09 -0.116,-0.116 -0.283,-0.077 -0.193,0.052 -0.386,-0.013 -0.579,-0.193 -0.232,-0.219 -0.335,-0.245 -0.451,-0.129 -0.18,0.18 -0.785,0.206 -1.107,0.039 C 22.688,9.801 21.941,9.634 21.078,9.557 20.576,9.518 20.138,9.428 20.086,9.351 20.047,9.287 20.241,9.248 20.601,9.274 20.923,9.3 21.155,9.274 21.116,9.222 21.077,9.17 20.704,9.132 20.266,9.145 19.764,9.171 19.468,9.119 19.429,9.029 19.403,8.939 19.12,8.874 18.747,8.874 c -0.451,0 -0.631,-0.052 -0.631,-0.18 0,-0.116 0.129,-0.167 0.399,-0.155 0.219,0.013 0.489,-0.052 0.592,-0.155 0.167,-0.167 0.206,-0.167 0.322,-0.013 0.09,0.129 0.103,0.013 0.052,-0.373 -0.052,-0.373 -0.039,-0.528 0.052,-0.476 0.064,0.039 0.129,-0.013 0.129,-0.116 0,-0.142 0.116,-0.206 0.361,-0.206 0.193,0 0.425,-0.064 0.489,-0.129 0.206,-0.206 0.528,-0.026 0.618,0.335 0.116,0.425 0.489,0.399 0.94,-0.09 0.193,-0.232 0.464,-0.515 0.592,-0.644 0.27,-0.296 0.773,-0.322 1.043,-0.039 0.116,0.116 0.206,0.412 0.206,0.708 0,0.451 0.039,0.502 0.322,0.502 0.206,0 0.322,-0.077 0.322,-0.193 0,-0.155 0.167,-0.193 0.721,-0.193 0.399,0 0.682,0.052 0.631,0.116 -0.039,0.064 0.039,0.142 0.155,0.167 0.18,0.039 0.232,0.167 0.232,0.682 0,0.605 0.026,0.644 0.361,0.682 0.193,0.026 0.348,-0.013 0.348,-0.09 0,-0.077 0.129,-0.142 0.296,-0.142 0.348,0.013 0.734,0.76 0.734,1.429 0,0.464 -0.489,1.172 -0.889,1.301 -0.103,0.026 -0.193,0.18 -0.206,0.335 -0.013,0.232 0.052,0.283 0.348,0.283 0.361,0 0.361,0.013 0.361,0.747 -0.013,0.528 -0.077,0.811 -0.245,1.03 -0.258,0.283 -0.785,0.399 -0.785,0.142 0,-0.077 -0.206,-0.116 -0.476,-0.09 -0.399,0.026 -0.502,0.09 -0.528,0.335 -0.026,0.155 0,0.283 0.064,0.27 0.425,-0.077 0.554,0.039 0.554,0.464 0,0.245 -0.103,0.567 -0.219,0.708 -0.27,0.309 -0.811,0.348 -0.811,0.064 z"
       inkscape:connector-curvature="0"
       style="fill:#ffffff" />
    <path
       id="path20"
       d="m 23.587,14.798 c -0.039,-0.064 -0.245,-0.129 -0.438,-0.129 -0.206,0 -0.541,-0.09 -0.734,-0.193 -0.206,-0.103 -0.502,-0.193 -0.657,-0.193 -0.155,0 -0.322,-0.052 -0.361,-0.129 -0.039,-0.064 -0.27,-0.129 -0.502,-0.129 -0.232,0 -0.528,-0.09 -0.67,-0.193 -0.129,-0.103 -0.412,-0.193 -0.631,-0.193 -0.206,0 -0.502,-0.09 -0.631,-0.193 -0.142,-0.103 -0.412,-0.193 -0.618,-0.193 -0.296,0 -0.361,-0.052 -0.361,-0.309 0,-0.167 0.09,-0.335 0.193,-0.373 0.129,-0.052 0.193,-0.322 0.219,-0.889 0.026,-0.644 0.077,-0.798 0.232,-0.76 0.103,0.026 0.386,0.052 0.618,0.039 0.219,0 0.451,0.052 0.489,0.116 0.038,0.064 0.348,0.116 0.682,0.116 0.399,0 0.682,0.064 0.785,0.193 0.103,0.116 0.386,0.193 0.721,0.193 0.309,0 0.567,0.052 0.567,0.116 0,0.064 0.232,0.155 0.515,0.206 0.283,0.052 0.541,0.142 0.592,0.206 0.039,0.064 0.258,0.116 0.489,0.116 0.554,0 0.979,0.425 0.747,0.747 -0.09,0.116 -0.193,0.322 -0.232,0.451 -0.052,0.116 -0.129,0.219 -0.18,0.219 -0.051,0 -0.129,0.296 -0.18,0.644 -0.064,0.515 -0.129,0.644 -0.335,0.644 -0.129,0 -0.283,-0.052 -0.322,-0.129 z m -4.829,-3.077 c 0,-0.142 -0.052,-0.283 -0.116,-0.322 -0.064,-0.039 -0.103,0.064 -0.09,0.245 0.013,0.373 0.206,0.438 0.206,0.077 z"
       inkscape:connector-curvature="0"
       style="fill:#ffffff" />
    <path
       id="path22"
       d="m 24.811,12.107 c -0.348,-0.193 -1.082,-0.425 -1.519,-0.489 -0.232,-0.039 -0.451,-0.116 -0.489,-0.18 -0.038,-0.064 -0.193,-0.116 -0.348,-0.116 -0.167,0 -0.399,-0.077 -0.541,-0.18 -0.142,-0.09 -0.399,-0.206 -0.579,-0.245 -0.18,-0.039 -0.657,-0.155 -1.056,-0.258 -0.412,-0.103 -0.785,-0.142 -0.824,-0.103 -0.052,0.039 -0.052,0.013 -0.013,-0.064 0.064,-0.103 -0.142,-0.18 -0.605,-0.232 -0.695,-0.09 -0.914,-0.27 -0.734,-0.579 0.116,-0.193 1.532,-0.167 1.648,0.026 0.039,0.077 0.013,0.09 -0.064,0.039 -0.09,-0.052 -0.155,-0.039 -0.155,0.013 0,0.064 0.335,0.129 0.734,0.142 0.412,0.013 0.798,0.09 0.863,0.155 0.077,0.077 0.309,0.129 0.528,0.129 0.219,0 0.515,0.09 0.657,0.193 0.129,0.103 0.476,0.193 0.76,0.193 0.284,0 0.657,0.09 0.837,0.193 0.18,0.103 0.67,0.18 1.133,0.193 0.438,0 0.798,0.052 0.798,0.129 0,0.077 0.077,0.129 0.18,0.129 0.103,0 0.232,0.064 0.27,0.142 0.103,0.155 -0.296,0.631 -0.541,0.631 -0.09,0 -0.167,0.064 -0.167,0.129 0,0.155 -0.502,0.155 -0.773,0.013 z"
       inkscape:connector-curvature="0"
       style="fill:#ffffff" />
    <path
       id="path24"
       d="m 26.227,12.094 c 0,-0.09 0.039,-0.129 0.09,-0.09 0.039,0.052 0.039,0.129 0,0.18 -0.052,0.039 -0.09,0 -0.09,-0.09 z"
       inkscape:connector-curvature="0"
       style="fill:#ffffff" />
    <path
       id="path26"
       d="M 5.366,11.077 C 5.07,11 5.044,10.922 5.005,10.098 4.992,9.596 5.018,8.965 5.082,8.682 5.172,8.218 5.224,8.167 5.558,8.193 5.777,8.219 5.957,8.283 5.983,8.36 6.047,8.54 7.206,8.527 7.399,8.334 7.476,8.257 7.592,8.218 7.644,8.27 7.786,8.425 7.824,9.777 7.683,10.008 7.593,10.175 7.567,10.098 7.619,9.712 7.658,9.364 7.632,9.261 7.555,9.403 7.491,9.506 7.426,9.957 7.413,10.395 c -0.026,0.554 -0.077,0.76 -0.167,0.67 -0.167,-0.167 -1.236,-0.167 -1.236,0 0,0.142 -0.167,0.142 -0.644,0.013 z"
       inkscape:connector-curvature="0"
       style="fill:#ffffff" />
    <path
       id="path28"
       d="m 22.763,3.518 c 0,-0.142 0.039,-0.18 0.077,-0.077 0.039,0.09 0.026,0.206 -0.013,0.245 C 22.788,3.738 22.75,3.66 22.763,3.519 Z"
       inkscape:connector-curvature="0"
       style="fill:#ffffff" />
    <path
       id="path30"
       d="m 12.191,0.762 c 0,-0.09 0.039,-0.129 0.09,-0.09 0.039,0.052 0.039,0.129 0,0.18 -0.052,0.039 -0.09,0 -0.09,-0.09 z"
       inkscape:connector-curvature="0"
       style="fill:#ffffff" />
  </g>
</svg>
