<?xml version="1.0" encoding="UTF-8" standalone="no"?>
<!-- Created with Inkscape (http://www.inkscape.org/) -->

<svg
   xmlns:dc="http://purl.org/dc/elements/1.1/"
   xmlns:cc="http://creativecommons.org/ns#"
   xmlns:rdf="http://www.w3.org/1999/02/22-rdf-syntax-ns#"
   xmlns:svg="http://www.w3.org/2000/svg"
   xmlns="http://www.w3.org/2000/svg"
   xmlns:sodipodi="http://sodipodi.sourceforge.net/DTD/sodipodi-0.dtd"
   xmlns:inkscape="http://www.inkscape.org/namespaces/inkscape"
   width="215"
   height="215"
   viewBox="0 0 56.88541 56.885421"
   version="1.1"
   id="svg8"
   sodipodi:docname="ghyran.svg"
   inkscape:version="0.92.3 (2405546, 2018-03-11)">
  <defs
     id="defs2" />
  <sodipodi:namedview
     id="base"
     pagecolor="#ffffff"
     bordercolor="#666666"
     borderopacity="1.0"
     inkscape:pageopacity="0.0"
     inkscape:pageshadow="2"
     inkscape:zoom="0.49497476"
     inkscape:cx="-498.24806"
     inkscape:cy="156.32827"
     inkscape:document-units="px"
     inkscape:current-layer="layer1"
     showgrid="false"
     units="px"
     inkscape:pagecheckerboard="false"
     fit-margin-top="0"
     fit-margin-left="0"
     fit-margin-right="0"
     fit-margin-bottom="0"
     inkscape:window-width="1920"
     inkscape:window-height="1017"
     inkscape:window-x="-8"
     inkscape:window-y="-8"
     inkscape:window-maximized="1"
     inkscape:snap-global="true" />
  <metadata
     id="metadata5">
    <rdf:RDF>
      <cc:Work
         rdf:about="">
        <dc:format>image/svg+xml</dc:format>
        <dc:type
           rdf:resource="http://purl.org/dc/dcmitype/StillImage" />
        <dc:title></dc:title>
      </cc:Work>
    </rdf:RDF>
  </metadata>
  <g
     inkscape:label="Layer 1"
     inkscape:groupmode="layer"
     id="layer1"
     transform="translate(80.047792,-95.739101)">
    <path
       style="opacity:1;fill:#fffff0;fill-opacity:1;stroke:none;stroke-width:0.29479384;stroke-linecap:butt;stroke-linejoin:miter;stroke-miterlimit:4;stroke-dasharray:1.17917541, 0.29479387000000001;stroke-dashoffset:0;stroke-opacity:1;paint-order:markers fill stroke"
       d="m -61.008041,105.14311 c -10.515087,-3.3e-4 -19.039505,8.52361 -19.039751,19.0387 1.76e-4,10.5151 8.524664,19.03904 19.039751,19.0387 10.514678,-1.8e-4 19.038447,-8.52402 19.038696,-19.0387 -0.0019,-0.68025 -0.04019,-1.35991 -0.114811,-2.03606 2.074394,-0.37453 3.315945,-0.78551 5.303449,-0.51296 5.323848,0.73005 7.285792,2.92823 7.285792,2.92823 l 6.332538,-6.46948 c 0,0 -0.530986,-0.22573 -1.633694,-0.20322 -1.102708,0.0223 -2.976629,0.69668 -4.903189,0.81632 -1.926558,0.11962 -3.720356,-0.26768 -6.605348,-0.27175 -1.464945,-0.002 -4.157333,0.10115 -6.493697,0.20539 -2.439599,-8.01488 -9.831773,-13.49318 -18.209736,-13.49509 z m 0,3.27371 c 6.627872,0.006 12.544358,4.15648 14.805417,10.38675 -0.983188,0.35391 -1.339088,0.58371 -1.7464,0.85425 -0.367655,0.1606 -1.103262,0.30524 -1.988661,0.43396 -1.710995,-4.63727 -6.127517,-7.71959 -11.070356,-7.72608 -6.526197,-4.2e-4 -11.816992,5.2899 -11.817158,11.81611 1.66e-4,6.5262 5.290961,11.81652 11.817158,11.8161 6.525787,-1.6e-4 11.815938,-5.2903 11.816105,-11.8161 -0.0028,-0.32744 -0.01937,-0.65458 -0.04952,-0.98065 1.473381,-0.22239 2.739468,-0.40753 3.905698,-0.573 0.05646,0.51606 0.08741,1.03457 0.09268,1.55365 8.5e-5,8.7068 -7.058191,15.76507 -15.764985,15.76498 -8.706795,9e-5 -15.765074,-7.05818 -15.764988,-15.76498 -8.6e-5,-8.70679 7.058193,-15.76507 15.764988,-15.76499 z m 0,7.02983 c 3.37339,0.004 6.4428,1.95061 7.885127,5.00009 -1.718975,0.15145 -3.049657,0.23312 -3.67081,0.2686 -1.036163,-1.26109 -2.582142,-1.99254 -4.214317,-1.99393 -3.01569,0 -5.460393,2.44471 -5.460393,5.4604 0,3.01569 2.444703,5.4604 5.460393,5.4604 3.01528,-3.5e-4 5.459336,-2.44512 5.459336,-5.4604 -3.52e-4,-0.003 -5.59e-4,-0.009 -0.0011,-0.0123 0.420749,-0.0658 1.681456,-0.26067 3.256853,-0.50348 0.01143,0.17185 0.01773,0.34392 0.01896,0.51611 2.46e-4,4.82399 -3.910117,8.73482 -8.734101,8.73515 -4.824401,1.8e-4 -8.735405,-3.91076 -8.735157,-8.73515 -1.76e-4,-4.8244 3.910756,-8.73541 8.735157,-8.73516 z m 0,5.8754 c 1.579297,2.5e-4 2.859503,1.28046 2.859752,2.85976 3.34e-4,1.57972 -1.280045,2.86056 -2.859752,2.86081 -1.58012,3.5e-4 -2.861143,-1.28069 -2.860808,-2.86081 2.46e-4,-1.57971 1.281102,-2.86009 2.860808,-2.85976 z"
       id="ellipse870"
       inkscape:connector-curvature="0"
       sodipodi:nodetypes="cccccscccccccccccccccccccccccccsccccccccccccccc" />
  </g>
</svg>
