<?xml version="1.0" encoding="UTF-8" standalone="no"?>
<svg
   xmlns:dc="http://purl.org/dc/elements/1.1/"
   xmlns:cc="http://creativecommons.org/ns#"
   xmlns:rdf="http://www.w3.org/1999/02/22-rdf-syntax-ns#"
   xmlns:svg="http://www.w3.org/2000/svg"
   xmlns="http://www.w3.org/2000/svg"
   xmlns:sodipodi="http://sodipodi.sourceforge.net/DTD/sodipodi-0.dtd"
   xmlns:inkscape="http://www.inkscape.org/namespaces/inkscape"
   width="215"
   height="215"
   viewBox="0 0 56.885415 56.885418"
   version="1.1"
   id="svg8"
   inkscape:version="1.0.2-2 (e86c870879, 2021-01-15)"
   sodipodi:docname="settlers_gain.svg">
  <defs
     id="defs2">
    <pattern
       id="EMFhbasepattern"
       patternUnits="userSpaceOnUse"
       width="6"
       height="6"
       x="0"
       y="0" />
  </defs>
  <sodipodi:namedview
     id="base"
     pagecolor="#ffffff"
     bordercolor="#666666"
     borderopacity="1.0"
     inkscape:pageopacity="0.0"
     inkscape:pageshadow="2"
     inkscape:zoom="0.78385677"
     inkscape:cx="348.25616"
     inkscape:cy="401.53125"
     inkscape:document-units="px"
     inkscape:current-layer="layer1"
     inkscape:document-rotation="0"
     showgrid="false"
     units="px"
     inkscape:window-width="1920"
     inkscape:window-height="1017"
     inkscape:window-x="-8"
     inkscape:window-y="-8"
     inkscape:window-maximized="1" />
  <metadata
     id="metadata5">
    <rdf:RDF>
      <cc:Work
         rdf:about="">
        <dc:format>image/svg+xml</dc:format>
        <dc:type
           rdf:resource="http://purl.org/dc/dcmitype/StillImage" />
        <dc:title></dc:title>
      </cc:Work>
    </rdf:RDF>
  </metadata>
  <g
     inkscape:label="Layer 1"
     inkscape:groupmode="layer"
     id="layer1"
     transform="translate(0,-240.11457)">
    <path
       style="fill:#000000;stroke-width:0.178521"
       d="m 33.757193,296.89999 c -0.75016,-0.32485 -0.58072,-0.50063 0.57172,-0.59314 1.90219,-0.15269 3.29067,-1.35364 3.29218,-2.84752 10e-4,-1.44696 -0.73823,-2.10753 -2.35587,-2.1039 -0.7567,0.002 -1.16053,0.12749 -2.01723,0.62832 -2.81435,1.64525 -6.0115,2.69331 -7.58401,2.4861 -1.65827,-0.21851 -3.68042,-0.66576 -4.19839,-0.92859 -0.62693,-0.31811 -2.93812,-1.94787 -3.8382,-2.70656 l -0.62483,-0.52666 -0.0893,-9.87623 -0.0893,-9.87622 0.67912,-3.3919 c 0.37351,-1.86556 0.72846,-3.55258 0.78877,-3.74896 0.0679,-0.2212 0.37353,0.79757 0.80326,2.67782 0.69215,3.02842 0.69358,3.04274 0.67383,6.74087 -0.0174,3.26722 0.0145,3.71917 0.27019,3.81727 0.1595,0.0612 0.36274,0.0386 0.45166,-0.0504 0.0893,-0.0893 0.17461,-2.99487 0.19061,-6.49509 0.0249,-5.44655 -0.0119,-6.45305 -0.26293,-7.18765 -0.39973,-1.16988 -0.36748,-1.65903 0.15443,-2.3433 0.46066,-0.60395 0.59518,-1.62321 0.29227,-2.21449 -0.1006,-0.19638 -0.006,-0.7651 0.27307,-1.63958 0.2349,-0.73641 0.59072,-2.1409 0.79072,-3.12111 0.19999,-0.98021 0.38322,-1.8018 0.40719,-1.82576 0.024,-0.024 0.18553,0.69701 0.35904,1.60216 0.17352,0.90515 0.53789,2.33731 0.80971,3.18257 0.43499,1.35268 0.46393,1.57747 0.24143,1.87598 -0.32588,0.43723 -0.16279,1.56673 0.31369,2.17248 0.47243,0.6006 0.46947,1.91184 -0.006,2.6297 -0.32877,0.49641 -0.35478,0.84475 -0.35587,4.76491 -6.4e-4,2.32614 0.0694,4.27297 0.15569,4.32629 0.0863,0.0533 0.44777,-0.27646 0.80334,-0.73284 l 0.64649,-0.8298 0.004,-3.22871 c 0.003,-2.3796 0.0802,-3.53389 0.29457,-4.38911 0.33118,-1.32128 0.47855,-5.85086 0.20157,-6.19532 -0.095,-0.11817 -0.28077,-0.57371 -0.41277,-1.01231 -0.20537,-0.68237 -0.20321,-0.81157 0.015,-0.89529 0.33568,-0.12882 0.32725,-0.62809 -0.0128,-0.75858 -0.30849,-0.11838 -0.36699,-0.77864 -0.069,-0.77864 0.13352,0 0.16043,-0.25583 0.0819,-0.77921 -0.0817,-0.54447 -0.006,-1.17634 0.25067,-2.09762 0.20214,-0.72513 0.56572,-2.48328 0.80796,-3.90698 0.37173,-2.18475 1.10077,-6.30437 1.16893,-6.60529 0.0228,-0.10071 0.45276,2.23396 1.11779,6.06972 0.24684,1.42371 0.62341,3.27141 0.83684,4.106 0.24377,0.95328 0.34897,1.76231 0.28294,2.1761 -0.0587,0.36775 -0.0261,0.70752 0.0738,0.76926 0.2739,0.16927 0.21263,0.80184 -0.0889,0.91754 -0.34316,0.13169 -0.3451,0.53911 -0.003,0.73029 0.21732,0.12162 0.22989,0.2739 0.0707,0.85684 -0.10647,0.38992 -0.28472,0.82058 -0.39609,0.95702 -0.26424,0.3237 -0.1612,5.1437 0.12063,5.64313 0.12506,0.22161 0.23663,1.91735 0.29413,4.47081 l 0.0926,4.11376 0.59519,0.75094 c 0.32736,0.41301 0.66878,0.75094 0.75872,0.75094 0.0947,0 0.16351,-1.88894 0.16351,-4.48659 0,-4.22225 -0.0217,-4.52175 -0.36869,-5.08314 -0.29606,-0.47905 -0.34475,-0.75614 -0.24719,-1.40671 0.0668,-0.44558 0.2729,-1.00263 0.45795,-1.23789 0.37311,-0.47433 0.45687,-1.69703 0.1381,-2.0158 -0.14546,-0.14546 -0.0982,-0.50012 0.17736,-1.32998 0.45539,-1.37158 1.08294,-4.16028 1.08826,-4.83594 0.008,-0.97632 0.287,-0.45973 0.50683,0.93738 0.12361,0.78558 0.45658,2.20811 0.73993,3.1612 0.35718,1.20136 0.4646,1.82741 0.35024,2.0411 -0.30471,0.56934 -0.19306,1.67911 0.20517,2.03951 0.33237,0.30079 0.35819,0.46303 0.25294,1.58974 -0.0645,0.69011 -0.13061,4.26729 -0.14699,7.9493 -0.0293,6.58546 -0.024,6.69454 0.32726,6.69454 0.34441,0 0.35714,-0.11999 0.35998,-3.3919 0.003,-3.26856 0.0288,-3.51362 0.71313,-6.73918 0.3906,-1.841 0.75277,-3.34727 0.80481,-3.34727 0.0521,0 0.24413,0.70293 0.42687,1.56206 0.18274,0.85913 0.49866,2.24491 0.70204,3.0795 0.35039,1.43791 0.37017,2.02767 0.37742,11.25468 l 0.008,9.73726 0.66155,0.77376 c 1.07985,1.26301 1.25187,2.74804 0.56509,4.87831 -0.29871,0.92656 -1.27922,1.87702 -2.43421,2.3596 -0.79699,0.33301 -2.94261,0.51058 -3.46034,0.28639 z m -5.04119,-4.81496 c 1.2939,-0.33093 3.58629,-1.55548 5.51386,-2.94538 0.93707,-0.6757 1.78128,-0.99972 2.60466,-0.99972 0.32321,0 0.62663,-0.0631 0.67429,-0.1402 0.0477,-0.0771 -1.07656,-1.74405 -2.49826,-3.70432 -1.4217,-1.96026 -3.63773,-5.11387 -4.92451,-7.00802 -1.28679,-1.89415 -2.3949,-3.38034 -2.46248,-3.30264 -0.37362,0.42951 -5.53178,8.09577 -5.80057,8.62102 -0.17586,0.34365 -0.63246,1.08674 -1.01468,1.65132 -0.38221,0.56457 -0.65531,1.0265 -0.60688,1.0265 0.0484,0 0.51335,-0.25297 1.03315,-0.56214 1.1839,-0.70418 2.77263,-1.34409 4.14402,-1.66912 1.42722,-0.33828 3.56642,-0.0832 4.92082,0.58668 1.33722,0.66142 4.20579,3.39245 3.89244,3.70581 -0.0368,0.0368 -0.42491,-0.17056 -0.86244,-0.46083 -1.01922,-0.67616 -1.54838,-0.68748 -1.79178,-0.0383 -0.66148,1.76415 -2.12563,2.72245 -4.15954,2.72245 -1.82471,0 -3.14187,-0.74071 -4.04759,-2.27615 -0.19181,-0.32516 -0.48873,-0.58019 -0.67551,-0.58019 -0.46273,0 -1.41278,0.67841 -2.03764,1.45501 -0.52105,0.6476 -0.52244,0.65561 -0.22313,1.28636 0.28266,0.59567 1.18784,1.44717 2.2502,2.11675 1.37651,0.86758 3.86728,1.07891 6.07157,0.51515 z m 0.43081,-4.1266 c 0.64209,-0.39683 1.51262,-1.66797 1.51262,-2.20871 0,-0.42872 -1.18784,-0.91819 -1.53302,-0.63171 -0.13871,0.11511 -0.25219,0.39315 -0.25219,0.61787 0,0.39069 -0.89709,1.33292 -1.26908,1.33292 -0.0938,0 -0.44966,-0.11662 -0.79078,-0.25915 -0.64059,-0.26766 -0.975,-0.82956 -0.975,-1.63826 0,-0.39486 -0.0659,-0.43958 -0.57462,-0.39005 -0.40056,0.039 -0.65387,0.19781 -0.83623,0.52429 -0.23336,0.41779 -0.22767,0.55718 0.0527,1.29135 0.42659,1.11701 0.80639,1.54283 1.54096,1.72773 0.95292,0.23985 2.42265,0.0676 3.12463,-0.36628 z"
       id="path846" />
  </g>
</svg>
