<?xml version="1.0" encoding="UTF-8" standalone="no"?>
<!-- Created with Inkscape (http://www.inkscape.org/) -->

<svg
   xmlns:dc="http://purl.org/dc/elements/1.1/"
   xmlns:cc="http://creativecommons.org/ns#"
   xmlns:rdf="http://www.w3.org/1999/02/22-rdf-syntax-ns#"
   xmlns:svg="http://www.w3.org/2000/svg"
   xmlns="http://www.w3.org/2000/svg"
   xmlns:sodipodi="http://sodipodi.sourceforge.net/DTD/sodipodi-0.dtd"
   xmlns:inkscape="http://www.inkscape.org/namespaces/inkscape"
   width="215"
   height="215"
   viewBox="0 0 56.885415 56.885418"
   version="1.1"
   id="svg8"
   inkscape:version="0.92.3 (2405546, 2018-03-11)"
   sodipodi:docname="tempests_eye.svg">
  <defs
     id="defs2" />
  <sodipodi:namedview
     id="base"
     pagecolor="#ffffff"
     bordercolor="#666666"
     borderopacity="1.0"
     inkscape:pageopacity="0.0"
     inkscape:pageshadow="2"
     inkscape:zoom="1.979899"
     inkscape:cx="190.66358"
     inkscape:cy="212.90428"
     inkscape:document-units="px"
     inkscape:current-layer="layer1"
     showgrid="false"
     units="px"
     inkscape:window-width="1920"
     inkscape:window-height="1017"
     inkscape:window-x="-8"
     inkscape:window-y="-8"
     inkscape:window-maximized="1" />
  <metadata
     id="metadata5">
    <rdf:RDF>
      <cc:Work
         rdf:about="">
        <dc:format>image/svg+xml</dc:format>
        <dc:type
           rdf:resource="http://purl.org/dc/dcmitype/StillImage" />
        <dc:title></dc:title>
      </cc:Work>
    </rdf:RDF>
  </metadata>
  <g
     inkscape:label="Layer 1"
     inkscape:groupmode="layer"
     id="layer1"
     transform="translate(0,-240.11457)">
    <path
       style="fill:#000000;stroke-width:0.10001832"
       d="m 38.971965,296.74156 c -0.30599,-0.33251 -1.080205,-1.65725 -1.3138,-2.24802 -0.06105,-0.15439 -0.206041,-0.3536 -0.322211,-0.44268 -0.201943,-0.15486 -1.908391,-3.05677 -1.91298,-3.25312 -0.0011,-0.052 -0.236559,-0.39883 -0.52299,-0.77069 -0.56264,-0.73047 -1.554532,-2.50904 -1.561322,-2.79961 -0.0023,-0.0983 -0.07298,-0.23313 -0.157068,-0.29966 -0.257694,-0.20389 -0.202185,-0.72449 0.110742,-1.03863 0.21218,-0.21301 0.442316,-0.30886 0.966043,-0.40234 0.378131,-0.0675 0.765279,-0.16624 0.860328,-0.21943 0.229074,-0.12818 0.212033,-0.61343 -0.02884,-0.8214 -0.103699,-0.0895 -0.249169,-0.35198 -0.323273,-0.58322 -0.0741,-0.23124 -0.213699,-0.50863 -0.310216,-0.61643 -0.384297,-0.42919 -0.948597,-1.43295 -1.067791,-1.89935 -0.151239,-0.59179 -0.0758,-1.34491 0.155926,-1.55657 0.09191,-0.0839 0.395135,-0.23275 0.673825,-0.33066 0.278693,-0.0979 0.608415,-0.29148 0.732723,-0.43015 0.124302,-0.13867 0.280606,-0.2534 0.347342,-0.25496 0.06674,-0.002 0.345278,-0.16472 0.618985,-0.36256 0.743172,-0.53721 2.004295,-1.19896 2.298457,-1.20607 0.376219,-0.009 0.532379,0.39745 1.371104,3.56941 0.253056,0.95703 0.627479,2.23136 0.832049,2.83186 0.204571,0.6005 0.442532,1.2988 0.528797,1.55178 0.305664,0.89637 0.2763,0.93808 -1.16582,1.65621 -0.543925,0.27085 -1.109922,0.61383 -1.257778,0.76217 -0.258529,0.25938 -0.267923,0.30838 -0.245234,1.27963 0.02487,1.06451 0.591049,4.66595 0.885789,5.63446 0.607674,1.99676 0.51964,3.0242 -0.192787,2.25003 z m -21.788346,-0.92782 c -0.04121,-0.16872 -0.05016,-0.45367 -0.01988,-0.6332 0.07014,-0.41597 0.399848,-1.65808 0.527752,-1.98823 0.05378,-0.13882 0.211058,-0.70891 0.349506,-1.26688 0.138449,-0.55795 0.299675,-1.10932 0.358281,-1.22526 0.05861,-0.11593 0.187985,-0.60101 0.287509,-1.07794 0.351485,-1.68438 0.279738,-1.78849 -1.396845,-2.02684 -1.765743,-0.25104 -1.93074,-0.42534 -1.418208,-1.4982 0.321344,-0.67266 0.96722,-2.8182 0.958661,-3.18459 -0.0038,-0.16382 0.05207,-0.49215 0.124221,-0.72961 0.07215,-0.23747 0.216799,-0.78247 0.321446,-1.21113 0.104646,-0.42865 0.276518,-0.94973 0.381937,-1.15796 0.105418,-0.20823 0.189878,-0.45535 0.187686,-0.54916 -0.0022,-0.0938 0.03978,-0.19905 0.09327,-0.23385 0.05349,-0.0348 0.164412,-0.32144 0.246496,-0.63695 0.199416,-0.76651 0.459697,-1.19782 0.762179,-1.263 0.27977,-0.0603 1.129672,0.27478 1.35454,0.53401 0.0807,0.093 0.286649,0.2366 0.457658,0.31903 0.171008,0.0824 0.588314,0.35916 0.927346,0.61495 0.339032,0.2558 0.818301,0.53634 1.065041,0.62343 0.246741,0.0871 0.574414,0.28484 0.728163,0.43945 l 0.279543,0.28111 -0.315204,0.73353 c -0.173361,0.40343 -0.430654,0.91132 -0.57176,1.12864 -0.141106,0.21732 -0.255781,0.42831 -0.254834,0.46886 9.45e-4,0.0406 -0.256959,0.56357 -0.573124,1.16226 -0.602722,1.14131 -0.698214,1.58776 -0.374599,1.75135 0.102834,0.052 0.521837,0.16172 0.931118,0.24386 0.409281,0.0821 0.823851,0.1887 0.921269,0.23679 0.239725,0.11836 0.250099,0.79212 0.02045,1.32807 -0.731401,1.70694 -1.08691,2.41065 -1.438591,2.84762 -0.579541,0.72008 -1.371108,1.87404 -1.492029,2.17509 -0.0568,0.14141 -0.258389,0.44546 -0.447979,0.67566 -0.189591,0.23021 -0.493538,0.68088 -0.67544,1.0015 -0.181901,0.32062 -0.435547,0.65517 -0.563658,0.74346 -0.128112,0.0883 -0.315882,0.3244 -0.417268,0.52471 -0.27665,0.54657 -0.691462,1.00214 -0.986657,1.0836 -0.23378,0.0645 -0.271405,0.0385 -0.337993,-0.23418 z m 10.305066,-17.03699 c -0.387824,-0.03 -1.377116,-0.38939 -1.524268,-0.5538 -0.134463,-0.15023 0.147077,-1.22161 0.43471,-1.65427 0.09763,-0.14685 0.236634,-0.5179 0.308908,-0.82456 0.07227,-0.30667 0.204355,-0.67479 0.293519,-0.81806 0.08916,-0.14328 0.252031,-0.54406 0.36193,-0.89064 0.204192,-0.64395 0.534073,-0.96416 0.869753,-0.84426 0.190924,0.0682 1.221642,1.95793 1.228519,2.25239 0.003,0.12518 0.07342,0.3134 0.15666,0.41827 0.08324,0.10486 0.155427,0.30435 0.160421,0.44331 0.005,0.13896 0.08408,0.35458 0.17575,0.47916 0.159521,0.21679 0.203587,0.22265 1.028658,0.1367 0.623313,-0.0649 1.108043,-0.19187 1.750575,-0.45847 2.082243,-0.86394 2.212819,-1.04614 1.391506,-1.94162 -0.278043,-0.30314 -0.765676,-0.92301 -1.08363,-1.37749 -0.340972,-0.48737 -0.743033,-0.93105 -0.980189,-1.08165 -0.221146,-0.14044 -0.577995,-0.39971 -0.792995,-0.57617 -0.69781,-0.57271 -1.740655,-0.72219 -3.76228,-0.53928 -1.062158,0.0961 -1.565513,0.18652 -1.890943,0.33965 -0.470913,0.2216 -1.616155,1.04342 -1.829103,1.31256 -0.06995,0.0884 -0.335245,0.27235 -0.58954,0.40877 -0.516842,0.27726 -0.772325,0.25671 -1.243123,-0.1 l -0.289821,-0.21959 0.225265,-0.46434 c 0.298006,-0.61428 0.853311,-1.10602 1.758592,-1.55729 0.407938,-0.20335 1.014203,-0.50799 1.347256,-0.67699 1.254264,-0.63643 5.000488,-0.73945 6.395352,-0.17588 1.394992,0.56362 1.870744,0.84139 2.605622,1.52131 0.415998,0.38489 0.816997,0.81093 0.8911,0.94676 0.0741,0.13583 0.269783,0.4239 0.434847,0.64014 0.523314,0.68558 1.439753,2.21076 1.506137,2.50658 0.08555,0.38125 -0.396042,0.94173 -1.274773,1.48356 -0.358724,0.22119 -0.676421,0.44344 -0.70599,0.49388 -0.07157,0.1221 -1.000273,0.56995 -1.373819,0.66251 -0.163268,0.0405 -0.631784,0.18981 -1.041156,0.3319 -0.665821,0.23112 -0.94984,0.26584 -2.693539,0.32924 -1.072078,0.039 -2.084538,0.0604 -2.249911,0.0477 z M 39.96247,276.9554 c -0.156403,-0.11722 -0.286031,-0.33844 -0.329537,-0.56239 -0.03944,-0.20304 -0.151372,-0.47985 -0.248724,-0.61514 -0.09735,-0.13529 -0.242637,-0.40202 -0.322849,-0.59273 -0.953326,-2.26657 -3.52281,-5.40277 -4.635476,-5.65785 -0.138303,-0.0317 -0.68397,-0.26368 -1.212589,-0.5155 -2.602201,-1.23959 -2.971756,-1.33464 -4.780889,-1.22961 -2.018861,0.11719 -2.76447,0.3016 -4.72487,1.16856 -0.472243,0.20885 -2.123712,1.28751 -2.657744,1.73593 -0.822738,0.69082 -2.078544,2.14798 -2.434738,2.8251 -0.175832,0.33426 -0.395467,0.69955 -0.488078,0.81177 -0.09261,0.11221 -0.308735,0.61249 -0.480278,1.11172 -0.171542,0.49923 -0.414713,1.08427 -0.540379,1.30009 -0.223972,0.38465 -0.238246,0.39168 -0.722779,0.35652 -0.527523,-0.0383 -0.361465,0.0815 -2.492579,-1.79751 -1.480513,-1.30535 -2.378663,-2.19998 -2.966378,-2.95474 -0.358186,-0.46 -0.838774,-0.96651 -1.0679718,-1.12558 -0.2291985,-0.15907 -0.8058768,-0.63629 -1.2815075,-1.06048 -0.6856835,-0.61152 -0.8661349,-0.8291 -0.8713089,-1.0506 -0.00569,-0.24344 0.04145,-0.28965 0.3667728,-0.35952 0.2172942,-0.0467 0.939139,-0.0199 1.7272846,0.0641 1.4493458,0.15444 6.7413218,0.22589 7.7559808,0.10471 1.000619,-0.1195 1.009924,-0.14864 0.412508,-1.2918 -0.283027,-0.54157 -0.516721,-1.06498 -0.51932,-1.16313 -0.0058,-0.21947 -0.488157,-1.64863 -0.760992,-2.25477 -0.110294,-0.24504 -0.322976,-0.75781 -0.472626,-1.13949 -0.721004,-1.8389 -0.823403,-2.18471 -0.85183,-2.87667 -0.02639,-0.64249 -0.01068,-0.70744 0.178797,-0.73905 0.114254,-0.019 0.545589,0.13678 0.958522,0.34631 0.412935,0.20953 1.000438,0.46812 1.305565,0.57465 0.305126,0.10653 0.919992,0.41 1.366368,0.67438 0.446377,0.26438 1.058285,0.58868 1.359795,0.72066 0.301511,0.13199 0.735121,0.38521 0.963577,0.56271 0.228458,0.1775 0.529203,0.37729 0.668323,0.44397 0.139121,0.0667 0.418512,0.281 0.620869,0.47627 0.799338,0.77133 1.567083,0.99525 1.850561,0.53975 0.118723,-0.19077 0.143363,-0.80887 0.132727,-3.32962 -0.01391,-3.29625 0.123143,-6.12547 0.314248,-6.48723 0.07337,-0.1389 0.108871,-0.71838 0.09619,-1.57028 -0.01105,-0.74258 0.0046,-1.7334 0.03485,-2.20182 0.07656,-1.18662 -0.177332,-2.45267 -0.553783,-2.76148 -0.147013,-0.1206 -0.389487,-0.24151 -0.538828,-0.26869 -0.812307,-0.14783 -0.874446,-0.17851 -0.912622,-0.45058 -0.03218,-0.22934 0.163345,-0.47934 1.329727,-1.70025 0.886431,-0.92787 1.431125,-1.58363 1.548456,-1.86419 0.178165,-0.42603 0.377685,-0.71161 1.396504,-1.9989 0.758466,-0.95833 0.835148,-1.03299 1.066554,-1.03839 0.116325,-0.003 0.333318,0.13194 0.482209,0.29925 0.148888,0.16731 0.483709,0.53091 0.744042,0.808 0.260332,0.27709 0.653551,0.72836 0.873813,1.00281 1.607852,2.00346 2.265569,2.71742 3.349388,3.63581 0.312927,0.26516 0.358274,0.35312 0.301892,0.58557 -0.08644,0.35636 -0.21509,0.42026 -1.039829,0.51648 -0.517342,0.0603 -0.740288,0.13557 -0.901,0.30397 -0.295719,0.30987 -0.446066,1.29275 -0.384713,2.51505 0.02778,0.55371 0.01886,1.86288 -0.01981,2.90926 -0.03869,1.04638 -0.05385,2.35233 -0.03368,2.90211 0.06965,1.89958 0.03191,6.60392 -0.05688,7.08895 -0.06711,0.36661 -0.05551,0.55147 0.04699,0.74924 0.197309,0.3807 0.550359,0.29463 1.50584,-0.3671 0.440142,-0.30482 1.421585,-0.89422 2.180982,-1.30976 0.759401,-0.41554 1.49408,-0.83879 1.632621,-0.94056 0.138541,-0.10176 0.383401,-0.21972 0.544128,-0.26212 0.160728,-0.0424 0.403331,-0.13942 0.539113,-0.21559 0.135785,-0.0762 0.581114,-0.2848 0.989627,-0.46363 0.40851,-0.17881 0.986732,-0.48046 1.284935,-0.67033 0.591173,-0.3764 0.979886,-0.51413 1.150604,-0.40771 0.330078,0.20576 0.215352,0.92115 -0.279316,1.74173 -0.425007,0.70502 -0.864298,1.72307 -0.931681,2.15916 -0.03413,0.2209 -0.184906,0.69714 -0.335052,1.05831 -0.291308,0.70072 -0.691183,1.80649 -0.802208,2.21834 -0.03712,0.13766 -0.255675,0.6819 -0.485698,1.20942 -0.270418,0.62016 -0.405243,1.06577 -0.381504,1.26088 0.03659,0.30072 0.03946,0.30195 0.83848,0.36147 0.440966,0.0328 2.196221,0.009 3.900563,-0.052 2.79424,-0.10075 3.18183,-0.13537 3.943575,-0.35212 0.820787,-0.23355 1.811228,-0.26585 1.943006,-0.0634 0.124475,0.19127 -0.100561,0.54175 -0.607417,0.94601 -0.304863,0.24316 -0.634631,0.54618 -0.732814,0.67338 -0.09818,0.1272 -0.319096,0.30633 -0.490926,0.39807 -0.17183,0.0917 -0.489089,0.35712 -0.705015,0.58973 -0.215926,0.23261 -0.735294,0.67694 -1.15415,0.98738 -0.843485,0.62518 -3.614639,3.50501 -4.004176,4.16122 -0.138057,0.23257 -0.466963,0.55993 -0.74093,0.73746 l -0.492665,0.31924 z m 1.213031,-4.11225 c 0.11344,-0.15846 0.06372,-0.58039 -0.08716,-0.73956 -0.168571,-0.17784 -0.647196,-0.004 -0.775327,0.28138 -0.109441,0.24387 -0.103914,0.3172 0.0396,0.52545 0.134991,0.19589 0.21833,0.22791 0.437129,0.16798 0.148691,-0.0407 0.322279,-0.14659 0.385753,-0.23525 z M 16.549382,273.152 c 0.152376,-0.34147 0.151426,-0.37231 -0.01695,-0.54985 -0.223927,-0.23611 -0.462259,-0.23343 -0.747052,0.008 -0.273331,0.23211 -0.199371,0.6345 0.145354,0.79082 0.367051,0.16645 0.447584,0.13399 0.618648,-0.24937 z m 5.370111,-5.38382 c 0.422068,-0.20434 0.435676,-1.11928 0.01846,-1.24105 -0.597924,-0.17451 -1.194673,0.38616 -0.922732,0.86695 0.07275,0.12862 0.241206,0.29096 0.374342,0.36073 0.297899,0.15614 0.238165,0.15463 0.52993,0.0134 z m 13.782635,-0.82013 c 0.136473,-0.0661 0.264101,-0.23323 0.291651,-0.38198 0.09274,-0.50076 -0.793124,-1.02262 -1.132414,-0.6671 -0.151787,0.15905 -0.134288,0.90812 0.02476,1.05991 0.153923,0.14689 0.499703,0.14231 0.816002,-0.0108 z m -6.961196,-1.22978 c 0.105045,-0.0594 0.189347,-0.17824 0.187344,-0.26406 -0.0019,-0.0858 0.06882,-0.28553 0.157397,-0.4438 0.207625,-0.371 0.03769,-0.59814 -0.439133,-0.58701 -0.695277,0.0163 -1.064231,0.45213 -0.867583,1.02496 0.112609,0.32802 0.61167,0.46805 0.961975,0.26991 z"
       id="path851"
       inkscape:connector-curvature="0" />
  </g>
</svg>
