<?xml version="1.0" encoding="UTF-8" standalone="no"?>
<!-- Generator: Adobe Illustrator 23.0.4, SVG Export Plug-In  -->

<svg
   xmlns:dc="http://purl.org/dc/elements/1.1/"
   xmlns:cc="http://creativecommons.org/ns#"
   xmlns:rdf="http://www.w3.org/1999/02/22-rdf-syntax-ns#"
   xmlns:svg="http://www.w3.org/2000/svg"
   xmlns="http://www.w3.org/2000/svg"
   xmlns:sodipodi="http://sodipodi.sourceforge.net/DTD/sodipodi-0.dtd"
   xmlns:inkscape="http://www.inkscape.org/namespaces/inkscape"
   version="1.1"
   x="0px"
   y="0px"
   width="228.78542"
   height="228.78542"
   viewBox="0 0 228.78542 228.78541"
   xml:space="preserve"
   id="svg43"
   sodipodi:docname="bonesplitterz.svg"
   inkscape:version="0.92.3 (2405546, 2018-03-11)"><metadata
   id="metadata47"><rdf:RDF><cc:Work
       rdf:about=""><dc:format>image/svg+xml</dc:format><dc:type
         rdf:resource="http://purl.org/dc/dcmitype/StillImage" /><dc:title></dc:title></cc:Work></rdf:RDF></metadata><sodipodi:namedview
   pagecolor="#ffffff"
   bordercolor="#666666"
   borderopacity="1"
   objecttolerance="10"
   gridtolerance="10"
   guidetolerance="10"
   inkscape:pageopacity="0"
   inkscape:pageshadow="2"
   inkscape:window-width="1920"
   inkscape:window-height="1017"
   id="namedview45"
   showgrid="false"
   inkscape:zoom="1.0315587"
   inkscape:cx="-206.63381"
   inkscape:cy="114.39021"
   inkscape:window-x="-8"
   inkscape:window-y="-8"
   inkscape:window-maximized="1"
   inkscape:current-layer="svg43"
   fit-margin-top="0"
   fit-margin-left="0"
   fit-margin-right="0"
   fit-margin-bottom="0" />
<defs
   id="defs2">
</defs>
<g
   id="M8qEPE_2_"
   transform="translate(11.474637,-0.00457135)">
    <g
   id="g40">
        <path
   d="m 36.51,228.78 c -0.7,-0.7 -1.42,-1.38 -2.09,-2.11 -0.99,-1.08 -1.94,-2.21 -2.94,-3.36 3.1,-3.39 6.1,-7.1 9.54,-10.35 10,-9.44 20.16,-18.71 30.31,-28 0.79,-0.72 1.87,-1.29 2.9,-1.55 6.97,-1.74 13.53,-4.57 20.02,-7.58 2.25,-1.05 4.57,-1.97 7.15,-1.55 0.2,0.03 0.42,0.02 0.59,0.1 3.64,1.68 7.65,1.45 11.46,2.3 2.49,0.56 5,1.06 7.48,1.68 0.7,0.17 1.43,0.57 1.93,1.08 12.81,13.03 25.6,26.09 38.37,39.16 0.63,0.65 1.18,1.41 1.61,2.21 0.46,0.86 0.02,1.61 -0.94,1.52 -1.74,-0.16 -3.55,-0.26 -5.17,-0.83 -8.09,-2.84 -15.97,-6.32 -24.41,-8.07 -5.79,-1.2 -11.61,-2.21 -17.4,-3.38 -2.93,-0.59 -5.8,-1.58 -8.75,-1.98 -3.94,-0.53 -7.81,-0.44 -11.82,0.7 -9.71,2.76 -19.56,5.04 -29.68,5.88 -1.51,0.12 -3.04,0.25 -4.52,0.54 -0.95,0.18 -1.93,0.53 -2.75,1.04 -5.71,3.53 -11.36,7.13 -17.06,10.68 -1.14,0.71 -2.39,1.26 -3.59,1.88 -0.08,-0.01 -0.16,-0.01 -0.24,-0.01 z"
   id="path4"
   inkscape:connector-curvature="0"
   style="fill:#ffffff" />
        <path
   d="m 162.86,118.65 c -0.23,-2.41 -0.45,-4.67 -0.67,-6.92 -0.69,-7.12 -1.43,-14.24 -2.07,-21.36 -1,-11.2 -2.99,-22.22 -5.8,-33.11 -0.92,-3.56 -0.97,-7.34 -1.39,-11.03 -0.13,-1.11 0,-2.29 -0.32,-3.33 -0.41,-1.3 -1.08,-2.53 -1.79,-3.7 -0.53,-0.88 -1.38,-1.56 -1.96,-2.41 -3.24,-4.75 -6.38,-9.57 -9.69,-14.27 -3.17,-4.51 -6.44,-8.95 -9.79,-13.33 -1.49,-1.96 -3.51,-3.49 -4.57,-5.81 -0.57,-1.25 -0.49,-1.86 0.75,-3 0.83,-0.76 1.51,-0.21 2.11,0.28 2.31,1.9 4.55,3.89 6.89,5.76 1.04,0.84 2.16,1.72 3.39,2.17 2.37,0.87 4.43,2.15 6.37,3.74 3.21,2.64 6.62,5.04 9.68,7.84 4.89,4.48 9.6,9.16 14.32,13.82 2.79,2.75 5.54,5.54 8.14,8.47 2.59,2.92 5.15,5.92 7.36,9.13 0.98,1.42 1.18,3.44 1.56,5.22 1.03,4.88 1.97,9.78 2.94,14.68 0.44,2.19 0.7,4.44 1.34,6.57 1.21,4.04 2.51,8.07 4.02,12.01 1.07,2.78 2.81,5.31 3.82,8.11 2.31,6.39 3.75,12.96 4.47,19.78 1.02,9.65 0.75,19.33 1.35,28.98 0.24,3.87 0.61,7.73 0.77,11.61 0.09,2.39 -0.12,4.78 -0.19,7.18 -0.03,0.98 -0.59,1.45 -1.52,1.49 -0.64,0.03 -1.29,-0.05 -1.92,0.03 -0.82,0.1 -1.83,0.05 -2.41,0.5 -2.14,1.69 -4.41,1.11 -6.61,0.51 -3.26,-0.89 -6.48,-1.96 -9.68,-3.07 -3.5,-1.22 -7.01,-2.46 -10.41,-3.94 -1.68,-0.74 -3.11,-2.05 -4.66,-3.1 -1.29,-0.86 -2.55,-1.78 -3.89,-2.55 -2.15,-1.23 -4.36,-2.34 -6.54,-3.51 -1.12,-0.6 -1.56,-1.44 -1.29,-2.76 1.06,-5.12 2.3,-10.22 2.99,-15.4 0.55,-4.09 0.5,-8.28 0.49,-12.42 0,-2.53 0.7,-3.37 3.27,-3 0.26,0.02 0.53,0.06 1.14,0.14 z"
   id="path6"
   inkscape:connector-curvature="0"
   style="fill:#ffffff" />
        <path
   d="m 7.09,185.2 c 0.23,-4.98 0.29,-9.97 0.74,-14.92 0.61,-6.76 1.45,-13.51 2.3,-20.24 0.55,-4.36 1.25,-8.7 1.92,-13.04 0.88,-5.68 1.47,-11.43 2.75,-17.02 2.59,-11.24 5.52,-22.4 8.39,-33.57 3.24,-12.65 6.88,-25.17 11.46,-37.42 3.32,-8.9 7.58,-17.33 11.85,-25.78 0.63,-1.25 1.3,-2.48 2,-3.69 0.67,-1.16 1.33,-1.3 2.61,-0.66 1.51,0.76 1.68,1.26 1.31,2.58 -0.23,0.81 -0.46,1.83 -0.18,2.56 1.61,4.34 1.17,8.8 0.71,13.18 -1.33,12.85 -1.34,25.71 -0.71,38.58 0.1,2.08 -0.49,3.96 -1.7,5.62 -0.99,1.36 -1.22,2.79 -0.88,4.42 0.68,3.24 1.31,6.49 1.87,9.75 0.19,1.09 0.23,2.24 0.11,3.35 -0.47,4.42 0.32,8.78 0.6,13.16 0.13,1.95 0.21,3.91 0.32,5.86 0.3,5.23 0.62,10.45 0.89,15.68 0.4,7.78 1.27,15.54 1.01,23.36 -0.08,2.34 -0.89,4.01 -2.89,5.11 -2.45,1.35 -4.83,2.87 -7.4,3.94 -7.95,3.32 -15.34,7.71 -22.9,11.77 -4.08,2.19 -8.11,4.49 -12.16,6.74 -0.52,0.29 -1.05,0.55 -1.58,0.83 -0.16,-0.06 -0.3,-0.1 -0.44,-0.15 z"
   id="path8"
   inkscape:connector-curvature="0"
   style="fill:#ffffff" />
        <path
   d="m 98.9,141.05 c 2.28,0.36 4.49,0.63 6.66,1.07 1.97,0.4 1.9,0.49 2.24,2.44 0.19,1.09 0.62,2.13 0.96,3.24 1.27,-0.32 1.24,-1.34 1.32,-2.2 0.27,-2.86 2.43,-4.27 5.19,-3.32 1.15,0.39 1.92,1.16 2.16,2.36 0.19,0.96 0.79,1.3 1.66,1.6 5.66,1.93 11.3,3.92 16.95,5.9 0.29,0.1 0.57,0.26 0.84,0.63 -0.96,0.11 -1.93,0.17 -2.87,0.35 -2.59,0.48 -5.19,0.92 -7.74,1.58 -1.27,0.33 -2.24,0.19 -3.17,-0.69 -0.66,-0.63 -1.34,-1.15 -2.32,-0.46 -0.22,0.16 -0.75,-0.03 -1.1,-0.16 -3.78,-1.51 -7.56,-3.04 -11.33,-4.56 -0.29,-0.12 -0.58,-0.22 -1.05,-0.12 5.73,5.61 11.45,11.23 17.18,16.84 -0.03,0.08 -0.06,0.16 -0.09,0.24 -0.85,-0.23 -1.68,-0.49 -2.54,-0.67 -2.53,-0.53 -5.08,-0.98 -7.6,-1.56 -1.09,-0.25 -2.26,-0.57 -3.16,-1.19 -2.15,-1.46 -4.13,-3.16 -6.25,-4.66 -0.51,-0.36 -1.31,-0.51 -1.94,-0.44 -1.02,0.11 -1.44,-0.49 -1.9,-1.16 -0.45,-0.66 -0.56,-1.32 -0.01,-1.98 0.58,-0.71 1.21,-1.39 1.72,-2.15 0.21,-0.31 0.17,-0.79 0.24,-1.19 -0.14,-0.06 -0.28,-0.11 -0.41,-0.17 -0.26,0.3 -0.57,0.58 -0.77,0.92 -0.7,1.18 -1.7,1.75 -3.09,1.64 -0.38,-0.03 -0.86,-0.05 -1.15,0.15 -1.22,0.81 -2.49,0.74 -3.8,0.4 -0.93,-0.24 -1.84,-0.57 -2.77,-0.75 -1.52,-0.3 -2.48,-1.14 -2.99,-2.61 -0.43,-1.24 -0.75,-1.3 -1.97,-0.67 -1.7,0.88 -3.37,1.85 -5.12,2.61 -3.36,1.46 -6.77,2.8 -10.16,4.2 -1.18,0.49 -2.39,0.92 -3.52,1.5 -2,1.03 -4.08,1.33 -6.28,0.93 -1.46,-0.26 -1.9,-0.85 -1.62,-2.33 2.3,-12.3 6.4,-23.97 12.18,-35.06 0.85,-1.62 1.58,-3.32 2.24,-5.02 3.54,-9.07 7.04,-18.15 10.55,-27.23 0.37,-0.96 0.91,-1.66 1.88,-2.19 0.78,-0.43 1.3,-1.37 1.9,-2.11 0.8,-1.01 1.62,-1.29 2.58,-0.77 0.99,0.54 0.9,1.37 0.63,2.29 -0.15,0.53 -0.23,1.1 -0.23,1.65 0.06,8.31 0.06,16.63 0.23,24.94 0.1,4.95 0.46,9.9 0.76,14.85 0.09,1.49 -0.2,2.81 -0.93,4.12 -1.07,1.92 -2.02,3.9 -2.94,5.89 -0.89,1.94 -0.76,2.15 1.05,3.23 0.58,0.35 1.1,0.8 1.66,1.45 -1.97,0.62 -3.8,1.26 -4.39,3.37 -0.13,0.46 -0.02,0.99 -0.02,1.48 0.11,0.05 0.23,0.1 0.34,0.14 0.31,-0.31 0.69,-0.58 0.91,-0.94 1.12,-1.88 2.61,-2.78 4.67,-2.29 1.74,0.41 2.84,-0.16 3.8,-1.48 0.44,-0.61 0.96,-1.17 1.48,-1.81 -0.25,-0.32 -0.6,-0.57 -0.64,-0.87 -0.09,-0.57 -0.23,-1.34 0.06,-1.72 2.53,-3.3 8.35,-3.35 10.94,-0.16 0.18,0.22 0.35,0.45 0.46,0.7 0.35,0.83 0.07,1.17 -0.84,1.07 -1.95,-0.21 -3.89,-0.42 -5.84,-0.61 -1.27,-0.12 -2.21,0.41 -2.89,1.52 z m 25.05,7.68 c -0.03,-0.16 -0.07,-0.32 -0.1,-0.48 -0.56,-0.09 -1.13,-0.3 -1.68,-0.25 -2.54,0.24 -5.07,0.52 -7.6,0.87 -0.38,0.05 -0.69,0.57 -1.03,0.87 0.38,0.3 0.81,0.89 1.12,0.84 2.7,-0.49 5.54,-0.09 8.15,-1.17 0.4,-0.16 0.76,-0.45 1.14,-0.68 z m -18.43,7.6 c 0,0.16 0.01,0.32 0.01,0.48 3.67,0.98 7.33,1.96 11,2.95 0.06,-0.09 0.12,-0.19 0.19,-0.28 -0.66,-0.4 -1.27,-0.97 -1.98,-1.18 -2.56,-0.77 -5.15,-1.45 -7.74,-2.1 -0.46,-0.12 -0.99,0.08 -1.48,0.13 z"
   id="path10"
   inkscape:connector-curvature="0"
   style="fill:#ffffff" />
        <path
   d="m 113.38,122.52 c 0.61,-8.65 -0.44,-17.25 -0.71,-25.87 -0.06,-1.95 0.07,-3.91 0.07,-5.86 0,-1.32 -0.04,-2.64 -0.15,-3.95 -0.27,-3.09 -0.64,-6.15 -1.22,-9.22 -0.6,-3.23 -1.86,-5.96 -3.62,-8.61 -0.38,-0.57 -0.65,-1.72 -0.34,-2.14 0.57,-0.77 1.57,-1.26 2.46,-1.74 0.2,-0.11 0.78,0.21 1,0.49 1.47,1.88 2.88,3.81 4.31,5.72 0.36,0.48 0.6,1.09 1.05,1.44 2.15,1.64 3.56,3.88 4.99,6.08 3.1,4.75 6.46,9.36 9.1,14.35 2.17,4.09 3.44,8.65 5.14,13 1.59,4.08 3.25,8.14 4.81,12.24 1.88,4.92 3.75,9.84 5.53,14.79 1.14,3.19 2.16,6.42 3.1,9.67 0.46,1.6 0.62,3.29 0.94,4.94 0.17,0.88 -0.19,1.49 -0.93,1.88 -1.45,0.76 -2.87,1.6 -4.38,2.17 -0.71,0.27 -1.72,0.23 -2.42,-0.07 -7.2,-3.05 -14.44,-6.04 -21.48,-9.41 -1.71,-0.82 -3.01,-2.16 -5.16,-1.85 -1.04,0.15 -1.71,-0.92 -1.83,-1.91 -0.31,-2.61 -0.65,-5.24 -0.69,-7.86 -0.03,-2.77 0.28,-5.53 0.43,-8.28 z"
   id="path12"
   inkscape:connector-curvature="0"
   style="fill:#ffffff" />
        <path
   d="m 188.35,220.33 c -0.72,-0.53 -1.46,-0.93 -2.02,-1.5 -4.72,-4.84 -9.45,-9.67 -14.09,-14.59 -7.61,-8.05 -15.09,-16.23 -22.77,-24.21 -2.54,-2.63 -5.53,-4.83 -8.35,-7.19 -4.66,-3.91 -9.35,-7.77 -14,-11.68 -1.16,-0.97 -1.2,-1.8 -0.2,-2.22 0.28,-0.12 0.7,-0.1 0.98,0.03 6.08,2.75 12.12,5.59 17.69,9.3 0.73,0.49 1.26,1.31 1.79,2.05 0.71,0.98 1.34,1.85 2.76,2.01 1.05,0.11 2.12,0.72 3.05,1.31 6.78,4.34 13.91,8 21.23,11.32 2.73,1.24 5.17,3.14 7.72,4.77 1.31,0.83 2.61,1.7 3.89,2.58 2.63,1.81 5.26,3.63 7.88,5.46 0.61,0.42 0.74,0.91 0.42,1.65 -0.75,1.71 -1.29,3.51 -2.74,4.85 -0.84,0.78 -0.46,1.7 0.17,2.47 0.6,0.73 1.17,1.42 0.53,2.45 -0.16,0.25 -0.02,0.7 0.01,1.06 0.03,0.32 0.17,0.65 0.12,0.95 -0.48,2.85 -0.89,5.74 -2.71,8.14 -0.28,0.36 -0.78,0.58 -1.36,0.99 z"
   id="path14"
   inkscape:connector-curvature="0"
   style="fill:#ffffff" />
        <path
   d="m 44.16,204.54 c 0.05,-0.37 0.06,-0.74 0.14,-1.1 0.5,-2.14 1.04,-4.27 1.53,-6.41 0.13,-0.57 0.09,-1.19 0.13,-1.78 -0.14,-0.04 -0.27,-0.09 -0.41,-0.13 -0.23,0.32 -0.56,0.61 -0.66,0.97 -0.88,3.11 -1.68,6.23 -2.58,9.33 -0.24,0.82 -0.56,1.71 -1.12,2.31 -1.61,1.72 -3.35,3.32 -5.06,4.94 -0.26,0.25 -0.64,0.39 -1.06,0.63 -0.08,-3.19 1.08,-6.06 1.16,-9.03 -0.18,-0.04 -0.35,-0.08 -0.53,-0.11 -0.18,0.45 -0.45,0.88 -0.53,1.35 -0.45,2.6 -0.89,5.2 -1.27,7.81 -0.18,1.24 -0.61,2.28 -1.56,3.13 -1.17,1.05 -2.27,2.17 -3.41,3.27 -0.11,-0.05 -0.22,-0.11 -0.33,-0.16 0.15,-1.28 0.33,-2.56 0.46,-3.84 0.13,-1.28 0.22,-2.56 0.32,-3.83 -0.16,-0.04 -0.31,-0.08 -0.47,-0.12 -0.26,0.41 -0.65,0.79 -0.75,1.23 -0.39,1.74 -0.88,3.5 -0.99,5.27 -0.15,2.4 -1.04,4.41 -2.58,6.18 -1.39,1.59 -2.95,1.9 -4.33,0.94 -1.49,-1.02 -2.05,-3.34 -1.04,-4.94 0.61,-0.96 1.47,-1.78 2.28,-2.6 3.44,-3.46 7.08,-6.74 10.33,-10.37 7.71,-8.61 16.42,-16.22 24.24,-24.71 2.6,-2.82 5.2,-5.65 7.84,-8.44 2.33,-2.47 4.73,-4.87 7.08,-7.33 0.44,-0.46 0.76,-1.02 1.14,-1.54 -0.08,-0.09 -0.15,-0.18 -0.23,-0.27 -1.91,0.5 -3.88,0.85 -5.71,1.55 -1.8,0.68 -3.47,1.72 -5.53,2.77 0.46,-2.12 1.37,-3.84 2.35,-5.5 1.08,-1.84 5.06,-3.53 8.98,-3.93 -0.23,0.96 -1.53,1.9 -0.08,2.95 0.67,-0.89 1.24,-1.83 1.99,-2.58 0.89,-0.89 1.83,-1.92 2.96,-2.34 3.78,-1.39 7.47,-2.85 10.36,-5.98 2.14,2.33 4.76,3.28 7.92,3.52 -2.15,1.91 -4.29,3.83 -6.54,5.83 -0.97,-2.43 -1.16,-4.96 -2.52,-7.04 -0.13,0.02 -0.26,0.04 -0.39,0.06 0.04,0.67 0,1.36 0.14,2 0.35,1.6 0.88,3.16 1.14,4.77 0.11,0.65 -0.05,1.59 -0.47,2.05 -3.86,4.16 -7.69,8.37 -11.76,12.32 -9.16,8.88 -18.46,17.62 -27.69,26.43 -0.88,0.84 -1.66,1.77 -2.48,2.67 -0.16,-0.08 -0.28,-0.14 -0.41,-0.2 z m 32.5,-42.56 c -0.32,0.61 -0.54,0.9 -0.63,1.22 -0.63,2.44 0.43,4.51 1.6,6.5 0.16,0.28 0.9,0.22 1.37,0.32 0.08,-0.42 0.31,-0.88 0.21,-1.25 -0.49,-1.71 -1.05,-3.41 -1.64,-5.09 -0.18,-0.51 -0.51,-0.96 -0.91,-1.7 z m -18.25,27.99 c 0.21,0 0.42,0 0.63,0.01 0.8,-3.33 1.6,-6.67 1.85,-10.14 -0.43,0.27 -0.74,0.59 -0.83,0.96 -0.64,2.64 -1.26,5.28 -1.83,7.94 -0.08,0.38 0.11,0.82 0.18,1.23 z m 8.31,-8.03 c 0.92,-1.19 1.93,-8.41 1.38,-9.51 -0.94,1.03 -2.05,8.34 -1.38,9.51 z m -14.38,7.85 c -0.88,2.31 -1.25,4.67 -0.89,7.11 0.93,-2.3 1.3,-4.66 0.89,-7.11 z"
   id="path16"
   inkscape:connector-curvature="0"
   style="fill:#ffffff" />
        <path
   d="m 57.24,176.87 c -2.06,1.81 -4.01,3.66 -6.1,5.33 -5.07,4.06 -9.79,8.5 -13.97,13.45 -3.76,4.45 -8.11,8.26 -12.32,12.25 -3.57,3.38 -7.05,6.86 -10.52,10.34 -0.43,0.43 -0.59,1.14 -0.85,1.73 -0.15,0.32 -0.16,0.76 -0.39,0.98 -1.48,1.38 -3,2.72 -4.32,3.89 0.47,-5.18 -0.09,-10.86 1.81,-16.29 0.78,-2.22 0.74,-4.37 -0.75,-6.38 -0.66,-0.88 0.38,-2.3 1.73,-2.67 0.83,-0.22 1.71,-0.51 2.38,-1.01 7.83,-5.84 16.23,-10.78 24.7,-15.61 4.62,-2.64 9.37,-4.99 14.27,-7.05 1.75,-0.74 2.81,-0.51 4.33,1.04 z"
   id="path18"
   inkscape:connector-curvature="0"
   style="fill:#ffffff" />
        <path
   d="m 178.58,177.64 c 1.84,-0.23 3.67,-0.48 5.51,-0.69 3.06,-0.35 6.12,-0.63 9.17,-1.04 0.69,-0.09 1.33,-0.62 1.99,-0.94 -0.05,-0.17 -0.1,-0.34 -0.14,-0.52 -0.56,-0.05 -1.14,-0.21 -1.68,-0.15 -5.39,0.66 -10.78,1.38 -16.18,2 -0.95,0.11 -2.01,0.03 -2.91,-0.28 -2.18,-0.76 -4.31,-1.7 -6.45,-2.59 -0.35,-0.14 -0.66,-0.37 -0.97,-0.85 2.62,-0.61 5.24,-1.26 7.87,-1.83 1.91,-0.42 3.85,-0.69 5.77,-1.1 1.73,-0.37 3.43,-0.31 5.07,0.34 5.86,2.32 11.75,4.59 17.55,7.05 3.07,1.3 3.54,5.08 1.16,7.42 -1.82,1.79 -3.77,2.39 -6.18,1.17 -1.44,-0.73 -2.99,-1.24 -4.73,-1.94 3,-1.35 6.44,-0.4 8.88,-2.5 -0.03,-0.17 -0.06,-0.34 -0.1,-0.51 -0.5,-0.03 -1.01,-0.16 -1.49,-0.09 -2.72,0.45 -5.42,1.06 -8.15,1.39 -1.55,0.19 -3.26,0.28 -4.72,-0.18 -2.93,-0.91 -5.73,-2.21 -8.58,-3.36 -0.25,-0.1 -0.47,-0.28 -0.71,-0.43 0.02,-0.11 0.02,-0.24 0.02,-0.37 z"
   id="path20"
   inkscape:connector-curvature="0"
   style="fill:#ffffff" />
        <path
   d="m 17.48,183.71 c -0.97,3.03 -2.51,5.52 -3.24,8.29 0.17,0.1 0.33,0.2 0.5,0.29 0.34,-0.36 0.79,-0.67 0.99,-1.09 1.05,-2.19 2.1,-4.39 3.04,-6.63 0.59,-1.4 1.43,-2.44 2.84,-3.07 4.71,-2.07 9.39,-4.18 14.09,-6.27 0.93,-0.41 1.87,-0.8 3.15,-1.35 -0.27,0.62 -0.37,0.93 -0.53,1.2 -0.68,1.22 -1.38,2.43 -2.06,3.64 -0.46,0.82 -0.63,1.58 0.59,2.08 -0.26,0.19 -0.4,0.31 -0.55,0.39 -8.63,4.69 -17.24,9.39 -25.89,14.04 -1.86,1 -3.81,1.84 -5.78,2.6 -0.61,0.24 -1.51,0.15 -2.13,-0.12 -0.78,-0.34 -1.46,-0.97 -2.09,-1.58 -1.02,-0.99 -0.08,-3.29 1.58,-4.1 1.76,-0.85 3.5,-1.74 5.21,-2.68 1.72,-0.94 3.37,-1.98 5.08,-2.93 1.65,-0.89 3.32,-1.72 5.2,-2.71 z"
   id="path22"
   inkscape:connector-curvature="0"
   style="fill:#ffffff" />
        <path
   d="m 140.76,161.17 c 2.84,-0.57 5.69,-1.13 8.53,-1.7 0.23,-0.05 0.5,-0.01 0.71,-0.1 2.97,-1.27 5.69,-0.38 8.54,0.69 5.48,2.07 11.07,3.87 16.59,5.82 1.65,0.58 3.24,1.32 5.02,2.05 -0.28,0.17 -0.39,0.28 -0.51,0.3 -4.86,1.07 -9.72,2.16 -14.6,3.15 -0.76,0.15 -1.68,-0.04 -2.41,-0.35 -4.99,-2.11 -9.95,-4.31 -14.92,-6.46 -2.3,-0.99 -4.61,-1.93 -6.92,-2.9 -0.01,-0.16 -0.02,-0.33 -0.03,-0.5 z"
   id="path24"
   inkscape:connector-curvature="0"
   style="fill:#ffffff" />
        <path
   d="m 159.62,208.55 c 0.68,0.15 1.38,0.25 2.05,0.46 3.24,1.01 6.46,2.07 9.7,3.05 2.58,0.78 3.79,3.04 5.4,5.01 -2.13,-0.46 -4.25,-0.93 -6.54,-1.43 0.34,1.28 1.16,1.76 2.05,2.08 1.46,0.53 2.98,0.92 4.43,1.47 1.41,0.54 2.82,1.12 4.14,1.85 1.47,0.82 2.46,2.1 2.88,3.8 0.26,1.05 0.1,1.91 -0.77,2.56 -0.89,0.68 -1.9,1.2 -2.98,0.53 -1.82,-1.14 -3.76,-2.19 -5.32,-3.63 -4.99,-4.6 -10.22,-8.96 -14.34,-14.43 -0.28,-0.37 -0.56,-0.72 -0.84,-1.09 0.04,-0.07 0.09,-0.15 0.14,-0.23 z"
   id="path26"
   inkscape:connector-curvature="0"
   style="fill:#ffffff" />
        <path
   d="m 50.73,168.2 c 3.54,-1.5 7.07,-3 10.75,-4.56 -0.93,2.2 -1.75,4.26 -2.68,6.26 -0.21,0.45 -0.75,0.9 -1.23,1.05 -6.82,2.14 -12.94,5.79 -19.27,8.98 -0.14,0.07 -0.29,0.12 -0.72,0.3 0.41,-0.91 0.71,-1.6 1.04,-2.29 2.53,-5.35 2.53,-5.37 7.85,-7.9 1.4,-0.67 2.85,-1.24 4.27,-1.85 -0.63,1.46 -1.26,2.91 -1.89,4.37 0.12,0.09 0.24,0.17 0.36,0.26 0.28,-0.21 0.63,-0.36 0.82,-0.63 0.43,-0.62 0.76,-1.31 1.15,-1.96 0.51,-0.85 0.33,-1.5 -0.45,-2.03 z"
   id="path28"
   inkscape:connector-curvature="0"
   style="fill:#ffffff" />
        <path
   d="m 137.6,186.83 c 2.49,0.78 4.99,1.57 7.48,2.35 7.42,2.34 7.41,2.34 12.85,7.86 1.18,1.19 2.39,2.36 3.58,3.54 0.26,0.26 0.5,0.55 0.95,1.05 -0.53,-0.07 -0.76,-0.06 -0.96,-0.13 -3.94,-1.29 -7.92,-2.48 -11.79,-3.94 -1.63,-0.62 -3.21,-1.63 -4.52,-2.8 -2.5,-2.23 -4.79,-4.69 -7.17,-7.06 -0.21,-0.21 -0.36,-0.46 -0.54,-0.69 0.03,-0.06 0.07,-0.12 0.12,-0.18 z"
   id="path30"
   inkscape:connector-curvature="0"
   style="fill:#ffffff" />
        <path
   d="m 127.77,175.79 c 4.6,1.74 9.06,3.42 13.5,5.14 0.51,0.2 0.98,0.56 1.38,0.93 2.26,2.13 4.5,4.29 6.95,6.64 -2.88,-0.87 -5.48,-1.74 -8.12,-2.43 -1.79,-0.46 -3.66,-0.64 -5.48,-1.01 -0.47,-0.1 -0.97,-0.34 -1.32,-0.67 -2.66,-2.46 -5.06,-5.14 -6.91,-8.6 z"
   id="path32"
   inkscape:connector-curvature="0"
   style="fill:#ffffff" />
        <path
   d="m 127.82,155.73 c 1.8,-0.27 3.59,-0.58 5.4,-0.81 2.37,-0.31 4.75,-0.57 7.13,-0.83 0.31,-0.04 0.66,-0.08 0.94,0.01 2.82,0.96 5.63,1.94 8.8,3.04 -0.6,0.19 -0.83,0.27 -1.07,0.33 -3.48,0.8 -6.96,1.62 -10.46,2.38 -0.71,0.15 -1.56,0.27 -2.2,0.02 -2.64,-1 -5.23,-2.15 -7.83,-3.26 -0.27,-0.12 -0.49,-0.37 -0.73,-0.56 0.01,-0.1 0.01,-0.21 0.02,-0.32 z"
   id="path34"
   inkscape:connector-curvature="0"
   style="fill:#ffffff" />
        <path
   d="m 115.43,165.26 c 8.27,1.4 15.31,4.83 20.81,11.27 -0.43,-0.13 -0.85,-0.26 -1.28,-0.38 -3.18,-0.9 -6.37,-1.76 -9.54,-2.71 -0.9,-0.27 -1.83,-0.68 -2.53,-1.28 -2.46,-2.1 -4.84,-4.31 -7.24,-6.48 -0.07,-0.08 -0.1,-0.21 -0.22,-0.42 z"
   id="path36"
   inkscape:connector-curvature="0"
   style="fill:#ffffff" />
        <path
   d="m 150.26,199.2 c 1.51,0.48 2.87,0.9 4.23,1.33 2.4,0.76 4.8,1.48 7.18,2.29 0.89,0.3 1.85,0.66 2.55,1.26 1.78,1.53 3.43,3.2 5.34,5.01 -0.49,-0.08 -0.73,-0.1 -0.95,-0.16 -2.38,-0.68 -4.74,-1.42 -7.13,-2.04 -0.87,-0.23 -1.81,-0.16 -2.71,-0.31 -0.63,-0.1 -1.43,-0.15 -1.83,-0.55 -2.23,-2.16 -4.35,-4.43 -6.68,-6.83 z"
   id="path38"
   inkscape:connector-curvature="0"
   style="fill:#ffffff" />
    </g>
</g>
</svg>