<?xml version="1.0" encoding="UTF-8" standalone="no"?>
<!-- Created with Inkscape (http://www.inkscape.org/) -->

<svg
   xmlns:dc="http://purl.org/dc/elements/1.1/"
   xmlns:cc="http://creativecommons.org/ns#"
   xmlns:rdf="http://www.w3.org/1999/02/22-rdf-syntax-ns#"
   xmlns:svg="http://www.w3.org/2000/svg"
   xmlns="http://www.w3.org/2000/svg"
   xmlns:sodipodi="http://sodipodi.sourceforge.net/DTD/sodipodi-0.dtd"
   xmlns:inkscape="http://www.inkscape.org/namespaces/inkscape"
   width="215"
   height="215"
   viewBox="0 0 56.885415 56.885418"
   version="1.1"
   id="svg8"
   inkscape:version="0.92.3 (2405546, 2018-03-11)"
   sodipodi:docname="order_draconis.svg">
  <defs
     id="defs2" />
  <sodipodi:namedview
     id="base"
     pagecolor="#ffffff"
     bordercolor="#666666"
     borderopacity="1.0"
     inkscape:pageopacity="0.0"
     inkscape:pageshadow="2"
     inkscape:zoom="2"
     inkscape:cx="14.067902"
     inkscape:cy="52.089576"
     inkscape:document-units="px"
     inkscape:current-layer="layer1"
     showgrid="false"
     inkscape:snap-global="false"
     inkscape:window-width="1920"
     inkscape:window-height="1017"
     inkscape:window-x="-8"
     inkscape:window-y="-8"
     inkscape:window-maximized="1"
     units="px" />
  <metadata
     id="metadata5">
    <rdf:RDF>
      <cc:Work
         rdf:about="">
        <dc:format>image/svg+xml</dc:format>
        <dc:type
           rdf:resource="http://purl.org/dc/dcmitype/StillImage" />
        <dc:title></dc:title>
      </cc:Work>
    </rdf:RDF>
  </metadata>
  <g
     inkscape:label="Layer 1"
     inkscape:groupmode="layer"
     id="layer1"
     transform="translate(0,-240.11457)">
    <g
       id="g905"
       transform="matrix(1.4378395,0,0,1.4378395,-152.60127,-40.605155)"
       style="fill:#ffffff;fill-opacity:1">
      <path
         id="path826"
         transform="scale(0.26458333)"
         d="m 523.00586,737.9043 c -1.08168,1.82839 -2.11715,3.53526 -3.13672,5.19922 1.01786,-1.66036 2.05646,-3.37322 3.13672,-5.19922 z m -4.21484,6.94336 c -0.68664,1.10528 -1.35714,2.16785 -2.01758,3.20117 0.65992,-1.0315 1.33134,-2.09727 2.01758,-3.20117 z m -3.06836,4.84179 c -0.84086,1.2945 -1.65917,2.52465 -2.46094,3.70703 0.80012,-1.17839 1.62176,-2.41657 2.46094,-3.70703 z m -48.95508,5.22461 c -11.65353,18.20977 -11.22774,23.13727 -18.51172,21.12305 0.0378,5.03936 0.28679,6.63581 -9.59766,13.57812 3.24046,4.08514 -2.80899,4.42688 -4.79687,3.59375 1.58354,6.13115 -1.99478,4.42112 -5.55664,8.33399 4.65241,-1.71217 6.45912,-1.25095 8.34961,1.2793 0.13996,-3.52295 3.26971,-7.1745 6.10937,-8.97266 9.39191,4.65139 -24.51934,32.8237 -16.85742,10.66211 -7.1068,8.95635 -1.83732,12.37109 0.9375,12.37109 2.68744,0 15.40253,-5.1467 21.24414,-23.65625 1.06066,0.64694 1.42969,1.8089 1.42969,3.01367 0,1.85156 -2.51285,2.55932 -2.51285,4.44141 0,1.88205 0.4157,2.2535 2.18668,3.03125 -1.9344,-7.39185 6.44681,-9.03641 11.79492,-10.42773 -3.98219,-4.15915 -1.63792,-8.05274 0.93359,-8.05274 2.57155,0 4.26563,0.72746 4.26563,6.20899 0.50506,12.5526 -33.81055,20.15268 -33.81055,49.62109 0,22.39733 9.99177,46.82811 37.25781,46.36523 21.77854,-0.36971 45.36682,-30.77406 55.02539,-61.27148 1.85856,1.70954 1.69788,5.66624 1.76953,12.61328 2.85358,-11.71185 3.55136,-23.26313 2.63868,-35.20508 -4.5233,11.17633 -10.78292,20.01837 -18.64063,29.15625 5.8179,-4.15738 8.82901,-7.80239 11.98828,-7.5332 -14.77453,40.60119 -34.90161,53.76758 -52.78125,53.76758 -20.73955,0 -22.38672,-22.87474 -22.38672,-37.89258 0,-12.95418 13.02854,-37.43912 35.67969,-28.71484 19.28277,-12.93714 23.29445,-27.47081 22.19336,-47.9961 -9.16599,11.03738 -16.36277,14.92532 -26.1582,19.94532 11.54823,3.166 1.95822,14.36642 -4.00977,13.35351 0.67669,-3.36363 1.85296,-5.04436 1.23047,-8.5332 -0.62245,-3.48885 -4.64935,-4.99012 1.14648,-10.18164 -7.82438,0.82227 -5.08977,-0.63352 -4.70898,-5.31836 -14.26205,8.52945 -4.13202,-10.70567 -3.65625,-16.26758 -9.25636,17.56305 -9.91677,18.46184 -2.19531,-2.43555 z m 45.0918,0.50977 c -0.38272,0.54882 -0.76409,1.09105 -1.13868,1.61523 0.37444,-0.52321 0.75613,-1.06744 1.13868,-1.61523 z m -2.6543,3.70312 c -0.20906,0.28234 -0.41243,0.54549 -0.61914,0.82032 0.20648,-0.27418 0.41033,-0.53869 0.61914,-0.82032 z m -64.52344,28.85743 c 0.14409,-0.007 0.25517,0.0407 0.31836,0.16015 0.50551,0.95547 -3.06012,3.37746 -3.55078,3 -0.42933,-0.33038 2.22378,-3.11042 3.23242,-3.16015 z m 40.93945,25.54101 c 0.0498,0.0242 0.10052,0.0477 0.15039,0.0723 -0.0498,-0.0245 -0.10065,-0.0481 -0.15039,-0.0723 z m 1.2793,0.65234 c 0.12457,0.0665 0.24991,0.13275 0.375,0.20118 -0.12511,-0.0684 -0.2504,-0.1348 -0.375,-0.20118 z m 1.41211,0.78907 c 0.11772,0.0688 0.23535,0.13648 0.35352,0.20703 -0.11817,-0.0705 -0.2358,-0.13833 -0.35352,-0.20703 z m 1.36914,0.83398 c 0.14524,0.0919 0.28965,0.18276 0.43555,0.27734 -0.14602,-0.0946 -0.29019,-0.18543 -0.43555,-0.27734 z m 1.4375,0.94727 c 0.14459,0.0988 0.28838,0.19353 0.43359,0.29492 -0.14514,-0.10128 -0.28908,-0.19627 -0.43359,-0.29492 z m 1.37695,0.97265 c 0.17786,0.12995 0.35443,0.25284 0.53321,0.38672 -0.17851,-0.13362 -0.35562,-0.25703 -0.53321,-0.38672 z"
         style="fill:#ffffff;fill-opacity:1;stroke:none;stroke-width:0.99999994px;stroke-linecap:butt;stroke-linejoin:miter;stroke-opacity:1"
         inkscape:connector-curvature="0"
         sodipodi:nodetypes="cccccccccccccccccscssccscsscccccsscccccccccccccccccccccccccccccccacaccc" />
      <path
         id="path847-6"
         transform="scale(0.26458333)"
         d="m 523.00586,737.9043 c -6.54735,11.06721 -11.89476,18.9881 -16.68164,24.96875 0.24959,1.71069 0.41405,3.43381 0.52734,5.16015 6.86843,-6.01137 13.35274,-11.96661 19.58789,-21.51367 -0.88889,-2.81318 -2.01344,-5.6828 -3.43359,-8.61523 z m 4.14844,11.06054 c -4.66932,6.56192 -12.29135,16.84249 -20.18164,21.9336 0.0308,1.60863 0.018,3.21774 -0.084,4.82031 8.26592,-4.94791 14.87045,-11.32663 21.81641,-18.58789 -0.28739,-2.65801 -0.80464,-5.38331 -1.55078,-8.16602 z m 1.76953,10.77149 c -8.15723,9.07621 -15.23471,14.92103 -22.23828,18.3457 -0.1531,1.41651 -0.35323,2.82683 -0.625,4.22461 6.68199,-3.12639 17.23735,-9.49318 22.58789,-13.73047 0.34271,-2.85722 0.44705,-5.80553 0.27539,-8.83984 z m -0.68555,11.59961 c -7.95977,5.23228 -14.47986,9.74889 -22.6914,13.30664 -0.26946,1.09045 -0.57521,2.1732 -0.92579,3.24414 10.14955,-0.70501 18.20376,-5.84123 21.4668,-8.25391 0.92457,-2.66485 1.64684,-5.43558 2.15039,-8.29687 z m -3.49023,11.79492 c -4.33663,2.36385 -13.71774,6.9324 -20.75391,6.54102 -0.48628,1.29384 -1.03281,2.57009 -1.65039,3.82421 7.57979,0.73043 9.81646,0.77208 17.25781,-0.55859 1.95324,-3.07297 3.69255,-6.35332 5.14649,-9.80664 z m -6.32813,11.61133 c -7.44146,1.27251 -10.26807,1.12118 -16.99609,0.50781 -0.56454,1.02029 -1.16058,2.03008 -1.82227,3.01562 4.91036,2.34927 7.47483,2.94626 12.87305,4.22852 2.07275,-2.41125 4.08242,-4.99866 5.94531,-7.75195 z m -19.78515,4.90429 c -0.63717,0.86964 -1.30283,1.72799 -2.02344,2.56446 1.70395,1.40578 8.30722,5.8679 9.76953,6.76562 1.60115,-1.56346 3.20728,-3.25574 4.79297,-5.02539 -2.98695,-0.40189 -9.014,-2.47143 -12.53906,-4.30469 z m -3.04493,3.70704 c -1.16453,1.25665 -2.42593,2.47297 -3.79882,3.63867 l 7.90625,8.02929 c 1.67454,-1.40618 3.43658,-2.98563 5.21679,-4.6621 -1.83304,-0.96238 -7.57474,-5.30202 -9.32422,-7.00586 z m -4.9707,4.61132 c -2.09708,1.66523 -4.42483,3.2234 -7.00391,4.65625 3.40872,1.40247 7.02913,3.54942 10.85352,6.59961 1.25317,-0.95383 2.63367,-2.05571 4.05859,-3.22461 z"
         style="fill:#ffffff;fill-opacity:1;stroke:none;stroke-width:0.99999994px;stroke-linecap:butt;stroke-linejoin:miter;stroke-opacity:1"
         inkscape:connector-curvature="0" />
    </g>
  </g>
</svg>
