<?xml version="1.0" encoding="UTF-8" standalone="no"?>
<!-- Created with Inkscape (http://www.inkscape.org/) -->

<svg
   xmlns:dc="http://purl.org/dc/elements/1.1/"
   xmlns:cc="http://creativecommons.org/ns#"
   xmlns:rdf="http://www.w3.org/1999/02/22-rdf-syntax-ns#"
   xmlns:svg="http://www.w3.org/2000/svg"
   xmlns="http://www.w3.org/2000/svg"
   xmlns:sodipodi="http://sodipodi.sourceforge.net/DTD/sodipodi-0.dtd"
   xmlns:inkscape="http://www.inkscape.org/namespaces/inkscape"
   width="215"
   height="215"
   viewBox="0 0 56.885415 56.885418"
   version="1.1"
   id="svg8"
   inkscape:version="0.92.3 (2405546, 2018-03-11)"
   sodipodi:docname="shadowblades.svg">
  <defs
     id="defs2" />
  <sodipodi:namedview
     id="base"
     pagecolor="#ffffff"
     bordercolor="#666666"
     borderopacity="1.0"
     inkscape:pageopacity="0.0"
     inkscape:pageshadow="2"
     inkscape:zoom="5.6568542"
     inkscape:cx="10.528421"
     inkscape:cy="106.64069"
     inkscape:document-units="px"
     inkscape:current-layer="layer1"
     showgrid="false"
     inkscape:window-width="1920"
     inkscape:window-height="1017"
     inkscape:window-x="-8"
     inkscape:window-y="-8"
     inkscape:window-maximized="1"
     inkscape:snap-global="false"
     units="px" />
  <metadata
     id="metadata5">
    <rdf:RDF>
      <cc:Work
         rdf:about="">
        <dc:format>image/svg+xml</dc:format>
        <dc:type
           rdf:resource="http://purl.org/dc/dcmitype/StillImage" />
        <dc:title />
      </cc:Work>
    </rdf:RDF>
  </metadata>
  <g
     inkscape:label="Layer 1"
     inkscape:groupmode="layer"
     id="layer1"
     transform="translate(0,-240.11457)">
    <g
       id="g885"
       transform="matrix(0.56069611,0,0,0.56069611,-28.707721,151.32417)"
       style="fill:#ffffff;fill-opacity:1">
      <path
         id="path816"
         transform="scale(0.26458333)"
         d="m 549.71875,805.46289 c -10.69997,6.6223 -22.65621,13.19979 -32.13477,16.24023 6.08558,0.43682 14.42244,3.00857 16.86133,6.98047 -2.62436,4.02642 -26.97245,13.72023 -49.33593,16.41993 a 47.244094,47.244094 0 0 0 -0.2168,4.15039 47.244094,47.244094 0 0 0 47.24414,47.24414 47.244094,47.244094 0 0 0 44.09766,-30.44727 25.968706,25.968706 0 0 1 -19.79883,9.17188 25.968706,25.968706 0 0 1 -25.96875,-25.96875 25.968706,25.968706 0 0 1 25.96875,-25.96875 25.968706,25.968706 0 0 1 19.88672,9.30859 47.244094,47.244094 0 0 0 -26.60352,-27.13086 z m -47.64844,19.1543 c -1.76904,0.14289 -3.49644,0.22061 -5.1875,0.2539 0.69666,0.0312 1.34601,0.0525 1.87696,0.0449 1.18574,-0.017 2.27722,-0.12948 3.31054,-0.29883 z"
         style="opacity:1;fill:#ffffff;fill-opacity:1;fill-rule:nonzero;stroke:none;stroke-width:0.97083747;stroke-linecap:butt;stroke-linejoin:miter;stroke-miterlimit:4;stroke-dasharray:none;stroke-dashoffset:0;stroke-opacity:0.45581438;paint-order:markers fill stroke"
         inkscape:connector-curvature="0" />
      <g
         id="g861"
         style="fill:#ffffff;fill-opacity:1">
        <path
           style="fill:#ffffff;fill-opacity:1;stroke:none;stroke-width:0.26458332px;stroke-linecap:butt;stroke-linejoin:miter;stroke-opacity:1"
           d="m 72.613789,203.9902 c 0,0 1.658457,-7.72086 9.029067,-7.72086 14.174182,0 15.549402,8.92481 20.883184,11.71726 5.33378,2.79245 10.60402,4.63021 14.55208,4.63021 3.94806,0 6.61459,-2.83482 6.61459,-2.83482 0,0 5.51117,1.98438 10.11086,1.98438 4.59969,0 16.91443,-5.38617 16.91443,-5.38617 0.37739,0.43878 0.98254,1.01507 1.93713,1.65366 0,0 -12.03287,7.88153 -16.84803,9.04612 -4.81516,1.16459 -11.16945,0.35603 -11.16945,0.35603 0,0 5.56737,0.84796 7.32566,0.82277 1.75829,-0.0252 2.59919,-0.39765 4.19885,-0.44479 1.59966,-0.0471 3.92543,0.87963 4.72846,1.5119 -1.06785,0.79932 -9.01062,3.7855 -15.5075,3.7855 -10.84362,0 -18.51035,-6.62032 -18.51035,-6.62032 0,0 3.80699,4.13811 7.40306,5.90635 -4.91648,0.36506 -16.966363,-11.2964 -21.285375,-14.81016 -4.319013,-3.51377 -8.912553,-7.64492 -9.930189,-5.36479 -1.017635,2.28013 -1.204717,12.62709 10.772323,19.0878 -5.315371,-0.0594 -6.836795,-0.99806 -9.543899,-4.06325 -2.707104,-3.06518 -5.703608,-10.0613 -11.674901,-13.25682 z"
           id="path814"
           inkscape:connector-curvature="0"
           sodipodi:nodetypes="cczzczcczczzcccczzczc" />
        <path
           style="fill:#ffffff;fill-opacity:1;stroke:none;stroke-width:0.26458332px;stroke-linecap:butt;stroke-linejoin:miter;stroke-opacity:1"
           d="m 90.504141,197.18819 c 10.289879,0.626 9.945889,6.69131 16.594719,12.04411 -8.133684,-1.98431 -6.98674,-7.13487 -16.594719,-12.04411 z"
           id="path828"
           inkscape:connector-curvature="0"
           sodipodi:nodetypes="ccc" />
        <path
           sodipodi:nodetypes="ccc"
           inkscape:connector-curvature="0"
           id="path830"
           d="m 97.6482,198.01324 c 11.79933,1.80901 0.350546,5.84706 24.69571,11.97367 -14.97595,6.16791 -17.89738,-6.53858 -24.69571,-11.97367 z"
           style="fill:#ffffff;fill-opacity:1;stroke:none;stroke-width:0.26458332px;stroke-linecap:butt;stroke-linejoin:miter;stroke-opacity:1" />
        <path
           sodipodi:nodetypes="ccc"
           inkscape:connector-curvature="0"
           id="path832"
           d="m 84.423759,202.52022 c 7.390005,1.65498 -2.931129,7.88372 14.452606,16.13639 -12.275091,4.02149 -15.321592,-9.26272 -14.452606,-16.13639 z"
           style="fill:#ffffff;fill-opacity:1;stroke:none;stroke-width:0.26458332px;stroke-linecap:butt;stroke-linejoin:miter;stroke-opacity:1" />
        <path
           style="fill:#ffffff;fill-opacity:1;stroke:none;stroke-width:0.26458332px;stroke-linecap:butt;stroke-linejoin:miter;stroke-opacity:1"
           d="m 88.259081,204.85883 c 15.902539,12.70762 18.350149,15.35505 19.883829,17.47164 1.53367,2.1166 6.08226,11.373 14.40017,14.28665 -6.92037,1.50531 -13.05103,-8.54764 -17.74797,-15.06269 -6.478817,-8.98666 -8.726658,-7.77914 -10.696817,-7.77914 -3.940318,0 -4.262504,-4.31032 -5.839212,-8.91646 z"
           id="path834"
           inkscape:connector-curvature="0"
           sodipodi:nodetypes="cscssc" />
        <path
           sodipodi:nodetypes="ccccc"
           inkscape:connector-curvature="0"
           id="path836"
           d="m 107.90339,220.76136 c 3.36338,1.43138 5.67274,4.4783 9.51712,6.97851 7.33367,4.23409 10.66939,1.01184 6.53707,-2.72695 5.52364,-2.26215 6.45203,10.50821 -0.49328,10.50821 -5.35781,0 -9.68116,-4.54097 -15.56091,-14.75977 z"
           style="fill:#ffffff;fill-opacity:1;stroke:none;stroke-width:0.26458332px;stroke-linecap:butt;stroke-linejoin:miter;stroke-opacity:1" />
      </g>
      <g
         id="g865"
         style="fill:#ffffff;fill-opacity:1">
        <path
           style="fill:#ffffff;fill-opacity:1;stroke:none;stroke-width:0.26458332px;stroke-linecap:butt;stroke-linejoin:miter;stroke-opacity:1"
           d="m 86.865501,221.43111 c -1.919483,-1.66092 -3.900685,-3.24329 -5.241544,-5.39361 l -5.093229,-1.52136 -2.645833,2.4474 2.711979,4.69635 1.389063,0.0662 -0.926042,-1.12448 -0.396875,-2.18281 0.727604,-0.59531 5.291667,1.78593 0.529166,1.65365 -0.926041,0.0661 -1.12448,-0.59532 -0.396875,0.99219 0.992188,0.92604 1.5875,0.39688 z"
           id="path841"
           inkscape:connector-curvature="0"
           sodipodi:nodetypes="ccccccccccccccccc" />
        <path
           style="fill:#ffffff;fill-opacity:1;stroke:none;stroke-width:0.26458332px;stroke-linecap:butt;stroke-linejoin:miter;stroke-opacity:1"
           d="m 80.823046,214.61895 c -0.9758,-1.34506 -1.690842,-2.45082 -2.762952,-3.74798 l -2.25697,-1.31576 h -2.050521 l -3.042708,1.85208 1.984375,3.37344 0.529167,0.13229 0.06614,-0.92604 -0.529166,-0.99219 2.050521,-0.59531 1.719791,0.4276 1.532703,1.15256 1.377714,0.5365 z"
           id="path843"
           inkscape:connector-curvature="0"
           sodipodi:nodetypes="cccccccccccccc" />
      </g>
      <g
         id="g869"
         style="fill:#ffffff;fill-opacity:1">
        <path
           style="fill:#ffffff;fill-opacity:1;stroke:none;stroke-width:0.99999994px;stroke-linecap:butt;stroke-linejoin:miter;stroke-opacity:1"
           d="m 285.48135,683.98736 c 7.52447,9.6359 6.00971,25.86022 -12.95482,25.86022 -18.96454,0 -11.07327,-15.93035 -15.88446,-19.54423 -1.28313,-0.72752 -5.87552,0.61449 -7.66743,0.57556 -1.79192,-0.039 -9.18437,-2.18967 -19.43359,-0.96094 -10.24923,1.22872 -10.45308,5.99875 -12.24805,6.94141 -1.79497,0.94264 -7.11611,1.49305 -10.23633,4.61328 -3.12021,3.12022 -5.22427,16.3618 -7.57031,22.32226 -2.34604,5.96047 -5.58504,10.23144 -5.89258,13.5586 -0.61504,6.65427 2.11905,25.40626 12.83398,45.16601 -1.61665,-32.03013 10.05129,-43.13242 25.89454,-49.64258 2.18086,-8.83264 3.07091,-13.2184 7.5,-22.32226 -1.25014,9.89877 -4.59548,18.79823 -5.62305,23.22265 12.29668,17.67341 30.88111,32.39011 38.23633,36.13086 8.41205,-41.11717 40.07478,-33.94444 92.38672,-23.10351 -3.68232,-3.75001 -9.77744,-7.98737 -14.84961,-11.53907 3.72161,0.67537 20.35786,10.01391 24.15625,11.99024 2.56427,0.25919 5.70177,0.8781 10.35547,2.41797 -22.56629,-34.05075 -66.86778,-65.88467 -99.00306,-65.68647 z M 217,712.39453 c -1.37282,6.69376 -0.52344,14.10171 -8.625,15.625 0.8058,-8.16261 0.69799,-11.68982 8.625,-15.625 z m -13.625,25.375 c 0.38503,2.49555 -0.12393,3.91663 -1.875,5.75 -0.85387,-2.77017 -0.56485,-3.99686 1.875,-5.75 z"
           transform="scale(0.26458333)"
           id="path826"
           inkscape:connector-curvature="0"
           sodipodi:nodetypes="czccccssccccccccccccccccc" />
        <path
           style="fill:#ffffff;fill-opacity:1;stroke:none;stroke-width:0.15315114px;stroke-linecap:butt;stroke-linejoin:miter;stroke-opacity:1"
           d="m 55.523486,192.07019 c 0.113859,-1.40328 0.190699,-2.2308 1.512708,-2.90839 -0.29479,1.31405 -0.06676,2.47271 -1.512708,2.90839 z"
           id="path847"
           inkscape:connector-curvature="0"
           sodipodi:nodetypes="ccc" />
      </g>
    </g>
  </g>
</svg>
