<?xml version="1.0" encoding="UTF-8" standalone="no"?>
<!-- Generator: Adobe Illustrator 22.1.0, SVG Export Plug-In . SVG Version: 6.00 Build 0)  -->

<svg
   xmlns:dc="http://purl.org/dc/elements/1.1/"
   xmlns:cc="http://creativecommons.org/ns#"
   xmlns:rdf="http://www.w3.org/1999/02/22-rdf-syntax-ns#"
   xmlns:svg="http://www.w3.org/2000/svg"
   xmlns="http://www.w3.org/2000/svg"
   xmlns:sodipodi="http://sodipodi.sourceforge.net/DTD/sodipodi-0.dtd"
   xmlns:inkscape="http://www.inkscape.org/namespaces/inkscape"
   version="1.1"
   id="Layer_3_1_"
   x="0px"
   y="0px"
   viewBox="0 0 560.85608 800"
   xml:space="preserve"
   sodipodi:docname="Adeptus Astronomica [Imperium].svg"
   width="560.85608"
   height="800"
   inkscape:version="0.92.3 (2405546, 2018-03-11)"><metadata
   id="metadata13"><rdf:RDF><cc:Work
       rdf:about=""><dc:format>image/svg+xml</dc:format><dc:type
         rdf:resource="http://purl.org/dc/dcmitype/StillImage" /><dc:title /></cc:Work></rdf:RDF></metadata><defs
   id="defs11">
	
	
</defs><sodipodi:namedview
   pagecolor="#ffffff"
   bordercolor="#666666"
   borderopacity="1"
   objecttolerance="10"
   gridtolerance="10"
   guidetolerance="10"
   inkscape:pageopacity="0"
   inkscape:pageshadow="2"
   inkscape:window-width="1920"
   inkscape:window-height="1017"
   id="namedview9"
   showgrid="false"
   fit-margin-top="0"
   fit-margin-left="0"
   fit-margin-right="0"
   fit-margin-bottom="0"
   inkscape:zoom="0.6675088"
   inkscape:cx="-156.6686"
   inkscape:cy="505.00514"
   inkscape:window-x="-8"
   inkscape:window-y="-8"
   inkscape:window-maximized="1"
   inkscape:current-layer="Layer_3_1_"
   inkscape:pagecheckerboard="true" />
<g
   id="g818"><path
     style="stroke-width:0.91195673"
     d="m 379.33655,233.61996 c -17.87983,-51.07444 -70.6898,-59.10558 -93.54646,-60.09819 0,0 -1.93544,-0.0902 -5.25334,-0.0902 0,0 0,0 -0.0922,0 0,0 0,0 -0.0922,0 -3.31791,0 -5.25336,0.0902 -5.25336,0.0902 -22.85666,1.08285 -75.66664,9.02375 -93.54646,60.09819 -15.29922,43.58471 13.64027,92.85442 7.74177,99.53198 -23.50181,26.62007 8.47911,68.85125 12.81081,72.28026 7.83393,6.31663 32.81037,-6.40686 28.93948,0.0902 -2.94924,4.96306 -5.71416,42.77258 -5.71416,42.77258 h 7.74177 l 3.68658,-13.17468 6.6358,-0.0903 1.29029,13.26491 h 13.54812 l 1.29029,-12.63325 4.51604,-0.63166 0.64513,13.26491 h 10.96752 l 0.553,-13.53563 h 8.84772 l 0.553,13.53563 h 10.96752 l 0.64515,-13.26491 4.51604,0.63166 1.29029,12.63325 h 13.54812 l 1.29027,-13.26491 6.63583,0.0903 3.68656,13.17468 h 7.74176 c 0,0 -2.76491,-37.71929 -5.71416,-42.77258 -3.96305,-6.58734 21.0134,6.13614 28.9395,-0.0902 4.3317,-3.51926 36.31262,-45.66019 12.81079,-72.28026 -6.26716,-6.67756 22.58019,-55.94727 7.37312,-99.53198 z m -119.72104,33.11719 c -0.46082,1.7145 -0.73731,3.6095 -0.73731,5.50447 0,11.64065 9.58506,21.02535 21.47421,21.02535 11.88916,0 21.47422,-9.3847 21.47422,-21.02535 0,-1.80475 -0.27649,-3.6095 -0.64517,-5.32402 18.61715,5.68498 31.61227,16.78418 31.61227,16.78418 0,0 -23.59399,20.12298 -52.71781,20.12298 -29.12383,0 -52.80998,-20.12298 -52.80998,-20.12298 0,0 13.36378,-11.27969 32.34957,-16.96463 z m 6.26715,93.93726 c -3.04141,3.33877 -7.46529,7.39948 -13.45595,10.648 -14.37759,7.94092 -28.663,6.85807 -34.46934,6.04592 -0.36863,0 -0.7373,-0.18047 -1.10596,-0.36095 -12.62645,-7.85065 -17.41899,-20.03272 -13.64026,-27.61268 0.55298,-1.17309 2.67274,-4.96307 9.30858,-7.39947 0.36863,-0.0901 0.73729,-0.18048 1.10594,-0.18048 8.01828,0.7219 17.87982,2.25594 28.84734,5.59474 8.84774,2.70712 16.40519,5.95567 22.67234,9.11398 1.47461,0.90238 1.84329,2.8876 0.73731,4.15094 z m 30.13764,46.2016 c 0,0.90236 -1.10598,1.17308 -1.65896,0.54142 -1.38246,-1.7145 -3.22574,-3.69973 -5.71416,-5.41424 -2.67277,-1.89499 -5.25336,-3.15832 -7.1888,-3.78998 -1.93545,0.7219 -4.51603,1.89499 -7.18879,3.78998 -2.48842,1.80476 -4.33172,3.78996 -5.71416,5.41424 -0.55301,0.63166 -1.65896,0.36094 -1.65896,-0.54142 -0.46083,-6.40687 -0.0922,-19.67178 9.76939,-29.23696 1.29029,-1.26332 2.94923,-2.34618 4.88468,-3.33879 1.93544,1.08285 3.5944,2.1657 4.88469,3.33879 9.67722,9.56518 10.04588,22.83009 9.58507,29.23696 z m 48.29393,-29.86863 c -0.36866,0.18048 -0.64517,0.36095 -1.10597,0.36095 -5.80634,0.81215 -19.99958,1.895 -34.46934,-6.04592 -5.99066,-3.24852 -10.41453,-7.30923 -13.45595,-10.648 -1.10595,-1.26334 -0.82946,-3.24856 0.73733,-4.06071 6.17496,-3.15831 13.73243,-6.40686 22.67232,-9.11398 10.96753,-3.3388 20.92124,-4.87283 28.84734,-5.59471 0.36866,0 0.73731,0 1.10596,0.18046 6.54366,2.34616 8.75559,6.22637 9.30857,7.39947 3.77873,7.48972 -1.0138,19.76202 -13.64026,27.52244 z"
     id="path2"
     inkscape:connector-curvature="0" /><path
     style="stroke-width:0.80008"
     d="m 560.85609,303.71037 v -27.12271 h -84.48845 c -1.36014,-20.40204 -5.84059,-39.92399 -12.88129,-58.16582 l 43.76438,-29.0429 -14.08141,-21.20212 -40.56406,26.96269 C 441.24413,174.33743 426.20262,155.77558 408.44085,140.33403 L 435.9636,101.05011 415.16152,86.408641 388.27883,124.81248 c -5.76058,-3.84038 -11.68117,-7.36073 -17.76178,-10.56105 v -3.20032 c 0,-8.72088 1.28013,-27.842789 14.9615,-45.764581 27.84278,-36.483649 79.92799,-32.963297 82.88829,-32.643265 0,-10.961096 0,-21.762176 0,-32.643264 h -186.81868 -0.08 -186.818685 c 0,10.961096 0,21.762176 0,32.643264 2.960296,-0.320032 55.045505,-3.840384 82.888285,32.643265 13.68137,17.921792 14.9615,36.963701 14.9615,45.684571 -6.80068,3.28033 -13.36134,6.88069 -19.68197,10.88109 l -27.20272,-38.883893 -20.80208,14.641464 27.44275,39.123909 c -18.24183,15.04151 -33.76338,33.20332 -45.76458,53.76538 l -38.883889,-25.84258 -14.081408,21.20212 41.524152,27.60276 c -7.760776,18.64186 -12.80128,38.64386 -14.641464,59.68597 H 0 v 27.12271 h 80.008001 c 1.120112,21.84218 5.760576,42.72427 13.361336,62.16621 l -37.283728,24.80248 14.081408,21.20213 34.083413,-22.64227 c 11.92119,21.60216 27.68276,40.72407 46.40464,56.48565 l -23.36234,33.36334 20.88209,14.56145 22.96229,-32.88329 c 6.9607,4.48045 14.16142,8.48085 21.68217,12.08121 0,99.52996 -0.08,188.09881 -0.32003,215.78158 0.40004,6.16062 1.52015,31.68317 -18.0018,53.20532 -18.80188,20.80208 -49.52495,30.08301 -79.927993,24.24243 V 800 h 186.738673 0.08 186.73867 v -37.36373 c -30.40304,5.76057 -61.12611,-3.44035 -79.92799,-24.24243 -19.44194,-21.60216 -18.40184,-47.0447 -18.0018,-53.20532 -0.72007,-72.72727 -1.28013,-145.37454 -2.0002,-218.18182 6.24062,-3.20032 12.32123,-6.72067 18.16182,-10.56105 l 25.92259,37.0437 20.88209,-14.56146 -26.40264,-37.76377 c 18.08181,-15.44155 33.44334,-34.08341 45.0445,-55.04551 l 38.56386,25.60256 14.08141,-21.20212 -41.68417,-27.68277 c 7.28073,-18.56185 11.92119,-38.48384 13.36133,-59.28592 h 84.72848 z M 280.82808,462.36624 c -38.96389,0 -74.88749,-13.04131 -103.69037,-34.88349 -42.0842,-31.04311 -69.44694,-80.9681 -69.44694,-137.29373 0,-62.9663 34.08341,-117.93179 84.88849,-147.45475 0,0.48005 4.24042,-2.32023 4.24042,-1.84018 25.76258,-15.52155 51.76518,-21.20212 84.0084,-21.20212 94.64947,0 171.37714,76.72767 171.37714,171.37714 0,94.64946 -76.72767,171.29713 -171.37714,171.29713 z"
     id="path4"
     inkscape:connector-curvature="0" /></g>
</svg>