<?xml version="1.0" encoding="UTF-8"?>
<!-- Generator: Adobe Illustrator 25.0.1, SVG Export Plug-In . SVG Version: 6.00 Build 0)  -->
<svg version="1.1" id="Layer_1" xmlns="http://www.w3.org/2000/svg" xmlns:xlink="http://www.w3.org/1999/xlink" x="0px" y="0px" viewBox="0 0 1000 1000" style="enable-background:new 0 0 1000 1000;" xml:space="preserve"><script xmlns="" id="__gaOptOutExtension"/>
<g>
	<path d="M671.68,448.97C640.8,358.9,549.62,344.81,510.16,342.98c0,0-3.37-0.22-9.1-0.22c-0.07,0-0.07,0-0.15,0   c-0.07,0-0.07,0-0.15,0c-5.79,0-9.1,0.22-9.1,0.22c-39.39,1.83-130.64,15.92-161.44,105.99c-26.33,76.87,23.55,163.72,13.42,175.38   c-40.56,46.94,14.6,121.4,22.08,127.48c13.57,11.08,56.7-11.37,49.88,0.22c-5.13,8.8-9.9,75.33-9.9,75.33h17.75l3.45-23.18   l11.44-0.15l0.73,23.33h19.66l2.2-23.69l11.44,0.37l1.1,23.33h18.92l0.88-23.91h15.33l0.88,23.91h18.92l1.1-23.33l12.18-0.37   l2.2,23.69h18.92l0.73-23.33l11.44,0.15l3.45,23.18h17.75c0,0-4.77-66.53-9.9-75.33c-6.82-11.59,36.31,10.78,49.88-0.22   c7.56-6.16,62.64-80.54,22.08-127.48C648.13,612.62,697.94,525.77,671.68,448.97z M475.83,672.91   c-5.28,5.94-12.91,12.98-23.25,18.78c-24.87,14.01-49.51,12.03-59.49,10.64c-0.66-0.07-1.32-0.29-1.83-0.66   c-21.79-13.79-30.07-35.28-23.62-48.7c0.95-2.05,4.62-8.8,16.06-12.98c0.66-0.22,1.32-0.29,1.98-0.29   c13.79,1.25,30.88,3.96,49.81,9.9c15.33,4.77,28.39,10.56,39.1,16.14C477.22,667.12,477.81,670.64,475.83,672.91z M527.91,754.26   c-0.07,1.54-1.98,2.13-2.93,0.95c-2.35-3.01-5.57-6.45-9.9-9.61c-4.62-3.37-9.02-5.5-12.47-6.75c-3.37,1.25-7.85,3.37-12.47,6.75   c-4.33,3.15-7.56,6.6-9.9,9.61c-0.95,1.17-2.86,0.59-2.93-0.95c-0.73-11.37-0.22-34.62,16.87-51.49c2.2-2.2,5.06-4.11,8.44-5.94   c3.3,1.83,6.23,3.74,8.44,5.94C528.13,719.64,528.64,742.96,527.91,754.26z M611.24,701.67c-0.59,0.37-1.17,0.59-1.83,0.66   c-9.98,1.39-34.55,3.37-59.49-10.64c-10.34-5.79-17.97-12.84-23.25-18.78c-1.98-2.27-1.39-5.79,1.32-7.19   c10.71-5.57,23.77-11.37,39.1-16.14c19-5.94,36.09-8.66,49.81-9.9c0.66-0.07,1.32,0,1.98,0.29c11.37,4.18,15.04,11,16.06,12.98   C641.31,666.38,633.02,687.95,611.24,701.67z"/>
	<polygon points="245.95,866.33 245.95,324.82 138.39,324.82 4.87,866.33  "/>
	<polygon points="755.93,324.82 755.93,866.33 997.01,866.33 863.49,324.82  "/>
	<rect x="4.27" y="910.84" width="992.15" height="87.16"/>
	<polygon points="503.13,4 4.27,297.01 996.42,297.01  "/>
</g>
</svg>