<?xml version="1.0" encoding="UTF-8"?>
<!-- Generator: Adobe Illustrator 25.0.1, SVG Export Plug-In . SVG Version: 6.00 Build 0)  -->
<svg version="1.1" id="Layer_3_copy" xmlns="http://www.w3.org/2000/svg" xmlns:xlink="http://www.w3.org/1999/xlink" x="0px" y="0px" viewBox="0 0 1000 1000" style="enable-background:new 0 0 1000 1000;" xml:space="preserve"><script xmlns="" id="__gaOptOutExtension"/>
<g>
	<path d="M592.44,876.66c53.22,11.66,99.41,14.95,128.64-1.92c-58.13-25.44-107.57-57.47-145.92-97.92   c34.97,21.99,67.87,32.96,97.92,28.8c-43.75-22.87-66.39-66.32-80.64-144l122.88-46.08c21.08-25.19,25.54-60.27,19.2-101.76   c-23.67,20.77-48.46,33.78-47.61,5.38c-15.3,23.14-27.63,29.28-35.9,12.29c-18.47,21.52-32.66,24.31-43.2,11.14   c-40.32,1.92-61.44-80.64-7.68-103.68c-0.89-21.69,26.88-38.4,55.68-24.96c10.7-27.24,24.34-37.03,59.52-23.04   c28.8-30.72,11.52-163.2,3.84-163.2S675,239.23,675,239.23s-120.96,76.8-153.6,113.28c-9.6,1.92-24.96-24.96-36.48-21.12   c-11.52,3.84-188.15,122.88-188.15,122.88s21.12,26.88-3.84,36.48c-38.4,17.28-101.76-23.04-101.76-23.04   c-17.28,3.84-144,88.32-188.15,59.52C1.1,688.5,70.22,709.62,231.49,659.7c-84.09,57.05-158.34,73.12-220.79,90.24   c109.44,224.63,499.19,330.23,723.82,163.2C679.3,915.87,632.28,903.07,592.44,876.66z M483.01,461.95l-94.34-1.92l107.78-55.68   L483.01,461.95z"/>
	<path d="M594.36,5C371.69,5,191.17,185.51,191.17,408.19c0,14.62,0.8,29.06,2.32,43.28l0.56-0.12l5.36,3.4   c0.39,0.25,39.74,24.95,71.35,24.95c6.18,0,11.52-0.99,15.87-2.95l0.39-0.18l0.4-0.15c1.37-0.53,2.06-0.98,2.36-1.22   c0.15-2.24-2.32-7.84-5.08-11.44l-10.37-12.88l13.87-9.34c0.44-0.3,44.73-30.14,89.85-60.06c92.9-61.6,98.61-63.51,102.03-64.65   c2.32-0.77,4.75-1.16,7.22-1.16c11.68,0,20.61,8.32,28.49,15.66c0.77,0.72,1.67,1.56,2.59,2.39   c41.51-39.4,143.75-104.48,148.41-107.43l1.69-1.08l1.91-0.6c17.67-5.58,40.48-12.23,48.78-12.23c4.12,0,11.71,1.55,16.19,11.9   c5.53,12.76,10.47,49.01,11.25,82.52c1.1,47.41-5.65,79.25-20.07,94.63l-7.16,7.64l-9.72-3.87c-8.77-3.49-15.89-5.26-21.15-5.26   c-4.76,0-10.68,0-18.4,19.64l-5.98,15.22l-14.81-6.91c-4.81-2.24-9.64-3.38-14.38-3.38c-6.49,0-12.56,2.28-16.23,6.1   c-1.55,1.62-3.37,4.26-3.23,7.68l0.44,10.58l-9.73,4.17c-21.39,9.17-25.31,30.45-21.85,47.31c3.2,15.6,12.5,26.92,22.1,26.92   c0.22,0,0.43-0.01,0.65-0.02l7.83-0.37l4.9,6.12c1.28,1.6,2.17,2.14,2.4,2.2c0.05,0,5.48-0.16,17.15-13.75l15.23-17.74l9.58,19.67   c2.2-2.15,5.49-5.97,9.94-12.69l29.77-45.01l-1.57,52.53c4.59-2.32,11.91-7.03,22.09-15.96l21.08-18.5l4.23,27.73   c7.55,49.46,0.16,86.73-22.6,113.93l-2.6,3.1l-3.79,1.42L610,671.44c13.75,66.57,34.5,101.9,70.2,120.56l13.46,7.04   c174.66-44.24,303.9-202.45,303.9-390.85C997.55,185.51,817.04,5,594.36,5z"/>
</g>
</svg>