<?xml version="1.0" encoding="UTF-8" standalone="no"?>
<!-- Generator: Adobe Illustrator 24.3.0, SVG Export Plug-In . SVG Version: 6.00 Build 0)  -->

<svg
   xmlns:dc="http://purl.org/dc/elements/1.1/"
   xmlns:cc="http://creativecommons.org/ns#"
   xmlns:rdf="http://www.w3.org/1999/02/22-rdf-syntax-ns#"
   xmlns:svg="http://www.w3.org/2000/svg"
   xmlns="http://www.w3.org/2000/svg"
   xmlns:sodipodi="http://sodipodi.sourceforge.net/DTD/sodipodi-0.dtd"
   xmlns:inkscape="http://www.inkscape.org/namespaces/inkscape"
   version="1.1"
   x="0px"
   y="0px"
   viewBox="0 0 800.01617 800"
   xml:space="preserve"
   id="svg6"
   sodipodi:docname="Steel Confessors [Imperium, Adeptus Astartes, Adeptus Mechanicus, Space Marines, Iron Hands, Chapter].svg"
   width="800.01617"
   height="800"
   inkscape:version="0.92.3 (2405546, 2018-03-11)"><metadata
   id="metadata12"><rdf:RDF><cc:Work
       rdf:about=""><dc:format>image/svg+xml</dc:format><dc:type
         rdf:resource="http://purl.org/dc/dcmitype/StillImage" /><dc:title></dc:title></cc:Work></rdf:RDF></metadata><defs
   id="defs10" /><sodipodi:namedview
   pagecolor="#ffffff"
   bordercolor="#666666"
   borderopacity="1"
   objecttolerance="10"
   gridtolerance="10"
   guidetolerance="10"
   inkscape:pageopacity="0"
   inkscape:pageshadow="2"
   inkscape:window-width="1920"
   inkscape:window-height="1017"
   id="namedview8"
   showgrid="false"
   inkscape:pagecheckerboard="true"
   fit-margin-top="0"
   fit-margin-left="0"
   fit-margin-right="0"
   fit-margin-bottom="0"
   inkscape:zoom="0.236"
   inkscape:cx="-31.792373"
   inkscape:cy="494"
   inkscape:window-x="-8"
   inkscape:window-y="-8"
   inkscape:window-maximized="1"
   inkscape:current-layer="svg6" />
<g
   id="Layer_3"
   transform="matrix(0.8097166,0,0,0.8097166,-3.4412956,-4.8582996)">
</g>
<g
   id="Layer_4"
   transform="matrix(0.8097166,0,0,0.8097166,-3.4412956,-4.8582996)">
	<path
   d="m 937.01,370.69 v -74.85 c 0,-14.13 -11.45,-25.59 -25.59,-25.59 h -31.69 c -14.13,0 -25.59,11.45 -25.59,25.59 v 74.85 H 626.3 v -226.6 h 74.85 c 14.13,0 25.59,-11.45 25.59,-25.59 V 86.82 c 0,-14.13 -11.45,-25.59 -25.59,-25.59 H 626.3 V 6 H 368.94 v 55.24 h -76.1 c -14.13,0 -25.59,11.45 -25.59,25.59 v 31.69 c 0,14.13 11.45,25.59 25.59,25.59 h 76.1 v 226.6 h -226.6 v -74.85 c 0,-14.13 -11.45,-25.59 -25.59,-25.59 H 85.07 c -14.13,0 -25.59,11.45 -25.59,25.59 v 74.85 H 4.25 v 257.36 h 55.24 v 76.1 c 0,14.13 11.45,25.59 25.59,25.59 h 31.69 c 14.13,0 25.59,-11.45 25.59,-25.59 v -76.1 h 226.6 v 227.86 h -76.1 c -14.13,0 -25.59,11.45 -25.59,25.59 v 31.69 c 0,14.13 11.45,25.59 25.59,25.59 h 76.1 V 994 H 626.3 v -55.24 h 74.85 c 14.13,0 25.59,-11.45 25.59,-25.59 v -31.69 c 0,-14.13 -11.45,-25.59 -25.59,-25.59 H 626.3 V 628.05 h 227.86 v 76.1 c 0,14.13 11.45,25.59 25.59,25.59 h 31.69 c 14.13,0 25.59,-11.45 25.59,-25.59 v -76.1 h 55.24 V 370.69 Z M 342.13,594.16 c -43.43,0 -78.64,-35.21 -78.64,-78.64 v -31.03 c 0,-43.43 35.21,-78.64 78.64,-78.64 h 154.18 l -139.61,107.33 100.43,1.26 -40.9,79.72 z m 390.88,-78.64 c 0,43.43 -35.21,78.64 -78.64,78.64 H 472.86 l 173.31,-124.79 -113.71,-0.12 31.7,-63.4 h 90.21 c 43.43,0 78.64,35.21 78.64,78.64 z"
   id="path3"
   inkscape:connector-curvature="0" />
</g>
</svg>