<?xml version="1.0" encoding="UTF-8"?>
<!-- Generator: Adobe Illustrator 24.1.2, SVG Export Plug-In . SVG Version: 6.00 Build 0)  -->
<svg version="1.1" id="Layer_3" xmlns="http://www.w3.org/2000/svg" xmlns:xlink="http://www.w3.org/1999/xlink" x="0px" y="0px" viewBox="0 0 1000 1000" style="enable-background:new 0 0 1000 1000;" xml:space="preserve"><script xmlns="" id="__gaOptOutExtension"/>
<g>
	<path d="M746.4,134.69c-7.93,21.82-23.17,38.36-30.38,45.57c0,0-25.26,25.3-64.82,64.9c29.55,21.29,55.75,52.2,71.12,97l0.01,0.02   c1.01,2.96,1.94,5.93,2.78,8.9l81.12-80.6c7.21-7.21,23.75-22.43,45.57-30.38c44.43-16.17,100.75,46.04,102.05,47.8   c9.06-9.06,18.06-18.06,27.13-27.13l-127.6-127.62l-0.05-0.05L725.73,5.52c-9.06,9.06-18.06,18.06-27.13,27.13   C700.35,33.93,762.57,90.26,746.4,134.69z"/>
	<path d="M136.03,240.1c21.82,7.93,38.36,23.17,45.57,30.38c0,0,32.62,32.57,81.78,81.67c0.93-3.33,1.96-6.66,3.1-9.98   c13.73-40.16,37.33-72.47,70.34-96.48l-65-65.43c-7.21-7.21-22.43-23.75-30.38-45.57c-16.17-44.43,46.04-100.75,47.8-102.05   c-9.06-9.06-18.06-18.06-27.13-27.13l-127.6,127.6l-0.05,0.05L6.85,260.77c9.06,9.06,18.06,18.06,27.13,27.13   C35.26,286.14,91.6,223.93,136.03,240.1z"/>
	<path d="M239.86,855.1c8.02-27.78,29.73-48.38,35.06-53.29c17.66-17.85,38.1-38.5,59.69-60.29c-6.53-1.16-12.71-3.62-18.11-8.02   c-10.4-8.46-43.64-53.81-51.25-102.18c-38.8,38.74-68.09,67.96-80.55,80.28c-4.91,5.32-25.51,27.03-53.29,35.06   c-26.81,7.76-82.95-33.05-93.55-53.25L6.87,724.4L134.47,852l0.05,0.05l127.6,127.6l30.99-30.99   C272.9,938.05,232.1,881.89,239.86,855.1z"/>
	<path d="M950.01,693.37c-10.62,20.22-66.78,61.02-93.57,53.26c-27.78-8.02-48.38-29.73-53.29-35.06   c-23.11-22.84-50.86-50.35-79.78-79c-7.98,47.82-40.73,92.48-51.07,100.92c-5.71,4.64-12.31,7.1-19.26,8.17   c28.55,28.59,49.84,49.98,59.89,60.14c5.32,4.91,27.03,25.51,35.06,53.29c7.76,26.81-33.05,82.95-53.25,93.55l30.99,30.99   l127.6-127.6l0.05-0.05L981,724.37L950.01,693.37z"/>
	<path d="M249.6,131.31c6.64,18.24,19.08,33.11,28.36,42.39l35.41,35.64c41.08-26.32,88.29-43.91,139-50.19v-28.87h1.12   c0.58-21.89,18.5-39.46,40.52-39.46c22.03,0,39.94,17.57,40.52,39.46h0.03v28.74c50.99,6.15,98.46,23.73,139.77,50.12l35.41-35.46   c9.27-9.27,21.72-24.15,28.34-42.37c1.12-3.06,1.76-6.23,2.01-9.44c-70.5-46.9-155.13-74.24-246.16-74.24   c-91.1,0-175.8,27.38-246.33,74.36C247.85,125.16,248.49,128.28,249.6,131.31z"/>
	<path d="M739.49,857.14c-6.83-23.62-25.07-42.33-32.59-49.28l-0.15-0.13l-0.14-0.14c-6.61-6.68-17.8-17.93-32.51-32.69   c-18.32,11.68-37.85,21.63-58.36,29.63c-1.47-18.73-6.35-76.43-11.54-85.33c-8.25-14.03,43.95,13.05,60.38-0.26   c9.15-7.46,75.83-97.5,26.73-154.32c-12.24-14.2,48.05-119.34,16.26-212.31c-37.38-109.04-147.76-126.09-195.53-128.31   c0,0-4.09-0.26-11.01-0.26c-0.09,0-0.09,0-0.18,0c-0.09,0-0.09,0-0.18,0c-7.01,0-11.01,0.26-11.01,0.26   c-47.69,2.22-158.15,19.27-195.44,128.31c-31.88,93.06,28.51,198.2,16.25,212.31c-49.1,56.83,17.67,146.96,26.73,154.32   c16.43,13.4,68.64-13.77,60.38,0.26c-5.81,9.96-11.24,81.07-11.92,90.22c-25.54-8.71-49.7-20.41-72.04-34.7   c-11.27,11.38-22.25,22.48-32.54,32.88l-0.14,0.14l-0.15,0.14c-7.52,6.93-25.75,25.61-32.58,49.28c-0.5,1.73-0.7,3.76-0.61,6.05   c70.53,46.98,155.23,74.36,246.33,74.36c91.03,0,175.67-27.34,246.17-74.25C740.19,860.98,740,858.9,739.49,857.14z M643.63,583.5   c13.77,5.06,18.2,13.32,19.44,15.72c7.73,16.25-2.3,42.36-28.67,58.96c-0.71,0.45-1.42,0.71-2.22,0.8   c-12.08,1.69-41.82,4.09-72.02-12.88c-12.52-7.01-21.76-15.54-28.14-22.73c-2.4-2.75-1.69-7.01,1.6-8.7   c12.97-6.75,28.77-13.77,47.32-19.53c22.99-7.19,43.69-10.48,60.29-11.99C642.03,583.06,642.83,583.15,643.63,583.5z    M533.53,721.86c-0.09,1.86-2.4,2.58-3.55,1.15c-2.84-3.64-6.75-7.81-11.99-11.63c-5.59-4.09-10.93-6.66-15.09-8.17   c-4.09,1.51-9.5,4.09-15.09,8.17c-5.24,3.81-9.15,7.99-11.99,11.63c-1.15,1.42-3.46,0.71-3.55-1.15   c-0.89-13.77-0.26-41.91,20.42-62.34c2.66-2.66,6.13-4.98,10.21-7.19c4,2.22,7.55,4.53,10.21,7.19   C533.8,679.94,534.42,708.18,533.53,721.86z M453.18,386.1c-6.05,8.93-9.59,19.71-9.59,31.31c0,30.87,25.02,55.89,55.89,55.89   s55.89-25.02,55.89-55.89c0-11.6-3.54-22.38-9.59-31.31c53.49,15.9,91.79,53.23,91.79,53.23s-61.83,60.28-138.09,60.28   s-138.09-60.28-138.09-60.28S399.69,402.01,453.18,386.1z M370.32,658.98c-0.8-0.09-1.6-0.35-2.22-0.8   c-26.37-16.69-36.41-42.71-28.59-58.96c1.15-2.49,5.59-10.65,19.44-15.72c0.8-0.26,1.6-0.35,2.4-0.35   c16.69,1.51,37.38,4.8,60.29,11.99c18.55,5.78,34.36,12.79,47.32,19.53c3.21,1.69,3.92,5.95,1.52,8.7   c-6.39,7.19-15.63,15.72-28.14,22.73C412.23,663.06,382.4,660.67,370.32,658.98z M534.56,848.13h-0.03   c-0.58,21.89-18.5,39.46-40.52,39.46c-22.03,0-39.94-17.57-40.52-39.46h-1.12v-23.39c-22.01-2.73-43.35-7.59-63.82-14.36h13.21   l7.73-28.06l13.85-0.18l2.66,28.23h28.23l2.66-26.91l9.41-1.34l1.34,28.23h22.91l1.06-28.94h18.55l1.06,28.94h22.91l1.34-28.23   l9.41,1.34l2.66,26.91h28.23l2.66-28.23l13.85,0.18l7.68,27.88c-20.96,6.98-42.85,11.94-65.42,14.66V848.13z"/>
	<path d="M134.53,451.42v-0.03h26.55c6.13-50.86,23.64-98.22,49.92-139.46l-35.69-35.64c-9.27-9.27-24.15-21.72-42.37-28.34   c-2.96-1.08-6.12-1.75-9.42-2.02c-47.11,70.6-74.57,155.42-74.57,246.65c0,90.89,27.26,175.42,74.04,245.85   c0.3,0.01,0.61,0.03,0.91,0.03c1.88,0,3.56-0.21,4.99-0.62c23.62-6.83,42.33-25.07,49.28-32.59l0.14-0.15l0.14-0.14   c6.21-6.14,16.79-16.66,32.8-32.62c-26.23-41.03-43.78-88.15-50.05-138.77h-26.68v-1.12c-21.89-0.58-39.46-18.5-39.46-40.52   C95.07,469.92,112.64,452,134.53,451.42z"/>
	<path d="M852.39,532.47v1.12H826.8c-6.28,50.74-23.89,97.96-50.23,139.06c11.58,11.47,22.55,22.33,32.65,32.31l0.15,0.14l0.14,0.15   c6.93,7.52,25.61,25.75,49.28,32.58c1.43,0.41,3.1,0.62,4.99,0.62c0.35,0,0.73-0.03,1.1-0.04   c46.77-70.43,74.02-154.94,74.02-245.82c0-91.24-27.47-176.06-74.57-246.65c-3.36,0.26-6.58,0.93-9.59,2.03   c-18.24,6.64-33.11,19.08-42.39,28.36l-35.52,35.29c26.39,41.3,43.97,88.78,50.12,139.77h25.46v0.03   c21.89,0.58,39.46,18.5,39.46,40.52C891.85,513.97,874.28,531.88,852.39,532.47z"/>
</g>
</svg>