<?xml version="1.0" encoding="UTF-8" standalone="no"?>
<!-- Created with Inkscape (http://www.inkscape.org/) -->

<svg
   xmlns:dc="http://purl.org/dc/elements/1.1/"
   xmlns:cc="http://creativecommons.org/ns#"
   xmlns:rdf="http://www.w3.org/1999/02/22-rdf-syntax-ns#"
   xmlns:svg="http://www.w3.org/2000/svg"
   xmlns="http://www.w3.org/2000/svg"
   xmlns:sodipodi="http://sodipodi.sourceforge.net/DTD/sodipodi-0.dtd"
   xmlns:inkscape="http://www.inkscape.org/namespaces/inkscape"
   width="215"
   height="215"
   viewBox="0 0 56.885415 56.885418"
   version="1.1"
   id="svg8"
   inkscape:version="0.92.3 (2405546, 2018-03-11)"
   sodipodi:docname="death.svg">
  <defs
     id="defs2" />
  <sodipodi:namedview
     id="base"
     pagecolor="#ffffff"
     bordercolor="#666666"
     borderopacity="1.0"
     inkscape:pageopacity="0.0"
     inkscape:pageshadow="2"
     inkscape:zoom="1.4142136"
     inkscape:cx="25.522205"
     inkscape:cy="276.28314"
     inkscape:document-units="px"
     inkscape:current-layer="layer1"
     showgrid="false"
     units="px"
     inkscape:window-width="1920"
     inkscape:window-height="1017"
     inkscape:window-x="-8"
     inkscape:window-y="-8"
     inkscape:window-maximized="1" />
  <metadata
     id="metadata5">
    <rdf:RDF>
      <cc:Work
         rdf:about="">
        <dc:format>image/svg+xml</dc:format>
        <dc:type
           rdf:resource="http://purl.org/dc/dcmitype/StillImage" />
        <dc:title></dc:title>
      </cc:Work>
    </rdf:RDF>
  </metadata>
  <g
     inkscape:label="Layer 1"
     inkscape:groupmode="layer"
     id="layer1"
     transform="translate(0,-240.11457)">
    <path
       style="fill:#000000;stroke-width:0.09232918"
       d="m 34.930601,294.33706 c -0.0031,-0.16596 0.05453,-0.26694 0.174816,-0.30613 0.09872,-0.0322 0.202173,-0.13183 0.229888,-0.2215 0.101783,-0.32931 1.189437,-1.27658 1.88866,-1.64489 0.493252,-0.25982 0.899342,-0.79578 1.088924,-1.43716 0.195845,-0.66255 0.539438,-2.39478 0.537853,-2.71156 -0.0011,-0.23979 0.146505,-0.79816 0.257696,-0.97418 0.129062,-0.20431 0.443021,0.0258 0.57286,0.41998 0.152649,0.46336 0.349166,0.66776 0.638297,0.66393 0.392885,-0.005 0.66906,-0.21144 0.824339,-0.61556 0.08051,-0.20953 0.200549,-0.4465 0.26676,-0.52662 0.06621,-0.0801 0.158068,-0.4271 0.204129,-0.77107 0.04606,-0.34398 0.140057,-0.85651 0.208886,-1.13896 0.06883,-0.28244 0.169788,-0.90859 0.224359,-1.39144 0.09695,-0.85777 0.305747,-1.71714 0.459094,-1.88952 0.0438,-0.0492 0.175723,0.1278 0.307872,0.41316 0.127172,0.27463 0.313963,0.61865 0.415089,0.76449 l 0.183864,0.26516 0.212998,-0.40666 c 0.201676,-0.38506 0.212129,-0.49743 0.196696,-2.11469 -0.01849,-1.93877 -0.130193,-2.73082 -0.590962,-4.19067 -0.265523,-0.84127 -0.322837,-1.16603 -0.328322,-1.86049 -0.0058,-0.7244 0.03113,-0.93497 0.265293,-1.51521 0.149568,-0.37064 0.308223,-0.90731 0.35257,-1.1926 0.04434,-0.28528 0.125791,-0.63876 0.180999,-0.78551 0.05521,-0.14674 0.141922,-0.459 0.192699,-0.69389 0.10157,-0.46988 0.610018,-1.58526 0.723024,-1.58612 0.03918,-2.6e-4 0.208195,-0.24681 0.375592,-0.54781 0.167396,-0.301 0.757684,-1.03814 1.311754,-1.63809 0.819615,-0.8875 1.212884,-1.22721 2.109835,-1.82253 1.259909,-0.83622 2.180193,-1.72125 2.332172,-2.24284 0.08583,-0.29457 0.311055,-0.53769 0.499436,-0.53911 0.02676,-2e-4 0.09564,0.16895 0.153051,0.37589 0.111709,0.40269 0.0668,0.78358 -0.148117,1.25619 -0.338066,0.74343 0.08242,0.97828 0.797163,0.44524 0.554398,-0.41346 0.69246,-0.74525 0.827482,-1.98865 0.110263,-1.01536 0.02048,-1.79249 -0.272613,-2.35989 -0.163404,-0.31633 -0.681969,-0.96742 -1.107755,-1.39086 -0.347681,-0.34577 -0.587455,-0.815 -0.980535,-1.9189 -0.241896,-0.67932 -0.305523,-1.0226 -0.353714,-1.90835 -0.08066,-1.48248 0.05719,-2.30774 0.552678,-3.30879 0.513969,-1.03839 0.784277,-1.29464 1.44263,-1.36763 l 0.509259,-0.0565 -0.04789,0.26611 c -0.02635,0.14636 -0.139483,0.39144 -0.251431,0.54464 -0.453141,0.62009 -0.498901,0.81339 -0.497289,2.10068 7.93e-4,0.67486 0.04937,1.45492 0.107825,1.73347 0.103921,0.49519 0.666708,1.47283 0.847053,1.47147 0.04896,-2.7e-4 0.150302,0.11312 0.225206,0.2522 0.07491,0.13909 0.275285,0.39726 0.445288,0.57371 0.439166,0.45582 1.008295,1.20697 1.00924,1.33202 2.65e-4,0.0583 0.123145,0.28877 0.272677,0.51217 0.149534,0.2234 0.335709,0.61344 0.413726,0.86677 0.07801,0.25332 0.282763,0.89579 0.454999,1.4277 0.295045,0.91118 0.315796,1.05995 0.358788,2.57255 0.02508,0.88298 0.02204,1.7366 -0.0068,1.89692 -0.02882,0.16032 -0.193845,0.51472 -0.366715,0.78756 -0.172874,0.27284 -0.340612,0.62545 -0.372751,0.78357 -0.03214,0.15813 -0.132053,0.37116 -0.22203,0.4734 -0.506672,0.57576 -0.705062,1.42271 -0.445027,1.89987 0.09242,0.16959 0.110049,0.17003 0.522825,0.0131 0.365961,-0.13917 0.482912,-0.25357 0.816084,-0.79833 0.321675,-0.52596 0.703963,-0.89586 0.927608,-0.89756 0.08054,-7.9e-4 -0.03259,0.96046 -0.184936,1.57104 -0.495448,1.98575 -0.827813,2.80364 -1.491375,3.66997 -0.112466,0.14683 -0.315044,0.4415 -0.450178,0.65482 -0.135128,0.21332 -1.018706,1.18533 -1.963499,2.16003 -0.944798,0.97469 -1.717569,1.80464 -1.717268,1.84433 2.65e-4,0.0397 -0.07642,0.2184 -0.170481,0.39714 -0.194808,0.37017 -0.229156,0.72027 -0.21725,2.21435 0.009,1.12204 0.101304,1.99415 0.233458,2.20441 0.12309,0.19583 0.550926,0.0425 0.653786,-0.23436 0.04796,-0.12908 0.11168,-0.65715 0.141597,-1.17349 0.04287,-0.73988 0.10737,-1.05705 0.304432,-1.49691 0.210566,-0.47001 0.572281,-0.88263 0.679831,-0.77551 0.01617,0.0161 0.05123,1.06783 0.07794,2.33719 l 0.04857,2.30793 -0.282512,0.50996 c -0.155382,0.28048 -0.377457,0.75998 -0.493503,1.06555 -0.116044,0.30557 -0.287251,0.66004 -0.380458,0.7877 -0.09321,0.12766 -0.375409,0.55082 -0.62711,0.94036 -0.315778,0.48871 -0.740371,0.95871 -1.36973,1.51623 -0.928216,0.82226 -1.099653,1.09175 -0.912725,1.43477 0.159033,0.29182 0.506008,0.23766 0.874564,-0.13652 0.176388,-0.17907 0.354233,-0.32584 0.395214,-0.32616 0.0981,-7.9e-4 1.460537,-1.39622 1.997964,-2.04641 0.232317,-0.28107 0.49915,-0.65703 0.592963,-0.83548 l 0.170574,-0.32445 0.0073,0.42649 c 0.004,0.23457 -0.07382,0.68723 -0.172972,1.00591 -0.09915,0.31867 -0.178734,0.78319 -0.17685,1.03226 0.0019,0.24907 -0.05301,0.54531 -0.121975,0.6583 -0.06898,0.113 -0.170471,0.39996 -0.225552,0.63769 -0.05508,0.23774 -0.185987,0.57113 -0.290904,0.74086 -1.113611,1.8016 -1.058056,1.73745 -1.809962,2.09009 -1.568212,0.73548 -1.836537,0.79471 -3.377806,0.74569 -0.784625,-0.025 -1.525831,-0.0959 -1.709378,-0.16356 -1.359027,-0.5011 -1.698397,-0.5457 -4.018936,-0.52814 -2.132679,0.0161 -2.230668,0.0248 -2.566689,0.22683 -0.192148,0.11553 -0.523607,0.23878 -0.736581,0.2739 -0.47792,0.0788 -1.082768,0.33639 -1.472105,0.62692 -0.161798,0.12073 -0.448119,0.29108 -0.636267,0.37854 -0.188153,0.0875 -0.383167,0.23073 -0.433361,0.31836 -0.07734,0.13503 -0.09198,0.12155 -0.09595,-0.0883 z m 11.849238,-5.98323 c 0.237988,-0.29096 0.541235,-0.50351 1.097897,-0.76952 0.752379,-0.35955 0.774845,-0.37994 1.033957,-0.93855 0.145677,-0.31405 0.264329,-0.64629 0.263671,-0.7383 -7.94e-4,-0.092 0.102753,-0.39138 0.229795,-0.66528 0.221285,-0.47705 0.226965,-0.5341 0.135113,-1.3572 -0.05273,-0.47256 -0.152766,-0.98342 -0.22229,-1.13525 -0.197866,-0.43209 -0.781476,-1.27633 -1.144117,-1.65506 -0.3269,-0.3414 -0.335174,-0.34406 -0.897522,-0.28878 -0.769501,0.0756 -1.501092,0.46497 -1.888673,1.00506 -0.164507,0.22924 -0.454144,0.62474 -0.643638,0.87888 -0.303329,0.40682 -0.341837,0.51754 -0.321966,0.92576 0.01244,0.25502 -0.03989,0.73804 -0.116237,1.07339 -0.135292,0.59431 -0.133355,0.62114 0.07661,1.06124 0.228126,0.47818 0.270758,0.97858 0.146875,1.7241 -0.09518,0.57284 0.142301,1.15087 0.504172,1.22713 0.131662,0.0278 0.281048,0.0662 0.331975,0.0855 0.05093,0.0193 0.316018,0.0202 0.589087,0.002 0.458343,-0.0306 0.521753,-0.064 0.825296,-0.43509 z m -1.042286,-1.03105 c -0.226441,-0.16315 -0.240808,-0.79304 -0.0218,-0.95574 0.239543,-0.17795 0.885518,-0.26804 0.96905,-0.13515 0.05588,0.0889 -0.178337,0.9567 -0.288372,1.06841 -0.110244,0.11193 -0.515533,0.12576 -0.658879,0.0225 z m 1.172657,-1.15679 c -0.235172,-0.23164 -0.139705,-0.68394 0.183153,-0.86776 0.746418,-0.42498 1.416222,-0.21969 1.292383,0.39611 -0.08375,0.41642 -0.199226,0.49709 -0.800481,0.55918 -0.407172,0.042 -0.564168,0.0217 -0.675055,-0.0875 z m -1.892853,-1.07179 c -0.176546,-0.20948 -0.234299,-0.8229 -0.08898,-0.94512 0.144132,-0.12121 0.784564,0.13998 0.982522,0.40071 0.124235,0.16363 0.07,0.48834 -0.100647,0.60262 -0.176747,0.11837 -0.674899,0.0818 -0.792893,-0.0582 z m 2.740353,-5.88894 c 0.08253,-0.14636 0.358783,-0.37387 0.6139,-0.50558 0.255114,-0.13171 0.512349,-0.33338 0.571632,-0.44816 0.05928,-0.11478 0.204592,-0.32687 0.322911,-0.47132 0.126563,-0.1545 0.214209,-0.38353 0.212899,-0.55633 -0.0019,-0.24859 0.337447,-1.0668 0.533146,-1.28555 0.03266,-0.0365 0.369922,-0.13266 0.749459,-0.21366 0.843016,-0.17992 1.132665,-0.46112 1.289735,-1.25216 0.05633,-0.28366 0.168789,-0.70323 0.249915,-0.93236 0.108612,-0.30677 0.144442,-0.73305 0.135903,-1.61683 -0.01082,-1.12022 -0.02823,-1.23088 -0.260963,-1.66 -0.473578,-0.87317 -1.834439,-1.9565 -2.557542,-2.03599 -0.518536,-0.057 -1.396053,0.12881 -1.951972,0.41332 -0.246134,0.12597 -0.483018,0.23088 -0.526407,0.23314 -0.04339,0.002 -0.190923,0.15918 -0.32785,0.34872 -0.136925,0.18955 -0.331703,0.44912 -0.43284,0.57685 -0.200457,0.25316 -0.613879,1.75285 -0.726924,2.63695 -0.214096,1.67437 -0.228566,1.47909 0.134535,1.81616 0.531289,0.4932 0.574093,0.63931 0.548402,1.87195 -0.0127,0.60949 -0.02442,1.25733 -0.02604,1.43966 -0.0021,0.22161 0.09523,0.48198 0.29323,0.78545 0.19346,0.29653 0.278881,0.52219 0.246313,0.65069 -0.06838,0.26982 0.248132,0.57272 0.538147,0.515 0.1212,-0.0241 0.287888,-0.1636 0.370417,-0.30995 z m -0.03843,-2.70366 c -0.147188,-0.0727 -0.229857,-0.18916 -0.22665,-0.31942 0.03315,-1.34835 0.01167,-1.25353 0.334814,-1.47712 0.166963,-0.11552 0.391936,-0.21071 0.499936,-0.21153 0.162555,-0.001 0.207875,0.0715 0.263207,0.42236 0.08366,0.53049 2.52e-4,1.32914 -0.154281,1.47722 -0.195141,0.18699 -0.472861,0.22901 -0.717026,0.10849 z m 1.74562,-2.14299 c -0.318008,-0.50594 -0.265707,-0.74275 0.214929,-0.97312 0.888828,-0.42605 1.609183,-0.18719 1.486893,0.49302 -0.09728,0.54116 -0.403691,0.78125 -1.002824,0.78579 -0.47317,0.004 -0.51653,-0.0154 -0.698998,-0.30569 z m -2.487914,-0.753 c -0.403418,-0.0466 -0.532299,-0.31942 -0.428926,-0.90781 l 0.07729,-0.43994 0.646457,0.0177 c 0.355552,0.01 0.682577,0.0525 0.726728,0.0951 0.04415,0.0426 0.102391,0.2611 0.129426,0.48568 0.04367,0.36273 0.02101,0.4308 -0.202938,0.60972 -0.247478,0.19772 -0.334306,0.21049 -0.948039,0.13952 z m -14.686235,19.40773 c -0.03448,-0.0879 -0.03959,-0.9309 -0.01135,-1.8734 0.04635,-1.54615 0.03583,-1.72894 -0.107632,-1.87024 -0.226018,-0.22262 -0.668661,-0.1994 -0.79537,0.0417 -0.05616,0.10686 -0.134252,0.57488 -0.173548,1.04005 -0.0888,1.05107 -0.36981,2.11245 -0.628957,2.37555 -0.10804,0.10969 -0.21876,0.17745 -0.246041,0.15058 -0.02729,-0.0269 -0.0848,-0.47656 -0.12782,-0.9993 -0.09989,-1.2137 -0.415867,-2.17728 -0.778695,-2.37462 -0.542645,-0.29513 -0.788541,0.24372 -0.788525,1.72798 5e-6,1.05904 -0.03881,1.23124 -0.277937,1.23305 -0.18035,10e-4 -0.64956,-0.84724 -0.652074,-1.17933 -0.0024,-0.30684 -0.478517,-1.80551 -0.617987,-1.94492 -0.114755,-0.1147 -0.180226,-0.0792 -0.497634,0.26989 l -0.365495,0.40196 0.176575,0.3776 c 0.09712,0.20768 0.157205,0.40948 0.133527,0.44844 -0.09478,0.15599 -0.490521,0.0681 -0.597794,-0.13271 -0.06078,-0.1138 -0.268716,-0.40413 -0.462076,-0.64519 -0.226068,-0.28184 -0.373272,-0.57736 -0.412377,-0.82787 -0.03345,-0.21427 -0.122436,-0.65918 -0.19775,-0.9887 -0.07531,-0.32951 -0.227581,-1.09703 -0.338373,-1.70558 -0.110794,-0.60855 -0.259006,-1.31377 -0.329358,-1.56715 -0.07036,-0.25337 -0.287174,-1.11544 -0.481817,-1.91569 -0.352364,-1.44871 -0.355759,-1.45677 -0.783609,-1.86281 -1.023109,-0.97096 -1.716659,-0.8537 -2.343854,0.39627 -0.350077,0.69768 -0.683865,0.65058 -1.373323,-0.19377 -0.738706,-0.90468 -1.384273,-1.79735 -1.385166,-1.91539 -4.23e-4,-0.0572 -0.07935,-0.18705 -0.175368,-0.28857 -0.312853,-0.33075 -0.584656,-1.07131 -0.771494,-2.10201 -0.2051,-1.13145 -0.178831,-1.36048 0.251659,-2.19411 0.392209,-0.75949 0.540292,-2.23027 0.331895,-3.29639 -0.603014,-3.08489 -0.619327,-3.37389 -0.203262,-3.60062 0.174059,-0.0949 1.145578,0.17387 1.405945,0.38889 0.07665,0.0633 0.389684,0.24977 0.695625,0.41437 0.550056,0.29594 1.067058,0.60533 1.544289,0.92416 0.135241,0.0904 0.364529,0.19152 0.509526,0.22482 0.144997,0.0333 0.743241,0.29735 1.329431,0.58679 0.58619,0.28943 1.295908,0.58862 1.577152,0.66485 0.296106,0.0803 0.66933,0.27178 0.886653,0.45497 0.216956,0.18288 0.52877,0.34299 0.739048,0.37948 0.200062,0.0347 0.477197,0.11948 0.615855,0.18833 0.236381,0.11739 0.262244,0.10948 0.414536,-0.12673 0.143004,-0.22181 0.163573,-0.53393 0.172034,-2.61062 0.0058,-1.41973 0.04902,-2.46181 0.108612,-2.61771 0.165113,-0.43199 0.553368,-0.57876 1.510342,-0.57095 1.138783,0.009 1.337019,0.1177 1.599002,0.87436 0.111371,0.32167 0.198387,0.74911 0.19337,0.94988 -0.02103,0.84245 0.06033,3.44292 0.11965,3.82313 0.05942,0.38079 0.08957,0.41742 0.402466,0.48883 0.275929,0.063 0.445775,0.0312 0.922012,-0.17236 0.32108,-0.13726 0.717365,-0.28425 0.880637,-0.32665 0.163271,-0.0424 0.473839,-0.18123 0.690155,-0.30852 0.21631,-0.12729 0.670319,-0.32482 1.008904,-0.43896 0.338587,-0.11413 0.793874,-0.34574 1.011756,-0.51468 0.217881,-0.16894 0.499763,-0.34044 0.626411,-0.38111 0.126654,-0.0407 0.589243,-0.25417 1.027981,-0.47443 0.43874,-0.22026 0.893101,-0.43155 1.009689,-0.46953 0.116586,-0.038 0.419764,-0.20733 0.67372,-0.37634 0.592661,-0.39442 1.07742,-0.45922 1.232154,-0.1647 0.156501,0.29789 -0.02503,1.94916 -0.315029,2.86548 -0.460725,1.45581 -0.485815,3.59356 -0.04723,4.02392 0.491598,0.48238 0.655812,0.8278 0.700767,1.47408 0.04157,0.59755 0.01484,0.70788 -0.478152,1.97388 -0.357603,0.91833 -0.654804,1.51808 -0.942986,1.90296 -0.231444,0.30912 -0.490145,0.67094 -0.574894,0.80406 -0.255209,0.40086 -0.35691,0.48633 -0.54501,0.45803 -0.133996,-0.0202 -0.247872,-0.21995 -0.448426,-0.78675 -0.34938,-0.98741 -0.49279,-1.18901 -0.93806,-1.31876 -0.541742,-0.15785 -0.930404,-0.0185 -1.135398,0.40705 -0.295336,0.61312 -0.524904,1.58128 -0.650052,2.74154 -0.06767,0.6274 -0.183539,1.38167 -0.257477,1.67617 -0.07589,0.30225 -0.111617,0.71089 -0.08205,0.93829 0.04826,0.37113 -0.206502,1.84567 -0.47707,2.76133 -0.05264,0.17813 -0.193787,0.72207 -0.313659,1.20874 -0.119874,0.48667 -0.300111,1.06973 -0.400531,1.29568 -0.100423,0.22595 -0.231119,0.59792 -0.290441,0.82661 -0.129503,0.49923 -0.425114,1.11171 -0.536975,1.11256 -0.04431,2.6e-4 -0.108783,-0.0713 -0.143269,-0.15916 z m -2.673467,-11.86932 c 1.038225,0.0763 1.145995,-0.0882 0.784513,-1.19741 -0.114072,-0.35002 -0.186687,-0.70342 -0.161367,-0.78534 0.02529,-0.0819 -0.01468,-0.45494 -0.08888,-0.82894 -0.111244,-0.56073 -0.190963,-0.73523 -0.454478,-0.99478 l -0.319571,-0.31477 -0.355867,0.17166 c -0.461566,0.22265 -0.741942,0.65712 -0.813801,1.26103 -0.03169,0.2663 -0.135935,0.72384 -0.231663,1.01677 -0.207661,0.63544 -0.220282,1.33971 -0.02883,1.6087 0.124053,0.17429 0.179703,0.18491 0.531678,0.10149 0.216215,-0.0512 0.728435,-0.0685 1.138264,-0.0384 z m 6.081059,-4.64495 c 0.70449,-0.69887 0.817605,-0.928 0.84941,-1.72062 0.02564,-0.63968 0.0131,-0.69151 -0.204705,-0.84295 -0.205537,-0.14294 -0.326904,-0.15045 -1.062313,-0.0658 -0.914646,0.10534 -1.164675,0.21192 -1.935702,0.82514 -0.379921,0.30215 -0.662189,0.44419 -1.037558,0.5221 -0.435759,0.0905 -0.541073,0.15335 -0.679712,0.40599 l -0.164061,0.29895 0.295294,0.15528 c 0.162412,0.0854 0.453488,0.30989 0.646837,0.49887 0.193347,0.18897 0.363615,0.34858 0.378368,0.35469 0.105574,0.0437 2.013603,0.12252 2.197224,0.0907 0.126791,-0.022 0.449403,-0.25704 0.716918,-0.52242 z m -10.58907,0.0696 c 1.054793,-0.1964 1.487522,-0.46662 1.378836,-0.86103 -0.07042,-0.25556 -0.09932,-0.27353 -1.495502,-0.92985 -3.00496,-1.41259 -3.174476,-1.46327 -3.642897,-1.08904 -0.204552,0.16343 -0.241271,0.26549 -0.238268,0.6623 0.0068,0.89829 0.587719,1.72255 1.54001,2.1851 0.447069,0.21715 1.398577,0.22974 2.457821,0.0325 z M 10.26141,292.5154 C 8.9593658,292.4633 8.896515,292.4512 7.9970735,292.07943 6.922967,291.63539 6.4614212,291.24968 6.1266921,290.51635 6.001409,290.24188 5.753057,289.84205 5.574799,289.62784 c -0.1782582,-0.21421 -0.3245786,-0.45191 -0.3251557,-0.52822 -5.821e-4,-0.0763 -0.085436,-0.48417 -0.1885738,-0.90635 -0.2328074,-0.95298 -0.3771429,-2.30214 -0.2761777,-2.58156 l 0.075809,-0.20979 0.233399,0.27149 c 0.128369,0.14933 0.2995497,0.41642 0.3804008,0.59355 0.080851,0.17713 0.5501171,0.69913 1.0428131,1.16 0.4926957,0.46088 0.9795251,0.9193 1.0818424,1.01872 0.2904157,0.28218 0.7188348,0.33683 0.9150279,0.11671 0.215805,-0.24212 0.1846112,-0.28835 -0.9933864,-1.47216 -0.7554965,-0.75923 -1.0678821,-1.15044 -1.3338709,-1.67046 -0.1910321,-0.37348 -0.4833208,-0.82808 -0.6495291,-1.01024 -0.174058,-0.19075 -0.3936429,-0.60018 -0.5178579,-0.96556 -0.1186129,-0.34891 -0.3022594,-0.79827 -0.4081028,-0.99858 -0.1327439,-0.25122 -0.1932967,-0.53719 -0.1951953,-0.92184 -0.00387,-0.78499 0.2471028,-3.64369 0.3270181,-3.72482 0.1125956,-0.11432 0.596896,0.50322 0.6464827,0.82433 0.3488703,2.25922 0.5129027,2.93174 0.7147001,2.93021 0.1398392,-10e-4 0.4506045,-0.44491 0.5108975,-0.72969 0.064914,-0.30661 -0.1887419,-2.21523 -0.3990224,-3.00241 -0.1678781,-0.62845 -0.3535495,-1.0973 -0.5036772,-1.27186 -0.055216,-0.0642 -0.1941423,-0.24668 -0.3087254,-0.40551 -0.6349666,-0.88017 -0.9651495,-1.277 -1.9943874,-2.39699 -1.0682928,-1.16248 -1.6011297,-1.91452 -2.2274194,-3.14378 -0.35771109,-0.7021 -0.79402119,-1.7654 -0.79571609,-1.93919 -7.673e-4,-0.0796 -0.085865,-0.4529 -0.1890848,-0.82956 -0.1895052,-0.6915 -0.2663463,-1.83837 -0.1232456,-1.83946 0.042629,-2.6e-4 0.1256179,0.10293 0.1844204,0.22944 0.058802,0.12651 0.1493515,0.2297 0.2012196,0.22931 0.051868,-2.7e-4 0.094735,0.0559 0.095258,0.12518 5.292e-4,0.0692 0.099977,0.22431 0.2210062,0.34458 0.1210294,0.12026 0.31178819,0.39623 0.42390859,0.61326 0.3070148,0.59426 0.8259807,0.73361 1.2742002,0.34213 0.2515823,-0.21974 0.2538291,-0.23108 0.1328368,-0.67042 -0.067691,-0.24579 -0.1988873,-0.52941 -0.2915479,-0.63028 -0.092661,-0.10086 -0.3868147,-0.62792 -0.6536745,-1.17125 l -0.4852006,-0.98786 -0.015192,-2.48472 c -0.00836,-1.3666 0.011467,-2.56175 0.044051,-2.65591 0.032586,-0.0941 0.1299659,-0.25482 0.2164016,-0.35704 0.086436,-0.10222 0.2304225,-0.39415 0.3199691,-0.64874 0.2748786,-0.7815 0.9604807,-1.96332 1.410489,-2.43134 0.7115596,-0.74005 1.4753771,-1.70624 1.6285764,-2.06007 0.1185095,-0.2737 0.1386776,-0.65632 0.1118063,-2.12115 -0.032282,-1.75969 -0.036724,-1.79409 -0.2887385,-2.23457 -0.2304426,-0.40278 -0.2418927,-0.46165 -0.1148802,-0.5906 0.4034044,-0.40955 1.2924552,0.29279 1.9669183,1.55385 l 0.3934677,0.73568 0.046413,1.36481 c 0.050485,1.48455 -0.055,2.54058 -0.3269186,3.27286 -0.2294745,0.61797 -0.9073322,1.59281 -1.509875,2.17136 -0.5425025,0.52091 -0.63061,0.70206 -0.7655081,1.5739 -0.1238494,0.80043 -0.1111637,1.45575 0.044531,2.3004 0.1533083,0.8317 0.3547033,1.24222 0.6943066,1.41526 0.1393296,0.071 0.4754941,0.33922 0.7470323,0.59606 0.4424335,0.4185 0.5362897,0.46667 0.903746,0.46389 0.373181,-0.003 0.4098864,-0.0234 0.4083341,-0.22847 -9.525e-4,-0.12395 -0.044421,-0.25132 -0.09663,-0.28305 -0.052208,-0.0317 -0.2206585,-0.32949 -0.3743346,-0.66171 -0.3080866,-0.66602 -0.3501395,-1.15393 -0.1963372,-2.27798 0.1148583,-0.83943 0.2503927,-1.11915 0.5433399,-1.12137 0.222677,-0.002 0.2331611,0.0271 0.349051,0.95935 0.1800794,1.44855 0.3352665,1.69786 1.8970157,3.04753 0.7124174,0.61568 1.4737167,1.21833 1.6917727,1.33925 0.806777,0.44734 1.424576,1.23335 2.382976,3.03178 0.276409,0.51868 0.577511,0.98244 0.669113,1.03058 0.227047,0.11931 0.632647,1.4131 0.766069,2.44362 0.160605,1.24048 0.0066,2.71933 -0.452253,4.34302 -0.346521,1.22618 -0.3696,1.38921 -0.431811,3.05022 -0.07288,1.94582 -0.02321,2.71435 0.207836,3.2159 l 0.154888,0.33623 0.406594,-0.568 0.406595,-0.56799 0.21388,0.26317 c 0.117635,0.14474 0.214444,0.31034 0.215132,0.36798 6.88e-4,0.0576 0.06183,0.30647 0.135879,0.55296 0.193571,0.64437 0.351476,1.60088 0.440213,2.66658 0.124078,1.49014 0.516391,2.16112 1.260277,2.15549 0.51456,-0.004 0.695993,-0.22877 0.691241,-0.85676 -0.0019,-0.2426 0.03859,-0.44141 0.08983,-0.44179 0.05124,-2.7e-4 0.224534,0.12295 0.385096,0.27408 0.16056,0.15113 0.32247,0.27455 0.359798,0.27427 0.112391,-7.9e-4 0.191231,0.448 0.283439,1.61367 0.04818,0.60902 0.140423,1.29388 0.204993,1.52192 0.06457,0.22803 0.155377,0.56986 0.201793,0.75963 0.05309,0.21705 0.290929,0.57418 0.641252,0.96286 0.473633,0.5255 0.532546,0.62767 0.394179,0.6836 -0.08947,0.0362 -1.20131,0.0792 -2.470748,0.0955 -1.269439,0.0163 -2.660921,0.072 -3.092182,0.12354 -1.12266,0.13428 -3.15411,0.18905 -4.707963,0.12693 z m 2.081694,-4.4421 c 0.438976,-0.12639 0.588374,-0.48168 0.606145,-1.44152 0.0089,-0.48234 0.03561,-0.90968 0.0593,-0.94965 0.02368,-0.04 0.13094,-0.37747 0.23835,-0.75002 0.308936,-1.07152 0.08145,-2.08939 -0.676042,-3.02484 -0.157924,-0.19503 -0.363154,-0.49944 -0.456065,-0.67648 -0.336948,-0.64202 -0.934721,-0.94523 -2.048139,-1.03888 -0.7602125,-0.0639 -0.8801349,0.0196 -1.5934452,1.10939 l -0.5141021,0.78547 -0.00514,1.1432 c -0.00456,1.01274 0.01742,1.18079 0.1925757,1.47258 0.1087453,0.18117 0.1771062,0.41072 0.1519123,0.51013 -0.027051,0.10674 0.062213,0.345 0.2180143,0.58192 0.1451018,0.22065 0.3140665,0.51264 0.3754777,0.64888 0.081925,0.18174 0.2181328,0.27377 0.5115226,0.34561 0.8940967,0.21892 1.0396957,0.30363 1.2467187,0.7253 0.109367,0.22276 0.274912,0.45976 0.367877,0.52667 0.174946,0.1259 0.93547,0.14441 1.325048,0.0322 z m -1.164818,-1.61285 c -0.09608,-0.37088 0.01677,-0.67096 0.271364,-0.72163 0.375723,-0.0748 0.463354,0.0418 0.371844,0.49477 -0.06921,0.34258 -0.117834,0.40596 -0.331566,0.43225 -0.203164,0.025 -0.262013,-0.0138 -0.311642,-0.20539 z m -1.6411319,-0.5696 c -0.5656268,-0.031 -0.5735248,-0.0382 -0.6552012,-0.5942 -0.048693,-0.33147 -0.037948,-0.34786 0.295375,-0.45048 0.2277018,-0.0701 0.5173922,-0.0807 0.8477261,-0.031 0.495441,0.0745 0.502212,0.0798 0.532828,0.41722 0.03727,0.41066 -0.109116,0.72641 -0.326422,0.70411 -0.08715,-0.009 -0.3995876,-0.0295 -0.6943059,-0.0457 z m 1.9919249,-0.91952 c -0.03052,-0.0778 -0.03786,-0.3756 -0.0163,-0.66184 0.03172,-0.42122 0.08657,-0.56182 0.28772,-0.7375 0.136688,-0.11939 0.367881,-0.21797 0.513761,-0.21907 0.319605,-0.002 0.592049,0.23687 0.508517,0.44663 -0.03288,0.0826 -0.09916,0.2614 -0.147289,0.3974 -0.0821,0.232 -0.835223,0.91386 -1.010842,0.91518 -0.04404,2.7e-4 -0.105045,-0.063 -0.135567,-0.1408 z m -1.107346,-6.81115 c 0.05826,-0.0713 0.141215,-0.35237 0.184354,-0.62464 0.04314,-0.27226 0.148076,-0.66175 0.233195,-0.86552 0.100882,-0.24151 0.172938,-0.76152 0.206967,-1.49362 l 0.05221,-1.12312 0.385562,-0.42468 c 0.428523,-0.47202 0.447889,-0.592 0.285165,-1.76687 -0.113452,-0.81913 -0.798975,-3.14703 -0.986999,-3.35166 -0.07824,-0.0852 -0.300127,-0.20933 -0.49309,-0.27596 -0.192963,-0.0666 -0.5520382,-0.26175 -0.7979454,-0.43361 -0.5392293,-0.37684 -1.2356775,-0.52256 -2.1439461,-0.44857 -0.6181508,0.0504 -1.1525245,0.21452 -1.1514709,0.35374 2.646e-4,0.036 -0.1674289,0.22802 -0.3726701,0.42658 -0.63265,0.61206 -0.8786585,1.05139 -1.0486631,1.87273 -0.1399204,0.67598 -0.1436299,0.86075 -0.033287,1.65804 0.1517092,1.09619 0.2386854,1.45519 0.5480788,2.26223 0.281146,0.73335 0.3906888,0.79868 1.3273839,0.79159 0.3479983,-0.003 0.7001749,0.0205 0.7826143,0.0514 0.2326949,0.0873 0.4041494,0.49563 0.4808344,1.14519 0.096807,0.82 0.1659287,0.96278 0.7396271,1.52787 0.3443338,0.33916 0.6574454,0.54862 0.9951358,0.6657 0.6081283,0.21085 0.6744953,0.21523 0.8069503,0.0531 z m -1.561468,-1.94119 c -0.05991,-0.12889 -0.1103469,-0.42209 -0.1120833,-0.65154 -0.00175,-0.22946 -0.046311,-0.49639 -0.099055,-0.59317 -0.1337897,-0.24551 -0.026535,-0.60262 0.2117482,-0.70502 0.3155492,-0.13561 0.567056,-0.0504 0.7500628,0.25413 0.1406906,0.2341 0.1590368,0.39163 0.1093152,0.9386 -0.0742,0.81626 -0.1590664,0.98687 -0.4921509,0.98939 -0.1878521,0.001 -0.2888067,-0.0624 -0.367837,-0.23239 z m -2.6181228,-2.54153 c -0.3985882,-0.19789 -0.4732856,-1.249 -0.1030967,-1.45074 0.3721999,-0.20283 1.5207406,-0.0493 1.7290624,0.23109 0.164532,0.22148 0.1544609,0.87186 -0.017362,1.12116 -0.123035,0.17852 -0.2253608,0.20673 -0.7601517,0.2096 -0.339889,0.002 -0.7216926,-0.0482 -0.8484534,-0.11111 z m 3.3464686,-0.27761 c -0.2376543,-0.0935 -0.3380057,-0.39998 -0.3513053,-1.07276 -0.00757,-0.38266 0.034498,-0.52456 0.2125943,-0.71718 0.4665118,-0.50457 1.3114312,-0.16016 1.4437502,0.5885 0.09919,0.56119 -0.06555,0.86511 -0.594949,1.09761 -0.24547,0.10781 -0.4594012,0.19349 -0.4754018,0.19039 -0.015999,-0.003 -0.1216108,-0.0421 -0.2346884,-0.0866 z m 22.4145422,-2.68381 c -0.150672,-0.18839 -0.227338,-0.92921 -0.310022,-2.99566 -0.05031,-1.25727 -0.116203,-1.99594 -0.184005,-2.06273 -0.163655,-0.16119 -1.318297,-0.25262 -2.940185,-0.2328 -1.909765,0.0233 -1.971474,0.0386 -2.256481,0.55674 -0.215124,0.39114 -0.226478,0.48139 -0.185896,1.47806 0.100812,2.47605 0.08875,3.06651 -0.06465,3.16517 -0.102761,0.0661 -0.224001,0.0508 -0.41589,-0.0525 -0.148966,-0.0802 -0.416759,-0.21058 -0.595096,-0.28982 -0.178339,-0.0792 -0.449328,-0.20076 -0.602202,-0.27006 -0.152871,-0.0693 -0.589984,-0.21968 -0.97136,-0.3342 -0.381378,-0.11451 -1.027594,-0.40533 -1.436034,-0.64626 -0.408442,-0.24093 -0.981723,-0.54323 -1.273958,-0.67178 -0.292237,-0.12854 -0.579357,-0.29068 -0.638046,-0.36032 -0.05869,-0.0696 -0.340663,-0.19003 -0.626605,-0.26753 -0.285942,-0.0775 -0.874095,-0.27706 -1.307005,-0.44345 -0.43291,-0.1664 -0.891196,-0.33063 -1.018412,-0.36496 -0.127216,-0.0343 -0.314949,-0.13489 -0.417184,-0.22348 -0.4033,-0.34948 -1.444202,-0.92497 -1.914031,-1.0582 -0.272618,-0.0773 -0.579162,-0.19281 -0.681211,-0.25665 -0.102048,-0.0638 -0.414841,-0.18081 -0.695094,-0.25992 -0.502271,-0.14179 -1.503635,-0.79737 -1.629134,-1.06658 -0.03539,-0.0759 -0.151226,-0.49053 -0.257421,-0.92137 -0.177425,-0.71985 -0.198773,-1.15587 -0.263286,-5.37739 -0.04796,-3.13808 -0.03915,-4.71294 0.02779,-4.96924 0.06892,-0.2639 0.185077,-0.42844 0.39149,-0.55459 0.161422,-0.0986 0.458197,-0.37675 0.659501,-0.61801 0.201305,-0.24126 0.551376,-0.65069 0.777935,-0.90985 0.226561,-0.25916 0.55581,-0.67489 0.731664,-0.92385 0.537657,-0.76117 0.887099,-1.0919 1.120554,-1.06058 l 0.210446,0.0282 0.04987,3.46207 c 0.0703,4.88025 0.283764,6.3248 0.987418,6.68195 0.156923,0.0796 0.353001,0.24644 0.435731,0.37063 0.1649,0.24757 0.932893,0.81951 1.322829,0.98514 0.135623,0.0576 0.388871,0.20843 0.562773,0.33514 0.173902,0.12672 0.653987,0.42642 1.066855,0.666 0.682809,0.39622 0.912799,0.48719 1.629405,0.64454 0.127166,0.0279 0.460883,0.20255 0.741592,0.38808 0.682094,0.45079 2.196582,1.21766 2.401692,1.21611 0.332679,-0.002 0.473469,-0.31218 0.510836,-1.12358 0.01958,-0.42535 0.06739,-1.43839 0.106212,-2.2512 0.03883,-0.81282 0.0352,-3.4304 -0.0081,-5.81685 -0.08767,-4.83631 -0.150905,-4.13941 0.553633,-6.10194 0.212992,-0.59329 1.078754,-2.53066 1.469366,-3.28808 0.0403,-0.0781 0.09964,-0.26661 0.131861,-0.41881 0.03222,-0.15219 0.221877,-0.49589 0.421455,-0.76376 0.199572,-0.26788 0.36254,-0.52964 0.362146,-0.5817 -2.65e-4,-0.0521 0.100494,-0.1974 0.224192,-0.32299 0.18089,-0.18365 0.318487,-0.22904 0.703101,-0.23195 0.263011,-0.002 0.642297,0.0442 0.842859,0.10264 0.420868,0.12263 0.654391,0.49873 0.993381,1.5999 0.110577,0.35921 0.280313,0.75265 0.377187,0.8743 0.09688,0.12166 0.205666,0.3517 0.241763,0.51121 0.03609,0.1595 0.142084,0.35815 0.235532,0.44144 0.09345,0.0833 0.287206,0.47047 0.430567,0.86039 0.143365,0.38992 0.291981,0.75026 0.330259,0.80075 0.03828,0.0505 0.162277,0.39632 0.275555,0.76849 0.113279,0.37218 0.294048,0.82786 0.401709,1.01261 0.483762,0.83019 0.462653,0.6154 0.379632,3.86335 -0.04256,1.66503 -0.109106,3.96243 -0.147878,5.10533 -0.09437,2.78163 -0.07853,4.5874 0.04401,5.01604 0.07773,0.27193 0.173063,0.38239 0.415655,0.4816 0.656971,0.26868 0.951354,0.19214 2.361697,-0.61404 0.286472,-0.16375 0.907706,-0.4288 1.380519,-0.58899 0.472811,-0.1602 0.904327,-0.32773 0.958922,-0.37229 0.0546,-0.0446 0.509748,-0.29465 1.011446,-0.55576 1.360218,-0.70794 1.910183,-1.08355 2.651586,-1.81095 0.885071,-0.86837 0.939265,-1.10083 0.723238,-3.10233 -0.172439,-1.59762 -0.230087,-5.28728 -0.09597,-6.14218 0.04786,-0.30505 0.105748,-0.94605 0.128648,-1.42442 0.05378,-1.12337 0.206306,-1.32624 0.706112,-0.93918 0.127897,0.0991 0.25726,0.29901 0.287478,0.44437 0.03022,0.14536 0.193659,0.43408 0.363204,0.64161 0.169545,0.20754 0.420995,0.55522 0.558763,0.77263 0.137777,0.21741 0.431557,0.60553 0.652849,0.86248 0.221297,0.25694 0.507571,0.6447 0.636169,0.86168 0.128601,0.21698 0.397844,0.57633 0.598321,0.79855 0.262628,0.29112 0.385445,0.52542 0.43942,0.83832 0.09024,0.52317 0.171855,8.77771 0.09181,9.28615 -0.05881,0.37357 -0.08513,0.39914 -1.493706,1.45109 -0.275619,0.20583 -0.710094,0.44326 -0.965493,0.52761 -0.255397,0.0844 -0.712449,0.31311 -1.015667,0.50836 -0.503722,0.32434 -1.798069,0.84151 -3.292139,1.3154 -0.345718,0.10965 -0.676574,0.28634 -0.808725,0.43189 -0.123003,0.13548 -0.493782,0.3795 -0.82395,0.54227 -0.330166,0.16277 -0.701413,0.36792 -0.824995,0.45588 -0.123584,0.088 -0.308932,0.16083 -0.411885,0.16192 -0.102952,0.001 -0.304736,0.0644 -0.448407,0.14075 -0.143674,0.0763 -0.640371,0.31295 -1.103773,0.52584 -0.463405,0.21289 -1.049362,0.52446 -1.302131,0.69237 -0.25277,0.16792 -0.625179,0.35969 -0.82758,0.42617 -0.202401,0.0665 -0.616577,0.24077 -0.920388,0.38733 -0.609012,0.29377 -0.807145,0.32611 -0.944668,0.15416 z"
       id="path837"
       inkscape:connector-curvature="0"
       sodipodi:nodetypes="ccccccccccccccccccccccccsscsccccccccccccscccccccsccccccssscccccccccscccccccscccccccccsccccccccscccccccccccsccccccscccccccccccccccccccsccccccccsscccccccccccsccccccccccccccccccccccccccccccccccccccccccccccccccccccscssccscsscscccccccccccccsccccccccscccccccccccccccccccccccccccccccccccccccccccccccccccsccccscsccccsccccsscssccsccsccssccccccsccscccscccccsscccsscssccccccsccscccsssscccsccscccccscccccscccscsscsccscccccscccccsccccccccccsccccccscccscsscccccscssccsccccccccccccsccccccccccccccccsccccscccscccccccssccsscccsccccccccccsscsccccscccsccscsscccccscccccccccscccccccccccccssscc" />
  </g>
</svg>
