<?xml version="1.0" encoding="UTF-8" standalone="no"?>
<!-- Created with Inkscape (http://www.inkscape.org/) -->

<svg
   xmlns:dc="http://purl.org/dc/elements/1.1/"
   xmlns:cc="http://creativecommons.org/ns#"
   xmlns:rdf="http://www.w3.org/1999/02/22-rdf-syntax-ns#"
   xmlns:svg="http://www.w3.org/2000/svg"
   xmlns="http://www.w3.org/2000/svg"
   xmlns:sodipodi="http://sodipodi.sourceforge.net/DTD/sodipodi-0.dtd"
   xmlns:inkscape="http://www.inkscape.org/namespaces/inkscape"
   width="215"
   height="215"
   viewBox="0 0 56.885415 56.885418"
   version="1.1"
   id="svg8"
   inkscape:version="0.92.3 (2405546, 2018-03-11)"
   sodipodi:docname="order.svg">
  <defs
     id="defs2" />
  <sodipodi:namedview
     id="base"
     pagecolor="#ffffff"
     bordercolor="#666666"
     borderopacity="1.0"
     inkscape:pageopacity="0.0"
     inkscape:pageshadow="2"
     inkscape:zoom="3.959798"
     inkscape:cx="-0.80107584"
     inkscape:cy="81.522756"
     inkscape:document-units="px"
     inkscape:current-layer="layer1"
     showgrid="false"
     inkscape:window-width="1920"
     inkscape:window-height="1017"
     inkscape:window-x="-8"
     inkscape:window-y="-8"
     inkscape:window-maximized="1"
     inkscape:snap-global="false"
     units="px" />
  <metadata
     id="metadata5">
    <rdf:RDF>
      <cc:Work
         rdf:about="">
        <dc:format>image/svg+xml</dc:format>
        <dc:type
           rdf:resource="http://purl.org/dc/dcmitype/StillImage" />
        <dc:title></dc:title>
      </cc:Work>
    </rdf:RDF>
  </metadata>
  <g
     inkscape:label="Layer 1"
     inkscape:groupmode="layer"
     id="layer1"
     transform="translate(0,-240.11456)">
    <g
       id="g890"
       transform="matrix(0.47620484,0,0,0.47620484,-22.672365,204.57279)"
       style="fill:#000000;fill-opacity:1">
      <path
         id="path837"
         transform="scale(0.26458333)"
         d="m 451.75586,283.34961 c -0.96786,0.51583 -1.75272,0.89395 -2.49805,1.33008 -1.18991,0.70042 -2.41928,1.36166 -3.52343,2.17969 -1.80976,1.34573 -3.47517,2.8874 -5.30469,4.20703 -4.62607,3.32551 -8.92914,7.02914 -13.14649,10.83789 -0.90092,0.81053 -1.81411,1.6152 -2.69531,2.44531 -2.61086,2.46393 -5.20212,4.95926 -7.82617,7.41016 -2.83945,2.65511 -5.55395,5.41495 -7.97852,8.47461 -3.20666,4.05318 -6.57813,7.97676 -9.82422,12.0039 -1.25805,1.55954 -2.41687,3.21709 -3.5039,4.90039 -0.57929,0.90082 -1.16021,1.75419 -1.94336,2.51172 -0.86805,0.8366 -1.73517,1.73884 -2.32031,2.77734 -0.74782,1.32118 -1.17274,2.81757 -1.78907,4.2168 -0.66818,1.52402 -1.38868,3.0223 -2.05078,4.44141 6.75954,0.12604 13.67732,-0.77697 20.5293,0.90234 -0.53261,1.07105 -1.06458,2.0701 -1.54492,3.10156 -0.33109,0.703 -0.51885,1.46956 -0.88282,2.14649 -1.30639,2.43822 -2.69105,4.83136 -3.98437,7.26953 -1.58256,2.98071 -3.4826,5.75634 -5.5,8.44726 a 135,135 0 0 0 -77.11523,30.39844 c -0.24995,-0.54945 -0.48865,-1.10512 -0.6875,-1.67773 -0.8906,-2.55625 -1.62882,-5.1807 -2.3379,-7.79492 -0.46543,-1.70718 -0.63758,-3.49895 -1.15429,-5.1836 -1.35827,-4.45353 -2.86605,-8.86341 -4.23828,-13.3125 -0.42771,-1.38685 -1.00171,-2.7831 -0.63477,-4.32226 0.11751,-0.49921 0.008,-1.0533 0.002,-1.70703 -1.41391,0.73797 -2.76698,1.37827 -4.04687,2.15039 -1.11176,0.67219 -2.13289,1.50499 -3.19922,2.25195 -0.58926,0.40985 -1.20356,0.79024 -1.80664,1.19531 -0.87897,0.59168 -1.76498,1.17823 -2.63477,1.7793 -0.21498,0.14574 -0.39692,0.33381 -0.6875,0.58984 -0.39699,-0.50107 -0.90751,-0.89295 -1.08203,-1.40039 -0.77422,-2.22103 -1.52924,-4.45075 -2.14062,-6.7207 -1.05872,-3.93988 -1.87207,-7.94554 -3.0332,-11.84961 -1.3394,-4.48113 -2.38599,-9.01912 -3.04688,-13.63086 -0.73751,-5.1597 -1.20009,-10.35686 -1.90039,-15.52539 -0.43293,-3.19492 -1.04245,-6.36401 -1.64258,-9.5332 -0.20878,-1.09671 -0.59914,-2.15394 -0.9707,-3.21094 -0.1163,-0.34447 -0.44573,-0.61851 -0.78321,-1.0586 -0.33754,1.0435 -0.64012,1.86181 -0.87304,2.69336 -0.36896,1.33054 -0.79201,2.66011 -1.01758,4.01563 -0.36627,2.2253 -0.49394,4.49066 -0.89258,6.71094 -1.01583,5.60603 -1.53576,11.26015 -1.92187,16.92968 -0.0847,1.20891 -0.18339,2.42158 -0.24024,3.63086 -0.16535,3.58611 -0.29461,7.18168 -0.47851,10.76758 -0.19688,3.88244 -0.23022,7.75362 0.15234,11.63867 0.51054,5.14299 0.8113,10.3073 1.27539,15.45899 0.17904,1.99566 0.49872,3.99118 0.88672,5.95703 0.20939,1.05033 0.38443,2.06925 0.34766,3.1582 -0.0429,1.20484 -0.0391,2.45594 0.26171,3.60938 0.3803,1.46974 1.11349,2.84087 1.64258,4.27539 0.57853,1.56026 1.10133,3.13855 1.61133,4.61914 4.94848,-4.60649 9.29631,-10.06345 15.39063,-13.61719 0.36124,1.14032 0.67358,2.22915 1.04492,3.30469 0.25039,0.73561 0.64681,1.41656 0.85547,2.15625 0.75484,2.66116 1.42329,5.34404 2.1875,7.99609 0.85716,2.97891 1.39801,6.02049 1.80664,9.08203 a 135,135 0 0 0 -35.03711,84.85547 c -0.52516,-0.17244 -1.04871,-0.35594 -1.5586,-0.57422 -2.48962,-1.06276 -4.9257,-2.28546 -7.33593,-3.52148 -1.5756,-0.80546 -3.01787,-1.8844 -4.61133,-2.63672 -4.20723,-1.99461 -8.48198,-3.84881 -12.69531,-5.83008 -1.31334,-0.61757 -2.73221,-1.13373 -3.62305,-2.4414 -0.29004,-0.42305 -0.77257,-0.71443 -1.25977,-1.15039 -0.40643,1.54227 -0.84379,2.97326 -1.13476,4.43945 -0.25161,1.27457 -0.32445,2.59146 -0.49024,3.88281 -0.0939,0.71161 -0.22548,1.42199 -0.33203,2.14063 -0.15432,1.04821 -0.31771,2.09872 -0.45898,3.14648 -0.037,0.25701 -0.0221,0.51712 -0.0274,0.9043 -0.63774,-0.0439 -1.27102,0.0683 -1.76367,-0.14258 -2.16341,-0.92311 -4.32021,-1.86691 -6.41015,-2.94336 -3.62576,-1.87015 -7.13449,-3.966 -10.80274,-5.73633 -4.21492,-2.02711 -8.2743,-4.30914 -12.1289,-6.92578 -4.31134,-2.92902 -8.46696,-6.0864 -12.75977,-9.04883 -2.65359,-1.83122 -5.40712,-3.51483 -8.1543,-5.20508 -0.95143,-0.58408 -1.99567,-1.00633 -3.02734,-1.44335 -0.3329,-0.14589 -0.75795,-0.0859 -1.31055,-0.13282 0.54419,0.95218 0.94636,1.7249 1.4043,2.45703 0.73526,1.16871 1.43291,2.37756 2.2832,3.45703 1.39861,1.7692 2.98825,3.38798 4.36133,5.17774 3.46071,4.52579 7.28902,8.71925 11.2207,12.82226 0.83678,0.87659 1.66959,1.76481 2.52539,2.6211 2.53999,2.53693 5.10938,5.05298 7.63672,7.60351 2.73787,2.75978 5.57708,5.39147 8.70703,7.72461 4.14615,3.08553 8.16779,6.3391 12.28907,9.46485 1.59602,1.21145 3.28729,2.32253 5.00195,3.35937 0.91757,0.55242 1.78803,1.10675 2.56836,1.86719 0.86187,0.84295 1.78842,1.68409 2.84375,2.23828 1.34268,0.70847 2.85076,1.0874 4.26758,1.66211 1.54308,0.6229 3.06193,1.3 4.5,1.91992 -0.0738,-6.76029 -1.17935,-13.64829 0.29687,-20.54687 1.08631,0.50071 2.09933,1.00347 3.14453,1.45312 0.71247,0.3103 1.48451,0.47458 2.17188,0.81836 2.47577,1.23383 4.90946,2.54687 7.38476,3.76758 2.70921,1.3374 5.25995,2.93759 7.73829,4.64648 a 135,135 0 0 0 29.93164,72.05469 c -0.6449,0.28942 -1.29948,0.56771 -1.97461,0.79102 -2.56919,0.85266 -5.20367,1.55044 -7.82813,2.2207 -1.71391,0.44013 -3.50903,0.58641 -5.20117,1.07813 -4.4732,1.29214 -8.90411,2.73285 -13.37305,4.03906 -1.39303,0.40709 -2.79849,0.96197 -4.33203,0.57226 -0.49747,-0.12472 -1.05133,-0.0216 -1.70508,-0.0254 0.71696,1.42466 1.33678,2.78693 2.08985,4.07813 0.65567,1.12157 1.47207,2.15319 2.20312,3.23047 0.40096,0.59539 0.77381,1.21717 1.16992,1.82617 0.57867,0.88758 1.15212,1.78157 1.74024,2.66015 0.14252,0.21695 0.32586,0.40349 0.57812,0.69727 -0.5069,0.38948 -0.90704,0.89247 -1.41601,1.06055 -2.23227,0.74124 -4.47317,1.46136 -6.75195,2.03906 -3.95514,1.00025 -7.97173,1.75425 -11.89258,2.85742 -4.5005,1.27287 -9.05282,2.25319 -13.67383,2.8457 -5.17008,0.66101 -10.3744,1.04818 -15.55274,1.67188 -3.20096,0.38555 -6.3789,0.94687 -9.55664,1.5 -1.09968,0.19276 -2.16416,0.56795 -3.22656,0.92383 -0.34509,0.1108 -0.62167,0.43571 -1.06445,0.76562 1.03624,0.35239 1.84898,0.6653 2.67578,0.91016 1.32492,0.38865 2.64797,0.83249 4,1.07812 2.21964,0.3992 4.48314,0.55873 6.69726,0.99024 5.59036,1.09871 11.23524,1.7038 16.89844,2.17383 1.20752,0.10242 2.41863,0.21813 3.62696,0.29297 3.58327,0.21845 7.17697,0.3997 10.75976,0.63671 3.87913,0.25437 7.74836,0.34659 11.63867,0.0234 5.15001,-0.4343 10.31858,-0.65913 15.47657,-1.04687 1.99813,-0.14929 3.99932,-0.44 5.9707,-0.79883 1.05335,-0.19389 2.07381,-0.3537 3.16211,-0.30078 1.20403,0.0608 2.45553,0.0768 3.61328,-0.20703 1.4752,-0.3583 2.85667,-1.0723 4.29883,-1.58008 1.56866,-0.55537 3.15457,-1.05496 4.64258,-1.54297 -4.53281,-5.01608 -9.92366,-9.44354 -13.38672,-15.58984 1.14553,-0.34432 2.23744,-0.64075 3.31836,-0.9961 0.73923,-0.23962 1.42721,-0.62655 2.16992,-0.82422 2.67207,-0.71535 5.36427,-1.34352 8.02734,-2.06836 3.20625,-0.87137 6.47904,-1.37947 9.76953,-1.74804 a 135,135 0 0 0 82.09375,34.99414 c -0.30372,0.93399 -0.62628,1.87216 -1.04492,2.77539 -1.13586,2.45714 -2.42963,4.85584 -3.73633,7.22851 -0.8516,1.55112 -1.97241,2.96071 -2.77148,4.53125 -2.11797,4.14649 -4.09831,8.3646 -6.20313,12.51758 -0.65612,1.29453 -1.21345,2.69895 -2.54687,3.55078 -0.4314,0.27742 -0.73736,0.75051 -1.1875,1.22461 1.52957,0.45181 2.94736,0.93148 4.4043,1.26563 1.26659,0.28913 2.57936,0.39965 3.86523,0.60351 0.70855,0.1149 1.4157,0.26874 2.13086,0.39649 1.04322,0.18519 2.08771,0.37862 3.13086,0.55078 0.25587,0.0446 0.51742,0.0396 0.9043,0.0566 -0.0627,0.63617 0.0284,1.27161 -0.19727,1.75781 -0.98661,2.13521 -1.99315,4.26308 -3.13086,6.32031 -1.97643,3.56894 -4.17484,7.01455 -6.05273,10.62891 -2.15071,4.15321 -4.55189,8.14429 -7.28125,11.91992 -3.05506,4.22294 -6.332,8.28289 -9.41993,12.48633 -1.90876,2.59835 -3.6727,5.30004 -5.44336,7.99609 -0.61193,0.93377 -1.0659,1.96606 -1.5332,2.98438 -0.15571,0.32844 -0.11071,0.75371 -0.17383,1.30469 h 0.002 c 0.96786,-0.51583 1.75272,-0.89396 2.49804,-1.33008 1.1899,-0.70042 2.4193,-1.36165 3.52344,-2.17969 1.80974,-1.34574 3.47517,-2.88741 5.30469,-4.20703 4.62603,-3.32553 8.92914,-7.02911 13.14648,-10.83789 0.90093,-0.81052 1.81412,-1.61518 2.69532,-2.44531 2.61086,-2.46395 5.20212,-4.95925 7.82617,-7.41016 2.83944,-2.65516 5.55395,-5.41493 7.97851,-8.47461 3.20667,-4.0532 6.57814,-7.97674 9.82422,-12.0039 1.25806,-1.55955 2.41688,-3.21711 3.50391,-4.9004 0.57929,-0.90085 1.1602,-1.75418 1.94336,-2.51171 0.86804,-0.8366 1.73321,-1.73885 2.31836,-2.77735 0.74781,-1.32117 1.17468,-2.81953 1.79101,-4.21875 0.66819,-1.52402 1.38869,-3.02227 2.05078,-4.4414 -6.75953,-0.12586 -13.67731,0.77697 -20.52929,-0.90235 0.53261,-1.07104 1.06263,-2.07009 1.54297,-3.10156 0.33108,-0.70299 0.52079,-1.46957 0.88476,-2.14648 1.30639,-2.43825 2.69106,-4.83136 3.98438,-7.26954 1.70275,-3.20708 3.76766,-6.18091 5.95703,-9.0625 0.035,-0.0463 0.0705,-0.0923 0.10547,-0.13867 a 135,135 0 0 0 75.75976,-31.31055 c 0.53231,1.08035 1.0741,2.17929 1.47852,3.34376 0.89061,2.55628 1.62881,5.18069 2.33789,7.79492 0.46545,1.70721 0.6376,3.50086 1.15429,5.18554 1.35829,4.45353 2.86605,8.86148 4.23829,13.31055 0.42773,1.38686 1.00172,2.78508 0.63476,4.32422 -0.11754,0.49927 -0.007,1.05133 -0.002,1.70508 1.41388,-0.73799 2.76697,-1.37827 4.04687,-2.15039 1.11175,-0.67219 2.13287,-1.50505 3.19922,-2.25196 0.58938,-0.40973 1.20358,-0.79022 1.80664,-1.19531 0.87889,-0.59172 1.76499,-1.17824 2.63477,-1.7793 0.21505,-0.14589 0.39746,-0.33114 0.6875,-0.58789 0.39696,0.50106 0.90643,0.89198 1.08203,1.39844 0.77424,2.22104 1.52925,4.45072 2.14063,6.7207 1.05875,3.9399 1.87201,7.94555 3.0332,11.84961 1.33939,4.48116 2.38595,9.02107 3.04687,13.63282 0.73754,5.15969 1.20005,10.35685 1.90039,15.52539 0.43291,3.19491 1.04243,6.36403 1.64258,9.5332 0.20863,1.09674 0.59914,2.15392 0.9707,3.21094 0.11641,0.34431 0.44573,0.6185 0.78321,1.05859 h 0.002 c 0.33751,-1.04349 0.63816,-1.86182 0.8711,-2.69336 0.36888,-1.33051 0.79396,-2.6601 1.01953,-4.01562 0.36623,-2.22531 0.49196,-4.49069 0.89062,-6.71094 1.01579,-5.60606 1.53771,-11.26013 1.92383,-16.92969 0.0847,-1.20888 0.18159,-2.42156 0.23828,-3.63086 0.16517,-3.58609 0.2946,-7.18164 0.47852,-10.76758 0.19691,-3.88244 0.23209,-7.75362 -0.15039,-11.63867 -0.51058,-5.14299 -0.81322,-10.30733 -1.27735,-15.45898 -0.17915,-1.99571 -0.49871,-3.99314 -0.88672,-5.95899 -0.20938,-1.05033 -0.38424,-2.06729 -0.34765,-3.15625 0.0431,-1.2048 0.0391,-2.45597 -0.26172,-3.60937 -0.3803,-1.46975 -1.11348,-2.84091 -1.64258,-4.27539 -0.57853,-1.56027 -1.10132,-3.13855 -1.61133,-4.61914 -4.94834,4.6066 -9.29629,10.06345 -15.39062,13.61719 -0.36133,-1.14033 -0.67359,-2.22915 -1.04492,-3.30469 -0.25021,-0.73561 -0.64684,-1.41656 -0.85547,-2.15625 -0.75489,-2.66121 -1.42328,-5.34603 -2.1875,-7.99805 -1.00407,-3.48949 -1.58568,-7.06267 -2.01368,-10.65625 -0.0442,-0.36439 -0.0823,-0.73025 -0.125,-1.0957 A 135,135 0 0 0 539.41406,513.375 c 1.22734,0.35526 2.48627,0.70983 3.69336,1.22656 2.48958,1.06281 4.92573,2.28351 7.33594,3.51953 1.57561,0.80542 3.01596,1.88441 4.60937,2.63672 4.20722,1.99457 8.48198,3.85077 12.69532,5.83203 1.31331,0.61758 2.73412,1.13178 3.625,2.43946 0.28989,0.423 0.77258,0.71641 1.25976,1.15234 0.40645,-1.54224 0.84378,-2.97521 1.13477,-4.44141 0.25171,-1.27457 0.32236,-2.58954 0.48828,-3.88085 0.0937,-0.71165 0.2274,-1.42203 0.33398,-2.14063 0.15459,-1.04825 0.31767,-2.09869 0.45899,-3.14648 0.0378,-0.25701 0.0216,-0.519 0.0254,-0.90625 0.63779,0.0438 1.27097,-0.0679 1.76367,0.14453 2.16336,0.92311 4.32027,1.86496 6.41016,2.9414 3.62574,1.87015 7.13447,3.966 10.80273,5.73633 4.21489,2.02708 8.27428,4.3091 12.12891,6.92578 4.3113,2.92902 8.46698,6.08636 12.75976,9.04883 2.65361,1.83118 5.40516,3.51484 8.15235,5.20508 0.95142,0.58409 1.99763,1.00832 3.02929,1.44531 0.33298,0.14589 0.75599,0.0859 1.3086,0.13281 h 0.002 c -0.54418,-0.95217 -0.94438,-1.7249 -1.40234,-2.45703 -0.73527,-1.16867 -1.43293,-2.37752 -2.28321,-3.45703 -1.39861,-1.76916 -2.98822,-3.38993 -4.36132,-5.17969 -3.46069,-4.52583 -7.29101,-8.71729 -11.22266,-12.82031 -0.83679,-0.87658 -1.66768,-1.7648 -2.52344,-2.62109 -2.53995,-2.53697 -5.11134,-5.05302 -7.63867,-7.60352 -2.73781,-2.75981 -5.57713,-5.39147 -8.70703,-7.72461 -4.14614,-3.08553 -8.16584,-6.34109 -12.28711,-9.46679 -1.59602,-1.21146 -3.2873,-2.32059 -5.00195,-3.35743 -0.91752,-0.55241 -1.788,-1.10674 -2.56836,-1.86718 -0.86185,-0.84295 -1.79035,-1.68402 -2.84571,-2.23829 -1.34267,-0.70847 -2.85078,-1.0893 -4.26757,-1.66406 -1.54311,-0.62286 -3.06197,-1.29805 -4.5,-1.91797 0.0737,6.76033 1.18124,13.64826 -0.29493,20.54688 -1.08631,-0.50075 -2.10125,-1.00344 -3.14648,-1.45313 -0.71248,-0.3103 -1.48449,-0.47453 -2.17188,-0.81836 -2.47574,-1.23378 -4.90748,-2.54682 -7.38281,-3.76757 -3.25595,-1.60729 -6.2894,-3.5842 -9.23437,-5.6875 -0.26175,-0.18607 -0.52137,-0.37723 -0.78321,-0.56446 a 135,135 0 0 0 -28.88867,-69.88476 c 1.0388,-0.49274 2.09479,-0.98694 3.20899,-1.35547 2.56917,-0.85262 5.20565,-1.55044 7.83007,-2.2207 1.71391,-0.44009 3.50709,-0.58641 5.19922,-1.07813 4.47319,-1.29214 8.90609,-2.73485 13.375,-4.04101 1.39302,-0.40714 2.79849,-0.96002 4.33203,-0.57032 0.49743,0.12473 1.05134,0.0216 1.70508,0.0254 -0.71694,-1.42469 -1.33677,-2.78692 -2.08984,-4.07812 -0.65564,-1.12161 -1.47401,-2.15319 -2.20508,-3.23047 -0.40108,-0.59528 -0.77187,-1.21718 -1.16797,-1.82617 -0.57861,-0.88766 -1.1521,-1.78157 -1.74023,-2.66016 -0.14249,-0.21732 -0.32825,-0.40291 -0.58008,-0.69726 0.50687,-0.38952 0.90604,-0.89357 1.41601,-1.06055 2.23223,-0.74124 4.47321,-1.46332 6.75196,-2.04102 3.95512,-1.00021 7.97173,-1.75425 11.89258,-2.85742 4.50047,-1.27287 9.05478,-2.25123 13.67578,-2.84375 5.17005,-0.661 10.3744,-1.04825 15.55273,-1.67187 3.20096,-0.38559 6.37893,-0.94691 9.55664,-1.5 1.09969,-0.19238 2.16222,-0.56795 3.22461,-0.92383 0.34521,-0.1108 0.62361,-0.43568 1.06641,-0.76563 -1.03625,-0.35238 -1.84896,-0.66533 -2.67578,-0.91015 -1.32492,-0.38865 -2.64795,-0.8325 -4,-1.07813 -2.21961,-0.39919 -4.4851,-0.55872 -6.69922,-0.99023 -5.59038,-1.09875 -11.23527,-1.70377 -16.89844,-2.17383 -1.20752,-0.10243 -2.41864,-0.21813 -3.62695,-0.29297 -3.58326,-0.21846 -7.17505,-0.40166 -10.75782,-0.63867 -3.87911,-0.25436 -7.75031,-0.34464 -11.64062,-0.0215 -5.14998,0.43431 -10.31857,0.65914 -15.47656,1.04688 -1.99813,0.14929 -3.9993,0.43805 -5.97071,0.79687 -1.05331,0.19389 -2.07383,0.35332 -3.16211,0.30079 -1.20404,-0.0609 -2.45354,-0.0749 -3.61132,0.20898 -1.47519,0.35868 -2.85859,1.0723 -4.30078,1.58008 -1.56866,0.55532 -3.15458,1.05495 -4.64258,1.54297 4.53267,5.01619 9.9256,9.44354 13.38867,15.58984 -1.14554,0.34432 -2.23941,0.63879 -3.32031,0.99414 -0.73924,0.23962 -1.42526,0.6285 -2.16797,0.82617 -2.67205,0.71535 -5.36621,1.34157 -8.0293,2.06641 -3.50396,0.95229 -7.08604,1.48084 -10.68555,1.85547 -0.117,0.0125 -0.23442,0.0226 -0.35156,0.0351 a 135,135 0 0 0 -80.6875,-35.55273 c 0.26509,-0.79522 0.5525,-1.59194 0.9082,-2.35937 1.13587,-2.45711 2.42964,-4.85585 3.73633,-7.22852 0.85161,-1.5511 1.97242,-2.96073 2.77149,-4.53125 2.11797,-4.14647 4.0983,-8.36461 6.20312,-12.51758 0.65613,-1.29452 1.21346,-2.69892 2.54688,-3.55078 0.43139,-0.27734 0.73736,-0.75051 1.1875,-1.22461 -1.52958,-0.45182 -2.94737,-0.93148 -4.4043,-1.26562 -1.26659,-0.28918 -2.57936,-0.39969 -3.86523,-0.60352 -0.70855,-0.11475 -1.4157,-0.26869 -2.13086,-0.39648 -1.04323,-0.18531 -2.08771,-0.37863 -3.13086,-0.55079 -0.25588,-0.0446 -0.51743,-0.037 -0.9043,-0.0547 0.0627,-0.6362 -0.0303,-1.27164 0.19531,-1.75782 0.98661,-2.13518 1.99315,-4.2631 3.13086,-6.32031 1.97643,-3.56892 4.17484,-7.01456 6.05274,-10.6289 2.1507,-4.15319 4.55186,-8.1443 7.28125,-11.91993 3.05506,-4.22292 6.33392,-8.28292 9.42187,-12.48632 1.90878,-2.59837 3.67269,-5.30005 5.44336,-7.9961 0.61194,-0.93375 1.0659,-1.96607 1.5332,-2.98437 0.15572,-0.32852 0.10876,-0.75371 0.17188,-1.30469 z M 600.92383,387.8457 c 0.001,5.1e-4 0.002,10e-4 0.004,0.002 v -0.004 c -10e-4,9.5e-4 -0.003,10e-4 -0.004,0.002 z M 210.45508,627.81445 c -0.002,-5.1e-4 -0.002,-10e-4 -0.004,-0.002 v 0.004 c 0.001,-9.6e-4 0.003,-10e-4 0.004,-0.002 z M 404.62109,398.94922 A 108.57143,108.57143 0 0 1 513.19141,507.51953 108.57143,108.57143 0 0 1 404.62109,616.0918 108.57143,108.57143 0 0 1 296.04883,507.51953 108.57143,108.57143 0 0 1 404.62109,398.94922 Z"
         style="opacity:1;fill:#000000;fill-opacity:1;fill-rule:nonzero;stroke:none;stroke-width:1.10700369;stroke-linecap:butt;stroke-linejoin:miter;stroke-miterlimit:4;stroke-dasharray:none;stroke-dashoffset:0;stroke-opacity:0.45581438;paint-order:markers fill stroke"
         inkscape:connector-curvature="0" />
      <path
         id="path815"
         d="m 106.55577,111.50172 c -2.37967,-0.004 -4.74672,0.19598 -6.998024,0.94878 -2.572917,0.86034 -5.455896,2.27539 -7.082255,4.14238 -1.62636,1.86699 -2.539379,3.60246 -2.539379,6.14743 0,2.54497 -0.08179,6.11077 -0.33383,7.95145 -0.870095,1.5066 -1.212252,1.65819 -1.536858,3.00654 -0.324607,1.34835 -0.486013,3.62219 0,4.9444 0.486015,1.32221 1.258269,1.90327 1.751979,2.95618 0.493709,1.05291 0.842178,2.46205 0.842178,3.62326 0.575297,1.15749 1.012862,1.41064 1.767039,1.89342 0.895921,0.0576 2.387859,0.024 3.364949,0.4806 0.977083,0.45659 1.304928,1.42917 1.713071,2.759 0.408147,1.32983 0.241054,4.50668 0.677995,5.33094 0.347922,0.68718 11.398735,0.46302 14.471475,0.46302 1.00001,-0.1727 1.57455,-0.70671 1.87068,-1.33635 0.29613,-0.62964 0.52075,-0.78794 0.53485,-1.50378 0.0141,-0.71584 0.0779,-1.68694 0.26717,-2.40503 0.18931,-0.71807 0.36654,-1.20427 0.8015,-1.8712 0.43496,-0.66693 1.21442,-1.75386 1.8712,-2.00453 0.39823,-0.15423 1.19717,-0.19055 2.13786,-0.36742 0.69578,-0.34197 2.46766,-1.76892 2.72076,-2.40553 0.95241,-4.30374 3.7973,-6.35646 3.69383,-10.55698 -0.0239,-0.78474 -0.64311,-0.5958 -1.02164,-1.00718 -0.37853,-0.41138 -0.51828,-1.06034 -0.54209,-2.07532 -0.0237,-1.01498 -0.0243,-2.12507 -0.0398,-3.59927 -0.0155,-1.4742 0.0137,-3.20509 -0.401,-4.67723 -0.41469,-1.47214 -0.62067,-2.29306 -2.00453,-4.00906 -1.38386,-1.716 -4.22699,-4.32355 -6.81509,-5.47873 -2.5881,-1.15518 -5.43052,-1.27325 -8.15196,-1.33635 -0.34018,-0.008 -0.68014,-0.0129 -1.02009,-0.0134 z m -9.254216,22.72781 c 1.491242,0.012 3.833496,0.76359 4.569226,1.62109 0.73573,0.8575 1.09864,1.58666 1.09864,2.46342 0,0.87676 -0.1458,2.44274 -1.12809,2.44274 h -3.711921 c -1.043964,0 -2.145281,0.27883 -3.041674,-0.61753 -0.921017,-0.92102 -0.731221,-3.36287 -0.731221,-4.30258 0,-0.93971 1.24633,-1.60714 2.94504,-1.60714 z m 19.110976,0 c 1.69872,0 2.94452,0.66743 2.94452,1.60714 0,0.93971 0.19032,3.38156 -0.7307,4.30258 -0.8964,0.89636 -1.99771,0.61753 -3.04168,0.61753 h -3.71191 c -0.98229,0 -1.1281,-1.56598 -1.1281,-2.44274 0,-0.87676 0.36239,-1.60592 1.09812,-2.46342 0.73573,-0.8575 3.0785,-1.60909 4.56975,-1.62109 z m -11.79153,6.97529 c 0.17771,-0.31367 3.33199,-0.24358 3.50315,0 0.15495,0.57436 0.98857,3.33178 0.98857,4.78782 v 3.34088 c 0,0 -2.16736,-1.23401 -3.30109,-1.08056 -0.14639,0.0732 -2.18592,0.82528 -2.18592,0.82528 0.2197,-0.4332 0.55943,-1.18138 0.55943,-1.18138 0,0 -0.29382,0.0492 -0.72044,0.11891 0.014,-0.40327 0.1605,-1.88722 0.1605,-2.26549 0,-0.96235 0.85353,-3.9483 0.9958,-4.54546 z"
         style="fill:#000000;fill-opacity:1;stroke:none;stroke-width:0.26458332px;stroke-linecap:butt;stroke-linejoin:miter;stroke-opacity:1"
         inkscape:connector-curvature="0"
         sodipodi:nodetypes="cssscsczccccccsscsccccscscssccccsssscsccscsssscccscccccsc" />
    </g>
  </g>
</svg>
