<?xml version="1.0" encoding="UTF-8" standalone="no"?>
<!-- Generator: Adobe Illustrator 23.0.4, SVG Export Plug-In  -->

<svg
   xmlns:dc="http://purl.org/dc/elements/1.1/"
   xmlns:cc="http://creativecommons.org/ns#"
   xmlns:rdf="http://www.w3.org/1999/02/22-rdf-syntax-ns#"
   xmlns:svg="http://www.w3.org/2000/svg"
   xmlns="http://www.w3.org/2000/svg"
   xmlns:sodipodi="http://sodipodi.sourceforge.net/DTD/sodipodi-0.dtd"
   xmlns:inkscape="http://www.inkscape.org/namespaces/inkscape"
   version="1.1"
   x="0px"
   y="0px"
   width="229.79224"
   height="229.79224"
   viewBox="0 0 229.79223 229.79224"
   xml:space="preserve"
   id="svg9"
   sodipodi:docname="gloomspite_gitz.svg"
   inkscape:version="0.92.3 (2405546, 2018-03-11)"><metadata
   id="metadata13"><rdf:RDF><cc:Work
       rdf:about=""><dc:format>image/svg+xml</dc:format><dc:type
         rdf:resource="http://purl.org/dc/dcmitype/StillImage" /><dc:title /></cc:Work></rdf:RDF></metadata><sodipodi:namedview
   pagecolor="#ffffff"
   bordercolor="#666666"
   borderopacity="1"
   objecttolerance="10"
   gridtolerance="10"
   guidetolerance="10"
   inkscape:pageopacity="0"
   inkscape:pageshadow="2"
   inkscape:window-width="1920"
   inkscape:window-height="1017"
   id="namedview11"
   showgrid="false"
   inkscape:zoom="1.0271588"
   inkscape:cx="-406.88745"
   inkscape:cy="114.88012"
   inkscape:window-x="-8"
   inkscape:window-y="-8"
   inkscape:window-maximized="1"
   inkscape:current-layer="svg9"
   fit-margin-top="0"
   fit-margin-left="0"
   fit-margin-right="0"
   fit-margin-bottom="0" />
<defs
   id="defs2">
</defs>
<g
   id="lskuq3_2_"
   transform="translate(22.116734,0.02223951)"
   style="fill:#000000;fill-opacity:1">
    <g
   id="g6"
   style="fill:#000000;fill-opacity:1">
        <path
   d="m 0,63.2 c 0,-0.32 0,-0.64 0,-0.96 0.96,-1.22 1.86,-2.49 2.9,-3.64 6.27,-6.96 8.02,-15.82 10.34,-24.45 0.42,-1.57 0.72,-3.24 1.51,-4.63 1.23,-2.17 3.64,-1.89 4.77,0.34 1.47,2.92 1.75,6.01 1.57,9.22 -0.22,3.92 -0.18,7.82 1.23,11.59 0.64,1.72 1.39,3.29 2.83,4.5 1.1,0.92 2.18,1.88 3.19,2.91 1.45,1.47 1.53,3.37 0.23,4.86 -1.19,1.37 -2.8,2.14 -4.5,1.6 -1.51,-0.47 -2.82,-0.11 -4.21,0.14 -1.26,0.23 -1.49,0.68 -0.91,1.83 0.94,1.85 1.84,3.73 2.91,5.51 0.45,0.75 1.17,1.47 1.95,1.84 1.05,0.5 2.26,0.73 3.43,0.9 0.47,0.07 1.13,-0.2 1.5,-0.53 1.77,-1.59 3,-3.47 3.21,-5.96 0.11,-1.25 0.54,-2.48 0.84,-3.72 0.25,-1 0.65,-1.97 0.77,-2.99 0.18,-1.65 0.66,-3.11 1.87,-4.3 0.77,-0.76 1.47,-1.59 2.29,-2.28 1.07,-0.91 1.42,-1.99 1.43,-3.37 0.05,-4.99 0.26,-9.99 0.3,-14.98 0,-0.57 -0.55,-1.24 -1.02,-1.7 -0.34,-0.33 -0.95,-0.38 -1.44,-0.55 -3.06,-1.04 -6.14,-2.04 -9.18,-3.13 -0.47,-0.17 -1.08,-0.7 -1.15,-1.15 -0.34,-1.97 1.23,-3.67 3.2,-3.8 0.97,-0.06 2.06,-0.11 2.87,-0.58 4.72,-2.72 7.25,-7.22 9.19,-12.06 1.27,-3.18 2.17,-6.51 3.21,-9.78 0.47,-1.47 1.32,-2.58 2.63,-3.43 0.88,-0.57 1.3,-0.49 1.68,0.49 1.08,2.8 1.21,5.68 0.83,8.62 -0.27,2.05 -0.77,4.09 -0.14,6.18 0.33,1.1 0.51,2.25 0.78,3.37 0.52,2.13 0.85,4.38 3.37,5.26 0.38,0.13 0.8,0.51 0.94,0.88 0.7,1.77 2.13,2.67 3.72,3.52 2.29,1.23 2.36,3.71 0.24,5.18 -0.45,0.31 -0.97,0.55 -1.49,0.75 -2.42,0.91 -4.91,1.38 -7.51,1.17 -0.68,-0.05 -1.36,0 -2.04,0.01 -0.87,0.01 -1.22,0.42 -1.06,1.3 0.4,2.16 0.73,4.33 1.16,6.48 0.4,2.03 1.6,2.66 3.4,1.64 1.38,-0.78 2.62,-1.81 3.86,-2.82 2.31,-1.89 4.73,-3.05 7.78,-1.78 1.34,0.55 1.92,0.17 2.23,-1.26 0.8,-3.75 1.57,-7.5 2.35,-11.26 0.16,-0.77 -0.07,-1.27 -0.94,-1.29 -2.73,-0.07 -4.98,-1.33 -7.12,-2.85 -1.26,-0.89 -1.18,-2.45 0.2,-3.16 1.03,-0.53 2.08,-1.04 3.18,-1.39 3.81,-1.22 5.94,-4.05 7.55,-7.49 1.77,-3.79 3.64,-7.54 5.46,-11.31 0.37,-0.77 1.02,-0.81 1.74,-0.61 0.73,0.2 1.38,0.49 1.3,1.44 -0.09,1.07 -0.16,2.15 -0.29,3.22 -0.52,4.2 -0.45,8.29 1.05,12.39 0.99,2.71 2.5,4.67 4.98,5.96 0.74,0.38 1.16,0.93 0.96,1.72 -0.3,1.22 -0.61,2.48 -1.14,3.61 -0.8,1.7 -1.53,1.95 -3.4,1.53 -0.78,-0.17 -1.56,-0.35 -2.35,-0.48 -1.45,-0.25 -1.9,0.06 -2.19,1.47 -0.22,1.1 -0.46,2.19 -0.67,3.29 -0.51,2.64 -0.95,5.25 0.34,7.85 0.7,1.42 2.83,2.31 3.85,1.24 2.85,-2.99 6.2,-5.52 7.13,-10.06 1.09,-5.36 4.59,-8.53 10.2,-9.12 2.14,-0.22 4.27,-0.61 6.41,-0.68 1.74,-0.05 3.49,0.26 5.24,0.42 1.55,0.14 3.09,0.33 4.64,0.4 0.94,0.04 1.88,-0.13 2.82,-0.18 0.67,-0.04 1.35,-0.12 2.01,-0.03 2.68,0.37 5.34,1.02 8.04,1.17 4.62,0.26 8.95,1.76 13.25,3.13 4.54,1.45 8.85,3.66 13.22,5.63 1.37,0.62 2.63,1.49 3.9,2.31 0.3,0.19 0.42,0.63 0.68,0.91 0.47,0.53 0.91,1.12 1.48,1.53 0.77,0.54 1.75,0.81 2.47,1.41 1.69,1.4 3.29,2.92 4.91,4.41 3.2,2.92 5.18,6.67 6.94,10.53 0.37,0.81 0.12,1.92 0.11,2.89 -0.01,0.65 -0.25,1.35 -0.1,1.95 0.57,2.2 1.24,4.37 1.9,6.55 0.25,0.83 0.3,1.57 -0.51,2.13 -0.8,0.56 -1.6,0.85 -2.54,0.27 -1.93,-1.19 -3.88,-2.36 -5.85,-3.5 -4.82,-2.8 -9.94,-4.82 -15.51,-5.28 -3.65,-0.3 -7.35,-0.25 -11.01,-0.08 -6.29,0.29 -12.42,1.72 -18.43,3.48 -3.76,1.1 -7.19,3.08 -10.22,5.64 -1.84,1.54 -3.65,3.12 -5.48,4.67 -2.22,1.88 -4.06,4.07 -5.47,6.62 -2.89,5.25 -5.79,10.49 -8.69,15.73 -0.33,0.59 -0.67,1.18 -0.99,1.78 -0.47,0.88 -0.3,1.59 0.3,2.41 0.58,0.8 1.05,1.8 1.22,2.77 0.37,2.19 0.01,4.28 -1.33,6.17 -0.32,0.46 -0.5,1.27 -0.31,1.76 0.11,0.3 1.02,0.34 1.58,0.44 1.41,0.25 3,0.13 4.19,0.77 3.1,1.65 6.22,3.19 8.77,5.88 5.26,5.56 9.33,11.74 11.71,19.02 0.32,0.97 0.56,2.01 0.58,3.03 0.04,1.5 -0.97,2.39 -2.26,2.94 -1.21,0.52 -2.13,0.06 -3.15,-0.73 -1.29,-1.01 -2.76,-1.89 -4.29,-2.5 -1.73,-0.69 -3.6,-1.02 -5.42,-1.48 -4.36,-1.09 -8.43,-0.74 -12.18,2.06 -2.68,2 -5.1,4.24 -7.18,6.85 -1.07,1.34 -1.02,1.79 -0.04,3.17 1.37,1.92 2.75,3.83 4.03,5.81 1.22,1.9 2.11,2.25 4.38,2.02 1.56,-0.16 3.4,-0.75 4.43,1.24 0.06,0.12 0.25,0.2 0.39,0.26 0.86,0.41 1.13,1.14 0.95,2 -0.25,1.2 -0.52,2.41 -0.93,3.57 -0.49,1.41 -0.29,1.78 1.24,1.83 0.92,0.03 1.85,-0.01 2.75,0.16 0.97,0.19 2.06,0.36 2.81,0.93 3.93,2.94 7.79,5.98 11.63,9.04 1.14,0.9 1.96,1.02 3.11,0.14 0.32,-0.24 0.61,-0.52 0.89,-0.8 2.75,-2.8 5.98,-4.92 9.51,-6.6 0.38,-0.18 0.87,-0.35 1.24,-0.26 2.11,0.52 4.39,0.44 6.29,1.76 0.37,0.26 0.91,0.43 1.36,0.41 0.49,-0.02 1.01,-0.23 1.45,-0.48 0.67,-0.37 1.23,-1.04 1.94,-1.25 2.02,-0.6 4.09,-1.06 6.15,-1.53 2.01,-0.46 4.16,-0.54 6.03,-1.32 7.42,-3.09 13.48,-8.01 17.87,-14.74 4.62,-7.07 8.56,-14.51 11.04,-22.64 0.12,-0.39 0.32,-0.76 0.48,-1.14 0.12,0 0.23,-0.01 0.35,-0.01 0.39,0.98 0.9,1.94 1.13,2.96 0.48,2.1 0.72,4.26 1.23,6.35 0.85,3.52 0.93,7.04 0.21,10.58 -0.66,3.25 -1.34,6.49 -2.09,9.71 -0.67,2.87 -1.4,5.72 -2.18,8.57 -0.76,2.77 -1.64,5.51 -2.41,8.28 -0.49,1.75 -0.62,3.66 -1.38,5.28 -3.75,7.97 -8.04,15.64 -13.72,22.43 -5.05,6.04 -10.9,11.19 -17.98,14.7 -5.5,2.73 -11.31,4.75 -17.26,6.4 -8.06,2.24 -16.18,4.06 -24.5,5 -2.02,0.23 -4.05,0.4 -6.07,0.6 -2.96,0 -5.92,0 -8.88,0 -1.98,-0.45 -3.97,-0.89 -5.95,-1.35 -3.18,-0.74 -6.39,-1.39 -9.53,-2.27 -3.61,-1.02 -7.26,-2 -10.7,-3.45 -4.79,-2.01 -9.46,-4.36 -14.1,-6.72 -4.07,-2.07 -7.94,-4.49 -11.17,-7.79 -2.43,-2.49 -4.92,-4.93 -7.22,-7.53 -1.72,-1.94 -3.38,-3.98 -4.71,-6.19 -4.87,-8.07 -8.6,-16.66 -11.27,-25.71 -0.13,-0.45 -0.28,-0.98 -0.61,-1.27 -1.97,-1.73 -2.64,-4.05 -2.98,-6.5 -0.51,-3.72 -0.91,-7.46 -1.43,-11.18 -0.39,-2.77 -1.6,-5.04 -4.1,-6.57 -1.97,-1.21 -2.56,-3.44 -1.46,-5.48 2.47,-4.59 3.54,-9.63 4.91,-14.59 0.12,-0.42 0.13,-0.87 0.17,-1.31 0.4,-4.93 0.06,-9.74 -2.24,-14.25 -0.84,-1.65 -0.7,-3.29 0.14,-4.95 0.36,-0.72 0.55,-1.59 0.59,-2.4 0.07,-1.52 0.13,-1.73 1.67,-1.88 2.94,-0.28 5.43,-1.52 7.67,-3.37 0.43,-0.36 0.89,-0.68 1.33,-1.03 2.34,-1.83 3.85,-4.22 4.66,-7.06 0.25,-0.89 -0.03,-1.47 -0.88,-1.97 -1.58,-0.93 -3.11,-1.96 -4.6,-3.03 -0.41,-0.3 -0.94,-0.88 -0.9,-1.29 0.18,-2.1 -0.93,-3.66 -1.91,-5.3 C 12.81,73.37 11.74,71.36 11.55,69.02 11.38,66.96 10.4,65.98 8.33,65.91 7.51,65.89 6.54,65.88 5.87,66.27 3.7,67.56 2.39,66.22 1.07,64.89 0.58,64.44 0.34,63.77 0,63.2 Z m 78.54,96.87 c -0.11,0.04 -0.22,0.09 -0.34,0.13 -0.37,-0.48 -0.83,-0.92 -1.1,-1.46 -1.23,-2.38 -2.3,-4.83 -3.64,-7.14 -0.61,-1.06 -1.59,-1.99 -2.59,-2.74 -1.75,-1.3 -3.64,-2.41 -5.47,-3.6 -1.07,-0.69 -2.09,-1.49 -3.23,-2.05 -2.58,-1.26 -5.22,-2.4 -7.84,-3.59 -2.05,-0.93 -4.21,-1.23 -6.43,-1.07 -1.19,0.09 -2.3,0.98 -2.33,1.89 -0.04,1.25 1.01,1.36 1.85,1.68 0.15,0.06 0.31,0.07 0.46,0.12 2.81,0.83 5.21,2.33 7.34,4.35 4.29,4.07 7.53,8.89 10.24,14.09 0.81,1.56 1.57,3.15 2.24,4.77 0.68,1.65 -0.21,2.7 -1.96,2.37 -0.5,-0.09 -1.02,-0.27 -1.46,-0.53 -2.69,-1.57 -5.58,-2.11 -8.64,-1.76 -0.47,0.05 -1.16,0.21 -1.31,0.52 -0.16,0.35 0.11,0.97 0.32,1.41 0.18,0.38 0.54,0.69 0.83,1.02 1.62,1.83 3.24,3.65 4.85,5.48 0.6,0.68 0.99,1.45 0.41,2.27 -0.7,0.99 -0.81,2.55 -2.67,2.46 -2.66,-0.13 -5.34,-0.04 -8,-0.02 -1.07,0.01 -1.87,0.43 -2.03,1.61 -0.16,1.1 0.49,1.6 1.37,2.11 1.33,0.77 2.6,1.68 3.81,2.63 1.49,1.17 1.73,2.59 0.75,4.3 -0.92,1.62 -0.64,3.33 0.09,4.96 0.41,0.91 2.21,1.65 2.97,1.29 0.65,-0.31 0.99,-1.76 0.48,-2.74 -0.76,-1.45 -0.4,-2.66 0.42,-3.92 0.84,-1.3 1.57,-2.68 2.35,-4.01 0.36,-0.62 0.72,-1.24 1.14,-1.82 2.06,-2.84 4.24,-5.6 6.19,-8.51 1.93,-2.9 4.39,-5.3 6.99,-7.53 1.16,-0.99 2.78,-1.49 4.24,-2.09 2.01,-0.84 4.13,-1.45 6.1,-2.38 1.83,-0.87 2.17,-2.55 1.11,-4.31 -1.11,-1.84 -2.18,-3.72 -3.42,-5.48 -0.87,-1.22 -1.92,-2.36 -3.06,-3.33 -0.51,-0.44 -1.45,-0.37 -2.2,-0.53 -0.08,0.63 -0.32,1.29 -0.23,1.89 0.41,2.6 0.94,5.19 1.39,7.78 0.08,0.47 0.01,0.98 0.01,1.48 z M 58.92,95.31 c -0.07,0.13 -0.14,0.26 -0.21,0.39 1.21,1.14 1.44,2.56 1.35,4.09 -0.01,0.23 0.02,0.49 0.12,0.7 1.04,2.37 2.01,4.79 3.2,7.08 0.37,0.71 1.3,1.26 2.1,1.58 1.33,0.53 2.78,0.72 4.12,1.21 1.31,0.48 2.5,0.56 3.81,-0.02 1.19,-0.52 1.4,-0.82 0.76,-1.94 -1.21,-2.12 -2.45,-4.21 -3.71,-6.3 -1.74,-2.89 -4.31,-4.83 -7.41,-6 -1.28,-0.5 -2.74,-0.54 -4.13,-0.79 z m 28.03,35.72 c -1.4,0.42 -3.1,0.66 -4.54,1.41 -2.12,1.1 -4.08,2.51 -6.04,3.87 -1.56,1.08 -1.74,2.17 -0.73,3.79 0.38,0.6 0.82,1.23 1.39,1.62 2.39,1.68 2.7,1.4 4.24,-0.24 2.36,-2.52 4.85,-4.86 7.94,-6.48 0.66,-0.35 1.25,-0.86 1.8,-1.38 0.69,-0.66 0.6,-1.36 -0.29,-1.68 -1.1,-0.4 -2.29,-0.57 -3.77,-0.91 z m -32.08,46.26 c 0.51,-0.58 0.81,-0.92 1.12,-1.25 -0.37,-0.32 -0.71,-0.77 -1.14,-0.91 -0.19,-0.06 -0.82,0.52 -0.82,0.81 0,0.37 0.44,0.74 0.84,1.35 z M 64.91,43.18 c 0,0.23 0.01,0.45 0.01,0.68 0.55,0.06 1.09,0.13 1.64,0.19 -0.05,-0.36 -0.09,-1.02 -0.16,-1.03 -0.49,-0.02 -0.99,0.09 -1.49,0.16 z"
   id="path4"
   inkscape:connector-curvature="0"
   style="fill:#000000;fill-opacity:1" />
    </g>
</g>
</svg>