<?xml version="1.0" encoding="UTF-8" standalone="no"?>
<!-- Created with Inkscape (http://www.inkscape.org/) -->

<svg
   xmlns:dc="http://purl.org/dc/elements/1.1/"
   xmlns:cc="http://creativecommons.org/ns#"
   xmlns:rdf="http://www.w3.org/1999/02/22-rdf-syntax-ns#"
   xmlns:svg="http://www.w3.org/2000/svg"
   xmlns="http://www.w3.org/2000/svg"
   xmlns:sodipodi="http://sodipodi.sourceforge.net/DTD/sodipodi-0.dtd"
   xmlns:inkscape="http://www.inkscape.org/namespaces/inkscape"
   width="215"
   height="215"
   viewBox="0 0 56.885415 56.885418"
   version="1.1"
   id="svg8"
   inkscape:version="0.92.3 (2405546, 2018-03-11)"
   sodipodi:docname="wild_cave_creatures.svg">
  <defs
     id="defs2" />
  <sodipodi:namedview
     id="base"
     pagecolor="#ffffff"
     bordercolor="#666666"
     borderopacity="1.0"
     inkscape:pageopacity="0.0"
     inkscape:pageshadow="2"
     inkscape:zoom="11.313709"
     inkscape:cx="80.868016"
     inkscape:cy="214.76133"
     inkscape:document-units="px"
     inkscape:current-layer="layer1"
     showgrid="false"
     units="px"
     inkscape:window-width="1920"
     inkscape:window-height="1017"
     inkscape:window-x="-8"
     inkscape:window-y="-8"
     inkscape:window-maximized="1"
     inkscape:snap-global="false" />
  <metadata
     id="metadata5">
    <rdf:RDF>
      <cc:Work
         rdf:about="">
        <dc:format>image/svg+xml</dc:format>
        <dc:type
           rdf:resource="http://purl.org/dc/dcmitype/StillImage" />
        <dc:title></dc:title>
      </cc:Work>
    </rdf:RDF>
  </metadata>
  <g
     inkscape:label="Layer 1"
     inkscape:groupmode="layer"
     id="layer1"
     transform="translate(0,-240.11457)">
    <g
       id="g1112"
       transform="matrix(4.0818435,0,0,4.0818435,99.061113,-841.17828)"
       style="stroke:none;fill:#000000;fill-opacity:1">
      <g
         id="g1092"
         style="stroke:none;fill:#000000;fill-opacity:1">
        <g
           id="g1064"
           style="stroke:none;fill:#000000;fill-opacity:1">
          <path
             sodipodi:nodetypes="ccczc"
             inkscape:connector-curvature="0"
             id="path838"
             d="m -13.831198,276.48705 c -0.966977,-0.2591 0.200867,-1.82385 0.517835,-3.00679 1.025231,-3.82621 1.722896,-1.3891 1.503392,-6.5481 1.8923073,2.3985 1.183907,7.36763 -0.0167,7.83435 -1.200607,0.46672 -1.1691,1.89779 -2.004527,1.72054 z"
             style="fill:#000000;fill-opacity:1;stroke:none;stroke-width:0.26458332px;stroke-linecap:butt;stroke-linejoin:miter;stroke-opacity:1" />
          <path
             sodipodi:nodetypes="ccsccc"
             inkscape:connector-curvature="0"
             id="path846"
             d="m -21.047475,276.483 c 0.742409,0.17817 1.062629,-0.99413 0.801804,-1.54945 -0.309303,-0.61021 -0.632004,-1.37205 -1.235952,-2.75719 -0.603947,-1.38514 -1.489142,-1.65634 -1.319815,-4.35887 -1.511253,1.61995 -1.313407,4.28513 -0.692596,5.92058 0.377702,1.07839 2.1297,2.66003 2.446559,2.74493 z"
             style="fill:#000000;fill-opacity:1;stroke:none;stroke-width:0.26458332px;stroke-linecap:butt;stroke-linejoin:miter;stroke-opacity:1" />
        </g>
        <g
           id="g1076"
           style="stroke:none;fill:#000000;fill-opacity:1">
          <path
             sodipodi:nodetypes="zccz"
             inkscape:connector-curvature="0"
             id="path840"
             d="m -15.160389,275.17186 c 0.156723,-0.27145 0.764778,-1.41579 0.868166,-1.96075 0.32656,1.99095 -0.322063,3.34444 -0.997798,3.34444 -0.219706,0 -0.02709,-1.11224 0.129632,-1.38369 z"
             style="fill:#000000;fill-opacity:1;stroke:none;stroke-width:0.26458332px;stroke-linecap:butt;stroke-linejoin:miter;stroke-opacity:1" />
          <path
             sodipodi:nodetypes="ccc"
             inkscape:connector-curvature="0"
             id="path844"
             d="m -15.568446,272.74528 c 0,1.40995 0.329446,3.66994 -0.851918,3.66994 -0.444703,0 -0.376359,-2.95277 0.851918,-3.66994 z"
             style="fill:#000000;fill-opacity:1;stroke:none;stroke-width:0.26458332px;stroke-linecap:butt;stroke-linejoin:miter;stroke-opacity:1" />
          <path
             sodipodi:nodetypes="czcc"
             inkscape:connector-curvature="0"
             id="path861"
             d="m -17.43154,276.49501 c -0.454274,0 -0.851469,-1.19454 -0.727767,-1.65621 0.123702,-0.46166 0.362118,-1.08304 0.311744,-2.07654 0.818603,0.48322 1.314633,3.73275 0.416023,3.73275 z"
             style="fill:#000000;fill-opacity:1;stroke:none;stroke-width:0.26458332px;stroke-linecap:butt;stroke-linejoin:miter;stroke-opacity:1" />
          <path
             style="fill:#000000;fill-opacity:1;stroke:none;stroke-width:0.19478536px;stroke-linecap:butt;stroke-linejoin:miter;stroke-opacity:1"
             d="m -18.912299,276.06164 c -0.506885,0.0496 -0.727048,-0.77968 -0.793229,-1.93512 1.10856,1.01119 1.300113,1.88555 0.793229,1.93512 z"
             id="path863"
             inkscape:connector-curvature="0"
             sodipodi:nodetypes="zcz" />
          <path
             style="fill:#000000;fill-opacity:1;stroke:none;stroke-width:0.19478536px;stroke-linecap:butt;stroke-linejoin:miter;stroke-opacity:1"
             d="m -19.481671,273.85839 c -1.066951,-0.74882 -1.600351,-3.32619 -0.690341,-3.32619 1.431261,0 0.632463,2.36306 0.690341,3.32619 z"
             id="path863-8"
             inkscape:connector-curvature="0"
             sodipodi:nodetypes="ccc" />
          <path
             sodipodi:nodetypes="ccc"
             inkscape:connector-curvature="0"
             id="path922"
             d="m -18.78029,272.56771 c -0.358147,-0.64867 -3.27e-4,-1.72191 0.250317,-1.69226 0.31289,0.037 0.333059,1.10663 -0.250317,1.69226 z"
             style="fill:#000000;fill-opacity:1;stroke:none;stroke-width:0.19478536px;stroke-linecap:butt;stroke-linejoin:miter;stroke-opacity:1" />
          <path
             sodipodi:nodetypes="ccc"
             inkscape:connector-curvature="0"
             id="path924"
             d="m -15.22705,273.68299 c 0.891638,-0.89164 1.939449,-3.52497 0.748806,-3.52497 -0.636133,0 -0.748806,1.20534 -0.748806,3.52497 z"
             style="fill:#000000;fill-opacity:1;stroke:none;stroke-width:0.19478536px;stroke-linecap:butt;stroke-linejoin:miter;stroke-opacity:1" />
          <path
             style="fill:#000000;fill-opacity:1;stroke:none;stroke-width:0.19478536px;stroke-linecap:butt;stroke-linejoin:miter;stroke-opacity:1"
             d="m -16.524977,272.75923 c 0.271907,-0.55255 0.407661,-1.99318 -0.09309,-1.99318 -0.437351,0 -0.152461,1.07671 0.09309,1.99318 z"
             id="path926"
             inkscape:connector-curvature="0"
             sodipodi:nodetypes="ccc" />
          <path
             style="fill:#000000;fill-opacity:1;stroke:none;stroke-width:0.19478536px;stroke-linecap:butt;stroke-linejoin:miter;stroke-opacity:1"
             d="m -17.458976,272.78988 c -0.708939,-0.89422 -0.628924,-2.15998 -0.147247,-2.15998 0.481677,0 0.414911,1.51589 0.147247,2.15998 z"
             id="path928"
             inkscape:connector-curvature="0"
             sodipodi:nodetypes="czc" />
          <path
             sodipodi:nodetypes="ccc"
             inkscape:connector-curvature="0"
             id="path930"
             d="m -15.928632,272.50198 c 0.482382,-0.51747 0.641522,-1.92302 0.140771,-1.92302 -0.437351,0 -0.234312,0.97148 -0.140771,1.92302 z"
             style="fill:#000000;fill-opacity:1;stroke:none;stroke-width:0.19478536px;stroke-linecap:butt;stroke-linejoin:miter;stroke-opacity:1" />
        </g>
      </g>
      <g
         id="g1060"
         style="stroke:none;fill:#000000;fill-opacity:1">
        <path
           style="fill:#000000;fill-opacity:1;stroke:none;stroke-width:0.26458332px;stroke-linecap:butt;stroke-linejoin:miter;stroke-opacity:1"
           d="m -18.757068,278.06587 h 3.000186 c 0.721759,0 1.445717,0.7734 1.957886,0.7734 0.512168,0 1.306912,-0.2618 1.550205,-0.72921 0.243294,-0.46741 0.400929,-2.01228 0.01874,-2.86038 -0.251093,0.56436 -0.675111,1.14046 -1.140848,1.36325 -0.221445,0.0896 -0.55547,0.0777 -0.738138,0.0324 -0.182667,-0.0454 -0.151356,-0.19494 -0.399373,-0.19773 -0.248018,-0.003 -0.550566,0.58001 -0.846864,0.46062 -0.151112,-0.0756 -0.153554,-0.92132 -0.153554,-0.92132 0,0 -0.659338,0.68498 -0.968317,0.76777 -0.153145,0.0546 -0.38287,-0.4312 -0.38287,-0.4312 0,0 -0.279225,0.60551 -0.574129,0.60551 -0.294904,0 -0.921317,-1.22556 -0.921317,-1.22556 0,0 -0.300829,0.81431 -0.541212,0.81431 -0.243938,0.0145 -0.372235,-0.48456 -0.864386,-0.9088 -0.05187,0 -0.157288,0.0274 -0.188989,0.0591 -0.114911,0.11492 -0.146961,0.42386 -0.224423,0.57878 -0.141875,0.28375 -0.214109,0.67829 -0.815011,0.55516 -0.600902,-0.12314 -1.079146,-0.75456 -1.522038,-1.34976 -0.04501,1.33781 0.0077,3.16013 1.446126,3.1826 0.700781,0 1.443879,-0.56894 2.308326,-0.56894 z"
           id="path850"
           inkscape:connector-curvature="0"
           sodipodi:nodetypes="zzzzcczccccczccccczccz" />
        <path
           style="fill:#000000;fill-opacity:1;stroke:none;stroke-width:0.99999994px;stroke-linecap:butt;stroke-linejoin:miter;stroke-opacity:1"
           d="m -72.189453,93.689453 c -0.628112,-0.02554 -1.367191,0.382275 -2.498047,0.873047 -1.809369,0.785235 -7.243842,6.55635 -7.90625,7.21875 -0.662411,0.6624 -0.25,2.96934 -0.25,3.75 0,0.78066 -1.947266,1.00201 -1.947266,4.69336 0,1.83522 1.987666,1.53454 2.666016,2.21289 0.986872,1.09757 -0.70784,3.4241 3.3125,5.125 0,0 0.263898,-3.1875 1.09375,-3.1875 h 4.03125 c 0.877508,0 0.796227,1.34882 1.40625,2.21875 0.735024,-0.66134 1.618285,-1.46875 2.34375,-1.46875 0.725465,0 0.875063,0.43071 1.375,1.0625 0.343684,-0.86823 1.275218,-1.84375 2.09375,-1.84375 0.818532,0 1.715691,0.56583 2.09375,1.78125 0.248092,-0.64845 1.357063,-1.75 1.9375,-1.75 0.580437,0 1.002543,0.66208 1.125,1.5 0.168234,-0.7344 1.221036,-2.20313 1.789062,-2.20312 0.568029,0 1.460938,2.26562 1.460938,2.26562 0,0 1.935976,-3.625 3.28125,-3.625 1.345274,0 3.34375,3.79371 3.34375,5.25 0.921226,-2.42128 1.043894,-4.48887 0.9375,-7.0625 0,0 2.121905,0.81556 3.78125,2.75 1.190597,-1.50312 1.227251,-5.17047 0.71875,-6.1875 -0.508501,-1.01715 -1.058654,-0.42984 -1.375,-1.0625 -0.316328,-0.63266 -0.8125,-1.46142 -0.8125,-2 0,-0.53858 0.997405,-1.58836 0.375,-2.5625 -1.299817,-2.077077 -4.604108,-4.848284 -7.25,-6.4375 -2.645892,-1.589216 -7.038069,0.125 -8.4375,0.125 -1.399431,0 -3.320817,-0.153529 -3.445312,0.308594 -0.124513,0.462236 -0.200096,0.291293 -1.220704,0.175781 -1.020608,-0.115512 -1.577632,-1.820452 -4.023437,-1.919922 z m 17.650391,10.667967 c -0.361289,1.81195 -3.306311,4.08521 -4.908204,3.55664 0.660692,-2.13751 2.813279,-3.02641 4.908204,-3.55664 z m -22.144532,1.02344 c 1.928233,-0.0456 3.634039,0.26369 4.908203,2.44336 -2.618358,0.61697 -4.942861,-0.4175 -5.746093,-2.40625 0.283963,-0.0166 0.562428,-0.0306 0.83789,-0.0371 z m 10.441406,2.36914 c 0.31021,-0.003 0.624628,0.0323 1.03125,0.11719 0.100423,0.0269 0.202947,0.62072 0.261719,0.67968 0.05877,0.0586 0.247604,0.26223 0.234375,0.27735 -0.09241,0.0922 -0.175006,0.11703 -0.27539,0.27539 -0.100385,0.15874 -0.14429,0.37695 -0.201172,0.37695 0.0051,0.10692 -0.123723,-0.31808 -0.244141,-0.42968 -0.121096,-0.11226 -0.287109,-0.15324 -0.287109,-0.21485 0.33617,-0.16036 0.462525,-0.45158 0.394531,-0.86328 -0.116999,-0.23395 -1.263475,-0.15964 -1.554687,-0.0625 -0.200055,0.20005 -0.125276,0.60913 -0.05078,0.68359 0.07449,0.0745 0.26675,0.095 0.339844,0.16798 -0.04811,0.037 -0.36459,0.0976 -0.425781,0.28125 -0.06788,0.10374 -0.09405,0.42382 -0.160156,0.42382 -0.0661,0 -0.142126,-0.3199 -0.281251,-0.45899 -0.13576,-0.13682 -0.372478,-0.26652 -0.367187,-0.26952 0.114142,-0.0571 0.221038,-0.097 0.324219,-0.14844 0.158475,-0.0675 0.105082,-0.65024 0.257812,-0.72656 0.3877,-0.066 0.693699,-0.10655 1.003906,-0.10938 z"
           transform="matrix(0.26458333,0,0,0.26458333,0,240.11457)"
           id="path932"
           inkscape:connector-curvature="0"
           sodipodi:nodetypes="cscssccsscscscscccscccccscssczccccscccsccccccccccccsccccscc" />
      </g>
    </g>
    <path
       style="opacity:1;fill:#898987;fill-opacity:1;fill-rule:nonzero;stroke:none;stroke-width:0.17705508;stroke-linecap:butt;stroke-linejoin:miter;stroke-miterlimit:4;stroke-dasharray:none;stroke-dashoffset:0;stroke-opacity:1;paint-order:markers fill stroke"
       d=""
       id="path1034"
       inkscape:connector-curvature="0"
       transform="matrix(0.26458333,0,0,0.26458333,0,240.11457)" />
  </g>
</svg>
