<?xml version="1.0" encoding="UTF-8" standalone="no"?>
<!-- Generated by IcoMoon.io -->

<svg
   xmlns:dc="http://purl.org/dc/elements/1.1/"
   xmlns:cc="http://creativecommons.org/ns#"
   xmlns:rdf="http://www.w3.org/1999/02/22-rdf-syntax-ns#"
   xmlns:svg="http://www.w3.org/2000/svg"
   xmlns="http://www.w3.org/2000/svg"
   xmlns:sodipodi="http://sodipodi.sourceforge.net/DTD/sodipodi-0.dtd"
   xmlns:inkscape="http://www.inkscape.org/namespaces/inkscape"
   version="1.1"
   width="215"
   height="215"
   viewBox="0 0 215 215"
   id="svg6"
   sodipodi:docname="monster_of_death.svg"
   inkscape:version="0.92.3 (2405546, 2018-03-11)">
  <metadata
     id="metadata12">
    <rdf:RDF>
      <cc:Work
         rdf:about="">
        <dc:format>image/svg+xml</dc:format>
        <dc:type
           rdf:resource="http://purl.org/dc/dcmitype/StillImage" />
        <dc:title>monster-of-death</dc:title>
      </cc:Work>
    </rdf:RDF>
  </metadata>
  <defs
     id="defs10" />
  <sodipodi:namedview
     pagecolor="#ffffff"
     bordercolor="#666666"
     borderopacity="1"
     objecttolerance="10"
     gridtolerance="10"
     guidetolerance="10"
     inkscape:pageopacity="0"
     inkscape:pageshadow="2"
     inkscape:window-width="1920"
     inkscape:window-height="1017"
     id="namedview8"
     showgrid="false"
     fit-margin-top="0"
     fit-margin-left="0"
     fit-margin-right="0"
     fit-margin-bottom="0"
     inkscape:zoom="0.65186407"
     inkscape:cx="-714.74606"
     inkscape:cy="55.222766"
     inkscape:window-x="-8"
     inkscape:window-y="-8"
     inkscape:window-maximized="1"
     inkscape:current-layer="svg6" />
  <title
     id="title2">monster-of-death</title>
  <path
     d="m 83.294876,12.779422 c 0.06718,-0.82632 0.03359,-0.88007 -0.933816,-1.81388 -0.752427,-0.71884 -2.358053,-0.87336 -3.097044,-0.19483 -0.638219,0.58448 -1.222694,1.25629 -1.692961,1.97512 -1.074896,1.63922 -2.250563,3.17766 -3.654646,4.54144 -0.786018,0.75914 -0.819608,1.61906 -0.194825,2.44539 1.363774,1.80716 3.916652,2.18338 5.65664,0.7054 2.33118,-1.98856 3.997269,-4.39364 3.916652,-7.66536 z m 3.856189,167.475508 c 0.01344,-0.71883 0.04703,-1.44439 0.04031,-2.15651 -0.03359,-2.1901 -0.100772,-4.37348 -0.100772,-6.56358 0,-0.88007 0.14108,-1.76014 0.221698,-2.64693 0.241851,-2.69396 0.510575,-5.37448 0.718836,-8.07516 0.10749,-1.37721 0.510576,-2.64021 1.148795,-3.84947 0.792736,-1.49813 1.578754,-1.85419 3.231406,-1.41752 0.483703,0.12765 0.974125,0.20827 1.464546,0.26201 0.161234,0.0202 0.396368,-0.0806 0.497139,-0.21498 0.725555,-0.90022 1.531727,-1.76014 2.12292,-2.73427 1.195821,-1.99527 2.257281,-4.07788 3.426231,-6.07988 0.376216,-0.63822 0.940536,-1.14879 1.404086,-1.73327 0.36949,-0.45683 0.71883,-0.92709 1.25628,-1.63921 -1.43767,0.14108 -2.47898,0.30903 -3.352331,1.12192 -0.369495,0.34934 -0.806172,0.92038 -1.424237,0.38293 -0.403086,-0.34262 -0.28216,-0.94053 0.201543,-1.6325 2.196815,-3.17766 4.480975,-6.30829 6.550145,-9.57329 1.52501,-2.39836 2.62678,-5.03185 3.45982,-7.77284 0.63151,-2.09605 1.25629,-4.19209 1.94825,-6.26799 0.20155,-0.60462 0.57104,-1.17566 0.98085,-1.66608 0.78601,-0.96069 1.78029,-1.06818 2.94924,-0.30904 0.42324,-1.35705 0.75915,-2.60662 1.1891,-3.82931 1.14208,-3.21126 1.14208,-6.59046 1.57876,-9.9092 0.12764,-0.96069 0.44339,-1.8945 0.60463,-2.84848 0.14108,-0.92037 0.19482,-1.847477 0.262,-2.774575 0.0739,-1.014433 0.42324,-1.793732 1.52501,-2.075893 0.71884,-0.181388 0.7054,-0.214979 1.53173,0.456831 0.7054,-1.269721 1.47798,-2.512569 1.67952,-3.936806 0.45683,-3.224688 1.04131,-6.442658 0.80618,-9.727809 -0.0605,-0.873356 -0.12765,-1.773576 -0.38965,-2.599906 -0.54417,-1.75342 -0.39637,-3.25828 0.56432,-4.91765 1.66608,-2.87534 2.64693,-6.03957 3.1575,-9.34487 0.24857,-1.59891 -0.38293,-2.90222 -1.16895,-4.16523 -0.16795,-0.262 -0.61806,-0.36949 -0.96069,-0.49042 -0.94053,-0.34934 -1.57875,-0.93381 -1.76685,-1.97512 -0.0672,-0.37621 -0.34935,-0.71883 -0.54417,-1.06818 -0.14108,-0.24185 -0.42324,-0.45011 -0.45011,-0.69196 -0.19483,-1.76686 -0.87336,-3.39264 -1.42424,-5.05873 -0.28216,-0.87335 -0.42324,-1.78701 -0.87335,-2.62678 -0.26201,-0.4837 -0.36278,-1.04802 -0.55089,-1.57203 -0.10749,-0.30232 -0.16795,-0.65166 -0.36949,-0.88007 -0.88007,-1.04131 -1.01444,-2.28416 -0.96741,-3.55388 0.0403,-1.3369 0.68525,-2.03558 2.02887,-2.25728 0.55088,-0.0941 1.10848,-0.10077 1.78029,-0.16795 -0.39637,-0.75915 -0.67853,-1.46455 -1.49813,-1.87435 -0.40981,-0.21498 -0.63822,-0.76586 -0.96741,-1.1488 -0.3695,-0.41652 -0.75915,-0.81289 -1.23613,-1.33018 -0.75915,1.12192 -1.54516,2.12964 -2.16323,3.23812 -0.57104,1.02116 -1.27644,1.84076 -2.34462,2.28416 -0.92709,0.38965 -1.20253,1.02115 -1.0413,1.98856 0.16795,1.01443 0.21498,2.03558 0.30903,3.04329 0.96069,0.55761 1.15552,0.95397 0.64494,1.87435 -0.39637,0.70541 -0.39637,1.37722 -0.37621,2.13636 0.0605,1.91466 0.0739,3.82932 0.0134,5.73726 -0.0201,0.62478 -0.16124,1.37049 -0.52402,1.84747 -0.57775,0.739 -0.59119,1.50486 -0.6315,2.35134 -0.0336,0.68525 -0.0806,1.45111 -0.42324,2.00871 -0.5576,0.9271 -0.71883,1.87435 -0.73899,2.91566 -0.0336,1.58547 -0.84648,2.76114 -1.97512,3.84275 -1.84748,1.7803 -3.53372,3.71511 -4.13835,6.33517 -0.0605,0.262 -0.1478,0.53073 -0.24185,0.87335 -0.81961,-0.0537 -1.32347,-0.49042 -1.58547,-1.16895 -0.53073,-1.37049 -1.65265,-2.12964 -2.828322,-2.84847 -0.396368,-0.24185 -0.7793,-0.48371 -1.175668,-0.7054 -0.396368,-0.2217 -0.792736,-0.5173 -1.229412,-0.61135 -1.847477,-0.39637 -3.701673,-0.30903 -5.555868,0.007 -0.262006,0.0403 -0.577757,0.1478 -0.752428,0.3359 -0.792735,0.83977 -1.80045,0.88679 -2.848474,0.87336 -0.698682,-0.007 -1.397365,0.047 -2.102765,0.0537 -1.189104,0.0269 -2.290872,0.21498 -3.184379,1.13536 -0.712119,0.73227 -1.645935,1.04802 -2.660368,1.06146 -1.504854,0.0202 -2.814883,0.67181 -4.03086,1.42424 -1.457827,0.90022 -2.8955,1.86763 -3.930088,3.3053 -0.288878,0.39637 -0.765863,0.67181 -1.155513,1.001 -0.644938,0.53745 -1.283157,1.07489 -1.934813,1.605624 -1.027869,0.853198 -2.109483,1.645934 -3.076889,2.57975 -1.128641,1.09505 -2.15651,2.304308 -3.238124,3.453103 -0.188107,0.201543 -0.423241,0.476985 -0.651656,0.49714 -1.598908,0.14108 -3.238124,0.503857 -4.73626,-0.503858 -0.409804,-0.28216 -0.92038,-0.416522 -1.330184,-0.678528 -0.53073,-0.349341 -1.088332,-0.698682 -1.518291,-1.162231 -0.712118,-0.759145 -1.464545,-1.175668 -2.552877,-1.148795 -2.754421,0.06718 -5.508842,-0.01344 -8.256545,0.01344 -1.068178,0.01344 -1.941531,-0.174671 -2.351335,-1.310029 -0.08733,-0.241852 -0.376213,-0.396368 -0.571038,-0.597911 -0.712119,-0.705401 -0.718837,-0.880071 -0.208261,-1.760145 0.127644,-0.21498 0.147798,-0.49714 0.235133,-0.75243 0.08733,-0.25529 0.100772,-0.62478 0.275442,-0.73899 0.826327,-0.52401 0.644938,-1.25628 0.483703,-1.98856 -0.235133,-1.08833 -0.429958,-2.1901 -0.759145,-3.25156 -0.53073,-1.69968 -0.28216,-3.42623 -0.28216,-5.13934 -0.0067,-0.73899 0.335905,-1.42424 0.967406,-1.94153 0.456831,-0.37622 0.826327,-0.86664 1.390647,-1.47127 0.221697,0.59119 0.470267,1.02115 0.557602,1.4847 0.429959,2.37821 1.780297,4.15179 3.600902,5.64321 0.765863,0.62478 1.551881,0.71883 2.465542,0.34934 1.108487,-0.43668 2.257282,-0.78602 3.567311,-1.22942 0,-1.0413 0.0067,-2.29087 0,-3.54043 -0.0067,-0.88008 -0.0067,-1.7064 0.510576,-2.53945 0.42324,-0.68524 0.463549,-1.5989 0.698682,-2.39836 0.147798,-0.53073 0.329187,-1.06146 0.510576,-1.59219 0.214979,-0.63822 0.718836,-0.82632 1.330183,-0.7793 0.577757,0.0537 0.967407,0.42996 1.054742,0.96741 0.100772,0.64494 0.120926,1.30331 0.08062,1.95497 -0.08733,1.18238 0.10749,2.30431 0.450113,3.42623 0.147798,0.4837 0.154516,1.00771 0.214979,1.51157 0.08062,0.69196 0.349341,1.22941 1.249567,1.50485 0.127644,-0.47698 0.28216,-0.8935 0.349341,-1.31674 0.147798,-0.82633 0.208261,-1.66609 0.382932,-2.4857 0.309032,-1.46455 0.893507,-1.68624 2.143073,-0.94053 0.510576,0.30903 1.081614,0.51057 1.62578,0.75242 0.665092,0.2956 1.316748,0.47699 1.854196,-0.44339 0.262006,0.59119 0.450113,1.001 0.67181,1.51157 0.262006,-0.094 0.524012,-0.18811 0.967406,-0.34934 -0.826326,-0.73899 -0.779299,-1.50485 -0.571038,-2.35133 0.221697,-0.90023 0.309032,-1.84076 0.483703,-2.75443 0.127644,-0.69196 0.241852,-1.39736 0.960688,-1.75342 1.256285,0.58447 2.485697,1.16895 3.78229,1.77358 0.241852,-0.16124 0.490422,-0.32919 0.853199,-0.57104 0.194825,0.49714 0.376214,0.94725 0.571038,1.45111 0.564321,-0.0605 1.06146,-0.32919 0.577757,-0.82633 -0.658374,-0.67852 -0.463549,-1.34362 -0.369495,-2.07589 0.134362,-1.05474 0.262005,-2.12292 0.376213,-3.18438 0.08062,-0.71212 0.214979,-1.38393 0.92038,-1.90794 0.28216,0.16124 0.597911,0.32919 0.900225,0.51058 0.201543,0.12092 0.436677,0.40308 0.577757,0.36277 1.23613,-0.36949 1.881068,0.71212 2.814883,1.16895 0.705401,-0.7054 0.255288,-1.43095 0.174671,-2.12292 -0.08062,-0.68524 -0.161234,-1.37049 -0.262006,-2.17666 1.713116,-0.0134 2.096047,-1.25629 2.465543,-2.47226 0.772581,0.21498 1.215976,0.61806 1.51829,1.24957 0.604629,1.25628 1.155513,1.5989 2.089329,1.41751 0.994279,-0.1881 1.780297,-1.1891 1.827323,-2.35805 0.01344,-0.32919 -0.05374,-0.65837 -0.02015,-0.98084 0.100772,-1.02787 0.557602,-1.35706 1.62578,-1.35706 0.49714,0 1.000997,-0.12764 1.491418,-0.19482 0.456831,-0.75243 0.262006,-1.28316 -0.201543,-1.9281 -0.980842,-1.35705 -1.881068,-2.78129 -2.693958,-4.23912 -0.665092,-1.20254 -1.444391,-2.28415 -2.47226,-3.17094 -0.927098,-0.79945 -1.800451,-1.62578 -2.143074,-3.02986 -0.53073,0.12764 -1.101768,0.10077 -1.464546,0.36949 -1.041305,0.73899 -2.1901,0.67853 -3.50013,0.65166 -0.42324,-1.1488 -1.283157,-1.87435 -2.613341,-1.68625 -0.510575,0.0739 -1.182385,0.30232 -1.444391,0.68525 -0.752427,1.10177 -1.538445,2.21697 -1.498136,3.68152 0.03359,0.96741 -0.08734,1.94153 -0.134362,2.84847 -0.752427,0.56432 -1.417519,0.4434 -1.739988,-0.23513 -0.28216,-0.60463 -0.772581,-0.87335 -1.168949,-1.30331 -0.503858,-0.53745 -0.880071,-1.1891 -1.370493,-1.73999 -0.356059,-0.4098 -0.765863,-0.81289 -1.23613,-1.08161 -0.604629,-0.34263 -0.933816,-0.12765 -1.23613,0.56432 -0.443395,1.01443 -0.906944,2.01543 -1.383929,3.01642 -0.262006,0.55089 -0.691964,0.65838 -1.101768,0.21498 -0.470267,-0.50385 -0.873353,-0.98084 -1.612344,-1.18238 -0.376214,-0.10749 -0.577757,-0.79946 -0.900225,-1.19582 -0.416523,-0.51058 -0.691965,-1.26301 -1.679525,-1.10849 0.114207,0.82633 -0.174671,1.39736 -1.007715,1.67281 -0.644938,0.22169 -0.839763,0.84648 -0.893508,1.46454 -0.0739,0.83305 -0.134362,1.66609 -0.134362,2.51257 0.0067,0.80617 -0.241851,1.46455 -0.866634,1.9684 -0.859917,0.69197 -1.645935,0.45684 -2.143074,-0.51057 -0.644938,-1.263 -1.068178,-2.57975 -1.034588,-3.99727 0.02687,-1.1152 -0.45683,-1.82732 -1.598907,-2.39836 -0.127644,1.45111 -0.35606,2.83504 -0.329187,4.21225 0.02687,1.43095 -0.463549,2.43195 -1.934813,3.15079 -0.557602,-0.49043 -1.182385,-1.01444 -1.773578,-1.57876 -0.42324,-0.39637 -0.577757,-0.89351 -0.624783,-1.49142 -0.05375,-0.76586 -0.302315,-1.51829 -0.463549,-2.28415 -0.738991,0.0134 -0.987561,0.36278 -1.148795,0.82633 -0.759146,2.25056 -1.525009,4.50112 -2.270718,6.7584 -1.081614,3.28516 -1.921377,6.62405 -1.639216,10.1309 0.02015,0.32919 -0.01344,0.65165 -0.04031,0.98084 -0.0067,0.0873 -0.06718,0.16795 -0.10749,0.26873 -0.853198,0.30231 -1.215976,-0.2956 -1.457827,-0.90023 -0.537448,-1.3369 -1.014433,-2.70068 -1.511573,-4.05773 -0.114207,-0.30232 -0.194825,-0.61135 -0.349341,-0.89351 -0.900225,-1.62578 -1.444391,-3.37249 -1.310029,-5.20653 0.120926,-1.62578 -1.236131,-2.61334 -2.754421,-1.90122 -1.76686,0.82633 -3.419513,1.76014 -3.997269,3.81588 -0.03359,0.13436 -0.10749,0.26201 -0.194825,0.3695 -0.05374,0.0672 -0.147798,0.10077 -0.28216,0.18139 -0.618066,-0.34935 -0.980843,-0.87336 -0.698683,-1.57876 0.712119,-1.78701 1.081614,-3.68823 2.143074,-5.38791 1.948249,-3.10377 3.694955,-6.34189 5.508842,-9.53299 0.235133,-0.42324 0.510575,-0.82632 0.214979,-1.41752 -0.10749,-0.21498 0.235133,-0.79945 0.510575,-1.05474 1.686243,-1.53844 3.392641,-3.05001 5.12591,-4.53471 2.848475,-2.44539 6.18737,-4.1182 9.398622,-5.99255 1.800451,-1.06146 3.715109,-1.93481 5.54915,-2.94253 2.237127,-1.22269 3.909934,-3.13735 5.784284,-4.80344 1.941531,-1.71983 4.010706,-3.3053 6.066444,-4.89749 1.135359,-0.8733595 2.324462,-1.7063995 3.553875,-2.4521095 3.419512,-2.07589 6.872616,-4.02414 10.930348,-4.66908 1.867632,-0.2956 3.715109,-0.86663 5.508842,-1.49814 2.982836,-1.05474 6.032853,-1.46454001 9.176924,-1.54516001 2.599904,-0.0672 5.199809,-0.24185 7.786279,-0.50386 4.1585,-0.41652 8.17593,0.33591 12.11945,1.49814001 2.88207,0.84648 5.69023,1.95497 8.53199,2.94925 0.0873,0.0336 0.18139,0.0537 0.262,0.10749 1.4108,0.93381 3.00971,1.40408 4.56159,2.01543 1.51157,0.59119 2.41852,1.87435 2.91566,3.3791995 0.3359,1.02115 0.56432,2.05574 1.36377,2.85519 0.21498,0.21498 0.30903,0.57104 0.42996,0.87336 0.71884,1.76686 1.43767,3.53372 2.16323,5.30058 0.047,0.12092 0.17467,0.20154 0.3359,0.37621 0.32247,-0.28888 0.60463,-0.57776 0.9271,-0.82633 0.4837,-0.34934 0.94725,-0.78601 1.49142,-0.9674 0.60463,-0.20155 0.88679,-0.55089 1.1152,-1.10849 0.49714,-1.19582 1.05475,-2.37149 1.6325,-3.54044 0.53073,-1.10177 1.3369,-1.51157 2.35134,-1.29659 0.91366,0.20154 1.31003,0.93381 1.5989,2.05574 0.55761,2.1162 0.46355,4.31302 1.02116,6.43594 0.34934,1.32346 0.26872,2.78129 0.22841,4.17194 -0.047,1.50485 0.0605,2.87534 1.67281,3.789 0.26872,-0.24185 0.6315,-0.57775 0.99428,-0.90694 0.62478,-0.57776 1.34362,-0.8532 2.17666,-0.5576 0.87335,0.30903 1.38393,0.96069 1.42424,1.88778 0.0336,0.83977 0.18139,1.73327 -0.047,2.51257 -0.76586,2.61335 -0.45683,5.27371 -0.5576,7.91393 -0.0269,0.78601 -0.0806,1.57875 -0.1478,2.37148 -0.0873,1.08162 -0.60463,1.84076 -1.71311,2.11621 -0.17468,0.047 -0.4434,0.0873 -0.49714,0.20826 -0.69869,1.64593 -2.61334,2.0423 -3.54044,3.43966 -0.16796,0.25529 -0.4434,0.55761 -0.40981,0.80618 0.17467,1.51829 0.42324,3.02986 0.65838,4.58174 0.45011,0.0806 0.88679,0.0873 1.263,0.24185 0.36278,0.1478 0.81289,0.37622 0.96069,0.69197 0.59119,1.28315 1.7064,1.76014 2.94253,1.80716 2.70067,0.0941 5.40807,0.0538 8.11546,0.0336 0.50386,0 1.00771,-0.16796 1.69296,-0.28216 0.10077,1.09505 0.28216,2.1901 0.28888,3.28515 0.0336,2.55959 0.0336,5.11919 -0.0605,7.67207 -0.047,1.24284 -0.45683,2.47226 -0.51058,3.7151 -0.12764,2.89551 -0.69868,5.71711 -1.3369,8.52527 -0.33591,1.4847 -0.94053,2.91566 -1.49814,4.34661 -0.69868,1.780304 -2.33118,1.954975 -3.53372,0.429966 -0.36949,-0.470266 -0.7054,-0.967406 -1.10848,-1.410806 -0.93382,-1.02787 -1.90123,-2.01543 -2.84848,-3.02986 -0.60463,-0.64494 -1.44439,-0.73899 -2.57975,-0.21498 0.0538,0.28888 0.0672,0.61135 0.15452,0.91366 0.51057,1.69968 0,3.23812 -0.82633,4.675802 -0.37621,0.665092 -1.02787,1.068178 -1.88107,0.92038 -0.26872,-0.04703 -0.54416,-0.03359 -0.81289,-0.05375 -0.46355,0.631501 -0.50385,1.269721 -0.10077,1.854195 0.33591,0.490422 0.2956,0.940534 0.12765,1.45111 -0.10749,0.349341 -0.12765,0.738991 -0.25529,1.081614 -0.69197,1.840759 -0.0336,3.567311 0.49042,5.280426 0.36278,1.20254 1.64593,1.787015 2.98284,1.303312 1.21597,-0.450113 2.10276,-0.201543 3.05673,0.611347 0.53073,0.443394 1.32347,0.651655 2.03559,0.779299 0.87335,0.147798 1.30331,0.604629 1.47126,1.417519 0.2956,1.404084 0.85992,2.794734 0.26872,4.239124 -0.4098,0.98756 -0.88007,1.95497 -1.28315,2.94253 -0.16796,0.42996 -0.30232,0.88679 -0.36278,1.34362 -0.24857,1.83404 -1.00772,3.46654 -1.89451,5.06545 -0.83976,1.52501 -1.83404,2.87534 -3.17766,4.03086 -0.78601,0.68524 -1.53172,1.16223 -2.58646,1.12192 -0.36278,-0.0134 -0.73228,0.10077 -1.24957,0.18811 -0.0605,-0.57104 -0.12765,-1.10177 -0.18811,-1.6325 -0.21498,-1.86763 -1.001,-2.49914 -2.86863,-2.31103 -0.67852,-1.02787 -1.06817,-2.28415 -2.36477,-2.92237 -0.90022,0.75914 -1.44439,2.07589 -2.87534,2.0423 -0.11421,1.37049 0.262,2.56631 0.73899,3.72183 0.39636,0.9674 0.28216,1.76686 -0.52402,2.50585 -0.99427,0.90694 -1.58547,2.03558 -1.63249,3.42623 -0.0269,0.60463 -0.0672,1.22269 -0.23514,1.80045 -0.16123,0.56432 -0.44339,1.10849 -0.75242,1.61234 -0.28888,0.46355 -0.68525,0.85992 -1.04131,1.28316 -0.17467,0.21498 -0.3359,0.4837 -0.57104,0.60463 -2.64693,1.4108 -3.41951,4.03086 -4.21225,6.59717 -0.45683,1.46455 -0.7054,2.97612 -2.06917,3.98384 -0.54417,0.39636 -0.26873,1.20925 0.53073,1.29659 1.04802,0.10749 1.47126,0.74571 2.00871,1.4847 0.46355,0.65837 0.45683,1.263 0.36278,2.02887 -0.38293,0.0739 -0.74571,0.22169 -1.09505,0.19482 -1.92138,-0.14108 -3.35233,0.80617 -4.43395,2.21697 -1.4108,1.84748 -2.72755,3.77558 -3.97711,5.73726 -0.55761,0.87335 -0.83305,1.91466 -1.02787,3.05674 0.2217,-0.10078 0.45011,-0.17467 0.66509,-0.2956 0.19482,-0.12093 0.36278,-0.30903 0.57104,-0.40309 0.76586,-0.36277 1.59891,-0.34934 2.27072,0.0873 0.65165,0.42324 0.12764,1.10177 0.0269,1.66609 -0.45012,2.53273 -1.81389,4.39364 -3.99727,5.77085 -1.57876,0.99428 -3.02987,2.20354 -3.82932,3.96368 -0.90023,1.9684 -1.44439,4.03086 -1.39737,6.21424 0.007,0.10077 0.14108,0.20826 0.28216,0.40309 0.19483,-0.26201 0.34935,-0.46355 0.51058,-0.66509 0.67853,-0.82633 1.28316,-1.71984 2.05574,-2.43867 1.28987,-1.18911 2.39164,-2.6335 4.03758,-3.40608 0.83976,-0.39637 1.66609,-0.8532 2.53944,-1.12192 0.4837,-0.1478 1.10849,-0.0739 1.59891,0.10749 1.28316,0.47698 1.49142,0.85319 1.37049,2.22369 -0.0605,0.63822 -0.262,1.27644 0.39637,1.88106 0.54416,-0.49042 0.87335,-1.05474 1.19582,-1.6728 1.03459,-1.96841 2.14979,-3.87635 3.56059,-5.63649 0.97413,-1.20926 1.53173,-2.75442 2.22369,-4.17194 0.69197,-1.41752 1.33019,-2.84847 1.98856,-4.27943 0.10077,-0.20826 0.19483,-0.43667 0.21498,-0.65837 0.0806,-0.84648 0.55089,-1.30331 1.30331,-1.64594 0.42996,-0.19482 0.75915,-0.64493 1.08162,-1.03458 0.82632,-0.99428 1.77357,-1.33019 2.82832,-0.94725 1.10176,0.39636 1.75342,1.39064 1.63921,2.63349 -0.0537,0.59791 -0.10749,1.263 -0.40308,1.75342 -0.60463,0.98757 -0.80618,2.06918 -1.13536,3.13064 -0.30232,0.96741 -0.72556,1.94153 -1.31003,2.7477 -1.59219,2.18338 -2.57975,4.6019 -3.3389,7.16821 -0.62478,2.08933 -0.77258,4.27943 -1.45782,6.34189 -0.87336,2.64021 -1.81389,5.26027 -2.66709,7.90049 -0.2956,0.92037 -0.51058,1.88778 -0.61135,2.84847 -0.0739,0.73227 0.10749,1.42424 0.87336,1.92138 0.3359,0.21498 0.42324,0.86663 0.5576,1.3369 0.31575,1.05474 0.67181,2.06245 1.83404,2.14979 1.51829,-1.73327 3.02986,-3.30531 4.36005,-5.00498 1.05474,-1.35034 1.9684,-2.82161 2.84175,-4.30631 1.74671,-2.96268 3.56731,-5.89849 5.09904,-8.9821 2.21697,-4.44738 4.2324,-9.00225 6.28814,-13.53025 2.34462,-5.13263 3.96368,-10.52054 5.62305,-15.89502 0.73227,-2.35805 1.47798,-4.70939 1.63922,-7.18837 0.0672,-0.96069 0.0806,-1.92809 0.0336,-2.88878 -0.0403,-0.69197 0.12092,-1.26972 0.76586,-1.47127 0.67853,-0.21497 0.74571,-0.67852 0.91366,-1.23613 0.36278,-1.22941 0.92038,-2.37148 1.96841,-3.64121 0.28887,1.15552 0.49042,1.99528 0.71883,2.83504 0.9271,3.46654 1.10177,6.97339 0.49042,10.52055 -0.27544,1.57203 -0.21498,3.06345 0.24185,4.66908 0.3695,1.28987 -0.0269,2.84847 -0.26872,4.25255 -0.28216,1.57876 -0.88679,3.10376 -1.14879,4.68924 -0.51058,3.10376 -0.87336,6.23439 -1.30332,9.34487 -0.0336,0.27545 -0.10077,0.55089 -0.16123,0.81961 -0.32919,1.58547 -0.59791,3.18438 -1.00772,4.74298 -0.23513,0.93382 -0.59791,1.87435 -1.10176,2.69396 -0.71884,1.16895 -1.14208,2.41851 -1.55188,3.70839 -0.59792,1.85419 -1.30332,3.66808 -1.95497,5.50212 -0.46355,1.32347 -0.73899,2.64693 -0.21498,4.03758 0.52401,1.40408 0.98084,2.80817 2.21697,3.80916 0.61807,0.50386 1.05474,0.64494 1.84748,0.23514 1.22269,-0.64494 2.57975,-1.05475 3.86963,-1.5586 0.38964,-0.1478 0.8196,-0.24186 1.16223,-0.46355 2.06917,-1.3369 4.31973,-2.41852 5.95895,-4.33989 0.66509,-0.7793 1.51157,-1.41081 2.10277,-2.23041 0.59119,-0.81961 0.9674,-1.78702 1.43095,-2.69396 0.20826,-0.41652 0.34262,-0.87335 0.60463,-1.24285 1.59891,-2.27072 2.57303,-4.83703 3.54716,-7.39663 0.0806,-0.21498 0.10077,-0.45683 0.10077,-0.68524 -0.0336,-2.39837 0.50386,-4.70939 1.05474,-7.02714 0.20826,-0.88679 0.0873,-1.85419 0.18811,-2.77457 0.0605,-0.51729 0.24857,-1.02787 0.42324,-1.69296 1.58547,1.37049 2.98955,2.57975 4.38692,3.79572 0.10077,0.0873 0.24185,0.21498 0.23513,0.32919 -0.0336,1.51157 0.79945,2.81488 0.97412,4.31974 0.26201,2.28415 -0.15451,4.44066 -0.41652,6.6442 -0.0134,0.14108 -0.0605,0.28216 -0.0537,0.42324 0.34262,4.16522 -1.001,8.11546 -1.66609,12.14632 -0.24185,1.47127 -0.56432,2.93581 -0.96069,4.37349 -0.28888,1.06146 -0.78602,2.07589 -1.14208,3.13063 -0.8532,2.50585 -2.55287,4.6758 -2.9694,7.3496 -0.22841,1.51157 -1.14207,2.65365 -1.94153,3.82932 -0.80617,1.1891 -1.72655,2.36477 -2.82832,3.265 -0.95397,0.7793 -2.02215,1.263 -2.264,2.68724 -0.0739,0.41652 -0.86663,0.83304 -1.40408,1.01443 -1.78701,0.57776 -3.60762,0.97412 -5.48869,0.34934 -0.39637,-0.13436 -0.82632,-0.15452 -1.22269,-0.2956 -0.53073,-0.1881 -0.97413,-0.12764 -1.44439,0.20155 -1.12193,0.7793 -2.42524,0.9674 -3.73527,0.90022 -1.5586,-0.0873 -3.0433,0.2217 -4.53471,0.57776 -0.047,0.0134 -0.0873,0.0403 -0.12765,0.047 -3.14407,0.16795 -6.11347,1.19582 -9.1299,1.95497 -1.30331,0.32918 -2.56631,0.8196 -3.84947,1.23613 -0.66509,0.21498 -1.31003,0.47026 -1.98184,0.65165 -0.83976,0.22842 -1.69296,0.33591 -2.47226,0.84648 -0.53744,0.34934 -1.34362,0.32919 -2.03558,0.39637 -0.64494,0.0605 -1.30331,-0.0201 -1.95497,0.0269 -1.36377,0.0941 -2.69396,-0.007 -4.07788,0.51058 -1.34362,0.51057 -2.92238,0.38293 -4.40036,0.51057 -1.62578,0.14108 -3.22469,-0.21498 -4.83703,-0.36278 -1.10177,-0.10077 -2.22369,-0.37621 -3.29859,0.17468 -0.0806,0.0336 -0.18811,0.0403 -0.27544,0.0403 -3.29859,-0.0605 -6.61061,0.47698 -9.88905,-0.11421 -1.18238,-0.21498 -2.31774,-0.67181 -3.47325,-1.02787 -0.30904,-0.094 -0.62479,-0.30232 -0.92038,-0.26873 -1.73999,0.18811 -3.305308,-0.42324 -4.877343,-0.9674 -1.121923,-0.38965 -1.686243,-1.4108 -2.384926,-2.264 -0.114207,-0.14108 -0.188106,-0.30903 -0.262006,-0.45011 -2.122919,0.23513 -3.170943,-0.26201 -4.09804,-2.1498 -0.692013,-1.41775 -1.679573,-2.55983 -2.801496,-3.62801 -1.014433,-0.9674 -1.981839,-1.96168 -2.391643,-3.3792 -0.120926,-0.41652 -0.490422,-0.7793 -0.806172,-1.11521 -0.685246,-0.75914 -1.511573,-1.4108 -2.075893,-2.23712 -0.483703,-0.69869 -0.718837,-1.57876 -1.007715,-2.39836 -0.188107,-0.51058 -0.167953,-1.12193 -0.450113,-1.56532 -0.537448,-0.8532 -0.826326,-1.75343 -0.927097,-2.74099 -0.04703,-0.44339 -0.147799,-0.9674 -0.409805,-1.28987 -0.725554,-0.90695 -0.873352,-1.94825 -0.866634,-3.02987 0.01344,-3.86962 0.02015,-7.73925 0.100771,-11.61559 0.01344,-0.77258 0.288878,-1.54516 0.510576,-2.29759 0.194825,-0.64494 0.7054,-1.001 1.363774,-1.02787 0.725555,-0.0336 1.296593,0.32247 1.504854,1.02115 0.241852,0.83976 0.456831,1.7064 0.53073,2.57975 0.05374,0.63822 0.214979,1.08833 0.67181,1.57876 0.631501,0.66509 1.074896,1.51157 1.605626,2.264 0.396368,0.5576 0.819608,1.10176 1.229412,1.65265 0.100772,-0.0269 0.194825,-0.0538 0.288878,-0.0739 z"
     id="path4"
     inkscape:connector-curvature="0"
     style="fill:#ffffff;stroke-width:6.71809959" />
</svg>
