<?xml version="1.0" encoding="UTF-8" standalone="no"?>
<!-- Generated by IcoMoon.io -->

<svg
   xmlns:dc="http://purl.org/dc/elements/1.1/"
   xmlns:cc="http://creativecommons.org/ns#"
   xmlns:rdf="http://www.w3.org/1999/02/22-rdf-syntax-ns#"
   xmlns:svg="http://www.w3.org/2000/svg"
   xmlns="http://www.w3.org/2000/svg"
   xmlns:sodipodi="http://sodipodi.sourceforge.net/DTD/sodipodi-0.dtd"
   xmlns:inkscape="http://www.inkscape.org/namespaces/inkscape"
   version="1.1"
   width="215"
   height="215"
   viewBox="0 0 215 215"
   id="svg6"
   sodipodi:docname="kurnothi.svg"
   inkscape:version="0.92.3 (2405546, 2018-03-11)">
  <metadata
     id="metadata12">
    <rdf:RDF>
      <cc:Work
         rdf:about="">
        <dc:format>image/svg+xml</dc:format>
        <dc:type
           rdf:resource="http://purl.org/dc/dcmitype/StillImage" />
        <dc:title>factions-order-sylvaneth-alternative</dc:title>
      </cc:Work>
    </rdf:RDF>
  </metadata>
  <defs
     id="defs10" />
  <sodipodi:namedview
     pagecolor="#ffffff"
     bordercolor="#666666"
     borderopacity="1"
     objecttolerance="10"
     gridtolerance="10"
     guidetolerance="10"
     inkscape:pageopacity="0"
     inkscape:pageshadow="2"
     inkscape:window-width="1920"
     inkscape:window-height="1017"
     id="namedview8"
     showgrid="false"
     fit-margin-top="0"
     fit-margin-left="0"
     fit-margin-right="0"
     fit-margin-bottom="0"
     inkscape:zoom="1.84375"
     inkscape:cx="-53.469475"
     inkscape:cy="35.658278"
     inkscape:window-x="-8"
     inkscape:window-y="-8"
     inkscape:window-maximized="1"
     inkscape:current-layer="svg6" />
  <title
     id="title2">factions-order-sylvaneth-alternative</title>
  <path
     d="m 91.663985,199.82878 c 0,-4.45477 1.370699,-8.56686 3.769421,-11.65094 5.825474,-7.36414 2.741398,-10.10554 -12.161592,-10.79089 -11.476243,-0.51065 -12.32957,-0.68535 -14.728293,-5.48279 -1.370699,-2.7414 -2.5667,-7.19617 -2.5667,-9.76287 v -4.79745 H 51.933877 c -17.987062,-0.1747 -28.092606,-4.28007 -40.939548,-17.30171 -4.9654232,-4.96543 -8.3921702,-9.25222 -7.538843,-9.25222 0.6853494,0 2.9093754,1.3707 4.7974458,3.08407 3.0840722,2.7414 3.0840722,2.5667 -0.3426747,-3.08407 C 6.0289058,127.53786 3.1128113,119.13897 1.5741347,112.2922 -1.6779153,97.563897 0.03545814,87.451632 7.3996046,80.262183 17.162474,70.499314 25.386667,77.86346 30.526787,101.33332 c 1.196002,5.4828 -0.853327,4.62275 -5.14012,-2.224033 -2.224026,-3.25205 -5.308099,-6.67879 -7.196169,-7.706817 -7.881518,-4.112096 -9.2522168,14.7283 -2.056048,28.60327 5.482795,10.79089 25.693883,27.74993 21.581787,18.15504 -0.68535,-1.71338 -1.713374,-7.70682 -2.056049,-13.3576 l -0.685349,-10.28024 4.965424,10.44822 c 5.993447,12.50427 10.622915,16.09899 20.553762,16.09899 7.706822,0 8.049496,-0.34267 9.594892,-10.44822 1.028024,-5.82547 0.685349,-6.33612 -7.364147,-11.47624 C 52.787204,112.63487 43.024335,99.102577 39.254913,86.430327 35.317514,73.240714 36.513516,52.169574 41.310961,45.665474 c 3.9374,-5.14012 12.846942,-7.36414 16.784341,-4.11209 3.084073,2.5667 8.392171,20.72846 7.538844,25.86186 -0.510653,4.11209 -0.68535,3.9374 -3.594725,-1.71338 -5.308098,-10.62291 -7.706821,-13.01492 -11.133568,-10.96559 -4.622749,2.90938 -6.510819,13.01492 -3.769422,21.58179 3.084073,9.594892 5.140121,11.818918 5.308099,5.482795 0,-4.454771 0.517371,-3.937399 4.280074,4.454772 4.797445,10.622916 9.594891,16.273689 16.784341,20.043109 4.622749,2.39873 5.14012,2.39873 6.678797,-0.51065 1.028024,-1.71337 3.594725,-4.96542 5.82547,-7.196173 l 3.937399,-3.9374 -3.426747,-3.594722 C 78.817043,82.667625 71.110222,59.715144 71.110222,45.154824 c 0,-15.93101 7.706821,-34.42873 15.245664,-36.8274498 4.965424,-1.53868 11.986896,2.0560498 14.042944,7.1961698 2.39873,6.33612 2.39873,27.74993 0,30.14865 -1.370699,1.3707 -1.881351,0.51737 -2.056048,-3.08407 -0.167978,-8.90954 -1.538677,-13.70027 -4.965424,-17.12702 -3.426747,-3.25205 -3.426747,-3.25205 -7.021472,0.34268 -2.741397,2.5667 -3.769421,6.51082 -4.454771,14.90299 -0.685349,7.88152 -0.342674,11.30826 1.028024,11.30826 1.028025,0 1.881352,-1.196 1.881352,-2.5667 0,-1.3707 0.853327,-2.5667 1.713373,-2.5667 1.028024,0 1.713374,3.59473 1.881352,8.22419 0,8.0495 3.426747,18.67242 8.566867,26.20454 2.741398,4.112097 2.909375,4.112097 6.510827,0.853327 3.60144,-3.258769 3.76942,-3.25205 8.73484,1.538677 4.45477,4.280074 4.79745,4.280074 3.9374,1.028024 -0.51065,-2.056048 -0.1747,-3.594725 0.85333,-3.594725 2.39872,0 8.90954,-20.896433 8.90954,-28.435283 0,-5.82547 3.25205,-8.56686 3.59472,-2.7414 0,2.05605 0.51066,1.71338 1.71338,-1.37069 3.25205,-8.0495 -1.88135,-25.69389 -7.70682,-25.69389 -2.7414,0 -5.82547,6.51082 -7.19617,15.41365 -1.53868,9.59489 -3.59473,8.56686 -4.96543,-2.56671 -3.42674,-26.8898798 16.27369,-38.1981498 26.20454,-14.90299 5.82547,13.70027 6.6788,29.63129 2.05605,44.87695 -3.59473,12.504269 -11.47624,27.407263 -14.21764,27.407263 -0.85333,0 1.02802,3.42674 4.11209,7.706823 3.08408,4.28007 5.82547,7.70682 6.16815,7.70682 0.34267,0 2.90937,-1.196 5.65077,-2.5667 5.99345,-3.08407 12.32957,-11.133573 16.95904,-21.413815 2.39872,-5.650773 3.42675,-6.678797 3.42675,-3.769421 0.17469,5.993447 2.90937,4.454771 5.14012,-3.252051 2.39872,-8.049499 1.196,-19.183059 -2.5667,-22.267139 -3.25205,-2.74139 -8.56687,2.05605 -12.84695,11.30827 l -3.08407,6.85349 v -6.85349 c -0.17469,-6.8535 2.22403,-15.41364 6.33612,-22.60981 4.45478,-7.88152 16.78435,-3.59473 20.89644,7.36414 2.5667,6.51082 2.05605,26.379236 -0.85332,35.799431 -3.42675,11.818922 -13.70027,25.693895 -23.29517,32.030015 -8.04949,5.14012 -8.39217,5.65077 -7.36414,11.47624 1.53867,9.76287 1.53867,9.76287 9.93756,10.28024 7.02148,0.34268 8.73485,-0.34267 13.01492,-4.96542 2.7414,-2.90938 5.82547,-8.0495 7.02148,-11.65094 1.02802,-3.42675 2.5667,-7.02147 3.42674,-7.88152 2.05605,-2.39872 1.88135,14.72829 -0.17469,20.21109 -2.5667,7.19617 1.02802,5.48279 11.99361,-5.4828 8.56687,-8.56686 10.10554,-11.30826 11.99361,-19.70043 2.56671,-12.672253 1.02803,-20.385795 -3.93739,-19.700445 -2.05605,0.342672 -5.4828,3.252052 -7.70683,6.510822 -5.65077,8.566873 -7.02147,8.224193 -5.14012,-1.02803 2.05605,-9.762866 7.36415,-19.015083 11.65094,-20.385782 C 204.20911,74.275454 215,88.15042 215,101.16534 c 0,6.33613 -5.82547,25.17652 -9.59489,31.00199 l -2.90937,4.62275 3.76942,-3.25205 c 1.88135,-1.88135 4.11209,-2.90938 4.62275,-2.22403 1.71337,1.71337 -14.21764,15.75632 -23.81254,21.07114 -7.88151,4.28007 -10.62291,4.96542 -23.81253,4.96542 h -15.07097 v 6.16814 c 0,3.59473 -1.37069,8.0495 -3.25205,10.28024 -2.74139,3.42675 -4.79744,3.9374 -14.72829,4.1121 -14.21764,0 -17.30171,2.90938 -11.47624,10.28024 2.5667,3.08407 3.76942,7.19617 3.76942,11.81892 v 7.02147 l -4.45477,-6.51082 c -4.79745,-7.19617 -6.6788,-7.02147 -8.39217,0.51065 -1.3707,6.51082 -3.42675,6.51082 -5.3081,-0.17469 -2.05605,-7.02147 -4.1121,-7.02147 -8.734848,0 l -3.937399,5.82547 v -6.8535 z m 6.853494,-31.34465 c 0,-0.85333 -3.084073,-3.59473 -6.853494,-5.99345 -3.769422,-2.39872 -7.196169,-6.16814 -7.881518,-8.56687 -0.853328,-3.59472 -1.538677,-3.9374 -4.454771,-2.39872 -2.566701,1.3707 -3.084073,3.25205 -2.741398,8.0495 0.510652,6.33612 0.510652,6.33612 9.07752,6.85349 4.797446,0.34267 9.252217,1.196 10.280241,2.22403 2.056048,2.05604 2.566701,1.88135 2.566701,-0.1747 z m 29.973961,-1.5454 c 8.39217,-1.02802 8.56687,-1.196 9.07752,-7.36414 0.34267,-4.79745 -0.1747,-6.6788 -2.7414,-8.0495 -2.90937,-1.53868 -3.59472,-1.196 -4.45477,2.39872 -0.68535,2.39873 -4.1121,6.16815 -7.70682,8.56687 -7.53884,4.62275 -11.47624,9.25222 -5.99345,6.85349 1.71338,-0.68535 7.19617,-1.88135 11.81892,-2.39872 z m -28.09261,-13.18961 c -1.881351,-2.56671 -3.594725,-7.02148 -3.594725,-9.93757 -0.167978,-4.96542 -0.167978,-5.14012 -2.5667,-2.05605 -4.112097,5.3081 -2.909376,10.10555 3.084072,14.04294 6.853493,4.45478 7.706823,3.9374 3.084073,-2.05604 z m 22.09916,-5.13341 c 0,-2.05604 -1.196,-4.62274 -2.5667,-5.82547 -2.22403,-1.71337 -2.5667,-1.53867 -2.5667,2.05605 0,2.39873 -1.53868,6.33612 -3.42675,8.73485 -4.79744,6.16814 -4.28007,6.67879 2.5667,2.39872 3.59473,-2.39872 5.82547,-5.14012 5.99345,-7.36415 z M 86.355886,133.37005 c 7.196169,-3.59473 9.594892,-11.13357 3.769422,-11.13357 -3.594725,0 -10.448219,7.53884 -10.448219,11.30827 0,3.08407 0.68535,2.90937 6.678797,-0.1747 z m 48.129004,1.71337 c 0,-5.82547 -10.28024,-15.24566 -13.18962,-12.16159 -1.88135,1.88135 2.90938,9.59489 6.6788,11.30827 4.62275,1.88135 6.51082,2.05604 6.51082,0.85332 z m -22.26714,-31.69405 c -4.45477,-6.168153 -4.62275,-6.168153 -9.76287,-1.3707 -5.825472,5.3081 -4.965425,6.51082 4.79745,6.51082 h 8.56686 l -3.59472,-5.14012 z m 3.42675,-2.392 c 0,-0.51066 -0.85333,-1.370703 -2.05605,-2.056053 -1.20272,-0.68535 -1.3707,-0.51066 -0.68535,0.68535 1.196,2.056043 2.7414,2.741393 2.7414,1.370703 z m -1.71338,-5.140133 c 0,-0.51065 -0.85332,-1.37069 -2.05604,-2.05604 -1.20273,-0.68535 -1.3707,-0.51066 -0.68535,0.68535 1.196,2.05604 2.74139,2.74139 2.74139,1.37069 z"
     id="path4"
     inkscape:connector-curvature="0"
     style="stroke-width:6.71911192;fill:#ffffff;fill-opacity:1" />
</svg>
