<?xml version="1.0" encoding="UTF-8"?>
<!-- Generator: Adobe Illustrator 25.0.0, SVG Export Plug-In . SVG Version: 6.00 Build 0)  -->
<svg version="1.1" id="Layer_3" xmlns="http://www.w3.org/2000/svg" xmlns:xlink="http://www.w3.org/1999/xlink" x="0px" y="0px" viewBox="0 0 1000 1000" style="enable-background:new 0 0 1000 1000;" xml:space="preserve"><script xmlns="" id="__gaOptOutExtension"/>
<g>
	<polygon points="500.21,284.74 166.98,146.33 297.71,444.95 413.06,550.04 348.89,550.04 455.35,797.4 500.21,797.4 545.07,797.4    651.52,550.04 587.36,550.04 702.71,444.95 833.43,146.33  "/>
	<path d="M11.9,4.06c0.55,417.58,54.75,806.27,488.18,990.83V995c0.04-0.02,0.08-0.04,0.12-0.05c0.04,0.02,0.08,0.04,0.12,0.05   v-0.11C933.76,810.34,987.97,421.64,988.51,4.06H11.9z M500.21,933.96C160.96,768.62,105.41,427.7,82.52,66.55H917.9   C895.01,427.7,839.46,768.62,500.21,933.96z"/>
</g>
</svg>