<?xml version="1.0" encoding="UTF-8" standalone="no"?>
<!-- Generator: Adobe Illustrator 24.3.0, SVG Export Plug-In . SVG Version: 6.00 Build 0)  -->

<svg
   xmlns:dc="http://purl.org/dc/elements/1.1/"
   xmlns:cc="http://creativecommons.org/ns#"
   xmlns:rdf="http://www.w3.org/1999/02/22-rdf-syntax-ns#"
   xmlns:svg="http://www.w3.org/2000/svg"
   xmlns="http://www.w3.org/2000/svg"
   xmlns:sodipodi="http://sodipodi.sourceforge.net/DTD/sodipodi-0.dtd"
   xmlns:inkscape="http://www.inkscape.org/namespaces/inkscape"
   version="1.1"
   id="Layer_3"
   x="0px"
   y="0px"
   viewBox="0 0 736.62335 800"
   xml:space="preserve"
   sodipodi:docname="Absolvers [Imperium, Adeptus Astartes, Space Marines, Chapter].svg"
   width="736.62335"
   height="800"
   inkscape:version="0.92.3 (2405546, 2018-03-11)"><metadata
   id="metadata13"><rdf:RDF><cc:Work
       rdf:about=""><dc:format>image/svg+xml</dc:format><dc:type
         rdf:resource="http://purl.org/dc/dcmitype/StillImage" /><dc:title></dc:title></cc:Work></rdf:RDF></metadata><defs
   id="defs11" /><sodipodi:namedview
   pagecolor="#ffffff"
   bordercolor="#666666"
   borderopacity="1"
   objecttolerance="10"
   gridtolerance="10"
   guidetolerance="10"
   inkscape:pageopacity="0"
   inkscape:pageshadow="2"
   inkscape:window-width="1920"
   inkscape:window-height="1017"
   id="namedview9"
   showgrid="false"
   fit-margin-top="0"
   fit-margin-left="0"
   fit-margin-right="0"
   fit-margin-bottom="0"
   inkscape:pagecheckerboard="true"
   inkscape:zoom="0.236"
   inkscape:cx="-89.952373"
   inkscape:cy="492"
   inkscape:window-x="-8"
   inkscape:window-y="-8"
   inkscape:window-maximized="1"
   inkscape:current-layer="Layer_3" />
<g
   id="g6"
   transform="matrix(0.81252095,0,0,0.81252095,-50.709432,-6.0207802)">
	<path
   d="m 467.99,370.34 c -0.83,-0.04 -1.7,0.94 -1.66,1.85 0.04,0.91 1.02,1.81 2,1.81 0.79,0 1.74,-0.98 1.77,-1.81 0.04,-0.83 -1.09,-1.85 -2.11,-1.85 z"
   id="path2"
   inkscape:connector-curvature="0" />
	<path
   d="M 969,7.41 H 62.41 V 66.44 H 77.1 c -0.15,1.39 -0.25,2.79 -0.25,4.22 0,20.18 15.77,36.64 35.65,37.83 -0.62,9.79 -0.96,19.67 -0.96,29.63 0,195.5 120.76,360.66 286.47,414.04 v 9.74 h -5.75 c -11.58,0 -20.97,9.39 -20.97,20.97 v 29.75 c 0,11.58 9.39,20.97 20.97,20.97 h 5.75 v 130.24 c 0,38.69 -31.37,70.06 -70.06,70.06 H 119.71 V 992 H 908.23 V 833.87 H 699.98 c -38.69,0 -70.06,-31.37 -70.06,-70.06 V 633.58 h 5.02 c 11.58,0 20.97,-9.39 20.97,-20.97 v -29.75 c 0,-11.58 -9.39,-20.97 -20.97,-20.97 h -5.02 v -9.98 c 165.32,-53.63 285.73,-218.58 285.73,-413.8 0,-10.11 -0.35,-20.13 -0.99,-30.07 2.02,0.33 4.09,0.55 6.21,0.55 20.96,0 37.95,-16.99 37.95,-37.95 0,-1.43 -0.09,-2.83 -0.25,-4.22 H 969 Z M 588.6,161.45 c 1.67,0.4 3.34,0.72 5.02,1.11 2.87,0.72 5.73,1.59 8.6,2.39 2.39,0.72 3.1,1.83 2.79,4.3 -0.08,0.56 -0.24,1.04 -0.4,1.51 -2.31,5.41 -6.05,9.95 -9.55,15.21 -1.67,-3.5 -2.47,-6.69 -3.1,-9.87 -0.32,-1.83 -0.32,-1.83 -2.23,-2.07 -4.86,-0.64 -9.79,-1.27 -15.05,-1.91 0.48,-0.64 0.8,-1.04 1.11,-1.35 3.34,-2.87 6.77,-5.65 9.95,-8.52 0.87,-0.72 1.75,-1.04 2.86,-0.8 z m -50.63,-12.5 c 0.16,-1.03 0.4,-2.07 0.56,-3.03 1.91,-0.48 41.95,2.63 48.48,3.66 0.16,2.47 0.4,4.94 0.4,7.48 0,0.32 -0.56,0.96 -1.04,1.11 -0.96,0.4 -1.99,0.4 -3.03,0.72 -3.5,1.03 -6.13,3.18 -8.44,5.97 -1.99,2.39 -3.5,5.02 -4.7,7.88 -1.59,3.82 -3.58,5.17 -8.12,5.73 -0.48,-2.79 -1.03,-5.57 -1.35,-8.36 -0.24,-2.47 -1.03,-4.78 -2.55,-6.77 -1.75,-2.23 -3.5,-4.46 -5.49,-6.45 -2.55,-2.63 -5.57,-4.46 -9.31,-4.94 -1.43,-0.16 -2.79,-0.64 -4.14,-0.96 -1.03,-0.29 -1.43,-0.92 -1.27,-2.04 z m -14.8,25.71 c 6.45,-4.46 12.9,-8.92 19.34,-13.37 1.35,-0.96 2.63,-1.99 4.22,-3.18 0.8,0.56 1.75,1.04 2.55,1.67 4.14,3.66 6.77,8.12 7.72,13.53 0.4,2.07 -0.24,3.82 -1.67,5.33 -2.87,3.03 -5.73,6.05 -8.6,9.16 -3.98,4.38 -7.96,8.68 -11.94,13.06 -0.4,0.4 -0.8,0.8 -1.43,1.35 -0.32,-0.56 -0.64,-1.04 -0.8,-1.43 -3.34,-7.32 -6.61,-14.65 -9.95,-21.97 -0.08,-0.32 -0.24,-0.72 -0.4,-1.04 -0.72,-1.83 -0.64,-1.99 0.96,-3.11 z m -10.03,0.48 c -0.32,2.31 -9.55,26.11 -11.22,28.74 -1.35,-0.96 -20.06,-23.33 -22.13,-26.43 1.83,-6.77 7.96,-14.33 14.25,-17.51 0.8,0.64 1.83,1.19 2.87,1.91 5.33,4.3 10.67,8.68 16,12.98 0.07,0.07 0.15,0.23 0.23,0.31 z m -67.91,-19.9 c 1.43,-3.03 2.95,-6.05 4.38,-9.08 0.48,-1.03 1.11,-1.43 2.23,-1.35 4.3,0.32 8.52,0.56 12.74,0.8 8.28,0.56 16.48,0.96 24.76,1.51 3.18,0.24 6.37,0.56 9.55,0.8 0.72,3.26 0.32,4.46 -2.55,5.17 -9.47,2.47 -14.49,9.55 -18.55,17.75 -0.48,0.96 -0.88,1.91 -1.27,2.87 0,0.16 -0.16,0.24 -0.56,0.32 -10.43,-5.89 -20.7,-11.78 -31.05,-17.67 0.16,-0.4 0.16,-0.8 0.32,-1.12 z m 0.32,6.93 c 0.64,-0.32 1.27,-0.72 2.07,-0.24 3.82,2.15 7.72,4.14 11.94,6.37 -0.96,0.56 -1.59,0.88 -2.23,1.19 -3.34,1.59 -6.69,3.26 -10.11,4.78 -3.42,1.51 -5.17,3.74 -4.7,7.64 0.16,1.43 0,2.87 0,4.54 -0.4,-0.32 -0.72,-0.56 -0.96,-0.8 -3.42,-3.66 -6.85,-7.4 -10.27,-11.15 -0.32,-0.24 -0.56,-0.56 -0.8,-0.8 -2.23,-2.47 -1.99,-3.58 1.04,-5.17 4.7,-2.14 9.32,-4.21 14.02,-6.36 z m -21.89,118.61 c -0.4,1.91 -1.35,3.5 -2.95,4.62 -8.52,6.05 -17.04,12.1 -25.55,18.15 -0.16,0.08 -0.32,0.16 -0.64,0.24 0.16,-0.64 0.24,-1.19 0.4,-1.75 7.01,-20.94 14.01,-41.87 21.02,-62.81 0.32,-0.96 0.56,-1.99 0.8,-2.95 -2.63,-1.75 -4.22,-1.35 -5.49,1.19 -1.03,2.07 -1.91,4.14 -2.87,6.29 -8.28,18.95 -16.48,37.89 -24.76,56.84 -0.56,1.43 -1.11,2.79 -1.83,4.38 -1.35,-0.08 -2.79,-0.08 -4.14,-0.24 -8.2,-1.11 -16.4,-2.39 -24.6,-3.58 -0.08,-0.08 -0.24,-0.16 -0.48,-0.24 -0.16,-1.27 0.64,-2.23 1.19,-3.18 5.09,-8.84 10.27,-17.67 15.44,-26.51 7.88,-13.45 15.68,-26.91 23.48,-40.44 0.56,-0.88 0.88,-1.83 1.27,-2.79 -1.67,-0.56 -2.15,0.48 -2.79,1.27 -4.38,5.57 -8.76,11.22 -13.06,16.8 -12.58,16.24 -25.08,32.48 -37.65,48.72 -0.08,0.08 -0.16,0.24 -0.24,0.32 -1.43,1.91 -1.51,1.91 -3.58,0.64 -7.8,-4.94 -15.6,-9.95 -23.64,-15.05 0.56,-0.56 1.04,-1.19 1.59,-1.75 10.43,-10.91 20.94,-21.81 31.37,-32.64 10.83,-11.22 21.73,-22.45 32.56,-33.67 0.4,-0.48 0.8,-0.96 1.27,-1.51 -0.48,-0.64 -0.96,-1.27 -1.51,-2.07 -13.29,10.59 -26.43,21.18 -39.65,31.6 -13.29,10.43 -26.11,21.41 -39.57,31.45 -9.39,-8.04 -18.55,-15.84 -27.94,-23.8 1.19,-1.35 2.63,-1.99 3.98,-2.71 5.25,-2.79 10.59,-5.49 15.84,-8.36 24.2,-12.98 48.32,-26.03 72.52,-39.01 2.47,-1.35 5.02,-2.55 7.48,-3.98 1.99,-1.19 2.07,-1.75 1.75,-4.3 -0.72,0.24 -1.43,0.48 -2.07,0.72 -36.78,14.33 -73.48,28.74 -110.26,43.07 -1.03,0.4 -2.07,0.72 -3.1,1.19 -1.99,0.96 -3.66,0.48 -5.17,-1.11 -0.72,-0.72 -1.43,-1.43 -2.15,-2.07 -8.04,-7.24 -16.16,-14.49 -24.2,-21.65 -0.4,-0.32 -0.96,-0.64 -1.83,-1.19 1.51,-0.48 2.39,-0.8 3.18,-1.04 3.66,-1.19 7.48,-1.99 11.07,-3.42 2.63,-1.03 5.41,-1.59 8.12,-2.39 1.04,-0.32 2.07,-0.8 3.1,-1.03 2.39,-0.56 4.78,-0.96 7.16,-1.59 3.18,-0.8 6.29,-1.75 9.47,-2.55 1.99,-0.48 4.06,-0.96 6.05,-1.43 0.32,-0.08 0.56,-0.08 0.88,-0.16 5.49,-1.59 10.99,-3.18 16.56,-4.7 6.05,-1.67 12.1,-3.18 18.15,-4.86 14.73,-4.06 29.46,-8.2 44.18,-12.26 6.53,-1.83 13.06,-3.58 19.58,-5.41 0.64,-0.24 1.35,-0.32 1.91,-0.72 0.48,-0.32 0.88,-0.96 1.35,-1.43 -0.08,-0.24 -0.16,-0.4 -0.24,-0.56 -0.72,0.08 -1.35,0.08 -2.07,0.24 -29.06,5.33 -58.11,10.75 -87.17,16.08 -23.4,4.3 -46.81,8.68 -70.21,12.98 -0.4,0.08 -0.8,0.16 -1.11,0.32 -2.63,0.88 -4.54,-0.16 -6.29,-2.07 -3.9,-4.14 -7.8,-8.28 -11.7,-12.34 -3.58,-3.74 -7.24,-7.48 -10.91,-11.22 -0.32,-0.4 -0.64,-0.8 -1.19,-1.51 64.48,-5.57 128.73,-10.67 192.89,-16.4 0.56,-1.51 0.96,-2.79 1.43,-4.22 -0.48,0 -0.96,0 -1.43,0 -10.59,0.48 -21.18,1.03 -31.76,1.51 -8.04,0.4 -16,0.72 -23.96,1.11 -11.62,0.56 -23.25,1.11 -34.87,1.67 -6.69,0.32 -13.45,0.64 -20.14,0.96 -13.14,0.56 -26.35,1.19 -39.57,1.83 -11.07,0.48 -22.05,0.96 -33.12,1.43 -4.94,0.24 -9.79,0.48 -14.73,0.88 -3.34,0.24 -5.41,-1.27 -7.32,-4.46 -3.03,-4.94 -6.77,-9.39 -11.07,-13.37 -1.19,-1.11 -1.99,-2.71 -3.03,-3.98 -1.67,-2.07 -3.42,-4.14 -5.09,-6.21 -0.32,-0.4 -0.56,-0.8 -0.88,-1.19 0.16,-0.24 0.16,-0.32 0.24,-0.56 1.75,-0.08 3.5,-0.32 5.25,-0.32 15.84,-0.24 31.68,-0.4 47.45,-0.56 13.69,-0.16 27.31,-0.32 41,-0.48 7.24,-0.08 14.49,-0.24 21.73,-0.32 13.77,-0.24 27.62,-0.4 41.4,-0.64 7.09,-0.16 14.17,-0.24 21.26,-0.32 13.53,-0.16 27.15,-0.4 40.6,-0.56 7.48,-0.16 14.89,-0.16 22.37,-0.4 11.78,-0.4 23.56,-0.32 35.35,-0.64 0.88,0 1.75,0 2.79,0 v 11.94 c -4.54,1.59 -8.76,3.9 -12.66,6.61 -1.43,1.03 -2.71,2.31 -3.9,3.66 -3.34,3.74 -6.61,7.48 -9.79,11.38 -1.27,1.51 -2.23,3.26 -3.26,5.02 -0.56,0.96 -0.96,1.99 -1.43,3.03 -4.22,8.68 -3.74,17.43 -0.4,26.19 0.96,2.39 2.47,4.62 4.14,6.61 5.57,6.85 12.82,10.51 21.73,10.83 3.98,0.16 7.88,-0.32 11.78,-0.8 8.68,-1.03 16.72,-4.3 24.76,-7.32 5.17,-1.91 13.77,-5.89 18.95,-7.8 l 2.39,3.1 c 3.26,3.42 15.13,14.97 15.6,16.88 0.16,0.88 0,1.75 -0.4,2.79 -9,22.85 -17.91,45.7 -26.83,68.54 -0.32,0.72 -0.64,1.43 -1.03,2.39 -0.64,-0.4 -1.11,-0.64 -1.59,-0.96 -6.45,-3.98 -12.9,-8.04 -19.34,-12.1 -3.42,-2.15 -3.58,-2.63 -1.27,-6.13 4.54,-6.85 9.15,-13.61 13.77,-20.46 3.58,-5.25 7.09,-10.59 10.59,-15.84 0.96,-1.43 1.75,-2.87 2.47,-4.3 0.32,-0.56 0.48,-1.11 0.64,-1.75 0.16,-0.8 0.08,-1.67 -0.4,-2.39 -1.83,-2.71 -5.65,0 -5.89,2.55 0,0.16 -0.08,0.4 0,0.64 0.64,2.95 -0.56,5.33 -2.23,7.64 -2.31,3.26 -4.38,6.69 -6.53,9.95 -0.48,0.72 -1.11,1.27 -1.91,2.23 -0.24,-0.96 -0.32,-1.35 -0.48,-1.83 -0.88,-3.34 -1.75,-6.69 -2.71,-9.95 -0.4,-1.59 -1.11,-2.15 -1.99,-1.99 -1.03,0.24 -1.59,1.03 -1.51,2.63 0.16,4.14 0.32,8.2 0.48,12.34 0.08,1.35 0,2.79 0.08,4.22 0.08,3.66 -13.37,17.59 -17.83,22.61 -0.16,0.16 -0.32,0.24 -0.88,0.56 0.8,-12.26 1.51,-24.2 2.31,-36.22 -1.75,-0.24 -2.63,0.4 -3.03,1.67 -0.56,1.99 -1.03,3.9 -1.35,5.97 -2.15,9.39 -4.22,18.79 -6.29,28.18 -0.63,2.61 -1.11,5.24 -1.66,7.86 z m 53.65,86.62 c -0.4,0.4 -0.88,0.64 -1.27,0.96 -5.17,3.74 -10.35,7.48 -15.6,11.22 -0.64,0.48 -1.35,0.88 -2.39,1.59 0.24,-0.96 0.32,-1.35 0.48,-1.83 1.51,-4.38 3.03,-8.76 4.54,-13.14 0.56,-1.51 0.08,-2.47 -1.11,-3.26 -1.03,-0.64 -1.91,-1.35 -2.95,-2.15 -1.43,2.31 -2.87,4.62 -4.3,6.85 -2.63,4.22 -5.25,8.52 -7.88,12.74 -1.99,3.26 -1.83,5.17 0.8,8.04 1.43,1.59 3.03,2.95 4.54,4.38 0.64,0.64 1.19,1.43 2.07,2.39 -5.49,-0.16 -10.67,0.48 -15.36,-2.23 -1.59,-0.96 -3.18,-1.91 -4.54,-3.18 -1.99,-1.83 -2.47,-4.22 -1.27,-6.77 0.48,-1.03 0.96,-2.07 1.51,-3.03 4.62,-8.44 9.15,-16.96 13.77,-25.4 0.24,-0.4 0.48,-0.88 0.8,-1.59 -2.71,0 -5.09,0 -7.56,0 -1.11,0 -1.75,0.72 -2.23,1.59 -1.75,3.1 -3.58,6.21 -5.33,9.31 -0.24,0.48 -0.48,0.96 -1.11,1.35 -1.27,-7.96 -2.55,-16 -3.82,-24.2 0.72,-0.08 1.35,-0.16 1.99,-0.16 5.89,0.24 11.78,0.4 17.67,0.56 6.85,0.16 5.81,0.64 8.6,-4.86 4.14,-8.28 8.04,-16.64 12.02,-25 0.48,-1.03 0.96,-1.99 1.59,-3.26 4.86,3.82 9.55,7.56 14.33,11.3 -0.4,0.8 -0.56,1.35 -0.88,1.83 -4.06,7.16 -8.12,14.25 -12.18,21.41 -0.48,0.8 -0.88,1.59 -1.19,2.39 -0.8,1.99 -0.64,3.9 0.64,5.73 1.91,2.71 3.66,5.49 5.41,8.28 0.72,1.11 1.27,2.39 1.51,3.58 0.69,2.09 0.37,3.12 -1.3,4.56 z m 72.76,-10.03 c -0.32,-0.64 -0.64,-1.27 -0.96,-1.99 -3.34,-7.88 -6.69,-15.76 -10.11,-23.64 -0.48,-1.27 -0.88,-2.55 -2.23,-3.18 -2.07,1.11 -2.23,1.59 -1.35,4.14 2.95,8.36 5.89,16.72 8.92,25.08 0.64,1.83 0.64,3.5 -0.64,5.02 -1.67,1.99 -3.34,3.98 -4.94,5.97 -1.59,-0.32 -1.75,-1.51 -2.07,-2.55 -2.87,-8.28 -5.73,-16.64 -8.6,-24.92 -0.56,-1.75 -1.27,-3.42 -1.99,-5.17 -1.59,1.51 -1.59,1.59 -1.19,3.18 0.8,3.1 1.67,6.29 2.55,9.47 1.99,7.01 4.14,14.01 6.21,21.02 0.64,2.15 0.32,3.98 -1.11,5.81 -2.79,3.58 -10.59,10.75 -13.85,13.85 v 0.4 c -0.08,0 -0.16,-0.08 -0.24,-0.16 -0.08,0 -0.16,0.08 -0.24,0.16 v -0.4 c -3.34,-3.1 -11.07,-10.27 -13.85,-13.85 -1.43,-1.75 -1.75,-3.66 -1.11,-5.81 2.07,-7.01 4.14,-14.01 6.21,-21.02 0.96,-3.1 1.75,-6.29 2.55,-9.47 0.48,-1.59 0.4,-1.67 -1.19,-3.18 -0.64,1.75 -1.43,3.42 -1.99,5.17 -2.87,8.28 -5.73,16.64 -8.6,24.92 -0.4,1.03 -0.56,2.23 -2.07,2.55 -1.59,-1.99 -3.26,-3.98 -4.94,-5.97 -1.27,-1.51 -1.27,-3.18 -0.64,-5.02 3.03,-8.36 5.97,-16.72 8.92,-25.08 0.96,-2.55 0.8,-3.03 -1.35,-4.14 -1.27,0.64 -1.67,1.99 -2.23,3.18 -3.34,7.88 -6.77,15.76 -10.11,23.64 -0.32,0.64 -0.64,1.27 -0.96,1.99 -1.51,-0.88 -5.33,-4.7 -6.05,-5.89 -0.48,-0.8 -0.64,-1.67 -0.24,-2.55 0.4,-0.96 0.72,-1.83 1.11,-2.71 4.22,-9.15 8.52,-18.23 12.74,-27.39 0.08,-0.32 0.16,-0.56 0.32,-1.03 -0.32,-0.4 -0.72,-0.8 -1.11,-1.19 -5.57,-4.86 -11.15,-9.71 -16.8,-14.49 -3.34,-2.87 -3.5,-3.34 -1.91,-7.4 11.54,-29.53 23.17,-59.15 34.79,-88.68 2.87,-7.24 5.65,-14.41 8.52,-21.65 l 0.48,-0.24 c 0,0.08 0.08,0.16 0.08,0.24 2.87,7.24 5.65,14.41 8.52,21.65 11.54,29.53 23.17,59.15 34.79,88.68 1.59,3.98 1.43,4.54 -1.91,7.4 -5.65,4.86 -11.22,9.63 -16.8,14.49 -0.4,0.4 -0.8,0.8 -1.11,1.19 0.16,0.48 0.16,0.8 0.32,1.03 4.22,9.16 8.52,18.23 12.74,27.39 0.4,0.88 0.72,1.83 1.11,2.71 0.48,0.96 0.24,1.75 -0.32,2.55 -0.73,1.19 -4.55,4.93 -6.07,5.89 z m 35.59,-2.63 c 4.62,8.44 9.16,16.96 13.77,25.4 0.56,1.03 1.04,1.99 1.51,3.03 1.19,2.55 0.72,4.94 -1.27,6.77 -1.35,1.27 -2.95,2.23 -4.54,3.18 -4.7,2.71 -9.87,2.07 -15.36,2.23 0.8,-0.96 1.43,-1.75 2.07,-2.39 1.51,-1.51 3.1,-2.87 4.54,-4.38 2.71,-2.87 2.79,-4.78 0.8,-8.04 -2.63,-4.22 -5.25,-8.52 -7.88,-12.74 -1.43,-2.31 -2.87,-4.54 -4.3,-6.85 -1.03,0.72 -1.99,1.51 -2.95,2.15 -1.19,0.88 -1.59,1.83 -1.11,3.26 1.59,4.38 3.03,8.76 4.54,13.14 0.16,0.48 0.24,0.96 0.48,1.83 -1.03,-0.72 -1.75,-1.11 -2.39,-1.59 -5.17,-3.74 -10.43,-7.48 -15.6,-11.22 -0.4,-0.32 -0.88,-0.64 -1.27,-0.96 -1.67,-1.43 -1.99,-2.55 -1.27,-4.54 0.48,-1.27 1.04,-2.55 1.75,-3.66 1.75,-2.79 3.58,-5.57 5.41,-8.28 1.27,-1.83 1.43,-3.74 0.64,-5.73 -0.32,-0.8 -0.72,-1.59 -1.19,-2.39 -4.06,-7.16 -8.12,-14.25 -12.18,-21.41 -0.32,-0.56 -0.48,-1.11 -0.88,-1.83 4.78,-3.74 9.47,-7.48 14.33,-11.3 0.64,1.27 1.11,2.23 1.59,3.26 3.98,8.36 7.88,16.72 12.02,25 2.79,5.49 1.75,5.02 8.6,4.86 5.89,-0.24 11.78,-0.4 17.67,-0.56 0.64,0 1.27,0.08 1.99,0.16 -1.27,8.2 -2.55,16.24 -3.82,24.2 -0.64,-0.48 -0.88,-0.88 -1.11,-1.35 -1.75,-3.1 -3.58,-6.21 -5.33,-9.31 -0.48,-0.88 -1.11,-1.59 -2.23,-1.59 -2.47,0 -4.86,0 -7.8,0.08 0.29,0.69 0.53,1.09 0.77,1.57 z M 886.79,126.97 c -0.26,0.35 -0.49,0.7 -0.77,1.04 -1.75,2.07 -3.42,4.14 -5.09,6.21 -1.04,1.27 -1.75,2.87 -3.03,3.98 -4.3,3.98 -8.04,8.36 -11.07,13.37 -1.99,3.26 -4.06,4.78 -7.32,4.46 -4.86,-0.4 -9.79,-0.64 -14.73,-0.88 -11.07,-0.48 -22.05,-0.96 -33.12,-1.43 -13.14,-0.56 -26.35,-1.19 -39.57,-1.83 -6.69,-0.32 -13.45,-0.64 -20.14,-0.96 -11.62,-0.56 -23.25,-1.11 -34.87,-1.67 -8.04,-0.4 -16,-0.72 -23.96,-1.11 -10.59,-0.48 -21.18,-1.03 -31.76,-1.51 -0.48,0 -0.96,0 -1.43,0 0.56,1.51 0.96,2.71 1.43,4.22 64.16,5.81 128.41,10.91 192.89,16.48 -0.56,0.72 -0.88,1.19 -1.19,1.51 -3.58,3.74 -7.32,7.48 -10.91,11.22 -3.9,4.06 -7.8,8.2 -11.7,12.34 -1.83,1.91 -3.74,3.03 -6.29,2.07 -0.4,-0.16 -0.72,-0.24 -1.11,-0.32 -23.4,-4.3 -46.81,-8.68 -70.21,-12.98 -29.06,-5.33 -58.11,-10.75 -87.17,-16.08 -0.72,-0.16 -1.35,-0.16 -2.07,-0.24 -0.08,0.24 -0.16,0.4 -0.24,0.56 0.4,0.48 0.8,1.03 1.35,1.43 0.56,0.4 1.27,0.56 1.91,0.72 6.53,1.83 13.06,3.58 19.58,5.41 14.73,4.06 29.46,8.2 44.18,12.26 6.05,1.67 12.1,3.18 18.15,4.86 5.49,1.51 11.07,3.1 16.56,4.7 0.32,0.08 0.56,0.08 0.88,0.16 1.99,0.48 4.06,0.88 6.05,1.43 3.18,0.8 6.29,1.75 9.47,2.55 2.39,0.56 4.78,1.03 7.16,1.59 1.03,0.24 2.07,0.72 3.1,1.03 2.71,0.8 5.49,1.35 8.12,2.39 3.66,1.43 7.4,2.23 11.07,3.42 0.88,0.32 1.67,0.56 3.18,1.03 -0.88,0.56 -1.43,0.8 -1.83,1.19 -8.12,7.24 -16.16,14.41 -24.2,21.65 -0.72,0.64 -1.43,1.35 -2.15,2.07 -1.51,1.59 -3.18,2.07 -5.17,1.11 -0.96,-0.48 -2.07,-0.8 -3.1,-1.19 -36.78,-14.33 -73.48,-28.74 -110.26,-43.07 -0.64,-0.24 -1.35,-0.48 -2.07,-0.72 -0.4,2.55 -0.24,3.1 1.75,4.3 2.39,1.43 5.02,2.63 7.48,3.98 24.2,12.98 48.32,26.03 72.52,39.01 5.25,2.79 10.59,5.57 15.84,8.36 1.35,0.72 2.79,1.27 3.98,2.71 -9.31,7.96 -18.55,15.76 -27.94,23.8 -13.53,-10.03 -26.35,-21.02 -39.57,-31.45 -13.22,-10.43 -26.35,-21.02 -39.65,-31.6 -0.56,0.8 -1.04,1.43 -1.51,2.07 0.48,0.64 0.88,1.11 1.27,1.51 10.91,11.22 21.73,22.45 32.56,33.67 10.51,10.91 20.94,21.73 31.37,32.64 0.56,0.56 1.03,1.11 1.59,1.75 -8.04,5.09 -15.84,10.11 -23.64,15.05 -2.07,1.27 -2.15,1.19 -3.58,-0.64 -0.08,-0.08 -0.16,-0.24 -0.24,-0.32 -12.58,-16.24 -25.08,-32.48 -37.65,-48.72 -4.3,-5.65 -8.68,-11.22 -13.06,-16.8 -0.64,-0.8 -1.11,-1.83 -2.79,-1.27 0.48,0.96 0.8,1.91 1.27,2.79 7.8,13.45 15.68,26.99 23.48,40.44 5.17,8.84 10.35,17.67 15.44,26.51 0.56,0.96 1.35,1.91 1.19,3.18 -0.24,0.16 -0.32,0.24 -0.48,0.24 -8.2,1.19 -16.4,2.39 -24.6,3.58 -1.35,0.24 -2.79,0.16 -4.14,0.24 -0.64,-1.67 -1.27,-3.03 -1.83,-4.38 -8.28,-18.95 -16.48,-37.89 -24.76,-56.84 -0.88,-2.07 -1.83,-4.22 -2.87,-6.29 -1.27,-2.55 -2.87,-2.87 -5.49,-1.19 0.24,0.96 0.48,1.99 0.8,2.95 7.01,20.94 14.01,41.87 21.02,62.81 0.16,0.56 0.24,1.11 0.4,1.75 -0.4,-0.16 -0.56,-0.16 -0.64,-0.24 -8.52,-6.05 -17.04,-12.1 -25.55,-18.15 -1.59,-1.19 -2.55,-2.71 -2.95,-4.62 -0.56,-2.63 -1.11,-5.25 -1.67,-7.88 -2.07,-9.39 -4.22,-18.79 -6.29,-28.18 -0.4,-1.91 -0.88,-3.9 -1.43,-5.81 -0.4,-1.27 -1.35,-1.91 -3.03,-1.67 0.8,12.02 1.51,24.04 2.31,36.22 -0.56,-0.32 -0.72,-0.32 -0.88,-0.56 -4.46,-5.09 -17.91,-19.03 -17.83,-22.61 0.08,-1.35 0,-2.79 0.08,-4.22 0.16,-4.14 0.32,-8.2 0.48,-12.34 0.08,-1.59 -0.48,-2.39 -1.51,-2.63 -0.88,-0.16 -1.59,0.48 -1.99,1.99 -0.96,3.34 -1.83,6.61 -2.71,9.95 -0.08,0.48 -0.24,0.96 -0.48,1.83 -0.8,-0.96 -1.43,-1.51 -1.91,-2.23 -2.23,-3.34 -4.22,-6.69 -6.53,-9.95 -1.67,-2.31 -2.87,-4.7 -2.23,-7.64 0.08,-0.16 0,-0.4 0,-0.64 -0.24,-2.55 -4.06,-5.25 -5.89,-2.55 -0.48,0.72 -0.56,1.59 -0.4,2.39 0.16,0.64 0.4,1.19 0.64,1.75 0.8,1.51 1.59,2.95 2.47,4.3 3.5,5.33 7.09,10.59 10.59,15.84 4.62,6.85 9.23,13.61 13.77,20.46 2.31,3.5 2.15,3.98 -1.27,6.13 -6.45,4.06 -12.9,8.04 -19.34,12.1 -0.48,0.32 -0.96,0.64 -1.59,0.96 -0.4,-0.88 -0.72,-1.67 -1.03,-2.39 -8.92,-22.85 -17.83,-45.7 -26.83,-68.54 -0.4,-1.03 -0.56,-1.99 -0.4,-2.79 0.4,-1.91 12.34,-13.45 15.6,-16.88 l 2.39,-3.1 c 5.17,1.91 13.77,5.81 18.95,7.8 8.04,3.03 16.08,6.21 24.76,7.32 3.9,0.48 7.8,0.96 11.78,0.8 8.92,-0.32 16.16,-3.98 21.73,-10.83 1.67,-1.99 3.18,-4.22 4.14,-6.61 3.42,-8.68 3.82,-17.51 -0.4,-26.19 -0.48,-1.03 -0.88,-2.07 -1.43,-3.03 -1.03,-1.67 -1.99,-3.5 -3.26,-5.02 -3.18,-3.82 -6.45,-7.64 -9.79,-11.38 -1.19,-1.35 -2.47,-2.63 -3.9,-3.66 -3.9,-2.71 -8.12,-5.02 -12.66,-6.61 v -11.7 c 1.04,0 1.91,0 2.79,0 11.78,0.24 23.56,0.24 35.35,0.64 7.48,0.24 14.89,0.32 22.37,0.4 13.61,0.24 27.15,0.4 40.76,0.56 7.09,0.16 14.17,0.24 21.26,0.32 13.77,0.24 27.62,0.4 41.4,0.64 7.24,0.08 14.49,0.24 21.73,0.32 13.69,0.24 27.31,0.4 41,0.56 15.84,0.24 31.6,0.4 47.45,0.56 1.75,0 3.5,0.24 5.25,0.32 0.03,0.09 0.05,0.14 0.06,0.18 0.04,-0.05 0.07,-0.1 0.11,-0.15 -0.06,0.23 -0.08,0.25 -0.11,0.15 z"
   id="path4"
   inkscape:connector-curvature="0" />
</g>
</svg>