<?xml version="1.0" encoding="UTF-8"?>
<!-- Generator: Adobe Illustrator 25.2.0, SVG Export Plug-In . SVG Version: 6.00 Build 0)  -->
<svg version="1.1" id="Layer_3" xmlns="http://www.w3.org/2000/svg" xmlns:xlink="http://www.w3.org/1999/xlink" x="0px" y="0px" viewBox="0 0 1000 1000" style="enable-background:new 0 0 1000 1000;" xml:space="preserve"><script xmlns="" id="__gaOptOutExtension"/>
<path d="M979.46,276.19c16.47-20.13,28.24-48.99,14.64-65.87c-130.95,50.04-261.26,90.01-389.73,100.63  c-10.11-2.59-18.3,36.59-16.47,42.08c5.49,12.81,38.42,25.62,42.08,54.89c3.66,29.28-7.32,56.72-20.13,65.87  c-11.55,4.44-37.78,2.41-61.7-0.85c-1.77-16.76-1.69-35.51-0.51-55.47c-4.74-16.95-21.67-25.26-42.08-31.11  c-17.85-0.69-35.94-1.45-47.71-0.22c-1.06,0.11-1.86,1-1.86,2.07v5.17c-45.68-5.21-63.03,15.94-60,39.61c5.49-5.49,34.35-10.79,61-8  c6.35,19.21,7,38,0.75,47.13c-25.33,3.71-54.96,6.47-67.45,1.67c-12.81-9.15-23.79-36.59-20.13-65.87  c3.66-29.28,36.59-42.08,42.08-54.89c1.83-5.49-6.36-44.67-16.47-42.08C267.31,300.33,137,260.36,6.05,210.32  c-13.6,16.88-1.83,45.74,14.64,65.87c0,0,159.19,38.42,153.7,51.23c-5.49,12.81-144.28-4.9-148.21-10.98  c-9.12,16.98-6.54,36.67,5.49,58.55c27.45,14.64,148.21,32.93,148.21,49.4c-1.83,7.32-98.8,25.62-98.8,25.62  c8.65,24.66,30.39,50.68,60.52,68.62c36.74-1.67,91.35-21.05,95.15-20.13c3.8,0.92,7.18,13.72,9.01,15.55s-44.1,23.94-75.38,30.19  c15.94,33,40.68,56.49,82.7,61.3c0,0,69.53-43.91,73.19-40.25c9.15,9.15-28.11,48.04-56.72,75.02c0,0,56.72,38.42,80.51,32.93  c23.79-5.49,45.74-27.45,45.74-27.45c16.6-4.62,25.23,1.17,23.79,20.13c0,0-58.55,78.68-56.72,89.66s32.93,40.25,42.08,40.25  c9.15,0,43.91-18.3,43.91-18.3l-31.11,58.55c-0.51,23.5,4.17,42.62,25.62,47.57c14.64,9.15,23.79-29.28,32.93-26.35  c3.14,32.68-21.96,81.64,23.79,81.64c49.4,0,20.65-48.96,23.79-81.64c9.15-2.93,18.3,35.5,32.93,26.35  c21.45-4.96,26.12-24.08,25.62-47.57l-31.11-58.55c0,0,34.76,18.3,43.91,18.3s40.25-29.28,42.08-40.25s-56.72-89.66-56.72-89.66  c-1.44-18.96,7.19-24.75,23.79-20.13c0,0,21.96,21.96,45.74,27.45c23.79,5.49,80.51-32.93,80.51-32.93  c-28.61-26.97-65.87-65.87-56.72-75.02c3.66-3.66,73.19,40.25,73.19,40.25c42.02-4.8,66.76-28.29,82.7-61.3  c-31.29-6.25-77.21-28.36-75.38-30.19s5.22-14.63,9.01-15.55c3.8-0.92,58.41,18.46,95.15,20.13c30.12-17.94,51.87-43.96,60.52-68.62  c0,0-96.97-18.3-98.8-25.62c0-16.47,120.76-34.76,148.21-49.4c12.03-21.88,14.61-41.57,5.49-58.55  c-3.92,6.07-142.72,23.79-148.21,10.98C820.28,314.61,979.46,276.19,979.46,276.19z"/>
</svg>