<?xml version="1.0" encoding="UTF-8" standalone="no"?>
<!-- Generator: Adobe Illustrator 24.2.3, SVG Export Plug-In . SVG Version: 6.00 Build 0)  -->

<svg
   xmlns:dc="http://purl.org/dc/elements/1.1/"
   xmlns:cc="http://creativecommons.org/ns#"
   xmlns:rdf="http://www.w3.org/1999/02/22-rdf-syntax-ns#"
   xmlns:svg="http://www.w3.org/2000/svg"
   xmlns="http://www.w3.org/2000/svg"
   xmlns:sodipodi="http://sodipodi.sourceforge.net/DTD/sodipodi-0.dtd"
   xmlns:inkscape="http://www.inkscape.org/namespaces/inkscape"
   version="1.1"
   id="Layer_4"
   x="0px"
   y="0px"
   viewBox="0 0 826.91614 800"
   xml:space="preserve"
   sodipodi:docname="Black Dragons [Imperium, Adeptus Astartes, Space Marines, Salamanders, Chapter].svg"
   width="826.91614"
   height="800"
   inkscape:version="0.92.3 (2405546, 2018-03-11)"><metadata
   id="metadata15"><rdf:RDF><cc:Work
       rdf:about=""><dc:format>image/svg+xml</dc:format><dc:type
         rdf:resource="http://purl.org/dc/dcmitype/StillImage" /><dc:title></dc:title></cc:Work></rdf:RDF></metadata><defs
   id="defs13" /><sodipodi:namedview
   pagecolor="#ffffff"
   bordercolor="#666666"
   borderopacity="1"
   objecttolerance="10"
   gridtolerance="10"
   guidetolerance="10"
   inkscape:pageopacity="0"
   inkscape:pageshadow="2"
   inkscape:window-width="1920"
   inkscape:window-height="1017"
   id="namedview11"
   showgrid="false"
   fit-margin-top="0"
   fit-margin-left="0"
   fit-margin-right="0"
   fit-margin-bottom="0"
   inkscape:pagecheckerboard="true"
   inkscape:zoom="0.236"
   inkscape:cx="-27.542373"
   inkscape:cy="499"
   inkscape:window-x="-8"
   inkscape:window-y="-8"
   inkscape:window-maximized="1"
   inkscape:current-layer="Layer_4" />
<g
   id="g8"
   transform="matrix(0.82691612,0,0,0.82691612,0,-26.089204)">
	<path
   d="M 450.27,431.19 C 438.16,419.73 412.08,413.16 372.51,411.3 276.4,498.79 173.93,600.45 110.3,626.49 c 50.09,-6.75 93.06,-2.15 130.2,7.23 -30.74,-54.25 102.7,-145.97 209.77,-202.53 z"
   id="path2"
   inkscape:connector-curvature="0" />
	<path
   d="m 153.71,492.67 c 47.02,-148.28 271.25,-128.39 414.1,-18.08 2.2,-36.04 23.55,-62.7 50.63,-79.57 -34.36,-39.78 -48.82,-108.5 23.51,-135.62 -60.79,-69.32 -53.81,-146.83 -14.47,-227.85 0,0 -144.67,151.9 -177.22,164.56 -32.55,12.66 -121.16,25.32 -121.16,25.32 0,0 -150.08,160.93 -169.97,171.78 -19.89,10.85 -72.33,9.04 -72.33,9.04 C 70.38,449.92 42.09,496.33 0,541.5 l 10.85,27.12 c 25.11,-21.88 47.09,-39.52 72.33,-37.97 12.93,-34.57 37.94,-44.79 70.53,-37.98 z m 244.12,-226.04 -12.66,43.4 -68.72,5.42 z"
   id="path4"
   inkscape:connector-curvature="0" />
	<path
   d="M 981.92,521.6 C 909.59,485.43 916.21,401.34 1000,362.47 909.58,357.05 883.55,280.03 945.75,205.15 840.87,253.97 772.15,201.53 813.74,82.18 l -153.07,67.08 c -1.93,0.38 -3.75,1.03 -5.44,2.01 -0.58,0.34 -1.14,0.71 -1.67,1.11 l -0.76,0.33 c 0.03,0.07 0.07,0.14 0.1,0.2 -14.24,11.75 -10.59,46.73 9.01,80.67 7.82,13.54 17.05,24.96 26.41,33.4 -21.97,3.57 -39.14,34.43 -39.14,71.98 0,32.35 12.74,59.73 30.32,68.98 -14.71,9.55 -24.89,30.13 -24.89,53.98 0,20.49 7.51,38.57 18.96,49.31 -16.44,35.52 -40.31,68.07 -73.21,95.35 C 430.08,721.99 262.17,838.23 218.81,999 h 587.7 C 754.07,957.41 723.33,877.84 877.03,805.51 813.74,762.11 835.44,668.08 942.13,677.12 891.5,615.64 911.39,552.35 981.92,521.6 Z"
   id="path6"
   inkscape:connector-curvature="0" />
</g>
</svg>