<?xml version="1.0" encoding="UTF-8"?>
<!-- Generator: Adobe Illustrator 25.0.1, SVG Export Plug-In . SVG Version: 6.00 Build 0)  -->
<svg version="1.1" id="Layer_3" xmlns="http://www.w3.org/2000/svg" xmlns:xlink="http://www.w3.org/1999/xlink" x="0px" y="0px" viewBox="0 0 1000 1000" style="enable-background:new 0 0 1000 1000;" xml:space="preserve"><script xmlns="" id="__gaOptOutExtension"/>
<g>
	<path d="M667.4,651.39c-76.57-13.81-131.8-107.95-167.7-190.85v0.31C463.8,543.75,408.57,637.9,332,651.7   c0,0,84.1-5.02,79.08,75.31c-21.34,110.46,22.59,154.39,30.13,154.39c12.55,0,6.28-64.02,58.49-65.66v-0.31   c52.22,1.65,45.94,65.66,58.49,65.66c7.53,0,51.46-43.93,30.13-154.39C583.3,646.37,667.4,651.39,667.4,651.39z"/>
	<path d="M366.64,950.45c-12.55,2.51-26.36,10.04-22.59,32.64s42.68,8.79,42.68,8.79c34.93-22.34,44.75-54.38,43.18-90.81   C429.91,901.06,381.71,947.94,366.64,950.45z"/>
	<path d="M360.37,730.78c0.14,1.5,0.27,2.99,0.4,4.48C361.15,733.03,361.04,731.46,360.37,730.78z"/>
	<path d="M360.77,735.26c-2.88,16.79-34.09,71.64-70.32,77.73c0,0-36.98,7.64-31.76,45.82c4.67,34.16,56.68,16.81,56.68,16.81   C361.8,849.38,366.45,799.62,360.77,735.26z"/>
	<path d="M587.61,951.79c-13.9-6.32-48.35-64.06-48.35-64.06c-10.93,34.79-9.73,68.28,18.24,98.89c0,0,34.02,23.4,43.5,2.54   C610.48,968.3,599.08,957.46,587.61,951.79z"/>
	<path d="M627.73,791.03c0,0,25.1,71.55,19.35,111.96c-3.81,12.19,1.98,37.21,22.07,36.16c23.85-1.26,24.04-33.72,24.04-33.72   C693.01,848.78,642.8,802.33,627.73,791.03z"/>
	<path d="M771.58,317.81c20.42-1.92,39.42-11.61,57.74-25.1c-26.81-9.85-49.77-21.6-61.51-38.91   C871.4,211.52,917.94,124.13,931,10.28c-80.75,51.91-169.25,97.18-279.92,114.23l-15.06-74.06l-37.66,60.25l-30.13-85.36   l-33.89,53.98L499.7,4l-34.64,75.31l-33.89-53.98l-30.13,85.36l-37.66-60.25l-15.06,74.06C237.65,107.46,149.15,62.19,68.4,10.28   C81.46,124.13,128,211.52,231.58,253.79c-11.73,17.31-34.7,29.07-61.51,38.91c18.32,13.5,37.32,23.19,57.74,25.1   c-35.47,43.56-90.06,80.94-139.33,124.27h82.85l-42.68,65.27l89.12-15.06l-36.4,60.25l87.87-20.08l-26.36,64.02l67.78-26.36   l-26.61,66.28c80.35,22.6,157.32-48.42,215.65-196.82c58.33,148.4,135.3,219.42,215.65,196.82l-26.61-66.28l67.78,26.36   l-26.36-64.02l87.87,20.08l-36.4-60.25l89.12,15.06l-42.68-65.27h82.85C861.65,398.75,807.06,361.37,771.58,317.81z M389.74,409.44   c-23.33-24.3-40.44-58.64-55.23-96.65l95.4,62.76C419.62,390.25,404.13,404.17,389.74,409.44z M609.66,409.44   c-14.39-5.27-29.87-19.19-40.17-33.89l95.4-62.76C650.1,350.8,632.99,385.14,609.66,409.44z"/>
</g>
</svg>