<?xml version="1.0" encoding="UTF-8"?>
<!-- Generator: Adobe Illustrator 24.0.1, SVG Export Plug-In . SVG Version: 6.00 Build 0)  -->
<svg version="1.1" id="Layer_8_copy" xmlns="http://www.w3.org/2000/svg" xmlns:xlink="http://www.w3.org/1999/xlink" x="0px" y="0px" viewBox="0 0 1000 1000" style="enable-background:new 0 0 1000 1000;" xml:space="preserve"><script xmlns="" id="__gaOptOutExtension"/>
<g>
	<path d="M452,474c-46.64,2.54-92.41,10.58-137,26c-14.6,38.99-21.84,82.69-25,129c31.57,41.22,95.63,102.01,165,166   c54.67,6.33,114.04-0.09,178-19c6.29-45.74,6.51-90.77,0-135C566.46,573.76,502.36,511.08,452,474z"/>
	<path d="M310,495c28.93-11.58,62.14-19.74,107-24c-1.55-13.15-5.27-24.98-12-35c-33.22-11.83-72.55-24.44-106-27   c-45.76,49.97-84.11,102.17-98,161c23.65,20.71,53.09,35.62,84,46C286.59,584.85,298.5,540.54,310,495z"/>
	<path d="M202,555c3-10,3.41-16.87,10-31l-15-12c-8.87,7.32-13.57,17.8-13,30c3.7,7.2,9.31,12.9,17,17L202,555z"/>
	<path d="M214,521c0-3,17-32,20-36l-26-19c-13.45,4.54-21.16,15.89-16,36L214,521z"/>
	<path d="M236,482l23-33l-28-28c-22-3-32,16-27,35L236,482z"/>
	<path d="M261,446l30-35l-23-21c-1.58-0.39-3.18-0.59-4.77-0.61c-0.1,0-0.21-0.01-0.31-0.01c-0.19,0-0.38,0.01-0.57,0.02   c-14.29,0.37-28.23,14.7-27.35,30.6L261,446z"/>
	<path d="M606,440.02c-6.73,10.02-10.45,21.85-12,35c44.86,4.26,78.07,12.42,107,24c11.5,45.54,23.41,89.85,25,121   c30.91-10.38,60.35-25.29,84-46c-13.89-58.83-52.24-111.03-98-161C678.55,415.58,639.22,428.19,606,440.02z"/>
	<path d="M675,398.02c-0.41-0.01-0.82-0.02-1.23-0.02c-0.03,0-0.05,0-0.08,0c-15.48,0.03-33.82,9.51-53.69,24.02v10   c25.03-9.72,49.74-16.79,74-20C689.3,404.98,682.85,401.12,675,398.02z"/>
	<path d="M814,516.02l-15,12c6.59,14.13,7,21,10,31l1,4c7.69-4.1,13.3-9.8,17-17C827.57,533.82,822.87,523.34,814,516.02z"/>
	<path d="M777,489.02c3,4,20,33,20,36l22-19c5.16-20.11-2.55-31.46-16-36L777,489.02z"/>
	<path d="M775,486.02l32-26c5-19-5-38-27-35l-28,28L775,486.02z"/>
	<path d="M743,394.02l-23,21l30,35l26-26c0.88-15.9-13.06-30.23-27.35-30.6c-0.19-0.01-0.38-0.02-0.57-0.02   c-0.1,0-0.21,0.01-0.31,0.01C746.17,393.43,744.58,393.62,743,394.02z"/>
	<path d="M378,780.02c23.58,6.97,46.53,12.24,68.85,15.8c-27.03-24.96-51.61-47.97-73.39-68.99   C374.03,744.44,375.55,762.18,378,780.02z"/>
	<path d="M721,633.02c-3.16-46.31-10.4-90.01-25-129c-44.59-15.42-90.36-23.46-137-26c-14.54,10.71-30.23,23.56-46.79,38.02   c8.9,7.95,18.27,16.52,28.15,25.79c33.53,31.42,69.31,67.26,96.73,94.97l1.38,1.4l0.29,1.95c3.65,24.84,5.23,50.36,4.75,76.34   C676.2,684.54,703.56,655.79,721,633.02z"/>
	<path d="M837.14,384.6C804.08,268.02,712.47,176.07,596.11,142.5L562.89,42H433.78l-33.22,100.5   c-116.41,33.58-208.04,125.6-241.07,242.24L48.83,421.32V491h-0.5v69.68l110.66,36.58C190,706.79,272.69,794.6,379.05,832.71   c0.18,8.67,0.79,20.63,1.51,28.61c-19.1-10.28-35.1-25.14-48.56-43.74c-5.1,9.71-8.96,21.8-11.94,35.6   c-17.51-20.57-30.94-40.29-40.06-59.6c-8.91,7.18-16.86,20.84-24.34,37.66c-13.38-17.61-21.99-41.38-28.66-66.66   c-9.62,10.14-17.73,22.06-24.31,34.7c-4.73-26.49-6.39-50.82-1.69-70.7c-13,1-19.72,27.25-28,25c-5.46-1.48-2-58,1-80   c-9.68,3.89-18.03,9.72-25.71,16.54c-4.16-38.82-16.03-72.04-41.29-95.54c-8.64,15.25-22.11,84.13-20.27,115.3   c-11.24-4.8-22.48-7.8-33.73-8.3c-5.88,5.76,0.91,50.08,9.63,67.95c-3.25,0.84-6.47,1.84-9.63,3.05   c9.74,20.85,25.13,39.15,43.61,56.05c-4.01,1.46-7.89,3.11-11.61,4.95c24.4,16.37,50.52,29.75,78.02,40.75   c-18.65,7.35-33.11,13.83-39.02,14.25c21.83,8.94,59.05,12.64,107.76,12.42c-9.72,6.49-19.32,13.67-28.76,21.58   c22.19,2.47,49.46,2.43,75.47,0.77c-9.82,8.67-18,17.86-23.47,27.23c28.62-10.54,74.01-19.05,109.22-22.97   c-9.59,10.86-18.1,22.75-25.22,34.97c32.15-11.84,62.39-19.65,94-22.58l-0.94-3.71l1.23,3.71H562   c31.89,2.86,62.18,10.65,94.58,22.58c-7.12-12.22-15.63-24.11-25.22-34.97c35.21,3.92,80.6,12.44,109.22,22.97   c-5.46-9.38-13.64-18.56-23.47-27.23c26,1.66,53.28,1.7,75.47-0.77c-9.44-7.91-19.03-15.09-28.76-21.58   c48.71,0.21,85.92-3.48,107.76-12.42c-5.91-0.42-20.37-6.9-39.02-14.25c27.49-11,53.62-24.38,78.02-40.75   c-3.72-1.84-7.59-3.49-11.61-4.95c18.48-16.9,33.87-35.19,43.61-56.05c-3.16-1.21-6.37-2.21-9.63-3.05   c8.71-17.87,15.51-62.19,9.63-67.95c-11.24,0.5-22.49,3.5-33.73,8.3c1.84-31.17-11.63-100.05-20.27-115.3   c-25.25,23.51-37.13,56.73-41.29,95.54c-7.68-6.82-16.04-12.66-25.71-16.54c3,22,6.46,78.52,1,80c-8.28,2.25-15-24-28-25   c4.7,19.87,3.04,44.21-1.69,70.7c-6.58-12.64-14.68-24.55-24.31-34.7c-6.67,25.29-15.28,49.05-28.66,66.66   c-7.48-16.82-15.43-30.48-24.34-37.66c-9.12,19.31-22.55,39.04-40.06,59.6c-2.98-13.8-6.84-25.89-11.94-35.6   c-13.46,18.6-29.45,33.46-48.56,43.74c0.91-10.18,1.4-20.18,1.31-28.51c106.45-38.03,189.23-125.84,220.3-235.41l110.7-36.59V491   h0.5v-69.81L837.14,384.6z M112,521c-16.57,0-30-13.43-30-30s13.43-30,30-30s30,13.43,30,30S128.57,521,112,521z M498,57   c16.57,0,30,13.43,30,30s-13.43,30-30,30s-30-13.43-30-30S481.43,57,498,57z M498.08,901c-16.57,0-30-13.43-30-30s13.43-30,30-30   s30,13.43,30,30S514.65,901,498.08,901z M832.99,546.3l-0.06,1.3l-0.6,1.16c-4.01,7.81-10.02,14.03-17.83,18.58   c0.46,1.76,0.91,3.53,1.33,5.3l0.83,3.51l-2.72,2.38c-20.17,17.66-45.56,32.24-75.57,43.45c-21.71,43.13-54.66,79.62-95.03,105.61   c-0.67,16.26-2.15,32.79-4.41,49.23l-0.53,3.84l-3.71,1.1c-23.24,6.87-46.18,12.17-68.22,15.75c-2.13,1.97-4.27,3.94-6.41,5.92   l-1.44,1.33l-1.94,0.22c-13.76,1.59-28.02,2.4-42.38,2.4c-43.08,0-89.51-7.27-138.01-21.61l-3.71-1.1l-0.53-3.84   c-2.02-14.69-3.41-29.41-4.17-43.96c-51.62-28.51-92.87-73.49-116.69-127.84c-20.84-9.68-38.98-21.23-54.15-34.52l-2.72-2.38   l0.83-3.51c0.42-1.77,0.86-3.54,1.32-5.31c-7.81-4.55-13.81-10.77-17.82-18.57l-0.6-1.16l-0.06-1.3   c-0.6-12.96,4.04-24.6,13.13-33.1l-3.05-2.64l-1.42-1.23l-0.47-1.82c-5.03-19.59,0.69-34.45,15.69-41.49l-1.66-1.35l-1.52-1.24   l-0.5-1.89c-3.1-11.79-1.17-23.74,5.18-31.97c5.4-7.01,13.62-10.87,23.14-10.87c0.88,0,1.77,0.03,2.68,0.1   c0.88-7.39,4.28-14.6,9.75-20.38c1.94-2.05,4.06-3.84,6.31-5.35c23.1-63.67,69.55-116.13,128.99-147.07   c-0.43-12.89,0.9-26.21,5.32-39.12c21.42-62.64,84.87-72.43,112.27-73.7c0,0,2.3-0.15,6.32-0.15c0.05,0,0.05,0,0.1,0s0.05,0,0.1,0   c3.98,0,6.32,0.15,6.32,0.15c27.44,1.28,90.84,11.07,112.32,73.7c4.41,12.89,5.73,26.19,5.3,39.06   c59.03,30.69,105.25,82.6,128.55,145.63c7.68,0.76,15.28,4.62,21.19,10.88c5.47,5.78,8.87,12.99,9.75,20.38   c0.91-0.06,1.8-0.1,2.68-0.1c9.52,0,17.74,3.86,23.14,10.87c6.35,8.23,8.28,20.18,5.18,31.97l-0.5,1.89l-1.52,1.24l-1.66,1.35   c15,7.03,20.72,21.9,15.69,41.49l-0.47,1.82l-1.42,1.23l-3.05,2.64C828.95,521.69,833.6,533.34,832.99,546.3z M875,521   c-16.57,0-30-13.43-30-30s13.43-30,30-30s30,13.43,30,30S891.57,521,875,521z"/>
	<path d="M600.9,137.63c56.9,16.97,109.15,48.24,151.29,90.56c42.15,42.33,73.19,94.72,89.91,151.71l72.41,23.94   c-5.18-29.71-13.46-58.36-24.5-85.6L927,239h-79.43c-25.8-37.84-57.58-71.28-93.99-98.95L743,54l-66.59,39.43l0,0   c-31.66-14.77-65.46-25.72-100.79-32.29L600.9,137.63z"/>
	<path d="M81.4,404.26l73.28-24.23c16.7-57.01,47.74-109.44,89.9-151.8c42.15-42.35,94.42-73.63,151.34-90.61l25.34-76.65   c-35.66,6.55-69.75,17.57-101.68,32.46l0,0L253,54l-10.58,86.05c-36.4,27.67-68.18,61.11-93.99,98.95H69l36.98,79.24   C94.89,345.6,86.58,374.4,81.4,404.26z"/>
	<path d="M650.18,825.32c-9.11,4.29-18.39,8.2-27.84,11.7c-0.04,4.68-0.23,9.38-0.47,13.62   C632.07,843.86,641.54,835.39,650.18,825.32z"/>
	<path d="M710.17,791.44l1.35-2.87c-13.49,10.03-27.65,19.1-42.37,27.13c3.62,6.98,6.72,15.18,9.38,24.86   C692.35,823.3,702.75,807.15,710.17,791.44z"/>
	<path d="M816.08,740.46c0.84,1.24,1.94,2.87,3.01,4.32c0.4-4.96,0.58-13.45,0.03-26.85c-0.61-14.87-2.04-32.6-3.47-43.12l-0.9-6.63   c-16.58,31.37-37.82,60.31-63.04,85.64c-11.49,11.54-23.73,22.24-36.61,32.07l4.27,3.44c7.34,5.92,14.29,15.65,21.54,30.27   c8.45-13.79,15.51-31.95,21.89-56.13l2.75-10.41l7.41,7.81c5.96,6.28,11.52,13.37,16.6,21.17c2.68-21.12,2.4-38.13-0.79-51.66   l-1.89-7.99l8.19,0.63C804.82,723.77,811.06,733.02,816.08,740.46z"/>
	<path d="M900.01,608.42c3.04-9.3,5.77-18.74,8.16-28.31l-17.79,5.88l3.43,6.06C895.76,595.48,897.88,601.21,900.01,608.42z"/>
	<path d="M842.72,679.1c5.78-38.73,19.5-67.75,41.79-88.5l4.47-4.16l-47.36,15.66c-6.42,21.87-14.95,43.06-25.4,63.26l7.62,3.06   C830.24,671.01,836.48,674.53,842.72,679.1z"/>
	<path d="M326.5,815.59c-14.79-8.08-29.01-17.2-42.55-27.3l1.48,3.14c7.42,15.72,17.81,31.87,31.64,49.12   C319.75,830.83,322.87,822.6,326.5,815.59z"/>
	<path d="M373.73,850.65c-0.25-4.27-0.44-9-0.48-13.71c-9.5-3.53-18.83-7.47-27.99-11.79C353.95,835.29,363.46,843.82,373.73,850.65   z"/>
	<path d="M106.29,586.13l4.81,4.48c22.28,20.74,36.01,49.77,41.79,88.5c6.23-4.57,12.47-8.1,18.89-10.67l7.82-3.14   c-10.46-20.23-18.99-41.44-25.4-63.33L106.29,586.13z"/>
	<path d="M105.32,585.81l-17.51-5.79c2.35,9.38,5.01,18.63,7.98,27.74c2.06-6.9,4.11-12.39,6-15.72L105.32,585.81z"/>
	<path d="M206.05,782.04c5.09-7.81,10.64-14.89,16.6-21.17l7.41-7.81l2.75,10.41c6.38,24.18,13.44,42.33,21.89,56.13   c7.25-14.62,14.2-24.35,21.54-30.27l4.39-3.54c-12.85-9.82-25.08-20.51-36.54-32.03c-25.3-25.42-46.58-54.46-63.18-85.94   l-0.95,6.99c-1.43,10.52-2.86,28.25-3.47,43.12c-0.55,13.4-0.37,21.89,0.03,26.85c1.07-1.45,2.17-3.08,3.01-4.32   c5.02-7.44,11.26-16.69,21.03-17.44l8.19-0.63l-1.89,7.99C203.65,743.92,203.38,760.92,206.05,782.04z"/>
	<path d="M483.7,414.58c1.64-2.1,3.89-4.51,6.92-6.71c3.23-2.36,6.35-3.84,8.71-4.71c2.41,0.87,5.48,2.36,8.71,4.71   c3.02,2.2,5.28,4.61,6.92,6.71c0.67,0.82,2,0.41,2.05-0.67c0.51-7.89,0.15-24.18-11.78-35.97c-1.54-1.54-3.59-2.87-5.89-4.15   c-2.36,1.28-4.35,2.61-5.89,4.15c-11.94,11.78-12.3,28.03-11.78,35.97C481.71,414.99,483.04,415.4,483.7,414.58z"/>
	<path d="M421.56,377.18c0.36,0.26,0.82,0.41,1.28,0.46c6.97,0.97,24.18,2.36,41.55-7.43c7.22-4.05,12.55-8.97,16.24-13.12   c1.38-1.59,0.97-4.05-0.87-5.02c-7.48-3.89-16.6-7.94-27.31-11.27c-13.22-4.15-25.16-6.05-34.79-6.92c-0.46,0-0.92,0.05-1.38,0.2   c-7.99,2.92-10.55,7.63-11.22,9.07C400.55,352.54,406.34,367.55,421.56,377.18z"/>
	<path d="M532.38,370.22c17.42,9.79,34.58,8.4,41.55,7.43c0.46-0.05,0.87-0.2,1.28-0.46c15.22-9.58,21.01-24.64,16.55-34.02   c-0.72-1.38-3.28-6.15-11.22-9.07c-0.46-0.2-0.92-0.26-1.38-0.2c-9.58,0.87-21.52,2.77-34.79,6.92   c-10.71,3.33-19.83,7.38-27.31,11.27c-1.9,0.97-2.31,3.43-0.92,5.02C519.82,361.25,525.15,366.17,532.38,370.22z"/>
	<path d="M726.51,626.18c0.16,2.14,0.33,4.26,0.48,6.43l0.12,1.74c2-3.41,3.93-6.87,5.78-10.37c-1.65,0.58-3.3,1.16-4.97,1.73   L726.51,626.18z"/>
	<path d="M269.46,384.18l1.47,0.37l1.12,1.02l21.94,20.03c0.2-0.22,0.39-0.43,0.59-0.65l1.97-2.15l2.91,0.22   c3.75,0.29,7.94,0.7,12.75,1.36c6.1-8.95,14.32-13.1,21.58-15.96l0.97-0.38l1.04-0.03c0.48-0.02,0.95-0.02,1.43-0.02   c15.58,0,33.79,8,57.31,25.17l2.46,1.8V418v8.84c3.24,1.12,6.57,2.28,10.01,3.51l1.86,0.66l1.1,1.64   c6.97,10.36,11.21,22.67,12.98,37.63c9.41-0.98,18.97-1.74,28.72-2.27l2.15-0.12l1.73,1.28c15.47,11.39,32.59,25.41,52.23,42.77   c17.76-15.54,33.39-28.24,47.66-38.75l1.73-1.28l2.15,0.12c9.74,0.53,19.3,1.29,28.72,2.27c1.76-14.96,6.01-27.27,12.98-37.63   l1.1-1.64l1.86-0.66c3.25-1.16,6.59-2.33,10.01-3.52v-8.83v-3.05l2.46-1.8C639.98,400,658.19,392,673.77,392   c0.48,0,0.96,0.01,1.43,0.02l1.04,0.03l0.97,0.38c7.27,2.87,15.51,7.02,21.61,16c4.31-0.6,8.57-1.08,12.73-1.4l2.91-0.22l1.97,2.15   c0.2,0.21,0.4,0.43,0.59,0.65l21.94-20.03l1.12-1.02l1.47-0.37c1.67-0.42,3.39-0.67,5.14-0.76c-1.15-3.01-2.33-6.02-3.59-9   c-13.25-31.34-32.23-59.48-56.4-83.65c-19.11-19.11-40.71-34.95-64.39-47.31c-3.15,37.5-19.27,69.87-14.25,75.69   c28.33,32.79-10.14,84.74-15.42,89.05c-9.48,7.69-39.6-7.94-34.84,0.15c3.59,6.15,6.92,52.62,6.92,52.62h-12.4l-2.41-16.19   l-7.99-0.1L541.39,465h-13.22l-1.54-16.55l-8.51,0.26L517.37,465h-13.22l-0.61-16.7h-10.71l-0.61,16.7h-13.22l-0.77-16.29   l-7.99-0.26L468.69,465h-13.73l-0.51-16.29l-7.99,0.1L444.05,465h-12.4c0,0,3.33-46.47,6.92-52.62c4.76-8.1-25.36,7.58-34.84-0.15   c-5.23-4.25-43.75-56.26-15.42-89.05c4.92-5.67-10.43-36.74-14.05-73.2c-21.86,11.97-41.88,26.97-59.72,44.82   c-24.17,24.17-43.14,52.31-56.4,83.65c-0.82,1.95-1.62,3.9-2.39,5.86c2.37-0.6,4.78-0.92,7.18-0.92   C265.14,383.38,267.34,383.65,269.46,384.18z"/>
	<path d="M285.24,632.65l-1.38-1.8l0.15-2.26c0.15-2.17,0.32-4.3,0.48-6.43l-1.4-0.47c-7.19-2.41-14.12-5.02-20.81-7.8   c12.9,27.21,30.27,51.83,51.75,73.31c16.13,16.13,34.04,29.94,53.49,41.28c-0.09-2.61-0.17-5.22-0.22-7.82   C328.63,683.05,301.78,654.24,285.24,632.65z"/>
	<path d="M653.88,714.71c11.42-8.24,22.22-17.42,32.31-27.51c15.28-15.28,28.48-32.15,39.47-50.41   C710.61,656.42,687.06,682,653.88,714.71z"/>
	<path d="M337.23,393.98c-0.41,0-0.82,0.01-1.23,0.02c-7.85,3.1-14.3,6.96-19,14c24.26,3.21,48.97,10.28,74,20v-10   c-19.87-14.51-38.21-23.98-53.69-24.02C337.29,393.98,337.26,393.98,337.23,393.98z"/>
</g>
</svg>