<?xml version="1.0" encoding="UTF-8"?>
<!-- Generator: Adobe Illustrator 25.2.0, SVG Export Plug-In . SVG Version: 6.00 Build 0)  -->
<svg version="1.1" id="Layer_2" xmlns="http://www.w3.org/2000/svg" xmlns:xlink="http://www.w3.org/1999/xlink" x="0px" y="0px" viewBox="0 0 1000 1000" style="enable-background:new 0 0 1000 1000;" xml:space="preserve"><script xmlns="" id="__gaOptOutExtension"/>
<g>
	<path d="M113.78,0v701.9c25.86,34.13,53.83,65.73,83.78,94.97c7.49,7.31,15.1,14.47,22.84,21.49c7.74,7.02,81.22,65.56,98.59,77.33   c26.06,17.66,100.03,59.39,109.6,64.22c9.57,4.83,83.88,38.05,88.98,40.09c5.1-2.04,79.41-35.26,88.98-40.09   c9.57-4.83,83.55-46.56,109.6-64.22c17.37-11.77,67.04-50,75.02-56.72c7.98-6.73,38.93-34.79,46.42-42.1   c29.96-29.24,57.93-60.85,83.78-94.97V0H113.78z M899.69,694.56c-48.22,62.49-105.59,118.16-170.6,165.54   c-62.13,45.28-133.26,84.46-211.52,116.51c-78.25-32.05-149.38-71.22-211.52-116.51c-65.01-47.38-122.37-103.05-170.6-165.54V21.68   h764.23V694.56z"/>
	<polygon points="342.7,216.87 336.19,145.4 173.37,65.95 254.49,228.89 326.09,234.54 500.32,406.55 205.38,697.74 208.11,712.08    222.41,714.99 517.57,423.59 812.74,714.99 827.04,712.08 829.77,697.74 534.83,406.55 709.06,234.54 780.66,228.89 861.78,65.95    698.96,145.4 692.45,216.87 517.57,389.52  "/>
</g>
</svg>