<?xml version="1.0" encoding="UTF-8"?>
<!-- Generator: Adobe Illustrator 25.2.0, SVG Export Plug-In . SVG Version: 6.00 Build 0)  -->
<svg version="1.1" id="Layer_3" xmlns="http://www.w3.org/2000/svg" xmlns:xlink="http://www.w3.org/1999/xlink" x="0px" y="0px" viewBox="0 0 1000 1000" style="enable-background:new 0 0 1000 1000;" xml:space="preserve"><script xmlns="" id="__gaOptOutExtension"/>
<path d="M113.78,0v701.9c25.86,34.13,53.83,65.73,83.78,94.97c7.49,7.31,15.1,14.47,22.84,21.49s81.22,65.56,98.59,77.33  c26.06,17.66,100.03,59.39,109.6,64.22c9.57,4.83,83.88,38.05,88.98,40.09c5.1-2.04,79.41-35.26,88.98-40.09  c9.57-4.83,83.55-46.56,109.6-64.22c17.37-11.77,67.04-50,75.02-56.72c7.98-6.73,38.93-34.79,46.42-42.1  c29.96-29.24,57.93-60.85,83.78-94.97V0H113.78z M780.49,229.23l-71.6,5.64L534.66,406.89L829.6,698.08l-2.73,14.34l-14.3,2.91  l-295.16-291.4l-295.16,291.4l-14.3-2.91l-2.73-14.34l294.94-291.19L325.92,234.88l-71.6-5.64L173.2,66.29l162.82,79.45l6.51,71.47  l174.88,172.65l174.88-172.65l6.51-71.47l162.82-79.45L780.49,229.23z"/>
</svg>