<?xml version="1.0" encoding="UTF-8" standalone="no"?>
<!-- Created with Inkscape (http://www.inkscape.org/) -->

<svg
   xmlns:dc="http://purl.org/dc/elements/1.1/"
   xmlns:cc="http://creativecommons.org/ns#"
   xmlns:rdf="http://www.w3.org/1999/02/22-rdf-syntax-ns#"
   xmlns:svg="http://www.w3.org/2000/svg"
   xmlns="http://www.w3.org/2000/svg"
   xmlns:sodipodi="http://sodipodi.sourceforge.net/DTD/sodipodi-0.dtd"
   xmlns:inkscape="http://www.inkscape.org/namespaces/inkscape"
   width="692.89929"
   height="800"
   viewBox="0 0 183.3296 211.66667"
   version="1.1"
   id="svg8"
   inkscape:version="0.92.3 (2405546, 2018-03-11)"
   sodipodi:docname="Mars [Imperium, Adeptus Mechanicus, Forge World].svg">
  <defs
     id="defs2" />
  <sodipodi:namedview
     id="base"
     pagecolor="#ffffff"
     bordercolor="#666666"
     borderopacity="1.0"
     inkscape:pageopacity="0.0"
     inkscape:pageshadow="2"
     inkscape:zoom="0.175"
     inkscape:cx="-550.11009"
     inkscape:cy="292.55596"
     inkscape:document-units="px"
     inkscape:current-layer="layer1"
     showgrid="false"
     units="px"
     inkscape:window-width="1920"
     inkscape:window-height="1017"
     inkscape:window-x="-8"
     inkscape:window-y="-8"
     inkscape:window-maximized="1"
     inkscape:snap-global="true"
     fit-margin-top="0"
     fit-margin-left="0"
     fit-margin-right="0"
     fit-margin-bottom="0"
     inkscape:pagecheckerboard="true" />
  <metadata
     id="metadata5">
    <rdf:RDF>
      <cc:Work
         rdf:about="">
        <dc:format>image/svg+xml</dc:format>
        <dc:type
           rdf:resource="http://purl.org/dc/dcmitype/StillImage" />
        <dc:title />
      </cc:Work>
    </rdf:RDF>
  </metadata>
  <g
     inkscape:label="Layer 1"
     inkscape:groupmode="layer"
     id="layer1"
     transform="translate(-38.473446,9.3342284)">
    <g
       id="g829">
      <text
         id="text871"
         y="235.95683"
         x="51.971725"
         style="font-style:normal;font-weight:normal;font-size:10.58333302px;line-height:1.25;font-family:sans-serif;letter-spacing:0px;word-spacing:0px;fill:#000000;fill-opacity:1;stroke:none;stroke-width:0.26458332"
         xml:space="preserve"><tspan
           style="stroke-width:0.26458332"
           y="245.61234"
           x="51.971725"
           id="tspan869"
           sodipodi:role="line" /></text>
      <path
         id="path837"
         d="M 118.98626,-9.3342284 V 3.5848864 a 75.09755,75.09755 0 0 0 -16.3161,4.3212829 L 96.235387,-3.2386624 76.920584,7.9128443 83.351546,19.05196 A 75.09755,75.09755 0 0 0 71.46346,31.033437 L 60.265259,24.568164 49.113744,43.882981 60.30909,50.346337 a 75.09755,75.09755 0 0 0 -4.340349,16.28751 H 43.018194 v 22.303014 h 12.919098 a 75.09755,75.09755 0 0 0 4.321292,16.316109 l -11.14484,6.43478 11.151515,19.31479 11.139123,-6.43095 a 75.09755,75.09755 0 0 0 11.997664,11.86046 l -6.481462,11.22583 19.314803,11.15151 6.497663,-11.25444 a 75.09755,75.09755 0 0 0 16.25321,4.40039 v 12.95056 h 22.30303 v -12.92006 a 75.09755,75.09755 0 0 0 16.31705,-4.3213 l 6.43478,11.14485 19.3148,-11.15151 -6.43096,-11.13913 a 75.09755,75.09755 0 0 0 11.88808,-11.98146 l 11.19725,6.46525 11.15151,-19.31479 -11.19534,-6.46336 a 75.09755,75.09755 0 0 0 4.34131,-16.287529 h 12.95054 V 66.633847 h -12.92006 a 75.09755,75.09755 0 0 0 -4.32034,-16.31705 L 211.1618,43.882981 200.01029,24.568164 188.87116,30.999122 A 75.09755,75.09755 0 0 0 176.87445,19.139639 L 183.35592,7.9128443 164.04112,-3.2386624 157.5425,8.0167128 A 75.09755,75.09755 0 0 0 141.28929,3.6153666 V -9.3342284 Z M 130.13778,23.422807 A 54.362962,54.362962 0 0 1 184.50127,77.785354 54.362962,54.362962 0 0 1 130.13778,132.14886 54.362962,54.362962 0 0 1 75.775225,77.785354 54.362962,54.362962 0 0 1 130.13778,23.422807 Z"
         style="opacity:1;fill:#000000;fill-opacity:1;stroke:none;stroke-width:2.86385679;stroke-linecap:butt;stroke-linejoin:miter;stroke-miterlimit:4;stroke-dasharray:none;stroke-opacity:1;paint-order:markers fill stroke"
         inkscape:connector-curvature="0" />
      <path
         style="fill:#000000;fill-opacity:1;stroke-width:0.12972559"
         inkscape:connector-curvature="0"
         id="path2"
         d="M 160.33445,53.548853 C 154.87299,37.618548 138.74812,35.127843 131.76887,34.803515 v 0 c 0,0 -0.59675,-0.03891 -1.60861,-0.03891 -0.0131,0 -0.0131,0 -0.0259,0 -0.0131,0 -0.0131,0 -0.0259,0 -1.02483,0 -1.60859,0.03891 -1.60859,0.03891 v 0 c -6.96627,0.324328 -23.10413,2.815033 -28.552588,18.745338 -4.657149,13.595246 4.164168,28.954763 2.373968,31.0174 -7.173826,8.302435 2.58154,21.469577 3.90474,22.546297 2.39992,1.95886 10.02779,-2.01074 8.82134,0.0389 -0.90807,1.55672 -1.75129,13.32283 -1.75129,13.32283 h 2.36099 l 1.12861,-4.09933 2.02372,-0.026 0.38919,4.12527 h 4.12527 l 0.38917,-3.93068 1.3751,-0.19459 0.19459,4.12527 h 3.34691 l 0.15568,-4.22907 h 2.71125 l 0.15568,4.22907 h 3.34693 l 0.19457,-4.12527 1.37511,0.19459 0.38916,3.93068 h 4.12528 l 0.3892,-4.12527 2.02371,0.026 1.12861,4.09933 h 2.361 c 0,0 -0.84321,-11.76611 -1.7513,-13.32283 -1.20645,-2.04965 6.42142,1.90695 8.82137,-0.0389 1.33614,-1.0897 11.07854,-14.243862 3.90472,-22.546297 -1.79022,-2.0756 7.01815,-17.435117 2.37398,-31.0174 z M 125.6977,93.154091 c -0.93402,1.050781 -2.28316,2.296152 -4.1123,3.32097 -4.3977,2.47776 -8.75647,2.127488 -10.52074,1.881028 -0.11667,-0.01291 -0.23351,-0.05181 -0.3243,-0.116905 -3.85285,-2.438853 -5.31877,-6.239816 -4.17719,-8.613782 0.16876,-0.363235 0.81728,-1.556718 2.841,-2.296152 0.11667,-0.03891 0.23351,-0.052 0.35027,-0.052 2.43884,0.220533 5.46145,0.700526 8.80835,1.751289 2.71126,0.843228 5.02039,1.868065 6.91438,2.853977 0.46701,0.246478 0.5708,0.869154 0.22053,1.271315 z m 9.21055,14.386569 c -0.0129,0.27242 -0.35029,0.37618 -0.51892,0.16872 -0.41512,-0.5319 -0.98593,-1.1416 -1.75131,-1.69942 -0.81728,-0.59673 -1.59561,-0.97295 -2.20533,-1.19347 -0.59675,0.22052 -1.38808,0.59674 -2.20534,1.19347 -0.76538,0.55782 -1.33618,1.16752 -1.7513,1.69942 -0.16875,0.20753 -0.50593,0.10381 -0.5189,-0.16872 -0.12974,-2.01077 -0.0388,-6.12306 2.98369,-9.106757 0.38917,-0.389161 0.8951,-0.726452 1.49185,-1.050781 0.58375,0.324329 1.10266,0.66162 1.49184,1.050781 3.02261,2.983697 3.11342,7.108967 2.98372,9.106757 z m 14.73682,-9.301328 c -0.10381,0.06491 -0.20757,0.103813 -0.32433,0.116905 -1.76427,0.246459 -6.11006,0.596732 -10.52073,-1.881028 -1.82914,-1.024819 -3.17827,-2.27019 -4.11231,-3.320971 -0.35026,-0.40216 -0.2465,-1.024837 0.23349,-1.271314 1.89401,-0.985912 4.20311,-2.010749 6.91438,-2.853977 3.35992,-1.050763 6.3825,-1.530774 8.80839,-1.75129 0.11672,-0.01291 0.23348,0 0.35024,0.05181 2.01075,0.739433 2.65939,1.945879 2.84099,2.296151 1.12862,2.373966 -0.33727,6.18791 -4.19012,8.613782 z" />
      <path
         sodipodi:nodetypes="cccccccscccccsscccccscccccccccsccsscccsscccccccccsccccccccccccccccccccccccccccccccccscsscssscccssscscsccscccsscscsscsscccccccccccccccccsscscccccccccccccscscccssczcccscccczcccccccscccccccccccc"
         inkscape:connector-curvature="0"
         id="path944"
         transform="matrix(0.26458333,0,0,0.26458333,38.473446,-9.3342284)"
         d="m 597.27344,665.98633 -68.88086,92.65429 -0.11328,12.29883 h 26.42578 l 20.16797,0.0215 c 4.33905,2.91605 4.27508,5.71459 4.24023,10.36133 -0.034,4.6467 -1.85349,9.4351 -10.10937,10.75 -5.34335,0.85099 -9.41407,0.0787 -9.41407,3.86914 V 800 h 30.43555 23.05664 l -0.37109,-3.87109 c -0.31559,-3.28218 -1.06314,-2.90323 -4.88477,-3.64258 -7.42356,-1.43664 -11.03125,-7.4009 -11.03125,-11.16406 0,-3.76313 -0.015,-10.38282 3.04688,-10.38282 h 11.10742 c 0.82488,-0.82492 4.23242,-2.84179 4.23242,-2.84179 v -1.7793 l -4.23242,-3.44531 c 0,0 -6.85864,0.36703 -9.22266,-1.11719 -2.36409,-1.48437 -4.12109,-2.93099 -4.12109,-4.9375 0,-2.00648 -0.33008,-90.83203 -0.33008,-90.83203 z m 71.3125,5.35156 -3.96485,0.0156 c -1.96002,0.004 -3.98677,1.56041 -5.49609,4.21289 -3.73818,6.56991 -11.70948,9.44825 -24.28125,10.54492 l -11.22461,0.98047 v 4.84961 4.85156 h 7.68555 c 10.40213,0 16.27597,1.7206 18.17969,7.18164 v 81.58984 c -1.73337,6.24015 -7.70285,8.35547 -18.1543,8.35547 -7.62388,0 -7.71094,-0.37506 -7.71094,1.84375 V 800 h 36.48242 32.79688 v -4.24023 c 0,-1.77064 -1.28884,-1.84375 -6.61914,-1.84375 -7.34952,0 -9.06534,-0.54097 -13.07618,-4.12305 l -4.61718,-4.12305 z m -160.8711,14.53711 -2.90429,0.002 c -2.25612,0 -3.2149,0.95527 -4.29297,4.29883 -2.57991,8.00062 -7.61784,8.62879 -19.81446,2.46094 -9.97791,-5.04575 -18.4176,-6.92351 -25.29687,-5.62305 -21.13402,3.995 -31.55467,30.11014 -18.875,47.30469 4.41203,5.9831 14.29941,11.16756 34.03516,17.84961 19.69704,6.66894 24.85221,9.23472 28.73828,14.29101 3.33539,4.34007 3.20725,12.29301 -0.28125,17.53907 -4.52682,6.80746 -8.47521,9.01816 -17.13086,9.58203 -6.89726,0.4495 -8.71473,0.0565 -15.41016,-3.31641 -9.38615,-4.72928 -22.33823,-18.26666 -28.07812,-29.35156 -3.24129,-6.25962 -4.48883,-7.65556 -6.58594,-7.34961 -2.53433,0.36926 -2.59954,0.8629 -2.91797,23.37305 0,0 -0.0625,1.13574 -0.0625,4.22656 -13.17989,13.68824 -16.96559,-1.44349 -19.58008,-7.24805 -5.35929,-12.15507 -9.42507,-18.41208 -14.4707,-22.26172 l -4.0625,-3.0957 6.44336,-1.29102 c 7.14709,-1.43066 15.0124,-6.03422 18.3125,-10.71679 1.30137,-1.84657 3.95338,-11.51894 4.08789,-17.3125 0.13455,-5.79353 -4.21542,-17.41221 -11.28711,-22.54492 -9.31918,-6.7643 -12.16738,-8.5 -51.85352,-8.5 H 319.56836 188.71484 v 6.89843 c 7.56585,0.56312 12.42816,1.68811 14.58985,3.37696 2.16163,1.68903 3.24412,5.63157 3.24414,11.82422 v 65.7539 c -0.24998,16.48116 -6.84625,15.96033 -14.8418,15.98047 -17.51749,0 -13.18189,-35.41391 -13.27148,-41.3418 -0.52548,-31.55297 -1.00754,-36.84259 -4.01172,-43.99414 -4.49899,-10.71004 -12.00341,-17.35353 -21.3086,-18.86523 -16.83041,-2.73407 -30.55237,3.91555 -40.89843,19.8164 l -5.14258,7.90821 -3.75,-8.76953 C 98.428755,695.3327 89.154429,688.49057 77.0625,687.4043 61.953071,686.04692 54.239864,692.67153 43.134766,709.25977 l -4.681641,6.99414 v -13.7168 -13.72266 h -4.71875 c -2.593999,0 -10.415092,0.52248 -17.380859,1.16016 -11.8919211,1.08903 -12.666016,1.4184 -12.666016,5.38086 0,3.73221 0.7698486,4.2207 6.662109,4.2207 5.62853,0 6.913483,0.71354 8.277344,4.59961 0.887921,2.5299 1.617188,21.63215 1.617188,42.44922 0,42.39129 -0.501357,44.41016 -11.0175785,44.41016 C 4.4237505,791.03516 0,791.62897 0,795.51758 v 4.48047 h 28.519531 24.832031 v -4.48047 c 0,-3.71807 -0.794274,-4.48242 -4.65039,-4.48242 -10.061802,0 -10.617893,-1.79952 -9.990234,-32.37696 0.557257,-27.14883 0.668914,-27.89488 5.705078,-37.5625 6.991256,-13.42083 12.58388,-20.41797 23.394531,-20.41797 5.794216,0 9.241226,1.0228 11.748047,3.48047 7.463021,7.31653 8.175781,11.35246 8.175781,46.29102 0,18.21494 -0.453254,34.39921 -1.007813,35.96484 -0.566452,1.5992 -3.830956,3.33365 -7.449218,3.96094 -5.384625,0.93267 -6.439453,1.81471 -6.439453,5.37109 v 4.25196 H 97.666016 126.1875 v -4.48047 c 0,-3.78134 -0.81928,-4.48242 -4.24609,-4.48242 -2.336,0 -9.37957,-0.83834 -11.14063,-1.85938 -2.93854,-1.7037 -3.20117,-3.98293 -3.20117,-27.72656 0,-29.70565 2.67607,-40.98632 11.99609,-50.54297 7.49209,-7.68227 11.4384,-9.53711 20.28321,-9.53711 17.43836,0 19.03711,4.2043 19.03711,50.06055 0,33.64943 -0.19926,36.00566 -3.20118,37.74609 -1.76104,1.02104 -5.11126,1.85938 -7.44726,1.85938 -3.42684,0 -4.25,0.86518 -4.25,4.48242 v 4.48047 h 24.83203 24.83203 50.26367 v -7.81446 c -7.2957,-0.33789 -12.08999,-0.54311 -14.38672,-2.45703 -2.29681,-1.91418 -3.44732,-5.85469 -3.44726,-11.82226 v -78.5918 h 54.95117 v 76.73242 c -1.1e-4,6.75579 -1.01259,10.28255 -3.03906,12.42188 -2.0267,2.13936 -6.95504,3.37879 -14.79102,3.71679 v 7.81446 h 57.41992 2.60352 23.70508 26.30468 v -5.53907 c 0,-3.3027 -0.13543,-3.39257 -5.20703,-3.39257 -7.09118,0 -11.91223,-1.94649 -13.12304,-5.30079 -0.54834,-1.51914 -0.99805,-10.17676 -0.99805,-19.24218 v -16.48438 l 14.78711,0.5586 c 15.9532,0.60423 19.65809,1.72801 23.74414,7.19922 2.30978,3.09271 2.45432,3.74914 4.41797,20.17187 0.66346,5.54668 1.8547,11.39764 2.64844,13.00391 1.60626,3.25069 5.62035,7.39572 8.08789,8.3457 2.76646,1.06447 9.39066,0.84788 12.54687,-0.4082 2.82119,-1.12264 5.83863,-3.72846 8.52149,-7.22071 l -0.11524,8.24024 2.72266,-0.0762 c 1.7715,-0.0488 3.99193,-1.86844 6.35742,-5.21094 5.15558,-7.28572 8.8052,-7.39234 22.64844,-0.6582 18.31555,8.91 31.84751,7.95132 43.54492,-3.08399 9.06705,-8.55398 12.68219,-19.46076 9.92578,-29.9375 -2.99248,-11.374 -13.83254,-18.61317 -40.81055,-27.25 -25.70819,-8.23022 -30.55468,-11.73341 -30.55468,-22.08984 0,-6.42388 2.32245,-10.71999 8.25,-15.24805 4.07183,-3.11036 16.95764,-3.34275 23.58984,-0.42578 8.14133,3.58087 17.28764,13.72051 25.48438,28.25 2.15535,3.82057 4.09409,5.82617 5.63281,5.82617 2.24209,0 2.34765,-0.97753 2.34765,-22.07617 z m -188.14648,9.21484 c 6.60652,0.0953 12.11148,1.057 16.26758,3.39258 l 2.53125,2.16016 v 48.44336 c -2.94456,22.61979 5.45701,43.11133 -15.11133,43.11133 -10.75019,0 -14.04222,0.14523 -18.07422,-3.39649 -4.03204,-3.54145 -3.44738,-4.93086 -3.44726,-10.89844 v -67.61132 c -1.2e-4,-6.08009 1.08041,-10.02264 3.24218,-11.82422 2.29667,-1.80148 7.98528,-3.47223 14.5918,-3.37696 z m 52.92187,4.15625 c 0.69991,0.007 1.41531,0.027 2.21289,0.0664 h 19.75782 c 5.46765,3.12302 7.26641,6.55633 7.22461,15.05078 -0.042,8.80793 -2.23952,24.92267 -7.23243,27.7168 -2.77931,1.55546 -7.16516,2.03659 -21.99414,2.41015 l -18.52148,0.46875 v -27.59179 c 0,-18.14578 -0.62569,-17.93673 10.78516,-18.05469 3.69813,0 5.66784,-0.0886 7.76757,-0.0664 z m 200.38868,9.02735 3.83203,0.0566 -0.66016,52.59375 -39.26953,0.52344 z m -320.9336,20.86718 c -9.00998,5.7e-4 -16.31388,7.30448 -16.31445,16.31446 5.7e-4,9.01001 7.30447,16.31381 16.31445,16.31445 9.01002,-6.4e-4 16.31389,-7.30444 16.31446,-16.31445 -5.7e-4,-9.00998 -7.30444,-16.31389 -16.31446,-16.31446 z"
         style="fill:#000000;fill-opacity:1;stroke-width:1.1019392" />
    </g>
  </g>
</svg>
