<?xml version="1.0" encoding="UTF-8"?>
<!-- Generator: Adobe Illustrator 24.3.0, SVG Export Plug-In . SVG Version: 6.00 Build 0)  -->
<svg version="1.1" id="Layer_3" xmlns="http://www.w3.org/2000/svg" xmlns:xlink="http://www.w3.org/1999/xlink" x="0px" y="0px" viewBox="0 0 1000 1000" style="enable-background:new 0 0 1000 1000;" xml:space="preserve"><script xmlns="" id="__gaOptOutExtension"/>
<path d="M500,2C224.96,2,2,224.96,2,500s222.96,498,498,498s498-222.96,498-498S775.04,2,500,2z M500,933.66  C260.5,933.66,66.34,739.5,66.34,500c0-141.01,67.32-266.29,171.56-345.49l84.32,95.14L128.11,295.4l416.93,625.4l-22.72-445.36  L656.99,627.4l-9.62-535.35C814.32,152.37,933.66,312.24,933.66,500C933.66,739.5,739.5,933.66,500,933.66z"/>
</svg>