<?xml version="1.0" encoding="UTF-8"?>
<!-- Generator: Adobe Illustrator 25.2.1, SVG Export Plug-In . SVG Version: 6.00 Build 0)  -->
<svg version="1.1" id="Layer_2" xmlns="http://www.w3.org/2000/svg" xmlns:xlink="http://www.w3.org/1999/xlink" x="0px" y="0px" viewBox="0 0 1000 1000" style="enable-background:new 0 0 1000 1000;" xml:space="preserve"><script xmlns="" id="__gaOptOutExtension"/>
<g>
	<path d="M168.4,556.5l51.5-3.9c0,0,84.2-102.8,85-105.6c0.6-1.8,6.4-1.3,6.4-1.3l-56.7,99.2c0,0,38.8-1.1,38.7-6.4   c-0.1-2.1,35-81.6,34.8-87.6c-0.1-2.3,6.2-0.9,7.7-1.3c1.3-0.2-20.6,77.6-19.3,82.5c0.1,0.2,38.7-38.7,38.7-38.7l2.6-42.5   c0,0,1.7-2.3,5.2-3.9c2.6-1.2-1.3,39,2.6,37.4c5.4-2.4,18-20.6,18-20.6s-0.1-19.6,0-19.3c1.2-1.4,11.6,1.5,11.6,1.3   c2.6,3.9,3.9,9,1.3,14.2c0.7,1-83.7,112.1-83.7,112.1s68.7,3.3,69.6,3.9c0.6-1.4,74.1-122.4,87.1-155.4c0.6-1.5,0.8-2.8,0.6-4   c-0.7-2.8-21.2-19.9-25.9-24.8c-110.3,94.9-213.9-52.8-73.4-60.6l5.2-14.2c-1.5,0-372.4-181.8-374.9-181.7   c-0.1,0.3,8,55.7,12.9,55.4c7.1-0.6,277.6,114.7,278.3,114.7c-0.7,2.1-4.3,8.1-5.2,10.3c-78.6-29.6-152-67-266.7-104.4   c0.8,1,16.8,54.1,20.6,52.8c0.5-0.2,230.9,64.5,231.9,64.4c0.1,0.2,0,6.4-3.9,7.7c-0.8,0.6-218.1-48.4-220.3-47.7   c1.3,0.8,17.7,50.3,20.6,49c1.5-0.7,190.9,13.2,192,12.9c0.5,3.7,4.2,8.6,1.3,10.3c-3.6,2.1-183.8,0.6-185.5,2.6   c7.7,12.9,14.8,34.8,28.3,46.4c24.5-6.4,141.7-27.1,154.6-29.6c0.8,1.2,0.6,6.8,1.3,7.7c-0.7,0.8-142.2,43-143,43.8   c6.4,9,21.9,28.3,21.9,28.3S260,419,266.3,411c0.9-1.2,1.4,5.6,3.9,6.4c-0.6,1.4-112.3,62.6-112.1,64.4c0.3,0.1,29,24.4,30.9,24.5   c1-2.3,94.1-73.4,94.1-73.4s3.9,1.3,7.7,3.9C290.4,438.1,168.4,556.5,168.4,556.5z"/>
	<path d="M439,629.5c-2.5-4-5.1-8.1-7.8-12c-1.8-2.6-2.1-5.4-0.9-8.3c0.5-1.2,1-2.3,1.7-3.5c5.9-10.4,11.7-20.6,17.6-31   c0.5-0.7,0.7-1.5,1.3-2.6c-6.9-5.4-13.7-10.8-20.7-16.3c-0.9,1.8-1.6,3.2-2.3,4.7c-5.8,12.1-11.4,24.2-17.4,36.1   c-4,7.9-2.5,7.3-12.4,7c-8.5-0.2-17-0.5-25.6-0.8c-0.9,0-1.8,0.1-2.9,0.2c1.8,11.9,3.7,23.5,5.5,35c0.9-0.6,1.3-1.3,1.6-2   c2.5-4.5,5.2-9,7.7-13.5c0.7-1.3,1.6-2.3,3.2-2.3c3.6,0,7,0,10.9,0c-0.5,1-0.8,1.7-1.2,2.3c-6.7,12.2-13.2,24.5-19.9,36.7   c-0.8,1.4-1.5,2.9-2.2,4.4c-1.7,3.7-1,7.1,1.8,9.8c2,1.8,4.3,3.2,6.6,4.6c6.8,3.9,14.3,3,22.2,3.2c-1.3-1.4-2.1-2.5-3-3.5   c-2.2-2.1-4.5-4-6.6-6.3c-3.8-4.1-4-6.9-1.2-11.6c3.8-6.1,7.6-12.3,11.4-18.4c2.1-3.2,4.1-6.6,6.2-9.9c1.5,1.2,2.8,2.2,4.3,3.1   c1.7,1.2,2.4,2.5,1.6,4.7c-2.2,6.3-4.4,12.7-6.6,19c-0.2,0.7-0.3,1.3-0.7,2.6c1.5-1,2.5-1.6,3.5-2.3c7.6-5.4,15.1-10.8,22.6-16.2   c0.6-0.5,1.3-0.8,1.8-1.4c2.4-2.1,2.9-3.6,1.8-6.6C440.9,633,440.1,631.1,439,629.5z"/>
	<path d="M504.9,368.6c4.8,10.6,9.6,21.2,14.4,31.8c0.2,0.6,0.7,1.3,1.2,2.1c0.9-0.8,1.5-1.4,2.1-2c5.8-6.3,11.5-12.5,17.3-18.9   c4.1-4.5,8.3-8.9,12.4-13.2c2.1-2.2,3-4.7,2.4-7.7c-1.4-7.8-5.2-14.3-11.2-19.6c-1.2-0.9-2.5-1.6-3.7-2.4c-2.3,1.7-4.1,3.2-6.1,4.6   c-9.3,6.4-18.6,12.9-28,19.3c-2.3,1.6-2.4,1.8-1.4,4.5C504.5,367.5,504.7,368.1,504.9,368.6z"/>
	<path d="M438.2,361.2c0.6-1.4,1.2-2.8,1.8-4.1c5.9-11.9,13.1-22.1,26.8-25.7c4.1-1,4.7-2.8,3.7-7.5c-4.6-0.3-9.2-0.8-13.8-1.2   c-12-0.8-23.8-1.4-35.8-2.2c-6.1-0.3-12.2-0.7-18.4-1.2c-1.6-0.1-2.5,0.5-3.2,2c-2.1,4.4-4.3,8.7-6.3,13.1c-0.2,0.5-0.2,1-0.5,1.6   c15,8.5,29.8,17,44.9,25.6C438,361.5,438.2,361.4,438.2,361.2z M417.1,340.2c-3,0-6-2.8-6.1-5.5c-0.1-2.8,2.5-5.8,5.1-5.6   c3.1,0,6.6,3.1,6.4,5.6S419.6,340.2,417.1,340.2z"/>
	<path d="M463.5,341.3c-9.1,4.6-18,15.5-20.6,25.3c3,4.5,30,36.8,32,38.2c2.4-3.8,15.8-38.2,16.2-41.6c-0.1-0.1-0.2-0.3-0.3-0.5   c-7.7-6.2-15.4-12.5-23.1-18.8C466.2,343,464.7,342.2,463.5,341.3z"/>
	<path d="M528.9,328.4c2,0.5,3.9,1.2,6,1.4c5.4,0.7,9.8,3.3,13.5,7.1c2.9,2.9,5.4,6.1,7.9,9.3c2.2,2.9,3.3,6.2,3.7,9.8   c0.5,4,1.3,8.1,2,12.1c6.6-0.8,9.4-2.8,11.7-8.3c1.7-4.1,3.9-7.9,6.8-11.4c3.3-4,7.1-7.1,12.2-8.6c1.5-0.5,3-0.5,4.4-1   c0.7-0.2,1.5-1.2,1.5-1.6c0-3.7-0.3-7.3-0.6-10.8c-9.4-1.5-67.3-6-70.1-5.3c-0.2,1.4-0.6,2.9-0.8,4.4   C526.8,327,527.4,327.9,528.9,328.4z"/>
	<path d="M581.8,356.9c-0.5,0.5-0.9,1-1.6,2c7.6,0.9,14.7,1.8,21.8,2.8c2.8,0.3,2.8,0.3,3.2,3c0.9,4.6,2.1,9.2,4.5,14.3   c5.1-7.6,10.5-14.2,13.8-22c0.2-0.7,0.5-1.4,0.6-2.2c0.5-3.6-0.6-5.2-4-6.2c-4.1-1.2-8.3-2.4-12.4-3.5c-2.4-0.6-4.8-1-7.3-1.6   c-1.6-0.3-2.9,0.1-4.1,1.2C591.5,348.8,586.6,352.8,581.8,356.9z"/>
	<path d="M395.8,362c4.9-2.2,9.8-4.6,14.6-6.9c0.9-0.5,1.8-0.9,3.2-1.7c-6.1-3.2-11.7-6.1-17.3-9.2c-1.2-0.7-2.1-0.1-3,0.3   c-6.8,3.1-13.5,6.1-20.3,9.2c-4.4,2.3-4.7,3.9-1.5,7.5c0.3,0.3,0.7,0.8,1.2,1.2c4.9,5.4,9.9,10.8,14.8,16.1   c0.3,0.3,0.8,0.7,1.4,1.2c0-2.4,0.2-4.5,0-6.6C388.4,367.4,390.9,364.2,395.8,362z"/>
	<path d="M553.8,614.5c-0.6-1.3-1-2.6-1.6-3.9c-6.1-13.2-12.3-26.4-18.4-39.6c-0.2-0.3-0.2-0.8-0.5-1.5c0.5-0.6,1-1.2,1.6-1.7   c8.1-7,16.1-13.9,24.3-21c4.8-4.1,5.1-4.9,2.8-10.7c-16.8-42.7-33.6-85.5-50.3-128.2c-4.1-10.5-8.2-20.8-12.3-31.3   c0-0.1-0.1-0.2-0.1-0.3l-0.7,0.3c-4.1,10.5-8.2,20.8-12.3,31.3c-16.8,42.7-33.6,85.5-50.3,128.2c-2.3,5.9-2.1,6.6,2.8,10.7   c8.2,6.9,16.2,13.9,24.3,21c0.6,0.6,1.2,1.2,1.6,1.7c-0.2,0.7-0.3,1-0.5,1.5c-6.1,13.2-12.3,26.4-18.4,39.6c-0.6,1.3-1,2.5-1.6,3.9   c-0.6,1.3-0.3,2.5,0.3,3.7c1,1.7,6.6,7.3,8.7,8.5c0.5-1,0.9-2,1.4-2.9c4.8-11.4,9.8-22.8,14.6-34.2c0.8-1.7,1.4-3.7,3.2-4.6   c3.1,1.6,3.3,2.3,2,6c-4.3,12.1-8.5,24.2-12.9,36.3c-0.9,2.6-0.9,5.1,0.9,7.3c2.4,2.9,4.8,5.8,7.1,8.6c2.2-0.5,2.4-2.2,3-3.7   c4.1-12,8.3-24.1,12.4-36c0.8-2.5,2-4.9,2.9-7.5c2.3,2.2,2.4,2.3,1.7,4.6c-1.2,4.6-2.3,9.2-3.7,13.7c-3,10.1-6,20.3-9,30.4   c-0.9,3.1-0.5,5.9,1.6,8.4c4,5.2,15.2,15.5,20,20v0.6c0.1-0.1,0.2-0.2,0.3-0.2c0.1,0.1,0.2,0.2,0.3,0.2v-0.6c4.7-4.5,16-14.8,20-20   c2.1-2.6,2.5-5.3,1.6-8.4c-3-10.1-6.1-20.3-9-30.4c-1.3-4.6-2.5-9.2-3.7-13.7c-0.6-2.3-0.6-2.4,1.7-4.6c1,2.5,2.1,4.9,2.9,7.5   c4.1,12,8.3,24.1,12.4,36c0.5,1.5,0.7,3.2,3,3.7c2.3-2.9,4.7-5.8,7.1-8.6c1.8-2.2,1.8-4.6,0.9-7.3c-4.4-12.1-8.6-24.2-12.9-36.3   c-1.3-3.7-1-4.4,2-6c2,0.9,2.5,2.8,3.2,4.6c4.9,11.4,9.8,22.8,14.6,34.2c0.5,1,0.9,2,1.4,2.9c2.2-1.4,7.7-6.8,8.7-8.5   C554.1,617.1,554.5,615.9,553.8,614.5z"/>
	<path d="M590.5,678.2c-0.9,0.9-1.8,2.1-3,3.5c7.9-0.2,15.4,0.7,22.2-3.2c2.3-1.4,4.6-2.8,6.6-4.6c2.9-2.6,3.6-6.1,1.8-9.8   c-0.7-1.5-1.4-2.9-2.2-4.4c-6.7-12.2-13.2-24.5-19.9-36.7c-0.3-0.7-0.7-1.3-1.2-2.3c4.3-0.1,7.7-0.1,11.3-0.1c1.6,0,2.5,1,3.2,2.3   c2.5,4.5,5.2,9,7.7,13.5c0.3,0.7,0.7,1.3,1.6,2c1.8-11.5,3.7-23.1,5.5-35c-1-0.1-2-0.2-2.9-0.2c-8.5,0.2-17,0.5-25.6,0.8   c-9.9,0.2-8.4,0.9-12.4-7c-6-12-11.6-24.1-17.4-36.1c-0.7-1.5-1.4-2.9-2.3-4.7c-7,5.5-13.8,10.9-20.7,16.3c0.6,1,0.8,1.8,1.3,2.6   c5.9,10.4,11.7,20.6,17.6,31c0.7,1.2,1.3,2.3,1.7,3.5c1.2,2.9,0.9,5.6-0.9,8.3c-2.6,3.9-5.3,7.9-7.8,12c-1,1.6-1.8,3.5-2.5,5.3   c-1,2.9-0.6,4.5,1.8,6.6c0.6,0.5,1.3,0.9,1.8,1.4c7.5,5.4,15.1,10.8,22.6,16.2c0.9,0.7,2,1.3,3.5,2.3c-0.3-1.3-0.5-2-0.7-2.6   c-2.2-6.3-4.3-12.7-6.6-19c-0.7-2.1-0.1-3.5,1.6-4.7c1.4-0.9,2.8-2.1,4.3-3.1c2.1,3.3,4.1,6.6,6.2,9.9c3.8,6.1,7.6,12.3,11.4,18.4   c2.9,4.7,2.8,7.5-1.2,11.6C595,674.1,592.7,676,590.5,678.2z"/>
	<polygon points="364.2,632.6 355.2,592.6 390,593.9 393.9,584.9 341.1,582.3 234.1,736.9 303.7,736.9 181.1,905.4 390.1,712.8    308.7,712.8  "/>
	<path d="M622.8,317.5l5.2,14.2c140.4,7.7,36.8,155.5-73.4,60.6c-4.7,4.9-25.2,22-25.9,24.8c-0.2,1.3,0,2.5,0.6,4   c13,33,86.6,154,87.1,155.4c0.9-0.6,69.6-3.9,69.6-3.9s-84.4-111.1-83.7-112.1c-2.6-5.2-1.3-10.3,1.3-14.2c0,0.2,10.4-2.7,11.6-1.3   c0.1-0.3,0,19.3,0,19.3s12.6,18.2,18,20.6c3.9,1.7-0.1-38.6,2.6-37.4c3.5,1.6,5.2,3.9,5.2,3.9l2.6,42.5c0,0,38.6,38.9,38.7,38.7   c1.3-4.8-20.6-82.7-19.3-82.5c1.5,0.3,7.8-1,7.7,1.3c-0.2,6,34.9,85.5,34.8,87.6c-0.1,5.3,38.7,6.4,38.7,6.4l-56.7-99.2   c0,0,5.9-0.6,6.4,1.3c0.8,2.9,85,105.6,85,105.6l51.5,3.9c0,0-122.1-118.4-122.4-119.8c3.8-2.5,7.7-3.9,7.7-3.9s93,71.1,94.1,73.4   c2-0.1,30.6-24.4,30.9-24.5c0.2-1.8-111.5-63-112.1-64.4c2.4-0.8,2.9-7.6,3.9-6.4c6.3,8.1,126.3,49,126.3,49s15.5-19.3,21.9-28.3   c-0.8-0.8-142.3-43-143-43.8c0.7-0.9,0.5-6.6,1.3-7.7c12.9,2.6,130.1,23.2,154.6,29.6c13.6-11.6,20.6-33.5,28.3-46.4   c-1.7-2-182-0.5-185.5-2.6c-2.9-1.7,0.8-6.6,1.3-10.3c1,0.3,190.5-13.6,192-12.9c2.9,1.4,19.3-48.2,20.6-49   c-2.2-0.7-219.5,48.2-220.3,47.7c-3.9-1.3-4-7.5-3.9-7.7c1,0.1,231.4-64.6,231.9-64.4c3.8,1.3,19.8-51.8,20.6-52.8   c-114.7,37.4-188.1,74.7-266.7,104.4c-0.8-2.2-4.5-8.2-5.2-10.3c0.7,0,271.2-115.2,278.3-114.7c4.8,0.3,13-55.1,12.9-55.4   C995.2,135.7,624.3,317.5,622.8,317.5z"/>
	<polygon points="764.5,737.5 657.6,582.9 604.8,585.5 608.7,594.5 643.4,593.2 634.4,633.1 689.9,713.4 608.5,713.4 817.6,906    695,737.5  "/>
</g>
</svg>