<?xml version="1.0" encoding="UTF-8"?>
<!-- Generator: Adobe Illustrator 24.0.1, SVG Export Plug-In . SVG Version: 6.00 Build 0)  -->
<svg version="1.1" id="Layer_1" xmlns="http://www.w3.org/2000/svg" xmlns:xlink="http://www.w3.org/1999/xlink" x="0px" y="0px" viewBox="0 0 1000 1000" style="enable-background:new 0 0 1000 1000;" xml:space="preserve"><script xmlns="" id="__gaOptOutExtension"/>
<style type="text/css">
	.st0{fill:#010101;}
</style>
<g>
	<path class="st0" d="M532.75,743.47L548,567.12c-13.55,1.39-31.57,1.85-47.74,1.85c-16.17,0-34.19-0.31-47.74-1.85l15.25,176.35   l-114.89-38.04L500.41,877l147.24-171.57L532.75,743.47z"/>
	<path class="st0" d="M519.05,129.42c-6.16,0.46-12.48,0.77-18.64,0.77s-12.48-0.31-18.64-0.77c-15.25-1.23-48.05-5.08-49.75-5.08   c0.62,7.7,3.54,47.44,4.31,57.76c23.56-2.62,45.13-3.7,64.07-3.85c18.94,0.15,40.35,1.08,64.07,3.85   c0.77-10.32,3.7-50.05,4.31-57.76C567.1,124.33,534.29,128.18,519.05,129.42z"/>
	<path class="st0" d="M987.09,408.34C783.03,269.26,630.55,198.26,500.41,198.26s-282.77,71-486.84,210.07   c78.39,43.89,236.1,132.3,236.1,132.3s-28.18-45.59-41.58-67.3c97.49,52.21,194.98,78.24,292.32,77.93   c97.34,0.15,194.83-25.87,292.32-77.93c-13.4,21.72-41.58,67.3-41.58,67.3S908.85,452.23,987.09,408.34z M500.41,509.06   c-82.4,0-253.2-35.73-315.11-110.74c55.91-73,174.34-129.99,261.82-151.4C432,324,454,399,499.95,480.41   c0.15-0.15,0.31-0.46,0.46-0.92c0.31,0.46,0.46,0.77,0.46,0.92C549,395,567,323,553.7,246.93   c87.33,21.41,205.92,78.39,261.82,151.4C753.61,473.33,582.65,509.06,500.41,509.06z"/>
</g>
</svg>