<?xml version="1.0" encoding="UTF-8"?>
<!-- Generator: Adobe Illustrator 25.1.0, SVG Export Plug-In . SVG Version: 6.00 Build 0)  -->
<svg version="1.1" id="Layer_3_copy" xmlns="http://www.w3.org/2000/svg" xmlns:xlink="http://www.w3.org/1999/xlink" x="0px" y="0px" viewBox="0 0 1000 1000" style="enable-background:new 0 0 1000 1000;" xml:space="preserve"><script xmlns="" id="__gaOptOutExtension"/>
<g>
	<path d="M265.01,211.9c35.61,0,66.53,4.97,91.89,14.78c39.69,15.35,89.77,57.92,148.84,126.53c39.59,45.98,70.19,88.88,75.67,96.65   c49.63,38.61,85.17,70.29,111.75,99.65l1.38,1.53l0.65,1.96l12,35.99c4.17,4.67,26.82,16.44,38.34,20.41   c13.16,4.54,53.83,43.31,76.37,66.69c13.8,14.31,29.03,31.04,41.44,47.01c78.86-74.49,128.08-180.03,128.08-297.07   c0-225.67-182.94-408.61-408.61-408.61c-147.64,0-276.98,78.31-348.78,195.65c10.07-0.74,20.44-1.17,30.96-1.17H265.01z"/>
	<path d="M771.78,719.3c14.72,8.59,45.4,61.35,106.75,49.9c-4.91-35.18-119.56-144.78-136.2-150.52   c-10.38-3.58-41.72-18.41-44.17-25.77c-2.45-7.36-12.27-36.81-12.27-36.81c-29.48-32.55-68.42-65.81-111.66-99.39   c0,0-128.84-185.29-220.87-220.87s-242.96,3.68-293.27,34.36S-7.4,381.85,25.73,435.85c-3.62,20.63,13.84,49.29,29.86,44.17   c0,0-24.95,36.81-22.5,46.63c2.45,9.82,15.95,52.76,15.95,52.76c5.52,26.67,63.16,62.15,131.3,99.39   c65.37-31.57,61.35,1.23,35.58,61.35c2.45,17.18,138.66,112.89,150.93,114.12s56.44,18.41,53.99,53.99   c15.04,9.67,113,67.62,103.33,73.62c38.53,1.88,86.87-19.45,153.12-62.58c-39.58-0.69-68.49-6.97-71.17-27   c-49.56,8.03-68.21-11.46-73.62-53.99c-17.76-7.43-20.46-20.28-35.58-42.95c-68.15-5.62-61.85-39.44-67.49-57.67   c-31.9-7.36-56.44-28.22-56.44-62.58l-13.5-14.72c88.35-88.35,33.13-141.11-93.26-122.71c122.71-67.49,211.41,31.19,121.48,120.25   c40.28,7.26,56.65,30.13,56.44,63.81c25.51-8.29,37.35,2.53,42.95,22.09c37.22-9.64,60.82-0.43,66.26,45.4   c45.56-5.45,64.8,15.39,61.35,58.9c53.8-5.81,66.75,16.01,53.99,55.22h30.68c-10.9,23.9-26.18,42.26-22.09,71.17   c53.99,27,195.1-82.21,201.24-148.47c-2.45-24.54-28.22-40.49-28.22-40.49c-6.54-4.93-32.64-1.52-31.9,6.14   c-19.63,15.95-103.07-112.89-131.3-120.25c1.23-11.04-7.69-16.82-6.14-20.86C719.31,681.27,749.77,710.47,771.78,719.3z    M636.8,601.5c0,7.36-84.67,8.59-131.3-17.18c-7.36-4.91-22.09-18.41-30.68-40.49c-8.59-22.09,9.82-89.58,9.82-89.58   c-6.14-22.09,19.63-30.68,25.77-8.59C519.01,483.7,646.62,589.23,636.8,601.5z"/>
</g>
</svg>