<?xml version="1.0" encoding="UTF-8"?>
<!-- Generator: Adobe Illustrator 24.2.1, SVG Export Plug-In . SVG Version: 6.00 Build 0)  -->
<svg version="1.1" id="Layer_2_copy" xmlns="http://www.w3.org/2000/svg" xmlns:xlink="http://www.w3.org/1999/xlink" x="0px" y="0px" viewBox="0 0 1000 1000" style="enable-background:new 0 0 1000 1000;" xml:space="preserve"><script xmlns="" id="__gaOptOutExtension"/>
<g>
	<polygon points="754.32,738.68 667.82,821.9 502.47,855.84 332.75,824.09 244.06,738.68 178.36,805.47 330.56,960.96 500.28,996    674.39,959.87 821.12,805.47  "/>
	<path d="M323.99,211.99l27.37,17.52l48.18-21.9c1.79-6.91,7.22-18.68,4.38-48.18l-20.8-43.8c0,0,4.38-37.23,2.19-41.61   c-2.19-4.38-50.37-31.75-50.37-31.75c-18.78,12.09-39.76,23.13-63.51,32.85l-3.28,65.7c0,0,22.99,12.04,30.66,19.71   C306.47,168.19,323.99,211.99,323.99,211.99z"/>
	<path d="M436.95,100.6c4.22,9.98,6.17,71.39,6.17,71.39l18.78,26.53l52.88-2.17c10.46-14.05,17.82-28.39,22.18-43l-5-62.64   c0,0,17.98-33.71,17.6-38.59S514.91,4.61,514.91,4.61c-21.95,4.14-45.54,6.48-71.2,6.55l-26.64,56.29   C417.07,67.45,432.73,90.61,436.95,100.6z"/>
	<path d="M596.64,94.83c-0.36,9.69-17.82,71.68-17.82,71.68l5.18,28.37l43.7,16.58c13.8-7.94,22.29-20.7,31.35-31.22l18.96-37.32   c0,0,29.87-27.51,31.41-31.67c1.54-4.15-4.38-51.46-4.38-51.46c-19.71-6.57-51.43-22.9-72.27-31.75l-38.32,35.04   C594.45,63.07,597,85.14,596.64,94.83z"/>
	<path d="M679.86,227.32l-9.85,24.09l20.8,30.66c9.5,1.04,18.17,3.21,26.44,3.29c0.15,0,0.3,0.01,0.45,0.01   c0.11,0,0.22-0.01,0.33-0.01c3.01-0.02,5.98-0.33,8.91-1.1l30.66-20.8c0,0,16.69,3.33,19.71,1.1c3.02-2.24,21.03-49.35,21.03-49.35   c-11.4-13.31-22.29-28.46-32.53-45.95l-43.24,5.51c0,0-9.43,24.83-14.23,31.75C703.53,213.44,679.86,227.32,679.86,227.32z"/>
	<polygon points="311.95,587.57 283.48,561.29 273.62,566.77 213.4,561.29 290.05,649.98 333.85,587.57  "/>
	<polygon points="271.43,549.25 283.48,537.2 287.86,479.17 241.87,493.4 189.31,437.56 172.88,499.97 213.4,539.39  "/>
	<path d="M315.23,457.27l13.14-8.76l16.42-21.9l10.95-28.47L349.18,362l-22.99-22.99l-38.32,5.47l-98.55,63.51v5.47   c0,0,55.84,65.7,56.94,67.89L315.23,457.27z"/>
	<path d="M283.11,337.12l1.61-1.04l1.9-0.27l38.32-5.47l4.34-0.62l3.1,3.1l22.99,22.99l1.93,1.93l0.49,2.69l6.57,36.13l0.44,2.42   l-0.88,2.29l-10.95,28.47l-0.44,1.14l-0.73,0.97l-11.33,15.11c19.29,1.5,42.92,4.63,69,11.27c21.81,5.49,40.39,12.17,55.62,18.6   c3.76,1.61,4.59,5.66,1.77,8.28c-7.51,6.85-18.37,14.96-33.08,21.64c-35.38,16.14-70.44,13.86-84.63,12.26   c-0.94-0.08-1.88-0.34-2.61-0.76c-27.2-13.95-39.61-34.73-36.03-50.06l-13.4,4.68l-0.52,6.95l-4.38,58.03l-0.24,3.24l-2.3,2.3   l-4.45,4.45c2.7,3.8,5.39,7.31,7.97,10.49l21.44,19.79c0.82,0.27,1.67,0.5,2.57,0.69h16.66h5.71c23.13-2.91,48.09-11.37,41.64-2.49   c-7.3,10.14-14.09,86.81-14.09,86.81h21.43l6.65-26.71l16.28-0.17l3.13,26.88h28.32l3.13-25.61l15.93-1.27l1.57,26.88h26.92   l1.25-27.55h21.81l1.25,27.55h26.92l1.57-26.88l15.93,1.27l3.13,25.61h28.32l3.13-26.88l16.28,0.17l6.65,26.71h21.43   c0,0-6.78-76.66-14.09-86.81c-9.71-13.35,51.66,12.42,70.96-0.25c10.75-7.1,89.12-92.81,31.41-146.9   c-11.83-11.11,33.88-80.66,29.84-154.2l-24.38,16.54l-1.24,0.84l-1.45,0.38c-3.58,0.94-7.33,1.4-11.47,1.4   c-5.92,0-11.88-0.96-17.64-1.89c-3.32-0.54-6.76-1.09-10.2-1.46l-4.03-0.44l-2.27-3.35l-20.8-30.66l-2.64-3.89l1.78-4.35   l9.85-24.09l1.12-2.74l2.55-1.5c10.62-6.23,23.49-15.05,25.7-18.24c2.52-3.64,7.54-15.4,11.18-24.57   c-8.99-9.3-18.87-17.41-29.33-24.49l-16.12,31.73l-0.48,0.95l-0.69,0.8c-1.79,2.08-3.56,4.25-5.43,6.54   c-7.42,9.11-15.83,19.44-28.19,26.55l-3.6,2.07l-3.88-1.47l-43.7-16.58l-4.62-1.75l-0.89-4.86l-5.18-28.37l-0.36-2l0.55-1.95   c5.02-17.83,10.19-37.17,13.6-51.06c-15-3.09-29.26-5.08-41.96-6.34l3.66,45.91l0.13,1.63l-0.47,1.57   c-4.65,15.59-12.57,30.97-23.55,45.72l-2.49,3.35l-4.17,0.17l-52.88,2.17l-4.76,0.2l-2.75-3.89l-18.78-26.53l-1.52-2.15l-0.08-2.63   c-0.71-22.36-2.31-48.17-4.03-60.96c-11.46,2.07-23.46,4.77-35.63,8.29l17.14,36.07l0.66,1.39l0.15,1.53   c2.62,27.19-1.4,40.48-3.81,48.42c-0.33,1.09-0.61,2.03-0.81,2.8l-1.05,4.04l-3.8,1.73l-48.18,21.9l-4.34,1.97l-4.01-2.57   l-27.37-17.52l-2.37-1.52l-1.04-2.61c-6.09-15.22-13.92-32.72-19.11-42.17c-15.09,14.66-27.92,32.43-37.02,53.99   c-18.09,42.76-10.9,88.2-0.25,125.28L283.11,337.12z M541.07,476.84c15.24-6.42,33.81-13.1,55.62-18.6   c27.03-6.85,51.34-9.97,70.86-11.41c0.94-0.08,1.88,0,2.82,0.34c16.17,4.82,21.39,12.68,22.85,14.96   c9.08,15.47-2.71,40.32-33.71,56.12c-0.83,0.42-1.67,0.68-2.61,0.76c-14.19,1.61-49.15,3.89-84.63-12.26   c-14.71-6.68-25.57-14.79-33.08-21.64C536.37,482.5,537.21,478.44,541.07,476.84z M492.96,519.52c3.13-2.54,7.2-4.73,12-6.85   c4.7,2.11,8.87,4.31,12,6.85c24.31,19.44,25.05,46.32,24,59.34c-0.1,1.77-2.82,2.45-4.17,1.1c-3.34-3.47-7.93-7.44-14.09-11.07   c-6.57-3.89-12.84-6.34-17.74-7.78c-4.8,1.44-11.17,3.89-17.74,7.78c-6.16,3.63-10.75,7.61-14.09,11.07   c-1.36,1.35-4.07,0.68-4.17-1.1C467.91,565.75,468.65,538.96,492.96,519.52z"/>
	<path d="M500.28,818.61l159.87-33.94l68.98-66.79c0,0-36.13-44.89-40.51-53.65s-24.09-72.27-24.09-72.27l-8.4-5.74   c-4.75-0.8-9.38-1.7-13.59-2.53c-2.33-0.46-4.7-0.92-6.9-1.33c1.98,7.45,4.24,19.57,6.86,40.07c2.6,20.37,4.32,39.74,4.34,39.94   l0.84,9.53H357.54l0.84-9.53c0.02-0.19,1.74-19.57,4.34-39.94c2.56-20.05,4.78-32.07,6.73-39.56l-2.66,0.05   c-1.33,0.26-2.68,0.52-4.03,0.79c-3.9,0.77-8.14,1.6-12.51,2.36c-23.99,61.55-55.1,98.4-78.82,131.83l70.08,73.36L500.28,818.61z"/>
</g>
</svg>