<?xml version="1.0" encoding="UTF-8"?>
<!-- Generator: Adobe Illustrator 25.1.0, SVG Export Plug-In . SVG Version: 6.00 Build 0)  -->
<svg version="1.1" id="Layer_3" xmlns="http://www.w3.org/2000/svg" xmlns:xlink="http://www.w3.org/1999/xlink" x="0px" y="0px" viewBox="0 0 1000 1000" style="enable-background:new 0 0 1000 1000;" xml:space="preserve"><script xmlns="" id="__gaOptOutExtension"/>
<g>
	<path d="M310.81,669.82c40.02-28.17,95.83-37.16,159.95-36.4c-7.01-33.14-15.42-60.07-27.58-82.73c8.6-1.68,18.4-3.61,28.68-5.62   c-10.84-34.07-28.93-71.14-51.84-110.2c9.25-0.27,22.65-0.67,37.5-1.1c-10.57-62.56-37.93-124.64-76.11-186.42   c0,0-3.31,30.89-9.93,27.58s-22.06-29.78-22.06-29.78c-0.64,9.54-5.23,13.66-18.75,5.52c-20.09-34.38-61.05-52.53-109.2-65.08   c80.52,155.53-4.41,210.69-91.56,290.11c-3.25,11.62-0.31,20.26,7.72,26.47c-37.09,24-66.26,51.16-87.14,81.63L3.27,632.05   c-1.25,1.27-1,3.37,0.5,4.33l21.35,13.59c31.41,2.16,66.42,14.78,102.51,30.51c0.93,0.41,1.83-0.64,1.28-1.5   c-10.65-16.39-1.22-26.83,28.58-31.22c-8.73-14.76,2.21-26.47,26.47-22.06c-38.61-43.02,93.76,4.41,19.97,8.82   c15.28,14.26,8.15,23.21-27.69,25.37c19.89,14.64,1.35,20.73-33.39,24c-0.88,0.08-1.11,1.26-0.32,1.66l88.87,46.04   c-13.52-24.92,5.52-38.61,45.23-36.4C262.28,677.54,273.31,654.38,310.81,669.82z M199.03,501.05l-29.41,1.1l40.81-40.81   L199.03,501.05z"/>
	<path d="M670.42,679.75c-45.23-30.89-103.64-31.82-161.05-31.99c3.9-30.29,10.82-61.06,22.06-87.14l-25.37-6.67   c12.63-37.94,27.59-72.7,46.33-106.94l-28.68-1.1c1.1-48.54,24.27-101.48,50.74-156.64c-22.92-17.96-58.05-25.81-78.98-26l0-0.11   c-20.88,0.08-52.37,6.92-75.45,25c26.47,55.15,49.64,108.1,50.74,156.64l-28.68,1.1c18.74,34.24,33.7,69,46.33,106.94l-25.37,6.67   c11.25,26.09,18.16,56.86,22.06,87.14c-57.41,0.17-115.82,1.1-161.05,31.99c-8.79,28.49-25.86,59.25-48.54,91.56   c31.14-2.41,59.84-15.97,86.54-38.61c-2.69,22.83-13.17,47.53-28.34,73.35c33.8-9.23,61.09-20.69,80.79-34.75   c0.11,19.29-6.35,40.53-16.55,62.88c33.29-15.24,57.39-33.61,73.91-54.58l25.37,78.83l0,1.12l25.37-78.85   c16.51,20.96,40.61,39.34,73.91,54.58c-10.2-22.35-16.65-43.59-16.55-62.88c19.7,14.06,46.99,25.52,80.79,34.75   c-15.17-25.82-25.65-50.52-28.34-73.35c26.7,22.64,55.4,36.2,86.54,38.61C696.28,739,679.21,708.24,670.42,679.75z"/>
	<path d="M991.2,633.16l-47.22-48.27c-20.88-30.47-50.06-57.63-87.14-81.63c8.03-6.21,10.97-14.86,7.72-26.47   C777.42,397.36,692.48,342.21,773,186.68c-48.16,12.55-89.12,30.71-109.2,65.08c-13.53,8.15-18.11,4.02-18.75-5.52   c0,0-15.44,26.47-22.06,29.78s-9.93-27.58-9.93-27.58c-38.19,61.78-65.55,123.86-76.11,186.42c14.86,0.44,28.25,0.83,37.5,1.1   c-22.92,39.06-41,76.13-51.84,110.2c10.28,2.01,20.08,3.94,28.68,5.62c-12.15,22.66-20.57,49.59-27.58,82.73   c64.12-0.76,119.93,8.23,159.95,36.4c37.5-15.44,48.54,7.72,34.2,25.37c39.71-2.21,58.75,11.48,45.23,36.4l88.87-46.04   c0.78-0.4,0.55-1.58-0.32-1.66c-34.75-3.27-53.28-9.36-33.39-24c-35.84-2.16-42.97-11.11-27.69-25.37   c-73.79-4.41,58.58-51.84,19.97-8.82c24.27-4.41,35.2,7.3,26.47,22.06c29.8,4.39,39.22,14.82,28.58,31.22   c-0.55,0.85,0.34,1.9,1.28,1.49c36.09-15.73,71.11-28.35,102.51-30.51l21.35-13.59C992.2,636.53,992.45,634.43,991.2,633.16z    M795.44,502.16l-11.4-39.71l40.81,40.81L795.44,502.16z"/>
</g>
</svg>