<?xml version="1.0" encoding="UTF-8"?>
<!-- Generator: Adobe Illustrator 25.2.0, SVG Export Plug-In . SVG Version: 6.00 Build 0)  -->
<svg version="1.1" id="Layer_3" xmlns="http://www.w3.org/2000/svg" xmlns:xlink="http://www.w3.org/1999/xlink" x="0px" y="0px" viewBox="0 0 1000 1000" style="enable-background:new 0 0 1000 1000;" xml:space="preserve"><script xmlns="" id="__gaOptOutExtension"/>
<g>
	<path d="M880,695l-32,15l-73-59l17-2l7-16l19,6l22-20c14.14,12.75,20,32,31,41c16.88-6.07,29.09-13.66,36-23l-9-9   c-36-17,10-47,19,5c17.71-3.34,47.19-13.53,79-37c-6-9-52.81-27.85-62-39c3.81-4.75,6.38-10.13,8-16c-13-23-54-47-57-59   c1.67-15.22,20-20,42-24c-7.12-26.09-76-26-104-8c-12.6-20.89-28.18-38.97-47-54c0.61,8.59-2.71,15.82-9,22   c-13.39-14.23-26.96-24.73-41-25c2.3,10.38,2.51,19.51,0,27c-11.26-10.27-33.68-16.49-53-22c2.91,7.22,7.19,13.57,2,21   c1.96-2.53-55.66-23.22-58-17c-0.82,2.17,6.39,18.47,4,18c-12.84-4.71-25.22-6.34-37-4c1.41,7.99,1,15.64-1,23   c-13.28-10.13-32.71-15.85-49-17c4.43,1.32,9,27,5,28c-2.3-1.75-42-9-50-7l6,26c-20.54,8.49-42.93,15.1-70,17   c-72.6-20.22-97-13-183,35c-3,0-40.29-16.83-45-16c-5.3,0.94-7,15-7,15c-5.42-10.04-13.48-17.33-25-21c0,0-5.11,12.89-9,12   c-1.82-0.42,0.52-12.63,0-13c4-7,20-18,30-19c11.36,0.11,13.45,1.41,68-4c44.43-14.2,53-41,45-76c-14.56,15.64-28.68,25.34-42,24   c-7.76-2.14-7.49-10.89-10-22c-21,5-21,21-40,23c-4.74-3.53-5.16-9.19-6-18c-12.64,4.21-29.55,12.9-40.89,23.32   C153.11,427.43,149,417,149,404c-12,2-24,31-41,33c-3.76,2.15-11.46-20.58-10.23-22.81C87.2,422.81,76.89,433.93,67,449   c-4.41-2.01-7.59-5.91-10-11c-6.69-1.36-18.33,34.71-13,39c2.46,1.98-24,0-24,0c0.47,14.02,9.84,29.75,22,46l-22,1.2   c10.85,26.5,29.03,43.44,53,52.8l-17,16l58,15l4,18c7.09,0.85,13.7,0.57,19.97-0.58C127.25,660.21,112.67,685.48,91,706l26,64   l104.6-6c-2.79-12.09-7.59-23.13-14.6-33c-16.69-7.49-33.36-13.56-50-18c0.2-9.49,4-16.75,11-22c38.13,12.98,77.33,26.99,99,24   l-9,24l29,4l-8,13l15,8l136-2c0,0,9-3,9-9s-17-11-17-11c-10.66-2.61-24.71-13.02-39-24c0,0-22,2-25,1c-2-3,4-11,4-11   c36.55-17.24,71.12-34.7,98-53c10.2,3.86,11.07,9.97,4,18c11.49,2.04,20.49,5.37,27,10l-9.2,10.52c-1.88,2.15-0.47,5.54,2.39,5.68   c43.04,2.11,81.26,20.42,111.81,56.8l101.53,1.86c3.4,0.06,5.65-3.53,4.09-6.55C690.41,729.55,677.41,709.34,662,701l-33,16l-30-35   c3.98-5.16,17.37-5.95,33-5.7c2.64,3.03-0.17,7.71-4,12.7l52,3.2v7.8l26,0.2V719l28,0.4v8.6l28-1l4,14l40-10l22,18   c45.7,6.51,100.3,16.49,110,9C921.76,734.31,902.71,713.06,880,695z M904,543l-7.5,4.15L889,533L904,543z M265,606   c-40.45,32.75-77.2,34.87-120.95,18.01c13.28-3.73,25.12-11.29,36.95-20.01l8,19c37.12-8.82,38-40,76.6-41.47   C268.87,588.87,268.73,597.45,265,606z"/>
	<path d="M97.77,414.19c0.08-0.06,0.15-0.13,0.23-0.19C97.9,414.01,97.83,414.08,97.77,414.19z"/>
</g>
</svg>