<?xml version="1.0" encoding="UTF-8"?>
<!-- Generator: Adobe Illustrator 25.0.1, SVG Export Plug-In . SVG Version: 6.00 Build 0)  -->
<svg version="1.1" id="Layer_3" xmlns="http://www.w3.org/2000/svg" xmlns:xlink="http://www.w3.org/1999/xlink" x="0px" y="0px" viewBox="0 0 1000 1000" style="enable-background:new 0 0 1000 1000;" xml:space="preserve"><script xmlns="" id="__gaOptOutExtension"/>
<path d="M990.4,805.64c4.57-62.19-17.35-122.98-56.62-182.85c9.8-0.73,24.07,10.2,38.55,21.68  c-10.53-51.93-35.12-103.34-74.69-154.19c9.65-3.7,26.71,2.44,44.57,9.64c-7.87-52.63-42.39-97.24-99.99-134.92  c14.93,0.3,50.75,6.31,85.53,12.05c-59.48-68.48-138.42-97.71-233.7-93.96c4.87-9.44,24.03-19.74,44.57-30.12  c-65.46-19.32-125.09-13.68-179.49,14.46c-4.06-15.92,1.3-32.51,10.84-49.39c-61.02-0.26-107.18,16.55-128.9,61.44  c-33.3-81.13-73.28-127.42-120.46-136.13l-4.82,93.96l-86.73,95.17l10.84,26.5l-69.46,184.31l-20.89,55.41l20.48,22.89l-19.27,21.68  l-16.87,96.37l-34.93,43.37c38.71,38.73,85.88,46.48,140.94,25.3l-15.66-33.73l43.37-2.41l-10.84-38.55l32.53-9.64L272.43,677  l89.14-6.02l14.46,20.48l-32.53,14.46l15.66,27.71L317,752.89l19.27,25.3l-37.34,21.68c8.55,16.96,49.35,21.54,104.8,20.48  c0,0,76.32-95.01,86.73-145.76c2.36-11.49-56.73-74.26-60.23-68.66c12.77-16.1,52.38-20.49,104.8-19.27l-37.34-50.6l60.23-42.16  l-36.14-50.6l50.6-37.34c-31.32-27.71-84.33-26.5-116.85-25.3c45.17-26.29,101.19-24.09,156.6,22.89l-59.03,43.37l36.14,53  l-55.41,40.96l50.6,77.1c-26.29-4.68-57.2-2.74-90.35,2.41c49.08,56.04,63.03,110.94-20.48,171.06  c18.54,11.13,37.63,15.37,57.82,6.02c2.06,50.93-18.07,132.51-66.26,127.69c-20.48-1.2-61.44-27.71-7.23-69.87  c-48.19-71.07-120.46,67.46-139.74,65.05c-75.89-31.32-6.02-72.28-6.02-72.28c-75.89-51.8-102.4,69.87-139.74,73.48  c-43.37-1.2-55.85-68.41-16.87-75.89C91.02,810.75,44.65,880.56,5,989h985.4c-0.95-72.62-19.51-141.84-51.8-208.4  C952.08,776.16,971,790.1,990.4,805.64z M213.4,610.74c-5.57-26.57,14.44-57.08,28.91-86.73c4.06,26.97,11.01,47.7,22.89,57.82  C239.41,600.77,222.15,610.41,213.4,610.74z"/>
</svg>