<?xml version="1.0" encoding="UTF-8"?>
<!-- Generator: Adobe Illustrator 25.2.1, SVG Export Plug-In . SVG Version: 6.00 Build 0)  -->
<svg version="1.1" id="Layer_3" xmlns="http://www.w3.org/2000/svg" xmlns:xlink="http://www.w3.org/1999/xlink" x="0px" y="0px" viewBox="0 0 1000 1000" style="enable-background:new 0 0 1000 1000;" xml:space="preserve"><script xmlns="" id="__gaOptOutExtension"/>
<g>
	<path d="M131.7,441.7c7.1-3.4,16.7-6.3,28.4-4.7c15.3,13.7,32.3,17.5,49.7,18.9c0,0-2.4,23.6-5.9,26s-27.2,1.2-27.2,1.2   s10.7,16.5,15.7,19.5c21,1.8,31.7-3,36.4-8.9c33.1,3.6,25.4-27.7,43.8-33.1c3.6,1.2,46.2,46.2,61.6,50.9c-3.1-8.3-2.6-17.5,0-27.2   c9.5,0,33.1,26,49.7,28.4c-5-11.9-9.5-22.2-8.3-33.1c11.5,7.9,25.6,13.7,42.8,17.2c-5.9-13.3-9.6-25.9-9.6-37.3   c6.1-4.9,13.8-6.9,22.5-7.1c0,0,22.5,16.5,27.2,33.1c-3.5,13-120.7,55.6-120.7,93.5c0,13.1,69.8,126.7,69.8,126.7   c-33.1,25.8-69.3,44-111.3,48.5c-4.9,0.8-10.6-23.6-13-27.2c-5.9-5.9-37.9-27.2-42.6-28.4c-40-3.4-45,1.2-43.8,24.9   c15.5-4.1,27.6-4.1,34.3,2.4l2.4,28.4c0,0,22.5,24.9,17.8,29.6c-4.3,4.3-27.2,0.8-29.5-0.8c-1.7,3.3-19.3,24.7-22.5,26.8   c-3.5,2.3-19.6,23-20.1,27.2c-1,8,19.3,26.7,22.5,22.5c-3-13.8-0.1-23.2,8.3-28.4c0,0,16.6,9.5,30.8,5.9c14.2-3.5,32-14.2,32-14.2   c-6,10.9-10.7,26-3.6,40.2c0,27.2,33.5,52.6,59.2,34.3c0,0-24.8-11.8-27.2-22.5c18.9-16.6,22.5-32,22.5-32   c-5.9-9.9-8.3-18.2-2.4-24.9c47.9-3,98.5-3.5,144.4,4.7c-4.5-13.7-12.7-24.5-23.7-33.1c20.3-0.5,40.8,2.1,61.6,7.1   c-1.1-8.6-6.7-15.1-16.7-19.7c14.6-0.1,28.5-0.3,41.6-0.4c0.5-4.6-1.1-8.1-4.7-10.7c9.6-2.3,19.9-0.6,30.8,3.6   c-28.4-39-47.6-81.4-32-129c0,0,36.7,102.9,60.4,113.6c3.1,1.3,50.9-2.4,50.9-2.4c1.2,36.7-9.4,98.2-26,101.8   c-20.1,1.2-34.3-27.2-56.8-13c-54.4,3.5-60.3,27.2-47.3,54.4c2.4,1,20.1-24.9,36.7-23.7c5.9,1.1,8.3,17.7,16.6,18.9   c2.4,4.7,17.8,8.3,17.8,8.3c0,4.7-24.9,14.2-29.6,41.4c-15.4,24.9-3.5,56.8,22.5,60.4c-6.4-0.5-4.5-36.1,8.3-37.9   c5.3-0.7,21.3-8.3,23.7-13c2.4-4.7,5.9-27.2,8.3-26c2.4,1.2,1.4,22.3,3.6,21.3c11.8,7.1,29.6,23.7,35.5,32   c8.3,7.1,42.6,1.2,42.6,1.2c-12-7.7-22.4-16-27.2-26c0,0,10.1-17.4,7.1-22.5c-2.4-4.1-8.3-24.9-8.3-30.8   c24.8-24.9,71-36.7,85.2-52.1c-19.3-2-38.6-4-40.2-17.8c5.2-24.1,24.9-51.1,55.6-80.5c-13.2,3.7-25.5,6.8-33.1,7.1   c17-14.8,28.2-34.7,36.7-56.8c-8.4,4.4-16.6,7.9-23.7,5.9c12.7-12.2,18.8-33.3,16.6-53.3c-11.2,15.9-26,27.2-40.2,33.1   c10.6-23.1,20.7-47.6,15.4-58c-60.4,48.6-123.1-17.7-16.6-33.1c-1-0.3,25.5,5.6,43.8,7.1c43.9-8.1,84-43.2,94.7-87.6l-26,13   c15.9-20.7,28.8-62.1,41.4-106.5c-7.9,3.7-15.6,5.6-22.5,2.4c11.8-18.4,20.8-41.2,28.4-66.3c-10.8,5.5-21.3,10.4-28.4,9.5   c11-30.4,17.5-58.8,16.6-84c-9.8,7.9-19.3,14.3-28.4,17.8c1.8-23.1-1-53.2-8.3-78.1c-7.8,12.1-17,22.4-28.4,29.6   c-5.4-23.3-15.8-45.4-32-66.3c-9.2,32.1-13.6,58.5-22.5,65.1c-4.6-9.9-10.3-17.8-18.9-19.9c3.6,33.2,8.4,68,0,85   c-2.4-6.8-6.1-10.1-11.2-9.9c-0.8,28.6-3.1,54.4-11.3,70.3c-6.8-1.6-13.5-3.2-20.1-4.7c0.8,18.5,8.3,44.8,17.8,73.4   c0,0-8.3,2.4-16.6,1.2c1.2,9.5,29.9,70.6,30.2,90c-16,22.6-35,23.7-39.7,3.6c0,0,0-35.5-9.5-62.7c-8.3-27.3-60.4-55.7-68.7-74.6   c-3.6-9.5,0.8-68.4,28.4-73.4c8.7,1,19.5,7.4,30.8,15.4c1.4-13.3,1.7-25.8,0-36.7l26,13c-0.6-13.6-4.1-27.9-9.5-42.6h20.1   c-3.8-21.7-12.5-41.2-24.9-59.2c4.7-2,11.6,2.5,18.9,8.3c3.2-18.3-8.3-39.4-26-61.6l24.9,1.2c-7.3-19.8-21.6-37.4-41.4-53.3   c5.2-4.4,16.1-4.5,28.4-3.6c-22.5-20.4-47.5-40.1-73.4-49.7c4.7-4.8,11.5-8.7,20.1-11.8c-23-7.6-51.1-12.7-81.7-16.6   c7.1-8.5,20.4-15.3,30.8-20.1c-39.1-7.6-78.2-3.5-103.2,13C414-8.1,383-6,326.7,24.9c0,0,65.1,15.4,54.4,45   c-2.4,9.5-43.8,59.2-43.8,59.2L348,148c-25.3,21.2-44.6,42.8-54.4,65.1c15.5,7.2,42.5,9.5,69.8,11.8c4.7-75.8,85.2-26.1,16.7,5.5   c7,10.2,18.1,17.5,31.8,22.9c0,0,34.4-39,46.4-52c2.5,5.9-16.8,49.6-36.9,65c-8.9,6.7-48.6,29.6-75.8,26   c-10.7,1.2-82.9-71-82.9-73.4c0-10.7,32-17.8,22.5-45c-1.2-18.9-11.9-36.7-37.9-43.8c3,0.3,8.3,27,1.2,29.6   c-5.6,2-4.8,21.3-9.5,21.3s-5.9-27.2-5.9-27.2c-8.3,0.7-41.5-30.8-46.2-30.8c-24.9-6-36.7,11.8-36.7,11.8c2.4-3.5,15.3-4.2,32,17.8   c0,26.1,11.8,42.6,18.9,53.3c-2.4,2.4-30.8,0-30.8,0c-10.5-2.7-16.5-10-23.7-20.1c-14.2,26-1.2,42.6,21.3,58c0,0,11.8,13,20.1,13   c11.8-1.1,26-15.3,35.5,3.6c2.4,4.8,7.1,82.9,7.1,82.9c7.3-8.5,17.6-14.5,29.6-18.9c-1.1,15.8,0.1,31.2,4.7,46.2   c5.2-7.4,11.3-12.8,18.9-15.4c-3,13-2.1,25.3,3.6,36.7c6.2-7.1,13.8-12.5,22.5-16.6c1.2,7.3,6.3,15.4,13,23.7   c0,0,5.9-46.2,36.7-43.8c3.6,0,23.7,4.8,23.7,23.7s-68.2,37.5-131.4,29.6c-3.6-41.4-16.2-43.2-22.5-40.2   c-7.3-4.6-20.2-20.6-18.9-20.1c-20.9-5.4-41.5-4.5-58,2.4c2-1.7,36.6,18.9,40.2,22.5c-0.7,3.6,4.7,33.1,4.7,33.1   C175.8,405.8,133.4,407.4,131.7,441.7z M402.2,131.6c-13,8.3-29.6,7.1-29.6,7.1c1.9-8,16.2-23.4,39.1-43.8   C411.7,94.9,414,119.8,402.2,131.6z"/>
	<path d="M222.3,783c0.2-0.4,0.2-0.5,0-0.4C222.1,782.7,222.1,782.9,222.3,783z"/>
</g>
</svg>