<?xml version="1.0" encoding="UTF-8" standalone="no"?>
<!-- Generator: Adobe Illustrator 23.0.4, SVG Export Plug-In  -->

<svg
   xmlns:dc="http://purl.org/dc/elements/1.1/"
   xmlns:cc="http://creativecommons.org/ns#"
   xmlns:rdf="http://www.w3.org/1999/02/22-rdf-syntax-ns#"
   xmlns:svg="http://www.w3.org/2000/svg"
   xmlns="http://www.w3.org/2000/svg"
   xmlns:sodipodi="http://sodipodi.sourceforge.net/DTD/sodipodi-0.dtd"
   xmlns:inkscape="http://www.inkscape.org/namespaces/inkscape"
   version="1.1"
   x="0px"
   y="0px"
   width="257.02899"
   height="257.02899"
   viewBox="0 0 257.029 257.02898"
   xml:space="preserve"
   id="svg9"
   sodipodi:docname="untamed_beasts.svg"
   inkscape:version="0.92.3 (2405546, 2018-03-11)"><metadata
   id="metadata13"><rdf:RDF><cc:Work
       rdf:about=""><dc:format>image/svg+xml</dc:format><dc:type
         rdf:resource="http://purl.org/dc/dcmitype/StillImage" /><dc:title></dc:title></cc:Work></rdf:RDF></metadata><sodipodi:namedview
   pagecolor="#ffffff"
   bordercolor="#666666"
   borderopacity="1"
   objecttolerance="10"
   gridtolerance="10"
   guidetolerance="10"
   inkscape:pageopacity="0"
   inkscape:pageshadow="2"
   inkscape:window-width="1920"
   inkscape:window-height="1017"
   id="namedview11"
   showgrid="false"
   inkscape:zoom="1.1049724"
   inkscape:cx="-149.7777"
   inkscape:cy="79.896754"
   inkscape:window-x="-8"
   inkscape:window-y="-8"
   inkscape:window-maximized="1"
   inkscape:current-layer="svg9"
   fit-margin-top="0"
   fit-margin-left="0"
   fit-margin-right="0"
   fit-margin-bottom="0" />
<defs
   id="defs2">
</defs>
<g
   id="gZ1w5I_2_"
   transform="translate(2.0522056e-4,24.335746)">
    <g
   id="g6">
        <path
   d="M 0,68.98 C 0.07,68.03 0.21,67.08 0.2,66.14 0.17,62 0.78,58.07 2.79,54.34 c 1.3,-2.41 2.05,-5.11 3.13,-7.64 0.26,-0.61 0.83,-1.1 1.3,-1.62 0.84,-0.94 1.76,-1.83 2.56,-2.81 1.5,-1.85 2.78,-3.92 4.43,-5.62 C 21.34,29.3 28.31,21.8 36.03,15.04 41.73,10.05 48,6.23 55.54,4.85 62.05,3.67 68.32,4.22 74.53,6.88 c 9.67,4.15 17.92,10.29 25.66,17.22 2.63,2.36 5.32,4.61 8.52,6.15 0.56,0.27 1.33,0.4 1.91,0.25 5.3,-1.39 10.72,-1.86 16.14,-2.04 2.71,-0.09 5.47,0.49 8.18,0.98 1.71,0.31 3.22,0.18 4.74,-0.65 8.29,-4.51 16.41,-9.3 24.16,-14.7 6.68,-4.65 13.83,-8.49 21.15,-11.97 2.24,-1.07 4.92,-1.23 7.41,-1.78 6.78,-1.49 12.02,1.85 16.96,5.7 7.34,5.71 12.69,13.19 18.27,20.53 6.25,8.22 11.86,16.78 16.23,26.11 3.98,8.49 7.64,17.14 11.34,25.76 0.75,1.74 1.07,3.67 1.51,5.53 0.49,2.1 0.01,4.13 -0.7,6.11 -0.44,1.21 -0.62,2.3 0.54,3.26 0.26,0.22 0.39,0.71 0.42,1.09 0.2,2.29 -0.06,4.46 -1.6,6.33 -0.63,0.77 -0.95,1.96 -1.73,2.4 -1.57,0.9 -2.43,2.45 -3.74,3.52 -5.61,4.57 -11.32,9.02 -17.81,12.31 -4.53,2.3 -8.36,5.59 -12.4,8.58 -2.18,1.62 -4.44,3.13 -6.65,4.72 -2.92,2.11 -6.25,2.47 -9.69,2.32 -1.36,-0.06 -2.7,-0.32 -4.06,-0.39 -2.45,-0.13 -4.41,-1.22 -6.15,-2.87 -4.12,-3.9 -6.88,-8.66 -9.04,-13.85 -2.97,-7.14 -4.35,-14.59 -4.8,-22.26 -0.26,-4.39 -0.79,-8.77 -0.85,-13.16 -0.05,-3.62 0.36,-7.25 0.69,-10.86 0.08,-0.83 0.72,-1.59 1.03,-2.41 0.4,-1.04 0.61,-2.16 1.1,-3.15 0.5,-1.01 1.03,-2.26 1.91,-2.77 4.88,-2.81 9.96,-5.26 15.52,-6.46 0.89,-0.19 1.83,-0.13 2.75,-0.18 1.75,-0.08 3.51,-0.09 5.26,-0.25 2.32,-0.2 4.1,0.6 5.21,2.65 1.5,2.77 3.02,5.54 4.35,8.4 1.37,2.94 0.69,5.75 -0.96,8.43 -0.71,1.15 -1.27,2.39 -1.87,3.6 -1.16,2.32 -2.26,4.66 -3.5,6.94 -0.28,0.52 -1.02,0.78 -1.55,1.16 -0.13,-0.1 -0.26,-0.2 -0.4,-0.3 0.24,-1.35 0.6,-2.7 0.68,-4.06 0.29,-5.01 2.16,-9.86 1.59,-14.95 -0.08,-0.73 -0.4,-1.58 -0.9,-2.08 -1.93,-1.94 -3.97,-3.73 -6.94,-3.84 -1.1,-0.04 -1.97,0.09 -2.29,1.38 -0.08,0.31 -0.57,0.63 -0.93,0.74 -1.79,0.57 -3.6,1.08 -5.39,1.61 -2.04,0.61 -2.25,0.82 -2.37,3.01 -0.34,6.67 0.75,13.15 2.81,19.47 1.69,5.2 3.4,10.39 5.24,15.54 0.79,2.21 1.88,4.31 2.89,6.44 0.46,0.98 1.27,1.24 2.31,0.83 1.89,-0.75 3.85,-1.36 5.69,-2.22 1.43,-0.67 2.73,-1.62 4.06,-2.5 0.96,-0.64 1.81,-1.47 2.8,-2.06 4.86,-2.88 8.84,-6.85 12.96,-10.63 0.59,-0.55 1,-1.46 1.17,-2.27 0.42,-1.94 0.71,-3.92 0.94,-5.9 0.08,-0.72 -0.05,-1.54 -0.32,-2.22 -2.87,-7.1 -5.77,-14.2 -8.71,-21.28 -2.86,-6.9 -7.23,-12.87 -11.81,-18.69 -0.34,-0.43 -0.79,-0.83 -1.28,-1.06 -3.23,-1.52 -6.49,-2.85 -10.2,-2.68 -2.67,0.13 -5.35,0.02 -8.21,0.02 0.05,-0.85 0.08,-1.67 0.14,-2.49 0.1,-1.54 -0.27,-1.85 -1.69,-1.39 -1.69,0.55 -3.38,1.07 -3.84,3.17 -0.07,0.33 -0.63,0.57 -1,0.8 -3.64,2.24 -7.3,4.44 -10.94,6.69 -2.17,1.34 -3.83,3.19 -5.47,5.14 -2.57,3.05 -5.4,5.88 -8.16,8.77 -1.44,1.51 -1.48,1.69 -0.75,3.69 0.3,0.81 0.51,1.7 0.5,2.55 -0.06,4.72 -0.15,9.44 -0.35,14.15 -0.11,2.41 0.52,4.5 1.99,6.36 0.86,1.09 1.35,2.58 3.01,2.86 0.2,0.03 0.4,0.27 0.54,0.46 0.85,1.12 0.78,4.92 -0.2,5.91 -2.36,2.39 -4.06,5.22 -5.8,8.05 -0.94,1.53 -2.26,2.88 -3.59,4.11 -1.83,1.7 -2.11,2.6 -0.94,4.79 0.15,0.28 0.31,0.56 0.45,0.85 1.09,2.16 0.36,3.51 -2.04,3.68 -1.48,0.1 -2.66,0.77 -3.71,1.75 -1.14,1.06 -1.51,1.04 -2.58,-0.03 -1.21,-1.22 -1.89,-1.17 -2.54,0.46 -0.76,1.92 -1.38,3.91 -1.88,5.92 -0.57,2.28 -0.92,4.61 -1.38,6.92 -0.36,1.85 -0.26,3.63 0.52,5.39 0.23,0.51 0.15,1.25 -0.02,1.81 -0.61,2.1 -0.43,2.83 1.24,4.17 1.31,1.05 1.42,1.45 0.91,2.98 -0.28,0.83 -0.64,1.66 -0.77,2.51 -0.15,1.03 -0.29,2.14 -0.09,3.14 0.53,2.64 -0.14,5.01 -1.4,7.25 -2.25,4.01 -4.6,7.95 -6.87,11.95 -1.22,2.14 -2.34,4.34 -3.53,6.49 -0.13,0.23 -0.43,0.43 -0.7,0.51 -0.57,0.17 -1.17,0.26 -1.93,0.42 0.18,-1.2 0.35,-2.32 0.52,-3.44 1.64,-10.54 1.86,-21.18 1.96,-31.82 0.02,-1.75 -0.29,-3.5 -0.54,-5.24 -0.17,-1.18 -1.55,-1.82 -2.85,-1.29 0.19,0.58 0.29,1.22 0.59,1.75 1.46,2.67 1.54,5.46 0.97,8.38 -0.7,3.56 -1.29,7.14 -1.84,10.73 -0.3,1.92 -0.73,3.74 -2.14,5.39 -1.8,-6.42 -3.56,-12.68 -5.32,-18.95 -0.11,0.01 -0.22,0.02 -0.34,0.03 -0.08,0.24 -0.2,0.47 -0.22,0.71 -0.59,6.06 -1.17,12.15 0.1,18.16 1.15,5.44 1,10.96 1.41,16.45 0.32,4.3 0.62,8.6 0.89,12.9 0.09,1.39 -0.04,2.8 0.07,4.2 0.21,2.71 0.43,5.42 0.83,8.1 0.18,1.23 0.05,2.19 -0.82,3.05 -0.16,0 -0.32,0 -0.48,0 -0.32,-0.5 -0.71,-0.96 -0.95,-1.5 -1.14,-2.51 -2.29,-5.01 -3.33,-7.56 -1.64,-4.02 -3.18,-8.09 -4.8,-12.13 -0.34,-0.84 -0.8,-1.64 -1.2,-2.46 -0.56,-1.14 -1.28,-2.22 -1.65,-3.42 -0.67,-2.13 -1.17,-4.32 -1.67,-6.5 -0.28,-1.24 -0.44,-2.5 -0.55,-3.16 0.99,-1.2 2.01,-1.93 2.25,-2.86 0.29,-1.14 -0.4,-2.22 -1.61,-2.78 -0.35,-0.16 -0.66,-0.47 -0.9,-0.78 -1.75,-2.28 -3.51,-4.56 -5.21,-6.88 -0.63,-0.86 -0.49,-3.23 0.24,-3.97 0.24,-0.24 0.74,-0.24 1.13,-0.32 0.37,-0.07 0.88,0.04 1.11,-0.16 1.34,-1.23 2.42,-2.55 2.45,-4.58 0.07,-5.48 0.33,-10.95 0.43,-16.43 0.03,-1.42 -0.08,-2.9 -0.43,-4.27 -1.35,-5.34 -2.77,-10.67 -4.29,-15.96 -0.33,-1.14 -1.07,-2.22 -1.82,-3.16 -1.01,-1.28 -2.18,-2.44 -3.35,-3.59 -1.11,-1.08 -2.3,-2.07 -3.45,-3.11 -0.22,-0.2 -0.44,-0.43 -0.61,-0.68 -0.55,-0.84 -1.03,-1.72 -1.61,-2.55 -0.61,-0.88 -1.31,-1.7 -2.11,-2.74 0.86,-0.13 1.33,-0.2 1.8,-0.27 1.74,-0.25 2.87,-1.86 2.48,-3.58 -0.22,-0.97 -0.44,-1.94 -0.68,-2.91 -0.2,-0.82 -0.66,-1.17 -1.49,-0.77 -0.55,0.27 -1.1,0.54 -1.64,0.81 C 90.12,90 90,89.89 89.88,89.77 c 1.13,-1.81 2.18,-3.67 3.4,-5.42 1.16,-1.67 2.03,-3.33 1.42,-5.45 -0.15,-0.51 0,-1.11 0.05,-1.66 0.34,-3.81 0.88,-7.62 0.99,-11.44 0.14,-4.85 -1.51,-9.08 -5.19,-12.43 -7.49,-6.8 -14.97,-13.62 -22.42,-20.46 -0.84,-0.77 -1.71,-1.04 -2.82,-1 -2.64,0.1 -5.28,0.22 -7.91,0.13 -2.13,-0.08 -4.08,0.32 -5.79,1.54 -6.77,4.83 -13.59,9.61 -18.88,16.18 -0.87,1.09 -1.93,2.03 -2.82,3.11 -0.96,1.16 -1.87,2.38 -2.69,3.63 -0.8,1.21 -1.07,2.74 -2.36,3.66 -0.26,0.19 -0.42,0.59 -0.53,0.92 -0.85,2.61 -1.38,5.28 -0.93,8.02 1.19,7.26 3.92,13.91 8.31,19.81 2.93,3.95 6.12,7.7 9.11,11.61 2.01,2.64 4.6,4.4 7.65,5.56 0.93,0.36 1.87,0.71 2.8,1.05 2.54,0.92 3.7,0.61 5.17,-1.7 1.68,-2.62 3.32,-5.28 4.82,-8.01 4.16,-7.55 6.37,-15.72 7.72,-24.19 0.28,-1.73 -0.11,-3.01 -1.17,-4.29 -2.85,-3.45 -6.59,-5.36 -10.83,-6.45 -2.53,-0.65 -4.37,0.11 -5.56,2.47 -1.91,3.78 -3.75,7.59 -5.61,11.39 -0.72,1.47 -0.83,2.98 -0.21,4.53 0.21,0.52 0.45,1.07 0.43,1.61 -0.02,0.73 -0.27,1.45 -0.42,2.17 -0.14,0.01 -0.29,0.01 -0.43,0.02 -1.91,-2.85 -3.96,-5.62 -5.69,-8.58 -2.74,-4.69 -1.56,-10.89 2.7,-14.3 4.88,-3.9 9.97,-7.46 15.8,-9.88 1.82,-0.75 3.36,-0.89 5.22,-0.3 3.42,1.09 6.73,2.31 9.39,4.83 3.09,2.93 5.8,6.19 7.98,9.85 0.93,1.56 2.07,2.82 3.59,3.77 1.67,1.04 1.82,1.51 1.4,3.48 -1.34,6.29 -2.98,12.53 -3.9,18.88 -1.31,9.06 -5.59,16.65 -10.68,23.94 -0.79,1.14 -1.79,2.14 -2.71,3.19 -1.07,1.22 -2,2.66 -3.29,3.58 -3.22,2.29 -6.56,4.43 -9.95,6.45 -1.16,0.69 -2.61,0.95 -3.97,1.21 -0.49,0.09 -1.38,-0.27 -1.59,-0.68 -0.66,-1.27 -1.69,-1.51 -2.91,-1.42 -2.03,0.17 -3.82,-0.48 -5.62,-1.37 -3,-1.47 -5.39,-3.71 -7.82,-5.9 C 27.36,116.24 21.61,111.01 17.65,104.18 12.74,95.71 7.75,87.29 2.9,78.79 1.71,76.81 0.95,74.52 0,72.34 0,71.22 0,70.1 0,68.98 Z m 133.51,37.77 c 0.07,0.11 0.15,0.22 0.22,0.33 1.34,-0.75 2.77,-1.36 3.99,-2.27 1.62,-1.21 3.2,-1.79 5.22,-1.04 1.75,0.65 3.56,0.49 5.21,-0.46 2.16,-1.25 3.88,-3.01 4.96,-5.23 0.92,-1.89 1.86,-3.68 3.41,-5.14 0.79,-0.74 0.54,-1.33 -0.46,-1.73 -3.25,-1.32 -6.36,-0.35 -9.48,0.51 -0.25,0.07 -0.67,0.29 -0.67,0.44 0.02,1.62 -1.04,2.04 -2.34,2.28 -0.2,0.04 -0.38,0.28 -0.55,0.45 -1.64,1.57 -3.27,3.16 -4.92,4.72 -2.12,2 -3.82,4.27 -4.59,7.14 z m -16.15,-3.13 c -0.01,-2.45 -0.62,-3.78 -2.3,-4.88 -2.6,-1.71 -5.26,-3.34 -7.9,-4.99 -0.23,-0.14 -0.51,-0.25 -0.77,-0.29 -2.52,-0.41 -5.04,-0.82 -7.58,-1.16 -0.68,-0.09 -1.4,0.07 -2.1,0.12 0.49,0.67 0.85,1.53 1.49,1.96 4.46,3.04 8.43,6.58 11.69,10.91 0.44,0.58 1.26,0.9 1.94,1.26 0.68,0.36 1.49,0.53 2.11,0.96 0.74,0.51 1.3,0.49 1.89,-0.13 1.13,-1.17 1.5,-2.61 1.53,-3.76 z m 20.35,56.48 c 0,1.02 0,1.81 0,2.61 0.11,0.03 0.21,0.05 0.32,0.08 0.31,-0.56 0.63,-1.12 0.98,-1.74 -0.42,-0.31 -0.77,-0.56 -1.3,-0.95 z"
   id="path4"
   inkscape:connector-curvature="0"
   style="fill:#ffffff" />
    </g>
</g>
</svg>