<?xml version="1.0" encoding="UTF-8" standalone="no"?>
<!-- Created with Inkscape (http://www.inkscape.org/) -->

<svg
   xmlns:dc="http://purl.org/dc/elements/1.1/"
   xmlns:cc="http://creativecommons.org/ns#"
   xmlns:rdf="http://www.w3.org/1999/02/22-rdf-syntax-ns#"
   xmlns:svg="http://www.w3.org/2000/svg"
   xmlns="http://www.w3.org/2000/svg"
   xmlns:sodipodi="http://sodipodi.sourceforge.net/DTD/sodipodi-0.dtd"
   xmlns:inkscape="http://www.inkscape.org/namespaces/inkscape"
   width="215"
   height="215"
   viewBox="0 0 56.885411 56.885412"
   version="1.1"
   id="svg8"
   sodipodi:docname="azyr.svg"
   inkscape:version="0.92.3 (2405546, 2018-03-11)">
  <defs
     id="defs2" />
  <sodipodi:namedview
     id="base"
     pagecolor="#ffffff"
     bordercolor="#666666"
     borderopacity="1.0"
     inkscape:pageopacity="0.0"
     inkscape:pageshadow="2"
     inkscape:zoom="0.5"
     inkscape:cx="-764.98232"
     inkscape:cy="-32.336687"
     inkscape:document-units="px"
     inkscape:current-layer="layer1"
     showgrid="false"
     units="px"
     inkscape:pagecheckerboard="false"
     fit-margin-top="0"
     fit-margin-left="0"
     fit-margin-right="0"
     fit-margin-bottom="0"
     inkscape:window-width="1920"
     inkscape:window-height="1017"
     inkscape:window-x="-8"
     inkscape:window-y="-8"
     inkscape:window-maximized="1"
     inkscape:snap-global="true" />
  <metadata
     id="metadata5">
    <rdf:RDF>
      <cc:Work
         rdf:about="">
        <dc:format>image/svg+xml</dc:format>
        <dc:type
           rdf:resource="http://purl.org/dc/dcmitype/StillImage" />
        <dc:title />
      </cc:Work>
    </rdf:RDF>
  </metadata>
  <g
     inkscape:label="Layer 1"
     inkscape:groupmode="layer"
     id="layer1"
     transform="translate(121.62192,-94.013979)">
    <path
       style="fill:#000000;fill-opacity:1;stroke:none;stroke-width:0.8597433px;stroke-linecap:butt;stroke-linejoin:miter;stroke-opacity:1"
       d="m -105.96831,109.6682 a 10.611202,10.611202 0 0 0 0,15.0059 10.611202,10.611202 0 0 0 15.007097,0.001 10.611202,10.611202 0 0 0 0,-15.00827 10.611202,10.611202 0 0 0 -15.007097,10e-4 z m -15.65302,16.914 c 20.51904,5.03352 39.135665,12.78014 56.884236,24.31719 -11.537053,-17.74855 -19.2825,-36.36638 -24.31603,-56.885411 -1.547931,2.057102 -3.202371,4.024273 -4.886002,5.971262 3.63648,8.402779 11.786539,20.564369 5.319391,27.031529 -6.358585,6.35857 -18.628745,-1.68294 -27.031525,-5.3194 -1.94696,1.68366 -3.91296,3.3369 -5.97007,4.88483 z m 18.60838,-13.95865 a 6.4316814,6.4316814 0 0 1 9.096386,-10e-4 6.4316814,6.4316814 0 0 1 0,9.09758 6.4316814,6.4316814 0 0 1 -9.096386,-10e-4 6.4316814,6.4316814 0 0 1 0,-9.09521 z m 15.858423,15.85842 c 2.798774,-2.79876 4.662114,-2.63827 5.292084,-1.54715 0.607118,1.05161 -1.76e-4,-3e-5 5.546173,12.05056 0,0 0.09813,0.18001 -0.02371,0.31097 -0.131041,0.12186 -0.3111,0.0227 -0.3111,0.0227 -12.050596,-5.54634 -10.998971,-4.93906 -12.050553,-5.54618 -1.091143,-0.62997 -1.251641,-2.49332 1.547133,-5.29208 z"
       id="path829"
       inkscape:connector-curvature="0" />
  </g>
</svg>
