<?xml version="1.0" encoding="UTF-8" standalone="no"?>
<!-- Created with Inkscape (http://www.inkscape.org/) -->

<svg
   xmlns:dc="http://purl.org/dc/elements/1.1/"
   xmlns:cc="http://creativecommons.org/ns#"
   xmlns:rdf="http://www.w3.org/1999/02/22-rdf-syntax-ns#"
   xmlns:svg="http://www.w3.org/2000/svg"
   xmlns="http://www.w3.org/2000/svg"
   xmlns:sodipodi="http://sodipodi.sourceforge.net/DTD/sodipodi-0.dtd"
   xmlns:inkscape="http://www.inkscape.org/namespaces/inkscape"
   width="215"
   height="215"
   viewBox="0 0 56.885415 56.885418"
   version="1.1"
   id="svg8"
   inkscape:version="0.92.3 (2405546, 2018-03-11)"
   sodipodi:docname="anvilgard.svg">
  <defs
     id="defs2">
    <clipPath
       clipPathUnits="userSpaceOnUse"
       id="clipPath1925">
      <path
         d="m 211.976,297.275 h 6.068 v 7.712 h -6.068 z"
         id="path1923"
         inkscape:connector-curvature="0" />
    </clipPath>
  </defs>
  <sodipodi:namedview
     id="base"
     pagecolor="#ffffff"
     bordercolor="#666666"
     borderopacity="1.0"
     inkscape:pageopacity="0.0"
     inkscape:pageshadow="2"
     inkscape:zoom="1.4142136"
     inkscape:cx="-278.25909"
     inkscape:cy="89.051119"
     inkscape:document-units="px"
     inkscape:current-layer="layer1"
     showgrid="false"
     units="px"
     inkscape:window-width="1920"
     inkscape:window-height="1017"
     inkscape:window-x="-8"
     inkscape:window-y="-8"
     inkscape:window-maximized="1" />
  <metadata
     id="metadata5">
    <rdf:RDF>
      <cc:Work
         rdf:about="">
        <dc:format>image/svg+xml</dc:format>
        <dc:type
           rdf:resource="http://purl.org/dc/dcmitype/StillImage" />
        <dc:title />
      </cc:Work>
    </rdf:RDF>
  </metadata>
  <g
     inkscape:label="Layer 1"
     inkscape:groupmode="layer"
     id="layer1"
     transform="translate(0,-240.11457)">
    <g
       id="g1919"
       transform="matrix(7.3888324,0,0,-7.3888324,-1560.2316,2493.6124)"
       style="fill:#000000;fill-opacity:1">
      <g
         id="g1921"
         clip-path="url(#clipPath1925)"
         style="fill:#000000;fill-opacity:1">
        <g
           id="g1927"
           transform="translate(215.6153,301.1113)"
           style="fill:#000000;fill-opacity:1">
          <path
             d="M 0,0 C 0.006,0.041 -0.013,0.073 -0.046,0.083 -0.079,0.095 -0.107,0.081 -0.133,0.046 -0.164,0.003 -0.198,-0.038 -0.231,-0.079 c -0.015,-0.019 -0.033,-0.037 -0.045,-0.058 -0.025,-0.044 0.002,-0.097 0.049,-0.104 0.022,-0.003 0.044,-0.007 0.066,-0.011 0.037,-0.008 0.086,0.014 0.101,0.046 0.023,0.05 0.046,0.099 0.068,0.148 0.004,0.009 0.002,0.02 10e-4,0.03 C 0.007,-0.019 0.003,-0.009 0,0 m -0.957,-0.185 c 0.001,0.026 -0.016,0.047 -0.032,0.068 -0.042,0.052 -0.083,0.105 -0.126,0.156 -0.009,0.012 -0.021,0.022 -0.034,0.028 -0.05,0.019 -0.098,-0.021 -0.096,-0.079 0.001,-0.009 0.001,-0.019 -0.003,-0.027 -0.008,-0.014 -0.007,-0.025 0,-0.038 0.02,-0.04 0.043,-0.079 0.059,-0.12 0.024,-0.059 0.061,-0.082 0.122,-0.067 0.014,0.003 0.028,0.006 0.042,0.006 0.04,0.002 0.069,0.031 0.068,0.073 M 0.091,-2.839 C 0.081,-2.864 0.071,-2.889 0.061,-2.915 0.035,-2.988 0.03,-3.063 0.03,-3.14 c 0,-0.021 -0.003,-0.043 -10e-4,-0.065 0.003,-0.043 0.015,-0.081 0.044,-0.116 0.046,-0.055 0.104,-0.067 0.171,-0.062 0.039,0.003 0.066,0.019 0.084,0.055 0.005,0.01 0.013,0.02 0.023,0.026 0.016,0.01 0.022,0.023 0.022,0.042 -0.001,0.099 0.001,0.198 -0.001,0.297 -0.001,0.028 -0.011,0.056 -0.017,0.085 -0.007,0.04 -0.016,0.08 -0.022,0.12 -0.011,0.078 -0.02,0.155 -0.032,0.233 -0.003,0.018 -0.01,0.037 -0.021,0.051 -0.027,0.04 -0.028,0.087 -0.041,0.13 -0.019,0.062 -0.031,0.127 -0.05,0.19 -0.012,0.04 -0.031,0.079 -0.046,0.118 -0.015,0.039 -0.028,0.079 -0.044,0.117 -0.014,0.032 -0.03,0.062 -0.047,0.091 -0.022,0.037 -0.046,0.072 -0.07,0.107 -0.024,0.034 -0.051,0.066 -0.074,0.101 -0.019,0.029 -0.037,0.059 -0.052,0.091 -0.025,0.056 -0.047,0.115 -0.072,0.171 -0.049,0.106 -0.114,0.201 -0.199,0.282 -0.029,0.027 -0.066,0.04 -0.104,0.045 -0.078,0.008 -0.155,-0.006 -0.229,-0.029 -0.113,-0.034 -0.182,-0.113 -0.212,-0.226 -0.01,-0.035 -0.014,-0.072 -0.026,-0.107 -0.011,-0.033 -0.028,-0.065 -0.043,-0.098 -0.026,-0.056 -0.057,-0.109 -0.099,-0.156 -0.025,-0.027 -0.044,-0.06 -0.065,-0.09 -0.017,-0.025 -0.033,-0.05 -0.049,-0.075 -0.02,-0.033 -0.04,-0.066 -0.058,-0.101 -0.016,-0.033 -0.028,-0.067 -0.041,-0.101 -0.018,-0.048 -0.036,-0.095 -0.053,-0.143 -0.011,-0.03 -0.024,-0.059 -0.032,-0.09 -0.015,-0.062 -0.027,-0.126 -0.041,-0.188 -0.003,-0.014 -0.009,-0.027 -0.017,-0.039 -0.026,-0.042 -0.033,-0.089 -0.041,-0.136 -0.011,-0.068 -0.018,-0.136 -0.027,-0.204 -0.006,-0.041 -0.01,-0.082 -0.019,-0.122 -0.006,-0.03 -0.021,-0.059 -0.028,-0.089 -0.008,-0.042 -0.013,-0.084 -0.015,-0.126 -10e-4,-0.013 0.012,-0.029 0.022,-0.039 0.01,-0.011 0.015,-0.02 0.018,-0.034 0.003,-0.016 0.01,-0.036 0.022,-0.044 0.032,-0.024 0.069,-0.032 0.11,-0.019 0.064,0.02 0.084,0.074 0.101,0.129 0.031,0.098 0.04,0.198 0.036,0.299 0,0.007 0,0.014 -0.001,0.021 -10e-4,0.01 -0.01,0.025 0.008,0.028 0.019,0.004 0.034,-0.01 0.039,-0.025 0.012,-0.045 0.026,-0.089 0.038,-0.133 0.018,-0.063 0.037,-0.126 0.051,-0.19 0.006,-0.03 0.003,-0.061 0.003,-0.092 -10e-4,-0.061 -0.003,-0.121 0.016,-0.18 0.007,-0.022 -0.002,-0.039 -0.013,-0.054 -0.029,-0.039 -0.061,-0.076 -0.093,-0.112 -0.011,-0.012 -0.028,-0.021 -0.043,-0.028 -0.034,-0.014 -0.07,-0.027 -0.104,-0.04 -0.007,-0.003 -0.013,-0.007 -0.02,-0.011 -0.002,-0.001 -0.003,-0.003 -0.005,-0.004 -0.068,-0.032 -0.14,-0.063 -0.215,-0.04 -0.057,0.018 -0.119,0.032 -0.16,0.084 -0.018,0.022 -0.046,0.034 -0.063,0.056 -0.03,0.04 -0.057,0.083 -0.081,0.126 -0.012,0.02 -0.014,0.045 -0.022,0.068 -0.004,0.01 -0.008,0.022 -0.016,0.03 -0.02,0.02 -0.029,0.043 -0.027,0.073 0.002,0.051 0,0.103 0.004,0.154 0.003,0.05 0.01,0.099 0.018,0.147 0.012,0.068 0.026,0.136 0.027,0.206 0,0.047 0.014,0.094 0.023,0.141 0.007,0.037 0.016,0.074 0.025,0.111 0.007,0.03 0.013,0.06 0.023,0.089 0.012,0.04 0.026,0.081 0.042,0.12 0.023,0.057 0.052,0.112 0.075,0.169 0.022,0.056 0.04,0.114 0.056,0.172 0.007,0.027 0.002,0.057 0.006,0.085 0.008,0.05 0.017,0.1 0.028,0.15 0.015,0.071 0.033,0.141 0.049,0.212 0.003,0.015 0.02,0.03 0.002,0.047 -0.027,-0.025 -0.052,-0.051 -0.081,-0.074 -0.045,-0.037 -0.084,-0.082 -0.14,-0.106 -0.023,-0.01 -0.042,-0.028 -0.065,-0.04 -0.051,-0.026 -0.105,-0.048 -0.156,-0.077 -0.035,-0.02 -0.067,-0.047 -0.099,-0.072 -0.034,-0.026 -0.068,-0.053 -0.1,-0.082 -0.056,-0.05 -0.112,-0.101 -0.166,-0.153 -0.012,-0.012 -0.019,-0.029 -0.026,-0.044 -0.021,-0.053 -0.056,-0.102 -0.046,-0.164 0.002,-0.007 0.008,-0.016 0.015,-0.02 0.062,-0.034 0.13,-0.027 0.197,-0.024 0.024,10e-4 0.051,0.012 0.071,0.026 0.042,0.03 0.083,0.064 0.123,0.097 0.043,0.038 0.071,0.086 0.089,0.141 0.004,0.012 0.009,0.023 0.014,0.036 0.003,-0.002 0.006,-0.003 0.006,-0.004 0.012,-0.045 0.021,-0.089 0.004,-0.135 -0.014,-0.038 -0.039,-0.067 -0.06,-0.1 C -2.064,-2.288 -2.067,-2.305 -2.075,-2.32 -2.1,-2.365 -2.122,-2.41 -2.151,-2.452 -2.174,-2.486 -2.203,-2.515 -2.231,-2.544 -2.248,-2.562 -2.269,-2.576 -2.289,-2.59 -2.303,-2.6 -2.317,-2.609 -2.332,-2.614 -2.368,-2.625 -2.404,-2.635 -2.44,-2.64 c -0.039,-0.006 -0.078,-0.005 -0.117,-0.007 -0.005,0 -0.011,0 -0.015,10e-4 -0.079,0.029 -0.166,0.041 -0.213,0.124 -0.005,0.007 -0.012,0.013 -0.019,0.019 -0.038,0.035 -0.057,0.078 -0.058,0.129 0,0.013 -0.004,0.025 -0.005,0.038 -0.002,0.032 -0.004,0.063 -0.003,0.095 10e-4,0.03 10e-4,0.061 0.01,0.089 0.015,0.049 0.037,0.097 0.056,0.146 0.004,0.009 0.008,0.018 0.01,0.027 0.011,0.036 0.082,0.144 0.11,0.167 0.012,0.01 0.022,0.022 0.033,0.033 0.009,0.011 0.018,0.022 0.029,0.031 0.031,0.025 0.063,0.048 0.094,0.073 0.015,0.012 0.026,0.029 0.041,0.04 0.041,0.032 0.083,0.062 0.124,0.093 0.025,0.018 0.05,0.037 0.074,0.058 -0.013,-0.003 -0.026,-0.007 -0.039,-0.011 -0.028,-0.009 -0.056,-0.018 -0.085,-0.026 0,0 -0.001,0 -0.002,0 -0.052,-0.024 -0.107,-0.022 -0.162,-0.021 -0.002,0 -0.003,-10e-4 -0.005,-10e-4 -0.052,0.002 -0.104,0.003 -0.156,0.004 -0.02,0 -0.04,-0.002 -0.06,10e-4 -0.052,0.007 -0.104,0.017 -0.156,0.026 -0.027,0.004 -0.054,0.008 -0.079,0.016 -0.026,0.007 -0.052,0.015 -0.076,0.027 -0.057,0.031 -0.118,0.058 -0.164,0.107 -0.007,0.008 -0.016,0.013 -0.023,0.02 -0.047,0.042 -0.095,0.082 -0.129,0.136 -0.009,0.013 -0.023,0.022 -0.031,0.035 -0.027,0.046 -0.054,0.091 -0.079,0.138 -0.011,0.02 -0.019,0.042 -0.026,0.064 -0.007,0.019 -0.01,0.039 -0.016,0.058 -0.009,0.032 -0.019,0.064 -0.029,0.095 -0.007,0.022 -0.02,0.043 -0.022,0.066 -0.005,0.046 -0.011,0.093 -0.005,0.138 0.006,0.052 0.022,0.102 0.039,0.151 0.006,0.02 0.022,0.038 0.037,0.053 0.025,0.024 0.043,0.051 0.054,0.084 0.014,0.036 0.037,0.064 0.069,0.086 0.009,0.006 0.018,0.014 0.025,0.022 0.033,0.038 0.074,0.06 0.125,0.063 0.009,0.001 0.019,0.004 0.028,0.007 0.013,0.003 0.026,0.009 0.039,0.009 0.052,0 0.105,-0.002 0.157,-0.003 0.01,0 0.019,0.001 0.029,0 0.026,-0.003 0.052,-0.006 0.077,-0.011 0.014,-0.002 0.028,-0.007 0.041,-0.01 0.003,-0.001 0.006,-0.001 0.009,-0.002 0.078,-0.033 0.163,-0.054 0.209,-0.135 0.006,-0.009 0.014,-0.017 0.021,-0.024 0.086,-0.091 0.052,-0.249 -0.063,-0.296 -0.007,-0.002 -0.014,-0.004 -0.021,-0.007 -0.006,0.036 -0.011,0.071 -0.017,0.105 -0.008,0.041 -0.026,0.079 -0.053,0.109 -0.022,0.024 -0.053,0.042 -0.087,0.042 -0.053,0.001 -0.107,-0.003 -0.161,-0.006 -0.01,0 -0.022,-0.003 -0.03,-0.008 -0.023,-0.018 -0.049,-0.03 -0.077,-0.038 -0.015,-0.005 -0.03,-0.022 -0.037,-0.037 -0.014,-0.03 -0.025,-0.062 -0.034,-0.094 -0.004,-0.015 -0.004,-0.034 0.002,-0.048 0.017,-0.039 0.017,-0.08 0.022,-0.121 10e-4,-0.011 0.006,-0.023 0.013,-0.031 0.018,-0.022 0.029,-0.044 0.028,-0.075 -0.002,-0.047 0.023,-0.083 0.061,-0.111 0.056,-0.043 0.122,-0.057 0.19,-0.062 0.011,-10e-4 0.022,-0.005 0.031,-0.011 0.069,-0.046 0.145,-0.074 0.228,-0.078 0.085,-0.005 0.171,-0.007 0.256,-0.004 0.093,0.003 0.17,0.039 0.222,0.121 0.019,0.028 0.049,0.049 0.068,0.077 0.019,0.028 0.031,0.061 0.045,0.092 0.012,0.024 0.022,0.049 0.034,0.077 -0.021,0.005 -0.04,0.009 -0.059,0.015 -0.031,0.011 -0.062,0.022 -0.09,0.038 -0.025,0.013 -0.048,0.031 -0.068,0.051 -0.04,0.041 -0.094,0.067 -0.124,0.121 -0.02,0.039 -0.054,0.071 -0.078,0.109 -0.026,0.042 -0.048,0.087 -0.071,0.131 -0.019,0.036 -0.035,0.074 -0.053,0.111 -0.003,0.006 -0.007,0.012 -0.008,0.018 -0.011,0.05 -0.022,0.099 -0.031,0.149 C -2.644,0.064 -2.647,0.112 -2.659,0.158 -2.666,0.182 -2.686,0.202 -2.712,0.213 -2.72,0.216 -2.728,0.225 -2.729,0.233 -2.744,0.334 -2.804,0.404 -2.89,0.452 -2.913,0.465 -2.945,0.464 -2.973,0.466 -3.001,0.468 -3.031,0.465 -3.06,0.464 -3.091,0.462 -3.115,0.447 -3.128,0.419 -3.149,0.375 -3.154,0.326 -3.14,0.279 c 0.022,-0.073 0.049,-0.145 0.076,-0.216 0.006,-0.016 0.018,-0.029 0.029,-0.045 -0.024,0 -0.051,-0.006 -0.074,0.002 -0.054,0.016 -0.112,0.024 -0.157,0.062 -0.015,0.013 -0.039,0.016 -0.052,0.031 -0.041,0.044 -0.092,0.081 -0.107,0.145 -0.006,0.025 -0.025,0.047 -0.028,0.071 -0.004,0.047 -0.003,0.095 -0.001,0.143 0.002,0.032 0.005,0.066 0.017,0.095 0.018,0.043 0.045,0.083 0.069,0.122 0.018,0.03 0.046,0.05 0.08,0.06 0.026,0.008 0.048,0.021 0.065,0.043 0.021,0.026 0.047,0.042 0.079,0.05 0.02,0.005 0.039,0.017 0.059,0.019 0.061,0.007 0.122,0.023 0.183,-0.002 0.029,-0.011 0.058,-0.021 0.087,-0.028 0.018,-0.004 0.038,0.003 0.056,0 0.017,-0.004 0.036,-0.01 0.05,-0.02 0.025,-0.017 0.044,-0.041 0.075,-0.048 0.005,-0.001 0.01,-0.005 0.013,-0.008 0.057,-0.057 0.121,-0.108 0.168,-0.175 0.035,-0.05 0.056,-0.107 0.075,-0.165 0.009,-0.028 0.024,-0.054 0.038,-0.08 0.026,-0.05 0.054,-0.1 0.081,-0.15 0.004,-0.008 0.004,-0.017 0.005,-0.026 0.002,-0.041 0,-0.082 0.006,-0.123 0.01,-0.062 0.038,-0.117 0.075,-0.168 0.015,-0.021 0.033,-0.04 0.051,-0.059 0.009,-0.009 0.021,-0.015 0.03,-0.023 0.013,-0.011 0.026,-0.023 0.038,-0.035 0.004,-0.004 0.007,-0.008 0.011,-0.011 0.017,-0.013 0.034,-0.027 0.052,-0.039 0.05,-0.037 0.097,-0.08 0.16,-0.095 0.004,-0.001 0.007,-0.002 0.011,-0.002 0.057,0 0.112,0.014 0.165,0.035 0.024,0.009 0.047,0.023 0.07,0.035 0.042,0.021 0.069,0.054 0.08,0.099 0.012,0.049 0.023,0.096 0.005,0.148 -0.017,0.049 -0.024,0.101 -0.036,0.151 0,0.002 -10e-4,0.005 -0.002,0.007 -0.037,0.074 -0.077,0.145 -0.152,0.188 -0.016,0.008 -0.03,0.021 -0.045,0.033 0.031,0.029 0.058,0.054 0.085,0.079 0.045,0.044 0.08,0.095 0.11,0.15 0.015,0.027 0.026,0.056 0.04,0.084 0.002,0.004 0.006,0.007 0.009,0.01 0.035,0.038 0.048,0.083 0.039,0.135 -0.004,0.021 0,0.044 -0.007,0.064 -0.02,0.058 -0.035,0.117 -0.078,0.166 -0.03,0.035 -0.064,0.063 -0.096,0.093 -0.026,0.023 -0.057,0.035 -0.092,0.035 -0.006,0 -0.012,0 -0.018,10e-4 -0.024,0.002 -0.028,0.006 -0.022,0.03 0.012,0.052 0.027,0.1 0.066,0.142 0.048,0.05 0.087,0.109 0.134,0.161 0.031,0.034 0.069,0.061 0.101,0.095 0.03,0.033 0.065,0.055 0.109,0.067 0.016,0.005 0.031,0.017 0.046,0.027 0.014,0.009 0.026,0.022 0.04,0.029 0.055,0.028 0.11,0.055 0.167,0.079 0.032,0.014 0.067,0.02 0.1,0.032 0.074,0.026 0.147,0.055 0.221,0.079 0.081,0.027 0.164,0.045 0.25,0.044 0.042,-10e-4 0.084,0.003 0.126,0.003 0.031,0 0.064,0.003 0.094,-0.005 0.077,-0.021 0.16,-0.023 0.229,-0.071 C -0.055,1.81 -0.026,1.793 0.002,1.775 0.004,1.774 0.006,1.772 0.008,1.771 0.082,1.749 0.136,1.693 0.201,1.656 0.251,1.628 0.295,1.591 0.323,1.54 0.327,1.533 0.333,1.526 0.333,1.52 0.336,1.475 0.369,1.45 0.395,1.42 0.426,1.386 0.453,1.348 0.482,1.312 0.492,1.299 0.502,1.287 0.514,1.273 0.51,1.27 0.507,1.268 0.504,1.267 0.46,1.259 0.427,1.234 0.4,1.201 0.361,1.154 0.322,1.106 0.288,1.056 0.254,1.004 0.239,0.944 0.24,0.881 0.24,0.827 0.237,0.773 0.245,0.72 0.25,0.683 0.267,0.647 0.285,0.614 0.308,0.57 0.337,0.529 0.365,0.488 0.389,0.455 0.415,0.425 0.441,0.394 0.444,0.39 0.447,0.386 0.448,0.384 0.426,0.359 0.403,0.336 0.384,0.311 0.35,0.269 0.333,0.218 0.322,0.166 0.307,0.085 0.298,0.001 0.303,-0.081 0.306,-0.133 0.318,-0.184 0.357,-0.225 0.373,-0.242 0.38,-0.266 0.394,-0.285 0.419,-0.32 0.451,-0.349 0.495,-0.353 0.57,-0.359 0.646,-0.364 0.721,-0.364 c 0.036,0 0.068,0.022 0.094,0.048 0.018,0.019 0.033,0.042 0.051,0.062 0.014,0.015 0.028,0.031 0.045,0.042 0.072,0.046 0.116,0.114 0.146,0.191 C 1.073,0.018 1.081,0.06 1.095,0.1 1.105,0.128 1.12,0.155 1.132,0.184 1.153,0.236 1.17,0.291 1.194,0.342 1.23,0.42 1.272,0.495 1.344,0.546 1.39,0.58 1.429,0.624 1.483,0.647 1.489,0.649 1.495,0.654 1.499,0.659 1.557,0.718 1.629,0.745 1.708,0.759 1.727,0.762 1.746,0.765 1.767,0.768 1.768,0.775 1.769,0.781 1.771,0.788 1.773,0.789 1.775,0.79 1.777,0.79 1.856,0.789 1.936,0.793 2.015,0.785 2.072,0.779 2.123,0.753 2.145,0.691 2.156,0.658 2.171,0.627 2.182,0.595 2.186,0.582 2.186,0.568 2.186,0.555 2.186,0.542 2.191,0.535 2.206,0.533 2.24,0.53 2.242,0.528 2.243,0.495 2.244,0.45 2.244,0.405 2.245,0.359 c 0,0 0,-0.001 0,-0.002 C 2.227,0.295 2.21,0.232 2.161,0.185 2.153,0.178 2.148,0.168 2.14,0.161 2.121,0.144 2.101,0.127 2.081,0.111 2.069,0.102 2.056,0.095 2.043,0.088 2.041,0.086 2.039,0.085 2.037,0.084 1.971,0.053 1.903,0.024 1.827,0.032 1.824,0.032 1.822,0.033 1.817,0.035 1.845,0.054 1.874,0.07 1.898,0.09 1.941,0.125 1.975,0.168 1.982,0.224 1.988,0.271 1.989,0.319 1.988,0.367 1.986,0.424 1.925,0.478 1.869,0.476 1.826,0.474 1.783,0.473 1.742,0.465 1.69,0.456 1.643,0.432 1.605,0.394 1.585,0.374 1.566,0.352 1.552,0.328 1.54,0.307 1.533,0.281 1.53,0.257 1.528,0.239 1.521,0.233 1.506,0.228 1.498,0.226 1.488,0.218 1.485,0.211 1.466,0.162 1.448,0.113 1.432,0.063 1.426,0.046 1.43,0.025 1.425,0.008 1.408,-0.044 1.408,-0.101 1.378,-0.15 1.357,-0.186 1.344,-0.226 1.328,-0.264 1.326,-0.268 1.325,-0.273 1.322,-0.277 1.297,-0.318 1.271,-0.359 1.244,-0.399 1.221,-0.434 1.196,-0.469 1.172,-0.503 1.166,-0.512 1.161,-0.522 1.153,-0.528 1.114,-0.561 1.074,-0.592 1.034,-0.623 1.027,-0.629 1.019,-0.634 1.014,-0.64 0.988,-0.668 0.955,-0.684 0.919,-0.693 0.878,-0.702 0.838,-0.712 0.794,-0.722 0.816,-0.74 0.836,-0.758 0.858,-0.773 0.887,-0.793 0.918,-0.811 0.949,-0.83 0.962,-0.837 0.975,-0.843 0.988,-0.85 0.997,-0.854 1.008,-0.857 1.013,-0.864 1.038,-0.899 1.078,-0.904 1.114,-0.918 1.13,-0.924 1.146,-0.933 1.16,-0.943 1.181,-0.96 1.204,-0.964 1.23,-0.967 1.29,-0.972 1.351,-0.971 1.406,-1.001 1.447,-1.023 1.492,-1.03 1.538,-1.032 c 0.05,-0.002 0.1,-0.007 0.15,-0.008 0.036,0 0.07,0.003 0.103,0.025 0.022,0.015 0.052,0.018 0.075,0.031 0.042,0.023 0.084,0.048 0.122,0.077 0.039,0.03 0.063,0.074 0.068,0.124 0.005,0.038 0.007,0.077 0.003,0.115 -0.001,0.019 -0.018,0.036 -0.026,0.055 -0.01,0.022 -0.031,0.036 -0.032,0.064 C 1.999,-0.49 1.943,-0.438 1.884,-0.437 1.819,-0.436 1.753,-0.431 1.69,-0.452 1.656,-0.463 1.624,-0.48 1.591,-0.495 c 0.005,0.021 0.008,0.048 0.018,0.073 0.021,0.05 0.042,0.1 0.07,0.147 0.021,0.037 0.057,0.059 0.103,0.064 0.017,0.002 0.033,0.014 0.049,0.022 0.014,0.006 0.026,0.017 0.04,0.02 0.03,0.009 0.062,0.013 0.092,0.02 0.01,0.002 0.021,0.007 0.027,0.015 0.013,0.013 0.025,0.013 0.041,0.008 C 2.049,-0.131 2.067,-0.134 2.085,-0.138 2.1,-0.142 2.115,-0.145 2.128,-0.15 2.172,-0.167 2.264,-0.252 2.285,-0.293 2.293,-0.309 2.297,-0.326 2.306,-0.34 2.318,-0.359 2.334,-0.377 2.349,-0.394 2.38,-0.427 2.399,-0.465 2.403,-0.51 2.404,-0.52 2.407,-0.53 2.411,-0.54 2.426,-0.576 2.429,-0.614 2.421,-0.652 2.419,-0.664 2.419,-0.676 2.42,-0.688 2.423,-0.732 2.411,-0.772 2.39,-0.811 2.378,-0.833 2.374,-0.861 2.367,-0.887 2.358,-0.915 2.351,-0.942 2.342,-0.97 2.339,-0.981 2.334,-0.992 2.329,-1.003 2.327,-1.009 2.327,-1.017 2.323,-1.022 2.291,-1.073 2.271,-1.132 2.227,-1.175 2.222,-1.179 2.218,-1.185 2.215,-1.191 2.209,-1.199 2.206,-1.209 2.199,-1.215 2.161,-1.253 2.122,-1.29 2.084,-1.328 2.076,-1.335 2.068,-1.341 2.061,-1.348 2.028,-1.385 1.921,-1.448 1.874,-1.46 1.847,-1.468 1.822,-1.483 1.795,-1.489 1.728,-1.502 1.662,-1.515 1.594,-1.522 1.547,-1.528 1.498,-1.525 1.449,-1.525 1.408,-1.526 1.366,-1.526 1.324,-1.527 c -0.006,0 -0.013,-0.002 -0.02,-0.001 -0.062,0.01 -0.125,0.021 -0.183,0.046 -0.014,0.006 -0.029,0.01 -0.045,0.01 0.03,-0.021 0.061,-0.041 0.091,-0.062 0.006,-0.004 0.013,-0.006 0.018,-0.01 0.038,-0.033 0.076,-0.067 0.115,-0.1 0.028,-0.024 0.056,-0.049 0.086,-0.07 0.033,-0.023 0.121,-0.115 0.139,-0.15 C 1.529,-1.873 1.536,-1.88 1.541,-1.888 1.556,-1.914 1.57,-1.94 1.584,-1.966 1.592,-1.983 1.603,-1.999 1.607,-2.017 1.624,-2.079 1.663,-2.135 1.656,-2.204 1.653,-2.23 1.665,-2.257 1.663,-2.284 1.661,-2.323 1.653,-2.362 1.646,-2.401 1.643,-2.415 1.638,-2.431 1.629,-2.442 1.595,-2.484 1.565,-2.534 1.521,-2.563 1.474,-2.596 1.415,-2.62 1.359,-2.628 1.302,-2.636 1.24,-2.637 1.183,-2.611 1.178,-2.609 1.171,-2.61 1.165,-2.608 c -0.017,0.004 -0.038,0.004 -0.051,0.013 -0.042,0.029 -0.083,0.059 -0.119,0.094 -0.028,0.027 -0.051,0.06 -0.072,0.093 -0.026,0.045 -0.048,0.093 -0.072,0.138 -0.009,0.016 -0.02,0.03 -0.03,0.045 -0.003,0.004 -0.007,0.009 -0.012,0.014 0.018,0.006 0.034,0.011 0.052,0.016 0.035,-0.042 0.078,-0.077 0.13,-0.098 0.057,-0.024 0.117,-0.041 0.177,-0.01 0.026,0.014 0.051,-0.004 0.077,0.003 0.009,0.002 0.019,-0.001 0.029,10e-4 0.016,0.002 0.03,0.005 0.032,0.028 0.002,0.02 0.013,0.04 0.022,0.058 0.027,0.053 -0.024,0.121 -0.07,0.134 C 1.244,-2.075 1.23,-2.065 1.218,-2.054 1.186,-2.026 1.155,-1.997 1.122,-1.968 1.092,-1.941 1.061,-1.913 1.03,-1.887 0.993,-1.857 0.955,-1.829 0.917,-1.8 0.895,-1.784 0.874,-1.765 0.85,-1.752 0.804,-1.727 0.755,-1.709 0.71,-1.683 0.661,-1.654 0.607,-1.631 0.567,-1.589 0.541,-1.562 0.51,-1.54 0.482,-1.515 0.463,-1.499 0.445,-1.482 0.426,-1.466 0.411,-1.48 0.394,-1.495 0.378,-1.512 0.375,-1.515 0.373,-1.522 0.374,-1.527 0.389,-1.599 0.403,-1.67 0.419,-1.742 0.421,-1.751 0.427,-1.759 0.431,-1.768 0.441,-1.79 0.451,-1.811 0.46,-1.834 0.475,-1.874 0.491,-1.916 0.506,-1.957 0.524,-2.007 0.541,-2.058 0.559,-2.109 0.562,-2.119 0.566,-2.13 0.57,-2.14 0.597,-2.2 0.627,-2.259 0.651,-2.319 0.667,-2.359 0.676,-2.402 0.687,-2.444 0.697,-2.478 0.707,-2.513 0.715,-2.547 0.725,-2.593 0.733,-2.639 0.742,-2.685 0.747,-2.708 0.753,-2.731 0.755,-2.754 0.758,-2.81 0.757,-2.867 0.76,-2.924 0.763,-3.017 0.766,-3.111 0.773,-3.205 0.777,-3.271 0.775,-3.336 0.754,-3.397 0.74,-3.436 0.713,-3.469 0.692,-3.505 0.686,-3.515 0.68,-3.526 0.674,-3.536 0.668,-3.546 0.664,-3.559 0.655,-3.566 0.604,-3.614 0.557,-3.667 0.485,-3.685 0.469,-3.689 0.456,-3.697 0.441,-3.703 0.434,-3.706 0.427,-3.708 0.419,-3.708 0.364,-3.712 0.309,-3.717 0.255,-3.717 c -0.023,10e-4 -0.046,0.013 -0.069,0.021 -0.1,0.032 -0.176,0.095 -0.235,0.181 -0.021,0.03 -0.039,0.063 -0.055,0.097 -0.007,0.016 -0.009,0.036 -0.009,0.054 0.001,0.058 0.01,0.116 0.005,0.173 -0.006,0.068 0.029,0.118 0.061,0.169 0.035,0.055 0.077,0.106 0.116,0.159 0.007,0.009 0.013,0.017 0.019,0.026 0.001,0 0.002,-10e-4 0.003,-0.002"
             style="fill:#000000;fill-opacity:1;fill-rule:nonzero;stroke:none"
             id="path1929"
             inkscape:connector-curvature="0" />
        </g>
        <g
           id="g1931"
           transform="translate(215.9794,304.451)"
           style="fill:#000000;fill-opacity:1">
          <path
             d="m 0,0 h 0.004 c 0,0.071 0,0.142 0,0.214 0,0.05 -0.01,0.06 -0.061,0.063 -0.006,0 -0.012,0 -0.018,0 -0.2,0 -0.4,0 -0.6,0 C -1.08,0.278 -1.485,0.28 -1.89,0.28 -2.035,0.279 -2.18,0.275 -2.325,0.272 -2.362,0.272 -2.402,0.28 -2.426,0.241 -2.426,0.24 -2.427,0.239 -2.428,0.239 -2.457,0.237 -2.452,0.215 -2.452,0.196 -2.451,0 -2.451,-0.197 -2.45,-0.393 c 0,-0.01 0.001,-0.019 0.004,-0.029 0.023,-0.101 0.026,-0.202 0.001,-0.304 -0.008,-0.033 0.014,-0.067 0.048,-0.066 0.024,0 0.05,0.005 0.07,0.017 0.048,0.03 0.096,0.056 0.152,0.068 0.057,0.012 0.112,0.031 0.167,0.048 0.032,0.01 0.063,0.024 0.096,0.031 0.07,0.013 0.141,0.023 0.213,0.026 0.078,0.003 0.156,0.016 0.235,0.017 0.167,0.003 0.334,0.002 0.501,0.002 0.008,0 0.015,0 0.022,-0.002 0.078,-0.016 0.155,-0.033 0.232,-0.047 0.035,-0.007 0.068,0.008 0.082,0.033 0.027,0.048 0.052,0.096 0.081,0.142 0.014,0.022 0.032,0.042 0.052,0.058 0.039,0.03 0.08,0.06 0.123,0.084 0.036,0.02 0.076,0.039 0.116,0.044 0.076,0.009 0.154,0.009 0.231,0.011 C -0.007,-0.259 0,-0.253 0,-0.236 0,-0.157 0,-0.079 0,0 m -0.618,-0.939 c -0.003,-0.126 -0.006,-0.247 -0.009,-0.364 -0.079,0 -0.152,0 -0.225,10e-4 -0.003,0 -0.006,0 -0.009,-10e-4 -0.063,-0.022 -0.131,-0.013 -0.196,-0.027 -0.046,-0.01 -0.091,-0.025 -0.136,-0.039 -0.017,-0.005 -0.034,-0.012 -0.057,-0.02 10e-4,0.028 -0.003,0.054 0.005,0.075 0.014,0.035 0.011,0.069 0.013,0.104 0.004,0.072 0.006,0.143 0.007,0.215 0,0.016 -0.005,0.033 -0.008,0.052 -0.033,0 -0.067,0.001 -0.101,0 -0.068,0 -0.135,0.003 -0.202,-0.002 -0.059,-0.003 -0.118,-0.011 -0.175,-0.023 -0.106,-0.024 -0.211,-0.05 -0.316,-0.079 -0.094,-0.026 -0.186,-0.06 -0.272,-0.108 -0.056,-0.031 -0.111,-0.064 -0.165,-0.098 -0.032,-0.02 -0.061,-0.044 -0.089,-0.068 -0.034,-0.029 -0.072,-0.041 -0.116,-0.041 -0.038,0.001 -0.077,0 -0.117,0 0.002,0.032 0.006,0.062 0.007,0.091 0.004,0.073 0.006,0.147 0.009,0.22 0.005,0.099 0.013,0.198 0.016,0.297 0.003,0.081 10e-4,0.161 0,0.241 -0.003,0.12 -0.004,0.24 -0.009,0.36 -0.005,0.107 -0.014,0.215 -0.02,0.322 -0.005,0.087 -0.01,0.173 -0.014,0.26 -0.002,0.051 0.054,0.103 0.105,0.102 0.065,-0.001 0.13,0 0.195,0 0.071,0 0.142,0 0.213,0 0.066,0 0.132,0.001 0.199,0.001 0.098,0 0.196,-0.001 0.294,-0.001 0.079,0 0.158,0.001 0.237,0.001 0.113,0 0.226,-0.001 0.339,-0.001 0.065,0 0.129,0.001 0.193,0.001 0.101,-0.001 0.202,-0.002 0.303,-0.002 0.062,0 0.123,0.001 0.185,0.001 0.063,0 0.126,-0.001 0.188,-0.001 0.069,-0.001 0.138,0 0.206,0 0.111,0.001 0.222,0.001 0.333,0.002 0.015,0 0.03,0.003 0.046,0.005 C 0.257,0.506 0.253,0.471 0.246,0.434 0.237,0.39 0.236,0.344 0.235,0.298 c -0.002,-0.08 -0.003,-0.16 0,-0.24 0.004,-0.103 0.011,-0.206 0.02,-0.309 0.005,-0.054 0.016,-0.108 0.024,-0.162 0.001,-0.004 0,-0.008 0,-0.016 C 0.268,-0.429 0.258,-0.43 0.248,-0.43 0.136,-0.429 0.026,-0.443 -0.082,-0.472 -0.193,-0.5 -0.275,-0.566 -0.321,-0.668 -0.343,-0.717 -0.365,-0.766 -0.386,-0.815 -0.396,-0.84 -0.405,-0.866 -0.42,-0.889 -0.427,-0.9 -0.424,-0.916 -0.428,-0.93 -0.431,-0.94 -0.434,-0.954 -0.442,-0.957 -0.448,-0.96 -0.46,-0.951 -0.47,-0.946 c -0.004,0.002 -0.008,0.007 -0.012,0.007 -0.046,0.001 -0.091,0 -0.136,0"
             style="fill:#000000;fill-opacity:1;fill-rule:nonzero;stroke:none"
             id="path1933"
             inkscape:connector-curvature="0" />
        </g>
        <g
           id="g1935"
           transform="translate(215.2789,298.5171)"
           style="fill:#000000;fill-opacity:1">
          <path
             d="m 0,0 c 0,-0.195 0,-0.39 0,-0.585 0.001,-0.146 0.002,-0.292 0.003,-0.438 0.001,-0.093 -0.081,-0.218 -0.208,-0.205 -0.049,0.005 -0.099,10e-4 -0.148,0.008 -0.026,0.003 -0.052,0.017 -0.076,0.03 -0.028,0.016 -0.053,0.037 -0.078,0.057 -0.008,0.006 -0.015,0.016 -0.02,0.026 -0.025,0.055 -0.034,0.114 -0.034,0.175 -0.001,0.12 -0.001,0.24 -0.003,0.36 -0.001,0.095 -0.006,0.19 -0.006,0.285 0.001,0.081 0.01,0.162 0.011,0.242 0.002,0.092 0.011,0.185 -0.002,0.274 -0.019,0.13 -0.007,0.258 -0.011,0.387 -0.004,0.103 -0.002,0.206 0.007,0.308 0.002,0.034 -0.012,0.066 -0.003,0.1 0.002,0.008 0.001,0.017 0.004,0.024 0.009,0.023 0.008,0.045 0.008,0.07 0,0.039 0.015,0.08 0.028,0.118 0.013,0.039 0.031,0.076 0.048,0.113 0.005,0.009 0.013,0.019 0.022,0.024 0.046,0.029 0.096,0.048 0.15,0.055 0.027,0.003 0.053,0.005 0.08,0.008 0.027,0.004 0.049,-0.006 0.071,-0.021 0.02,-0.014 0.043,-0.025 0.063,-0.039 0.009,-0.007 0.017,-0.016 0.023,-0.026 0.031,-0.056 0.053,-0.115 0.068,-0.177 0.001,-0.008 0.002,-0.016 0.002,-0.024 0,-0.265 -0.001,-0.531 -0.001,-0.796 0,-0.118 0,-0.235 0,-0.353 z"
             style="fill:#000000;fill-opacity:1;fill-rule:nonzero;stroke:none"
             id="path1937"
             inkscape:connector-curvature="0" />
        </g>
        <g
           id="g1939"
           transform="translate(215.888,304.6202)"
           style="fill:#000000;fill-opacity:1">
          <path
             d="m 0,0 c 0,-0.058 0.001,-0.112 0,-0.166 -0.001,-0.048 -0.006,-0.097 -0.008,-0.146 0,-0.016 -0.006,-0.021 -0.022,-0.021 -0.044,-0.001 -0.087,-0.003 -0.13,-0.005 -0.062,-0.003 -0.116,-0.03 -0.17,-0.058 -0.053,-0.026 -0.097,-0.064 -0.144,-0.099 -0.031,-0.023 -0.053,-0.052 -0.071,-0.085 -0.019,-0.035 -0.039,-0.069 -0.058,-0.104 -0.006,-0.01 -0.012,-0.014 -0.025,-0.01 -0.067,0.017 -0.134,0.035 -0.202,0.049 -0.029,0.005 -0.059,0.003 -0.089,0.003 -0.151,0.001 -0.301,0.003 -0.452,0 -0.08,-0.001 -0.161,-0.012 -0.241,-0.018 -0.044,-0.004 -0.088,-0.005 -0.132,-0.011 -0.077,-0.01 -0.153,-0.029 -0.227,-0.057 -0.058,-0.022 -0.12,-0.034 -0.18,-0.051 -0.023,-0.007 -0.046,-0.015 -0.072,-0.023 0,0.009 -0.001,0.017 -0.001,0.025 -0.005,0.066 -0.011,0.132 -0.014,0.198 -0.003,0.051 -0.002,0.102 -0.004,0.152 -0.002,0.067 -0.006,0.134 -0.011,0.201 -0.006,0.075 -0.014,0.15 -0.021,0.226 z"
             style="fill:#000000;fill-opacity:1;fill-rule:nonzero;stroke:none"
             id="path1941"
             inkscape:connector-curvature="0" />
        </g>
      </g>
    </g>
  </g>
</svg>
