<?xml version="1.0" encoding="UTF-8" standalone="no"?>
<!-- Created with Inkscape (http://www.inkscape.org/) -->

<svg
   xmlns:dc="http://purl.org/dc/elements/1.1/"
   xmlns:cc="http://creativecommons.org/ns#"
   xmlns:rdf="http://www.w3.org/1999/02/22-rdf-syntax-ns#"
   xmlns:svg="http://www.w3.org/2000/svg"
   xmlns="http://www.w3.org/2000/svg"
   xmlns:sodipodi="http://sodipodi.sourceforge.net/DTD/sodipodi-0.dtd"
   xmlns:inkscape="http://www.inkscape.org/namespaces/inkscape"
   width="215"
   height="215"
   viewBox="0 0 56.885415 56.885419"
   version="1.1"
   id="svg8"
   inkscape:version="0.92.3 (2405546, 2018-03-11)"
   sodipodi:docname="greywater_fastness.svg">
  <defs
     id="defs2" />
  <sodipodi:namedview
     id="base"
     pagecolor="#ffffff"
     bordercolor="#666666"
     borderopacity="1.0"
     inkscape:pageopacity="0.0"
     inkscape:pageshadow="2"
     inkscape:zoom="0.98994949"
     inkscape:cx="426.34638"
     inkscape:cy="256.66859"
     inkscape:document-units="px"
     inkscape:current-layer="layer1"
     showgrid="false"
     units="px"
     fit-margin-top="0"
     fit-margin-left="0"
     fit-margin-right="0"
     fit-margin-bottom="0"
     inkscape:window-width="1920"
     inkscape:window-height="1017"
     inkscape:window-x="-8"
     inkscape:window-y="-8"
     inkscape:window-maximized="1" />
  <metadata
     id="metadata5">
    <rdf:RDF>
      <cc:Work
         rdf:about="">
        <dc:format>image/svg+xml</dc:format>
        <dc:type
           rdf:resource="http://purl.org/dc/dcmitype/StillImage" />
        <dc:title></dc:title>
      </cc:Work>
    </rdf:RDF>
  </metadata>
  <g
     inkscape:label="Layer 1"
     inkscape:groupmode="layer"
     id="layer1"
     transform="translate(85.583108,-143.18309)">
    <path
       style="fill:#000000;stroke-width:0.10743134"
       d="m -70.477139,199.75789 c -0.09294,-0.24918 0.279962,-1.67068 0.688826,-2.62579 0.219248,-0.51217 0.447508,-1.09997 0.507245,-1.30622 0.05974,-0.20626 0.231519,-0.63006 0.381736,-0.94179 0.301826,-0.62634 0.28141,-1.01499 -0.06323,-1.20362 -0.115859,-0.0634 -0.609845,-0.16902 -1.097746,-0.23469 -0.510884,-0.0688 -1.152964,-0.24156 -1.514007,-0.40747 l -0.626914,-0.28807 0.0714,-0.48685 c 0.05371,-0.36624 0.17479,-0.59305 0.48871,-0.91549 0.229522,-0.23574 0.572186,-0.64472 0.761475,-0.90885 0.189288,-0.26412 0.514011,-0.69619 0.721606,-0.96014 0.207596,-0.26396 0.45846,-0.60002 0.557475,-0.74681 0.09902,-0.1468 0.26337,-0.38698 0.365228,-0.53375 0.10186,-0.14677 0.420186,-0.69976 0.707392,-1.22887 1.050275,-1.93489 1.408675,-2.56863 1.541138,-2.72514 0.283087,-0.33447 1.028135,-1.83391 1.050498,-2.11417 0.0269,-0.33712 -0.180082,-1.03893 -0.41523,-1.40791 -0.141144,-0.22148 -0.235276,-0.25025 -0.760438,-0.23242 -1.559072,0.0529 -1.542684,0.0589 -2.085024,-0.75172 -0.566214,-0.84626 -0.597014,-1.13203 -0.205738,-1.90893 0.348953,-0.69286 0.343885,-1.03802 -0.03027,-2.06156 -0.169364,-0.46331 -0.369224,-1.06052 -0.444133,-1.32713 -0.116151,-0.41339 -0.212689,-0.52693 -0.655834,-0.7713 -0.2858,-0.15761 -0.561209,-0.35358 -0.612021,-0.4355 -0.133891,-0.21585 -0.100808,-1.86494 0.04362,-2.17419 0.07441,-0.15932 0.305353,-0.33058 0.586523,-0.43494 0.255084,-0.0947 0.52207,-0.24104 0.593301,-0.32525 0.165552,-0.19571 0.661576,-2.19983 0.666198,-2.69169 0.0039,-0.42018 -0.122448,-0.71933 -0.47153,-1.11599 -0.319153,-0.36265 -0.382083,-0.6932 -0.246794,-1.29633 0.151069,-0.67349 0.777144,-1.13384 1.74655,-1.28423 0.370012,-0.0574 0.782426,-0.12424 0.916477,-0.14852 0.258984,-0.0469 1.68757,-1.40846 2.208717,-2.10507 0.327065,-0.43717 0.390543,-0.79291 0.204837,-1.14788 -0.08707,-0.16643 -0.05647,-0.30997 0.140486,-0.65894 0.545758,-0.96697 1.548947,-1.21001 2.455643,-0.59491 0.609125,0.41323 1.052872,0.42535 2.255579,0.0616 1.988222,-0.60131 2.333111,-0.80095 2.73732,-1.58453 0.191343,-0.37093 0.515931,-0.46333 1.599155,-0.45525 0.909326,0.007 1.109231,0.12086 1.311058,0.74813 0.209545,0.65128 0.588961,0.97098 1.544595,1.30149 0.941935,0.32577 1.566851,0.30989 2.704253,-0.0687 l 0.953398,-0.31737 0.541624,0.23906 c 0.297891,0.13148 0.595835,0.34156 0.662097,0.46684 0.06626,0.12528 0.134553,0.61469 0.151757,1.08757 0.03796,1.04328 0.169899,1.32264 1.071052,2.26762 0.794684,0.83333 1.18741,1.03041 2.069961,1.0387 0.604163,0.006 0.669207,0.0316 1.013065,0.40308 0.415931,0.4494 0.560156,0.77048 0.555771,1.23726 -0.0037,0.39694 -0.146844,0.6725 -0.617578,1.1891 -0.410271,0.45025 -0.463267,0.82387 -0.216829,1.52862 0.08293,0.23714 0.151574,0.60038 0.152553,0.8072 8.12e-4,0.20682 0.05197,0.56361 0.113305,0.79286 0.09514,0.35556 0.186397,0.44927 0.62101,0.63772 0.280216,0.12151 0.567395,0.31562 0.638176,0.43136 0.230903,0.37759 0.152026,1.16931 -0.184484,1.85167 -0.267828,0.54309 -0.371965,0.65122 -0.742569,0.77107 -0.533532,0.17253 -0.658365,0.33082 -0.759205,0.96272 -0.08343,0.52283 -0.580471,1.53205 -0.938959,1.90653 -0.273277,0.28547 -0.300778,1.13271 -0.04382,1.34992 0.304623,0.25749 0.462743,0.78628 0.34932,1.16819 -0.103178,0.34741 -1.176597,1.63456 -1.507524,1.80768 -0.0995,0.0521 -0.390585,0.0533 -0.652997,0.003 -0.512978,-0.0988 -1.023187,0.0575 -1.487652,0.45574 -0.414132,0.35508 -0.284114,1.33777 0.271267,2.05027 0.17087,0.21921 0.390111,0.65011 0.487203,0.95755 0.152042,0.48145 0.969375,2.13592 1.476364,2.98851 0.08834,0.14855 0.252159,0.48851 0.364052,0.75547 0.279818,0.66762 0.354525,0.79351 1.318784,2.22228 0.466231,0.69082 0.976266,1.46867 1.133415,1.72854 l 0.28573,0.4725 -0.245918,0.18935 c -0.396392,0.3052 -1.268585,0.64552 -1.827889,0.71321 -0.559774,0.0678 -0.889941,0.30941 -1.000262,0.73211 -0.11599,0.44441 0.602404,2.52579 1.528418,4.42823 0.465407,0.95616 0.512922,1.28662 0.207941,1.44618 -0.156605,0.0819 -0.322619,0.0426 -0.710435,-0.1683 -0.640723,-0.34844 -1.355174,-0.8485 -1.544494,-1.08103 -0.08036,-0.0987 -0.317697,-0.26983 -0.527429,-0.3803 -0.379477,-0.19989 -1.492963,-1.06972 -2.070153,-1.61716 -0.166525,-0.15794 -0.41734,-0.51701 -0.557375,-0.79794 -0.140031,-0.28093 -0.364469,-0.58425 -0.49875,-0.67405 -0.134282,-0.0898 -0.528335,-0.56096 -0.875678,-1.04703 -0.347342,-0.48606 -0.77755,-1.05912 -0.956016,-1.27346 -0.580235,-0.69688 -1.091102,-1.47237 -1.161002,-1.76239 -0.09688,-0.40195 0.249341,-0.5817 1.243184,-0.64542 0.755141,-0.0484 2.308713,-0.36602 2.573159,-0.52604 0.289989,-0.17548 0.03894,-1.29045 -0.413539,-1.83663 -0.09867,-0.11911 -0.466804,-0.76663 -0.818069,-1.43893 -0.351265,-0.67231 -0.796524,-1.40899 -0.989466,-1.63708 -0.192942,-0.22809 -0.440187,-0.54617 -0.549432,-0.70685 -0.109249,-0.16068 -0.365018,-0.3635 -0.568379,-0.45073 -0.327698,-0.14055 -0.457533,-0.13863 -1.141735,0.0169 -1.042346,0.23691 -1.232204,0.34547 -1.800656,1.02955 -0.268946,0.32366 -0.610319,0.63758 -0.758608,0.6976 -0.368114,0.149 -1.966752,0.0805 -2.171774,-0.093 -0.08958,-0.0758 -0.222477,-0.35874 -0.295333,-0.6287 -0.07294,-0.27026 -0.233186,-0.55551 -0.356593,-0.63476 -0.123271,-0.0791 -0.710229,-0.20621 -1.304349,-0.28234 -1.298847,-0.16645 -1.67272,-0.0622 -2.159089,0.60201 -0.172961,0.23621 -0.585245,0.78152 -0.916187,1.21179 -1.424648,1.85228 -2.125604,3.5643 -1.718818,4.19804 0.206208,0.32126 1.122979,0.50637 2.430278,0.49071 0.570594,-0.007 1.004279,0.0409 1.15574,0.12705 l 0.24243,0.13799 -0.355277,0.43783 c -0.195403,0.24081 -0.605803,0.70615 -0.912001,1.03409 -0.306198,0.32794 -0.697343,0.79343 -0.869209,1.03443 -0.171866,0.24099 -0.605823,0.78524 -0.964348,1.20944 -0.358525,0.42419 -0.720764,0.87836 -0.804975,1.00926 -0.08421,0.1309 -0.282306,0.31054 -0.44021,0.39921 -0.157904,0.0887 -0.704974,0.6361 -1.215713,1.21654 -0.510737,0.58043 -1.240152,1.35118 -1.62092,1.71278 -0.380769,0.3616 -0.755353,0.73276 -0.83241,0.82481 -0.169062,0.20195 -0.762082,0.21722 -0.835083,0.0215 z m 15.597542,-18.51543 c 0.326039,-0.11126 0.671379,-0.20313 0.767415,-0.20416 0.333915,-0.004 1.799885,-0.72534 2.430075,-1.19645 0.855497,-0.63954 2.680585,-2.42939 3.250717,-3.18796 0.929774,-1.23706 1.506371,-3.26547 1.515377,-5.33094 0.0046,-1.05544 -0.03549,-1.35718 -0.271515,-2.04384 -0.152305,-0.44307 -0.313552,-0.97515 -0.35833,-1.18238 -0.114913,-0.53185 -0.899853,-2.0853 -1.414411,-2.79922 -0.890148,-1.23503 -1.536974,-1.78141 -2.900938,-2.45043 -0.745863,-0.36585 -1.714787,-0.74001 -2.347644,-0.90658 -0.972851,-0.25606 -1.203,-0.27802 -2.367388,-0.2259 -1.644055,0.0736 -2.832803,0.27719 -3.53582,0.60562 -0.305183,0.14257 -0.786144,0.33889 -1.068801,0.43627 -0.679626,0.23413 -1.505611,0.79494 -2.255677,1.53152 -0.834986,0.81996 -2.235325,2.86751 -2.397211,3.50516 -0.07073,0.27859 -0.164969,0.55454 -0.209419,0.61322 -0.260372,0.34368 -0.677902,1.65953 -0.786282,2.47797 -0.149705,1.13053 -0.08343,2.03219 0.197206,2.68309 0.112651,0.26127 0.328523,0.94654 0.479717,1.52282 0.234181,0.89259 0.341727,1.12041 0.72608,1.53813 0.892735,0.97022 1.621148,1.80054 2.065163,2.35409 0.248643,0.30998 0.701454,0.7452 1.006246,0.96716 0.304793,0.22195 0.69767,0.56708 0.873062,0.76694 0.30946,0.35263 0.356987,0.36804 1.606648,0.52067 0.708266,0.0865 1.98867,0.16858 2.845343,0.18239 1.283619,0.0207 1.661857,-0.0105 2.150387,-0.17719 z m -3.628263,-2.61425 c -0.680703,-0.11651 -1.289349,-0.31072 -2.195856,-0.70065 -0.691453,-0.29743 -1.450176,-1.04545 -1.645056,-1.62185 -0.09677,-0.28621 -0.07208,-0.34665 0.265171,-0.64915 1.03135,-0.92511 1.691456,-1.34181 2.119223,-1.33779 0.147685,0.001 0.49127,0.27751 0.941049,0.75627 0.900129,0.95814 1.402503,1.19801 2.557659,1.22123 1.338536,0.0269 1.63523,-0.28531 1.648853,-1.73518 0.0077,-0.8162 -8.12e-4,-0.83059 -0.959123,-1.62449 -0.837118,-0.6935 -2.190237,-0.87967 -3.965311,-0.54556 -0.949523,0.17873 -1.182485,0.0951 -1.743286,-0.62561 -0.944595,-1.21397 -0.92891,-2.91998 0.0417,-4.54118 0.553452,-0.92437 1.178895,-1.46191 2.358926,-2.02738 1.002552,-0.48039 1.171489,-0.52807 1.848744,-0.52171 0.936429,0.009 1.737181,0.22115 2.279325,0.60445 0.530751,0.37524 1.480149,0.68285 2.555338,0.82794 1.011482,0.1365 1.180025,0.1974 1.259129,0.455 0.08089,0.26345 -0.29448,0.83197 -1.19897,1.81588 -1.344288,1.46233 -1.320539,1.45918 -2.914618,0.38694 -1.190654,-0.80088 -1.836948,-1.07749 -2.537598,-1.08607 -0.928841,-0.0114 -1.478181,0.66722 -1.489197,1.83959 -0.0074,0.79153 0.07922,0.91661 0.706032,1.01909 0.226511,0.037 0.505949,0.11687 0.620974,0.17743 0.115024,0.0606 0.535623,0.10363 0.934667,0.0957 1.478657,-0.0293 2.66534,0.37645 3.979963,1.36076 l 0.6774,0.50719 0.297635,1.08557 0.297636,1.08557 -0.186373,0.86047 c -0.237655,1.09724 -0.683117,1.64996 -1.854245,2.30074 -0.713267,0.39635 -0.950319,0.47 -1.768078,0.54929 -1.607986,0.15592 -2.319362,0.17229 -2.931716,0.0675 z m -24.285559,-5.18441 c -2.048945,-0.12132 -2.415418,-0.20162 -2.412346,-0.52855 0.0031,-0.33239 0.22823,-0.42682 1.299542,-0.54516 0.559082,-0.0618 1.259029,-0.19594 1.555439,-0.29819 0.29641,-0.10225 0.889695,-0.30993 1.31841,-0.46151 0.428717,-0.15158 0.946442,-0.27403 1.150501,-0.27211 0.563545,0.005 0.922334,-0.16989 1.044491,-0.51 0.06028,-0.16783 0.247539,-0.40513 0.416129,-0.52735 0.25354,-0.18379 0.320184,-0.32999 0.385512,-0.84575 0.0806,-0.63632 0.223901,-1.3567 0.619861,-3.11606 0.195032,-0.86657 0.598184,-1.88276 1.17852,-2.97058 0.0941,-0.17639 0.445672,-0.84993 0.781275,-1.49677 0.335601,-0.64683 0.781507,-1.41618 0.990903,-1.70966 0.611337,-0.85684 1.626009,-2.14335 1.806099,-2.28997 0.177982,-0.14492 0.232561,-0.70226 0.0783,-0.79961 -0.05134,-0.0324 -0.21871,-0.31481 -0.371932,-0.62759 -0.153223,-0.31278 -0.444792,-0.83615 -0.647932,-1.16305 -0.203141,-0.32691 -0.498045,-0.81314 -0.655344,-1.08052 -0.157299,-0.26738 -0.470775,-0.72675 -0.696613,-1.02083 -0.475301,-0.61891 -0.919746,-1.47288 -1.030338,-1.97972 -0.09854,-0.45161 0.118609,-0.69876 0.521551,-0.59359 0.331986,0.0867 1.067484,0.57861 1.363207,0.91183 0.115974,0.13069 0.385342,0.32874 0.598595,0.44011 0.213252,0.11139 0.416464,0.27954 0.451581,0.3737 0.03512,0.0941 0.236938,0.24541 0.448491,0.33615 0.211552,0.0907 0.777154,0.42561 1.256892,0.74416 1.868622,1.24079 1.910314,1.26326 2.352011,1.26741 0.463588,0.004 0.999569,-0.26088 2.03086,-1.00499 0.336056,-0.24247 0.9192,-0.5606 1.295875,-0.70695 1.706621,-0.66305 2.164874,-0.81493 2.450823,-0.81224 0.168387,0.002 0.610811,-0.0913 0.983165,-0.20641 0.372352,-0.11511 1.020379,-0.2366 1.44006,-0.26997 0.41968,-0.0334 0.884474,-0.11964 1.032876,-0.19169 0.148401,-0.072 0.487694,-0.16445 0.753982,-0.20535 0.804818,-0.12359 1.401686,-0.53397 1.405751,-0.96653 0.0013,-0.13403 0.09531,-0.40271 0.208996,-0.59707 0.113689,-0.19435 0.242313,-0.59476 0.285831,-0.8898 0.04352,-0.29504 0.172523,-0.74435 0.286679,-0.99847 0.193774,-0.43134 0.674513,-2.55617 0.83186,-3.67675 0.04541,-0.32339 0.159095,-0.57765 0.327833,-0.73321 l 0.258319,-0.23815 0.111053,0.41503 c 0.06108,0.22827 0.110279,0.52621 0.109331,0.66208 -9.75e-4,0.13588 0.07135,0.39167 0.160659,0.56843 0.08931,0.17676 0.206995,0.74353 0.261523,1.2595 0.05453,0.51596 0.166753,1.23192 0.249392,1.59101 0.08264,0.35909 0.145953,1.11038 0.140699,1.66953 -0.01064,1.13148 0.08459,1.37297 0.662218,1.67942 0.248213,0.13168 0.580511,0.17764 1.221705,0.16899 1.591298,-0.0215 4.085669,0.72167 6.851806,2.04137 0.185369,0.0884 0.381596,0.16121 0.436058,0.16172 0.05446,4.1e-4 0.501009,0.30123 0.992325,0.66827 1.144833,0.85523 1.371094,0.87292 2.395074,0.18719 0.406035,-0.27191 0.798274,-0.49382 0.871641,-0.49313 0.07337,8.1e-4 0.324868,-0.15546 0.558893,-0.34699 0.234021,-0.19154 0.717042,-0.53751 1.073378,-0.76883 0.725151,-0.47074 1.643251,-1.13418 1.900965,-1.37368 0.197384,-0.18344 0.422784,-0.03 0.419816,0.28583 -0.0024,0.24527 -0.39679,0.91808 -0.774151,1.32033 -0.164848,0.17572 -0.500789,0.73241 -0.746536,1.23708 -0.258867,0.53162 -0.702348,1.20532 -1.054315,1.60163 -0.589261,0.66351 -1.035941,1.45498 -1.183155,2.09641 -0.05463,0.23801 -0.0037,0.41433 0.214231,0.739 0.157283,0.23452 0.396692,0.73844 0.532021,1.11983 0.259703,0.7319 0.75028,1.60393 1.161197,2.0641 0.135353,0.15158 0.359458,0.61945 0.498011,1.03973 0.138553,0.42028 0.325766,0.87921 0.416029,1.01986 0.369817,0.57627 1.429694,3.85629 1.726107,5.34182 0.10624,0.53246 0.246742,1.07053 0.312224,1.19569 0.147319,0.2816 1.77605,0.83982 2.795486,0.95811 0.383667,0.0445 1.059313,0.17232 1.501437,0.28401 0.442125,0.11169 1.129818,0.23871 1.528204,0.28226 0.56686,0.062 0.758709,0.12925 0.882442,0.30949 0.08696,0.12666 0.12197,0.26447 0.07781,0.30624 -0.236502,0.22369 -4.343305,0.71101 -6.74814,0.80075 -2.947641,0.11 -3.057637,0.10565 -3.372314,-0.13344 -0.272538,-0.20708 -0.278178,-0.23991 -0.329794,-1.91898 -0.05859,-1.90608 -0.144014,-2.3199 -1.064319,-5.15576 -0.503802,-1.55244 -1.011928,-2.73296 -1.36971,-3.18224 -0.07112,-0.0893 -0.247737,-0.38104 -0.392494,-0.6483 -0.348938,-0.64425 -0.881135,-1.54893 -1.302843,-2.21468 -0.188265,-0.29722 -0.414372,-0.68764 -0.502454,-0.86759 -0.162311,-0.3316 -0.715633,-0.87563 -1.846502,-1.81548 -0.342893,-0.28497 -0.797844,-0.66409 -1.011007,-0.84248 -0.519377,-0.43467 -1.056162,-0.65224 -1.622315,-0.65756 -0.360454,-0.003 -0.525602,-0.0667 -0.717923,-0.27533 -0.137383,-0.14902 -0.360551,-0.27198 -0.495937,-0.27325 -0.135381,-0.001 -0.813927,-0.21031 -1.507869,-0.46453 l -1.261719,-0.46221 -3.327445,-0.0728 c -3.14813,-0.0688 -3.371109,-0.0608 -4.137699,0.14993 -2.060494,0.5663 -3.010116,0.88904 -3.559147,1.2096 -0.326787,0.19079 -0.739502,0.37937 -0.917145,0.41905 -0.177642,0.0397 -0.435795,0.14118 -0.573673,0.22556 -0.137878,0.0844 -0.458106,0.21372 -0.711617,0.28743 -0.562493,0.16353 -1.566378,0.87476 -1.97807,1.40141 -0.530423,0.67853 -1.324484,1.55437 -2.304176,2.5415 -0.52293,0.52689 -1.178361,1.22719 -1.456513,1.55622 -0.515473,0.60975 -1.403119,2.32471 -1.529426,2.95489 -0.03842,0.19168 -0.17254,0.56842 -0.298046,0.8372 -0.234954,0.50317 -0.351411,1.19712 -0.574812,3.42518 -0.168208,1.67762 -0.200379,2.80527 -0.09376,3.28645 0.07345,0.33148 0.04674,0.43198 -0.185112,0.6966 l -0.270942,0.30923 -3.1518,-0.0162 c -1.733489,-0.009 -4.021548,-0.0678 -5.084573,-0.13069 z m 47.676883,-10.09546 c -0.305005,-0.28483 -0.392157,-0.4579 -0.433809,-0.86146 -0.121998,-1.18207 1.098752,-1.81035 2.402988,-1.23673 l 0.502649,0.22108 -0.07944,0.72297 c -0.04369,0.39763 -0.103926,0.80494 -0.133847,0.90513 -0.09738,0.32605 -0.726604,0.61627 -1.32397,0.61065 -0.475192,-0.004 -0.606525,-0.0553 -0.934573,-0.36164 z m -46.071364,-1.1848 c -0.514169,-0.45075 -0.441907,-1.81234 0.115126,-2.16925 0.258999,-0.16595 1.28172,-0.33592 1.659448,-0.27578 0.50116,0.0798 0.761482,1.249 0.398827,1.7913 -0.259712,0.38836 -1.144562,0.90867 -1.538995,0.90496 -0.211234,-0.002 -0.464485,-0.10227 -0.634406,-0.25123 z m 34.489435,-11.7272 c -0.201802,-0.20563 -0.260146,-0.37882 -0.256552,-0.76153 0.0052,-0.5514 0.119818,-0.82517 0.523438,-1.25005 0.378189,-0.39812 0.779109,-0.45968 1.338213,-0.2055 0.611752,0.27813 0.761186,0.48718 0.747495,1.04567 -0.01584,0.64508 -0.165153,0.86465 -0.799789,1.17598 -0.706679,0.34667 -1.20956,0.34519 -1.552805,-0.005 z m -19.379732,-0.80867 c -0.396387,-0.204 -0.528335,-1.0052 -0.243857,-1.48071 0.337893,-0.56479 0.723801,-0.78175 1.39082,-0.78192 0.490993,-1.3e-4 0.632691,0.0454 0.859069,0.27587 0.507196,0.51643 0.240909,1.80167 -0.419551,2.02497 -0.444975,0.15044 -1.257964,0.13087 -1.586481,-0.0382 z"
       id="path842"
       inkscape:connector-curvature="0"
       sodipodi:nodetypes="cccccccccccsccsccccccccccsccccsccccscccccsscscccccccccccscccccscccccccccccsccccccccsccscccsscccccccccccccccsccccccccccccccccccccsccsscssccccccccccsccccccccccccccsscccccccccsccccccsscccssccccccccscsccccccscccscscscccccscccsccccccccccsccccccscsccccscccsccscccccccccccscccsssccccscccscccccccccccccccccccccsccccscscc" />
  </g>
</svg>
