<?xml version="1.0" encoding="UTF-8" standalone="no"?>
<!-- Generator: Adobe Illustrator 23.0.4, SVG Export Plug-In  -->

<svg
   xmlns:dc="http://purl.org/dc/elements/1.1/"
   xmlns:cc="http://creativecommons.org/ns#"
   xmlns:rdf="http://www.w3.org/1999/02/22-rdf-syntax-ns#"
   xmlns:svg="http://www.w3.org/2000/svg"
   xmlns="http://www.w3.org/2000/svg"
   xmlns:sodipodi="http://sodipodi.sourceforge.net/DTD/sodipodi-0.dtd"
   xmlns:inkscape="http://www.inkscape.org/namespaces/inkscape"
   version="1.1"
   x="0px"
   y="0px"
   width="254.94701"
   height="254.94701"
   viewBox="0 0 254.94701 254.94701"
   xml:space="preserve"
   id="svg30"
   sodipodi:docname="cypher_lords.svg"
   inkscape:version="0.92.3 (2405546, 2018-03-11)"><metadata
   id="metadata34"><rdf:RDF><cc:Work
       rdf:about=""><dc:format>image/svg+xml</dc:format><dc:type
         rdf:resource="http://purl.org/dc/dcmitype/StillImage" /><dc:title /></cc:Work></rdf:RDF></metadata><sodipodi:namedview
   pagecolor="#ffffff"
   bordercolor="#666666"
   borderopacity="1"
   objecttolerance="10"
   gridtolerance="10"
   guidetolerance="10"
   inkscape:pageopacity="0"
   inkscape:pageshadow="2"
   inkscape:window-width="1920"
   inkscape:window-height="1017"
   id="namedview32"
   showgrid="false"
   fit-margin-top="0"
   fit-margin-left="0"
   fit-margin-right="0"
   fit-margin-bottom="0"
   inkscape:zoom="0.96709421"
   inkscape:cx="-379.71947"
   inkscape:cy="122.055"
   inkscape:window-x="-8"
   inkscape:window-y="-8"
   inkscape:window-maximized="1"
   inkscape:current-layer="svg30" />
<defs
   id="defs2">
</defs>
<g
   id="g28"
   transform="translate(9.9837729e-5,5.4385031)"
   style="fill:#000000;fill-opacity:1">
    <g
   id="g26"
   style="fill:#000000;fill-opacity:1">
        <path
   d="m 123.5,244.03 c -1.38,-1.55 -1.87,-3.26 -1.51,-5.39 0.45,-2.62 0.13,-5.24 -0.71,-7.8 -0.26,-0.79 -0.1,-1.72 -0.1,-2.59 -0.01,-1.19 0.03,-2.39 0.01,-3.58 -0.06,-4.55 -1.23,-8.88 -2.33,-13.26 -1.03,-4.08 -1.11,-8.39 -1.85,-12.55 -1.13,-6.28 -2.48,-12.52 -3.72,-18.78 -0.14,-0.7 -0.22,-1.42 -0.23,-2.12 -0.01,-1.2 -0.02,-2.41 0.11,-3.59 0.72,-6.55 -0.93,-12.68 -3.22,-18.7 -0.58,-1.53 -1.18,-3.05 -1.73,-4.59 -0.1,-0.29 -0.01,-0.65 -0.01,-0.98 0.32,0.06 0.76,0 0.94,0.19 1.52,1.66 3.4,2.09 5.56,1.86 0.46,-0.05 0.99,0.26 1.43,0.51 1.39,0.79 2.84,1.1 4.46,1.1 3.43,-0.01 6.75,-0.38 9.95,-1.75 1.49,-0.64 3.14,-0.89 4.72,-1.33 1.49,-0.41 2.97,-0.86 4.46,-1.25 0.29,-0.08 0.63,0.02 1.21,0.05 -0.26,0.6 -0.35,1.19 -0.69,1.51 -1.25,1.17 -1.91,2.66 -2.74,4.12 -2.57,4.51 -3.52,9.56 -5.25,14.35 -0.25,0.68 0.02,1.53 -0.05,2.3 -0.07,0.78 -0.22,1.55 -0.39,2.32 -0.16,0.74 -0.48,1.47 0.36,2.05 0.13,0.09 0.11,0.5 0.07,0.74 -0.99,5.98 -2.07,11.95 -2.97,17.94 -0.55,3.66 -0.65,7.39 -1.27,11.04 -0.5,2.98 -1.48,5.87 -2.22,8.81 -1.21,4.81 -1.47,9.7 -0.97,14.63 0.42,4.06 -0.38,8.05 -0.73,12.06 -0.08,0.91 -0.25,1.81 -0.37,2.72 -0.06,-0.04 -0.14,-0.04 -0.22,-0.04 z"
   id="path4"
   inkscape:connector-curvature="0"
   style="fill:#000000;fill-opacity:1" />
        <path
   d="m 189.95,101.28 c 0.04,1.32 -0.01,2.47 1.43,2.72 0.03,0.01 0.07,0.05 0.08,0.08 0.37,0.88 0.74,1.73 1.76,2.11 0.89,0.33 1.73,0.79 2.7,1.25 -0.5,0.92 0.2,1.26 0.86,1.57 1.04,0.48 1.82,1.03 1.86,2.36 0.01,0.44 0.64,1.02 1.12,1.25 1.88,0.93 3.83,0.88 5.6,-0.23 0.58,-0.36 1.04,-1.21 1.17,-1.91 0.25,-1.36 0.23,-2.77 0.33,-4.16 3.41,0.57 6.78,1.13 10.16,1.68 0.55,0.09 1.1,0.18 1.66,0.2 4.08,0.11 8.16,0.15 12.23,0.33 1.54,0.07 3.18,0.18 4.58,0.76 2.95,1.21 6,1.59 9.12,1.75 0.51,0.03 0.99,0.38 1.49,0.56 0.7,0.24 1.41,0.6 2.13,0.66 1.71,0.14 3.44,0.09 5.15,0.22 0.54,0.04 1.32,0.29 1.52,0.68 0.29,0.58 -0.83,1.64 -1.64,1.71 -0.4,0.03 -0.8,0.04 -1.2,0 -4.99,-0.48 -9.88,0.32 -14.77,1.19 -4.91,0.87 -9.94,1.34 -14.72,2.67 -7.34,2.04 -14.79,3.28 -22.29,4.4 -1.25,0.19 -2.46,0.66 -3.7,0.96 -0.53,0.13 -1.12,0.23 -1.64,0.14 -0.41,-0.07 -0.77,-0.46 -1.15,-0.7 0.25,-0.3 0.57,-0.58 0.75,-0.92 0.26,-0.49 0.66,-1.07 0.57,-1.53 -0.31,-1.6 -0.73,-3.2 -1.26,-4.74 -0.65,-1.87 -2.27,-2.53 -4.05,-1.63 -1.18,0.6 -2.08,0.54 -3.02,-0.38 -1.19,-1.17 -2.41,-2.31 -3.67,-3.39 -0.43,-0.37 -1.02,-0.62 -1.58,-0.8 -1.59,-0.51 -3.23,-0.9 -4.8,-1.47 -0.92,-0.34 -1.76,-0.91 -2.63,-1.4 -1.3,-0.74 -2.55,-1.59 -3.9,-2.23 -2.24,-1.05 -4.5,-2.08 -6.83,-2.92 -4.5,-1.62 -9.01,-3.22 -13.59,-4.6 -1.68,-0.51 -3.58,-0.27 -5.33,-0.59 -2.9,-0.53 -5.8,-1.14 -8.63,-1.93 -1.13,-0.32 -2.31,-1.04 -3.08,-1.91 -1.41,-1.61 -2.62,-3.42 -3.74,-5.26 -0.45,-0.74 -0.5,-1.75 -0.6,-2.66 -0.03,-0.25 0.35,-0.67 0.64,-0.8 1.98,-0.95 3.93,-0.7 5.9,0.16 0.93,0.41 1.97,0.83 2.96,0.83 6.04,-0.02 11.93,0.97 17.8,2.26 1.25,0.27 2.52,0.56 3.78,0.55 1.71,-0.01 3.18,0.55 4.67,1.26 4.51,2.13 9.11,4.1 13.56,6.35 2.04,1.03 3.85,2.53 5.68,3.92 0.4,0.3 0.64,1.07 0.62,1.62 -0.08,1.92 0.6,2.48 2.5,2.24 1.28,-0.16 2.3,-0.39 2.72,-1.76 0.02,-0.18 0.32,-0.26 0.72,-0.52 z"
   id="path6"
   inkscape:connector-curvature="0"
   style="fill:#000000;fill-opacity:1" />
        <path
   d="m 0,113.42 c 0.39,-0.23 0.77,-0.62 1.19,-0.67 2.1,-0.25 4.21,-0.41 6.31,-0.62 0.31,-0.03 0.79,-0.03 0.9,-0.22 0.61,-1.09 1.69,-0.96 2.63,-1.03 6.31,-0.47 12.33,-1.98 18.23,-4.28 3.05,-1.19 6.44,-1.48 9.66,-2.27 2.48,-0.61 4.94,-1.3 7.36,-2.1 0.95,-0.31 1.78,-1.01 2.81,-1.62 0.04,0.06 0.29,0.39 0.33,0.46 -0.58,1.33 -1.15,2.43 -1.53,3.59 -0.32,0.98 0.31,1.37 1.23,1.35 0.4,-0.01 0.8,-0.01 1.19,-0.08 1.52,-0.3 3.05,-0.57 4.56,-0.95 0.68,-0.17 1.36,-0.49 1.95,-0.88 2.69,-1.78 5.33,-3.63 8.01,-5.43 0.42,-0.28 0.9,-0.55 1.39,-0.66 3.17,-0.77 6.18,-1.86 8.77,-3.93 0.34,-0.27 0.76,-0.43 1.16,-0.62 1.73,-0.83 1.73,-0.82 2.89,0.63 0.95,1.19 2.31,1.26 3.24,0.05 0.93,-1.21 2.14,-1.94 3.57,-2.25 7.37,-1.63 14.73,-3.26 22.12,-4.79 1.78,-0.37 3.65,-0.36 5.47,-0.58 0.7,-0.08 1.4,-0.28 2.08,-0.51 2.49,-0.84 4.97,-1.72 7.77,-2.7 -0.29,0.88 -0.41,1.54 -0.71,2.1 -1.28,2.35 -2.58,4.69 -3.95,6.99 -0.66,1.11 -1.76,1.95 -1.89,3.39 -0.02,0.24 -0.65,0.57 -1.02,0.61 -5.79,0.65 -11.55,1.47 -17.3,2.5 -4.16,0.74 -8.16,2.16 -12.35,2.65 -4.19,0.5 -8,2.07 -11.74,3.92 -0.81,0.4 -1.73,0.59 -2.61,0.85 -4.82,1.42 -8.89,4.13 -12.62,7.4 -1.36,1.19 -3.08,2.08 -3.64,4.02 -0.02,0.07 -0.08,0.14 -0.14,0.19 -1.74,1.79 -1.73,2.08 0,3.92 0.44,0.47 0.95,0.88 1.28,1.42 0.2,0.33 0.11,0.83 0.15,1.25 -0.4,0.04 -0.93,0.26 -1.17,0.08 -1.13,-0.81 -2.38,-0.89 -3.67,-0.75 -2.48,0.26 -4.48,-0.51 -5.94,-2.58 -0.63,-0.9 -1.53,-1.31 -2.61,-1.1 -4.17,0.81 -7.87,-0.13 -11.48,-2.39 -2.82,-1.76 -6.09,-2.23 -9.48,-2.5 -5.22,-0.41 -10.56,-0.22 -15.63,-2 -1.63,-0.57 -3.21,-0.26 -4.76,0.46 -0.53,0.25 -1.19,0.21 -1.79,0.31 -0.09,-0.2 -0.15,-0.42 -0.22,-0.63 z"
   id="path8"
   inkscape:connector-curvature="0"
   style="fill:#000000;fill-opacity:1" />
        <path
   d="m 112.67,79.34 c 1.21,-2.74 2.36,-5.37 3.54,-7.99 1.27,-2.81 1.88,-5.77 2,-8.83 0.11,-2.95 0.22,-5.86 1.26,-8.73 0.56,-1.55 0.28,-3.4 0.42,-5.11 0.4,-5.14 0.88,-10.28 1.2,-15.42 0.53,-8.49 0.94,-17 1.44,-25.49 0.12,-2.03 0.33,-4.06 0.59,-6.08 0.07,-0.58 0.46,-1.12 0.71,-1.69 0.12,0.01 0.24,0.02 0.35,0.03 0.11,0.43 0.27,0.85 0.31,1.28 0.72,8.16 1.42,16.33 2.13,24.49 0.02,0.24 -0.02,0.51 0.08,0.71 1.72,3.44 1.4,7.26 2.1,10.88 1.45,7.44 1.69,15.07 3.6,22.42 0.85,3.29 1.56,6.58 2.11,9.94 0.37,2.27 1.55,4.4 2.36,6.6 0.27,0.74 0.65,1.47 0.77,2.24 0.15,0.94 -0.41,1.41 -1.37,1.31 -0.23,-0.03 -0.48,-0.08 -0.69,-0.18 -2.64,-1.22 -5.43,-1.11 -8.24,-0.96 -2.27,0.12 -4.55,0.08 -6.82,0.16 -0.58,0.02 -1.29,0.01 -1.72,0.32 -1.26,0.94 -2.58,0.96 -3.99,0.62 -0.67,-0.17 -1.33,-0.33 -2.14,-0.52 z"
   id="path10"
   inkscape:connector-curvature="0"
   style="fill:#000000;fill-opacity:1" />
        <path
   d="m 120.2,145.33 c -0.67,0 -1.28,-0.19 -1.63,0.03 -1.39,0.87 -2.71,0.49 -4.01,-0.06 -1.91,-0.81 -3.75,-1.79 -5.67,-2.57 -2.07,-0.83 -4.18,-1.55 -6.3,-2.25 -6.19,-2.07 -12.43,-3.99 -18.27,-6.96 -1.03,-0.52 -2.11,-0.94 -3.18,-1.4 -1.95,-0.84 -3.82,-1.76 -5.27,-3.43 -0.69,-0.8 -1.66,-1.36 -2.54,-1.99 -2.38,-1.69 -4.78,-3.35 -7.15,-5.04 -1.57,-1.12 -1.61,-3.63 0.06,-4.65 2.7,-1.63 5.46,-3.15 8.27,-4.57 2.74,-1.39 5.56,-2.59 8.36,-3.87 0.62,-0.28 1.24,-0.58 1.89,-0.74 0.41,-0.1 0.87,0.06 1.31,0.11 -0.05,0.48 0.05,1.06 -0.18,1.41 -0.54,0.79 -1.28,1.42 -1.87,2.18 -1.64,2.11 -3.25,4.24 -4.85,6.38 -0.59,0.79 -0.31,1.34 0.6,1.61 0.5,0.14 1,0.33 1.51,0.37 2.89,0.2 5.18,1.65 7.43,3.33 4.92,3.66 10.07,6.84 16.23,8.15 3.97,0.85 7.84,2.15 11.76,3.25 1.31,0.37 2.04,1.21 2.3,2.61 0.21,1.12 0.71,2.19 1.14,3.26 0.66,1.63 0.76,3.24 0.06,4.84 z"
   id="path12"
   inkscape:connector-curvature="0"
   style="fill:#000000;fill-opacity:1" />
        <path
   d="m 75.5,145.35 c -0.1,-1.23 -0.33,-2.48 -0.25,-3.7 0.07,-0.94 0.47,-1.89 0.84,-2.78 0.37,-0.88 0.92,-0.71 1.6,-0.2 1.52,1.13 3.03,2.33 4.69,3.23 2.44,1.31 4.5,3.01 6.37,5.02 0.59,0.63 1.43,1.1 2.24,1.43 1.26,0.51 2.23,1.26 2.7,2.54 0.39,1.07 -0.03,1.76 -1.15,1.85 -2.19,0.17 -3.64,1.33 -4.51,3.26 -1.6,3.54 -4.23,6.11 -7.67,7.77 -2.47,1.2 -4.54,2.84 -6.27,4.92 -3.34,4.01 -7.06,7.63 -11.07,10.96 -2.89,2.4 -5.34,5.14 -7.09,8.51 -0.79,1.52 -1.76,2.95 -2.71,4.38 -0.2,0.3 -0.68,0.42 -1.04,0.62 -0.15,-0.39 -0.4,-0.77 -0.43,-1.17 -0.02,-0.33 0.18,-0.68 0.33,-1.01 0.79,-1.79 1.65,-3.55 2.35,-5.37 0.24,-0.63 0.09,-1.42 0.12,-2.13 0.02,-0.37 -0.05,-0.8 0.11,-1.11 1.51,-2.81 2.85,-5.74 4.64,-8.36 2.2,-3.23 4.01,-6.61 5.41,-10.24 0.57,-1.48 1.31,-2.91 2.06,-4.32 1.31,-2.43 2.18,-4.96 2.25,-7.75 0.04,-1.47 1.53,-2.52 2.95,-2.05 1.01,0.33 1.67,0.06 2.24,-0.8 1.33,-2.05 1.41,-2.22 1.29,-3.5 z"
   id="path14"
   inkscape:connector-curvature="0"
   style="fill:#000000;fill-opacity:1" />
        <path
   d="m 124.16,88.7 c 0.54,0.8 1.08,1.39 1.4,2.09 1.88,4.06 3.82,8.09 5.53,12.22 0.94,2.27 1.76,4.66 2.09,7.08 0.28,2 -0.02,4.17 -0.46,6.17 -0.97,4.42 -1.77,8.91 -4.5,12.76 -1.34,1.88 -2.19,4.04 -2.62,6.38 -0.33,1.83 -1.05,3.59 -1.65,5.37 -0.11,0.34 -0.44,0.61 -0.9,1.23 -0.51,-1.44 -1.04,-2.55 -1.28,-3.71 -0.84,-4.02 -2.35,-7.79 -3.96,-11.53 -0.39,-0.92 -0.71,-1.86 -1.1,-2.79 -4.01,-9.58 -2.16,-18.42 3.37,-26.79 1.7,-2.58 3.3,-5.18 4.08,-8.48 z"
   id="path16"
   inkscape:connector-curvature="0"
   style="fill:#000000;fill-opacity:1" />
        <path
   d="m 162.05,108.98 c 0.6,0.3 0.98,0.48 1.35,0.68 4,2.08 7.97,4.21 12,6.21 3.91,1.95 7.11,4.84 10.54,7.54 -2.5,1.67 -4.77,3.59 -7.38,4.82 -4.16,1.98 -8.52,3.58 -12.85,5.17 -1.04,0.38 -2.35,0.26 -3.49,0.07 -1.56,-0.26 -2.9,0.2 -4.31,0.68 -2.48,0.86 -4.98,1.64 -7.48,2.43 -0.3,0.09 -0.63,0.07 -0.95,0.09 -1.68,0.1 -1.97,0.4 -1.69,2.08 0.16,0.98 -0.25,1.39 -1.11,1.63 -1.8,0.51 -3.67,0.9 -5.37,1.66 -4.28,1.91 -9.07,1.78 -13.37,3.52 -0.2,0.08 -0.49,0.08 -0.7,0.02 -1.08,-0.35 -2.32,-2.86 -1.86,-3.92 0.66,-1.54 1.38,-3.05 2.14,-4.54 0.62,-1.22 1.77,-1.87 3.03,-2.17 4.88,-1.18 9.79,-2.27 14.67,-3.43 3.02,-0.72 6.08,-1.36 9.02,-2.33 3.75,-1.24 7.42,-2.72 11.08,-4.2 1.54,-0.62 2.98,-1.52 4.47,-2.28 0.97,-0.49 0.87,-1.07 0.21,-1.79 -2.34,-2.52 -4.66,-5.05 -6.99,-7.57 -0.54,-0.58 -1.11,-1.03 -0.71,-2.05 0.23,-0.58 -0.12,-1.38 -0.25,-2.32 z"
   id="path18"
   inkscape:connector-curvature="0"
   style="fill:#000000;fill-opacity:1" />
        <path
   d="m 152.66,147.85 c 1.11,-0.61 2.05,-1.33 3.12,-1.67 4.78,-1.55 8.93,-4.21 13.03,-7 1.09,-0.74 2.12,-1.56 3.22,-2.3 1.45,-0.97 2.36,-0.62 3.08,0.97 1.64,3.59 1.8,7.5 2.66,11.26 1.29,5.57 2.38,11.18 4.58,16.56 2.45,5.99 4.14,12.3 6.21,18.44 0.43,1.27 1.13,2.44 1.65,3.69 0.48,1.15 0.88,2.34 1.32,3.51 -0.13,0.08 -0.25,0.16 -0.38,0.24 -0.3,-0.3 -0.64,-0.56 -0.88,-0.89 -2.19,-3.15 -4.28,-6.37 -6.55,-9.46 -4.69,-6.37 -9.45,-12.68 -14.24,-18.97 -0.69,-0.9 -1.75,-1.51 -2.58,-2.32 -2.34,-2.29 -4.64,-4.63 -6.98,-6.92 -0.47,-0.46 -1.09,-0.77 -1.64,-1.15 -0.26,-0.18 -0.57,-0.3 -0.78,-0.52 -2.09,-2.25 -2.08,-2.25 -4.84,-3.47 z"
   id="path20"
   inkscape:connector-curvature="0"
   style="fill:#000000;fill-opacity:1" />
        <path
   d="M 74.49,89.48 C 74.33,88.4 74.22,87.59 74.08,86.77 73.69,84.41 73.55,81.97 72.82,79.72 71.31,75.03 70.57,70.19 69.5,65.41 68.32,60.15 67.13,54.9 65.9,49.65 65.67,48.69 65.28,47.76 64.92,46.84 64.37,45.47 63.8,44.11 63.19,42.77 c -0.44,-0.97 -0.48,-1.84 0.53,-2.62 0.17,0.28 0.37,0.6 0.54,0.93 5.43,10.29 11.84,19.99 18.12,29.76 1.08,1.69 2.62,3.1 4.03,4.55 2.06,2.12 4.23,4.12 6.29,6.24 1.06,1.1 0.87,1.6 -0.63,2.05 -0.57,0.17 -1.18,0.31 -1.76,0.26 -1.68,-0.15 -2.89,0.59 -4,1.76 -0.96,1.01 -2.03,1.91 -3.06,2.85 -0.94,0.85 -2.1,0.97 -2.93,0.11 -1.77,-1.85 -3.29,-0.7 -4.89,0.14 -0.24,0.13 -0.44,0.32 -0.94,0.68 z"
   id="path22"
   inkscape:connector-curvature="0"
   style="fill:#000000;fill-opacity:1" />
        <path
   d="m 196.31,51.84 c -0.39,0.72 -0.78,1.44 -1.18,2.15 -0.47,0.84 -1.02,1.63 -1.42,2.5 -0.71,1.54 -1.32,3.13 -2.01,4.68 -0.66,1.49 -1.26,3.03 -2.09,4.43 -3,5.09 -6.11,10.12 -8.44,15.58 -0.47,1.1 -1.15,2.11 -1.52,3.23 -0.44,1.34 -0.63,2.76 -0.98,4.13 -0.15,0.58 -0.29,1.32 -0.7,1.62 -0.27,0.2 -1.11,-0.12 -1.54,-0.43 -1.86,-1.35 -3.9,-2.19 -6.18,-2.4 -1.81,-0.17 -3.21,-0.86 -3.95,-2.62 -0.41,-0.96 -1.18,-1.41 -2.23,-1.58 -1.42,-0.22 -2.82,-0.54 -4.2,-0.93 -0.48,-0.14 -0.86,-0.62 -1.28,-0.95 0.34,-0.35 0.62,-0.81 1.03,-1.04 2.48,-1.37 5,-2.67 7.49,-4.04 3.88,-2.13 7.28,-4.89 10.53,-7.89 5.82,-5.36 11.7,-10.66 17.57,-15.98 0.26,-0.24 0.57,-0.43 0.85,-0.64 0.08,0.06 0.16,0.12 0.25,0.18 z"
   id="path24"
   inkscape:connector-curvature="0"
   style="fill:#000000;fill-opacity:1" />
    </g>
</g>
</svg>