<?xml version="1.0" encoding="UTF-8" standalone="no"?>
<!-- Generator: Adobe Illustrator 25.0.0, SVG Export Plug-In  -->

<svg
   xmlns:dc="http://purl.org/dc/elements/1.1/"
   xmlns:cc="http://creativecommons.org/ns#"
   xmlns:rdf="http://www.w3.org/1999/02/22-rdf-syntax-ns#"
   xmlns:svg="http://www.w3.org/2000/svg"
   xmlns="http://www.w3.org/2000/svg"
   xmlns:sodipodi="http://sodipodi.sourceforge.net/DTD/sodipodi-0.dtd"
   xmlns:inkscape="http://www.inkscape.org/namespaces/inkscape"
   version="1.1"
   x="0px"
   y="0px"
   width="257.82999"
   height="257.82999"
   viewBox="0 0 257.82999 257.82998"
   style="overflow:visible"
   xml:space="preserve"
   id="svg15"
   sodipodi:docname="khainite_shadowstalkers.svg"
   inkscape:version="0.92.3 (2405546, 2018-03-11)"><metadata
   id="metadata19"><rdf:RDF><cc:Work
       rdf:about=""><dc:format>image/svg+xml</dc:format><dc:type
         rdf:resource="http://purl.org/dc/dcmitype/StillImage" /><dc:title /></cc:Work></rdf:RDF></metadata><sodipodi:namedview
   pagecolor="#ffffff"
   bordercolor="#666666"
   borderopacity="1"
   objecttolerance="10"
   gridtolerance="10"
   guidetolerance="10"
   inkscape:pageopacity="0"
   inkscape:pageshadow="2"
   inkscape:window-width="1920"
   inkscape:window-height="1017"
   id="namedview17"
   showgrid="false"
   fit-margin-top="0"
   fit-margin-left="0"
   fit-margin-right="0"
   fit-margin-bottom="0"
   inkscape:zoom="1.0578216"
   inkscape:cx="-334.77377"
   inkscape:cy="111.53"
   inkscape:window-x="-8"
   inkscape:window-y="-8"
   inkscape:window-maximized="1"
   inkscape:current-layer="svg15" />
<defs
   id="defs2">
</defs>
<g
   id="tzL8Pa.tif_1_"
   transform="translate(0.00999329,17.374993)"
   style="fill:#000000;fill-opacity:1">
    <g
   id="g12"
   style="fill:#000000;fill-opacity:1">
        <path
   d="m 157.93,82.95 c -6.41,6.88 -12.93,13.69 -19.23,20.69 -5.69,6.32 -11.5,12.58 -16.61,19.35 -7.53,9.98 -14.58,20.33 -21.63,30.66 -1.82,2.67 -2.56,4.05 -5.69,0.94 -13.69,-13.61 -19.54,-29.54 -17.82,-48.99 1.03,-11.61 4.64,-22.09 9.13,-32.49 1.03,-2.38 2.92,-4.45 4.65,-6.45 1.62,-1.86 2.86,-0.95 4.1,0.82 4.67,6.69 9.43,13.31 14.23,19.9 2.14,2.93 4.56,5.65 6.65,8.61 0.62,0.87 0.55,2.23 0.79,3.37 -1.07,-0.22 -2.28,-0.2 -3.15,-0.73 -0.63,-0.39 -0.82,-1.51 -1.2,-2.3 -0.44,0.4 -0.88,0.79 -1.31,1.19 0.71,1.66 1.41,3.32 2.65,6.21 -10.21,-3.17 -13.43,-11.89 -20,-18.66 -0.89,2.54 -1.69,4.35 -2.16,6.24 -1.51,6.11 -2.9,12.24 -4.33,18.37 -2.07,8.86 0.62,16.52 5.94,23.51 0.18,0.23 0.35,0.47 0.5,0.72 3.83,6.65 4.45,6.5 8.82,-0.33 2.77,-4.32 6.1,-8.29 9.29,-12.32 5.04,-6.34 10.39,-12.44 15.22,-18.93 9.05,-12.18 17.82,-24.56 26.71,-36.86 0.5,-0.7 1.05,-1.36 1.42,-1.84 7.35,1.42 10.33,7.32 13.38,12.69 3,5.29 5.53,10.98 7.31,16.79 1.47,4.79 1.76,10 2.19,15.05 0.36,4.22 0.38,8.5 0.17,12.73 -0.35,6.85 -0.45,13.76 -4.48,19.88 -2.99,4.54 -5.49,9.42 -8.42,14.01 -0.65,1.01 -2.2,1.44 -3.33,2.14 -0.44,-1.17 -1.35,-2.38 -1.23,-3.49 0.34,-3.12 -1.01,-4.38 -3.82,-5.48 -2.04,-0.8 -3.89,-2.71 -5.22,-4.56 -5.17,-7.18 -9.57,-15.02 -18.44,-18.79 1.64,-4.43 3.04,-8.41 4.64,-12.31 0.32,-0.77 1.38,-1.39 2.24,-1.71 0.32,-0.12 1.43,0.75 1.5,1.27 1.09,7.66 6.5,11.45 12.52,15.22 3.36,2.1 5.7,5.84 8.93,9.31 2.03,-8.93 5.89,-17.49 4.74,-27.26 -1.09,-9.76 -2.42,-19.29 -9.65,-26.17 z"
   id="path4"
   inkscape:connector-curvature="0"
   style="fill:#000000;fill-opacity:1" />
        <path
   d="m 183.57,33.81 c -0.21,-1.72 -0.38,-3.15 -0.55,-4.52 10.08,-9.75 20.1,-19.43 30.31,-29.29 1.43,4.06 -1.02,7.06 -2.98,9.91 -4.09,5.96 -8.51,11.69 -12.87,17.45 -2.31,3.05 -4.95,5.87 -7.16,8.99 -1.46,2.06 -2.4,4.48 -4.21,7.95 3.84,0.14 6.42,0.24 10.1,0.37 -1.91,2.85 -3.46,5.79 -5.59,8.22 -2.67,3.04 -2.21,5.29 -0.35,8.8 4.26,8.06 8.71,16.12 10.29,25.37 0.69,4.07 1.73,8.3 3.68,11.86 1.21,2.21 3.58,4.93 7.21,4.05 0.86,-0.21 1.8,-0.26 2.59,-0.63 3.96,-1.82 7.72,-2.07 12.26,-1.34 9.57,1.54 19.38,1.65 29.08,2.38 0.8,0.06 1.59,0.38 2.44,1.56 -4.67,0.65 -9.34,1.25 -14,1.95 -8.79,1.33 -17.58,2.72 -26.37,4.06 -1.31,0.2 -2.64,0.36 -3.96,0.38 -3.83,0.07 -7.11,0.72 -7.29,5.6 -0.02,0.5 -1.11,0.88 -1.5,1.46 -0.74,1.1 -1.98,2.36 -1.87,3.44 0.66,6.58 -0.01,12.69 -4.56,17.95 -0.66,0.76 -1.12,2.85 -0.69,3.23 3.51,3.13 0.45,6.07 -0.39,8.71 -1.58,5 -3.75,9.74 -2.74,15.23 0.2,1.09 -0.66,2.58 -1.41,3.61 -2.34,3.25 -1.66,5.84 1.16,8.4 1.84,1.67 3.65,5.47 4.99,5.25 7.23,-1.15 7.2,5.08 9.81,8.62 6.9,9.35 13.82,18.7 20.72,28.05 0.23,0.32 0.35,0.73 1.04,2.2 -1.77,-0.62 -2.89,-0.68 -3.48,-1.27 -6.36,-6.41 -14.3,-10.96 -19.55,-18.87 -3.23,-4.86 -9.42,-7.74 -14.17,-11.64 -1.15,-0.94 -2.55,-2.31 -2.68,-3.6 -0.38,-3.7 -2.51,-5.52 -5.69,-6.5 -3.97,-1.23 -6.44,-3.27 -5.35,-7.97 0.96,-4.15 -1.89,-5.82 -5.12,-7.05 -3.6,-1.37 -3.92,-2.58 -1.59,-5.54 7.21,-9.16 12.83,-19 13.79,-31.01 0.22,-2.8 1.55,-5.5 2.37,-8.25 0.21,-0.7 0.63,-1.41 0.59,-2.1 -0.69,-12.71 1.18,-25.83 -4.75,-37.76 -2.99,-6.02 -7.12,-11.47 -10.56,-17.28 -1.07,-1.82 -1.52,-4 -2.34,-5.98 -0.31,-0.75 -0.76,-1.9 -1.33,-2.03 -4.05,-0.92 -2.78,-3.14 -1.76,-5.66 0.55,-1.34 0.52,-2.99 0.45,-4.49 -0.16,-3.33 2.11,-5.83 5.04,-4.87 3.67,1.21 4.4,-0.76 4.49,-3.56 0.1,-2.78 0.57,-4.97 4.45,-3.84 z m 20.48,75.28 c -2.82,-1.79 -4.66,-3.87 -6.34,-3.75 -1.45,0.11 -2.72,2.72 -4.07,4.23 1.72,1.48 3.27,3.61 5.25,4.15 0.97,0.27 2.76,-2.38 5.16,-4.63 z"
   id="path6"
   inkscape:connector-curvature="0"
   style="fill:#000000;fill-opacity:1" />
        <path
   d="m 43.04,214.8 c 2.4,-3.92 4.8,-7.83 7.19,-11.75 1.29,-2.12 2.42,-4.36 3.89,-6.34 1.58,-2.13 3.62,-3.91 5.17,-6.06 1.25,-1.73 2.29,-3.69 3.03,-5.69 1.17,-3.16 2.05,-6.43 2.97,-9.67 0.7,-2.45 1.52,-4.21 4.79,-3.9 2.34,0.23 3.31,-3.64 1.69,-6.73 -0.95,-1.82 -2.04,-3.63 -3.36,-5.2 -6.17,-7.33 -9.15,-15.98 -12.2,-24.95 -1.73,-5.07 -3.26,-11.24 -8.5,-15.04 -3.97,-2.88 -6.39,-3.11 -10.41,0.17 -1.03,0.84 -3.05,0.72 -4.6,0.64 -3.61,-0.18 -7.22,-0.48 -10.8,-0.96 -3.25,-0.44 -6.44,-1.33 -9.7,-1.76 -2.77,-0.37 -5.6,-0.3 -8.4,-0.55 -1.31,-0.12 -2.59,-0.52 -3.81,-1.62 4.99,-1.17 9.95,-2.51 14.98,-3.47 7.82,-1.48 15.72,-2.58 23.53,-4.11 2.28,-0.45 3.69,-0.58 5.1,1.74 0.74,1.23 3.62,2.64 4.22,2.19 1.39,-1.04 2.53,-3.06 2.82,-4.83 1.13,-6.91 1.36,-14 2.96,-20.77 1.11,-4.72 3.77,-9.11 6.02,-13.5 3.11,-6.09 5.21,-12.38 4.72,-19.31 -0.18,-2.55 -0.95,-4.43 -4.19,-4.6 -1.22,-0.06 -3.01,-1.58 -3.41,-2.8 -1.24,-3.74 -1.77,-7.72 -2.95,-11.49 -0.37,-1.19 -1.83,-2.15 -2.96,-2.98 -4.87,-3.51 -7.88,-8.09 -9.1,-13.78 0.34,-0.3 0.67,-0.61 1.01,-0.91 3.08,2.56 6.22,5.04 9.22,7.68 5.71,5.01 11.45,9.99 16.92,15.25 1.02,0.99 1.15,3.25 1.11,4.91 -0.06,2.55 0.76,3.96 3.19,5.09 2.79,1.3 5.23,3.35 8.6,5.6 -3.22,7.12 -6.61,14.49 -9.89,21.92 -5.08,11.49 -8.88,23.26 -7.4,36.11 0.63,5.47 0.62,11.09 1.91,16.39 0.83,3.41 3.25,6.54 5.38,9.49 5.81,8.03 11.88,15.88 17.75,23.88 0.56,0.76 0.99,2.46 0.57,2.94 -1.04,1.18 -2.54,2.58 -3.96,2.7 -4.58,0.38 -5.19,1.05 -4.82,5.52 0.11,1.3 -0.89,2.97 -1.86,4.03 -10.3,11.2 -20.69,22.31 -31.06,33.44 -1.27,1.37 -2.57,2.71 -3.85,4.06 -0.5,-0.33 -1.01,-0.66 -1.51,-0.98 z m 18.13,-99.22 c 0.31,-0.32 0.62,-0.63 0.93,-0.95 -1.53,-1.46 -3.06,-2.93 -4.59,-4.39 -1.62,1.75 -4.23,3.36 -4.52,5.31 -0.21,1.38 2.51,4.25 4.31,4.63 2.6,0.55 4.63,-1.3 3.87,-4.6 z"
   id="path8"
   inkscape:connector-curvature="0"
   style="fill:#000000;fill-opacity:1" />
        <path
   d="m 140.77,139.02 c 1.5,3.38 2.73,6.55 1.18,10.61 -0.98,2.57 -0.37,5.35 1.51,8.4 2.64,4.29 3.9,9.8 4.4,14.92 0.36,3.72 -3.32,6.2 -6.78,7.15 -1.45,0.4 -4.08,-0.8 -5.11,-2.11 -1.85,-2.35 -3.4,-4.65 -1.51,-8.57 1.91,-3.99 1.51,-9.07 2.22,-13.66 0.86,-5.58 1.83,-11.15 2.76,-16.73 0.45,0 0.89,0 1.33,-0.01 z"
   id="path10"
   inkscape:connector-curvature="0"
   style="fill:#000000;fill-opacity:1" />
    </g>
</g>
</svg>