<?xml version="1.0" encoding="UTF-8" standalone="no"?>
<!-- Generator: Adobe Illustrator 23.0.4, SVG Export Plug-In  -->

<svg
   xmlns:dc="http://purl.org/dc/elements/1.1/"
   xmlns:cc="http://creativecommons.org/ns#"
   xmlns:rdf="http://www.w3.org/1999/02/22-rdf-syntax-ns#"
   xmlns:svg="http://www.w3.org/2000/svg"
   xmlns="http://www.w3.org/2000/svg"
   xmlns:sodipodi="http://sodipodi.sourceforge.net/DTD/sodipodi-0.dtd"
   xmlns:inkscape="http://www.inkscape.org/namespaces/inkscape"
   version="1.1"
   x="0px"
   y="0px"
   width="189.97701"
   height="189.97701"
   viewBox="0 0 189.97701 189.97701"
   xml:space="preserve"
   id="svg19"
   sodipodi:docname="splintered_fang.svg"
   inkscape:version="0.92.3 (2405546, 2018-03-11)"><metadata
   id="metadata23"><rdf:RDF><cc:Work
       rdf:about=""><dc:format>image/svg+xml</dc:format><dc:type
         rdf:resource="http://purl.org/dc/dcmitype/StillImage" /><dc:title /></cc:Work></rdf:RDF></metadata><sodipodi:namedview
   pagecolor="#ffffff"
   bordercolor="#666666"
   borderopacity="1"
   objecttolerance="10"
   gridtolerance="10"
   guidetolerance="10"
   inkscape:pageopacity="0"
   inkscape:pageshadow="2"
   inkscape:window-width="1920"
   inkscape:window-height="1017"
   id="namedview21"
   showgrid="false"
   fit-margin-top="0"
   fit-margin-left="0"
   fit-margin-right="0"
   fit-margin-bottom="0"
   inkscape:zoom="1.2401747"
   inkscape:cx="-300.42039"
   inkscape:cy="41.129288"
   inkscape:window-x="-8"
   inkscape:window-y="-8"
   inkscape:window-maximized="1"
   inkscape:current-layer="svg19" />
<defs
   id="defs2">
</defs>
<g
   id="RlvBJb_3_"
   transform="translate(-19.411492,29.129965)"
   style="fill:#000000;fill-opacity:1">
    <g
   id="g16"
   style="fill:#000000;fill-opacity:1">
        <g
   id="g14"
   style="fill:#000000;fill-opacity:1">
            <path
   d="m 102.18,80.43 c 8.62,-10.63 6.64,-24.64 -2.95,-29.77 -4.57,-2.45 -10.6,-1.2 -13.87,2.82 -1.76,2.16 -3.31,4.64 -5.48,6.28 -1.58,1.19 -4.01,1.26 -6.06,1.82 -0.17,-0.49 -0.35,-0.98 -0.52,-1.47 1.98,-2.43 4.05,-4.79 5.92,-7.3 1.98,-2.68 3.77,-5.5 6.25,-9.16 -0.41,-0.37 -1.45,-2.04 -2.82,-2.39 -3.49,-0.91 -7.15,-1.76 -10.69,-1.59 -2.36,0.11 -5.11,1.59 -6.71,3.35 -0.69,0.75 1.08,3.75 1.82,6.02 -4.15,1.41 -7.38,-1.11 -9.25,-4.06 -0.88,-1.38 0.73,-5.09 2.18,-7.03 2.09,-2.81 5.05,-4.97 7.16,-6.95 2.42,1.13 3.93,1.85 5.45,2.56 0.53,-1.16 1.05,-2.32 1.58,-3.47 -0.84,-0.21 -1.68,-0.43 -2.93,-0.75 1.01,-0.95 1.9,-2.55 3,-2.71 7.19,-1.04 14.42,-1.82 21.65,-2.53 1.03,-0.1 2.95,0.43 3.08,0.99 1.76,7.48 9.01,9.62 13.72,14.14 10.1,9.7 14.39,21.43 12.01,34.98 -0.82,4.68 -4.69,8.83 -7.15,13.23 -0.48,0.85 -0.89,1.74 -1.99,3.89 5.75,0 10.76,0.49 15.65,-0.1 9.57,-1.16 18.39,-4.97 25.53,-11.29 4.17,-3.7 7.04,-9.01 9.96,-13.91 0.96,-1.61 0.93,-4.54 0.09,-6.25 -0.68,-1.39 -3.25,-1.85 -4.98,-2.73 -0.5,1.56 -1.73,3.32 -1.37,4.64 1.89,6.86 -0.3,13.18 -6.46,16.35 -0.96,0.49 -3.18,-0.11 -4.01,-0.98 -5.08,-5.34 -4.28,-18.26 0.82,-23.62 4.6,-4.84 8.72,-10.13 13.73,-16.03 14.36,-0.75 20.96,11.07 18.29,24.74 -0.95,4.88 -1.35,9.93 -2.94,14.59 -1.17,3.42 -3.23,7.12 -6,9.29 -7.88,6.16 -15.73,12.89 -24.7,16.95 -9.3,4.22 -19.77,6.17 -30.4,3.27 -4.36,-1.19 -8.98,-1.43 -13.46,-2.18 -10.15,-1.71 -20.01,-15 -20.4,-25.21 -0.34,-8.73 0.35,-16.9 7.59,-23.11 4.29,-3.68 8.53,-2.58 9.62,2.97 0.5,2.54 0.07,5.26 0.06,7.89 -0.03,4.17 -0.02,8.35 -0.02,13.82 z"
   id="path4"
   inkscape:connector-curvature="0"
   style="fill:#000000;fill-opacity:1" />
            <path
   d="m 61.02,74.62 c 4.49,5.4 9.4,9.43 16.68,9.52 4.36,0.05 6.86,1.65 7.57,6.63 0.42,2.91 3.15,5.57 5.13,8.13 1.07,1.39 2.73,2.32 4.12,3.45 -0.18,0.37 -0.37,0.73 -0.55,1.1 -6.45,0 -13.02,0.78 -19.32,-0.2 -7.6,-1.19 -14.6,-4.46 -21.1,-9 C 43.11,86.97 37.03,73.63 40.2,61.25 41.73,55.29 45.71,50.46 51,47.11 c 0.95,-0.6 3.02,-0.16 4.2,0.49 3.59,1.95 7.18,3.99 10.38,6.5 1.61,1.27 2.81,3.48 3.44,5.51 1.99,6.42 -2.04,14.05 -8,15.01 z"
   id="path6"
   inkscape:connector-curvature="0"
   style="fill:#000000;fill-opacity:1" />
            <path
   d="m 144.59,50.63 c 1.57,-1.69 3.18,-3.41 5.58,-6 -7.06,-0.45 -13.11,-0.84 -19.52,-1.25 -1.19,2.43 0.41,5.02 5.98,8.45 -2.24,5.02 -2.07,5.31 4.75,8.08 -0.3,0.39 -0.5,0.83 -0.84,1.07 -6.21,4.37 -6.38,4.17 -9.89,-2.03 -2.45,-4.33 -5.41,-8.39 -8.4,-12.38 -2.81,-3.76 -6.13,-7.14 -8.84,-10.96 -0.61,-0.86 -0.14,-3.61 0.71,-4.19 5.66,-3.83 11.87,-5.6 18.8,-3.92 3.53,0.85 7.15,1.33 10.59,1.96 -0.42,1.78 -1.4,3.53 -0.96,4.78 0.35,1 2.41,1.41 4.33,2.4 -0.11,-2.4 -0.17,-3.79 -0.23,-5.2 5.56,0.13 10.87,3.95 11.11,7.52 0.3,4.03 -6.92,11.81 -13.17,11.67 z"
   id="path8"
   inkscape:connector-curvature="0"
   style="fill:#000000;fill-opacity:1" />
            <path
   d="m 192.6,33.32 c 2.63,1.64 5.48,2.67 7.26,4.67 5.91,6.63 11.15,14.05 9.06,23.46 -1.65,7.41 -3.36,14.5 -10.64,20.09 -5.93,4.55 -11.69,7.41 -18.63,8.85 -0.76,0.16 -1.59,0.02 -2.83,0.02 0.31,-1.43 0.31,-2.61 0.8,-3.52 1.07,-1.97 2.82,-3.66 3.51,-5.72 1.63,-4.86 4.19,-7.87 9.29,-10.14 9.43,-4.19 11.14,-19 8.2,-26.23 -1.45,-3.61 -3.6,-6.94 -6.02,-11.48 z"
   id="path10"
   inkscape:connector-curvature="0"
   style="fill:#000000;fill-opacity:1" />
            <path
   d="m 34.77,37.09 c -7.27,7.08 -7.79,15.5 -6.68,24.21 0.57,4.44 1.51,8.84 6.86,10.34 1.06,0.3 2.41,1.43 2.68,2.44 1.44,5.44 2.59,10.96 3.83,16.45 C 33.32,92.17 21.55,82.09 19.98,71.8 17,52.32 26.3,38.34 34.77,37.09 Z"
   id="path12"
   inkscape:connector-curvature="0"
   style="fill:#000000;fill-opacity:1" />
        </g>
    </g>
</g>
</svg>