<?xml version="1.0" encoding="UTF-8" standalone="no"?>
<!-- Created with Inkscape (http://www.inkscape.org/) -->

<svg
   xmlns:dc="http://purl.org/dc/elements/1.1/"
   xmlns:cc="http://creativecommons.org/ns#"
   xmlns:rdf="http://www.w3.org/1999/02/22-rdf-syntax-ns#"
   xmlns:svg="http://www.w3.org/2000/svg"
   xmlns="http://www.w3.org/2000/svg"
   xmlns:sodipodi="http://sodipodi.sourceforge.net/DTD/sodipodi-0.dtd"
   xmlns:inkscape="http://www.inkscape.org/namespaces/inkscape"
   width="800"
   height="799.99994"
   viewBox="0 0 211.66666 211.66666"
   version="1.1"
   id="svg8"
   inkscape:version="0.92.3 (2405546, 2018-03-11)"
   sodipodi:docname="Questor Traitoris [Chaos, Dark Mechanicum, Chaos Knights, Renegade Knights].svg">
  <defs
     id="defs2" />
  <sodipodi:namedview
     id="base"
     pagecolor="#ffffff"
     bordercolor="#666666"
     borderopacity="1.0"
     inkscape:pageopacity="0.0"
     inkscape:pageshadow="2"
     inkscape:zoom="0.25"
     inkscape:cx="-647.61233"
     inkscape:cy="367.05435"
     inkscape:document-units="px"
     inkscape:current-layer="layer1"
     showgrid="false"
     units="px"
     inkscape:snap-global="false"
     inkscape:window-width="1920"
     inkscape:window-height="1017"
     inkscape:window-x="-8"
     inkscape:window-y="-8"
     inkscape:window-maximized="1"
     inkscape:pagecheckerboard="true"
     fit-margin-top="0"
     fit-margin-left="0"
     fit-margin-right="0"
     fit-margin-bottom="0" />
  <metadata
     id="metadata5">
    <rdf:RDF>
      <cc:Work
         rdf:about="">
        <dc:format>image/svg+xml</dc:format>
        <dc:type
           rdf:resource="http://purl.org/dc/dcmitype/StillImage" />
        <dc:title></dc:title>
      </cc:Work>
    </rdf:RDF>
  </metadata>
  <g
     inkscape:label="Layer 1"
     inkscape:groupmode="layer"
     id="layer1"
     transform="translate(37.312967,-113.82767)">
    <g
       id="g1043"
       style="fill:#000000;fill-opacity:1">
      <path
         sodipodi:nodetypes="ccccccccccccccccccccccccccccccccczczzccccccccccccccccccccccccccccccccccccccccccccccccccccccscccccccccccccccccccccccccccccccc"
         style="fill:#000000;fill-opacity:1;stroke-width:0.1698779"
         inkscape:connector-curvature="0"
         id="path2"
         d="m 127.48489,208.49848 h -4.42871 v -3.87492 c 0.27689,-4.98252 -6.09013,-7.75152 -6.09013,-7.75152 0,0 2.02155,-16.61066 -2.49212,-28.79092 -2.0742,-5.59746 -6.59192,-10.94116 -8.53266,-12.84932 l -13.66069,9.02053 2.755023,-12.43754 c -7.28514,-1.24971 -20.357267,-2.31831 -26.517039,-2.00403 -6.159777,-0.31428 -13.687067,-0.18177 -22.146985,1.1076 -6.307568,0.96151 -13.010951,2.49211 -15.779961,4.70562 -2.76901,2.21352 -5.954222,6.86136 -8.028431,12.45714 -4.513654,12.18026 -2.492107,28.79092 -2.492107,28.79092 0,0 -6.367026,2.769 -6.090123,7.75152 v 3.87492 H 9.5556365 v 14.94926 h 4.7056175 l -0.276902,11.07264 c 4.483079,16.22843 10.444096,28.45625 18.547273,34.88102 l 5.010061,9.76143 14.187181,-22.48134 c 0.635993,18.78354 -5.078691,39.84943 -5.078691,39.84943 H 68.520264 90.39036 c 0,0 7.474624,-6.09013 11.34952,-14.11856 0.83072,-12.45714 2.76903,-13.01096 2.76903,-13.01096 8.10317,-6.42477 14.06419,-18.65259 18.54727,-34.88102 l -0.2769,-11.07264 h 4.70561 z M 77.471124,154.13415 c 4.675045,0.86638 8.022929,0.8694 12.697981,1.73578 0.526611,0.30577 -0.03446,2.19069 -0.49853,4.1069 -0.464025,1.9162 -3.518141,14.21334 -3.645559,14.68899 0.912245,-0.83241 9.352795,-6.91657 11.242772,-8.31533 1.889969,-1.39877 6.761702,-6.24724 8.504662,-5.74315 1.74296,0.50409 4.11818,4.34293 5.65558,7.47378 4.15182,6.64394 1.66141,31.83513 0.55381,37.37145 -3.78319,1.84487 -7.56637,3.69144 -11.34955,5.53632 -0.827304,-1.38281 -1.765031,-3.23788 -2.49211,-5.53632 -0.667613,-2.11498 -0.971703,-4.01761 -1.107607,-5.53632 -1.416779,4.66995 -1.61723,5.30868 -1.9383,6.09012 -0.665928,1.62574 -1.858466,3.89699 -4.15182,6.36702 H 76.546995 c -0.691401,-5.16428 -1.253699,-10.76346 -1.593454,-16.74826 h 2.983052 c 0.232734,1.43547 0.648932,2.62122 1.377713,3.87492 5.8421,-1.17726 10.717612,-3.55895 14.6112,-7.16375 l 0.336364,-0.0341 c -0.04922,-0.0475 -0.100235,-0.0917 -0.149496,-0.13759 0.04922,-0.0476 0.100225,-0.0917 0.149496,-0.13761 l -0.336364,-0.034 c -3.895298,-3.60481 -8.770793,-5.98649 -14.6112,-7.16375 -0.728781,1.25369 -1.144979,2.44114 -1.377713,3.87492 h -3.26675 c -0.02886,-1.14159 -0.04926,-2.29505 -0.06113,-3.46042 -0.107026,-11.2663 0.664224,-21.46237 1.815997,-30.35209 0.06626,-0.50623 0.545305,-0.85108 1.046447,-0.75765 z m -51.858627,13.94697 c 1.537395,-3.12915 3.370377,-5.78774 5.259419,-8.02842 1.399796,-0.20896 4.262237,-0.43319 7.474629,0.8307 2.050425,0.80692 3.516473,1.93491 4.428718,2.76901 -0.129108,-0.47565 -0.647235,-2.60423 0.553801,-4.70561 0.704994,-1.23503 1.688587,-1.90774 2.215208,-2.21521 4.67504,-0.86638 9.350081,-1.73106 14.02512,-2.59744 0.501139,-0.0934 0.980196,0.25312 1.04475,0.75935 1.151771,8.88971 1.921318,19.08579 1.815996,30.35209 -0.0102,1.16536 -0.03227,2.31883 -0.06116,3.46042 h -3.266753 c -0.232733,-1.43547 -0.648934,-2.62122 -1.37771,-3.87493 -5.842102,1.17726 -10.717597,3.55895 -14.6112,7.16376 l -0.336358,0.034 c 0.04926,0.0476 0.100229,0.0917 0.149493,0.13759 -0.04926,0.0476 -0.100228,0.0917 -0.149493,0.13761 l 0.336358,0.034 c 3.895301,3.6048 8.770798,5.9865 14.6112,7.16374 0.728776,-1.2537 1.144977,-2.44114 1.37771,-3.87491 h 2.983056 c -0.339756,5.98481 -0.902053,11.58398 -1.593455,16.74827 h -14.39545 c -2.293353,-2.47003 -3.485897,-4.7413 -4.151816,-6.36703 -0.321069,-0.78144 -0.521526,-1.42018 -1.938307,-6.09013 -0.135904,1.52041 -0.439985,3.42136 -1.107605,5.53633 -0.727078,2.29845 -1.663105,4.15522 -2.492108,5.53631 -3.783182,-1.84487 -7.566364,-3.69144 -11.349543,-5.53632 -1.105906,-5.53801 -3.598016,-30.72921 0.5555,-37.37313 z m 35.710036,121.25037 h -9.965037 c 0,0 2.609626,-12.73192 3.239575,-19.18766 0.918954,-9.41745 0.77442,-28.37597 0.77442,-28.37597 0,0 -10.691334,18.52158 -15.991219,26.45853 -1.938308,-3.04592 -15.982984,-17.09704 -18.751994,-22.91027 -3.04591,-8.02842 -3.04591,-17.71656 -3.04591,-17.71656 l 18.270369,4.98251 c 1.955294,2.83188 3.032321,7.44574 4.705618,12.45715 1.533998,-3.47231 3.025526,-7.13488 5.536321,-10.51884 0,0 12.180246,0 15.226158,2.76901 0.0017,-0.002 0.0017,50.93448 0.0017,52.0421 z m 7.197731,-61.73363 c -0.368639,0.002 -0.735572,0.003 -1.107611,0.002 -18.311138,-0.0934 -33.129588,-3.87832 -42.90776,-7.19773 0,-2.12178 -0.830703,-4.24525 -0.830703,-6.36703 10.668332,2.89641 26.064368,5.7113 43.461564,5.81323 0.463765,0.003 0.924136,0.002 1.38451,0.002 0.460365,0.002 0.920737,0.002 1.384502,-0.002 17.397209,-0.10193 32.794934,-2.91682 43.461564,-5.81323 0,2.12178 -0.83069,4.24525 -0.83069,6.36703 -9.77819,3.31771 -24.596632,7.10428 -42.907773,7.19773 -0.37204,0.002 -0.738971,-0.002 -1.107603,-0.002 z m 47.891986,17.71826 c -2.769,5.81323 -18.270368,20.76248 -20.208676,23.80669 -1.938308,3.04591 -2.769018,10.51884 -2.769018,10.51884 l -7.751522,9.68984 H 75.717991 V 237.2877 c 3.045908,-2.76903 15.226164,-2.76903 15.226164,-2.76903 2.510793,3.38398 4.002316,7.04824 5.536316,10.51885 1.673309,-5.0114 2.750319,-9.62528 4.705619,-12.45715 l 18.27037,-4.98251 c 0,0.002 0,9.68984 -3.04421,17.71826 z" />
      <path
         id="path939"
         transform="scale(0.26458333)"
         d="M 258.97461,430.21484 183.6543,505.5332 h 36.33008 v 60.51953 c 14.16851,-0.60537 27.23672,-0.43727 38.98437,0.16211 9.64612,-0.49215 23.79398,-0.0789 38.99609,0.90039 V 505.5332 h 36.32813 z M 5.2421875,576.48242 5.7167969,683.47266 31.404297,657.78516 74.302734,700.68359 c 0.599743,-20.32416 3.252709,-44.57816 10.97461,-65.41601 3.092922,-8.34404 6.844973,-16.11628 10.890625,-23 l -9.625,-9.625 25.689451,-25.6875 H 5.7148438 Z m 507.4628925,0 -0.47266,0.47266 H 405.7168 l 25.68945,25.68945 -10.23047,10.23047 c 4.44805,6.93423 8.59327,14.59588 11.48242,22.39258 7.72392,20.84319 10.37577,45.10429 10.97461,65.43164 l 42.91407,-42.91406 25.68554,25.68554 z m -578.414064,178.41406 -75.316406,75.31836 75.318359,75.31836 V 869.20508 H 53.283203 l 0.617188,-24.67774 H 36.115234 V 791.22461 H -65.707031 Z m 649.365234,0 -0.002,36.32813 H 481.83203 v 53.30273 h -17.78515 l 0.61718,24.67774 H 583.6543 v 36.32812 l 75.32031,-75.31836 z M 77.847656,956.20312 31.404297,1002.6445 5.7148438,976.95508 l 0.00195,106.51762 -0.4746094,0.4726 106.9902356,-0.4746 -25.685548,-25.6855 37.482428,-37.4825 -1.07422,-2.0918 C 105.42107,1004.3087 90.545195,983.20503 77.847656,956.20312 Z m 362.253904,0 c -12.69753,27.00191 -27.57341,48.10558 -45.10742,62.00778 0,0 -0.62182,0.2137 -1.56641,1.5957 l 37.97657,37.9786 -25.6875,25.6875 106.98828,0.4726 -0.47266,-0.4707 0.002,-106.51757 -25.68946,25.68747 z M 219.98438,1120.7461 v 34.1504 H 183.6543 l 75.32031,75.3183 75.31836,-75.3183 h -36.32813 v -34.1504 h -38.99023 z"
         style="fill:#000000;fill-opacity:1;stroke-width:0.87318116"
         inkscape:connector-curvature="0" />
    </g>
  </g>
</svg>
