<?xml version="1.0" encoding="UTF-8" standalone="no"?>
<!-- Generated by IcoMoon.io -->

<svg
   xmlns:dc="http://purl.org/dc/elements/1.1/"
   xmlns:cc="http://creativecommons.org/ns#"
   xmlns:rdf="http://www.w3.org/1999/02/22-rdf-syntax-ns#"
   xmlns:svg="http://www.w3.org/2000/svg"
   xmlns="http://www.w3.org/2000/svg"
   xmlns:sodipodi="http://sodipodi.sourceforge.net/DTD/sodipodi-0.dtd"
   xmlns:inkscape="http://www.inkscape.org/namespaces/inkscape"
   version="1.1"
   width="215"
   height="215"
   viewBox="0 0 215 215"
   id="svg6"
   sodipodi:docname="scythe.svg"
   inkscape:version="0.92.3 (2405546, 2018-03-11)">
  <metadata
     id="metadata12">
    <rdf:RDF>
      <cc:Work
         rdf:about="">
        <dc:format>image/svg+xml</dc:format>
        <dc:type
           rdf:resource="http://purl.org/dc/dcmitype/StillImage" />
        <dc:title>w_scythe</dc:title>
      </cc:Work>
    </rdf:RDF>
  </metadata>
  <defs
     id="defs10" />
  <sodipodi:namedview
     pagecolor="#ffffff"
     bordercolor="#666666"
     borderopacity="1"
     objecttolerance="10"
     gridtolerance="10"
     guidetolerance="10"
     inkscape:pageopacity="0"
     inkscape:pageshadow="2"
     inkscape:window-width="1920"
     inkscape:window-height="1017"
     id="namedview8"
     showgrid="false"
     inkscape:zoom="0.921875"
     inkscape:cx="-617.72941"
     inkscape:cy="-3.1385803"
     inkscape:window-x="-8"
     inkscape:window-y="-8"
     inkscape:window-maximized="1"
     inkscape:current-layer="svg6"
     fit-margin-top="0"
     fit-margin-left="0"
     fit-margin-right="0"
     fit-margin-bottom="0" />
  <title
     id="title2">w_scythe</title>
  <path
     d="m 113.08832,0.1074706 h 3.65391 q 3.22404,-0.21494 4.94352,0 2.57923,0.42987 4.72858,1.50455 0.64481,0.42987 2.79415,-0.21494 1.28962,-0.64481 1.93443,-0.64481 10.31691,-0.85974 24.93252,3.43897 5.37339,1.71949 15.90523,4.72858 l 7.95261,2.3642904 h 0.85974 q 2.14935,0.21494 2.57922,1.28962 0.85975,2.79416 3.22404,4.94351 1.50455,1.28962 4.72858,3.43897 2.14935,1.50455 3.22403,2.36429 3.6539,2.79417 4.94352,4.40618 1.28961,1.61202 1.28961,3.54644 0,1.93442 -1.28961,6.23313 -2.14936,7.30781 -3.43897,10.96171 -2.36429,6.01819 -5.37339,10.10197 -1.93442,2.79416 -3.6539,2.79416 -1.71949,0 -2.36429,-0.75227 -0.64481,-0.75228 -1.07468,-2.47176 -4.08378,-11.39158 -10.10197,-19.12926 -7.73768,-10.74678 -21.49355,-16.55004 -3.22403,-1.50455 -7.73768,0.64481 -4.51365,2.14935 -7.52274,6.44806 -0.64481,0.64481 -1.28962,2.36429 -0.6448,1.71949 -1.18214,2.47176 -0.53734,0.75228 -1.50455,0.96721 -0.96721,0.21494 -3.3315,-1.93442 -1.50455,-1.28961 -2.36429,-1.71948 l -1.28962,-0.64481 q -3.00909,-1.71948 -4.51364,-1.71948 -2.57923,-0.21494 -5.15845,2.36429 -0.85975,0.64481 -3.43897,0.42987 -1.50455,0 -4.72858,-0.85974 l -1.07468,-0.21494 q -20.418871,-4.08377 -42.9871,0 -2.579226,0.42987 -8.060082,1.07468 -5.480856,0.64481 -8.060082,1.07468 -4.513646,0.85974 -8.060082,2.36429 -3.546436,1.50455 -10.209437,5.58832 -5.803259,3.43897 -8.812356,4.94352 l -1.074678,0.64481 q -1.289613,1.07467 -2.149355,1.18214 -0.859742,0.10747 -1.504549,-1.18214 l -0.644806,-1.07468 q -1.074678,-1.93442 -1.074678,-3.0091 0,-1.71948 2.149355,-3.43897 13.326002,-9.6721 24.072778,-16.12016 13.326003,-8.16755 25.89973,-13.5409404 12.573728,-5.37339 32.347796,-7.95261 l 3.438966,-0.42987 q 7.30781,-1.28962 10.96171,-1.07468 z m 16.3351,13.5409404 -0.21494,-0.21494 h -0.42987 v 0.21494 q 0,0.42987 0.21495,0.85974 0,-0.42987 0.42986,-0.85974 z m 49.86504,47.07087 q 0,0.64481 -0.21494,1.50455 0,1.71949 -0.42987,2.36429 -4.94351,8.59742 -13.54094,26.222137 -5.80325,12.036392 -8.81235,17.947112 -3.0091,5.91073 -7.52274,5.91073 -8.59743,0 -15.26043,4.94352 -5.37338,4.08377 -10.3169,12.03639 -14.83055,23.85784 -11.39158,49.86504 0,1.71948 0.64481,3.00909 1.07467,3.43897 0,6.12567 -1.07468,2.68669 -4.51365,3.9763 -4.29871,1.50455 -9.242226,4.51365 -2.794162,1.71948 -8.597421,5.58832 -7.737678,5.37339 -12.036389,7.52274 -0.644806,0.21494 -1.826952,1.28962 -1.182145,1.07468 -2.041887,1.28961 -1.074678,0.42987 -1.93442,-0.21493 -1.504548,-1.50455 1.719484,-6.23313 4.513646,-5.37339 6.877937,-13.32601 1.504549,-4.72858 3.224033,-14.61561 1.504548,-8.16755 2.579226,-12.03639 3.438968,-11.39158 6.448066,-19.3442 3.868839,-10.10197 8.382489,-18.05458 13.326,-22.56823 32.45526,-29.6611 6.87793,-2.579228 11.60651,-8.167551 3.86885,-4.298711 7.09287,-12.036388 8.59744,-19.989 12.89615,-35.03449 0.85973,-3.0091 2.25682,-3.3315 1.39707,-0.3224 3.11655,1.61201 2.79418,2.79417 4.94353,7.30781 1.28961,2.57923 3.00909,7.95262 z"
     id="path4"
     inkscape:connector-curvature="0"
     style="fill:#000000;fill-opacity:1;stroke-width:6.71673489" />
</svg>
