<?xml version="1.0" encoding="UTF-8" standalone="no"?>
<!-- Generator: Adobe Illustrator 21.0.2, SVG Export Plug-In . SVG Version: 6.00 Build 0)  -->

<svg
   xmlns:dc="http://purl.org/dc/elements/1.1/"
   xmlns:cc="http://creativecommons.org/ns#"
   xmlns:rdf="http://www.w3.org/1999/02/22-rdf-syntax-ns#"
   xmlns:svg="http://www.w3.org/2000/svg"
   xmlns="http://www.w3.org/2000/svg"
   xmlns:sodipodi="http://sodipodi.sourceforge.net/DTD/sodipodi-0.dtd"
   xmlns:inkscape="http://www.inkscape.org/namespaces/inkscape"
   version="1.1"
   id="Layer_2"
   x="0px"
   y="0px"
   viewBox="0 0 220 220.00001"
   xml:space="preserve"
   sodipodi:docname="darkling_covens.svg"
   width="220"
   height="220"
   inkscape:version="0.92.3 (2405546, 2018-03-11)"><metadata
   id="metadata11"><rdf:RDF><cc:Work
       rdf:about=""><dc:format>image/svg+xml</dc:format><dc:type
         rdf:resource="http://purl.org/dc/dcmitype/StillImage" /><dc:title /></cc:Work></rdf:RDF></metadata><defs
   id="defs9"><filter
     inkscape:label="Sharpen More"
     inkscape:menu="Image Effects"
     inkscape:menu-tooltip="Sharpen edges and boundaries within the object, force=0.3"
     style="color-interpolation-filters:sRGB"
     id="filter825"><feConvolveMatrix
       order="3 3"
       kernelMatrix="0 -0.15 0 -0.15 1.6 -0.15 0 -0.15 0"
       divisor="1"
       in="SourceGraphic"
       targetX="1"
       targetY="1"
       id="feConvolveMatrix823"
       result="fbSourceGraphic" /><feColorMatrix
       result="fbSourceGraphicAlpha"
       in="fbSourceGraphic"
       values="0 0 0 -1 0 0 0 0 -1 0 0 0 0 -1 0 0 0 0 1 0"
       id="feColorMatrix827" /><feConvolveMatrix
       id="feConvolveMatrix829"
       targetY="1"
       targetX="1"
       in="fbSourceGraphic"
       divisor="1"
       kernelMatrix="0 -0.3 0 -0.3 2.2 -0.3 0 -0.3 0"
       order="3 3"
       result="result1" /><feBlend
       in2="fbSourceGraphic"
       id="feBlend831"
       mode="normal"
       result="result2" /></filter></defs><sodipodi:namedview
   pagecolor="#ffffff"
   bordercolor="#666666"
   borderopacity="1"
   objecttolerance="10"
   gridtolerance="10"
   guidetolerance="10"
   inkscape:pageopacity="0"
   inkscape:pageshadow="2"
   inkscape:window-width="1920"
   inkscape:window-height="1017"
   id="namedview7"
   showgrid="false"
   fit-margin-top="0"
   fit-margin-left="0"
   fit-margin-right="0"
   fit-margin-bottom="0"
   inkscape:pagecheckerboard="false"
   inkscape:zoom="0.99999999"
   inkscape:cx="-495.10742"
   inkscape:cy="121.87114"
   inkscape:window-x="-8"
   inkscape:window-y="-8"
   inkscape:window-maximized="1"
   inkscape:current-layer="Layer_2" />


<g
   id="g886"
   transform="matrix(0.44000001,0,0,0.44000001,50.984681,-2.9999993e-7)"
   style="fill:#000000;fill-opacity:1"><path
     id="path833"
     d="M 131.78906,0 C 118.52084,0.04202694 105.33326,2.047093 92.652344,5.9511719 146.32156,9.1546954 188.22344,53.581015 188.28711,107.3457 188.28628,163.51034 142.75449,209.03996 86.589844,209.03906 51.257333,209.0063 18.474915,190.63706 0,160.51953 c 12.434845,62.95328 67.619494,108.34673 131.78906,108.40625 13.19017,-0.0476 26.28558,-2.04202 38.8711,-5.89453 1.21127,-1.20025 2.30031,-2.32375 3.10351,-3.12695 1.47944,-1.47945 1.9273,-6.00666 2.38281,-8.9043 0.91099,-5.79529 4.2287,-19.14154 3.69336,-25.57812 -0.53534,-6.43659 -3.53673,-32.57242 -1.7207,-42.48633 7.79607,10.60159 19.20833,29.31461 19.99219,34.83203 0.71106,5.00497 0.80125,12.4925 2.13672,19.5 0.15138,-0.42054 0.33114,-0.84575 0.58007,-1.2793 6.65021,-5.45785 15.76063,-6.68307 15.69922,-11.73828 -0.0614,-5.05522 -12.32321,-18.50689 -11.58593,-31.63477 0.73728,-13.12787 -3.91211,-26.47226 -4.15625,-40.79882 8.44476,7.31546 21.18007,26.3348 25.61718,34.01367 -1.16956,-4.54772 -2.41718,-9.10619 -3.35742,-12.61524 -1.90927,-7.12552 4.68141,-15.40654 -2.12304,-22.39453 -6.80446,-6.98799 -16.94696,-21.17046 -22.67579,-30.3457 23.42829,-2.45991 52.9139,35.24842 54.52149,41.24805 1.6076,5.99962 2.4917,14.52379 4.54492,18.08007 0.13694,0.23719 0.32171,0.51153 0.53516,0.8086 5.47966,-14.7648 8.32971,-30.38298 8.40429,-46.14649 C 266.25264,60.20303 206.05089,0.00103869 131.78906,0 Z"
     style="opacity:1;fill:#000000;fill-opacity:1;stroke:none;stroke-width:1.20543921;stroke-linecap:butt;stroke-linejoin:miter;stroke-miterlimit:4;stroke-dasharray:none;stroke-dashoffset:0;stroke-opacity:1;paint-order:markers fill stroke"
     inkscape:connector-curvature="0" /><g
     id="g879"
     style="fill:#000000;fill-opacity:1"><path
       style="fill:#000000;fill-opacity:1;stroke:none;stroke-width:1.59798253px;stroke-linecap:butt;stroke-linejoin:miter;stroke-opacity:1"
       d="m 181.74395,195.4864 c 0.92401,9.73713 2.04131,23.49963 2.57665,29.93621 0.53534,6.43659 -2.58165,20.12103 -3.49265,25.91632 -0.4555,2.89764 -0.59317,8.36689 -2.07261,9.84634 -2.58936,2.58935 -12.95935,7.10781 -16.82077,8.72575 -4.10767,1.72112 -20.27357,4.41522 -28.9867,10.90885 -8.71312,6.49362 -15.84891,20.32805 -15.84891,20.32805 0,0 -0.38235,-13.76866 -17.794514,-23.82159 -10.534173,-6.0819 -15.789314,-9.1925 -24.821782,-13.66088 -9.24965,-4.57582 -16.211612,-9.89953 -25.97487,-16.83322 -7.807567,-5.5448 -21.620256,-18.87381 -29.218551,-32.67566 0.677753,6.18023 0.875998,9.05172 1.765339,13.87873 1.344143,7.29527 2.784581,16.23851 10.140334,28.97905 7.355753,12.74054 49.284369,35.70186 50.876391,93.26841 0.895605,32.38444 -11.052702,62.80271 -35.027649,74.01281 20.895252,5.59887 33.046279,15.77265 45.196059,28.81363 12.149783,13.04097 25.424153,46.89079 25.424153,46.89079 0,0 17.76188,-26.46086 31.56952,-32.23119 13.80764,-5.77033 31.89553,2.58841 43.0082,-1.66663 11.11267,-4.25505 21.46976,-20.33995 21.46976,-20.33995 0,0 -21.5112,7.14865 -28.5889,1.02994 -7.0777,-6.1187 -5.85456,-16.29645 -2.99622,-27.36545 2.85835,-11.069 23.67323,-33.55138 23.67323,-33.55138 0,0 -11.2508,12.84048 -20.33682,9.0417 -9.08601,-3.79877 -13.14166,-21.52621 -12.99608,-34.46586 0.14557,-12.93965 7.12406,-33.03098 15.25573,-37.85221 5.50922,-3.26639 11.14642,-7.34896 16.01728,-11.88811 4.87086,-4.53915 3.93393,-10.65738 6.58231,-18.62025 0.73498,-7.65707 7.03469,-19.31645 6.79156,-23.57336 -0.24314,-4.25691 -3.80681,-7.8703 -7.92138,-11.98487 -5.34819,-5.34819 -11.72769,-9.29348 -13.50611,-16.87415 -1.77843,-7.58067 -2.0402,-15.12387 -2.82406,-20.64127 -0.78385,-5.51742 -5.32187,-12.42896 -11.11794,-23.53055 z"
       id="path838"
       inkscape:connector-curvature="0"
       sodipodi:nodetypes="czscssccssccsscscsscsscssszczszzc" /><path
       style="fill:#000000;fill-opacity:1;stroke:none;stroke-width:1.59798253px;stroke-linecap:butt;stroke-linejoin:miter;stroke-opacity:1"
       d="m 204.66016,161.44141 c 1.99414,14.32656 5.26853,18.04595 4.53125,31.17382 -0.73728,13.12788 11.52453,26.70455 11.58593,31.75977 0.0614,5.05521 -8.92987,8.3234 -15.58007,13.78125 -1.35104,2.35296 -2.26491,3.96549 -2.91602,5.29883 2.77613,4.88324 7.87539,7.79336 12.16016,12.07812 1.73595,1.73596 2.95154,3.56085 3.82031,5.41016 1.63398,-3.63781 -0.38968,-5.49898 5.3125,-11.20117 6.7278,-6.72781 22.37218,-8.7884 26.36719,-20.77344 3.99502,-11.98505 -7.58629,-25.3654 -14.38282,-28.76367 -6.79654,-3.39827 -9.64834,-5.08191 -11.98437,-9.98828 -2.33602,-4.90637 -11.6241,-20.13619 -18.91406,-28.77539 z"
       id="path840"
       inkscape:connector-curvature="0" /><path
       style="fill:#000000;fill-opacity:1;stroke:none;stroke-width:1.59798253px;stroke-linecap:butt;stroke-linejoin:miter;stroke-opacity:1"
       d="m 205.99609,125.09961 c 6.97883,8.05024 12.37133,16.98271 19.17579,23.9707 6.80445,6.98799 0.0888,16.64401 1.99804,23.76953 1.72925,6.45368 4.07828,15.69798 5.40625,22.54297 1.51698,1.38903 3.4738,2.69296 6.23242,4.07227 3.93128,1.96564 9.69767,7.52869 13.10157,14.18359 5.73908,-2.94614 13.45356,-7.22114 16.00781,-13.03515 2.89262,-6.58425 -13.92725,-15.61952 -15.98047,-19.17579 -2.05322,-3.55628 -1.18732,-9.58045 -2.79492,-15.58007 -1.60759,-5.99963 -29.4682,-37.08296 -43.14649,-40.74805 z"
       id="path850"
       inkscape:connector-curvature="0" /></g></g></svg>