<?xml version="1.0" encoding="UTF-8" standalone="no"?>
<!-- Created with Inkscape (http://www.inkscape.org/) -->

<svg
   xmlns:dc="http://purl.org/dc/elements/1.1/"
   xmlns:cc="http://creativecommons.org/ns#"
   xmlns:rdf="http://www.w3.org/1999/02/22-rdf-syntax-ns#"
   xmlns:svg="http://www.w3.org/2000/svg"
   xmlns="http://www.w3.org/2000/svg"
   xmlns:sodipodi="http://sodipodi.sourceforge.net/DTD/sodipodi-0.dtd"
   xmlns:inkscape="http://www.inkscape.org/namespaces/inkscape"
   width="215"
   height="215"
   viewBox="0 0 56.885415 56.885418"
   version="1.1"
   id="svg8"
   inkscape:version="0.92.3 (2405546, 2018-03-11)"
   sodipodi:docname="ironweld_arsenal.svg">
  <defs
     id="defs2" />
  <sodipodi:namedview
     id="base"
     pagecolor="#ffffff"
     bordercolor="#666666"
     borderopacity="1.0"
     inkscape:pageopacity="0.0"
     inkscape:pageshadow="2"
     inkscape:zoom="5.6"
     inkscape:cx="150.86406"
     inkscape:cy="150.65764"
     inkscape:document-units="px"
     inkscape:current-layer="layer1"
     showgrid="false"
     inkscape:window-width="1920"
     inkscape:window-height="1017"
     inkscape:window-x="-8"
     inkscape:window-y="-8"
     inkscape:window-maximized="1"
     inkscape:snap-global="false"
     units="px" />
  <metadata
     id="metadata5">
    <rdf:RDF>
      <cc:Work
         rdf:about="">
        <dc:format>image/svg+xml</dc:format>
        <dc:type
           rdf:resource="http://purl.org/dc/dcmitype/StillImage" />
        <dc:title />
      </cc:Work>
    </rdf:RDF>
  </metadata>
  <g
     inkscape:label="Layer 1"
     inkscape:groupmode="layer"
     id="layer1"
     transform="translate(0,-240.11457)">
    <g
       id="g889">
      <path
         id="path900"
         d="m 25.533802,240.11457 -1.181647,3.87807 a 24.931467,24.931467 0 0 0 -1.53305,0.30127 l -2.573668,-3.12748 -5.374576,2.22602 0.392165,4.03737 a 24.931467,24.931467 0 0 0 -1.305809,0.8607 l -3.569777,-1.90225 -4.1137464,4.11374 1.90788,3.58055 a 24.931467,24.931467 0 0 0 -0.8836584,1.29316 l -4.0200404,-0.39029 -2.2260123,5.37458 3.1321625,2.57742 a 24.931467,24.931467 0 0 0 -0.3289136,1.53632 L -1.6877978e-6,265.64837 v 5.81782 L 3.8780711,272.64784 a 24.931467,24.931467 0 0 0 0.3012691,1.53304 l -3.1274777,2.57366 2.2260123,5.37459 4.0378457,-0.39217 a 24.931467,24.931467 0 0 0 0.8602299,1.30581 l -1.9022568,3.56978 4.1137464,4.11374 3.580552,-1.90788 a 24.931467,24.931467 0 0 0 1.29316,0.88366 l -0.390291,4.02004 5.374576,2.22602 2.577416,-3.13216 a 24.931467,24.931467 0 0 0 1.53633,0.3289 l 1.174619,3.85512 h 5.817811 l 1.181648,-3.87808 a 24.931467,24.931467 0 0 0 1.53305,-0.30127 l 2.573668,3.12749 5.374576,-2.22602 -0.392165,-4.03785 a 24.931467,24.931467 0 0 0 1.305809,-0.86023 l 3.569776,1.90226 4.113746,-4.11374 -1.907879,-3.58056 a 24.931467,24.931467 0 0 0 0.883659,-1.29316 l 4.020039,0.3903 2.226014,-5.37459 -3.132163,-2.57741 a 24.931467,24.931467 0 0 0 0.328912,-1.53632 l 3.855114,-1.17462 v -5.81782 l -3.878072,-1.18165 a 24.931467,24.931467 0 0 0 -0.301269,-1.53305 l 3.127478,-2.57366 -2.226014,-5.37458 -4.037375,0.39217 a 24.931467,24.931467 0 0 0 -0.860701,-1.30581 l 1.902257,-3.56978 -4.113746,-4.11374 -3.580552,1.90787 a 24.931467,24.931467 0 0 0 -1.293159,-0.88365 l 0.390291,-4.02004 -5.374576,-2.22602 -2.577417,3.13217 a 24.931467,24.931467 0 0 0 -1.536329,-0.32892 l -1.17462,-3.85511 z m 9.325271,8.4627 a 20.751344,21.02396 0 0 1 13.427304,13.89443 c -0.20172,0.43246 -0.508814,0.89224 -1.100591,1.32127 -0.846477,0.61369 -2.364734,1.00501 -3.112484,1.00501 H 42.71689 A 14.779375,14.779375 0 0 0 32.202006,254.27326 v -1.34657 c 0,-0.74775 0.39132,-2.26601 1.00501,-3.11249 0.541827,-0.74736 1.129797,-1.03867 1.652057,-1.23693 z m -12.813989,0.007 c 0.517673,0.19829 1.097935,0.49144 1.633316,1.2299 0.613692,0.84648 1.00501,2.36474 1.00501,3.11249 v 1.35641 a 14.779375,14.779375 0 0 0 -10.524724,10.51484 h -1.346572 c -0.74775,0 -2.266007,-0.39132 -3.1124843,-1.00501 -0.5998762,-0.43491 -0.9075065,-0.90148 -1.1090235,-1.33908 a 20.751344,21.02396 0 0 1 13.4544778,-13.8696 z m 3.484502,0.19069 a 0.92100773,0.92100773 0 0 1 0.921141,0.92114 0.92100773,0.92100773 0 0 1 -0.921141,0.92068 0.92100773,0.92100773 0 0 1 -0.920673,-0.92068 0.92100773,0.92100773 0 0 1 0.920673,-0.92114 z m 2.912888,0 a 0.92100773,0.92100773 0 0 1 0.921141,0.92114 0.92100773,0.92100773 0 0 1 -0.921141,0.92068 0.92100773,0.92100773 0 0 1 -0.920673,-0.92068 0.92100773,0.92100773 0 0 1 0.920673,-0.92114 z m 2.913356,0 a 0.92100773,0.92100773 0 0 1 0.920673,0.9211 0.92100773,0.92100773 0 0 1 -0.920673,0.92067 0.92100773,0.92100773 0 0 1 -0.921141,-0.92067 0.92100773,0.92100773 0 0 1 0.921141,-0.92114 z m -2.912888,7.72893 A 12.05321,12.05321 0 0 1 40.49603,268.55751 12.05321,12.05321 0 0 1 28.442942,280.6106 12.05321,12.05321 0 0 1 16.389386,268.55751 12.05321,12.05321 0 0 1 28.442942,256.50396 Z m -18.8613828,8.21952 a 0.92100773,0.92100773 0 0 1 0.9206728,0.92067 0.92100773,0.92100773 0 0 1 -0.9206728,0.92115 0.92100773,0.92100773 0 0 1 -0.9211429,-0.92115 0.92100773,0.92100773 0 0 1 0.9211429,-0.92067 z m 37.7222978,0 a 0.92100773,0.92100773 0 0 1 0.921142,0.92067 0.92100773,0.92100773 0 0 1 -0.921142,0.92115 0.92100773,0.92100773 0 0 1 -0.920673,-0.92115 0.92100773,0.92100773 0 0 1 0.920673,-0.92067 z m -37.7222978,2.9129 a 0.92100773,0.92100773 0 0 1 0.9206728,0.92067 0.92100773,0.92100773 0 0 1 -0.9206728,0.92113 0.92100773,0.92100773 0 0 1 -0.9211429,-0.92113 0.92100773,0.92100773 0 0 1 0.9211429,-0.92067 z m 37.7222978,0 a 0.92100773,0.92100773 0 0 1 0.921142,0.92067 0.92100773,0.92100773 0 0 1 -0.921142,0.92113 0.92100773,0.92100773 0 0 1 -0.920673,-0.92113 0.92100773,0.92100773 0 0 1 0.920673,-0.92067 z m -37.7222978,2.91288 a 0.92100773,0.92100773 0 0 1 0.9206728,0.92114 0.92100773,0.92100773 0 0 1 -0.9206728,0.92068 0.92100773,0.92100773 0 0 1 -0.9211429,-0.92068 0.92100773,0.92100773 0 0 1 0.9211429,-0.92114 z m 37.7222978,0 a 0.92100773,0.92100773 0 0 1 0.921142,0.92114 0.92100773,0.92100773 0 0 1 -0.921142,0.92068 0.92100773,0.92100773 0 0 1 -0.920673,-0.92068 0.92100773,0.92100773 0 0 1 0.920673,-0.92114 z m -34.491743,1.76731 h 1.355943 a 14.779375,14.779375 0 0 0 10.515353,10.5252 v 1.3461 c 0,0.74775 -0.391318,2.26602 -1.00501,3.11249 -0.541828,0.74736 -1.129797,1.03866 -1.652057,1.23693 A 20.751344,21.02396 0 0 1 8.5990382,274.64286 c 0.201721,-0.43246 0.5088155,-0.89224 1.1005915,-1.32128 0.8464773,-0.61369 2.3647343,-1.00501 3.1124843,-1.00501 z m 29.915083,0 h 1.346105 c 0.74775,0 2.266007,0.39132 3.112484,1.00501 0.599876,0.43491 0.907507,0.9015 1.109025,1.33909 a 20.751344,21.02396 0 0 1 -13.454479,13.8692 c -0.517634,-0.19829 -1.09799,-0.49105 -1.633316,-1.22944 -0.61369,-0.84647 -1.00501,-2.36474 -1.00501,-3.11249 v -1.35594 a 14.779375,14.779375 0 0 0 10.525191,-10.51536 z m -17.197611,14.18119 a 0.92100773,0.92100773 0 0 1 0.921141,0.92067 0.92100773,0.92100773 0 0 1 -0.921141,0.92114 0.92100773,0.92100773 0 0 1 -0.920673,-0.92114 0.92100773,0.92100773 0 0 1 0.920673,-0.92067 z m 2.912888,0 a 0.92100773,0.92100773 0 0 1 0.921141,0.92067 0.92100773,0.92100773 0 0 1 -0.921141,0.92114 0.92100773,0.92100773 0 0 1 -0.920673,-0.92114 0.92100773,0.92100773 0 0 1 0.920673,-0.92067 z m 2.913356,0 a 0.92100773,0.92100773 0 0 1 0.920673,0.92067 0.92100773,0.92100773 0 0 1 -0.920673,0.92114 0.92100773,0.92100773 0 0 1 -0.921141,-0.92114 0.92100773,0.92100773 0 0 1 0.921141,-0.92067 z"
         style="opacity:1;fill:#000000;fill-opacity:1;fill-rule:nonzero;stroke:none;stroke-width:10.39264965;stroke-linecap:butt;stroke-linejoin:miter;stroke-miterlimit:4;stroke-dasharray:none;stroke-dashoffset:0;stroke-opacity:1;paint-order:markers fill stroke"
         inkscape:connector-curvature="0" />
      <path
         inkscape:connector-curvature="0"
         id="circle961"
         d="m 28.442474,257.50381 a 11.053614,11.053614 0 0 0 -11.053232,11.05324 11.053614,11.053614 0 0 0 11.053232,11.05369 11.053614,11.053614 0 0 0 11.0537,-11.05369 11.053614,11.053614 0 0 0 -11.0537,-11.05324 z m -0.791826,2.78405 h 1.58412 c 1.004347,0 1.812766,0.80841 1.812766,1.81276 v 12.91332 c 0,1.00435 -0.808419,1.81277 -1.812766,1.81277 h -1.58412 c -1.004347,0 -1.812766,-0.80842 -1.812766,-1.81277 v -12.91332 c 0,-1.00435 0.808419,-1.81276 1.812766,-1.81276 z m -4.670835,1.15025 c 0.781235,0.17506 1.355943,0.78626 1.355943,1.51994 v 11.198 c 0,0.73413 -0.575355,1.34577 -1.357348,1.5204 a 11.053614,9.5853979 0 0 1 -3.670043,-7.1194 11.053614,9.5853979 0 0 1 3.671448,-7.11894 z m 10.92579,0 a 11.053615,9.5853989 0 0 1 3.671447,7.11894 11.053615,9.5853989 0 0 1 -3.670042,7.1194 c -0.781993,-0.17463 -1.357348,-0.78627 -1.357348,-1.5204 v -11.198 c 0,-0.73368 0.574708,-1.34488 1.355943,-1.51994 z"
         style="opacity:1;fill:#000000;fill-opacity:1;fill-rule:nonzero;stroke:none;stroke-width:2.05653906;stroke-linecap:butt;stroke-linejoin:miter;stroke-miterlimit:4;stroke-dasharray:none;stroke-dashoffset:0;stroke-opacity:1;paint-order:markers fill stroke" />
      <g
         transform="matrix(0.90667242,0,0,0.90667242,32.897782,170.88276)"
         id="g1358"
         style="fill:#000000;fill-opacity:1">
        <g
           id="g1306"
           style="fill:#000000;fill-opacity:1">
          <circle
             style="opacity:1;fill:#000000;fill-opacity:1;fill-rule:nonzero;stroke:none;stroke-width:1.76437449;stroke-linecap:butt;stroke-linejoin:miter;stroke-miterlimit:4;stroke-dasharray:none;stroke-dashoffset:0;stroke-opacity:1;paint-order:markers fill stroke"
             id="circle1205"
             cx="15.88918"
             cy="110.94135"
             r="0.7986545" />
          <circle
             r="0.7986545"
             cy="107.72855"
             cx="15.88918"
             id="circle1207"
             style="opacity:1;fill:#000000;fill-opacity:1;fill-rule:nonzero;stroke:none;stroke-width:1.76437449;stroke-linecap:butt;stroke-linejoin:miter;stroke-miterlimit:4;stroke-dasharray:none;stroke-dashoffset:0;stroke-opacity:1;paint-order:markers fill stroke" />
          <circle
             r="0.7986545"
             cy="104.51578"
             cx="15.88918"
             id="circle1209"
             style="opacity:1;fill:#000000;fill-opacity:1;fill-rule:nonzero;stroke:none;stroke-width:1.76437449;stroke-linecap:butt;stroke-linejoin:miter;stroke-miterlimit:4;stroke-dasharray:none;stroke-dashoffset:0;stroke-opacity:1;paint-order:markers fill stroke" />
        </g>
        <g
           id="g1320"
           style="fill:#000000;fill-opacity:1">
          <circle
             transform="scale(-1,1)"
             r="0.7986545"
             cy="110.94135"
             cx="25.716488"
             id="circle1233"
             style="opacity:1;fill:#000000;fill-opacity:1;fill-rule:nonzero;stroke:none;stroke-width:1.76437449;stroke-linecap:butt;stroke-linejoin:miter;stroke-miterlimit:4;stroke-dasharray:none;stroke-dashoffset:0;stroke-opacity:1;paint-order:markers fill stroke" />
          <circle
             transform="scale(-1,1)"
             style="opacity:1;fill:#000000;fill-opacity:1;fill-rule:nonzero;stroke:none;stroke-width:1.76437449;stroke-linecap:butt;stroke-linejoin:miter;stroke-miterlimit:4;stroke-dasharray:none;stroke-dashoffset:0;stroke-opacity:1;paint-order:markers fill stroke"
             id="circle1235"
             cx="25.716488"
             cy="107.72855"
             r="0.7986545" />
          <circle
             transform="scale(-1,1)"
             style="opacity:1;fill:#000000;fill-opacity:1;fill-rule:nonzero;stroke:none;stroke-width:1.76437449;stroke-linecap:butt;stroke-linejoin:miter;stroke-miterlimit:4;stroke-dasharray:none;stroke-dashoffset:0;stroke-opacity:1;paint-order:markers fill stroke"
             id="circle1237"
             cx="25.716488"
             cy="104.51578"
             r="0.7986545" />
        </g>
        <g
           id="g1311"
           style="fill:#000000;fill-opacity:1">
          <circle
             transform="rotate(-90)"
             r="0.7986545"
             cy="-1.7008607"
             cx="-86.925728"
             id="circle1255"
             style="opacity:1;fill:#000000;fill-opacity:1;fill-rule:nonzero;stroke:none;stroke-width:1.76437449;stroke-linecap:butt;stroke-linejoin:miter;stroke-miterlimit:4;stroke-dasharray:none;stroke-dashoffset:0;stroke-opacity:1;paint-order:markers fill stroke" />
          <circle
             transform="rotate(-90)"
             style="opacity:1;fill:#000000;fill-opacity:1;fill-rule:nonzero;stroke:none;stroke-width:1.76437449;stroke-linecap:butt;stroke-linejoin:miter;stroke-miterlimit:4;stroke-dasharray:none;stroke-dashoffset:0;stroke-opacity:1;paint-order:markers fill stroke"
             id="circle1257"
             cx="-86.925728"
             cy="-4.91366"
             r="0.7986545" />
          <circle
             transform="rotate(-90)"
             style="opacity:1;fill:#000000;fill-opacity:1;fill-rule:nonzero;stroke:none;stroke-width:1.76437449;stroke-linecap:butt;stroke-linejoin:miter;stroke-miterlimit:4;stroke-dasharray:none;stroke-dashoffset:0;stroke-opacity:1;paint-order:markers fill stroke"
             id="circle1259"
             cx="-86.925728"
             cy="-8.1264362"
             r="0.7986545" />
        </g>
        <g
           id="g1329"
           style="fill:#000000;fill-opacity:1">
          <circle
             transform="matrix(0,1,1,0,0,0)"
             style="opacity:1;fill:#000000;fill-opacity:1;fill-rule:nonzero;stroke:none;stroke-width:1.76437449;stroke-linecap:butt;stroke-linejoin:miter;stroke-miterlimit:4;stroke-dasharray:none;stroke-dashoffset:0;stroke-opacity:1;paint-order:markers fill stroke"
             id="circle1265"
             cx="128.5314"
             cy="-1.7008672"
             r="0.7986545" />
          <circle
             transform="matrix(0,1,1,0,0,0)"
             r="0.7986545"
             cy="-4.9136662"
             cx="128.5314"
             id="circle1267"
             style="opacity:1;fill:#000000;fill-opacity:1;fill-rule:nonzero;stroke:none;stroke-width:1.76437449;stroke-linecap:butt;stroke-linejoin:miter;stroke-miterlimit:4;stroke-dasharray:none;stroke-dashoffset:0;stroke-opacity:1;paint-order:markers fill stroke" />
          <circle
             transform="matrix(0,1,1,0,0,0)"
             r="0.7986545"
             cy="-8.126442"
             cx="128.5314"
             id="circle1269"
             style="opacity:1;fill:#000000;fill-opacity:1;fill-rule:nonzero;stroke:none;stroke-width:1.76437449;stroke-linecap:butt;stroke-linejoin:miter;stroke-miterlimit:4;stroke-dasharray:none;stroke-dashoffset:0;stroke-opacity:1;paint-order:markers fill stroke" />
        </g>
      </g>
    </g>
  </g>
</svg>
