<?xml version="1.0" encoding="UTF-8" standalone="no"?>
<!-- Generated by IcoMoon.io -->

<svg
   xmlns:dc="http://purl.org/dc/elements/1.1/"
   xmlns:cc="http://creativecommons.org/ns#"
   xmlns:rdf="http://www.w3.org/1999/02/22-rdf-syntax-ns#"
   xmlns:svg="http://www.w3.org/2000/svg"
   xmlns="http://www.w3.org/2000/svg"
   xmlns:sodipodi="http://sodipodi.sourceforge.net/DTD/sodipodi-0.dtd"
   xmlns:inkscape="http://www.inkscape.org/namespaces/inkscape"
   version="1.1"
   width="215"
   height="215"
   viewBox="0 0 215 215"
   id="svg6"
   sodipodi:docname="claws.svg"
   inkscape:version="0.92.3 (2405546, 2018-03-11)">
  <metadata
     id="metadata12">
    <rdf:RDF>
      <cc:Work
         rdf:about="">
        <dc:format>image/svg+xml</dc:format>
        <dc:type
           rdf:resource="http://purl.org/dc/dcmitype/StillImage" />
        <dc:title>w_claws</dc:title>
      </cc:Work>
    </rdf:RDF>
  </metadata>
  <defs
     id="defs10" />
  <sodipodi:namedview
     pagecolor="#ffffff"
     bordercolor="#666666"
     borderopacity="1"
     objecttolerance="10"
     gridtolerance="10"
     guidetolerance="10"
     inkscape:pageopacity="0"
     inkscape:pageshadow="2"
     inkscape:window-width="1920"
     inkscape:window-height="1017"
     id="namedview8"
     showgrid="false"
     fit-margin-top="0"
     fit-margin-left="0"
     fit-margin-right="0"
     fit-margin-bottom="0"
     inkscape:zoom="1.84375"
     inkscape:cx="-160.03094"
     inkscape:cy="99.671789"
     inkscape:window-x="-8"
     inkscape:window-y="-8"
     inkscape:window-maximized="1"
     inkscape:current-layer="svg6" />
  <title
     id="title2">w_claws</title>
  <path
     d="m 144.59339,171.07525 h -3.56073 q -4.81745,-0.20946 -7.22618,0 -2.40872,0.20945 -4.71272,-0.83782 -1.67564,-0.83782 -4.39854,-2.51346 l -1.25673,-0.83781 -3.14182,-2.304 q -5.44581,-4.39855 -8.79708,-5.86473 -1.67564,-0.62836 -4.608,-3.14181 l -2.09455,-1.67564 q -2.09454,-1.46618 -3.66545,-1.25673 -1.570913,0.20946 -2.40873,1.88509 -0.628364,1.25673 -1.361454,1.57091 -0.733091,0.31418 -1.989817,0.31418 h -1.047273 q -3.351271,0 -4.817452,0.62837 v 0 q -3.979634,2.09454 -5.131634,3.24654 -1.151999,1.152 -2.827635,5.34109 l -0.209454,0.62836 q -0.418909,0.62837 -0.418909,1.04728 0.418909,2.09454 -0.418909,4.18908 -0.418909,1.46619 -1.675635,3.77018 l -1.256727,2.51346 q -0.209455,0.62836 -1.047272,1.67563 l -0.628364,0.62837 q -0.837817,1.04727 -1.88509,1.152 -1.047272,0.10472 -2.303999,-0.31419 l -5.65527,-2.51345 q -1.88509,-0.83782 -4.817452,-0.10473 -2.932362,0.73309 -3.77018,2.40873 -1.675635,3.56073 -6.074179,10.26327 l -2.722907,4.39854 q -2.303999,3.77018 -2.094545,7.74982 0.209455,2.51345 -1.675635,4.39854 -1.256727,1.25673 -2.094545,1.04727 -2.303999,-0.41891 -4.398543,2.19927 -2.094545,2.61818 -3.979635,0.52364 l -1.466181,-1.88509 q -2.094544,-2.304 -2.932362,-3.77018 -0.418909,-0.62836 -1.675636,-1.46618 -6.074178,-3.14182 -15.290174,-2.09455 -1.466181,0 -4.1890889,2.304 l -0.4189088,0.41891 q -1.0472723,1.04727 -3.77018,2.72291 l -1.6756356,0.83782 q -0.8378178,0.41891 -1.5709083,0.31418 -0.73309066,-0.10473 -1.15199954,-0.73309 -0.41890889,-0.62837 -0.20945445,-1.46618 2.30399899,-7.33091 3.14181669,-14.45236 0.2094545,-1.67564 1.2567267,-4.81745 l 0.8378178,-3.35127 q 0.8378178,-4.608 1.0472722,-6.912 0,-3.77018 -1.6756355,-7.74981 l -0.4189089,-1.25673 q -0.8378178,-1.88509 -1.0472723,-2.72291 -0.2094544,-1.67563 0.4189089,-3.14182 0.6283634,-1.46618 -0.4189089,-3.14181 -0.2094544,-0.83782 0.1047273,-1.46618 0.3141816,-0.62837 1.3614539,-0.83782 1.0472722,-0.20946 1.88509,0 2.0945444,0.20945 4.1890887,-1.04727 1.675636,-0.83782 3.141817,-0.62837 1.466181,0.20946 2.932362,-0.62836 1.047272,-0.62836 2.513453,-2.304 l 0.837818,-0.83782 q 2.513453,-2.09454 3.03709,-3.97963 0.523636,-1.88509 0.209454,-2.72291 l -0.942545,-2.51345 q -1.047272,-2.72291 -2.408726,-3.97964 -1.361454,-1.25672 -0.837818,-2.61818 0.523636,-1.36145 3.03709,-1.36145 h 0.628363 q 1.466181,-0.20946 1.88509,0.20945 0.837818,0.83782 1.675635,0.73309 0.837818,-0.10472 2.094545,-0.73309 l 0.418909,-0.20945 q 6.074179,-2.09455 8.378178,-6.912 l 0.418908,-0.62836 q 1.256727,-2.51345 1.675636,-3.77018 0.628363,-2.304 0.418909,-4.18909 -0.209455,-2.72291 0.418909,-8.16872 0.418909,-3.97964 0.418909,-6.07418 0,-7.74982 -2.932363,-17.17527 -2.722907,-8.378178 -10.472722,-16.965808 -2.094544,-2.304 -2.932362,-7.12145 -0.209454,-1.88509 1.466181,-3.56073 0.628363,-0.62836 1.88509,-0.20945 h 0.209455 q 8.168723,2.304 15.290174,0.41891 1.047272,-0.20946 3.351271,-0.20946 h 2.513453 q 5.026907,0 8.587633,-3.56072 1.675635,-1.88509 0.418909,-3.66546 -1.256727,-1.78036 -3.141817,-1.152 l -1.047272,0.41891 q -1.256727,0.20946 -1.675636,0.62837 -1.88509,1.04727 -5.864724,1.67563 -2.513454,0.20946 -3.979635,0.62836 -1.466181,0.41891 -2.303999,-0.20945 -1.256726,-1.04727 -2.722907,-0.62836 -1.466182,0.41891 -2.932363,0 -0.837817,-0.20946 -2.61818,-0.94255 -1.780363,-0.73309 -2.618181,-0.94254 -1.675635,-0.62837 -1.675635,-3.77018 -0.209455,-1.67564 1.047272,-5.02691 1.047272,-2.51345 1.151999,-4.08436 0.104728,-1.57091 1.989818,-4.92218 1.047272,-2.09455 1.466181,-3.14182 0.837817,-2.304 3.560725,-6.07418 1.88509,-2.51345 2.722908,-3.77018 1.047272,-1.88509 3.351271,-3.56072 1.256727,-1.04727 4.189089,-2.93236 l 2.094544,-1.25673 q 6.283634,-3.9796398 15.08072,-5.2363598 1.047273,-0.20946 2.932363,-0.8378201 l 1.047272,-0.41891 q 1.675635,-1.04727 5.445815,-1.98982 3.77018,-0.94254 5.445816,-1.78036 0.418909,-0.20945 1.675636,0 H 96.83777 q 0.628363,0 1.88509,0.41891 l 1.46619,0.20945 q 3.97963,1.04728 7.3309,1.25673 6.28363,0.62836 12.14836,4.1890901 0.83782,0.41891 0.62836,1.6756398 v 0.4189 q 0,1.25673 -1.25672,1.25673 -0.62837,0 -1.78037,0.52364 -1.152,0.52363 -1.78036,0.31418 -1.67564,-0.20946 -5.02691,0.62836 l -2.51345,0.62837 q -5.65527,0.83781 -8.378183,2.09454 l -1.88509,0.83782 q -3.351271,1.25672 -4.817452,1.88509 -7.330905,2.51345 -15.290174,7.74981 -1.466181,1.04727 -3.560726,3.24655 -2.094544,2.19927 -3.351271,3.03709 -1.675635,1.04727 -2.722908,3.14181 -1.88509,3.35127 -1.88509,7.12145 v 1.46618 q 0.209455,2.72291 -0.418908,4.08437 -0.628364,1.36145 0.837817,3.24654 1.466181,1.88509 3.246544,2.09454 1.780363,0.20946 3.03709,1.25673 0.837817,0.83782 2.094544,2.51345 2.513453,3.77018 3.351271,7.54036 0.628364,2.09455 0.523636,3.66546 -0.104727,1.57091 -1.151999,3.24654 l -1.88509,3.14182 q -1.88509,3.77018 -3.141817,5.445814 -2.303999,2.932362 -0.837818,7.54036 l 1.466182,4.817452 q 0.209454,2.932362 3.979634,2.303999 1.675636,-0.418909 3.979634,-2.303999 l 1.675636,-1.256727 q 3.560726,-2.722908 6.074179,-7.330905 1.88509,-3.141817 3.77018,-8.797084 0.628363,-2.72291 0,-5.02691 -0.628363,-1.46618 -0.104727,-2.40873 0.523636,-0.94254 1.780362,-1.98981 2.932363,-2.09455 4.817453,0 0.418908,0.41891 1.256731,0.62836 0.83782,0.20945 1.04727,0.41891 1.46618,0.83782 1.98982,-0.62836 0.52364,-1.46619 1.78036,-2.09455 2.93236,-1.25673 2.93236,-5.23636 v -2.09454 q 0,-2.93237 -0.62836,-4.29382 -0.62836,-1.36145 -0.41891,-4.29382 l 0.20946,-1.88509 q 0,-1.04727 1.04727,-1.67563 4.608,-4.608 6.07418,-7.54036 0.62836,-1.04727 1.67563,-1.67564 0.62837,-0.62836 1.25673,-0.20945 l 0.20945,0.20945 q 0.62837,0.62837 1.25673,2.09455 l 0.62836,1.25672 q 1.25673,2.72291 3.14182,8.16873 l 0.83782,2.09454 q 0.41891,1.46618 1.04727,1.88509 1.67564,0.62836 3.77018,2.93236 1.25673,1.25673 1.88509,1.67564 3.56073,2.72291 5.86473,3.77018 3.56072,1.67563 6.91199,1.46618 h 0.62837 q 2.51345,-0.41891 3.56072,0.41891 0.20946,0.20945 1.25673,0.31418 1.04727,0.10473 1.46618,0.73309 0.41891,0.62836 -0.10473,1.46618 -0.52363,0.83782 -0.31418,1.25673 0.20945,0.41891 0.31418,1.46618 0.10473,1.04727 0.52364,1.67564 4.81745,5.65527 1.04727,12.776717 -1.88509,3.560726 -4.608,6.493088 l -1.04727,1.047272 q -2.09454,2.513453 -3.35127,3.560726 -1.88509,1.675635 -3.97964,2.513453 l -1.88509,0.837818 q -1.88509,1.047271 -3.14181,1.256721 -2.09455,0.41891 -3.03709,1.78037 -0.94255,1.361453 -1.57091,3.456003 -0.83782,5.0269 -2.72291,8.58763 -2.304,3.97963 -6.28363,6.28363 -1.67564,1.04727 -1.46618,2.93236 0.20945,1.88509 2.09454,2.93237 1.04727,0.62836 1.46618,0.62836 1.46618,0 4.39855,0.20945 4.60799,0.20946 6.70254,-0.41891 2.09454,-0.62836 2.82763,-0.10472 0.73309,0.52363 0.94255,2.19927 v 2.09454 q 0,1.67564 1.67563,2.09455 4.39855,1.04727 6.912,0.83782 3.56073,0 6.28363,-2.304 l 1.04728,-0.62837 q 2.93236,-1.67563 4.18909,-2.93236 0.83781,-0.83782 1.98981,-0.73309 1.152,0.10473 1.57091,0.94255 l 0.20946,0.4189 q 1.04727,1.67564 1.04727,2.72291 v 1.04727 q 0.20945,1.25673 0,1.88509 -0.41891,2.51346 0.62836,5.02691 0.62836,1.46618 2.51345,3.97964 l 1.88509,2.51345 q 1.88509,2.304 2.93237,3.77018 2.7229,4.18909 6.28363,5.02691 1.04727,0 1.57091,0.62836 0.52363,0.62836 1.04727,1.67563 0.52364,1.04728 0.83782,1.36146 0.31418,0.31418 0.31418,0.62836 0,0.31418 -0.20945,0.31418 -0.62837,0.62837 -1.46619,2.304 -1.88509,3.35127 -3.45599,4.08436 -1.57091,0.73309 -3.87491,2.82764 -2.72291,2.304 -4.608,2.93236 l -2.304,0.83782 q -4.81745,2.09454 -7.74981,2.09454 -2.304,-0.20945 -6.70254,-0.20945 z m -72.052336,3.35127 q 0.209455,0 0.418909,0.10472 0.209455,0.10473 0.418909,-0.10472 2.303999,-1.25673 3.351271,-5.02691 l -0.209454,-0.62836 q -0.418909,-0.41891 -1.047273,-0.20946 -1.88509,1.67564 -3.560725,3.56073 -0.837818,0.83782 -0.523636,1.57091 0.314181,0.73309 1.151999,0.73309 z M 29.602893,138.60981 q 0,-0.83782 -0.837818,-0.83782 -0.837817,0 -1.256726,0.52364 -0.418909,0.52363 -0.523636,1.25672 -0.104728,0.73309 1.151999,0.73309 h 0.209454 q 1.256727,0 1.256727,-1.67563 z M 106.47268,71.165472 q -0.62836,-0.83782 -1.88509,-0.41891 -0.62836,0.41891 -0.20946,0.62836 l 0.41891,0.41891 q 0.41891,0.62837 0.83782,0 0.62836,0 0.83782,-0.62836 z m 5.23636,47.546158 q -0.41891,-0.83781 -1.04727,-0.83781 -0.62837,0 -0.62837,0.62836 0,0.62836 0.31419,0.83782 0.31418,0.20945 0.73309,0 1.04727,0 0.62836,-0.62837 z m 98.23413,-23.877805 q -2.30399,-2.513454 -2.7229,-8.168724 l -0.20946,-1.047272 q -0.41891,-3.979634 -1.04727,-5.864727 -0.83782,-3.35127 -2.72291,-5.65527 -0.41891,-0.41891 -0.73309,-1.46618 -0.31418,-1.04727 -0.52363,-1.46618 -3.14182,-5.23636 -10.68218,-8.37818 -6.70254,-3.35127 -10.26327,-4.39854 l -2.72291,-0.83782 q -3.14181,-1.04727 -4.81745,-1.25673 -2.51345,-0.20945 -7.54036,0 h -3.97963 q -0.83782,0 -2.09455,0.62837 l -0.62836,0.20945 q -3.97964,1.67564 -7.54036,0.62837 -1.04727,-0.41891 -3.14182,-0.41891 -2.93236,-0.20946 -4.18909,-1.04728 -0.62836,-0.4189 -1.25672,0 -3.77018,0.20946 -6.912,-2.30399 -7.12145,-4.81746 -9.84436,-12.77673 -0.41891,-0.83781 -0.83782,-2.93236 -0.83781,-3.56072 -2.09454,-5.0269 -0.20946,-0.62837 0,-1.04728 1.04727,-2.7229 3.87491,-3.97963 2.82763,-1.25673 8.4829,-3.14182 l 2.72291,-1.04727 q 2.09454,-0.83782 6.49309,-1.67564 l 1.88509,-0.4189 q 2.09454,-0.20946 6.38836,-0.31419 4.29381,-0.10472 6.38836,-0.52363 2.09454,-0.41891 4.608,-0.20946 1.67563,0.20946 4.60799,1.04728 l 2.93237,0.62836 q 3.97963,0.83782 10.89163,4.39854 3.77018,2.09455 5.65527,2.93236 l 1.04727,0.62837 q 8.79709,8.16872 14.2429,15.70908 l 0.62836,0.83782 q 3.14182,5.23636 4.18909,7.74981 0.41891,0.62837 0.52364,2.304 0.10473,1.67564 0.31418,2.304 1.46618,4.18909 1.46618,10.68218 l -0.20945,3.14181 q -0.20946,5.23637 0.31418,7.540365 0.52364,2.303999 0.52364,6.702542 0,3.351271 0.20945,4.817452 -0.20945,1.466181 -1.67564,2.513454 z m -29.32362,23.039995 h 6.07418 q 1.46618,0.62836 4.71273,1.67563 3.24654,1.04727 4.71272,1.67564 2.72291,1.25672 4.39854,3.14181 l 1.25673,1.25673 q 6.912,7.33091 9.63491,11.72945 3.35127,5.23636 3.56072,10.89163 0.20946,2.93236 -1.04727,9.00654 -0.62836,4.18909 -0.83782,6.28364 0,1.04727 -1.46618,2.51345 l -0.20945,0.41891 q -1.04728,2.51345 -0.83782,3.97963 0.20945,2.93236 -1.88509,5.86473 -2.72291,4.18909 -4.39855,7.95927 -0.62836,1.25672 -2.51345,3.35127 l -2.304,2.7229 q -2.09454,2.51346 -3.35127,3.35128 -1.25673,0.83781 -3.77018,2.7229 l -1.04727,0.62837 q -3.56073,2.304 -6.49309,4.60799 -1.04727,0.62837 -1.88509,-0.20945 l -0.20945,-0.20945 q -0.62837,-0.83782 0,-1.67564 1.67563,-2.09454 4.39854,-6.70254 l 2.72291,-4.39855 q 1.67563,-2.7229 3.97963,-9.21599 1.46618,-3.97964 2.304,-6.07418 v -2.51345 q 0,-4.81746 -0.20945,-7.33091 -0.20946,-4.18909 -1.46618,-7.3309 l -0.20946,-0.41891 q -0.20945,-0.62837 -0.62836,-1.04728 l -1.88509,-1.25672 q -2.09455,-1.46618 -3.14182,-1.88509 -2.09454,-1.04727 -3.97963,-0.62837 -5.23636,0.20946 -9.00654,-4.18908 -4.81746,-5.86473 -8.58764,-12.98618 -2.304,-4.18909 -1.88509,-9.84436 0,-2.93236 3.35127,-3.97963 6.912,-2.72291 12.14836,-1.88509 z"
     id="path4"
     inkscape:connector-curvature="0"
     style="fill:#000009;fill-opacity:1;stroke-width:6.54545116" />
</svg>
