<?xml version="1.0" encoding="UTF-8" standalone="no"?>
<!-- Generated by IcoMoon.io -->

<svg
   xmlns:dc="http://purl.org/dc/elements/1.1/"
   xmlns:cc="http://creativecommons.org/ns#"
   xmlns:rdf="http://www.w3.org/1999/02/22-rdf-syntax-ns#"
   xmlns:svg="http://www.w3.org/2000/svg"
   xmlns="http://www.w3.org/2000/svg"
   xmlns:sodipodi="http://sodipodi.sourceforge.net/DTD/sodipodi-0.dtd"
   xmlns:inkscape="http://www.inkscape.org/namespaces/inkscape"
   version="1.1"
   width="215"
   height="215"
   viewBox="0 0 215 215"
   id="svg6"
   sodipodi:docname="club.svg"
   inkscape:version="0.92.3 (2405546, 2018-03-11)">
  <metadata
     id="metadata12">
    <rdf:RDF>
      <cc:Work
         rdf:about="">
        <dc:format>image/svg+xml</dc:format>
        <dc:type
           rdf:resource="http://purl.org/dc/dcmitype/StillImage" />
        <dc:title>w_club</dc:title>
      </cc:Work>
    </rdf:RDF>
  </metadata>
  <defs
     id="defs10" />
  <sodipodi:namedview
     pagecolor="#ffffff"
     bordercolor="#666666"
     borderopacity="1"
     objecttolerance="10"
     gridtolerance="10"
     guidetolerance="10"
     inkscape:pageopacity="0"
     inkscape:pageshadow="2"
     inkscape:window-width="1920"
     inkscape:window-height="1017"
     id="namedview8"
     showgrid="false"
     fit-margin-top="0"
     fit-margin-left="0"
     fit-margin-right="0"
     fit-margin-bottom="0"
     inkscape:zoom="2.6074563"
     inkscape:cx="17.375919"
     inkscape:cy="60.579272"
     inkscape:window-x="-8"
     inkscape:window-y="-8"
     inkscape:window-maximized="1"
     inkscape:current-layer="svg6" />
  <title
     id="title2">w_club</title>
  <path
     d="m 18.377368,196.6523 q 0.860529,-0.6454 2.366454,-1.07566 l 1.07566,-0.21513 q 4.732908,-1.50593 6.453965,-4.51778 2.796718,-5.16317 7.314493,-8.17502 6.0237,-4.30264 10.541476,-11.18687 6.884229,-10.75661 12.262532,-20.22243 l 0.215133,-0.43026 q 9.680946,-16.99544 15.274382,-24.7402 2.796718,-3.44211 7.314494,-10.97174 l 2.581585,-4.30264 q 1.075661,-1.93619 3.657247,-5.59344 4.732907,-7.314487 6.238832,-11.401998 1.93619,-4.732908 7.529629,-13.123065 5.16317,-7.74475 7.09936,-12.0474 0,-0.86053 0.86053,-1.29079 4.08751,-3.87238 3.65724,-8.82042 -0.43026,-3.44211 -3.44211,-8.82042 l -1.50593,-3.01185 q -0.86053,-1.93619 -0.10756,-3.44211 0.75296,-1.50593 2.68915,-1.93619 l 13.98359,-3.65725 q 3.22698,-1.07566 4.84047,-4.41021 1.6135,-3.33454 0.9681,-6.99179 -1.93619,-8.82042 -4.30264,-15.70465 -0.6454,-2.15132 0.21513,-3.11941 0.86053,-0.9681 3.22698,-0.53784 l 12.6928,2.79672 q 4.08751,1.07566 6.13126,-1.39836 2.04376,-2.47402 5.48587,-3.54968 1.93619,-0.86053 6.23884,-1.29079 l 0.86053,-0.21513 q 12.90792,-3.01184995 20.00729,-3.22697995 2.58158,-0.21514 6.88422,1.72104995 l 1.93619,0.86053 q 0.86053,0.43027 1.2908,2.15132 l 0.64539,2.58159 q 1.50593,5.80857 1.2908,9.03555 -0.21514,2.15132 0.32269,3.54968 0.53783,1.39836 2.25889,2.04376 2.58159,1.50592 -0.43026,3.01185 -4.51778,2.58158 -5.59344,5.48587 -1.07566,2.90428 0.6454,7.85232 0.86053,2.36645 1.07566,5.59344 0.21513,1.93618 0.21513,5.80856 v 1.50593 q 0.21513,1.50592 -0.86053,2.15132 -0.64539,0.43026 -2.58158,0.86053 l -1.2908,0.21513 q -1.93619,0.43026 -5.80856,0.21513 -5.16318,-0.21513 -7.74476,0.86053 -3.87238,1.29079 -6.23883,5.48587 -2.36646,4.19508 -1.18323,7.85232 1.18323,3.65725 0.75296,9.89608 0,3.22699 -3.44211,3.22699 H 157.783 q -7.31449,-0.21514 -12.69279,5.808564 -3.01185,3.442115 -8.82042,10.111212 -8.82042,10.326337 -13.55333,15.274377 l -3.87237,4.08751 q -12.90794,13.55333 -18.931636,20.65269 -3.872379,4.73291 -11.832269,13.98359 l -6.453964,7.52963 q -3.442115,3.87237 -4.732907,6.0237 -2.151322,3.87237 -7.95989,10.43391 -5.808568,6.56153 -7.95989,10.21877 -6.453964,10.54148 -12.262532,18.0711 -0.860529,1.07566 -2.043756,3.76482 -1.183227,2.68915 -2.043755,3.97994 -1.505925,2.15132 -2.151322,2.68915 -0.645396,0.53783 -1.398359,0.3227 -0.752962,-0.21513 -2.904284,-1.50592 -1.290793,-0.6454 -2.151321,-0.86053 -0.860529,-0.21513 -2.151322,0.21513 -2.796718,1.29079 -5.701002,0 -2.904284,-1.29079 -4.195077,-4.30264 -3.01185,-8.17503 -5.593436,-11.83227 z M 137.56058,68.003277 q 1.2908,-0.43027 4.08751,-0.43027 l 1.93619,-0.21513 q 3.65725,-0.43026 5.05561,-2.47402 1.39836,-2.04376 0.3227,-5.48587 l -0.43027,-1.72106 q -0.86053,-2.79672 -0.64539,-4.08751 0.21513,-3.44211 -3.44212,-3.01185 -5.80857,1.29079 -10.97174,4.51778 -1.72106,0.86053 -1.18323,2.36645 0.53784,1.50593 0.9681,4.08751 0.21513,2.36646 0.43026,3.44212 1.07566,3.22698 3.87238,3.01185 z m 34.85141,-38.50866 q 0,-1.07566 -0.21513,-3.01185 l -0.21513,-2.79672 q -1.07566,-5.59343 -5.59344,-4.51777 -4.08751,0.64539 -9.25068,3.87238 -0.86053,0.21513 -1.18323,1.50592 -0.3227,1.29079 1.29079,5.37831 1.6135,4.08751 2.68916,4.94803 0.64539,0.6454 1.93619,0.43027 h 0.86052 q 1.50593,-0.21513 4.73291,-1.29079 1.93619,-0.86053 2.79672,-1.07566 2.58159,-0.86053 2.15132,-3.44212 z"
     id="path4"
     inkscape:connector-curvature="0"
     style="fill:#000000;fill-opacity:1;stroke-width:6.72287989" />
</svg>
