<?xml version="1.0" encoding="UTF-8" standalone="no"?>
<!-- Generated by IcoMoon.io -->

<svg
   xmlns:dc="http://purl.org/dc/elements/1.1/"
   xmlns:cc="http://creativecommons.org/ns#"
   xmlns:rdf="http://www.w3.org/1999/02/22-rdf-syntax-ns#"
   xmlns:svg="http://www.w3.org/2000/svg"
   xmlns="http://www.w3.org/2000/svg"
   xmlns:sodipodi="http://sodipodi.sourceforge.net/DTD/sodipodi-0.dtd"
   xmlns:inkscape="http://www.inkscape.org/namespaces/inkscape"
   version="1.1"
   width="215"
   height="215"
   viewBox="0 0 215.00001 215"
   id="svg6"
   sodipodi:docname="ranged_weapon.svg"
   inkscape:version="0.92.3 (2405546, 2018-03-11)">
  <metadata
     id="metadata12">
    <rdf:RDF>
      <cc:Work
         rdf:about="">
        <dc:format>image/svg+xml</dc:format>
        <dc:type
           rdf:resource="http://purl.org/dc/dcmitype/StillImage" />
        <dc:title>w_ranged_weapon</dc:title>
      </cc:Work>
    </rdf:RDF>
  </metadata>
  <defs
     id="defs10" />
  <sodipodi:namedview
     pagecolor="#ffffff"
     bordercolor="#666666"
     borderopacity="1"
     objecttolerance="10"
     gridtolerance="10"
     guidetolerance="10"
     inkscape:pageopacity="0"
     inkscape:pageshadow="2"
     inkscape:window-width="1920"
     inkscape:window-height="1017"
     id="namedview8"
     showgrid="false"
     fit-margin-top="0"
     fit-margin-left="0"
     fit-margin-right="0"
     fit-margin-bottom="0"
     inkscape:zoom="1.3037282"
     inkscape:cx="-302.54302"
     inkscape:cy="94.016706"
     inkscape:window-x="-8"
     inkscape:window-y="-8"
     inkscape:window-maximized="1"
     inkscape:current-layer="svg6" />
  <title
     id="title2">w_ranged_weapon</title>
  <path
     d="m 209.29459,0.06146852 q -1.72123,3.65761998 -4.73338,11.18799048 -3.87277,9.89707 -6.45461,14.4153 -7.31523,12.04861 -11.40315,24.52752 l -0.43031,1.07577 q -0.4303,1.50607 -0.86061,2.25911 -0.43031,0.75304 -1.82881,0.75304 -1.3985,0 -1.8288,-0.64546 -0.43031,-0.64546 -0.43031,-2.15154 l -0.21515,-1.29092 q -0.64547,-5.16369 -5.594,-1.93638 -2.58184,1.72123 -5.37884,4.51822 -1.72123,1.72123 -4.94854,5.37885 l -11.83345,13.33952 q -10.32738,11.188 -15.70622,16.781992 -3.44246,3.657612 -9.46676,11.403145 -7.10007,8.821304 -11.18799,12.909224 -15.70622,15.70622 -34.639747,42.38527 -3.012151,4.08792 -3.012151,9.03646 0.215153,2.58184 0,7.96069 l -0.215154,5.37884 q 0,3.65761 -2.36669,5.16369 -4.08792,2.79699 -7.745533,7.10007 -2.36669,2.79699 -6.45461,8.39099 -3.012152,4.30307 -4.733381,6.23946 l -2.796998,3.01215 q -3.872767,4.08792 -5.378842,6.45461 -0.430308,0.64546 -1.183346,1.07577 -0.753037,0.43031 -1.398498,0 -1.506076,-0.43031 -1.075769,-3.22731 0.645461,-5.59399 1.936383,-10.97284 0.430308,-2.36669 0.430308,-7.31522 0,-3.65761 -3.012152,-4.51823 l -0.430307,-0.21515 q -0.645461,-0.21516 -0.860615,-0.43031 -4.733381,-4.73338 -11.187991,-4.73338 -3.872767,0.21515 -11.618299,2.58184 l -2.581844,0.64547 q -1.506076,0.21515 -2.366691,0 -1.075768,0 -1.613652,-0.9682 -0.537885,-0.96819 -0.215154,-1.72123 0.32273,-0.75303 1.183345,-1.8288 l 0.215154,-0.21516 q 5.593995,-6.0243 12.909221,-11.83345 2.581844,-1.93638 6.024303,-0.64546 1.936383,0.64546 3.334882,0.64546 1.398499,0 2.796998,-0.86061 1.398499,-0.86062 2.259113,-1.72123 0.860615,-0.86062 0.860615,-2.36669 0,-2.36669 -3.012152,-2.797 -1.721229,-0.43031 -1.828806,-1.50608 -0.107577,-1.07576 0.968192,-2.36669 l 7.100071,-7.96068 q 2.796998,-3.01215 7.637956,-1.61366 4.840958,1.3985 8.928878,-0.75303 2.36669,-1.50608 6.45461,-5.80915 l 0.430307,-0.64546 q 23.021444,-26.67906 40.879206,-44.106511 6.23945,-6.024303 17.85775,-18.71837 l 6.66977,-7.31523 q 5.59399,-6.45461 9.03645,-9.03645 3.44246,-2.58184 4.08792,-5.05611 0.64546,-2.47427 2.58185,-4.84096 1.29092,-1.29092 4.08792,-3.44246 5.37884,-4.30307 8.17584,-8.8213 1.50607,-2.36669 0.96819,-3.65761 -0.53789,-1.29092 -3.11973,-2.15154 l -0.64546,-0.21515 q -1.07577,-0.21516 -1.72123,-0.43031 -1.93639,-0.86061 -2.04396,-2.25911 -0.10758,-1.3985 1.61365,-2.47427 3.22731,-1.93638 9.89707,-5.594 l 4.94853,-2.79699 q 7.10008,-3.65762 15.70622,-9.25161 5.16369,-3.4424605 15.27591,-10.54253048 0.64547,0 1.93639,-0.53789 1.29092,-0.53788 2.36669,-0.32273 z M 155.50617,55.786279 v -0.86062 l -0.86062,0.21515 v 0.21516 q 0,0.43031 0.21516,0.53788 0.21515,0.10758 0.4303,-0.10757 z M 201.97936,8.4524685 h -0.21515 l -0.21515,0.21515 0.4303,0.43031 0.21516,-0.21516 q 0,-0.4303 -0.21516,-0.4303 z M 139.15449,97.741243 q 1.93638,-2.151537 5.37884,-6.562188 3.44246,-4.41065 5.37884,-6.347033 3.01215,-3.442463 5.91673,-5.701573 2.90457,-2.25911 5.05611,-1.18334 6.45461,2.79699 12.47891,1.50607 5.37885,-1.29092 10.75769,-6.23946 1.72123,-1.50607 2.58184,-1.50607 0.86062,0 1.07577,2.58184 0,1.50608 1.29092,2.15154 10.75769,7.315224 16.35168,21.622944 5.594,14.307727 2.15154,30.659407 -4.08792,17.6426 -9.89707,29.90636 -3.87277,8.60614 -4.30307,15.70622 -0.64547,8.60614 3.11972,16.2441 3.76519,7.63795 12.58649,9.57434 3.22731,0 3.65762,2.15153 0.21515,1.07577 -0.43031,1.72123 -0.64546,0.64546 -1.72123,1.29093 l -0.64546,0.21515 q -4.08792,2.58184 -7.31523,3.01215 -4.08792,0.43031 -8.17584,-1.72123 l -3.87276,-1.93638 q -5.37884,-2.15154 -7.74553,-4.51823 -4.51823,-4.94853 -6.45462,-11.6183 -1.50607,-4.94853 -2.15153,-13.33953 -0.43031,-7.53037 1.93638,-16.13652 1.50608,-4.94854 5.594,-15.06076 l 0.64546,-1.50608 q 4.73338,-10.54253 3.65761,-19.57898 -0.21515,-1.29092 -0.43031,-4.08792 -0.21515,-5.80915 -1.50607,-8.60615 -1.29092,-2.36669 -2.797,-3.2273 -1.50608,-0.86062 -3.98034,-1.07577 -2.47427,-0.21515 -7.42281,0 l -4.94853,0.21515 q -5.594,0 -11.40315,-1.93638 -4.73338,-1.72123 -10.54253,-4.948538 -0.4303,-0.215153 -1.93638,-0.860615 z m 40.44889,4.303077 q 0.21515,-0.21515 0.43031,-0.21515 l 0.21515,-0.21516 q -0.43031,-0.43031 -0.64546,-0.43031 h -0.43031 q 0,0.86062 0.43031,0.86062 z M 2.3167434,47.180129 v -4.08792 q 0,-1.07577 0.645461,-1.93638 0.6454611,-0.86062 1.7212295,-0.86062 l 0.8606148,-0.21515 q 1.0757684,-0.21516 1.8288062,-0.10758 0.7530379,0.10758 1.398499,0.96819 l 0.645461,0.64546 q 0.8606151,1.07577 1.0757681,1.72123 5.163689,7.74553 12.478914,6.45461 1.506076,-0.21515 3.442459,0 7.315225,1.72123 14.200143,-1.50607 4.303074,-1.93639 11.618299,-7.96069 14.845604,-13.33953 35.285204,-17.85775 11.187991,-2.3667 22.591138,-0.64547 10.32738,1.50608 21.30022,6.45461 1.50607,0.64547 3.76518,3.11973 2.25912,2.47427 3.98035,3.11973 0.64546,0.21516 0.43031,0.96819 -0.21516,0.75304 -0.86062,1.3985 -1.07577,1.72123 -2.15154,5.594 -0.4303,2.15153 -0.96819,3.33488 -0.53788,1.18334 -0.32273,3.11973 0.21516,1.07577 0.86062,3.44246 l 0.21515,0.86061 q 1.07577,2.797 0.75304,4.84096 -0.32273,2.04396 -2.90458,3.76519 -2.58184,1.72123 -6.0243,6.88492 l -2.15154,3.01215 q -4.73338,5.59399 -7.31522,8.17584 -3.22731,3.442457 -5.16369,-0.86062 -2.797,-6.0243 -2.797,-10.11222 -0.43031,-8.8213 0.21516,-12.90922 1.07576,-5.37884 -3.87277,-6.66976 h -0.43031 q -3.87276,-1.29093 -5.80915,-1.72123 -3.227305,-0.43031 -6.024303,0.21515 -2.151537,0.64546 -4.518228,0.64546 -6.669764,-0.21515 -13.339528,2.797 -4.518227,1.93638 -11.618299,7.10007 -4.733381,3.44246 -10.972837,5.80915 -4.733381,1.72123 -12.048606,3.44246 -7.315226,1.72123 -15.060758,-0.21516 -6.024303,-1.29092 -13.984989,-5.59399 -2.796999,-1.72123 -5.5939965,-5.37884 l -0.4303074,-0.64546 q -1.7212294,-2.797 -3.4424589,-3.65762 -1.2909221,-0.4303 -1.5060758,-1.72123 -0.2151537,-0.64546 0,-2.15153 z m 93.3766976,-3.22731 q -0.215153,-0.21515 -0.537884,-0.32273 -0.32273,-0.10757 -0.537884,0 -0.215154,0.10758 -0.215154,0.32273 l -0.215153,0.43031 q 0.430307,0.86062 1.075768,0.43031 z"
     id="path4"
     inkscape:connector-curvature="0"
     style="fill:#000000;fill-opacity:1;stroke-width:6.7235527" />
</svg>
