<?xml version="1.0" encoding="UTF-8" standalone="no"?>
<!-- Generator: Adobe Illustrator 21.0.2, SVG Export Plug-In . SVG Version: 6.00 Build 0)  -->

<svg
   xmlns:dc="http://purl.org/dc/elements/1.1/"
   xmlns:cc="http://creativecommons.org/ns#"
   xmlns:rdf="http://www.w3.org/1999/02/22-rdf-syntax-ns#"
   xmlns:svg="http://www.w3.org/2000/svg"
   xmlns="http://www.w3.org/2000/svg"
   xmlns:sodipodi="http://sodipodi.sourceforge.net/DTD/sodipodi-0.dtd"
   xmlns:inkscape="http://www.inkscape.org/namespaces/inkscape"
   version="1.1"
   id="Layer_2"
   x="0px"
   y="0px"
   viewBox="0 0 220 220.00001"
   xml:space="preserve"
   sodipodi:docname="dispossessed.svg"
   width="220"
   height="220"
   inkscape:version="0.92.3 (2405546, 2018-03-11)"><metadata
   id="metadata11"><rdf:RDF><cc:Work
       rdf:about=""><dc:format>image/svg+xml</dc:format><dc:type
         rdf:resource="http://purl.org/dc/dcmitype/StillImage" /><dc:title /></cc:Work></rdf:RDF></metadata><defs
   id="defs9"><filter
     inkscape:label="Sharpen More"
     inkscape:menu="Image Effects"
     inkscape:menu-tooltip="Sharpen edges and boundaries within the object, force=0.3"
     style="color-interpolation-filters:sRGB"
     id="filter825"><feConvolveMatrix
       order="3 3"
       kernelMatrix="0 -0.15 0 -0.15 1.6 -0.15 0 -0.15 0"
       divisor="1"
       in="SourceGraphic"
       targetX="1"
       targetY="1"
       id="feConvolveMatrix823"
       result="fbSourceGraphic" /><feColorMatrix
       result="fbSourceGraphicAlpha"
       in="fbSourceGraphic"
       values="0 0 0 -1 0 0 0 0 -1 0 0 0 0 -1 0 0 0 0 1 0"
       id="feColorMatrix827" /><feConvolveMatrix
       id="feConvolveMatrix829"
       targetY="1"
       targetX="1"
       in="fbSourceGraphic"
       divisor="1"
       kernelMatrix="0 -0.3 0 -0.3 2.2 -0.3 0 -0.3 0"
       order="3 3"
       result="result1" /><feBlend
       in2="fbSourceGraphic"
       id="feBlend831"
       mode="normal"
       result="result2" /></filter></defs><sodipodi:namedview
   pagecolor="#ffffff"
   bordercolor="#666666"
   borderopacity="1"
   objecttolerance="10"
   gridtolerance="10"
   guidetolerance="10"
   inkscape:pageopacity="0"
   inkscape:pageshadow="2"
   inkscape:window-width="1920"
   inkscape:window-height="1017"
   id="namedview7"
   showgrid="false"
   fit-margin-top="0"
   fit-margin-left="0"
   fit-margin-right="0"
   fit-margin-bottom="0"
   inkscape:pagecheckerboard="false"
   inkscape:zoom="2"
   inkscape:cx="-159.37192"
   inkscape:cy="117.1468"
   inkscape:window-x="-8"
   inkscape:window-y="-8"
   inkscape:window-maximized="1"
   inkscape:current-layer="Layer_2"
   inkscape:snap-global="true" />


<g
   id="g1461"
   transform="matrix(0.49925095,0,0,0.49925095,270.00895,29.785389)"
   style="fill:#000000;fill-opacity:1;stroke:none"><g
     id="g1187"
     style="fill:#000000;fill-opacity:1;stroke:none"><path
       style="opacity:1;fill:#000000;fill-opacity:1;fill-rule:nonzero;stroke:none;stroke-width:0.89137578;stroke-linecap:butt;stroke-linejoin:miter;stroke-miterlimit:4;stroke-dasharray:none;stroke-dashoffset:0;stroke-opacity:1;paint-order:markers fill stroke"
       d="m -423.5,130.59099 h 203 V 148.5 h -203 z"
       id="rect836"
       inkscape:connector-curvature="0" /><path
       style="fill:#000000;fill-opacity:1;stroke:none;stroke-width:0.94500351px;stroke-linecap:butt;stroke-linejoin:miter;stroke-opacity:1"
       d="m -320.49805,5 c -18.33873,0 -54.79979,24.082296 -62.49609,44.353516 35.21941,11.604614 30.89823,52.218664 22.45898,76.818364 h 40.03711 40.03711 c -8.43925,-24.5997 -12.76042,-65.21375 22.45899,-76.818364 C -265.69825,29.082296 -302.15932,5 -320.49805,5 Z"
       id="path839"
       inkscape:connector-curvature="0" /><g
       id="g914"
       style="fill:#000000;fill-opacity:1;stroke:none"><path
         sodipodi:nodetypes="cccc"
         inkscape:connector-curvature="0"
         id="path852"
         d="m -384.46966,53.430872 c -10.76468,11.89754 -31.70564,42.354353 -34.65404,72.740698 h 53.85732 c 8.05988,-22.94621 12.29451,-60.398378 -19.20328,-72.740698 z"
         style="fill:#000000;fill-opacity:1;stroke:none;stroke-width:0.94923174px;stroke-linecap:butt;stroke-linejoin:miter;stroke-opacity:1" /><path
         style="fill:#000000;fill-opacity:1;stroke:none;stroke-width:0.94923174px;stroke-linecap:butt;stroke-linejoin:miter;stroke-opacity:1"
         d="m -256.52643,53.430872 c 10.76468,11.89754 31.70564,42.354353 34.65404,72.740698 h -53.85732 c -8.05989,-22.94621 -12.2945,-60.398378 19.20328,-72.740698 z"
         id="path883"
         inkscape:connector-curvature="0"
         sodipodi:nodetypes="cccc" /></g><g
       id="g910"
       style="fill:#000000;fill-opacity:1;stroke:none"><path
         id="path892"
         d="m -442.12047,-59.660156 c -49.37485,39.819518 -20.50216,122.67397 25.91211,156.917968 5.26151,-13.447529 12.45185,-25.739054 19.07813,-35.248046 -45.94604,-13.349021 -58.07607,-82.280289 -44.99024,-121.669922 z"
         style="fill:#000000;fill-opacity:1;stroke:none;stroke-width:1px;stroke-linecap:butt;stroke-linejoin:miter;stroke-opacity:1"
         inkscape:connector-curvature="0" /><path
         inkscape:connector-curvature="0"
         style="fill:#000000;fill-opacity:1;stroke:none;stroke-width:1px;stroke-linecap:butt;stroke-linejoin:miter;stroke-opacity:1"
         d="m -198.87562,-59.660156 c 49.37485,39.819518 20.50216,122.67397 -25.91211,156.917968 -5.26151,-13.447529 -12.45185,-25.739054 -19.07813,-35.248046 45.94604,-13.349021 58.07607,-82.280289 44.99024,-121.669922 z"
         id="path900" /></g></g><g
     id="g1437"
     style="fill:#000000;fill-opacity:1;stroke:none"><path
       inkscape:connector-curvature="0"
       id="path916"
       d="m -338.18674,153.20711 h 32.37348 V 208.5 h -32.37348 z"
       style="opacity:1;fill:#000000;fill-opacity:1;fill-rule:nonzero;stroke:none;stroke-width:0.6254698;stroke-linecap:butt;stroke-linejoin:miter;stroke-miterlimit:4;stroke-dasharray:none;stroke-dashoffset:0;stroke-opacity:1;paint-order:markers fill stroke" /><g
       id="g1431"
       style="fill:#000000;fill-opacity:1;stroke:none"><path
         id="path925"
         d="m -415.57617,153.20703 44.81836,33.6875 0.004,0.002 28.06836,21.09766 v -28.11328 -8.31836 h -11.0664 l -24.41993,-18.35547 z"
         style="fill:#000000;fill-opacity:1;stroke:none;stroke-width:1.01173806px;stroke-linecap:butt;stroke-linejoin:miter;stroke-opacity:1"
         inkscape:connector-curvature="0" /><path
         style="fill:#000000;fill-opacity:1;stroke:none;stroke-width:1.01173806px;stroke-linecap:butt;stroke-linejoin:miter;stroke-opacity:1"
         d="m -228.42383,153.20703 -44.81836,33.6875 -0.004,0.002 -28.06836,21.09766 v -28.11328 -8.31836 h 11.0664 l 24.41993,-18.35547 z"
         id="path1066"
         inkscape:connector-curvature="0" /></g></g><g
     id="g1427"
     style="fill:#000000;fill-opacity:1;stroke:none"><path
       style="opacity:1;fill:#000000;fill-opacity:1;fill-rule:nonzero;stroke:none;stroke-width:1.21962094;stroke-linecap:butt;stroke-linejoin:miter;stroke-miterlimit:4;stroke-dasharray:none;stroke-dashoffset:0;stroke-opacity:1;paint-order:markers fill stroke"
       d="m -344.97266,239.20703 c -0.18766,3.59271 -1.98572,36.17176 -6.71484,50.95703 -3.08245,9.63706 -15.80712,32.59103 -22.83594,44.81641 17.26254,15.34404 34.86771,32.25386 52.52344,46.01953 17.65573,-13.76567 35.2609,-30.67549 52.52344,-46.01953 -7.02882,-12.22538 -19.75349,-35.17935 -22.83594,-44.81641 -4.72912,-14.78527 -6.52718,-47.36432 -6.71484,-50.95703 H -322 Z"
       id="path918"
       inkscape:connector-curvature="0" /><path
       style="fill:#000000;fill-opacity:1;stroke:none;stroke-width:1px;stroke-linecap:butt;stroke-linejoin:miter;stroke-opacity:1"
       d="m -356.38267,240.44447 c -14.95172,22.79821 -34.48385,39.32977 -56.56835,55.39258 l 38.10336,30.24889 c 5.45602,-9.28572 15.01082,-26.27488 18.51563,-37.23242 4.94416,-15.45758 7.4233,-48.89627 7.47851,-49.64649 z"
       id="path961"
       inkscape:connector-curvature="0"
       sodipodi:nodetypes="cccscc" /><path
       inkscape:connector-curvature="0"
       style="fill:#000000;fill-opacity:1;stroke:none;stroke-width:1px;stroke-linecap:butt;stroke-linejoin:miter;stroke-opacity:1"
       d="m -365.6543,196.30664 c -27.02728,25.25338 -64.77652,39.24263 -89.72265,63.46875 l 35.00195,30.58203 c 4.68761,0 6.46293,-1.87125 10.33398,-2.38672 19.2921,-14.53567 36.37296,-29.92852 49.76954,-50.35547 l 16.8789,-24.57617 -22.25781,-16.72851 z"
       id="path970" /><path
       inkscape:connector-curvature="0"
       style="fill:#000000;fill-opacity:1;stroke:none;stroke-width:1px;stroke-linecap:butt;stroke-linejoin:miter;stroke-opacity:1"
       d="m -418.72266,156.41797 c 5.69172,33.86214 -12.75966,35.88294 -43.37109,46.25781 8.58897,15.57624 12.30737,27.3839 14.10156,44.48047 22.7907,-17.26696 55.42657,-32.75243 78.23242,-53.93555 z"
       id="path1000" /><path
       sodipodi:nodetypes="cccscc"
       inkscape:connector-curvature="0"
       id="path1404"
       d="m -287.61733,240.44447 c 14.95172,22.79821 34.48385,39.32977 56.56835,55.39258 l -38.10336,30.24889 c -5.45602,-9.28572 -15.01082,-26.27488 -18.51563,-37.23242 -4.94416,-15.45758 -7.4233,-48.89627 -7.47851,-49.64649 z"
       style="fill:#000000;fill-opacity:1;stroke:none;stroke-width:1px;stroke-linecap:butt;stroke-linejoin:miter;stroke-opacity:1" /><path
       inkscape:connector-curvature="0"
       id="path1406"
       d="m -278.3457,196.30664 c 27.02728,25.25338 64.77652,39.24263 89.72265,63.46875 l -35.00195,30.58203 c -4.68761,0 -6.46293,-1.87125 -10.33398,-2.38672 -19.2921,-14.53567 -36.37296,-29.92852 -49.76954,-50.35547 l -16.8789,-24.57617 22.25781,-16.72851 z"
       style="fill:#000000;fill-opacity:1;stroke:none;stroke-width:1px;stroke-linecap:butt;stroke-linejoin:miter;stroke-opacity:1" /><path
       id="path1408"
       d="m -225.27734,156.41797 c -5.69172,33.86214 12.75966,35.88294 43.37109,46.25781 -8.58897,15.57624 -12.30737,27.3839 -14.10156,44.48047 -22.7907,-17.26696 -55.42657,-32.75243 -78.23242,-53.93555 z"
       style="fill:#000000;fill-opacity:1;stroke:none;stroke-width:1px;stroke-linecap:butt;stroke-linejoin:miter;stroke-opacity:1"
       inkscape:connector-curvature="0" /></g></g></svg>