<?xml version="1.0" encoding="UTF-8" standalone="no"?>
<!-- Generated by IcoMoon.io -->

<svg
   xmlns:dc="http://purl.org/dc/elements/1.1/"
   xmlns:cc="http://creativecommons.org/ns#"
   xmlns:rdf="http://www.w3.org/1999/02/22-rdf-syntax-ns#"
   xmlns:svg="http://www.w3.org/2000/svg"
   xmlns="http://www.w3.org/2000/svg"
   xmlns:sodipodi="http://sodipodi.sourceforge.net/DTD/sodipodi-0.dtd"
   xmlns:inkscape="http://www.inkscape.org/namespaces/inkscape"
   version="1.1"
   width="215"
   height="215"
   viewBox="0 0 215 215"
   id="svg18"
   sodipodi:docname="deployment.svg"
   inkscape:version="0.92.3 (2405546, 2018-03-11)">
  <metadata
     id="metadata24">
    <rdf:RDF>
      <cc:Work
         rdf:about="">
        <dc:format>image/svg+xml</dc:format>
        <dc:type
           rdf:resource="http://purl.org/dc/dcmitype/StillImage" />
        <dc:title>card-decks-deployment</dc:title>
      </cc:Work>
    </rdf:RDF>
  </metadata>
  <defs
     id="defs22" />
  <sodipodi:namedview
     pagecolor="#ffffff"
     bordercolor="#666666"
     borderopacity="1"
     objecttolerance="10"
     gridtolerance="10"
     guidetolerance="10"
     inkscape:pageopacity="0"
     inkscape:pageshadow="2"
     inkscape:window-width="1920"
     inkscape:window-height="1017"
     id="namedview20"
     showgrid="false"
     fit-margin-top="0"
     fit-margin-left="0"
     fit-margin-right="0"
     fit-margin-bottom="0"
     inkscape:zoom="2.6074563"
     inkscape:cx="-94.870227"
     inkscape:cy="94.319862"
     inkscape:window-x="-8"
     inkscape:window-y="-8"
     inkscape:window-maximized="1"
     inkscape:current-layer="svg18" />
  <title
     id="title2">card-decks-deployment</title>
  <g
     id="g841"
     transform="matrix(6.7199476,0,0,6.7199476,-0.00683307,-0.00335977)"
     style="fill:#ffffff;fill-opacity:1">
    <path
       id="path4"
       d="m 12.596,31.856 c -0.147,-0.107 -0.374,-0.214 -0.494,-0.214 -0.12,0 -0.387,-0.093 -0.601,-0.2 -0.2,-0.107 -0.628,-0.294 -0.935,-0.427 -0.32,-0.12 -0.574,-0.267 -0.574,-0.334 0,-0.053 -0.08,-0.107 -0.187,-0.107 -0.107,0 -0.214,-0.053 -0.24,-0.12 C 9.552,30.387 9.285,30.227 8.991,30.08 8.163,29.693 6.787,28.785 6.787,28.638 c 0,-0.08 -0.12,-0.147 -0.254,-0.16 C 6.306,28.465 3.982,26.274 3.982,26.087 3.982,26.02 3.862,25.86 3.448,25.379 3.141,25.018 2.914,24.591 2.914,24.364 c 0,-0.107 -0.053,-0.2 -0.107,-0.2 -0.12,0 -0.694,-1.229 -0.694,-1.469 0,-0.08 -0.053,-0.24 -0.12,-0.374 -0.494,-0.988 -0.561,-1.549 -0.508,-4.915 0.04,-3.165 0.134,-4.02 0.507,-4.754 0.067,-0.134 0.12,-0.374 0.12,-0.534 0,-0.174 0.094,-0.481 0.2,-0.694 0.107,-0.2 0.2,-0.574 0.2,-0.815 0,-0.601 0.147,-1.282 0.267,-1.202 C 2.832,9.434 2.953,9.127 3.046,8.726 3.153,8.312 3.313,7.951 3.407,7.911 3.501,7.871 3.581,7.777 3.581,7.697 3.581,7.43 5.357,4.799 5.624,4.692 5.677,4.665 5.717,4.585 5.717,4.532 5.717,4.385 6.465,3.597 6.598,3.597 6.718,3.597 7.72,2.809 8.08,2.435 8.24,2.261 8.494,2.128 8.654,2.128 c 0.147,0 0.267,-0.04 0.267,-0.107 0,-0.053 0.387,-0.24 0.868,-0.401 0.481,-0.174 0.895,-0.374 0.948,-0.441 0.04,-0.067 0.187,-0.12 0.334,-0.12 0.134,0 0.361,-0.053 0.494,-0.12 0.735,-0.401 1.696,-0.548 3.472,-0.548 1.309,0 2.03,-0.053 2.431,-0.2 0.721,-0.254 1.482,-0.254 2.097,0 0.254,0.107 0.614,0.2 0.788,0.2 0.16,0 0.347,0.053 0.387,0.134 0.04,0.067 0.2,0.134 0.347,0.134 0.147,0 0.294,0.094 0.334,0.2 0.053,0.107 0.24,0.2 0.454,0.2 0.2,0 0.441,0.093 0.534,0.2 0.093,0.107 0.294,0.2 0.467,0.2 0.16,0 0.574,0.147 0.921,0.334 0.347,0.187 0.775,0.334 0.962,0.334 0.174,0 0.361,0.094 0.401,0.2 0.053,0.107 0.147,0.2 0.24,0.2 0.16,0 1.282,1.135 1.282,1.295 0,0.067 0.187,0.321 0.414,0.574 0.24,0.254 0.574,0.708 0.775,1.002 0.187,0.294 0.374,0.561 0.414,0.601 0.254,0.254 0.534,1.055 0.534,1.549 0,0.427 0.053,0.588 0.2,0.588 0.107,0 0.2,0.094 0.2,0.2 0,0.106 0.067,0.2 0.134,0.2 0.08,0 0.134,0.067 0.134,0.147 0,0.067 -0.053,0.094 -0.134,0.053 -0.067,-0.04 0.013,0.214 0.187,0.561 0.347,0.735 0.574,1.349 0.788,2.11 0.187,0.708 0.28,7.733 0.107,8.347 -0.067,0.254 -0.187,0.895 -0.267,1.402 -0.187,1.309 -0.294,1.843 -0.414,2.003 -0.053,0.08 -0.134,0.307 -0.187,0.534 -0.053,0.214 -0.147,0.427 -0.187,0.467 -0.187,0.134 -0.561,0.962 -0.561,1.215 0,0.134 -0.053,0.254 -0.134,0.254 -0.067,0 -0.16,0.134 -0.214,0.307 -0.04,0.16 -0.307,0.481 -0.588,0.694 -0.294,0.227 -0.521,0.481 -0.534,0.574 0,0.08 -0.053,0.16 -0.134,0.16 -0.067,0 -0.134,0.08 -0.134,0.174 0,0.094 -0.12,0.174 -0.254,0.187 -0.134,0.013 -0.427,0.187 -0.641,0.401 -0.694,0.654 -1.068,0.948 -1.362,1.042 -0.16,0.04 -0.28,0.134 -0.28,0.2 0,0.066 -0.12,0.16 -0.267,0.2 -0.147,0.053 -0.24,0.147 -0.2,0.214 0.053,0.067 0.013,0.12 -0.08,0.12 -0.254,0 -1.189,0.441 -1.189,0.561 0,0.053 -0.147,0.107 -0.32,0.107 -0.173,0 -0.347,0.093 -0.401,0.2 -0.04,0.107 -0.187,0.2 -0.32,0.2 -0.133,0 -0.294,0.04 -0.347,0.093 -0.053,0.053 -0.374,0.2 -0.721,0.334 -0.534,0.2 -1.068,0.24 -3.726,0.24 -1.99,0 -3.112,0.053 -3.138,0.134 -0.08,0.254 -0.948,0.307 -1.242,0.08 z m 4.474,-3.085 c 0,-0.307 0.053,-0.347 0.361,-0.307 0.254,0.027 0.361,0.134 0.401,0.361 0.067,0.454 0.28,0.681 0.654,0.681 0.267,0 0.334,-0.08 0.401,-0.534 0.053,-0.294 0.134,-0.534 0.187,-0.534 0.067,0 0.134,-0.254 0.174,-0.561 0.12,-1.189 0.401,-2.644 0.494,-2.644 0.053,0 0.147,-0.147 0.187,-0.334 0.053,-0.187 0.147,-0.334 0.214,-0.334 0.08,0 0.134,-0.093 0.134,-0.2 0,-0.107 0.053,-0.2 0.134,-0.2 0.16,0 0.935,-0.748 0.935,-0.908 0,-0.053 0.134,-0.107 0.294,-0.12 0.147,-0.013 0.334,-0.107 0.387,-0.2 0.067,-0.093 0.187,-0.174 0.28,-0.174 0.093,-0.013 0.16,-0.08 0.147,-0.174 -0.027,-0.08 0.053,-0.12 0.147,-0.08 0.107,0.04 0.32,-0.053 0.467,-0.2 0.16,-0.16 0.361,-0.28 0.467,-0.28 0.494,0 1.683,-1.816 1.683,-2.578 0,-0.2 -0.147,-0.588 -0.32,-0.868 -0.174,-0.267 -0.427,-0.815 -0.561,-1.189 -0.134,-0.387 -0.294,-0.708 -0.347,-0.708 -0.067,0 -0.107,-0.2 -0.107,-0.441 0,-0.241 -0.067,-0.508 -0.147,-0.588 -0.093,-0.094 -0.187,-0.748 -0.227,-1.469 -0.027,-0.721 -0.12,-1.336 -0.174,-1.376 C 23.215,12.732 23.041,11.61 22.801,9.34 22.721,8.646 22.614,8.018 22.534,7.951 22.467,7.871 22.414,7.63 22.414,7.39 c 0,-0.227 -0.093,-0.494 -0.2,-0.588 -0.107,-0.094 -0.2,-0.28 -0.2,-0.414 0,-0.147 -0.053,-0.254 -0.134,-0.254 -0.067,0 -0.134,-0.093 -0.134,-0.2 0,-0.107 -0.053,-0.2 -0.107,-0.2 -0.067,0 -0.187,-0.147 -0.267,-0.321 -0.147,-0.347 -1.255,-1.149 -1.576,-1.149 -0.093,0 -0.187,-0.04 -0.187,-0.107 0,-0.16 -1.269,-0.561 -1.79,-0.561 -0.28,0 -0.628,-0.067 -0.775,-0.147 -0.401,-0.214 -2.097,-0.24 -2.631,-0.027 -0.24,0.094 -0.708,0.174 -1.015,0.174 -0.32,0 -0.748,0.094 -0.948,0.2 -0.214,0.107 -0.494,0.2 -0.614,0.2 -0.134,0 -0.24,0.067 -0.24,0.134 0,0.08 -0.107,0.134 -0.24,0.134 -0.133,0 -0.414,0.174 -0.628,0.401 -0.2,0.214 -0.414,0.361 -0.467,0.334 -0.12,-0.08 -0.494,0.387 -0.828,1.015 -0.147,0.28 -0.32,0.561 -0.387,0.601 -0.067,0.04 -0.12,0.174 -0.12,0.307 0,0.134 -0.094,0.427 -0.2,0.628 -0.107,0.214 -0.2,0.521 -0.2,0.694 0,0.16 -0.053,0.294 -0.134,0.294 -0.067,0 -0.134,0.187 -0.134,0.401 0,0.227 -0.094,0.628 -0.2,0.895 -0.147,0.361 -0.2,1.042 -0.2,2.925 0,1.402 -0.053,2.457 -0.12,2.457 -0.067,0 -0.16,0.174 -0.214,0.401 -0.053,0.214 -0.147,0.427 -0.214,0.467 -0.067,0.053 -0.12,0.2 -0.12,0.361 0,0.147 -0.093,0.441 -0.2,0.654 -0.107,0.213 -0.294,0.561 -0.401,0.775 -0.107,0.214 -0.2,0.508 -0.2,0.654 0,0.16 -0.053,0.32 -0.134,0.361 -0.067,0.04 -0.134,0.227 -0.134,0.401 0,0.174 0.067,0.361 0.134,0.401 0.08,0.04 0.134,0.24 0.134,0.441 0,0.201 0.093,0.534 0.2,0.748 0.107,0.2 0.2,0.521 0.2,0.694 0,0.187 0.093,0.361 0.2,0.401 0.107,0.053 0.2,0.16 0.2,0.24 0,0.093 0.321,0.267 0.708,0.401 0.374,0.134 0.815,0.28 0.962,0.347 0.147,0.067 0.761,0.307 1.376,0.548 0.601,0.24 1.095,0.494 1.095,0.548 0,0.054 0.067,0.107 0.134,0.107 0.227,0 0.668,0.521 0.668,0.788 0,0.147 0.067,0.28 0.147,0.307 0.08,0.027 0.187,0.361 0.227,0.748 0.027,0.387 0.12,0.735 0.174,0.775 0.067,0.04 0.12,0.427 0.12,0.868 0,1.002 0.347,1.856 0.748,1.856 0.2,0 0.321,-0.107 0.374,-0.334 0.094,-0.361 0.347,-0.454 0.347,-0.134 0,0.107 0.067,0.2 0.147,0.2 0.067,0 0.107,0.053 0.067,0.107 -0.027,0.053 0.134,0.12 0.387,0.134 0.401,0.027 0.454,0 0.494,-0.334 0.027,-0.28 0.12,-0.387 0.374,-0.414 0.267,-0.027 0.294,-0.013 0.134,0.093 -0.134,0.093 -0.147,0.147 -0.027,0.147 0.08,0 0.16,0.12 0.16,0.267 0,0.16 0.12,0.32 0.294,0.387 0.374,0.134 0.775,-0.307 0.775,-0.855 z"
       inkscape:connector-curvature="0"
       style="fill:#ffffff;fill-opacity:1" />
    <path
       id="path6"
       d="m 14.506,25.339 c -0.187,-0.28 -0.187,-0.387 -0.04,-0.721 0.094,-0.214 0.267,-0.601 0.387,-0.881 0.12,-0.267 0.214,-0.574 0.214,-0.694 0,-0.294 0.294,-0.922 0.534,-1.108 0.32,-0.267 0.975,-0.16 1.135,0.2 0.067,0.16 0.174,0.294 0.227,0.294 0.067,0 0.107,0.147 0.107,0.334 0,0.187 0.08,0.334 0.187,0.334 0.187,0 0.347,0.801 0.347,1.683 0,0.588 -0.2,0.681 -1.683,0.788 -1.175,0.093 -1.215,0.093 -1.416,-0.227 z"
       inkscape:connector-curvature="0"
       style="fill:#ffffff;fill-opacity:1" />
    <path
       id="path8"
       d="m 10.833,22.16 c -0.427,-0.107 -0.788,-0.24 -0.815,-0.294 -0.027,-0.067 -0.134,-0.107 -0.24,-0.107 -0.106,0 -0.387,-0.107 -0.628,-0.227 -0.24,-0.12 -0.481,-0.214 -0.534,-0.2 -0.067,0.013 -0.08,-0.013 -0.04,-0.08 0.04,-0.067 -0.04,-0.2 -0.16,-0.32 -0.254,-0.227 -0.721,-0.775 -0.881,-1.028 -0.174,-0.267 1.456,-1.763 1.936,-1.776 0.2,-0.013 0.347,-0.067 0.32,-0.12 -0.174,-0.267 0.508,-0.24 1.095,0.053 1.042,0.521 1.549,0.735 1.95,0.815 0.2,0.053 0.361,0.147 0.361,0.214 0,0.08 0.147,0.134 0.334,0.134 0.187,0 0.334,0.053 0.334,0.12 0,0.067 0.16,0.16 0.347,0.2 0.2,0.053 0.441,0.174 0.534,0.28 0.214,0.214 0.254,0.735 0.053,0.735 -0.067,0 -0.134,0.08 -0.134,0.174 0,0.107 -0.12,0.294 -0.267,0.427 -0.147,0.133 -0.227,0.294 -0.174,0.374 0.053,0.08 0.013,0.093 -0.08,0.04 -0.107,-0.067 -0.187,0 -0.24,0.174 -0.067,0.267 -0.187,0.334 -0.534,0.294 -0.094,-0.013 -0.174,0.027 -0.174,0.107 0,0.214 -1.549,0.227 -2.364,0.013 z"
       inkscape:connector-curvature="0"
       style="fill:#ffffff;fill-opacity:1" />
    <path
       id="path10"
       d="m 13.371,22.334 c 0.053,-0.04 0.134,-0.04 0.187,0 0.04,0.053 0,0.093 -0.094,0.093 -0.094,0 -0.134,-0.04 -0.094,-0.093 z"
       inkscape:connector-curvature="0"
       style="fill:#ffffff;fill-opacity:1" />
    <path
       id="path12"
       d="m 18.713,22.053 c -0.32,-0.027 -0.574,-0.093 -0.574,-0.16 0,-0.067 -0.134,-0.134 -0.294,-0.16 -0.2,-0.027 -0.32,-0.147 -0.347,-0.334 -0.027,-0.16 -0.12,-0.361 -0.227,-0.441 -0.187,-0.16 -0.16,-0.347 0.107,-0.908 0.16,-0.334 2.043,-1.309 3.299,-1.709 0.401,-0.12 0.935,-0.307 1.175,-0.414 0.481,-0.214 1.002,-0.147 1.429,0.174 0.214,0.16 0.267,0.347 0.254,1.002 0,0.454 -0.067,0.855 -0.147,0.895 -0.08,0.053 -0.174,0.227 -0.227,0.401 -0.053,0.174 -0.2,0.294 -0.361,0.294 -0.134,0 -0.254,0.067 -0.254,0.134 0,0.08 -0.067,0.134 -0.16,0.134 -0.08,0 -0.254,0.08 -0.361,0.174 -0.12,0.093 -0.548,0.28 -0.948,0.427 -0.401,0.134 -0.761,0.28 -0.801,0.334 -0.093,0.134 -0.908,0.214 -1.563,0.16 z"
       inkscape:connector-curvature="0"
       style="fill:#ffffff;fill-opacity:1" />
    <path
       id="path14"
       d="m 11.167,15.896 c -0.708,-0.548 -0.761,-0.668 -0.534,-1.135 0.12,-0.227 0.24,-0.441 0.28,-0.481 0.04,-0.04 0.2,-0.294 0.334,-0.561 0.147,-0.28 0.307,-0.508 0.374,-0.508 0.053,0 0.107,-0.094 0.107,-0.2 0,-0.106 0.094,-0.2 0.2,-0.2 0.107,0 0.2,-0.094 0.2,-0.2 0,-0.106 0.053,-0.2 0.12,-0.2 0.067,0 0.174,-0.134 0.227,-0.294 0.053,-0.174 0.214,-0.427 0.374,-0.574 0.387,-0.361 0.748,-0.895 0.748,-1.095 0,-0.2 -1.723,-1.91 -1.923,-1.91 -0.04,0 -0.347,-0.267 -0.694,-0.601 -0.548,-0.534 -0.601,-0.628 -0.441,-0.828 0.347,-0.441 0.654,-0.708 0.788,-0.708 0.08,0 0.12,-0.08 0.107,-0.16 -0.027,-0.12 0.16,-0.187 0.561,-0.214 0.401,-0.027 0.534,0.013 0.414,0.093 -0.147,0.093 -0.12,0.134 0.107,0.214 0.147,0.04 0.28,0.147 0.28,0.214 0,0.08 0.187,0.321 0.401,0.548 0.227,0.214 0.401,0.441 0.401,0.508 0,0.067 0.16,0.174 0.374,0.24 0.2,0.08 0.28,0.147 0.174,0.147 -0.294,0.013 0.467,0.548 0.788,0.548 0.294,0 1.068,-0.668 1.068,-0.921 0,-0.08 0.093,-0.147 0.2,-0.147 0.107,0 0.2,-0.093 0.2,-0.2 0,-0.107 0.053,-0.2 0.12,-0.2 0.067,0 0.174,-0.134 0.227,-0.294 0.053,-0.174 0.214,-0.427 0.374,-0.588 0.16,-0.147 0.347,-0.387 0.427,-0.534 0.187,-0.334 0.775,-0.401 1.149,-0.134 0.16,0.12 0.441,0.214 0.601,0.214 0.414,0 0.401,0.414 -0.027,0.895 -0.668,0.721 -1.135,1.416 -1.135,1.656 0,0.147 -0.053,0.254 -0.107,0.254 -0.054,0 -0.254,0.24 -0.427,0.534 -0.187,0.294 -0.374,0.534 -0.427,0.534 -0.067,0 -0.107,0.094 -0.107,0.2 0,0.106 -0.053,0.2 -0.134,0.2 -0.067,0 -0.134,0.134 -0.134,0.28 0,0.307 1.322,1.656 1.763,1.803 0.134,0.04 0.24,0.134 0.24,0.2 0,0.066 0.093,0.12 0.2,0.12 0.107,0 0.2,0.094 0.2,0.2 0,0.106 0.067,0.2 0.147,0.2 0.08,0 0.441,0.307 0.801,0.668 0.361,0.374 0.721,0.668 0.801,0.668 0.093,0 0.067,0.12 -0.067,0.334 -0.12,0.174 -0.214,0.494 -0.214,0.708 0,0.427 -0.32,0.815 -0.467,0.561 -0.04,-0.067 -0.187,-0.134 -0.307,-0.134 -0.134,0 -0.347,-0.147 -0.481,-0.334 -0.134,-0.187 -0.294,-0.334 -0.361,-0.334 -0.147,0 -0.922,-0.801 -0.922,-0.948 0,-0.067 -0.08,-0.12 -0.187,-0.12 -0.2,0 -0.401,-0.16 -1.616,-1.215 -0.561,-0.494 -0.775,-0.614 -1.055,-0.561 -0.187,0.04 -0.347,0.107 -0.347,0.16 0,0.053 -0.187,0.28 -0.401,0.534 -0.227,0.24 -0.361,0.494 -0.32,0.574 0.053,0.094 0.027,0.107 -0.067,0.053 -0.08,-0.053 -0.187,0 -0.24,0.147 -0.053,0.12 -0.227,0.361 -0.401,0.521 -0.174,0.16 -0.307,0.32 -0.307,0.374 0,0.053 -0.08,0.187 -0.16,0.294 -0.094,0.107 -0.24,0.267 -0.307,0.361 -0.494,0.588 -0.721,0.935 -0.668,1.042 0.147,0.227 -0.494,0.04 -0.895,-0.267 z"
       inkscape:connector-curvature="0"
       style="fill:#ffffff;fill-opacity:1" />
    <path
       id="path16"
       d="m 19.941,15.883 c 0.04,-0.067 0.107,-0.134 0.147,-0.134 0.04,0 0.027,0.067 -0.013,0.134 -0.04,0.08 -0.107,0.134 -0.147,0.134 -0.04,0 -0.027,-0.053 0.013,-0.134 z"
       inkscape:connector-curvature="0"
       style="fill:#ffffff;fill-opacity:1" />
  </g>
</svg>
