<?xml version="1.0" encoding="UTF-8" standalone="no"?>
<!-- Generated by IcoMoon.io -->

<svg
   xmlns:dc="http://purl.org/dc/elements/1.1/"
   xmlns:cc="http://creativecommons.org/ns#"
   xmlns:rdf="http://www.w3.org/1999/02/22-rdf-syntax-ns#"
   xmlns:svg="http://www.w3.org/2000/svg"
   xmlns="http://www.w3.org/2000/svg"
   xmlns:sodipodi="http://sodipodi.sourceforge.net/DTD/sodipodi-0.dtd"
   xmlns:inkscape="http://www.inkscape.org/namespaces/inkscape"
   version="1.1"
   width="215"
   height="215"
   viewBox="0 0 215 215"
   id="svg44"
   sodipodi:docname="symmetrical.svg"
   inkscape:version="0.92.3 (2405546, 2018-03-11)">
  <metadata
     id="metadata50">
    <rdf:RDF>
      <cc:Work
         rdf:about="">
        <dc:format>image/svg+xml</dc:format>
        <dc:type
           rdf:resource="http://purl.org/dc/dcmitype/StillImage" />
        <dc:title>card-decks-symmetrical</dc:title>
      </cc:Work>
    </rdf:RDF>
  </metadata>
  <defs
     id="defs48" />
  <sodipodi:namedview
     pagecolor="#ffffff"
     bordercolor="#666666"
     borderopacity="1"
     objecttolerance="10"
     gridtolerance="10"
     guidetolerance="10"
     inkscape:pageopacity="0"
     inkscape:pageshadow="2"
     inkscape:window-width="1920"
     inkscape:window-height="1017"
     id="namedview46"
     showgrid="false"
     fit-margin-top="0"
     fit-margin-left="0"
     fit-margin-right="0"
     fit-margin-bottom="0"
     inkscape:zoom="1.3037281"
     inkscape:cx="-201.8785"
     inkscape:cy="119.26283"
     inkscape:window-x="-8"
     inkscape:window-y="-8"
     inkscape:window-maximized="1"
     inkscape:current-layer="svg44" />
  <title
     id="title2">card-decks-symmetrical</title>
  <g
     id="g880"
     transform="matrix(6.7184153,0,0,6.7184153,-0.00671835,-0.00999213)"
     style="fill:#ffffff;fill-opacity:1">
    <path
       id="path4"
       d="m 27.83,31.811 c 0.013,-0.09 -0.039,-0.155 -0.103,-0.168 -0.078,0 -0.31,-0.155 -0.517,-0.349 -0.207,-0.207 -0.427,-0.362 -0.491,-0.362 -0.052,0 -0.233,-0.142 -0.401,-0.323 -0.168,-0.181 -0.349,-0.323 -0.401,-0.323 -0.052,0 -0.969,-0.853 -2.029,-1.9 -2.727,-2.689 -2.663,-2.624 -2.74,-2.624 -0.039,0 -0.672,-0.608 -1.422,-1.357 -0.969,-0.969 -1.435,-1.357 -1.654,-1.357 -0.168,0 -0.427,-0.09 -0.569,-0.194 -0.129,-0.103 -0.323,-0.194 -0.401,-0.194 -0.181,0 -0.685,-0.401 -0.685,-0.53 0,-0.039 0.336,-0.181 0.75,-0.323 0.401,-0.129 0.801,-0.297 0.892,-0.375 0.09,-0.065 0.246,-0.207 0.349,-0.284 0.103,-0.09 0.259,-0.168 0.336,-0.168 0.065,0 0.129,-0.09 0.129,-0.194 0,-0.104 0.065,-0.194 0.129,-0.194 0.078,0 0.233,-0.233 0.349,-0.517 0.129,-0.284 0.297,-0.517 0.388,-0.517 0.091,0 0.168,-0.129 0.168,-0.297 0,-0.168 0.09,-0.414 0.194,-0.556 0.103,-0.129 0.194,-0.465 0.194,-0.724 0,-0.271 0.052,-0.491 0.116,-0.491 0.155,0 0.181,-2.029 0.013,-2.133 -0.065,-0.039 -0.129,-0.362 -0.129,-0.724 0,-0.349 -0.052,-0.633 -0.129,-0.633 -0.065,0 -0.155,-0.142 -0.207,-0.323 -0.039,-0.181 -0.129,-0.323 -0.181,-0.323 -0.065,0 -0.155,-0.116 -0.194,-0.271 -0.116,-0.362 -1.37,-1.59 -1.887,-1.848 -0.22,-0.116 -0.517,-0.207 -0.659,-0.207 -0.439,0 -0.271,-0.53 0.362,-1.112 0.323,-0.31 0.711,-0.595 0.84,-0.633 0.129,-0.052 0.246,-0.142 0.246,-0.207 0,-0.065 0.052,-0.116 0.129,-0.116 0.065,0 0.297,-0.168 0.517,-0.388 0.22,-0.22 0.452,-0.388 0.517,-0.388 0.052,0 0.633,-0.517 1.28,-1.163 0.646,-0.633 1.202,-1.163 1.254,-1.163 0.052,0 0.297,-0.194 0.556,-0.427 0.685,-0.595 1.215,-0.995 1.331,-0.995 0.052,0 0.556,-0.465 1.125,-1.034 0.582,-0.569 1.112,-1.034 1.189,-1.034 0.065,0 0.103,-0.052 0.065,-0.103 -0.078,-0.116 0.375,-0.543 0.569,-0.543 0.078,0 0.129,-0.09 0.129,-0.194 0,-0.104 0.052,-0.194 0.116,-0.194 0.052,0 0.401,-0.284 0.763,-0.646 0.362,-0.349 0.685,-0.646 0.724,-0.646 0.039,0 0.078,0.116 0.078,0.259 0,0.142 -0.052,0.259 -0.129,0.259 -0.065,0 -0.129,0.09 -0.129,0.194 0,0.116 -0.09,0.233 -0.194,0.271 -0.103,0.052 -0.194,0.207 -0.194,0.375 0,0.168 -0.09,0.323 -0.194,0.375 -0.103,0.039 -0.194,0.194 -0.194,0.349 0,0.168 -0.103,0.297 -0.271,0.336 -0.181,0.052 -0.22,0.103 -0.103,0.168 0.103,0.078 0.026,0.168 -0.259,0.31 -0.22,0.116 -0.401,0.297 -0.401,0.401 0,0.104 -0.039,0.194 -0.103,0.194 -0.052,0 -0.207,0.22 -0.349,0.491 -0.142,0.258 -0.284,0.504 -0.323,0.543 -0.155,0.129 -0.905,1.435 -0.905,1.551 0,0.078 -0.052,0.129 -0.129,0.129 -0.065,0 -0.155,0.142 -0.207,0.323 -0.039,0.181 -0.129,0.323 -0.194,0.323 -0.065,0 -0.116,0.103 -0.116,0.246 0,0.129 -0.09,0.31 -0.194,0.401 -0.104,0.091 -0.194,0.258 -0.194,0.388 0,0.22 -0.375,0.646 -0.569,0.646 -0.052,0 -0.181,-0.09 -0.284,-0.194 -0.323,-0.31 -0.439,-0.233 -0.439,0.297 0,0.271 -0.09,0.607 -0.194,0.75 -0.103,0.129 -0.194,0.478 -0.207,0.763 -0.013,0.285 -0.039,0.414 -0.078,0.284 -0.026,-0.116 -0.116,-0.194 -0.181,-0.155 -0.065,0.052 -0.116,-0.233 -0.116,-0.633 0,-0.672 -0.026,-0.724 -0.297,-0.724 -0.194,0 -0.375,0.116 -0.478,0.323 -0.09,0.181 -0.284,0.323 -0.414,0.323 -0.13,0 -0.233,0.052 -0.233,0.103 0,0.065 -0.142,0.181 -0.323,0.258 -0.181,0.077 -0.323,0.233 -0.323,0.349 0,0.194 0.439,0.711 0.608,0.711 0.142,0 1.448,1.461 1.538,1.706 0.103,0.336 0.517,0.401 0.956,0.142 0.491,-0.284 0.53,-0.776 0.078,-0.892 -0.336,-0.078 -0.53,-0.388 -0.336,-0.504 0.078,-0.039 0.737,-0.103 1.499,-0.116 0.788,-0.026 1.422,-0.103 1.512,-0.194 0.078,-0.078 0.349,-0.142 0.595,-0.142 0.259,0 0.633,-0.09 0.84,-0.194 0.194,-0.103 0.491,-0.194 0.646,-0.194 0.142,0 0.388,-0.09 0.517,-0.194 0.142,-0.103 0.452,-0.194 0.685,-0.194 0.233,0 0.427,-0.052 0.427,-0.129 0,-0.065 0.181,-0.129 0.388,-0.129 0.22,0 0.388,0.065 0.388,0.129 0,0.078 -0.078,0.129 -0.181,0.129 -0.103,0 -0.271,0.078 -0.362,0.155 -0.09,0.09 -0.401,0.284 -0.685,0.427 -0.284,0.143 -0.595,0.336 -0.685,0.414 -0.09,0.09 -0.22,0.168 -0.284,0.168 -0.064,0 -0.207,0.155 -0.31,0.362 -0.116,0.194 -0.194,0.258 -0.207,0.155 0,-0.155 -0.026,-0.168 -0.116,-0.013 -0.065,0.09 -0.194,0.142 -0.284,0.116 -0.09,-0.026 -0.336,0.103 -0.53,0.31 -0.194,0.194 -0.401,0.362 -0.452,0.362 -0.065,0 -0.259,0.142 -0.452,0.323 -0.193,0.181 -0.401,0.323 -0.465,0.323 -0.078,0 -0.155,0.09 -0.207,0.194 -0.039,0.103 -0.194,0.194 -0.336,0.194 -0.142,0 -0.259,0.052 -0.259,0.116 0,0.065 -0.129,0.168 -0.284,0.22 -0.155,0.039 -0.336,0.129 -0.414,0.194 -0.078,0.065 -0.271,0.233 -0.439,0.375 -0.259,0.207 -0.297,0.323 -0.246,0.853 0.039,0.336 0.142,0.646 0.22,0.698 0.116,0.078 0.116,0.116 -0.013,0.168 -0.155,0.065 -0.155,0.09 0,0.194 0.181,0.129 0.078,0.724 -0.116,0.608 -0.052,-0.039 -0.078,0.052 -0.039,0.194 0.039,0.142 0.129,0.259 0.194,0.259 0.065,0 0.078,0.065 0.026,0.155 -0.052,0.09 -0.039,0.103 0.052,0.052 0.078,-0.052 0.22,0.026 0.31,0.168 0.116,0.194 0.246,0.246 0.478,0.181 0.207,-0.052 0.284,-0.026 0.22,0.065 -0.039,0.078 -0.013,0.181 0.065,0.233 0.103,0.052 0.116,0.039 0.065,-0.052 -0.051,-0.091 -0.013,-0.155 0.103,-0.155 0.116,0 0.207,0.065 0.207,0.129 0,0.078 0.207,0.129 0.465,0.129 0.246,0 0.427,0.052 0.388,0.103 -0.039,0.065 -0.259,0.09 -0.491,0.078 -0.375,-0.039 -0.388,-0.039 -0.103,0.065 0.181,0.052 0.569,0.078 0.879,0.039 0.297,-0.026 0.543,0 0.53,0.052 -0.052,0.284 0.026,0.439 0.207,0.439 0.103,0 0.194,0.065 0.194,0.142 0,0.09 0.129,0.116 0.323,0.09 0.168,-0.039 0.284,-0.013 0.246,0.039 -0.09,0.142 0.388,0.375 0.788,0.375 0.194,0 0.31,0.052 0.259,0.129 -0.039,0.078 0.013,0.129 0.116,0.129 0.103,0 0.246,0.078 0.297,0.181 0.052,0.103 0.31,0.207 0.556,0.246 0.259,0.026 0.439,0.116 0.414,0.207 -0.013,0.103 0.142,0.129 0.517,0.078 0.31,-0.026 0.452,-0.026 0.323,0.013 -0.375,0.116 -0.103,0.31 0.427,0.31 0.401,0 0.491,0.039 0.439,0.194 -0.052,0.142 -0.271,0.194 -0.724,0.194 -0.349,0 -0.608,-0.052 -0.569,-0.116 0.039,-0.064 -0.401,-0.142 -0.982,-0.168 -0.685,-0.026 -1.073,-0.103 -1.112,-0.207 -0.026,-0.09 -0.09,-0.129 -0.155,-0.09 -0.065,0.039 -0.271,0 -0.478,-0.078 -0.194,-0.078 -0.969,-0.155 -1.719,-0.181 -1.538,-0.065 -2.844,-0.194 -2.844,-0.284 0,-0.039 0.09,-0.22 0.207,-0.427 0.284,-0.465 0.155,-0.776 -0.31,-0.776 -0.259,0 -0.427,0.09 -0.543,0.323 -0.09,0.181 -0.22,0.323 -0.284,0.323 -0.052,0 -0.103,0.065 -0.103,0.129 0,0.207 -0.582,0.866 -1.215,1.396 -0.259,0.207 -0.271,0.659 -0.013,0.75 0.103,0.052 0.194,0.129 0.194,0.194 0,0.065 0.323,0.427 0.711,0.814 0.388,0.375 0.711,0.763 0.711,0.866 0,0.103 0.194,0.284 0.439,0.388 0.388,0.181 0.439,0.181 0.556,0 0.065,-0.116 0.103,-0.414 0.09,-0.659 0,-0.246 0.052,-0.491 0.129,-0.543 0.103,-0.065 0.09,-0.103 -0.013,-0.103 -0.09,0 -0.168,-0.116 -0.168,-0.259 0,-0.194 0.09,-0.259 0.323,-0.259 0.297,0 0.323,0.052 0.323,0.517 0,0.284 0.052,0.517 0.116,0.517 0.064,0 0.155,0.155 0.207,0.362 0.129,0.53 0.491,1.318 0.608,1.318 0.052,0 0.103,0.103 0.103,0.246 0,0.129 0.09,0.31 0.194,0.401 0.104,0.091 0.194,0.297 0.194,0.452 0,0.168 0.039,0.323 0.103,0.349 0.078,0.039 0.233,0.31 0.788,1.525 0.116,0.246 0.233,0.478 0.271,0.517 0.142,0.142 0.517,0.931 0.517,1.086 0,0.09 0.181,0.362 0.388,0.595 0.22,0.233 0.388,0.517 0.388,0.608 0,0.091 0.078,0.168 0.168,0.168 0.103,0 0.09,0.052 -0.039,0.129 -0.181,0.116 -0.09,0.194 0.181,0.142 0.065,-0.013 0.052,0.065 -0.052,0.168 -0.194,0.246 -0.401,0.271 -0.349,0.052 z"
       inkscape:connector-curvature="0"
       style="fill:#ffffff;fill-opacity:1" />
    <path
       id="path6"
       d="M 3.452,31.617 C 3.284,31.462 3.362,31.229 3.685,30.854 3.866,30.647 4.047,30.35 4.086,30.195 4.138,30.027 4.215,29.898 4.28,29.898 c 0.065,0 0.116,-0.168 0.116,-0.362 0,-0.194 0.065,-0.427 0.142,-0.504 0.181,-0.181 0.465,-0.672 0.582,-0.969 0.039,-0.129 0.129,-0.233 0.194,-0.233 0.065,0 0.116,-0.142 0.116,-0.31 0,-0.168 0.09,-0.375 0.194,-0.465 0.104,-0.09 0.194,-0.233 0.194,-0.323 0,-0.22 0.427,-0.969 0.556,-0.969 0.052,0 0.09,-0.09 0.09,-0.194 0,-0.104 0.09,-0.401 0.207,-0.672 0.116,-0.271 0.271,-0.608 0.323,-0.75 0.065,-0.142 0.129,-0.388 0.155,-0.556 0.026,-0.155 0.116,-0.362 0.194,-0.439 0.09,-0.09 0.155,-0.233 0.155,-0.323 0,-0.09 0.09,-0.168 0.194,-0.168 0.155,0 0.194,0.207 0.194,1.034 0,0.969 0.013,1.034 0.284,1.034 0.258,0 1.008,-0.685 1.008,-0.931 0,-0.052 0.065,-0.103 0.142,-0.103 0.142,0 0.892,-0.776 0.892,-0.931 0,-0.065 0.078,-0.103 0.168,-0.103 0.078,0 0.246,-0.194 0.349,-0.427 L 10.923,21.82 10.251,21.148 C 9.876,20.773 9.566,20.424 9.566,20.347 9.566,20.282 9.514,20.205 9.463,20.179 9.411,20.166 9.192,19.92 8.998,19.662 8.623,19.158 8.274,19.016 8.274,19.365 c 0,0.103 -0.09,0.194 -0.194,0.194 -0.207,0 -0.271,0.336 -0.065,0.414 0.065,0.026 0.142,0.181 0.155,0.362 0.039,0.31 0,0.323 -0.801,0.427 -0.465,0.052 -1.293,0.129 -1.835,0.168 -0.556,0.039 -1.008,0.129 -1.008,0.194 0,0.078 -0.052,0.09 -0.129,0.052 -0.065,-0.039 -0.129,-0.039 -0.129,0.026 0,0.129 -1.758,0.194 -2.688,0.09 -0.659,-0.065 -0.827,-0.31 -0.207,-0.31 0.168,0 0.31,-0.052 0.31,-0.116 0,-0.064 0.129,-0.168 0.297,-0.207 0.427,-0.129 1.125,-0.504 1.125,-0.608 0,-0.065 0.207,-0.103 0.452,-0.103 0.245,0 0.452,-0.052 0.452,-0.116 0,-0.065 0.233,-0.233 0.517,-0.388 0.284,-0.142 0.517,-0.233 0.517,-0.181 0,0.039 0.103,-0.013 0.233,-0.129 0.129,-0.129 0.401,-0.233 0.582,-0.246 0.194,-0.013 0.349,-0.078 0.349,-0.129 0,-0.051 0.155,-0.103 0.349,-0.103 0.181,0 0.31,-0.039 0.258,-0.078 -0.116,-0.116 0.246,-0.439 0.478,-0.439 0.116,0 0.207,-0.052 0.207,-0.129 0,-0.065 0.103,-0.129 0.22,-0.129 0.117,0 0.323,-0.103 0.465,-0.233 0.246,-0.22 0.258,-0.207 0.103,0.103 L 8.132,18.074 8.378,17.751 C 8.598,17.492 8.662,17.066 8.533,16.717 8.507,16.678 8.507,16.614 8.52,16.562 c 0,-0.065 -0.052,-0.103 -0.116,-0.103 -0.181,0 -0.168,-0.995 0.013,-1.06 C 8.533,15.36 8.52,15.283 8.404,15.102 8.236,14.831 7.318,14.133 7.124,14.133 c -0.065,0 -0.181,-0.09 -0.271,-0.194 -0.09,-0.104 -0.246,-0.194 -0.349,-0.194 -0.103,0 -0.31,-0.142 -0.478,-0.323 -0.168,-0.181 -0.375,-0.323 -0.465,-0.323 -0.09,0 -0.129,-0.078 -0.09,-0.168 C 5.51,12.828 5.458,12.75 5.355,12.737 5.252,12.724 5.084,12.698 4.98,12.685 4.877,12.672 4.825,12.62 4.864,12.569 4.89,12.517 4.799,12.44 4.657,12.388 4.515,12.349 4.399,12.259 4.399,12.194 4.399,12.142 4.257,12.052 4.076,12.013 3.895,11.961 3.753,11.871 3.753,11.806 c 0,-0.078 -0.09,-0.129 -0.194,-0.129 -0.104,0 -0.194,-0.052 -0.194,-0.116 0,-0.065 -0.129,-0.168 -0.284,-0.22 C 2.926,11.302 2.68,11.147 2.538,11.005 2.396,10.876 2.137,10.734 1.982,10.695 1.814,10.643 1.685,10.54 1.685,10.437 c 0,-0.103 -0.129,-0.181 -0.323,-0.181 -0.181,0 -0.323,-0.052 -0.323,-0.129 0,-0.065 0.142,-0.129 0.323,-0.129 0.181,0 0.323,0.065 0.323,0.129 0,0.078 0.129,0.129 0.297,0.129 0.155,0 0.452,0.09 0.659,0.194 0.194,0.103 0.517,0.194 0.711,0.194 0.194,0 0.414,0.065 0.504,0.155 0.181,0.181 1.008,0.349 2.714,0.517 0.724,0.078 1.318,0.194 1.318,0.258 0,0.052 0.142,0.103 0.323,0.103 0.388,0 0.414,0.142 0.065,0.362 -0.142,0.09 -0.258,0.271 -0.258,0.414 0,0.284 0.465,0.646 0.84,0.646 0.271,0 0.711,-0.401 0.711,-0.646 0,-0.078 0.09,-0.129 0.194,-0.129 0.104,0 0.194,-0.09 0.194,-0.207 0,-0.207 0.827,-1.086 1.021,-1.086 0.052,0 0.194,-0.103 0.31,-0.233 C 11.585,10.475 11.43,10.035 10.978,9.88 10.771,9.815 10.603,9.673 10.603,9.583 10.603,9.493 10.409,9.299 10.164,9.169 9.763,8.962 9.686,8.949 9.518,9.117 9.415,9.233 9.311,9.531 9.285,9.802 9.22,10.539 8.923,10.552 8.923,9.815 8.923,9.492 8.858,9.22 8.794,9.22 8.716,9.22 8.678,9.181 8.691,9.13 8.73,8.923 8.497,8.057 8.394,8.057 8.342,8.057 8.278,8.264 8.252,8.509 8.213,9.039 8.019,9.116 7.864,8.677 7.761,8.393 7.774,8.393 7.954,8.625 8.057,8.767 8.148,8.819 8.148,8.754 8.148,8.483 7.851,8.315 7.657,8.47 7.502,8.599 7.489,8.56 7.515,8.25 7.554,7.992 7.515,7.875 7.399,7.901 7.321,7.914 7.244,7.862 7.244,7.785 7.244,7.708 6.921,7.126 6.533,6.492 6.145,5.859 5.822,5.29 5.822,5.212 5.822,5.147 5.77,5.083 5.693,5.083 5.628,5.083 5.538,4.941 5.486,4.76 5.447,4.579 5.37,4.437 5.318,4.437 5.266,4.437 5.098,4.204 4.93,3.92 4.775,3.636 4.594,3.403 4.516,3.403 4.451,3.403 4.4,3.313 4.4,3.209 4.4,3.015 4.064,2.563 3.573,2.097 3.444,1.968 3.366,1.787 3.405,1.696 3.431,1.593 3.302,1.347 3.095,1.153 2.733,0.778 2.604,0.429 2.836,0.429 c 0.065,0 0.336,0.207 0.607,0.452 0.259,0.246 0.53,0.452 0.582,0.452 0.065,0 0.116,0.065 0.116,0.142 0,0.142 0.698,0.892 0.827,0.892 0.052,0 0.388,0.323 0.776,0.711 0.375,0.388 0.801,0.711 0.931,0.711 0.207,0 0.22,0.026 0.052,0.129 -0.155,0.103 -0.116,0.129 0.168,0.129 0.207,0 0.336,0.065 0.323,0.168 -0.026,0.09 0.116,0.168 0.336,0.194 0.246,0.026 0.323,0.078 0.22,0.142 -0.116,0.078 0.026,0.258 0.465,0.607 0.336,0.271 0.814,0.685 1.047,0.918 0.233,0.233 0.452,0.427 0.478,0.427 0.026,0 0.323,0.246 0.633,0.556 0.763,0.698 0.957,0.866 1.047,0.866 0.052,0 0.246,0.155 0.439,0.362 0.504,0.478 0.918,0.827 1.357,1.112 0.207,0.129 0.504,0.375 0.646,0.53 0.155,0.155 0.414,0.336 0.582,0.388 0.233,0.065 0.258,0.116 0.129,0.207 -0.129,0.078 -0.142,0.116 -0.013,0.116 0.078,0 0.155,0.09 0.155,0.207 0,0.117 -0.078,0.181 -0.155,0.155 -0.09,-0.039 -0.388,0.103 -0.672,0.31 -0.271,0.194 -0.556,0.362 -0.62,0.362 -0.362,0 -1.654,1.422 -1.654,1.822 0,0.129 -0.052,0.246 -0.129,0.246 -0.065,0 -0.129,0.078 -0.129,0.181 0,0.103 -0.078,0.271 -0.181,0.375 -0.155,0.155 -0.323,1.15 -0.336,1.965 -0.013,0.931 0.439,3.038 0.646,3.038 0.065,0 0.142,0.142 0.181,0.323 0.052,0.181 0.142,0.323 0.207,0.323 0.078,0 0.129,0.09 0.129,0.194 0,0.155 0.582,0.788 1.215,1.318 0.09,0.078 0.388,0.194 0.646,0.233 0.258,0.052 0.504,0.142 0.543,0.207 0.039,0.065 0.194,0.116 0.362,0.116 0.181,0 0.297,0.078 0.297,0.194 0,0.116 -0.078,0.181 -0.181,0.142 -0.09,-0.039 -0.168,0.013 -0.168,0.116 0,0.103 -0.103,0.194 -0.246,0.194 -0.129,0 -0.31,0.09 -0.401,0.194 -0.091,0.104 -0.362,0.194 -0.595,0.194 -0.246,0 -0.439,0.065 -0.439,0.129 0,0.078 -0.078,0.129 -0.181,0.129 -0.246,0 -1.241,0.995 -1.241,1.228 0,0.103 -0.052,0.194 -0.116,0.194 -0.155,0 -1.125,0.892 -3.516,3.27 -1.06,1.047 -1.991,1.9 -2.055,1.9 -0.078,0 -0.129,0.09 -0.129,0.194 0,0.104 -0.065,0.194 -0.129,0.194 -0.129,0 -0.284,0.103 -0.711,0.491 -0.09,0.078 -0.233,0.155 -0.31,0.155 -0.065,0 -0.155,0.116 -0.207,0.246 -0.039,0.142 -0.258,0.31 -0.478,0.388 -0.478,0.168 -0.427,0.168 -0.53,0.052 z M 7.549,18.626 C 7.51,18.561 7.407,18.523 7.329,18.523 c -0.103,0 -0.103,0.039 0.026,0.116 0.116,0.078 0.129,0.142 0.026,0.194 -0.078,0.052 -0.142,0.155 -0.142,0.246 0,0.078 0.078,0.026 0.181,-0.103 0.103,-0.142 0.155,-0.297 0.129,-0.349 z m 0.918,-0.232 c 0.039,-0.065 0.052,-0.129 0.013,-0.129 -0.039,0 -0.103,0.065 -0.142,0.129 -0.039,0.078 -0.052,0.129 -0.013,0.129 0.039,0 0.103,-0.052 0.142,-0.129 z m -0.75,-0.091 c -0.052,-0.039 -0.129,-0.039 -0.181,0 -0.039,0.052 0,0.09 0.09,0.09 0.09,0 0.129,-0.039 0.09,-0.09 z m 0.259,-0.258 c -0.052,-0.039 -0.09,0 -0.09,0.09 0,0.09 0.039,0.129 0.09,0.09 0.039,-0.052 0.039,-0.129 0,-0.181 z M 8.105,8.118 C 8.105,8.015 8.053,7.963 7.989,8.002 7.925,8.041 7.911,8.131 7.95,8.196 8.066,8.364 8.105,8.338 8.105,8.118 Z"
       inkscape:connector-curvature="0"
       style="fill:#ffffff;fill-opacity:1" />
    <path
       id="path8"
       d="M 0.363,21.922 C 0.453,21.883 0.57,21.896 0.609,21.935 0.661,21.974 0.583,22.013 0.441,22 0.299,22 0.26,21.961 0.363,21.922 Z"
       inkscape:connector-curvature="0"
       style="fill:#ffffff;fill-opacity:1" />
    <path
       id="path10"
       d="m 31.074,21.858 c -0.052,-0.09 -0.039,-0.103 0.052,-0.052 0.091,0.051 0.155,0.116 0.155,0.155 0,0.103 -0.116,0.052 -0.207,-0.103 z"
       inkscape:connector-curvature="0"
       style="fill:#ffffff;fill-opacity:1" />
    <path
       id="path12"
       d="m 31.746,21.793 c -0.078,-0.181 -0.065,-0.194 0.065,-0.078 0.09,0.09 0.129,0.194 0.09,0.233 -0.039,0.039 -0.116,-0.026 -0.155,-0.155 z"
       inkscape:connector-curvature="0"
       style="fill:#ffffff;fill-opacity:1" />
    <path
       id="path14"
       d="m 0.001,21.496 c 0,-0.065 0.207,-0.129 0.452,-0.129 0.245,0 0.452,0.065 0.452,0.129 0,0.078 -0.207,0.129 -0.452,0.129 -0.245,0 -0.452,-0.052 -0.452,-0.129 z"
       inkscape:connector-curvature="0"
       style="fill:#ffffff;fill-opacity:1" />
    <path
       id="path16"
       d="m 1.035,21.496 c 0,-0.065 0.116,-0.129 0.271,-0.129 0.142,0 0.22,0.065 0.181,0.129 -0.039,0.078 -0.168,0.129 -0.271,0.129 -0.103,0 -0.181,-0.052 -0.181,-0.129 z"
       inkscape:connector-curvature="0"
       style="fill:#ffffff;fill-opacity:1" />
    <path
       id="path18"
       d="m 31.061,21.018 c 0.052,-0.039 0.129,-0.039 0.181,0 0.039,0.052 0,0.09 -0.09,0.09 -0.09,0 -0.129,-0.039 -0.09,-0.09 z"
       inkscape:connector-curvature="0"
       style="fill:#ffffff;fill-opacity:1" />
    <path
       id="path20"
       d="m 3.4,18.95 c 0.052,-0.039 0.129,-0.039 0.181,0 0.039,0.052 0,0.09 -0.09,0.09 -0.09,0 -0.129,-0.039 -0.09,-0.09 z"
       inkscape:connector-curvature="0"
       style="fill:#ffffff;fill-opacity:1" />
    <path
       id="path22"
       d="m 26.731,18.95 c 0.078,-0.026 0.233,-0.026 0.323,0 0.078,0.039 0.013,0.065 -0.168,0.065 -0.181,0 -0.246,-0.026 -0.155,-0.065 z"
       inkscape:connector-curvature="0"
       style="fill:#ffffff;fill-opacity:1" />
    <path
       id="path24"
       d="m 3.775,18.536 c 0.026,-0.259 0.103,-0.336 0.336,-0.323 0.155,0.013 0.284,-0.052 0.284,-0.155 0,-0.116 0.155,-0.181 0.427,-0.181 0.284,0 0.362,-0.039 0.233,-0.116 -0.142,-0.09 -0.142,-0.116 0,-0.181 C 5.184,17.528 5.171,17.502 5.016,17.502 4.887,17.489 4.783,17.437 4.783,17.373 4.783,17.321 4.46,17.231 4.046,17.192 3.645,17.153 3.283,17.063 3.245,16.998 3.207,16.933 2.78,16.83 2.301,16.791 1.823,16.739 1.396,16.636 1.357,16.571 1.305,16.506 1.047,16.455 0.762,16.455 c -0.271,0 -0.504,-0.052 -0.504,-0.116 0,-0.052 0.62,-0.142 1.383,-0.194 0.763,-0.052 1.448,-0.142 1.525,-0.207 0.078,-0.065 0.465,-0.129 0.879,-0.155 0.672,-0.039 0.737,-0.065 0.737,-0.323 0,-0.168 -0.065,-0.297 -0.129,-0.297 -0.078,0 -0.31,-0.155 -0.53,-0.349 C 3.903,14.607 3.671,14.465 3.606,14.478 3.541,14.504 3.49,14.413 3.49,14.284 c 0,-0.181 0.103,-0.233 0.478,-0.246 0.258,-0.013 0.401,0.026 0.31,0.09 -0.181,0.103 0.633,0.646 0.995,0.646 0.116,0 0.336,0.09 0.465,0.194 0.142,0.103 0.427,0.194 0.633,0.194 0.271,0 0.53,0.155 0.944,0.569 0.465,0.478 0.569,0.659 0.569,1.06 0,0.259 -0.039,0.439 -0.078,0.401 C 7.754,17.153 7.573,17.218 7.392,17.36 7.224,17.502 7.017,17.58 6.94,17.528 6.875,17.489 6.85,17.502 6.888,17.58 c 0.09,0.142 -0.698,0.556 -1.086,0.556 -0.142,0 -0.284,0.09 -0.323,0.194 -0.052,0.129 -0.258,0.194 -0.646,0.194 -0.362,0 -0.607,0.065 -0.646,0.168 -0.116,0.323 -0.452,0.194 -0.414,-0.155 z M 5.003,18.187 C 4.964,18.148 4.848,18.135 4.757,18.174 c -0.103,0.039 -0.065,0.078 0.078,0.078 0.142,0.013 0.22,-0.026 0.168,-0.065 z"
       inkscape:connector-curvature="0"
       style="fill:#ffffff;fill-opacity:1" />
    <path
       id="path26"
       d="m 27.093,18.368 c 0.039,-0.052 -0.259,-0.103 -0.659,-0.103 -0.439,0 -0.698,-0.052 -0.646,-0.129 0.039,-0.065 -0.155,-0.155 -0.439,-0.207 -0.284,-0.052 -0.595,-0.168 -0.672,-0.259 -0.078,-0.103 -0.207,-0.181 -0.271,-0.181 -0.22,0 -0.685,-0.439 -0.724,-0.685 -0.09,-0.517 0.931,-1.59 1.616,-1.719 0.233,-0.039 0.427,-0.116 0.427,-0.168 0,-0.052 0.22,-0.103 0.478,-0.116 0.271,-0.026 0.53,-0.116 0.595,-0.22 0.052,-0.103 0.22,-0.194 0.349,-0.194 0.142,0 0.259,-0.052 0.259,-0.116 0,-0.064 0.103,-0.142 0.233,-0.194 0.116,-0.039 0.297,-0.116 0.388,-0.155 0.091,-0.039 0.155,0.026 0.155,0.181 0,0.168 -0.116,0.284 -0.323,0.336 -0.233,0.065 -0.323,0.168 -0.323,0.401 0,0.181 -0.065,0.323 -0.142,0.323 -0.065,0 -0.09,-0.078 -0.039,-0.155 0.065,-0.129 0.052,-0.129 -0.065,-0.026 -0.09,0.09 -0.142,0.284 -0.116,0.452 0.039,0.284 0.116,0.323 0.879,0.388 0.465,0.052 1.215,0.155 1.68,0.233 0.465,0.078 1.137,0.142 1.512,0.142 1.112,0 0.956,0.259 -0.181,0.284 -0.556,0 -0.814,0.039 -0.582,0.065 0.75,0.103 0.439,0.246 -0.556,0.271 -1.021,0.013 -1.293,0.09 -1.15,0.31 0.052,0.09 -0.259,0.103 -0.969,0.065 L 26.76,17.127 v 0.375 c 0,0.349 0.026,0.375 0.556,0.388 0.388,0 0.478,0.039 0.284,0.103 -0.233,0.09 -0.22,0.116 0.129,0.31 l 0.388,0.22 -0.543,-0.026 c -0.297,-0.013 -0.517,-0.065 -0.478,-0.129 z m -1.952,-0.75 c -0.039,-0.065 -0.155,-0.129 -0.233,-0.129 -0.09,0 -0.078,0.052 0.039,0.129 0.246,0.155 0.297,0.155 0.194,0 z m -0.75,-0.349 c -0.052,-0.039 -0.129,-0.039 -0.181,0 -0.039,0.052 0,0.09 0.09,0.09 0.09,0 0.129,-0.039 0.09,-0.09 z"
       inkscape:connector-curvature="0"
       style="fill:#ffffff;fill-opacity:1" />
    <path
       id="path28"
       d="m 28.217,18.174 c 0.052,-0.039 0.129,-0.039 0.181,0 0.039,0.052 0,0.09 -0.09,0.09 -0.09,0 -0.129,-0.039 -0.09,-0.09 z"
       inkscape:connector-curvature="0"
       style="fill:#ffffff;fill-opacity:1" />
    <path
       id="path30"
       d="m 23.848,18.006 c -0.039,-0.065 -0.013,-0.129 0.052,-0.129 0.078,0 0.142,0.065 0.142,0.129 0,0.078 -0.026,0.129 -0.052,0.129 -0.039,0 -0.103,-0.052 -0.142,-0.129 z"
       inkscape:connector-curvature="0"
       style="fill:#ffffff;fill-opacity:1" />
    <path
       id="path32"
       d="m 29.859,15.938 -0.711,-0.09 0.672,-0.013 c 0.362,-0.013 0.711,0.039 0.75,0.103 0.039,0.078 0.065,0.116 0.039,0.103 -0.026,-0.013 -0.362,-0.052 -0.75,-0.103 z"
       inkscape:connector-curvature="0"
       style="fill:#ffffff;fill-opacity:1" />
    <path
       id="path34"
       d="m 26.951,12.319 c 0.039,-0.065 0.103,-0.129 0.142,-0.129 0.039,0 0.026,0.065 -0.013,0.129 -0.039,0.078 -0.103,0.129 -0.142,0.129 -0.039,0 -0.026,-0.052 0.013,-0.129 z"
       inkscape:connector-curvature="0"
       style="fill:#ffffff;fill-opacity:1" />
    <path
       id="path36"
       d="M 9.307,10.742 C 9.152,10.458 9.152,10.458 9.385,10.664 9.514,10.793 9.579,10.922 9.54,10.974 9.488,11.013 9.385,10.909 9.307,10.741 Z"
       inkscape:connector-curvature="0"
       style="fill:#ffffff;fill-opacity:1" />
    <path
       id="path38"
       d="m 23.176,9.255 c 0.052,-0.039 0.129,-0.039 0.181,0 0.039,0.052 0,0.09 -0.09,0.09 -0.09,0 -0.129,-0.039 -0.09,-0.09 z"
       inkscape:connector-curvature="0"
       style="fill:#ffffff;fill-opacity:1" />
    <path
       id="path40"
       d="m 23.396,8.816 c 0,-0.052 0.09,-0.116 0.194,-0.168 0.116,-0.039 0.194,0 0.194,0.103 0,0.09 -0.09,0.168 -0.194,0.168 -0.104,0 -0.194,-0.052 -0.194,-0.103 z"
       inkscape:connector-curvature="0"
       style="fill:#ffffff;fill-opacity:1" />
    <path
       id="path42"
       d="m 2.457,0.169 c 0,-0.065 0.065,-0.129 0.129,-0.129 0.078,0 0.129,0.065 0.129,0.129 0,0.078 -0.052,0.129 -0.129,0.129 -0.065,0 -0.129,-0.052 -0.129,-0.129 z"
       inkscape:connector-curvature="0"
       style="fill:#ffffff;fill-opacity:1" />
  </g>
</svg>
