<?xml version="1.0" encoding="UTF-8" standalone="no"?>
<!-- Generated by IcoMoon.io -->

<svg
   xmlns:dc="http://purl.org/dc/elements/1.1/"
   xmlns:cc="http://creativecommons.org/ns#"
   xmlns:rdf="http://www.w3.org/1999/02/22-rdf-syntax-ns#"
   xmlns:svg="http://www.w3.org/2000/svg"
   xmlns="http://www.w3.org/2000/svg"
   xmlns:sodipodi="http://sodipodi.sourceforge.net/DTD/sodipodi-0.dtd"
   xmlns:inkscape="http://www.inkscape.org/namespaces/inkscape"
   version="1.1"
   width="215"
   height="215"
   viewBox="0 0 215.00001 215"
   id="svg8"
   sodipodi:docname="terrain.svg"
   inkscape:version="0.92.3 (2405546, 2018-03-11)">
  <metadata
     id="metadata14">
    <rdf:RDF>
      <cc:Work
         rdf:about="">
        <dc:format>image/svg+xml</dc:format>
        <dc:type
           rdf:resource="http://purl.org/dc/dcmitype/StillImage" />
        <dc:title>card-decks-terrain</dc:title>
      </cc:Work>
    </rdf:RDF>
  </metadata>
  <defs
     id="defs12" />
  <sodipodi:namedview
     pagecolor="#ffffff"
     bordercolor="#666666"
     borderopacity="1"
     objecttolerance="10"
     gridtolerance="10"
     guidetolerance="10"
     inkscape:pageopacity="0"
     inkscape:pageshadow="2"
     inkscape:window-width="1920"
     inkscape:window-height="1017"
     id="namedview10"
     showgrid="false"
     fit-margin-top="0"
     fit-margin-left="0"
     fit-margin-right="0"
     fit-margin-bottom="0"
     inkscape:zoom="1.3037281"
     inkscape:cx="-158.65634"
     inkscape:cy="34.641964"
     inkscape:window-x="-8"
     inkscape:window-y="-8"
     inkscape:window-maximized="1"
     inkscape:current-layer="svg8" />
  <title
     id="title2">card-decks-terrain</title>
  <g
     id="g823"
     transform="matrix(6.718761,0,0,6.718761,-0.01720415,0.01286699)"
     style="fill:#ffffff;fill-opacity:1">
    <path
       id="path4"
       d="m 16.009,31.67 c -0.481,-0.58 -2.178,-1.216 -3.224,-1.216 -0.778,0 -1.103,-0.212 -1.103,-0.749 0,-0.198 -0.071,-0.382 -0.156,-0.41 -0.071,-0.028 -0.184,-0.325 -0.226,-0.65 -0.071,-0.551 -0.042,-0.65 0.368,-1.018 0.438,-0.41 0.438,-0.424 0.438,-1.753 0,-0.806 0.057,-1.357 0.141,-1.357 0.084,0 0.141,0.071 0.141,0.141 0,0.085 0.099,0.141 0.212,0.141 0.113,0 0.212,0.099 0.212,0.212 0,0.113 0.071,0.212 0.156,0.212 0.198,0 0.551,0.354 0.551,0.551 0,0.085 0.071,0.156 0.141,0.156 0.085,0 0.311,0.17 0.509,0.382 0.283,0.311 0.467,0.382 0.947,0.368 0.325,-0.014 0.608,-0.099 0.636,-0.184 0.071,-0.184 1.117,-0.184 1.188,0 0.028,0.085 0.269,0.184 0.537,0.226 0.41,0.057 0.566,0 0.962,-0.354 0.255,-0.24 0.523,-0.438 0.608,-0.438 0.071,0 0.127,-0.085 0.127,-0.184 0,-0.099 0.127,-0.255 0.283,-0.354 0.156,-0.099 0.283,-0.269 0.283,-0.382 0,-0.113 0.127,-0.212 0.283,-0.212 0.156,0 0.283,-0.071 0.283,-0.141 0,-0.085 0.141,-0.198 0.325,-0.269 0.354,-0.127 0.523,0.028 0.509,0.481 0,0.156 -0.042,0.212 -0.071,0.113 -0.042,-0.099 -0.156,-0.141 -0.24,-0.099 -0.113,0.042 -0.17,0.452 -0.156,1.244 0.014,1.287 0.141,1.541 0.82,1.725 0.396,0.099 0.509,0.339 0.156,0.339 -0.141,0 -0.212,0.141 -0.212,0.452 0,0.255 -0.156,0.636 -0.354,0.905 -0.198,0.255 -0.354,0.523 -0.354,0.608 0,0.184 -0.495,0.467 -0.749,0.424 -0.085,-0.014 -0.354,0.042 -0.566,0.127 -0.226,0.099 -0.509,0.17 -0.65,0.17 -0.141,0 -0.339,0.085 -0.438,0.198 -0.085,0.113 -0.24,0.184 -0.339,0.141 -0.099,-0.043 -0.269,0.028 -0.368,0.156 -0.099,0.113 -0.255,0.212 -0.354,0.212 -0.099,0 -0.212,0.099 -0.269,0.212 -0.113,0.325 -0.679,0.24 -0.99,-0.127 z"
       inkscape:connector-curvature="0"
       style="fill:#ffffff;fill-opacity:1" />
    <path
       id="path6"
       d="m 22.542,26.255 c -0.17,-0.042 -0.255,-0.198 -0.255,-0.481 0,-0.255 0.057,-0.396 0.141,-0.339 0.085,0.042 0.141,-0.042 0.141,-0.198 0,-0.156 -0.057,-0.311 -0.127,-0.354 -0.071,-0.057 -0.17,-0.339 -0.226,-0.65 -0.056,-0.311 -0.156,-0.566 -0.226,-0.566 -0.071,0 -0.127,-0.226 -0.127,-0.523 0,-0.396 -0.099,-0.594 -0.452,-0.919 -0.24,-0.212 -0.566,-0.396 -0.707,-0.396 -0.141,0 -0.297,-0.099 -0.339,-0.212 -0.057,-0.113 -0.184,-0.212 -0.297,-0.212 -0.297,0 -0.891,0.58 -0.891,0.891 0,0.127 -0.042,0.24 -0.113,0.24 -0.099,0 -0.354,0.424 -0.537,0.891 -0.042,0.127 -0.24,0.24 -0.424,0.24 -0.311,0 -0.339,-0.057 -0.339,-0.594 0,-1.23 -0.297,-1.555 -1.513,-1.626 -0.778,-0.042 -1.174,0.17 -1.174,0.65 0,0.127 -0.071,0.311 -0.17,0.41 -0.127,0.127 -0.127,0.255 0,0.523 0.099,0.198 0.17,0.523 0.17,0.707 0,0.283 -0.071,0.354 -0.354,0.354 -0.212,0 -0.354,-0.085 -0.354,-0.198 0,-0.113 -0.042,-0.226 -0.099,-0.255 -0.17,-0.071 -0.749,-0.933 -0.749,-1.103 0,-0.085 -0.226,-0.382 -0.495,-0.665 -0.467,-0.481 -0.509,-0.495 -0.919,-0.325 -0.65,0.269 -1.131,0.693 -1.131,1.004 0,0.156 -0.099,0.481 -0.226,0.721 -0.141,0.283 -0.226,0.806 -0.226,1.541 0,1.089 0,1.117 -0.339,1.117 -0.24,0 -0.354,-0.099 -0.424,-0.354 C 9.719,25.376 9.62,25.22 9.549,25.22 c -0.071,0 -0.127,-0.255 -0.127,-0.551 0,-0.311 -0.071,-0.58 -0.156,-0.608 -0.099,-0.028 -0.184,-0.665 -0.24,-1.64 -0.057,-1.372 -0.042,-1.584 0.17,-1.669 0.354,-0.127 0.283,-0.721 -0.085,-0.82 -1.089,-0.283 -1.895,0.184 -2.319,1.372 -0.042,0.127 -0.141,0.24 -0.212,0.24 -0.071,0 -0.127,0.085 -0.127,0.198 0,0.198 -0.424,1.089 -0.58,1.216 -0.042,0.042 -0.127,0.311 -0.184,0.608 -0.057,0.283 -0.156,0.523 -0.226,0.523 -0.085,0 -0.141,0.141 -0.141,0.325 0,0.17 -0.099,0.424 -0.212,0.566 -0.184,0.255 -0.198,0.255 -0.551,0 -0.198,-0.141 -0.368,-0.339 -0.368,-0.424 0,-0.099 -0.057,-0.184 -0.127,-0.184 -0.07,0 -0.184,-0.141 -0.24,-0.311 -0.042,-0.17 -0.184,-0.396 -0.297,-0.509 -0.17,-0.17 -0.17,-0.24 0.028,-0.438 0.113,-0.141 0.212,-0.41 0.212,-0.608 0,-0.198 0.099,-0.438 0.212,-0.537 0.113,-0.099 0.212,-0.269 0.212,-0.368 0,-0.113 0.057,-0.198 0.141,-0.198 0.071,0 0.17,-0.156 0.226,-0.354 0.042,-0.198 0.141,-0.354 0.212,-0.354 0.071,0 0.127,-0.057 0.127,-0.141 0,-0.269 0.467,-0.679 0.679,-0.594 0.17,0.057 0.198,-0.014 0.141,-0.297 -0.071,-0.382 0.198,-0.551 0.354,-0.24 0.042,0.085 0.057,0.071 0.042,-0.028 -0.014,-0.113 -0.297,-0.198 -0.622,-0.226 -0.467,-0.028 -0.594,0 -0.594,0.17 0,0.198 -0.452,0.311 -0.891,0.24 -0.071,-0.014 -0.085,0.042 -0.028,0.127 0.042,0.071 0.028,0.141 -0.042,0.141 -0.07,0 -0.354,0.184 -0.608,0.424 C 2.946,20.61 2.72,20.695 2.183,20.695 H 1.504 v -0.566 c 0,-0.467 -0.042,-0.566 -0.283,-0.566 -0.339,0 -0.467,-0.41 -0.396,-1.287 0.028,-0.509 0.099,-0.636 0.339,-0.665 0.17,-0.028 0.382,-0.198 0.481,-0.396 0.156,-0.283 0.311,-0.339 0.834,-0.368 0.354,0 0.806,0 0.99,0.014 0.566,0.057 1.004,-0.269 1.004,-0.721 0,-0.212 -0.057,-0.396 -0.141,-0.396 -0.071,0 -0.141,-0.311 -0.141,-0.693 0,-1.004 -0.198,-1.145 -1.57,-1.145 -0.65,0 -1.117,-0.057 -1.117,-0.141 0,-0.071 -0.17,-0.141 -0.368,-0.141 -0.311,0 -0.354,-0.057 -0.311,-0.382 0.028,-0.283 0.127,-0.41 0.354,-0.438 0.297,-0.042 0.325,-0.127 0.325,-0.891 0,-0.919 0.438,-2.008 0.665,-1.654 0.127,0.212 1.584,0.962 1.852,0.962 0.099,0 0.17,-0.212 0.17,-0.566 0,-0.311 0.071,-0.566 0.141,-0.566 0.085,0 0.141,-0.156 0.141,-0.339 C 4.473,9.312 4.855,8.972 4.94,9.34 4.982,9.552 4.997,9.538 4.982,9.312 4.968,9.142 4.869,9.043 4.727,9.043 4.586,9.057 4.501,9.001 4.515,8.902 4.529,8.803 4.176,8.732 3.454,8.704 2.492,8.676 2.351,8.633 2.266,8.365 2.209,8.167 2.252,8.011 2.407,7.898 2.534,7.799 2.633,7.615 2.633,7.488 2.633,7.361 2.732,7.219 2.845,7.177 2.958,7.12 3.057,7.007 3.057,6.922 3.057,6.823 3.213,6.653 3.411,6.554 3.609,6.455 3.765,6.285 3.765,6.172 c 0,-0.099 0.071,-0.184 0.156,-0.184 0.085,0 0.339,-0.184 0.566,-0.41 0.226,-0.226 0.41,-0.481 0.41,-0.566 0,-0.099 0.339,-0.156 0.834,-0.156 0.764,0 0.891,0.042 1.372,0.495 0.283,0.269 0.82,0.636 1.174,0.806 0.354,0.184 0.679,0.368 0.721,0.424 0.042,0.042 0.24,0.141 0.467,0.184 0.212,0.057 0.339,0.156 0.297,0.226 -0.042,0.07 0.028,0.127 0.141,0.127 0.127,0 0.226,0.099 0.226,0.212 0,0.113 0.099,0.212 0.212,0.212 0.113,0 0.212,0.057 0.212,0.141 0,0.212 0.467,0.707 0.594,0.622 0.057,-0.042 0.113,0.099 0.113,0.325 0,0.283 0.042,0.339 0.127,0.198 0.099,-0.156 0.17,-0.127 0.311,0.141 0.099,0.184 0.17,0.396 0.156,0.452 -0.014,0.071 0.014,0.085 0.085,0.042 0.269,-0.156 1.301,1.343 1.301,1.881 0,0.17 0.071,0.297 0.141,0.297 0.085,0 0.141,0.156 0.141,0.354 0,0.212 0.099,0.566 0.24,0.82 0.17,0.339 0.226,0.834 0.226,1.923 0.014,1.669 -0.099,1.852 -1.061,1.852 -0.297,0 -0.537,0.071 -0.537,0.141 0,0.085 -0.113,0.141 -0.255,0.141 -0.424,0 -0.792,0.58 -0.764,1.202 0,0.311 0.085,0.58 0.17,0.608 0.071,0.028 0.141,0.141 0.141,0.255 0,0.114 0.099,0.198 0.212,0.198 0.113,0 0.212,0.057 0.212,0.113 0,0.17 1.089,0.424 1.287,0.311 0.113,-0.085 0.113,-0.127 -0.028,-0.184 -0.156,-0.057 -0.156,-0.085 0,-0.085 0.156,-0.014 0.141,-0.071 -0.071,-0.226 -0.269,-0.212 -0.269,-0.212 0.014,-0.127 0.226,0.071 0.24,0.057 0.071,-0.071 -0.113,-0.085 -0.368,-0.156 -0.566,-0.156 -0.283,0 -0.311,-0.028 -0.141,-0.141 0.184,-0.113 0.17,-0.141 -0.028,-0.141 -0.141,0 -0.255,-0.099 -0.255,-0.212 0,-0.113 0.099,-0.212 0.212,-0.212 0.113,0 0.212,-0.057 0.212,-0.141 0,-0.184 1.089,-0.184 1.202,0 0.17,0.269 0.622,-0.198 0.707,-0.735 0.057,-0.297 0.156,-0.566 0.226,-0.622 0.17,-0.099 0.17,-2.277 0,-2.39 -0.085,-0.042 -0.184,-0.368 -0.24,-0.707 -0.042,-0.354 -0.141,-0.679 -0.212,-0.721 -0.071,-0.042 -0.127,-0.24 -0.127,-0.452 0,-0.212 -0.099,-0.566 -0.212,-0.792 -0.113,-0.212 -0.212,-0.495 -0.212,-0.594 0,-0.113 -0.099,-0.24 -0.212,-0.283 -0.113,-0.057 -0.212,-0.24 -0.212,-0.424 0,-0.184 -0.057,-0.339 -0.141,-0.339 -0.071,0 -0.141,-0.071 -0.141,-0.156 0,-0.071 -0.184,-0.311 -0.396,-0.523 C 12.631,8.913 12.263,8.489 12.037,8.178 11.811,7.867 11.471,7.485 11.302,7.315 11.118,7.145 11.019,6.976 11.076,6.919 11.133,6.862 11.034,6.792 10.864,6.735 10.694,6.693 10.581,6.608 10.624,6.551 10.666,6.48 10.483,6.311 10.242,6.155 9.987,5.985 9.577,5.632 9.323,5.363 9.083,5.08 8.842,4.854 8.786,4.854 8.744,4.854 8.602,4.769 8.503,4.684 8.065,4.288 7.909,4.189 7.343,3.92 6.735,3.651 6.537,3.227 6.947,3.072 7.06,3.015 7.159,2.888 7.159,2.761 c 0,-0.184 0.028,-0.184 0.255,0.014 0.141,0.141 0.368,0.24 0.509,0.24 0.198,0 0.863,0.339 1.075,0.566 0.141,0.141 0.636,0.438 0.891,0.509 0.127,0.057 0.24,0.141 0.24,0.198 0,0.071 0.198,0.17 0.438,0.212 0.325,0.071 0.396,0.127 0.255,0.226 -0.156,0.099 -0.141,0.127 0.057,0.127 0.141,0 0.283,0.099 0.325,0.212 0.057,0.113 0.141,0.212 0.212,0.212 0.17,0 0.976,0.806 0.976,0.99 0,0.071 0.085,0.141 0.198,0.141 0.113,0 0.226,0.099 0.283,0.212 0.113,0.311 0.679,0.283 0.622,-0.028 C 13.467,6.451 13.396,6.295 13.339,6.253 13.282,6.211 13.212,6.027 13.198,5.871 13.184,5.701 13.099,5.56 13.014,5.56 12.929,5.56 12.816,5.419 12.759,5.249 12.688,4.98 12.646,4.952 12.533,5.136 c -0.099,0.156 -0.141,0.099 -0.141,-0.24 0,-0.255 -0.057,-0.467 -0.127,-0.467 -0.07,0 -0.17,-0.156 -0.212,-0.354 -0.057,-0.198 -0.156,-0.354 -0.226,-0.354 -0.085,0 -0.141,-0.099 -0.141,-0.212 0,-0.113 -0.057,-0.212 -0.127,-0.212 -0.071,0 -0.184,-0.141 -0.24,-0.311 C 11.262,2.802 11.163,2.618 11.093,2.576 11.008,2.519 10.937,2.321 10.937,2.138 10.923,1.898 10.838,1.799 10.711,1.855 10.584,1.897 10.541,1.841 10.584,1.657 10.612,1.516 10.725,1.402 10.81,1.431 c 0.099,0.014 0.17,-0.127 0.17,-0.311 0,-0.311 0.042,-0.325 1.004,-0.311 0.848,0.014 1.046,0.057 1.174,0.283 0.085,0.156 0.297,0.424 0.481,0.594 0.17,0.156 0.311,0.368 0.311,0.467 0,0.085 0.057,0.156 0.141,0.156 0.071,0 0.17,0.156 0.226,0.354 0.042,0.198 0.141,0.354 0.198,0.354 0.057,0 0.156,0.156 0.198,0.354 0.057,0.198 0.156,0.354 0.226,0.354 0.085,0 0.141,0.156 0.141,0.354 0,0.198 0.071,0.354 0.141,0.354 0.085,0 0.141,0.085 0.141,0.184 0,0.085 0.085,0.339 0.198,0.551 0.113,0.212 0.24,0.566 0.297,0.806 0.099,0.495 0.594,0.622 0.721,0.198 0.042,-0.141 0.141,-0.382 0.198,-0.537 0.071,-0.156 0.156,-0.41 0.184,-0.566 0.028,-0.156 0.127,-0.269 0.212,-0.255 0.099,0.028 0.17,-0.113 0.17,-0.311 0,-0.297 0.382,-1.301 0.566,-1.485 0.17,-0.17 0.566,-1.032 0.566,-1.216 0,-0.113 0.099,-0.24 0.212,-0.283 0.113,-0.057 0.212,-0.141 0.212,-0.226 0,-0.297 0.438,-0.537 0.99,-0.537 0.552,0 0.594,-0.028 0.537,-0.339 -0.057,-0.311 -0.014,-0.354 0.438,-0.396 0.834,-0.071 1.046,0.014 0.976,0.382 -0.057,0.24 0,0.354 0.198,0.396 0.368,0.099 0.311,0.452 -0.17,0.947 -0.226,0.24 -0.424,0.495 -0.424,0.58 0,0.071 -0.156,0.311 -0.339,0.509 -0.183,0.198 -0.452,0.608 -0.608,0.905 -0.141,0.297 -0.297,0.551 -0.354,0.551 -0.071,0 -0.113,0.113 -0.113,0.255 0,0.127 -0.099,0.368 -0.212,0.509 -0.113,0.156 -0.212,0.424 -0.212,0.608 0,0.184 -0.085,0.325 -0.184,0.325 -0.099,0 -0.198,0.156 -0.212,0.368 -0.014,0.198 0.028,0.325 0.113,0.269 0.085,-0.042 0.141,0 0.141,0.099 0,0.099 0.085,0.028 0.184,-0.156 0.085,-0.184 0.283,-0.41 0.438,-0.495 0.141,-0.085 0.438,-0.311 0.65,-0.509 0.622,-0.566 0.82,-0.707 0.99,-0.707 0.071,0 0.141,-0.057 0.141,-0.113 0,-0.141 1.23,-1.018 1.414,-1.018 0.085,0 0.141,-0.057 0.141,-0.113 0,-0.184 1.174,-0.65 1.64,-0.65 0.537,0 0.905,0.339 0.905,0.806 0,0.255 -0.141,0.41 -0.523,0.608 -0.297,0.141 -0.551,0.311 -0.58,0.382 -0.028,0.057 -0.17,0.099 -0.311,0.099 -0.141,0 -0.311,0.071 -0.354,0.141 -0.042,0.085 -0.382,0.283 -0.749,0.438 -0.368,0.17 -0.693,0.339 -0.735,0.396 -0.042,0.042 -0.297,0.212 -0.566,0.354 -0.523,0.297 -2.545,2.291 -2.545,2.517 0,0.071 -0.141,0.269 -0.325,0.438 -0.311,0.311 -0.806,1.244 -0.806,1.527 0,0.085 -0.099,0.24 -0.212,0.354 -0.141,0.141 -0.212,0.495 -0.212,0.99 0,0.509 -0.057,0.792 -0.184,0.848 -0.127,0.042 -0.17,0.226 -0.127,0.509 0.057,0.325 0.028,0.41 -0.113,0.325 -0.141,-0.085 -0.17,-0.014 -0.085,0.354 0.042,0.255 0.127,1.004 0.184,1.654 0.042,0.636 0.127,1.174 0.184,1.174 0.057,0 0.141,0.255 0.198,0.566 0.085,0.537 0.113,0.566 0.58,0.566 0.269,0 0.495,-0.057 0.495,-0.141 0,-0.226 0.665,-0.156 0.764,0.085 0.156,0.382 0.099,0.764 -0.127,0.848 -0.339,0.127 -0.24,0.339 0.141,0.339 0.198,0 0.354,-0.057 0.354,-0.141 0,-0.071 0.085,-0.141 0.198,-0.141 0.354,0 0.65,-0.424 0.65,-0.891 -0.014,-0.622 -0.424,-1.089 -1.018,-1.103 -0.255,-0.014 -0.65,-0.071 -0.891,-0.127 l -0.424,-0.113 0.848,-0.057 -0.424,-0.099 c -0.297,-0.057 -0.424,-0.17 -0.424,-0.368 0.014,-0.156 -0.042,-0.325 -0.113,-0.368 -0.141,-0.113 -0.255,-2.701 -0.099,-2.602 0.057,0.042 0.156,-0.311 0.212,-0.778 0.056,-0.467 0.156,-0.891 0.226,-0.933 0.071,-0.042 0.127,-0.226 0.127,-0.41 0,-0.354 0.438,-0.707 0.636,-0.523 0.071,0.057 0.071,0.028 0.028,-0.057 -0.099,-0.17 0.933,-1.244 1.81,-1.909 0.24,-0.184 0.481,-0.41 0.537,-0.509 0.071,-0.113 0.17,-0.156 0.24,-0.113 0.057,0.042 0.141,-0.028 0.198,-0.141 0.042,-0.113 0.156,-0.212 0.255,-0.212 0.113,0 0.382,-0.17 0.622,-0.396 0.24,-0.212 0.566,-0.396 0.735,-0.396 0.156,0 0.481,-0.17 0.721,-0.382 0.24,-0.212 0.566,-0.382 0.721,-0.382 0.156,0 0.283,-0.042 0.283,-0.113 0,-0.127 1.273,-0.594 1.626,-0.594 0.24,0 0.636,0.311 0.636,0.509 0,0.057 0.255,0.495 0.566,0.99 0.311,0.495 0.566,0.99 0.566,1.117 0,0.24 -0.495,0.778 -0.707,0.778 -0.071,0 -0.396,0.255 -0.721,0.58 -0.594,0.594 -0.636,0.976 -0.141,1.357 0.269,0.212 0.721,0.24 0.721,0.042 0,-0.071 0.184,-0.141 0.424,-0.141 0.226,0 0.467,-0.099 0.537,-0.226 0.198,-0.339 0.778,-0.184 0.99,0.269 0.099,0.212 0.24,0.382 0.325,0.382 0.071,0 0.127,0.071 0.127,0.156 0,0.071 -0.085,0.099 -0.17,0.042 -0.141,-0.085 -0.141,-0.057 0,0.099 0.085,0.099 0.17,0.537 0.17,1.004 0,0.778 -0.014,0.82 -0.452,1.018 -0.255,0.113 -0.82,0.226 -1.259,0.255 -0.509,0.042 -0.947,0.17 -1.216,0.368 -0.382,0.269 -0.452,0.41 -0.495,1.103 -0.057,0.905 0.042,1.018 1.089,1.4 0.396,0.141 0.764,0.311 0.848,0.382 0.071,0.057 0.339,0.113 0.594,0.113 0.255,0 0.467,0.071 0.467,0.156 0,0.071 -0.057,0.099 -0.141,0.057 -0.071,-0.042 -0.141,-0.042 -0.141,0.028 0,0.057 0.226,0.255 0.495,0.438 0.396,0.255 0.495,0.41 0.495,0.764 0,0.537 -0.396,1.485 -0.679,1.598 -0.226,0.085 -1.16,-0.438 -1.16,-0.65 0,-0.071 -0.099,-0.127 -0.212,-0.127 -0.113,0 -0.212,-0.057 -0.212,-0.141 0,-0.071 -0.156,-0.17 -0.354,-0.226 -0.198,-0.042 -0.354,-0.141 -0.354,-0.212 0,-0.071 -0.156,-0.127 -0.354,-0.127 -0.198,0 -0.354,-0.057 -0.354,-0.141 0,-0.198 -0.594,-0.17 -0.877,0.057 -0.41,0.311 -0.297,0.58 0.65,1.527 0.495,0.495 0.933,1.032 0.99,1.216 0.057,0.17 0.17,0.311 0.24,0.311 0.07,0 0.127,0.099 0.127,0.212 0,0.113 0.071,0.212 0.141,0.212 0.085,0 0.141,0.325 0.141,0.707 0,0.396 -0.057,0.707 -0.141,0.707 -0.071,0 -0.141,0.085 -0.141,0.184 0,0.099 -0.127,0.297 -0.297,0.438 -0.283,0.24 -0.311,0.24 -0.566,-0.042 -0.141,-0.156 -0.269,-0.382 -0.269,-0.481 0,-0.113 -0.099,-0.283 -0.212,-0.382 -0.113,-0.099 -0.212,-0.297 -0.212,-0.438 0,-0.156 -0.057,-0.269 -0.113,-0.269 -0.071,0 -0.24,-0.255 -0.396,-0.566 -0.141,-0.311 -0.354,-0.566 -0.438,-0.566 -0.099,0 -0.184,-0.057 -0.184,-0.141 0,-0.071 -0.127,-0.269 -0.297,-0.438 -0.339,-0.339 -1.23,-0.325 -1.4,0.014 -0.467,0.962 -0.566,1.372 -0.566,2.446 0,0.65 -0.057,1.23 -0.127,1.315 -0.085,0.071 -0.156,0.481 -0.184,0.905 -0.042,0.65 -0.085,0.778 -0.297,0.749 -0.17,0 -0.226,0.057 -0.184,0.184 0.085,0.198 0.042,0.212 -0.368,0.099 z m 0.693,-0.849 c -0.042,-0.141 -0.071,-0.057 -0.071,0.17 0,0.24 0.028,0.339 0.071,0.255 0.028,-0.099 0.028,-0.297 0,-0.424 z M 1.572,19.283 C 1.53,19.212 1.402,19.142 1.317,19.142 c -0.099,0 -0.085,0.057 0.042,0.141 0.269,0.17 0.325,0.17 0.212,0 z m 9.757,-5.232 c 0.057,-0.085 0.212,-0.113 0.354,-0.071 0.142,0.042 0.297,0.014 0.354,-0.071 0.042,-0.085 0.156,-0.113 0.226,-0.071 0.255,0.17 0.113,-0.085 -0.226,-0.41 -0.198,-0.184 -0.354,-0.382 -0.354,-0.438 0,-0.156 -1.244,-1.343 -1.4,-1.343 -0.071,0 -0.156,-0.042 -0.184,-0.099 -0.085,-0.212 -1.075,-0.636 -1.23,-0.551 -0.24,0.156 -0.184,1.117 0.085,1.654 0.339,0.679 0.891,1.259 1.202,1.259 0.156,0 0.226,0.071 0.184,0.141 -0.057,0.085 0.113,0.141 0.41,0.141 0.269,0 0.537,-0.071 0.58,-0.141 z m 10.535,0.029 c 0,-0.057 0.198,-0.127 0.452,-0.141 0.255,-0.028 0.566,-0.17 0.707,-0.311 0.382,-0.396 0.976,-1.64 1.004,-2.065 0.028,-0.425 -0.396,-0.806 -0.58,-0.523 -0.057,0.085 -0.283,0.212 -0.495,0.255 -0.212,0.057 -0.382,0.156 -0.382,0.226 0,0.07 -0.099,0.127 -0.212,0.127 -0.113,0 -0.523,0.325 -0.919,0.707 -0.608,0.622 -0.707,0.792 -0.707,1.273 0,0.566 0,0.566 0.566,0.566 0.311,0 0.566,-0.057 0.566,-0.113 z M 3.141,13.472 C 3.183,13.387 3.155,13.246 3.07,13.161 2.943,13.034 2.929,13.062 2.999,13.26 3.084,13.486 3.056,13.515 2.858,13.444 2.717,13.387 2.646,13.402 2.702,13.486 2.815,13.67 3.013,13.67 3.14,13.472 Z m 0.297,-0.51 c -0.057,-0.042 -0.099,0 -0.099,0.099 0,0.099 0.042,0.141 0.099,0.099 0.042,-0.057 0.042,-0.141 0,-0.198 z m 0.425,-0.141 c -0.057,-0.042 -0.099,0 -0.099,0.099 0,0.099 0.042,0.141 0.099,0.099 0.042,-0.057 0.042,-0.141 0,-0.198 z m 13.999,-0.283 c -0.057,-0.042 -0.099,0 -0.099,0.099 0,0.099 0.042,0.141 0.099,0.099 0.042,-0.057 0.042,-0.141 0,-0.198 z M 4.145,12.397 c -0.057,-0.042 -0.141,-0.042 -0.198,0 -0.042,0.057 0,0.099 0.099,0.099 0.099,0 0.141,-0.042 0.099,-0.099 z m 0.608,-0.382 c 0,-0.042 -0.057,-0.113 -0.141,-0.156 -0.071,-0.042 -0.141,-0.014 -0.141,0.057 0,0.085 0.071,0.156 0.141,0.156 0.085,0 0.141,-0.028 0.141,-0.057 z m 0.142,-0.933 c 0,-0.071 -0.057,-0.141 -0.141,-0.141 -0.071,0 -0.141,0.071 -0.141,0.141 0,0.085 0.071,0.141 0.141,0.141 0.085,0 0.141,-0.057 0.141,-0.141 z M 19.559,10.7 c -0.057,-0.042 -0.099,0 -0.099,0.099 0,0.099 0.042,0.141 0.099,0.099 0.042,-0.057 0.042,-0.141 0,-0.198 z M 5.135,10.559 c -0.057,-0.042 -0.141,-0.042 -0.198,0 -0.042,0.057 0,0.099 0.099,0.099 0.099,0 0.141,-0.042 0.099,-0.099 z"
       inkscape:connector-curvature="0"
       style="fill:#ffffff;fill-opacity:1" />
  </g>
</svg>
