<?xml version="1.0" encoding="UTF-8" standalone="no"?>
<!-- Generated by IcoMoon.io -->

<svg
   xmlns:dc="http://purl.org/dc/elements/1.1/"
   xmlns:cc="http://creativecommons.org/ns#"
   xmlns:rdf="http://www.w3.org/1999/02/22-rdf-syntax-ns#"
   xmlns:svg="http://www.w3.org/2000/svg"
   xmlns="http://www.w3.org/2000/svg"
   xmlns:sodipodi="http://sodipodi.sourceforge.net/DTD/sodipodi-0.dtd"
   xmlns:inkscape="http://www.inkscape.org/namespaces/inkscape"
   version="1.1"
   width="215"
   height="215"
   viewBox="0 0 215 215"
   id="svg30"
   sodipodi:docname="victory.svg"
   inkscape:version="0.92.3 (2405546, 2018-03-11)">
  <metadata
     id="metadata36">
    <rdf:RDF>
      <cc:Work
         rdf:about="">
        <dc:format>image/svg+xml</dc:format>
        <dc:type
           rdf:resource="http://purl.org/dc/dcmitype/StillImage" />
        <dc:title>card-decks-victory</dc:title>
      </cc:Work>
    </rdf:RDF>
  </metadata>
  <defs
     id="defs34" />
  <sodipodi:namedview
     pagecolor="#ffffff"
     bordercolor="#666666"
     borderopacity="1"
     objecttolerance="10"
     gridtolerance="10"
     guidetolerance="10"
     inkscape:pageopacity="0"
     inkscape:pageshadow="2"
     inkscape:window-width="1920"
     inkscape:window-height="1017"
     id="namedview32"
     showgrid="false"
     fit-margin-top="0"
     fit-margin-left="0"
     fit-margin-right="0"
     fit-margin-bottom="0"
     inkscape:zoom="1.3037282"
     inkscape:cx="154.67"
     inkscape:cy="167.03667"
     inkscape:window-x="-8"
     inkscape:window-y="-8"
     inkscape:window-maximized="1"
     inkscape:current-layer="svg30" />
  <title
     id="title2">card-decks-victory</title>
  <g
     id="g856"
     transform="matrix(6.7188551,0,0,6.7188551,-0.00184979,0.00671953)"
     style="fill:#ffffff;fill-opacity:1">
    <path
       id="path4"
       d="m 16.138,31.906 c 0.024,-0.084 -0.084,-0.216 -0.228,-0.288 -0.168,-0.072 -0.276,-0.228 -0.276,-0.384 0,-0.156 -0.048,-0.276 -0.108,-0.276 -0.06,0 -0.144,-0.156 -0.192,-0.36 -0.048,-0.192 -0.132,-0.384 -0.192,-0.42 -0.06,-0.048 -0.108,-0.204 -0.108,-0.348 0,-0.156 -0.084,-0.348 -0.18,-0.432 -0.12,-0.096 -0.18,-0.36 -0.18,-0.744 0,-0.36 -0.048,-0.564 -0.12,-0.516 -0.072,0.048 -0.12,-0.132 -0.12,-0.444 -0.012,-2.304 -0.156,-5.244 -0.264,-5.472 -0.108,-0.204 -0.108,-0.3 0,-0.408 0.18,-0.18 0.192,-0.6 0.012,-0.78 -0.084,-0.084 -0.096,-0.504 -0.048,-1.248 0.108,-1.632 0.12,-10.295 0.012,-10.751 -0.072,-0.264 -0.06,-0.396 0.036,-0.396 0.072,0 0.132,-0.084 0.132,-0.18 0,-0.168 0.204,-0.24 0.576,-0.192 0.084,0.012 0.144,-0.108 0.144,-0.288 0,-0.288 -0.012,-0.3 -0.864,-0.3 -1.296,0 -1.692,0.168 -0.636,0.252 l 0.84,0.06 -0.924,0.024 c -0.6,0.012 -0.936,0.072 -0.936,0.156 0,0.096 -0.072,0.084 -0.204,-0.024 -0.18,-0.144 -0.192,-0.144 -0.108,0.072 0.06,0.18 0.048,0.204 -0.06,0.096 -0.108,-0.108 -0.084,-0.252 0.12,-0.636 0.144,-0.276 0.228,-0.54 0.192,-0.612 -0.036,-0.06 0.012,-0.072 0.108,-0.036 0.108,0.036 0.192,0.012 0.192,-0.072 0,-0.072 0.048,-0.108 0.108,-0.06 0.06,0.036 0.144,0.012 0.192,-0.06 0.036,-0.06 0.408,-0.12 0.816,-0.12 0.636,0 0.768,-0.036 0.9,-0.252 0.12,-0.18 0.132,-0.288 0.036,-0.384 -0.168,-0.168 -0.168,-0.648 0,-0.708 0.072,-0.024 0.18,-0.444 0.228,-0.936 0.06,-0.492 0.168,-1.212 0.24,-1.596 0.12,-0.6 0.108,-0.744 -0.048,-0.912 -0.216,-0.24 -0.264,-1.332 -0.072,-1.332 0.072,0 0.12,-0.132 0.12,-0.3 0,-0.276 0.048,-0.3 0.54,-0.3 0.492,0 0.54,0.024 0.54,0.3 0,0.168 0.048,0.3 0.108,0.3 0.156,0 0.54,0.852 0.42,0.948 -0.336,0.24 -0.672,1.332 -0.42,1.332 0.048,0 0.132,0.396 0.168,0.888 0.048,0.48 0.132,1.032 0.204,1.2 0.06,0.18 0.12,0.564 0.12,0.864 v 0.528 h 0.48 c 0.276,0 0.48,0.06 0.48,0.132 0,0.096 -0.156,0.12 -0.444,0.072 -0.312,-0.06 -0.396,-0.036 -0.276,0.036 0.096,0.06 0.432,0.12 0.732,0.12 0.78,0 1.548,0.444 1.548,0.888 0,0.12 0.072,0.156 0.216,0.108 0.156,-0.048 0.144,-0.024 -0.048,0.12 -0.252,0.192 -0.768,0.156 -0.768,-0.048 0,-0.06 -0.348,-0.108 -0.78,-0.108 -0.444,0 -0.78,0.048 -0.78,0.12 0,0.072 0.048,0.12 0.096,0.12 0.048,0 0.192,0.372 0.312,0.84 0.168,0.648 0.18,0.924 0.084,1.224 -0.084,0.264 -0.132,3.528 -0.156,9.455 -0.024,6.431 -0.072,9.131 -0.168,9.299 -0.192,0.348 -0.6,1.656 -0.552,1.8 0.024,0.072 0,0.072 -0.048,0.024 -0.12,-0.12 -0.528,0.708 -0.528,1.068 0,0.156 -0.06,0.312 -0.12,0.348 -0.072,0.048 -0.108,0.012 -0.096,-0.072 z"
       inkscape:connector-curvature="0"
       style="fill:#ffffff;fill-opacity:1" />
    <path
       id="path6"
       d="m 22.449,30.394 c -0.12,-0.036 -0.216,-0.108 -0.216,-0.168 0,-0.072 0.084,-0.072 0.228,0.012 0.168,0.084 0.252,0.072 0.288,-0.036 0.048,-0.108 0.072,-0.108 0.072,0 0.012,0.18 -0.12,0.252 -0.372,0.192 z"
       inkscape:connector-curvature="0"
       style="fill:#ffffff;fill-opacity:1" />
    <path
       id="path8"
       d="m 9.91,29.854 c -0.012,-0.144 0.06,-0.36 0.168,-0.48 0.096,-0.108 0.156,-0.288 0.12,-0.384 -0.036,-0.096 0.012,-0.204 0.108,-0.24 0.108,-0.036 0.144,-0.12 0.108,-0.192 -0.036,-0.06 -0.012,-0.12 0.048,-0.12 0.072,0 0.12,-0.036 0.108,-0.084 -0.024,-0.06 0.072,-0.216 0.204,-0.36 0.264,-0.312 0.66,-0.372 0.66,-0.096 0,0.096 0.06,0.18 0.12,0.18 0.072,0 0.24,0.12 0.372,0.252 0.216,0.216 0.24,0.312 0.132,0.48 -0.096,0.156 -0.096,0.228 0.012,0.264 0.084,0.036 0.012,0.072 -0.144,0.072 -0.156,0.012 -0.468,0.144 -0.684,0.312 -0.216,0.168 -0.432,0.3 -0.48,0.3 -0.048,0 -0.144,0.084 -0.228,0.192 -0.132,0.18 -0.144,0.18 -0.144,0 0,-0.096 0.108,-0.216 0.228,-0.264 0.12,-0.036 0.216,-0.12 0.216,-0.18 0,-0.072 -0.168,-0.012 -0.36,0.132 -0.204,0.144 -0.336,0.312 -0.3,0.372 0.048,0.06 0,0.108 -0.084,0.108 -0.096,0 -0.168,-0.12 -0.18,-0.264 z"
       inkscape:connector-curvature="0"
       style="fill:#ffffff;fill-opacity:1" />
    <path
       id="path10"
       d="m 21.753,29.902 c 0,-0.084 -0.54,-0.36 -1.104,-0.54 -0.12,-0.048 -0.216,-0.132 -0.216,-0.204 0,-0.06 -0.072,-0.12 -0.168,-0.12 -0.108,0 -0.192,-0.144 -0.216,-0.324 l -0.036,-0.336 -0.312,0.3 c -0.168,0.168 -0.408,0.324 -0.54,0.336 -0.12,0.024 -0.288,0.096 -0.372,0.156 -0.204,0.18 -0.288,-0.228 -0.156,-0.78 0.06,-0.264 0.084,-0.528 0.048,-0.576 -0.036,-0.048 0,-0.096 0.06,-0.096 0.096,0 0.132,-2.76 0.132,-9.059 0,-4.98 0.036,-9.071 0.096,-9.071 0.252,-0.048 1.2,-0.12 1.464,-0.108 0.168,0.012 1.392,0.036 2.736,0.072 l 2.424,0.06 -0.06,1.644 c -0.036,0.9 -0.132,2.04 -0.192,2.532 -0.072,0.492 -0.096,1.164 -0.06,1.5 0.036,0.336 0.024,0.924 -0.024,1.308 -0.084,0.576 -0.072,0.684 0.06,0.636 0.096,-0.036 0.132,-0.012 0.096,0.048 -0.036,0.072 -0.012,0.12 0.06,0.12 0.072,0 0.12,-0.192 0.096,-0.48 -0.024,-0.588 0.06,-0.684 0.444,-0.504 0.168,0.084 0.432,0.144 0.576,0.144 0.144,0 0.348,0.06 0.444,0.132 0.144,0.096 0.12,0.108 -0.108,0.048 -0.192,-0.06 -0.252,-0.048 -0.204,0.048 0.048,0.072 0.168,0.132 0.264,0.132 0.096,0 0.168,0.048 0.168,0.096 0,0.048 0.18,0.156 0.396,0.24 0.24,0.096 0.336,0.18 0.24,0.24 -0.18,0.108 -2.328,0.108 -2.568,-0.012 -0.168,-0.084 -0.204,0.012 -0.264,0.588 -0.036,0.372 -0.132,0.744 -0.192,0.804 -0.072,0.072 -0.132,0.264 -0.132,0.444 0,0.288 -0.048,0.492 -0.528,1.98 -0.108,0.336 -0.192,0.696 -0.192,0.816 0,0.108 -0.048,0.204 -0.12,0.204 -0.06,0 -0.12,0.084 -0.12,0.18 0,0.096 0.06,0.18 0.12,0.18 0.072,0 0.12,-0.084 0.12,-0.18 0,-0.096 0.06,-0.18 0.132,-0.18 0.18,0 0.828,0.396 0.828,0.504 0,0.048 0.18,0.096 0.396,0.108 0.324,0 0.348,0.024 0.144,0.108 -0.204,0.084 -0.204,0.108 -0.024,0.108 0.108,0.012 0.204,0.06 0.204,0.132 0,0.06 0.144,0.156 0.324,0.192 0.516,0.132 0.036,0.24 -0.912,0.216 -1.728,-0.06 -1.812,-0.072 -1.68,-0.252 0.072,-0.084 0.192,-0.12 0.264,-0.072 0.084,0.048 0.096,0 0.048,-0.132 -0.048,-0.12 -0.084,-0.264 -0.084,-0.324 0,-0.072 -0.048,-0.084 -0.12,-0.048 -0.06,0.036 -0.12,0.18 -0.12,0.312 0,0.132 -0.048,0.216 -0.108,0.18 -0.06,-0.048 -0.144,0.084 -0.192,0.288 -0.048,0.192 -0.132,0.36 -0.192,0.36 -0.06,0 -0.108,0.108 -0.108,0.24 0,0.132 -0.084,0.276 -0.18,0.312 -0.096,0.048 -0.18,0.168 -0.18,0.288 0,0.24 -0.36,0.996 -0.504,1.056 -0.06,0.024 -0.096,0.084 -0.096,0.132 0,0.144 -1.08,1.764 -1.08,1.632 0,-0.072 -0.06,-0.024 -0.132,0.096 -0.072,0.108 -0.18,0.168 -0.252,0.132 -0.084,-0.048 -0.096,-0.024 -0.048,0.048 0.048,0.084 0.024,0.144 -0.036,0.144 -0.072,0 -0.132,0.06 -0.132,0.132 0,0.18 0.624,0.024 0.78,-0.18 0.168,-0.216 0.468,-0.012 0.588,0.384 0.048,0.144 0.144,0.264 0.204,0.264 0.06,0 0.108,0.084 0.108,0.18 0,0.096 0.036,0.18 0.096,0.18 0.048,0 0.216,0.12 0.384,0.252 0.264,0.216 0.264,0.228 0.036,0.108 -0.228,-0.108 -0.264,-0.096 -0.204,0.06 0.048,0.096 0.12,0.18 0.18,0.18 0.06,0 0.108,0.084 0.108,0.18 0,0.108 -0.108,0.18 -0.3,0.18 -0.168,0 -0.3,-0.048 -0.3,-0.096 z m -1.32,-1.404 c 0.132,-0.156 0.12,-0.168 -0.048,-0.108 -0.108,0.036 -0.192,0.12 -0.192,0.18 0,0.156 0.072,0.132 0.24,-0.072 z"
       inkscape:connector-curvature="0"
       style="fill:#ffffff;fill-opacity:1" />
    <path
       id="path12"
       d="m 22.557,29.914 c -0.12,-0.108 -0.108,-0.276 0.012,-0.276 0.06,0 0.108,0.084 0.108,0.18 0,0.204 -0.012,0.216 -0.12,0.096 z"
       inkscape:connector-curvature="0"
       style="fill:#ffffff;fill-opacity:1" />
    <path
       id="path14"
       d="m 18.933,29.278 c -0.036,-0.06 -0.012,-0.12 0.048,-0.12 0.072,0 0.132,0.06 0.132,0.12 0,0.072 -0.024,0.12 -0.048,0.12 -0.036,0 -0.096,-0.048 -0.132,-0.12 z"
       inkscape:connector-curvature="0"
       style="fill:#ffffff;fill-opacity:1" />
    <path
       id="path16"
       d="m 13.426,29.086 c -0.036,-0.096 -0.12,-0.156 -0.18,-0.108 -0.06,0.036 -0.156,-0.048 -0.192,-0.192 -0.048,-0.132 -0.108,-0.216 -0.144,-0.18 -0.108,0.108 -0.516,-0.432 -0.432,-0.564 0.048,-0.072 0,-0.096 -0.096,-0.06 -0.168,0.06 -0.624,-0.312 -0.504,-0.42 0.024,-0.036 -0.072,-0.132 -0.228,-0.204 -0.288,-0.156 -1.056,-0.936 -1.056,-1.092 0,-0.048 -0.072,-0.168 -0.156,-0.252 C 10.366,25.93 10.186,25.642 10.054,25.378 9.922,25.114 9.742,24.826 9.658,24.73 9.574,24.646 9.526,24.49 9.562,24.406 9.598,24.31 9.55,24.238 9.454,24.238 c -0.096,0 -0.18,-0.084 -0.18,-0.192 0,-0.096 -0.132,-0.36 -0.3,-0.576 -0.168,-0.216 -0.3,-0.456 -0.3,-0.516 0,-0.072 -0.084,-0.192 -0.192,-0.288 C 8.374,22.582 8.314,22.402 8.35,22.246 8.374,22.078 8.338,21.994 8.218,22.006 8.122,22.006 8.014,21.946 7.99,21.862 7.954,21.766 8.002,21.742 8.158,21.79 8.362,21.862 8.362,21.862 8.146,21.694 8.002,21.574 7.942,21.442 7.99,21.31 8.038,21.178 8.002,21.082 7.87,21.034 7.69,20.962 7.702,20.95 7.906,20.866 8.062,20.806 8.074,20.77 7.954,20.77 7.762,20.758 7.354,19.786 7.354,19.342 7.354,19.21 7.27,18.946 7.174,18.766 7.078,18.574 6.994,18.298 6.994,18.142 6.994,17.986 6.946,17.77 6.886,17.662 6.826,17.554 6.742,17.134 6.706,16.75 6.658,16.354 6.574,15.97 6.514,15.898 6.454,15.826 6.406,14.302 6.394,12.514 V 9.25 h 1.944 c 1.08,0 2.58,0.072 3.336,0.144 l 1.38,0.144 0.06,6.959 c 0.036,3.828 0.096,7.019 0.144,7.079 0.048,0.072 0.12,1.044 0.156,2.16 0.048,1.128 0.132,2.088 0.192,2.16 0.144,0.144 0.144,1.38 0,1.38 -0.06,0 -0.144,-0.084 -0.18,-0.192 z m 0.168,-0.336 c 0,-0.036 -0.06,-0.096 -0.144,-0.144 -0.084,-0.048 -0.096,-0.036 -0.048,0.048 0.084,0.144 0.192,0.192 0.192,0.096 z M 13.39,28.162 c -0.084,-0.132 -0.276,0.024 -0.276,0.228 0,0.144 0.024,0.144 0.168,0.024 0.096,-0.084 0.144,-0.192 0.108,-0.252 z m -0.312,-0.288 c -0.048,-0.036 -0.12,-0.036 -0.168,0 -0.036,0.048 0,0.084 0.084,0.084 0.084,0 0.12,-0.036 0.084,-0.084 z m -0.624,-0.372 c -0.036,-0.036 -0.132,0 -0.216,0.084 -0.108,0.12 -0.096,0.132 0.072,0.06 0.12,-0.036 0.18,-0.108 0.144,-0.144 z"
       inkscape:connector-curvature="0"
       style="fill:#ffffff;fill-opacity:1" />
    <path
       id="path18"
       d="m 25.749,23.915 c 0.108,-0.024 0.276,-0.024 0.36,0 0.072,0.036 -0.012,0.06 -0.216,0.06 -0.192,0 -0.264,-0.024 -0.144,-0.06 z"
       inkscape:connector-curvature="0"
       style="fill:#ffffff;fill-opacity:1" />
    <path
       id="path20"
       d="m 5.074,22.871 c 0,-0.108 0.048,-0.192 0.12,-0.192 0.06,0 0.276,-0.156 0.48,-0.36 0.204,-0.192 0.432,-0.36 0.504,-0.36 0.072,0 0.252,-0.132 0.408,-0.3 0.18,-0.192 0.408,-0.3 0.636,-0.3 0.336,0 0.372,0.048 0.444,0.48 0.048,0.264 0.12,0.48 0.18,0.48 0.06,0 0.108,0.132 0.108,0.3 0,0.276 -0.048,0.3 -0.444,0.3 -0.252,-0.012 -0.9,0.024 -1.44,0.072 -0.876,0.072 -0.996,0.06 -0.996,-0.12 z"
       inkscape:connector-curvature="0"
       style="fill:#ffffff;fill-opacity:1" />
    <path
       id="path22"
       d="M 5.374,17.543 C 5.05,17.519 4.726,17.459 4.666,17.387 4.594,17.327 4.318,17.279 4.03,17.279 c -0.384,0 -0.516,-0.048 -0.516,-0.18 0,-0.108 0.108,-0.18 0.288,-0.18 0.156,0 0.312,-0.084 0.36,-0.18 0.036,-0.108 0.216,-0.18 0.42,-0.18 0.192,0 0.372,-0.072 0.396,-0.144 0.036,-0.096 0.24,-0.132 0.564,-0.108 0.408,0.024 0.504,0 0.432,-0.132 -0.06,-0.084 -0.06,-0.12 -0.012,-0.072 0.12,0.096 0.192,1.404 0.096,1.44 -0.048,0.024 -0.348,0.024 -0.684,0 z"
       inkscape:connector-curvature="0"
       style="fill:#ffffff;fill-opacity:1" />
    <path
       id="path24"
       d="m 27.309,16.835 c 0.048,-0.036 0.12,-0.036 0.168,0 0.036,0.048 0,0.084 -0.084,0.084 -0.084,0 -0.12,-0.036 -0.084,-0.084 z"
       inkscape:connector-curvature="0"
       style="fill:#ffffff;fill-opacity:1" />
    <path
       id="path26"
       d="M 5.374,11.328 C 5.254,11.232 5.026,11.16 4.87,11.16 4.714,11.16 4.462,11.076 4.318,10.98 4.174,10.884 3.85,10.8 3.61,10.776 3.37,10.764 3.202,10.704 3.238,10.644 3.274,10.596 3.322,10.572 3.37,10.608 3.406,10.644 3.49,10.596 3.562,10.488 3.646,10.38 3.922,10.272 4.174,10.236 4.438,10.2 4.762,10.092 4.894,10.008 5.158,9.816 5.65,9.792 5.902,9.948 c 0.12,0.072 0.132,0.156 0.024,0.348 -0.072,0.132 -0.132,0.432 -0.132,0.672 0,0.504 -0.108,0.588 -0.42,0.36 z"
       inkscape:connector-curvature="0"
       style="fill:#ffffff;fill-opacity:1" />
    <path
       id="path28"
       d="m 25.881,10.716 c 0.036,-0.252 0.072,-0.6 0.072,-0.78 0,-0.3 0.048,-0.336 0.408,-0.336 0.228,0 0.456,0.06 0.492,0.12 0.036,0.072 0.468,0.12 0.96,0.12 0.492,0 0.912,0.048 0.948,0.096 0.036,0.06 -0.096,0.072 -0.3,0.048 -0.204,-0.036 -0.348,0 -0.348,0.084 0,0.072 0.132,0.132 0.3,0.132 0.192,0 0.3,0.072 0.3,0.18 0,0.144 -0.168,0.18 -0.768,0.18 -0.42,0 -0.792,0.036 -0.816,0.096 -0.06,0.144 -0.828,0.504 -1.08,0.504 -0.216,0 -0.24,-0.048 -0.168,-0.444 z m 2.628,-0.36 c -0.084,-0.024 -0.228,-0.024 -0.3,0 -0.084,0.036 -0.024,0.06 0.144,0.06 0.168,0 0.228,-0.024 0.156,-0.06 z"
       inkscape:connector-curvature="0"
       style="fill:#ffffff;fill-opacity:1" />
  </g>
</svg>
