<?xml version="1.0" encoding="UTF-8" standalone="no"?>
<!-- Generator: Adobe Illustrator 23.0.4, SVG Export Plug-In  -->

<svg
   xmlns:dc="http://purl.org/dc/elements/1.1/"
   xmlns:cc="http://creativecommons.org/ns#"
   xmlns:rdf="http://www.w3.org/1999/02/22-rdf-syntax-ns#"
   xmlns:svg="http://www.w3.org/2000/svg"
   xmlns="http://www.w3.org/2000/svg"
   xmlns:sodipodi="http://sodipodi.sourceforge.net/DTD/sodipodi-0.dtd"
   xmlns:inkscape="http://www.inkscape.org/namespaces/inkscape"
   version="1.1"
   x="0px"
   y="0px"
   width="255.14999"
   height="255.14999"
   viewBox="0 0 255.15 255.14999"
   xml:space="preserve"
   id="svg24"
   sodipodi:docname="corvus_cabal.svg"
   inkscape:version="0.92.3 (2405546, 2018-03-11)"><metadata
   id="metadata28"><rdf:RDF><cc:Work
       rdf:about=""><dc:format>image/svg+xml</dc:format><dc:type
         rdf:resource="http://purl.org/dc/dcmitype/StillImage" /><dc:title></dc:title></cc:Work></rdf:RDF></metadata><sodipodi:namedview
   pagecolor="#ffffff"
   bordercolor="#666666"
   borderopacity="1"
   objecttolerance="10"
   gridtolerance="10"
   guidetolerance="10"
   inkscape:pageopacity="0"
   inkscape:pageshadow="2"
   inkscape:window-width="1920"
   inkscape:window-height="1017"
   id="namedview26"
   showgrid="false"
   fit-margin-top="0"
   fit-margin-left="0"
   fit-margin-right="0"
   fit-margin-bottom="0"
   inkscape:zoom="0.99519272"
   inkscape:cx="-181.41038"
   inkscape:cy="118.59"
   inkscape:window-x="-8"
   inkscape:window-y="-8"
   inkscape:window-maximized="1"
   inkscape:current-layer="svg24" />
<defs
   id="defs2">
</defs>
<g
   id="g22"
   transform="translate(-3.0517578e-6,8.9949969)">
    <g
   id="g20">
        <path
   d="m 124.56,0 c 1.14,0.33 2.07,0.87 2.68,1.98 0.28,0.51 0.93,0.85 1.46,1.2 3.79,2.45 7.69,4.75 11.36,7.38 2.09,1.49 3.85,3.45 5.66,5.31 0.51,0.53 0.79,1.41 0.9,2.16 0.25,1.66 0.38,3.33 0.45,5.01 0.23,5.19 0.6,10.39 0.55,15.58 -0.04,4.36 0.83,8.44 2.51,12.41 0.31,0.72 0.37,1.55 0.56,2.33 0.09,0.39 0.15,0.79 0.31,1.15 1.52,3.53 3.08,7.03 4.57,10.57 0.32,0.75 0.5,1.61 0.52,2.42 0.04,1.35 0.86,2.08 2.15,1.66 0.6,-0.2 1.14,-0.58 1.73,-0.82 1.41,-0.58 2.35,-0.07 2.43,1.39 0.02,0.36 -0.3,0.97 -0.6,1.07 -3.95,1.28 -6.88,4.05 -9.72,6.84 -3.16,3.1 -6.02,6.51 -9.04,9.75 -1.1,1.18 -1.09,2.4 -0.34,3.72 0.26,0.45 0.64,0.9 0.68,1.38 0.04,0.5 -0.1,1.3 -0.44,1.5 -0.93,0.54 -1.36,1.31 -1.6,2.27 -0.59,2.29 -1.59,4.33 -3.28,6.03 -0.79,0.79 -1.46,1.67 -2.81,0.8 0,0.92 0,1.63 0,2.44 0.99,0.1 1.96,0.23 2.94,0.29 1.7,0.1 2.71,1.24 3.72,2.39 0.14,0.16 0.18,0.6 0.06,0.75 -1.98,2.43 -2.08,5.48 -2.77,8.33 -1.05,4.33 -1.52,8.74 -1.13,13.2 0.04,0.46 0.5,1.1 0.91,1.26 1.5,0.57 1.89,1.3 1.18,2.84 -0.98,2.14 -2.23,4.18 -2.99,6.4 -1.35,3.91 -2.54,7.88 -3.53,11.9 -0.41,1.66 -0.06,3.5 -0.17,5.26 -0.33,5.1 -0.69,10.2 -1.08,15.3 -0.32,4.18 -0.55,8.38 -1.11,12.54 -0.83,6.13 -1.97,12.22 -2.9,18.33 -0.7,4.62 -1.25,9.26 -1.92,13.89 -0.78,5.42 -1.57,10.83 -2.44,16.23 -0.15,0.94 -0.76,1.81 -1.16,2.72 -0.14,-0.04 -0.29,-0.08 -0.43,-0.11 -0.33,-2.79 -0.72,-5.58 -0.97,-8.38 -0.97,-10.71 -1.8,-21.43 -2.87,-32.13 -0.8,-8.03 -1.93,-16.03 -2.81,-24.05 -0.25,-2.3 -0.08,-4.64 -0.29,-6.94 -0.81,-9.11 -1.98,-18.2 -2.43,-27.33 -0.26,-5.33 -1.41,-10.3 -3.12,-15.27 -1.23,-3.58 -2.19,-7.26 -3.27,-10.89 -0.05,-0.18 -0.05,-0.37 0.15,-0.82 0.51,0.34 1.06,0.63 1.51,1.04 0.57,0.51 0.92,0.5 1.48,-0.08 0.81,-0.86 1.78,-1.56 2.75,-2.38 -0.27,-0.25 -0.58,-0.54 -0.89,-0.83 -1.03,-0.94 -1.4,-2.09 -0.79,-3.36 0.7,-1.45 0.38,-2.7 -0.4,-3.95 -0.42,-0.68 -0.81,-1.37 -1.24,-2.05 -0.72,-1.15 -0.96,-1.17 -2.08,-0.44 -0.66,0.43 -1.38,0.79 -2.11,1.12 -1.03,0.47 -1.58,-0.02 -1.79,-1.03 -0.28,-1.38 0.03,-2.67 0.86,-3.74 0.65,-0.84 1.46,-1.58 2.29,-2.25 0.83,-0.67 1.15,-1.36 0.71,-2.38 -0.69,-1.57 -1.35,-3.16 -1.97,-4.76 -0.33,-0.85 -0.93,-1.25 -1.8,-1.36 -3.49,-0.43 -5.71,-2.43 -6.92,-5.66 -0.09,-0.24 -0.27,-0.59 -0.46,-0.62 -1.15,-0.17 -1.05,-1.02 -1.24,-1.86 -0.21,-0.92 -0.6,-1.91 -1.2,-2.62 -1.59,-1.84 -3.36,-3.53 -5.02,-5.32 -0.42,-0.45 -0.69,-1.05 -0.97,-1.62 -0.1,-0.2 -0.01,-0.5 0,-0.76 0.25,0.06 0.54,0.05 0.74,0.18 0.85,0.59 1.68,1.22 2.51,1.85 1.65,1.26 3.28,2.55 4.96,3.77 0.43,0.31 1,0.42 1.66,0.69 0.11,-0.82 0.2,-1.47 0.32,-2.32 0.47,0.19 0.94,0.29 1.27,0.54 1.66,1.25 3.37,2.45 4.9,3.85 2.5,2.3 4.87,4.74 7.27,7.14 0.5,0.51 0.92,1.1 1.32,1.7 1.24,1.86 2.23,2.15 4.26,1.22 0.84,-0.39 1.23,-1.04 0.99,-1.94 -0.83,-3.09 -1.74,-6.16 -3.63,-8.81 -0.31,-0.44 -0.89,-0.77 -1.41,-0.97 -1.39,-0.51 -1.97,-1.16 -1.95,-2.65 0.03,-2.54 -1.13,-4.35 -3.27,-5.59 -0.97,-0.56 -1.97,-1.05 -2.97,-1.56 -1.45,-0.74 -1.83,-0.66 -2.87,0.58 -0.54,0.64 -1.02,1.35 -1.65,1.87 -0.69,0.57 -1.5,1.21 -2.49,0.6 -1.08,-0.67 -2.22,-1.54 -1.99,-2.9 0.57,-3.32 0.3,-6.79 1.82,-9.96 0.53,-1.11 1.18,-1.98 2.34,-2.41 1.7,-0.63 2.33,-1.89 2.32,-3.65 -0.03,-4.72 0.05,-9.44 -0.02,-14.16 -0.03,-1.58 -0.28,-3.18 -0.64,-4.72 -0.39,-1.68 -0.14,-3.18 0.37,-4.79 0.55,-1.76 0.66,-3.66 1,-5.5 0.08,-0.44 0.24,-0.96 0.54,-1.26 2.66,-2.6 5.35,-5.16 8.05,-7.73 0.13,-0.13 0.32,-0.2 0.7,-0.43 0.05,1.09 0.09,2.01 0.14,3.05 0.32,-0.1 0.62,-0.15 0.88,-0.28 4.13,-2.09 7.72,-4.69 9.04,-9.48 0.22,-0.79 0.71,-1.5 1.07,-2.24 C 123.6,0 124.08,0 124.56,0 Z m 8.58,81.02 c 0.13,1.86 0.23,3.14 0.32,4.42 0.01,0.12 0,0.25 0.03,0.36 0.24,0.76 0.4,1.55 0.74,2.25 0.37,0.76 1.1,0.71 1.32,-0.02 0.22,-0.77 0.24,-1.73 -0.02,-2.48 -0.4,-1.14 -0.39,-3.34 0.38,-4.2 0.23,-0.25 0.77,-0.51 1.01,-0.4 1.13,0.51 1.62,-0.16 2.09,-0.97 1.27,-2.2 2.9,-4.07 4.86,-5.72 2.05,-1.71 3.95,-3.62 5.87,-5.48 1.78,-1.72 1.46,-5.43 -0.56,-6.51 -1.08,-0.58 -2.19,-1.15 -3.35,-1.55 -0.57,-0.2 -1.34,-0.16 -1.92,0.06 -0.92,0.35 -1.74,0.95 -2.62,1.41 -1.23,0.63 -2.05,1.57 -2.61,2.84 -0.87,1.97 -1.73,3.97 -2.86,5.79 -2.06,3.33 -2.37,7.04 -2.68,10.2 z m -6.36,46.69 c 0.09,0.01 0.19,0.03 0.28,0.04 0.2,-0.66 0.48,-1.31 0.6,-1.98 0.6,-3.34 1.15,-6.69 1.74,-10.03 0.16,-0.9 0.05,-2.03 1.5,-2.03 0.17,0 0.41,-0.26 0.49,-0.46 0.36,-0.84 0.77,-1.68 0.97,-2.57 0.24,-1.05 -0.28,-1.9 -1.24,-2.36 -1.9,-0.92 -4.28,0.49 -4.31,2.56 -0.08,5.24 -0.12,10.47 -0.16,15.71 0,0.38 0.08,0.75 0.13,1.12 z m -6.08,-4.76 c 0.07,-0.01 0.15,-0.01 0.22,-0.02 0.1,-0.53 0.26,-1.05 0.3,-1.58 0.07,-0.84 0.18,-1.49 1.24,-1.69 0.84,-0.17 0.97,-0.98 0.57,-1.64 -1.17,-1.92 -1.41,-4.01 -1.46,-6.2 -0.03,-1.57 -1.14,-2.63 -2.63,-2.76 -0.98,-0.08 -1.67,0.39 -2.17,1.2 -0.45,0.72 -0.58,1.49 0.04,2.09 1.61,1.58 2,3.66 2.54,5.69 0.44,1.64 0.9,3.28 1.35,4.91 z m 7.39,-19.48 c -0.15,0.71 -0.24,1.1 -0.32,1.49 0.43,0.08 0.87,0.15 1.64,0.29 -0.53,-0.7 -0.8,-1.07 -1.32,-1.78 z m -13.38,3.78 c -0.65,0.71 -1.05,1.15 -1.45,1.59 0.11,0.13 0.21,0.27 0.32,0.4 0.45,-0.32 0.92,-0.62 1.32,-0.99 0.08,-0.08 -0.08,-0.43 -0.19,-1 z"
   id="path4"
   inkscape:connector-curvature="0"
   style="fill:#ffffff" />
        <path
   d="m 255.15,77.58 c -0.46,-0.18 -0.71,-0.25 -0.94,-0.36 -3.67,-1.8 -7.3,-3.59 -11.24,-4.89 -4.86,-1.6 -9.43,-4.09 -14.13,-6.2 -0.51,-0.23 -0.97,-0.58 -1.5,-0.75 -9.17,-3.01 -17.62,-7.7 -26.48,-11.43 -4.4,-1.85 -9.03,-3.18 -13.44,-5.01 -4.05,-1.68 -7.98,-3.65 -11.91,-5.61 -1.92,-0.96 -3.87,-1.58 -5.99,-1.2 -1.77,0.32 -3,-0.13 -3.82,-1.81 -0.27,-0.56 -0.91,-1.27 -1.43,-1.32 -0.92,-0.08 -1.39,0.77 -1.66,1.63 -0.07,0.21 -0.26,0.37 -0.46,0.66 -0.88,-1.58 -0.83,-3.03 -0.2,-4.55 0.33,-0.79 0.6,-1.64 0.74,-2.48 0.8,-4.96 2.36,-9.67 4.48,-14.48 0.45,1.89 0.83,3.53 1.25,5.17 0.21,0.82 0.59,1.5 1.69,1.32 0.26,-1.17 -0.62,-2.62 0.8,-3.51 1.59,-1 2.13,0.98 3.33,1.13 0.73,-1.3 0.71,-1.27 1.93,-0.36 1.92,1.44 3.83,2.89 5.81,4.24 2.97,2.02 5.38,4.49 7,7.73 0.35,0.69 1.06,1.3 1.75,1.71 7.06,4.15 14.22,8.13 21.21,12.39 5.15,3.13 10.09,6.62 15.14,9.91 1.71,1.11 3.48,2.09 5.59,2.32 0.73,0.08 1.42,0.49 2.11,0.8 2.04,0.91 4.12,1.74 6.08,2.81 1.15,0.63 2.11,1.62 3.12,2.47 0.39,0.33 0.68,0.79 1.08,1.11 1.82,1.44 3.64,2.87 5.5,4.26 0.43,0.32 0.99,0.47 1.49,0.7 0.28,0.13 0.66,0.2 0.83,0.42 0.73,0.96 1.4,1.96 2.27,3.18 z"
   id="path6"
   inkscape:connector-curvature="0"
   style="fill:#ffffff" />
        <path
   d="m 73.03,205.78 c -0.37,-0.46 -0.44,-0.52 -0.46,-0.59 -0.03,-0.11 -0.04,-0.24 -0.03,-0.35 3.77,-26.02 7.84,-52.02 8.2,-78.4 0.01,-0.54 0.27,-1.08 0.43,-1.7 0.26,0.12 0.48,0.18 0.66,0.3 0.87,0.6 1.49,0.3 1.73,-0.61 0.66,-2.5 1.46,-4.99 1.8,-7.53 0.35,-2.63 0.55,-5.32 -0.41,-7.95 -0.27,-0.74 -0.12,-1.64 -0.18,-2.72 2.16,0.66 2.59,-0.84 3.17,-2.18 1.81,-4.22 3.59,-8.45 5.45,-12.65 0.71,-1.58 1.62,-3.07 2.44,-4.6 0.12,0.05 0.23,0.1 0.35,0.15 -0.59,3.23 -1.17,6.47 -1.76,9.7 -0.11,0.59 -0.32,1.18 -0.29,1.77 0.04,0.74 0.27,1.48 0.43,2.31 -0.12,0.02 -0.48,0.07 -0.83,0.11 -0.22,1.5 0.07,1.97 1.41,2.3 1.66,0.41 1.71,0.48 1.48,2.2 -0.17,1.25 0.46,2.39 1.68,3.04 1.2,0.64 1.17,0.88 0.26,1.89 -1.01,1.12 -2.02,2.28 -2.75,3.58 -1.06,1.9 -1.14,3.96 -0.24,6.01 0.73,1.67 0.89,3.38 0.41,5.15 -3.84,14.22 -7.68,28.44 -11.51,42.66 -1.6,5.93 -3.15,11.88 -4.82,17.8 -1.71,6.03 -3.52,12.02 -5.34,18.02 -0.24,0.75 -0.79,1.42 -1.28,2.29 z M 92.78,103.89 c -0.5,1.37 -0.24,1.7 1.26,1.54 -0.44,-0.54 -0.84,-1.02 -1.26,-1.54 z"
   id="path8"
   inkscape:connector-curvature="0"
   style="fill:#ffffff" />
        <path
   d="m 0,81.94 c 1.11,-0.52 2.16,-0.92 3.11,-1.49 1.04,-0.64 1.99,-1.44 2.97,-2.18 0.6,-0.46 1.14,-1.01 1.79,-1.39 3.56,-2.13 7.15,-4.23 10.73,-6.33 2.95,-1.73 5.86,-3.54 8.88,-5.14 1.64,-0.86 3.48,-1.32 5.21,-2.03 0.55,-0.23 1.04,-0.63 1.52,-1 0.79,-0.6 1.46,-1.39 2.32,-1.83 9.68,-4.93 18.38,-11.24 26.36,-18.58 0.26,-0.24 0.52,-0.49 0.78,-0.74 1.17,-1.13 1.88,-1.7 3.21,-0.02 0.27,0.34 1.25,0.49 1.67,0.27 4.65,-2.4 9.25,-4.89 13.85,-7.37 0.27,-0.15 0.54,-0.37 0.71,-0.63 0.36,-0.53 0.73,-0.55 1.31,-0.34 0.5,0.18 1.08,0.13 1.75,0.19 0.78,2.16 1.01,4.49 -0.29,6.83 -1.07,1.93 -0.89,4.03 -0.39,6.08 0.13,0.55 0.77,0.97 1.27,1.56 -0.14,0.93 -0.88,1.5 -1.77,1.9 -1.13,0.5 -2.31,0.9 -3.42,1.43 -1.72,0.82 -3.4,1.7 -5.1,2.56 -0.39,0.2 -0.78,0.4 -1.17,0.6 -1.33,0.7 -2.65,1.4 -3.98,2.1 -0.39,0.2 -0.78,0.41 -1.2,0.54 -2.7,0.84 -5.43,1.61 -8.12,2.49 -6.73,2.2 -13.54,4.15 -20.17,6.68 -3.46,1.32 -7.06,2.25 -10.59,3.39 -1.17,0.38 -2.33,0.83 -3.46,1.34 -4.63,2.07 -9.33,4 -13.83,6.33 C 10.07,79.17 6.08,80.83 1.99,82.31 0.92,82.66 0.9,82.7 0,81.94 Z"
   id="path10"
   inkscape:connector-curvature="0"
   style="fill:#ffffff" />
        <path
   d="m 167.91,128.7 c 0.38,-0.09 0.72,-0.18 0.85,-0.21 0.7,0.8 1.34,1.5 1.94,2.23 0.11,0.14 0.13,0.38 0.13,0.58 0.25,5.7 2.32,10.99 3.77,16.42 3.59,13.42 7.84,26.66 10.55,40.3 0.66,3.31 1.25,6.62 1.88,9.94 -0.11,0.03 -0.21,0.06 -0.32,0.09 -0.16,-0.35 -0.34,-0.69 -0.48,-1.05 -5.04,-12.56 -10.16,-25.08 -15.07,-37.69 -3.67,-9.43 -7.95,-18.57 -12.33,-27.66 -0.52,-1.07 -0.87,-1.97 0.18,-3.02 0.3,-0.3 0.05,-1.37 -0.22,-1.96 -1.82,-3.91 -3.78,-7.75 -5.57,-11.67 -1.09,-2.39 -1.97,-4.88 -2.92,-7.34 -0.43,-1.11 -0.27,-1.99 0.99,-2.51 1.07,-0.44 1.34,-1.49 1.32,-2.5 -0.02,-1.91 -0.18,-3.81 -0.3,-5.72 -0.02,-0.31 -0.1,-0.61 -0.15,-0.93 0.13,-0.03 0.21,-0.07 0.27,-0.05 2.77,1.12 3.16,0.96 4.28,-1.81 0.54,-1.33 1.05,-2.68 1.59,-4.01 0.15,-0.38 0.37,-0.73 0.69,-1.36 0.54,7.38 2.89,14.05 4.24,20.92 1.14,5.83 2.65,11.59 4.01,17.37 0.08,0.35 0.18,0.7 0.31,1.03 0.07,0.21 0.22,0.39 0.36,0.61 z"
   id="path12"
   inkscape:connector-curvature="0"
   style="fill:#ffffff" />
        <path
   d="m 61.48,87.63 c 0.23,0.75 0.36,1.16 0.48,1.56 2.08,0.41 2.42,0.16 2.4,-1.85 -0.02,-1.29 0.3,-2.43 1.17,-3.42 2.42,-2.76 4.82,-5.54 7.21,-8.33 1.41,-1.64 2.75,-3.33 4.2,-4.93 0.9,-1 2.26,-1.72 2.81,-2.86 0.52,-1.09 0.26,-2.55 0.34,-3.85 1.58,0.23 2.95,1.73 3.17,3.46 0.12,0.95 0.21,1.91 0.25,2.87 0.07,2.02 0.73,3.8 1.87,5.47 0.74,1.08 1.37,2.25 1.9,3.45 0.51,1.16 0.02,1.77 -1.24,1.96 -0.42,0.06 -0.9,0.28 -1.2,0.58 -0.64,0.64 -1.14,1.43 -1.79,2.05 -6.43,6.21 -13.61,11.5 -20.7,16.91 -3.11,2.37 -6.06,4.98 -8.84,7.73 -5.81,5.75 -11.96,11.04 -18.79,15.58 -2.66,1.77 -4.81,4.3 -7.31,6.34 -1.81,1.48 -3.8,2.74 -5.72,4.09 -0.17,0.12 -0.41,0.15 -0.98,0.36 0.55,-0.8 0.84,-1.35 1.24,-1.8 3.64,-4.14 7.23,-8.33 10.98,-12.37 3.37,-3.63 6.97,-7.04 10.39,-10.62 2.97,-3.12 5.9,-6.28 8.68,-9.57 0.56,-0.66 0.37,-1.96 0.52,-2.96 0.09,-0.57 0.17,-1.14 0.26,-1.71 0.54,0.2 1.08,0.39 1.61,0.62 0.29,0.13 0.55,0.33 0.82,0.5 1.25,0.8 1.58,0.67 1.71,-0.78 0.06,-0.71 0.01,-1.44 -0.08,-2.14 -0.2,-1.57 0.22,-2.79 1.59,-3.72 1.03,-0.76 1.94,-1.68 3.05,-2.62 z"
   id="path14"
   inkscape:connector-curvature="0"
   style="fill:#ffffff" />
        <path
   d="m 213.6,137.42 c -5.92,-8.82 -13.94,-15.3 -20.53,-23.06 -4.75,-5.6 -8.93,-11.67 -13.29,-17.59 -2.25,-3.05 -4.34,-6.23 -6.5,-9.35 -0.2,-0.29 -0.42,-0.71 -0.71,-0.78 -1.5,-0.37 -1.67,-1.58 -2.08,-2.79 -0.42,-1.22 -1.17,-2.36 -1.94,-3.42 -0.28,-0.39 -1.01,-0.55 -1.56,-0.63 -2.47,-0.37 -3.29,-2.38 -1.75,-4.44 0.52,-0.71 1.1,-1.37 1.63,-2.08 0.6,-0.8 1.16,-1.62 1.76,-2.43 0.57,-0.77 0.68,-1.4 -0.16,-2.17 -1.03,-0.94 -0.63,-3.9 0.51,-4.72 0.67,-0.48 2.59,-0.04 3.03,0.69 0.51,0.86 0.97,1.75 1.53,2.58 0.73,1.08 1.55,2.1 2.3,3.17 0.52,0.75 1.12,1.49 1.45,2.33 0.81,2.05 2.26,3.64 3.55,5.36 0.62,0.82 1.1,1.85 1.3,2.86 0.39,1.95 0.89,3.8 2.32,5.29 0.49,0.51 0.87,1.14 1.27,1.74 3.3,5 6.52,10.07 9.91,15.01 3.52,5.13 6.35,10.62 8.87,16.29 1.46,3.29 3.08,6.48 5.25,9.38 1.84,2.51 2.97,5.4 3.84,8.76 z"
   id="path16"
   inkscape:connector-curvature="0"
   style="fill:#ffffff" />
        <path
   d="m 165.14,60.68 c 1.2,0.5 1.4,1.33 1.19,2.25 -0.3,1.34 -0.71,2.65 -1.12,4.13 -0.95,-0.76 -1.48,-1.56 -1.26,-2.55 0.28,-1.3 0.77,-2.54 1.19,-3.83 z"
   id="path18"
   inkscape:connector-curvature="0"
   style="fill:#ffffff" />
    </g>
</g>
</svg>