<?xml version="1.0" encoding="UTF-8" standalone="no"?>
<!-- Generator: Adobe Illustrator 23.0.4, SVG Export Plug-In  -->

<svg
   xmlns:dc="http://purl.org/dc/elements/1.1/"
   xmlns:cc="http://creativecommons.org/ns#"
   xmlns:rdf="http://www.w3.org/1999/02/22-rdf-syntax-ns#"
   xmlns:svg="http://www.w3.org/2000/svg"
   xmlns="http://www.w3.org/2000/svg"
   xmlns:sodipodi="http://sodipodi.sourceforge.net/DTD/sodipodi-0.dtd"
   xmlns:inkscape="http://www.inkscape.org/namespaces/inkscape"
   version="1.1"
   x="0px"
   y="0px"
   width="251.78"
   height="251.78"
   viewBox="0 0 251.77999 251.78"
   xml:space="preserve"
   id="svg14"
   sodipodi:docname="spire_tyrants.svg"
   inkscape:version="0.92.3 (2405546, 2018-03-11)"><metadata
   id="metadata18"><rdf:RDF><cc:Work
       rdf:about=""><dc:format>image/svg+xml</dc:format><dc:type
         rdf:resource="http://purl.org/dc/dcmitype/StillImage" /><dc:title></dc:title></cc:Work></rdf:RDF></metadata><sodipodi:namedview
   pagecolor="#ffffff"
   bordercolor="#666666"
   borderopacity="1"
   objecttolerance="10"
   gridtolerance="10"
   guidetolerance="10"
   inkscape:pageopacity="0"
   inkscape:pageshadow="2"
   inkscape:window-width="1920"
   inkscape:window-height="1017"
   id="namedview16"
   showgrid="false"
   inkscape:zoom="0.93740072"
   inkscape:cx="-13.569062"
   inkscape:cy="125.88"
   inkscape:window-x="-8"
   inkscape:window-y="-8"
   inkscape:window-maximized="1"
   inkscape:current-layer="svg14" />
<defs
   id="defs2">
</defs>
<g
   id="g12"
   transform="translate(6.6499994)">
    <g
   id="g10">
        <path
   d="m 61.58,251.76 c -1.59,-1.82 -1.12,-3.84 -0.34,-5.72 1.43,-3.47 3.13,-6.82 4.57,-10.29 2.78,-6.67 5.58,-13.34 8.1,-20.11 0.94,-2.52 1.31,-5.26 2.64,-7.66 0.48,-0.87 1.04,-1.71 1.47,-2.6 0.48,-0.97 0.85,-1.99 1.33,-3.11 0.23,0.11 0.64,0.32 1.05,0.52 0.83,0.4 1.53,1.09 2.64,0.79 0.41,-0.11 0.99,0.4 1.64,0.7 0.93,-3.98 1.84,-7.93 2.83,-12.18 -0.92,0.52 -1.71,0.81 -2.29,1.34 -1.01,0.92 -2.16,1.29 -3.42,0.96 -1.9,-0.49 -3.24,0.2 -4.1,1.8 -1.52,2.84 -3.14,5.66 -4.37,8.64 -1.78,4.33 -4.72,7.86 -7.46,11.53 -0.17,0.23 -0.44,0.4 -0.79,0.71 -0.05,-0.36 -0.13,-0.56 -0.08,-0.71 1.83,-6.78 3.64,-13.58 6.64,-19.97 0.94,-2.01 2.15,-3.8 3.76,-5.36 0.84,-0.81 1.48,-1.88 2.05,-2.92 2.33,-4.32 4.69,-8.64 6.87,-13.04 1.4,-2.82 2.16,-5.99 3.79,-8.65 4.12,-6.74 5.75,-14.54 9.49,-21.41 1.76,-3.23 3.67,-6.37 5.5,-9.55 1.61,-2.8 3.21,-5.62 4.82,-8.42 0.17,-0.3 0.42,-0.56 0.71,-0.94 0.79,0.83 1.52,1.6 2.32,2.45 1.37,-1.67 1.95,-3.45 2,-5.41 0.06,-2.23 0.71,-3.23 2.82,-4.07 0.7,-0.28 1.43,-0.51 2.13,-0.81 1.2,-0.52 1.24,-0.78 0.3,-1.63 -0.21,-0.19 -0.42,-0.37 -0.62,-0.56 -0.66,-0.65 -0.94,-1.43 -0.52,-2.29 0.62,-1.27 0.56,-2.55 0.55,-3.93 -0.01,-1.32 0.42,-2.8 1.11,-3.93 1.67,-2.7 3.77,-5.07 6.76,-6.44 0.22,-0.1 0.41,-0.25 0.61,-0.38 0.1,-0.06 0.19,-0.14 -0.07,-0.28 0.05,-0.77 -0.11,-1.62 0.17,-2.3 3.69,-8.93 7.47,-17.82 11.17,-26.74 0.69,-1.65 1.11,-3.41 1.77,-5.07 0.95,-2.36 1.76,-4.82 3.06,-6.99 2.95,-4.93 4.33,-10.46 6.57,-15.66 1.48,-3.42 1.67,-6.49 0.14,-10.03 -1.95,-4.52 -0.36,-8.27 3.84,-10.91 2.2,-1.38 4.42,-2.73 6.56,-4.2 1.19,-0.81 2.34,-0.85 3.63,-0.43 4.54,1.48 7.19,5.85 6.57,10.84 -0.08,0.67 -0.25,1.4 -0.07,2.01 0.14,0.46 0.75,0.82 1.22,1.12 0.07,0.05 0.62,-0.47 0.78,-0.8 0.58,-1.22 1.08,-2.47 1.6,-3.69 3.29,0.51 6.22,4.39 5.69,7.53 -0.19,1.16 0.16,1.92 1.25,2.22 1.57,0.43 3.17,0.95 4.78,1.05 3.61,0.24 5.96,4.81 5,7.53 -0.67,1.89 -0.8,4.07 -2.75,5.28 -1.02,0.63 -2.08,1.18 -3.11,1.78 -3.27,1.9 -6.3,4.07 -8.71,7.06 -0.76,0.94 -1.92,1.55 -2.84,2.37 -1.32,1.2 -2.74,2.33 -3.86,3.71 -6.33,7.77 -11.58,16.28 -16.51,24.97 -1.51,2.66 -2.77,5.48 -3.95,8.31 -1.37,3.28 -3.56,5.97 -5.87,8.55 -0.69,0.77 -2.29,1.18 -3.38,1.05 -2.25,-0.28 -4.28,-0.04 -6.25,1.02 -0.1,0.06 -0.22,0.09 -0.34,0.13 -2.87,0.98 -2.86,0.9 -1.37,3.69 0.56,1.06 1.05,2.19 1.8,3.1 1.12,1.36 2.43,2.56 3.78,3.94 -1.29,1.57 -2.76,3.4 -4.28,5.2 -0.76,0.9 -1.29,1.78 -0.9,3.04 0.11,0.35 -0.2,0.88 -0.42,1.27 -0.47,0.83 -1.08,1.59 -1.49,2.45 -4.21,8.7 -8.51,17.35 -13.59,25.58 -1.36,2.21 -2.6,4.5 -3.78,6.81 -0.62,1.2 -0.96,2.53 -1.5,3.77 -0.82,1.85 -1.46,3.84 -2.6,5.47 -3.17,4.55 -5.65,9.46 -7.99,14.45 -0.46,0.98 -0.64,2.14 -0.79,3.23 -0.28,2.1 -0.48,4.21 -0.67,6.32 -0.16,1.78 -1.02,3.15 -2.48,4.03 -2.28,1.38 -3.74,3.4 -5.11,5.61 -0.58,0.94 -1.61,1.6 -2.34,2.47 -0.55,0.65 -0.94,1.44 -1.4,2.17 -0.38,0.6 -0.78,1.19 -1.12,1.8 -0.84,1.49 -1.73,2.95 -2.46,4.49 -1.87,3.97 -3.66,7.98 -5.49,11.97 -0.23,0.51 -0.51,1 -0.83,1.45 -4.05,5.74 -8.12,11.47 -12.17,17.21 -0.32,0.45 -0.48,1.01 -0.81,1.46 -0.58,0.78 -1.23,1.51 -1.84,2.26 -0.27,-0.02 -0.51,-0.02 -0.75,-0.02 z"
   id="path4"
   inkscape:connector-curvature="0"
   style="fill:#ffffff" />
        <path
   d="m 122.06,0 c 1.19,2.21 0.73,4.69 1.17,7.02 0.42,2.19 0.98,4.35 1.43,6.53 0.67,3.2 1.33,6.41 1.94,9.62 1.12,5.89 3,11.51 6.03,16.7 0.7,1.2 0.78,2.08 -0.12,3.44 -0.77,1.17 -0.62,2.97 -0.75,4.5 -0.02,0.21 0.66,0.6 1.08,0.72 2.03,0.58 4.08,1.12 6.13,1.61 1.67,0.4 2.17,1.74 2.64,3.12 0.07,0.2 -0.05,0.58 -0.22,0.71 -1.54,1.21 -2.11,2.96 -2.77,4.68 -0.28,0.74 -0.62,1.46 -0.98,2.28 -0.42,-0.17 -0.76,-0.3 -1.2,-0.48 -0.05,0.75 -0.1,1.4 -0.15,2.15 -0.31,-0.09 -0.63,-0.08 -0.73,-0.22 -0.89,-1.27 -2.39,-1.35 -3.65,-1.87 -0.49,-0.2 -1.3,-0.26 -1.66,0.02 -0.91,0.7 -1.73,0.86 -2.92,-0.06 -0.35,1.95 -0.7,3.64 -0.95,5.36 -0.74,5.03 -1.7,10 -3.6,14.75 -0.07,0.18 -0.16,0.36 -0.24,0.54 -0.91,-0.35 -0.99,-0.2 -1.86,2.97 -0.21,-0.33 -0.58,-0.64 -0.61,-0.98 -0.07,-0.87 0.02,-1.76 0.04,-2.64 0.08,-3.82 0.31,-7.62 -0.97,-11.36 -0.73,-2.14 -1.01,-4.44 -1.38,-6.68 -0.21,-1.31 -0.91,-1.75 -2.14,-1.97 -2.54,-0.46 -5,-0.2 -7.48,0.35 -3.31,0.74 -6.69,1.21 -9.96,2.08 -5.03,1.35 -9.4,4.13 -13.74,6.92 -0.76,0.49 -0.86,0.98 -0.54,1.87 0.6,1.67 1.25,3.26 2.55,4.54 0.7,0.69 0.85,1.6 0.5,2.45 -1.75,0 -3.44,-0.01 -5.13,0 -1.98,0.02 -3.33,-0.89 -4.05,-2.85 -2.94,3.85 -5.52,7.72 -7.09,12.18 -0.5,1.43 -1.04,2.85 -1.53,4.29 -0.42,1.22 -1.07,2.21 -2.01,3.17 -1.43,1.47 -1.9,3.55 -1.89,5.55 0.02,3.54 -0.24,7.12 0.78,10.6 0.18,0.6 0.13,1.27 0.24,1.9 0.15,0.85 0.74,1.1 1.35,0.51 1.47,-1.44 3.41,-1.63 5.21,-1.68 4.3,-0.11 8.59,-0.08 12.81,1.31 2.11,0.69 4.49,0.63 6.76,0.74 5.23,0.25 10.47,0.37 15.7,0.61 0.75,0.03 1.48,0.43 2.22,0.65 0.02,0.16 0.03,0.31 0.05,0.47 -0.61,0.26 -1.2,0.71 -1.83,0.76 -5.46,0.43 -10.92,0.75 -16.37,1.18 -1.9,0.15 -3.81,0.44 -5.68,0.8 -3.8,0.73 -7.57,1.61 -11.38,2.28 -0.78,0.14 -1.72,-0.22 -2.5,-0.56 -2.57,-1.1 -2.87,-0.94 -4.7,1.06 -1.51,1.65 -2.15,3.39 -1.99,5.62 0.19,2.62 -0.22,5.33 0.26,7.89 1,5.24 3.15,9.83 7.8,13.13 3.17,2.25 5.8,5.24 8.72,7.83 0.94,0.84 2.06,1.48 3.44,2.45 -0.71,1.98 -1.33,4.53 -2.53,6.77 -0.95,1.76 -1.78,3.45 -2.03,5.43 -0.02,0.12 -0.03,0.24 -0.05,0.36 -0.4,2.24 -1.32,2.85 -3.58,2.33 -0.06,-0.28 -0.09,-0.59 -0.18,-0.89 -0.21,-0.68 -0.29,-1.79 -0.72,-1.95 -1.28,-0.48 -2.55,0.25 -3.33,1.38 -1.47,2.14 -2.99,4.25 -4.5,6.36 -0.38,0.53 -0.75,0.94 -1.58,0.5 -0.34,-0.18 -1.1,0.13 -1.52,0.43 -0.65,0.47 -1.17,1.11 -1.75,1.69 -0.11,-0.06 -0.21,-0.13 -0.32,-0.19 0.09,-0.29 0.16,-0.6 0.29,-0.88 0.87,-1.89 1.67,-3.81 2.65,-5.64 0.89,-1.66 1.08,-3.36 0.52,-5.09 -0.78,-2.44 -0.41,-4.64 1.01,-6.72 0.22,-0.33 0.37,-0.71 0.53,-1.07 0.41,-0.93 0.13,-1.62 -0.87,-1.8 -1.51,-0.27 -2.31,-1.23 -2.96,-2.52 -0.38,-0.76 -0.93,-1.53 -1.6,-2.04 -2.87,-2.23 -4.91,-5.06 -6.09,-8.45 -1.48,-4.25 -2.75,-8.58 -4.12,-12.87 -0.59,-1.86 -1.15,-3.73 -1.78,-5.57 -0.18,-0.52 -0.45,-1.08 -0.84,-1.43 -1.05,-0.95 -1.89,-1.96 -2.12,-3.42 -0.05,-0.32 -0.54,-0.69 -0.91,-0.83 -1.04,-0.4 -2.12,-0.68 -3.12,-1 -0.38,0.79 -0.72,1.5 -1.23,2.55 -0.62,-0.82 -0.97,-1.38 -1.41,-1.84 -0.31,-0.32 -0.77,-0.5 -1.16,-0.75 -0.22,0.4 -0.55,0.78 -0.63,1.2 -0.16,0.87 -0.19,1.76 -0.32,3.06 -3.2,-2.42 -6.82,-1.48 -10.04,-2.56 -3.48,-1.17 -7.01,-2.22 -10.59,-3.02 -3.53,-0.79 -7.15,-1.21 -10.73,-1.75 -2.83,-0.43 -5.68,-0.81 -8.55,-1.47 0.17,-0.09 0.34,-0.24 0.52,-0.27 3.53,-0.67 7.08,-1.21 10.58,-2 4.2,-0.96 8.34,-2.13 12.51,-3.22 1.66,-0.43 3.29,-0.95 4.97,-1.27 1.36,-0.26 2.46,-0.86 3.42,-1.82 0.87,-0.87 1.8,-1.69 2.72,-2.55 1.1,0.61 1.42,1.63 1.67,2.68 0.71,2.97 0.69,2.9 3.5,2.01 1.28,-0.4 2.65,-0.58 4,-0.66 1,-0.06 1.75,-0.36 2.42,-1.07 0.77,-0.83 1.48,-1.84 2.89,-1.4 0.15,0.05 0.41,-0.08 0.54,-0.2 1.35,-1.38 3.22,-1.49 4.9,-2.05 0.33,-0.11 0.61,-0.39 0.92,-0.59 -0.3,-0.19 -0.59,-0.42 -0.91,-0.54 -0.5,-0.19 -1.02,-0.29 -1.75,-0.5 0.11,-0.45 0.21,-1.1 0.43,-1.72 1.39,-3.91 2.78,-7.82 4.21,-11.72 0.34,-0.92 0.39,-1.59 -0.56,-2.25 -1.07,-0.75 -1.16,-2.31 -0.36,-3.58 1.19,-1.89 2.45,-3.75 3.62,-5.65 0.98,-1.6 1.82,-3.28 2.82,-4.87 0.74,-1.17 1.62,-2.27 2.49,-3.36 0.89,-1.11 0.8,-1.25 -0.12,-2.27 -1.22,-1.35 -2.35,-2.81 -3.37,-4.32 -1.2,-1.79 -2.09,-3.81 -3.41,-5.49 -1.34,-1.71 -2.95,-3.24 -4.61,-4.66 -1.5,-1.29 -1.72,-1.87 -0.51,-3.58 -0.99,-1.17 -2.45,-2.15 -2.44,-4.16 3.17,1.55 6.23,2.99 9.24,4.54 3.2,1.64 6.34,3.39 9.52,5.07 1.94,1.03 3.65,2.3 4.62,4.45 0.29,-0.11 0.56,-0.18 0.78,-0.31 8.31,-4.79 17.33,-7.95 26.29,-11.21 2.74,-1 5.69,-1.41 8.52,-2.17 1.6,-0.43 1.56,-0.49 1.08,-2.01 -0.18,-0.57 -0.27,-1.16 -0.36,-1.75 -0.16,-1 -0.42,-2.01 1.25,-1.93 0.37,0.02 0.9,-0.63 1.14,-1.08 3.49,-6.66 5.78,-13.76 7.37,-21.08 0.39,-1.8 0.16,-3.74 0.24,-5.62 0.19,-3.99 0.39,-7.98 0.6,-11.97 0.01,-0.23 0.13,-0.45 0.2,-0.68 C 121.74,0 121.9,0 122.06,0 Z m -66.9,106.92 c -1.43,-0.07 -2.62,-0.29 -3.52,0.9 -0.52,0.68 -1.19,1.27 -1.88,1.8 -1.42,1.09 -1.75,1.88 -1.35,3.63 0.16,0.7 0.38,1.39 0.43,2.1 0.29,3.99 5.01,6.55 8.5,4.54 0.46,-0.26 0.88,-0.73 1.12,-1.2 0.59,-1.17 1.12,-2.39 1.58,-3.62 0.91,-2.47 -0.21,-4.49 -1.48,-6.5 -0.89,-1.39 -2.02,-2 -3.4,-1.65 z M 56,104.4 c 0.39,0.41 0.69,0.95 1.14,1.18 1.81,0.9 2.97,2.35 3.79,4.14 0.29,0.64 0.74,1.21 1.27,2.06 0.12,-1.75 -1.32,-5.96 -2.42,-7.53 -0.18,0.1 -0.37,0.19 -0.58,0.3 -0.21,-1.43 -1.12,-1.46 -3.2,-0.15 z"
   id="path6"
   inkscape:connector-curvature="0"
   style="fill:#ffffff" />
        <path
   d="m 191.96,69.84 c 0.83,0.19 1.45,0.33 2.39,0.55 -0.74,1.3 -1.59,2.61 -2.26,4 -0.93,1.94 -1.68,3.96 -2.57,5.92 -0.81,1.77 -0.72,3.48 -0.16,5.33 1.13,3.78 2.13,7.61 3.05,11.46 0.24,0.99 0.18,2.16 -0.1,3.15 -0.56,1.98 0.12,3.8 0.42,5.67 0.03,0.17 0.52,0.44 0.74,0.4 2.69,-0.58 4.89,0.76 7.17,1.79 0.44,0.2 0.86,0.43 1.25,0.71 0.58,0.42 1.06,0.42 1.72,0.03 1.16,-0.69 2.4,-0.52 3.52,0.21 2.67,1.75 5.5,3.08 8.67,3.61 0.94,0.16 1.9,0.26 2.84,0.43 1.11,0.2 2.29,0.08 3.26,0.94 0.32,0.29 0.98,0.25 1.49,0.29 4.98,0.3 9.97,0.58 15.11,0.88 0,0.6 0,1.1 0,1.6 -0.01,1.12 -0.64,1.61 -1.69,1.52 -1.31,-0.11 -2.62,-0.41 -3.93,-0.42 -2.16,-0.02 -4.32,0.09 -6.47,0.24 -0.56,0.04 -1.13,0.36 -1.62,0.68 -2.57,1.69 -5.39,2.68 -8.33,3.56 -2.89,0.86 -5.68,2.09 -8.47,3.27 -1.42,0.6 -2.74,1.44 -4.1,2.18 -0.59,0.32 -1.14,0.77 -1.77,0.99 -0.93,0.33 -1.55,-0.12 -1.46,-1.09 0.08,-0.95 -0.29,-1.17 -1.09,-0.97 -1.75,0.42 -3.5,0.82 -5.23,1.32 -0.38,0.11 -0.77,0.54 -0.96,0.92 -0.24,0.49 -0.35,1.07 -0.42,1.62 -0.39,3.28 -1.91,6.04 -3.73,8.72 -2.79,4.09 -5.49,8.25 -8.21,12.39 -0.76,1.16 -0.67,1.64 0.53,2.29 0.98,0.53 1.2,1.35 1.28,2.38 0.08,0.96 0.25,1.99 0.68,2.83 0.68,1.35 1.54,2.62 2.44,3.83 1.91,2.56 3.89,5.07 5.88,7.57 0.91,1.13 1.93,2.18 2.97,3.35 -0.32,-0.1 -0.66,-0.16 -0.96,-0.3 -1.39,-0.7 -2.72,-1.55 -4.16,-2.13 -4.45,-1.82 -8.91,-3.65 -13.44,-5.24 -1.61,-0.57 -3.46,-0.67 -5.19,-0.61 -1.12,0.04 -2.28,0.66 -3.28,1.26 -0.98,0.59 -1.84,1.42 -2.65,2.24 -4.75,4.83 -10.57,7.92 -16.75,10.46 -0.89,0.36 -1.8,0.67 -2.65,1.11 -2.45,1.27 -5.07,1.87 -7.79,2.17 -2.05,0.22 -4.09,0.6 -6.13,0.91 -0.27,0.04 -0.54,0.12 -0.81,0.22 -1.55,0.57 -1.74,1.04 -0.86,2.47 0.71,1.16 1.46,2.3 2.28,3.37 0.5,0.65 0.48,1.12 0.05,1.8 -2.03,3.2 -4.19,6.38 -4.95,10.18 -0.8,3.99 -1.47,8.01 -2.08,12.04 -0.37,2.48 -0.45,5.01 -0.79,7.5 -0.32,2.32 -0.87,4.62 -1.23,6.94 -0.28,1.78 -0.54,3.57 -0.59,5.36 -0.04,1.49 -0.43,2.48 -2.4,2.62 -0.18,-0.79 -0.55,-1.71 -0.59,-2.64 -0.19,-4.75 -0.21,-9.51 -0.43,-14.27 -0.36,-7.95 -0.82,-15.89 -1.24,-23.84 -0.07,-1.23 -0.42,-2.24 -1.77,-2.7 -0.39,-0.13 -0.76,-0.69 -0.89,-1.13 -0.36,-1.23 -0.18,-2.42 0.38,-3.6 1.09,-2.28 0.53,-3.31 -1.94,-3.83 -1.99,-0.42 -3.98,-0.87 -5.98,-1.23 -0.46,-0.08 -1,0.1 -1.48,0.26 -0.41,0.14 -0.75,0.53 -1.16,0.6 -0.5,0.09 -1.04,-0.03 -1.57,-0.06 0.09,-0.42 0.1,-0.89 0.28,-1.27 1.18,-2.4 2.38,-4.78 3.61,-7.14 0.15,-0.3 0.64,-0.7 0.85,-0.64 1.32,0.36 1.68,-0.62 2.13,-1.43 0.19,-0.34 0.28,-0.76 0.32,-1.15 0.12,-1.09 0.63,-1.54 1.77,-1.35 0.41,0.07 0.96,-0.06 1.29,-0.31 1.72,-1.24 3.45,-2.47 5.03,-3.87 0.62,-0.55 1.18,-1.5 1.23,-2.31 0.27,-4.08 0.73,-8.11 2.18,-11.98 0.27,-0.71 0.1,-1.58 0.18,-2.37 0.17,-1.52 0.38,-3.03 0.82,-4.53 1.88,8.5 2.3,17.14 3.36,25.67 4.81,-0.72 9.2,-2.47 13.69,-3.98 7.57,-2.56 14.33,-6.63 21.05,-10.81 0.85,-0.53 1.07,-1.19 0.77,-2.13 -0.46,-1.49 -0.91,-2.98 -1.25,-4.5 -0.13,-0.57 0.05,-1.21 0.09,-1.81 0.64,0.06 1.33,-0.02 1.91,0.2 1.11,0.43 2.18,0.99 3.22,1.58 0.99,0.56 1.66,0.37 2.37,-0.51 2.66,-3.3 4.58,-7.01 6.38,-10.81 1.12,-2.38 2.27,-4.76 3.48,-7.09 1.3,-2.48 1.78,-5.02 0.97,-7.75 -0.1,-0.34 -0.15,-0.7 -0.22,-1.05 -0.43,-2.07 -0.43,-2.06 -2.52,-2.44 -4.4,-0.8 -8.78,-1.75 -13.2,-2.39 -4.11,-0.59 -8.27,-0.82 -12.4,-1.25 -3.89,-0.41 -7.78,-0.87 -11.67,-1.31 -2.7,-0.3 -4.02,-2.44 -5.55,-4.25 -0.51,-0.6 -0.14,-1.12 0.66,-1.21 4.24,-0.5 8.47,-0.46 12.61,0.7 2.64,0.74 5.31,0.85 7.94,0.26 1.91,-0.42 3.72,-0.08 5.59,0.07 1.82,0.15 3.65,0.13 5.48,0.24 1.23,0.08 2.46,0.21 3.68,0.4 2.88,0.43 5.53,-0.51 8.21,-1.32 2.45,-0.73 2.42,-0.73 2.27,-3.27 -0.42,-7.07 -2.14,-13.88 -4.12,-20.63 -0.54,-1.85 -1.54,-3.45 -3,-4.69 -1.74,-1.46 -3.56,-2.83 -5.4,-4.16 -0.94,-0.68 -1.39,-1.56 -1.01,-2.57 0.44,-1.17 1.14,-2.26 1.79,-3.34 0.59,-0.97 1.34,-1.79 1.3,-3.12 -0.02,-0.6 0.76,-1.34 1.35,-1.79 0.17,-0.14 1.01,0.38 1.39,0.75 1.08,1.05 2.34,1.59 3.81,1.86 0.82,0.15 1.65,0.54 2.35,1.01 0.86,0.57 1.59,1.34 2.38,2.01 2.33,1.97 3.77,2.09 6.4,0.47 1.56,-0.98 3.07,-1.95 4.36,-2.77 z m 4.35,41.48 c -0.04,-0.11 -0.08,-0.23 -0.12,-0.34 -1.26,0.48 -2.87,0.64 -3.72,1.52 -2.19,2.26 -1.38,5.07 -0.52,7.66 0.21,0.65 1.19,1.13 1.9,1.51 4.41,2.38 7.94,0.84 9.28,-4 0.06,-0.23 0.09,-0.47 0.16,-0.7 0.41,-1.49 -0.06,-2.69 -1.23,-3.61 -1.69,-1.33 -3.56,-2.15 -5.75,-2.04 z"
   id="path8"
   inkscape:connector-curvature="0"
   style="fill:#ffffff" />
    </g>
</g>
</svg>