<?xml version="1.0" encoding="UTF-8" standalone="no"?>
<!-- Created with Inkscape (http://www.inkscape.org/) -->

<svg
   xmlns:dc="http://purl.org/dc/elements/1.1/"
   xmlns:cc="http://creativecommons.org/ns#"
   xmlns:rdf="http://www.w3.org/1999/02/22-rdf-syntax-ns#"
   xmlns:svg="http://www.w3.org/2000/svg"
   xmlns="http://www.w3.org/2000/svg"
   xmlns:sodipodi="http://sodipodi.sourceforge.net/DTD/sodipodi-0.dtd"
   xmlns:inkscape="http://www.inkscape.org/namespaces/inkscape"
   width="215"
   height="215"
   viewBox="0 0 56.885415 56.885418"
   version="1.1"
   id="svg8"
   inkscape:version="0.92.3 (2405546, 2018-03-11)"
   sodipodi:docname="ironweld_arsenal.svg">
  <defs
     id="defs2" />
  <sodipodi:namedview
     id="base"
     pagecolor="#ffffff"
     bordercolor="#666666"
     borderopacity="1.0"
     inkscape:pageopacity="0.0"
     inkscape:pageshadow="2"
     inkscape:zoom="0.7"
     inkscape:cx="-73.125166"
     inkscape:cy="151.97517"
     inkscape:document-units="px"
     inkscape:current-layer="layer1"
     showgrid="false"
     inkscape:window-width="1920"
     inkscape:window-height="1017"
     inkscape:window-x="-8"
     inkscape:window-y="-8"
     inkscape:window-maximized="1"
     inkscape:snap-global="false"
     units="px" />
  <metadata
     id="metadata5">
    <rdf:RDF>
      <cc:Work
         rdf:about="">
        <dc:format>image/svg+xml</dc:format>
        <dc:type
           rdf:resource="http://purl.org/dc/dcmitype/StillImage" />
        <dc:title></dc:title>
      </cc:Work>
    </rdf:RDF>
  </metadata>
  <g
     inkscape:label="Layer 1"
     inkscape:groupmode="layer"
     id="layer1"
     transform="translate(0,-240.11457)">
    <g
       id="g1419"
       transform="matrix(0.90667242,0,0,0.90667242,32.897782,170.88276)"
       style="fill:#ffffff;fill-opacity:1">
      <path
         id="path900"
         d="m -8.1219849,76.35813 -1.3032795,4.277257 a 27.497767,27.497767 0 0 0 -1.6908526,0.332279 l -2.838587,-3.449402 -5.927803,2.455148 0.432532,4.452959 a 27.497767,27.497767 0 0 0 -1.440222,0.949296 l -3.937228,-2.098064 -4.537192,4.537191 2.104266,3.949113 a 27.497767,27.497767 0 0 0 -0.974617,1.426268 l -4.43384,-0.430464 -2.455145,5.927805 3.454569,2.842724 a 27.497767,27.497767 0 0 0 -0.36277,1.69446 l -4.251936,1.29553 v 6.41667 l 4.277259,1.30328 a 27.497767,27.497767 0 0 0 0.33228,1.69085 l -3.449402,2.83858 2.455145,5.92781 4.453478,-0.43253 a 27.497767,27.497767 0 0 0 0.948777,1.44022 l -2.098064,3.93723 4.537192,4.53719 3.949113,-2.10427 a 27.497767,27.497767 0 0 0 1.42627,0.97462 l -0.430465,4.43384 5.927803,2.45515 2.842721,-3.45457 a 27.497767,27.497767 0 0 0 1.6944701,0.36276 l 1.295528,4.25194 h 6.4166627 l 1.30327958,-4.27726 a 27.497767,27.497767 0 0 0 1.69085282,-0.33228 l 2.8385863,3.44941 5.9278035,-2.45515 -0.4325316,-4.45348 a 27.497767,27.497767 0 0 0 1.4402216,-0.94878 l 3.937228,2.09807 4.537191,-4.53719 -2.104265,-3.94912 a 27.497767,27.497767 0 0 0 0.974618,-1.42627 l 4.433838,0.43047 2.455147,-5.92781 -3.45457,-2.84272 a 27.497767,27.497767 0 0 0 0.362769,-1.69446 l 4.251937,-1.29553 v -6.41667 l -4.277259,-1.30328 a 27.497767,27.497767 0 0 0 -0.332279,-1.69085 l 3.449402,-2.838584 -2.455147,-5.927805 -4.452959,0.432533 a 27.497767,27.497767 0 0 0 -0.949296,-1.440222 l 2.098064,-3.937228 -4.537191,-4.537191 -3.949113,2.104263 A 27.497767,27.497767 0 0 0 9.6247354,84.40725 L 10.0552,79.973412 4.1273965,77.518264 1.2846761,80.972834 A 27.497767,27.497767 0 0 0 -0.4097941,80.610066 L -1.7053222,76.35813 Z M 2.1631754,85.691926 A 22.887366,23.188044 0 0 1 16.972607,101.01657 c -0.222484,0.47698 -0.561188,0.98408 -1.213879,1.45728 -0.933609,0.67686 -2.608146,1.10846 -3.432865,1.10846 H 10.82983 A 16.300678,16.300678 0 0 0 -0.767395,91.97423 v -1.485181 c 0,-0.824719 0.43159973,-2.499256 1.10845945,-3.432865 0.59760032,-0.824286 1.24609165,-1.145583 1.82211095,-1.364258 z m -14.1329874,0.0078 c 0.57096,0.218705 1.210951,0.542028 1.80144,1.356506 0.6768628,0.933609 1.1084599,2.608146 1.1084599,3.432865 v 1.496034 A 16.300678,16.300678 0 0 0 -20.667989,103.58231 h -1.485181 c -0.824719,0 -2.499256,-0.4316 -3.432865,-1.10846 -0.661624,-0.47968 -1.00092,-0.99428 -1.22318,-1.47692 a 22.887366,23.188044 0 0 1 14.839403,-15.297252 z m 3.8431763,0.210323 a 1.0158109,1.0158109 0 0 1 1.0159587,1.015958 1.0158109,1.0158109 0 0 1 -1.0159587,1.015441 1.0158109,1.0158109 0 0 1 -1.0154417,-1.015441 1.0158109,1.0158109 0 0 1 1.0154417,-1.015958 z m 3.2127237,0 a 1.0158109,1.0158109 0 0 1 1.0159587,1.015958 1.0158109,1.0158109 0 0 1 -1.0159587,1.015441 1.0158109,1.0158109 0 0 1 -1.0154417,-1.015441 1.0158109,1.0158109 0 0 1 1.0154417,-1.015958 z m 3.2132406,0 a 1.0158109,1.0158109 0 0 1 1.0154419,1.01591 A 1.0158109,1.0158109 0 0 1 -1.7006714,87.9414 1.0158109,1.0158109 0 0 1 -2.71663,86.925959 1.0158109,1.0158109 0 0 1 -1.7006714,85.910001 Z M -4.913395,94.434545 A 13.293897,13.293897 0 0 1 8.3803669,107.72882 13.293897,13.293897 0 0 1 -4.913395,121.02258 13.293897,13.293897 0 0 1 -18.207674,107.72882 13.293897,13.293897 0 0 1 -4.913395,94.434545 Z m -20.802864,9.065595 a 1.0158109,1.0158109 0 0 1 1.015441,1.01544 1.0158109,1.0158109 0 0 1 -1.015441,1.01596 1.0158109,1.0158109 0 0 1 -1.01596,-1.01596 1.0158109,1.0158109 0 0 1 1.01596,-1.01544 z m 41.605211,0 a 1.0158109,1.0158109 0 0 1 1.015959,1.01544 1.0158109,1.0158109 0 0 1 -1.015959,1.01596 1.0158109,1.0158109 0 0 1 -1.015441,-1.01596 1.0158109,1.0158109 0 0 1 1.015441,-1.01544 z m -41.605211,3.21273 a 1.0158109,1.0158109 0 0 1 1.015441,1.01544 1.0158109,1.0158109 0 0 1 -1.015441,1.01595 1.0158109,1.0158109 0 0 1 -1.01596,-1.01595 1.0158109,1.0158109 0 0 1 1.01596,-1.01544 z m 41.605211,0 a 1.0158109,1.0158109 0 0 1 1.015959,1.01544 1.0158109,1.0158109 0 0 1 -1.015959,1.01595 1.0158109,1.0158109 0 0 1 -1.015441,-1.01595 1.0158109,1.0158109 0 0 1 1.015441,-1.01544 z m -41.605211,3.21272 a 1.0158109,1.0158109 0 0 1 1.015441,1.01596 1.0158109,1.0158109 0 0 1 -1.015441,1.01544 1.0158109,1.0158109 0 0 1 -1.01596,-1.01544 1.0158109,1.0158109 0 0 1 1.01596,-1.01596 z m 41.605211,0 a 1.0158109,1.0158109 0 0 1 1.015959,1.01596 1.0158109,1.0158109 0 0 1 -1.015959,1.01544 1.0158109,1.0158109 0 0 1 -1.015441,-1.01544 1.0158109,1.0158109 0 0 1 1.015441,-1.01596 z m -38.042122,1.94923 h 1.495516 a 16.300678,16.300678 0 0 0 11.5977419,11.6086 v 1.48466 c 2e-7,0.82472 -0.4315971,2.49927 -1.1084599,3.43287 -0.5976,0.82429 -1.246091,1.14557 -1.82211,1.36425 a 22.887366,23.188044 0 0 1 -14.809433,-15.32464 c 0.222485,-0.47697 0.56119,-0.98408 1.21388,-1.45728 0.933609,-0.67686 2.608146,-1.10846 3.432865,-1.10846 z m 32.994368,0 h 1.484665 c 0.824719,0 2.499256,0.4316 3.432865,1.10846 0.661624,0.47967 1.00092,0.99429 1.223181,1.47692 A 22.887366,23.188044 0 0 1 2.1425048,129.75694 c -0.5709166,-0.2187 -1.21101085,-0.54159 -1.80144035,-1.35599 -0.67685972,-0.9336 -1.10845945,-2.60815 -1.10845945,-3.43287 v -1.49551 a 16.300678,16.300678 0 0 0 11.608593,-11.59775 z m -18.9678337,15.64091 a 1.0158109,1.0158109 0 0 1 1.0159587,1.01544 1.0158109,1.0158109 0 0 1 -1.0159587,1.01596 1.0158109,1.0158109 0 0 1 -1.0154417,-1.01596 1.0158109,1.0158109 0 0 1 1.0154417,-1.01544 z m 3.2127237,0 a 1.0158109,1.0158109 0 0 1 1.0159587,1.01544 1.0158109,1.0158109 0 0 1 -1.0159587,1.01596 1.0158109,1.0158109 0 0 1 -1.0154417,-1.01596 1.0158109,1.0158109 0 0 1 1.0154417,-1.01544 z m 3.2132406,0 a 1.0158109,1.0158109 0 0 1 1.0154419,1.01544 1.0158109,1.0158109 0 0 1 -1.0154419,1.01596 1.0158109,1.0158109 0 0 1 -1.0159586,-1.01596 1.0158109,1.0158109 0 0 1 1.0159586,-1.01544 z"
         style="opacity:1;fill:#ffffff;fill-opacity:1;fill-rule:nonzero;stroke:none;stroke-width:11.46240902;stroke-linecap:butt;stroke-linejoin:miter;stroke-miterlimit:4;stroke-dasharray:none;stroke-dashoffset:0;stroke-opacity:1;paint-order:markers fill stroke"
         inkscape:connector-curvature="0" />
      <path
         inkscape:connector-curvature="0"
         id="circle961"
         d="M -4.913912,95.537322 A 12.191409,12.191409 0 0 0 -17.104899,107.72831 12.191409,12.191409 0 0 0 -4.913912,119.91981 12.191409,12.191409 0 0 0 7.2775918,107.72831 12.191409,12.191409 0 0 0 -4.913912,95.537322 Z m -0.8733316,3.070614 h 1.7471802 c 1.1077284,0 1.9993611,0.891632 1.9993611,1.999364 v 14.24254 c 0,1.10773 -0.8916327,1.99936 -1.9993611,1.99936 h -1.7471802 c -1.1077287,0 -1.999361,-0.89163 -1.9993613,-1.99936 V 100.6073 c 0,-1.107732 0.8916326,-1.999364 1.9993613,-1.999364 z m -5.1516234,1.268656 c 0.861651,0.193078 1.4955159,0.867188 1.4955159,1.676388 v 12.35066 c 0,0.8097 -0.6345789,1.4843 -1.4970659,1.6769 a 12.191409,10.572063 0 0 1 -4.047815,-7.85223 12.191409,10.572063 0 0 1 4.049365,-7.851718 z m 12.0504271,0 a 12.19141,10.572064 0 0 1 4.049365,7.851718 12.19141,10.572064 0 0 1 -4.0478148,7.85223 c -0.86248691,-0.1926 -1.49706619,-0.8672 -1.49706619,-1.6769 v -12.35066 c 0,-0.8092 0.63386499,-1.48331 1.49551599,-1.676388 z"
         style="opacity:1;fill:#ffffff;fill-opacity:1;fill-rule:nonzero;stroke:none;stroke-width:2.26822734;stroke-linecap:butt;stroke-linejoin:miter;stroke-miterlimit:4;stroke-dasharray:none;stroke-dashoffset:0;stroke-opacity:1;paint-order:markers fill stroke" />
      <g
         id="g1358"
         style="fill:#ffffff;fill-opacity:1">
        <g
           id="g1306"
           style="fill:#ffffff;fill-opacity:1">
          <circle
             style="opacity:1;fill:#ffffff;fill-opacity:1;fill-rule:nonzero;stroke:none;stroke-width:1.76437449;stroke-linecap:butt;stroke-linejoin:miter;stroke-miterlimit:4;stroke-dasharray:none;stroke-dashoffset:0;stroke-opacity:1;paint-order:markers fill stroke"
             id="circle1205"
             cx="15.88918"
             cy="110.94135"
             r="0.7986545" />
          <circle
             r="0.7986545"
             cy="107.72855"
             cx="15.88918"
             id="circle1207"
             style="opacity:1;fill:#ffffff;fill-opacity:1;fill-rule:nonzero;stroke:none;stroke-width:1.76437449;stroke-linecap:butt;stroke-linejoin:miter;stroke-miterlimit:4;stroke-dasharray:none;stroke-dashoffset:0;stroke-opacity:1;paint-order:markers fill stroke" />
          <circle
             r="0.7986545"
             cy="104.51578"
             cx="15.88918"
             id="circle1209"
             style="opacity:1;fill:#ffffff;fill-opacity:1;fill-rule:nonzero;stroke:none;stroke-width:1.76437449;stroke-linecap:butt;stroke-linejoin:miter;stroke-miterlimit:4;stroke-dasharray:none;stroke-dashoffset:0;stroke-opacity:1;paint-order:markers fill stroke" />
        </g>
        <g
           id="g1320"
           style="fill:#ffffff;fill-opacity:1">
          <circle
             transform="scale(-1,1)"
             r="0.7986545"
             cy="110.94135"
             cx="25.716488"
             id="circle1233"
             style="opacity:1;fill:#ffffff;fill-opacity:1;fill-rule:nonzero;stroke:none;stroke-width:1.76437449;stroke-linecap:butt;stroke-linejoin:miter;stroke-miterlimit:4;stroke-dasharray:none;stroke-dashoffset:0;stroke-opacity:1;paint-order:markers fill stroke" />
          <circle
             transform="scale(-1,1)"
             style="opacity:1;fill:#ffffff;fill-opacity:1;fill-rule:nonzero;stroke:none;stroke-width:1.76437449;stroke-linecap:butt;stroke-linejoin:miter;stroke-miterlimit:4;stroke-dasharray:none;stroke-dashoffset:0;stroke-opacity:1;paint-order:markers fill stroke"
             id="circle1235"
             cx="25.716488"
             cy="107.72855"
             r="0.7986545" />
          <circle
             transform="scale(-1,1)"
             style="opacity:1;fill:#ffffff;fill-opacity:1;fill-rule:nonzero;stroke:none;stroke-width:1.76437449;stroke-linecap:butt;stroke-linejoin:miter;stroke-miterlimit:4;stroke-dasharray:none;stroke-dashoffset:0;stroke-opacity:1;paint-order:markers fill stroke"
             id="circle1237"
             cx="25.716488"
             cy="104.51578"
             r="0.7986545" />
        </g>
        <g
           id="g1311"
           style="fill:#ffffff;fill-opacity:1">
          <circle
             transform="rotate(-90)"
             r="0.7986545"
             cy="-1.7008607"
             cx="-86.925728"
             id="circle1255"
             style="opacity:1;fill:#ffffff;fill-opacity:1;fill-rule:nonzero;stroke:none;stroke-width:1.76437449;stroke-linecap:butt;stroke-linejoin:miter;stroke-miterlimit:4;stroke-dasharray:none;stroke-dashoffset:0;stroke-opacity:1;paint-order:markers fill stroke" />
          <circle
             transform="rotate(-90)"
             style="opacity:1;fill:#ffffff;fill-opacity:1;fill-rule:nonzero;stroke:none;stroke-width:1.76437449;stroke-linecap:butt;stroke-linejoin:miter;stroke-miterlimit:4;stroke-dasharray:none;stroke-dashoffset:0;stroke-opacity:1;paint-order:markers fill stroke"
             id="circle1257"
             cx="-86.925728"
             cy="-4.91366"
             r="0.7986545" />
          <circle
             transform="rotate(-90)"
             style="opacity:1;fill:#ffffff;fill-opacity:1;fill-rule:nonzero;stroke:none;stroke-width:1.76437449;stroke-linecap:butt;stroke-linejoin:miter;stroke-miterlimit:4;stroke-dasharray:none;stroke-dashoffset:0;stroke-opacity:1;paint-order:markers fill stroke"
             id="circle1259"
             cx="-86.925728"
             cy="-8.1264362"
             r="0.7986545" />
        </g>
        <g
           id="g1329"
           style="fill:#ffffff;fill-opacity:1">
          <circle
             transform="matrix(0,1,1,0,0,0)"
             style="opacity:1;fill:#ffffff;fill-opacity:1;fill-rule:nonzero;stroke:none;stroke-width:1.76437449;stroke-linecap:butt;stroke-linejoin:miter;stroke-miterlimit:4;stroke-dasharray:none;stroke-dashoffset:0;stroke-opacity:1;paint-order:markers fill stroke"
             id="circle1265"
             cx="128.5314"
             cy="-1.7008672"
             r="0.7986545" />
          <circle
             transform="matrix(0,1,1,0,0,0)"
             r="0.7986545"
             cy="-4.9136662"
             cx="128.5314"
             id="circle1267"
             style="opacity:1;fill:#ffffff;fill-opacity:1;fill-rule:nonzero;stroke:none;stroke-width:1.76437449;stroke-linecap:butt;stroke-linejoin:miter;stroke-miterlimit:4;stroke-dasharray:none;stroke-dashoffset:0;stroke-opacity:1;paint-order:markers fill stroke" />
          <circle
             transform="matrix(0,1,1,0,0,0)"
             r="0.7986545"
             cy="-8.126442"
             cx="128.5314"
             id="circle1269"
             style="opacity:1;fill:#ffffff;fill-opacity:1;fill-rule:nonzero;stroke:none;stroke-width:1.76437449;stroke-linecap:butt;stroke-linejoin:miter;stroke-miterlimit:4;stroke-dasharray:none;stroke-dashoffset:0;stroke-opacity:1;paint-order:markers fill stroke" />
        </g>
      </g>
    </g>
  </g>
</svg>
