<?xml version="1.0" encoding="UTF-8" standalone="no"?>
<!-- Created with Inkscape (http://www.inkscape.org/) -->

<svg
   xmlns:dc="http://purl.org/dc/elements/1.1/"
   xmlns:cc="http://creativecommons.org/ns#"
   xmlns:rdf="http://www.w3.org/1999/02/22-rdf-syntax-ns#"
   xmlns:svg="http://www.w3.org/2000/svg"
   xmlns="http://www.w3.org/2000/svg"
   xmlns:sodipodi="http://sodipodi.sourceforge.net/DTD/sodipodi-0.dtd"
   xmlns:inkscape="http://www.inkscape.org/namespaces/inkscape"
   width="215"
   height="215"
   viewBox="0 0 56.885415 56.885418"
   version="1.1"
   id="svg8"
   sodipodi:docname="lion_rangers.svg"
   inkscape:version="0.92.3 (2405546, 2018-03-11)">
  <defs
     id="defs2" />
  <sodipodi:namedview
     id="base"
     pagecolor="#ffffff"
     bordercolor="#666666"
     borderopacity="1.0"
     inkscape:pageopacity="0.0"
     inkscape:pageshadow="2"
     inkscape:zoom="2"
     inkscape:cx="88.09098"
     inkscape:cy="-6.9002137"
     inkscape:document-units="px"
     inkscape:current-layer="layer1"
     showgrid="false"
     inkscape:window-width="1920"
     inkscape:window-height="1017"
     inkscape:window-x="-8"
     inkscape:window-y="-8"
     inkscape:window-maximized="1"
     units="px"
     showguides="false" />
  <metadata
     id="metadata5">
    <rdf:RDF>
      <cc:Work
         rdf:about="">
        <dc:format>image/svg+xml</dc:format>
        <dc:type
           rdf:resource="http://purl.org/dc/dcmitype/StillImage" />
        <dc:title></dc:title>
      </cc:Work>
    </rdf:RDF>
  </metadata>
  <g
     inkscape:label="Layer 1"
     inkscape:groupmode="layer"
     id="layer1"
     transform="translate(0,-240.11457)">
    <g
       style="fill:#ffffff;fill-opacity:0.99534881"
       transform="matrix(1.1842926,0,0,1.1842926,-107.16606,35.371758)"
       id="g899">
      <path
         inkscape:connector-curvature="0"
         id="path895"
         d="m 114.61623,181.03453 c 0.21933,2.0664 0.57726,3.3648 -0.58759,3.49426 -1.16485,0.12948 -1.22409,-1.3276 -2.49263,-1.3276 -1.26851,0 -2.93046,1.04265 -3.9328,2.17444 -1.00233,1.13179 -3.41299,3.9063 -3.77423,4.31419 -0.36126,0.4079 0.14748,1.37731 -0.42359,2.03071 -0.57102,0.6534 -2.18894,2.42258 -2.61318,2.90162 -0.848481,0.95807 -1.613954,2.60404 -3.212714,3.95946 -0.693098,0.7826 0.03698,4.73832 1.036149,4.73832 0.999191,0 0.485382,-0.9543 1.019855,-2.07957 -0.122323,1.23153 0.45069,4.99747 3.5972,4.99747 1.74386,0 1.77647,-1.46192 2.03646,-2.09443 0.25996,-0.63252 1.23695,-1.56191 1.6498,-1.83104 0.41285,-0.26914 2.19421,-1.86556 2.66857,-1.55631 0.47437,0.30925 -2.11817,2.14978 -3.33544,2.91862 -0.64925,0.42325 -0.69249,1.87431 -1.56292,2.44846 -0.87044,0.57414 -1.99242,0.49879 -2.66748,0.93888 -0.2801,0.1826 -0.22458,0.63615 -0.0359,1.23556 0.0404,-0.33024 0.68285,-0.52724 1.24686,-0.34341 0.60041,0.19572 -0.12448,0.67479 0.72009,0.87021 0.84463,0.19541 1.48776,-0.0675 1.71931,0.194 0.23155,0.26146 0.55803,2.19159 1.01877,2.81524 0,-0.39578 0.0492,-2.24242 0.63212,-2.24242 0.58294,0 0.2359,1.12572 0.71901,2.21976 1.08282,-2.57421 -0.0173,-3.22556 -0.0173,-5.26441 0,-2.40504 5.36174,-3.46504 8.70626,-3.28043 0,0 -2.26408,-1.37277 -3.57982,-1.77722 1.65786,-0.65878 3.61727,-0.55385 4.92225,-0.0325 -0.7592,-0.93738 -2.15159,-2.54713 -2.15159,-3.35549 0,-1.81178 1.96261,-2.40621 1.96261,-3.54454 0,-0.6528 -0.35407,-1.38733 -0.35407,-2.15957 0,-1.50467 3.66453,-1.95984 3.66453,-5.64676 0,-2.55359 -4.54257,-4.98201 -6.57857,-5.71544 z m 0.94708,1.63278 c 0.1858,0.50177 0.27824,1.23389 0.27805,1.51807 -5e-5,0.0835 0.0465,0.41657 0.2031,0.62805 0.21364,-0.0936 0.53698,-0.32249 0.83956,-0.37881 -0.15619,0.32779 -0.32996,0.51612 -0.50938,0.70735 0.15354,0.19584 0.43223,0.57888 0.55392,0.75621 0.26052,-0.1527 0.60548,-0.40972 1.03289,-0.48927 -0.24021,0.52526 -0.44893,0.66442 -0.73965,0.94525 -0.012,0.27847 -0.14463,0.54575 -0.0597,0.7994 0.10698,0.31962 0.69511,0.92897 0.69511,0.92897 0,0 -1.09822,-0.45822 -1.14693,-0.88365 -0.0131,-0.11404 -0.0419,-0.41136 -0.0717,-0.57424 -0.21654,0.0834 -0.46222,0.27741 -0.72769,0.37032 0.17794,-0.33537 0.32785,-0.49065 0.56152,-0.73638 -0.0619,-0.19925 -0.22747,-0.64019 -0.44965,-0.83622 -0.33789,0.20439 -0.63483,0.40427 -1.18929,0.59831 0.2269,-0.42763 0.37372,-0.63365 0.72226,-0.91198 -0.49956,-0.64091 0.19012,-1.69577 0.008,-2.44138 z m -6.42325,5.42726 c 0.012,0.67242 0.19252,0.76954 0.88518,0.86524 -1.64109,1.06986 -2.11249,1.75386 -2.11249,1.75386 0.71292,0.69181 1.33346,1.05083 2.30907,1.38638 l -0.68859,1.69792 c 0,0 -1.27045,-1.79908 -2.69138,-1.93016 0.47103,-0.24603 0.58432,-0.93889 0.58432,-0.93889 -0.76334,0.40359 -1.59324,0.9017 -1.96803,1.49613 0,0 0.71285,-0.11788 1.02746,-0.34129 -0.20114,0.72577 0.30737,5.81245 0.30737,5.81245 l -0.72444,0.49989 -0.63863,-5.23892 c -0.66602,0.33521 -1.32363,0.77281 -2.33514,1.37788 0.41517,-1.14281 1.36196,-2.46209 2.45787,-3.23653 1.51795,-1.13246 3.15661,-2.28881 3.58743,-3.20396 z"
         style="fill:#ffffff;fill-opacity:0.99534881;stroke:none;stroke-width:0.44899467px;stroke-linecap:butt;stroke-linejoin:miter;stroke-opacity:1" />
      <path
         style="fill:#ffffff;fill-opacity:0.99534881;stroke:none;stroke-width:1.69698787px;stroke-linecap:butt;stroke-linejoin:miter;stroke-opacity:1"
         d="m 443.09375,653.41211 c -14.42324,0 -32.69139,3.5335 -39.82813,9.82422 -7.13661,6.29068 -4.82991,22.24894 1.98829,29.50586 -6.71229,-3.20323 -8.54162,-8.34834 -9.79102,-12.93555 -9.31207,5.64884 -12.46983,22.46491 -13.98633,26.01563 3.71482,-1.9688 9.72373,-6.4668 11.65235,-6.4668 1.92865,0 3.73617,1.6177 5.83203,4.5293 4.96547,-4.59043 18.62939,-13.84375 23.93554,-13.84375 2.64628,0 5.50749,1.90048 7.59961,3.72656 2.80642,-3.54218 0.0287,-9.07918 -0.91211,-13.73242 12.17439,2.86182 31.42383,17.30151 31.42383,25.29687 0,7.99537 -6.56915,16.53178 -12.30859,20.27344 -2.52129,1.6436 0.16797,8.621 0.16797,10.41015 0,1.78923 -7.3856,5.85737 -6.98047,12.28907 0.40505,6.43173 5.57968,9.406 6.92383,14.32226 -5.91825,-0.37719 -9.83547,-1.00686 -13.48438,-0.0254 5.49683,2.28983 8.97693,5.311 10.42188,7.97852 -3.67805,-0.0253 -6.34998,-0.1582 -9.20117,-0.1582 -5.96538,0 -10.57072,1.43707 -14.57422,2.97851 4.68929,2.72852 6.34598,5.14873 6.42968,9.93359 0.23368,13.35934 -30.51233,11.10393 -13.16992,34.88282 0.67839,-1.51427 1.48266,-2.60008 3.67774,-3.6836 1.99812,6.9241 3.86154,17.52212 34.67773,20.25782 -3.94076,-1.37881 -9.17367,-2.46601 -11.55859,-4.60352 8.27694,0.78928 12.46117,4.76758 26.92773,4.76758 5.00863,0 7.42838,-0.98506 11.42969,-2.20313 -20.56694,1.0887 -43.3418,-7.69462 -43.3418,-21.16406 0,-7.60959 20.31378,-20.86298 22.84961,-22.04687 0.93184,1.77584 -0.59057,3.76455 -4.72851,6.18164 22.40471,-4.99 24.64303,-35.0266 26.65234,-54.83594 2.8975,7.1596 2.14885,14.86687 0.69336,21.78125 9.51084,-7.91301 14.51367,-20.60743 14.51367,-34.32031 -0.13655,-9.0641 -6.24996,-16.36177 -9.66016,-24.94727 4.59761,1.9897 7.20698,3.00125 9.66016,5.57031 0,-10.74002 6.1546,-21.6258 -16.56641,-32.15625 5.10346,-0.72737 7.19751,0.18592 10.99219,1.15235 -4.71734,-15.32357 -20.77681,-23.74402 -48.35742,-24.55469 z"
         id="path897"
         inkscape:connector-curvature="0"
         sodipodi:nodetypes="cccccscsccscsccccsccccccscsccccccccccc"
         transform="scale(0.26458333)" />
    </g>
  </g>
</svg>
