<?xml version="1.0" encoding="UTF-8" standalone="no"?>
<!-- Created with Inkscape (http://www.inkscape.org/) -->

<svg
   xmlns:dc="http://purl.org/dc/elements/1.1/"
   xmlns:cc="http://creativecommons.org/ns#"
   xmlns:rdf="http://www.w3.org/1999/02/22-rdf-syntax-ns#"
   xmlns:svg="http://www.w3.org/2000/svg"
   xmlns="http://www.w3.org/2000/svg"
   xmlns:sodipodi="http://sodipodi.sourceforge.net/DTD/sodipodi-0.dtd"
   xmlns:inkscape="http://www.inkscape.org/namespaces/inkscape"
   width="215"
   height="215"
   viewBox="0 0 56.885415 56.885418"
   version="1.1"
   id="svg8"
   inkscape:version="0.92.3 (2405546, 2018-03-11)"
   sodipodi:docname="scourge_privateers.svg">
  <defs
     id="defs2">
    <clipPath
       clipPathUnits="userSpaceOnUse"
       id="clipPath1925">
      <path
         d="m 211.976,297.275 h 6.068 v 7.712 h -6.068 z"
         id="path1923"
         inkscape:connector-curvature="0" />
    </clipPath>
  </defs>
  <sodipodi:namedview
     id="base"
     pagecolor="#ffffff"
     bordercolor="#666666"
     borderopacity="1.0"
     inkscape:pageopacity="0.0"
     inkscape:pageshadow="2"
     inkscape:zoom="1.4142136"
     inkscape:cx="-26.437415"
     inkscape:cy="69.648113"
     inkscape:document-units="px"
     inkscape:current-layer="layer1"
     showgrid="false"
     units="px"
     inkscape:window-width="1920"
     inkscape:window-height="1017"
     inkscape:window-x="-8"
     inkscape:window-y="-8"
     inkscape:window-maximized="1"
     inkscape:snap-global="false" />
  <metadata
     id="metadata5">
    <rdf:RDF>
      <cc:Work
         rdf:about="">
        <dc:format>image/svg+xml</dc:format>
        <dc:type
           rdf:resource="http://purl.org/dc/dcmitype/StillImage" />
        <dc:title></dc:title>
      </cc:Work>
    </rdf:RDF>
  </metadata>
  <g
     inkscape:label="Layer 1"
     inkscape:groupmode="layer"
     id="layer1"
     transform="translate(0,-240.11457)">
    <g
       id="g952"
       transform="matrix(0.84745362,0,0,0.84745362,82.82045,33.924367)"
       style="fill:#ffffff;fill-opacity:1">
      <path
         id="path837"
         transform="matrix(0.26458333,0,0,0.26458333,0,240.11457)"
         d="m -242.53711,12.060547 c -2.17574,18.783798 -4.14906,31.727219 -7.10937,46.669922 -2.06116,1.199152 -4.05949,2.92239 -5.95899,5.138672 -11.13726,-4.145151 -19.55209,-13.287926 -22.73633,-24.53711 -0.20508,-0.730396 -0.39046,-1.469503 -0.55078,-2.216797 -0.007,-0.03422 -0.0181,-0.06731 -0.0254,-0.101562 -0.014,0.295423 -0.0261,0.59101 -0.0351,0.886719 0.009,15.158951 6.11423,29.307279 16.26562,37.695312 -1.62017,3.679526 -3.04982,7.788222 -4.25977,12.242188 -14.84254,-3.562651 -25.48892,-10.166855 -28.92578,-17.94336 -0.0203,0.209531 -0.0373,0.419177 -0.0508,0.628907 0.0134,5.726612 2.56143,11.234436 7.16602,16.027343 4.5873,4.790652 11.22794,8.868291 19.44726,11.740235 -1.46115,8.192174 -2.21526,16.974534 -2.21875,25.845704 0.003,0.2266 0.006,0.45317 0.01,0.67969 -18.01906,-3.23774 -30.96413,-9.30292 -35.125,-16.45703 -0.0249,0.19125 -0.0458,0.38272 -0.0625,0.57421 0.011,11.12976 13.78955,21.2988 35.57812,26.25782 0.0168,0.20925 0.0698,0.41687 0.11329,0.625 0.0808,1.07453 0.17359,2.1386 0.27539,3.19336 -0.01,0.0268 -0.0127,0.0533 -0.0234,0.0801 -1.83577,4.58597 -6.18716,13.88086 -14.92188,13.88086 -3.57474,0 -4.95703,-1.80766 -4.95703,-4.16601 0,-2.35839 4.93944,-4.91731 4.93946,-8.55469 0,-3.63738 -2.98371,-9 -8.75,-9 -15.66585,0 -22.43106,11.25478 -26.5,17 -4.06901,5.74522 -12.66797,13.52459 -12.66797,22.55664 0,9.03205 2.02336,15.57715 13.66797,22.19336 -5.97116,-6.40792 -6.60352,-15.65684 -6.60352,-23.9043 0,-8.24749 22.97951,-40.12301 33.10352,-30.0957 2.92777,2.92785 -7,9.06212 -7,13.5 -10e-6,4.43788 7.63879,7.75 13.68945,7.75 6.05065,0 11.32973,-9.34004 16.72461,-0.15234 4.9475,8.48107 -42.97461,32.79989 -42.97461,49.43945 0,9.92205 6.60864,16.64062 15.24414,16.64062 4.85811,0 15.35433,-5.77783 15.93359,-15.6289 0,-5.53837 -3.11718,-12.79883 -3.11718,-12.79883 -0.98303,7.7116 -0.92668,17.91194 -9.5,21 -5.72702,0.4687 -9.63927,-3.42979 -9.23243,-9.32227 0,-5.90464 32.43188,-39.41968 38.4961,-33.35546 4.38483,4.38485 -26.40821,53.92903 -26.40821,71.12304 0,7.11776 8.86933,18.56641 17.5293,18.56641 8.65998,0 13.88146,-4.59339 14.57227,-11.28516 0,-4.82143 -3.18465,-10.90203 -5.45703,-15.72656 1.30156,4.94978 2.7639,17 -5.75,17 -4.97844,0 -11.5,-5.47025 -11.5,-12.75 0,-10.68024 19.75936,-46.51566 27.42968,-58.35547 5.10597,-7.8815 6.28488,-13.81527 12.23633,-13.83594 0.007,-2e-5 0.0129,-0.002 0.0195,-0.002 0.007,0 0.0123,0.002 0.0195,0.002 5.95146,0.0207 7.13036,5.95445 12.23633,13.83594 7.67032,11.83982 27.42969,47.67521 27.42969,58.35547 0,7.27975 -6.52156,12.75 -11.5,12.75 -8.51393,0 -7.05159,-12.05022 -5.75,-17 -2.27241,4.82453 -5.45703,10.90513 -5.45703,15.72656 0.6908,6.69177 5.91228,11.28516 14.57226,11.28516 8.65997,0 17.5293,-11.44865 17.5293,-18.56641 0,-17.19401 -30.79303,-66.73823 -26.4082,-71.12304 6.06421,-6.06426 38.49609,27.45082 38.49609,33.35546 0.40684,5.89251 -3.5054,9.79097 -9.23242,9.32227 -8.57335,-3.08806 -8.51697,-13.2884 -9.5,-21 0,0 -3.11719,7.26046 -3.11719,12.79883 0.57926,9.85107 11.07548,15.6289 15.9336,15.6289 8.63547,0 15.24414,-6.71857 15.24414,-16.64062 0,-16.63956 -47.92211,-40.95838 -42.97461,-49.43945 5.39488,-9.18773 10.67396,0.15234 16.72461,0.15234 6.05065,0 13.68946,-3.31215 13.68945,-7.75 0,-4.43788 -9.9278,-10.57215 -7,-13.5 10.12401,-10.02731 33.10351,21.84821 33.10351,30.0957 0,8.24746 -0.63235,17.49638 -6.60351,23.9043 11.64461,-6.61621 13.66797,-13.16131 13.66797,-22.19336 0,-9.03205 -8.59896,-16.81142 -12.66797,-22.55664 -4.06897,-5.74522 -10.83415,-17 -26.5,-17 -5.76632,0 -8.75,5.36262 -8.75,9 2e-5,3.63738 4.93945,6.1963 4.93945,8.55469 0,2.35835 -1.38229,4.16601 -4.95703,4.16601 -8.73472,0 -13.0861,-9.29489 -14.92187,-13.88086 -0.0106,-0.0268 -0.0136,-0.0536 -0.0234,-0.0801 0.10178,-1.05476 0.19458,-2.11884 0.27539,-3.19336 0.0435,-0.20814 0.0967,-0.41562 0.11328,-0.625 21.78857,-4.95901 35.56716,-15.12805 35.57813,-26.25782 -0.0167,-0.19147 -0.0376,-0.38299 -0.0625,-0.57421 -4.16087,7.15409 -17.10596,13.21929 -35.125,16.45703 0.004,-0.22651 0.007,-0.45292 0.01,-0.67969 -0.003,-8.87119 -0.7576,-17.6535 -2.21875,-25.845704 8.21932,-2.871912 14.85997,-6.94957 19.44727,-11.740235 4.60459,-4.792894 7.15278,-10.300757 7.16601,-16.027343 -0.0134,-0.209726 -0.0304,-0.419521 -0.0508,-0.628907 -3.43686,7.776492 -14.08324,14.380701 -28.92578,17.94336 -1.20995,-4.453947 -2.6396,-8.562667 -4.25977,-12.242188 10.15139,-8.388019 16.25656,-22.536347 16.26563,-37.695312 -0.009,-0.295711 -0.0212,-0.59116 -0.0352,-0.886719 -0.007,0.03439 -0.0182,0.06755 -0.0254,0.101562 -0.16032,0.747289 -0.3457,1.486404 -0.55078,2.216797 -3.18424,11.249197 -11.59907,20.391951 -22.73633,24.53711 -1.8995,-2.216278 -3.89782,-3.939504 -5.95898,-5.138672 -2.96031,-14.942703 -4.93364,-27.886124 -7.10938,-46.669922 l -0.0195,0.169922 z m 0.0195,53.867187 c 2.40275,0.0092 4.3482,1.958255 4.34766,4.363282 -2.7e-4,1.205178 -0.48935,2.296356 -1.2793,3.085937 -0.18938,0.185348 -0.39282,0.357326 -0.61328,0.505859 -0.69594,0.468926 -1.53325,0.742415 -2.43555,0.742188 -0.007,0 -0.0123,-0.0019 -0.0195,-0.002 -0.007,2.9e-5 -0.0128,0.002 -0.0195,0.002 -0.9023,1.97e-4 -1.73961,-0.273258 -2.43555,-0.742188 -0.22047,-0.148554 -0.4239,-0.320596 -0.61328,-0.505859 -0.78995,-0.789595 -1.27902,-1.880778 -1.27929,-3.085937 -5.4e-4,-2.40504 1.9449,-4.354056 4.34765,-4.363282 z m 0,19.5 c 2.40275,0.0092 4.3482,1.958255 4.34766,4.363282 -2.7e-4,1.20514 -0.48935,2.296318 -1.2793,3.085937 -0.18938,0.185348 -0.39282,0.357326 -0.61328,0.505859 -0.69594,0.468926 -1.53325,0.742377 -2.43555,0.742188 -0.007,0 -0.0123,-0.0019 -0.0195,-0.002 -0.007,2.9e-5 -0.0128,0.002 -0.0195,0.002 -0.9023,1.97e-4 -1.73961,-0.273258 -2.43555,-0.742188 -0.22047,-0.148554 -0.4239,-0.320596 -0.61328,-0.505859 -0.78995,-0.789605 -1.27902,-1.880778 -1.27929,-3.085937 -5.4e-4,-2.405003 1.9449,-4.354056 4.34765,-4.363282 z m 0,19.499996 c 2.40199,0.009 4.34713,1.95706 4.34766,4.36133 3.3e-4,1.48985 -0.74756,2.80215 -1.88672,3.58985 -0.001,10e-4 -0.003,10e-4 -0.004,0.002 -0.69605,0.46938 -1.53491,0.74433 -2.4375,0.74414 -0.007,0 -0.0123,-0.002 -0.0195,-0.002 -0.007,3e-5 -0.0128,0.002 -0.0195,0.002 -0.90259,2e-4 -1.74145,-0.27496 -2.4375,-0.74414 -0.001,-8.1e-4 -0.003,-9e-4 -0.004,-0.002 -1.13916,-0.7877 -1.88704,-2.09998 -1.88671,-3.58985 5.3e-4,-2.40425 1.94566,-4.35211 4.34765,-4.36133 z m 0,19.5 c 2.40199,0.009 4.34713,1.95706 4.34766,4.36133 3.3e-4,1.48989 -0.74756,2.80215 -1.88672,3.58985 -0.001,0.001 -0.003,0.001 -0.004,0.002 -0.69605,0.46934 -1.53491,0.74437 -2.4375,0.74414 -0.007,0 -0.0123,-0.002 -0.0195,-0.002 -0.007,3e-5 -0.0128,0.002 -0.0195,0.002 -0.90259,2e-4 -1.74145,-0.27496 -2.4375,-0.74414 -0.001,-8.1e-4 -0.003,-9e-4 -0.004,-0.002 -1.13916,-0.7877 -1.88704,-2.09998 -1.88671,-3.58985 5.3e-4,-2.40429 1.94566,-4.35211 4.34765,-4.36133 z m -21.98437,6.82227 c 6.1758,5.66929 12.10578,10.37045 20.125,12.75 -1.77346,4.89184 -3.47524,7.99997 -8.375,9.75 l -2.875,7 -0.10743,-9.73047 c -0.38629,-0.42259 -0.75325,-0.85456 -1.0996,-1.29687 l -7.82422,4.93359 6.24023,-7.21094 c -2.93881,-4.79985 -4.26625,-10.4533 -6.08398,-16.19531 z m 43.96875,0 c -1.81773,5.74201 -3.14518,11.39546 -6.08399,16.19531 l 6.24024,7.21094 -7.82422,-4.93359 c -0.34636,0.44231 -0.7133,0.87428 -1.09961,1.29687 l -0.10742,9.73047 -2.875,-7 c -4.89976,-1.75003 -6.60154,-4.85816 -8.375,-9.75 8.01922,-2.37955 13.9492,-7.08071 20.125,-12.75 z"
         style="opacity:1;fill:#ffffff;fill-opacity:1;fill-rule:nonzero;stroke:none;stroke-width:14.58090115;stroke-linecap:butt;stroke-linejoin:miter;stroke-miterlimit:4;stroke-dasharray:none;stroke-dashoffset:0;stroke-opacity:1;paint-order:markers fill stroke"
         inkscape:connector-curvature="0" />
      <g
         id="g898"
         style="fill:#ffffff;fill-opacity:1">
        <path
           style="opacity:1;fill:#ffffff;fill-opacity:1;fill-rule:nonzero;stroke:none;stroke-width:4.47919178;stroke-linecap:butt;stroke-linejoin:miter;stroke-miterlimit:4;stroke-dasharray:none;stroke-dashoffset:0;stroke-opacity:1;paint-order:markers fill stroke"
           d="m -65.360014,249.82974 c -1.94623,3.82675 -3.137292,4.10996 -6.503996,3.55689 1.139418,1.65447 2.203784,2.42538 4.096391,3.13262 0.503197,-0.58743 0.834186,-0.84563 1.380278,-1.16323 0.395361,-1.99655 0.725069,-3.5339 1.027327,-5.52628 z m -8.023283,4.95163 c 0.256574,4.06046 1.364361,4.71732 -3.021521,5.51698 1.505953,1.13528 2.968998,2.1081 5.538679,2.72748 0.321048,-1.18161 0.535173,-1.90754 0.965316,-2.88303 -1.681969,-1.39197 -2.771187,-3.00946 -3.482474,-5.36143 z m -3.832842,7.81503 c 1.875237,4.24685 2.401681,6.08264 -0.848011,8.22172 1.663687,0.86141 3.264543,1.42548 5.856492,1.89342 0.05147,-2.4166 0.05583,-4.24927 0.419552,-6.33139 -2.253562,-0.9453 -4.035552,-1.90779 -5.428033,-3.78375 z"
           id="ellipse861"
           inkscape:connector-curvature="0"
           sodipodi:nodetypes="ccccccccccccccc" />
        <path
           sodipodi:nodetypes="ccccccccccccccc"
           inkscape:connector-curvature="0"
           id="path888"
           d="m -62.982821,249.82974 c 1.94623,3.82675 3.137292,4.10996 6.503996,3.55689 -1.139418,1.65447 -2.203784,2.42538 -4.096391,3.13262 -0.503197,-0.58743 -0.834186,-0.84563 -1.380278,-1.16323 -0.395362,-1.99655 -0.725069,-3.5339 -1.027327,-5.52628 z m 8.023283,4.95163 c -0.256574,4.06046 -1.364361,4.71732 3.021521,5.51698 -1.505953,1.13528 -2.968998,2.1081 -5.538679,2.72748 -0.321048,-1.18161 -0.535173,-1.90754 -0.965317,-2.88303 1.68197,-1.39197 2.771188,-3.00946 3.482475,-5.36143 z m 3.832842,7.81503 c -1.875237,4.24685 -2.401681,6.08264 0.848011,8.22172 -1.663687,0.86141 -3.264543,1.42548 -5.856492,1.89342 -0.05147,-2.4166 -0.05583,-4.24927 -0.419552,-6.33139 2.253562,-0.9453 4.035552,-1.90779 5.428033,-3.78375 z"
           style="opacity:1;fill:#ffffff;fill-opacity:1;fill-rule:nonzero;stroke:none;stroke-width:4.47919178;stroke-linecap:butt;stroke-linejoin:miter;stroke-miterlimit:4;stroke-dasharray:none;stroke-dashoffset:0;stroke-opacity:1;paint-order:markers fill stroke" />
      </g>
      <g
         id="g1035"
         style="fill:#ffffff;fill-opacity:1">
        <circle
           r="0.89463073"
           cy="274.1825"
           cx="-64.17128"
           id="circle911"
           style="opacity:1;fill:#ffffff;fill-opacity:1;fill-rule:nonzero;stroke:none;stroke-width:1.70047712;stroke-linecap:butt;stroke-linejoin:miter;stroke-miterlimit:4;stroke-dasharray:none;stroke-dashoffset:0;stroke-opacity:1;paint-order:markers fill stroke" />
        <circle
           style="opacity:1;fill:#ffffff;fill-opacity:1;fill-rule:nonzero;stroke:none;stroke-width:1.70047712;stroke-linecap:butt;stroke-linejoin:miter;stroke-miterlimit:4;stroke-dasharray:none;stroke-dashoffset:0;stroke-opacity:1;paint-order:markers fill stroke"
           id="circle929"
           cx="-64.17128"
           cy="269.02313"
           r="0.89463073" />
        <circle
           r="0.89463073"
           cy="263.86377"
           cx="-64.17128"
           id="circle993"
           style="opacity:1;fill:#ffffff;fill-opacity:1;fill-rule:nonzero;stroke:none;stroke-width:1.70047712;stroke-linecap:butt;stroke-linejoin:miter;stroke-miterlimit:4;stroke-dasharray:none;stroke-dashoffset:0;stroke-opacity:1;paint-order:markers fill stroke" />
        <circle
           style="opacity:1;fill:#ffffff;fill-opacity:1;fill-rule:nonzero;stroke:none;stroke-width:1.70047712;stroke-linecap:butt;stroke-linejoin:miter;stroke-miterlimit:4;stroke-dasharray:none;stroke-dashoffset:0;stroke-opacity:1;paint-order:markers fill stroke"
           id="circle1011"
           cx="-64.17128"
           cy="258.70441"
           r="0.89463073" />
      </g>
      <g
         transform="translate(-0.11769008)"
         id="g938"
         style="fill:#ffffff;fill-opacity:1">
        <path
           sodipodi:nodetypes="cccc"
           inkscape:connector-curvature="0"
           id="path884"
           d="m -65.434241,278.58013 c -1.183413,-0.35117 -2.058514,-1.04492 -2.969891,-1.88156 0.398587,1.2591 0.635465,2.49058 1.733973,3.32039 0.723068,-0.25826 0.974203,-0.71694 1.235918,-1.43883 z"
           style="fill:#ffffff;fill-opacity:1;stroke:none;stroke-width:0.1475722px;stroke-linecap:butt;stroke-linejoin:miter;stroke-opacity:1" />
        <path
           style="fill:#ffffff;fill-opacity:1;stroke:none;stroke-width:0.1475722px;stroke-linecap:butt;stroke-linejoin:miter;stroke-opacity:1"
           d="m -62.662594,278.58013 c 1.183413,-0.35117 2.058514,-1.04492 2.969891,-1.88156 -0.398587,1.2591 -0.635465,2.49058 -1.733973,3.32039 -0.723068,-0.25826 -0.974203,-0.71694 -1.235918,-1.43883 z"
           id="path934"
           inkscape:connector-curvature="0"
           sodipodi:nodetypes="cccc" />
      </g>
    </g>
  </g>
</svg>
