<?xml version="1.0" encoding="UTF-8" standalone="no"?>
<!-- Created with Inkscape (http://www.inkscape.org/) -->

<svg
   xmlns:dc="http://purl.org/dc/elements/1.1/"
   xmlns:cc="http://creativecommons.org/ns#"
   xmlns:rdf="http://www.w3.org/1999/02/22-rdf-syntax-ns#"
   xmlns:svg="http://www.w3.org/2000/svg"
   xmlns="http://www.w3.org/2000/svg"
   xmlns:sodipodi="http://sodipodi.sourceforge.net/DTD/sodipodi-0.dtd"
   xmlns:inkscape="http://www.inkscape.org/namespaces/inkscape"
   width="215"
   height="215"
   viewBox="0 0 56.885415 56.885418"
   version="1.1"
   id="svg8"
   inkscape:version="0.92.3 (2405546, 2018-03-11)"
   sodipodi:docname="sons_of_behemat.svg">
  <defs
     id="defs2" />
  <sodipodi:namedview
     id="base"
     pagecolor="#ffffff"
     bordercolor="#666666"
     borderopacity="1.0"
     inkscape:pageopacity="0.0"
     inkscape:pageshadow="2"
     inkscape:zoom="0.7"
     inkscape:cx="176.33078"
     inkscape:cy="-1.2125558"
     inkscape:document-units="px"
     inkscape:current-layer="layer1"
     showgrid="false"
     units="px"
     inkscape:window-width="1920"
     inkscape:window-height="1017"
     inkscape:window-x="-8"
     inkscape:window-y="-8"
     inkscape:window-maximized="1" />
  <metadata
     id="metadata5">
    <rdf:RDF>
      <cc:Work
         rdf:about="">
        <dc:format>image/svg+xml</dc:format>
        <dc:type
           rdf:resource="http://purl.org/dc/dcmitype/StillImage" />
        <dc:title />
      </cc:Work>
    </rdf:RDF>
  </metadata>
  <g
     inkscape:label="Layer 1"
     inkscape:groupmode="layer"
     id="layer1"
     transform="translate(0,-240.11457)">
    <path
       style="fill:#000000;fill-opacity:1;stroke:none;stroke-width:0.25239822px;stroke-linecap:butt;stroke-linejoin:miter;stroke-opacity:1"
       d="m 42.824638,271.12148 c -0.26602,-1.10961 -3.20026,-5.66911 -3.50571,-9.36981 -0.30544,-3.7007 2.66596,-8.85777 2.35839,-12.04689 -0.30758,-3.18913 -0.50326,-4.48531 -2.61335,-6.43777 -2.11009,-1.95245 -6.946109,-3.37646 -9.815989,-3.12325 -2.86988,0.2532 -4.655839,1.49496 -6.182801,3.25074 -1.526962,1.75578 -2.11446,3.58724 -2.358384,6.56523 -0.243924,2.97799 2.258286,8.06584 1.975947,10.7721 -0.282339,2.70626 -1.462447,3.86382 -2.039689,4.97172 -0.577243,1.10789 -0.667934,1.22444 -1.147321,1.78473 -0.479386,0.56029 -1.153626,0.71921 -1.720985,1.52976 -0.567359,0.81056 -0.532216,1.94485 -1.338539,3.37822 -0.806323,1.43337 -2.874554,3.6479 -3.760675,4.97174 -0.88612,1.32384 -0.0038,5.93025 0.509923,6.82021 0.513814,0.88995 1.814395,1.61008 1.466024,2.2309 -0.673677,1.16683 -0.498294,4.62533 0.254961,5.92785 0.753255,1.30251 2.613345,1.65724 2.613345,1.65724 l 0.382446,1.91219 h 0.764884 l 0.669269,0.57368 0.22309,0.41432 0.44618,-0.28686 h 1.5935 l 0.09561,-0.12746 0.22309,0.25495 0.159356,0.25497 0.254952,-0.31889 h 1.529767 l -0.44618,-1.24275 0.03186,-0.73301 -0.159347,-0.73301 c 0,0 0.74528,-0.7456 0.987973,-1.14733 0.242693,-0.40174 0.333118,0.0334 0.478061,-1.21107 0.144942,-1.24447 -1.215061,-4.60444 -0.892369,-6.15091 0.322691,-1.54647 0.576803,-2.66572 1.720985,-2.7727 1.144182,-0.10697 2.133195,1.30701 2.453998,2.67709 0.320802,1.37008 -1.395976,3.56826 -1.338549,4.62116 0.05743,1.0529 0.342915,1.16575 0.577529,1.40134 0.234613,0.23559 0.442316,0.18443 0.442316,0.18443 l 0.15162,0.95449 -0.08404,0.45553 -0.101738,0.54177 0.735273,0.0637 0.286833,-0.35058 0.254961,-0.25499 0.22309,-0.0319 0.382446,0.19126 0.22309,0.28683 0.892359,-0.19122 0.09561,-0.47804 v -0.50993 l 0.191219,-0.6374 c 0,0 1.11645,-0.40851 1.402281,-0.82862 0.285831,-0.42011 0.262393,-0.79039 0.22309,-1.40227 -0.0393,-0.61188 -0.482172,-1.2453 -0.637398,-2.16718 -0.155226,-0.92187 -0.544131,-2.52876 -0.159357,-3.34636 0.384774,-0.81761 0.844777,-1.30395 1.657253,-1.24294 0.812475,0.0611 1.80911,1.23343 1.97595,2.00783 0.16683,0.77439 -0.47924,1.24218 -0.66928,1.81658 -0.19005,0.5744 -0.616872,1.11348 -0.478054,1.62537 0.138818,0.51189 1.083584,1.01985 1.083584,1.01985 l -0.0637,2.39025 1.17919,-0.92423 1.1792,-0.66926 0.0956,-0.89238 c 0,0 0.83735,-0.44427 1.11545,-0.63738 0.27811,-0.19311 0.40085,-0.20079 0.57366,-0.47807 0.17281,-0.27727 0.35131,-0.67922 0.28683,-1.17917 -0.0645,-0.49995 -0.62146,-0.69599 -0.86049,-1.59352 -0.23902,-0.89753 -0.0109,-3.00297 -0.0956,-3.76066 -0.0848,-0.75768 -0.26352,-0.49808 -0.15935,-0.79677 0.10417,-0.29869 0.39329,-0.63474 0.82862,-0.70114 0.43534,-0.0664 1.18835,0.24685 1.43416,0.60554 0.2458,0.35868 0.15241,0.73711 0.0319,1.05171 -0.12055,0.3146 -0.32911,0.3701 -0.39885,0.65606 -0.0697,0.28596 0.0281,0.5192 0.2569,0.74236 0.22881,0.22316 0.77935,0.35444 0.77935,0.35444 l 0.47806,1.40227 1.37041,-0.22307 v -0.98798 c 0,0 0.33865,-0.16754 0.44618,-0.31871 0.10752,-0.15116 0.0489,-0.36242 0.15934,-0.54177 0.11042,-0.17935 0.39366,-0.19883 0.50992,-0.47807 0.11627,-0.27924 0.088,-0.80491 -0.0319,-1.11545 -0.11993,-0.31054 -0.1397,0.31736 -0.57365,-0.66928 -0.43395,-0.98664 -0.48985,-4.01017 -0.66927,-5.54539 -0.17942,-1.53523 -0.14832,-2.55543 -0.41434,-3.66503 -0.26601,-1.10961 0.26605,1.1096 3e-5,0 z"
       id="path828"
       inkscape:connector-curvature="0"
       sodipodi:nodetypes="zzzzzzzzzzzzzzczccccccccccccccczzzzzzzcccccccccccccczzzzzzzzccccczzzzzzzzzzzcccczzzzzzzz" />
  </g>
</svg>
