<?xml version="1.0" encoding="UTF-8"?>
<!-- Generator: Adobe Illustrator 25.2.0, SVG Export Plug-In . SVG Version: 6.00 Build 0)  -->
<svg version="1.1" id="Layer_2" xmlns="http://www.w3.org/2000/svg" xmlns:xlink="http://www.w3.org/1999/xlink" x="0px" y="0px" viewBox="0 0 1000 1000" style="enable-background:new 0 0 1000 1000;" xml:space="preserve"><script xmlns="" id="__gaOptOutExtension"/>
<g>
	<path d="M571.42,788.49c0.03,1.04,0.52,9.22,1.56,9.33c14,1.56,20.91,21.83,16.47,34.62c-16.9,48.65-63.15,83.58-117.56,83.58   c-68.71,0-124.42-55.7-124.42-124.42c0-68.71,55.7-124.42,124.42-124.42c14.74,0,28.87,2.58,41.99,7.28l-2.02-351.17l123.25,129.08   l57.62-62.21L473.44,186.44v0.18L254.16,390.36l57.62,62.21l123.25-129.08l-1.47,263.25c-96.78,18-170.07,102.87-170.07,204.87   c0,115.1,93.3,208.4,208.4,208.4c99.27,0,182.33-69.41,203.29-162.34c3.34-14.82,12.88-38.28,25.32-39.83   c1.03-0.13,1.57-8.29,1.56-9.33H571.42z"/>
	<circle cx="470.33" cy="65.32" r="65.32"/>
</g>
</svg>