<?xml version="1.0" encoding="UTF-8" standalone="no"?>
<!-- Generated by IcoMoon.io -->

<svg
   xmlns:dc="http://purl.org/dc/elements/1.1/"
   xmlns:cc="http://creativecommons.org/ns#"
   xmlns:rdf="http://www.w3.org/1999/02/22-rdf-syntax-ns#"
   xmlns:svg="http://www.w3.org/2000/svg"
   xmlns="http://www.w3.org/2000/svg"
   xmlns:sodipodi="http://sodipodi.sourceforge.net/DTD/sodipodi-0.dtd"
   xmlns:inkscape="http://www.inkscape.org/namespaces/inkscape"
   version="1.1"
   width="215"
   height="215"
   viewBox="0 0 214.99999 215"
   id="svg8"
   sodipodi:docname="damage.svg"
   inkscape:version="0.92.3 (2405546, 2018-03-11)">
  <metadata
     id="metadata14">
    <rdf:RDF>
      <cc:Work
         rdf:about="">
        <dc:format>image/svg+xml</dc:format>
        <dc:type
           rdf:resource="http://purl.org/dc/dcmitype/StillImage" />
        <dc:title>characteristics-damage</dc:title>
      </cc:Work>
    </rdf:RDF>
  </metadata>
  <defs
     id="defs12" />
  <sodipodi:namedview
     pagecolor="#ffffff"
     bordercolor="#666666"
     borderopacity="1"
     objecttolerance="10"
     gridtolerance="10"
     guidetolerance="10"
     inkscape:pageopacity="0"
     inkscape:pageshadow="2"
     inkscape:window-width="1920"
     inkscape:window-height="1017"
     id="namedview10"
     showgrid="false"
     fit-margin-top="0"
     fit-margin-left="0"
     fit-margin-right="0"
     fit-margin-bottom="0"
     inkscape:zoom="0.4609375"
     inkscape:cx="-1148.0227"
     inkscape:cy="-210.04624"
     inkscape:window-x="-8"
     inkscape:window-y="-8"
     inkscape:window-maximized="1"
     inkscape:current-layer="svg8" />
  <title
     id="title2">characteristics-damage</title>
  <g
     id="g823"
     transform="matrix(6.7198442,0,0,6.7198442,-0.03211961,-0.00964777)"
     style="fill:#000000;fill-opacity:1">
    <path
       id="path4"
       d="M 9.574,29.652 C 9.135,28.972 9.069,28.577 9.113,26.909 9.113,25.834 9.245,24.627 9.398,24.232 9.639,23.552 9.617,23.42 8.959,22.52 8.147,21.401 7.225,21.006 5.119,20.896 4.417,20.874 3.736,20.742 3.583,20.589 3.21,20.216 3.386,15.761 3.78,15.322 3.956,15.125 4.153,14.664 4.219,14.313 4.351,13.655 4.065,11.153 3.78,10.385 3.67,10.034 3.67,10.012 3.868,10.275 c 0.198,0.285 0.241,0.285 0.241,0 0,-0.197 -0.11,-0.461 -0.241,-0.592 C 3.692,9.507 3.692,9.398 3.868,9.31 4,9.222 4.109,8.718 4.109,8.191 4.109,7.664 4.197,6.984 4.328,6.677 4.438,6.37 4.547,5.777 4.591,5.36 4.613,4.943 4.723,4.658 4.81,4.702 4.898,4.768 4.986,4.592 4.986,4.307 4.986,4.022 5.118,3.605 5.293,3.363 5.447,3.122 5.666,2.617 5.732,2.244 5.908,1.432 6.346,0.993 7.531,0.401 8.694,-0.213 8.892,-0.148 9.045,0.796 9.111,1.235 9.374,1.981 9.594,2.42 c 0.241,0.439 0.439,0.966 0.439,1.141 0,0.175 0.11,0.351 0.241,0.395 0.132,0.044 0.373,0.724 0.549,1.492 0.154,0.79 0.505,2.129 0.746,2.962 0.263,0.856 0.571,1.931 0.68,2.414 0.241,1.097 1.141,3.906 1.295,4.06 0.197,0.197 0.285,0.746 0.373,2.48 0.066,1.383 0.022,1.712 -0.241,1.821 -0.263,0.109 -0.285,0.241 -0.132,0.527 0.351,0.658 0.263,1.273 -0.329,2.194 -0.307,0.483 -0.549,0.966 -0.549,1.075 0,0.373 0.658,0.439 1.47,0.154 0.461,-0.154 0.988,-0.241 1.163,-0.176 0.373,0.132 1.075,0.944 1.097,1.251 0,0.241 0.263,0.614 1.273,1.865 0.263,0.329 0.549,0.922 0.614,1.295 0.088,0.373 0.219,0.636 0.307,0.571 0.154,-0.088 -0.088,1.383 -0.263,1.536 -0.022,0.044 -0.461,0.11 -0.944,0.154 l -0.878,0.066 0.066,-1.031 c 0.044,-0.592 -0.022,-1.229 -0.154,-1.426 -0.176,-0.351 -0.241,-0.307 -0.461,0.263 -0.154,0.373 -0.285,1.053 -0.329,1.536 -0.044,0.483 -0.176,0.878 -0.307,0.856 -0.132,-0.022 -0.483,-0.044 -0.79,-0.044 -0.461,-0.044 -0.549,-0.154 -0.549,-0.68 0,-1.141 -0.263,-1.997 -0.614,-1.997 -0.263,0 -0.307,0.219 -0.176,1.251 0.088,0.702 0.241,1.361 0.351,1.47 0.395,0.395 0.241,0.483 -0.746,0.549 -0.922,0.044 -0.988,0.022 -1.141,-0.68 l -0.154,-0.724 -0.197,0.724 c -0.263,1.009 -1.075,0.966 -1.734,-0.11 z m 0.329,-4.565 c 0.154,-0.614 0.132,-0.636 -0.219,-0.285 -0.219,0.219 -0.307,0.505 -0.219,0.746 0.176,0.461 0.241,0.373 0.439,-0.461 z M 11,19.25 c 0.307,-0.154 0.592,-0.395 0.658,-0.571 0.197,-0.527 -0.285,-1.163 -0.988,-1.317 -0.351,-0.066 -0.636,-0.198 -0.636,-0.285 0,-0.087 -0.263,-0.241 -0.592,-0.329 C 9.135,16.682 8.608,16.419 8.323,16.177 7.621,15.628 7.336,15.65 6.611,16.309 c -1.339,1.229 -1.317,2.107 0.022,2.392 3.906,0.9 3.665,0.856 4.367,0.549 z m 1.229,-2.173 c 0,-0.11 -0.11,-0.219 -0.241,-0.219 -0.11,0 -0.154,0.11 -0.088,0.219 0.066,0.132 0.176,0.219 0.241,0.219 0.044,0 0.088,-0.088 0.088,-0.219 z M 4.109,16.2 c 0,-0.11 -0.088,-0.219 -0.219,-0.219 -0.11,0 -0.219,0.11 -0.219,0.219 0,0.132 0.11,0.219 0.219,0.219 0.132,0 0.219,-0.088 0.219,-0.219 z M 5.865,3.999 C 5.865,3.692 5.799,3.692 5.536,3.911 5.36,4.065 5.207,4.218 5.207,4.262 c 0,0.044 0.154,0.088 0.329,0.088 0.176,0 0.329,-0.154 0.329,-0.351 z"
       inkscape:connector-curvature="0"
       style="fill:#000000;fill-opacity:1" />
    <path
       id="path6"
       d="m 21.314,31.253 c -0.066,-0.417 -0.088,-0.856 -0.022,-0.966 0.088,-0.088 -0.066,-0.505 -0.307,-0.878 -0.219,-0.395 -0.417,-0.834 -0.417,-0.988 0,-0.154 -0.198,-0.636 -0.439,-1.097 -0.241,-0.439 -0.439,-0.966 -0.439,-1.141 0,-0.198 -0.132,-0.395 -0.307,-0.461 -0.154,-0.066 -0.417,-0.505 -0.571,-0.988 -0.154,-0.461 -0.351,-0.856 -0.439,-0.856 -0.088,0 -0.241,-0.658 -0.329,-1.47 -0.088,-0.812 -0.241,-1.712 -0.373,-2.041 -0.176,-0.439 -0.461,-2.436 -0.68,-4.652 -0.022,-0.219 -0.088,-0.395 -0.176,-0.395 -0.088,0 -0.219,-0.373 -0.307,-0.812 -0.088,-0.461 -0.285,-1.075 -0.439,-1.383 -0.154,-0.308 -0.351,-1.075 -0.439,-1.69 -0.088,-0.636 -0.219,-1.163 -0.329,-1.163 -0.219,0 -0.658,-1.777 -0.658,-2.721 0,-0.439 -0.088,-0.79 -0.219,-0.79 -0.11,0 -0.219,-0.285 -0.219,-0.636 0,-0.9 -0.439,-2.019 -1.009,-2.546 -0.395,-0.373 -0.461,-0.592 -0.329,-1.207 0.11,-0.614 0.285,-0.79 0.9,-0.988 0.417,-0.11 0.922,-0.307 1.097,-0.439 0.417,-0.285 4.828,-0.373 4.828,-0.088 0,0.11 0.154,0.198 0.351,0.198 0.197,0 0.614,0.176 0.922,0.417 0.329,0.219 0.966,0.527 1.426,0.658 0.439,0.154 0.812,0.351 0.812,0.461 0,0.11 0.219,0.263 0.461,0.329 0.702,0.241 1.448,1.185 1.756,2.26 0.132,0.505 0.351,0.987 0.439,1.053 0.11,0.066 0.198,1.009 0.198,2.085 0,1.229 0.11,2.26 0.307,2.721 0.198,0.439 0.329,1.426 0.307,2.282 0,1.229 0.088,1.668 0.461,2.172 0.241,0.373 0.461,0.724 0.461,0.812 0,0.088 0.176,0.417 0.417,0.724 0.263,0.417 0.439,1.185 0.549,2.48 0.132,1.799 0.11,1.909 -0.417,2.48 -0.285,0.307 -0.636,0.571 -0.768,0.571 -0.132,0 -0.68,0.285 -1.185,0.636 -0.527,0.373 -1.229,0.724 -1.58,0.812 -0.702,0.154 -2.085,0.922 -2.326,1.273 -0.263,0.395 -0.198,1.821 0.11,2.151 0.285,0.307 0.461,1.207 0.461,2.37 0,1.887 -1.229,3.028 -1.536,1.448 z m 2.655,-10.028 c 0.11,-0.11 0.351,-0.198 0.527,-0.198 0.614,0 1.558,-1.141 1.558,-1.865 0,-0.966 -0.812,-1.251 -2.414,-0.834 -0.658,0.154 -1.251,0.373 -1.317,0.483 -0.066,0.088 -0.439,0.241 -0.834,0.307 -0.79,0.154 -2.019,0.988 -2.019,1.361 0,0.351 0.9,1.141 1.426,1.251 0.571,0.11 2.787,-0.263 3.072,-0.505 z m 2.019,-0.329 c -0.066,-0.066 -0.263,-0.088 -0.417,-0.022 -0.176,0.066 -0.11,0.132 0.132,0.132 0.241,0.022 0.373,-0.044 0.285,-0.11 z m 0.066,-9.744 c 0,-0.11 -0.088,-0.219 -0.219,-0.219 -0.11,0 -0.219,0.11 -0.219,0.219 0,0.132 0.11,0.219 0.219,0.219 0.132,0 0.219,-0.088 0.219,-0.219 z M 20.458,2.155 c 0.066,-0.11 0.022,-0.219 -0.088,-0.219 -0.132,0 -0.241,0.11 -0.241,0.219 0,0.132 0.044,0.219 0.088,0.219 0.066,0 0.176,-0.088 0.241,-0.219 z M 19.778,1.607 C 19.69,1.431 19.449,1.278 19.229,1.278 c -0.373,0 -0.395,0.044 -0.154,0.329 0.373,0.417 0.856,0.417 0.702,0 z"
       inkscape:connector-curvature="0"
       style="fill:#000000;fill-opacity:1" />
  </g>
</svg>
