<?xml version="1.0" encoding="UTF-8" standalone="no"?>
<!-- Generated by IcoMoon.io -->

<svg
   xmlns:dc="http://purl.org/dc/elements/1.1/"
   xmlns:cc="http://creativecommons.org/ns#"
   xmlns:rdf="http://www.w3.org/1999/02/22-rdf-syntax-ns#"
   xmlns:svg="http://www.w3.org/2000/svg"
   xmlns="http://www.w3.org/2000/svg"
   xmlns:sodipodi="http://sodipodi.sourceforge.net/DTD/sodipodi-0.dtd"
   xmlns:inkscape="http://www.inkscape.org/namespaces/inkscape"
   version="1.1"
   width="215"
   height="215"
   viewBox="0 0 215 215"
   id="svg26"
   sodipodi:docname="toughness.svg"
   inkscape:version="0.92.3 (2405546, 2018-03-11)">
  <metadata
     id="metadata32">
    <rdf:RDF>
      <cc:Work
         rdf:about="">
        <dc:format>image/svg+xml</dc:format>
        <dc:type
           rdf:resource="http://purl.org/dc/dcmitype/StillImage" />
        <dc:title>characteristics-toughness</dc:title>
      </cc:Work>
    </rdf:RDF>
  </metadata>
  <defs
     id="defs30" />
  <sodipodi:namedview
     pagecolor="#ffffff"
     bordercolor="#666666"
     borderopacity="1"
     objecttolerance="10"
     gridtolerance="10"
     guidetolerance="10"
     inkscape:pageopacity="0"
     inkscape:pageshadow="2"
     inkscape:window-width="1920"
     inkscape:window-height="1017"
     id="namedview28"
     showgrid="false"
     fit-margin-top="0"
     fit-margin-left="0"
     fit-margin-right="0"
     fit-margin-bottom="0"
     inkscape:zoom="1.3037281"
     inkscape:cx="-382.04511"
     inkscape:cy="-95.957509"
     inkscape:window-x="-8"
     inkscape:window-y="-8"
     inkscape:window-maximized="1"
     inkscape:current-layer="svg26" />
  <title
     id="title2">characteristics-toughness</title>
  <g
     id="g850"
     transform="matrix(6.7187326,0,0,6.7187326,-2.8172232e-4,0.00155341)"
     style="fill:#000000;fill-opacity:1">
    <path
       id="path4"
       d="m 4.457,24.201 c 0.154,-0.066 0.351,-0.044 0.417,0.022 0.088,0.066 -0.044,0.132 -0.285,0.11 -0.241,0 -0.307,-0.066 -0.132,-0.132 z"
       inkscape:connector-curvature="0"
       style="fill:#000000;fill-opacity:1" />
    <path
       id="path6"
       d="m 26.691,12.37 c 0,-0.241 0.066,-0.307 0.132,-0.132 0.066,0.154 0.044,0.351 -0.022,0.417 -0.066,0.088 -0.132,-0.044 -0.11,-0.285 z"
       inkscape:connector-curvature="0"
       style="fill:#000000;fill-opacity:1" />
    <path
       id="path8"
       d="M 16.572,31.378 C 16.265,31.29 15.211,31.268 14.245,31.334 12.753,31.422 12.292,31.356 11.501,30.983 10.974,30.742 10.03,30.303 9.394,30.017 8.143,29.468 8.011,29.293 8.67,29.073 c 0.241,-0.066 0.439,-0.241 0.439,-0.351 0,-0.132 0.11,-0.154 0.219,-0.088 0.132,0.088 0.219,-0.198 0.219,-0.68 0,-0.724 0.044,-0.79 0.505,-0.658 0.263,0.066 0.768,0.132 1.097,0.132 0.351,0 0.571,0.088 0.483,0.219 -0.066,0.132 -0.044,0.219 0.088,0.219 0.11,0 0.285,-0.088 0.351,-0.219 0.198,-0.329 0.944,-0.263 1.141,0.11 0.154,0.241 0.724,0.329 2.546,0.373 1.712,0.044 2.349,0.132 2.349,0.329 0,0.329 0.966,0.615 1.317,0.395 0.132,-0.088 0.176,-0.329 0.11,-0.571 -0.088,-0.263 -0.044,-0.417 0.154,-0.417 0.176,0 0.746,-0.198 1.251,-0.461 0.9,-0.417 0.966,-0.439 1.361,-0.066 0.219,0.198 0.417,0.615 0.417,0.9 0,0.285 0.154,0.571 0.329,0.637 0.176,0.088 0.329,0.285 0.329,0.483 0,0.176 -0.066,0.263 -0.132,0.198 -0.088,-0.088 -0.417,0.066 -0.768,0.307 -0.329,0.241 -0.922,0.549 -1.295,0.658 -0.351,0.132 -0.658,0.329 -0.658,0.417 0,0.11 -0.571,0.241 -1.251,0.329 -0.702,0.066 -1.471,0.176 -1.712,0.198 -0.241,0.044 -0.68,0 -0.988,-0.088 z"
       inkscape:connector-curvature="0"
       style="fill:#000000;fill-opacity:1" />
    <path
       id="path10"
       d="M 2.086,22.972 C 1.779,22.357 1.471,21.787 1.406,21.721 1.341,21.655 1.011,20.58 0.682,19.307 0.046,16.739 -0.086,14.698 0.419,14.698 c 0.154,0 0.417,-0.154 0.593,-0.351 0.219,-0.285 0.219,-0.439 -0.11,-0.988 -0.373,-0.636 -0.373,-0.724 0,-2.217 C 1.1,10.264 1.407,9.32 1.56,9.013 1.736,8.706 1.867,8.333 1.867,8.179 c 0,-0.636 0.571,-0.373 0.768,0.351 0.219,0.724 0.307,0.79 1.185,0.9 0.988,0.11 1.427,0.549 0.812,0.79 -0.198,0.066 -0.351,0.263 -0.351,0.417 0,0.154 -0.198,0.9 -0.461,1.668 -0.417,1.251 -0.439,1.734 -0.329,4.456 0.11,2.151 0.241,3.161 0.461,3.49 0.176,0.263 0.329,0.702 0.329,0.988 0,0.263 0.154,0.549 0.329,0.615 0.505,0.198 0.417,1.251 -0.132,1.58 C 4.171,23.632 4.061,23.653 4.171,23.478 4.303,23.28 4.215,23.28 3.886,23.456 3.623,23.588 3.359,23.807 3.293,23.917 3.008,24.378 2.613,24.093 2.086,22.973 Z m 2.415,-0.593 c 0,-0.11 -0.11,-0.219 -0.241,-0.219 -0.11,0 -0.154,0.11 -0.088,0.219 0.066,0.132 0.176,0.219 0.241,0.219 0.044,0 0.088,-0.088 0.088,-0.219 z M 1.208,15.136 c 0,-0.11 -0.11,-0.219 -0.241,-0.219 -0.11,0 -0.154,0.11 -0.088,0.219 0.066,0.132 0.176,0.219 0.241,0.219 0.044,0 0.088,-0.088 0.088,-0.219 z"
       inkscape:connector-curvature="0"
       style="fill:#000000;fill-opacity:1" />
    <path
       id="path12"
       d="m 29.412,30.456 c -0.483,-0.329 -1.471,-0.922 -2.195,-1.295 -3.204,-1.668 -3.402,-1.822 -3.402,-2.436 0,-0.219 0.154,-0.658 0.351,-0.944 0.198,-0.307 0.285,-0.549 0.198,-0.549 -0.395,0 1.097,-1.075 1.624,-1.163 0.571,-0.11 1.361,0.154 1.317,0.461 -0.066,0.285 0.746,2.019 0.944,2.019 0.088,0 0.176,0.176 0.176,0.395 0,0.198 0.351,0.746 0.768,1.185 0.724,0.746 1.141,1.536 1.317,2.414 0.132,0.615 -0.154,0.593 -1.097,-0.088 z"
       inkscape:connector-curvature="0"
       style="fill:#000000;fill-opacity:1" />
    <path
       id="path14"
       d="M 3.886,8.068 C 3.732,7.914 3.623,7.629 3.623,7.41 3.623,6.927 3.162,5.918 2.943,5.918 2.833,5.918 2.702,5.567 2.614,5.15 2.548,4.733 2.395,4.316 2.285,4.25 2.175,4.184 2.131,4.031 2.197,3.921 2.285,3.811 2.241,3.723 2.131,3.723 1.999,3.723 1.802,3.46 1.67,3.13 1.538,2.779 1.187,2.076 0.88,1.55 0.024,0.036 0.068,0.014 2.109,1.221 2.702,1.572 3.558,2.231 4.436,2.999 4.875,3.372 5.49,3.767 5.797,3.833 6.851,4.096 7.07,4.557 6.851,5.918 6.653,7.081 6.588,7.169 5.797,7.52 5.314,7.718 4.722,7.893 4.436,7.915 3.975,7.915 3.975,7.937 4.392,8.113 4.699,8.245 4.721,8.311 4.502,8.311 4.304,8.333 4.041,8.223 3.887,8.07 Z m 2.59,-2.809 c 0,-0.11 -0.088,-0.219 -0.219,-0.219 -0.11,0 -0.219,0.11 -0.219,0.219 0,0.132 0.11,0.219 0.219,0.219 0.132,0 0.219,-0.088 0.219,-0.219 z"
       inkscape:connector-curvature="0"
       style="fill:#000000;fill-opacity:1" />
    <path
       id="path16"
       d="M 25.747,7.388 C 25.549,7.234 25.33,6.73 25.242,6.291 25.154,5.852 24.979,5.479 24.825,5.479 c -0.176,0 -0.176,-0.044 0,-0.176 C 24.979,5.215 25.11,4.952 25.154,4.71 25.22,4.425 25.769,4.008 26.778,3.503 27.634,3.086 28.38,2.647 28.446,2.559 28.6,2.34 29.368,1.879 30.158,1.527 30.443,1.395 30.926,1.11 31.233,0.869 31.54,0.628 31.826,0.474 31.87,0.518 c 0.132,0.132 -0.417,1.668 -0.593,1.668 -0.088,0 -0.263,0.351 -0.439,0.768 -0.176,0.417 -0.351,0.768 -0.439,0.768 -0.241,0 -1.756,2.173 -1.756,2.524 0,0.461 -0.549,1.01 -0.922,0.944 -0.154,-0.044 -0.263,0.044 -0.241,0.176 0.066,0.329 -1.295,0.351 -1.734,0.022 z"
       inkscape:connector-curvature="0"
       style="fill:#000000;fill-opacity:1" />
    <path
       id="path18"
       d="m 28.183,24.64 c -0.022,-0.11 -0.044,-0.263 -0.066,-0.395 -0.044,-0.439 -0.483,-0.9 -1.075,-1.163 -0.483,-0.198 -0.549,-0.329 -0.395,-0.637 0.966,-1.8 1.536,-6.826 1.119,-9.767 C 27.217,8.859 27.217,9.056 27.788,8.771 28.073,8.617 28.403,8.354 28.49,8.2 c 0.351,-0.593 0.724,-0.285 1.339,1.075 0.9,1.888 1.229,3.292 1.229,5.026 0,1.141 -0.088,1.536 -0.329,1.624 -0.373,0.154 -0.461,0.966 -0.11,0.966 0.395,0 0.768,1.075 0.483,1.361 -0.154,0.154 -0.263,0.637 -0.263,1.097 0,0.46 -0.088,0.834 -0.198,0.834 -0.11,0 -0.307,0.505 -0.461,1.119 -0.154,0.614 -0.417,1.163 -0.571,1.229 -0.176,0.066 -0.307,0.241 -0.307,0.417 0,0.176 -0.11,0.307 -0.219,0.307 -0.219,0 -0.768,1.054 -0.702,1.383 0.022,0.088 0,0.154 -0.066,0.154 -0.066,0 -0.132,-0.066 -0.132,-0.154 z m 1.998,-12.665 c 0,-0.044 -0.066,-0.241 -0.132,-0.439 -0.198,-0.505 -0.527,-0.439 -0.527,0.088 0,0.241 0.154,0.439 0.329,0.439 0.175,0 0.329,-0.044 0.329,-0.088 z"
       inkscape:connector-curvature="0"
       style="fill:#000000;fill-opacity:1" />
    <path
       id="path20"
       d="m 13.083,26.857 c -0.176,-0.219 -0.527,-0.307 -0.944,-0.263 -0.351,0.066 -0.68,0.022 -0.746,-0.088 -0.066,-0.088 -0.395,-0.176 -0.768,-0.176 -0.351,0 -0.636,-0.088 -0.636,-0.176 0,-0.088 -0.351,-0.307 -0.768,-0.461 C 8.804,25.539 8.453,25.342 8.453,25.232 8.453,25.122 8.277,24.991 8.036,24.903 7.641,24.793 5.819,22.357 5.819,21.94 5.819,21.83 5.665,21.611 5.49,21.413 5.139,21.062 4.875,20.052 4.48,17.44 4.217,15.794 4.348,12.743 4.678,12.523 4.788,12.457 4.941,11.93 5.029,11.338 5.117,10.767 5.27,10.306 5.38,10.306 5.512,10.306 5.731,9.955 5.907,9.538 6.324,8.55 9.397,5.565 10.538,5.017 11.021,4.798 11.789,4.6 12.228,4.6 c 0.439,0 1.383,-0.154 2.085,-0.329 1.866,-0.483 2.414,-0.439 2.568,0.219 0.154,0.636 0.395,0.68 0.856,0.219 0.527,-0.505 2.085,-0.263 3.907,0.636 3.556,1.734 4.917,3.973 5.07,8.319 0,0.329 0.088,0.593 0.176,0.593 0.329,0 0.461,1.602 0.219,2.722 -0.132,0.658 -0.439,1.558 -0.658,2.019 -0.241,0.461 -0.439,1.032 -0.439,1.251 0,0.219 -0.088,0.351 -0.198,0.263 -0.11,-0.066 -0.263,0.088 -0.351,0.329 -0.066,0.241 -0.329,0.549 -0.571,0.658 -0.219,0.132 -0.417,0.373 -0.417,0.549 0,0.176 -0.132,0.395 -0.285,0.483 -0.154,0.088 -0.571,0.593 -0.944,1.119 -0.439,0.637 -0.9,1.01 -1.449,1.185 -0.461,0.132 -0.834,0.329 -0.834,0.417 0,0.088 -0.307,0.219 -0.68,0.307 -0.373,0.088 -0.988,0.439 -1.405,0.79 -0.549,0.505 -1.01,0.658 -2.063,0.768 -1.141,0.132 -1.339,0.11 -1.339,-0.219 0,-0.461 -1.207,-0.483 -1.405,-0.022 -0.154,0.417 -0.593,0.417 -0.988,-0.022 z"
       inkscape:connector-curvature="0"
       style="fill:#000000;fill-opacity:1" />
    <path
       id="path22"
       d="m 0.111,31.729 c 0,-0.176 0.154,-0.373 0.351,-0.439 C 0.66,31.202 0.769,31.005 0.681,30.829 0.615,30.653 0.659,30.5 0.769,30.5 c 0.132,0 0.219,-0.154 0.219,-0.329 0,-0.198 0.132,-0.395 0.307,-0.461 0.175,-0.066 0.395,-0.439 0.483,-0.812 0.066,-0.395 0.329,-0.944 0.549,-1.229 0.241,-0.285 0.417,-0.637 0.417,-0.768 0,-0.154 0.307,-0.593 0.68,-0.966 0.417,-0.417 0.658,-0.856 0.593,-1.075 -0.088,-0.351 0.044,-0.395 1.097,-0.329 1.361,0.044 2.678,0.834 2.678,1.602 0,0.263 -0.088,0.373 -0.241,0.285 -0.176,-0.088 -0.198,0 -0.088,0.329 0.154,0.527 -0.132,0.878 -1.032,1.273 -0.351,0.154 -0.615,0.351 -0.615,0.461 0,0.11 -0.395,0.307 -0.878,0.461 -0.483,0.132 -0.878,0.351 -0.878,0.461 0,0.088 -0.285,0.241 -0.636,0.329 C 3.073,29.798 2.722,30.017 2.656,30.193 2.59,30.369 2.415,30.5 2.261,30.5 2.107,30.5 1.581,30.851 1.12,31.268 0.132,32.146 0.11,32.146 0.11,31.729 Z M 5.598,25.21 c 0,-0.11 -0.154,-0.198 -0.329,-0.198 -0.175,0 -0.329,0.154 -0.329,0.329 0,0.198 0.132,0.263 0.329,0.198 0.176,-0.088 0.329,-0.219 0.329,-0.329 z"
       inkscape:connector-curvature="0"
       style="fill:#000000;fill-opacity:1" />
    <path
       id="path24"
       d="m 22.718,5.061 c 0,-0.11 -0.307,-0.263 -0.68,-0.351 C 21.665,4.622 21.314,4.425 21.248,4.271 21.204,4.095 20.677,3.898 20.129,3.81 19.558,3.722 18.768,3.481 18.373,3.261 17.605,2.822 16.902,2.734 16.705,3.042 16.639,3.152 16.047,3.24 15.41,3.261 c -0.658,0 -1.471,0.11 -1.822,0.241 C 13.237,3.633 12.93,3.743 12.886,3.721 12.688,3.589 10.055,4.05 9.594,4.292 8.848,4.687 8.233,4.687 8.233,4.314 8.233,3.963 7.311,3.063 6.96,3.063 6.806,3.063 6.697,2.865 6.697,2.624 6.697,2.317 6.851,2.185 7.224,2.185 7.509,2.185 7.86,2.031 8.014,1.856 8.146,1.68 8.475,1.483 8.738,1.395 9.001,1.307 9.331,1.132 9.484,0.978 9.769,0.671 11.372,0.385 13.106,0.32 c 0.593,-0.022 1.119,-0.11 1.207,-0.176 0.219,-0.219 4.631,-0.176 4.763,0.044 0.066,0.11 0.922,0.263 1.888,0.351 0.966,0.088 1.69,0.241 1.624,0.351 -0.066,0.11 0.088,0.198 0.329,0.198 0.241,0 0.483,0.088 0.571,0.219 0.066,0.11 0.263,0.154 0.439,0.066 0.176,-0.066 0.329,0 0.329,0.132 0,0.132 0.241,0.351 0.549,0.461 0.527,0.198 0.812,1.097 0.329,1.097 -0.351,0 -1.251,1.032 -1.405,1.624 -0.088,0.373 -0.285,0.571 -0.571,0.571 -0.241,0 -0.439,-0.088 -0.439,-0.198 z"
       inkscape:connector-curvature="0"
       style="fill:#000000;fill-opacity:1" />
  </g>
</svg>
