<?xml version="1.0" encoding="UTF-8" standalone="no"?>
<!-- Generated by IcoMoon.io -->

<svg
   xmlns:dc="http://purl.org/dc/elements/1.1/"
   xmlns:cc="http://creativecommons.org/ns#"
   xmlns:rdf="http://www.w3.org/1999/02/22-rdf-syntax-ns#"
   xmlns:svg="http://www.w3.org/2000/svg"
   xmlns="http://www.w3.org/2000/svg"
   xmlns:sodipodi="http://sodipodi.sourceforge.net/DTD/sodipodi-0.dtd"
   xmlns:inkscape="http://www.inkscape.org/namespaces/inkscape"
   version="1.1"
   width="215"
   height="215"
   viewBox="0 0 215 215"
   id="svg8"
   sodipodi:docname="wounds.svg"
   inkscape:version="0.92.3 (2405546, 2018-03-11)">
  <metadata
     id="metadata14">
    <rdf:RDF>
      <cc:Work
         rdf:about="">
        <dc:format>image/svg+xml</dc:format>
        <dc:type
           rdf:resource="http://purl.org/dc/dcmitype/StillImage" />
        <dc:title>characteristics-wounds</dc:title>
      </cc:Work>
    </rdf:RDF>
  </metadata>
  <defs
     id="defs12" />
  <sodipodi:namedview
     pagecolor="#ffffff"
     bordercolor="#666666"
     borderopacity="1"
     objecttolerance="10"
     gridtolerance="10"
     guidetolerance="10"
     inkscape:pageopacity="0"
     inkscape:pageshadow="2"
     inkscape:window-width="1920"
     inkscape:window-height="1017"
     id="namedview10"
     showgrid="false"
     inkscape:zoom="1.84375"
     inkscape:cx="-118.61017"
     inkscape:cy="14.245221"
     inkscape:window-x="-8"
     inkscape:window-y="-8"
     inkscape:window-maximized="1"
     inkscape:current-layer="svg8"
     fit-margin-top="0"
     fit-margin-left="0"
     fit-margin-right="0"
     fit-margin-bottom="0"
     showguides="false" />
  <title
     id="title2">characteristics-wounds</title>
  <g
     id="g829"
     transform="translate(31.10698)"
     style="fill:#000000;fill-opacity:1">
    <path
       style="fill:#000000;fill-opacity:1;stroke-width:6.71881008"
       inkscape:connector-curvature="0"
       id="path4"
       d="m 41.482234,213.09858 c -2.049237,-2.04924 -1.901423,-8.64039 0.295628,-7.32351 1.027978,0.58454 1.169073,0.43672 0.584536,-0.73235 -0.880164,-1.31688 -1.612514,-1.31688 -3.225028,0 -1.612515,1.31689 -2.049238,1.16907 -2.197051,-1.02798 -0.147814,-1.61251 -0.147814,-3.22502 0,-3.80956 0,-0.73235 -0.436723,-1.16907 -1.316887,-1.16907 -0.73235,0 -1.464701,-2.63378 -1.464701,-5.85881 0,-3.22503 0.732351,-5.8588 1.464701,-5.8588 2.049237,0 1.901423,-5.41536 -0.147814,-6.14771 -1.027978,-0.29563 -0.436723,-2.49268 1.464701,-6.00662 3.513937,-6.14771 2.929401,-11.13306 -1.612515,-17.13296 -5.126452,-6.44334 -10.10509,-8.78821 -19.47783,-8.78821 -6.4433393,0 -9.8094633,-0.88016 -12.4499555,-2.9294 -3.51393767,-2.63377 -3.66175147,-3.22503 -3.22502877,-17.86531 0.2956276,-12.59105 0.88016407,-15.37936 3.22502877,-17.7175 3.3661242,-2.92941 3.0772152,-1.46471 3.3661242,-31.047622 0.295627,-18.30204 0.73235,-22.55505 2.929401,-25.62555 1.3168873,-1.90142 2.4926783,-5.56317 2.4926783,-8.05585 0,-2.34486 2.049237,-8.34476 4.394102,-13.1823 2.492679,-4.68302 4.246288,-9.37274 3.809565,-10.40072 -1.027977,-2.49268 2.929402,-5.41536 13.034492,-10.10509 4.830824,-2.19705 12.449955,-5.7109897 16.844057,-7.9080397 6.880061,-3.22503 10.393999,-3.95066002 23.871932,-4.24629002 11.8587,-0.43672 16.985152,0 20.499089,1.61251002 2.633776,1.31689 6.738961,2.78159 9.077111,3.36613 2.49268,0.58453 6.00661,2.19705 7.90804,3.80956 1.90142,1.4646997 4.09847,2.6337797 4.97863,2.6337797 1.31689,0 5.27427,3.95066 11.13307,10.98525 3.51394,4.24629 6.00662,15.52045 6.00662,26.94243 0,6.73897 1.16907,14.7881 2.78159,20.35799 2.19705,7.17569 2.49267,10.10509 1.31688,12.73887 -1.61251,3.661749 1.76033,14.935912 7.47132,24.308652 1.90142,3.22503 3.07722,7.47132 3.07722,11.8587 0,4.09847 0.88016,7.76023 2.19705,9.07711 2.9294,2.9294 2.9294,11.13307 0,11.13307 -1.31689,0 -2.63378,0.88017 -3.07722,2.04924 -0.44344,1.16907 -2.9294,2.9294 -5.41536,3.95066 -2.63377,1.02798 -5.41536,2.63377 -6.44334,3.51394 -1.02798,0.73235 -2.63377,2.19705 -3.80956,3.07721 -1.02798,0.88017 -5.27427,2.49268 -9.52056,3.51394 -4.24629,1.16907 -7.61241,2.49268 -7.61241,3.07721 0,0.58454 -1.31689,1.31689 -2.9294,1.76033 -1.90142,0.43673 -3.22503,2.49268 -3.95066,5.56318 -0.73235,4.09847 -1.02798,4.3941 -2.04924,2.04923 -0.88016,-2.34486 -1.16907,-2.34486 -1.16907,-0.58453 -0.14782,1.31688 1.16907,5.27426 2.78159,8.7882 1.61251,3.51394 2.9294,7.90804 2.9294,9.80946 0,1.76033 0.58453,3.22503 1.31688,3.22503 1.76033,0 0.58454,7.47132 -2.19705,13.91466 -3.07721,7.61241 -7.90804,6.14771 -7.90804,-2.34487 0,-1.4647 -0.58453,-2.78158 -1.4647,-2.78158 -0.732345,0 -1.464695,1.76032 -1.464695,4.09847 0,5.71099 -1.4647,7.3235 -7.612409,7.76023 -5.710989,0.58453 -10.252905,-1.90143 -7.17569,-3.66176 1.760329,-1.16907 2.197051,-8.05585 0.732351,-11.7176 -1.316887,-3.51394 -3.513938,-2.78159 -3.513938,1.16907 0,2.04924 -0.584536,4.09848 -1.4647,4.54192 -0.732351,0.43672 -1.464701,3.22503 -1.464701,6.00661 0,3.51394 0.584536,4.83083 1.760328,4.09848 1.027978,-0.58454 1.169073,-0.43672 0.584537,0.73235 -0.584537,0.88016 -1.760329,1.16907 -2.633774,0.73235 -0.880164,-0.58454 -3.661751,-1.4647 -6.147711,-2.04924 -3.077215,-0.58453 -4.541916,-1.76033 -4.683011,-3.66175 -0.147814,-1.61251 -0.295627,-5.41536 -0.436722,-8.34476 -0.147814,-3.95066 -0.880165,-5.56318 -2.344865,-5.56318 -2.633774,0 -3.077215,8.78821 -0.73235,13.3234 1.316886,2.34487 1.027978,2.78159 -2.049237,2.78159 -2.049238,0 -4.098475,0.73235 -4.541916,1.4647 -1.612515,2.49268 -4.541916,1.61252 -6.295525,-1.76033 -1.464701,-3.07721 -1.612515,-2.9294 -1.612515,2.04924 -0.147813,4.3941 -0.584536,5.27427 -3.077215,5.12645 -1.612514,-0.14781 -3.661751,-0.88016 -4.394101,-1.61251 z m 3.661752,-14.05576 c -1.316887,-1.4647 -2.197051,-3.80956 -1.612515,-5.12645 0.436723,-1.4647 0.295628,-1.90142 -0.73235,-1.4647 -0.73235,0.58454 -2.633774,0.14782 -3.95066,-1.02798 -2.197051,-1.61251 -2.197051,-1.61251 -0.732351,0.43673 1.027978,1.31688 1.612515,2.78158 1.169073,3.22503 -0.436722,0.58453 -0.295627,0.73235 0.147814,0.29562 0.584537,-0.29562 2.197051,1.02798 3.809565,2.9294 1.612515,2.04924 3.225029,3.66176 3.661752,3.66176 0.436723,0 -0.295628,-1.31689 -1.760328,-2.92941 z m 9.077112,-1.3236 c -0.147814,-2.19705 -0.584536,-2.49268 -2.049237,-1.31689 -1.464701,1.17579 -1.901423,1.02798 -1.901423,-0.29563 0,-1.16907 -0.436723,-1.4647 -1.027978,-0.88016 -0.73235,0.58454 0.147814,2.04924 1.612514,3.22503 3.661752,2.63377 3.661752,2.63377 3.366124,-0.73235 z M 42.066771,177.65685 c 0.584536,-2.19705 0.584536,-4.24629 0.147814,-4.68301 -1.169073,-1.16907 -3.661752,2.78159 -3.661752,6.00662 0,3.80956 2.492679,2.9294 3.513938,-1.31689 z m 35.730632,-12.73886 c 3.366123,0 6.147711,-0.43672 6.147711,-1.16907 0,-3.22503 -3.661752,-14.4992 -4.683011,-14.4992 -0.584536,0 -1.169073,-1.76033 -1.169073,-3.95066 0,-5.71099 -1.901423,-8.05585 -6.006616,-7.47131 -3.077215,0.43672 -3.513938,1.16907 -3.513938,6.44333 0,4.24629 -1.316886,8.05586 -3.95066,12.15433 -4.978638,7.61241 -4.098474,11.13307 2.344865,9.52056 2.492678,-0.58454 7.323503,-1.16908 10.83744,-1.02798 z m 48.617307,-17.86532 c 0,-1.16907 -0.58454,-2.19705 -1.4647,-2.19705 -0.73235,0 -1.4647,1.02798 -1.4647,2.19705 0,1.16908 0.73235,2.19705 1.4647,2.19705 0.88016,0 1.4647,-1.02797 1.4647,-2.19705 z M 54.953448,135.77851 c 0.584537,-1.02798 1.169073,-2.63377 1.169073,-3.66175 0,-2.78159 -6.006616,-7.61241 -11.126349,-9.07711 -2.492679,-0.73236 -7.175689,-2.92941 -10.10509,-4.97864 -3.077215,-2.19705 -6.443339,-3.36613 -7.90804,-2.78159 -8.64039,3.07721 -14.351378,10.98525 -11.133068,15.37936 1.027978,1.31688 2.633773,2.49267 3.809565,2.49267 1.169073,0.14782 7.323503,1.61252 13.619028,3.51394 12.006514,3.51394 19.034389,3.22503 21.674881,-0.88016 z m 61.067262,1.61251 c 3.51394,-0.73235 6.73896,-1.16907 7.02787,-0.73235 1.31689,1.16908 10.68963,-9.66836 10.68963,-12.15432 0,-4.09848 -4.3941,-8.93602 -8.05585,-8.93602 -5.12646,0 -16.83734,3.36612 -16.83734,4.68301 0,0.58454 -1.31689,1.16907 -2.9294,1.16907 -3.51394,0 -11.274161,3.22503 -15.23154,6.14771 -2.781587,2.19705 -2.781587,2.19705 0,6.00662 1.464701,2.19705 3.950661,3.95066 5.274265,3.95066 1.32361,0 2.9294,0.58454 3.36613,1.4647 0.880155,1.31689 5.126445,1.02798 16.696235,-1.61251 z M 60.079901,123.47637 c -0.436723,-0.43672 -1.760329,-0.58454 -2.781588,-0.14782 -1.169073,0.43673 -0.73235,0.88017 0.880164,0.88017 1.612515,0.14781 2.492679,-0.29563 1.901424,-0.73235 z M 5.8926967,115.27942 c -0.436722,-1.16907 -0.8801638,-0.73235 -0.8801638,0.88016 -0.1478138,1.61252 0.2956276,2.49268 0.7323498,1.90143 0.436723,-0.43673 0.584537,-1.76033 0.147814,-2.78159 z M 20.976426,34.882138 c 0,-0.73235 -0.584537,-1.31689 -1.464701,-1.31689 -0.73235,0 -1.4647,1.02798 -1.4647,2.34487 0,1.16907 0.73235,1.76033 1.4647,1.31688 0.880164,-0.43672 1.464701,-1.4647 1.464701,-2.34486 z" />
    <path
       style="fill:#000000;fill-opacity:1;stroke-width:6.71881008"
       inkscape:connector-curvature="0"
       id="path6"
       d="m 58.319572,213.83093 c -4.246288,-1.02798 -4.394102,-1.02798 -1.169073,-2.78159 4.683011,-2.63378 7.760226,-2.19705 7.760226,1.16907 0,1.61252 -0.436723,2.78159 -1.027978,2.78159 -0.73235,-0.14782 -3.077215,-0.58454 -5.563175,-1.16907 z" />
  </g>
</svg>
