<?xml version="1.0" encoding="UTF-8" standalone="no"?>
<!-- Generator: Adobe Illustrator 23.0.4, SVG Export Plug-In  -->

<svg
   xmlns:dc="http://purl.org/dc/elements/1.1/"
   xmlns:cc="http://creativecommons.org/ns#"
   xmlns:rdf="http://www.w3.org/1999/02/22-rdf-syntax-ns#"
   xmlns:svg="http://www.w3.org/2000/svg"
   xmlns="http://www.w3.org/2000/svg"
   xmlns:sodipodi="http://sodipodi.sourceforge.net/DTD/sodipodi-0.dtd"
   xmlns:inkscape="http://www.inkscape.org/namespaces/inkscape"
   version="1.1"
   x="0px"
   y="0px"
   width="221.05"
   height="221.05"
   viewBox="0 0 221.05 221.05"
   xml:space="preserve"
   id="svg15"
   sodipodi:docname="beast.svg"
   inkscape:version="0.92.3 (2405546, 2018-03-11)"><metadata
   id="metadata19"><rdf:RDF><cc:Work
       rdf:about=""><dc:format>image/svg+xml</dc:format><dc:type
         rdf:resource="http://purl.org/dc/dcmitype/StillImage" /><dc:title></dc:title></cc:Work></rdf:RDF></metadata><sodipodi:namedview
   pagecolor="#ffffff"
   bordercolor="#666666"
   borderopacity="1"
   objecttolerance="10"
   gridtolerance="10"
   guidetolerance="10"
   inkscape:pageopacity="0"
   inkscape:pageshadow="2"
   inkscape:window-width="1920"
   inkscape:window-height="1017"
   id="namedview17"
   showgrid="false"
   inkscape:zoom="1.0676317"
   inkscape:cx="-7.7832413"
   inkscape:cy="110.525"
   inkscape:window-x="-8"
   inkscape:window-y="-8"
   inkscape:window-maximized="1"
   inkscape:current-layer="svg15" />
<style
   type="text/css"
   id="style2">
    .st0{fill:#FFFFFF;}
</style>
<defs
   id="defs4">
</defs>
<g
   id="D2F6kQ_2_"
   transform="translate(1.6959063,0.00725202)">
    <g
   id="g12">
        <path
   class="st0"
   d="m 139.44,0 c 0.24,0 0.48,0 0.72,0 0.15,0.06 0.28,0.15 0.44,0.18 4.23,0.83 8.48,1.59 12.69,2.5 7.77,1.67 15.51,3.46 22.78,6.83 0.46,0.21 0.99,0.36 1.5,0.4 1.62,0.11 3.11,0.4 4.24,1.77 0.38,0.46 1.09,0.65 1.66,0.93 2.01,0.98 4.02,1.96 6.03,2.93 0.86,0.42 1.74,0.81 2.59,1.24 1.73,0.89 3.58,1.62 5.13,2.76 2.7,1.99 5.25,4.19 7.78,6.39 2.55,2.21 4.61,4.84 6.43,7.7 3.76,5.94 5.29,12.57 5.87,19.4 0.33,3.89 0.72,7.82 -0.29,11.79 -1.67,6.61 -4.07,12.81 -8.67,17.92 -2.48,2.75 -5.3,5.2 -8.02,7.73 -0.69,0.64 -1.52,1.2 -2.38,1.56 -7.11,2.94 -14.22,5.93 -21.4,8.69 -2.85,1.09 -5.88,1.78 -8.88,2.42 -3.66,0.79 -7.03,2.14 -9.72,4.76 -2.63,2.56 -5.06,5.33 -7.58,8 -2.36,2.5 -2.87,7.13 -1.21,10.17 1.11,2.02 2.13,4.09 3.12,6.17 0.78,1.65 0.46,3.41 -0.76,4.67 -0.42,-0.49 -0.83,-0.97 -1.25,-1.45 -0.56,-0.65 -1.02,-0.75 -1.6,0.07 -0.42,0.59 -1.04,1.33 -1.67,1.43 -2.22,0.37 -3.95,1.69 -5.79,2.76 -2.4,1.4 -4.93,2.7 -6.34,5.31 -1.25,2.31 -2.49,4.64 -3.79,6.92 -0.91,1.61 -1.4,3.28 -1.26,5.15 0.08,1.03 0.05,2.09 -0.14,3.1 -0.99,5.12 -2.06,10.23 -3.09,15.34 -0.06,0.31 -0.1,0.63 -0.11,0.95 -0.08,2.9 -0.11,5.81 -0.23,8.71 -0.2,4.57 -0.67,9.17 -2.54,13.35 -2.72,6.08 -4.26,12.62 -7.48,18.5 -0.94,1.7 -1.98,3.03 -3.8,3.75 -0.82,0.33 -1.5,0.38 -2.28,-0.29 1.09,-1.19 0.92,-2.21 -0.41,-3.09 -0.18,-0.12 -0.19,-0.64 -0.15,-0.96 0.23,-1.66 0.52,-3.32 0.75,-4.98 0.55,-3.97 1.25,-7.95 -1.62,-11.47 -0.52,-0.63 -0.94,-0.97 -1.74,-0.92 -2.15,0.13 -4.3,0.21 -6.45,0.32 -1.92,0.1 -2.91,1.37 -2.52,3.22 0.12,0.59 0.33,1.15 0.44,1.74 0.53,2.67 1.01,5.34 -0.27,7.95 -0.13,0.27 -0.24,0.69 -0.13,0.93 0.85,1.86 -0.06,3.5 -0.56,5.2 -0.25,0.87 -0.66,0.94 -1.41,0.56 -1.96,-1.02 -3.54,-2.39 -4.64,-4.36 -1.14,-2.05 -1.81,-4.21 -2.31,-6.5 -0.98,-4.56 -2.23,-9.07 -3.35,-13.6 -0.38,-1.55 -0.77,-3.07 -0.16,-4.7 0.24,-0.65 0.03,-1.49 -0.05,-2.24 -0.08,-0.83 -0.29,-1.64 -0.37,-2.47 -0.4,-4.38 -0.76,-8.75 -1.18,-13.13 -0.18,-1.85 -0.49,-3.65 -0.11,-5.57 0.35,-1.73 0.33,-3.59 0.14,-5.35 -0.57,-5.17 -2.57,-9.95 -4.44,-14.75 -0.24,-0.61 -0.88,-1.09 -1.4,-1.56 -1.23,-1.13 -2.68,-2.08 -3.69,-3.37 -1,-1.27 -2.19,-2.04 -3.64,-2.57 -0.71,-0.26 -1.45,-0.47 -2.13,-0.8 -1.58,-0.79 -3.03,-0.84 -4.43,0.42 -0.27,0.24 -0.97,0.32 -1.26,0.14 -0.32,-0.2 -0.64,-0.88 -0.53,-1.19 0.41,-1.16 0.08,-2.18 -0.22,-3.27 -0.15,-0.57 0.01,-1.26 0.15,-1.87 0.56,-2.37 0.7,-4.76 0.2,-7.13 -0.36,-1.71 -1.03,-3.36 -1.37,-5.08 -0.33,-1.64 -1.16,-2.92 -2.22,-4.16 -1.63,-1.92 -3.09,-3.98 -4.71,-5.9 -0.84,-0.99 -1.81,-1.91 -2.84,-2.69 -1.27,-0.96 -2.69,-1.72 -4.02,-2.6 -2.1,-1.37 -4.28,-2.45 -6.86,-2.61 -0.98,-0.06 -2.02,-0.26 -2.9,-0.67 C 34.17,99.75 30.65,97.95 27.12,96.2 26.83,96.06 26.53,95.78 26.26,95.81 24.1,96.07 22.47,94.84 20.71,93.97 20.29,93.76 19.76,93.78 19.33,93.58 18.27,93.08 17.03,92.74 16.25,91.94 11.1,86.76 6.16,81.39 2.85,74.63 1.02,70.89 -0.07,67.26 0.44,63.14 0.76,60.55 0.73,57.97 0,55.44 c 0,-1.2 0,-2.4 0,-3.6 0.24,-1.49 0.59,-2.98 0.71,-4.48 0.32,-3.92 1.63,-7.56 3.11,-11.14 0.42,-1 1.14,-1.94 1.91,-2.72 1.82,-1.86 3.83,-3.52 5.61,-5.42 5.46,-5.83 12.46,-9.29 19.51,-12.61 6.49,-3.06 13.09,-5.9 19.71,-8.69 2.71,-1.14 5.53,-2.17 8.4,-2.71 3.95,-0.75 8,-1.04 12.01,-1.43 4.04,-0.39 8.15,0.07 12.13,-1.12 0.52,-0.16 1.17,0.12 1.76,0.18 1.13,0.13 2.25,0.31 3.38,0.36 0.75,0.03 1.51,-0.21 2.26,-0.2 0.5,0 0.99,0.23 1.49,0.35 0.01,0.13 0.02,0.25 0.04,0.38 -0.51,0.35 -0.98,0.89 -1.54,1.02 -1.19,0.27 -2.42,0.42 -3.64,0.43 -0.87,0.01 -1.26,0.2 -1.46,1.11 -0.14,0.64 -0.55,1.45 -1.08,1.74 -1.66,0.9 -3.44,1.6 -5.17,2.37 -0.1,-0.1 -0.2,-0.2 -0.3,-0.29 0.33,-0.41 0.65,-0.82 1.04,-1.32 -0.45,0 -0.88,-0.07 -1.28,0.01 -3.72,0.73 -7.46,1.41 -11.15,2.28 -1.57,0.37 -3.16,0.97 -4.53,1.82 -6.83,4.22 -13.59,8.54 -20.37,12.84 -1.58,1 -2.75,2.43 -3.07,4.27 -0.48,2.74 -0.98,5.52 -1.02,8.28 -0.07,5.08 3.03,8.39 6.94,11.06 1.47,1.01 2.97,2.01 4.56,2.81 1.73,0.87 3.52,1.87 5.39,2.16 4.73,0.74 9.51,1.13 14.27,1.63 3.82,0.4 7.6,1.62 11.51,0.62 0.22,-0.06 0.48,-0.01 0.72,0.01 2.8,0.22 5.21,-0.93 7.58,-2.19 1.39,-0.74 2.69,-1.73 4.15,-2.29 3.12,-1.18 5.97,-3.06 9.35,-3.61 3.92,-0.64 7.72,-2.14 11.82,-1.29 1.72,0.35 3.5,0.41 5.21,0.78 2.72,0.59 5.58,0.97 8.08,2.1 3.1,1.41 5.87,3.52 8.81,5.29 2.8,1.69 5.51,3.89 9.13,2.19 0.03,-0.02 0.08,-0.01 0.12,-0.02 3.65,-0.68 7.31,-1.33 10.95,-2.06 3.17,-0.63 6.32,-1.34 9.48,-2.04 2.87,-0.64 5.75,-1.25 8.59,-2.01 1.65,-0.44 2.08,-1.52 1.62,-3.15 -0.27,-0.95 -0.42,-1.94 -0.61,-2.92 -0.61,-3.25 -0.91,-6.6 -1.87,-9.74 -1.76,-5.74 -5.32,-10.49 -9.6,-14.57 -3.31,-3.16 -7,-5.94 -10.57,-8.83 -1.23,-1 -2.5,-2.05 -3.93,-2.67 C 147.46,7.23 145,5.73 142.74,3.87 142.37,3.57 142,3.17 141.57,3.05 140.01,2.6 139.57,1.43 139.44,0 Z m -26.62,148.7 c -0.16,-0.08 -0.32,-0.17 -0.48,-0.25 -0.5,0.45 -1.1,0.83 -1.49,1.36 -0.73,1 -1.28,2.13 -2.01,3.12 -0.61,0.83 -1.28,1.67 -2.09,2.28 -2.72,2.03 -5.84,0.78 -6.48,-2.51 -0.16,-0.82 -0.37,-1.64 -0.64,-2.43 -0.25,-0.73 -0.76,-0.91 -1.36,-0.34 -0.84,0.79 -1.72,1.57 -2.47,2.44 -0.69,0.81 -0.69,1.64 0.23,2.39 0.48,0.4 0.92,0.91 1.23,1.45 1.27,2.21 2.56,4.41 2.9,7.03 0.14,1.05 0.49,2.1 0.89,3.1 0.88,2.22 1.26,4.5 1.3,6.9 0.06,3.55 2.42,5.77 5.06,7.86 0.22,-1.99 2.21,-3.81 0.27,-5.88 -0.11,-0.12 -0.13,-0.37 -0.14,-0.56 -0.07,-2.2 -0.09,-4.39 0.83,-6.48 2.46,-5.6 3.94,-11.46 4.55,-17.55 0.04,-0.62 -0.07,-1.28 -0.1,-1.93 z m 26.2,-45.25 c -2.11,0.01 -3.49,0.68 -4.68,2.42 -0.68,0.98 -1.22,2.06 -1.86,3.08 -1.82,2.88 -3.65,5.75 -6.91,7.28 -0.35,0.16 -0.66,0.47 -0.9,0.78 -1.58,2.06 -3.16,4.13 -4.69,6.23 -0.81,1.12 -0.63,1.62 0.75,1.88 1.88,0.36 3.81,0.51 5.68,0.91 1.91,0.41 3.51,-0.13 5.13,-1.06 0.77,-0.44 1.7,-0.67 2.59,-0.83 1.03,-0.19 1.53,-0.73 1.7,-1.72 0.14,-0.82 0.29,-1.64 0.52,-2.44 1.34,-4.8 2.71,-9.59 4.05,-14.39 0.28,-1.06 -0.46,-2.14 -1.38,-2.14 z m -67.19,6.21 c 0.46,4.92 1.04,9.7 3.51,14.04 0.67,1.18 1.52,2.01 2.83,2.41 0.76,0.23 1.68,0.39 2.18,0.91 1.66,1.73 3.67,1.71 5.78,1.52 1.47,-0.14 2.95,-0.19 4.42,-0.36 0.56,-0.06 1.09,-0.34 1.64,-0.51 -0.18,-0.46 -0.32,-0.93 -0.55,-1.36 -0.12,-0.23 -0.45,-0.35 -0.6,-0.57 -0.6,-0.91 -1.41,-1.79 -1.68,-2.8 -0.33,-1.27 -0.93,-2.1 -2.03,-2.78 -1.24,-0.77 -2.43,-1.65 -3.53,-2.61 -1.08,-0.94 -1.98,-2.09 -3.04,-3.07 -2.13,-1.98 -4.27,-3.94 -6.49,-5.82 -0.44,-0.37 -1.26,-0.5 -1.85,-0.4 -0.26,0.06 -0.4,0.92 -0.59,1.4 z m 23.9,38.56 c -0.55,-0.61 -0.94,-1.05 -1.33,-1.48 -0.37,0.36 -1.12,0.87 -1.04,1.04 0.27,0.64 0.81,1.17 1.25,1.75 0.31,-0.36 0.62,-0.72 1.12,-1.31 z m 49.17,-45.45 c 0.58,-0.84 1.01,-1.47 1.49,-2.15 -1.53,-0.02 -1.85,0.38 -1.49,2.15 z"
   id="path6"
   inkscape:connector-curvature="0"
   style="fill:#ffffff" />
        <path
   class="st0"
   d="m 10.57,178.36 c 0.07,-0.12 0.13,-0.26 0.22,-0.39 6.06,-9.26 12.11,-18.52 18.2,-27.76 0.94,-1.43 0.91,-2.6 -0.02,-4.06 -0.88,-1.39 -1.56,-2.99 -1.95,-4.6 -1.91,-8 -3.73,-16.02 -5.49,-24.05 -0.28,-1.3 -0.2,-2.71 -0.11,-4.05 0.09,-1.41 0.99,-2.22 2.41,-2.38 1.76,-0.19 3.48,-0.87 5.31,-0.18 0.48,0.18 1.22,-0.2 1.79,-0.44 0.69,-0.3 1.11,-0.15 1.24,0.56 0.13,0.7 0.2,1.42 0.22,2.14 0.23,7.69 0.89,15.34 3.39,22.67 0.82,2.42 2.05,4.78 3.45,6.92 2.6,3.98 5.36,7.85 8.24,11.64 4.32,5.68 9.74,10.11 16.08,13.4 2.3,1.19 4.67,2.26 7.01,3.38 2.14,1.02 3.02,2.67 2.67,4.97 -0.28,1.83 0,3.58 0.87,5.23 0.28,0.53 0.57,1.06 0.77,1.62 0.8,2.15 -0.55,4 -2.83,3.6 -1.32,-0.23 -2.69,-0.84 -3.78,-1.63 -1.78,-1.28 -3.6,-2.24 -5.77,-2.76 -1.54,-0.37 -3,-1.26 -4.38,-2.1 -1.33,-0.81 -2.47,-1.91 -3.76,-2.78 -1.18,-0.79 -2.46,-1.44 -3.7,-2.16 -0.69,-0.4 -1.48,-0.72 -2.01,-1.27 -2.58,-2.67 -5.11,-5.39 -7.59,-8.15 -0.48,-0.53 -0.74,-1.3 -0.98,-2 -0.29,-0.84 -0.7,-1.07 -1.61,-0.91 -3.44,0.62 -6.64,1.86 -9.69,3.55 -0.59,0.33 -1.23,0.6 -1.76,1.02 -3.84,3 -7.67,6.03 -11.48,9.07 -0.84,0.67 -1.57,1.49 -2.38,2.2 -1.09,0.95 -1.63,0.88 -2.58,-0.3 z"
   id="path8"
   inkscape:connector-curvature="0"
   style="fill:#ffffff" />
        <path
   class="st0"
   d="m 185.73,116.72 c 0.06,1.15 0.08,2.03 0.16,2.91 0.15,1.75 -0.22,3.36 -0.84,5.02 -1.31,3.55 -2.41,7.18 -3.58,10.78 -0.64,1.97 -1.21,3.97 -1.85,5.94 -0.32,0.99 -0.34,1.86 0.55,2.6 0.3,0.25 0.48,0.64 0.72,0.96 3.67,4.98 7.35,9.96 11.02,14.94 0.19,0.26 0.37,0.55 0.63,0.72 3.06,1.95 4.91,4.99 7.03,7.78 0.1,0.13 0.2,0.25 0.29,0.38 0.9,1.24 1.06,2.44 0.42,3.06 -0.73,0.7 -2.61,0.76 -3.6,0.04 -1.74,-1.27 -3.36,-2.75 -5.2,-3.85 -2.04,-1.22 -4.21,-2.27 -6.43,-3.09 -1.66,-0.61 -2.94,-1.47 -4,-2.86 -0.43,-0.56 -1.19,-1.02 -1.88,-1.22 -1.55,-0.43 -2.85,-1.19 -3.99,-2.31 -2.51,-2.44 -5.06,-2.65 -7.96,-0.7 -0.13,0.09 -0.27,0.26 -0.4,0.25 -1.89,-0.08 -2.16,1.48 -2.93,2.67 -0.96,1.48 -2.23,2.77 -3.38,4.12 -3.47,4.09 -7.17,7.96 -11.37,11.32 -0.59,0.47 -1.24,0.87 -1.89,1.24 -1.73,0.99 -3.49,1.93 -5.22,2.92 -1.56,0.9 -3,0.27 -3.35,-1.54 -0.45,-2.35 -0.86,-4.71 -1.24,-7.07 -0.25,-1.56 0.13,-2.14 1.52,-2.86 0.55,-0.28 1.08,-0.71 1.45,-1.19 0.75,-0.98 1.37,-2.06 2.05,-3.09 0.51,-0.77 1.06,-1.18 2.1,-0.78 0.47,0.18 1.25,-0.07 1.75,-0.37 5.84,-3.5 10.53,-8.26 14.82,-13.48 5.6,-6.81 9.56,-14.55 12.38,-22.83 1.08,-3.17 1.38,-6.62 1.9,-9.97 0.25,-1.64 0.23,-3.34 0.22,-5.01 0,-1.19 0.51,-1.88 1.62,-2.19 0.54,-0.15 1.11,-0.24 1.59,-0.5 0.51,-0.28 1.06,-0.64 1.38,-1.11 0.9,-1.32 2.55,-1.61 3.71,-0.54 1.68,1.54 2.02,3.56 1.95,5.7 -0.04,1.16 -0.11,2.32 -0.15,3.21 z"
   id="path10"
   inkscape:connector-curvature="0"
   style="fill:#ffffff" />
    </g>
</g>
</svg>