<?xml version="1.0" encoding="UTF-8" standalone="no"?>
<!-- Generator: Adobe Illustrator 23.0.4, SVG Export Plug-In  -->

<svg
   xmlns:dc="http://purl.org/dc/elements/1.1/"
   xmlns:cc="http://creativecommons.org/ns#"
   xmlns:rdf="http://www.w3.org/1999/02/22-rdf-syntax-ns#"
   xmlns:svg="http://www.w3.org/2000/svg"
   xmlns="http://www.w3.org/2000/svg"
   xmlns:sodipodi="http://sodipodi.sourceforge.net/DTD/sodipodi-0.dtd"
   xmlns:inkscape="http://www.inkscape.org/namespaces/inkscape"
   version="1.1"
   x="0px"
   y="0px"
   width="218.88"
   height="218.88"
   viewBox="0 0 218.88 218.88"
   xml:space="preserve"
   id="svg17"
   sodipodi:docname="gargantuan.svg"
   inkscape:version="0.92.3 (2405546, 2018-03-11)"><metadata
   id="metadata21"><rdf:RDF><cc:Work
       rdf:about=""><dc:format>image/svg+xml</dc:format><dc:type
         rdf:resource="http://purl.org/dc/dcmitype/StillImage" /><dc:title></dc:title></cc:Work></rdf:RDF></metadata><sodipodi:namedview
   pagecolor="#ffffff"
   bordercolor="#666666"
   borderopacity="1"
   objecttolerance="10"
   gridtolerance="10"
   guidetolerance="10"
   inkscape:pageopacity="0"
   inkscape:pageshadow="2"
   inkscape:window-width="1920"
   inkscape:window-height="1017"
   id="namedview19"
   showgrid="false"
   inkscape:zoom="1.1224732"
   inkscape:cx="-1.4757815"
   inkscape:cy="105.125"
   inkscape:window-x="-8"
   inkscape:window-y="-8"
   inkscape:window-maximized="1"
   inkscape:current-layer="svg17" />
<style
   type="text/css"
   id="style2">
    .st0{fill:#FFFFFF;}
</style>
<defs
   id="defs4">
</defs>
<g
   id="J4XSLV_2_"
   transform="translate(0.00500244,4.358136)">
    <g
   id="g14">
        <path
   class="st0"
   d="m 0,135.77 c 0,-4 0,-8 0,-12 0.08,-0.47 0.16,-0.93 0.23,-1.4 0.63,-4.18 1.1,-8.4 1.93,-12.54 C 3.29,104.19 4.74,98.63 5.15,92.86 5.5,88 6.61,83.32 8.5,78.81 c 0.91,-2.16 2.42,-3.49 4.49,-4.36 1.59,-0.67 1.93,-0.41 1.98,1.33 0.04,1.38 0.09,2.78 0.33,4.13 0.72,4.06 3.57,7.08 5.39,10.6 0.29,0.56 0.92,1.02 1.5,1.32 4.06,2.12 8.25,3.85 12.87,4.26 0.63,0.06 1.27,-0.08 1.9,-0.1 0.75,-0.03 1.52,-0.14 2.24,-0.01 1.23,0.23 2.36,0.17 3.46,-0.48 0.54,-0.32 1.16,-0.63 1.77,-0.71 3.14,-0.38 5.48,-1.99 7.55,-4.31 1.09,-1.23 2.68,-2 4,-3.03 3.61,-2.8 6.22,-6.2 6.32,-11.01 0.03,-1.32 0.02,-2.66 -0.2,-3.95 -0.14,-0.84 -0.52,-1.82 -1.13,-2.37 -0.77,-0.69 -1.86,-1.05 -2.85,-1.46 -0.23,-0.1 -0.67,0.12 -0.93,0.31 -1.04,0.71 -2.04,1.5 -3.09,2.21 -1.49,1 -3.06,1.89 -4.52,2.93 -1.54,1.1 -2.55,2.6 -3.03,4.47 -0.65,2.52 -2.01,3.5 -4.57,3.07 -3.6,-0.6 -6.88,-2.13 -10.25,-3.93 1.21,-0.82 2.25,-1.55 3.3,-2.25 1.46,-0.98 1.54,-1.4 0.59,-2.92 -0.39,-0.62 -0.73,-1.26 -1.2,-2.08 1,0 1.72,0.09 2.41,-0.02 1.36,-0.21 2.78,-0.34 4.03,-0.85 1.82,-0.74 2.3,-2.86 1.26,-4.51 -0.19,-0.3 -0.35,-0.63 -0.45,-0.97 -0.33,-1.1 0.31,-1.79 1.37,-1.36 1.95,0.8 3.79,0.12 5.63,-0.29 1.45,-0.33 2.34,-1.65 2.41,-3.09 0.08,-1.66 -0.54,-2.69 -2.12,-3.36 -0.88,-0.37 -1.78,-0.71 -2.7,-0.99 -1.24,-0.38 -1.56,-0.14 -1.68,1.16 -0.25,2.5 -2.01,3.71 -4.46,3.1 -0.85,-0.21 -1.73,-0.32 -2.6,-0.4 -0.65,-0.05 -1.18,0.29 -0.97,1 0.39,1.32 0.82,2.64 1.43,3.87 0.39,0.78 0.44,1.39 0.07,2.13 -0.38,0.74 -0.94,1.07 -1.75,0.92 -2.11,-0.37 -4.24,-0.72 -6.34,-1.16 -1.4,-0.29 -1.73,-0.05 -1.58,1.4 0.17,1.63 0.77,3.07 1.76,4.39 0.88,1.17 0.68,2.3 -0.67,2.82 -0.97,0.37 -2.22,0.53 -3.21,0.28 -3.26,-0.85 -5.74,-2.95 -7.74,-5.58 -2.29,-3 -2.97,-5.98 -0.42,-9.44 1.56,-2.11 2.49,-4.51 3.4,-6.96 0.98,-2.64 2.04,-5.36 3.65,-7.63 4.62,-6.52 9.46,-12.89 14.35,-19.22 3.56,-4.6 7.6,-8.7 12.91,-11.42 4.72,-2.41 9.27,-5.14 13.93,-7.67 1.47,-0.79 3.01,-1.53 4.6,-1.99 1.53,-0.44 3.17,-0.49 5.06,-0.75 -0.28,0.53 -0.35,0.71 -0.46,0.85 -1.21,1.54 -2.41,3.09 -3.64,4.62 -0.8,0.99 -1.11,2.11 -0.97,3.36 0.13,1.09 0.35,2.24 1.51,2.67 1.25,0.47 2.49,0.21 3.4,-0.83 0.84,-0.96 1.59,-1.99 2.33,-3.03 0.4,-0.57 0.79,-0.89 1.57,-0.83 0.6,0.05 1.29,-0.11 1.82,-0.4 3.37,-1.82 6.67,-3.77 10.06,-5.55 3.28,-1.73 6.56,-3.53 10.32,-4.03 2.1,-0.28 4.2,-0.54 6.31,-0.74 0.5,-0.05 1.03,0.15 1.55,0.23 -0.54,0.64 -1.12,0.97 -1.67,1.33 -0.54,0.34 -1.11,0.65 -1.57,1.08 -0.86,0.8 -1.05,2.31 -0.41,3.19 0.74,1.03 1.62,0.46 2.47,0.14 3.45,-1.29 7.08,-2.11 10.69,-1.65 4.67,0.6 9.31,1.64 13.88,2.83 2.52,0.66 4.87,1.99 7.28,3.05 0.68,0.3 1.31,0.72 1.99,1.09 -0.2,0.64 -0.34,1.18 -0.54,1.7 -0.75,1.92 -0.28,3.43 1.29,4.79 3.23,2.8 6.4,5.68 9.53,8.6 0.78,0.73 1.3,1.73 2.17,2.92 -1.53,0.33 -2.64,0.59 -3.75,0.81 -2.7,0.53 -3.57,2.44 -2.3,4.89 0.53,1.02 1.08,2.09 1.26,3.2 0.29,1.68 0.93,3.14 1.97,4.43 1.67,2.09 3.45,4.1 5.11,6.2 1.62,2.05 3.55,3.01 6.15,2.05 0.18,-0.07 0.39,-0.07 0.59,-0.08 3.49,-0.2 5.48,-2.41 6.79,-5.32 1.31,-2.9 2.42,-5.89 3.56,-8.86 0.74,-1.92 2.17,-2.67 4.12,-2.62 3.59,0.09 6.66,1.46 9,4.14 4.12,4.73 8.22,9.49 12.12,14.4 5.72,7.2 9.76,15.39 12.62,24.06 1.93,5.84 3.85,11.75 4.66,17.91 0.03,0.24 0.09,0.48 0.18,0.7 1.45,3.47 1.75,7.11 1.69,10.81 -0.02,1.11 0.12,2.22 0.19,3.33 0,1.68 0,3.36 0,5.04 -0.07,0.43 -0.17,0.85 -0.22,1.28 -0.39,3.82 -0.62,7.66 -1.21,11.44 -0.67,4.29 -1.78,8.51 -2.49,12.79 -1,6.03 -3.13,11.62 -6,16.97 -0.29,0.53 -0.83,0.92 -1.25,1.38 -0.26,-0.78 -0.32,-1.37 -0.25,-1.95 0.11,-0.95 0.38,-1.88 0.43,-2.83 0.18,-3.31 0.28,-6.62 0.44,-9.93 0.04,-0.92 0.22,-1.83 0.21,-2.74 -0.02,-1.12 -0.48,-2.06 -1.67,-2.34 -1.22,-0.28 -2,0.43 -2.5,1.42 -0.38,0.74 -0.65,1.55 -0.88,2.35 -1.46,5.05 -3.45,9.87 -5.97,14.47 -0.17,0.32 -0.39,0.61 -0.78,1.21 -0.11,-0.68 -0.17,-0.98 -0.2,-1.28 -0.15,-1.63 -0.21,-3.27 -0.46,-4.89 -0.23,-1.49 -1.03,-1.95 -2.5,-1.61 -1.07,0.25 -1.78,0.94 -1.93,2.04 -0.72,5.41 -4.98,8.61 -7.83,13 -0.39,-1.35 -0.61,-2.44 -1.01,-3.46 -0.39,-0.98 -1.01,-1.89 -2.23,-1.92 -1.16,-0.03 -1.72,0.8 -2.24,1.72 -1.67,2.96 -3.3,5.93 -5.1,8.81 -0.81,1.3 -1.81,2.6 -3.01,3.53 -2.7,2.12 -5.45,4.22 -8.41,5.96 -4.32,2.54 -7.27,6.2 -9.51,10.52 -1.6,3.08 -0.01,6.5 3.36,7.32 1.23,0.3 2.53,0.32 3.8,0.49 0.34,0.05 0.68,0.17 1.19,0.29 -1.17,0.69 -2.15,1.22 -3.08,1.82 -4.23,2.7 -8.85,4.41 -13.71,5.5 -2.49,0.56 -4.98,1.09 -7.46,1.64 -3.89,0.87 -7.76,1.85 -11.67,2.6 -2.15,0.41 -4.36,0.31 -6.52,-0.39 0.15,-0.41 0.26,-0.72 0.5,-1.37 -3.25,0.29 -6.26,0.55 -9.26,0.83 -2.66,0.25 -5.32,0.67 -7.98,0.76 -3.11,0.11 -6.22,-0.16 -9.33,-0.09 -5.06,0.11 -10.05,0.45 -15.12,-0.71 -4.59,-1.05 -9.41,-1.14 -14.14,-1.52 -4.48,-0.36 -8.57,-1.69 -12.29,-4.22 -1.15,-0.78 -2.43,-1.37 -3.64,-2.08 -0.34,-0.2 -0.63,-0.48 -0.99,-0.76 1,-0.44 1.92,-0.67 2.63,-1.19 1.75,-1.26 3.43,-2.61 5.08,-4.01 2.12,-1.81 1.8,-4.35 -0.67,-5.66 -1.66,-0.88 -3.3,-1.8 -5.02,-2.55 -6.36,-2.78 -11.27,-7.05 -14.08,-13.53 -0.05,-0.11 -0.11,-0.21 -0.17,-0.32 -1.59,-2.7 -2.65,-2.84 -4.78,-0.6 -1.94,-2.53 -3.29,-5.37 -4.42,-8.31 -0.61,-1.6 -1.14,-3.24 -1.7,-4.86 -0.46,-1.33 -1.5,-2.02 -2.72,-1.82 -1.11,0.18 -1.6,0.91 -1.64,2.41 -0.01,0.68 -0.01,1.36 -0.01,2.04 0,0.44 0,0.88 0,1.32 -0.14,0.03 -0.29,0.05 -0.43,0.08 -0.18,-0.36 -0.38,-0.71 -0.54,-1.08 -2.05,-4.86 -4.06,-9.73 -6.15,-14.56 -0.31,-0.72 -0.87,-1.47 -1.52,-1.9 -1.49,-0.98 -2.74,-0.38 -3.06,1.37 -0.12,0.66 -0.15,1.36 -0.07,2.02 0.27,2.14 0.64,4.27 0.9,6.41 0.1,0.81 0.02,1.64 0.02,2.46 -0.15,0.03 -0.31,0.06 -0.46,0.08 -0.66,-0.84 -1.55,-1.58 -1.94,-2.53 -0.9,-2.21 -1.7,-4.48 -2.27,-6.8 C 1.84,144.58 0.96,140.16 0,135.77 Z M 104.83,63.59 c -0.4,-0.02 -0.71,-0.05 -1.03,-0.06 -1.71,-0.06 -1.76,-0.06 -2.03,1.66 -0.23,1.46 -0.34,2.94 -0.46,4.41 -0.1,1.15 -0.95,1.25 -1.79,1.36 -0.86,0.11 -1.11,-0.45 -1.18,-1.16 -0.11,-1.19 -0.36,-2.39 -0.27,-3.57 0.22,-2.89 0.24,-2.91 -2.59,-2.48 -0.93,0.14 -1.41,0.52 -1.52,1.49 -0.17,1.47 -0.44,2.92 -0.72,4.37 -0.3,1.52 -1.14,2.03 -3.02,2.08 -1.43,0.04 -1.27,-1.03 -1.44,-1.89 -0.02,-0.12 -0.03,-0.26 -0.1,-0.34 -0.28,-0.31 -0.58,-0.81 -0.89,-0.83 -0.3,-0.02 -0.74,0.41 -0.93,0.75 -0.31,0.55 -0.49,1.18 -0.7,1.78 -1.75,5.13 -3.44,10.29 -5.27,15.39 -1.14,3.19 -1.68,2.84 1.9,3.98 2.37,0.75 2.89,1.68 2.66,4.18 -0.29,3.22 -0.59,6.45 -0.55,9.67 0.07,4.81 -0.09,9.59 -0.63,14.36 -0.17,1.47 -0.78,1.89 -2.25,1.73 -0.9,-0.1 -1.83,-0.08 -2.72,0.06 -4.23,0.65 -8.43,1.44 -12.75,0.84 -1.25,-0.17 -2.54,-0.07 -3.81,-0.01 -1.05,0.04 -1.4,0.63 -1.27,1.7 0.33,2.7 0.65,5.4 0.82,8.11 0.12,1.99 0.09,3.99 -0.05,5.98 -0.07,1.04 0.12,1.73 1.02,2.31 1.31,0.84 2.69,1.65 3.78,2.73 2.71,2.67 4.44,5.81 4.04,9.82 -0.11,1.1 0.06,2.23 0.11,3.34 0.2,4.39 0.48,8.78 0.57,13.17 0.05,2.17 -1.12,3.18 -3.31,3.25 -0.92,0.03 -1.84,-0.06 -2.75,-0.1 -3.1,-0.11 -6.21,-0.22 -9.31,-0.33 -0.76,-0.03 -1.18,0.29 -1.25,1.1 -0.14,1.43 -0.29,2.87 -0.53,4.28 -0.18,1.04 0.17,1.41 1.2,1.57 1.32,0.21 2.71,0.45 3.89,1.04 4.1,2.03 6.47,9.69 4.8,12.99 -0.71,1.41 -0.46,2.81 0.51,4.05 0.66,0.84 0.87,1.75 0.63,2.81 -0.33,1.43 -0.58,2.87 -0.87,4.3 0.22,0.08 0.33,0.13 0.45,0.15 6.61,1.05 13.26,1.49 19.95,1.55 2.98,0.03 3.2,-0.13 2.75,-3.12 -0.53,-3.5 0.06,-6.84 1.13,-10.14 0.13,-0.4 0.41,-0.77 0.68,-1.11 1.43,-1.8 3.23,-1.35 5.04,-0.79 1.29,0.39 2.19,1.48 2.2,2.82 0.02,2.24 -0.05,4.48 -0.06,6.72 -0.01,1.55 0.09,3.1 -0.02,4.64 -0.07,1.08 0.18,1.62 1.31,1.61 2.84,-0.01 5.69,0.05 8.51,-0.19 2.98,-0.25 5.92,-0.99 8.91,-1.18 7.85,-0.51 15.48,-2.32 23.13,-3.95 2.83,-0.6 4.78,-2.4 5.85,-5.3 -1.43,-0.39 -1.54,-1.48 -1.3,-2.59 0.67,-3.05 0.13,-6.04 -0.26,-9.05 -0.11,-0.85 -0.52,-1.28 -1.33,-1.44 -1.22,-0.23 -2.42,-0.53 -3.63,-0.77 -1.88,-0.37 -2.93,-1.71 -3.07,-3.4 -0.13,-1.69 -0.93,-3.75 1.21,-4.99 0.16,-0.09 0.12,-0.46 0.26,-0.64 0.59,-0.76 1.12,-1.61 1.86,-2.19 0.63,-0.5 1.51,-0.73 2.31,-0.96 1.33,-0.37 1.75,-1.23 1.61,-2.53 -0.09,-0.91 -0.21,-1.85 -0.12,-2.75 0.3,-3.06 0.66,-6.11 1.07,-9.15 0.11,-0.82 -0.04,-1.21 -0.89,-1.28 -0.99,-0.08 -1.98,-0.26 -2.98,-0.32 -2.65,-0.17 -3.04,-0.52 -3.72,-3.14 -1.51,-5.79 -3.05,-11.58 -4.61,-17.36 -0.15,-0.55 -0.44,-1.06 -0.8,-1.87 -0.47,0.66 -0.82,1.03 -1.04,1.47 -0.61,1.26 -1.14,2.55 -1.73,3.82 -2.63,5.6 -5.29,11.19 -7.88,16.81 -0.5,1.08 -1.38,1.44 -2.3,1.28 -0.47,-0.09 -0.92,-0.95 -1.17,-1.56 -1.15,-2.83 -0.63,-5.74 -0.29,-8.63 0.15,-1.22 0.3,-2.46 0.27,-3.68 -0.06,-2.2 -0.29,-4.39 -0.39,-6.58 -0.18,-3.91 -0.27,-7.83 -0.47,-11.75 -0.21,-4.19 -0.53,-8.38 -0.76,-12.57 -0.27,-4.94 -0.03,-9.91 -1.47,-14.75 -0.56,-1.87 1,-3.59 3,-3.49 1.05,0.05 1.29,-0.35 1.07,-1.26 -0.52,-2.12 -0.97,-4.25 -1.57,-6.34 -1.79,-6.34 -3.64,-12.66 -5.44,-18.99 -0.18,-0.65 -0.35,-1.1 -1.16,-1.02 -0.84,0.08 -0.91,0.62 -0.91,1.27 0.01,1.92 0.05,3.84 -0.02,5.76 -0.01,0.39 -0.37,0.96 -0.71,1.12 -1.42,0.66 -2.22,0.09 -2.39,-1.71 -0.18,-1.91 -0.96,-3.84 0.02,-5.75 0.07,-0.14 -0.01,-0.33 -0.04,-0.62 z M 47.85,35.14 c -0.06,-0.29 -0.08,-0.91 -0.31,-1.45 -0.19,-0.43 -0.58,-1.01 -0.95,-1.06 -0.33,-0.05 -0.88,0.45 -1.11,0.84 -0.74,1.27 -1.41,2.59 -2.03,3.93 -0.28,0.6 -0.36,1.29 -0.53,1.93 0.76,0.16 1.51,0.4 2.28,0.44 0.37,0.02 0.83,-0.27 1.13,-0.55 1.05,-1.02 1.53,-2.3 1.52,-4.08 z"
   id="path6"
   inkscape:connector-curvature="0"
   style="fill:#ffffff" />
        <path
   class="st0"
   d="m 95.98,161.67 c 0,0.83 0.04,1.67 -0.01,2.5 -0.07,1.14 -0.72,1.54 -1.77,1.15 -1.52,-0.57 -2.24,-1.92 -1.87,-3.51 0.24,-1.04 0.51,-2.08 0.76,-3.12 0.19,-0.79 0.72,-1.43 1.48,-1.19 0.55,0.17 1.15,0.87 1.29,1.45 0.22,0.86 0.06,1.81 0.06,2.73 0.02,-0.01 0.04,-0.01 0.06,-0.01 z"
   id="path8"
   inkscape:connector-curvature="0"
   style="fill:#ffffff" />
        <path
   class="st0"
   d="m 95.34,100.38 c 0.36,-1.08 0.76,-2.36 1.24,-3.61 0.24,-0.63 0.71,-0.71 1.36,-0.38 1.46,0.72 1.53,2.07 1.52,3.38 -0.01,0.9 -0.34,1.79 -0.53,2.69 -0.21,0.99 -0.96,1.49 -1.82,1.36 -0.5,-0.08 -1.01,-0.77 -1.3,-1.3 -0.29,-0.55 -0.29,-1.23 -0.47,-2.14 z"
   id="path10"
   inkscape:connector-curvature="0"
   style="fill:#ffffff" />
        <path
   class="st0"
   d="m 98.22,137.18 c -0.13,0.33 -0.2,0.99 -0.57,1.36 -1.03,1.03 -1.78,0.79 -2.57,-0.44 -1.08,-1.72 -0.53,-3.46 -0.16,-5.16 0.1,-0.44 0.96,-1 1.45,-0.98 0.46,0.02 1.14,0.67 1.27,1.17 0.33,1.22 0.39,2.51 0.58,4.05 z"
   id="path12"
   inkscape:connector-curvature="0"
   style="fill:#ffffff" />
    </g>
</g>
</svg>