<?xml version="1.0" encoding="UTF-8" standalone="no"?>
<!-- Generator: Adobe Illustrator 23.0.4, SVG Export Plug-In  -->

<svg
   xmlns:dc="http://purl.org/dc/elements/1.1/"
   xmlns:cc="http://creativecommons.org/ns#"
   xmlns:rdf="http://www.w3.org/1999/02/22-rdf-syntax-ns#"
   xmlns:svg="http://www.w3.org/2000/svg"
   xmlns="http://www.w3.org/2000/svg"
   xmlns:sodipodi="http://sodipodi.sourceforge.net/DTD/sodipodi-0.dtd"
   xmlns:inkscape="http://www.inkscape.org/namespaces/inkscape"
   version="1.1"
   x="0px"
   y="0px"
   width="255.12"
   height="255.12"
   viewBox="0 0 255.11999 255.12"
   xml:space="preserve"
   id="svg65"
   sodipodi:docname="icon_bearer.svg"
   inkscape:version="0.92.3 (2405546, 2018-03-11)"><metadata
   id="metadata69"><rdf:RDF><cc:Work
       rdf:about=""><dc:format>image/svg+xml</dc:format><dc:type
         rdf:resource="http://purl.org/dc/dcmitype/StillImage" /><dc:title></dc:title></cc:Work></rdf:RDF></metadata><sodipodi:namedview
   pagecolor="#ffffff"
   bordercolor="#666666"
   borderopacity="1"
   objecttolerance="10"
   gridtolerance="10"
   guidetolerance="10"
   inkscape:pageopacity="0"
   inkscape:pageshadow="2"
   inkscape:window-width="1920"
   inkscape:window-height="1017"
   id="namedview67"
   showgrid="false"
   inkscape:zoom="0.92505489"
   inkscape:cx="-55.201605"
   inkscape:cy="127.56"
   inkscape:window-x="-8"
   inkscape:window-y="-8"
   inkscape:window-maximized="1"
   inkscape:current-layer="svg65" />
<style
   type="text/css"
   id="style2">
    .st0{fill:#FFFFFF;}
</style>
<defs
   id="defs4">
</defs>
<g
   id="CdiQh8_2_"
   transform="translate(48.175766,-2.4414063e-6)">
    <g
   id="g62">
        <path
   class="st0"
   d="m 102.16,0 c 7.46,1.3 13.66,5.45 20.09,9.01 2.21,1.22 4.06,3.09 6.13,4.58 0.68,0.48 1.56,0.67 2.32,1.05 0.58,0.29 1.31,0.55 1.63,1.04 3.39,5.32 7.3,10.28 10.3,15.88 2.31,4.32 3.55,8.91 4.91,13.51 0.09,0.3 0.19,0.62 0.37,0.87 1.95,2.6 3.03,5.6 4.03,8.64 0.37,1.13 0.85,2.23 1.33,3.31 0.47,1.06 0.17,1.61 -0.99,1.89 -2.76,0.65 -5.41,0.03 -8.05,-0.63 -4.86,-1.21 -8.64,0.54 -11.61,4.28 -0.64,0.8 -0.76,2 -1.21,2.97 -4.34,9.25 3.01,17.51 10.81,18.79 2.93,0.48 5.78,0.52 8.64,-0.41 1.64,-0.54 2.88,-1.45 3.79,-2.92 0.27,-0.43 0.91,-1.04 1.25,-0.96 0.99,0.23 2.28,0.25 2.64,1.52 0.2,0.71 0.3,1.51 0.17,2.23 -0.49,2.71 -1.08,5.39 -1.64,8.08 -0.07,0.35 -0.16,0.7 -0.26,1.05 -1.6,5.09 -3.22,10.18 -4.77,15.29 -0.26,0.86 -0.37,1.8 -0.35,2.69 0.04,1.7 -0.97,2.92 -1.82,4.2 -0.14,0.21 -0.89,0.19 -1.24,0.02 -0.52,-0.25 -0.95,-0.72 -1.4,-1.11 -1.11,-0.95 -2.26,-1.68 -3.84,-1.66 -0.67,0.01 -1.42,-0.46 -1.99,-0.89 -1.01,-0.78 -2.02,-1.08 -3.23,-0.6 -0.78,0.3 -1.58,0.56 -2.37,0.83 -2.31,0.79 -3.68,2.47 -3.58,4.85 0.15,3.42 0.63,6.83 1.05,10.23 0.13,1.01 0.2,1.99 -0.6,2.67 -1.58,1.35 -2.28,3.24 -3.34,4.92 -0.52,0.82 -1.2,1.65 -2.01,2.14 -1.94,1.18 -3.99,2.19 -6.02,3.21 -0.41,0.21 -1.16,0.36 -1.41,0.14 -0.33,-0.29 -0.34,-0.96 -0.47,-1.47 -0.21,-0.82 -0.34,-1.66 -0.63,-2.44 -0.27,-0.74 -0.62,-1.49 -1.09,-2.11 -0.91,-1.19 -1.9,-2.33 -2.95,-3.39 -0.21,-0.21 -0.95,-0.15 -1.27,0.05 -0.28,0.18 -0.52,0.8 -0.42,1.11 0.09,0.27 0.67,0.54 1.04,0.54 1.19,0.01 1.48,0.52 1.15,1.6 -0.1,0.33 -0.02,0.71 -0.02,1.07 0.01,0.4 0.19,0.88 0.02,1.18 -1.09,2.02 -0.24,4.04 -0.17,6.07 0.05,1.46 -0.19,2.94 -0.38,4.4 -0.3,2.21 -0.61,4.42 -1.05,6.61 -0.21,1.04 -0.76,2.01 -1.12,3.02 -0.38,1.1 -1.2,1.51 -2.28,1.63 -1.6,0.18 -2.57,-0.43 -2.58,-2.04 -0.01,-1.7 0.28,-3.4 0.54,-5.09 0.39,-2.56 0.93,-5.11 1.28,-7.68 0.07,-0.51 -0.42,-1.09 -0.65,-1.63 -0.59,0.28 -1.24,0.47 -1.73,0.86 -0.3,0.24 -0.3,0.81 -0.52,1.18 -0.72,1.23 -1.37,2.51 -2.25,3.62 -0.88,1.12 -1.43,1.04 -2.77,0.15 -1.03,-0.68 -0.9,-1.47 -0.54,-2.49 1.18,-3.34 2.4,-6.67 3.28,-10.1 0.33,-1.29 0.05,-2.92 -0.44,-4.21 -0.9,-2.34 -1.89,-4.74 -3.36,-6.73 -1.52,-2.05 -3.53,-3.81 -6.2,-4.47 -0.53,-0.13 -1.09,-0.34 -1.52,-0.67 -2.87,-2.19 -6.07,-2.15 -9.38,-1.51 -0.59,0.11 -1.19,0.36 -1.76,0.3 -2.86,-0.27 -5,1.07 -6.93,2.94 -0.86,0.83 -1.77,1.63 -2.54,2.54 -0.52,0.62 -1.08,1.39 -1.18,2.16 -0.53,3.76 -1.07,7.52 -1.29,11.3 -0.16,2.78 0.49,5.49 2.42,7.71 0.29,0.33 0.63,0.7 0.71,1.09 0.11,0.54 0.1,1.17 -0.1,1.67 -0.07,0.18 -0.87,0.21 -1.28,0.09 -1.13,-0.34 -2.22,-0.8 -3.41,-1.25 0,0.47 -0.01,0.79 0,1.1 0.06,1.52 -0.37,1.93 -1.73,1.36 -1.28,-0.53 -2.57,-1.15 -3.65,-2 -1.62,-1.26 -2.38,-2.95 -2.25,-5.14 0.13,-2.08 0.52,-4.22 -0.46,-6.26 -0.97,-2.01 -3.71,-2.86 -5.43,-1.44 -1.99,1.64 -4,2.46 -6.42,1.06 -0.16,1.03 -0.26,1.99 -0.46,2.93 -0.18,0.81 -0.73,1 -1.45,0.61 -0.38,-0.21 -0.75,-0.45 -1.08,-0.73 -1.8,-1.51 -3.61,-3.02 -5.37,-4.58 -0.46,-0.41 -0.81,-0.98 -1.14,-1.52 -0.5,-0.84 -0.58,-1.55 0.61,-1.94 0.34,-0.11 0.62,-0.57 0.82,-0.93 0.88,-1.6 1.72,-3.22 2.57,-4.84 0.83,-1.59 1.83,-3.11 2.43,-4.78 1.18,-3.31 -1.17,-6.59 -4.63,-6.9 -4.32,-0.39 -7.99,1.05 -11.28,3.71 -0.95,0.77 -3.1,0.62 -4.14,-0.3 -1.88,-1.66 -3.84,-3.25 -5.6,-5.03 -2.56,-2.6 -4,-5.88 -4.84,-9.37 -0.78,-3.26 -1.31,-6.58 -1.9,-9.88 -0.23,-1.3 0.44,-1.96 1.78,-1.89 1.84,0.09 3.67,0.15 5.51,0.27 4.55,0.29 7.82,-1.85 9.94,-5.64 2.8,-4.99 3.57,-10.28 1.67,-15.83 -1.53,-4.46 -7.36,-7.72 -11.87,-6.49 -1.92,0.52 -3.81,1.17 -5.64,1.94 -2.12,0.89 -3.37,0.24 -3.49,-2.06 -0.08,-1.5 -0.25,-3.01 -0.11,-4.49 0.13,-1.37 0.48,-2.76 0.97,-4.05 1.67,-4.4 3.34,-8.8 5.2,-13.12 2,-4.61 4.67,-8.82 8.26,-12.4 1.07,-1.07 2.12,-2.19 3.02,-3.41 3.5,-4.74 8.05,-8.16 13.17,-10.94 4.7,-2.56 9.37,-5.17 14.06,-7.76 0.38,-0.21 0.78,-0.42 1.2,-0.54 2.49,-0.72 4.7,-1.97 6.75,-3.53 0.79,-0.6 1.7,-0.77 2.46,-0.23 1.12,0.8 2.16,1.76 3.1,2.77 0.69,0.75 -0.12,1.15 -0.66,1.42 -1.93,0.96 -3.19,2.5 -4,4.44 -1.27,3.02 -1.07,6.04 0.34,8.93 0.45,0.92 1.31,1.7 2.12,2.39 1.39,1.19 2.86,2.3 4.35,3.36 2.88,2.07 6.16,3.07 9.66,3.12 3.8,0.05 7.57,-0.3 11.1,-1.97 1.55,-0.74 2.85,-1.69 3.92,-3.05 3.25,-4.14 4.78,-8.71 3.83,-13.99 C 98.99,7.05 98.25,5.72 96.95,4.65 95.63,3.56 94.37,2.39 92.91,1.1 94.02,0.55 94.61,0.27 95.2,0 c 2.32,0 4.64,0 6.96,0 z m 6.11,134.98 c 0.71,-0.28 1.47,-0.38 1.89,-0.81 0.4,-0.4 0.7,-1.24 0.55,-1.73 -0.14,-0.43 -0.95,-0.81 -1.5,-0.87 -0.27,-0.03 -0.79,0.68 -0.9,1.13 -0.16,0.66 -0.04,1.4 -0.04,2.28 z M 20.81,58.54 c -0.36,0.04 -0.76,-0.04 -0.97,0.12 -0.33,0.26 -0.54,0.69 -0.8,1.04 0.33,0.19 0.66,0.52 1.01,0.55 0.54,0.04 1.12,-0.07 1.64,-0.23 0.24,-0.07 0.58,-0.42 0.57,-0.63 -0.01,-0.25 -0.3,-0.56 -0.55,-0.7 -0.27,-0.14 -0.62,-0.11 -0.9,-0.15 z m 7.94,52.42 c 0.66,0.66 0.8,0.64 1.87,-0.26 -0.78,-0.97 -0.91,-0.95 -1.87,0.26 z"
   id="path6"
   inkscape:connector-curvature="0"
   style="fill:#ffffff" />
        <path
   class="st0"
   d="m 49.12,255.12 c -2.62,-1.61 -3.24,-3.6 -2.43,-6.65 1.64,-6.21 3.19,-12.45 4.67,-18.7 0.72,-3.02 1.27,-6.09 1.72,-9.17 0.2,-1.4 -0.05,-2.87 -0.09,-4.3 -0.01,-0.48 -0.03,-0.96 -0.03,-1.44 0.01,-1.42 0.64,-2.59 1.54,-2.88 1.03,-0.33 2.55,0.31 3.3,1.46 0.74,1.14 1.39,2.33 2.14,3.46 1.18,1.77 2.28,1.79 3.57,0.11 1.66,-2.14 2.74,-4.55 3.59,-7.12 0.55,-1.66 1.56,-3.2 2.52,-4.69 0.64,-0.99 1.77,-0.87 2.72,-0.47 0.94,0.4 0.64,1.29 0.49,2 -0.39,1.96 -0.84,3.9 -1.28,5.84 -0.55,2.41 -2.07,4.19 -3.85,5.8 -0.27,0.24 -0.64,0.42 -0.8,0.72 -0.26,0.5 -0.39,1.06 -0.58,1.6 0.53,0.18 1.09,0.57 1.59,0.5 0.98,-0.13 1.91,-0.56 2.88,-0.79 1.28,-0.31 2.56,-0.58 3.86,-0.81 0.79,-0.14 1.69,-0.03 1.89,0.84 0.19,0.87 -0.06,1.75 -0.94,2.36 -1.44,1 -2.86,2.04 -4.2,3.17 -0.85,0.71 -1.6,1.56 -2.31,2.42 -2.59,3.09 -5.16,6.21 -7.72,9.33 -0.56,0.68 -1.09,1.38 -1.56,2.11 -2.98,4.64 -5.93,9.29 -8.92,13.92 -0.34,0.52 -0.86,0.92 -1.3,1.37 -0.15,0.01 -0.31,0.01 -0.47,0.01 z m 3.53,-15.55 c -0.84,1.03 -1,2.23 -0.95,3.48 0.01,0.32 0.23,0.62 0.36,0.94 0.35,-0.15 0.78,-0.22 1.03,-0.47 0.66,-0.65 0.37,-3.2 -0.44,-3.95 z"
   id="path8"
   inkscape:connector-curvature="0"
   style="fill:#ffffff" />
        <path
   class="st0"
   d="m 87.14,121.79 c 2.06,0.68 4.38,1.08 6.03,2.74 2.42,2.45 4.2,5.31 4.94,8.75 1.19,5.55 -1.59,10.33 -7.05,11.84 -0.99,0.27 -1.19,0.74 -1.13,1.6 0.09,1.2 -0.11,2.23 -1.14,3.1 -0.48,0.4 -0.7,1.24 -0.81,1.92 -0.37,2.33 -0.46,4.71 -0.98,7 -0.74,3.22 -1.76,6.38 -2.71,9.55 -0.09,0.29 -0.54,0.61 -0.86,0.66 -2.21,0.34 -4.09,-1.26 -4.04,-3.51 0.02,-1.07 0.29,-2.13 0.5,-3.19 0.76,-3.71 1.52,-7.43 2.32,-11.13 0.17,-0.81 0.4,-1.63 0.71,-2.4 0.71,-1.8 0.37,-2.82 -1.29,-3.8 -3.78,-2.25 -6.18,-5.66 -7.46,-9.75 -1.44,-4.62 1.41,-9.68 6.08,-11.33 1.69,-0.6 3.4,-1.15 5.11,-1.69 0.54,-0.16 1.1,-0.23 1.78,-0.36 z"
   id="path10"
   inkscape:connector-curvature="0"
   style="fill:#ffffff" />
        <path
   class="st0"
   d="m 9.15,161.71 c 0.39,-2.54 1.12,-5.09 2.73,-7.31 0.33,-0.45 0.65,-0.91 0.99,-1.35 0.76,-0.98 0.81,-1.96 0.32,-3.13 -0.68,-1.61 -1.25,-3.28 -1.73,-4.96 -0.18,-0.64 -0.13,-1.42 0.04,-2.08 0.83,-3.36 2.54,-6.26 4.75,-8.9 1.3,-1.56 2.56,-3.17 3.84,-4.75 0.13,-0.16 0.24,-0.32 0.39,-0.45 0.76,-0.66 1.53,-1.4 2.65,-0.93 0.73,0.31 1.02,1.8 0.52,2.96 -0.54,1.24 -1.24,2.41 -1.85,3.62 -1.19,2.35 -2.46,4.66 -3.49,7.08 -0.53,1.25 -0.68,2.68 -0.83,4.05 -0.1,0.88 0.44,1.18 1.33,0.87 0.66,-0.24 1.36,-0.44 2.06,-0.49 0.79,-0.06 1.07,0.45 0.82,1.18 -0.13,0.37 -0.34,0.72 -0.54,1.06 -1.53,2.67 -3.06,5.33 -4.59,8 -1.47,2.56 -2.21,5.27 -1.98,8.25 0.08,1.02 -0.03,2.08 -0.24,3.09 -0.25,1.19 -1.14,1.52 -2.18,0.92 -0.34,-0.2 -0.73,-0.44 -0.91,-0.76 -1,-1.85 -1.99,-3.69 -2.1,-5.97 z"
   id="path12"
   inkscape:connector-curvature="0"
   style="fill:#ffffff" />
        <path
   class="st0"
   d="m 110.01,173.62 c 0.33,-0.67 0.81,-1.31 0.96,-2.02 0.4,-1.91 0.53,-3.89 1.02,-5.77 1.11,-4.28 2.39,-8.52 3.56,-12.78 0.24,-0.88 0.76,-1.25 1.59,-1.36 1.63,-0.22 2.74,1.11 2.05,2.63 -0.46,1.02 -0.51,1.95 -0.23,3 0.14,0.5 0.02,1.11 -0.12,1.63 -0.61,2.23 -1.33,4.43 -1.89,6.68 -0.39,1.57 -0.59,3.19 -0.87,4.79 -0.53,3.06 -1.66,5.68 -4.9,6.78 -1.48,0.5 -2.43,1.53 -2.8,3.03 -0.66,2.63 -1.26,5.27 -1.88,7.91 -0.16,0.66 -0.25,1.34 -0.47,1.97 -0.44,1.28 -1.5,1.63 -2.67,0.91 -1.4,-0.87 -1.62,-2.2 -1.37,-3.67 0.55,-3.23 1.22,-6.43 1.69,-9.67 0.28,-1.93 0.26,-3.9 0.39,-5.85 0.03,-0.39 0.08,-0.8 0.21,-1.17 0.39,-1.13 1.48,-1.82 2.61,-1.68 1.25,0.16 1.51,1.12 1.75,2.13 0.2,0.82 0.47,1.61 0.71,2.42 0.22,0.02 0.44,0.06 0.66,0.09 z"
   id="path14"
   inkscape:connector-curvature="0"
   style="fill:#ffffff" />
        <path
   class="st0"
   d="m 41.77,194.76 c -0.23,0.43 -0.39,0.91 -0.7,1.27 -1.22,1.41 -2.28,1.57 -3.37,0.58 -1.65,-1.49 -1.85,-3.12 -0.64,-4.49 1.03,-1.16 2.05,-2.33 2.95,-3.59 3.28,-4.54 4.83,-9.6 4.28,-15.22 -0.08,-0.79 0.09,-1.42 0.82,-1.83 1.14,-0.64 1.86,-0.42 2.39,0.79 1.25,2.85 0.97,5.78 0.39,8.71 -0.22,1.13 -0.52,2.25 -0.72,3.39 -0.2,1.19 -0.45,2.31 -1.36,3.24 -1.03,1.06 -0.86,2.04 0.33,2.91 1.49,1.09 2,2.42 1.53,4.18 -1.13,4.24 -2.54,8.36 -5.86,11.47 -0.65,0.61 -1.46,1.03 -2.19,1.56 -0.48,0.34 -0.97,0.68 -1.42,1.07 -1.04,0.9 -1.95,0.38 -2.81,-0.26 -0.91,-0.67 -1.59,-1.58 -1.23,-2.75 0.14,-0.46 0.79,-0.94 1.3,-1.07 2.6,-0.65 4.19,-2.35 5.26,-4.68 0.53,-1.16 1.12,-2.3 1.61,-3.48 0.16,-0.39 0.08,-0.89 0.12,-1.34 -0.22,-0.16 -0.45,-0.31 -0.68,-0.46 z"
   id="path16"
   inkscape:connector-curvature="0"
   style="fill:#ffffff" />
        <path
   class="st0"
   d="m 23.68,138.97 c 0.06,-0.37 0.07,-1.08 0.3,-1.7 1.32,-3.48 1.53,-7.16 2.11,-10.77 0.14,-0.87 0.49,-1.77 0.95,-2.52 1.07,-1.73 2.21,-3.42 3.45,-5.03 1.73,-2.24 3.96,-3.81 6.81,-4.34 0.47,-0.09 0.95,-0.13 1.43,-0.12 1.23,0.04 2.12,0.65 2.66,1.74 0.54,1.1 0.29,2.15 -0.52,2.98 -0.74,0.77 -1.59,1.45 -2.44,2.11 -1.01,0.79 -1.8,1.65 -1.84,3.05 -0.01,0.48 -0.34,0.97 -0.59,1.41 -1.93,3.35 -3.94,6.66 -5.8,10.05 -0.66,1.2 -0.97,2.59 -1.46,3.88 -0.38,1 -0.72,2.03 -1.23,2.96 -0.51,0.93 -1.53,1.01 -2.34,0.25 -1.05,-0.97 -1.5,-2.22 -1.49,-3.95 z"
   id="path18"
   inkscape:connector-curvature="0"
   style="fill:#ffffff" />
        <path
   class="st0"
   d="m 147.7,128.31 c -0.29,1.15 -0.53,2.36 -0.91,3.52 -0.4,1.24 -0.94,2.44 -1.39,3.67 -0.41,1.1 -2.85,2.88 -4.04,2.87 -0.26,0 -0.64,-0.08 -0.76,-0.26 -1.09,-1.59 -2.78,-2.62 -2.6,-5.17 0.35,-4.8 -1.19,-9.37 -3.08,-13.76 -0.89,-2.08 -0.57,-3.15 1.55,-4.05 1.1,-0.46 2.25,-0.84 3.42,-1.06 0.5,-0.1 1.21,0.13 1.62,0.47 2.48,2.02 4.27,4.5 4.91,7.71 0.39,1.98 0.83,3.96 1.28,6.06 z"
   id="path20"
   inkscape:connector-curvature="0"
   style="fill:#ffffff" />
        <path
   class="st0"
   d="m 58.4,137.23 c -0.93,4.84 -0.35,9.82 -2.14,14.53 -1.42,3.75 -2.33,7.69 -3.53,11.53 -0.46,1.49 -1.01,1.67 -2.42,1.1 -1.98,-0.81 -3.06,-3.9 -2.31,-5.89 1.23,-3.23 2.35,-6.51 3.37,-9.81 0.48,-1.54 0.56,-3.2 0.91,-4.79 0.59,-2.64 1.24,-5.27 1.92,-7.89 0.23,-0.87 1.59,-1.36 2.89,-1.1 1.37,0.27 1.21,1.39 1.31,2.32 z"
   id="path22"
   inkscape:connector-curvature="0"
   style="fill:#ffffff" />
        <path
   class="st0"
   d="m 41.61,179.24 c -2.15,-1.15 -2.76,-3.2 -3.27,-5.31 -0.11,-0.46 -0.08,-0.97 -0.24,-1.41 -0.8,-2.19 -0.59,-4.35 -0.04,-6.56 0.3,-1.19 0.28,-2.47 0.6,-3.65 0.43,-1.6 0.93,-3.21 1.62,-4.72 0.66,-1.44 1.59,-2.76 2.41,-4.13 0.12,-0.21 0.25,-0.41 0.41,-0.59 0.71,-0.85 2.24,-1.26 3.04,-0.82 0.78,0.43 1.21,1.98 0.75,3.03 -0.45,1.02 -0.98,2.01 -1.54,2.97 -2.21,3.77 -2.98,7.99 -3.56,12.21 -0.25,1.8 0.32,3.71 0.51,5.58 0.12,1.15 0.37,2.32 -0.69,3.4 z"
   id="path24"
   inkscape:connector-curvature="0"
   style="fill:#ffffff" />
        <path
   class="st0"
   d="m 69.58,176.57 c 0.55,-3.4 0.96,-6.69 1.64,-9.92 0.58,-2.72 2.1,-4.99 4.22,-6.8 0.47,-0.4 1.19,-0.68 1.81,-0.7 1.46,-0.05 2.14,0.92 1.61,2.29 -0.84,2.19 -1.81,4.34 -2.64,6.54 -0.28,0.72 -0.33,1.53 -0.46,2.31 -0.37,2.1 -0.74,4.21 -1.11,6.31 -0.1,0.58 -0.26,1.16 -0.31,1.75 -0.07,0.79 0.12,1.66 -0.14,2.37 -0.25,0.66 -0.84,1.42 -1.46,1.66 -0.83,0.31 -1.34,-0.5 -1.61,-1.25 -0.55,-1.54 -1.05,-3.08 -1.55,-4.56 z"
   id="path26"
   inkscape:connector-curvature="0"
   style="fill:#ffffff" />
        <path
   class="st0"
   d="m 149.77,138.42 c -0.63,2.51 -1.09,4.74 -1.77,6.91 -0.93,2.96 -2.02,5.87 -3.07,8.8 -0.77,2.15 -2.66,3.02 -4.57,3.73 -1.29,0.48 -3.46,-1.64 -3.12,-2.99 0.1,-0.39 0.54,-0.8 0.93,-0.99 1.25,-0.61 2.05,-1.49 2.17,-2.92 0.02,-0.23 0.13,-0.46 0.22,-0.68 1.02,-2.41 1.97,-4.86 3.1,-7.23 0.85,-1.79 1.83,-3.53 2.94,-5.17 0.32,-0.47 1.32,-0.75 1.94,-0.67 0.5,0.08 0.89,0.85 1.23,1.21 z"
   id="path28"
   inkscape:connector-curvature="0"
   style="fill:#ffffff" />
        <path
   class="st0"
   d="m 72.38,195.08 c 0.29,-1.4 0.55,-3.45 1.15,-5.39 1.12,-3.66 2.43,-7.26 3.68,-10.88 0.33,-0.95 0.64,-1.9 2.03,-1.71 1.66,0.23 2.08,0.76 1.97,2.46 -0.3,4.79 -1.29,9.39 -3.42,13.73 -0.33,0.66 -0.39,1.46 -0.57,2.19 -0.08,0.31 -0.1,0.63 -0.2,0.93 -0.41,1.36 -1.53,2.18 -2.73,2.03 -1.23,-0.16 -1.93,-1.16 -1.91,-3.36 z"
   id="path30"
   inkscape:connector-curvature="0"
   style="fill:#ffffff" />
        <path
   class="st0"
   d="m 136.76,150.38 c -0.16,1.26 -0.54,2.54 -0.45,3.78 0.15,2 -0.3,3.8 -0.94,5.66 -1.06,3.05 -1.86,6.18 -2.78,9.28 -0.14,0.46 -0.27,0.93 -0.49,1.34 -0.92,1.76 -2.1,1.86 -3.28,0.26 -0.97,-1.32 -1.58,-2.56 -1.12,-4.46 0.65,-2.7 1.5,-5.27 2.72,-7.75 1.2,-2.43 2.29,-4.91 3.5,-7.34 0.33,-0.65 0.82,-1.29 1.4,-1.72 0.71,-0.51 1.56,0.08 1.44,0.95 z"
   id="path32"
   inkscape:connector-curvature="0"
   style="fill:#ffffff" />
        <path
   class="st0"
   d="m 21.48,168.6 c -0.92,3.58 -1.87,7.56 -2.99,11.49 -0.38,1.35 -1.58,2.16 -2.86,2.73 -0.89,0.4 -1.62,0.17 -2.24,-0.55 -1.32,-1.56 -1.17,-2.11 -0.32,-4 1.24,-2.75 2.18,-5.63 3.18,-8.48 0.73,-2.08 1.21,-4.2 0.45,-6.42 -0.17,-0.49 -0.04,-1.56 0.15,-1.61 0.65,-0.16 1.49,-0.2 2.05,0.1 0.65,0.35 1.34,1.02 1.56,1.7 0.46,1.48 0.64,3.04 1.02,5.04 z"
   id="path34"
   inkscape:connector-curvature="0"
   style="fill:#ffffff" />
        <path
   class="st0"
   d="m 128.6,188.52 c -0.71,-0.4 -1.28,-0.62 -1.71,-1 -0.78,-0.71 -0.67,-1.61 0.31,-1.99 2.16,-0.83 3.1,-2.45 3.45,-4.63 0.13,-0.81 0.45,-1.62 0.85,-2.34 1.58,-2.86 1.91,-6.06 2.6,-9.16 0.21,-0.96 0.53,-1.92 0.94,-2.81 0.42,-0.93 1.28,-1.17 2.23,-0.91 0.76,0.21 1.59,1.63 1.44,2.36 -0.67,3.44 -1.29,6.89 -2.05,10.31 -0.66,2.99 -2.17,5.6 -4.27,7.77 -1.01,1.05 -2.51,1.62 -3.79,2.4 z"
   id="path36"
   inkscape:connector-curvature="0"
   style="fill:#ffffff" />
        <path
   class="st0"
   d="m 91.45,162.16 c -0.19,2.76 -0.14,5.56 -0.65,8.26 -0.56,3 -1.61,5.9 -2.51,8.83 -0.33,1.06 -0.75,2.11 -1.28,3.08 -0.25,0.46 -0.87,1.01 -1.32,1 -0.43,-0.01 -1.03,-0.6 -1.24,-1.08 -0.58,-1.35 -0.92,-2.74 -0.49,-4.28 1.02,-3.69 1.95,-7.4 2.86,-11.11 0.15,-0.62 0.14,-1.34 0,-1.97 -0.36,-1.65 0.2,-3.07 1.22,-4.2 0.43,-0.47 1.54,-0.56 2.27,-0.44 0.93,0.15 1.15,1.02 1.14,1.91 z"
   id="path38"
   inkscape:connector-curvature="0"
   style="fill:#ffffff" />
        <path
   class="st0"
   d="m 134.4,133.65 c 1.37,0.03 2.35,1.98 1.54,3.17 -2.58,3.79 -2.16,8.33 -3.29,12.48 -0.37,1.38 -0.5,2.82 -0.74,4.24 -0.17,1.01 -0.81,1.29 -1.65,0.91 -0.67,-0.3 -1.6,-0.71 -1.78,-1.27 -0.48,-1.51 -1.04,-3.19 -0.81,-4.68 0.53,-3.42 1.55,-6.75 2.31,-10.14 0.49,-2.19 2.01,-3.47 3.76,-4.57 0.23,-0.14 0.55,-0.12 0.66,-0.14 z"
   id="path40"
   inkscape:connector-curvature="0"
   style="fill:#ffffff" />
        <path
   class="st0"
   d="m 112.29,187.47 c -0.47,2.48 -0.94,4.67 -1.3,6.87 -0.36,2.2 -0.69,4.41 -0.92,6.63 -0.28,2.72 -3.43,5.81 -6.13,5.8 -0.59,0 -1.26,-0.29 -1.75,-0.64 -1.01,-0.72 -0.86,-1.68 0.32,-2 1.96,-0.53 2.89,-1.88 3.23,-3.74 0.87,-4.75 1.69,-9.5 2.6,-14.24 0.12,-0.62 0.59,-1.61 0.98,-1.65 0.61,-0.06 1.47,0.39 1.91,0.89 0.56,0.61 0.79,1.51 1.06,2.08 z"
   id="path42"
   inkscape:connector-curvature="0"
   style="fill:#ffffff" />
        <path
   class="st0"
   d="m 49.44,176.95 c 0.1,-0.19 0.3,-0.61 0.53,-1.01 0.55,-0.93 1.18,-1.8 1.65,-2.77 1.08,-2.22 2.21,-4.42 3.05,-6.73 0.61,-1.66 0.77,-3.49 1.16,-5.24 0.13,-0.58 0.27,-1.17 0.49,-1.72 0.44,-1.07 1.53,-1.23 2.12,-0.27 0.69,1.12 1.24,2.32 1.82,3.5 0.08,0.15 0.07,0.38 0.03,0.56 -0.29,1.36 -0.59,2.71 -0.91,4.06 -0.1,0.43 -0.2,0.87 -0.39,1.25 -1.21,2.38 -2.25,4.88 -3.76,7.06 -0.98,1.41 -2.59,2.42 -4.05,3.43 -0.83,0.57 -1.75,-0.45 -1.74,-2.12 z"
   id="path44"
   inkscape:connector-curvature="0"
   style="fill:#ffffff" />
        <path
   class="st0"
   d="m 0,171.58 c 0.11,-4.25 1.33,-7.46 3.29,-10.4 0.39,-0.58 0.94,-1.13 1.55,-1.45 0.57,-0.29 1.3,-0.25 1.97,-0.36 0.11,0.73 0.57,1.68 0.27,2.14 -1.65,2.49 -1.37,5.36 -1.85,8.08 -0.53,3 -0.82,6.01 -0.07,9.02 0.06,0.23 0.05,0.48 0.04,0.72 -0.06,1.45 -0.75,1.83 -2,1.1 C 1.89,179.67 0.93,178.58 0.68,177.09 0.33,175.05 0.17,172.98 0,171.58 Z"
   id="path46"
   inkscape:connector-curvature="0"
   style="fill:#ffffff" />
        <path
   class="st0"
   d="m 34.62,141.5 c -0.17,0.57 -0.37,1.33 -0.63,2.08 -0.32,0.9 -0.63,1.81 -1.04,2.66 -0.38,0.77 -0.77,1.59 -1.36,2.2 -1.89,1.95 -3.8,3.89 -5.84,5.68 -1.37,1.2 -2.95,2.17 -4.46,3.21 -0.65,0.45 -1.18,0.23 -1.61,-0.42 -1.19,-1.82 -0.84,-2.92 1.22,-3.86 0.61,-0.28 1.25,-0.6 1.71,-1.07 1.95,-1.99 3.89,-4.01 5.75,-6.09 1.43,-1.61 1.76,-3.72 2.24,-5.74 0.25,-1.05 0.38,-2.09 1.83,-2.02 1.28,0.06 1.57,1.07 1.95,1.97 0.14,0.36 0.13,0.78 0.24,1.4 z"
   id="path48"
   inkscape:connector-curvature="0"
   style="fill:#ffffff" />
        <path
   class="st0"
   d="m 26.34,198.23 c 0.32,-2.99 1.02,-5.66 3.09,-7.77 1.28,-1.31 2.5,-2.7 3.92,-3.84 0.83,-0.66 1.98,-0.98 3.03,-1.28 0.38,-0.11 1.11,0.17 1.3,0.49 0.19,0.33 0.06,1.02 -0.18,1.4 -0.64,1.05 -1.43,2.02 -2.13,3.04 -0.95,1.38 -1.92,2.75 -2.82,4.16 -1.11,1.72 -1.54,3.61 -1.61,5.67 -0.04,1.17 -0.6,2.36 -1.07,3.48 -0.38,0.91 -1.09,0.74 -1.57,0.06 -1.19,-1.66 -1.84,-3.53 -1.96,-5.41 z"
   id="path50"
   inkscape:connector-curvature="0"
   style="fill:#ffffff" />
        <path
   class="st0"
   d="m 101.16,183.8 c -2.01,0.56 -2.01,2.09 -2.16,3.71 -0.49,5.21 -1.1,10.4 -1.73,15.59 -0.17,1.42 -0.99,1.71 -2.19,0.89 -1.23,-0.83 -1.81,-1.99 -1.67,-3.48 0.43,-4.33 0.85,-8.66 1.3,-12.99 0.26,-2.5 2.26,-4.35 4.74,-4.38 0.54,-0.01 1.08,0.22 1.62,0.35 0.03,0.1 0.06,0.2 0.09,0.31 z"
   id="path52"
   inkscape:connector-curvature="0"
   style="fill:#ffffff" />
        <path
   class="st0"
   d="m 81.33,190.56 c 1.33,-0.03 2.33,1.02 2.17,2.03 -0.65,4.03 -0.61,8.22 -2.76,11.93 -0.71,1.23 -1.01,2.69 -1.62,3.99 -0.45,0.96 -1.07,1.86 -1.7,2.72 -0.46,0.62 -1.12,0.96 -1.87,0.39 -0.74,-0.57 -1.23,-1.21 -0.77,-2.25 0.81,-1.82 1.7,-3.62 2.28,-5.52 0.81,-2.7 1.36,-5.48 2.04,-8.21 0.31,-1.24 0.58,-2.5 1.06,-3.67 0.25,-0.64 0.89,-1.09 1.17,-1.41 z"
   id="path54"
   inkscape:connector-curvature="0"
   style="fill:#ffffff" />
        <path
   class="st0"
   d="m 70.99,189.21 c -0.22,0.61 -0.38,1.22 -0.65,1.78 -1,2.04 -2.04,4.07 -3.08,6.09 -1.09,2.11 -1.59,4.32 -1.36,6.71 0.11,1.15 0.06,2.32 0.02,3.47 -0.04,1.28 -1.2,2.04 -2.21,1.29 -0.8,-0.6 -1.56,-1.56 -1.82,-2.5 -0.71,-2.5 -0.4,-5.01 0.81,-7.33 1.41,-2.69 2.89,-5.34 4.38,-7.98 0.81,-1.42 1.97,-1.86 3.91,-1.53 z"
   id="path56"
   inkscape:connector-curvature="0"
   style="fill:#ffffff" />
        <path
   class="st0"
   d="m 122.7,187.04 c -3.78,-1.03 -5.21,-3.5 -4.24,-7.21 0.67,-2.54 1.24,-5.11 1.95,-7.64 0.3,-1.07 0.79,-2.08 1.27,-3.09 0.45,-0.94 1.5,-1.33 2.4,-0.94 1.01,0.44 0.92,1.24 0.69,2.12 -0.64,2.39 -1.2,4.8 -1.86,7.18 -0.69,2.5 -0.73,4.96 0.14,7.41 0.28,0.78 0.41,1.55 -0.35,2.17 z"
   id="path58"
   inkscape:connector-curvature="0"
   style="fill:#ffffff" />
        <path
   class="st0"
   d="m 99.77,166.19 c 0.05,-3.39 0.61,-6.65 2.09,-9.74 0.7,-1.45 1.97,-1.75 3.38,-1.39 1.21,0.31 1.77,1.39 1.05,2.4 -1.89,2.65 -1.62,5.77 -2.21,8.7 -0.31,1.56 -0.58,3.14 -1.07,4.64 -0.41,1.26 -1.07,1.32 -2.02,0.36 -1.21,-1.23 -1.2,-2.8 -1.22,-4.37 0,-0.2 0,-0.4 0,-0.6 z"
   id="path60"
   inkscape:connector-curvature="0"
   style="fill:#ffffff" />
    </g>
</g>
</svg>