<?xml version="1.0" encoding="UTF-8" standalone="no"?>
<!-- Generator: Adobe Illustrator 23.0.4, SVG Export Plug-In  -->

<svg
   xmlns:dc="http://purl.org/dc/elements/1.1/"
   xmlns:cc="http://creativecommons.org/ns#"
   xmlns:rdf="http://www.w3.org/1999/02/22-rdf-syntax-ns#"
   xmlns:svg="http://www.w3.org/2000/svg"
   xmlns="http://www.w3.org/2000/svg"
   xmlns:sodipodi="http://sodipodi.sourceforge.net/DTD/sodipodi-0.dtd"
   xmlns:inkscape="http://www.inkscape.org/namespaces/inkscape"
   version="1.1"
   x="0px"
   y="0px"
   width="224.022"
   height="224.022"
   viewBox="0 0 224.02201 224.022"
   xml:space="preserve"
   id="svg17"
   sodipodi:docname="mystic.svg"
   inkscape:version="0.92.3 (2405546, 2018-03-11)"><metadata
   id="metadata21"><rdf:RDF><cc:Work
       rdf:about=""><dc:format>image/svg+xml</dc:format><dc:type
         rdf:resource="http://purl.org/dc/dcmitype/StillImage" /><dc:title></dc:title></cc:Work></rdf:RDF></metadata><sodipodi:namedview
   pagecolor="#ffffff"
   bordercolor="#666666"
   borderopacity="1"
   objecttolerance="10"
   gridtolerance="10"
   guidetolerance="10"
   inkscape:pageopacity="0"
   inkscape:pageshadow="2"
   inkscape:window-width="1920"
   inkscape:window-height="1017"
   id="namedview19"
   showgrid="false"
   inkscape:zoom="1.0539949"
   inkscape:cx="-6.1320168"
   inkscape:cy="111.955"
   inkscape:window-x="-8"
   inkscape:window-y="-8"
   inkscape:window-maximized="1"
   inkscape:current-layer="svg17" />
<style
   type="text/css"
   id="style2">
    .st0{fill:#FFFFFF;}
</style>
<defs
   id="defs4">
</defs>
<g
   id="xZaYHz_2_"
   transform="translate(0.04221842,0.09116989)">
    <g
   id="g14">
        <path
   class="st0"
   d="m 223.98,117.36 c -0.12,1.67 -0.28,3.34 -0.34,5.01 -0.32,8.04 -2.81,15.5 -5.93,22.82 -1.56,3.66 -2.75,7.49 -4.06,11.26 -1.57,4.52 -4.28,8.37 -6.98,12.24 -0.59,0.85 -1.25,1.67 -1.95,2.43 -2.97,3.23 -5.88,6.51 -8.97,9.62 -2.39,2.4 -5.26,4.13 -8.49,5.27 -1.09,0.38 -2.12,0.93 -3.14,1.48 -3.49,1.88 -7.11,3.2 -11.17,3.15 -1.54,-0.02 -3.12,0.26 -4.62,0.63 -3.56,0.86 -7.08,0.11 -10.61,-0.11 -0.78,-0.05 -1.59,0.26 -2.39,0.35 -0.9,0.1 -1.82,0.3 -2.7,0.19 -5.45,-0.67 -10.72,-2.01 -15.86,-4.02 -4.34,-1.69 -8.88,-2.89 -13.21,-4.6 -6.98,-2.75 -12.55,-7.34 -16.97,-13.44 -2.39,-3.29 -5.08,-6.36 -7.64,-9.53 -2.05,-2.54 -3.21,-5.47 -4.03,-8.6 -0.32,-1.24 -0.76,-2.56 -1.5,-3.58 -2.36,-3.23 -4.73,-6.46 -7.39,-9.44 -3.55,-3.99 -5.34,-8.74 -6.16,-13.82 -0.36,-2.22 0.24,-4.71 0.86,-6.95 1.35,-4.86 3.03,-9.72 6.5,-13.48 4.41,-4.79 9.69,-8.46 16.16,-10.03 1.34,-0.33 2.77,-0.37 4.16,-0.42 0.51,-0.02 1.06,0.26 1.55,0.5 1.17,0.58 2.29,0.92 3.66,0.44 2.76,-0.96 5.51,-0.66 8.17,0.53 0.22,0.1 0.46,0.19 0.62,0.35 4.68,4.58 9.17,9.31 11.12,15.81 1.45,4.84 1.97,9.78 1.37,14.82 -0.05,0.4 -0.11,0.8 -0.07,1.2 0.34,3.25 -0.35,6.36 -1.25,9.43 -0.2,0.7 -0.7,1.32 -1.08,1.96 -0.74,1.22 -1.49,2.43 -2.24,3.64 -0.98,1.56 -0.66,2.98 0.31,4.45 2.46,3.74 5.49,6.95 8.88,9.86 1.01,0.87 1.75,2.04 2.72,2.96 0.82,0.79 1.69,1.65 2.71,2.08 5.94,2.56 12.1,3.23 18.4,1.57 3.95,-1.04 7.49,-2.99 10.75,-5.4 1.96,-1.45 3.82,-3.03 5.7,-4.58 2.86,-2.37 5.25,-5.14 7.06,-8.4 1.71,-3.07 3.74,-5.99 5.1,-9.21 1.99,-4.69 2.75,-9.75 3.39,-14.79 0.81,-6.34 1.62,-12.69 2.22,-19.05 0.22,-2.36 -0.02,-4.79 -0.29,-7.15 -0.44,-3.85 -0.87,-7.72 -1.68,-11.5 -0.82,-3.86 -2.22,-7.54 -4.29,-10.99 -1.78,-2.97 -3.23,-6.16 -3.6,-9.7 0,-0.04 0,-0.08 -0.01,-0.12 -1.47,-2.99 -2.72,-6.14 -5.25,-8.46 -0.99,-0.91 -2.31,-1.48 -3.28,-2.4 -1.11,-1.06 -1.95,-2.38 -2.99,-3.52 -0.79,-0.87 -1.6,-1.76 -2.56,-2.43 -1.35,-0.94 -2.76,-1.74 -3.41,-3.4 -0.13,-0.34 -0.73,-0.53 -1.14,-0.71 -1.46,-0.61 -3.02,-1.03 -4.39,-1.79 -1.81,-1.01 -3.51,-2.22 -5.19,-3.44 -3.14,-2.27 -6.55,-3.96 -10.24,-5.13 -1.06,-0.34 -2.14,-0.71 -3.12,-1.23 -6.41,-3.41 -13.27,-5.41 -20.36,-6.81 -3.91,-0.77 -7.77,-1.81 -11.68,-2.63 -1.16,-0.24 -2.39,-0.15 -3.58,-0.21 -1.79,-0.08 -3.59,-0.18 -5.38,-0.2 -1.15,-0.01 -2.31,0.05 -3.45,0.18 -3.09,0.36 -6.18,0.7 -9.25,1.2 -5.02,0.81 -9.95,1.97 -14.37,4.67 -1.33,0.81 -2.71,1.55 -4.15,2.14 -2.56,1.07 -4.99,2.27 -6.88,4.42 -0.5,0.57 -1.29,1.06 -2.02,1.2 -1.32,0.24 -2.07,1.06 -2.85,2 -0.86,1.03 -1.78,2.03 -2.78,2.93 -3.72,3.35 -7.25,6.86 -10.21,10.93 -0.93,1.28 -2.13,2.35 -3.16,3.56 -0.88,1.03 -1.78,2.05 -2.54,3.16 -2.64,3.86 -5.18,7.78 -7.85,11.63 -0.84,1.21 -1.89,2.27 -2.93,3.32 -2.37,2.39 -3.8,5.27 -4.74,8.48 -0.54,1.86 -1.44,3.62 -2.14,5.43 -0.88,2.26 -1.8,4.5 -2.55,6.8 -0.6,1.86 -1.04,3.78 -1.41,5.69 -0.39,2.03 -0.59,4.1 -0.92,6.14 -0.3,1.84 -0.9,3.67 -0.94,5.51 -0.08,3.14 0.04,6.31 0.3,9.44 0.65,8.02 2.21,15.9 3.97,23.74 0.05,0.23 0.06,0.5 0.17,0.69 2.04,3.45 1.69,7.72 3.85,11.11 3.14,10.49 9.45,19.01 16.73,26.93 5.44,5.92 10.79,11.92 16.36,17.72 1.82,1.9 4.21,3.26 6.31,4.9 2.07,1.62 4.09,3.31 6.15,4.93 0.65,0.51 1.33,1.05 2.08,1.34 5.03,1.91 10.08,3.76 15.12,5.62 0.44,0.16 0.93,0.28 1.4,0.26 2.42,-0.1 4.68,0.53 6.85,1.48 2.16,0.93 4.25,1.16 6.49,0.2 0.55,-0.23 1.56,0.15 2.14,0.55 0.9,0.63 1.8,0.86 2.88,0.94 3.54,0.26 7.08,0.71 10.62,0.97 1.66,0.12 3.35,0.1 5,-0.08 1.87,-0.2 3.62,0.1 5.18,1.05 0.59,0.36 0.89,1.21 1.46,2.05 -0.94,0.17 -1.55,0.37 -2.17,0.38 -3.95,0.07 -7.9,0.16 -11.86,0.1 -2.02,-0.03 -4.04,-0.36 -6.06,-0.57 -0.71,-0.08 -1.43,-0.36 -2.13,-0.31 -1.53,0.11 -2.74,-0.4 -3.97,-1.28 -0.55,-0.39 -1.65,-0.42 -2.31,-0.16 -1.29,0.53 -2.38,0.5 -3.51,-0.27 -0.19,-0.13 -0.42,-0.21 -0.65,-0.26 -1.56,-0.41 -3.12,-0.86 -4.7,-1.2 -1.11,-0.24 -2.25,-0.35 -3.38,-0.5 -0.16,-0.02 -0.35,0.07 -0.47,0.01 -1.96,-0.89 -3.95,-0.3 -5.95,-0.29 -1.62,0 -3.27,-0.56 -4.84,-1.07 -2.92,-0.95 -5.73,-2.63 -8.7,-2.93 -5.29,-0.54 -9.15,-3.97 -13.75,-5.83 -4.34,-1.76 -8.32,-4.26 -11.72,-7.57 -0.26,-0.25 -0.63,-0.47 -0.73,-0.77 -0.53,-1.67 -1.93,-2.43 -3.21,-3.4 -1.87,-1.41 -3.73,-2.9 -5.34,-4.59 -2.47,-2.61 -4.8,-5.37 -7.06,-8.17 -1.25,-1.55 -2.21,-3.32 -3.36,-4.96 -2.06,-2.94 -4.22,-5.82 -6.23,-8.79 -1.06,-1.58 -1.92,-3.3 -2.83,-4.98 -2.14,-3.97 -4.32,-7.92 -6.36,-11.94 -0.72,-1.41 -1.13,-2.97 -1.62,-4.49 -1.16,-3.65 -2.06,-7.39 -3.45,-10.94 -1.94,-4.99 -2.72,-10.25 -4.01,-15.4 -1.16,-4.63 -2.13,-9.3 -1.68,-14.1 0.69,-7.23 1.25,-14.5 3.81,-21.41 0.31,-0.84 0.26,-1.8 0.46,-2.69 0.36,-1.54 0.7,-3.08 1.21,-4.57 0.54,-1.57 1.37,-3.04 1.87,-4.62 1.77,-5.61 3.88,-11.04 6.88,-16.15 3.03,-5.16 5.68,-10.55 8.6,-15.78 0.66,-1.19 1.61,-2.28 2.6,-3.24 1.44,-1.4 2.51,-2.97 3.19,-4.85 0.33,-0.92 0.82,-1.8 1.32,-2.65 0.49,-0.82 1.14,-1.55 1.62,-2.38 3.49,-6.1 8.54,-10.75 14.1,-14.84 3.21,-2.36 6.72,-4.3 10.12,-6.4 0.57,-0.35 1.21,-0.69 1.86,-0.82 2.71,-0.53 5.04,-1.92 7.47,-3.09 4.03,-1.93 8.4,-2.49 12.77,-3 4.2,-0.49 8.41,-0.79 12.53,-1.97 1.91,-0.54 4.04,-0.31 6.07,-0.44 0.79,-0.05 1.58,-0.15 2.36,-0.22 2.24,0 4.48,0 6.72,0 1.82,0.16 3.64,0.31 5.46,0.48 5.61,0.52 11.23,0.94 16.82,1.6 6.57,0.78 12.89,2.66 19.1,4.92 5.69,2.08 11.49,3.87 17.08,6.18 4.47,1.84 8.26,5.18 13.12,6.28 7.34,3.89 14.28,8.34 20.16,14.31 3.84,3.91 7.04,8.27 9.77,13 0.62,1.07 1.24,2.2 2.12,3.03 1.42,1.33 2.4,2.88 3.13,4.62 0.88,2.1 1.83,4.18 2.59,6.31 1.4,3.9 2.79,7.82 3.98,11.79 0.46,1.54 0.34,3.25 0.55,4.86 1.32,9.78 2.69,19.55 3.99,29.33 0.27,2.01 0.31,4.05 0.45,6.08 0.03,1.56 0.03,3.08 0.03,4.6 z m -27.91,57.16 c -2.52,1.82 -2.55,1.87 -1.87,2.85 0.85,-0.64 1.69,-1.27 2.6,-1.95 -0.27,-0.34 -0.49,-0.6 -0.73,-0.9 z"
   id="path6"
   inkscape:connector-curvature="0"
   style="fill:#ffffff" />
        <path
   class="st0"
   d="m 35.31,128 c -0.99,-1.33 -1.85,-2.38 -2.6,-3.51 -1.01,-1.52 -1.03,-3.15 0.1,-4.59 2.24,-2.85 4.6,-5.61 6.88,-8.44 0.77,-0.96 1.39,-2.04 2.16,-3.01 0.86,-1.09 1.79,-2.11 2.7,-3.15 0.37,-0.42 0.86,-0.77 1.12,-1.24 2.2,-4.08 5.65,-7.05 9.09,-9.95 5.41,-4.56 10.74,-9.3 16.64,-13.14 6.93,-4.52 14.29,-8.5 22.53,-10.37 4.98,-1.13 9.91,-2.49 14.94,-3.27 3.23,-0.5 6.61,0.02 9.91,-0.19 4.88,-0.31 9.4,0.99 13.91,2.55 0.75,0.26 1.65,0.15 2.48,0.11 2.4,-0.12 4.17,0.9 5.03,3.1 0.38,0.96 0.28,2.14 0.27,3.22 -0.01,0.58 -0.47,1.18 -0.4,1.73 0.09,0.68 0.38,1.67 0.85,1.86 0.48,0.2 1.48,-0.24 1.91,-0.72 0.71,-0.78 1.14,-1.82 1.69,-2.75 1.04,-1.75 1.94,-1.78 3,-0.08 0.72,1.16 1.81,1.75 3.1,2.08 1.73,0.45 3.54,0.76 5.17,1.47 1.54,0.67 2.91,1.76 4.34,2.68 0.5,0.32 0.95,0.73 1.45,1.05 1.86,1.23 3.74,2.43 5.59,3.67 0.43,0.29 0.82,0.65 1.14,1.05 2.26,2.81 4.6,5.56 6.72,8.48 2.11,2.91 3.97,6 5.95,9 3.24,4.89 4.87,10.4 5.95,16.07 0.26,1.35 -0.16,2.82 -0.28,4.5 -1.74,-0.98 -2.86,-2.03 -3.72,-3.5 -0.53,-0.91 -1.42,-1.65 -2.23,-2.37 -1.25,-1.1 -2.66,-2.02 -3.85,-3.18 -3.06,-2.99 -6.04,-6.05 -9.02,-9.11 -1.16,-1.2 -2.08,-2.7 -3.39,-3.68 -3.13,-2.34 -6.36,-4.58 -9.68,-6.64 -7.74,-4.8 -16.31,-7.2 -25.26,-8.46 -3.24,-0.46 -6.43,-1.29 -9.68,-1.58 -2.57,-0.23 -5.19,0.08 -7.78,0.23 -3.47,0.19 -6.94,0.45 -10.41,0.69 -0.35,0.02 -0.71,0.11 -1.05,0.22 -5.01,1.63 -10.04,3.22 -14.74,5.66 -0.95,0.49 -2.03,0.7 -3.02,1.13 -1.93,0.85 -3.89,1.65 -5.73,2.67 -3.91,2.17 -7.69,4.58 -11.63,6.68 -4.89,2.6 -9.02,6.19 -13.25,9.66 -3.15,2.59 -6.16,5.33 -9.25,7.99 -0.54,0.47 -1.11,0.96 -1.76,1.24 -2.2,0.95 -4.31,1.96 -5.89,4.14 z m 143.65,-17.75 c -0.73,1.55 -0.15,2.64 1.52,2.95 0.41,-1.4 -0.51,-2.13 -1.52,-2.95 z"
   id="path8"
   inkscape:connector-curvature="0"
   style="fill:#ffffff" />
        <path
   class="st0"
   d="m 138.81,137.83 c 0.53,-2.18 1.14,-4.56 1.66,-6.98 0.15,-0.7 -0.02,-1.46 -0.01,-2.2 0,-1.51 -0.08,-3.02 0.1,-4.51 0.05,-0.4 0.87,-0.91 1.41,-1 1.65,-0.29 3.34,-0.35 4.99,-0.6 4.53,-0.69 8.97,-1.67 13.24,-3.42 2.24,-0.92 4.62,-1.51 6.92,-2.29 0.73,-0.25 1.27,-0.04 1.41,0.63 0.2,1.02 0.48,2.14 0.24,3.11 -0.58,2.38 -2.19,4.19 -4.15,5.55 -5.29,3.66 -10.57,7.33 -16.02,10.72 -2.52,1.56 -5.43,2.49 -8.19,3.63 -0.27,0.11 -0.94,-0.22 -1.09,-0.51 -0.29,-0.55 -0.32,-1.22 -0.51,-2.13 z"
   id="path10"
   inkscape:connector-curvature="0"
   style="fill:#ffffff" />
        <path
   class="st0"
   d="m 82.87,143.34 c -0.28,0.4 -0.62,0.97 -1.05,1.45 -0.19,0.21 -0.57,0.27 -0.87,0.36 -1.63,0.5 -2.82,0.46 -4.05,-1.25 -0.99,-1.37 -2.84,-2.35 -4.5,-2.97 -4.76,-1.76 -9.12,-4.22 -13.36,-6.94 -1.27,-0.81 -2.21,-1.84 -2.68,-3.26 -0.51,-1.55 -0.99,-3.11 -1.45,-4.68 -0.28,-0.94 0.13,-1.3 1.06,-1.09 0.66,0.15 1.35,0.28 1.95,0.57 3.44,1.7 7.17,2.11 10.89,2.61 0.79,0.11 1.59,0.15 2.38,0.28 1.04,0.18 1.93,0.02 2.79,-0.68 0.95,-0.77 1.96,-0.58 2.31,0.58 1.52,4.92 4.05,9.37 6.31,13.94 0.12,0.26 0.14,0.55 0.27,1.08 z"
   id="path12"
   inkscape:connector-curvature="0"
   style="fill:#ffffff" />
    </g>
</g>
</svg>