<?xml version="1.0" encoding="UTF-8" standalone="no"?>
<!-- Generator: Adobe Illustrator 23.0.4, SVG Export Plug-In  -->

<svg
   xmlns:dc="http://purl.org/dc/elements/1.1/"
   xmlns:cc="http://creativecommons.org/ns#"
   xmlns:rdf="http://www.w3.org/1999/02/22-rdf-syntax-ns#"
   xmlns:svg="http://www.w3.org/2000/svg"
   xmlns="http://www.w3.org/2000/svg"
   xmlns:sodipodi="http://sodipodi.sourceforge.net/DTD/sodipodi-0.dtd"
   xmlns:inkscape="http://www.inkscape.org/namespaces/inkscape"
   version="1.1"
   x="0px"
   y="0px"
   width="222.144"
   height="222.144"
   viewBox="0 0 222.144 222.144"
   xml:space="preserve"
   id="svg13"
   sodipodi:docname="scout.svg"
   inkscape:version="0.92.3 (2405546, 2018-03-11)"><metadata
   id="metadata17"><rdf:RDF><cc:Work
       rdf:about=""><dc:format>image/svg+xml</dc:format><dc:type
         rdf:resource="http://purl.org/dc/dcmitype/StillImage" /><dc:title></dc:title></cc:Work></rdf:RDF></metadata><sodipodi:namedview
   pagecolor="#ffffff"
   bordercolor="#666666"
   borderopacity="1"
   objecttolerance="10"
   gridtolerance="10"
   guidetolerance="10"
   inkscape:pageopacity="0"
   inkscape:pageshadow="2"
   inkscape:window-width="1920"
   inkscape:window-height="1017"
   id="namedview15"
   showgrid="false"
   inkscape:zoom="1.0891638"
   inkscape:cx="-3.2678766"
   inkscape:cy="108.34"
   inkscape:window-x="-8"
   inkscape:window-y="-8"
   inkscape:window-maximized="1"
   inkscape:current-layer="svg13" />
<style
   type="text/css"
   id="style2">
    .st0{fill:#FFFFFF;}
</style>
<defs
   id="defs4">
</defs>
<g
   id="CuTzBX_2_"
   transform="translate(0.02383976,2.7214784)">
    <g
   id="g10">
        <path
   class="st0"
   d="m 222.08,3.6 c -2.98,4.91 -6.09,9.74 -8.9,14.75 -3.8,6.75 -7.93,13.32 -10.76,20.58 -1.19,3.04 -2.33,6.19 -4.08,8.9 -1.36,2.1 -2.44,4.28 -3.43,6.53 -3.78,8.58 -7.49,17.2 -11.25,25.79 -1.28,2.92 -2.69,5.78 -3.92,8.72 -0.61,1.45 -1,3.01 -1.35,4.55 -0.28,1.23 -0.8,1.62 -2.01,1.18 -2.35,-0.86 -3.53,-3.38 -2.78,-5.72 0.71,-2.22 1.17,-4.44 0.56,-6.82 -0.27,-1.04 -0.05,-2.21 -0.07,-3.32 -0.08,-3.79 -0.15,-7.59 -0.27,-11.38 -0.12,-3.76 -0.29,-7.51 -0.45,-11.27 -0.06,-1.4 -0.14,-2.8 -0.26,-4.19 -0.12,-1.3 -0.68,-1.6 -1.85,-1 -0.41,0.21 -0.79,0.54 -1.1,0.9 -2.88,3.27 -5.67,6.62 -8.64,9.81 -1.81,1.94 -3.96,3.57 -5.84,5.45 -2.96,2.97 -6.08,5.78 -8.42,9.33 -0.64,0.97 -1.74,1.64 -2.56,2.5 -1.53,1.61 -3.12,3.19 -4.5,4.93 -2.84,3.58 -5.63,7.21 -8.32,10.9 -5.59,7.67 -12.1,14.63 -17.3,22.62 -4.29,6.59 -8.65,13.12 -12.27,20.11 -0.65,1.25 -1.54,2.37 -2.33,3.55 -0.13,-0.03 -0.26,-0.06 -0.39,-0.1 -0.13,-0.47 -0.34,-0.93 -0.39,-1.4 -0.09,-0.87 0.02,-1.77 -0.13,-2.63 -0.29,-1.67 -0.63,-3.35 -1.09,-4.98 -0.33,-1.18 -0.98,-2.27 -1.3,-3.46 -0.38,-1.37 -1.37,-1.58 -2.53,-1.78 -1.14,-0.2 -1.81,0.14 -2.47,1.14 -4.28,6.56 -8.61,13.08 -12.98,19.58 -0.73,1.09 -1.67,2.04 -2.59,2.99 -1.87,1.94 -3.32,4.15 -4.74,6.44 -1.36,2.18 -3.26,4.01 -4.94,5.98 -0.45,0.53 -1.07,0.52 -1.43,-0.04 -0.41,-0.65 -0.95,-1.44 -0.88,-2.12 0.18,-1.84 0.26,-3.76 1.53,-5.33 0.22,-0.27 0.28,-0.75 0.26,-1.12 -0.03,-0.47 -0.17,-0.94 -0.34,-1.39 -0.94,-2.47 -1.11,-2.44 -3.74,-2.6 -2.05,-0.12 -4.09,-0.64 -6.13,-0.97 -1.1,-0.18 -2.2,-0.46 -3.3,-0.52 -4.39,-0.23 -8.78,-0.44 -13.18,-0.58 -4.99,-0.16 -7.34,0.27 -15.15,2.58 -0.37,-1.39 -0.11,-2.68 0.48,-3.92 0.42,-0.9 0.82,-1.86 1.44,-2.61 0.58,-0.71 1.37,-1.33 2.19,-1.76 1.48,-0.77 3.06,-1.36 4.58,-2.04 5.32,-2.38 10.66,-4.73 15.96,-7.15 6.31,-2.89 12.08,-6.54 17.33,-11.2 2.93,-2.6 5.76,-5.41 8.94,-7.71 3.62,-2.63 6.68,-5.8 10,-8.74 2.85,-2.53 5.41,-5.3 8.09,-7.98 0.76,-0.76 1.65,-1.39 2.56,-1.97 2.2,-1.4 3.75,-3.29 4.73,-5.71 0.32,-0.78 0.96,-1.44 1.29,-2.22 0.35,-0.82 0.51,-1.72 0.77,-2.67 0.13,0.02 0.35,0.05 0.56,0.11 1.07,0.31 1.8,-0.01 2.41,-0.98 1.45,-2.29 2.99,-4.52 4.54,-6.84 1.26,0.68 1.97,1.65 2.22,2.91 0.15,0.74 0.21,1.51 0.17,2.26 -0.13,2.61 0.54,3.21 3.15,2.73 0.16,-0.03 0.34,-0.08 0.47,-0.03 1.76,0.62 2.51,-0.55 3.11,-1.82 1.54,-3.28 3.81,-5.92 6.58,-8.27 2.21,-1.88 4.05,-4.2 6.11,-6.26 5.76,-5.78 11.61,-11.47 17.3,-17.31 3.2,-3.29 6.19,-6.78 9.2,-10.25 0.46,-0.53 0.86,-1.61 0.62,-2.09 -0.27,-0.52 -1.33,-0.89 -2.04,-0.88 -4.59,0.08 -9.19,0.19 -13.78,0.48 -3.62,0.23 -7.17,0.4 -10.65,-0.93 -0.87,-0.33 -1.88,-0.38 -2.83,-0.4 -2.16,-0.05 -4.32,0 -6.48,-0.01 -0.41,0 -0.82,-0.06 -1.46,-0.11 0.32,-0.3 0.41,-0.44 0.54,-0.49 0.59,-0.28 1.4,-0.35 1.26,-1.32 -0.14,-0.97 -0.71,-1.61 -1.62,-1.89 -0.4,-0.12 -0.9,-0.18 -1.29,-0.06 -1.25,0.37 -1.56,-0.28 -1.58,-1.32 0,-0.28 0,-0.56 0,-1.01 0.58,0 1.19,-0.13 1.73,0.02 2.35,0.65 4.63,0.3 6.82,-0.55 6.31,-2.46 12.95,-3.77 19.45,-5.57 0.95,-0.26 2,-0.21 2.95,-0.48 1.8,-0.5 3.63,-0.96 5.32,-1.73 4.27,-1.94 8.62,-3.57 13.23,-4.52 1.67,-0.34 3.31,-0.92 4.9,-1.56 9.71,-3.97 19.86,-6.56 29.85,-9.65 4.59,-1.42 9.07,-3.08 13.37,-5.23 1.23,-0.62 2.43,-1.31 3.64,-1.97 0.08,0 0.16,0 0.24,0 0.56,0.72 1.12,1.44 1.68,2.16 -0.04,0.49 -0.04,0.97 -0.04,1.45 z"
   id="path6"
   inkscape:connector-curvature="0"
   style="fill:#ffffff" />
        <path
   class="st0"
   d="m 54.93,118.6 c -2.31,0.97 -4.75,1.96 -7.15,3.02 -2.95,1.31 -5.87,2.69 -8.82,4.02 -0.87,0.39 -1.75,0.79 -2.66,1.04 -0.96,0.26 -1.54,0.7 -1.68,1.74 -0.16,1.2 -0.89,2.01 -1.99,2.51 -2.64,1.17 -5.42,1.99 -7.83,3.69 -1.24,0.88 -2.63,1.38 -4.22,0.35 -1.01,-0.65 -1.92,-0.11 -2.29,1.1 -0.79,2.56 -1.12,5.14 -0.29,7.78 0.48,1.52 0.82,3.09 1.32,4.6 0.25,0.78 0.79,1.47 1.04,2.25 0.34,1.05 0.75,2.14 0.75,3.21 0,1.92 0.66,3.32 2.14,4.56 0.87,0.73 1.4,1.9 1.95,2.94 0.44,0.84 0.64,1.81 1.03,2.68 0.72,1.57 1.75,2.13 3.47,1.92 2.18,-0.27 4.38,-0.45 6.53,-0.91 1.16,-0.25 2.32,-0.83 3.29,-1.53 1.31,-0.94 2.51,-1.94 4.19,-2.18 0.46,-0.06 0.92,-0.47 1.28,-0.81 1.31,-1.22 2.66,-2.23 4.6,-2.3 0.61,-0.02 1.28,-0.73 1.78,-1.25 0.91,-0.95 3.06,-1.68 4.25,-1.25 0.24,0.09 0.54,0.44 0.54,0.66 -0.01,0.74 0.04,1.57 -0.28,2.2 -0.91,1.82 -1.93,3.59 -3,5.32 -1.32,2.13 -2.25,4.39 -2.75,6.85 -0.18,0.88 -0.58,1.72 -0.93,2.56 -1.17,2.79 -2.45,5.54 -3.53,8.37 -0.75,1.98 0.25,3.69 2.25,4.48 0.88,0.34 1.69,0.86 2.52,1.32 0.66,0.37 1.28,0.81 1.96,1.16 2.28,1.16 4.51,2.43 6.87,3.38 1.87,0.75 3.89,1.12 5.86,1.59 1.54,0.37 3.13,0.55 4.65,0.97 1.57,0.43 1.8,0.39 2.24,-1.13 0.04,-0.15 0.07,-0.31 0.12,-0.46 0.52,-1.72 0.58,-1.75 2.36,-1.29 1.59,0.41 1.69,0.31 1.99,-1.35 0.1,-0.57 0.35,-1.14 0.62,-1.66 1.21,-2.28 2.55,-4.5 3.67,-6.82 1.19,-2.48 2.24,-5.03 3.23,-7.6 0.42,-1.1 0.59,-2.31 0.77,-3.48 0.29,-1.93 0.42,-3.88 0.73,-5.8 0.59,-3.75 1.2,-7.49 1.91,-11.22 0.28,-1.48 0.92,-2.88 1.27,-4.35 0.26,-1.1 0.32,-2.24 0.46,-3.36 0.25,-2.09 0.24,-4.25 1.46,-6.09 0.22,-0.34 0.63,-0.55 0.96,-0.81 0.24,0.34 0.64,0.66 0.7,1.03 0.33,2.12 1.05,4.32 0.78,6.38 -0.76,5.79 0.25,11.48 0.43,17.22 0.19,6.3 2.14,12.25 3.37,18.34 0.18,0.88 0.08,1.82 0.26,2.71 0.29,1.43 0.69,2.83 1.05,4.24 0.16,0.64 0.3,1.3 0.53,1.92 0.3,0.84 0.45,1.94 1.06,2.43 1.39,1.11 2.99,1.96 4.57,2.8 0.38,0.2 1.12,0.14 1.48,-0.11 2.15,-1.47 4.68,-1.49 7.08,-2.03 3.23,-0.73 6.49,-1.37 9.62,-2.4 5.9,-1.95 8.27,-8.97 5.78,-14.06 -1.35,-2.75 -2.72,-5.65 -3.17,-8.62 -0.67,-4.47 -2.36,-8.4 -4.59,-12.15 1.11,-1.4 1.97,-1.5 3.16,-0.41 2.19,1.99 4.35,4.01 5.66,6.75 0.34,0.7 0.9,1.32 1.44,1.9 3.12,3.4 6.9,6 10.63,8.65 1.66,1.18 3.43,0.65 4.43,-1.1 1.25,-2.18 2.57,-4.33 3.9,-6.46 1.55,-2.47 3.35,-4.79 4.67,-7.37 1.58,-3.11 3.04,-6.34 4.04,-9.66 0.69,-2.28 0.52,-4.83 0.69,-7.26 0.05,-0.8 -0.31,-1.44 -1.18,-1.56 -6.03,-0.83 -11.53,-3.39 -17.27,-5.15 -4.33,-1.33 -8.86,-2 -13.29,-2.97 -1.99,-0.43 -3.97,-0.92 -5.97,-1.29 -0.77,-0.15 -1.64,-0.25 -2.38,-0.06 -1.75,0.47 -3.18,-0.18 -4.78,-1 0.79,-0.45 1.43,-0.95 2.16,-1.22 3.63,-1.33 7.16,-2.86 11.21,-2.82 2.43,0.02 4.89,-0.67 7.3,-1.2 8.15,-1.79 16.28,-3.66 24.42,-5.5 0.78,-0.18 1.56,-0.36 2.34,-0.52 0.74,-0.15 1.13,-0.55 1.06,-1.33 -0.23,-2.43 -0.44,-4.86 -0.72,-7.28 -0.05,-0.39 -0.31,-0.91 -0.63,-1.09 -0.98,-0.54 -1.08,-1.37 -1.07,-2.34 0,-2.29 -0.73,-4.3 -2.41,-5.94 -0.57,-0.55 -1.01,-1.24 -1.5,-1.87 -0.73,-0.95 -1.65,-1.2 -2.76,-0.79 -3.59,1.32 -7.16,2.67 -10.77,3.93 -1.61,0.57 -3.26,1.01 -4.92,1.41 -0.31,0.08 -0.88,-0.23 -1.08,-0.53 -0.19,-0.29 -0.22,-0.89 -0.03,-1.18 0.59,-0.95 1.22,-1.89 1.99,-2.69 3.06,-3.2 6.22,-6.32 9.27,-9.53 1.28,-1.35 2.41,-2.85 3.6,-4.29 0.23,-0.28 0.41,-0.61 0.68,-0.83 1.51,-1.18 2.36,-2.79 3.08,-4.5 0.23,-0.55 0.47,-1.11 0.81,-1.6 0.83,-1.18 2.28,-1.38 3.15,-0.25 1.09,1.41 1.99,2.98 2.82,4.56 0.52,1.01 1.12,1.71 2.18,2.22 0.97,0.46 1.91,1.21 2.56,2.06 5.61,7.25 8.17,15.66 8.95,24.65 0.32,3.64 0.49,7.35 0.16,10.97 -0.3,3.41 0.26,6.67 0.51,10.01 0.35,4.65 0.32,9.27 -0.85,13.9 -1.99,7.9 -4.16,15.74 -7.29,23.27 -0.55,1.32 -1.2,2.63 -2.04,3.78 -3,4.09 -6.09,8.12 -9.17,12.16 -1.54,2.02 -3.38,3.69 -5.51,5.11 -0.98,0.65 -1.64,1.77 -2.43,2.69 -0.21,0.24 -0.32,0.57 -0.55,0.77 -3.63,2.99 -7.12,6.11 -11.72,7.74 -2.71,0.96 -5.1,2.77 -7.67,4.15 -2.36,1.26 -4.76,2.44 -7.13,3.67 -0.46,0.24 -1.05,0.41 -1.32,0.8 -0.88,1.3 -2.26,1.64 -3.59,2.18 -1.25,0.5 -2.43,1.21 -3.59,1.9 -2.61,1.54 -5.31,2.59 -8.42,1.97 -0.23,-0.05 -0.49,-0.06 -0.72,-0.02 -3.8,0.62 -7.56,-0.46 -11.35,-0.24 -0.55,0.03 -1.11,-0.1 -1.66,-0.21 -0.91,-0.17 -1.45,-0.74 -1.73,-1.63 -0.14,-0.43 -0.37,-0.92 -0.71,-1.16 -0.3,-0.21 -0.85,-0.2 -1.22,-0.08 -0.18,0.06 -0.32,0.62 -0.27,0.92 0.14,0.93 -0.26,1.23 -1.13,1.21 -1.33,-0.03 -2.64,0.01 -3.72,-0.99 -0.24,-0.23 -0.75,-0.25 -1.13,-0.24 -6.66,0.28 -12.99,-1.37 -19.27,-3.31 -0.52,-0.16 -1.13,-0.34 -1.63,-0.21 -1.33,0.35 -2.4,-0.13 -3.52,-0.72 -2.56,-1.36 -5.16,-2.65 -7.75,-3.96 -0.46,-0.24 -0.97,-0.42 -1.38,-0.72 -4.12,-3.02 -8.75,-5.32 -12.39,-9.01 -0.91,-0.93 -2.05,-1.66 -3.15,-2.37 -2.37,-1.54 -4.16,-3.6 -5.64,-5.96 -0.2,-0.32 -0.44,-0.71 -0.76,-0.86 -1.55,-0.72 -2.23,-2 -2.47,-3.58 -0.17,-1.12 -0.61,-1.6 -1.85,-2.02 -1.07,-0.36 -1.91,-1.9 -2.47,-3.1 -0.54,-1.15 -0.61,-2.53 -0.85,-3.82 -0.06,-0.33 0.03,-0.68 0.31,-1.13 0.28,0.34 0.59,0.66 0.83,1.03 0.66,1.01 1.52,1 2.09,-0.09 0.75,-1.45 0.84,-2.96 -0.09,-4.34 -1.52,-2.25 -2.56,-4.69 -3.32,-7.27 -0.25,-0.85 -0.84,-1.3 -1.68,-1.7 -0.93,-0.44 -1.78,-1.2 -2.46,-1.99 -0.75,-0.86 -1.54,-1.28 -2.68,-1.27 -0.99,0.01 -1.98,-0.2 -2.97,-0.3 -0.32,-0.03 -0.69,-0.16 -0.94,-0.04 -1.23,0.6 -1.91,-0.07 -2.39,-1.03 -0.6,-1.21 -1.25,-2.43 -1.62,-3.71 -1.54,-5.38 -2.78,-10.83 -3.09,-16.45 -0.04,-0.66 -0.39,-1.3 -0.46,-1.97 -0.11,-1.01 -0.16,-2.04 -0.12,-3.05 0.04,-0.95 0.27,-1.89 0.35,-2.84 0.51,-6.01 0.96,-12.02 1.53,-18.03 0.18,-1.94 0.42,-3.93 1.03,-5.77 0.9,-2.71 2.18,-5.3 3.26,-7.96 C 6.39,95.97 6.38,95.3 6.57,94.71 6.9,93.66 7.23,92.6 7.69,91.6 8.4,90.04 9.33,88.58 9.96,86.99 12.18,81.43 15.31,76.35 19.39,72.07 26.91,64.18 34.6,56.4 44.13,50.8 c 1.13,-0.67 2.22,-1.43 3.27,-2.23 3.75,-2.88 8.1,-4.72 12.55,-5.75 3.23,-0.75 6.36,-2 9.73,-2.31 2.16,-0.2 4.32,-0.77 6.42,-1.39 2.83,-0.83 5.72,-0.99 8.64,-1.15 2.27,-0.13 4.54,-0.43 6.8,-0.64 2.83,-0.26 5.58,-0.06 8.17,1.3 0.62,0.32 1.37,0.43 2.07,0.55 7.28,1.23 13.75,4.32 19.73,8.54 0.32,0.23 0.59,0.54 0.86,0.83 0.96,1.02 2.11,1.46 3.53,1.49 1.15,0.02 2.3,0.22 3.42,0.48 1.19,0.27 1.39,1 0.39,1.71 -0.69,0.49 -1.65,0.83 -2.49,0.83 -1.52,-0.01 -2.85,0.14 -3.82,1.5 -0.23,0.33 -0.71,0.5 -1.1,0.69 -1.94,0.9 -3.46,2.25 -4.63,4.05 -0.32,0.5 -0.94,0.79 -1.37,1.24 -0.73,0.75 -1.57,1.46 -2.11,2.35 -1,1.64 -1.83,1.81 -3.51,0.89 -2.4,-1.31 -4.06,-3.32 -5.72,-5.37 -1.11,-1.37 -2.23,-1.33 -3.31,0.08 -0.19,0.25 -0.38,0.53 -0.47,0.83 -1.39,4.48 -3.12,8.84 -4.29,13.42 -1.62,6.37 -3.8,12.64 -8.4,17.67 -0.22,0.24 -0.42,0.48 -0.64,0.72 -0.08,0.09 -0.18,0.15 -0.39,0.32 -0.18,-0.61 -0.34,-1.16 -0.5,-1.71 -0.57,-1.95 -1.21,-3.89 -1.7,-5.86 -1.09,-4.36 -2.34,-8.71 -1.72,-13.31 0.08,-0.62 0,-1.28 -0.05,-1.91 -0.21,-2.75 -0.46,-5.49 -0.65,-8.24 -0.09,-1.38 -0.27,-1.53 -1.63,-1.58 -5.9,-0.22 -11.44,1.63 -17.05,3.02 -2.86,0.71 -5.66,1.67 -8.49,2.51 -1.22,0.36 -1.69,1.19 -1.37,2.38 0.95,3.5 1.8,7.04 2.96,10.47 1.38,4.08 3.06,8.06 4.6,12.09 0.13,0.33 0.36,0.7 0.32,1.02 -0.1,0.72 -0.15,1.59 -0.59,2.05 -0.29,0.31 -1.24,0.13 -1.85,-0.02 -0.57,-0.13 -1.09,-0.49 -1.61,-0.79 -4.1,-2.33 -8.19,-4.65 -12.27,-7.01 -0.61,-0.35 -1.14,-0.85 -1.71,-1.28 -0.76,-0.57 -1.55,-1.09 -2.27,-1.71 -0.69,-0.59 -1.38,-1.21 -1.91,-1.93 -1.24,-1.69 -2.64,-1.96 -4.12,-0.49 -1.53,1.52 -2.9,3.2 -4.34,4.81 -0.51,0.57 -0.92,1.32 -1.55,1.65 -1.91,1.02 -2.8,2.73 -3.55,4.61 -0.28,0.7 -0.67,1.37 -1.07,2.01 -2.02,3.19 -3.63,6.5 -3.97,10.36 -0.21,2.38 -0.71,4.74 -1.18,7.08 -0.32,1.6 -0.93,3.11 -0.57,4.82 0.19,0.89 0.57,1.25 1.42,1.25 1,0 2.01,0.12 2.99,-0.01 0.78,-0.11 1.58,-0.42 2.26,-0.82 0.63,-0.38 1.09,-0.52 1.85,-0.22 0.82,0.32 1.79,0.35 2.7,0.37 4.68,0.09 9.36,0.07 14.03,0.22 1.5,0.05 2.99,0.49 4.48,0.76 0.16,0.03 0.31,0.09 0.45,0.16 1.69,0.73 3.34,1.53 5.13,2.4 z m 19.09,81.16 c 0.25,-0.02 0.73,0.08 0.85,-0.08 0.35,-0.47 0.8,-1.07 0.76,-1.59 -0.08,-0.95 -0.76,-0.62 -1.32,-0.32 -0.38,0.2 -0.82,0.33 -1.18,0.56 -0.3,0.2 -0.53,0.51 -0.8,0.77 0.34,0.2 0.67,0.43 1.03,0.59 0.17,0.08 0.39,0.05 0.66,0.07 z M 26.06,181.5 c -0.07,-0.71 -0.06,-1.34 -0.21,-1.92 -0.07,-0.27 -0.46,-0.45 -0.7,-0.68 -0.2,0.27 -0.53,0.53 -0.57,0.82 -0.14,0.98 0.38,1.53 1.48,1.78 z m 136.58,-39.96 c 0.98,-1.07 1.06,-1.71 0.31,-2.9 -0.5,0.97 -1.02,1.84 -0.31,2.9 z"
   id="path8"
   inkscape:connector-curvature="0"
   style="fill:#ffffff" />
    </g>
</g>
</svg>