<?xml version="1.0" encoding="UTF-8" standalone="no"?>
<!-- Generator: Adobe Illustrator 23.0.4, SVG Export Plug-In  -->

<svg
   xmlns:dc="http://purl.org/dc/elements/1.1/"
   xmlns:cc="http://creativecommons.org/ns#"
   xmlns:rdf="http://www.w3.org/1999/02/22-rdf-syntax-ns#"
   xmlns:svg="http://www.w3.org/2000/svg"
   xmlns="http://www.w3.org/2000/svg"
   xmlns:sodipodi="http://sodipodi.sourceforge.net/DTD/sodipodi-0.dtd"
   xmlns:inkscape="http://www.inkscape.org/namespaces/inkscape"
   version="1.1"
   x="0px"
   y="0px"
   width="257.89001"
   height="257.89001"
   viewBox="0 0 257.89 257.89001"
   xml:space="preserve"
   id="svg11"
   sodipodi:docname="trapper.svg"
   inkscape:version="0.92.3 (2405546, 2018-03-11)"><metadata
   id="metadata15"><rdf:RDF><cc:Work
       rdf:about=""><dc:format>image/svg+xml</dc:format><dc:type
         rdf:resource="http://purl.org/dc/dcmitype/StillImage" /><dc:title></dc:title></cc:Work></rdf:RDF></metadata><sodipodi:namedview
   pagecolor="#ffffff"
   bordercolor="#666666"
   borderopacity="1"
   objecttolerance="10"
   gridtolerance="10"
   guidetolerance="10"
   inkscape:pageopacity="0"
   inkscape:pageshadow="2"
   inkscape:window-width="1920"
   inkscape:window-height="1017"
   id="namedview13"
   showgrid="false"
   inkscape:zoom="0.99126343"
   inkscape:cx="3.3477182"
   inkscape:cy="119.04"
   inkscape:window-x="-8"
   inkscape:window-y="-8"
   inkscape:window-maximized="1"
   inkscape:current-layer="svg11" />
<style
   type="text/css"
   id="style2">
    .st0{fill:#FFFFFF;}
</style>
<defs
   id="defs4">
</defs>
<g
   id="SiiHTX_2_"
   transform="translate(-0.03010057,9.9400073)">
    <g
   id="g8">
        <path
   class="st0"
   d="m 147.6,0 c 1.07,0.62 1.28,1.71 1.4,2.78 0.91,8.08 1.31,16.17 0.36,24.29 -0.19,1.63 -0.28,3.27 -0.32,4.91 -0.1,3.84 -0.41,7.65 -1.29,11.41 -0.26,1.11 -0.2,2.3 -0.21,3.46 -0.01,0.98 0.54,1.43 1.49,1.08 0.77,-0.29 1.29,-0.11 1.94,0.39 0.67,0.52 1.53,0.86 2.36,1.09 2.57,0.71 5,1.63 7.08,3.36 0.47,0.39 1.12,0.62 1.73,0.76 4.55,1.04 9.1,2.09 13.68,3.04 2.41,0.5 3.14,-0.27 2.89,-2.77 -0.31,-3.03 -0.82,-6 -1.97,-8.85 -0.94,-2.33 -1.68,-4.74 -2.56,-7.1 -0.3,-0.81 -0.78,-1.56 -1.15,-2.34 -0.14,-0.3 -0.2,-0.63 -0.3,-0.97 3.31,-0.46 3.92,-0.1 4.76,1.91 0.19,0.44 0.88,0.7 1.38,0.97 0.61,0.33 1.45,0.43 1.87,0.91 1.72,1.93 3.4,3.92 4.93,6 1.57,2.12 2.81,4.49 4.47,6.52 1.13,1.39 2.59,2.66 4.16,3.5 4.22,2.27 8.1,4.95 11.65,8.17 2.33,2.12 4.83,4.07 7.26,6.09 1.34,1.12 2.41,2.43 2.87,4.18 0.3,1.13 0.22,2.07 -0.7,2.95 -1.08,1.02 -0.85,1.9 0.54,2.46 0.55,0.22 1.14,0.55 1.7,0.53 0.64,-0.02 1.47,-0.18 1.87,-0.61 0.66,-0.7 1.34,-1.11 2.27,-1.11 0.87,0 1.75,-0.04 2.62,0.06 1.23,0.14 1.88,1.03 2.51,2.02 0.4,0.63 1,1.27 1.67,1.55 2.1,0.88 4.26,1.61 5.74,3.51 0.17,0.21 0.42,0.37 0.66,0.51 4.08,2.42 8.13,4.9 12.26,7.23 1.67,0.94 3.2,1.84 4.14,3.63 0.84,1.61 2.44,2.22 4.2,2.4 2.01,0.2 2.34,0.46 2.36,2.52 0.01,0.98 -0.33,1.97 -0.51,2.96 -0.83,-0.31 -1.73,-0.5 -2.49,-0.94 -2.03,-1.17 -4.21,-1.54 -6.53,-1.73 -4.57,-0.37 -9.13,-0.98 -13.69,-1.47 -2.22,-0.23 -4.45,-0.4 -6.68,-0.6 -0.16,-0.01 -0.33,-0.01 -0.47,-0.08 -4.3,-2.1 -9.31,-1.49 -13.63,-3.54 -0.36,-0.17 -0.85,-0.11 -1.28,-0.1 -1.38,0.02 -2.77,0.22 -4.13,0.07 -4.56,-0.48 -9.1,-1.17 -13.67,-1.61 -3.74,-0.36 -7.36,-1.07 -10.73,-2.74 -2.86,-1.41 -5.79,-1.75 -8.96,-1.54 -1.85,0.12 -3.81,-0.36 -5.62,-0.92 -1.87,-0.57 -2.11,-2.99 -0.91,-4.51 1.18,-1.48 2.1,-3.19 2.99,-4.87 0.46,-0.87 -0.08,-1.64 -1.14,-1.77 -1.4,-0.17 -2.81,-0.7 -4.23,0.07 -0.25,0.13 -0.77,-0.1 -1.1,-0.28 -2.34,-1.28 -4.85,-2.05 -7.47,-2.47 -0.19,-0.03 -0.39,-0.09 -0.56,-0.17 -2.62,-1.26 -5.23,-2.54 -7.85,-3.79 -0.54,-0.25 -1.12,-0.44 -1.7,-0.56 -2.9,-0.62 -3.68,-0.32 -4.81,2.4 -2.09,5.04 -4.92,9.55 -8.67,13.55 -2.32,2.47 -4.37,5.19 -6.53,7.81 -0.66,0.8 -0.49,2.27 0.54,3.25 2.34,2.24 4.75,4.4 7.12,6.6 1.14,1.05 2.24,2.15 3.41,3.17 0.9,0.78 1.83,1.55 2.83,2.19 2.65,1.7 2.79,3.8 0.33,5.75 -0.13,0.1 -0.25,0.19 -0.38,0.29 -1.95,1.49 -2.43,2.67 -1.31,3.78 2.17,2.16 3.99,3.27 6.05,1.33 0.23,-0.22 0.44,-0.46 0.68,-0.68 1.18,-1.07 2.52,-1.16 3.63,-0.03 2.43,2.49 4.92,4.94 7.1,7.63 1.91,2.36 3.95,4.53 6.51,6.13 3.89,2.42 6.97,5.56 9.15,9.61 0.78,1.46 2.06,2.68 3.78,2.55 1.58,-0.12 2.44,-1.71 2.77,-3.01 0.79,-3.13 2.88,-5.5 4.29,-8.25 0.42,-0.83 1.02,-1.23 1.99,-1.19 0.72,0.03 1.11,0.26 1.26,0.97 0.37,1.7 1.33,2.67 3.18,2.89 1.5,0.18 2.08,1.57 2.19,2.82 0.49,5.4 2.72,10.21 4.73,15.13 2.33,5.68 4.16,11.57 6.43,17.27 2.24,5.64 4.68,11.2 7.19,16.72 0.9,1.98 2.32,3.72 3.4,5.63 0.88,1.55 1.66,3.16 2.41,4.78 0.21,0.45 0.2,1.02 0.18,1.53 -0.1,1.94 -1.75,2.96 -3.51,2.18 -0.43,-0.19 -0.9,-0.4 -1.23,-0.73 -2.95,-2.85 -6.62,-4.58 -10.13,-6.55 -0.27,-0.15 -0.68,-0.36 -0.88,-0.25 -1.16,0.57 -2.07,-0.07 -3.05,-0.5 -2.38,-1.03 -4.77,-2.03 -7.16,-3.05 -0.07,-0.03 -0.15,-0.05 -0.22,-0.09 -2.77,-1.36 -5.58,-2.66 -8.31,-4.1 -3.17,-1.67 -6.58,-2.41 -10.08,-2.86 -3.5,-0.45 -6.97,-0.77 -10.5,-0.06 -1.05,0.21 -2.24,-0.32 -3.37,-0.41 -2.05,-0.17 -4.11,-0.3 -6.17,-0.4 -1.62,-0.07 -3.25,-0.09 -4.88,-0.06 -1.03,0.02 -2.06,0.24 -3.1,0.25 -1.36,0.01 -1.79,-0.54 -1.53,-1.89 0.38,-1.95 1.64,-3.13 3.29,-4.17 3.41,-2.14 6.78,-4.37 10.01,-6.77 2.03,-1.5 2.58,-3.77 2.14,-6.25 -0.32,-1.76 0.12,-2.25 1.93,-2.18 0.71,0.03 1.41,0 2.19,0 0,-1.58 0.06,-3.02 -0.02,-4.44 -0.07,-1.13 -0.78,-1.76 -1.91,-1.98 -1.71,-0.34 -3.15,0.06 -4.38,1.31 -1.32,1.34 -2.01,1.14 -3.45,0.01 -2.25,-1.78 -3.69,-4.02 -4.72,-6.63 -0.3,-0.75 -0.92,-1.41 -1.5,-1.99 -2.12,-2.12 -4.47,-3.92 -7.09,-5.45 -2.6,-1.52 -4.94,-3.5 -7.32,-5.37 -1.79,-1.4 -3.42,-3.02 -5.22,-4.41 -1.45,-1.12 -2.98,-2.16 -4.59,-3.01 -1.6,-0.85 -2.84,-1.98 -4,-3.35 -2.75,-3.26 -5.62,-6.42 -8.49,-9.58 -1.08,-1.18 -1.77,-0.96 -2.22,0.61 -0.42,1.47 -1.4,2.25 -2.85,2.58 -4.2,0.96 -7.9,2.94 -11.21,5.66 -1.11,0.91 -1.4,0.95 -2.07,-0.29 -0.39,-0.73 -0.71,-1.52 -0.98,-2.3 -0.37,-1.04 -1.08,-1.42 -2.13,-1.32 -2.1,0.2 -3.44,1.95 -3.16,4.15 0.09,0.71 0.31,1.43 0.23,2.13 -0.18,1.67 -1.65,3.07 -3.35,3.27 -1.47,0.17 -2.77,0.58 -3.83,1.74 -0.42,0.46 -1.17,0.64 -1.78,0.92 -2.32,1.05 -4.65,2.09 -6.97,3.14 -0.93,0.42 -1.85,0.9 -2.8,1.26 -0.86,0.32 -1.24,0.93 -1.12,1.75 0.32,2.24 0.58,4.51 1.11,6.71 0.72,2.94 1.65,5.84 2.54,8.74 0.68,2.21 1.4,4.41 2.19,6.58 0.18,0.51 0.64,1.13 1.09,1.26 0.31,0.09 0.96,-0.5 1.25,-0.92 0.6,-0.89 1.09,-1.85 1.56,-2.82 1.82,-3.73 3.59,-7.48 5.46,-11.18 0.21,-0.41 0.96,-0.8 1.41,-0.76 0.47,0.04 1.1,0.54 1.28,1 0.76,1.89 0.49,3.83 0.02,5.77 -0.59,2.44 -1.27,4.88 -1.59,7.36 -0.21,1.63 0.14,3.33 0.24,5 0.25,4.39 0.3,8.8 0.78,13.16 0.75,6.91 1.79,13.78 2.71,20.67 0.04,0.32 0.1,0.63 0.12,0.95 0.32,4.57 0.61,9.15 0.97,13.72 0.19,2.39 0.36,4.79 0.79,7.15 0.22,1.21 0.9,2.37 1.52,3.47 1.04,1.84 2.28,3.57 3.29,5.42 1.07,1.95 0.26,3.59 -1.81,4.3 -0.85,0.3 -1.57,0.99 -2.35,1.5 -0.08,0 -0.16,0 -0.24,0 -1.81,-0.94 -2.23,-2.71 -2.63,-4.48 -1.47,-6.52 -4.32,-12.33 -8.75,-17.34 -0.29,-0.32 -0.63,-0.62 -1,-0.83 -3.53,-2.08 -6.4,-4.88 -8.87,-8.12 -2.34,-3.07 -4.56,-6.26 -7.09,-9.17 -2.03,-2.34 -4.41,-4.38 -6.68,-6.5 -1.58,-1.47 -3.4,-2.7 -4.82,-4.3 -3.1,-3.49 -6.04,-7.13 -8.99,-10.76 -0.97,-1.2 -1.74,-2.56 -2.68,-3.95 1.88,-0.59 3.31,0.13 4.69,0.91 1.99,1.13 4.04,1.94 6.36,1.77 1.43,-0.1 2.86,-0.31 4.28,-0.53 2.23,-0.34 2.8,-1.57 1.55,-3.42 -1.54,-2.29 -2.47,-4.8 -3.09,-7.48 -0.3,-1.3 -0.87,-2.55 -1.37,-3.81 -0.53,-1.33 -1.35,-2.58 -1.64,-3.95 -0.71,-3.36 -1.99,-6.48 -3.62,-9.46 -0.31,-0.57 -1.11,-1.13 -1.74,-1.21 -3.05,-0.35 -6.11,-0.66 -9.18,-0.74 -4.31,-0.11 -8.63,-0.01 -12.94,0 -1.32,0 -2.69,-0.21 -3.94,0.07 -3.31,0.74 -6.52,0.24 -9.74,-0.38 -2.47,-0.47 -5.03,-0.85 -5.94,-3.78 0,-0.16 0,-0.32 0,-0.48 0.15,-0.06 0.29,-0.15 0.44,-0.18 2.65,-0.54 5.39,-0.78 7.73,-2.38 0.24,-0.16 0.62,-0.16 0.93,-0.15 1.87,0.05 3.1,-0.91 4.2,-2.34 0.83,-1.09 1.86,-2.09 2.97,-2.89 1.19,-0.86 1.78,-1.82 1.75,-3.3 -0.04,-1.88 0.02,-3.76 0.1,-5.64 0.04,-1.06 0.5,-1.9 1.49,-2.43 1.92,-1.02 1.91,-1.04 0.25,-2.49 -0.18,-0.16 -0.37,-0.32 -0.51,-0.5 -0.48,-0.61 -0.85,-1.19 -0.45,-2.07 0.27,-0.59 0.38,-1.33 0.3,-1.97 -0.1,-0.82 -0.51,-1.59 -0.71,-2.4 -0.27,-1.09 -0.8,-1.6 -1.98,-1.19 -0.94,0.33 -1.3,-0.28 -1.51,-1.06 -0.2,-0.75 0.08,-1.14 0.84,-1.24 0.99,-0.13 1.09,-0.82 0.63,-1.46 -0.43,-0.6 -1.1,-1.02 -1.81,-1.65 0.67,-0.16 1.27,-0.42 1.88,-0.43 5.51,-0.11 10.89,-1 16.18,-2.5 0.32,-0.09 0.69,-0.05 1.03,-0.04 0.97,0.03 1.93,0.14 2.89,0.08 1.1,-0.07 2.21,-0.45 3.3,-0.4 2.45,0.12 4.72,-0.42 6.99,-1.3 3.26,-1.26 6.58,-2.37 9.9,-3.44 5.25,-1.69 10.33,-3.65 15.07,-6.58 4.75,-2.94 8.79,-6.74 13.2,-10.08 0.19,-0.14 0.35,-0.33 0.52,-0.5 1.56,-1.54 3.16,-3.05 4.69,-4.62 1.78,-1.82 3.54,-3.67 5.22,-5.57 1.1,-1.24 2.05,-2.63 3.09,-3.93 1.17,-1.46 2.51,-2.81 3.5,-4.37 1.39,-2.18 2.4,-4.6 3.79,-6.79 2.99,-4.7 5.72,-9.49 6.7,-15.07 0.13,-0.72 0.51,-1.16 1.38,-1.21 0.48,-0.03 1.1,-0.43 1.36,-0.85 1.44,-2.34 2.98,-4.64 4.11,-7.13 1.02,-2.24 1.45,-4.73 2.33,-7.04 0.89,-2.32 1.37,-4.68 1.27,-7.14 -0.14,-3.44 -0.36,-6.87 -0.52,-10.3 -0.08,-1.69 0.2,-2.04 1.95,-2.54 0.81,1.43 1.92,2.78 2.38,4.33 0.92,3.08 1.53,6.26 2.17,9.42 0.21,1.05 0.52,1.94 1.51,2.42 1.26,0.61 2.52,1.24 3.83,1.67 0.8,0.26 1.75,0.36 2.58,0.22 2.71,-0.44 4.53,-2.12 5.56,-4.6 1.6,-3.9 2.15,-8.04 2.57,-12.19 0.16,-1.6 0.21,-3.19 1.52,-4.37 C 146.96,0 147.28,0 147.6,0 Z m -7.86,53.64 c -0.02,0 -0.04,0 -0.05,0 0,-0.96 0.07,-1.92 -0.02,-2.87 -0.13,-1.38 -0.75,-2.54 -1.96,-3.27 -2.57,-1.53 -5.26,-2.49 -8.33,-1.64 -1.42,0.39 -2.93,0.55 -4.29,1.07 -6.58,2.52 -8.85,10.47 -4.49,15.95 2.87,3.61 6.97,4.56 11.37,4.56 1.35,0 2.65,-0.27 3.65,-1.25 2.17,-2.09 3.63,-4.55 3.8,-7.64 0.1,-1.64 0.21,-3.28 0.32,-4.91 z m -99,67.29 c -0.22,3.43 1.7,5.83 4.61,6.89 0.6,0.22 1.18,0.5 1.72,0.83 1.2,0.75 2.48,0.87 3.81,0.55 2.64,-0.64 4.78,-2.18 6.74,-3.96 0.46,-0.42 0.82,-1.16 0.89,-1.78 0.49,-4.76 0.28,-9.35 -3.27,-13.13 -1.44,-1.54 -2.25,-1.47 -2.94,0.48 -0.32,0.88 -0.81,1.11 -1.74,0.94 -0.95,-0.18 -2.01,-0.31 -2.93,-0.08 -3.69,0.95 -6.97,5.47 -6.89,9.26 z m 62.17,-38.19 c -1.46,0.2 -2.81,0.36 -4.15,0.57 -1.68,0.26 -3.12,0.97 -4.16,2.36 -1.94,2.58 -1.14,8.36 1.45,10.32 0.25,0.19 0.54,0.35 0.84,0.46 1.31,0.49 2.59,1.09 3.94,1.39 0.86,0.19 1.93,0.15 2.73,-0.19 2.56,-1.1 5.05,-2.38 7.56,-3.6 1.86,-0.9 1.98,-1.24 1.34,-3.16 -0.3,-0.91 -0.97,-1.96 -0.74,-2.72 0.41,-1.35 -0.23,-2.3 -0.63,-3.33 -0.65,-1.68 -2.41,-2.01 -3.83,-2.63 -0.45,-0.19 -1.23,0.46 -1.89,0.65 -0.4,0.12 -0.85,0.14 -1.27,0.11 -0.44,-0.03 -0.86,-0.16 -1.19,-0.23 z m 45.98,-32.23 c -0.16,1.67 0.24,2.34 1.68,2.99 1.64,0.74 3.27,1.48 4.94,2.15 0.36,0.14 0.84,-0.01 1.27,-0.03 -0.16,-0.49 -0.18,-1.25 -0.52,-1.42 -2.38,-1.28 -4.82,-2.44 -7.37,-3.69 z m -30.11,-12.6 c -1.77,-0.02 -2.73,0.78 -2.47,2.02 0.08,0.37 0.39,0.88 0.68,0.95 0.27,0.06 0.8,-0.32 0.95,-0.64 0.37,-0.73 0.57,-1.53 0.84,-2.33 z m 64.49,23.06 c -0.03,-0.18 -0.06,-0.35 -0.09,-0.53 -0.54,-0.22 -1.07,-0.47 -1.63,-0.62 -0.07,-0.02 -0.47,0.61 -0.4,0.84 0.12,0.4 0.52,1.04 0.76,1.03 0.47,-0.04 0.91,-0.46 1.36,-0.72 z"
   id="path6"
   inkscape:connector-curvature="0"
   style="fill:#ffffff" />
    </g>
</g>
</svg>