<?xml version="1.0" encoding="UTF-8" standalone="no"?>
<!-- Generated by IcoMoon.io -->

<svg
   xmlns:dc="http://purl.org/dc/elements/1.1/"
   xmlns:cc="http://creativecommons.org/ns#"
   xmlns:rdf="http://www.w3.org/1999/02/22-rdf-syntax-ns#"
   xmlns:svg="http://www.w3.org/2000/svg"
   xmlns="http://www.w3.org/2000/svg"
   xmlns:sodipodi="http://sodipodi.sourceforge.net/DTD/sodipodi-0.dtd"
   xmlns:inkscape="http://www.inkscape.org/namespaces/inkscape"
   version="1.1"
   width="215"
   height="215"
   viewBox="0 0 215 215"
   id="svg6"
   sodipodi:docname="monster_of_destruction.svg"
   inkscape:version="0.92.3 (2405546, 2018-03-11)">
  <metadata
     id="metadata12">
    <rdf:RDF>
      <cc:Work
         rdf:about="">
        <dc:format>image/svg+xml</dc:format>
        <dc:type
           rdf:resource="http://purl.org/dc/dcmitype/StillImage" />
        <dc:title>monster-of-destruction</dc:title>
      </cc:Work>
    </rdf:RDF>
  </metadata>
  <defs
     id="defs10" />
  <sodipodi:namedview
     pagecolor="#ffffff"
     bordercolor="#666666"
     borderopacity="1"
     objecttolerance="10"
     gridtolerance="10"
     guidetolerance="10"
     inkscape:pageopacity="0"
     inkscape:pageshadow="2"
     inkscape:window-width="1920"
     inkscape:window-height="1017"
     id="namedview8"
     showgrid="false"
     fit-margin-top="0"
     fit-margin-left="0"
     fit-margin-right="0"
     fit-margin-bottom="0"
     inkscape:zoom="1.3037281"
     inkscape:cx="-84.271444"
     inkscape:cy="115.22844"
     inkscape:window-x="-8"
     inkscape:window-y="-8"
     inkscape:window-maximized="1"
     inkscape:current-layer="svg6" />
  <title
     id="title2">monster-of-destruction</title>
  <path
     d="m 35.926568,65.484927 c -1.350249,1.43758 -1.424143,3.24463 -2.069037,4.78969 -0.100765,0.23512 0.268706,0.67177 0.416494,1.00093 1.538343,-0.50382 2.008578,-1.73315 2.223543,-2.86172 0.161224,-0.85986 0.497107,-2.02201 -0.571,-2.93561 z M 173.55113,93.53785 c -0.90688,0.463519 -1.51147,0.839707 -2.16308,1.08826 -1.20918,0.463518 -1.96156,1.437578 -2.71394,2.384767 -0.24855,0.309012 -0.31573,0.893448 -0.24855,1.31666 0.37619,2.236973 0.96062,4.406773 2.37805,6.267563 1.713,2.23698 3.48646,4.44037 5.04496,6.78483 1.1823,1.78018 2.06903,3.7686 3.19088,5.83764 -1.04795,-0.094 -1.85407,-0.17466 -2.66691,-0.23512 -1.00093,-0.0739 -1.69284,0.31573 -2.0959,1.28979 -0.51055,1.20918 -1.15544,2.3579 -1.65926,3.57379 -0.44337,1.08155 -0.40978,2.19668 0.0605,3.29165 0.14779,0.3426 0.20153,0.71879 0.27543,1.08826 0.43665,2.28401 0.85986,4.56801 1.30994,6.95278 0.33588,0.0806 0.77925,0.18809 1.11513,0.2687 0.49039,1.3301 0.95391,2.54599 1.38384,3.78204 0.1142,0.3426 0.17466,0.71879 0.18137,1.08826 0.0269,0.7994 -0.007,1.5988 0.007,2.3982 0.0134,1.84064 1.1017,2.94905 2.94233,3.05653 1.01437,0.0605 2.02874,0.16123 3.0431,0.28215 0.24855,0.0336 0.59115,0.13435 0.71879,0.32244 0.97406,1.43086 2.49225,2.41836 3.11027,4.15151 0.43665,1.20918 1.22262,1.49804 2.47882,1.26292 1.2562,-0.23512 1.86751,0.0605 2.5124,1.20246 0.94719,1.6727 1.3301,1.84736 3.14386,1.28979 0.5307,-0.16122 0.94047,-0.12763 1.20246,0.36947 0.6852,1.33682 2.02873,1.78018 3.24463,2.35118 0.55085,0.25527 1.26963,0.13435 1.97499,0.19481 0.92032,1.92797 0.85314,4.03731 0.71879,6.13322 -0.16123,2.7408 -1.28979,5.25992 -1.95484,7.87981 -0.79268,3.10355 -2.96248,5.15244 -4.82999,7.45659 -3.97685,4.92404 -8.54486,9.27708 -13.52936,13.15317 -6.32131,4.91732 -13.02553,9.26364 -20.19998,12.87102 -7.12071,3.58051 -14.51013,6.44895 -22.19513,8.53814 -5.35397,1.45101 -10.78183,2.59301 -16.30374,3.1976 -5.66298,0.61803 -11.35283,0.67177 -17.03597,0.4568 -2.67362,-0.10076 -5.32038,-0.62474 -7.987288,-0.87329 -1.444296,-0.12764 -2.895309,-0.10749 -4.346322,-0.10749 -1.101695,0 -2.142931,-0.14107 -3.09012,-0.78596 -0.288859,-0.19481 -0.698636,-0.2284 -1.054672,-0.30901 -1.558495,-0.32245 -2.169802,-1.59209 -1.336813,-2.96249 0.611307,-1.00093 1.343531,-1.92796 2.06232,-2.93561 -0.85986,-0.9875 -0.819554,-2.04889 -0.40306,-3.17745 0.792684,-2.15637 1.538343,-4.31945 2.344461,-6.59002 -1.713001,-1.70628 -2.566143,-3.94326 -2.425072,-6.56986 0.03359,-0.61131 0.02687,-1.22934 0.0067,-1.83392 -0.03359,-0.96735 0.295577,-1.70629 1.121848,-2.27729 0.839707,-0.58443 0.819554,-1.14872 0.295577,-2.11606 -0.20153,-0.36275 -0.2284,-0.89345 -0.154506,-1.31666 0.134353,-0.73222 0.04031,-1.29651 -0.85986,-1.68613 0.557566,-1.4443 1.101696,-2.84157 1.639108,-4.2254 0.248553,-0.61131 0.450083,-1.24949 0.785965,-1.80705 0.97406,-1.63911 0.685201,-3.31852 0.295577,-5.02481 -0.20153,-0.87329 -0.698636,-1.52491 -1.457731,-1.98842 -0.315729,-0.19482 -0.651612,-0.35604 -1.101695,-0.59116 1.054672,-3.52005 2.095908,-7.01994 3.795474,-10.35862 -0.329165,-0.18809 -0.624742,-0.30901 -0.859859,-0.4971 -0.812836,-0.62475 -1.370402,-1.38384 -1.350249,-2.49225 0.03359,-1.87423 -0.08733,-3.76861 0.06046,-5.64283 0.154506,-2.00186 0.456801,-4.01716 1.766743,-5.80406 -0.557565,0.15451 -1.121848,0.29558 -1.840637,0.49039 0.08061,-0.42321 0.107482,-0.77253 0.214965,-1.10841 0.994213,-3.22447 2.740802,-6.07948 4.588157,-8.8673 0.900166,-1.35697 1.498037,-2.70722 1.31666,-4.33961 -0.221682,-2.13621 0.557565,-3.83578 2.122779,-5.2532 1.142,-1.0278 2.20339,-2.13621 3.41257,-3.31852 -0.38963,-0.93376 -0.66505,-2.14965 0.0672,-3.1573 0.65161,-0.88673 1.59208,-1.54506 2.52584,-2.42507 -0.0873,-0.55757 -0.79941,-0.6449 -1.53835,-0.95391 0.32917,-0.63146 0.59787,-1.26292 0.96734,-1.83392 0.96735,-1.49132 1.94141,-2.98935 2.99608,-4.42693 1.78018,-2.41836 3.68799,-4.7561 5.42786,-7.20804 1.0278,-1.444291 1.42415,-3.224469 1.53163,-4.944188 0.1545,-2.297438 -0.0336,-4.601593 -1.18231,-6.724371 -0.81283,-1.498037 -1.89438,-2.646756 -3.47974,-3.358827 -0.65833,-0.295577 -1.30995,-0.745659 -1.80034,-1.283072 -1.65926,-1.833915 -3.75516,-2.129495 -5.93168,-1.524905 -0.99422,0.27542 -1.92797,0.21496 -2.89531,0.27542 -0.98078,0.06718 -1.974993,-0.0134 -2.949052,0.08733 -1.995143,0.208248 -3.137144,1.471166 -3.17745,3.459592 -0.02015,1.168871 -0.02015,2.351178 0.03359,3.526768 0.02687,0.604589 -0.154506,1.074824 -0.476954,1.571931 -0.503824,0.785965 -0.920318,1.625672 -1.363683,2.451943 -0.933754,1.733155 -1.874225,3.466309 -2.794544,5.206181 -1.383837,2.626598 -2.801261,5.226328 -4.084333,7.899958 -0.839707,1.73315 -1.511472,3.54692 -2.142932,5.36068 -0.181376,0.5307 -0.02015,1.19574 0.04031,1.80033 0.08733,0.83299 0.31573,1.65255 0.342601,2.48554 0.08061,2.30415 1.041236,3.60066 3.29165,4.31273 0.127635,0.0336 0.248553,0.10748 0.510541,0.22168 -0.476953,0.89345 -0.88673,1.78018 -1.397271,2.60645 -1.081543,1.73316 -2.60645,3.05653 -4.23884,4.25899 -1.054671,0.77253 -2.08919,1.59209 -3.137144,2.37133 -0.604589,0.44337 -1.215895,0.89345 -1.86079,1.25621 -1.135283,0.63146 -2.236978,1.26963 -3.305085,2.0556 -1.565213,1.14872 -3.446156,1.57193 -5.515193,1.64582 -2.196673,0.0806 -3.956698,-1.05467 -5.965277,-1.37712 -1.148718,-0.18137 -2.243696,-0.59787 -3.452873,-0.18809 -0.490389,0.16794 -1.108413,-0.047 -1.672696,-0.0672 -0.604589,-0.0269 -1.215895,-0.0672 -1.820484,-0.0336 -0.671765,0.0336 -1.215895,-0.14779 -1.833919,-0.46352 -0.880013,-0.45008 -1.94812,-0.55756 -2.942333,-0.77253 -2.458661,-0.53069 -5.044957,-0.67176 -7.113994,-2.37133 -0.141071,-0.12092 -0.342601,-0.17466 -0.470236,-0.30901 -1.041236,-1.06139 -1.995143,-2.23026 -3.130427,-3.17073 -1.45773,-1.20918 -2.230261,-2.8886 -3.305085,-4.35976 -1.128566,-1.54506 -2.129496,-3.19089 -3.17745,-4.80312 -0.08061,-0.13436 -0.06046,-0.3426 -0.08733,-0.57772 0.241836,-0.0336 0.443366,-0.13435 0.591154,-0.0806 1.524907,0.571 3.002791,1.142 4.252274,2.33102 1.20246,1.14872 2.640038,2.10263 4.104487,2.92218 0.893448,0.50383 1.948119,0.82627 3.110273,0.51726 0.752377,-0.20153 1.592084,-0.10076 2.391485,-0.0605 1.948119,0.10077 3.788756,-0.36947 5.656264,-0.88673 1.800331,-0.51054 3.667838,-0.78596 5.508475,-1.14872 1.000931,-0.20153 2.015296,-0.42993 3.029662,-0.53069 0.678483,-0.0672 1.383837,0.0806 2.136214,0.13435 0.678483,-1.00765 0.671765,-1.23605 -0.275424,-1.93468 -1.236048,-0.90689 -2.163084,-2.04889 -2.94905,-3.36555 -0.718789,-1.19574 -1.65926,-2.26385 -2.478814,-3.41256 -0.436647,-0.60459 -0.893448,-1.2159 -1.195742,-1.88095 -0.396342,-0.86657 -0.188094,-1.65254 0.685201,-2.21682 1.262918,0.74566 2.572861,1.33681 4.084333,1.35696 0.913601,0.0134 1.726437,-0.17466 2.149649,-1.03452 0.463518,-0.94718 0.6852,-1.94811 -0.06718,-2.88859 -1.061389,-1.31666 -1.195742,-2.86843 -1.249483,-4.55457 1.021083,0.12092 1.961555,0.12092 2.834849,0.36276 1.000931,0.2687 1.83392,0.21496 2.60645,-0.52398 0.188094,-0.17465 0.483671,-0.248545 0.765812,-0.389615 0.382907,-1.706284 0.604589,-3.479745 1.20246,-5.118852 0.483671,-1.336813 1.283072,-2.619885 2.183238,-3.728298 1.215895,-1.498036 1.54506,-3.056532 1.061389,-4.856863 -0.06046,-0.2284 -0.134353,-0.450083 -0.221683,-0.671765 -0.638177,-1.679414 -1.309942,-3.3454 -0.678483,-5.17932 -1.901096,-0.45008 -3.923109,0.77925 -4.353039,2.63332 -0.174659,0.725516 -0.194812,1.491328 -0.268706,2.236988 -0.07389,0.745659 -0.09405,1.504754 -0.235118,2.236978 -0.248553,1.296507 -0.866577,2.418355 -2.069037,3.043097 -1.672696,0.88673 -3.204321,1.927967 -4.520981,3.298368 -0.463518,-0.235118 -0.530694,-0.557565 -0.3426,-0.940472 0.194812,-0.429929 0.349318,-0.88673 0.624742,-1.262918 1.363683,-1.813767 1.088259,-3.92311 1.061389,-5.965276 -0.01344,-1.222613 -0.893448,-2.022014 -1.941402,-2.042167 -1.08826,-0.02015 -1.800331,0.812836 -2.028731,2.116061 -0.20153,1.148718 -0.591154,2.257131 -0.893448,3.372262 -0.20153,0.765812 -0.497107,1.524907 -0.571001,2.297437 -0.08061,0.853142 -0.859859,0.866577 -1.309942,1.417425 -0.188094,-0.591154 -0.42993,-1.094978 -0.503824,-1.618955 -0.161224,-1.236048 -1.027801,-1.995143 -1.840637,-2.74752 -1.417425,-1.309942 -4.17838,-0.3426 -4.655334,1.578649 -0.154506,0.638177 -0.362753,1.269636 -0.436647,1.921249 -0.08061,0.638177 -0.02015,1.296507 -0.02015,2.11606 -1.592084,-0.14107 -2.572861,-1.54506 -4.211969,-1.927966 -0.624742,0.409777 -1.43086,0.906883 -2.20339,1.457731 -0.261989,0.181376 -0.577718,0.443365 -0.644895,0.725506 -0.476953,1.934684 -2.116061,3.130427 -2.996073,4.782969 -0.718789,1.336807 -0.759095,2.895297 0.06046,4.198527 1.618954,2.57958 3.352109,5.09198 5.105416,7.58423 0.618024,0.88001 1.618955,1.26292 2.646756,1.49804 0.537412,0.12763 1.195742,0.12763 1.195742,0.92031 0,0.59788 -0.557565,1.00765 -1.457731,1.02109 -2.069037,0.0269 -4.164945,0.20153 -6.207112,-0.0605 -1.592083,-0.20153 -3.170732,-0.83299 -4.648616,-1.49804 -1.739872,-0.78596 -3.352109,-1.86079 -5.058393,-2.72065 -0.819553,-0.40977 -1.511472,-0.90688 -2.102625,-1.60552 -1.786896,-2.12278 -3.526768,-4.27914 -4.66205,-6.83185 -0.436648,-0.98078 -1.451014,-0.9136 -2.156368,-1.39055 -0.295576,-0.201427 -0.698635,-0.24845 -1.00093,-0.436545 -1.665978,-1.034518 -3.271497,-0.980777 -4.829993,0.208248 -0.174659,0.134353 -0.335882,0.295567 -0.530694,0.470227 -0.698636,-0.557557 -0.812836,-1.276346 -0.88673,-2.035441 -0.107483,-1.121848 -0.28886,-2.23026 -0.42993,-3.352109 -0.03359,-0.2284 -0.120918,-0.483671 -0.05374,-0.6852 0.396341,-1.242766 0.839706,-2.472097 1.262919,-3.708145 0.09405,-0.268706 0.221682,-0.517259 0.315729,-0.785965 1.061389,-3.103556 2.189955,-6.200394 3.15058,-9.337543 0.651612,-2.10934 1.148718,-4.26571 1.524907,-6.43551 0.174659,-1.00093 0.409777,-1.91453 0.947189,-2.75424 0.309012,-0.48367 0.497106,-0.92704 0.261989,-1.57193 -0.248554,-0.69192 -0.09405,-1.47788 0.624741,-1.85407 2.922179,-1.51819 4.547851,-4.2993 6.576582,-6.68407 1.027801,-1.20917 2.095908,-2.38476 3.143862,-3.58051 0.745659,-0.8397 1.565213,-1.6391 2.210108,-2.55942 1.014365,-1.45102 2.20339,-2.65348 3.782039,-3.50662 3.325238,-1.78689 6.287723,-4.10448 9.256926,-6.42207 0.994212,-0.76582 2.189955,-1.26292 3.271497,-1.92125 0.329165,-0.20153 0.732224,-0.47696 0.853142,-0.81284 1.021083,-2.75424 2.572861,-5.21962 3.923109,-7.80591 1.236049,-2.36462 2.17652,-4.88374 3.204321,-7.34911 0.523977,-1.26292 0.88673,-2.5863 1.451013,-3.82235 0.31573,-0.70535 0.799401,-1.42414 1.397272,-1.89438 0.483671,-0.38962 0.74566,-0.79268 0.940471,-1.32338 1.330096,-3.64768 3.432721,-6.87215 5.562217,-10.0831902 0.31573,-0.46352 0.564283,-0.9875 0.920319,-1.41071 0.510542,-0.60459 1.068107,-1.16887 1.639107,-1.69285 0.900166,-0.82627 1.83392,-1.61895 2.760956,-2.41835 0.31573,-0.27543 0.604589,-0.63146 0.980777,-0.79269 2.196673,-0.92703 4.285863,-2.22354 6.704218,-2.43851 1.17559,-0.10748 2.398202,0.20825 3.593945,0.33589 0.03359,0.094 0.06718,0.19481 0.100765,0.29557 -0.356036,0.32245 -0.665048,0.71879 -1.074825,0.95391 -0.88673,0.51726 -1.833919,0.95391 -2.74752,1.42414 -0.127636,0.0605 -0.31573,0.0806 -0.369471,0.17466 -0.651613,1.04796 -1.83392,1.39727 -2.734085,2.10263 -0.181377,0.14779 -0.376189,0.29557 -0.510542,0.48367 -2.022013,2.7408 -4.131356,5.4413002 -5.474887,8.5986002 -0.604589,1.4107 -0.953907,2.94233 -1.309943,4.44036 -0.268706,1.17559 -0.194811,2.45867 -0.584435,3.58051 -0.665048,1.89438 -0.329165,3.80891 -0.490389,5.70329 -0.07389,0.77925 -0.302294,1.54506 -0.463518,2.32431 0.718789,0.48367 1.094977,0.32245 1.303225,-0.40978 0.261988,-0.90688 0.597871,-1.78689 0.812836,-2.70049 0.577718,-2.37134 1.11513,-4.7561 1.665978,-7.14087 0.04031,-0.16794 0.107482,-0.32916 0.268706,-0.49711 0.765812,2.94905 1.021083,5.96528 1.276354,8.82028 0.980777,0.55757 1.854072,1.05467 2.915461,1.65926 1.195743,-0.55084 2.613168,-1.15543 3.997004,-1.83392 1.135284,-0.55756 2.189955,-1.27635 3.338674,-1.80033 1.121848,-0.51726 1.880943,-1.38383 2.606449,-2.30415 0.953907,-1.22262 1.840637,-2.49897 2.821415,-3.69471 2.955767,-3.62753 5.535346,-7.49019 7.570795,-11.70215 0.631459,-1.3166602 1.330095,-2.4855402 2.331026,-3.6006702 1.068107,-1.1823 1.571931,-2.86843 2.337746,-4.31945 0.22168,-0.41649 0.50382,-0.80612 0.75237,-1.20916995 0.10749,0.047 0.20825,0.0939999 0.31573,0.13434995 -0.10076,0.53741 -0.16794,1.08154 -0.29557,1.60552 -0.71879,2.82813 -1.545063,5.63611 -2.136217,8.4843902 -0.295576,1.45102 -0.181376,2.98936 -0.221682,4.48068 -0.01344,0.6113 0.120918,1.22933 0.06718,1.8272 -0.09405,1.00093 0.282142,1.72644 1.236049,2.3579 0.65161,-0.50383 1.38384,-1.00093 2.03545,-1.59209 1.10169,-1.01436 2.13621,-2.09591 3.23119,-3.12371 1.57865,-1.47788 3.14386,-2.98263 4.78297,-4.37991 1.142,-0.9740602 2.3982,-1.8070502 3.6141,-2.6870602 0.98749,-0.71879 1.99514,-1.40399 2.98935,-2.12278 1.51819,-1.09497 3.00951,-2.21682 4.53442,-3.30508 0.26199,-0.18138 0.59787,-0.26199 0.89345,-0.38963 0.87329,-0.35603 1.80033,-0.6113 2.59973,-1.07482 2.02201,-1.16886995 4.16494,-1.28978995 6.54299,-1.02779995 -0.40977,0.85986 -0.89345,1.53161995 -1.60552,2.09590995 -1.97499,1.55849 -3.47302,3.53348 -4.85014,5.61596 -0.0806,0.1142 -0.18138,0.25527 -0.17466,0.3829 0.10748,1.32338 -0.62474,2.3914902 -0.98078,3.5805102 -0.30229,1.02108 -0.17466,2.25713 0.047,3.32524 0.26871,1.28979 1.81377,2.25713 3.2715,2.21682 0.92704,-0.0336 1.69957,0.0202 2.39149,0.79269 0.55084,0.61802 1.38383,0.69863 2.23026,0.55085 0.73222,-0.12764 1.49803,-0.22169 2.23026,-0.16123 1.83392,0.14107 3.54692,-0.3426 5.20618,-0.98749 3.2715,-1.27636 6.65048,-1.61224 10.10335,-1.26292 1.19574,0.12092 2.38477,0.42993 3.41929,1.16215 0.56428,0.40306 1.20917,0.69864 1.98842,1.142 -0.59787,0.46352 -1.15544,0.9136 -1.73987,1.3301 -0.3426,0.24183 -0.7994,0.3426 -1.1017,0.6113 -1.17559,1.06139 -2.37805,1.86079 -4.1112,1.49804 -0.35604,-0.0739 -0.92032,0.40306 -1.24948,0.7591 -0.43665,0.47695 -0.74566,1.07482 -1.11513,1.64582 -0.14779,0 -0.28215,0.0202 -0.40978,0 -1.64583,-0.29558 -2.66019,0.0739 -3.37226,1.35697 -0.67849,1.22261 -0.54413,2.44522 0.2687,3.58051 0.1881,0.2687 0.46352,0.47023 0.67177,0.71879 0.50382,0.56428 0.66505,1.20917 0.47023,1.95483 -0.3829,1.50476 0.0806,2.64004 1.45102,3.20432 0.48367,0.20153 0.74566,0.48367 1.01436,0.88673 0.3426,0.50383 0.75238,0.96063 1.12185,1.4443 0.62474,0.81283 1.49804,1.16887 2.37133,0.75238 1.6727,-0.78597 3.13715,-0.0134 4.61503,0.45008 2.00858,0.63818 3.9567,1.47788 5.92497,2.21682 0.30901,0.1142 0.67848,0.12764 0.93375,0.32245 2.98264,2.18324 6.59674,3.39242 9.19647,6.2004 1.1017,1.19574 2.08919,2.3243 2.61317,3.86265 0.28886,0.82627 0.80612,1.57193 1.29651,2.49225 -1.26292,0.0739 -2.39821,0.24855 -3.52005,-0.2284 -0.3426,-0.14779 -0.74566,-0.27543 -1.08826,-0.21497 -1.20246,0.20825 -2.29744,-0.22168 -3.41257,-0.49039 -0.26871,-0.0605 -0.5307,-0.17466 -0.76581,-0.32245 -2.53928,-1.49803 -5.07183,-0.38962 -5.80406,2.55943 -0.0336,0.13435 -0.0202,0.28214 -0.0605,0.41649 -0.59115,2.33775 0.0672,2.00858 1.48461,2.72737 0.29557,1.52491 0.12763,3.05653 -0.66505,4.43365 -0.47696,0.83971 -0.49711,1.56522 -0.15451,2.40492 0.43665,1.06811 1.07483,1.96828 2.02202,2.66019 0.60458,0.44337 1.14871,0.98078 1.77346,1.38384 2.46537,1.56521 3.95669,3.96342 5.52862,6.30788 0.38963,0.57771 0.79269,1.14872 1.2159,1.76674 -0.57772,0.28886 -1.11513,0.571 -1.66598,0.82627 -1.78018,0.82627 -2.68034,2.25041 -2.92218,4.16495 -0.12763,1.00093 0.20153,1.833919 0.69192,2.660191 0.22168,0.382906 0.40978,0.846424 0.40978,1.269636 -0.007,1.007648 0.31573,1.854072 1.0278,2.539273 0.67176,0.651612 1.38384,1.269637 2.09591,1.880943 1.10841,0.927036 2.23698,1.827202 3.55364,2.895309 z"
     id="path4"
     inkscape:connector-curvature="0"
     style="fill:#000000;stroke-width:6.71765327;fill-opacity:1" />
</svg>
