<?xml version="1.0" encoding="UTF-8" standalone="no"?>
<!-- Generator: Adobe Illustrator 23.0.4, SVG Export Plug-In  -->

<svg
   xmlns:dc="http://purl.org/dc/elements/1.1/"
   xmlns:cc="http://creativecommons.org/ns#"
   xmlns:rdf="http://www.w3.org/1999/02/22-rdf-syntax-ns#"
   xmlns:svg="http://www.w3.org/2000/svg"
   xmlns="http://www.w3.org/2000/svg"
   xmlns:sodipodi="http://sodipodi.sourceforge.net/DTD/sodipodi-0.dtd"
   xmlns:inkscape="http://www.inkscape.org/namespaces/inkscape"
   version="1.1"
   x="0px"
   y="0px"
   width="229.25"
   height="229.25"
   viewBox="0 0 229.25 229.25"
   xml:space="preserve"
   id="svg45"
   sodipodi:docname="legions_of_nagash.svg"
   inkscape:version="0.92.3 (2405546, 2018-03-11)"><metadata
   id="metadata49"><rdf:RDF><cc:Work
       rdf:about=""><dc:format>image/svg+xml</dc:format><dc:type
         rdf:resource="http://purl.org/dc/dcmitype/StillImage" /><dc:title></dc:title></cc:Work></rdf:RDF></metadata><sodipodi:namedview
   pagecolor="#ffffff"
   bordercolor="#666666"
   borderopacity="1"
   objecttolerance="10"
   gridtolerance="10"
   guidetolerance="10"
   inkscape:pageopacity="0"
   inkscape:pageshadow="2"
   inkscape:window-width="1920"
   inkscape:window-height="1017"
   id="namedview47"
   showgrid="false"
   inkscape:zoom="1.0295337"
   inkscape:cx="-12.568535"
   inkscape:cy="114.615"
   inkscape:window-x="-8"
   inkscape:window-y="-8"
   inkscape:window-maximized="1"
   inkscape:current-layer="svg45" />
<defs
   id="defs2">
</defs>
<g
   id="bLoCzg_2_"
   transform="translate(6.25)">
    <g
   id="g42">
        <path
   d="m 97.68,229.23 c -1.1,-0.23 -2.2,-0.48 -3.32,-0.68 -0.67,-0.12 -1.36,-0.11 -2.02,-0.22 -1.21,-0.21 -1.47,-0.7 -1.19,-1.96 0.22,-1.01 0.41,-2.03 0.55,-3.05 0.11,-0.79 -0.3,-1.39 -1.08,-1.47 -1.29,-0.13 -1.72,-0.84 -1.56,-2.12 -0.4,-0.03 -0.73,-0.06 -1.13,-0.09 -0.09,0.41 -0.21,0.75 -0.22,1.1 -0.01,0.77 -0.44,0.99 -1.14,1.08 -2.6,0.32 -3.03,0.13 -2.83,-2.48 0.18,-2.52 0.85,-5.02 1.35,-7.51 0.25,-1.25 0.77,-2.47 0.88,-3.72 0.19,-2.24 1.71,-3.44 3.38,-4.38 0.93,-0.52 2.27,-0.8 3.3,-0.57 2.86,0.62 5.69,0.75 8.56,0.28 2.09,-0.34 4.16,-0.79 6.26,-1.01 1.54,-0.16 3.11,-0.09 4.66,-0.01 0.34,0.02 0.78,0.49 0.96,0.86 0.84,1.71 0.87,3.54 0.67,5.4 -0.39,3.69 -0.76,7.39 -1.21,11.07 -0.08,0.64 -0.39,1.62 -0.82,1.77 -0.85,0.29 -1.8,0.03 -2.32,-0.97 -0.38,-0.74 -0.81,-0.74 -1.33,-0.03 -0.21,0.29 -0.73,0.59 -1.05,0.53 -1.04,-0.18 -2.06,-0.48 -3.06,-0.82 -0.61,-0.21 -0.83,0 -1.25,0.45 -1.41,1.51 -1.35,3.26 -1.24,5.11 0.09,1.34 -0.54,2.38 -1.85,2.93 -0.28,0.12 -0.5,0.35 -0.75,0.53 -0.4,-0.02 -0.8,-0.02 -1.2,-0.02 z"
   id="path4"
   inkscape:connector-curvature="0"
   style="fill:#ffffff" />
        <path
   d="m 0,120.51 c 0.15,-0.36 0.37,-0.7 0.43,-1.08 0.13,-0.79 0.27,-1.54 1.28,-1.59 0.97,-0.05 1.66,0.4 1.83,1.36 0.19,1.12 0.84,1.21 1.93,0.91 -0.19,-1.52 -0.29,-3.06 -0.57,-4.56 -0.6,-3.17 0.74,-4.94 3.93,-4.88 4.15,0.09 8.3,0.27 12.45,0.45 1.61,0.07 2.03,0.79 1.38,2.3 -0.49,1.13 -1.02,2.25 -1.56,3.36 -0.45,0.91 -0.55,1.77 -0.12,2.75 0.31,0.71 0.23,1.6 0.59,2.28 0.29,0.55 0.9,1.11 1.48,1.29 1.04,0.3 1.67,0.86 2,1.84 0.88,2.58 0.12,4.29 -2.47,4.95 -4.18,1.06 -8.32,2.17 -12.33,3.78 -1.88,0.76 -3.09,-0.05 -3.66,-2.03 -0.36,-1.25 -0.81,-2.47 -1.22,-3.7 -1.31,0.14 -1.69,0.98 -1.72,1.85 -0.05,1.3 -0.68,1.63 -1.84,1.56 C 0.57,131.28 0.46,130.49 0.45,129.53 0.42,128.01 0.36,126.49 0.28,124.98 0.26,124.6 0.11,124.23 0.01,123.85 0,122.75 0,121.63 0,120.51 Z m 18.4,-8.87 c -0.19,0 -0.37,-0.01 -0.56,-0.01 -0.15,0.54 -0.3,1.09 -0.45,1.63 0.44,-0.01 0.89,-0.02 1.33,-0.03 -0.11,-0.54 -0.21,-1.06 -0.32,-1.59 z"
   id="path6"
   inkscape:connector-curvature="0"
   style="fill:#ffffff" />
        <path
   d="m 216.72,109.95 c -1.39,0.08 -2.79,0.12 -4.17,0.28 -0.31,0.04 -0.66,0.48 -0.82,0.81 -0.2,0.42 -0.17,0.94 -0.31,1.39 -0.28,0.91 -0.56,1.25 -1.83,1.05 -3.12,-0.51 -6.33,-0.53 -9.5,-0.73 -0.43,-0.03 -0.87,0.08 -1.31,0.09 -1.85,0.01 -2.86,-1.04 -2.39,-2.82 0.57,-2.21 0.3,-4.35 0,-6.53 -0.21,-1.48 0.29,-2.28 1.6,-2.98 2.1,-1.12 4.24,-2.03 6.65,-2.14 0.41,-0.02 0.96,0.01 1.22,0.25 0.86,0.81 1.76,0.65 2.67,0.27 2.37,-0.98 3.9,-0.02 4.16,2.64 0.03,0.35 0.04,0.71 0.06,1.14 0.35,0.02 0.65,0.04 0.96,0.05 1.57,0.03 2.35,0.72 2.55,2.26 0.16,1.18 0.32,2.36 0.49,3.54 -0.03,0.47 -0.03,0.95 -0.03,1.43 z"
   id="path8"
   inkscape:connector-curvature="0"
   style="fill:#ffffff" />
        <path
   d="m 109.91,0 c 4.73,4.97 10.17,8.97 14.52,14.15 2.63,3.13 5.97,5.66 8.86,8.59 5.53,5.6 10.98,11.29 16.46,16.94 0.72,0.75 1.47,1.47 2.16,2.25 1.26,1.42 1.33,2.48 0.16,3.96 -2.43,3.08 -3.69,6.53 -3.83,10.49 -0.3,8.55 -0.63,17.09 -1.14,25.63 -0.41,6.82 -1.09,13.62 -1.7,20.43 -0.06,0.69 -0.48,1.34 -0.71,2.01 -0.17,0.51 -0.22,1.09 -0.48,1.55 -0.29,0.51 -0.67,1.1 -1.16,1.34 -3.84,1.87 -7.73,3.64 -11.58,5.48 -1.47,0.71 -2.89,1.53 -4.34,2.28 -1.3,0.68 -1.95,0.37 -1.92,-1.09 0.11,-6.35 0.13,-12.71 0.48,-19.05 0.27,-4.74 0.78,-9.49 1.62,-14.16 0.45,-2.53 0.2,-4.51 -1.34,-6.57 -2.58,-3.45 -4.97,-7.05 -7.42,-10.6 -1.83,-2.66 -3.62,-5.35 -5.44,-8.02 -0.29,-0.42 -0.61,-0.86 -1.01,-1.17 -1.27,-1.01 -2.05,-0.87 -2.83,0.53 -5.02,9 -10.03,18 -15.02,27.02 -0.26,0.46 -0.38,1.05 -0.41,1.59 -0.3,5.83 -0.64,11.66 -0.82,17.49 -0.07,2.18 0.32,4.37 0.38,6.55 0.06,2.11 0.09,4.24 -0.82,6.24 -0.71,1.57 -1.68,1.98 -3.25,1.23 -0.9,-0.43 -1.75,-0.97 -2.67,-1.36 -3.01,-1.26 -6.03,-2.52 -9.08,-3.68 -0.83,-0.32 -1.8,-0.36 -2.7,-0.38 -1.61,-0.03 -2.53,-0.83 -2.64,-2.45 -0.01,-0.16 -0.01,-0.32 -0.01,-0.48 C 72.09,97.39 72.08,88.03 71.75,78.69 71.56,73.35 70.97,68.02 70.33,62.71 69.84,58.59 68.96,54.53 68.31,50.43 67.79,47.19 66.19,44.43 64.57,41.67 63.48,39.82 63.5,39.24 65.14,37.9 71.38,32.78 77.65,27.7 83.92,22.61 91.19,16.71 97.99,10.28 104.76,3.82 106.24,2.37 108.11,1.31 109.91,0 Z m 22.64,107.33 c 1.63,0.02 1.43,-1.47 2.06,-2.33 -1.69,-0.28 -2.54,0.72 -2.06,2.33 z m 15.25,-61.6 c 0.47,-0.61 0.88,-0.95 0.99,-1.36 0.06,-0.23 -0.37,-0.59 -0.58,-0.89 -0.34,0.38 -0.74,0.73 -0.98,1.17 -0.08,0.15 0.26,0.52 0.57,1.08 z m -42.53,-7.21 c 0.42,-0.4 0.84,-0.81 1.26,-1.21 -0.27,-0.24 -0.57,-0.7 -0.81,-0.67 -0.89,0.12 -0.95,0.79 -0.45,1.88 z"
   id="path10"
   inkscape:connector-curvature="0"
   style="fill:#ffffff" />
        <path
   d="m 52.37,126.56 c -0.22,-2.94 -0.44,-6.13 -0.71,-9.31 -0.44,-5.26 -0.98,-10.51 -1.35,-15.77 -0.3,-4.23 -0.3,-8.47 -0.64,-12.69 -0.42,-5.1 -1,-10.18 -1.62,-15.26 -0.26,-2.15 0.08,-4.06 1.49,-5.72 3.47,-4.08 6.94,-8.17 10.46,-12.21 0.36,-0.42 1.28,-0.89 1.56,-0.71 0.48,0.29 0.84,1.05 0.92,1.66 1.45,12.05 1.15,24.19 1.89,36.27 0.12,2.03 0.58,4.04 0.66,6.07 0.12,3.19 0.05,6.39 0.06,9.59 0.01,1.6 0.06,2.23 1.99,2.79 4.86,1.42 9.61,3.2 14.43,4.78 4.85,1.59 9.72,3.11 14.84,4.75 0.12,-1.33 0.32,-2.62 0.35,-3.91 0.09,-5.16 0.06,-10.32 0.18,-15.47 0.11,-4.47 0.56,-8.94 0.47,-13.41 -0.05,-2.68 1.01,-4.76 2.23,-6.91 3.68,-6.5 7.35,-13 11.02,-19.5 0.2,-0.35 0.42,-0.67 0.68,-1.09 1.6,0.72 2.86,1.75 3.68,3.29 2.03,3.81 4.16,7.56 6.03,11.45 1.08,2.25 1.9,4.67 2.49,7.09 0.35,1.46 0.29,3.13 -0.03,4.61 -0.68,3.15 -1.02,6.29 -0.99,9.51 0.05,5.08 0.05,10.16 -0.04,15.24 -0.04,2.27 -0.41,4.53 -0.59,6.79 -0.12,1.54 -0.19,3.09 -0.29,4.83 0.63,-0.08 1.06,-0.05 1.43,-0.2 8.84,-3.49 17.65,-7.05 26.51,-10.46 1.96,-0.75 2.61,-1.86 2.65,-3.9 0.27,-12.96 0.62,-25.91 1.01,-38.86 0.15,-4.96 0.43,-9.91 0.69,-14.86 0.09,-1.67 0.83,-2.4 2.3,-2.2 0.49,0.07 1.09,0.47 1.36,0.9 3.11,4.99 6.49,9.78 10.4,14.17 0.67,0.75 0.97,1.52 0.89,2.5 -0.26,3.02 -0.35,6.06 -0.77,9.06 -0.95,6.86 -0.31,13.74 -0.51,20.6 -0.17,5.92 -0.11,11.85 -0.57,17.74 -0.14,1.87 -0.6,4.16 -2.77,5.29 -2.19,1.14 -4.26,2.51 -6.5,3.54 -5.22,2.4 -10.47,4.75 -15.79,6.93 -4.91,2.01 -9.94,3.72 -14.88,5.64 -1.97,0.76 -3.81,1.85 -5.77,2.62 -3,1.19 -6.04,2.29 -9.11,3.29 -0.73,0.24 -1.71,0.1 -2.46,-0.18 -5.53,-2.08 -11.11,-4.06 -16.52,-6.42 -8.16,-3.55 -16.67,-5.93 -25.2,-8.29 -2.96,-0.82 -6.01,-1.32 -9.02,-1.92 -0.62,-0.13 -1.27,-0.07 -1.91,-0.14 -0.43,-0.04 -0.88,-0.08 -1.28,-0.23 -1.04,-0.38 -2.06,-0.84 -3.35,-1.38 z"
   id="path12"
   inkscape:connector-curvature="0"
   style="fill:#ffffff" />
        <path
   d="m 114.46,189.33 c -0.78,0 -1.45,0 -2.28,0 0.16,-2.5 0.33,-4.95 0.48,-7.4 0.05,-0.84 0.1,-1.68 0.05,-2.51 -0.02,-0.29 -0.37,-0.81 -0.5,-0.79 -0.34,0.05 -0.79,0.28 -0.92,0.56 -0.22,0.49 -0.3,1.07 -0.33,1.62 -0.14,2.15 -0.18,4.32 -0.38,6.47 -0.06,0.66 -0.36,1.42 -0.8,1.88 -0.33,0.34 -1.15,0.48 -1.62,0.32 -0.34,-0.11 -0.63,-0.86 -0.65,-1.33 -0.06,-2.44 0,-4.88 -0.06,-7.32 -0.01,-0.45 -0.29,-1.25 -0.54,-1.28 -0.87,-0.13 -1.14,0.57 -1.15,1.32 -0.03,1.72 -0.02,3.44 -0.03,5.16 -0.01,0.92 0,1.84 -0.03,2.76 -0.02,0.83 -0.26,1.52 -1.26,1.57 -1.02,0.04 -2.07,0.09 -2.51,-1.11 -0.15,-0.4 -0.19,-0.86 -0.19,-1.29 -0.02,-2.28 0.01,-4.56 -0.02,-6.84 -0.02,-1.63 -0.47,-1.93 -1.93,-1.51 0.07,3.11 0.13,6.17 0.19,9.23 0.01,0.4 0.12,0.87 -0.05,1.18 -0.25,0.47 -0.7,0.83 -1.07,1.23 -0.32,-0.35 -0.83,-0.65 -0.92,-1.05 -0.62,-2.72 -1.13,-5.47 -1.73,-8.2 -0.15,-0.68 -0.43,-1.37 -0.81,-1.94 -0.22,-0.33 -0.77,-0.44 -1.17,-0.65 -0.14,0.42 -0.43,0.86 -0.38,1.26 0.11,1.03 0.34,2.05 0.57,3.06 0.61,2.64 1.24,5.28 1.86,7.92 0.04,0.18 0.01,0.37 0.01,0.72 -1.55,-1.11 -2.54,-2.51 -3.07,-4.13 -0.92,-2.84 -1.67,-5.73 -2.5,-8.6 -0.25,-0.87 -0.12,-1.62 0.5,-2.33 0.79,-0.91 1.01,-1.98 0.63,-3.14 -0.85,-2.58 -1.63,-5.18 -2.59,-7.72 -0.43,-1.13 -1.2,-2.13 -1.81,-3.19 -0.43,-0.74 -0.85,-1.5 -1.3,-2.23 -0.2,-0.34 -0.39,-0.71 -0.69,-0.95 -1.63,-1.35 -4.51,-1.28 -6.08,0.11 -1.11,0.98 -2.53,1.08 -3.59,0.08 -2.32,-2.2 -4.6,-4.44 -6.82,-6.74 -0.43,-0.45 -0.66,-1.27 -0.65,-1.92 0.02,-2.36 0.09,-4.72 0.32,-7.07 0.23,-2.3 0.69,-4.57 1.03,-6.86 0.12,-0.83 0.14,-1.68 0.29,-2.5 0.28,-1.45 1.28,-2.03 2.65,-1.48 1.87,0.75 3.9,1.22 5.38,2.76 -0.06,0.15 -0.07,0.29 -0.14,0.36 -2.62,2.71 -2.76,6.4 -0.23,9.22 0.56,0.62 1.37,1.19 2.16,1.4 3.08,0.83 6.17,1.65 9.31,2.2 2.39,0.43 4.84,0.52 7.27,0.64 2.18,0.11 3.85,-1.24 5.48,-2.42 0.44,-0.31 0.32,-1.4 0.46,-2.13 2.08,-0.13 4.01,0.45 5.95,1.27 0.88,0.37 2.03,0.38 3.01,0.22 1.41,-0.24 2.76,-0.8 4.14,-1.2 1.45,-0.42 2.05,-0.14 2.66,1.21 0.9,1.97 2.32,2.56 4.4,1.85 0.33,-0.11 0.71,-0.25 1.04,-0.21 4.27,0.46 8.32,-0.8 12.44,-1.53 1.61,-0.29 3.23,-0.57 4.81,-0.98 0.48,-0.12 1.04,-0.6 1.23,-1.05 0.94,-2.21 1.13,-4.56 1.06,-6.94 -0.01,-0.31 -0.05,-0.69 -0.24,-0.9 -0.82,-0.96 -0.36,-1.46 0.56,-1.89 1.8,-0.85 3.58,-1.74 5.38,-2.58 0.73,-0.33 1.23,-0.08 1.38,0.87 -1.17,0.3 -1.21,1.28 -1.21,2.26 0.01,4.58 -0.66,9.07 -1.52,13.56 -0.36,1.89 -1.24,3.05 -3.02,3.78 -0.94,0.39 -1.75,1.23 -2.47,2.01 -0.92,0.99 -1.7,2.12 -2.53,3.19 -1.39,1.78 -3.06,2.03 -4.89,0.69 -0.77,-0.57 -1.49,-1.2 -2.22,-1.83 -0.95,-0.81 -1.82,-0.7 -2.95,-0.18 -4.87,2.22 -6.44,6.58 -7.58,11.26 -0.32,1.32 -0.6,2.64 -0.93,3.95 -0.21,0.82 -0.07,1.47 0.85,1.64 1.54,0.29 1.6,1.56 0.95,2.57 -1.25,1.97 -1.97,4.04 -2.04,6.4 -0.05,1.61 -0.47,3.2 -0.76,4.8 -0.39,2.23 -2.16,3.3 -3.98,4.43 0.13,-0.72 0.27,-1.43 0.37,-2.16 0.25,-1.73 0.47,-3.47 0.71,-5.21 0.27,-1.97 0.59,-3.94 0.79,-5.92 0.05,-0.48 -0.18,-1.27 -0.52,-1.44 -0.71,-0.36 -0.94,0.37 -1.04,0.92 -0.49,2.83 -0.95,5.66 -1.41,8.5 -0.11,0.7 -0.16,1.41 -0.26,2.24 z m -1.39,-24.46 c 0.05,-1.21 0.15,-2.11 0.12,-3.01 -0.08,-2.43 -0.23,-4.86 -0.34,-7.29 -0.06,-1.33 -1.37,-2.66 -2.91,-2.9 -1.5,-0.23 -2.88,0.54 -3.33,1.92 -0.24,0.76 -0.34,1.56 -0.56,2.32 -0.53,1.87 -1.04,3.76 -1.67,5.6 -0.22,0.63 -1.17,1.22 -1.08,1.7 0.11,0.58 0.97,1.02 1.48,1.54 1.13,1.12 1.54,1.14 2.76,-0.02 0.92,-0.88 1.91,-1.02 3.07,-0.56 0.71,0.27 1.44,0.41 2.46,0.7 z m -16.92,1.57 c -0.16,-0.95 -0.18,-1.6 -0.39,-2.18 -0.1,-0.27 -0.61,-0.62 -0.84,-0.56 -0.27,0.08 -0.59,0.53 -0.61,0.84 -0.04,0.54 0.07,1.12 0.23,1.64 0.19,0.59 -0.23,1.68 0.89,1.57 0.32,-0.03 0.55,-0.98 0.72,-1.31 z"
   id="path14"
   inkscape:connector-curvature="0"
   style="fill:#ffffff" />
        <path
   d="m 37.26,195.46 c -1.27,-1.96 -2.43,-3.76 -3.8,-5.87 0.25,-0.38 0.63,-1.17 1.2,-1.78 3.73,-3.96 7.49,-7.88 11.25,-11.79 1.74,-1.81 4.66,-1.6 5.98,0.52 0.7,1.12 1.05,2.45 1.58,3.68 0.12,0.28 0.26,0.57 0.46,0.79 0.5,0.57 1.08,1.07 1.54,1.67 0.92,1.2 2,1.7 3.59,1.64 2.76,-0.11 4.58,3.07 3.19,5.47 -0.78,1.34 -1.32,2.95 -3.04,3.54 -0.3,0.1 -0.54,0.48 -0.72,0.78 -1.91,3.17 -3.81,6.36 -5.71,9.53 -0.39,0.65 -0.74,1.33 -1.21,1.92 -0.68,0.86 -1.54,0.96 -2.4,0.27 -1.18,-0.95 -2.3,-1.98 -3.46,-2.96 -1.51,-1.26 -2.24,-1.1 -2.9,0.72 -0.34,0.93 -0.91,1.49 -1.87,1.62 -0.99,0.13 -1.74,-0.27 -2.39,-1.06 -1.39,-1.68 -2.83,-3.33 -4.31,-4.92 -0.75,-0.81 -0.79,-1.71 -0.61,-2.67 0.04,-0.19 0.44,-0.38 0.71,-0.45 0.86,-0.23 1.72,-0.39 2.92,-0.65 z"
   id="path16"
   inkscape:connector-curvature="0"
   style="fill:#ffffff" />
        <path
   d="m 20,172.98 c -0.26,-1.62 -0.99,-2.74 -2.03,-3.64 -0.84,-0.72 -0.88,-1.51 -0.53,-2.47 0.5,-1.38 1.36,-2.48 2.63,-3.16 4.12,-2.21 7.76,-5.04 11.12,-8.27 0.67,-0.64 1.34,-0.72 2.18,-0.39 2.08,0.82 3.04,2.38 2.76,4.61 -0.18,1.48 1.21,4.31 2.5,5.04 0.17,0.1 0.38,0.15 0.57,0.16 3.09,0.19 4.37,2.52 5.58,4.83 0.58,1.11 0.17,2.47 -1.09,3.09 -3.78,1.85 -5.88,5.44 -8.82,8.15 -1.54,1.42 -3.35,2.55 -5.08,3.76 -0.21,0.15 -0.68,0.06 -0.98,-0.05 -1.8,-0.62 -2.46,-2.27 -3.39,-3.71 -0.26,-0.4 -0.75,-0.66 -1.13,-0.98 -0.27,0.54 -0.66,1.04 -0.79,1.61 -0.18,0.77 -0.11,1.61 -0.28,2.38 -0.06,0.26 -0.48,0.55 -0.79,0.64 -0.41,0.11 -0.88,-0.01 -1.31,0.05 -0.85,0.13 -1.24,-0.22 -1.37,-1.05 -0.17,-1.08 -0.42,-2.04 -1.79,-2.32 -0.48,-0.1 -1.01,-0.9 -1.16,-1.47 -0.46,-1.75 -1.15,-3.31 -2.58,-4.48 -0.72,-0.59 -0.76,-1.18 -0.1,-1.92 1.34,-1.52 2.25,-1.76 4.11,-0.97 0.52,0.25 1.09,0.36 1.77,0.56 z"
   id="path18"
   inkscape:connector-curvature="0"
   style="fill:#ffffff" />
        <path
   d="m 67.35,215.33 c -0.49,1.11 -0.27,1.84 0.68,2.35 0.87,0.47 1.56,1.03 0.99,2.18 -0.75,1.51 -1.78,2.17 -3.01,1.68 -1.74,-0.69 -3.43,-1.52 -5.15,-2.28 -0.62,-0.27 -1.25,-0.5 -1.91,-0.77 -0.41,-1.89 0.39,-2.99 2.34,-2.92 1.25,0.05 1.43,-0.86 1.69,-1.66 0.27,-0.84 -0.46,-1.1 -1.05,-1.32 -1.42,-0.54 -2.85,-1.02 -4.27,-1.57 -1.62,-0.63 -2.13,-2.07 -1.23,-3.57 0.84,-1.4 1.75,-2.77 2.63,-4.15 0.08,-0.13 0.18,-0.35 0.29,-0.36 1.64,-0.24 1.8,-1.67 2.42,-2.81 0.9,-1.67 2.02,-3.22 3.04,-4.83 0.19,-0.3 0.42,-0.6 0.53,-0.93 0.44,-1.27 1.38,-2.01 2.54,-2.57 1.42,-0.69 1.91,-0.65 2.92,0.57 1.23,1.49 2.47,3.01 4.35,3.66 1.42,0.49 2.92,0.8 4.41,1 1.81,0.25 3.35,1.54 3.8,3.31 0.48,1.89 0.31,3.68 -0.28,5.53 -0.9,2.85 -1.66,5.75 -2.44,8.63 -0.48,1.77 -1.08,3.44 -2.65,4.56 -1.68,1.2 -2.74,0.94 -4.27,-0.41 -1.07,-0.95 -2.49,-1.53 -3.79,-2.21 -0.81,-0.43 -1.68,-0.73 -2.58,-1.11 z"
   id="path20"
   inkscape:connector-curvature="0"
   style="fill:#ffffff" />
        <path
   d="m 167.55,204.68 c -3.15,1.67 -6.23,3.34 -9.35,4.94 -0.95,0.49 -1.57,-0.05 -1.98,-0.94 -1.03,-2.22 -2.51,-2.53 -4.38,-0.95 -1.27,1.07 -2.02,0.81 -2.76,-0.77 -1,-2.12 -2.27,-4.13 -3.14,-6.29 -0.83,-2.07 -1.61,-4.25 -1.86,-6.44 -0.28,-2.48 3.03,-6.31 6.5,-5.28 1.23,0.37 2.26,0.16 3.24,-0.64 0.43,-0.35 0.94,-0.6 1.44,-0.86 0.93,-0.48 1.57,-1.13 1.85,-2.21 0.18,-0.71 0.62,-1.39 1.07,-1.99 1.7,-2.3 4.39,-2.23 6.04,0.15 0.34,0.49 0.58,1.05 0.89,1.56 1.82,3.09 3.63,6.19 5.49,9.26 0.4,0.66 0.43,1.16 -0.24,1.6 -1.89,1.25 -3.78,2.48 -5.67,3.73 -0.33,0.22 -0.9,0.57 -0.86,0.73 0.12,0.49 0.44,1.25 0.77,1.3 1.82,0.28 2.14,1.85 2.95,3.1 z"
   id="path22"
   inkscape:connector-curvature="0"
   style="fill:#ffffff" />
        <path
   d="m 182.09,190.78 c 0,-1.11 0,-2.14 0,-3.61 -0.9,0.41 -1.67,0.59 -2.19,1.05 -1.37,1.22 -2.64,2.56 -3.93,3.87 -0.64,0.65 -1.3,1.23 -2.3,0.87 -0.96,-0.35 -0.98,-1.25 -1.35,-2.04 -0.57,-1.24 -1.63,-2.26 -2.48,-3.38 -0.4,-0.53 -0.95,-1.01 -1.16,-1.6 -0.71,-1.99 -1.8,-3.71 -3.23,-5.26 -1.23,-1.33 -1.19,-1.48 -0.02,-2.91 0.51,-0.62 1.07,-1.19 1.54,-1.84 0.88,-1.19 2.2,-1.57 3.45,-2.2 2.07,-1.04 4.07,-2.36 5.77,-3.91 0.73,-0.67 0.75,-2.21 0.91,-3.38 0.37,-2.72 0.53,-2.83 3.16,-2.01 3.77,1.17 7.38,2.58 10.21,5.51 0.62,0.64 0.82,1.21 0.54,2.02 -0.8,2.3 -1.65,4.58 -2.35,6.91 -0.2,0.68 -0.16,1.59 0.13,2.22 0.5,1.1 0.54,2.02 -0.17,3.02 -1.27,1.79 -2.47,3.63 -3.73,5.43 -0.73,1.09 -1.25,1.3 -2.8,1.24 z"
   id="path24"
   inkscape:connector-curvature="0"
   style="fill:#ffffff" />
        <path
   d="m 138.2,196.53 c 1.78,1.35 2.85,3.07 3.64,4.97 1.03,2.47 2.04,4.95 3,7.44 0.88,2.28 0.13,3.99 -2.14,4.95 -0.77,0.32 -1.59,0.52 -2.39,0.75 -1.81,0.52 -2.66,2.09 -2.08,3.9 0.36,1.13 -0.23,2.17 -1.51,2.52 -1.69,0.46 -3.4,0.89 -5.11,1.3 -1.24,0.3 -2.6,-0.71 -2.74,-1.98 -0.2,-1.71 -0.65,-1.99 -2.28,-1.43 -0.57,0.19 -1.13,0.41 -1.69,0.6 -2.3,0.77 -4.58,-0.45 -5.38,-2.75 -1.24,-3.59 -1.72,-7.29 -1.69,-11.07 0.02,-3.2 2.54,-4.76 5.41,-3.32 0.14,0.07 0.31,0.13 0.42,0.23 2.07,1.94 4.12,1.32 6.14,-0.06 2.4,-1.64 4.77,-3.34 7.14,-5.02 0.4,-0.32 0.79,-0.66 1.26,-1.03 z"
   id="path26"
   inkscape:connector-curvature="0"
   style="fill:#ffffff" />
        <path
   d="m 25.66,146.24 c 1.35,0.3 2.66,0.49 3.9,0.88 2.07,0.66 2.71,2.01 1.86,4.01 -1.26,2.98 -3.89,4.46 -6.76,5.26 -2.62,0.73 -4.82,2.06 -6.96,3.59 -0.91,0.65 -1.79,1.29 -2.94,0.75 -1.15,-0.54 -1.28,-1.63 -1.56,-2.76 -0.4,-1.6 -1.18,-3.1 -1.83,-4.62 -0.07,-0.15 -0.44,-0.3 -0.61,-0.25 -0.22,0.06 -0.51,0.31 -0.54,0.51 -0.09,0.55 -0.05,1.11 -0.1,1.67 -0.05,0.66 0.3,1.51 -0.82,1.68 -1.49,0.23 -2.4,-0.15 -2.69,-1.32 -0.53,-2.13 -0.96,-4.28 -1.45,-6.42 -0.29,-1.22 -0.2,-2.33 0.57,-3.4 0.53,-0.73 0.86,-0.67 1.51,-0.18 0.96,0.71 2.03,1.27 3.06,1.9 0.15,-0.12 0.3,-0.24 0.45,-0.36 -0.49,-1.31 -0.88,-2.67 -1.51,-3.9 -1.12,-2.21 -1.08,-2.83 1.02,-4.09 1.4,-0.83 2.91,-1.48 4.4,-2.15 2.33,-1.04 4.68,-2.03 7.04,-3.01 1.73,-0.71 3.36,-0.44 4.87,0.64 1.16,0.82 1.44,1.62 1.07,3 -0.67,2.48 -1.34,4.96 -1.97,7.44 -0.09,0.37 -0.01,0.77 -0.01,1.13 z"
   id="path28"
   inkscape:connector-curvature="0"
   style="fill:#ffffff" />
        <path
   d="m 202.82,153.57 c 1.28,0.13 2.39,0.15 3.47,0.37 1.09,0.23 1.2,0.62 0.58,1.61 -1.27,2.03 -2.54,4.06 -3.83,6.08 -0.63,0.99 -1.52,1.19 -2.55,0.61 -1.51,-0.86 -2.09,-0.65 -2.89,0.93 -0.54,1.07 -1.13,2.11 -1.78,3.12 -0.77,1.18 -1.15,1.27 -2.31,0.52 -2.66,-1.74 -5.28,-3.57 -7.95,-5.29 -0.72,-0.47 -1.57,-0.79 -2.4,-1.02 -1.05,-0.29 -1.51,-0.73 -1.13,-1.87 0.17,-0.51 0.06,-1.1 0.11,-1.66 0.09,-0.95 0.15,-1.91 0.33,-2.83 0.29,-1.46 1.16,-2.43 2.54,-3.09 0.74,-0.35 1.39,-1.03 1.89,-1.7 0.89,-1.22 1.69,-2.52 2.41,-3.85 0.37,-0.68 0.53,-1.49 0.74,-2.25 0.13,-0.46 0.14,-0.95 0.28,-1.41 0.8,-2.71 1.62,-3.11 4.35,-2.48 2.21,0.52 4.45,0.91 6.69,1.3 0.86,0.15 1.22,0.56 1.52,1.4 1.22,3.45 0.24,6.87 0.05,10.31 -0.03,0.42 -0.09,0.85 -0.12,1.2 z"
   id="path30"
   inkscape:connector-curvature="0"
   style="fill:#ffffff" />
        <path
   d="m 50.26,43.88 c -0.94,1.11 -1.85,2.26 -2.82,3.33 -4.08,4.51 -8.25,8.93 -12.23,13.52 -1.9,2.19 -3.44,4.7 -5.14,7.07 -1.98,2.76 -3.98,5.5 -5.88,8.32 -0.43,0.63 -0.58,1.52 -0.66,2.31 -0.08,0.78 0.13,1.59 0.16,2.39 0.04,1.09 -0.95,2.34 -2.02,2.49 -0.31,0.04 -0.76,-0.08 -0.96,-0.29 -1.32,-1.46 -2.86,-1.43 -4.49,-0.73 -1.53,0.66 -3.09,0.71 -4.7,0.36 C 9.99,82.32 9.46,81.81 9.28,80.28 9.19,79.53 9.23,78.76 9.3,78.01 9.39,77.02 9.15,76.26 8.14,75.92 7.23,75.61 7.21,74.96 7.64,74.31 c 0.57,-0.86 1.27,-1.63 1.87,-2.47 0.9,-1.26 1.76,-2.54 2.63,-3.82 0.13,-0.2 0.21,-0.43 0.35,-0.63 1.26,-1.75 1.64,-1.72 2.6,0.17 0.27,0.53 0.54,1.06 0.92,1.79 0.69,-0.51 1.32,-0.89 1.86,-1.39 7.85,-7.31 16.06,-14.19 24.78,-20.44 1.46,-1.05 2.93,-2.1 4.48,-2.99 0.88,-0.51 1.94,-0.71 2.92,-1.04 0.05,0.13 0.13,0.26 0.21,0.39 z"
   id="path32"
   inkscape:connector-curvature="0"
   style="fill:#ffffff" />
        <path
   d="m 168.78,37.04 c 0.64,0.29 1.31,0.53 1.91,0.89 5.67,3.3 11.19,6.8 15.96,11.37 2.2,2.11 3.85,4.56 5.31,7.19 0.89,1.6 1.85,3.17 2.88,4.69 0.36,0.52 1.04,0.81 1.57,1.21 0.15,-0.11 0.3,-0.22 0.45,-0.33 -0.25,-0.71 -0.46,-1.44 -0.77,-2.12 -0.25,-0.57 -0.44,-1.06 0.34,-1.33 0.04,-0.01 0.08,-0.03 0.1,-0.06 0.56,-0.68 1.06,-1.47 2.15,-1.14 1.16,0.35 1.77,1.25 2.31,2.28 1.33,2.54 2.69,5.07 4.12,7.55 0.53,0.91 0.48,1.41 -0.54,1.82 -1.02,0.41 -1.92,0.78 -3.08,0.27 -0.46,-0.2 -1.24,0.32 -1.88,0.52 0.22,0.48 0.37,1.02 0.68,1.43 0.3,0.4 0.77,0.67 1.32,1.12 -3.26,2.21 -6.41,4.35 -9.71,6.59 -0.83,-2.6 -1.68,-4.95 -2.34,-7.35 -2.2,-8.03 -6.99,-14.65 -11.62,-21.35 -2.95,-4.27 -6.08,-8.41 -9.13,-12.61 -0.09,-0.12 -0.14,-0.26 -0.21,-0.4 0.07,-0.09 0.13,-0.17 0.18,-0.24 z"
   id="path34"
   inkscape:connector-curvature="0"
   style="fill:#ffffff" />
        <path
   d="m 200.03,115.5 c 1.44,0.29 3.04,0.63 4.65,0.92 1.1,0.2 2.21,0.36 3.32,0.46 1.12,0.11 1.7,0.66 1.92,1.77 0.28,1.43 0.63,2.84 1.06,4.23 0.06,0.19 0.95,0.38 1.03,0.26 0.87,-1.19 1.77,-0.24 2.42,0.11 0.46,0.25 0.81,1.25 0.72,1.83 -0.29,1.77 -0.78,3.5 -1.26,5.23 -0.31,1.11 -0.99,1.4 -2.12,1.04 -2.11,-0.68 -2.45,-0.42 -2.73,1.81 -0.12,0.98 -0.37,1.96 -0.67,2.91 -0.55,1.76 -1.84,2.43 -3.6,1.81 -1.2,-0.43 -2.36,-0.98 -3.49,-1.56 -1.78,-0.92 -3.59,-1.21 -5.55,-0.63 -1.94,0.57 -3.32,-0.53 -3.27,-2.57 0.05,-1.83 0.14,-3.66 0.33,-5.48 0.06,-0.59 0.44,-1.18 0.76,-1.71 0.43,-0.71 0.97,-1.36 1.42,-2.07 0.59,-0.92 0.49,-1.73 -0.24,-2.61 -0.35,-0.43 -0.5,-1.28 -0.33,-1.81 0.7,-2.29 3.08,-3.93 5.63,-3.94 z"
   id="path36"
   inkscape:connector-curvature="0"
   style="fill:#ffffff" />
        <path
   d="m 7.33,101.29 c -0.72,0.29 -1.07,0.52 -1.45,0.56 -0.56,0.06 -1.27,0.17 -1.66,-0.1 -0.32,-0.22 -0.48,-1.08 -0.31,-1.49 0.56,-1.34 0.32,-2.64 0.22,-4 -0.1,-1.34 0.11,-2.7 0.22,-4.05 0.06,-0.79 0.55,-1.4 1.3,-1.22 0.54,0.13 1.08,0.71 1.39,1.23 0.23,0.39 0.09,1 0.14,1.92 0.5,-0.42 0.92,-0.61 1.05,-0.91 0.42,-0.99 0.82,-2 1.06,-3.05 0.45,-1.97 1.86,-2.84 3.62,-2.93 3,-0.15 6,0.07 8.71,1.63 1.8,1.04 1.84,1.62 0.57,3.2 -1.74,2.16 -1.43,4.59 -0.74,7.05 0.37,1.33 0.74,2.68 0.91,4.04 0.19,1.56 -0.76,2.59 -2.35,2.66 -3.55,0.16 -7.09,0.29 -10.64,0.42 -1.29,0.04 -1.8,-0.52 -1.88,-1.93 -0.06,-0.94 -0.11,-1.87 -0.16,-3.03 z"
   id="path38"
   inkscape:connector-curvature="0"
   style="fill:#ffffff" />
        <path
   d="m 208.67,89.32 c 0.14,2.73 -0.37,3.72 -2.95,4.67 -2.35,0.86 -4.8,1.46 -7.2,2.17 -0.84,0.25 -1.29,-0.14 -1.44,-0.96 -0.25,-1.37 -0.42,-2.77 -0.78,-4.11 -0.3,-1.14 -0.82,-2.23 -1.25,-3.34 -0.2,-0.52 -0.4,-1.03 -0.63,-1.54 -0.22,-0.47 -0.38,-1.02 -0.73,-1.38 -0.65,-0.67 -0.76,-1.28 0.08,-1.75 2.92,-1.64 5.84,-3.29 8.85,-4.77 0.71,-0.35 1.77,-0.15 2.63,0.02 0.85,0.17 1.61,0.71 2.45,0.92 1.36,0.34 2.12,1.2 2.47,2.49 0.37,1.35 0.75,2.69 1.07,4.05 0.16,0.69 -0.01,1.26 -0.86,1.42 -1.8,0.35 -1.8,0.36 -1.71,2.11 z"
   id="path40"
   inkscape:connector-curvature="0"
   style="fill:#ffffff" />
    </g>
</g>
</svg>