<?xml version="1.0" encoding="UTF-8" standalone="no"?>
<!-- Generator: Adobe Illustrator 23.0.4, SVG Export Plug-In  -->

<svg
   xmlns:dc="http://purl.org/dc/elements/1.1/"
   xmlns:cc="http://creativecommons.org/ns#"
   xmlns:rdf="http://www.w3.org/1999/02/22-rdf-syntax-ns#"
   xmlns:svg="http://www.w3.org/2000/svg"
   xmlns="http://www.w3.org/2000/svg"
   xmlns:sodipodi="http://sodipodi.sourceforge.net/DTD/sodipodi-0.dtd"
   xmlns:inkscape="http://www.inkscape.org/namespaces/inkscape"
   version="1.1"
   x="0px"
   y="0px"
   width="237.882"
   height="237.882"
   viewBox="0 0 237.88201 237.88201"
   xml:space="preserve"
   id="svg10"
   sodipodi:docname="iron_golems.svg"
   inkscape:version="0.92.3 (2405546, 2018-03-11)"><metadata
   id="metadata14"><rdf:RDF><cc:Work
       rdf:about=""><dc:format>image/svg+xml</dc:format><dc:type
         rdf:resource="http://purl.org/dc/dcmitype/StillImage" /><dc:title /></cc:Work></rdf:RDF></metadata><sodipodi:namedview
   pagecolor="#ffffff"
   bordercolor="#666666"
   borderopacity="1"
   objecttolerance="10"
   gridtolerance="10"
   guidetolerance="10"
   inkscape:pageopacity="0"
   inkscape:pageshadow="2"
   inkscape:window-width="1920"
   inkscape:window-height="1017"
   id="namedview12"
   showgrid="false"
   fit-margin-top="0"
   fit-margin-left="0"
   fit-margin-right="0"
   fit-margin-bottom="0"
   inkscape:zoom="0.99193007"
   inkscape:cx="-235.94299"
   inkscape:cy="118.89748"
   inkscape:window-x="-8"
   inkscape:window-y="-8"
   inkscape:window-maximized="1"
   inkscape:current-layer="svg10" />
<defs
   id="defs2">
</defs>
<g
   id="g8"
   transform="translate(10.351002,0.02457043)"
   style="fill:#000000;fill-opacity:1">
    <g
   id="g6"
   style="fill:#000000;fill-opacity:1">
        <path
   d="m 0.06,132.84 c 1.13,0 2.28,0.11 3.4,-0.02 3.25,-0.37 6.49,-0.93 9.75,-1.24 3.62,-0.34 7.25,-0.51 10.88,-0.71 2.84,-0.16 5.58,-0.67 8.35,-1.41 3.17,-0.85 6.52,-1.05 9.79,-1.45 1.46,-0.18 2.96,-0.06 4.41,-0.3 1.54,-0.26 1.89,-0.97 1.91,-2.52 0.03,-2.2 0.17,-4.39 0.29,-6.59 0.12,-2.28 -0.2,-4.38 -1.39,-6.44 -1.47,-2.53 -1.17,-5.41 -0.98,-8.21 0.08,-1.19 0.26,-2.38 0.44,-3.57 0.14,-0.88 -0.17,-1.31 -1.07,-1.27 -1.71,0.09 -3.45,0.05 -5.14,0.32 -4.54,0.74 -8.98,-0.19 -13.46,-0.55 -4.73,-0.38 -9.48,-0.7 -14.2,0.48 -1.66,0.42 -3.45,0.29 -5.19,0.42 C 7.81,99.62 7.78,99.45 7.74,99.29 9.1,98.85 10.43,98.25 11.82,98 c 5.67,-0.99 11.34,-1.97 17.04,-2.73 2.84,-0.38 5.74,-0.29 8.62,-0.42 1.68,-0.07 3.35,-0.16 5.03,-0.21 0.9,-0.03 1.43,-0.45 1.55,-1.34 0.19,-1.38 0.55,-2.64 1.68,-3.6 0.2,-0.17 0.2,-0.76 0.09,-1.1 -0.39,-1.26 -0.79,-2.51 -1.33,-3.71 -0.18,-0.4 -0.76,-0.84 -1.17,-0.86 -2.42,-0.14 -3.2,0.46 -4.26,2.63 -0.32,0.65 -1.05,1.09 -1.59,1.63 -0.49,-0.68 -1.12,-1.31 -1.41,-2.07 -0.2,-0.53 -0.03,-1.27 0.15,-1.87 0.79,-2.68 1.58,-5.37 2.52,-7.99 0.32,-0.88 0.95,-1.79 1.7,-2.35 1.63,-1.24 2.26,-3.06 3.13,-4.75 0.13,-0.25 -0.12,-0.76 -0.3,-1.08 -0.61,-1.05 -0.45,-2.03 -0.19,-3.19 0.82,-3.78 2.78,-7.08 4.57,-10.35 2.53,-4.61 3.02,-9.53 3.51,-14.54 0.25,-2.55 0.48,-5.09 0.71,-7.64 0.15,-1.64 1.21,-2.11 3.15,-1.33 -0.6,1.5 -0.29,2.98 -0.1,4.54 0.61,5.03 1.93,9.96 2.07,15.07 0.06,2.19 0.99,4.34 1.41,6.54 0.21,1.09 0.38,2.28 0.16,3.33 -0.69,3.32 0.56,6.22 1.71,9.15 0.91,2.3 2.01,4.52 2.24,7.04 0.1,1.09 0.87,1.5 1.95,1.51 0.41,0 1.08,0.29 1.17,0.59 0.23,0.75 -0.38,0.95 -1.04,1.09 -1.17,0.25 -2.36,0.51 -3.46,0.94 -0.56,0.22 -1.25,0.77 -1.38,1.29 -0.74,3.06 -1.41,6.15 -1.92,9.25 -0.28,1.7 0.27,2 1.9,1.46 0.78,-0.26 1.63,-0.43 2.45,-0.45 3,-0.06 6,-0.01 9,-0.06 3.26,-0.06 5.64,-1.63 7.34,-4.37 0.5,-0.81 1.11,-1.57 1.73,-2.29 0.58,-0.67 1.25,-0.56 1.52,0.3 0.35,1.1 0.65,2.23 0.79,3.36 0.28,2.22 0.82,2.83 3.03,2.79 4.64,-0.07 9.29,-0.03 13.91,-0.32 3.18,-0.2 3.28,0.2 2.53,-3.11 -0.7,-3.11 0.27,-6.09 0.28,-9.29 -0.26,0 -0.69,0.07 -1.08,-0.02 -0.64,-0.15 -1.36,-0.27 -1.85,-0.65 -0.75,-0.57 -1.48,-1.3 -1.25,-2.42 0.23,-1.14 1.24,-1.23 2.12,-1.47 0.96,-0.27 1.92,-0.51 2.92,-0.77 -1.02,-2.69 -2.49,-4.99 -4.38,-7.01 -0.27,-0.29 -1.07,-0.36 -1.47,-0.18 -2.35,1.04 -4.16,2.8 -5.82,4.72 -0.19,0.22 -0.21,0.58 -0.29,0.88 -0.23,0.87 -1.32,1.58 -2.25,1.37 -1.02,-0.23 -0.96,-1.06 -0.81,-1.83 0.13,-0.66 0.24,-1.4 0.61,-1.92 1.78,-2.54 2.65,-5.45 3.42,-8.38 0.34,-1.3 0.89,-2.27 2.17,-2.95 1.97,-1.05 2.11,-1.92 0.94,-3.8 -0.97,-1.57 -0.74,-3.19 -0.31,-4.86 1.48,-5.81 3.3,-11.51 5.47,-17.1 0.5,-1.3 0.94,-2.59 0.31,-4.05 -0.43,-1 1.07,-2.82 2.39,-2.94 0.99,-0.09 1.22,-0.55 1.33,-1.44 0.3,-2.49 0.75,-4.97 1.09,-7.45 0.36,-2.6 0.65,-5.22 1,-7.82 0.07,-0.55 0.19,-1.12 0.42,-1.62 0.87,-1.91 1.03,-3.9 0.9,-5.97 -0.1,-1.58 0.63,-2.16 2.02,-1.66 0.33,0.12 0.7,0.52 0.8,0.87 0.65,2.35 1.29,4.7 1.81,7.08 0.18,0.84 0.08,1.75 0.01,2.62 -0.02,0.27 -0.34,0.56 -0.6,0.74 -0.28,0.21 -0.75,0.22 -0.94,0.47 -0.46,0.6 -1.19,1.35 -1.1,1.94 0.08,0.53 1.04,1.22 1.7,1.33 2.35,0.38 3.59,1.69 4.32,3.91 0.66,2.03 1.68,3.94 2.59,5.88 0.5,1.06 0.12,2.7 -0.88,3.42 -1.11,0.79 -1.14,1.32 -0.15,2.29 0.17,0.17 0.34,0.37 0.55,0.46 2.17,0.87 2.99,2.75 3.6,4.8 1.04,3.48 2.16,6.94 3.13,10.44 0.64,2.3 1.09,4.66 1.56,7 0.11,0.52 0.15,1.22 -0.11,1.62 -0.73,1.13 -0.6,2.25 -0.37,3.46 0.94,4.96 2.14,9.83 4.69,14.27 0.35,0.61 0.53,1.33 0.7,2.03 0.24,0.98 -0.22,1.43 -1.21,1.41 -1.78,-0.04 -3.48,-0.45 -4.75,-1.71 -2.55,-2.52 -4.98,-5.17 -7.47,-7.76 -0.38,-0.39 -0.77,-0.85 -1.25,-1.05 -0.78,-0.34 -1.31,-0.27 -1.58,0.86 -0.53,2.2 -1.35,4.34 -2.07,6.49 -0.53,1.58 -0.42,1.76 1.12,2.4 0.49,0.2 0.85,0.74 1.26,1.13 -0.35,0.33 -0.64,0.8 -1.05,0.97 -0.84,0.35 -1.02,0.87 -0.81,1.7 0.28,1.12 0.46,2.27 0.71,3.4 0.18,0.79 0.25,1.5 -0.25,2.28 -0.22,0.35 -0.04,1.22 0.27,1.6 0.9,1.12 1.29,2.28 0.86,3.67 -0.32,1.04 0.14,1.37 1.13,1.35 6.12,-0.13 12.23,-0.26 18.35,-0.34 1.28,-0.02 1.94,-0.58 2.33,-1.77 0.56,-1.68 0.88,-3.5 2.41,-4.95 0.27,0.51 0.54,0.93 0.72,1.38 0.52,1.3 1.01,2.6 1.48,3.92 0.3,0.83 0.84,1.17 1.71,1.2 6.15,0.21 12.31,0.45 18.46,0.67 1.32,0.05 1.55,-0.16 1.58,-1.47 0.02,-0.72 -0.1,-1.46 0.02,-2.16 0.55,-3.28 -0.53,-6.22 -1.85,-9.11 -0.17,-0.37 -0.71,-0.64 -1.14,-0.8 -0.35,-0.13 -0.8,-0.06 -1.19,0.01 -1.47,0.26 -2.48,-0.32 -3.26,-1.8 0.75,-0.24 1.5,-0.41 2.2,-0.71 1.3,-0.56 2.68,-1.02 3.82,-1.82 1.12,-0.79 0.84,-1.73 -0.47,-2.17 -2.38,-0.81 -3.78,-3.19 -3.33,-5.65 0.57,-3.1 1.13,-6.2 1.68,-9.31 0.25,-1.42 1.05,-2.25 2.41,-2.67 1.85,-0.57 1.96,-0.7 1.86,-2.63 -0.21,-4.21 -0.17,-8.41 0.51,-12.56 0.86,-5.23 1.94,-10.43 2.98,-15.63 0.1,-0.49 0.62,-0.89 0.95,-1.33 0.1,0.05 0.21,0.09 0.31,0.14 0.15,1.29 0.24,2.59 0.46,3.87 0.55,3.21 1.77,6.28 1.73,9.63 -0.02,1.37 0.32,2.79 0.76,4.11 0.48,1.46 1.11,2.92 1.95,4.2 1.75,2.69 2.97,5.54 3.43,8.73 0.12,0.82 0.66,1.59 1.03,2.36 0.34,0.72 0.72,1.42 1.22,2.39 -0.76,-0.07 -1.1,-0.09 -1.44,-0.13 -1.89,-0.26 -3.2,1.33 -2.42,3.06 0.17,0.37 0.88,0.6 1.37,0.7 2.58,0.49 4.74,1.63 6.38,3.83 -0.99,1.01 -0.65,2.03 -0.03,3.11 1.85,3.26 3.66,6.55 5.45,9.85 0.25,0.46 0.37,1.09 0.3,1.6 -0.06,0.39 -0.45,0.9 -0.81,1.04 -0.29,0.11 -0.92,-0.13 -1.12,-0.42 -0.95,-1.36 -2.25,-1.31 -3.66,-1.11 -1.82,0.26 -3.64,0.5 -5.46,0.71 -1.27,0.15 -2.48,0.58 -2.94,1.78 -1.34,3.53 -2.51,7.12 -3.84,10.95 2.66,0.33 4.98,0.81 7.31,0.87 7.15,0.17 14.3,0.21 21.46,0.23 1.4,0.01 2.44,0.47 3.41,1.71 -0.94,0.08 -1.71,0.19 -2.49,0.21 -8.24,0.18 -16.47,0.36 -24.71,0.51 -1.12,0.02 -2.24,-0.1 -3.36,-0.15 -0.82,-0.04 -1.15,0.31 -1.03,1.16 0.45,3.3 0.46,6.59 0.1,9.92 -0.31,2.81 -0.06,5.68 -0.36,8.5 -0.28,2.68 -0.62,5.3 0.01,7.97 0.13,0.54 -0.28,1.2 -0.42,1.8 -0.12,0.48 -0.22,0.96 -0.32,1.44 0.48,0.1 0.98,0.34 1.45,0.29 8.63,-0.89 17.27,-0.09 25.9,-0.14 5.11,-0.03 10.23,0.42 15.34,0.66 1.42,0.07 2.7,0.47 3.87,1.66 -0.56,0 -0.93,0 -1.32,0 -0.04,0.43 -0.07,0.78 -0.1,1.15 -4.15,-0.12 -8.25,-0.29 -12.34,-0.32 -1.79,-0.02 -3.58,0.25 -5.38,0.39 -5.22,0.4 -10.43,0.8 -15.65,1.19 -3.86,0.29 -7.72,0.56 -11.58,0.83 -1.21,0.08 -1.77,0.57 -1.79,1.77 -0.04,3.59 0,7.19 -0.06,10.78 -0.04,1.91 -0.28,3.82 -0.34,5.73 -0.03,1.06 0.13,2.13 0.2,3.2 0.07,1.26 0.24,2.53 0.18,3.79 -0.1,2.01 0.95,3.23 2.93,2.92 7.79,-1.2 15.63,-0.69 23.45,-0.74 4.52,-0.03 9.04,-0.23 13.55,-0.23 1.9,0 3.81,0.31 5.7,0.57 0.52,0.07 0.99,0.48 1.68,0.84 -0.4,0.18 -0.49,0.26 -0.59,0.27 -5.1,0.38 -10.19,0.86 -15.3,1.08 -4.45,0.19 -8.81,0.78 -13.2,1.49 -4.4,0.71 -8.92,0.71 -13.38,1.07 -0.99,0.08 -1.97,0.33 -2.94,0.55 -0.96,0.22 -1.46,0.87 -1.3,1.85 1.04,6.26 1.26,12.56 1.05,18.89 -0.03,0.76 0.21,1.61 0.56,2.3 1.52,2.99 1.89,6.12 1.64,9.43 -0.27,3.55 -0.34,7.11 -0.53,10.66 -0.08,1.57 -0.31,3.11 -1.38,4.38 -0.9,1.06 -1.26,1.1 -2.41,0.33 -0.56,-0.38 -1.15,-0.72 -1.71,-1.1 -1.02,-0.7 -1.95,-0.82 -3.07,-0.05 -1.46,0.99 -3.28,0.2 -3.59,-1.55 -0.2,-1.12 -0.35,-2.36 -0.07,-3.44 0.96,-3.77 0.51,-7.55 0.42,-11.34 -0.1,-4.24 -0.28,-8.47 -0.37,-12.71 -0.11,-4.88 -0.14,-9.76 -0.26,-14.63 -0.01,-0.53 -0.31,-1.48 -0.57,-1.51 -0.89,-0.11 -2.01,-0.19 -2.68,0.26 -0.67,0.45 -1.22,0.57 -1.94,0.59 -1.54,0.05 -3.08,0.22 -4.62,0.21 -1.47,-0.01 -2.95,-0.18 -4.42,-0.3 -1.28,-0.1 -2.55,-0.23 -3.82,-0.33 -1.28,-0.09 -1.54,0.23 -1.49,1.48 0.01,0.41 -0.19,0.92 -0.46,1.24 -0.46,0.54 -1.03,1 -1.6,1.44 -1.15,0.89 -1.93,0.64 -2.47,-0.75 -0.38,-0.97 -0.67,-1.98 -1.18,-2.87 -0.24,-0.42 -0.87,-0.64 -1.35,-0.89 -0.19,-0.09 -0.48,-0.03 -0.71,0.01 -2.73,0.45 -5.33,-0.01 -8.02,-0.67 -3.76,-0.92 -7.63,-0.68 -11.39,0.37 -0.27,0.07 -0.62,0.53 -0.61,0.79 0.11,2.26 0.28,4.52 0.46,6.77 0.07,0.91 0.21,1.82 0.31,2.73 0.2,1.74 0.32,3.49 0.6,5.21 0.22,1.36 0.04,2.58 -0.52,3.84 -0.34,0.76 -0.55,1.69 -0.46,2.51 0.45,4.41 1.04,8.8 1.52,13.21 0.12,1.1 0.58,1.47 1.67,1.55 2.22,0.15 4.45,0.34 6.64,0.73 1.29,0.23 2.29,1.07 2.7,2.8 -2.28,0 -4.42,-0.02 -6.57,0.01 -1.04,0.02 -2.07,0.16 -3.11,0.2 -0.84,0.03 -1.13,0.46 -1.04,1.24 0.3,2.62 0.59,5.24 0.89,7.86 0.03,0.31 0.07,0.63 0.06,0.94 -0.06,1.66 -0.3,3.33 -0.19,4.98 0.3,4.21 -0.53,8.28 -1.36,12.34 -0.54,2.61 -2.26,3.82 -4.44,3.64 -2.72,-0.22 -4.97,-2.21 -5.25,-4.76 -0.09,-0.82 0.01,-1.67 0.12,-2.5 0.21,-1.56 -0.1,-2.95 -1.24,-4.07 -0.66,-0.65 -0.94,-1.28 -0.51,-2.24 0.21,-0.46 0.15,-1.21 -0.09,-1.67 -0.52,-0.99 -0.52,-1.85 0.03,-2.82 0.98,-1.7 0.23,-3.39 -1.69,-3.66 -1.35,-0.19 -2.21,-0.73 -2.62,-2.06 -0.15,-0.47 -0.58,-0.85 -0.85,-1.29 -0.65,-1.06 -0.44,-1.43 0.75,-1.74 0.56,-0.15 1.27,-0.43 1.53,-0.88 0.75,-1.28 0.13,-2.42 -1.36,-2.55 -2.06,-0.17 -4.14,-0.14 -6.19,-0.39 -0.7,-0.08 -1.55,-0.61 -1.92,-1.19 -0.41,-0.64 0.4,-0.76 0.9,-0.83 2.85,-0.4 5.71,-0.76 8.54,-1.21 0.42,-0.07 1.07,-0.56 1.1,-0.91 0.33,-3.61 0.95,-7.25 0.09,-10.86 -0.31,-1.32 -0.96,-2.6 -1.64,-3.79 -0.61,-1.06 -0.53,-2.14 0.63,-2.67 0.99,-0.45 0.99,-0.97 0.71,-1.89 -0.3,-0.97 -0.46,-2.05 -0.39,-3.06 0.17,-2.47 0.58,-4.92 0.74,-7.39 0.12,-1.86 0.01,-3.74 -0.01,-5.61 -0.01,-0.77 -0.5,-1.06 -1.18,-1.05 -2.22,0.06 -4.44,-0.3 -6.66,0.41 -0.93,0.3 -2.11,-0.18 -3.18,-0.27 -2.82,-0.25 -5.64,-0.6 -8.46,-0.7 -2.31,-0.08 -3.6,1.53 -3.4,3.88 0.03,0.32 0.16,0.65 0.1,0.95 -0.1,0.56 -0.29,1.11 -0.45,1.66 -0.58,-0.19 -1.2,-0.29 -1.72,-0.58 -0.44,-0.25 -0.74,-0.72 -1.12,-1.07 -0.41,-0.38 -0.79,-0.84 -1.28,-1.07 -1.02,-0.5 -1.17,-1.17 -0.77,-2.16 0.5,-1.23 0.32,-1.56 -0.98,-1.57 -3.23,-0.02 -6.47,0.04 -9.7,0.06 -1.08,0.01 -2.16,0.01 -3.23,-0.01 -0.98,-0.02 -1.73,0.36 -1.7,1.41 0.13,4.75 0.33,9.5 0.5,14.25 0.01,0.2 0.01,0.44 0.13,0.58 1.84,2.17 0.99,4.82 1.29,7.26 0.42,3.44 0.73,6.9 1.09,10.44 0.03,0 -0.23,-0.06 -0.39,0.04 -0.4,0.25 -0.76,0.57 -1.13,0.86 0.37,0.22 0.73,0.44 1.1,0.65 0.06,0.04 0.2,-0.02 0.23,0.02 0.36,0.42 0.9,0.8 1.02,1.28 0.26,1.02 1.23,2.08 0.25,3.12 -0.23,0.24 -1.15,0.22 -1.44,-0.03 -2.16,-1.89 -4.55,-2.26 -7.28,-1.55 -0.91,0.23 -2.01,0.08 -2.93,-0.2 -1.55,-0.47 -2.47,-1.59 -2.41,-3.31 0.03,-0.76 0.1,-1.51 0.15,-2.27 0.14,-2.06 0.36,-4.13 0.41,-6.19 0.06,-2.76 -0.02,-5.51 -0.01,-8.27 0,-1.23 -0.03,-2.43 0.64,-3.59 0.33,-0.57 0.31,-1.4 0.29,-2.11 -0.09,-3.4 -0.25,-6.79 -0.37,-10.19 -0.05,-1.41 -0.17,-1.53 -1.55,-1.32 -9.57,1.46 -19.17,2.63 -28.88,2.36 -2.28,-0.06 -4.56,0.05 -6.84,0.16 -1.75,0.09 -3.22,-0.45 -4.45,-1.67 -0.18,-0.18 -0.31,-0.42 -0.46,-0.63 0.25,-0.14 0.5,-0.37 0.77,-0.39 2.55,-0.23 5.1,-0.43 7.65,-0.64 7.01,-0.6 14.01,-1.26 21.03,-1.79 3.55,-0.26 7.11,-0.29 10.67,-0.41 1.57,-0.05 1.68,-0.29 1.7,-1.84 0.03,-3.82 -0.02,-7.63 0.41,-11.45 0.48,-4.28 0.5,-8.62 0.68,-12.93 0.06,-1.44 -0.3,-1.78 -1.71,-1.83 -2.85,-0.1 -5.66,-0.02 -8.41,0.95 -1.65,0.58 -3.23,0.33 -4.58,-0.91 -0.28,-0.25 -0.68,-0.45 -1.05,-0.51 -2.01,-0.34 -4.02,-0.75 -6.04,-0.89 -1.49,-0.1 -3.04,0.04 -4.51,0.33 -1.71,0.33 -3.39,0.65 -5.07,0.03 -3.29,-1.21 -6.68,-0.94 -10.07,-0.89 -1.91,0.03 -3.82,-0.12 -5.72,-0.32 -0.71,-0.07 -1.39,-0.5 -2.09,-0.77 0.03,-0.05 0.05,-0.17 0.07,-0.28 z m 136.58,-10.3 c 0.11,-0.02 0.22,-0.04 0.33,-0.06 0.12,0.26 0.28,0.52 0.34,0.8 0.25,1.05 0.54,2.1 0.67,3.16 0.12,0.92 0.57,1.24 1.43,1.21 0.6,-0.02 1.2,0.01 1.8,0.02 5.96,0.02 11.91,0.03 17.87,0.06 0.78,0 1.47,0.05 1.63,-1.07 0.45,-3.16 0.99,-6.3 1.52,-9.45 0.54,-3.18 1.48,-6.29 1.19,-9.59 -0.24,-2.78 -0.28,-5.58 -0.4,-8.38 -0.04,-0.84 -0.05,-1.68 -0.11,-2.51 -0.05,-0.72 -0.4,-1.15 -1.2,-1.22 -1.8,-0.15 -3.58,-0.31 -5.28,0.56 -0.36,0.19 -0.85,0.18 -1.28,0.17 -3.35,-0.05 -6.7,-0.14 -10.05,-0.17 -1.64,-0.01 -1.76,0.16 -1.28,1.73 0.31,1.02 0.17,1.65 -0.99,1.98 -0.56,0.16 -1,0.75 -1.47,1.17 -0.41,0.37 -0.74,0.86 -1.19,1.18 -0.98,0.68 -1.57,0.38 -1.64,-0.81 -0.05,-0.88 0.03,-1.76 -0.03,-2.64 -0.11,-1.54 -1.01,-2.55 -2.3,-2.58 -3.24,-0.06 -6.48,-0.13 -9.64,0.76 -1.53,0.43 -2.97,0.42 -4.35,-0.55 -0.44,-0.31 -1.03,-0.5 -1.57,-0.52 -2.11,-0.11 -4.23,-0.16 -6.34,-0.18 -0.87,-0.01 -1.21,0.52 -1,1.36 0.19,0.77 0.45,1.53 0.62,2.31 0.61,2.87 0.79,5.68 -1.05,8.27 -0.46,0.65 -0.66,1.54 -0.77,2.35 -0.28,1.96 -0.34,3.95 -0.66,5.9 -0.51,3.04 -0.55,5.95 1.24,8.65 0.4,0.61 0.61,1.39 0.76,2.12 0.18,0.87 0.62,1.2 1.48,1.2 6.51,0.05 13.03,0.12 19.54,0.2 0.88,0.01 1.32,-0.33 1.45,-1.21 0.2,-1.41 0.48,-2.81 0.73,-4.22 z m -26.87,21.91 c 0.62,5.69 1.18,10.78 1.73,15.86 0.1,0.93 0.65,1.24 1.56,1.27 5.64,0.13 11.27,0.31 16.9,0.45 1,0.03 2,0.01 2.99,-0.1 1.94,-0.21 2.54,-0.91 2.71,-2.84 0.07,-0.74 0.18,-1.52 0.46,-2.2 0.28,-0.68 0.79,-1.27 1.2,-1.91 0.7,0.54 1.43,1.05 2.08,1.64 0.21,0.19 0.21,0.6 0.36,0.87 0.42,0.75 0.74,1.6 1.33,2.19 1.82,1.84 4.13,2.25 6.63,2.07 3.55,-0.26 7.1,-0.47 10.65,-0.63 1.12,-0.05 1.53,-0.41 1.52,-1.58 -0.06,-4.95 -0.12,-9.91 -0.01,-14.86 0.07,-3.19 0.44,-6.38 0.66,-9.57 0.1,-1.35 -0.2,-1.66 -1.36,-1.69 -3.07,-0.09 -6.14,-0.2 -9.21,-0.34 -3.34,-0.15 -6.69,-0.35 -10.03,-0.53 -1.05,-0.06 -1.51,0.4 -1.8,1.46 -0.26,0.94 -0.83,1.89 -1.51,2.61 -0.64,0.68 -1.36,0.36 -1.54,-0.57 -0.14,-0.74 -0.18,-1.51 -0.15,-2.26 0.03,-0.87 -0.31,-1.21 -1.17,-1.26 -6.79,-0.36 -13.56,-0.39 -20.33,0.44 -1.61,0.2 -1.86,0.47 -2.02,2.08 -0.14,1.43 -0.24,2.87 -0.51,4.28 -0.33,1.89 -0.83,3.77 -1.14,5.12 z M 75.42,123.9 c 0.67,1.14 1.34,2.23 1.94,3.35 0.36,0.67 0.79,1.01 1.59,1 7.15,-0.11 14.31,-0.2 21.46,-0.27 0.85,-0.01 1.25,-0.36 1.21,-1.23 -0.1,-2.64 -0.24,-5.27 -0.24,-7.91 0,-3.11 -0.03,-6.23 0.23,-9.33 0.26,-3.03 0.67,-6.02 -0.02,-9.05 -0.22,-0.97 -0.08,-2.07 0.11,-3.07 0.25,-1.34 0.08,-1.7 -1.28,-1.68 -2.08,0.02 -4.16,0.03 -6.23,0.14 -0.99,0.05 -2.08,0.1 -2.91,0.55 -1.38,0.75 -2.75,0.65 -4.18,0.52 -0.8,-0.07 -1.61,-0.23 -2.38,-0.13 -0.5,0.06 -1.13,0.42 -1.38,0.83 -0.54,0.87 -0.79,1.92 -1.31,2.81 -0.29,0.48 -0.85,1.02 -1.36,1.11 -1.11,0.2 -3.16,-1.98 -3.01,-3.11 0.12,-0.91 -0.27,-1.28 -1.09,-1.32 -0.4,-0.02 -0.8,0.03 -1.19,0.06 -2.31,0.17 -4.66,0.72 -6.91,0.44 -3.52,-0.44 -6.84,0.23 -10.2,0.9 -0.55,0.11 -1.29,0.73 -1.41,1.23 -0.44,1.86 -0.64,3.74 0.17,5.64 0.98,2.29 0.75,4.61 0.08,7.02 -0.74,2.64 -1.29,5.42 -0.6,8.16 0.43,1.73 1.03,3.38 1.01,5.22 -0.01,0.82 0.51,1.67 0.86,2.47 0.09,0.21 0.47,0.41 0.71,0.41 3.88,-0.04 7.75,-0.09 11.63,-0.17 2.38,-0.05 2.67,-0.3 2.94,-2.64 0.1,-1.04 0.53,-1.73 1.76,-1.95 z m 25.01,37.4 c -0.12,-0.6 -0.21,-0.99 -0.26,-1.38 -0.19,-1.5 -0.57,-3.01 -0.5,-4.5 0.1,-2.14 0.58,-4.26 0.81,-6.4 0.57,-5.22 2.37,-10.29 1.82,-15.65 -0.1,-0.95 -0.3,-1.37 -1.31,-1.36 -2.24,0.03 -4.48,-0.12 -6.71,-0.01 -1.49,0.08 -2.96,0.51 -4.45,0.72 -1.29,0.18 -2.59,0.37 -3.89,0.35 -2.07,-0.04 -4.14,-0.29 -6.22,-0.37 -1.32,-0.05 -1.47,0.19 -1.25,1.47 0.09,0.55 0.31,1.12 0.23,1.65 -0.09,0.57 -0.34,1.41 -0.74,1.57 -0.72,0.29 -1.36,-0.24 -1.64,-1.01 -0.2,-0.56 -0.4,-1.13 -0.55,-1.71 -0.28,-1.07 -0.88,-1.47 -2.03,-1.3 -1.81,0.27 -3.69,0.7 -5.47,0.5 -2.75,-0.31 -5.41,-0.05 -8.11,0.31 -2.33,0.31 -2.44,0.38 -2.93,2.68 -0.05,0.23 -0.09,0.47 -0.1,0.71 -0.16,3.15 -0.32,6.3 -0.47,9.46 -0.08,1.75 -0.29,3.52 -0.18,5.26 0.15,2.51 0.57,5 0.82,7.5 0.17,1.65 0.27,1.75 1.88,1.68 4.39,-0.2 8.79,-0.52 13.18,-0.5 2.11,0.01 3.22,-0.67 3.84,-2.64 0.43,-1.38 1.17,-2.66 1.77,-3.99 0.13,0 0.25,-0.01 0.38,-0.01 0.32,0.56 0.73,1.1 0.94,1.7 0.31,0.9 0.44,1.86 0.7,2.79 0.55,1.97 1.19,2.46 3.25,2.46 4.36,0.01 8.72,0.01 13.08,0.01 1.31,0.01 2.63,0.01 4.11,0.01 z M 97.74,64.95 c 1.39,-0.13 2.59,-0.2 3.77,-0.36 0.35,-0.05 0.93,-0.3 0.96,-0.53 0.15,-1.02 0.38,-2.13 0.13,-3.09 -0.37,-1.45 -1.72,-1.99 -3.08,-2.33 -0.7,-0.17 -1.11,0.02 -1.33,0.76 -0.42,1.37 -0.91,2.72 -1.39,4.07 -0.46,1.26 -0.24,1.54 0.94,1.48 z M 49.65,62.26 c -1.33,-0.3 -1.99,0.23 -2.39,1.17 -0.26,0.62 -0.43,1.29 -0.64,1.93 -0.28,0.84 0.73,2.41 1.61,2.43 0.23,0 0.64,-0.27 0.68,-0.47 0.28,-1.68 0.5,-3.37 0.74,-5.06 z M 103,79.17 c 0.16,0.04 0.32,0.07 0.48,0.11 0.47,-0.27 0.95,-0.53 1.42,-0.8 0.01,-0.14 0.02,-0.28 0.04,-0.41 -0.62,-0.14 -1.24,-0.28 -1.86,-0.42 -0.04,0.51 -0.06,1.01 -0.08,1.52 z"
   id="path4"
   inkscape:connector-curvature="0"
   style="fill:#000000;fill-opacity:1" />
    </g>
</g>
</svg>