<?xml version="1.0" encoding="UTF-8" standalone="no"?>
<!-- Generator: Adobe Illustrator 23.0.4, SVG Export Plug-In  -->

<svg
   xmlns:dc="http://purl.org/dc/elements/1.1/"
   xmlns:cc="http://creativecommons.org/ns#"
   xmlns:rdf="http://www.w3.org/1999/02/22-rdf-syntax-ns#"
   xmlns:svg="http://www.w3.org/2000/svg"
   xmlns="http://www.w3.org/2000/svg"
   xmlns:sodipodi="http://sodipodi.sourceforge.net/DTD/sodipodi-0.dtd"
   xmlns:inkscape="http://www.inkscape.org/namespaces/inkscape"
   version="1.1"
   x="0px"
   y="0px"
   width="252.89"
   height="252.89"
   viewBox="0 0 252.88999 252.89001"
   xml:space="preserve"
   id="svg13"
   sodipodi:docname="scions_of_the_flame.svg"
   inkscape:version="0.92.3 (2405546, 2018-03-11)"><metadata
   id="metadata17"><rdf:RDF><cc:Work
       rdf:about=""><dc:format>image/svg+xml</dc:format><dc:type
         rdf:resource="http://purl.org/dc/dcmitype/StillImage" /><dc:title /></cc:Work></rdf:RDF></metadata><sodipodi:namedview
   pagecolor="#ffffff"
   bordercolor="#666666"
   borderopacity="1"
   objecttolerance="10"
   gridtolerance="10"
   guidetolerance="10"
   inkscape:pageopacity="0"
   inkscape:pageshadow="2"
   inkscape:window-width="1920"
   inkscape:window-height="1017"
   id="namedview15"
   showgrid="false"
   fit-margin-top="0"
   fit-margin-left="0"
   fit-margin-right="0"
   fit-margin-bottom="0"
   inkscape:zoom="0.93317519"
   inkscape:cx="-204.02512"
   inkscape:cy="126.43"
   inkscape:window-x="-8"
   inkscape:window-y="-8"
   inkscape:window-maximized="1"
   inkscape:current-layer="svg13" />
<defs
   id="defs2">
</defs>
<g
   id="HAIq82_2_"
   transform="translate(0.94999969,0.00999969)"
   style="fill:#000000;fill-opacity:1">
    <g
   id="g10"
   style="fill:#000000;fill-opacity:1">
        <path
   d="m 55.15,131.7 c -0.46,-0.34 -0.74,-0.57 -1.04,-0.77 -1.81,-1.16 -3.79,-0.5 -4.52,1.5 -0.47,1.28 -1.15,1.55 -1.81,0.53 -1.55,-2.43 -4.2,-3.35 -6.42,-4.78 -3.21,-2.07 -6.7,-3.71 -10.11,-5.45 -4.31,-2.2 -9.05,-2.83 -13.73,-3.61 C 14.73,118.66 11.9,118.48 9.1,118.11 8.24,118 7.39,117.72 6.57,117.42 4.97,116.83 3.38,116.39 1.66,116.88 1.27,117 0.82,116.91 0,116.91 c 0.53,-0.57 0.77,-0.98 1.12,-1.19 0.86,-0.5 1.73,-1.04 2.67,-1.34 3.46,-1.09 6.9,-2.25 10.43,-3.07 2.98,-0.69 6.09,-0.8 9.1,-1.4 5.34,-1.06 10.78,-1.78 15.59,-4.75 2.14,-1.32 4.67,-2.01 6.96,-3.11 1.24,-0.59 2.44,-1.33 3.51,-2.19 1.53,-1.22 2.92,-2.6 4.61,-4.14 0.4,1.38 0.82,2.56 1.06,3.77 0.29,1.45 0.41,2.93 0.64,4.39 0.23,1.44 0.82,2.07 2.15,1.68 3.77,-1.1 7.5,0.25 11.25,-0.05 0.66,-0.05 1.31,-0.19 1.97,-0.3 0.55,-0.1 1.09,-0.27 1.64,-0.32 0.59,-0.05 1.2,-0.04 1.8,0.02 3.42,0.33 6.58,-0.05 8.76,-3.21 1.03,1.53 1.4,3.06 1.35,4.76 -0.14,4.84 -0.32,9.71 1,14.42 0.64,2.28 1.52,4.56 2.7,6.6 2.33,4 4.93,7.85 7.46,11.73 0.38,0.58 0.93,1.09 1.5,1.5 1.56,1.12 3.21,2.11 4.75,3.25 5.92,4.39 12.6,6.83 19.84,7.86 4.1,0.58 8.16,-0.04 12.15,-0.84 14.22,-2.85 24.63,-10.69 30.86,-23.89 2.35,-4.97 2.8,-10.27 3.02,-15.65 0.13,-3.02 0.49,-6.03 0.76,-9.24 2.51,2.48 5.53,2.12 8.53,1.89 1.28,-0.1 2.55,-0.22 3.83,-0.26 0.55,-0.02 1.18,-0.01 1.64,0.23 2.25,1.16 4.68,0.78 7.04,0.86 1.11,0.04 1.54,-0.76 1.52,-1.84 -0.07,-2.77 -0.02,-5.54 -0.02,-8.29 1.66,1.26 3.07,2.65 4.74,3.54 4.01,2.14 8.12,4.16 12.58,5.23 7.48,1.79 14.48,5.02 21.84,7.16 4.06,1.18 8.21,2.03 12.29,3.12 2.31,0.62 4.57,1.39 6.84,2.15 0.57,0.19 1.06,0.6 1.51,1.13 -0.58,0.05 -1.16,0.15 -1.74,0.13 -3.21,-0.12 -6.05,1.38 -9.07,2.05 -4.17,0.93 -8.36,1.76 -12.54,2.64 -0.39,0.08 -0.79,0.16 -1.16,0.27 -4.25,1.34 -8.5,2.71 -12.76,4.02 -0.82,0.25 -1.71,0.33 -2.57,0.38 -0.83,0.04 -1.12,-0.5 -0.97,-1.27 0.13,-0.67 0.33,-1.32 0.46,-1.98 0.18,-0.98 -0.31,-1.47 -1.21,-1.06 -2.79,1.28 -5.54,2.65 -8.31,3.99 -0.07,0.03 -0.15,0.08 -0.19,0.15 -2.08,3.64 -6.32,5.4 -8.1,9.38 -0.43,0.97 -1.89,1.48 -2.92,2.23 -0.4,-3.64 -0.76,-7.14 -1.17,-10.64 -0.07,-0.63 -0.33,-1.23 -0.49,-1.85 -0.23,-0.88 -0.83,-1.21 -1.7,-1.16 -1.76,0.09 -3.52,0.13 -5.27,0.27 -0.35,0.03 -0.78,0.35 -0.99,0.66 -0.49,0.72 -0.86,1.53 -1.3,2.29 -0.61,1.06 -0.84,2.14 -0.36,3.32 0.15,0.36 0.19,0.77 0.33,1.39 -1.18,0.16 -2.29,0.37 -3.42,0.45 -1.35,0.09 -2.72,0.04 -4.07,0.13 -0.39,0.03 -0.94,0.27 -1.08,0.57 -0.11,0.24 0.17,0.89 0.46,1.07 1.76,1.12 2.22,2.52 1.16,4.36 -0.07,0.12 -0.01,0.31 -0.01,0.52 0.61,0.03 1.2,0.06 2.02,0.09 -0.74,0.91 -1.38,1.69 -2.01,2.49 -0.88,1.12 -0.78,1.44 0.47,2.04 0.37,0.18 0.67,0.51 0.97,0.81 0.92,0.91 1.75,1.94 2.76,2.74 0.92,0.72 1.58,1.4 1.81,2.65 0.17,0.95 0.83,1.88 1.48,2.66 5.3,6.4 10.67,12.76 15.97,19.16 0.68,0.82 1.14,1.82 1.67,2.76 0.15,0.27 0.18,0.61 0.27,0.92 -0.08,0.06 -0.17,0.11 -0.25,0.17 -0.38,-0.26 -0.75,-0.53 -1.13,-0.77 -3.62,-2.35 -7.29,-4.62 -10.84,-7.06 -2.33,-1.6 -4.65,-3.27 -6.72,-5.18 -2.99,-2.76 -5.79,-5.74 -8.6,-8.69 -1.11,-1.17 -1.53,-0.14 -2.15,0.51 -0.66,-1.1 -1.3,-2.18 -1.97,-3.3 -2.71,1.75 -5.27,3.44 -7.87,5.07 -0.48,0.3 -1.09,0.37 -1.64,0.56 -1.13,0.38 -2.28,0.7 -3.37,1.17 -1.73,0.75 -2.29,0.63 -3.22,-0.97 -0.44,-0.76 -0.89,-1.38 -1.94,-1.32 -0.35,0.02 -0.72,-0.41 -1.09,-0.64 -1.63,1.27 -1.61,2.59 0.23,6.33 -1.36,0.31 -2.65,0.62 -3.96,0.88 -0.55,0.11 -1.12,0.08 -1.67,0.15 -0.75,0.1 -1.67,0.03 -2.17,0.44 -0.4,0.33 -0.16,1.34 -0.45,1.94 -0.79,1.66 -0.3,3.31 -0.1,4.95 0.25,2.08 0.07,3.97 -1.45,5.58 -0.42,0.44 -0.54,1.15 -0.88,1.68 -0.27,0.42 -0.76,0.72 -0.98,1.16 -0.27,0.52 -0.36,1.13 -0.62,2.02 1.95,-0.47 3.54,-0.92 5.17,-1.23 1.19,-0.22 2.43,-0.25 3.64,-0.37 0.43,-0.04 0.87,-0.07 1.29,-0.17 1.61,-0.4 2.01,-0.21 2.63,1.07 -1.26,1.85 -2.47,3.51 -3.53,5.26 -0.37,0.61 -0.38,1.45 -0.51,2.19 -0.24,1.33 -0.29,2.71 -0.69,3.98 -1.31,4.11 -2.84,8.14 -4.12,12.26 -1.86,5.98 -3.55,12.01 -5.35,18.01 -0.47,1.56 -1.09,3.08 -1.65,4.62 -0.33,0.92 -0.97,1.16 -1.9,0.92 -1.51,-0.38 -1.89,-0.23 -2.27,1.27 -0.48,1.87 -0.83,3.79 -1.11,5.7 -0.07,0.45 0.24,1.12 0.6,1.42 0.18,0.15 0.89,-0.25 1.31,-0.48 0.58,-0.31 1.12,-0.7 1.96,-1.24 -0.13,1.84 -0.13,3.34 -0.36,4.81 -0.65,4.13 -1.35,8.24 -2.12,12.35 -0.14,0.74 -0.72,1.39 -1.09,2.08 -0.17,-0.03 -0.33,-0.06 -0.5,-0.09 -0.17,-0.49 -0.42,-0.98 -0.5,-1.49 -0.87,-5.2 -1.71,-10.4 -2.54,-15.61 -0.13,-0.79 -0.24,-1.6 -0.18,-2.39 0.29,-3.66 -0.6,-7.25 -0.69,-10.86 -0.07,-2.89 -1.04,-5.35 -2.14,-7.87 -0.72,-1.65 -1.38,-3.32 -2.16,-4.94 -3.29,-6.92 -5.13,-14.34 -7.62,-21.54 -0.92,-2.65 -1.79,-5.3 -3.86,-7.53 3.42,-1.95 6.38,0.38 9.64,0.64 -0.08,-0.87 0.07,-1.8 -0.26,-2.49 -0.85,-1.74 -0.68,-3.49 -0.43,-5.28 0.41,-2.93 0.79,-5.86 1.21,-8.95 -2.14,-0.43 -4.24,-0.85 -6.33,-1.26 -2.59,-0.51 -5.18,-1.01 -7.77,-1.5 -0.54,-0.1 -0.87,-0.27 -1,-0.93 -0.11,-0.57 -0.51,-1.25 -0.99,-1.54 -0.93,-0.57 -0.81,-1.13 -0.33,-1.87 1.07,-1.62 1.94,-3.31 1.77,-5.6 -0.69,0.2 -1.41,0.26 -1.97,0.6 -2.11,1.25 -4.31,2.02 -6.81,2.01 -0.55,0 -1.21,0.39 -1.65,0.79 -1.7,1.57 -3.3,3.27 -5.02,4.82 -0.69,0.62 -1.54,1.13 -2.41,1.45 -1.55,0.57 -2.86,1.4 -3.84,2.74 -0.25,0.35 -0.58,0.66 -0.93,0.91 -5.07,3.63 -10.14,7.25 -15.21,10.88 -0.3,0.21 -0.61,0.39 -0.92,0.59 -0.11,-0.1 -0.21,-0.2 -0.32,-0.3 0.47,-0.74 0.87,-1.53 1.42,-2.21 1.5,-1.87 3.04,-3.71 4.6,-5.54 1.8,-2.11 3.41,-4.33 4.46,-6.92 0.57,-1.41 1.6,-2.37 3.03,-2.89 2.04,-0.73 3.34,-2.18 4.29,-4.11 0.86,-1.75 1.97,-3.38 3,-5.04 0.49,-0.79 0.61,-1.47 0.29,-2.44 -0.76,-2.31 -1.94,-4.33 -3.2,-6.38 -2.74,-4.48 -4.87,-9.25 -5.78,-14.49 -0.33,-1.87 -0.57,-2.02 -2.48,-1.89 -4.95,0.34 -9.89,0.67 -14.84,1.02 -0.44,0.03 -0.89,0.07 -1.3,0.2 -0.77,0.25 -1.16,0.83 -0.75,1.58 0.8,1.58 0.14,2.96 -0.3,4.54 z M 40.83,112.94 c -0.32,1.31 0.43,2.23 1.5,3 0.39,0.28 0.82,0.52 1.15,0.86 2.44,2.43 5.28,1.89 7.6,-0.13 0.63,-0.55 1.29,-1.31 1.45,-2.08 0.62,-2.91 -1.33,-6.75 -4,-8.08 -0.51,-0.25 -1.16,-0.41 -1.71,-0.34 -2.72,0.31 -5.9,3.89 -5.99,6.77 z m 148.89,0.29 c 0.06,4.24 1.48,6 4.82,5.97 2.65,-0.02 5.07,-2.91 5.02,-6 -0.02,-1.4 -3.58,-4.61 -5.08,-4.58 -2.71,0.06 -4.79,2.08 -4.76,4.61 z m -13.92,16.12 c 0.04,-0.17 0.08,-0.33 0.12,-0.5 -0.56,-0.7 -1.12,-1.4 -1.74,-2.18 -0.4,0.45 -0.82,0.75 -0.98,1.16 -0.12,0.31 0.02,1.04 0.2,1.09 0.77,0.24 1.6,0.3 2.4,0.43 z m -57.01,53.15 c 0.14,0 0.27,0 0.41,0 0.05,-0.43 0.24,-0.9 0.11,-1.26 -0.08,-0.23 -0.63,-0.3 -0.97,-0.44 -0.06,0.09 -0.13,0.17 -0.19,0.26 0.21,0.48 0.42,0.96 0.64,1.44 z"
   id="path4"
   inkscape:connector-curvature="0"
   style="fill:#000000;fill-opacity:1" />
        <path
   d="m 89.3,87.82 c 1.3,7.89 2.13,15.97 6.82,23.08 -0.64,0.12 -1.16,0.07 -1.43,0.31 -0.43,0.37 -0.91,0.92 -0.95,1.42 -0.02,0.28 0.84,0.92 1.26,0.89 1.61,-0.14 2.55,0.63 3.3,1.9 0.42,0.72 1.02,1.35 1.4,2.09 0.53,1.03 0.94,2.12 1.48,3.37 1.52,-0.4 2.65,0.77 3.74,2.05 0.33,0.39 0.71,0.77 1.13,1.07 6.51,4.67 13.43,8.49 21.4,10.05 3.19,0.63 6.2,0.21 9.4,-0.67 6.04,-1.68 10,-5.99 14.24,-9.99 1.79,-1.69 2.91,-3.91 3.61,-6.28 1.07,-3.68 2.26,-7.34 3.03,-11.08 1.09,-5.27 0.46,-10.47 -1.88,-15.32 -2.25,-4.67 -3.01,-9.52 -2.1,-14.57 0.31,-1.73 1.21,-3.36 1.82,-5.04 0.22,-0.61 0.42,-1.24 0.48,-1.96 -1.95,1.17 -4.24,1.96 -5.31,4.04 -1.14,2.21 -1.95,4.6 -2.76,6.97 -1.12,3.27 -0.1,6.47 0.54,9.68 0.94,4.7 0.53,9.29 -0.5,13.99 -1.34,6.09 -4.76,10.53 -9.38,14.32 -0.71,0.58 -1.43,1.16 -2.1,1.79 -4.12,3.89 -8.82,5.15 -14.45,3.99 -4.54,-0.93 -6.55,-3.93 -7.97,-7.78 -0.15,-0.41 -0.13,-0.88 -0.27,-1.29 -1.73,-4.92 -0.8,-9.75 0.51,-14.56 0.86,-3.16 2.58,-5.85 4.82,-8.18 5.21,-5.42 10.51,-10.76 16.44,-15.41 4.84,-3.79 8.92,-8.36 12.98,-12.94 3.28,-3.7 4.28,-8.38 5.39,-13.02 0.88,-3.67 0.12,-7.24 -0.15,-10.84 -0.18,-2.37 -0.57,-4.72 -0.9,-7.35 1.09,1.04 2.21,1.92 3.09,3 2.24,2.7 3.88,5.78 5.07,9.06 2.4,6.65 4.58,13.39 5.63,20.41 0.81,5.42 0.9,10.81 -1.36,16.03 -0.49,1.12 -0.3,2.59 -0.23,3.89 0.22,4.43 0.76,8.86 0.74,13.29 -0.04,7.13 -0.78,14.2 -2.78,21.09 -1.61,5.57 -4.06,10.88 -8.06,14.97 -6.15,6.28 -13.02,11.67 -22.36,12.7 -6.64,0.73 -13.29,1.36 -19.75,-0.56 -8.83,-2.62 -15.79,-7.76 -19.73,-16.39 -1.59,-3.48 -3.53,-6.87 -4.58,-10.52 -1.72,-5.98 -2.19,-12.12 -0.98,-18.37 0.83,-4.4 1.12,-8.89 1.66,-13.33 z"
   id="path6"
   inkscape:connector-curvature="0"
   style="fill:#000000;fill-opacity:1" />
        <path
   d="m 115.89,125.72 c -1.43,-0.43 -2.63,-1.23 -3.61,-2.42 -0.34,-0.41 -0.71,-0.84 -1.15,-1.11 -3.23,-1.92 -5.65,-4.55 -7.78,-7.65 -4.58,-6.65 -6.73,-14.35 -9.86,-21.63 -1.1,-2.57 -1.48,-5.46 -2.09,-8.23 -0.13,-0.58 0.1,-1.26 0.22,-1.88 0.69,-3.53 1.41,-7.05 2.1,-10.57 0.52,-2.62 1.73,-4.94 3.52,-6.85 2.94,-3.15 6.06,-6.15 9.11,-9.2 0.14,-0.14 0.38,-0.17 0.87,-0.38 -0.24,0.49 -0.32,0.71 -0.45,0.91 -0.29,0.43 -0.68,0.81 -0.89,1.27 -0.56,1.23 -0.76,2.59 0.2,3.62 0.89,0.96 2.12,0.39 3.13,-0.04 0.76,-0.32 1.48,-0.8 2.11,-1.35 4.89,-4.25 9.8,-8.48 14.59,-12.83 0.81,-0.74 1.52,-2.04 1.55,-3.11 0.13,-4.91 0.18,-9.83 -0.08,-14.73 -0.2,-3.8 -1.87,-7.19 -4.32,-10.1 -3.53,-4.19 -5.52,-9.13 -7.32,-14.18 -0.66,-1.85 -0.02,-3.54 0.52,-5.23 0.14,-0.01 0.28,-0.03 0.41,-0.04 0.37,1.43 0.74,2.86 1.16,4.47 1.99,-0.67 3.02,0.75 4.27,1.89 1.08,0.98 2.29,1.9 3.6,2.52 5.99,2.81 10.96,6.79 14.89,12.14 2.03,2.77 4.38,5.3 6.48,8.02 2.36,3.06 3.72,6.5 3.58,10.44 -0.02,0.67 0.11,1.35 0.21,2.02 1.3,8.16 -1.39,15.16 -6.24,21.53 -2.93,3.85 -6.62,6.93 -10.21,10.1 -0.74,0.65 -1.56,1.27 -2.45,1.71 -2.58,1.27 -4.78,3.02 -6.94,4.88 -2.06,1.77 -4.32,3.31 -6.34,5.13 -1.22,1.1 -2.35,2.43 -3.17,3.85 -2.47,4.29 -4.99,8.57 -6.28,13.42 -0.44,1.66 -0.76,3.35 -1.08,5.03 -0.35,1.82 0.22,3.49 1.06,5.06 1.62,3.03 3.3,6.03 4.91,9.06 0.33,0.62 0.46,1.34 0.72,1.99 0.16,0.39 0.4,0.76 0.63,1.12 0.22,0.34 0.48,0.66 0.73,0.99 -0.09,0.13 -0.2,0.25 -0.31,0.36 z"
   id="path8"
   inkscape:connector-curvature="0"
   style="fill:#000000;fill-opacity:1" />
    </g>
</g>
</svg>