<?xml version="1.0" encoding="UTF-8" standalone="no"?>
<!-- Generated by IcoMoon.io -->

<svg
   xmlns:dc="http://purl.org/dc/elements/1.1/"
   xmlns:cc="http://creativecommons.org/ns#"
   xmlns:rdf="http://www.w3.org/1999/02/22-rdf-syntax-ns#"
   xmlns:svg="http://www.w3.org/2000/svg"
   xmlns="http://www.w3.org/2000/svg"
   xmlns:sodipodi="http://sodipodi.sourceforge.net/DTD/sodipodi-0.dtd"
   xmlns:inkscape="http://www.inkscape.org/namespaces/inkscape"
   version="1.1"
   width="215"
   height="215"
   viewBox="0 0 215 215"
   id="svg16"
   sodipodi:docname="ally.svg"
   inkscape:version="0.92.3 (2405546, 2018-03-11)">
  <metadata
     id="metadata22">
    <rdf:RDF>
      <cc:Work
         rdf:about="">
        <dc:format>image/svg+xml</dc:format>
        <dc:type
           rdf:resource="http://purl.org/dc/dcmitype/StillImage" />
        <dc:title>fighters-ally</dc:title>
      </cc:Work>
    </rdf:RDF>
  </metadata>
  <defs
     id="defs20">
    <clipPath
       clipPathUnits="userSpaceOnUse"
       id="clipPath1201">
      <path
         d="m 419.503,83.89 h 8.777 v 9.72 h -8.777 z"
         id="path1199"
         inkscape:connector-curvature="0" />
    </clipPath>
  </defs>
  <sodipodi:namedview
     pagecolor="#ffffff"
     bordercolor="#666666"
     borderopacity="1"
     objecttolerance="10"
     gridtolerance="10"
     guidetolerance="10"
     inkscape:pageopacity="0"
     inkscape:pageshadow="2"
     inkscape:window-width="1920"
     inkscape:window-height="1017"
     id="namedview18"
     showgrid="false"
     fit-margin-top="0"
     fit-margin-left="0"
     fit-margin-right="0"
     fit-margin-bottom="0"
     inkscape:zoom="0.921875"
     inkscape:cx="-407.94715"
     inkscape:cy="140.89531"
     inkscape:window-x="-8"
     inkscape:window-y="-8"
     inkscape:window-maximized="1"
     inkscape:current-layer="svg16" />
  <title
     id="title2">fighters-ally</title>
  <path
     d="m 107.42602,107.49025 c 0.0471,0 0.0942,0 0.14796,-0.0471 0,0 0,0.0471 0,0.0471 -0.0471,0 -0.0942,0 -0.14796,0.0471 0.0471,0.0471 0,0 0,-0.0471 z"
     id="path6"
     inkscape:connector-curvature="0"
     style="fill:#ffffff;fill-opacity:1;stroke-width:6.72550011" />
  <path
     d="m 107.42602,107.30496 c 0.0471,0.14797 0.0942,0.24212 0.14796,0.39008 0,0 -0.0471,0 -0.0471,0 -0.0471,-0.0942 -0.0471,-0.24211 -0.0942,-0.39008 0,0 0,0 0,0 z"
     id="path8"
     inkscape:connector-curvature="0"
     style="fill:#ffffff;fill-opacity:1;stroke-width:6.72550011" />
  <path
     d="m 107.5,107.5471 c 0,0 -0.0471,0 -0.0471,-0.0471 0,0 0,-0.0471 0.0471,-0.0471 0,0 0.0471,0 0.0471,0.0471 0,0 0,0 -0.0471,0.0471 z"
     id="path10"
     inkscape:connector-curvature="0"
     style="fill:#ffffff;fill-opacity:1;stroke-width:6.72550011" />
  <path
     d="m 107.52354,107.40247 c 0.0471,0.0471 0.0471,0.0941 0.0471,0.14796 0,0 -0.0471,0.0471 -0.0471,0.0471 -0.0471,-0.0471 -0.0471,-0.0942 -0.0942,-0.14797 0.0471,-0.0471 0.0471,-0.0471 0.0942,-0.0471 z"
     id="path12"
     inkscape:connector-curvature="0"
     style="fill:#ffffff;fill-opacity:1;stroke-width:6.72550011" />
  <path
     d="m 107.47646,107.5 c 0,0 0,-0.0471 0,-0.0471 0,0 0.0471,0 0.0471,0 0,0.0471 0,0.0942 0,0.0942 0,-0.0471 0,-0.0471 -0.0471,-0.0471 z"
     id="path14"
     inkscape:connector-curvature="0"
     style="fill:#ffffff;fill-opacity:1;stroke-width:6.72550011" />
  <g
     id="g1195"
     transform="matrix(22.119569,0,0,-22.119569,-9268.7929,2070.6129)"
     style="fill:#ffffff;fill-opacity:1">
    <g
       id="g1197"
       clip-path="url(#clipPath1201)"
       style="fill:#ffffff;fill-opacity:1">
      <g
         id="g1203"
         transform="translate(421.0546,90.0341)"
         style="fill:#ffffff;fill-opacity:1">
        <path
           d="M 0,0 C -0.005,-0.026 -0.005,-0.052 -0.016,-0.072 -0.061,-0.154 -0.079,-0.246 -0.11,-0.333 -0.126,-0.38 -0.13,-0.43 -0.14,-0.478 -0.145,-0.504 -0.151,-0.53 -0.157,-0.556 c -0.011,-0.048 -0.028,-0.095 -0.034,-0.143 -0.005,-0.046 -0.001,-0.093 0,-0.139 0.001,-0.114 0.002,-0.228 0.003,-0.341 0.001,-0.103 0.002,-0.206 0.002,-0.309 0,-0.074 0.004,-0.147 -0.002,-0.22 -0.007,-0.076 0.034,-0.142 0.033,-0.215 0,-0.002 0.001,-0.003 0.002,-0.004 0.007,-0.029 0.014,-0.058 0.021,-0.086 0.004,-0.013 0.005,-0.027 0.011,-0.039 0.009,-0.023 0.026,-0.045 0.031,-0.069 0.011,-0.059 0.027,-0.115 0.041,-0.173 0.009,-0.036 0.014,-0.074 0.031,-0.107 0.018,-0.035 0.016,-0.072 0.023,-0.108 0.007,-0.035 0.032,-0.066 0.028,-0.106 -0.002,-0.016 0.003,-0.033 0.01,-0.047 0.028,-0.058 0.054,-0.117 0.061,-0.182 0.001,-0.01 0.004,-0.021 0.009,-0.03 0.035,-0.06 0.056,-0.129 0.106,-0.181 0.021,-0.022 0.036,-0.048 0.056,-0.071 0.05,-0.056 0.101,-0.113 0.153,-0.169 0.032,-0.035 0.075,-0.059 0.097,-0.104 0.004,-0.008 0.011,-0.015 0.018,-0.02 0.042,-0.033 0.086,-0.065 0.129,-0.097 0.012,-0.009 0.025,-0.017 0.036,-0.027 0.034,-0.033 0.067,-0.067 0.102,-0.1 0.024,-0.022 0.05,-0.042 0.075,-0.063 0.051,-0.044 0.1,-0.091 0.166,-0.113 0.016,-0.006 0.032,-0.016 0.047,-0.026 0.03,-0.023 0.057,-0.048 0.088,-0.07 0.028,-0.019 0.057,-0.041 0.089,-0.05 0.092,-0.027 0.168,-0.076 0.233,-0.146 0.005,-0.006 0.013,-0.013 0.021,-0.015 0.096,-0.027 0.181,-0.087 0.285,-0.087 0.015,0 0.029,-0.009 0.043,-0.013 0.069,-0.023 0.138,-0.039 0.211,-0.032 0.036,0.003 0.072,0.001 0.108,0 0.012,-0.001 0.026,-0.006 0.037,-0.012 0.051,-0.026 0.104,-0.046 0.161,-0.047 0.067,-0.003 0.135,-0.002 0.203,-0.002 0.037,0 0.073,0 0.11,-0.015 0.024,-0.01 0.053,-0.011 0.079,-0.011 0.144,-0.001 0.288,-0.001 0.432,0 0.024,0 0.048,0.005 0.071,0.012 0.037,0.011 0.073,0.025 0.11,0.039 0.068,0.026 0.137,0.038 0.21,0.03 0.031,-0.004 0.063,0.001 0.094,0.006 0.066,0.011 0.132,0.024 0.197,0.039 0.036,0.009 0.074,0.018 0.105,0.037 0.056,0.036 0.107,0.082 0.174,0.099 0.012,0.003 0.023,0.014 0.033,0.023 0.022,0.023 0.049,0.038 0.08,0.048 0.022,0.007 0.044,0.019 0.064,0.03 0.072,0.041 0.135,0.094 0.212,0.125 0.027,0.011 0.051,0.026 0.081,0.018 0.006,-0.002 0.016,0 0.021,0.004 0.03,0.022 0.06,0.045 0.088,0.069 0.029,0.024 0.054,0.052 0.083,0.075 0.051,0.042 0.107,0.078 0.155,0.122 0.065,0.059 0.126,0.123 0.188,0.185 0.02,0.021 0.038,0.043 0.056,0.064 0.053,0.059 0.115,0.111 0.14,0.19 0.003,0.01 0.01,0.019 0.016,0.027 0.036,0.052 0.069,0.105 0.084,0.167 0.004,0.016 0.012,0.032 0.022,0.044 0.052,0.059 0.083,0.131 0.119,0.2 0.014,0.025 0.022,0.052 0.033,0.078 0.024,0.058 0.048,0.116 0.073,0.174 0.01,0.023 0.021,0.046 0.033,0.068 0.024,0.042 0.045,0.084 0.048,0.134 0.002,0.027 0.013,0.055 0.025,0.08 0.022,0.048 0.045,0.097 0.049,0.149 0.007,0.098 0.055,0.19 0.049,0.29 0,0.007 0.005,0.014 0.007,0.022 0.009,0.042 0.02,0.084 0.027,0.126 0.007,0.039 0.004,0.079 0.013,0.116 0.017,0.069 0.024,0.138 0.021,0.209 -0.001,0.028 0.005,0.057 0.015,0.083 0.01,0.026 0.016,0.051 0.013,0.078 -0.003,0.017 0,0.033 -10e-4,0.05 C 6.005,-0.998 6.007,-0.96 6,-0.924 5.986,-0.847 5.967,-0.772 5.949,-0.697 5.941,-0.663 5.932,-0.63 5.922,-0.597 5.903,-0.53 5.882,-0.463 5.863,-0.395 5.844,-0.327 5.83,-0.259 5.809,-0.192 5.797,-0.155 5.789,-0.12 5.792,-0.082 5.793,-0.066 5.791,-0.049 5.787,-0.033 5.769,0.026 5.75,0.084 5.732,0.142 5.722,0.173 5.712,0.205 5.701,0.236 5.676,0.302 5.653,0.368 5.625,0.432 5.602,0.486 5.574,0.537 5.544,0.588 5.516,0.635 5.484,0.68 5.453,0.726 5.439,0.746 5.428,0.768 5.411,0.784 5.357,0.839 5.297,0.89 5.275,0.968 5.274,0.971 5.271,0.973 5.27,0.976 5.235,1.037 5.173,1.073 5.132,1.129 5.129,1.132 5.124,1.135 5.12,1.136 5.074,1.146 5.04,1.174 5.012,1.211 5.003,1.222 4.99,1.23 4.978,1.24 4.931,1.279 4.882,1.316 4.836,1.357 4.745,1.442 4.655,1.528 4.565,1.614 4.529,1.649 4.486,1.672 4.438,1.687 4.421,1.693 4.405,1.701 4.392,1.713 4.357,1.742 4.319,1.758 4.272,1.755 4.254,1.753 4.235,1.76 4.217,1.767 4.193,1.778 4.171,1.795 4.146,1.804 4.106,1.819 4.069,1.835 4.039,1.867 4.012,1.895 3.981,1.918 3.937,1.916 3.924,1.915 3.909,1.923 3.896,1.929 3.849,1.951 3.804,1.97 3.75,1.968 3.683,1.965 3.615,1.968 3.548,1.971 3.53,1.971 3.512,1.975 3.495,1.979 3.476,1.983 3.457,1.987 3.439,1.995 3.394,2.014 3.343,2.017 3.302,2.046 3.271,2.067 3.237,2.076 3.2,2.074 3.159,2.072 3.119,2.072 3.078,2.073 3.052,2.073 3.029,2.07 3.005,2.056 2.991,2.048 2.971,2.046 2.953,2.046 2.857,2.045 2.761,2.045 2.665,2.045 2.593,2.045 2.528,2.011 2.457,2.002 2.453,2.001 2.449,1.998 2.445,1.996 2.374,1.963 2.302,1.929 2.23,1.895 2.22,1.89 2.211,1.881 2.2,1.876 2.179,1.865 2.158,1.854 2.136,1.845 2.081,1.823 2.022,1.808 1.97,1.78 1.895,1.739 1.815,1.71 1.737,1.676 1.667,1.646 1.596,1.618 1.53,1.58 1.458,1.538 1.384,1.499 1.302,1.48 1.281,1.475 1.265,1.465 1.25,1.449 1.217,1.418 1.184,1.387 1.147,1.362 1.11,1.338 1.074,1.311 1.028,1.302 1.017,1.3 1.007,1.291 0.998,1.283 0.976,1.265 0.956,1.245 0.934,1.227 0.9,1.199 0.866,1.173 0.832,1.146 0.773,1.101 0.71,1.062 0.66,1.004 0.629,0.967 0.598,0.927 0.551,0.904 0.532,0.895 0.517,0.876 0.499,0.862 0.457,0.829 0.426,0.783 0.373,0.763 0.366,0.761 0.36,0.751 0.356,0.744 0.32,0.672 0.287,0.597 0.248,0.527 0.169,0.383 0.111,0.231 0.067,0.074 0.056,0.037 0.039,0.008 0,0 m 2.94,-6.144 c -0.023,0.044 -0.049,0.083 -0.047,0.131 0.002,0.023 0.001,0.045 0.001,0.068 0,0.007 0.003,0.016 -0.001,0.022 -0.024,0.042 -0.02,0.091 -0.038,0.135 -0.003,0.007 -0.006,0.013 -0.007,0.021 -0.011,0.065 -0.041,0.125 -0.053,0.188 -0.011,0.063 -0.042,0.121 -0.039,0.187 0.001,0.026 -0.013,0.052 -0.021,0.078 -0.015,0.055 -0.033,0.109 -0.045,0.164 -0.014,0.059 -0.02,0.121 -0.033,0.18 -0.018,0.078 -0.04,0.154 -0.06,0.231 -0.005,0.019 -0.019,0.024 -0.037,0.024 -0.098,0 -0.195,0.002 -0.292,0.004 -0.018,0 -0.039,0 -0.053,0.008 C 2.17,-4.678 2.122,-4.685 2.075,-4.679 2.052,-4.676 2.027,-4.672 2.006,-4.662 1.955,-4.637 1.902,-4.625 1.845,-4.627 1.77,-4.631 1.702,-4.612 1.636,-4.572 1.565,-4.529 1.488,-4.494 1.414,-4.455 1.402,-4.449 1.39,-4.443 1.379,-4.435 1.34,-4.409 1.301,-4.38 1.26,-4.357 1.232,-4.341 1.199,-4.333 1.17,-4.318 1.124,-4.294 1.075,-4.272 1.048,-4.223 1.046,-4.219 1.043,-4.215 1.039,-4.213 0.994,-4.198 0.97,-4.158 0.937,-4.127 0.932,-4.122 0.927,-4.116 0.92,-4.113 0.817,-4.064 0.742,-3.977 0.655,-3.908 0.616,-3.877 0.582,-3.841 0.545,-3.81 0.522,-3.79 0.496,-3.774 0.471,-3.758 0.466,-3.754 0.456,-3.75 0.451,-3.753 0.424,-3.766 0.392,-3.775 0.373,-3.796 0.337,-3.836 0.289,-3.857 0.247,-3.888 0.203,-3.921 0.156,-3.951 0.11,-3.982 0.088,-3.997 0.067,-4.015 0.037,-4.009 0.03,-4.007 0.02,-4.008 0.015,-4.012 -0.017,-4.035 -0.048,-4.06 -0.079,-4.085 c -0.053,-0.043 -0.106,-0.087 -0.16,-0.129 -0.01,-0.008 -0.026,-0.01 -0.039,-0.01 -0.038,-0.002 -0.064,0.037 -0.046,0.071 0.01,0.02 0.024,0.036 0.016,0.062 -0.002,0.007 0.008,0.023 0.017,0.028 0.045,0.028 0.066,0.074 0.087,0.118 0.033,0.066 0.077,0.125 0.123,0.181 0.033,0.042 0.071,0.081 0.106,0.122 0.005,0.005 0.012,0.011 0.013,0.018 0.01,0.078 0.066,0.136 0.085,0.218 -0.007,0.009 -0.016,0.023 -0.027,0.038 -0.05,0.069 -0.101,0.137 -0.151,0.206 -0.006,0.009 -0.009,0.019 -0.014,0.028 -0.031,0.063 -0.066,0.123 -0.117,0.173 -0.024,0.025 -0.041,0.059 -0.059,0.089 -0.015,0.026 -0.028,0.053 -0.04,0.081 -0.008,0.016 -0.016,0.033 -0.016,0.05 0,0.029 -0.007,0.053 -0.022,0.077 -0.031,0.05 -0.033,0.107 -0.034,0.164 0,0.018 -0.005,0.035 -0.008,0.053 -0.003,0.014 -0.006,0.029 -0.01,0.043 -0.018,0.068 -0.036,0.135 -0.055,0.203 -0.003,0.01 -0.012,0.019 -0.013,0.029 -0.004,0.065 -0.037,0.125 -0.035,0.192 0,0.009 0,0.02 -0.004,0.026 -0.02,0.029 -0.02,0.062 -0.021,0.095 -0.001,0.03 0.002,0.06 -0.015,0.087 -0.002,0.004 -0.002,0.009 -0.002,0.013 -0.001,0.072 -0.013,0.143 -0.027,0.213 -0.001,0.009 0.002,0.02 -0.003,0.026 -0.028,0.032 -0.021,0.071 -0.023,0.107 -0.001,0.021 0.002,0.043 -0.001,0.063 -0.004,0.022 -0.014,0.043 -0.022,0.066 -0.041,0.002 -0.078,0.016 -0.107,0.046 -0.005,0.005 -0.013,0.008 -0.02,0.01 -0.051,0.01 -0.102,0.019 -0.153,0.032 -0.03,0.007 -0.057,0.023 -0.087,0.032 -0.054,0.016 -0.109,0.029 -0.164,0.043 -0.015,0.004 -0.029,0.007 -0.044,0.01 -0.11,0.024 -0.22,0.056 -0.335,0.044 -0.015,-0.002 -0.029,0 -0.046,0 0.001,0.031 0.019,0.046 0.039,0.059 0.027,0.016 0.056,0.021 0.087,0.019 0.033,-0.002 0.065,0.004 0.096,0.016 0.024,0.009 0.05,0.009 0.075,0.011 0.029,0.001 0.057,0 0.086,0 0.01,0 0.021,0 0.031,0.003 0.047,0.014 0.093,0.032 0.14,0.042 0.055,0.012 0.105,0.034 0.156,0.054 0.028,0.01 0.047,0.035 0.08,0.038 0.03,0.003 0.061,0.01 0.091,0.019 0.031,0.009 0.063,0.018 0.091,0.035 0.027,0.016 0.051,0.022 0.081,0.009 0.022,0.04 0.04,0.078 0.036,0.124 -0.003,0.03 0.002,0.06 0.001,0.09 -0.002,0.034 0.003,0.066 0.023,0.094 0.002,0.003 0.003,0.005 0.004,0.008 0.011,0.049 0.023,0.099 0.034,0.148 0.003,0.013 0.005,0.026 0.01,0.038 0.023,0.056 0.047,0.11 0.069,0.166 0.027,0.069 0.043,0.142 0.059,0.214 0.002,0.009 0.004,0.018 0.009,0.026 0.049,0.08 0.063,0.177 0.112,0.258 0.018,0.029 0.026,0.063 0.041,0.094 0.034,0.069 0.068,0.137 0.103,0.204 C 0.017,0.731 0.031,0.76 0.06,0.781 0.071,0.789 0.077,0.812 0.077,0.829 0.079,0.874 0.07,0.92 0.077,0.964 0.085,1.023 0.052,1.06 0.023,1.104 -0.028,1.183 -0.076,1.265 -0.12,1.348 -0.167,1.437 -0.214,1.525 -0.285,1.599 -0.299,1.614 -0.311,1.631 -0.322,1.649 -0.385,1.744 -0.452,1.836 -0.526,1.923 -0.555,1.957 -0.577,1.997 -0.601,2.034 -0.647,2.104 -0.693,2.175 -0.738,2.245 -0.747,2.259 -0.752,2.274 -0.76,2.293 -0.719,2.294 -0.686,2.297 -0.652,2.27 -0.605,2.233 -0.551,2.207 -0.5,2.175 -0.48,2.162 -0.46,2.149 -0.443,2.132 -0.387,2.077 -0.335,2.019 -0.267,1.979 -0.253,1.971 -0.243,1.957 -0.23,1.947 -0.211,1.933 -0.192,1.915 -0.17,1.908 -0.129,1.894 -0.099,1.866 -0.068,1.838 -0.033,1.807 0.007,1.783 0.044,1.755 0.088,1.722 0.134,1.691 0.175,1.654 0.25,1.587 0.335,1.54 0.43,1.508 0.452,1.501 0.472,1.486 0.491,1.472 0.541,1.437 0.59,1.456 0.604,1.515 0.614,1.558 0.641,1.579 0.685,1.577 0.726,1.575 0.761,1.593 0.794,1.614 0.863,1.659 0.931,1.705 1,1.75 1.024,1.765 1.048,1.781 1.073,1.795 1.106,1.815 1.139,1.831 1.177,1.842 1.259,1.865 1.338,1.896 1.413,1.939 1.488,1.981 1.567,2.017 1.649,2.045 1.704,2.064 1.754,2.096 1.807,2.12 1.86,2.144 1.913,2.167 1.968,2.187 2.039,2.214 2.111,2.237 2.179,2.272 2.23,2.299 2.287,2.314 2.342,2.332 2.369,2.341 2.397,2.348 2.424,2.356 2.483,2.373 2.541,2.391 2.6,2.408 2.626,2.416 2.641,2.431 2.64,2.46 2.64,2.472 2.641,2.485 2.646,2.495 2.669,2.541 2.669,2.591 2.666,2.64 2.663,2.705 2.689,2.764 2.702,2.825 2.725,2.939 2.749,3.054 2.772,3.168 2.776,3.186 2.774,3.204 2.776,3.222 2.777,3.238 2.774,3.258 2.782,3.27 2.81,3.315 2.8,3.363 2.802,3.41 c 0.002,0.027 0,0.053 0.018,0.077 0.008,0.009 0.004,0.026 0.007,0.039 0.004,0.015 0.009,0.03 0.014,0.05 C 2.867,3.554 2.868,3.529 2.874,3.507 2.892,3.441 2.91,3.375 2.925,3.308 2.934,3.268 2.939,3.228 2.945,3.188 2.951,3.148 2.954,3.108 2.962,3.069 2.966,3.049 2.974,3.028 2.986,3.011 3.019,2.965 3.031,2.915 3.022,2.86 3.019,2.838 3.021,2.82 3.03,2.8 3.041,2.776 3.042,2.748 3.044,2.721 3.047,2.696 3.048,2.672 3.061,2.648 3.072,2.627 3.072,2.599 3.072,2.574 3.073,2.529 3.07,2.484 3.111,2.439 c 0.023,0 0.055,0.002 0.087,0 C 3.22,2.438 3.244,2.436 3.264,2.428 3.302,2.412 3.341,2.408 3.382,2.404 3.435,2.397 3.487,2.383 3.539,2.373 3.563,2.368 3.586,2.36 3.61,2.359 3.653,2.357 3.697,2.363 3.74,2.358 3.81,2.351 3.882,2.347 3.948,2.312 3.99,2.289 4.032,2.268 4.073,2.243 4.119,2.214 4.174,2.198 4.223,2.174 4.251,2.161 4.278,2.145 4.303,2.126 4.349,2.094 4.391,2.056 4.45,2.044 4.492,2.035 4.531,2.014 4.571,1.996 4.627,1.969 4.683,1.94 4.738,1.911 4.755,1.902 4.77,1.889 4.785,1.876 4.824,1.843 4.86,1.807 4.901,1.778 4.932,1.755 4.969,1.741 5.003,1.723 5.026,1.712 5.051,1.703 5.07,1.687 5.13,1.638 5.188,1.586 5.247,1.536 5.256,1.528 5.267,1.522 5.282,1.512 5.307,1.526 5.334,1.539 5.36,1.556 5.398,1.581 5.432,1.611 5.471,1.632 5.519,1.656 5.569,1.676 5.615,1.702 5.633,1.713 5.653,1.709 5.67,1.696 5.688,1.682 5.693,1.665 5.682,1.645 5.644,1.577 5.606,1.509 5.568,1.441 5.551,1.413 5.533,1.386 5.515,1.359 5.495,1.326 5.491,1.291 5.501,1.255 5.52,1.187 5.553,1.124 5.596,1.068 5.648,0.998 5.705,0.933 5.758,0.864 5.778,0.838 5.796,0.81 5.81,0.781 5.838,0.725 5.884,0.683 5.922,0.635 5.966,0.578 5.999,0.518 6.01,0.447 6.011,0.437 6.016,0.427 6.019,0.417 6.045,0.339 6.071,0.261 6.098,0.184 6.121,0.116 6.146,0.049 6.17,-0.019 6.184,-0.06 6.204,-0.1 6.21,-0.142 6.217,-0.192 6.241,-0.232 6.257,-0.277 6.273,-0.321 6.287,-0.365 6.3,-0.409 6.315,-0.459 6.327,-0.51 6.343,-0.56 6.361,-0.612 6.382,-0.663 6.388,-0.719 6.394,-0.778 6.424,-0.804 6.482,-0.803 6.524,-0.802 6.56,-0.821 6.59,-0.842 c 0.054,-0.035 0.108,-0.046 0.169,-0.041 0.029,0.003 0.057,0.002 0.086,0.001 0.013,-0.001 0.03,-0.002 0.038,-0.01 0.02,-0.019 0.044,-0.019 0.067,-0.016 0.057,0.007 0.11,-0.011 0.164,-0.021 0.036,-0.007 0.068,-0.03 0.111,-0.05 C 7.183,-0.993 7.147,-1.003 7.113,-1.018 7.075,-1.034 7.037,-1.052 7.001,-1.073 6.928,-1.115 6.857,-1.16 6.785,-1.202 6.764,-1.214 6.74,-1.223 6.717,-1.225 6.654,-1.233 6.601,-1.264 6.547,-1.292 6.531,-1.301 6.516,-1.31 6.499,-1.318 6.463,-1.334 6.433,-1.356 6.421,-1.397 6.416,-1.414 6.403,-1.428 6.394,-1.443 6.38,-1.466 6.359,-1.489 6.356,-1.513 6.347,-1.578 6.328,-1.641 6.324,-1.707 6.321,-1.746 6.307,-1.785 6.296,-1.824 6.274,-1.906 6.243,-1.986 6.231,-2.071 6.225,-2.11 6.206,-2.147 6.194,-2.186 6.177,-2.24 6.156,-2.293 6.145,-2.349 6.135,-2.398 6.115,-2.442 6.097,-2.488 6.093,-2.499 6.086,-2.51 6.085,-2.522 6.07,-2.627 6.014,-2.718 5.979,-2.816 5.951,-2.893 5.914,-2.966 5.87,-3.036 5.869,-3.037 5.868,-3.039 5.868,-3.04 5.85,-3.113 5.798,-3.168 5.762,-3.232 5.758,-3.239 5.753,-3.248 5.746,-3.253 5.706,-3.282 5.69,-3.33 5.662,-3.368 5.647,-3.389 5.644,-3.412 5.657,-3.436 5.668,-3.457 5.678,-3.479 5.688,-3.501 5.719,-3.564 5.749,-3.628 5.779,-3.691 5.786,-3.704 5.796,-3.715 5.803,-3.728 5.815,-3.746 5.826,-3.765 5.839,-3.785 5.823,-3.796 5.812,-3.803 5.801,-3.81 5.775,-3.829 5.75,-3.833 5.718,-3.818 5.654,-3.789 5.589,-3.764 5.523,-3.74 5.504,-3.732 5.482,-3.73 5.462,-3.728 5.42,-3.723 5.376,-3.737 5.334,-3.715 5.329,-3.712 5.309,-3.722 5.306,-3.729 5.292,-3.764 5.264,-3.782 5.235,-3.801 5.216,-3.813 5.198,-3.83 5.187,-3.848 5.15,-3.911 5.091,-3.94 5.025,-3.959 4.984,-3.97 4.946,-3.985 4.917,-4.02 4.908,-4.031 4.893,-4.037 4.881,-4.045 4.862,-4.058 4.844,-4.071 4.827,-4.085 4.82,-4.09 4.815,-4.099 4.807,-4.103 4.747,-4.135 4.705,-4.19 4.649,-4.228 4.611,-4.254 4.572,-4.278 4.533,-4.303 4.501,-4.322 4.47,-4.343 4.437,-4.359 4.414,-4.37 4.389,-4.373 4.365,-4.382 4.331,-4.394 4.299,-4.409 4.265,-4.421 4.176,-4.454 4.094,-4.506 4,-4.53 3.919,-4.55 3.842,-4.582 3.762,-4.607 3.728,-4.617 3.692,-4.625 3.656,-4.626 3.626,-4.628 3.596,-4.63 3.571,-4.646 3.517,-4.682 3.457,-4.68 3.397,-4.681 3.352,-4.682 3.308,-4.684 3.271,-4.717 3.255,-4.731 3.244,-4.744 3.245,-4.766 3.245,-4.778 3.242,-4.79 3.239,-4.801 3.223,-4.854 3.207,-4.906 3.191,-4.959 3.188,-4.968 3.186,-4.978 3.18,-4.983 3.152,-5.006 3.153,-5.038 3.149,-5.069 3.145,-5.106 3.139,-5.143 3.133,-5.18 3.131,-5.192 3.128,-5.203 3.127,-5.215 3.12,-5.343 3.091,-5.467 3.059,-5.59 3.053,-5.615 3.051,-5.641 3.046,-5.665 3.034,-5.713 3.02,-5.761 3.009,-5.809 3.002,-5.838 2.997,-5.867 2.991,-5.896 2.988,-5.915 2.985,-5.935 2.982,-5.954 2.976,-5.992 2.97,-6.031 2.962,-6.068 2.957,-6.094 2.948,-6.119 2.94,-6.144"
           style="fill:#ffffff;fill-opacity:1;fill-rule:nonzero;stroke:none"
           id="path1205"
           inkscape:connector-curvature="0" />
      </g>
    </g>
  </g>
</svg>
