<?xml version="1.0" encoding="UTF-8" standalone="no"?>
<!-- Generator: Adobe Illustrator 24.0.0, SVG Export Plug-In  -->

<svg
   xmlns:dc="http://purl.org/dc/elements/1.1/"
   xmlns:cc="http://creativecommons.org/ns#"
   xmlns:rdf="http://www.w3.org/1999/02/22-rdf-syntax-ns#"
   xmlns:svg="http://www.w3.org/2000/svg"
   xmlns="http://www.w3.org/2000/svg"
   xmlns:sodipodi="http://sodipodi.sourceforge.net/DTD/sodipodi-0.dtd"
   xmlns:inkscape="http://www.inkscape.org/namespaces/inkscape"
   version="1.1"
   x="0px"
   y="0px"
   width="540.44897"
   height="540.44897"
   viewBox="0 0 540.44896 540.44895"
   xml:space="preserve"
   id="svg12"
   sodipodi:docname="ferocious.svg"
   inkscape:version="0.92.3 (2405546, 2018-03-11)"><metadata
   id="metadata16"><rdf:RDF><cc:Work
       rdf:about=""><dc:format>image/svg+xml</dc:format><dc:type
         rdf:resource="http://purl.org/dc/dcmitype/StillImage" /><dc:title></dc:title></cc:Work></rdf:RDF></metadata><sodipodi:namedview
   pagecolor="#ffffff"
   bordercolor="#666666"
   borderopacity="1"
   objecttolerance="10"
   gridtolerance="10"
   guidetolerance="10"
   inkscape:pageopacity="0"
   inkscape:pageshadow="2"
   inkscape:window-width="1920"
   inkscape:window-height="1017"
   id="namedview14"
   showgrid="false"
   inkscape:zoom="0.43671353"
   inkscape:cx="-25.983905"
   inkscape:cy="270.20001"
   inkscape:window-x="-8"
   inkscape:window-y="-8"
   inkscape:window-maximized="1"
   inkscape:current-layer="svg12" />
<style
   type="text/css"
   id="style2">
    .st0{fill:#FFFFFF;}
</style>
<defs
   id="defs4">
</defs>
<g
   id="g10"
   transform="translate(11.14485,-1.6590468e-4)">
    <path
   class="st0"
   d="m 314.8,434.3 c -10.1,-2.2 -13.2,-0.1 -13.5,8.9 -0.2,8.4 -5.2,13.9 -10.7,19.2 -2.1,2.1 -4.4,3.9 -7.5,6.7 -0.5,-2.5 -1.5,-4.4 -1.2,-6 1.9,-8.4 -0.7,-16.4 -2,-24.4 -0.7,-4.4 -3.5,-6.8 -7.8,-7.1 -4,-0.4 -6.5,1.9 -7.8,5.6 -0.6,1.8 -1.6,3.5 -2.3,4.8 -1.7,-3 -3.4,-5.8 -4.9,-8.4 -1.7,3.1 -3.2,5.3 -4,7.7 -0.7,2.3 -0.9,4.8 -1,7.3 -0.2,4.1 0,8.3 -0.4,12.4 -0.1,1.2 -1.2,3 -2.3,3.4 -1.1,0.4 -2.8,-0.4 -3.9,-1.2 -6.1,-3.9 -7.8,-9.8 -8.2,-16.8 -0.4,-7.6 -4.4,-13.9 -9.5,-20.2 -4.1,4.9 -4.6,10.7 -5.4,16.2 -0.5,3.5 -2.1,5.8 -5.5,5.8 -1.4,0 -4,-1.8 -4.1,-2.9 -0.5,-9.3 -4.9,-17.2 -9.1,-25.1 -3.7,-7.1 -6.1,-14.3 -7.3,-22.3 -2.6,-16.4 -17,-15.6 -26.4,-9.2 -2.2,1.5 -4.3,3.1 -6.7,4.8 -1.9,-2.2 -4.7,-5.3 -7.4,-8.6 -6.4,-7.6 -12.8,-15.2 -19,-23 -0.7,-0.9 -0.5,-2.9 -0.4,-4.3 0.4,-3.5 1.9,-7.1 1.6,-10.5 -1.1,-10.3 -2.9,-20.6 -4.4,-30.9 -0.2,-1.3 -0.2,-2.7 0.2,-3.8 2.5,-6.8 3.5,-13.6 3.6,-20.9 0,-6.8 1.9,-13.6 2.8,-20.4 1.2,-8.8 1.3,-17.8 -5.8,-24.1 -4.3,-3.8 -10.4,-5.5 -15.6,-8.4 -9.7,-5.5 -20.4,-3.2 -30.7,-4.1 -12.4,-1.1 -24.4,-3.2 -35.3,-10.2 -9.7,-6.2 -17.7,-13.9 -25,-22.5 -1.5,-1.7 -2.6,-3.9 -3.6,-5.9 C 18.7,184.9 11.9,174.3 7.8,162.7 3.9,151.6 1.7,139.7 0.6,127.9 -0.5,116.1 0.1,104 0.8,92.1 2.7,58.3 17.2,29.9 39.6,5.1 41.4,3.1 43.8,1.7 46,0 46.5,0.3 47.1,0.5 47.6,0.8 47,3.5 46.7,6.3 46,9 c -3.3,12.8 -7.4,25.5 -9.8,38.5 -2.2,12 -3.5,24.4 1.1,36.3 4.5,11.7 8.5,23.6 14.1,34.8 4.5,9.1 10.7,17.4 16.7,25.7 4.3,6 10.5,9.4 17.9,10.6 1.8,0.3 4,0.2 5.3,1.2 9.1,7 20.6,5.6 30.7,8.9 9.1,3 18.3,1.6 27.6,0.9 14.6,-1.1 26.1,-8.7 38,-15.8 6.2,-3.8 12.5,-7.8 19.2,-10.4 5.9,-2.3 12.5,-2.7 18.8,-4 9.1,-1.9 18.2,-3.5 27.2,-6 12.5,-3.5 24.2,-0.1 35.5,3.9 18.2,6.5 36.2,14 53.7,22.2 6.1,2.9 10.7,9 15.5,14.2 4.6,5 9.5,8.9 16.5,10.2 4.5,0.8 8.7,3.3 13.1,3.9 10.9,1.5 21.6,-1 31.4,-5.5 9.9,-4.5 19.2,-10.4 28.4,-16.3 2.9,-1.8 4.4,-5.7 6.7,-8.4 5.2,-6.2 11,-11.9 15.7,-18.4 9.5,-13.1 14.3,-28.1 17,-44 4.1,-24 0.6,-47 -7,-69.8 -0.8,-2.4 -0.1,-5.3 -0.1,-8 2.7,-0.6 4.9,-1.1 7.6,-1.7 14.5,20.7 28.2,42 29.1,68.8 0.2,6.9 1.5,13.8 2.2,20.8 0.1,1 0.1,2 -0.1,2.9 -5.6,24.2 -10.8,48.6 -17,72.7 -3.9,15.4 -10.4,30 -18.7,43.7 -4.8,7.9 -11.7,12.9 -19.8,16.8 -5.2,2.5 -10,5.9 -15.3,8.2 -6,2.7 -12.4,4.5 -18.6,6.9 -4.5,1.8 -9.3,3.2 -13,6.1 -4.9,3.7 -9.5,8.2 -13.3,13.1 -4.8,6.4 -8.8,13.4 -12.8,20.3 -1.4,2.5 -2.1,5.7 -2.1,8.5 0,7.7 0.9,15.5 0.6,23.2 -0.2,5 -1,10.3 -2.9,15 -3.3,8.2 -4.6,16.5 -4.7,25.2 0,4.1 -0.7,8.2 -1.2,12.3 -0.1,0.9 -0.7,1.9 -1.4,2.4 -5.9,4.8 -11.8,9.6 -18,14.1 -1.2,0.9 -3.6,0.9 -5.2,0.6 -11.4,-2.1 -22.7,-3.5 -31.4,6.3 -2.3,2.6 -4,6.2 -4.6,9.5 -1.7,8.2 -2.6,16.4 -3.8,24.9 z M 226.7,335 c -5.4,-6.2 -10.8,-12 -15.7,-18.2 -5.2,-6.5 -11,-8.4 -18.2,-5.2 -8.2,3.7 -10.2,7.3 -8.2,16.5 0.7,3.3 -0.1,7.8 4.5,9.2 6.8,2 13.7,4.1 20.6,5.6 7.4,1.7 14,-1.9 17,-7.9 z m 41.5,19.5 c -2.7,1.4 -5.1,2.6 -7.4,3.9 -1.7,1 -3.6,1.8 -4.8,3.2 -2.2,2.5 -3.9,5.4 -5.9,8 -4,5.2 -5,11 -4.1,17.3 0.6,4 4.7,6.6 8.1,4.6 2.5,-1.5 4.6,-4.1 6.2,-6.6 1.7,-2.7 2.6,-5.8 3.9,-8.8 2.1,4.8 2.9,9.4 4.5,13.7 0.7,1.9 2.8,3.9 4.7,4.5 1.6,0.5 4.8,-0.5 5.6,-1.8 2.1,-3.4 3.7,-7.2 1.5,-11.6 -3.3,-6.5 -6.1,-13.2 -9.1,-19.7 -1,-2.3 -2.1,-4.5 -3.2,-6.7 z m 26.4,-14.9 c 1.6,4.1 5.6,6.9 11.2,8.4 7.5,1.9 14.4,-0.7 21.3,-2.4 11.4,-2.8 11.9,-16.2 6.1,-21.7 -5.5,-5.2 -14.1,-5 -19.6,0 -5.7,5.3 -12,10 -19,15.7 z"
   id="path6"
   inkscape:connector-curvature="0"
   style="fill:#ffffff" />
    <path
   class="st0"
   d="m 217.1,455.9 c -1.5,7.6 2.4,13.2 5.2,19 0.3,0.5 1.1,1.1 1.6,1.1 8.8,-0.6 14.8,7.3 23.5,7.6 6,0.2 8.7,-0.2 11,-5.9 2.5,-6.2 4.1,-12.9 6,-19.3 0.6,-1.9 0.9,-3.8 2.7,-6.5 1.6,2 4,3.8 4.5,6.1 1.9,7.9 3.1,15.9 4.5,23.8 0.3,1.7 0,3.6 0,6.3 7.3,-3.2 13.9,-5.8 20.1,-9.1 2,-1.1 3.2,-3.8 4.6,-5.8 3,-4.3 5.6,-8.9 9,-12.8 5.4,-6.3 9,-14.2 16.6,-18.7 1.5,-0.9 2.1,-3.8 2.8,-5.8 1.6,-4.6 2.8,-9.4 4.5,-13.9 0.4,-1.1 2.5,-1.6 4,-2.1 2.9,-1 5.9,-1.7 8.8,-2.7 6.1,-2.1 12.2,-4.2 18.2,-6.5 4.7,-1.9 9.6,-3.7 13.9,-6.4 13.2,-8.1 24.9,-18.3 33.3,-31.2 6.2,-9.6 7.8,-21.3 9.1,-32.7 0.4,-3.4 1.3,-6.7 2.1,-11.1 2.1,1.5 3.7,2 4.3,3.1 2.9,5.5 7.2,10.4 6.5,17.3 -1,9.8 -1.7,19.6 -2.9,29.4 -0.3,2.2 -1.6,4.4 -2.7,6.4 -4.8,8.8 -9,18.2 -15,26.2 -5.6,7.5 -13.3,13.4 -20,20 -2.5,2.5 -4.8,5.3 -7.3,7.9 -4.1,4.3 -8.1,8.7 -12.5,12.7 -4.2,3.8 -8.7,7.5 -13.6,10.5 -4.6,2.8 -9.7,4.8 -14.7,6.9 -11.2,4.7 -17.8,18.3 -14.3,29.9 1.5,5.2 0.1,9.2 -4.1,12.6 -8.2,6.8 -16.1,13.9 -24.3,20.6 -4.8,4 -10.2,6.1 -16.9,5.7 -9.9,-0.6 -20,-0.1 -29.9,0 -1.5,0 -3.1,-0.1 -4.4,0.4 -9.5,3.5 -17.6,0.7 -25.6,-4.7 -2.9,-2 -7,-2.1 -10.1,-3.9 -5.2,-3 -10,-6.9 -15.2,-10 -2,-1.2 -4.7,-1.5 -7,-2 -8.4,-1.8 -14.5,-4.9 -14.9,-13.9 -0.5,-12.5 -6.5,-23 -11,-34.2 -2,-4.9 -5.7,-6.5 -9.7,-8.4 -13.3,-6.4 -26.8,-12.6 -37.6,-23.1 -3.7,-3.6 -7,-7.6 -9.7,-12 C 100.9,410.6 91,394.5 88,375.6 86.7,367.1 85.6,358.5 85.3,349.9 84.7,337.3 84.8,324.6 84.7,312 c 0,-2.3 -0.1,-4.8 0.7,-6.9 3.9,-9.8 8.1,-19.5 12.5,-29.8 4.1,3.1 4.8,6 4.6,10.5 -0.6,10.6 -0.1,21.3 0.6,31.9 0.8,13.2 4.1,26 11.2,37.3 5.5,8.8 11.7,17.4 18.6,25.1 8.6,9.4 18.1,18 27.5,26.6 5.2,4.8 11.2,7.5 18.7,5 3.4,-1.1 6.3,0.1 8.1,3.7 2.7,5.3 6,10.2 8.7,15.4 3.7,7.2 6.1,14.9 5.5,23.2 -0.1,1.8 -0.4,3.8 0.1,5.5 0.5,1.7 1.8,3.3 2.7,4.9 1.1,-1.2 2.5,-2.3 3.3,-3.6 2.4,-3.4 5.2,-5.2 9.6,-4.9 z"
   id="path8"
   inkscape:connector-curvature="0"
   style="fill:#ffffff" />
</g>
</svg>