<?xml version="1.0" encoding="UTF-8"?>
<!-- Generator: Adobe Illustrator 25.0.0, SVG Export Plug-In . SVG Version: 6.00 Build 0)  -->
<svg version="1.1" id="Layer_3" xmlns="http://www.w3.org/2000/svg" xmlns:xlink="http://www.w3.org/1999/xlink" x="0px" y="0px" viewBox="0 0 1000 1000" style="enable-background:new 0 0 1000 1000;" xml:space="preserve"><script xmlns="" id="__gaOptOutExtension"/>
<path d="M500.18,0.48C224.17,0.48,0.42,224.23,0.42,500.24S224.17,1000,500.18,1000s499.76-223.75,499.76-499.76  S776.19,0.48,500.18,0.48z M500.18,79.11c232.59,0,421.13,188.54,421.13,421.13c0,62.48-13.61,121.77-38.02,175.09L500.18,199.81  L117.06,675.33c-24.41-53.32-38.02-112.61-38.02-175.09C79.05,267.65,267.59,79.11,500.18,79.11z M278.5,858.37l221.68-275.14  l221.68,275.14c-64.39,39.94-140.34,63-221.68,63S342.89,898.31,278.5,858.37z"/>
</svg>