<?xml version="1.0" encoding="UTF-8"?>
<!-- Generator: Adobe Illustrator 25.0.0, SVG Export Plug-In . SVG Version: 6.00 Build 0)  -->
<svg version="1.1" id="Layer_2" xmlns="http://www.w3.org/2000/svg" xmlns:xlink="http://www.w3.org/1999/xlink" x="0px" y="0px" viewBox="0 0 1000 1000" style="enable-background:new 0 0 1000 1000;" xml:space="preserve"><script xmlns="" id="__gaOptOutExtension"/>
<g>
	<path d="M155.48,580.5c28.95,37.17,53.33,74.82,77.28,111.62c8.59-147.04,182.46-111.62,173.87-35.42   c26.92-16.2,53.45-30.06,78.35-34.34L366.91,396.97C313.06,453.92,233.9,513.15,155.48,580.5z"/>
	<polygon points="632.01,820.91 673.14,534.44 613.9,568.65 580.05,510.02 685.38,449.21 698.9,354.98 539.11,447.24 505.26,388.61    711.14,269.75 725.39,170.5 399.11,374.43  "/>
	<path d="M500,2C224.96,2,2,224.96,2,500s222.96,498,498,498s498-222.96,498-498S775.04,2,500,2z M500,919.65   C268.23,919.65,80.35,731.77,80.35,500S268.23,80.35,500,80.35S919.65,268.23,919.65,500S731.77,919.65,500,919.65z"/>
</g>
</svg>