<?xml version="1.0" encoding="UTF-8"?>
<!-- Generator: Adobe Illustrator 25.0.0, SVG Export Plug-In . SVG Version: 6.00 Build 0)  -->
<svg version="1.1" id="Layer_2" xmlns="http://www.w3.org/2000/svg" xmlns:xlink="http://www.w3.org/1999/xlink" x="0px" y="0px" viewBox="0 0 1000 1000" style="enable-background:new 0 0 1000 1000;" xml:space="preserve"><script xmlns="" id="__gaOptOutExtension"/>
<g>
	<path d="M220.96,408.91c-5.46-45.29-2.25-84.42,9.81-119.62c11.39-33.3,28.88-62.34,51.98-86.32c19.27-20,42.66-36.71,69.54-49.69   L199.77,0.75C117.85,50.12,49.08,119.09-0.06,201.17l223.19,223.19C222.32,419.28,221.59,414.13,220.96,408.91z"/>
	<path d="M717.62,202.96c23.11,23.98,40.62,53.02,52.03,86.33c12.02,35.15,15.21,74.23,9.77,119.47   c-0.62,5.13-1.33,10.18-2.12,15.17l222.76-222.76C950.92,119.09,882.15,50.12,800.23,0.75L647.82,153.16   C674.8,166.15,698.28,182.9,717.62,202.96z"/>
	<path d="M747.73,554.75c18.63,21.74,26.68,48.75,23.93,80.27c-2.83,32.46-16.74,63.22-27.91,83.3   c-12.72,22.87-26.13,39.63-31.2,43.77c-5.64,4.58-13.31,6.8-23.45,6.8c-12.62,0-27.16-3.53-38.85-6.36   c-2.84-0.69-5.73-1.39-8.34-1.97c2.09,8.42,4.86,24.48,8.18,56.59c1.45,14.04,2.65,27.71,3.46,37.63L798.77,1000   c82.07-49.14,151.04-117.91,200.42-199.83L747.73,548.7C747.31,552.59,747.59,554.22,747.73,554.75z"/>
	<path d="M350.26,762.55c-11.69,2.85-26.24,6.39-38.88,6.39c-10.17,0-17.87-2.25-23.52-6.86c-5.03-4.1-18.41-20.82-31.14-43.71   c-11.17-20.09-25.09-50.85-27.94-83.31c-2.77-31.55,5.27-58.56,23.91-80.32c0.15-0.55,0.43-2.26-0.05-6.41L0.81,800.17   C50.19,882.09,119.15,950.86,201.23,1000L346.9,854.33c0.81-9.88,2-23.35,3.42-37.17c3.32-32.07,6.08-48.12,8.18-56.56   C355.92,761.17,353.07,761.87,350.26,762.55z"/>
	<path d="M706.9,755.13c11.55-9.42,95.75-123.11,33.75-194.86c-15.47-17.94,60.66-150.69,20.52-268.07   c-47.2-137.68-186.56-159.21-246.88-162.01c0,0-5.16-0.34-13.9-0.34c-0.11,0-0.11,0-0.22,0c-0.11,0-0.11,0-0.22,0   c-8.86,0-13.9,0.34-13.9,0.34c-60.21,2.8-199.68,24.33-246.77,162.01c-40.25,117.5,35.99,250.25,20.52,268.07   c-62,71.76,22.31,185.55,33.75,194.86c20.74,16.93,86.67-17.38,76.24,0.34c-7.85,13.45-15.14,115.15-15.14,115.15h27.13l5.27-35.43   l17.49-0.22l1.12,35.65h30.05l3.36-36.21l17.49,0.56l1.68,35.65h28.93l1.35-36.55h23.43l1.35,36.55h28.93l1.68-35.65l18.61-0.56   l3.36,36.21h28.93l1.12-35.65l17.49,0.22l5.27,35.43h27.13c0,0-7.29-101.69-15.14-115.15C620.23,737.75,686.16,771.94,706.9,755.13   z M500.19,337.38c0,0,50.45,134.71,50.45,162.57c0,27.86-22.59,50.45-50.45,50.45c-27.86,0-50.45-22.59-50.45-50.45   C449.73,472.09,500.19,337.38,500.19,337.38z M461.81,634.49c-8.07,9.08-19.73,19.84-35.54,28.7   c-38.01,21.41-75.68,18.39-90.93,16.26c-1.01-0.11-2.02-0.45-2.8-1.01c-33.3-21.08-45.97-53.93-36.1-74.45   c1.46-3.14,7.06-13.45,24.55-19.84c1.01-0.34,2.02-0.45,3.03-0.45c21.08,1.91,47.2,6.05,76.13,15.14   c23.43,7.29,43.39,16.14,59.76,24.67C463.94,625.63,464.84,631.01,461.81,634.49z M541.41,758.83c-0.11,2.35-3.03,3.25-4.48,1.46   c-3.59-4.6-8.52-9.87-15.14-14.69c-7.06-5.16-13.79-8.41-19.06-10.31c-5.16,1.91-12,5.16-19.06,10.31   c-6.61,4.82-11.55,10.09-15.14,14.69c-1.46,1.79-4.37,0.9-4.48-1.46c-1.12-17.38-0.34-52.92,25.79-78.71   c3.36-3.36,7.74-6.28,12.89-9.08c5.05,2.8,9.53,5.72,12.89,9.08C541.75,705.91,542.53,741.56,541.41,758.83z M575.05,663.19   c-15.81-8.86-27.47-19.62-35.54-28.7c-3.03-3.48-2.13-8.86,2.02-10.99c16.37-8.52,36.33-17.38,59.76-24.67   c29.04-9.08,55.16-13.23,76.13-15.14c1.01-0.11,2.02,0,3.03,0.45c17.38,6.39,22.98,16.82,24.55,19.84   c9.75,20.52-2.92,53.48-36.21,74.45c-0.9,0.56-1.79,0.9-2.8,1.01C650.73,681.58,613.17,684.6,575.05,663.19z"/>
</g>
</svg>