<?xml version="1.0" encoding="UTF-8"?>
<!-- Generator: Adobe Illustrator 25.1.0, SVG Export Plug-In . SVG Version: 6.00 Build 0)  -->
<svg version="1.1" id="Layer_4" xmlns="http://www.w3.org/2000/svg" xmlns:xlink="http://www.w3.org/1999/xlink" x="0px" y="0px" viewBox="0 0 1000 1000" style="enable-background:new 0 0 1000 1000;" xml:space="preserve"><script xmlns="" id="__gaOptOutExtension"/>
<g>
	<circle cx="533.84" cy="523.96" r="47.76"/>
	<path d="M392.9,369.04l-188.68-174.7l177.03,194.51C383.98,384.32,388.24,373.7,392.9,369.04z"/>
	<path d="M549.85,459.52L533.84,57.8l-16.01,401.72C528.33,456.92,539.35,456.92,549.85,459.52z"/>
	<path d="M590.73,489.72l272.74-295.38L568.08,467.07c4.53,2.73,8.8,6.03,12.71,9.94C584.69,480.92,588,485.19,590.73,489.72z"/>
	<path d="M1000,523.96l-401.72-16.01c2.6,10.51,2.6,21.52,0,32.03L1000,523.96z"/>
	<path d="M580.79,570.91c-3.91,3.91-8.18,7.21-12.71,9.94l295.38,272.74L590.73,558.2C588,562.73,584.69,567,580.79,570.91z"/>
	<path d="M526.85,685.87l-6.99-13.98l-6.99,4.66l20.97,144.44l11.65-151.43C539.22,675.72,532.98,682.89,526.85,685.87z"/>
	<path d="M571.11,852.44c-37.07-18.24-68.86-37.01-83.87-51.25c9.62,0.21,20.71-0.74,32.61-2.33   c-18.8-13.84-38.75-32.71-59.41-54.75c14.01-0.41,27.34-1.45,39.6-3.49c-22.13-16.31-38.02-37.09-50.09-60.57   c4.93-8.03,16.75-19.72,30.29-25.63c8.77,7.08,14.98,15.62,18.64,25.63c8.64-4.05,16.02-9.48,22.13-16.31   c5.29,6,7.81,11.48,6.99,16.31c20.99-21.98,36.57-51.89,41.93-86.2c-10.31,4.94-20.38,8.36-29.12,3.49   c1-4.86,0.27-10.92-1.16-17.47c-7.97,7.91-17.26,14.92-27.96,20.97c0.72-9.15-3.61-19.89-10.48-31.45   c-5.63,12.76-12.88,23.2-23.3,29.12c-23.74-25.09-27.96-62.9-26.79-96.68c7.31,1.17,11.03,6.59,19.8,15.14   c6.68-22.67,13.1-46.03,10.48-72.22l33.78,29.12c-0.37-65.99-9.19-127.78-26.79-185.21c-18.84,1.62-56.82,48.12-93.19,90.86   c-12.71,19.15-22.54,39.45-30.29,60.57c-4.71-5.58-12.75-7.58-22.13-8.15c-17.47,4.66-28.26,18.77-38.44,32.61   C217.01,583.37,75.75,629.86,12,598.51c18.32,62.7,60.24,101.57,133.95,108.33c-29.25,33.03-54.98,65.14-60.57,92.02   c8.21-6.51,16.71-10.71,25.63-11.65c-13.27,20.02-24.22,39.65-29.12,58.24c8.2-3.17,16.05-5.03,23.3-4.66   C83.86,870.24,62.25,899.83,60.92,920c183.97,22.2,373.7,17.36,568.43-10.48c-28.45-13.12-56.1-25.94-76.88-36.11   C559.67,866.4,565.96,859.41,571.11,852.44z M349.8,499.5c-20.55,30.69-40.77,52.42-64.07,60.57   c16.2-23.93,33.23-49.09,51.25-75.71C349.52,483.39,352.59,490.69,349.8,499.5z"/>
</g>
</svg>