<?xml version="1.0" encoding="UTF-8"?>
<!-- Generator: Adobe Illustrator 25.2.0, SVG Export Plug-In . SVG Version: 6.00 Build 0)  -->
<svg version="1.1" id="Layer_3" xmlns="http://www.w3.org/2000/svg" xmlns:xlink="http://www.w3.org/1999/xlink" x="0px" y="0px" viewBox="0 0 1000 1000" style="enable-background:new 0 0 1000 1000;" xml:space="preserve"><script xmlns="" id="__gaOptOutExtension"/>
<g>
	<path d="M483.74,824.57l-37.79,24.38c-76.89-32.14-130.69-73.52-160.92-124.34l60.95,36.57l7.31-62.17l47.54,24.38   c1.83-21.81,4.4-42.29,19.5-58.51c30.44,6.22,38.67,23.02,42.67,42.67c21.55-7.75,74.08-16.12,82.9-28.04   c-36.72-6.87-48.25-18.59-57.3-37.79c-62.17-13.41,12.19-53.64,31.7-14.63c25.6,0,31.7,15.85,29.26,29.26   c22.61-4.26,69.49-4.88,115.81-24.38c-8.53-20.72-105.3-57.69-117.03-71.92c4.86-6.06,5.25-14.45,7.31-21.94   c-8.53-14.63-131.49-65.14-135.32-80.46c-2.44-19.5,0-62.17,24.38-88.99c-24.38-12.19-84.12,34.13-101.18,54.86   c-25.6-19.5-67.41-57.61-91.43-76.8c0.78,10.97,16.56,43.31,8.53,51.2c-17.09-18.16-95.45-45.98-113.37-46.32   c2.94,13.25,30.02,40.42,26.82,49.98c-14.37-13.11-83.83-36.85-108.5-43.89c3.71,9.22,25.83,47.49,20.72,48.76   c-1.82-1.39-50.75-36.72-68.27-39.01L2.22,824.57c30.48,15.85,71.97,67.15,103.62,104.84l176.76-7.31   c4.34,0.08,11.74-7.12,9.75-10.97c-14.31-27.78-105.89-64.94-125.56-75.58l-30.48,13.41L74.14,762.4   c5.08-6.59,36.12-11.29,56.08-10.97c3.37,3.87,7.33,30.2,2.44,36.57h35.35l2.44,18.29l35.35,1.22l4.88,18.29l46.32-3.66v19.5   l43.89,2.44l4.94,37.87l51.14-12.27l78.02,47.54c58.34,8.31,142.44,3.47,154.82-6.1C569.07,880.88,512.73,847.63,483.74,824.57z    M504.47,556.38l-8.53,6.1c-16.05-5.12-27.83-13.65-35.35-25.6L504.47,556.38z"/>
	<path d="M997.02,597.07c-11.66-11.94-69.65-10.26-76.98-10.26c-7.64,0-17.37-18.26-31.08-18.26s-31.02,21.91-36.53,21.91   c-5.52,0-19.23-23.74-34.77-24.65c-15.54-0.91-22.94,9.2-28.34,8.22c-6.42-1.17-15.44-9.02-21.13-14.56   c-0.18-0.18-0.29-0.41-0.31-0.67c-0.83-9.13-2.13-18.12-3.86-26.95c-0.06-0.29,0.01-0.59,0.18-0.83c3.32-4.74,6.82-8.62,9.76-9.45   c6.7-1.42,17.09,9.57,29.58,7.52c3.64-0.6,13.19-16.59,16.16-17.82c2.97-1.23,15.4,1.53,17.97,0.98   c2.49-0.53,21.47-24.57,38.67-31.33c0.85-0.34,0.9-1.5,0.1-1.96c-9.18-5.21-40.02,2.37-44.04,3.23c-4.31,0.91-12.21-9.4-19.94-7.76   c-7.73,1.64-14.58,17.49-17.69,18.14c-3.11,0.66-13.99-12.62-22.87-11.34c-8.88,1.28-11.71,8.53-14.89,8.55   c-1.47,0.01-3.3-0.57-5.22-1.45c-0.26-0.12-0.46-0.33-0.56-0.59c-0.89-2.3-1.8-4.58-2.75-6.85l2.2,2.38c0,0-4.27-48.12,5.46-59.24   c0.03-0.04,0.07-0.08,0.11-0.11c8.01-7.87,30.58-3.65,45.85-17.67c4.46-4.1,4.9-33.01,7.96-37.29   c3.06-4.28,22.03-12.23,25.09-15.28c3-2.99,10.04-51.83,28.52-75.86c0.54-0.71,0.08-1.75-0.81-1.75   c-15.86-0.03-53.42,39.72-58.31,44.61c-5.11,5.11-23.87-0.61-33.05,8.56c-9.18,9.17-6.08,35.41-9.77,39.1   c-3.69,3.69-28.79-3.04-39.8,6.75c-11.02,9.78-9.19,21.5-13.46,24.45c-2.31,1.6-5.91,2.63-9.86,3.28   c-0.36,0.06-0.72-0.07-0.97-0.33c-13.1-13.99-27.69-26.56-43.54-37.45c-0.35-0.24-0.54-0.67-0.45-1.09   c0.38-1.85,0.94-3.38,1.76-4.45c5.59-6.36,24.94-2.35,35.85-13.59c3.18-3.27-0.14-27.05,1.85-30.5c2-3.45,16.73-9.58,18.88-12.03   c2.1-2.39,1.73-42.16,13.89-61.6c0.44-0.71-0.06-1.64-0.9-1.65c-13.21-0.17-39.18,31.53-42.6,35.43   c-3.59,4.09-19.89-1.02-26.35,6.32c-6.45,7.34-0.53,29-3.13,31.96c-2.6,2.95-24.28-3.12-32.18,4.69   c-7.9,7.81-4.89,17.49-8.06,19.82c-0.89,0.66-2.1,1.18-3.5,1.6c-0.24,0.07-0.51,0.05-0.74-0.04c-5.84-2.5-11.78-4.79-17.82-6.87   c-0.14-0.05-0.26-0.12-0.37-0.22c-14.58-13.25-40.7-38.87-41.62-53.12c0-0.05,0-0.1,0-0.15c0.08-15.11,25.62-32.54,26.79-60.41   c0.34-8.14-26.79-36.06-27.95-43.04c-1.16-6.98,9.32-32.57,9.32-38.39c0-5.73-40.3-59.48-45.22-100c-0.11-0.88-1.14-1.27-1.8-0.69   c-15.72,13.8-13.54,88.96-13.54,98.37c0,9.72-23.29,22.1-23.29,39.55c0,17.45,27.95,39.47,27.95,46.49s-30.28,24.47-31.45,44.24   c-1.16,19.77,11.73,29.19,10.48,36.06c-1.03,5.63-6.11,12.83-11.48,19.14c-0.17,0.2-0.42,0.34-0.68,0.37   c-0.97,0.13-1.94,0.26-2.91,0.41c-0.2,0.03-0.4,0-0.59-0.08c-9.56-4.26-23.88-11.51-26.24-17.58c-2.3-7.2,7.8-19.58,4.13-33.06   c-1.07-3.93-18.84-12.92-20.48-16.06c-1.64-3.14-0.32-16.99-1.21-19.76c-0.86-2.68-28.23-21.31-37.34-39.54   c-0.42-0.84-1.62-0.76-1.98,0.11c-4.32,10.47,7.4,43.62,8.79,47.94c1.48,4.63-8.24,14.22-5.58,22.53   c2.66,8.31,19.94,14.36,21.01,17.7c1.07,3.34-11.36,16.46-8.92,26.06c2.43,9.6,10.29,12.04,10.72,15.51   c0.41,3.37-1.67,8.68-3.76,13c-0.12,0.24-0.31,0.42-0.56,0.52c-3.12,1.3-6.21,2.66-9.27,4.08c-0.19,0.09-0.39,0.12-0.59,0.09   c-14.41-1.92-31.97-5.49-37.38-11.76c-0.03-0.04-0.07-0.08-0.1-0.12c-6.69-9.04,0.69-30.82-11.09-47.92   c-3.44-5-32.1-9.51-35.91-13.15s-9.04-23.56-11.64-27.02c-2.55-3.39-50.06-17.26-71.33-38.97c-0.62-0.64-1.73-0.32-1.86,0.56   c-2.26,15.72,31.93,58.53,36.09,64.07c4.35,5.79-3.97,23.56,3.84,33.95c7.81,10.39,34.32,11.02,37.46,15.2   c3.14,4.18-7.07,28.09,1.09,40.39c8.16,12.3,20.06,12.15,22.39,16.79c1.44,2.88,1.91,7.33,1.89,11.99c0,0.31-0.13,0.6-0.36,0.81   c-3.02,2.71-0.13-0.44-2.57,2.04c-0.36,0.37-0.42,0.94-0.13,1.37l8.54,12.8c0.38,0.57,1.18,0.64,1.66,0.16   c44.9-44.64,101.33-58.03,169.74-58.8c107.28-1.22,232.3,98.8,236.5,240.15c3.66,123.12-108.5,229.18-213.34,240.15   c-0.03,0,4.88,9.75,4.88,9.75c0.14,0.05,15.7,4.88,15.85,4.88c19.38-0.58,18.29,10.97,15.96,29.91c-0.4,3.23,22.01,7.1,23.74,9.43   s-1.27,14.39-0.45,16.56c0.8,2.12,33.13,12.4,42.4,26.14c0.39,0.58,1.24,0.65,1.69,0.11c7.66-9.08-4.21-36.31-5.53-39.8   c-1.38-3.63,11.58-13.8,9.11-20.32c-2.47-6.52-23.23-8.09-24.22-10.71c-0.99-2.62,15.65-16.35,13.59-24.02   c-0.58-2.16-1.75-3.74-3.13-4.97c-0.57-0.51-0.44-1.43,0.25-1.77c5.69-2.78,11.26-5.77,16.71-8.95c0.17-0.1,0.36-0.15,0.55-0.15   c15.58,0.18,36.23,1.68,43.25,7.95c8.55,8.54,4.78,32.01,19.95,48.4c4.42,4.78,34.64,6.13,39.21,9.46   c4.57,3.32,13.46,23.35,16.75,26.63c3.22,3.22,54.52,12.09,80.19,32.12c0.72,0.56,1.8,0.07,1.77-0.85   c-0.51-16.55-43.17-56.9-48.42-62.15c-5.5-5.49-0.1-24.86-9.97-34.72c-9.87-9.86-37.19-7.44-41.16-11.4   c-3.97-3.96,2.28-29.91-8.29-41.7c-10.56-11.79-22.75-10.25-25.97-14.8c-1.74-2.45-2.92-6.23-3.73-10.36   c-0.07-0.33,0.03-0.68,0.26-0.93c10.03-11.21,19.12-23.28,27.14-36.09l-2.93,6.15c-0.45,0.94,0.56,1.91,1.48,1.43   c7.35-3.83,26.63-13.28,33.58-10.81c6.45,2.77,8.79,17.79,20.46,23.44c3.4,1.65,20.7-5.75,23.91-5.01   c3.21,0.74,12.03,10.26,14.51,11.33c2.4,1.03,32.28-7.39,50.64-2.81c0.9,0.22,1.62-0.72,1.21-1.55   c-4.71-9.61-34.96-21.5-38.82-23.16c-4.14-1.78-4.79-14.79-12.23-17.99c-7.44-3.2-22.39,5.67-25.38,4.38   c-2.99-1.29-4.41-18.45-12.61-22.61c-8.2-4.16-14.78,0.07-17.46-1.77c-4.99-3.42-9.29-18-9.29-18l-0.82,1.72   c0.41-1.21,0.81-2.41,1.2-3.63c0.39-1.2,2.16-0.87,2.11,0.38c-0.04,1.02,1.22,1.53,1.9,0.76c7.37-8.47,33.1-36.93,46.35-37.82   c0.05,0,0.1-0.01,0.16,0c11.87,0.09,25.57,20.09,47.46,21c6.39,0.27,28.34-21,33.82-21.91c5.48-0.91,25.6,7.3,30.17,7.3   c4.48,0,46.34-31.29,78.13-35.4C997.24,598.78,997.64,597.71,997.02,597.07z"/>
	<path d="M688.55,590.51c0,105.7-85.69,191.39-191.39,191.39c-48.25,0-101.65-25.4-135.32-54.86l-6.29,35.85   c38.52,31.68,87.84,50.7,141.6,50.7c123.21,0,223.09-99.88,223.09-223.09s-99.88-223.09-223.09-223.09   c-16.45,0-32.47,1.8-47.9,5.17l-12.75,36.34c19.06-6.36,39.45-9.82,60.66-9.82C602.86,399.12,688.55,484.81,688.55,590.51z"/>
</g>
</svg>