<?xml version="1.0" encoding="UTF-8"?>
<!-- Generator: Adobe Illustrator 25.2.1, SVG Export Plug-In . SVG Version: 6.00 Build 0)  -->
<svg version="1.1" id="Layer_4" xmlns="http://www.w3.org/2000/svg" xmlns:xlink="http://www.w3.org/1999/xlink" x="0px" y="0px" viewBox="0 0 1000 1000" style="enable-background:new 0 0 1000 1000;" xml:space="preserve"><script xmlns="" id="__gaOptOutExtension"/>
<g>
	<path d="M896,473.6c-11.7,3.5-65.4,53.7-71.3,56.1c-5.8,2.3-40.9,4.7-37.4-28c3.5-32.7,61.9-38.6,75.9-49.1   c14-10.5,10.5-30.4,29.2-51.4c18.7-21,28-17.5,40.9-31.5c0-8.2-38.6-21-58.4-17.5c-19.9,3.5-72.4,81.8-84.1,30.4   c-7-58.4,92.3-52.6,120.3-75.9c36.2-29.2,7-101.6,24.5-134.4c5.8-18.7,64.3-36.2,64.3-36.2s-39.7-39.7-111.5,0   c-21.7,15.2-25.2,84.1-41.5,91.1c-16.4,7-56.1,7-57.2-15.2c-3.5-37.4,65.4-9.3,60.8-29.2c-18.7-46.7-234.8-23.4-196.3,111   c38.6,16.4,41.9-69.4,63.1-66.6c26.9,3.5,30.4,92.3,30.4,92.3c-19.9,105.1-146,81.8-120.3,154.2c33.9,50.2,44.4-4.7,67.8-44.4   c28,4.7,59,37.8,57.2,91.1c-11.7,92.3-143.7,56.1-142.5,104c0,33.9,64.3-2.3,77.1,3.5c5.5,15.9-12.9,99.3-63.1,114.5   c-43.2,10.5-177.6-12.9-209.1-25.7c3.5,47.9-11.7,52.6-15.2,102.8c7,78.3,91.1,65.4,91.1,65.4c-20.6-19.5-40.9-46.7-22.2-51.4   c45.6,8.2,38.6,44.4,77.1,64.3S646,893,646,893s-119.2-40.9-75.9-73.6c11.7-19.9,68.9,32.7,129.7,45.6   c60.8-1.2,102.8-40.9,122.7-37.4c68.9,32.7,80.6,12.9,78.3,5.8c-37.4,8.2-51.4-46.7-80.6-56.1C769.8,761,682.2,819.4,684.6,761   c3.5-31.5,88.8-22.2,106.3-29.2c17.5-7,40.9-35,52.6-42.1c11.7-7,24.5,7,40.9,2.3c-16.4-36.2-50.2-46.7-59.6-47.9   c-17.5-3.5-46.7,26.9-54.9,18.7c-7-22.2,33.9-40.9,40.9-45.6c7-4.7,40.9-10.5,68.9-33.9c22.2-26.9,19.9-52.6,37.4-77.1   c10.5-17.5,44.4-11.7,44.4-11.7S947.4,456.1,896,473.6z"/>
	<path d="M505.8,715.4c98.1,29.2,155.4,4.7,161.2-68.9c-6.3-7.9-71.3,43.2-78.3-28c4.7-46.7,72.4-30.4,118-56.1   c26.9-35,47.3-75.8-2.3-109.8c-7-5.8-21,106.3-85.3,38.6c-59.6-119.2,160.1-73.6,102.8-241.8c-26.9-8.2-8.2,99.3-87.6,57.2   c-27.9-20,56.1-175.2-56.1-168.2c35,93.5-17.5,83-17.5,83C549,218.9,558.4,83.4,401.8,60c0.5,13.1,73.6,99.3,0,238.3   c-14,12.9-65.4,29.2-78.3,35c-12.9,5.8-79.4,63.1-79.4,63.1S198.5,407,183.3,428c-4.7,5.8,8.2,31.5,8.2,31.5   c-35,26.9-154.5,91.6-177.6,99.3c-21,7-11.7,28-9.5,35c2.2,7,126.7,91.6,168.3,102.8c0,0-26.9-47.9-11.7-51.4   c-6.4,5.9,48.7,18.4,50.9,16.1c-5.7-16-7.9-31.9-4.2-47.6c17.3,10,33,15.7,44.4,10.3c-6.9-8.2-10.1-16.6-5.9-25.5   c37,3.3,54.6,25,60.8,57.5c-9.9,5.2-20.6,3.7-31.6-0.3l4.7,32.7c-11.2,11.7-27,8.7-58.4-3.2c0,0,10.5,34.8,8.2,38.3   c-2.3,3.5-32.7-10.5-32.7-10.5c-7.1,21.8,26.8,45.8,83,70.1c35,22.2,8.2,49.1-10.5,61.9c87.6,35,72.4-67.8,72.4-67.8l22.2-4.7   c0,0-16.4-40.9,4.7-64.3C400.7,689.7,505.8,715.4,505.8,715.4z M329.2,443.3c-7.3,9-25.1,28.7-48.9,41.4   c-19.9,0.6-33.9-9.9-33.9-9.9c23.2-11.8,51.1-23,81-33.9C328.9,440.2,330.2,442,329.2,443.3z"/>
</g>
</svg>