<?xml version="1.0" encoding="UTF-8"?>
<!-- Generator: Adobe Illustrator 25.2.0, SVG Export Plug-In . SVG Version: 6.00 Build 0)  -->
<svg version="1.1" id="Layer_3" xmlns="http://www.w3.org/2000/svg" xmlns:xlink="http://www.w3.org/1999/xlink" x="0px" y="0px" viewBox="0 0 1000 1000" style="enable-background:new 0 0 1000 1000;" xml:space="preserve"><script xmlns="" id="__gaOptOutExtension"/>
<g>
	<polygon points="717.75,832.5 695.29,811.46 717.51,792.46 691.72,766.67 664.58,785.67 649.21,769.39 668.65,747.67    648.29,725.96 625.22,741.84 600.79,719.17 541.08,774.82 686.29,903.75 779.94,850.82 748.72,822.32  "/>
	<path d="M363.29,842.67l-153.36-95l69.22-65.14L138.9,514.24l85.95-31.21l-66.5-210.36l44.79,14.93l-1.36-90.93l-190-78.72   c-56.98,578.95,112.13,910.85,617.51,875.37L471.86,820.96C432.27,836.82,394.95,846.93,363.29,842.67z M32.14,204.8   c0-11.24,9.11-20.36,20.36-20.36s20.36,9.11,20.36,20.36c0,11.24-9.11,20.36-20.36,20.36S32.14,216.05,32.14,204.8z M63.35,462.67   c-11.24,0-20.36-9.11-20.36-20.36c0-11.24,9.11-20.36,20.36-20.36s20.36,9.11,20.36,20.36C83.71,453.55,74.59,462.67,63.35,462.67z    M133.92,686.6c-11.24,0-20.36-9.11-20.36-20.36c0-11.24,9.11-20.36,20.36-20.36s20.36,9.11,20.36,20.36   C154.28,677.49,145.17,686.6,133.92,686.6z M277.78,894.25c-11.24,0-20.36-9.11-20.36-20.36c0-11.24,9.11-20.36,20.36-20.36   c11.24,0,20.36,9.11,20.36,20.36C298.14,885.13,289.03,894.25,277.78,894.25z M520.72,933.6c11.24,0,20.36,9.11,20.36,20.36   s-9.11,20.36-20.36,20.36c-11.24,0-20.36-9.11-20.36-20.36S509.47,933.6,520.72,933.6z"/>
	<path d="M996.99,722.5c-36.29-41.74-96.96-100.89-206.2-194.69l15.83-13.57c3.17-48.86-330.7-176.43-177.34-454.65   c-110.45,19.56-195.88,78.03-256.51,175.07c-33.05-32.54-58.61-74.33-83.69-116.72c-39.35,39.28-65.06,77.73-69.74,114l2.79,84.14   l-36.72-15.29l62.5,193.08l-80.98,28.5L304.93,686.6l-65.14,61.07l127.57,80.07c85.69,1.58,192.71-80.16,299.93-185.93l20.36,8.14   l-25.79,31.21l29.86,24.43l36.64-25.79l24.43,19l-35.29,25.79l32.57,28.5l40.72-24.43l35.29,29.86l-40.72,28.5l42.07,35.29   c39.86-27.49,98.19-52.54,164.99-80.44C1000.15,738.65,1002.49,728.82,996.99,722.5z M288.64,221.09   c11.24,0,20.36,9.11,20.36,20.36c0,11.24-9.11,20.36-20.36,20.36c-11.24,0-20.36-9.11-20.36-20.36   C268.28,230.2,277.4,221.09,288.64,221.09z M254.71,394.81c0-11.24,9.11-20.36,20.36-20.36s20.36,9.11,20.36,20.36   c0,11.24-9.11,20.36-20.36,20.36S254.71,406.05,254.71,394.81z M298.14,592.95c-11.24,0-20.36-9.11-20.36-20.36   c0-11.24,9.11-20.36,20.36-20.36c11.24,0,20.36,9.11,20.36,20.36C318.5,583.84,309.39,592.95,298.14,592.95z M366,766.67   c-11.24,0-20.36-9.11-20.36-20.36c0-11.24,9.11-20.36,20.36-20.36c11.24,0,20.36,9.11,20.36,20.36   C386.36,757.56,377.24,766.67,366,766.67z M504.43,694.74c-11.24,0-20.36-9.11-20.36-20.36c0-11.24,9.11-20.36,20.36-20.36   s20.36,9.11,20.36,20.36C524.79,685.63,515.68,694.74,504.43,694.74z M682.22,535.95l-82.79-89.57   c3.78-8.46,8.16-15.82,16.29-16.29l86.86,90.93C699.47,529.69,691.35,533.33,682.22,535.95z"/>
</g>
</svg>