<?xml version="1.0" encoding="UTF-8" standalone="no"?>
<!-- Generator: Adobe Illustrator 24.3.0, SVG Export Plug-In . SVG Version: 6.00 Build 0)  -->

<svg
   xmlns:dc="http://purl.org/dc/elements/1.1/"
   xmlns:cc="http://creativecommons.org/ns#"
   xmlns:rdf="http://www.w3.org/1999/02/22-rdf-syntax-ns#"
   xmlns:svg="http://www.w3.org/2000/svg"
   xmlns="http://www.w3.org/2000/svg"
   xmlns:sodipodi="http://sodipodi.sourceforge.net/DTD/sodipodi-0.dtd"
   xmlns:inkscape="http://www.inkscape.org/namespaces/inkscape"
   version="1.1"
   id="Layer_3"
   x="0px"
   y="0px"
   viewBox="0 0 611.75562 800"
   xml:space="preserve"
   sodipodi:docname="Legion of the Damned [Imperium, Adeptus Astartes, Space Marines, Legion].svg"
   width="611.75562"
   height="800"
   inkscape:version="0.92.3 (2405546, 2018-03-11)"><metadata
   id="metadata9"><rdf:RDF><cc:Work
       rdf:about=""><dc:format>image/svg+xml</dc:format><dc:type
         rdf:resource="http://purl.org/dc/dcmitype/StillImage" /><dc:title></dc:title></cc:Work></rdf:RDF></metadata><defs
   id="defs7" /><sodipodi:namedview
   pagecolor="#ffffff"
   bordercolor="#666666"
   borderopacity="1"
   objecttolerance="10"
   gridtolerance="10"
   guidetolerance="10"
   inkscape:pageopacity="0"
   inkscape:pageshadow="2"
   inkscape:window-width="1920"
   inkscape:window-height="1017"
   id="namedview5"
   showgrid="false"
   fit-margin-top="0"
   fit-margin-left="0"
   fit-margin-right="0"
   fit-margin-bottom="0"
   inkscape:pagecheckerboard="true"
   inkscape:zoom="0.236"
   inkscape:cx="-155.05237"
   inkscape:cy="500"
   inkscape:window-x="-8"
   inkscape:window-y="-8"
   inkscape:window-maximized="1"
   inkscape:current-layer="Layer_3" />
<path
   d="M 611.7556,265.75765 C 607.0445,138.47787 474.40573,-0.19975399 305.22992,2.1600888e-4 136.06211,-0.19975399 4.7111,138.47787 0,265.75765 c 0,78.96098 51.85413,135.52621 49.49458,183.85302 0,30.64217 -42.42393,58.92479 -41.24815,82.4963 0,56.56524 48.31881,48.31881 42.42393,87.20741 -7.07066,94.27806 78.96098,51.85413 106.06782,38.8886 14.14131,17.67664 -16.50086,11.78176 -16.50086,131.99089 l 41.24815,5.83089 3.53533,-44.72749 16.50086,2.35955 v 41.87203 l 36.53704,2.43954 v -40.77624 l 20.03619,1.17577 v 40.42431 l 34.1775,1.19177 v -40.4403 h 27.21082 V 800 l 34.1775,-1.19177 v -40.42431 l 20.03619,-1.17578 v 40.77624 l 36.53704,-2.43953 v -41.87204 l 20.03619,-2.35955 v 44.72749 l 37.71283,-5.83089 c 3.53532,-120.20913 -27.10685,-114.31425 -12.96554,-131.99088 27.10685,12.96553 113.13848,55.38946 106.06782,-38.8886 -5.89488,-38.8886 42.42393,-30.64217 42.42393,-87.20741 1.17578,-23.57152 -41.24815,-51.85413 -41.24815,-82.4963 -2.35955,-48.33481 49.49458,-104.90804 49.49458,-183.86902 z M 122.56068,595.75086 c -16.50086,-4.7111 -34.1775,-43.6077 -35.35327,-51.85413 -1.17578,-8.24643 -1.17578,-42.42393 4.7111,-49.49458 5.88688,-7.07066 36.53705,-10.60599 49.49458,-10.60599 12.95754,0 117.84958,51.85414 117.84958,60.10057 0.008,8.24643 -95.45384,51.85413 -136.70199,51.85413 z m 183.32512,53.03791 v 0 c -0.008,0 -0.008,0 0,0 -0.008,0 -0.008,0 -0.016,-0.008 v 0.008 c -13.6454,4.67911 -44.70349,22.37974 -44.70349,22.37974 0,0 16.8128,-82.37632 44.71149,-86.98345 27.89069,4.60713 44.71149,86.98345 44.71149,86.98345 0,0 -31.05809,-17.70063 -44.70349,-22.37974 z M 524.54819,543.88873 c -1.17577,8.24643 -18.85241,47.14303 -35.35327,51.85413 -41.24815,0 -136.70999,-43.6077 -136.70999,-51.85413 0,-8.24643 104.89204,-60.10056 117.84958,-60.10056 12.96553,0 43.6077,3.53532 49.49458,10.60598 5.89488,7.07065 5.89488,41.24815 4.7191,49.49458 z"
   id="path2"
   inkscape:connector-curvature="0"
   style="stroke-width:0.79984784" />
</svg>