<?xml version="1.0" encoding="UTF-8" standalone="no"?>
<!-- Created with Inkscape (http://www.inkscape.org/) -->

<svg
   xmlns:dc="http://purl.org/dc/elements/1.1/"
   xmlns:cc="http://creativecommons.org/ns#"
   xmlns:rdf="http://www.w3.org/1999/02/22-rdf-syntax-ns#"
   xmlns:svg="http://www.w3.org/2000/svg"
   xmlns="http://www.w3.org/2000/svg"
   xmlns:sodipodi="http://sodipodi.sourceforge.net/DTD/sodipodi-0.dtd"
   xmlns:inkscape="http://www.inkscape.org/namespaces/inkscape"
   width="800"
   height="800"
   viewBox="0 0 211.66666 211.66667"
   version="1.1"
   id="svg8"
   inkscape:version="0.92.3 (2405546, 2018-03-11)"
   sodipodi:docname="Planetary Governor [Imperium].svg">
  <defs
     id="defs2" />
  <sodipodi:namedview
     id="base"
     pagecolor="#ffffff"
     bordercolor="#666666"
     borderopacity="1.0"
     inkscape:pageopacity="0.0"
     inkscape:pageshadow="2"
     inkscape:zoom="0.5"
     inkscape:cx="304.55624"
     inkscape:cy="407.12134"
     inkscape:document-units="px"
     inkscape:current-layer="layer1"
     showgrid="false"
     units="px"
     inkscape:window-width="1920"
     inkscape:window-height="1017"
     inkscape:window-x="-8"
     inkscape:window-y="-8"
     inkscape:window-maximized="1"
     inkscape:snap-global="true"
     fit-margin-top="0"
     fit-margin-left="0"
     fit-margin-right="0"
     fit-margin-bottom="0"
     inkscape:pagecheckerboard="true" />
  <metadata
     id="metadata5">
    <rdf:RDF>
      <cc:Work
         rdf:about="">
        <dc:format>image/svg+xml</dc:format>
        <dc:type
           rdf:resource="http://purl.org/dc/dcmitype/StillImage" />
        <dc:title></dc:title>
      </cc:Work>
    </rdf:RDF>
  </metadata>
  <g
     inkscape:label="Layer 1"
     inkscape:groupmode="layer"
     id="layer1"
     transform="translate(-52.851746,-11.483774)">
    <g
       id="g1039"
       transform="matrix(2.9467203,0,0,2.946699,-102.88757,-434.40677)">
      <path
         sodipodi:nodetypes="ccccccccccccccccccccccccccc"
         inkscape:connector-curvature="0"
         id="path6"
         d="m 80.21082,167.96596 v 4.51548 c 1.39062,-0.24054 2.79973,0.14356 3.65972,1.00873 0.892,0.89621 0.8415,1.63788 0.82321,1.89394 0,3.06342 0.0604,6.19478 0.0915,9.15603 0,1.27486 -0.003,1.89106 -0.004,2.69442 h -5.2e-4 c 10e-4,0.80336 0.004,1.41956 0.004,2.69441 -0.0311,2.96125 -0.0915,6.09261 -0.0915,9.15603 0.0183,0.25606 0.0688,0.99773 -0.82321,1.89394 -0.85999,0.86517 -2.2691,1.24927 -3.65972,1.00873 v 4.51548 h 8.55658 8.55658 v -4.51548 c -1.39062,0.24054 -2.79974,-0.14356 -3.65972,-1.00873 -0.89202,-0.89621 -0.84151,-1.63788 -0.82321,-1.89394 0,-3.06342 -0.0604,-6.19478 -0.0915,-9.15603 0,-1.27485 0.002,-1.89105 0.004,-2.69441 h 0.001 c -0.002,-0.80336 -0.004,-1.41956 -0.004,-2.69442 0.0311,-2.96125 0.0915,-6.09261 0.0915,-9.15603 -0.0183,-0.25606 -0.0688,-0.99773 0.82321,-1.89394 0.85998,-0.86517 2.2691,-1.24927 3.65972,-1.00873 v -4.51548 h -8.55658 z"
         style="fill:#000000;fill-opacity:1;stroke-width:0.04212753" />
      <path
         inkscape:connector-curvature="0"
         id="path837-4"
         d="m 88.76738,151.31866 -3.47885,13.83275 a 22.382816,22.382816 0 0 0 -5.7888,1.73374 l -5.856487,-5.84667 2.133719,7.99073 a 22.382816,22.382816 0 0 0 -5.204333,5.21776 l -8.00158,-2.13682 5.850806,5.86063 a 22.382816,22.382816 0 0 0 -1.751315,5.78828 l -13.818793,3.47575 13.832748,3.47886 a 22.382816,22.382816 0 0 0 1.733227,5.78879 l -5.846673,5.85649 7.991245,-2.13372 a 22.382816,22.382816 0 0 0 5.217253,5.20434 l -2.136304,8.00106 5.860627,-5.85029 a 22.382816,22.382816 0 0 0 5.78827,1.75132 l 3.47524,13.81879 3.47938,-13.83275 a 22.382816,22.382816 0 0 0 5.78879,-1.73374 l 5.85649,5.84667 -2.13372,-7.99021 a 22.382816,22.382816 0 0 0 5.20434,-5.21777 l 8.00106,2.1363 -5.85029,-5.8601 a 22.382816,22.382816 0 0 0 1.75131,-5.7888 l 13.81828,-3.47524 -13.83223,-3.47937 a 22.382816,22.382816 0 0 0 -1.73374,-5.7888 l 5.84667,-5.85649 -7.99021,2.13373 a 22.382816,22.382816 0 0 0 -5.21829,-5.20434 l 2.13682,-8.00106 -5.86011,5.85029 a 22.382816,22.382816 0 0 0 -5.78879,-1.75132 z m 0,17.54208 a 18.373775,18.373775 0 0 1 18.37408,18.37407 18.373775,18.373775 0 0 1 -18.37408,18.37356 18.373775,18.373775 0 0 1 -18.373551,-18.37356 18.373775,18.373775 0 0 1 18.373551,-18.37407 z"
         style="opacity:1;fill:#000000;fill-opacity:1;stroke:none;stroke-width:0.69686025;stroke-linecap:butt;stroke-linejoin:miter;stroke-miterlimit:4;stroke-dasharray:none;stroke-opacity:1;paint-order:markers fill stroke" />
    </g>
    <g
       id="text4"
       style="font-size:12px;font-family:MyriadPro-Regular;fill:#ff0000;fill-opacity:0.3906977"
       transform="matrix(0.05846128,0,0,0.05846128,149.04549,190.46773)" />
  </g>
</svg>
