<?xml version="1.0" encoding="UTF-8" standalone="no"?>
<!-- Generated by IcoMoon.io -->

<svg
   xmlns:dc="http://purl.org/dc/elements/1.1/"
   xmlns:cc="http://creativecommons.org/ns#"
   xmlns:rdf="http://www.w3.org/1999/02/22-rdf-syntax-ns#"
   xmlns:svg="http://www.w3.org/2000/svg"
   xmlns="http://www.w3.org/2000/svg"
   xmlns:sodipodi="http://sodipodi.sourceforge.net/DTD/sodipodi-0.dtd"
   xmlns:inkscape="http://www.inkscape.org/namespaces/inkscape"
   version="1.1"
   width="215"
   height="215"
   viewBox="0 0 215.00001 215"
   id="svg20"
   sodipodi:docname="twist.svg"
   inkscape:version="0.92.3 (2405546, 2018-03-11)">
  <metadata
     id="metadata26">
    <rdf:RDF>
      <cc:Work
         rdf:about="">
        <dc:format>image/svg+xml</dc:format>
        <dc:type
           rdf:resource="http://purl.org/dc/dcmitype/StillImage" />
        <dc:title>card-decks-twist</dc:title>
      </cc:Work>
    </rdf:RDF>
  </metadata>
  <defs
     id="defs24" />
  <sodipodi:namedview
     pagecolor="#ffffff"
     bordercolor="#666666"
     borderopacity="1"
     objecttolerance="10"
     gridtolerance="10"
     guidetolerance="10"
     inkscape:pageopacity="0"
     inkscape:pageshadow="2"
     inkscape:window-width="1920"
     inkscape:window-height="1017"
     id="namedview22"
     showgrid="false"
     fit-margin-top="0"
     fit-margin-left="0"
     fit-margin-right="0"
     fit-margin-bottom="0"
     inkscape:zoom="0.92187498"
     inkscape:cx="-349.67568"
     inkscape:cy="316.3295"
     inkscape:window-x="-8"
     inkscape:window-y="-8"
     inkscape:window-maximized="1"
     inkscape:current-layer="svg20" />
  <title
     id="title2">card-decks-twist</title>
  <g
     id="g841"
     transform="matrix(6.7182321,0,0,6.7182321,0.00639256,0.00671891)"
     style="fill:#000000;fill-opacity:1">
    <path
       id="path4"
       d="m 5.872,31.995 c -0.223,-0.079 -0.21,-0.367 0.026,-0.563 0.105,-0.092 0.196,-0.275 0.196,-0.393 0,-0.262 0.393,-1.087 0.563,-1.152 0.052,-0.026 0.092,-0.17 0.092,-0.314 0,-0.275 0.341,-0.956 0.629,-1.257 0.079,-0.092 0.157,-0.288 0.157,-0.432 0,-0.144 0.066,-0.223 0.131,-0.183 0.079,0.052 0.131,-0.066 0.131,-0.249 0,-0.183 0.052,-0.34 0.118,-0.34 0.066,0 0.262,-0.223 0.419,-0.485 0.17,-0.275 0.354,-0.511 0.406,-0.537 0.052,-0.026 0.105,-0.157 0.105,-0.288 0,-0.118 0.092,-0.301 0.196,-0.393 0.104,-0.092 0.196,-0.275 0.196,-0.406 0,-0.131 0.066,-0.275 0.131,-0.314 0.079,-0.039 0.131,-0.196 0.131,-0.34 0,-0.144 0.092,-0.288 0.196,-0.327 0.105,-0.052 0.196,-0.183 0.196,-0.314 0,-0.314 0.589,-0.969 0.786,-0.851 0.079,0.052 0.118,0.17 0.079,0.275 -0.039,0.105 -0.013,0.183 0.052,0.183 0.079,0 0.131,0.079 0.131,0.183 0,0.236 0.079,0.288 0.629,0.406 0.327,0.066 0.419,0.039 0.419,-0.118 0,-0.118 0.092,-0.21 0.196,-0.21 0.104,0 0.196,-0.079 0.196,-0.17 0,-0.105 0.144,-0.262 0.327,-0.354 0.183,-0.092 0.327,-0.249 0.327,-0.354 0,-0.092 0.066,-0.17 0.144,-0.17 0.092,0 0.275,-0.131 0.432,-0.288 0.262,-0.288 0.288,-0.288 0.707,-0.092 0.262,0.144 0.367,0.249 0.262,0.288 -0.092,0.039 -0.013,0.079 0.17,0.079 0.21,0.013 0.38,0.105 0.432,0.249 0.039,0.118 0.144,0.314 0.223,0.432 0.131,0.183 0.079,0.301 -0.301,0.694 -0.249,0.262 -0.498,0.471 -0.55,0.471 -0.118,0 -0.471,0.34 -0.471,0.445 0,0.039 -0.131,0.223 -0.288,0.406 -0.157,0.183 -0.301,0.406 -0.314,0.511 -0.026,0.17 0.602,0.498 1.323,0.668 0.223,0.052 0.314,0.131 0.236,0.157 -0.092,0.039 -0.17,0.144 -0.17,0.249 0,0.105 -0.131,0.249 -0.288,0.314 -0.17,0.079 -0.393,0.183 -0.498,0.249 -0.105,0.066 -0.367,0.196 -0.589,0.288 -0.21,0.105 -0.471,0.262 -0.563,0.354 -0.092,0.079 -0.275,0.157 -0.38,0.157 -0.288,0 -1.218,0.419 -1.218,0.55 0,0.052 -0.092,0.105 -0.196,0.105 -0.21,0 -1.545,0.773 -1.611,0.943 -0.026,0.052 -0.131,0.105 -0.236,0.105 -0.17,0 -0.485,0.157 -1.428,0.747 -0.144,0.092 -0.511,0.288 -0.812,0.432 -0.314,0.157 -0.563,0.327 -0.563,0.367 -0.013,0.21 -0.471,0.642 -0.616,0.589 z"
       inkscape:connector-curvature="0"
       style="fill:#000000;fill-opacity:1" />
    <path
       id="path6"
       d="m 26.316,31.458 c 0.105,-0.183 -0.419,-0.55 -0.773,-0.55 -0.183,0 -0.327,-0.052 -0.327,-0.131 0,-0.066 -0.21,-0.157 -0.458,-0.21 -0.249,-0.039 -0.458,-0.131 -0.458,-0.196 0,-0.065 -0.079,-0.118 -0.183,-0.118 -0.105,0 -0.21,-0.092 -0.262,-0.196 -0.039,-0.105 -0.157,-0.196 -0.262,-0.196 -0.275,0 -1.008,-0.406 -1.349,-0.747 -0.157,-0.17 -0.406,-0.301 -0.55,-0.301 -0.144,0 -0.288,-0.052 -0.327,-0.118 -0.039,-0.066 -0.288,-0.157 -0.537,-0.196 -0.249,-0.052 -0.458,-0.144 -0.458,-0.21 0,-0.079 -0.144,-0.131 -0.314,-0.131 -0.183,0 -0.354,-0.052 -0.406,-0.118 -0.039,-0.079 -0.354,-0.262 -0.694,-0.432 -0.34,-0.17 -0.629,-0.34 -0.655,-0.393 -0.026,-0.066 -0.131,-0.105 -0.223,-0.105 -0.105,0 -0.223,-0.052 -0.262,-0.131 -0.105,-0.17 0.157,-0.655 0.367,-0.655 0.092,0 0.301,-0.118 0.485,-0.262 0.262,-0.196 0.301,-0.275 0.17,-0.406 -0.092,-0.092 -0.17,-0.275 -0.17,-0.406 0,-0.131 -0.092,-0.236 -0.196,-0.236 -0.105,0 -0.196,-0.092 -0.196,-0.196 0,-0.104 -0.052,-0.196 -0.131,-0.196 -0.17,0 -0.773,-0.629 -0.681,-0.707 0.039,-0.039 -0.092,-0.079 -0.288,-0.079 -0.21,0 -0.327,-0.052 -0.275,-0.131 0.039,-0.066 -0.026,-0.131 -0.17,-0.131 -0.144,0 -0.406,-0.223 -0.616,-0.524 -0.196,-0.288 -0.419,-0.524 -0.471,-0.524 -0.249,0 -0.105,-0.249 0.183,-0.301 0.157,-0.026 0.092,-0.039 -0.144,-0.013 -0.341,0.026 -0.458,-0.026 -0.537,-0.223 -0.052,-0.144 -0.144,-0.275 -0.21,-0.288 -0.079,-0.013 -0.118,-0.066 -0.105,-0.118 0.026,-0.066 -0.026,-0.105 -0.105,-0.105 -0.079,0 -0.38,-0.236 -0.655,-0.524 -0.288,-0.288 -0.55,-0.524 -0.589,-0.524 -0.092,0 -0.445,-0.354 -0.445,-0.445 0,-0.039 -0.38,-0.458 -0.851,-0.93 -0.471,-0.472 -0.851,-0.877 -0.851,-0.904 0,-0.118 -0.812,-0.864 -0.93,-0.864 -0.066,0 -0.118,-0.066 -0.118,-0.144 0,-0.078 -0.092,-0.223 -0.196,-0.327 -0.327,-0.34 -0.223,-0.616 0.524,-1.428 0.393,-0.432 0.72,-0.864 0.72,-0.943 0,-0.092 0.144,-0.196 0.327,-0.249 0.17,-0.039 0.354,-0.196 0.406,-0.341 0.092,-0.301 0.786,-1.022 0.969,-1.022 0.079,0 0.131,-0.066 0.131,-0.144 0,-0.17 0.196,-0.354 0.76,-0.76 0.354,-0.249 0.432,-0.262 0.498,-0.105 0.039,0.118 0.21,0.236 0.393,0.275 0.196,0.052 0.314,0.183 0.314,0.341 0,0.144 0.092,0.262 0.196,0.262 0.21,0 0.406,0.55 0.275,0.76 -0.039,0.079 -0.183,0.105 -0.314,0.066 -0.249,-0.066 -1.205,0.707 -1.205,0.969 0,0.066 -0.236,0.367 -0.524,0.668 -0.288,0.288 -0.524,0.576 -0.524,0.616 0,0.052 -0.092,0.17 -0.196,0.275 -0.249,0.249 -0.249,0.511 0,0.76 0.105,0.105 0.196,0.249 0.196,0.327 0,0.078 0.092,0.144 0.196,0.144 0.105,0 0.196,0.092 0.196,0.196 0,0.104 0.066,0.196 0.131,0.196 0.079,0 0.55,0.393 1.048,0.891 1.323,1.27 1.703,1.598 1.847,1.598 0.079,0 0.092,0.066 0.052,0.131 -0.039,0.079 0.039,0.131 0.183,0.131 0.157,0 0.262,0.066 0.236,0.157 -0.013,0.092 0.066,0.157 0.17,0.17 0.105,0 0.196,0.066 0.196,0.131 0,0.118 1.454,1.637 1.572,1.637 0.026,0 0.301,0.236 0.602,0.524 0.301,0.288 0.629,0.524 0.733,0.524 0.092,0 0.17,0.092 0.17,0.21 0,0.144 0.105,0.183 0.419,0.157 0.34,-0.026 0.471,-0.144 0.681,-0.537 0.288,-0.537 0.642,-0.602 0.707,-0.118 0.026,0.157 0.105,0.288 0.17,0.288 0.065,0 0.118,0.105 0.118,0.236 0,0.118 0.144,0.38 0.327,0.576 0.17,0.183 0.354,0.498 0.406,0.681 0.039,0.183 0.131,0.34 0.196,0.34 0.065,0 0.118,0.105 0.118,0.249 0,0.131 0.092,0.314 0.196,0.406 0.104,0.092 0.196,0.275 0.196,0.406 0,0.144 0.052,0.249 0.105,0.249 0.066,0 0.223,0.223 0.367,0.485 0.131,0.275 0.327,0.576 0.419,0.668 0.079,0.092 0.157,0.262 0.157,0.367 0,0.105 0.066,0.183 0.131,0.183 0.079,0 0.131,0.092 0.131,0.196 0,0.104 0.105,0.196 0.236,0.21 0.131,0 0.157,0.039 0.066,0.079 -0.092,0.026 -0.17,0.118 -0.17,0.183 0,0.079 0.066,0.092 0.131,0.052 0.079,-0.039 0.131,0.039 0.131,0.183 0,0.17 0.092,0.275 0.236,0.275 0.183,0 0.196,0.026 0.026,0.131 -0.157,0.105 -0.131,0.131 0.131,0.144 0.183,0 0.249,0.039 0.157,0.079 -0.131,0.052 -0.118,0.118 0.066,0.262 0.131,0.105 0.17,0.157 0.079,0.118 -0.21,-0.105 -0.039,0.485 0.183,0.616 0.236,0.144 0.223,0.616 -0.039,0.616 -0.105,0 -0.17,-0.052 -0.131,-0.105 z M 15.485,13.267 c -0.052,-0.039 -0.092,0 -0.092,0.092 0,0.092 0.039,0.131 0.092,0.092 0.039,-0.052 0.039,-0.131 0,-0.183 z"
       inkscape:connector-curvature="0"
       style="fill:#000000;fill-opacity:1" />
    <path
       id="path8"
       d="m 26.434,30.554 c 0.052,-0.039 0.131,-0.039 0.183,0 0.039,0.052 0,0.092 -0.092,0.092 -0.092,0 -0.131,-0.039 -0.092,-0.092 z"
       inkscape:connector-curvature="0"
       style="fill:#000000;fill-opacity:1" />
    <path
       id="path10"
       d="m 14.948,26.914 c 0.052,-0.105 0.105,-0.196 0.131,-0.196 0.026,0 0.052,0.092 0.052,0.196 0,0.105 -0.052,0.196 -0.131,0.196 -0.066,0 -0.092,-0.092 -0.052,-0.196 z"
       inkscape:connector-curvature="0"
       style="fill:#000000;fill-opacity:1" />
    <path
       id="path12"
       d="m 21.745,22.657 c 0.039,-0.066 0.105,-0.131 0.144,-0.131 0.039,0 0.026,0.066 -0.013,0.131 -0.039,0.079 -0.105,0.131 -0.144,0.131 -0.039,0 -0.026,-0.052 0.013,-0.131 z"
       inkscape:connector-curvature="0"
       style="fill:#000000;fill-opacity:1" />
    <path
       id="path14"
       d="m 17.79,20.575 c -0.314,-0.262 -0.419,-0.498 -0.144,-0.327 0.092,0.052 0.105,0.039 0.052,-0.052 -0.053,-0.091 -0.183,-0.157 -0.288,-0.157 -0.105,0 -0.183,-0.052 -0.183,-0.131 0,-0.066 -0.092,-0.131 -0.196,-0.131 -0.118,0 -0.196,-0.118 -0.196,-0.275 0,-0.262 0.55,-0.93 1.676,-1.991 0.301,-0.288 0.55,-0.616 0.55,-0.733 0,-0.17 0.026,-0.17 0.118,-0.039 0.092,0.144 0.131,0.131 0.196,-0.039 0.17,-0.445 0.066,-0.72 -0.511,-1.323 -0.327,-0.327 -0.589,-0.642 -0.589,-0.694 0,-0.039 -0.432,-0.458 -0.943,-0.93 -1.428,-1.297 -1.951,-1.847 -1.86,-1.978 0.039,-0.066 0,-0.118 -0.079,-0.118 -0.223,0 -0.589,-0.393 -0.367,-0.393 0.092,-0.013 -0.079,-0.131 -0.38,-0.288 -0.314,-0.144 -0.563,-0.341 -0.563,-0.445 0,-0.104 -0.066,-0.183 -0.131,-0.183 -0.157,0 -0.327,-0.131 -0.917,-0.681 C 12.839,9.457 12.603,9.3 12.524,9.3 12.445,9.3 12.38,9.208 12.38,9.104 c 0,-0.105 -0.092,-0.196 -0.196,-0.196 -0.104,0 -0.196,-0.039 -0.196,-0.105 0,-0.157 -1.336,-0.419 -2.58,-0.511 L 8.256,8.213 7.47,7.401 C 7.038,6.969 6.514,6.497 6.291,6.353 6.081,6.222 5.623,5.882 5.296,5.606 4.969,5.33 4.628,5.108 4.549,5.108 4.457,5.108 4.392,5.016 4.392,4.912 4.392,4.808 4.326,4.716 4.248,4.716 4.038,4.716 3.711,4.336 3.803,4.192 3.921,3.996 5.964,4.035 6.357,4.231 c 0.275,0.144 0.419,0.144 0.838,0 0.275,-0.092 0.616,-0.17 0.747,-0.17 0.236,0 0.249,-0.131 0.249,-1.899 0,-1.048 0.026,-1.899 0.066,-1.899 0.04,0 0.288,0.236 0.576,0.524 0.275,0.288 0.576,0.524 0.655,0.524 0.079,0 0.131,0.066 0.105,0.157 -0.013,0.092 0.066,0.17 0.17,0.17 0.104,0 0.183,0.079 0.17,0.17 -0.026,0.092 0.052,0.157 0.157,0.157 0.105,0 0.196,0.118 0.196,0.249 0,0.144 0.471,0.72 1.048,1.31 0.995,0.995 1.048,1.074 1.048,1.637 0,0.314 0.079,0.668 0.17,0.76 0.079,0.092 0.17,0.34 0.183,0.55 0.013,0.21 0.079,0.419 0.144,0.458 0.066,0.039 0.183,0.196 0.262,0.341 0.079,0.157 0.301,0.354 0.511,0.458 0.196,0.105 0.694,0.498 1.087,0.864 1.624,1.519 1.886,1.755 1.978,1.755 0.052,0 0.131,0.144 0.17,0.327 0.052,0.183 0.17,0.327 0.262,0.327 0.105,0 0.668,0.471 1.27,1.048 0.589,0.576 1.126,1.048 1.179,1.048 0.066,0 0.118,0.052 0.118,0.131 0,0.17 0.747,0.917 0.917,0.917 0.066,0 0.131,0.052 0.131,0.118 0,0.066 0.288,0.406 0.642,0.76 0.864,0.851 0.943,1.192 0.419,1.729 -0.223,0.236 -0.406,0.445 -0.406,0.471 0,0.026 -0.236,0.301 -0.511,0.589 -0.288,0.301 -0.616,0.76 -0.733,1.008 -0.17,0.354 -0.249,0.419 -0.34,0.288 -0.092,-0.144 -0.118,-0.131 -0.118,0.052 0,0.118 -0.092,0.223 -0.196,0.223 -0.104,0 -0.196,0.066 -0.196,0.144 0,0.144 -1.074,1.297 -1.192,1.297 -0.026,-0.013 -0.183,-0.118 -0.34,-0.249 z m -1.912,-8.748 c -0.052,-0.039 -0.131,-0.039 -0.183,0 -0.039,0.052 0,0.092 0.092,0.092 0.092,0 0.131,-0.039 0.092,-0.092 z"
       inkscape:connector-curvature="0"
       style="fill:#000000;fill-opacity:1" />
    <path
       id="path16"
       d="m 17.672,10.569 c -0.039,-0.118 -0.17,-0.223 -0.275,-0.223 -0.105,0 -0.144,-0.052 -0.105,-0.131 0.039,-0.066 0.013,-0.131 -0.052,-0.131 -0.236,0 -0.668,-0.511 -0.668,-0.786 0,-0.157 0.118,-0.288 0.314,-0.341 0.17,-0.039 0.34,-0.183 0.38,-0.327 0.039,-0.131 0.17,-0.288 0.314,-0.341 0.131,-0.052 0.563,-0.432 0.982,-0.851 0.694,-0.707 0.747,-0.799 0.799,-1.506 0.157,-1.833 0.432,-2.514 1.048,-2.528 0.236,0 0.747,-0.445 0.747,-0.655 0,-0.066 0.314,-0.445 0.694,-0.825 0.825,-0.851 1.27,-1.375 1.27,-1.48 0,-0.105 0.419,-0.432 0.563,-0.445 0.052,0 0.092,0.118 0.092,0.262 0,0.144 -0.052,0.262 -0.118,0.262 -0.183,0 -0.183,2.789 0,3.196 0.131,0.262 0.262,0.34 0.629,0.367 0.825,0.039 2.043,-0.052 2.174,-0.157 0.236,-0.196 1.624,-0.262 1.716,-0.092 0.052,0.092 0.052,0.118 -0.013,0.066 -0.092,-0.092 -0.458,0.183 -0.458,0.354 0,0.118 -0.406,0.524 -0.55,0.537 -0.052,0.013 -0.144,0.026 -0.196,0.039 -0.066,0 -0.34,0.223 -0.616,0.471 -0.288,0.249 -0.563,0.458 -0.629,0.458 -0.052,0 -0.105,0.092 -0.105,0.196 0,0.104 -0.079,0.196 -0.183,0.196 -0.092,0 -0.642,0.458 -1.218,1.022 l -1.035,1.035 -1.1,0.079 c -1.729,0.118 -2.017,0.275 -3.562,1.768 -0.616,0.589 -0.76,0.694 -0.838,0.511 z"
       inkscape:connector-curvature="0"
       style="fill:#000000;fill-opacity:1" />
    <path
       id="path18"
       d="m 27.9,4.322 c 0.039,-0.066 0.105,-0.131 0.144,-0.131 0.026,0 0.052,0.066 0.052,0.131 0,0.079 -0.066,0.131 -0.144,0.131 -0.066,0 -0.092,-0.052 -0.052,-0.131 z"
       inkscape:connector-curvature="0"
       style="fill:#000000;fill-opacity:1" />
  </g>
</svg>
