<?xml version="1.0" encoding="UTF-8" standalone="no"?>
<!-- Generated by IcoMoon.io -->

<svg
   xmlns:dc="http://purl.org/dc/elements/1.1/"
   xmlns:cc="http://creativecommons.org/ns#"
   xmlns:rdf="http://www.w3.org/1999/02/22-rdf-syntax-ns#"
   xmlns:svg="http://www.w3.org/2000/svg"
   xmlns="http://www.w3.org/2000/svg"
   xmlns:sodipodi="http://sodipodi.sourceforge.net/DTD/sodipodi-0.dtd"
   xmlns:inkscape="http://www.inkscape.org/namespaces/inkscape"
   version="1.1"
   width="215"
   height="215"
   viewBox="0 0 215 215"
   id="svg6"
   sodipodi:docname="blast.svg"
   inkscape:version="0.92.3 (2405546, 2018-03-11)">
  <metadata
     id="metadata12">
    <rdf:RDF>
      <cc:Work
         rdf:about="">
        <dc:format>image/svg+xml</dc:format>
        <dc:type
           rdf:resource="http://purl.org/dc/dcmitype/StillImage" />
        <dc:title>w_blast</dc:title>
      </cc:Work>
    </rdf:RDF>
  </metadata>
  <defs
     id="defs10" />
  <sodipodi:namedview
     pagecolor="#ffffff"
     bordercolor="#666666"
     borderopacity="1"
     objecttolerance="10"
     gridtolerance="10"
     guidetolerance="10"
     inkscape:pageopacity="0"
     inkscape:pageshadow="2"
     inkscape:window-width="1920"
     inkscape:window-height="1017"
     id="namedview8"
     showgrid="false"
     fit-margin-top="0"
     fit-margin-left="0"
     fit-margin-right="0"
     fit-margin-bottom="0"
     inkscape:zoom="2.6074563"
     inkscape:cx="-56.248875"
     inkscape:cy="79.186451"
     inkscape:window-x="-8"
     inkscape:window-y="-8"
     inkscape:window-maximized="1"
     inkscape:current-layer="svg6" />
  <title
     id="title2">w_blast</title>
  <path
     d="m 129.72664,201.9535 q -1.28231,-0.64115 -1.49602,-2.56461 v -0.64115 q -0.21372,-2.13718 -2.56462,-1.92346 -0.85487,0 -1.92346,0.64115 -3.84691,2.13718 -5.55666,3.84692 l -0.21371,0.42744 q -2.13718,2.35089 -3.84692,2.77833 -2.13718,0 -2.77833,2.99204 -0.42744,1.49603 -1.70974,3.41949 l -0.42744,0.64115 q -1.49602,2.56461 -3.6332,2.77833 -2.13718,0.21372 -4.48807,-1.92346 -5.984096,-5.98409 -16.669981,-13.2505 -2.137177,-1.06859 -4.274354,-0.32057 -2.137177,0.74801 -0.427435,3.52634 1.068588,1.49602 0.961729,1.92346 -0.106858,0.42743 -1.389165,2.13718 -3.846918,-3.84692 -12.823061,-10.04474 l -2.77833,-2.13717 q -2.77833,-1.92346 -4.70179,-4.06064 -3.6332,-3.6332 -10.899602,-6.41153 -0.854871,-0.21372 -2.564612,-1.06859 -3.205766,-1.70974 -5.129225,-1.70974 -0.641153,0 -1.282306,-1.28231 -0.427435,-0.85487 -0.106859,-1.38916 0.320577,-0.5343 1.175447,-0.64115 0.854871,-0.10686 2.350895,0.42743 1.496024,0.5343 2.137177,0.32058 l 4.060636,-1.49603 q 1.282306,-0.42743 3.846919,-0.64115 1.923459,0 2.77833,-0.21372 l 0.85487,-0.21371 q 2.350895,-0.64116 3.419484,-1.17545 1.068588,-0.5343 2.77833,-2.45776 0.641153,-0.85487 1.923459,-1.2823 0.854871,0 1.496024,1.70974 0.427435,0.85487 2.137177,0.96173 1.709741,0.10686 1.923459,-0.74801 1.068588,-2.3509 2.992048,-4.48807 1.068588,-1.28231 3.6332,-3.63321 l 4.274354,-4.48807 q 4.274354,-4.27435 5.770378,-7.05268 0.213718,-0.42744 1.068588,-1.17545 0.854871,-0.74801 1.068589,-1.2823 0.213718,-0.5343 1.282306,-0.96173 1.068589,-0.42744 1.068589,-1.49603 1.496023,-0.64115 3.205765,-2.77833 l 1.282306,-1.92346 q 0.854871,-1.2823 1.282306,-1.70974 l 1.068589,-1.2823 q 1.282306,-1.92346 2.137176,-2.56462 0.85487,-0.64115 0.74801,-1.17544 -0.10686,-0.5343 -0.53429,-1.38917 l -0.21372,-0.42743 q -0.213717,-0.64116 -1.282305,-1.49603 l -0.641154,-0.64115 q -0.427435,-0.64115 -1.8166,-1.70974 -1.389165,-1.06859 -2.030318,-2.13718 -0.641153,-1.06859 -2.564612,-2.77833 l -5.342943,-4.91551 q -0.213717,-0.42743 -1.068588,-1.06859 l -0.427436,-0.42743 q -0.427435,-0.64115 -0.748011,-2.03032 -0.320577,-1.38916 -0.641154,-2.03032 -0.320576,-0.64115 -1.496023,-1.06859 -1.175448,-0.42743 -2.244036,-2.13717 -1.068589,-1.70974 -1.923459,-2.3509 -1.282307,-0.85487 -3.419484,-3.20576 l -1.068588,-1.06859 q -0.213718,-1.28231 1.282306,-2.3509 1.923459,-1.2823 5.663519,-4.594927 3.74006,-3.312624 6.090954,-4.59493 0.854871,-0.641153 2.350895,-2.137177 1.923459,-2.350895 3.419483,-2.77833 2.350895,-2.564612 8.014414,-6.945825 5.66352,-4.381212 8.01441,-7.159542 0.85487,-1.06859 0.74802,-1.8166 -0.10686,-0.74801 -0.96173,-1.8166 l -1.28231,-1.06859 q -1.49602,-1.06859 -1.70974,-1.92346 -0.21372,-0.85487 -1.49603,-1.70974 -0.85487,-0.21372 -1.06858,-0.64115 -0.85488,-1.70975 -3.526347,-4.38122 -2.671471,-2.67147 -3.526342,-4.59493 l -0.427435,-1.49602 q -0.854871,-2.13718 -1.709741,-3.20577 l -2.350895,-3.20576 q -2.77833,-3.6332 -4.274354,-5.12923 -2.564612,-2.77833 -5.342942,-4.48807 -0.213718,-0.21372 -0.213718,-0.64115 0,-0.42744 0.427435,-0.85487 5.129225,-2.3509 7.693837,-6.62525 0.641153,-1.06859 2.350895,-2.56461 l 1.496024,-1.49603 q 1.496024,-1.70974 2.564612,-2.24403 1.068589,-0.5343 2.137177,-2.03032 l 1.068589,-1.28231 q 3.846915,-4.70179 6.197815,-6.62525 3.20576,-2.56461 5.55666,-4.06063 4.27435,-2.5646094 7.69383,-7.6938394 l 1.28231,-1.2823 q 1.06859,-1.06859 1.49602,-1.92346003 0.64116,1.49602003 0.42744,2.99204003 -0.21372,0.85487 -1.06859,2.45776 -0.85487,1.60288 -1.06859,2.45775 -1.49602,1.0685896 -3.41948,4.2743494 l -1.49602,2.3509 q -2.3509,4.06064 -5.55666,8.12127 -2.77833,4.48807 -4.06064,10.25845 -0.42744,3.20577 0.32058,5.4498 0.74801,2.24404 2.88519,4.1675 0.42743,0.42743 1.06858,1.2823 0.85487,1.49603 1.60289,1.8166 0.74801,0.32058 1.92346,1.38917 1.17544,1.06859 1.8166,1.38916 0.64115,0.32058 1.60288,1.49603 0.96173,1.17545 1.8166,1.38916 0.85487,0.21372 1.92346,1.28231 1.06859,1.06859 1.92346,1.38916 0.85487,0.32058 2.13717,1.70975 1.28231,1.38916 2.13718,1.60288 1.28231,0.42743 3.41948,2.56461 l 0.42744,0.42744 q 0.85487,0.85487 2.77833,1.70974 1.92346,0.85487 2.56461,1.92346 0.42744,0.64115 1.49603,0.42743 h 4.06063 q 0.42744,0 0.64116,0.64116 0.21371,0.64115 0,1.2823 -0.21372,1.28231 -1.70975,2.3509 l -1.49602,1.49602 q -6.41153,6.83897 -8.97614,10.68588 -0.21372,0.42744 -1.06859,1.282311 -1.92346,1.709741 -5.12923,5.55666 -2.77833,3.419483 -4.27435,4.915507 -0.42744,0.427435 -1.28231,1.709741 -1.2823,1.92346 -2.03031,2.350895 -0.74802,0.427435 -1.70975,1.709742 -0.96173,1.282305 -1.8166,1.709745 -1.49602,1.06859 -1.38916,3.74006 0.10686,2.67147 1.60288,3.74006 0.85487,0.42743 1.70974,1.8166 0.85487,1.38916 1.49603,1.8166 1.06859,0.64115 2.77833,2.56461 l 7.69383,7.69384 q 1.92346,1.92346 2.56462,3.20576 1.92346,2.99205 4.27435,4.48807 2.35089,1.49603 2.45775,4.38122 0.10686,2.88518 -2.03031,5.02236 -0.42744,0.64116 -1.49603,1.49603 l -0.64115,0.64115 q -1.06859,1.49602 -1.8166,1.8166 -0.74801,0.32058 -1.8166,-0.96173 l -0.42744,-0.42744 q -0.42743,-0.42743 -0.85487,0 l -0.21372,0.64116 q -0.64115,0.42743 0,0.85487 l 0.21372,0.21372 q 0.85487,0.64115 0.85487,1.38916 0,0.74801 -0.53429,1.17545 -0.5343,0.42743 -0.74801,0.85487 -2.99205,3.6332 -8.76243,10.8996 l -3.6332,4.70179 q -0.64115,0.85487 -1.28231,2.99205 l -0.64115,1.49602 -0.21372,0.21372 q -1.06859,0.85487 -0.42743,1.49602 0.21372,0.21372 0.42743,1.06859 0.21372,0.85487 0.64116,1.06859 1.06858,0.42744 2.88519,1.92346 1.8166,1.49602 3.0989,1.92346 l 0.42744,0.21372 q 2.13717,0.85487 2.99204,0.42743 3.20577,-1.06859 9.18987,-0.64115 h 4.48807 q 0.85487,0 2.56461,-0.42744 2.77833,-0.64115 4.38121,-0.42743 1.60288,0.21372 5.02237,0 h 2.35089 q 2.56461,0.21372 7.69384,1.2823 l 2.56461,0.42744 q 2.13718,0.64115 0.64115,2.13718 -0.85487,1.06859 -2.77833,1.92346 -1.92345,0.85487 -2.56461,1.70974 -2.56461,2.99205 -4.9155,4.70179 -0.85488,0.85487 -2.88519,2.24403 -2.03032,1.38917 -3.09891,2.24404 l -4.91551,4.91551 q -2.13717,1.70974 -4.06063,2.56461 -1.49603,0.42743 -3.84692,2.99204 z m -54.498012,-7.69383 q 0.854871,-0.85487 0.854871,-1.28231 0,-0.42744 -0.427435,-0.85487 -0.427436,-0.42744 -0.748012,-0.42744 -0.320577,0 -0.748012,0.42744 -0.427436,0.42743 -0.427436,0.64115 0.427436,0.64116 1.496024,1.49603 z M 22.012922,105.78054 h 4.70179 v -2.35089 q 0,-2.13718 1.923459,-2.99205 4.701789,-2.137179 6.411531,-4.274355 0.641153,0.213717 0.854871,0 0.213717,-0.213718 0.427435,-0.854871 l 0.213718,-0.641153 q 1.068588,-1.068589 2.350894,-3.633201 1.068589,-2.350895 1.92346,-3.205766 1.923459,-2.992047 1.709741,-6.197815 -0.427435,-2.35089 -2.137177,-5.98409 -1.709741,-2.77833 -5.342942,-7.90756 l -1.923459,-2.99205 q -2.137177,-1.70974 -5.129225,-6.19781 -2.350895,-3.41948 -3.74006,-4.80865 -1.389165,-1.38916 -3.526342,-4.38121 l -1.709741,-2.13718 q -0.854871,-0.64115 -0.854871,-1.70974 v -0.85487 q 0,-1.06859 0.534294,-1.2823 0.534294,-0.21372 1.816601,1.06858 l 1.068588,1.06859 q 1.282306,1.49603 2.457754,1.70974 1.175447,0.21372 1.923459,2.03032 0.748012,1.8166 2.671471,3.09891 1.923459,1.2823 5.55666,4.91551 l 2.350895,2.35089 q 4.060636,4.06064 8.548707,6.41153 1.068589,0.42744 2.564613,2.13718 l 1.282306,1.2823 q 1.068588,-0.42743 1.923459,0.64116 0.854871,1.06859 1.496024,1.06859 2.992048,3.20576 6.625248,5.34294 3.633201,2.13717 6.197814,6.197811 0.641153,1.068588 2.350894,1.923459 l 0.641153,0.427435 q 1.496024,0.854871 1.709742,1.709742 0.213718,0.854871 -0.213718,2.457753 -0.427435,1.602883 -2.564612,2.885189 -1.282306,0.641153 -1.709742,1.282306 -1.709741,0.213718 -4.274354,2.564613 -1.923459,1.923459 -2.992047,2.350894 -1.068589,0.427436 -1.175448,2.030319 -0.106858,1.60288 0.534295,2.45775 l 1.923459,2.56462 1.496024,2.13717 q 1.068588,1.49603 3.633201,3.6332 l 1.496023,1.28231 q 4.488072,3.84692 5.770378,6.62525 0,0.64115 1.282306,1.2823 1.282306,0.64116 2.564613,1.92346 0.85487,0.85487 2.137177,2.56462 1.709741,2.35089 2.885188,3.41948 1.175448,1.06859 2.244036,3.41948 0.427436,1.49603 0.854871,2.13718 0.854871,0.85487 0.96173,1.49602 0.106858,0.64116 0.961729,1.28231 0.854871,0.64115 0.641153,1.28231 -0.85487,2.13717 -2.350894,2.35089 -0.854871,0.42744 -2.137177,1.70974 l -2.137177,1.92346 q -1.282306,1.06859 -1.923459,1.92346 -1.068589,1.70974 -4.70179,4.27435 -2.350894,1.92346 -3.419483,2.99205 -1.282306,0 -2.350894,1.70974 -0.641154,1.06859 -1.282307,1.49603 -1.282306,0.64115 -2.992047,3.84692 l -0.213718,0.42743 q -0.213718,0.42744 -0.641153,0.64115 -0.427435,0.21372 -0.641153,0 -0.427436,-0.64115 -1.602883,-0.64115 -1.175447,0 -1.389165,-0.42743 -0.427435,-0.85488 -2.350895,-1.49603 -1.923459,-0.64115 -2.457753,-1.60288 -0.534294,-0.96173 -1.496024,-1.70974 -0.961729,-0.74801 -1.923459,-0.64116 -0.96173,0.10686 -1.282306,-1.17544 -0.320577,-1.28231 -1.175448,-1.06859 -4.060636,-3.41948 -12.609344,-8.97614 l -0.641153,-0.64116 q -0.641153,-0.64115 -1.068588,-0.85487 -1.709742,-1.06859 -1.068589,-2.99205 0.427436,-0.64115 1.282307,-0.64115 0.85487,0 1.496023,0.42744 1.496024,0.85487 4.70179,0.64115 1.923459,-0.21372 2.671471,0 0.748012,0.21372 1.8166,0.21372 2.137177,-0.21372 2.992048,0.64115 0.641153,0.21372 1.602883,0 0.961729,-0.21372 1.8166,-0.85487 1.709742,-1.06859 2.030318,-2.67147 0.320577,-1.60288 -1.175447,-2.45776 -1.068589,-0.64115 -2.992048,-2.13717 -3.419483,-2.56461 -5.55666,-3.20577 -0.213718,0 -0.213718,-0.21372 l -0.213717,-0.21371 q -0.427436,-1.70974 -2.992048,-3.6332 -1.496024,-1.28231 -2.137177,-1.92346 l -0.641153,-0.85487 q -0.641153,-1.06859 -1.175447,-1.60289 -0.534295,-0.53429 -1.602883,-0.32057 0,-0.85487 -0.427435,-1.28231 -0.427436,-0.42743 -1.389165,-0.85487 -0.96173,-0.42744 -1.389165,-0.85487 l -0.641153,-0.85487 q -1.068589,-2.13718 -2.350895,-2.56461 L 27.7833,113.26066 q 0,0 -0.641153,-0.64115 -1.496024,-0.85487 -3.633201,-4.27436 z m 28.210736,21.15805 q 0,-0.64115 -0.106859,-0.85487 -0.106859,-0.21372 -0.748012,-0.42743 -1.709741,-0.42744 -2.671471,-1.38917 -0.96173,-0.96173 -1.496024,0.21372 -0.534294,1.17545 -0.213717,1.70974 0.320576,0.5343 1.389165,0.96173 1.068588,0.42744 1.068588,1.06859 0,0.64115 0.213718,0.74801 0.213717,0.10686 0.641153,-0.10686 l 0.641153,-0.42743 q 0.854871,-0.42744 1.175447,-0.64116 0.320577,-0.21371 0.106859,-0.85487 z M 48.513917,79.493269 q -0.641154,0.42743 -1.068589,0.85487 -0.854871,0.64115 -0.213718,2.564608 h 0.641153 q 0.854871,-0.213717 0.641154,-1.496028 z M 149.38867,164.55291 q -0.64116,0 -1.92346,-0.42744 -3.84692,-0.64115 -5.77038,-0.42743 -2.56461,0.21371 -7.2664,1.49602 -2.3509,0.42744 -6.62525,0.42744 h -4.06064 q -1.06858,0 -1.2823,-1.06859 -0.21372,-1.06859 0.64115,-1.92346 2.13718,-2.3509 3.6332,-4.91551 0.42744,-0.85487 1.8166,-2.13718 1.38917,-1.2823 1.8166,-2.56461 0,-0.64115 1.06859,-1.49602 l 0.85487,-0.64116 17.09742,-17.09741 q 1.70974,-1.70974 1.70974,-3.09891 0,-1.38916 -2.3509,-2.88519 -2.35089,-1.49602 -7.05268,-5.12922 -5.55666,-3.84692 -8.54871,-5.77038 -0.85487,-0.42743 -1.2823,-1.38916 -0.42744,-0.96173 -0.10686,-1.60289 0.32057,-0.64115 0.64115,-1.8166 0.32058,-1.17544 0.85487,-2.03031 0.5343,-0.85488 1.60288,-1.28231 1.06859,-0.42744 2.24404,-1.49602 1.17545,-1.06859 1.60288,-2.3509 0.21372,-0.64115 0.85487,-1.28231 2.3509,-1.92345 6.19782,-6.625245 3.41948,-4.060636 5.4498,-5.770377 2.03032,-1.709742 2.13718,-2.457754 0.10685,-0.748012 1.17544,-1.175447 0.64116,-0.213718 0.74801,-0.427436 0.10686,-0.213717 -0.10685,-0.85487 l 1.2823,-0.854871 q 2.3509,-1.496024 3.09891,-2.671471 0.74801,-1.17545 2.45775,-3.31262 l 0.85487,-0.85488 q 1.28231,-1.06858 2.13718,-1.49602 0.42744,0 0.85487,-0.64115 0.85487,-1.06859 1.70974,-0.85487 0.21372,0 0.42744,-0.64116 l 0.21372,-0.42743 q 0.85487,-0.42744 2.13717,-2.03032 1.28231,-1.60288 2.3509,-2.24404 1.70974,-0.85487 3.84692,-4.06063 l 0.42743,-0.64115 q 0.42744,-0.64116 2.56461,-1.70975 1.28231,-0.85487 3.41949,-3.41948 l 1.92346,-1.92346 q 0.85487,-0.64115 1.17544,-0.21372 0.32058,0.42744 0.21372,1.60289 -0.10686,1.17544 -1.60288,2.67147 l -0.42744,0.42743 q -1.49602,1.92346 -3.84692,5.9841 -1.70974,2.99205 -2.67147,4.27435 -0.96173,1.28231 -2.24403,3.84692 -1.70974,3.20577 -2.99205,4.48807 -0.42744,0.42744 -0.64115,1.709744 -0.21372,1.709741 -1.06859,2.564612 l -0.42744,0.427436 q -2.13717,1.496023 -2.35089,3.205765 -1.49603,0.854871 -2.56461,3.633201 -0.64116,1.923459 -1.28231,2.564612 -0.64115,0.641153 -1.49602,2.350895 l -0.85488,1.282307 -0.42743,1.282309 q -0.85487,1.92346 -1.70974,2.77833 -1.28231,1.92346 -0.96173,3.74006 0.32057,1.8166 2.03032,3.0989 2.35089,1.70974 6.83896,5.34295 l 5.34294,4.06063 q 2.13718,1.49603 5.34295,4.91551 2.13717,2.13718 3.41948,3.20576 0.42744,0.42744 0.42744,0.85487 0,0.42744 -0.42744,1.06859 -0.21372,0 -0.64115,0.42744 -2.13718,1.70974 -5.77038,5.77038 -3.20577,3.41948 -4.91551,4.9155 -1.49602,1.06859 -1.49602,2.56462 0.21372,0.85487 -0.85487,1.49602 -0.42744,0.64115 -0.64116,0.85487 -2.56461,2.13718 -6.62524,7.48012 -3.20577,4.06064 -4.91551,5.77038 -0.64115,0.64115 -1.06859,2.24403 -0.42744,1.60289 -0.85487,2.24404 -0.64115,1.92346 -2.56461,1.49602 -0.21372,-0.21372 -0.64116,-0.42743 z m 1.06859,-4.48807 q 0.21371,0 0.42743,-0.21372 l -0.64115,-0.42744 -0.21372,0.42744 q 0.21372,0.21372 0.42744,0.21372 z M 0.85487078,147.24177 q 1.06858842,1.06859 3.95377732,0.96173 2.8851889,-0.10686 3.9537773,0.74802 0.6411531,-0.21372 1.8166006,0.32057 1.175447,0.5343 1.8166,0.42744 0.641153,-0.10686 2.350895,0.10686 h 1.068588 q 1.709742,-0.21372 4.915507,0.64115 l 1.068589,0.21372 q 0.427435,0 0.961729,0.53429 0.534295,0.5343 0.96173,0.5343 1.496024,-0.21372 4.488072,0.42743 l 1.709741,0.42744 h 0.854871 q 0.427435,0 1.496024,-0.42744 2.137177,-0.85487 3.205765,-0.21372 l 1.068589,1.06859 2.564612,1.92346 2.350895,1.92346 q 2.137177,1.92346 3.419483,2.88519 1.282306,0.96173 4.488071,2.45775 l 2.137177,0.85487 1.923459,1.49603 q 0.427436,0.21371 0.534295,0.74801 0.106859,0.53429 -0.106859,0.96173 0,0.85487 -1.282306,2.03032 -1.282306,1.17544 -1.496024,2.24403 0,0.42744 -1.282306,0.21372 h -0.427436 l -1.068588,0.21372 q -1.709742,0 -2.77833,0.64115 -1.068589,0.64115 -2.564613,0 -0.85487,-0.42743 -2.350894,-1.49602 l -0.213718,-0.21372 q -2.350894,-1.92346 -4.488071,-2.77833 -0.854871,-0.21372 -2.137177,-1.38917 -1.282307,-1.17544 -2.350895,-1.17544 -1.068588,-1.06859 -3.953777,-1.8166 -2.885189,-0.74802 -3.953778,-2.03032 -0.427435,-0.42744 -1.282306,-0.42744 h -0.427435 q -1.496024,0.21372 -2.564613,-1.06859 -1.496023,-2.35089 -4.701789,-2.77833 -1.068588,-0.42743 -3.312624,-1.49602 -2.2440359,-1.06859 -3.6332009,-1.49602 -1.389165,-0.42744 -3.9537773,-1.70974 Q 1.9234592,150.66126 0.96172962,150.0201 0,149.37895 0,148.31036 v -0.21372 q 0,-0.85487 0.85487078,-0.85487 z M 164.13519,166.47637 q -0.85487,-2.13718 0,-4.48808 0.42743,-1.2823 2.13718,-3.6332 l 0.85487,-1.49602 q 0.42743,-0.85487 1.70974,-2.35089 1.70974,-2.13718 2.35089,-3.41949 0.42744,-0.85487 1.92346,-2.35089 1.49603,-1.49603 1.92346,-2.56461 1.28231,-1.70975 2.99205,0 l 0.21372,0.21371 q 0.85487,0.85487 1.38916,0.96173 0.5343,0.10686 1.38917,-0.74801 0.21371,-0.21372 0.64115,0 h 0.21372 q 4.48807,0.42744 7.69383,-1.70974 h 1.49603 q 1.49602,0.21372 4.27435,-0.5343 2.77833,-0.74801 4.06064,-0.53429 0.42743,0 1.06859,-0.53429 0.64115,-0.5343 0.96173,-0.42744 0.32057,0.10686 0.74801,-0.32058 0.42743,-0.42743 0.85487,-0.21371 2.13718,0.42743 5.98409,-1.28231 l 1.06859,-0.42743 q 1.49603,-0.64116 2.67147,-0.64116 1.17545,0 2.24404,1.06859 -0.64115,0.42744 -2.03032,1.17545 -1.38916,0.74801 -2.03032,1.38916 l -0.85487,0.42744 q -0.85487,-0.42744 -1.60288,-0.10686 -0.74801,0.32058 -1.8166,1.17545 -1.06859,0.85487 -1.92346,0.85487 -1.28231,0 -3.6332,1.70974 l -0.85487,0.64115 q -2.99205,2.3509 -9.18986,5.12923 l -2.99205,1.2823 q -0.85487,0.42744 -2.45775,1.49603 -1.60289,1.06859 -2.45776,1.38916 -0.85487,0.32058 -2.45775,1.17545 -1.60288,0.85487 -2.45775,1.28231 -1.49603,0.64115 -4.06064,1.92345 l -1.92346,1.06859 -0.64115,0.42744 -0.42744,0.42743 q -0.85487,1.06859 -2.13717,1.49603 -0.64116,0.21372 -2.3509,0.53429 -1.70974,0.32058 -2.56461,0.5343 z"
     id="path4"
     inkscape:connector-curvature="0"
     style="fill:#ffffff;fill-opacity:1;stroke-width:6.67867804" />
</svg>
