<?xml version="1.0" encoding="UTF-8" standalone="no"?>
<!-- Generated by IcoMoon.io -->

<svg
   xmlns:dc="http://purl.org/dc/elements/1.1/"
   xmlns:cc="http://creativecommons.org/ns#"
   xmlns:rdf="http://www.w3.org/1999/02/22-rdf-syntax-ns#"
   xmlns:svg="http://www.w3.org/2000/svg"
   xmlns="http://www.w3.org/2000/svg"
   xmlns:sodipodi="http://sodipodi.sourceforge.net/DTD/sodipodi-0.dtd"
   xmlns:inkscape="http://www.inkscape.org/namespaces/inkscape"
   version="1.1"
   width="215"
   height="215"
   viewBox="0 0 215 215"
   id="svg6"
   sodipodi:docname="spear.svg"
   inkscape:version="0.92.3 (2405546, 2018-03-11)">
  <metadata
     id="metadata12">
    <rdf:RDF>
      <cc:Work
         rdf:about="">
        <dc:format>image/svg+xml</dc:format>
        <dc:type
           rdf:resource="http://purl.org/dc/dcmitype/StillImage" />
        <dc:title>w_spear</dc:title>
      </cc:Work>
    </rdf:RDF>
  </metadata>
  <defs
     id="defs10" />
  <sodipodi:namedview
     pagecolor="#ffffff"
     bordercolor="#666666"
     borderopacity="1"
     objecttolerance="10"
     gridtolerance="10"
     guidetolerance="10"
     inkscape:pageopacity="0"
     inkscape:pageshadow="2"
     inkscape:window-width="1920"
     inkscape:window-height="1017"
     id="namedview8"
     showgrid="false"
     fit-margin-top="0"
     fit-margin-left="0"
     fit-margin-right="0"
     fit-margin-bottom="0"
     inkscape:zoom="1.3037281"
     inkscape:cx="-253.63641"
     inkscape:cy="161.68255"
     inkscape:window-x="-8"
     inkscape:window-y="-8"
     inkscape:window-maximized="1"
     inkscape:current-layer="svg6" />
  <title
     id="title2">w_spear</title>
  <path
     d="m 33.661909,213.57949 q -0.860919,-1.29138 -0.43046,-2.36753 0,-0.64569 0.860919,-1.93706 l 0.215229,-0.21523 q 1.506607,-2.58276 5.16551,-7.53304 2.367526,-3.01321 3.443673,-4.51982 l 0.860918,-1.07615 q 4.735051,-6.24166 6.887347,-9.4701 3.658903,-5.38074 5.488354,-10.00817 1.829452,-4.62744 6.779732,-11.94525 l 2.367525,-3.44367 q 2.367526,-3.01321 4.735051,-10.33102 l 2.152296,-6.45689 q 1.291377,-3.44367 0.215229,-6.67211 -1.076148,-3.22845 -4.089362,-5.16551 -1.076148,-0.64569 -2.152295,-1.07615 -2.152296,-1.29138 -2.367526,-2.36753 -0.215229,-1.07614 0.860918,-3.01321 1.937067,-4.08936 2.797985,-4.95028 1.291377,-1.29138 2.797985,-1.07615 1.291377,0.43046 5.380739,2.36753 5.16551,2.36752 7.748265,4.73505 l -0.645689,1.07615 q -0.860918,0.86091 -0.860918,1.72183 0,0.86092 0.860918,1.39899 0.860918,0.53808 1.398992,0.43046 0.538074,-0.10761 1.183763,-0.96853 l 0.430459,-0.43046 q 3.013214,-3.6589 6.887347,-11.83763 1.937066,-3.87413 3.120829,-5.91881 1.183762,-2.04468 3.336058,-6.5645 l 1.72184,-3.87413 q 1.5066,-2.79799 0.64569,-4.735056 -0.43046,-0.645689 -0.64569,-2.259911 -0.21523,-1.614222 -0.64569,-2.259911 -0.430461,-1.076147 -1.721839,-1.506607 -3.874132,-1.506607 -9.254872,-0.430459 -3.874132,1.291378 -7.102576,1.721837 -1.506607,0.215229 -2.367525,0 -0.860918,-0.21523 -1.398992,-1.076148 -0.538074,-0.860918 -0.21523,-1.937066 0.322844,-1.076148 1.183763,-1.721837 l 5.16551,-5.165511 q 6.026428,-6.24166 9.254872,-8.82441 2.367525,-1.72184 6.672119,-5.59597 l 3.01321,-2.79799 q 3.01322,-2.58275 8.82441,-7.53303 7.10258,-6.02643 10.43864,-9.25487 3.33606,-3.22845 10.00817,-8.82441 6.67212,-5.59597 9.68533,-8.60919 8.17872,-8.17872 24.7514,-19.80112 2.79799,-1.9370701 8.17872,-6.6721201 l 1.93707,-1.72183 q 1.07615,-1.50661 2.36753,-2.15229997 0.21523,-0.64569 0.7533,-0.86092 0.53807,-0.21523 1.18376,0.21523 0.64569,0.43046 0.21523,1.50660997 -0.21523,4.51982 -2.36752,13.3442301 l -6.88735,28.19508 q -3.44367,14.63561 -5.8112,21.73819 -0.64569,1.72183 -1.61422,5.48835 -0.96853,3.76652 -1.82945,5.70358 -1.50661,4.3046 -3.87413,13.129008 -2.36753,8.824413 -4.08937,13.129011 -3.6589,9.03964 -5.38074,20.23158 -0.21523,1.72183 -1.29137,5.38074 -0.86092,3.01321 -1.07615,4.4122 -0.21523,1.39899 -0.86092,1.61422 -0.64569,0.21523 -1.72184,-0.86091 -5.16551,-4.73506 -6.45688,-9.03965 -0.86092,-2.79798 -3.87414,-7.53303 l -0.43045,-0.86092 q -1.50661,-3.44367 -4.95028,-1.50661 l -2.79798,1.72184 q -6.02643,3.6589 -9.36249,5.8112 -3.33606,2.15229 -4.41221,5.16551 -0.64568,2.58275 -3.22844,7.3178 -1.07615,1.72184 -0.7533,3.01322 0.32284,1.29138 2.04468,2.58275 11.19194,7.31781 16.7879,11.19194 1.72184,1.29138 1.72184,2.04468 0,0.75331 -1.50661,1.82945 -2.15229,1.29138 -4.95028,4.95028 -1.5066,1.93707 -2.36752,2.79799 -1.50661,0.21523 -1.50661,-0.64569 -2.79798,-8.39395 -11.6224,-6.88735 -4.95028,0.86092 -11.407164,3.87413 -5.16551,2.58276 -7.748265,7.10258 -1.721836,2.58276 -5.165509,7.31781 -3.228444,3.87413 -4.519822,6.02642 l -1.291377,2.1523 q -5.595969,8.82441 -8.178724,13.129 -4.304592,7.53304 -6.887346,13.98993 -0.645689,1.72183 -1.721837,2.79798 -1.937066,2.1523 -3.551288,1.82945 -1.614222,-0.32284 -3.336059,-2.9056 l -0.860918,-1.07614 q 0,-0.21523 -0.215229,-0.21523 l -0.43046,-0.21523 q -1.291377,0.64569 -3.228443,2.79798 -1.076148,1.29138 -1.721837,1.72184 l -0.645689,0.64569 q -0.645688,0.64569 -1.076148,0.7533 -0.430459,0.10762 -0.968533,-0.32284 -0.538074,-0.43046 -0.430459,-1.07615 0.107615,-0.64569 0.538074,-1.72184 v -0.21523 q 1.076148,-2.36752 0.753304,-3.6589 -0.322845,-1.29138 -2.044681,-2.58276 -2.152296,-1.93706 -3.658903,0.32285 -1.506607,2.25991 -2.044681,3.55129 -0.538074,1.29137 -1.398992,2.36752 -0.645689,0.64569 -2.152296,1.72184 z M 118.24713,93.266152 v 0 4.73505 q 0,0.860919 0.53808,1.183763 0.53807,0.322844 1.39899,0.107615 0.86092,-0.21523 2.9056,-1.183763 2.04468,-0.968533 3.12083,-1.398992 4.08936,-1.291378 5.16551,-5.595969 0.64569,-2.797985 3.22843,-8.178725 l 0.86092,-1.72184 0.86092,-2.15229 q 1.72184,-4.08936 2.1523,-6.24166 1.29137,-4.51982 3.44367,-7.74826 l 3.22844,-5.38074 q 4.3046,-7.53304 7.10258,-10.76148 1.07615,-0.64569 1.50661,-2.79799 0.86092,-1.72183 -0.43046,-2.58275 -0.64569,-0.21523 -1.18376,0.10761 -0.53808,0.32285 -0.75331,0.75331 l -2.36752,2.58275 q -5.8112,5.8112 -8.17873,9.25487 -7.53303,10.33102 -20.87726,25.82755 -1.50661,1.937069 -1.72184,2.797987 -0.64569,1.721837 0,3.443673 0.21523,1.291378 0,3.443674 z M 86.393155,143.19942 q 0,2.15229 1.398992,3.76651 1.398992,1.61423 2.905599,1.18377 3.874133,-1.07615 4.735051,-4.08937 1.291378,-3.44367 -1.291377,-6.02642 -0.645689,-0.64569 -1.291378,-0.96854 -0.645689,-0.32284 -1.721836,-0.10761 -1.721837,0.64569 -3.228444,2.58275 -1.506607,1.93707 -1.506607,3.65891 z m 38.310865,9.90056 q 0,-1.29138 -0.7533,-1.29138 -0.75331,0 -0.75331,1.07615 0,0.43046 0.21523,0.86092 0.21523,0.43045 0.64569,0.21523 z M 92.419583,129.42472 v -0.21523 h -0.430459 q -0.21523,0.21523 -0.21523,0.32285 0,0.10761 0.430459,0.10761 -0.215229,-0.21523 0.21523,-0.21523 z"
     id="path4"
     inkscape:connector-curvature="0"
     style="fill:#ffffff;fill-opacity:1;stroke-width:6.72592449" />
</svg>
