<?xml version="1.0" encoding="UTF-8" standalone="no"?>
<!-- Generated by IcoMoon.io -->

<svg
   xmlns:dc="http://purl.org/dc/elements/1.1/"
   xmlns:cc="http://creativecommons.org/ns#"
   xmlns:rdf="http://www.w3.org/1999/02/22-rdf-syntax-ns#"
   xmlns:svg="http://www.w3.org/2000/svg"
   xmlns="http://www.w3.org/2000/svg"
   xmlns:sodipodi="http://sodipodi.sourceforge.net/DTD/sodipodi-0.dtd"
   xmlns:inkscape="http://www.inkscape.org/namespaces/inkscape"
   version="1.1"
   width="215"
   height="215"
   viewBox="0 0 215 215"
   id="svg12"
   sodipodi:docname="environment.svg"
   inkscape:version="0.92.3 (2405546, 2018-03-11)">
  <metadata
     id="metadata18">
    <rdf:RDF>
      <cc:Work
         rdf:about="">
        <dc:format>image/svg+xml</dc:format>
        <dc:type
           rdf:resource="http://purl.org/dc/dcmitype/StillImage" />
        <dc:title>twists-environment</dc:title>
      </cc:Work>
    </rdf:RDF>
  </metadata>
  <defs
     id="defs16" />
  <sodipodi:namedview
     pagecolor="#ffffff"
     bordercolor="#666666"
     borderopacity="1"
     objecttolerance="10"
     gridtolerance="10"
     guidetolerance="10"
     inkscape:pageopacity="0"
     inkscape:pageshadow="2"
     inkscape:window-width="1920"
     inkscape:window-height="1017"
     id="namedview14"
     showgrid="false"
     fit-margin-top="0"
     fit-margin-left="0"
     fit-margin-right="0"
     fit-margin-bottom="0"
     inkscape:zoom="1.3037281"
     inkscape:cx="1.1217785"
     inkscape:cy="-41.746918"
     inkscape:window-x="-8"
     inkscape:window-y="-8"
     inkscape:window-maximized="1"
     inkscape:current-layer="svg12" />
  <title
     id="title2">twists-environment</title>
  <g
     id="g832"
     transform="matrix(6.7192937,0,0,6.7192937,-0.00353208,-0.0086992)">
    <path
       id="path4"
       d="m 15.29,26.949 c -0.238,-0.238 -0.579,-0.522 -0.772,-0.624 -0.193,-0.102 -0.318,-0.227 -0.284,-0.284 0.045,-0.068 -0.023,-0.113 -0.136,-0.125 -0.114,0 -0.352,-0.102 -0.545,-0.227 -0.182,-0.113 -0.443,-0.261 -0.568,-0.318 -0.125,-0.057 -0.488,-0.341 -0.783,-0.624 -0.306,-0.284 -0.59,-0.522 -0.624,-0.522 -0.045,0 -0.238,-0.148 -0.443,-0.341 -0.204,-0.182 -0.42,-0.341 -0.488,-0.341 -0.057,0 -0.102,-0.045 -0.102,-0.102 0,-0.057 -0.125,-0.136 -0.284,-0.17 -0.159,-0.045 -0.284,-0.125 -0.284,-0.182 0,-0.068 -0.125,-0.113 -0.284,-0.113 -0.159,0 -0.284,-0.045 -0.284,-0.113 0,-0.057 -0.125,-0.113 -0.272,-0.113 -0.272,0 -0.488,-0.182 -0.375,-0.306 0.034,-0.034 0.465,-0.068 0.954,-0.079 0.829,-0.011 0.885,-0.023 0.919,-0.272 0.034,-0.204 -0.023,-0.261 -0.306,-0.318 -0.193,-0.045 -0.352,-0.113 -0.352,-0.17 0,-0.057 -0.091,-0.102 -0.216,-0.102 -0.114,0 -0.272,-0.079 -0.352,-0.17 -0.08,-0.091 -0.318,-0.17 -0.522,-0.17 -0.216,0 -0.386,-0.045 -0.386,-0.113 0,-0.057 -0.057,-0.113 -0.125,-0.113 -0.204,0 -1.124,-0.488 -1.124,-0.59 0,-0.045 -0.079,-0.091 -0.182,-0.091 -0.103,0 -0.306,-0.102 -0.465,-0.227 -0.159,-0.125 -0.25,-0.227 -0.193,-0.227 0.045,0 -0.023,-0.102 -0.159,-0.227 -0.136,-0.136 -0.25,-0.284 -0.25,-0.341 0,-0.068 -0.125,-0.113 -0.284,-0.113 -0.227,0 -0.284,0.057 -0.284,0.284 0,0.148 0.068,0.329 0.136,0.386 0.443,0.352 0.806,0.704 0.692,0.636 -0.102,-0.045 -0.148,0.011 -0.148,0.159 0,0.136 -0.079,0.238 -0.17,0.238 -0.091,0 -0.17,-0.057 -0.17,-0.125 0,-0.182 -0.352,-0.431 -0.59,-0.443 -0.216,0 -0.92,-0.352 -0.976,-0.477 -0.023,-0.057 -0.136,-0.091 -0.261,-0.091 -0.125,0 -0.25,-0.079 -0.284,-0.17 -0.045,-0.102 -0.216,-0.17 -0.397,-0.17 -0.181,0 -0.534,-0.125 -0.783,-0.284 C 2.234,18.905 1.962,18.78 1.871,18.78 1.78,18.78 1.667,18.723 1.633,18.667 1.531,18.508 0.611,18.099 0.339,18.099 c -0.159,0 -0.261,-0.102 -0.306,-0.284 -0.091,-0.386 0.011,-0.624 0.284,-0.624 0.125,0 0.261,-0.045 0.295,-0.113 0.034,-0.057 0.182,-0.113 0.329,-0.113 0.136,0 0.352,-0.079 0.477,-0.17 0.113,-0.091 0.329,-0.17 0.454,-0.17 0.136,0 0.272,-0.079 0.318,-0.17 0.034,-0.091 0.193,-0.17 0.352,-0.17 0.159,0 0.284,-0.045 0.284,-0.113 0,-0.057 0.159,-0.113 0.352,-0.113 0.341,0 0.829,-0.17 1.487,-0.522 0.397,-0.216 0.545,-0.204 0.556,0.045 0,0.159 0.023,0.159 0.102,-0.034 0.079,-0.182 0.102,-0.148 0.102,0.193 0.011,0.329 0.045,0.409 0.182,0.363 0.091,-0.045 0.17,-0.114 0.17,-0.182 0,-0.057 -0.068,-0.068 -0.136,-0.023 -0.114,0.068 -0.114,0.057 -0.011,-0.091 0.079,-0.091 0.102,-0.216 0.057,-0.272 -0.045,-0.045 0.011,-0.023 0.125,0.068 0.17,0.125 0.204,0.125 0.17,0 -0.023,-0.091 0.045,-0.17 0.136,-0.17 0.091,0 0.159,-0.068 0.148,-0.148 -0.023,-0.079 0.023,-0.136 0.079,-0.136 0.068,0 0.114,-0.068 0.114,-0.148 0,-0.227 0.613,-0.534 1.044,-0.511 0.363,0.011 0.386,0.034 0.352,0.363 -0.091,0.749 -0.272,1.147 -0.636,1.317 -0.817,0.397 -0.988,1.43 -0.329,2.134 0.068,0.079 0.136,0.204 0.136,0.261 0,0.057 0.125,0.125 0.284,0.17 0.159,0.034 0.284,0.113 0.284,0.17 0,0.057 0.057,0.102 0.125,0.102 0.068,0 0.307,0.079 0.534,0.182 0.238,0.102 0.59,0.25 0.795,0.341 0.205,0.091 0.443,0.159 0.534,0.159 0.091,0 0.17,0.034 0.17,0.091 0,0.227 0.988,0.386 2.77,0.443 1.521,0.045 1.93,0.023 2.009,-0.102 0.068,-0.102 0.431,-0.159 1.203,-0.193 0.613,-0.011 1.135,-0.068 1.169,-0.113 0.102,-0.136 1.93,-0.375 3.269,-0.431 0.84,-0.045 1.271,-0.102 1.271,-0.193 0,-0.068 0.193,-0.136 0.431,-0.159 0.227,-0.011 0.443,-0.079 0.454,-0.136 0.023,-0.068 0.136,-0.113 0.238,-0.113 0.113,0 0.431,-0.125 0.704,-0.284 0.273,-0.159 0.59,-0.318 0.704,-0.352 0.102,-0.045 0.193,-0.136 0.193,-0.216 0,-0.08 0.068,-0.204 0.159,-0.272 0.193,-0.159 0.318,-1.305 0.182,-1.669 -0.068,-0.159 -0.204,-0.272 -0.341,-0.272 -0.125,0 -0.386,-0.136 -0.568,-0.306 -0.295,-0.261 -0.341,-0.375 -0.341,-0.908 v -0.602 h 0.454 c 0.25,0 0.454,0.045 0.454,0.102 0,0.148 0.658,0.465 1.01,0.477 0.193,0.011 0.227,0.034 0.102,0.068 -0.113,0.023 -0.204,0.102 -0.204,0.17 0,0.068 0.091,0.091 0.216,0.057 0.136,-0.034 0.204,0.011 0.193,0.125 -0.023,0.272 0.397,0.306 0.579,0.068 0.125,-0.17 0.193,-0.182 0.352,-0.068 0.102,0.079 0.272,0.17 0.363,0.204 0.091,0.034 0.272,0.114 0.397,0.159 0.125,0.057 0.397,0.136 0.602,0.17 0.193,0.045 0.363,0.125 0.363,0.182 0,0.057 0.182,0.102 0.409,0.102 0.431,0 1.555,0.329 1.612,0.488 0.023,0.045 0.159,0.079 0.306,0.079 0.147,0 0.306,0.057 0.341,0.113 0.034,0.068 0.193,0.113 0.352,0.113 0.148,0 0.272,0.057 0.272,0.113 0,0.068 0.125,0.17 0.284,0.227 0.341,0.125 0.386,0.454 0.068,0.454 -0.352,0 -0.386,0.204 -0.045,0.261 0.204,0.034 0.113,0.057 -0.25,0.079 -0.306,0.011 -0.602,0.023 -0.647,0.011 -0.045,0 -0.113,0.113 -0.159,0.272 -0.034,0.159 -0.113,0.261 -0.159,0.227 -0.057,-0.034 -0.17,0.023 -0.261,0.113 -0.113,0.102 -0.386,0.17 -0.692,0.17 -0.284,0 -0.522,0.045 -0.522,0.102 0,0.057 -0.113,0.148 -0.25,0.182 -0.125,0.045 -0.352,0.204 -0.488,0.352 -0.136,0.148 -0.306,0.272 -0.386,0.272 -0.068,0 -0.341,0.216 -0.602,0.477 -0.272,0.261 -0.534,0.465 -0.579,0.454 -0.045,-0.011 -0.17,0.045 -0.261,0.148 -0.102,0.091 -0.25,0.17 -0.341,0.17 -0.091,0 -0.159,0.045 -0.159,0.102 0,0.057 -0.113,0.125 -0.25,0.159 -0.295,0.079 -0.647,-0.079 -0.443,-0.193 0.238,-0.148 0.148,-0.681 -0.148,-0.817 -0.227,-0.102 -0.363,-0.079 -0.806,0.136 -0.284,0.148 -0.624,0.272 -0.738,0.272 -0.114,0 -0.238,0.045 -0.272,0.102 -0.045,0.057 -0.272,0.136 -0.522,0.182 -0.25,0.046 -0.454,0.113 -0.454,0.159 0,0.045 -0.182,0.091 -0.397,0.102 -0.227,0.023 -0.681,0.182 -1.033,0.363 -0.341,0.193 -0.681,0.341 -0.761,0.341 -0.08,0 -0.159,0.136 -0.17,0.295 l -0.023,0.284 1.033,-0.023 c 0.624,-0.011 1.078,0.034 1.147,0.102 0.091,0.091 0.068,0.148 -0.091,0.204 -0.522,0.17 -0.534,0.204 -0.102,0.272 0.454,0.079 0.454,0.079 -0.136,0.102 -0.329,0 -0.602,0.057 -0.602,0.125 0,0.057 -0.079,0.079 -0.17,0.045 -0.113,-0.045 -0.17,0 -0.17,0.17 0,0.159 -0.057,0.216 -0.17,0.17 -0.102,-0.045 -0.17,0 -0.17,0.113 0,0.102 -0.079,0.182 -0.159,0.182 -0.25,0 -1.101,0.613 -1.76,1.249 -0.318,0.318 -0.602,0.568 -0.636,0.568 -0.023,0 -0.227,0.182 -0.443,0.397 -0.227,0.216 -0.375,0.397 -0.352,0.397 0.034,0 -0.034,0.091 -0.136,0.216 -0.113,0.113 -0.238,0.204 -0.272,0.193 -0.034,-0.011 -0.238,0.182 -0.465,0.42 -0.216,0.227 -0.443,0.42 -0.499,0.42 -0.056,0 -0.295,-0.204 -0.522,-0.454 z m -4.439,-4.734 c -0.045,-0.034 -0.079,0 -0.079,0.079 0,0.079 0.034,0.113 0.079,0.079 0.034,-0.045 0.034,-0.113 0,-0.159 z m 14.758,-2.043 c -0.034,-0.113 -0.057,-0.045 -0.057,0.136 0,0.193 0.023,0.272 0.057,0.204 0.023,-0.079 0.023,-0.238 0,-0.341 z M 5.096,18.889 c 0,-0.057 -0.045,-0.113 -0.114,-0.113 -0.057,0 -0.114,0.057 -0.114,0.113 0,0.068 0.057,0.113 0.114,0.113 0.068,0 0.114,-0.045 0.114,-0.113 z M 4.948,16.766 c -0.045,-0.034 -0.079,0 -0.079,0.079 0,0.079 0.034,0.113 0.079,0.079 0.034,-0.045 0.034,-0.113 0,-0.159 z M 5.175,16.709 C 5.141,16.618 5.107,16.652 5.107,16.777 5.096,16.902 5.13,16.97 5.164,16.925 5.198,16.891 5.209,16.789 5.175,16.709 Z m 0.182,-0.397 c -0.079,-0.023 -0.216,-0.023 -0.284,0 -0.079,0.034 -0.023,0.057 0.136,0.057 0.159,0 0.216,-0.023 0.148,-0.057 z M 5.323,15.938 c 0,-0.057 -0.057,-0.114 -0.125,-0.114 -0.057,0 -0.079,0.057 -0.045,0.114 0.034,0.068 0.091,0.114 0.125,0.114 0.023,0 0.045,-0.045 0.045,-0.114 z"
       inkscape:connector-curvature="0"
       style="fill:#ffffff" />
    <path
       id="path6"
       d="m 14.609,19.059 c -0.023,-0.034 -0.602,-0.068 -1.26,-0.079 l -1.215,-0.011 v -0.375 c 0,-0.318 -0.045,-0.375 -0.341,-0.443 -0.182,-0.045 -0.341,-0.125 -0.341,-0.182 0,-0.057 -0.363,-0.102 -0.795,-0.102 -0.772,0 -1.033,-0.079 -1.76,-0.556 C 8.693,17.186 8.67,17.073 8.704,16.346 8.738,15.767 8.795,15.495 8.931,15.392 9.113,15.256 9.113,15.233 8.931,15.131 8.681,14.995 8.67,14.7 8.897,14.62 c 0.091,-0.045 0.17,-0.114 0.17,-0.182 0,-0.057 0.136,-0.284 0.295,-0.488 C 9.691,13.519 9.896,12.417 9.737,11.975 9.612,11.68 9.726,10.284 9.873,10.193 9.93,10.159 9.975,9.989 9.975,9.818 c 0,-0.341 0.488,-1.351 0.749,-1.555 0.091,-0.068 0.159,-0.25 0.159,-0.409 0,-0.148 0.125,-0.397 0.284,-0.545 0.159,-0.148 0.284,-0.329 0.284,-0.409 0,-0.079 0.068,-0.193 0.148,-0.238 0.08,-0.045 0.284,-0.272 0.465,-0.477 0.352,-0.431 0.67,-0.636 1.192,-0.749 0.193,-0.045 0.352,-0.125 0.352,-0.182 0,-0.057 0.204,-0.102 0.454,-0.102 0.488,0 0.511,-0.023 0.341,-0.341 -0.114,-0.204 -0.034,-0.216 1.794,-0.216 1.816,0 1.907,0.011 1.919,0.216 0.011,0.125 -0.023,0.227 -0.091,0.227 -0.057,0 -0.102,-0.079 -0.102,-0.17 0,-0.091 -0.079,-0.17 -0.182,-0.17 -0.261,0 -0.148,0.386 0.125,0.431 0.125,0.023 0.545,0.375 0.931,0.772 0.409,0.42 0.806,0.727 0.942,0.727 0.125,0 0.227,0.057 0.227,0.125 0,0.057 -0.045,0.079 -0.113,0.045 -0.057,-0.034 -0.113,-0.023 -0.113,0.045 0,0.057 0.045,0.125 0.102,0.148 0.159,0.057 0.692,0.988 0.692,1.215 0,0.114 0.079,0.272 0.17,0.352 0.102,0.079 0.17,0.329 0.17,0.579 0,0.238 0.045,0.454 0.091,0.488 0.057,0.034 0.136,0.715 0.17,1.51 0.045,0.806 0.125,1.464 0.193,1.487 0.057,0.023 0.113,0.102 0.113,0.193 0,0.079 0.079,0.204 0.17,0.284 0.125,0.102 0.17,0.363 0.17,0.919 0,0.556 0.045,0.783 0.148,0.783 0.079,0 0.148,0.182 0.159,0.477 0.011,0.261 0.068,0.499 0.136,0.522 0.159,0.057 0.17,0.477 0.011,0.477 -0.057,0 -0.113,0.079 -0.113,0.17 0,0.091 -0.068,0.17 -0.148,0.17 -0.091,0 -0.227,0.125 -0.306,0.284 -0.113,0.216 -0.182,0.25 -0.25,0.148 -0.068,-0.125 -0.113,-0.125 -0.182,0 -0.068,0.091 -0.477,0.17 -1.113,0.216 -0.602,0.034 -1.135,0.136 -1.317,0.238 -0.318,0.182 -0.42,0.511 -0.204,0.647 0.068,0.034 0.113,0.113 0.113,0.159 0,0.113 -1.26,0.375 -2.1,0.431 -0.375,0.023 -0.806,0.068 -0.965,0.113 -0.284,0.068 -0.284,0.068 0.057,0.148 0.261,0.068 0.193,0.091 -0.352,0.102 -0.375,0 -0.715,-0.011 -0.749,-0.045 z m 0.931,-0.454 c 0,-0.091 0.034,-0.159 0.091,-0.159 0.352,0.057 0.704,-0.034 0.704,-0.182 0,-0.091 -0.045,-0.17 -0.113,-0.17 -0.057,0 -0.136,-0.136 -0.182,-0.306 -0.102,-0.477 -0.42,-1.056 -0.579,-1.056 -0.238,0 -0.602,0.431 -0.602,0.715 0,0.136 -0.079,0.352 -0.17,0.465 -0.227,0.306 -0.216,0.715 0.034,0.783 0.443,0.125 0.817,0.079 0.817,-0.091 z m 2.497,-1.816 c 0.079,-0.102 0.329,-0.17 0.579,-0.17 0.25,0 0.443,-0.045 0.443,-0.102 0,-0.057 0.113,-0.148 0.25,-0.193 0.534,-0.17 0.885,-0.988 0.488,-1.135 -0.091,-0.045 -0.17,-0.136 -0.17,-0.227 0,-0.204 -0.341,-0.193 -0.613,0.011 -0.125,0.091 -0.341,0.17 -0.477,0.17 -0.136,0 -0.397,0.079 -0.579,0.159 -0.17,0.091 -0.409,0.193 -0.511,0.227 -0.261,0.079 -0.284,0.692 -0.034,0.795 0.091,0.034 0.17,0.193 0.17,0.352 0,0.318 0.238,0.375 0.454,0.113 z m -4.631,-0.204 c 0.102,-0.148 0.204,-0.454 0.216,-0.693 0.045,-0.431 0.034,-0.431 -0.409,-0.465 -0.238,-0.011 -0.465,-0.079 -0.488,-0.159 -0.023,-0.068 -0.159,-0.125 -0.306,-0.125 -0.136,0 -0.284,-0.079 -0.329,-0.17 -0.034,-0.091 -0.159,-0.17 -0.272,-0.17 -0.125,0 -0.284,0.079 -0.363,0.17 -0.079,0.091 -0.193,0.17 -0.25,0.17 -0.114,0 -0.658,0.556 -0.658,0.67 0,0.125 0.454,0.465 0.613,0.465 0.079,0 0.216,0.079 0.295,0.17 0.079,0.091 0.272,0.17 0.443,0.17 0.159,0 0.375,0.057 0.465,0.113 0.306,0.204 0.84,0.125 1.044,-0.148 z m 0.522,-0.591 c -0.034,-0.397 -0.17,-0.352 -0.182,0.057 0,0.193 0.034,0.318 0.102,0.284 0.057,-0.034 0.091,-0.193 0.079,-0.341 z M 9.353,14.916 c 0.034,-0.057 0.011,-0.114 -0.045,-0.114 -0.068,0 -0.125,0.057 -0.125,0.114 0,0.068 0.023,0.114 0.045,0.114 0.034,0 0.091,-0.045 0.125,-0.114 z"
       inkscape:connector-curvature="0"
       style="fill:#ffffff" />
    <path
       id="path8"
       d="m 30.332,18.356 c 0.045,-0.034 0.113,-0.034 0.159,0 0.034,0.045 0,0.079 -0.079,0.079 -0.079,0 -0.113,-0.034 -0.079,-0.079 z"
       inkscape:connector-curvature="0"
       style="fill:#ffffff" />
    <path
       id="path10"
       d="m 5.073,15.177 c 0.068,-0.023 0.204,-0.023 0.284,0 0.068,0.034 0.011,0.057 -0.148,0.057 -0.159,0 -0.216,-0.023 -0.136,-0.057 z"
       inkscape:connector-curvature="0"
       style="fill:#ffffff" />
  </g>
</svg>
