<?xml version="1.0" encoding="UTF-8" standalone="no"?>
<!-- Generated by IcoMoon.io -->

<svg
   xmlns:dc="http://purl.org/dc/elements/1.1/"
   xmlns:cc="http://creativecommons.org/ns#"
   xmlns:rdf="http://www.w3.org/1999/02/22-rdf-syntax-ns#"
   xmlns:svg="http://www.w3.org/2000/svg"
   xmlns="http://www.w3.org/2000/svg"
   xmlns:sodipodi="http://sodipodi.sourceforge.net/DTD/sodipodi-0.dtd"
   xmlns:inkscape="http://www.inkscape.org/namespaces/inkscape"
   version="1.1"
   width="215"
   height="215"
   viewBox="0 0 215 215"
   id="svg16"
   sodipodi:docname="magical_phenomenom.svg"
   inkscape:version="0.92.3 (2405546, 2018-03-11)">
  <metadata
     id="metadata22">
    <rdf:RDF>
      <cc:Work
         rdf:about="">
        <dc:format>image/svg+xml</dc:format>
        <dc:type
           rdf:resource="http://purl.org/dc/dcmitype/StillImage" />
        <dc:title>twists-magical-phenomenom</dc:title>
      </cc:Work>
    </rdf:RDF>
  </metadata>
  <defs
     id="defs20" />
  <sodipodi:namedview
     pagecolor="#ffffff"
     bordercolor="#666666"
     borderopacity="1"
     objecttolerance="10"
     gridtolerance="10"
     guidetolerance="10"
     inkscape:pageopacity="0"
     inkscape:pageshadow="2"
     inkscape:window-width="1920"
     inkscape:window-height="1017"
     id="namedview18"
     showgrid="false"
     fit-margin-top="0"
     fit-margin-left="0"
     fit-margin-right="0"
     fit-margin-bottom="0"
     inkscape:zoom="1.1711456"
     inkscape:cx="-184.31669"
     inkscape:cy="19.73576"
     inkscape:window-x="-8"
     inkscape:window-y="-8"
     inkscape:window-maximized="1"
     inkscape:current-layer="svg16" />
  <title
     id="title2">twists-magical-phenomenom</title>
  <g
     id="g843"
     transform="matrix(6.7189876,0,0,6.7189876,-0.00935879,0.00914547)">
    <path
       id="path4"
       d="m 16.111,31.573 c -0.114,-0.114 -0.194,-0.343 -0.194,-0.514 0,-0.16 -0.046,-0.332 -0.114,-0.366 -0.057,-0.034 -0.114,-0.183 -0.114,-0.332 0,-0.137 -0.08,-0.354 -0.171,-0.48 -0.091,-0.114 -0.171,-0.332 -0.171,-0.469 0,-0.137 -0.091,-0.297 -0.194,-0.366 -0.194,-0.103 -0.194,-0.114 -0.011,-0.183 0.103,-0.046 0.217,-0.194 0.252,-0.354 0.046,-0.149 0.126,-0.274 0.183,-0.274 0.069,0 0.114,-0.057 0.114,-0.126 0,-0.08 0.126,-0.252 0.274,-0.389 0.16,-0.149 0.251,-0.286 0.229,-0.32 -0.034,-0.034 0.046,-0.114 0.172,-0.183 0.217,-0.126 0.229,-0.137 0.046,-0.354 -0.114,-0.126 -0.263,-0.229 -0.343,-0.229 -0.08,0 -0.149,-0.046 -0.149,-0.103 0,-0.046 -0.309,-0.126 -0.686,-0.172 -0.377,-0.046 -0.709,-0.126 -0.743,-0.183 -0.046,-0.069 -0.194,-0.114 -0.354,-0.114 -0.171,0 -0.274,-0.069 -0.274,-0.172 0,-0.091 -0.08,-0.172 -0.171,-0.172 -0.091,0 -0.171,-0.069 -0.171,-0.16 0,-0.091 -0.08,-0.194 -0.183,-0.229 -0.149,-0.057 -0.183,-0.194 -0.137,-0.72 0.034,-0.354 0.114,-0.674 0.183,-0.697 0.08,-0.023 0.137,-0.114 0.137,-0.194 0,-0.194 0.354,-0.4 0.663,-0.4 0.126,0 0.252,-0.08 0.297,-0.172 0.034,-0.091 0.171,-0.172 0.297,-0.172 0.126,0 0.229,-0.046 0.229,-0.114 0,-0.057 0.057,-0.114 0.126,-0.114 0.08,0 0.206,-0.091 0.297,-0.194 0.091,-0.114 0.137,-0.149 0.103,-0.069 -0.046,0.069 -0.023,0.16 0.046,0.206 0.069,0.046 0.114,-0.057 0.114,-0.217 0,-0.183 -0.069,-0.297 -0.171,-0.297 -0.091,0 -0.171,-0.091 -0.171,-0.206 0,-0.194 -0.412,-0.48 -0.686,-0.48 -0.057,0 -0.274,-0.149 -0.48,-0.343 -0.206,-0.183 -0.412,-0.343 -0.469,-0.343 -0.137,0 -0.423,-0.297 -0.423,-0.446 0,-0.057 -0.08,-0.194 -0.183,-0.297 -0.149,-0.149 -0.171,-0.332 -0.103,-1.029 0.069,-0.732 0.103,-0.857 0.297,-0.857 0.149,0 0.194,-0.057 0.137,-0.194 -0.057,-0.137 -0.034,-0.16 0.08,-0.091 0.08,0.046 0.434,0.08 0.789,0.057 1.749,-0.103 3.464,-0.023 3.784,0.172 0.069,0.046 0.103,0.149 0.069,0.24 -0.034,0.08 0.011,0.229 0.103,0.32 0.092,0.091 0.172,0.274 0.172,0.4 0,0.137 0.046,0.24 0.103,0.24 0.046,0 0.126,0.389 0.172,0.869 0.046,0.48 0.137,0.96 0.217,1.086 0.103,0.16 0.091,0.297 -0.011,0.594 -0.08,0.206 -0.137,0.446 -0.137,0.526 0,0.08 -0.149,0.343 -0.332,0.572 -0.172,0.229 -0.297,0.469 -0.274,0.537 0.023,0.08 -0.091,0.172 -0.274,0.206 -0.24,0.069 -0.274,0.103 -0.137,0.194 0.114,0.08 0.069,0.103 -0.183,0.08 -0.503,-0.046 -0.48,0.24 0.057,0.789 0.252,0.263 0.457,0.537 0.457,0.606 0,0.057 0.08,0.114 0.172,0.114 0.103,0 0.172,0.103 0.172,0.274 0,0.16 0.046,0.309 0.103,0.343 0.126,0.08 -0.08,0.846 -0.297,1.109 -0.08,0.091 -0.149,0.263 -0.149,0.366 0,0.103 -0.126,0.217 -0.286,0.263 -0.16,0.034 -0.286,0.114 -0.286,0.172 0,0.046 -0.137,0.252 -0.309,0.434 -0.183,0.183 -0.389,0.423 -0.457,0.514 -0.172,0.206 -0.206,1.669 -0.034,1.669 0.149,0 0.149,0.64 0,0.926 -0.149,0.274 -0.366,0.274 -0.606,0.011 z m 0.491,-7.842 c 0,-0.023 -0.08,-0.08 -0.183,-0.114 -0.091,-0.034 -0.137,-0.023 -0.103,0.046 0.069,0.114 0.286,0.16 0.286,0.069 z m -0.583,-1.692 c 0,-0.32 -0.023,-0.343 -0.103,-0.149 -0.137,0.32 -0.137,0.514 0,0.514 0.069,0 0.114,-0.172 0.103,-0.366 z m 0.778,0.057 c -0.046,-0.034 -0.114,-0.034 -0.16,0 -0.034,0.046 0,0.08 0.08,0.08 0.08,0 0.114,-0.034 0.08,-0.08 z m -0.846,-0.571 c -0.08,-0.023 -0.24,-0.023 -0.343,0 -0.114,0.034 -0.046,0.057 0.137,0.057 0.194,0 0.274,-0.023 0.206,-0.057 z M 14.43,20.473 c 0,-0.057 -0.08,-0.126 -0.16,-0.16 -0.114,-0.046 -0.149,-0.011 -0.103,0.103 0.069,0.172 0.263,0.217 0.263,0.057 z m -0.914,-1.052 c 0,-0.137 -0.057,-0.183 -0.171,-0.149 -0.149,0.057 -0.149,0.103 -0.034,0.252 0.114,0.137 0.114,0.16 0.011,0.091 -0.103,-0.046 -0.149,-0.011 -0.149,0.114 0,0.149 0.034,0.16 0.171,0.046 0.091,-0.08 0.171,-0.24 0.171,-0.354 z"
       inkscape:connector-curvature="0"
       style="fill:#ffffff" />
    <path
       id="path6"
       d="m 9.503,31.482 c -0.011,-0.057 -0.011,-0.137 0,-0.183 0,-0.057 -0.034,-0.091 -0.103,-0.091 -0.057,0 -0.114,-0.08 -0.114,-0.172 0,-0.092 -0.08,-0.172 -0.171,-0.172 -0.126,0 -0.171,-0.126 -0.171,-0.457 0,-0.252 -0.046,-0.457 -0.114,-0.457 -0.057,0 -0.114,-0.252 -0.114,-0.572 0,-0.309 0.057,-0.572 0.114,-0.572 0.069,0 0.114,-0.149 0.114,-0.343 0,-0.217 0.057,-0.332 0.149,-0.309 0.091,0.011 0.149,-0.149 0.171,-0.457 C 9.298,27.274 9.253,27.194 8.91,26.931 8.693,26.771 8.441,26.634 8.338,26.634 8.224,26.634 8.144,26.588 8.144,26.531 8.144,26.474 8.018,26.394 7.87,26.359 7.527,26.279 6.738,25.524 6.83,25.376 6.876,25.307 6.819,25.182 6.727,25.079 6.475,24.839 6.475,23.89 6.716,23.89 c 0.091,0 0.171,-0.046 0.171,-0.114 0,-0.057 0.08,-0.114 0.171,-0.114 0.091,0 0.412,-0.229 0.697,-0.526 0.469,-0.457 0.526,-0.56 0.457,-0.88 C 8.143,21.89 7.766,21.502 7.48,21.49 7.32,21.49 6.211,20.701 5.845,20.335 5.719,20.209 5.628,19.969 5.628,19.775 c 0,-0.183 -0.046,-0.343 -0.114,-0.343 -0.057,0 -0.114,-0.149 -0.114,-0.343 0,-0.183 0.057,-0.343 0.114,-0.343 0.069,0 0.114,-0.126 0.114,-0.286 0,-0.183 0.069,-0.286 0.171,-0.286 0.091,0 0.171,-0.08 0.171,-0.172 0,-0.137 0.206,-0.172 1.155,-0.172 1.097,0 1.177,-0.023 1.429,-0.286 0.263,-0.286 0.732,-0.389 0.732,-0.172 0,0.057 0.126,0.137 0.286,0.183 0.16,0.046 0.274,0.103 0.24,0.126 -0.023,0.034 0.126,0.286 0.343,0.572 0.217,0.274 0.389,0.583 0.389,0.674 0,0.091 0.057,0.16 0.114,0.16 0.069,0 0.114,0.172 0.114,0.377 0,0.194 0.08,0.469 0.171,0.583 0.24,0.32 0.24,1.852 0,2.081 -0.091,0.103 -0.171,0.309 -0.171,0.48 -0.011,0.32 -0.229,0.709 -0.412,0.709 -0.16,0.011 -0.96,1.063 -0.96,1.257 0,0.286 0.606,0.869 0.857,0.823 0.171,-0.023 0.183,-0.011 0.08,0.069 -0.126,0.08 -0.091,0.16 0.149,0.354 0.297,0.229 0.309,0.297 0.309,1.12 -0.011,0.503 -0.069,0.903 -0.137,0.926 -0.057,0.023 -0.114,0.114 -0.114,0.206 0,0.092 -0.08,0.16 -0.171,0.16 -0.091,0 -0.171,0.057 -0.171,0.126 0,0.057 -0.046,0.091 -0.103,0.057 -0.057,-0.034 -0.183,0.057 -0.286,0.217 -0.137,0.217 -0.183,0.56 -0.171,1.452 0,0.766 0.034,1.097 0.103,0.949 0.069,-0.148 0.103,-0.172 0.103,-0.057 0,0.194 -0.32,0.674 -0.343,0.503 z M 6.543,19.73 c 0,-0.194 -0.08,-0.286 -0.286,-0.32 -0.332,-0.069 -0.343,-0.057 -0.103,0.309 0.24,0.366 0.389,0.366 0.389,0.011 z"
       inkscape:connector-curvature="0"
       style="fill:#ffffff" />
    <path
       id="path8"
       d="m 22.981,30.156 c -0.023,-0.286 -0.091,-0.48 -0.16,-0.469 -0.08,0.011 -0.114,-0.229 -0.103,-0.743 0.034,-0.835 0.149,-1.395 0.286,-1.395 0.057,0 0.126,-0.206 0.172,-0.457 0.046,-0.286 0.137,-0.457 0.24,-0.457 0.091,0 0.16,-0.114 0.16,-0.286 0,-0.206 -0.137,-0.389 -0.48,-0.629 -0.252,-0.183 -0.537,-0.343 -0.629,-0.343 -0.08,0 -0.149,-0.046 -0.149,-0.114 0,-0.057 -0.114,-0.114 -0.252,-0.114 -0.172,0 -0.309,-0.103 -0.4,-0.297 -0.114,-0.252 -0.114,-0.286 0.034,-0.229 0.103,0.034 0.137,0.011 0.103,-0.046 -0.034,-0.069 -0.126,-0.114 -0.183,-0.114 -0.343,0 -0.743,-0.915 -0.549,-1.269 0.057,-0.114 0.183,-0.217 0.274,-0.217 0.091,0 0.172,-0.046 0.172,-0.103 0,-0.057 0.103,-0.149 0.229,-0.183 0.126,-0.034 0.263,-0.194 0.297,-0.354 0.034,-0.149 0.114,-0.274 0.172,-0.274 0.058,0 0.103,-0.229 0.103,-0.514 0,-0.594 -0.137,-0.777 -0.903,-1.257 -0.274,-0.16 -0.526,-0.4 -0.549,-0.526 -0.034,-0.114 -0.103,-0.194 -0.149,-0.16 -0.126,0.08 -0.217,-0.354 -0.149,-0.629 0.034,-0.126 0.103,-0.229 0.16,-0.229 0.057,0 0.103,-0.137 0.103,-0.32 0,-0.172 0.126,-0.446 0.297,-0.629 l 0.297,-0.32 1.84,0.034 c 1.372,0.023 1.84,0.069 1.886,0.183 0.034,0.114 0.08,0.114 0.229,0 0.137,-0.114 0.183,-0.114 0.217,0 0.034,0.069 0.194,0.137 0.354,0.137 0.423,0.011 0.652,0.217 0.674,0.629 0.011,0.194 0,0.274 -0.034,0.206 -0.183,-0.423 -0.274,-0.011 -0.274,1.257 v 1.406 l -0.514,0.537 c -0.274,0.297 -0.537,0.537 -0.572,0.537 -0.126,0 -0.743,0.663 -0.743,0.789 0,0.069 0.091,0.126 0.206,0.126 0.16,0 0.172,0.023 0.023,0.114 -0.149,0.091 -0.137,0.114 0.034,0.114 0.114,0 0.229,0.08 0.263,0.172 0.046,0.091 0.16,0.172 0.286,0.172 0.24,0 0.446,0.32 0.446,0.709 0,0.206 0.023,0.229 0.114,0.091 0.103,-0.149 0.114,-0.149 0.126,0 0.034,0.48 -0.046,0.983 -0.183,1.052 -0.08,0.046 -0.206,0.252 -0.297,0.457 -0.08,0.206 -0.172,0.4 -0.206,0.434 -0.034,0.034 -0.126,0.16 -0.194,0.286 -0.069,0.126 -0.274,0.274 -0.457,0.343 -0.183,0.057 -0.457,0.24 -0.606,0.4 -0.16,0.16 -0.32,0.274 -0.354,0.263 -0.034,-0.011 -0.057,0.32 -0.046,0.743 0.023,0.606 0.011,0.663 -0.057,0.309 l -0.08,-0.457 -0.137,0.754 c -0.08,0.412 -0.137,0.892 -0.137,1.052 0,0.503 -0.217,0.354 -0.252,-0.172 z m 2.024,-3.178 c 0.034,-0.057 0.046,-0.114 0.011,-0.114 -0.035,0 -0.091,0.057 -0.126,0.114 -0.034,0.069 -0.046,0.114 -0.011,0.114 0.035,0 0.091,-0.046 0.126,-0.114 z"
       inkscape:connector-curvature="0"
       style="fill:#ffffff" />
    <path
       id="path10"
       d="m 23.599,29.95 c 0,-0.217 0.023,-0.309 0.057,-0.194 0.023,0.103 0.023,0.286 0,0.4 -0.034,0.103 -0.057,0.011 -0.057,-0.206 z"
       inkscape:connector-curvature="0"
       style="fill:#ffffff" />
    <path
       id="path12"
       d="M 0.175,16.826 C 0.141,16.746 0.152,16.54 0.186,16.369 0.232,16.197 0.312,15.775 0.38,15.432 c 0.057,-0.343 0.183,-0.8 0.286,-1.006 0.24,-0.503 0.091,-1.292 -0.274,-1.452 -0.252,-0.114 -0.32,-0.56 -0.08,-0.492 0.069,0.023 0.103,0.069 0.091,0.114 -0.023,0.057 0.274,0.091 0.652,0.091 0.549,0 0.686,-0.034 0.686,-0.183 0,-0.114 0.069,-0.16 0.16,-0.126 0.114,0.046 0.172,-0.069 0.217,-0.412 0.091,-0.674 -0.069,-0.812 -1.12,-0.869 -0.171,-0.011 -0.857,-0.663 -0.857,-0.8 0,-0.069 -0.046,-0.126 -0.103,-0.126 -0.057,0 -0.046,-0.126 0.023,-0.286 0.091,-0.183 0.229,-0.286 0.4,-0.286 0.137,0 0.252,-0.046 0.252,-0.114 0,-0.057 0.149,-0.114 0.332,-0.114 0.183,0 0.412,-0.08 0.514,-0.171 C 1.65,9.109 1.776,9.029 1.845,9.029 2.051,9.029 1.994,8.046 1.788,7.874 1.639,7.748 1.617,7.588 1.662,7.097 1.696,6.765 1.788,6.423 1.845,6.365 1.914,6.296 1.971,6.102 1.971,5.942 c 0,-0.16 0.08,-0.4 0.171,-0.526 C 2.233,5.302 2.313,5.107 2.313,5.004 2.313,4.89 2.37,4.798 2.427,4.798 2.496,4.798 2.541,4.741 2.541,4.672 2.541,4.546 3.227,3.62 3.376,3.563 3.422,3.54 3.456,3.449 3.456,3.369 3.456,3.152 4.885,1.711 5.091,1.711 5.182,1.711 5.285,1.642 5.32,1.551 5.377,1.402 5.709,1.299 6.6,1.174 6.852,1.14 7.16,1.037 7.286,0.957 7.412,0.866 7.698,0.797 7.938,0.797 c 0.332,0 0.434,-0.046 0.434,-0.194 0,-0.137 0.034,-0.16 0.091,-0.069 0.057,0.091 0.149,0.103 0.252,0.034 0.091,-0.069 0.72,-0.114 1.406,-0.114 0.732,0 1.223,-0.046 1.223,-0.114 0,-0.149 0.652,-0.149 0.743,0 0.034,0.069 0.229,0.114 0.423,0.114 0.194,0 0.446,0.08 0.56,0.183 0.114,0.103 0.434,0.183 0.8,0.183 0.343,0.011 0.503,0.034 0.366,0.069 -0.332,0.046 -0.343,0.252 -0.034,0.252 0.286,0 0.766,0.297 1.086,0.652 0.126,0.149 0.297,0.263 0.377,0.263 0.171,0 0.594,0.412 0.594,0.572 0,0.069 0.126,0.24 0.286,0.389 0.16,0.149 0.286,0.32 0.286,0.4 0,0.069 0.069,0.126 0.149,0.126 0.08,0 0.16,0.126 0.172,0.297 0.011,0.16 0.08,0.4 0.149,0.526 0.069,0.137 0.16,0.686 0.194,1.223 0.057,0.972 0.057,0.983 0.549,1.475 0.457,0.446 0.537,0.48 1.132,0.48 0.572,0 0.674,-0.034 0.983,-0.366 0.183,-0.206 0.332,-0.412 0.332,-0.457 0,-0.057 0.069,-0.091 0.16,-0.091 0.091,0 0.183,-0.08 0.229,-0.171 0.046,-0.137 0.274,-0.171 1.006,-0.171 0.96,0.011 1.235,0.103 1.383,0.492 0.034,0.103 0.126,0.194 0.194,0.194 0.057,0 0.114,0.08 0.114,0.171 0,0.309 0.434,0.629 0.857,0.629 0.217,0 0.4,-0.046 0.4,-0.114 0,-0.057 0.091,-0.114 0.206,-0.114 0.274,-0.011 0.709,-0.4 0.709,-0.652 0.011,-0.434 0.274,-0.606 0.926,-0.606 0.446,0 0.572,0.034 0.446,0.114 -0.114,0.069 -0.126,0.114 -0.023,0.114 0.069,0 0.137,0.091 0.126,0.206 0,0.137 -0.023,0.149 -0.069,0.034 -0.126,-0.309 -0.492,0.686 -0.492,1.338 0,0.594 -0.034,0.652 -0.48,1.075 -0.263,0.24 -0.537,0.434 -0.617,0.434 -0.08,0 -0.194,0.069 -0.24,0.16 -0.046,0.091 -0.194,0.171 -0.32,0.194 -0.137,0.034 -0.24,0.16 -0.263,0.309 -0.034,0.24 0,0.252 0.594,0.252 0.354,0 0.64,-0.046 0.64,-0.103 0,-0.057 0.114,-0.126 0.263,-0.171 0.137,-0.034 0.457,-0.229 0.709,-0.446 0.32,-0.263 0.617,-0.412 0.972,-0.457 0.274,-0.034 0.526,-0.126 0.549,-0.183 0.057,-0.16 0.446,-0.16 0.537,-0.011 0.034,0.069 0.297,0.114 0.572,0.114 0.286,0 0.572,0.069 0.674,0.171 0.091,0.091 0.206,0.171 0.263,0.171 0.057,0 0.183,0.091 0.274,0.206 0.103,0.103 0.366,0.354 0.594,0.56 0.354,0.309 0.423,0.434 0.423,0.823 0,0.572 -0.194,0.686 -0.766,0.48 -0.492,-0.183 -1.155,-0.194 -1.326,-0.023 -0.069,0.069 -0.217,0.126 -0.343,0.126 -0.286,0 -0.88,0.606 -0.88,0.892 0,0.137 0.229,0.412 0.56,0.686 0.48,0.366 0.686,0.457 1.269,0.514 0.446,0.057 0.777,0.16 0.926,0.297 0.137,0.126 0.309,0.194 0.377,0.171 0.103,-0.034 0.149,0.137 0.172,0.606 0.011,0.354 0.069,0.709 0.114,0.777 0.16,0.194 0.103,0.503 -0.137,0.709 -0.126,0.114 -0.194,0.137 -0.149,0.069 0.057,-0.114 -0.149,-0.149 -0.926,-0.16 -1.783,-0.023 -2.835,0.034 -2.869,0.137 -0.057,0.137 -1.932,0.137 -2.023,-0.011 -0.103,-0.172 -2.641,-0.149 -2.915,0.023 -0.172,0.114 -0.297,0.114 -0.606,0 -0.469,-0.172 -1.589,-0.183 -1.761,-0.011 -0.069,0.069 -0.766,0.149 -1.566,0.172 -0.8,0.034 -1.578,0.103 -1.726,0.16 -0.16,0.057 -0.286,0.069 -0.286,0.023 0,-0.046 -0.297,-0.069 -0.663,-0.046 -2.801,0.137 -3.338,0.137 -3.338,0.034 0,-0.16 -1.463,-0.137 -1.726,0.023 -0.149,0.091 -0.274,0.091 -0.469,0 -0.149,-0.08 -0.48,-0.172 -0.743,-0.206 -0.354,-0.057 -0.549,-0.16 -0.72,-0.4 -0.286,-0.4 -0.286,-0.434 0,-0.686 0.252,-0.217 0.412,-0.697 0.217,-0.652 -0.229,0.046 -0.812,-0.8 -0.823,-1.189 -0.023,-0.354 0.011,-0.389 0.332,-0.423 0.217,-0.023 0.526,-0.194 0.8,-0.457 L 10.259,12.404 9.356,12.37 C 8.67,12.347 8.419,12.381 8.259,12.519 8.156,12.61 8.03,12.69 7.996,12.69 c -0.137,0 -0.537,0.389 -0.537,0.526 0,0.08 -0.069,0.16 -0.137,0.183 -0.149,0.057 0.08,0.492 0.503,0.937 0.149,0.16 0.206,0.4 0.206,0.857 0,0.343 -0.034,0.583 -0.069,0.549 C 7.916,15.696 7.779,15.856 7.653,16.096 7.379,16.61 7.07,16.919 6.83,16.919 6.556,16.919 5.938,16.256 6.018,16.05 6.064,15.936 6.041,15.901 5.949,15.959 5.857,16.017 5.846,15.982 5.892,15.856 5.938,15.73 5.903,15.662 5.801,15.662 5.71,15.662 5.63,15.616 5.63,15.548 c 0,-0.057 -0.046,-0.114 -0.114,-0.114 -0.149,0 -0.457,0.617 -0.457,0.903 0,0.354 -0.332,0.469 -0.949,0.332 C 3.596,16.566 3.573,16.532 3.504,16.109 3.435,15.732 3.39,15.663 3.161,15.663 c -0.229,0 -0.274,0.057 -0.286,0.377 -0.011,0.194 -0.011,0.412 0,0.457 0.011,0.057 -0.034,0.069 -0.103,0.023 -0.057,-0.034 -0.114,0.011 -0.114,0.114 0,0.091 -0.137,0.229 -0.297,0.286 -0.423,0.172 -2.115,0.091 -2.183,-0.091 z M 2.37,16.243 C 2.45,16.106 2.233,15.969 2.084,16.06 c -0.126,0.08 -0.046,0.286 0.114,0.286 0.057,0 0.126,-0.046 0.171,-0.103 z M 6.645,15.877 C 6.382,15.717 6.291,15.9 6.508,16.14 6.691,16.346 6.714,16.357 6.748,16.174 6.771,16.06 6.725,15.934 6.645,15.877 Z M 7.8,15.317 c 0,-0.057 -0.057,-0.114 -0.126,-0.114 -0.057,0 -0.08,0.057 -0.046,0.114 0.034,0.069 0.091,0.114 0.126,0.114 0.023,0 0.046,-0.046 0.046,-0.114 z m 4.801,-4.458 c 0,-0.126 -0.046,-0.229 -0.114,-0.229 -0.057,0 -0.114,0.103 -0.114,0.229 0,0.126 0.057,0.229 0.114,0.229 0.069,0 0.114,-0.103 0.114,-0.229 z m 2.401,-0.172 c 0,-0.091 -0.046,-0.171 -0.114,-0.171 -0.057,0 -0.114,0.08 -0.114,0.171 0,0.091 0.057,0.171 0.114,0.171 0.069,0 0.114,-0.08 0.114,-0.171 z M 6.177,10.047 C 6.2,9.99 6.417,9.944 6.657,9.944 6.931,9.944 7.114,9.887 7.16,9.773 7.194,9.682 7.297,9.602 7.4,9.602 7.743,9.602 8.029,9.168 8.029,8.63 8.029,8.344 7.983,8.116 7.915,8.116 7.858,8.116 7.801,8.013 7.801,7.887 7.801,7.75 7.618,7.475 7.401,7.258 7.184,7.041 6.909,6.858 6.772,6.858 6.646,6.858 6.543,6.812 6.543,6.744 6.543,6.584 6.131,6.607 5.857,6.767 5.674,6.881 5.583,6.881 5.4,6.778 5.206,6.652 5.114,6.698 4.6,7.201 4.28,7.521 3.971,7.773 3.914,7.773 3.845,7.773 3.8,7.842 3.8,7.933 3.8,8.036 3.663,8.116 3.434,8.139 2.851,8.196 2.382,9.214 2.885,9.339 c 0.126,0.034 0.229,0.103 0.229,0.16 0,0.057 0.08,0.103 0.171,0.103 0.103,0 0.206,0.08 0.24,0.171 0.046,0.103 0.217,0.171 0.446,0.171 0.206,0 0.549,0.08 0.754,0.171 0.412,0.183 1.383,0.137 1.452,-0.069 z M 3.456,4.914 C 3.456,4.857 3.433,4.8 3.41,4.8 3.376,4.8 3.319,4.857 3.284,4.914 3.25,4.983 3.273,5.028 3.33,5.028 c 0.069,0 0.126,-0.046 0.126,-0.114 z"
       inkscape:connector-curvature="0"
       style="fill:#ffffff" />
    <path
       id="path14"
       d="M 19.232,5.372 C 19.141,5.246 19.06,5.075 19.06,4.995 19.06,4.698 18.831,4.766 18.774,5.086 18.705,5.498 18.5,5.532 18.454,5.143 18.431,4.983 18.363,4.811 18.294,4.743 18.203,4.663 18.191,4.697 18.248,4.857 18.317,5.04 18.305,5.063 18.191,4.948 18.077,4.833 18.077,4.765 18.18,4.662 18.397,4.445 18.294,3.862 17.974,3.542 17.848,3.416 17.517,2.707 17.517,2.559 c 0,-0.091 -0.057,-0.16 -0.114,-0.16 -0.069,0 -0.16,-0.091 -0.194,-0.194 -0.046,-0.114 -0.172,-0.297 -0.297,-0.4 -0.263,-0.24 -0.114,-0.606 0.32,-0.709 0.16,-0.046 0.286,-0.126 0.286,-0.183 0,-0.069 0.389,-0.114 0.915,-0.114 0.572,0 0.915,0.046 0.915,0.126 0,0.16 0.286,0.446 0.446,0.446 0.069,0 0.126,0.08 0.126,0.171 0,0.091 0.057,0.171 0.114,0.171 0.069,0 0.172,0.126 0.229,0.286 0.091,0.252 0.183,0.286 0.617,0.286 0.286,0 0.549,-0.046 0.583,-0.114 0.034,-0.057 0.172,-0.114 0.286,-0.114 0.114,0 0.263,-0.069 0.309,-0.137 0.252,-0.389 1.177,-0.789 1.692,-0.732 0.72,0.08 1.406,0.252 1.566,0.389 0.08,0.057 0.274,0.137 0.434,0.16 0.24,0.023 0.297,0.103 0.32,0.469 0.023,0.229 0.08,0.423 0.149,0.423 0.057,0 0.103,0.08 0.103,0.171 0,0.206 -0.434,0.229 -0.835,0.046 -0.206,-0.091 -0.446,-0.091 -0.903,0 -0.537,0.114 -0.64,0.183 -0.835,0.56 -0.126,0.229 -0.297,0.492 -0.366,0.572 -0.08,0.08 -0.149,0.229 -0.149,0.32 0,0.171 -0.206,0.194 -1.543,0.183 -0.869,-0.023 -1.132,0.091 -1.738,0.732 -0.423,0.457 -0.503,0.469 -0.72,0.16 z"
       inkscape:connector-curvature="0"
       style="fill:#ffffff" />
  </g>
</svg>
