<?xml version="1.0" encoding="UTF-8" standalone="no"?>
<!-- Generator: Adobe Illustrator 24.1.0, SVG Export Plug-In  -->

<svg
   xmlns:dc="http://purl.org/dc/elements/1.1/"
   xmlns:cc="http://creativecommons.org/ns#"
   xmlns:rdf="http://www.w3.org/1999/02/22-rdf-syntax-ns#"
   xmlns:svg="http://www.w3.org/2000/svg"
   xmlns="http://www.w3.org/2000/svg"
   xmlns:sodipodi="http://sodipodi.sourceforge.net/DTD/sodipodi-0.dtd"
   xmlns:inkscape="http://www.inkscape.org/namespaces/inkscape"
   version="1.1"
   x="0px"
   y="0px"
   width="224.46001"
   height="224.46001"
   viewBox="0 0 224.46 224.46"
   xml:space="preserve"
   id="svg10"
   sodipodi:docname="beasts_of_chaos.svg"
   inkscape:version="0.92.3 (2405546, 2018-03-11)"><metadata
   id="metadata14"><rdf:RDF><cc:Work
       rdf:about=""><dc:format>image/svg+xml</dc:format><dc:type
         rdf:resource="http://purl.org/dc/dcmitype/StillImage" /><dc:title /></cc:Work></rdf:RDF></metadata><sodipodi:namedview
   pagecolor="#ffffff"
   bordercolor="#666666"
   borderopacity="1"
   objecttolerance="10"
   gridtolerance="10"
   guidetolerance="10"
   inkscape:pageopacity="0"
   inkscape:pageshadow="2"
   inkscape:window-width="1920"
   inkscape:window-height="1017"
   id="namedview12"
   showgrid="false"
   inkscape:zoom="1.0896666"
   inkscape:cx="-337.90768"
   inkscape:cy="108.29"
   inkscape:window-x="-8"
   inkscape:window-y="-8"
   inkscape:window-maximized="1"
   inkscape:current-layer="svg10" />
<defs
   id="defs2">
</defs>
<g
   id="g8"
   transform="translate(0.03859506,3.9100034)"
   style="fill:#000000;fill-opacity:1">
	<g
   id="g6"
   style="fill:#000000;fill-opacity:1">
		<path
   d="m 212.73,0 c 0.95,2.05 1.89,4.09 2.81,6.14 0.09,0.19 0.09,0.43 0.08,0.64 -0.19,4.12 -0.33,8.23 -0.58,12.35 -0.23,3.67 -1.11,7.22 -2.21,10.73 -1.74,5.56 -5.14,10.15 -8.35,14.88 -0.71,1.04 -0.97,2.37 -1.65,3.44 -0.52,0.81 -1.31,1.47 -2.08,2.08 -2.69,2.14 -5.37,4.32 -8.18,6.3 -1.68,1.18 -3.57,2.08 -5.43,2.98 -1.51,0.73 -3.09,1.33 -4.67,1.88 -0.87,0.3 -1.82,0.34 -2.72,0.56 -0.54,0.13 -1.06,0.34 -1.56,0.56 -0.56,0.25 -1.08,0.63 -1.66,0.82 -1.84,0.6 -3.68,1.49 -5.55,1.6 -1.57,0.09 -2.77,0.54 -4.02,1.31 -0.62,0.38 -1.36,0.66 -2.08,0.76 -0.53,0.08 -1.31,0 -1.65,-0.34 -1.02,-1.02 -1.62,-1.04 -2.77,0.03 -1.72,1.6 -2.7,3.36 -2.32,5.64 0.22,1.28 0.84,2.52 1.4,3.72 0.59,1.28 1.39,2.47 1.97,3.75 0.44,0.97 0.7,2.03 -0.2,2.97 -0.1,0.11 -0.14,0.32 -0.13,0.49 0.05,2.91 0.16,5.82 0.16,8.73 0,2.08 -0.09,4.16 -0.27,6.22 -0.06,0.68 -0.56,1.31 -0.83,1.97 -0.22,0.56 -0.57,1.15 -0.56,1.72 0.01,1.61 -0.53,2.94 -1.61,4.11 -0.26,0.28 -0.38,0.7 -0.64,0.98 -0.34,0.36 -0.73,0.67 -1.14,0.95 -0.21,0.14 -0.56,0.09 -0.75,0.24 -2.2,1.74 -4.42,3.47 -6.28,5.61 -0.45,0.52 -1.01,0.98 -1.61,1.32 -1.27,0.72 -2.16,1.65 -2.33,3.18 -0.12,1.1 -0.35,2.19 -0.54,3.28 -0.27,1.58 0.15,2.57 1.27,3 1.08,0.41 1.98,0 2.85,-1.3 0.11,-0.17 0.26,-0.32 0.42,-0.52 0.14,0.16 0.28,0.24 0.3,0.34 0.92,3.93 3.94,6.8 5.32,10.5 0.84,2.25 2.47,3.93 4.25,5.38 2.12,1.74 4.3,3.51 6.73,4.73 2.06,1.04 4.48,1.58 6.79,1.89 2.4,0.32 4.88,0.03 7.32,0.12 1.04,0.04 2.06,0.36 3.09,0.55 0.3,0.06 0.62,0.18 0.91,0.15 1.78,-0.22 3.56,-0.42 5.33,-0.72 3.28,-0.57 5.74,-2.73 8.36,-4.51 2.7,-1.84 5.46,-3.69 7.77,-5.97 2.66,-2.62 4.98,-5.62 7.19,-8.64 0.62,-0.85 0.46,-2.36 0.45,-3.57 -0.01,-0.76 0.15,-1.16 0.75,-1.65 0.63,-0.51 1.2,-1.27 1.44,-2.03 0.7,-2.16 1.25,-4.37 1.82,-6.57 0.17,-0.64 0.21,-1.31 0.32,-1.96 0.24,-1.42 0.53,-2.84 0.71,-4.27 0.16,-1.27 0.3,-2.56 0.29,-3.84 -0.01,-1.51 0.97,-2.45 1.76,-3.92 0.88,3.06 1.66,5.74 2.43,8.42 0.55,1.91 1.25,3.8 1.61,5.75 0.26,1.41 0.14,2.91 0.09,4.37 -0.06,2.04 -0.21,4.08 -0.32,6.12 -0.19,3.54 -0.2,7.1 -0.64,10.61 -0.34,2.69 -1.24,5.3 -1.85,7.95 -0.45,1.93 -0.76,3.89 -1.28,5.8 -0.35,1.31 -0.74,2.68 -1.47,3.79 -1.27,1.93 -2.82,3.66 -4.23,5.5 -0.32,0.41 -0.7,0.87 -0.78,1.35 -0.53,3.19 -2.53,5.38 -4.79,7.46 -4.81,4.44 -10.56,7.29 -16.48,9.84 -3.05,1.31 -6.26,1.84 -9.62,1.41 -0.86,-0.11 -1.78,0.28 -2.67,0.45 -0.56,0.1 -1.11,0.27 -1.67,0.32 -1.15,0.09 -2.31,0.22 -3.46,0.13 -1.12,-0.09 -2.3,-0.25 -3.32,-0.68 -1.65,-0.71 -3.24,-1.37 -5.04,-1.77 -1.82,-0.41 -3.83,-0.73 -5.47,-2.08 -1.55,-1.29 -3.37,-2.31 -5.18,-3.23 -2.61,-1.31 -4.86,-3 -6.87,-5.11 -1.26,-1.32 -2.66,-2.72 -4.29,-3.42 -1.53,-0.66 -3.45,-0.69 -5.17,-0.58 -1.71,0.11 -2.42,1.69 -1.89,3.37 0.25,0.77 0.3,1.42 -0.29,2.21 -0.37,0.5 -0.12,1.5 -0.03,2.27 0.07,0.58 0.43,1.14 0.45,1.71 0.07,2.67 -0.22,5.38 0.21,7.98 0.26,1.57 0.76,3.15 0.54,4.7 -0.37,2.62 -1.07,5.2 -1.69,7.78 -0.06,0.27 -0.55,0.41 -0.76,0.68 -0.38,0.47 -0.82,0.94 -1.03,1.49 -0.94,2.52 -0.94,5.29 -2.63,7.67 -1.43,2.02 -2.12,4.56 -3.15,6.87 -0.47,1.05 -1.06,1.74 -2.38,2 -0.69,0.13 -1.17,1.45 -1.7,2.26 -0.41,0.62 -0.66,1.39 -1.18,1.87 -0.32,0.29 -1.18,0.37 -1.53,0.14 -0.36,-0.23 -0.58,-0.98 -0.54,-1.47 0.06,-0.73 0.32,-1.49 0.67,-2.14 0.57,-1.05 0.4,-1.94 0.16,-3.08 -0.23,-1.11 0.38,-2.46 0.83,-3.62 0.49,-1.3 0.89,-2.4 -0.2,-3.67 -0.44,-0.51 -0.38,-1.52 -0.39,-2.31 -0.03,-4.05 -0.02,-8.09 0,-12.14 0.01,-1.05 -0.24,-1.88 -1.23,-2.45 -0.37,-0.21 -0.71,-0.74 -0.77,-1.17 -0.27,-1.92 -0.54,-3.85 -0.62,-5.79 -0.1,-2.44 -0.12,-4.89 0.01,-7.33 0.13,-2.57 -0.91,-4.88 -1.31,-7.33 -0.22,-1.31 -0.41,-2.62 -0.62,-3.93 -0.07,-0.47 -0.16,-0.94 -0.23,-1.41 -0.13,-0.02 -0.27,-0.05 -0.4,-0.07 -0.22,0.79 -0.58,1.58 -0.63,2.38 -0.21,3.64 -0.34,7.28 -0.47,10.92 -0.02,0.64 0.03,1.15 -0.83,1.39 -0.38,0.11 -0.77,0.92 -0.78,1.42 -0.08,2.49 -0.02,4.98 -0.03,7.47 -0.01,2.24 -0.94,2.91 -2.99,2.15 -0.69,3.86 0.82,7.95 -0.92,11.45 0.23,1.7 0.69,3.23 0.58,4.72 -0.21,2.85 0.49,5.53 1.18,8.21 0.37,1.46 1.02,2.87 1.65,4.25 0.74,1.6 0.25,4.38 -1.28,6 -0.35,-0.45 -0.75,-0.84 -1.01,-1.32 -0.83,-1.55 -1.58,-3.15 -2.43,-4.7 -0.42,-0.76 -0.89,-1.54 -1.49,-2.15 -1.89,-1.9 -2.57,-4.43 -3.6,-6.77 -1.26,-2.88 -2.42,-5.8 -3.55,-8.73 -0.41,-1.06 -1.11,-2.47 -0.72,-3.26 0.65,-1.36 0.32,-2.65 0.47,-3.95 0.05,-0.48 -0.31,-1 -0.45,-1.51 -0.11,-0.41 -0.22,-0.84 -0.22,-1.27 -0.02,-6 -0.02,-12 -0.03,-18 0,-0.39 0,-0.77 0,-1.05 -2.91,-0.53 -4.25,-2.65 -5.71,-4.76 -0.34,1.01 -0.86,1.33 -2.1,1.1 -0.9,-0.17 -2.16,0.5 -2.96,1.16 -3.8,3.11 -7.5,6.35 -11.24,9.55 -0.2,0.17 -0.43,0.45 -0.64,0.44 -2.35,-0.06 -3.94,1.5 -5.66,2.7 -1.38,0.96 -2.79,1.39 -4.48,1.33 -4.04,-0.16 -7.59,1.57 -11.1,3.24 -1.91,0.91 -3.64,1.78 -5.74,0.52 -0.53,-0.32 -1.37,-0.19 -2.06,-0.13 -1.03,0.1 -2.04,0.35 -3.06,0.49 -1.05,0.14 -2.11,0.31 -3.17,0.32 -2.83,0.03 -5.66,0 -8.14,-1.72 -0.4,-0.28 -0.99,-0.39 -1.49,-0.38 -2.95,0.07 -5.07,-1.49 -7.02,-3.44 -1.29,-1.28 -2.34,-2.83 -4.4,-3.15 -0.77,-0.12 -1.45,-0.91 -2.13,-1.45 -3.66,-2.93 -6,-6.82 -7.92,-11 -0.68,-1.48 -1.53,-2.78 -2.71,-4 -2.04,-2.11 -2.84,-4.95 -3.48,-7.81 -0.56,-2.5 -1.36,-4.95 -2.03,-7.42 -0.31,-1.15 -0.61,-2.3 -0.87,-3.46 -0.4,-1.82 -0.89,-3.63 -1.1,-5.47 -0.23,-2.1 -0.23,-4.23 -0.27,-6.34 -0.03,-1.42 0.1,-2.85 0.02,-4.27 -0.06,-1.13 -0.18,-2.3 -0.53,-3.37 -0.88,-2.68 -0.49,-5.42 -0.27,-8.07 C 0.62,104 1.44,99.49 2.05,94.96 2.19,93.9 2.4,93.01 3.55,92.54 4.08,92.33 4.44,91.7 4.94,91.2 c 0.25,0.2 0.58,0.34 0.69,0.58 0.98,2.13 1.48,4.31 0.72,6.65 -0.27,0.83 -0.47,1.7 -0.56,2.56 -0.08,0.78 0.1,1.48 1.13,1.66 0.31,0.05 0.69,0.54 0.78,0.89 0.58,2.24 1.1,4.5 1.62,6.76 0.2,0.85 0.31,1.72 0.5,2.57 0.6,2.64 1.21,5.27 1.83,7.9 0.05,0.21 0.19,0.42 0.18,0.63 -0.09,2.57 1.24,4.74 1.91,7.1 0.91,3.21 2.71,5.9 4.77,8.43 0.99,1.22 2.26,2.22 3.31,3.4 0.51,0.58 0.68,1.5 1.24,2 0.87,0.78 1.95,1.31 2.91,2 1.3,0.93 2.53,1.95 3.85,2.85 2.19,1.5 4.36,2.92 7.27,2.74 3.01,-0.19 6.04,-0.04 9.06,-0.04 0.31,0 0.72,0.11 0.91,-0.04 1.85,-1.52 4.52,-0.61 6.41,-2.38 1.4,-1.31 3.41,-1.95 5.09,-2.97 0.93,-0.57 1.72,-1.38 2.63,-1.98 1.11,-0.72 2.36,-1.24 3.42,-2.02 1.63,-1.2 3.14,-2.56 4.72,-3.83 0.89,-0.72 1.92,-1.31 2.69,-2.14 1.01,-1.1 1.73,-2.48 2.75,-3.57 1.53,-1.64 3.23,-3.12 4.83,-4.69 0.63,-0.62 1.19,-1.3 1.77,-1.95 0.03,0.18 0.06,0.36 0.09,0.54 1.29,0.25 2.58,0.56 3.89,0.75 1.98,0.28 2.86,-1.68 2.2,-3.13 -0.61,-1.35 -0.59,-2.59 -0.42,-3.63 -0.76,-0.53 -1.32,-0.92 -1.89,-1.31 -1.46,-0.99 -2.94,-1.95 -4.37,-2.96 -0.46,-0.32 -0.76,-0.86 -1.21,-1.2 -0.49,-0.37 -1.07,-0.63 -1.61,-0.93 -0.15,-0.08 -0.4,-0.15 -0.43,-0.26 -0.6,-2.36 -2.85,-3.32 -4.23,-5.02 -0.11,-0.13 -0.29,-0.25 -0.31,-0.4 -0.28,-1.54 -0.66,-3.08 -0.77,-4.63 -0.07,-0.98 -0.26,-1.78 -0.9,-2.53 -1.48,-1.75 -1.55,-3.51 -0.42,-5.47 0.31,-0.54 0.5,-1.23 0.52,-1.85 0.1,-3.46 0.16,-6.93 0.17,-10.39 0,-0.55 -0.29,-1.09 -0.42,-1.64 -0.07,-0.3 -0.13,-0.63 -0.08,-0.93 0.52,-3.14 -0.39,-6.27 0,-9.41 0.12,-0.94 -0.32,-1.2 -1.21,-1.27 -1,-0.08 -1.99,-0.34 -2.97,-0.58 -0.96,-0.23 -1.78,-0.36 -1.91,0.99 -0.11,1.12 -1.02,1.11 -1.71,0.87 -2.11,-0.73 -4.18,-1.6 -6.27,-2.41 -0.28,-0.11 -0.6,-0.26 -0.88,-0.22 -1.31,0.18 -2.46,-0.01 -3.39,-1.07 -0.18,-0.2 -0.72,-0.31 -0.94,-0.19 -1.49,0.8 -2.86,0.07 -4.25,-0.26 -1.44,-0.34 -2.9,-0.7 -4.28,-1.23 C 39.83,63.17 36.31,61.74 32.81,60.27 26.76,57.72 22.51,52.92 18.01,48.4 12.69,43.05 8.93,36.82 6.48,29.72 5.49,26.83 4.22,24.04 3.31,21.13 c -0.83,-2.66 -1.14,-5.4 0.62,-8 1.49,1.79 3.16,3.44 4.41,5.38 2.05,3.17 4.79,5.45 8.07,7.18 3.45,1.83 6.95,3.58 10.38,5.44 2.29,1.24 4.43,2.76 6.77,3.87 2.33,1.11 4.82,1.88 7.24,2.77 1.01,0.37 2.04,0.71 3.07,1.03 0.2,0.06 0.49,0.1 0.66,0.01 2.7,-1.58 5.09,0.12 7.58,0.72 0.21,0.05 0.46,0.17 0.65,0.11 2.67,-0.93 5.24,0.38 7.89,0.34 2.08,-0.03 4.06,-0.11 5.94,-1.03 0.92,-0.44 1.6,-0.17 1.84,0.81 0.18,0.71 0.18,1.47 0.27,2.27 0,0 0.09,0.11 0.13,0.1 2.78,-0.86 3.56,1.53 4.57,3.1 1.13,1.76 3.89,2.34 5.59,0.16 0.57,-0.72 1.56,-1.12 2.12,-1.84 1.21,-1.56 2.92,-1.17 4.48,-1.57 1.35,-0.34 2.94,-0.54 3.97,-1.99 0.94,-1.33 2.64,-1.73 4.15,-2.26 0.62,-0.22 1.25,-0.44 1.84,-0.74 1.22,-0.62 2.38,-1.34 3.62,-1.9 0.58,-0.26 1.27,-0.26 1.92,-0.34 2,-0.23 4,-0.59 6,-0.62 1.69,-0.03 3.39,0.39 5.08,0.47 0.76,0.04 1.55,-0.24 2.32,-0.39 1.03,-0.2 2.06,-0.5 3.1,-0.62 0.92,-0.11 1.88,0.06 2.8,-0.06 2.66,-0.34 5.17,0.38 7.72,0.93 1.2,0.26 2.48,0.14 3.72,0.26 2.32,0.24 4.64,0.5 6.95,0.83 0.52,0.07 0.96,0.56 1.48,0.71 2.37,0.68 4.66,1.53 6.85,2.68 0.57,0.3 1.48,0.04 2.21,-0.1 0.52,-0.1 1,-0.41 1.83,-0.78 0,1.01 -0.17,1.76 0.04,2.37 0.23,0.68 0.7,1.57 1.27,1.75 0.57,0.18 1.54,-0.22 2.05,-0.68 0.97,-0.87 1.67,-2.05 2.63,-2.93 0.61,-0.56 1.47,-0.88 2.27,-1.2 4.53,-1.79 9.26,-0.58 13.89,-0.94 0.84,-0.07 1.66,-0.46 2.48,-0.7 0.68,-0.2 1.35,-0.43 2.03,-0.61 3.06,-0.82 6.16,-1.5 9.18,-2.45 7.69,-2.44 12.68,-8.07 16.81,-14.61 1.56,-2.47 2.9,-5.08 4.1,-7.74 0.74,-1.64 0.96,-3.5 1.53,-5.22 0.72,-2.04 1.53,-3.92 3.3,-5.1 z M 79.28,97.22 c -0.1,0.04 -0.21,0.07 -0.32,0.11 0.57,1.97 1.08,3.96 1.72,5.91 0.43,1.3 2.61,3.04 3.61,2.77 1.17,-0.31 1.67,0.19 2.21,1.03 0.54,0.85 1.5,1.23 2.31,0.75 0.7,-0.42 1.34,-1.27 1.61,-2.06 0.69,-2.04 0.33,-3.89 -1.59,-5.21 -0.22,-0.15 -0.26,-0.55 -0.43,-0.8 -0.82,-1.21 -1.28,-2.68 -3.09,-3.04 -0.74,-0.15 -1.26,-1.21 -1.98,-1.73 -0.67,-0.48 -1.44,-1.06 -2.2,-1.1 -1.01,-0.07 -1.66,0.76 -1.83,1.79 -0.09,0.51 -0.02,1.05 -0.02,1.58 z m 78.52,-4.36 c -0.24,0.13 -0.61,0.41 -1.02,0.52 -2.32,0.61 -3.98,2.08 -5.65,3.75 -1.69,1.69 -3.16,3.72 -5.53,4.69 -1.19,0.48 -1.39,1.67 -0.71,2.8 1.36,2.28 5.43,2.39 7.1,0.28 0.82,-1.04 1.7,-2.26 2.84,-2.78 1.3,-0.6 2.09,-1.35 2.27,-2.65 0.31,-2.21 0.48,-4.42 0.7,-6.61 z"
   id="path4"
   inkscape:connector-curvature="0"
   style="fill:#000000;fill-opacity:1" />
	</g>
</g>
</svg>