<?xml version="1.0" encoding="UTF-8" standalone="no"?>
<svg
   xmlns:dc="http://purl.org/dc/elements/1.1/"
   xmlns:cc="http://creativecommons.org/ns#"
   xmlns:rdf="http://www.w3.org/1999/02/22-rdf-syntax-ns#"
   xmlns:svg="http://www.w3.org/2000/svg"
   xmlns="http://www.w3.org/2000/svg"
   xmlns:sodipodi="http://sodipodi.sourceforge.net/DTD/sodipodi-0.dtd"
   xmlns:inkscape="http://www.inkscape.org/namespaces/inkscape"
   width="215"
   height="215"
   viewBox="0 0 56.885415 56.885418"
   version="1.1"
   id="svg8"
   inkscape:version="1.0.2-2 (e86c870879, 2021-01-15)"
   sodipodi:docname="fist_of_the_everchosen.svg">
  <defs
     id="defs2" />
  <sodipodi:namedview
     id="base"
     pagecolor="#ffffff"
     bordercolor="#666666"
     borderopacity="1.0"
     inkscape:pageopacity="0.0"
     inkscape:pageshadow="2"
     inkscape:zoom="0.79288069"
     inkscape:cx="672.55502"
     inkscape:cy="234.7013"
     inkscape:document-units="px"
     inkscape:current-layer="layer1"
     inkscape:document-rotation="0"
     showgrid="false"
     inkscape:window-width="1920"
     inkscape:window-height="1017"
     inkscape:window-x="-8"
     inkscape:window-y="-8"
     inkscape:window-maximized="1"
     units="px" />
  <metadata
     id="metadata5">
    <rdf:RDF>
      <cc:Work
         rdf:about="">
        <dc:format>image/svg+xml</dc:format>
        <dc:type
           rdf:resource="http://purl.org/dc/dcmitype/StillImage" />
        <dc:title></dc:title>
      </cc:Work>
    </rdf:RDF>
  </metadata>
  <g
     inkscape:label="Layer 1"
     inkscape:groupmode="layer"
     id="layer1"
     transform="translate(0,-240.11457)">
    <path
       style="fill:#000000;stroke-width:0.102239"
       d="m 29.83529,296.98932 c -0.24285,-0.0253 -15.33664,-0.14618 -16.32466,-0.13073 -0.66252,0.0104 -0.68052,0.004 -0.62673,-0.22537 0.0305,-0.12982 0.18789,-0.35711 0.34984,-0.50509 0.16194,-0.14799 0.29444,-0.34352 0.29444,-0.43452 0,-0.18781 0.0525,-0.19913 0.7847,-0.16919 0.51119,0.0209 0.53023,0.0118 0.56232,-0.26847 0.0344,-0.30047 0.22462,-0.35889 0.62108,-0.19075 0.12766,0.0541 0.17892,0.0288 0.17892,-0.0884 0,-0.0904 -0.0634,-0.1643 -0.14084,-0.1643 -0.0775,0 -0.19885,-0.0699 -0.26976,-0.15533 -0.0902,-0.1087 -0.22857,-0.13664 -0.46088,-0.0931 -0.47699,0.0895 -0.5296,-0.10736 -0.13241,-0.49548 0.18664,-0.18238 0.42229,-0.45977 0.52367,-0.61643 0.10137,-0.15666 0.29691,-0.33613 0.43451,-0.39882 0.1376,-0.0627 0.25019,-0.19553 0.25019,-0.29517 0,-0.0997 0.092,-0.21039 0.20448,-0.24608 0.11246,-0.0357 0.20447,-0.14677 0.20447,-0.24684 0,-0.10007 0.092,-0.28804 0.20448,-0.41771 0.24928,-0.28742 0.27917,-1.03533 0.0505,-1.26399 -0.22668,-0.22668 -0.5269,-0.29542 -0.75561,-0.17302 -0.11089,0.0593 -0.30373,0.1079 -0.42855,0.1079 -0.23306,0 -1.46681,0.64174 -1.57723,0.8204 -0.0934,0.15106 -0.48711,0.12451 -0.416,-0.0281 0.0328,-0.0703 0.088,-0.20831 0.12268,-0.30672 0.0347,-0.0984 0.10376,-0.17892 0.15343,-0.17892 0.0497,0 0.0903,-0.092 0.0903,-0.20447 0,-0.11246 0.046,-0.20448 0.10224,-0.20448 0.0562,0 0.10224,-0.069 0.10224,-0.15336 0,-0.0844 0.0404,-0.15336 0.0898,-0.15336 0.0494,0 0.147,-0.13802 0.21688,-0.30671 0.0699,-0.1687 0.15738,-0.30672 0.19447,-0.30672 0.0371,0 0.12114,-0.12652 0.1868,-0.28116 0.18042,-0.42492 0.65012,-1.19185 0.78007,-1.27373 0.0632,-0.0398 0.21748,-0.0467 0.34281,-0.0152 0.23627,0.0593 0.54062,-0.15388 0.54062,-0.37868 0,-0.0677 -0.0982,-0.20831 -0.2183,-0.31244 -0.2685,-0.23287 -0.14498,-0.43093 0.37596,-0.60286 0.31177,-0.10289 0.33988,-0.14358 0.28583,-0.41384 -0.0432,-0.21579 0.0223,-0.45723 0.23392,-0.86215 0.16162,-0.30932 0.32837,-0.56252 0.37054,-0.56265 0.0422,-10e-5 0.0767,-0.0687 0.0767,-0.15243 0,-0.1399 0.16101,-0.37892 0.48564,-0.72095 0.0703,-0.0741 0.1278,-0.20694 0.1278,-0.2953 0,-0.0884 0.0345,-0.16098 0.0767,-0.16136 0.0422,-3.9e-4 0.19169,-0.17292 0.33227,-0.3834 0.29284,-0.43845 0.32129,-0.47798 0.64346,-0.89389 0.49037,-0.63305 0.68566,-1.07924 0.68495,-1.56499 -7.7e-4,-0.4316 -0.0359,-0.50379 -0.35156,-0.71871 -0.24639,-0.16778 -0.42123,-0.21766 -0.58718,-0.16752 -0.26341,0.0796 -0.79801,0.64269 -0.79838,0.84095 -1.3e-4,0.0703 -0.0462,0.1278 -0.10248,0.1278 -0.0562,0 -0.10224,0.0723 -0.10224,0.16067 0,0.2284 -0.28428,0.48325 -0.4627,0.41478 -0.0829,-0.0318 -0.15074,-0.14913 -0.15074,-0.26071 0,-0.11158 -0.0534,-0.32006 -0.11864,-0.46328 -0.0906,-0.19875 -0.0898,-0.32383 0.003,-0.52825 0.10276,-0.22552 0.0985,-0.25878 -0.0272,-0.21055 -0.0821,0.0315 -0.1949,0.002 -0.25069,-0.0649 -0.19941,-0.24029 -0.6608,-2.18048 -0.70351,-2.95837 -0.0239,-0.4358 -0.086,-0.79236 -0.13795,-0.79236 -0.052,0 -0.0944,-0.15988 -0.0944,-0.3553 0,-0.33539 0.0141,-0.34994 0.25197,-0.2595 0.32028,0.12177 0.36756,0.0434 0.41131,-0.6817 0.0269,-0.44555 -0.01,-0.63592 -0.16115,-0.84101 -0.15918,-0.21539 -0.17775,-0.32841 -0.099,-0.60273 0.10452,-0.36423 -0.034,-0.51421 -0.35958,-0.38927 -0.3063,0.11754 -0.41941,-0.17968 -0.50246,-1.32027 -0.13104,-1.79982 -0.0422,-3.9338 0.16376,-3.9338 0.0499,0 0.0907,-0.34506 0.0907,-0.7668 0,-0.42173 0.0246,-0.76679 0.0548,-0.76679 0.0301,0 0.15665,0.0911 0.28116,0.20236 0.49823,0.44536 1.60418,1.33123 1.66195,1.33123 0.10278,0 0.35361,0.2849 0.35361,0.40165 0,0.0602 0.0439,0.10954 0.0976,0.10954 0.0537,0 0.20393,0.10352 0.33389,0.23004 0.12996,0.12652 0.46561,0.41285 0.74588,0.6363 0.28027,0.22344 0.63156,0.53399 0.78064,0.69011 0.14908,0.15612 0.32314,0.28385 0.3868,0.28385 0.0637,0 0.26925,0.14953 0.45686,0.33228 0.1876,0.18275 0.48512,0.45464 0.66114,0.60421 0.3701,0.31446 0.37377,0.3553 0.15712,1.74795 -0.31032,1.99486 -0.18109,5.6693 0.22107,6.28561 0.14785,0.22656 0.15639,0.22151 0.9513,-0.56232 0.44117,-0.43501 0.85561,-0.83694 0.921,-0.89317 0.0654,-0.0562 0.32556,-0.32078 0.57818,-0.58788 0.25261,-0.26709 0.49447,-0.48563 0.53746,-0.48563 0.043,0 0.1445,-0.092 0.22556,-0.20448 0.081,-0.11246 0.18699,-0.20448 0.2354,-0.20448 0.0484,0 0.27979,-0.15494 0.51418,-0.34432 0.23439,-0.18937 0.54118,-0.40388 0.68176,-0.47667 0.30215,-0.15645 1.05877,-0.73054 1.10759,-0.84039 0.0187,-0.0422 0.0992,-0.0767 0.17892,-0.0767 0.0797,0 0.14483,-0.046 0.14483,-0.10224 0,-0.0562 0.0575,-0.10229 0.1278,-0.10236 0.0703,-7e-5 0.25995,-0.11377 0.42146,-0.25267 0.16151,-0.13891 0.38005,-0.27998 0.48563,-0.31349 0.10559,-0.0335 0.19198,-0.10383 0.19198,-0.15628 0,-0.0524 0.0575,-0.0964 0.1278,-0.0977 0.0703,-10e-4 0.40081,-0.25432 0.73449,-0.56231 0.33368,-0.308 0.66723,-0.55999 0.74123,-0.55999 0.074,0 0.13454,-0.046 0.13454,-0.10224 0,-0.0562 0.092,-0.10224 0.20448,-0.10224 0.11246,0 0.20448,-0.046 0.20448,-0.10224 0,-0.0562 0.0603,-0.10224 0.13408,-0.10224 0.0737,0 0.23284,-0.092 0.35356,-0.20448 0.12071,-0.11246 0.26358,-0.20447 0.31747,-0.20447 0.0539,0 0.11333,-0.0356 0.13208,-0.0791 0.0187,-0.0435 0.37913,-0.25801 0.80087,-0.47667 0.42174,-0.21867 0.7898,-0.4283 0.81791,-0.46585 0.0281,-0.0376 0.20064,-0.13333 0.38339,-0.21284 0.18276,-0.0795 0.33228,-0.17934 0.33228,-0.22185 0,-0.0425 0.092,-0.0773 0.20448,-0.0773 0.11246,0 0.20448,-0.046 0.20448,-0.10224 0,-0.0562 0.0585,-0.10224 0.13006,-0.10224 0.0715,0 0.30157,-0.14137 0.51119,-0.31415 0.45039,-0.37125 0.53262,-0.81149 0.1511,-0.80893 -0.30188,0.002 -0.88483,0.20827 -1.23249,0.43607 -0.38283,0.25083 -0.68509,0.0895 -0.68292,-0.36453 0.001,-0.23301 0.0282,-0.28666 0.093,-0.1843 0.0776,0.12263 0.11589,0.11987 0.25403,-0.0182 0.20206,-0.20207 0.21623,-0.95616 0.0216,-1.15077 -0.21595,-0.21595 -0.64484,-0.29135 -0.80519,-0.14157 -0.32943,0.17313 -0.61362,0.33582 -0.84319,0.55278 l -0.4085,0.61071 c -0.50841,0.76009 -0.75531,1.17753 -0.83309,1.40851 -0.0331,0.0984 -0.10089,0.17892 -0.15056,0.17892 -0.0497,0 -0.0903,0.092 -0.0903,0.20447 0,0.11247 -0.046,0.20448 -0.10224,0.20448 -0.0562,0 -0.10281,0.0805 -0.10351,0.17892 -0.001,0.18478 -0.38273,0.46837 -1.04234,0.77499 -0.20848,0.0969 -0.40672,0.22097 -0.44054,0.2757 -0.0338,0.0547 -0.1508,0.0995 -0.25995,0.0995 -0.10914,0 -0.19844,0.0369 -0.19844,0.0821 0,0.0452 -0.22932,0.19469 -0.50961,0.33228 -0.28028,0.13758 -0.51032,0.28466 -0.51119,0.32683 -7.7e-4,0.0422 -0.0706,0.0767 -0.15495,0.0767 -0.0843,0 -0.15336,0.046 -0.15336,0.10224 0,0.0562 -0.069,0.10224 -0.15335,0.10224 -0.0844,0 -0.15336,0.046 -0.15336,0.10224 0,0.0562 -0.069,0.10223 -0.15336,0.10223 -0.0844,0 -0.15336,-0.046 -0.15336,-0.10223 0,-0.0562 -0.092,-0.10224 -0.20448,-0.10224 -0.21685,0 -0.29291,0.34223 -0.10224,0.46007 0.16824,0.10397 0.11581,0.2556 -0.0884,0.2556 -0.10484,0 -0.34638,0.13729 -0.53675,0.30508 -0.19038,0.1678 -0.45365,0.30582 -0.58505,0.30672 -0.17084,10e-4 -0.27191,0.089 -0.35469,0.30835 -0.0637,0.16869 -0.17615,0.30672 -0.24993,0.30672 -0.0738,0 -0.15887,0.0644 -0.18909,0.14315 -0.0302,0.0787 -0.41626,0.51432 -0.85788,0.96797 -0.44162,0.45366 -0.83263,0.91833 -0.8689,1.0326 -0.0369,0.11627 -0.15467,0.20777 -0.26741,0.20777 -0.19535,0 -0.20028,-0.0659 -0.16273,-2.17258 0.0365,-2.04539 0.11966,-2.8497 0.35697,-3.45056 0.0555,-0.14058 0.20681,-0.60065 0.33619,-1.02239 0.12939,-0.42173 0.31843,-0.88891 0.42011,-1.03817 0.10167,-0.14926 0.18486,-0.34479 0.18486,-0.43452 0,-0.0897 0.0348,-0.16313 0.0773,-0.16313 0.0425,0 0.14293,-0.14952 0.22316,-0.33228 0.0802,-0.18275 0.2755,-0.45425 0.43392,-0.60333 0.15841,-0.14908 0.28802,-0.31347 0.28802,-0.36532 0,-0.16774 1.40516,-1.56176 1.57425,-1.56176 0.0901,0 0.16382,-0.046 0.16382,-0.10224 0,-0.0562 0.069,-0.10223 0.15336,-0.10223 0.0843,0 0.15335,-0.0383 0.15335,-0.085 0,-0.0467 0.12652,-0.15017 0.28116,-0.22987 0.15464,-0.0797 0.30416,-0.16967 0.33228,-0.19992 0.0281,-0.0303 0.39617,-0.23428 0.81791,-0.45339 0.42173,-0.21912 0.82984,-0.46124 0.90691,-0.53805 0.0771,-0.0768 0.27356,-0.16636 0.43664,-0.19898 0.16309,-0.0326 0.32128,-0.0994 0.35155,-0.14833 0.0302,-0.049 0.14432,-0.089 0.25347,-0.089 0.10914,0 0.19844,-0.046 0.19844,-0.10223 0,-0.0562 0.092,-0.10224 0.20448,-0.10224 0.11247,0 0.20448,-0.046 0.20448,-0.10224 0,-0.0562 0.11502,-0.10224 0.2556,-0.10224 0.14057,0 0.25559,-0.046 0.25559,-0.10224 0,-0.0562 0.069,-0.10224 0.15336,-0.10224 0.0844,0 0.15336,-0.046 0.15336,-0.10224 0,-0.0562 0.13531,-0.10223 0.30068,-0.10223 0.16538,0 0.32912,-0.046 0.36387,-0.10225 0.0347,-0.0562 0.15249,-0.10223 0.26163,-0.10223 0.10915,0 0.19845,-0.046 0.19845,-0.10224 0,-0.0562 0.0973,-0.10224 0.21631,-0.10224 0.2501,0 1.16074,-0.27894 1.96107,-0.6007 0.15729,-0.0632 0.39883,-0.11497 0.53676,-0.11497 0.13793,0 0.25079,-0.046 0.25079,-0.10224 0,-0.0562 0.11502,-0.10224 0.25559,-0.10224 0.14058,0 0.2556,-0.046 0.2556,-0.10224 0,-0.0562 0.11564,-0.10224 0.25699,-0.10224 0.14133,0 0.33687,-0.0455 0.43451,-0.10115 0.19662,-0.11202 1.89458,-0.71167 2.23173,-0.78815 0.11765,-0.0267 0.28689,0.0245 0.3761,0.11368 0.0892,0.0892 0.20593,0.16219 0.2594,0.16219 0.0535,0 0.28684,0.18403 0.51861,0.40895 0.23178,0.22493 0.44589,0.40896 0.47582,0.40896 0.0299,0 0.21101,0.14952 0.4024,0.33228 0.52549,0.50174 1.45682,1.32487 1.59716,1.41161 0.0889,0.0549 0.10418,0.26126 0.0538,0.72558 -0.31084,2.86297 -0.31626,2.89478 -0.49836,2.92985 -0.0981,0.0189 -0.17827,0.12297 -0.17827,0.23132 0,0.12881 -0.0708,0.19697 -0.20447,0.19697 -0.13632,0 -0.20448,0.0682 -0.20448,0.20448 0,0.16074 0.0682,0.20448 0.31863,0.20448 0.29699,0 0.31372,0.0191 0.24626,0.28116 -0.0699,0.27155 -0.18674,1.10424 -0.31918,2.27481 -0.0669,0.59147 -0.1545,0.71155 -0.52083,0.71411 -0.27748,0.002 -0.39325,0.17002 -0.24233,0.35186 0.0625,0.0753 0.10203,0.28832 0.0879,0.47345 -0.0149,0.19527 0.027,0.35414 0.0997,0.37838 0.14976,0.0499 0.17149,0.84265 0.0231,0.84265 -0.0562,0 -0.10224,0.20704 -0.10224,0.46008 0,0.25304 -0.046,0.46007 -0.10224,0.46007 -0.0562,0 -0.10223,0.13803 -0.10223,0.30672 0,0.16869 -0.046,0.30672 -0.10224,0.30672 -0.0562,0 -0.10224,-0.046 -0.10224,-0.10224 0,-0.16502 -0.27912,-0.11716 -0.3469,0.0595 -0.096,0.25009 -0.0781,0.27527 0.15281,0.2149 0.23504,-0.0615 0.2348,-0.12151 0.004,1.10584 -0.16485,0.87821 -0.64512,2.32179 -0.84865,2.55086 -0.0475,0.0534 -0.0863,0.17854 -0.0863,0.27805 0,0.0995 -0.092,0.34475 -0.20448,0.54498 -0.11246,0.20023 -0.20448,0.42732 -0.20448,0.50464 0,0.12117 -0.14237,0.44896 -0.52399,1.20647 -0.0492,0.0976 -0.0894,0.22745 -0.0894,0.28846 0,0.061 -0.0682,0.17912 -0.15153,0.26246 -0.13389,0.13388 -0.17552,0.11219 -0.35746,-0.18622 -0.11326,-0.18576 -0.20609,-0.41827 -0.2063,-0.51667 -2.1e-4,-0.0984 -0.0464,-0.17892 -0.10262,-0.17892 -0.0562,0 -0.10326,-0.0805 -0.10451,-0.17892 -10e-4,-0.0984 -0.0923,-0.29393 -0.20221,-0.43451 -0.10996,-0.14058 -0.20095,-0.29339 -0.2022,-0.33958 -0.004,-0.15907 -0.30926,-0.39045 -0.64104,-0.48637 -0.74665,-0.21589 -1.24415,0.36676 -0.9935,1.16354 0.0743,0.23606 0.19585,0.50183 0.27021,0.59061 0.0744,0.0888 0.13519,0.23209 0.13519,0.31848 0,0.0864 0.0844,0.26681 0.18765,0.40091 0.10321,0.13411 0.25247,0.39335 0.33168,0.5761 0.0792,0.18276 0.17879,0.33228 0.2213,0.33228 0.0425,0 0.0773,0.092 0.0773,0.20448 0,0.11246 0.046,0.20447 0.10224,0.20447 0.0562,0 0.10224,0.0882 0.10224,0.19596 0,0.10778 0.0345,0.2113 0.0767,0.23004 0.0422,0.0187 0.18695,0.24111 0.32172,0.49415 0.13478,0.25305 0.44988,0.84276 0.70022,1.31049 0.25034,0.46772 0.43912,0.86405 0.41951,0.88074 -0.0196,0.0167 -0.13747,0.0833 -0.2619,0.14798 -0.30668,0.15949 -0.19108,0.42124 0.18605,0.42124 0.32152,0 0.37914,0.1644 0.18485,0.52744 -0.16301,0.30459 -0.0382,0.61496 0.36344,0.90391 0.19541,0.14058 0.35656,0.33695 0.35811,0.43637 0.002,0.14895 -0.073,0.17595 -0.42788,0.15336 -0.34147,-0.0217 -0.43833,0.01 -0.46757,0.1515 -0.0295,0.14326 0.0342,0.17892 0.31993,0.17892 0.19625,0 0.38365,0.0575 0.41645,0.1278 0.0477,0.10224 0.0716,0.10224 0.11928,0 0.0902,-0.19331 0.38397,-0.16108 0.30914,0.0339 -0.0341,0.0889 -0.0621,0.22696 -0.0621,0.30671 0,0.093 -0.1101,0.145 -0.30672,0.145 -0.16869,0 -0.30671,-0.046 -0.30671,-0.10224 0,-0.18591 -0.66923,-0.10959 -0.8966,0.10224 -0.12071,0.11246 -0.26249,0.20448 -0.31506,0.20448 -0.15973,0 -0.22559,0.30912 -0.11134,0.52261 0.0592,0.1106 0.0997,0.2798 0.0901,0.37599 -0.0328,0.32729 0.006,0.4305 0.16103,0.4305 0.0853,0 0.23479,0.17253 0.33228,0.3834 0.0975,0.21086 0.26928,0.48113 0.38174,0.60058 0.40286,0.42791 0.56231,0.65657 0.56231,0.80637 0,0.0837 0.046,0.15219 0.10224,0.15219 0.18054,0 0.10916,0.32785 -0.11341,0.52089 -0.19406,0.1683 -0.19991,0.20278 -0.0584,0.34427 0.0865,0.0865 0.22953,0.15723 0.31789,0.15723 0.0884,0 0.16066,0.0828 0.16066,0.18403 0,0.2991 0.19773,0.43482 0.42873,0.29427 0.16754,-0.10192 0.22983,-0.0811 0.40465,0.13513 0.11365,0.14058 0.30619,0.37093 0.42786,0.5119 0.12167,0.14097 0.28651,0.38251 0.3663,0.53675 0.0798,0.15425 0.17947,0.28046 0.22152,0.28046 0.042,0 0.0764,0.20703 0.0764,0.46007 v 0.46008 l -0.52823,0.006 c -0.29053,0.003 -1.88546,0.0298 -3.54429,0.0585 -3.60885,0.0627 -7.63967,0.0969 -7.92351,0.0673 z m -12.01307,-1.56661 c 0,-0.33065 -0.2406,-0.51276 -0.42879,-0.32457 -0.17256,0.17256 -0.008,0.63449 0.22626,0.63449 0.15734,0 0.20253,-0.0692 0.20253,-0.30992 z m -1.53745,-0.80506 c -0.33531,-0.28141 -0.35579,-0.28606 -0.38847,-0.0882 -0.0402,0.24358 0.13617,0.38154 0.49071,0.38375 0.24371,0.002 0.24045,-0.008 -0.10224,-0.29551 z m -0.40509,-0.82755 c 0,-0.11247 -0.046,-0.20448 -0.10224,-0.20448 -0.0562,0 -0.10224,0.092 -0.10224,0.20448 0,0.11246 0.046,0.20448 0.10224,0.20448 0.0562,0 0.10224,-0.092 0.10224,-0.20448 z m 21.71483,-0.3662 c 0.096,-0.25011 0.0752,-0.28315 -0.0913,-0.145 -0.16996,0.14106 -0.20348,0.30672 -0.0621,0.30672 0.0502,0 0.11922,-0.0728 0.15336,-0.16172 z m 0.49993,-5.99817 c 0.0614,-0.17078 -0.0345,-0.82031 -0.1379,-0.93403 -0.0465,-0.0512 -0.1519,-0.021 -0.24229,0.0694 -0.18085,0.18086 -0.21102,0.37901 -0.0577,0.37901 0.0562,0 0.10224,0.13802 0.10224,0.30672 0,0.31026 0.24201,0.43926 0.33564,0.17892 z m -5.03863,-11.91712 c 0,-0.0456 -0.0884,-0.17784 -0.19644,-0.29381 -0.10804,-0.11597 -0.21731,-0.32018 -0.24283,-0.4538 -0.0255,-0.13361 -0.0295,-0.0436 -0.009,0.20006 0.0207,0.24365 0.0636,0.48519 0.0955,0.53676 0.0716,0.11588 0.35259,0.12449 0.35259,0.0108 z m -6.64553,-2.83084 c 0,-0.0852 -0.0909,-0.15336 -0.20447,-0.15336 -0.20369,0 -0.26594,0.10894 -0.13632,0.23856 0.12452,0.12451 0.34079,0.0704 0.34079,-0.0852 z m 6.85001,-0.0511 c 0,-0.0562 -0.046,-0.10224 -0.10224,-0.10224 -0.0562,0 -0.10224,0.046 -0.10224,0.10224 0,0.0562 0.046,0.10223 0.10224,0.10223 0.0562,0 0.10224,-0.046 0.10224,-0.10223 z m -6.64553,-1.21593 c 0,-0.10645 -0.0708,-0.22069 -0.15722,-0.25387 -0.20524,-0.0788 -0.32798,0.23416 -0.13883,0.35392 0.21827,0.13821 0.29605,0.11193 0.29605,-0.10005 z m -0.56231,-1.13557 c 0.0347,-0.0562 -0.0315,-0.10224 -0.14733,-0.10224 -0.11578,0 -0.21051,0.046 -0.21051,0.10224 0,0.0562 0.0663,0.10224 0.14733,0.10224 0.081,0 0.17576,-0.046 0.21051,-0.10224 z m 13.93754,-0.47716 c -0.0497,-0.25649 -0.28865,-0.29171 -0.28865,-0.0426 0,0.12558 0.066,0.21299 0.16086,0.21299 0.0952,0 0.14736,-0.0696 0.12779,-0.17044 z m -10.16132,-0.84123 c 0.0311,-0.0503 -0.0122,-0.11791 -0.0962,-0.15015 -0.0928,-0.0356 -0.15277,3.1e-4 -0.15277,0.0915 0,0.16536 0.15976,0.20298 0.24898,0.0586 z m 11.51852,-0.91048 c -0.0618,-0.0206 -0.11366,-0.13711 -0.11538,-0.25894 -0.003,-0.19777 -0.0141,-0.20258 -0.10604,-0.0449 -0.0749,0.12857 -0.054,0.26769 0.0769,0.51119 0.17647,0.32838 0.1805,0.3299 0.2183,0.0823 0.0212,-0.13875 -0.012,-0.2691 -0.0737,-0.28968 z M 21.1961,267.93098 c 0,-0.0602 -0.092,-0.10954 -0.20447,-0.10954 -0.11247,0 -0.20448,-0.046 -0.20448,-0.10224 0,-0.0562 -0.0711,-0.10224 -0.15801,-0.10224 -0.0869,0 -0.26458,-0.10351 -0.39485,-0.23004 -0.13026,-0.12652 -0.33946,-0.29904 -0.46488,-0.38339 -0.63357,-0.4261 -1.02704,-0.74284 -1.02704,-0.82676 0,-0.0514 -0.048,-0.0934 -0.10661,-0.0934 -0.1513,0 -1.73369,-1.6181 -1.73369,-1.77281 0,-0.13842 -0.22177,-0.45499 -0.58787,-0.83918 -0.12652,-0.13278 -0.23004,-0.29561 -0.23004,-0.36186 0,-0.0662 -0.0808,-0.19486 -0.17962,-0.2858 -0.0988,-0.0909 -0.24458,-0.29188 -0.32399,-0.44651 -0.0794,-0.15464 -0.18261,-0.28116 -0.22934,-0.28116 -0.0467,0 -0.085,-0.069 -0.085,-0.15336 0,-0.0843 -0.046,-0.15335 -0.10224,-0.15335 -0.0562,0 -0.10224,-0.092 -0.10224,-0.20448 0,-0.11246 -0.0408,-0.20448 -0.0906,-0.20448 -0.0498,0 -0.17635,-0.1656 -0.28116,-0.368 -0.10481,-0.2024 -0.27469,-0.53135 -0.3775,-0.731 -0.10282,-0.19964 -0.2546,-0.43065 -0.3373,-0.51335 -0.0827,-0.0827 -0.17685,-0.28283 -0.20924,-0.44475 -0.0324,-0.16192 -0.0991,-0.29439 -0.14834,-0.29439 -0.0492,0 -0.0895,-0.16103 -0.0895,-0.35784 0,-0.19681 -0.046,-0.35784 -0.10223,-0.35784 -0.0562,0 -0.10224,-0.1123 -0.10224,-0.24956 0,-0.13726 -0.046,-0.278 -0.10224,-0.31275 -0.13298,-0.0822 -0.13298,-0.46008 0,-0.46008 0.17508,0 0.11209,-0.3253 -0.0983,-0.50779 -0.11031,-0.0957 -0.24719,-0.2966 -0.30419,-0.44651 -0.0716,-0.18838 -0.17772,-0.27256 -0.34353,-0.27256 -0.18838,0 -0.28529,-0.1043 -0.45123,-0.48564 -0.31987,-0.73508 -0.44732,-1.37847 -0.34101,-1.7216 0.0507,-0.16369 0.14531,-0.59666 0.21022,-0.96217 0.0649,-0.3655 0.16024,-0.67988 0.21184,-0.69863 0.0516,-0.0187 0.0938,-0.10223 0.0938,-0.18552 0,-0.28382 0.43367,-1.16062 0.57404,-1.16062 0.077,0 0.19736,0.092 0.2676,0.20447 0.16679,0.26708 0.69194,0.28421 0.69194,0.0226 0,-0.10005 -0.092,-0.24823 -0.20448,-0.32929 -0.2472,-0.17817 -0.26017,-0.36786 -0.0402,-0.58783 0.15087,-0.15088 0.18741,-0.13778 0.44797,0.16066 0.35792,0.40994 0.57837,0.41598 0.66573,0.0182 0.0463,-0.21095 0.12868,-0.30672 0.26373,-0.30672 0.10799,0 0.19635,0.046 0.19635,0.10224 0,0.0562 0.092,0.10224 0.20448,0.10224 0.11246,0 0.20448,0.046 0.20448,0.10224 0,0.0562 0.092,0.10224 0.20447,0.10224 0.11246,0 0.20448,0.046 0.20448,0.10224 0,0.0562 0.092,0.10223 0.20448,0.10223 0.11246,0 0.20447,0.046 0.20447,0.10225 0,0.0562 0.0882,0.10223 0.19596,0.10223 0.10778,0 0.2113,0.0345 0.23004,0.0767 0.0187,0.0422 0.28425,0.1917 0.59002,0.33228 0.65364,0.30052 0.92653,0.56215 0.92653,0.88831 0,0.12997 0.046,0.23632 0.10223,0.23632 0.0562,0 0.10224,0.0882 0.10224,0.19595 0,0.10778 0.0359,0.2113 0.0798,0.23004 0.0439,0.0187 0.22686,0.47115 0.40659,1.00535 0.47189,1.40258 0.63276,1.86504 0.72907,2.09589 0.17411,0.41736 0.31811,0.94131 0.31811,1.15745 0,0.12253 0.046,0.22278 0.10225,0.22278 0.0562,0 0.10223,0.13531 0.10223,0.30068 0,0.16538 0.046,0.32912 0.10224,0.36387 0.0562,0.0347 0.10224,0.19578 0.10224,0.35784 0,0.16206 0.046,0.32308 0.10224,0.35783 0.0562,0.0347 0.10224,0.19469 0.10224,0.3554 0,0.16071 0.0836,0.49155 0.18573,0.7352 0.25269,0.6027 0.409,1.39925 0.47814,2.43665 0.0318,0.47797 0.0996,1.26009 0.15066,1.73806 0.051,0.47796 0.0957,1.52792 0.0992,2.33324 0.005,1.17148 -0.0242,1.49486 -0.14693,1.61756 -0.0843,0.0844 -0.15336,0.10407 -0.15336,0.0438 z m 3.76623,-4.02395 c -0.85598,-0.86675 -1.10802,-1.16073 -1.10802,-1.29241 0,-0.0509 -0.0372,-0.10788 -0.0826,-0.12663 -0.11755,-0.0485 -0.64946,-0.85539 -0.99971,-1.51654 -0.16383,-0.30927 -0.33239,-0.57765 -0.37456,-0.59639 -0.0422,-0.0187 -0.0767,-0.12226 -0.0767,-0.23004 0,-0.10778 -0.0345,-0.19632 -0.0767,-0.19676 -0.10374,-10e-4 -0.33227,-0.50678 -0.33227,-0.73525 0,-0.10125 -0.046,-0.1841 -0.10225,-0.1841 -0.0562,0 -0.10223,-0.0882 -0.10223,-0.19596 0,-0.10778 -0.0345,-0.21129 -0.0767,-0.23003 -0.0655,-0.0291 -0.37955,-0.90786 -1.12086,-3.13608 -0.0872,-0.262 -0.19843,-0.55625 -0.24726,-0.6539 -0.0488,-0.0976 -0.0888,-0.26745 -0.0888,-0.37736 0,-0.10991 -0.046,-0.22826 -0.10223,-0.26301 -0.0562,-0.0347 -0.10225,-0.21879 -0.10225,-0.40896 0,-0.19017 -0.046,-0.3742 -0.10223,-0.40896 -0.0562,-0.0347 -0.10224,-0.17277 -0.10224,-0.30671 0,-0.13394 -0.046,-0.27197 -0.10224,-0.30672 -0.0562,-0.0347 -0.10224,-0.18372 -0.10224,-0.33105 0,-0.14733 -0.0454,-0.40915 -0.10094,-0.58184 -0.0947,-0.29457 -0.71455,-2.28609 -0.92733,-2.97945 -0.053,-0.17268 -0.0964,-0.48107 -0.0964,-0.6853 0,-0.33757 0.0533,-0.53016 0.31739,-1.14774 0.0481,-0.11246 0.20797,-0.54477 0.35527,-0.96069 0.1473,-0.41592 0.35526,-0.9119 0.46213,-1.10218 0.10688,-0.19028 0.19432,-0.43657 0.19432,-0.54733 0,-0.11075 0.046,-0.20137 0.10224,-0.20137 0.0562,0 0.10223,-0.0893 0.10223,-0.19844 0,-0.10914 0.046,-0.22688 0.10225,-0.26163 0.0562,-0.0347 0.10223,-0.15793 0.10223,-0.27373 0,-0.26571 0.59116,-0.79598 0.88979,-0.79815 0.12387,-7.7e-4 0.3309,-0.0429 0.46007,-0.0932 0.60973,-0.2378 1.089,-0.33582 1.23643,-0.25286 0.0868,0.0489 0.68789,0.59493 1.33564,1.21348 0.64776,0.61855 1.28401,1.21879 1.41391,1.33388 0.38174,0.33822 0.69626,0.75208 0.69626,0.91616 0,0.0839 0.041,0.15257 0.091,0.15257 0.13455,0 0.22999,0.62862 0.2833,1.86587 0.026,0.60448 0.0864,1.09906 0.13414,1.09906 0.0477,0 0.11238,0.26455 0.14368,0.58788 0.0725,0.74894 0.22919,1.93401 0.36841,2.78601 0.0597,0.3655 0.12985,0.87158 0.15585,1.12462 0.026,0.25305 0.094,0.88383 0.15109,1.40176 0.20594,1.86783 0.1161,3.40455 -0.30956,5.29489 -0.0633,0.28116 -0.13905,0.68372 -0.16832,0.89459 -0.0292,0.21087 -0.0944,0.38339 -0.14471,0.38339 -0.0503,0 -0.0915,0.13531 -0.0915,0.30069 0,0.16537 -0.046,0.32912 -0.10224,0.36387 -0.0562,0.0347 -0.10224,0.17277 -0.10224,0.30671 0,0.13395 -0.046,0.27197 -0.10223,0.30672 -0.0562,0.0347 -0.10225,0.15249 -0.10225,0.26163 0,0.10915 -0.046,0.19845 -0.10223,0.19845 -0.0562,0 -0.10224,0.13802 -0.10224,0.30671 0,0.1687 -0.046,0.30672 -0.10224,0.30672 -0.0562,0 -0.1037,0.12652 -0.10549,0.28115 -0.002,0.15464 -0.0668,0.36496 -0.14441,0.46738 -0.13113,0.173 -0.19441,0.1323 -0.89134,-0.5734 z m 5.95545,-1.57856 c -0.18656,-0.0352 -0.21205,-0.0678 -0.10469,-0.13419 0.11718,-0.0724 0.10644,-0.13764 -0.0616,-0.37411 -0.11192,-0.15753 -0.26594,-0.42443 -0.34227,-0.59312 -0.0763,-0.1687 -0.1991,-0.42359 -0.27281,-0.56644 -0.31448,-0.60944 -0.85816,-2.33841 -0.93927,-2.98701 -0.0264,-0.21122 -0.0892,-0.40946 -0.13946,-0.44054 -0.0503,-0.0311 -0.0914,-0.18911 -0.0914,-0.35116 0,-0.16206 -0.046,-0.32309 -0.10224,-0.35784 -0.0562,-0.0347 -0.10224,-0.32732 -0.10224,-0.65014 0,-0.32283 -0.0423,-0.63066 -0.094,-0.68408 -0.14603,-0.15094 -0.21387,-1.23433 -0.32297,-5.15795 -0.0555,-1.99622 -0.11564,-3.94399 -0.13364,-4.32838 -0.0342,-0.72942 0.0956,-1.27694 0.3819,-1.61129 0.0928,-0.10835 0.16868,-0.26165 0.16868,-0.34067 0,-0.079 0.0374,-0.15901 0.0832,-0.17775 0.0457,-0.0187 0.33128,-0.35613 0.6345,-0.74975 0.73812,-0.95816 0.71823,-0.93379 1.09706,-1.34437 0.18275,-0.19807 0.33228,-0.3907 0.33228,-0.42808 0,-0.0374 0.17871,-0.26345 0.39714,-0.50241 l 0.39715,-0.43447 h 1.04212 1.04213 l 0.3983,0.43451 c 0.21906,0.23899 0.39952,0.48187 0.40102,0.53975 0.002,0.0579 0.0948,0.17155 0.20722,0.2526 0.11246,0.0811 0.20447,0.22924 0.20447,0.32929 0,0.10005 0.046,0.18191 0.10224,0.18191 0.0562,0 0.10224,0.0709 0.10224,0.15763 0,0.0867 0.092,0.2564 0.20448,0.37712 0.11246,0.12071 0.20447,0.27981 0.20447,0.35356 0,0.0737 0.046,0.13408 0.10225,0.13408 0.0562,0 0.10223,0.069 0.10223,0.15336 0,0.0844 0.046,0.15335 0.10224,0.15335 0.0562,0 0.10224,0.092 0.10224,0.20448 0,0.11247 0.046,0.20448 0.10224,0.20448 0.0562,0 0.10224,0.0882 0.10224,0.19596 0,0.10778 0.0435,0.21129 0.0966,0.23003 0.21867,0.0772 0.032,3.71637 -0.2265,4.41499 -0.0593,0.16023 -0.11913,0.68932 -0.13299,1.17574 -0.0139,0.48643 -0.0789,1.11444 -0.14445,1.3956 -0.0656,0.28116 -0.15869,0.83325 -0.20689,1.22687 -0.12103,0.98853 -0.21113,1.38022 -0.3175,1.38022 -0.0498,0 -0.0906,0.20703 -0.0906,0.46007 0,0.25305 -0.0412,0.46008 -0.0915,0.46008 -0.0503,0 -0.11432,0.17253 -0.1422,0.3834 -0.0769,0.58165 -0.41327,1.69526 -0.55805,1.8476 -0.0706,0.0743 -0.1284,0.19498 -0.1284,0.26816 0,0.14765 -0.313,0.91768 -0.6192,1.52338 -0.10929,0.21618 -0.19871,0.44756 -0.19871,0.51418 0,0.0666 -0.092,0.18745 -0.20448,0.26851 -0.11246,0.0811 -0.20448,0.22924 -0.20448,0.32929 0,0.10004 -0.046,0.1819 -0.10223,0.1819 -0.0562,0 -0.10225,0.0709 -0.10225,0.15763 0,0.0867 -0.092,0.25641 -0.20447,0.37712 -0.11246,0.12071 -0.20448,0.28146 -0.20448,0.35722 0,0.0757 -0.10352,0.25161 -0.23004,0.3908 -0.55806,0.61393 -0.64707,0.72655 -0.78407,0.99205 -0.0798,0.15463 -0.1718,0.27489 -0.20447,0.26723 -0.0327,-0.008 -0.17038,-0.0348 -0.30602,-0.0604 z m 1.72908,-8.80954 c 0,-0.16268 -0.0644,-0.32049 -0.14314,-0.3507 -0.10554,-0.0405 -0.14313,0.0372 -0.14313,0.29577 0,0.23245 0.0483,0.35071 0.14313,0.35071 0.0897,0 0.14314,-0.11041 0.14314,-0.29578 z m 1.04644,-2.49367 c -0.0536,-0.0684 -0.12455,-0.26742 -0.15759,-0.44226 -0.0625,-0.33079 0.0531,-0.44486 0.60667,-0.59875 0.11964,-0.0333 0.34853,-0.17302 0.50863,-0.31059 0.1891,-0.16249 0.32602,-0.2152 0.39079,-0.15044 0.23003,0.23004 0.36551,0.0965 0.36551,-0.36038 0,-0.39192 -0.0303,-0.46008 -0.20448,-0.46008 -0.11246,0 -0.20448,0.046 -0.20448,0.10224 0,0.0562 -0.12652,0.1037 -0.28115,0.10549 -0.34081,0.004 -0.639,0.21274 -0.639,0.44744 0,0.21163 -0.49837,0.66628 -0.7352,0.67071 -0.18503,0.003 -0.37283,0.20771 -0.19098,0.20771 0.0595,0 0.10827,0.092 0.10827,0.20448 0,0.11246 0.046,0.20447 0.10224,0.20447 0.0562,0 0.10224,0.13419 0.10224,0.2982 0,0.16401 0.0575,0.31813 0.1278,0.3425 0.16521,0.0573 0.22623,-0.10069 0.10073,-0.26074 z m 0.98449,-0.23703 c 0.15303,-0.33588 0.15011,-0.3474 -0.0884,-0.3474 -0.11247,0 -0.20448,-0.046 -0.20448,-0.10224 0,-0.0562 -0.046,-0.10224 -0.10224,-0.10224 -0.11287,0 -0.13244,0.33706 -0.0396,0.68304 0.0734,0.27371 0.27847,0.21184 0.43476,-0.13116 z m 2.40332,8.91892 c -0.0635,-0.0725 -0.13972,-0.31231 -0.16946,-0.53286 -0.0298,-0.22056 -0.10929,-0.62527 -0.17677,-0.89937 -0.1316,-0.53454 -0.0517,-0.69891 0.29546,-0.60811 0.093,0.0243 0.27419,0.005 0.40267,-0.0422 0.23154,-0.0856 0.23187,-0.0884 0.0377,-0.31234 -0.20989,-0.24201 -0.73219,-0.31151 -0.73738,-0.0981 -0.002,0.0833 -0.033,0.0744 -0.0891,-0.0255 -0.23051,-0.41094 -0.38407,-3.82165 -0.19448,-4.3196 0.0825,-0.21681 0.17441,-0.28115 0.40136,-0.28115 0.22493,0 0.29432,-0.0476 0.29432,-0.20195 0,-0.17234 -0.0369,-0.18791 -0.25172,-0.10625 -0.23009,0.0875 -0.25673,0.0675 -0.31005,-0.23256 -0.0963,-0.54179 0.0273,-1.80935 0.26128,-2.67977 0.12092,-0.44985 0.24303,-0.96743 0.27135,-1.15019 0.0283,-0.18275 0.0925,-0.33227 0.14256,-0.33227 0.0501,0 0.091,-0.13802 0.091,-0.30672 0,-0.16869 0.046,-0.30672 0.10224,-0.30672 0.0562,0 0.10224,-0.13864 0.10224,-0.3081 0,-0.16946 0.0432,-0.38799 0.096,-0.48564 0.0528,-0.0976 0.20231,-0.54025 0.33228,-0.98359 0.23014,-0.78507 0.69755,-1.49431 0.98478,-1.49431 0.0663,0 0.12055,-0.046 0.12055,-0.10224 0,-0.0562 0.092,-0.10224 0.20447,-0.10224 0.11247,0 0.20448,-0.0359 0.20448,-0.0797 0,-0.0828 1.73318,-0.97932 2.10069,-1.08667 0.13328,-0.0389 0.51658,0.0875 1.05555,0.34813 0.46546,0.22509 0.91188,0.40926 0.99204,0.40926 0.0802,0 0.14575,0.0429 0.14575,0.0953 0,0.0524 0.0897,0.1238 0.19927,0.15859 0.22194,0.0704 0.17624,0.35949 -0.0568,0.35949 -0.2866,0 -0.087,0.25453 0.39434,0.50291 0.28557,0.14735 0.3644,0.35372 0.17892,0.46836 -0.19225,0.11881 -0.10243,0.42611 0.20447,0.69956 0.1687,0.15031 0.30602,0.35344 0.30516,0.45141 -0.002,0.20846 -0.19889,0.55789 -0.20135,0.35705 -7.8e-4,-0.0703 -0.11996,-0.1278 -0.26466,-0.1278 -0.19532,0 -0.25436,0.0461 -0.22919,0.17892 0.0237,0.1249 0.14901,0.18848 0.41511,0.21057 0.33191,0.0276 0.39237,0.0738 0.4676,0.35784 0.0843,0.31844 0.0177,0.75358 -0.20217,1.3194 -0.0899,0.23135 -0.13054,0.25485 -0.24421,0.14118 -0.075,-0.075 -0.11271,-0.22689 -0.0838,-0.33752 0.0611,-0.23352 -0.25002,-0.47475 -0.73411,-0.56928 -0.45535,-0.0889 -0.63489,0.0502 -0.46777,0.36246 0.0723,0.13503 0.1222,0.31055 0.11096,0.39004 -0.0495,0.35013 0.0136,0.50237 0.20826,0.50237 0.11247,0 0.20448,-0.046 0.20448,-0.10224 0,-0.15731 0.4705,-0.12111 0.60996,0.0469 0.12295,0.14815 0.0651,0.70677 -0.0957,0.92433 -0.0416,0.0562 -0.13831,0.32078 -0.21499,0.58788 -0.0767,0.2671 -0.17538,0.48564 -0.21934,0.48564 -0.0439,0 -0.0799,0.092 -0.0799,0.20447 0,0.11247 -0.046,0.20448 -0.10224,0.20448 -0.0562,0 -0.10224,0.092 -0.10224,0.20448 0,0.11246 -0.046,0.20448 -0.10223,0.20448 -0.0562,0 -0.10224,0.11501 -0.10224,0.25559 0,0.20789 -0.0502,0.2556 -0.26906,0.2556 -0.25648,0 -0.2664,0.0198 -0.21219,0.42397 0.0543,0.40464 -0.12329,0.8896 -0.752,2.05394 -0.0527,0.0976 -0.0959,0.24716 -0.0959,0.33227 0,0.0851 -0.0348,0.15475 -0.0773,0.15475 -0.0425,0 -0.14254,0.14952 -0.22231,0.33227 -0.0798,0.18276 -0.21802,0.40129 -0.30724,0.48564 -0.0892,0.0844 -0.288,0.3225 -0.44172,0.52924 -0.33083,0.44492 -1.47707,1.61659 -1.58533,1.62051 -0.0415,0.002 -0.26574,0.17403 -0.49832,0.38339 -0.66496,0.59861 -0.84911,0.7385 -0.97209,0.7385 -0.0631,0 -0.18905,0.0848 -0.27999,0.18843 -0.14479,0.165 -0.55337,0.43207 -0.64426,0.42112 -0.0178,-0.002 -0.0842,-0.0632 -0.14767,-0.13575 z m 3.56742,-4.41998 c 0.0995,-0.0995 -0.0371,-0.34785 -0.19134,-0.34785 -0.0783,0 -0.14241,0.0614 -0.14241,0.13632 0,0.22645 0.19515,0.35012 0.33375,0.21153 z m -0.74271,-0.7568 c 0,-0.11246 0.0369,-0.20448 0.082,-0.20448 0.0451,0 0.0865,-0.16113 0.0921,-0.35807 0.008,-0.27955 -0.0509,-0.40155 -0.26822,-0.5563 -0.27547,-0.19615 -0.27987,-0.19614 -0.42141,2.1e-4 -0.0842,0.11674 -0.27057,0.20178 -0.45275,0.20653 -0.17034,0.004 -0.2522,0.0313 -0.18191,0.0596 0.0703,0.0284 0.1278,0.10681 0.1278,0.17432 0,0.19907 0.64887,0.87536 0.84347,0.87913 0.11191,0.002 0.17892,-0.0731 0.17892,-0.20102 z m 2.59856,-3.10365 c -0.0355,-0.0924 -0.1586,-0.168 -0.27365,-0.168 -0.20167,0 -0.20069,0.007 0.0273,0.20513 0.26287,0.22798 0.3434,0.21584 0.24632,-0.0371 z m 0.67308,-0.27023 c 0,-0.0562 -0.069,-0.10224 -0.15335,-0.10224 -0.0844,0 -0.15336,0.046 -0.15336,0.10224 0,0.0562 0.069,0.10223 0.15336,0.10223 0.0843,0 0.15335,-0.046 0.15335,-0.10223 z m 0.38856,-6.23543 c -0.0288,-0.4775 -0.20128,-0.73264 -0.34174,-0.50538 -0.11913,0.19276 0.14717,1.01543 0.3287,1.01543 0.0241,0 0.0299,-0.22952 0.013,-0.51005 z"
       id="path847"
       sodipodi:nodetypes="cssssssssssssssscssssssssssssssssscssssscsssssscssssscsscccssssssssssssssssssssssssssssssssssssssscssssssssssssssssscscsccccscssscssssscssssssssssssssssscsssssssssssssssssssssssssssssssssssssssssssssssssssssssssssssssssssssssssssscscssssssssssssssssssscssssssssssssssssssssssssssscccccsssscsccssssssssssscssscsscsccssssssssssssssssssssssscssscsssscssssssssssssssssssssssssssssssssssssssssssssssssssssssssssssssssssscsssccsssssscssssccsssssssssssssssssscssssssssssssssssssssssscsssscssssssssssssscssssssssscsscsscscsssssssssssssssssssssscsssssssssscsscccsssscssssssssscsssssssssssscsssssssssssscssssssscssssssssssssscscssssccssssssssssscsccssssscsccsssssssssssssssssssss" />
  </g>
</svg>
