<?xml version="1.0" encoding="UTF-8" standalone="no"?>
<!-- Generator: Adobe Illustrator 24.1.0, SVG Export Plug-In  -->

<svg
   xmlns:dc="http://purl.org/dc/elements/1.1/"
   xmlns:cc="http://creativecommons.org/ns#"
   xmlns:rdf="http://www.w3.org/1999/02/22-rdf-syntax-ns#"
   xmlns:svg="http://www.w3.org/2000/svg"
   xmlns="http://www.w3.org/2000/svg"
   xmlns:sodipodi="http://sodipodi.sourceforge.net/DTD/sodipodi-0.dtd"
   xmlns:inkscape="http://www.inkscape.org/namespaces/inkscape"
   version="1.1"
   x="0px"
   y="0px"
   width="212.45399"
   height="212.45399"
   viewBox="0 0 212.454 212.45399"
   xml:space="preserve"
   id="svg10"
   sodipodi:docname="maggotkin_of_nurgle.svg"
   inkscape:version="0.92.3 (2405546, 2018-03-11)"><metadata
   id="metadata14"><rdf:RDF><cc:Work
       rdf:about=""><dc:format>image/svg+xml</dc:format><dc:type
         rdf:resource="http://purl.org/dc/dcmitype/StillImage" /><dc:title /></cc:Work></rdf:RDF></metadata><sodipodi:namedview
   pagecolor="#ffffff"
   bordercolor="#666666"
   borderopacity="1"
   objecttolerance="10"
   gridtolerance="10"
   guidetolerance="10"
   inkscape:pageopacity="0"
   inkscape:pageshadow="2"
   inkscape:window-width="1920"
   inkscape:window-height="1017"
   id="namedview12"
   showgrid="false"
   inkscape:zoom="1.1232746"
   inkscape:cx="-330.42972"
   inkscape:cy="105.05"
   inkscape:window-x="-8"
   inkscape:window-y="-8"
   inkscape:window-maximized="1"
   inkscape:current-layer="svg10" />
<defs
   id="defs2">
</defs>
<g
   id="g8"
   transform="translate(-0.01986168,1.1641077)"
   style="fill:#000000;fill-opacity:1">
	<g
   id="g6"
   style="fill:#000000;fill-opacity:1">
		<path
   d="m 22.47,151.49 c 1.45,1.05 2.67,2.43 4.18,2.9 1.82,0.57 2.72,1.43 2.96,3.25 0.07,0.52 0.5,1.04 0.89,1.44 0.2,0.21 0.81,0.33 1.01,0.18 1.48,-1.08 3.2,-2.01 4.29,-3.42 2.78,-3.62 5.79,-7 9.25,-9.97 2.05,-1.76 4.17,-3.41 5.69,-5.72 1,-1.52 2.17,-2.92 3.34,-4.32 0.65,-0.77 1.5,-1.37 2.17,-2.13 0.47,-0.54 0.86,-1.18 1.1,-1.84 0.08,-0.21 -0.44,-0.92 -0.72,-0.94 -4.94,-0.27 -9.38,-2 -13.67,-4.35 -1.45,-0.79 -3.23,-0.96 -4.73,-1.66 -1.46,-0.69 -3.15,-1.24 -3.49,-3.3 -0.1,-0.58 -0.87,-1.22 -1.48,-1.52 -2.94,-1.47 -5.44,-3.27 -6.5,-6.63 -0.42,-1.32 -1.32,-2.49 -2.01,-3.73 -1.87,-3.37 -3.79,-6.71 -5.56,-10.14 -0.42,-0.82 -0.36,-1.89 -0.47,-2.86 -0.31,-2.64 0.24,-5.25 0.34,-7.87 0.13,-3.5 0.06,-7 0.05,-10.5 0,-0.43 -0.03,-0.97 -0.27,-1.29 -0.82,-1.09 -0.31,-1.97 0.27,-2.88 1.78,-2.8 3.56,-5.6 5.34,-8.4 0.12,-0.19 0.31,-0.36 0.34,-0.56 0.47,-2.87 2.67,-4.49 4.56,-6.34 1.01,-0.99 1.96,-2.05 2.88,-3.13 1.87,-2.23 4.28,-3.64 6.88,-4.86 2.8,-1.32 5.46,-2.94 8.53,-3.65 0.79,-0.18 1.55,-0.69 2.22,-1.18 1.13,-0.83 2.38,-0.84 3.67,-0.82 1.24,0.02 2.49,0.01 3.73,0.02 1.36,0.01 2.73,-0.16 3.96,0.74 0.4,0.29 1.02,0.41 1.53,0.37 2.52,-0.19 4.89,0.54 7.31,1.03 0.77,0.16 1.58,0.19 2.37,0.23 1.4,0.06 2.85,-0.18 4.1,0.74 0.17,0.12 0.45,0.23 0.63,0.18 2.18,-0.62 3.93,0.69 5.68,1.5 1.56,0.72 2.86,2.05 4.17,3.23 2.01,1.8 3.98,3.66 5.88,5.58 1.38,1.39 3.05,2.56 3.59,4.66 0.3,1.16 1.56,1.8 2.75,1.6 1.31,-0.22 2.08,-1.09 2.16,-2.35 0.19,-2.84 0.23,-5.68 0.36,-8.52 0.06,-1.42 0.23,-2.84 0.23,-4.26 0,-0.91 -0.22,-1.82 -0.33,-2.66 -1.16,0.14 -2.14,0.26 -3.12,0.39 -0.21,0.03 -0.48,0.07 -0.6,0.21 -1.13,1.33 -2.62,0.97 -3.98,0.72 -0.61,-0.11 -1.36,-0.78 -1.57,-1.37 -0.19,-0.52 0.18,-1.32 0.49,-1.91 0.54,-1.04 1.21,-2 1.82,-3 0.28,-0.45 0.58,-0.89 0.84,-1.35 0.94,-1.72 1.87,-3.45 2.79,-5.17 0.48,-0.89 0.96,-1.77 1.41,-2.67 1.2,-2.42 2.37,-4.84 3.57,-7.26 1.91,-3.85 3.84,-7.7 5.75,-11.55 0.76,-1.54 1.48,-3.11 2.24,-4.66 0.15,-0.31 0.4,-0.71 0.68,-0.79 1.29,-0.36 1.26,-1.32 1.18,-2.32 -0.13,-1.64 0.46,-2.91 1.7,-3.99 0.72,-0.64 1.22,-1.52 1.89,-2.23 0.22,-0.23 0.78,-0.46 0.97,-0.34 1.49,0.93 2.96,1.76 3.42,3.8 0.49,2.2 1.37,4.31 1.15,6.63 -0.02,0.16 0.04,0.36 0.13,0.5 1.49,2.21 1.93,4.76 2.5,7.29 0.65,2.88 1.56,5.7 2.49,8.5 0.99,3 2.1,5.96 3.24,8.91 0.56,1.45 1.45,2.78 1.96,4.24 0.66,1.89 1.2,3.84 1.58,5.8 0.22,1.16 0.05,2.39 0.05,3.59 0,2.15 -0.79,3.07 -2.94,3.34 -0.39,0.05 -0.8,0.04 -1.2,0.04 -1.1,0 -2.21,0 -3.6,0 0.15,3.41 0.29,6.75 0.42,10.09 0.03,0.66 -0.04,1.33 -0.04,1.99 0,0.62 -0.05,1.26 0.09,1.84 0.24,0.96 1.12,1.27 1.82,0.56 1.05,-1.06 2.16,-1.88 3.65,-2.26 0.54,-0.14 1.08,-0.67 1.41,-1.16 2.06,-3.07 5.25,-4.56 8.45,-5.93 4.21,-1.81 8.77,-2.07 13.24,-2.8 5.6,-0.92 10.87,-0.08 16.11,1.67 0.29,0.1 0.6,0.17 0.9,0.26 1.81,0.52 3.44,1.1 5.01,2.41 2.63,2.19 5.82,3.71 8.66,5.67 1.16,0.8 2.12,1.96 3.01,3.08 1.15,1.46 2.06,3.12 3.23,4.56 0.77,0.96 1.33,1.98 1.15,3.14 -0.29,1.85 0.75,2.93 2.06,3.67 1.56,0.88 1.97,2.16 2.21,3.79 0.52,3.51 1.24,7 1.87,10.5 0.07,0.39 0.21,0.8 0.16,1.18 -0.56,4.49 -0.74,9.08 -1.89,13.42 -0.77,2.9 -2.87,5.46 -4.47,8.12 -1.4,2.32 -2.91,4.57 -4.43,6.82 -0.47,0.68 -1.04,1.38 -1.72,1.82 -6.05,3.91 -12.17,7.7 -19.15,9.78 -0.08,0.03 -0.17,0.05 -0.25,0.1 -2.27,1.36 -4.64,2.19 -7.37,2.09 -1.33,-0.05 -1.82,1.39 -0.89,2.42 2.22,2.45 4.75,4.45 7.7,6.05 1.68,0.91 3.2,2.44 4.31,4.03 1.63,2.34 3.6,3.97 6.29,4.8 0.13,0.04 0.29,0.02 0.39,0.09 2.12,1.63 3.49,0.09 4.95,-1.15 0.46,-0.39 0.98,-0.72 1.42,-1.13 0.19,-0.18 0.31,-0.5 0.34,-0.77 0.06,-0.44 -0.01,-0.89 0.02,-1.33 0.12,-1.8 0.96,-2.86 2.31,-2.94 1.72,-0.1 2.85,0.9 3.43,2.5 0.7,1.9 1.71,3.68 2.55,5.54 0.47,1.04 0.88,2.11 1.28,3.18 0.64,1.74 1.2,3.52 1.91,5.24 0.26,0.62 0.76,1.23 1.31,1.62 2.53,1.79 3.62,4.51 4.84,7.18 1.03,2.27 2.11,4.53 3.26,6.75 0.54,1.04 1.41,1.91 1.93,2.96 0.42,0.85 0.58,1.84 0.75,2.78 0.58,3.24 1.96,6.15 3.49,9.02 0.22,0.4 0.37,1.22 0.17,1.38 -0.38,0.31 -1.21,0.57 -1.53,0.36 -1.49,-0.97 -3.14,-1.23 -4.84,-1.41 -0.24,-0.02 -0.52,-0.21 -0.67,-0.41 -1.15,-1.6 -2.76,-1.88 -4.58,-1.77 -0.65,0.04 -1.35,-0.06 -1.95,-0.29 -2.61,-0.97 -5.31,-1.26 -8.07,-1.33 -3.47,-0.08 -6.93,-0.16 -10.39,-0.39 -5.13,-0.33 -10.27,-0.72 -15.38,-1.24 -1.02,-0.1 -1.97,-0.9 -2.92,-1.37 0.38,-1.4 0.69,-2.68 1.1,-3.92 0.13,-0.38 0.55,-0.67 0.88,-0.96 0.93,-0.82 1.9,-1.6 2.81,-2.45 0.76,-0.7 0.95,-1.55 0.13,-2.32 -0.89,-0.83 -1.84,-1.62 -2.83,-2.34 -2.79,-2.04 -5.6,-4.07 -8.45,-6.04 -0.75,-0.52 -1.66,-0.79 -2.45,-1.26 -0.32,-0.19 -0.46,-0.64 -0.74,-0.92 -0.38,-0.37 -0.85,-0.98 -1.21,-0.93 -0.4,0.05 -1.01,0.73 -1.01,1.14 -0.05,4.94 -1.69,9.51 -3.14,14.12 -0.48,1.51 -1.22,2.95 -1.92,4.38 -0.13,0.28 -0.62,0.43 -0.97,0.54 -0.68,0.21 -1.4,0.29 -2.06,0.53 -2.76,1.02 -3.15,1.7 -3.3,4.61 -0.05,0.89 -0.81,1.74 -0.91,2.65 -0.15,1.41 -0.96,2.34 -1.77,3.34 -1.47,1.83 -3.61,2.56 -5.65,3.32 -1.53,0.57 -3.03,0.92 -3.91,2.48 -0.24,0.41 -0.79,0.72 -1.26,0.91 -5.23,2.17 -10.58,3.86 -16.25,4.46 -2.82,0.3 -5.61,0.82 -8.42,1.21 -0.65,0.09 -1.33,0.12 -1.98,0.05 -1.24,-0.14 -2.46,-0.54 -3.69,-0.54 -4.66,0 -8.41,-2.52 -12.44,-4.31 -1.32,-0.59 -2.82,-0.8 -4.13,-1.39 -1.53,-0.69 -3.22,-1.25 -3.59,-3.35 -0.1,-0.58 -0.89,-1.19 -1.5,-1.5 -2.94,-1.48 -5.41,-3.3 -6.5,-6.64 -0.46,-1.4 -1.38,-2.67 -2.18,-3.94 -2.23,-3.52 -4.43,-7.06 -5.66,-11.09 -0.2,-0.65 -0.08,-1.4 -0.15,-2.1 -0.1,-0.96 -0.16,-1.94 -0.39,-2.88 -0.08,-0.32 -0.61,-0.73 -0.95,-0.74 -0.35,-0.01 -0.76,0.36 -1.05,0.66 -0.57,0.57 -1.04,1.23 -1.6,1.81 -0.94,0.97 -1.89,1.94 -2.89,2.85 -0.34,0.31 -0.84,0.63 -1.27,0.65 -2.42,0.07 -3.56,1.09 -3.5,3.49 0.03,1.03 0.41,2.05 0.57,3.08 0.14,0.88 0.08,1.81 0.3,2.66 0.16,0.6 0.55,1.21 0.99,1.66 0.94,0.95 1.36,1.99 0.85,3.25 -0.49,1.23 -1.49,1.62 -2.77,1.67 -0.81,0.03 -1.61,0.34 -2.41,0.51 -0.9,0.2 -1.8,0.39 -2.7,0.6 -0.59,0.14 -1.17,0.32 -1.75,0.46 -1.02,0.25 -2.06,0.46 -3.07,0.75 -1.05,0.29 -2.12,0.57 -3.13,0.99 -1.46,0.61 -2.84,1.44 -4.33,1.99 -0.93,0.34 -1.99,0.47 -2.99,0.47 -4.31,0.01 -8.63,0.01 -12.93,-0.16 -2.09,-0.08 -3.93,0.37 -5.67,1.47 -0.96,0.6 -1.85,0.87 -3.08,0.33 -1.08,-0.47 -2.43,-0.33 -3.66,-0.49 -0.49,-0.06 -0.97,-0.18 -1.45,-0.27 0.12,-0.63 0.12,-1.33 0.41,-1.86 0.39,-0.72 1.15,-1.25 1.52,-1.98 2.9,-5.69 5.81,-11.37 8.58,-17.13 2.36,-4.91 4.67,-9.86 6.74,-14.91 0.79,-1.94 2.1,-3.47 3.01,-5.26 0.83,-1.63 1.15,-3.52 1.67,-5.3 0.19,-0.73 0.36,-1.46 0.52,-2.09 z M 181.01,95.21 c 0.15,-12.56 -9.76,-23.18 -22.25,-23.52 -9.96,-0.27 -17.23,4.61 -22.45,12.79 -1,1.57 -1.84,3.41 -2.15,5.22 -0.4,2.38 -0.19,4.86 -0.28,7.3 -0.02,0.65 -0.02,1.37 -0.29,1.94 -0.84,1.79 -0.97,3.66 -0.26,5.42 0.87,2.16 1.86,4.33 3.16,6.25 1.5,2.21 3.17,4.42 6.1,5 0.31,0.06 0.6,0.36 0.85,0.59 0.84,0.78 1.59,1.69 2.52,2.35 1.55,1.1 3.15,2.14 5.22,2.01 1.06,-0.07 2.13,0.17 3.19,0.1 1.79,-0.12 3.83,0.26 5.19,-1.16 1.36,-1.43 3.03,-1.91 4.76,-2.43 10.18,-3.01 16.41,-11.97 16.69,-21.86 z M 80.65,160.18 c 0.18,1.85 0.2,3.73 0.6,5.53 0.59,2.66 1.44,5.26 2.22,7.88 0.64,2.18 1.34,4.33 3.09,5.93 0.85,0.78 1.75,1.5 2.58,2.3 3.39,3.28 7.41,5.23 12.04,6.11 12.56,2.36 25.98,-7.71 25.98,-21.13 0,-3.23 -0.04,-6.49 -1.72,-9.44 -0.74,-1.31 -1.55,-2.64 -1.99,-4.06 -1.22,-3.99 -3.64,-6.95 -7.23,-8.98 -0.83,-0.47 -1.72,-0.94 -2.64,-1.13 -2.6,-0.55 -5.25,-0.41 -7.92,-1.01 -3.02,-0.67 -6.52,-1.09 -9.58,0.78 -0.31,0.19 -0.79,0.23 -1.16,0.18 -2.02,-0.27 -3.63,0.74 -5.41,1.46 -4.18,1.69 -6.01,5.24 -7.86,8.92 -1.1,2.17 -0.75,4.41 -1,6.66 z M 41.59,90.2 c -0.91,3.87 0.99,7.37 3.41,10.63 1.36,1.83 3.26,3.26 4.6,5.1 1.34,1.85 3.1,3 5,4.05 0.77,0.43 1.56,1.07 2.37,1.1 3.48,0.14 6.98,0.59 10.44,-0.39 1.34,-0.38 2.78,-0.4 4.17,-0.55 1.69,-0.18 3.61,0.38 4.99,-0.93 2.52,-2.41 5.06,-4.84 7.26,-7.53 1.3,-1.59 2.27,-3.53 1.97,-5.9 -0.24,-1.87 0.08,-3.8 0.02,-5.7 -0.1,-2.94 0.06,-5.93 -1.71,-8.59 -0.8,-1.2 -1.21,-2.64 -1.94,-3.9 -1.1,-1.92 -2.14,-3.91 -3.53,-5.61 -2.55,-3.11 -5.69,-5.52 -9.74,-6.36 -13.09,-2.72 -25.29,7.1 -27.29,20.14 -0.19,1.3 -0.02,2.66 -0.02,4.44 z"
   id="path4"
   inkscape:connector-curvature="0"
   style="fill:#000000;fill-opacity:1" />
	</g>
</g>
</svg>