<?xml version="1.0" encoding="UTF-8" standalone="no"?>
<!-- Generator: Adobe Illustrator 25.0.1, SVG Export Plug-In  -->

<svg
   xmlns:dc="http://purl.org/dc/elements/1.1/"
   xmlns:cc="http://creativecommons.org/ns#"
   xmlns:rdf="http://www.w3.org/1999/02/22-rdf-syntax-ns#"
   xmlns:svg="http://www.w3.org/2000/svg"
   xmlns="http://www.w3.org/2000/svg"
   xmlns:sodipodi="http://sodipodi.sourceforge.net/DTD/sodipodi-0.dtd"
   xmlns:inkscape="http://www.inkscape.org/namespaces/inkscape"
   version="1.1"
   x="0px"
   y="0px"
   width="232.175"
   height="232.175"
   viewBox="0 0 232.175 232.17501"
   style="overflow:visible"
   xml:space="preserve"
   id="svg14"
   sodipodi:docname="nurgle_rotbringers.svg"
   inkscape:version="0.92.3 (2405546, 2018-03-11)"><metadata
   id="metadata18"><rdf:RDF><cc:Work
       rdf:about=""><dc:format>image/svg+xml</dc:format><dc:type
         rdf:resource="http://purl.org/dc/dcmitype/StillImage" /><dc:title /></cc:Work></rdf:RDF></metadata><sodipodi:namedview
   pagecolor="#ffffff"
   bordercolor="#666666"
   borderopacity="1"
   objecttolerance="10"
   gridtolerance="10"
   guidetolerance="10"
   inkscape:pageopacity="0"
   inkscape:pageshadow="2"
   inkscape:window-width="1920"
   inkscape:window-height="1017"
   id="namedview16"
   showgrid="false"
   inkscape:zoom="1.0164528"
   inkscape:cx="-212.25766"
   inkscape:cy="116.09"
   inkscape:window-x="-8"
   inkscape:window-y="-8"
   inkscape:window-maximized="1"
   inkscape:current-layer="svg14" />
<defs
   id="defs2">
</defs>
<g
   id="g12"
   transform="translate(25.819265,7.5007762e-4)"
   style="fill:#000000;fill-opacity:1">
	<path
   d="m 134.31,219.61 c -1.8,-2.22 -3.02,-3.73 -4.89,-6.03 -1.11,1.7 -2.52,3.03 -2.9,4.61 -1.43,5.92 -1.3,5.96 -6.88,9.57 -0.2,-1.98 -0.03,-3.78 -0.63,-5.28 -0.68,-1.69 -2.04,-3.11 -3.11,-4.64 -1.23,1.44 -2.86,2.7 -3.61,4.36 -1.14,2.51 -1.23,5.56 -2.64,7.84 -0.82,1.31 -3.64,2.48 -5.04,2.04 -1.63,-0.5 -2.92,-2.7 -3.9,-4.42 -0.61,-1.06 0.08,-2.96 -0.62,-3.85 -0.96,-1.21 -2.66,-2.39 -4.1,-2.46 -0.95,-0.05 -2.18,1.75 -2.95,2.94 -0.42,0.65 -0.13,1.74 -0.22,2.63 -0.19,1.78 0.58,4.35 -2.63,3.99 -2.6,-0.3 -6.09,0.67 -6.54,-3.58 -0.18,-1.77 0.27,-3.71 -0.31,-5.29 -0.56,-1.53 -2.09,-2.7 -3.19,-4.02 -1.26,1.22 -3.14,2.23 -3.62,3.7 -0.69,2.13 -0.36,4.59 -0.48,7.13 -3.93,-0.34 -5.47,-2.65 -6.28,-5.63 -0.35,-1.28 -0.08,-2.78 -0.61,-3.94 -0.48,-1.04 -1.57,-2.16 -2.62,-2.45 -0.64,-0.18 -1.96,0.94 -2.52,1.79 -1.59,2.41 -2.95,4.97 -4.97,8.45 -3.79,-7.33 -6.37,-13.3 -5.61,-20.05 0.75,-6.59 -0.19,-12.68 -3.93,-18.26 -0.56,-0.83 -0.84,-1.88 -1.09,-2.87 -2.49,-9.67 -11.15,-15.21 -20.85,-13.18 -3.94,0.82 -7.17,1.26 -9.26,-3.62 -1.47,-3.43 -4.77,-6.02 -6.74,-9.31 -2,-3.33 -3.77,-6.93 -4.9,-10.63 -2.23,-7.3 -3.98,-14.74 -5.86,-22.14 -1.08,-4.25 -1.72,-8.1 2.48,-11.66 C 8.23,111.17 8.62,103.98 6.3,97.84 4.92,94.2 4.64,90.02 4.5,86.06 4.36,82.24 4.79,78.35 5.41,74.56 6.92,65.25 6.81,55.07 10.77,46.9 16.74,34.6 23.5,21.78 35.9,14.38 42.77,10.29 50.65,7.56 58.39,5.35 c 17.4,-4.96 35.14,-6.38 53.29,-4.64 10.55,1.01 19.77,4.76 28.67,9.79 5.84,3.3 11.77,6.76 16.74,11.18 4.43,3.94 8.2,8.95 11.14,14.13 2.48,4.36 3.66,9.57 4.84,14.54 2.48,10.51 5.63,21.02 6.55,31.69 0.9,10.53 -0.73,21.26 -1.05,31.91 -0.27,8.91 -0.29,17.82 -0.38,26.73 -0.01,0.88 -0.05,2.01 0.43,2.61 4.06,5.04 0.83,9.01 -2.14,12.58 -6.15,7.38 -12.39,14.79 -21.37,18.99 -1.34,0.63 -3.27,0.98 -4.59,0.52 -6.29,-2.18 -8.26,-1.57 -9.93,5.09 -1.49,5.95 -2.16,12.12 -2.97,18.22 -0.44,3.37 -0.18,6.84 -0.67,10.2 -0.47,3.17 -1.52,6.28 -2.64,10.72 z M 58.49,101.4 c 6.04,-3.65 6.04,-3.65 8.14,2.81 2.93,8.99 13.97,17.18 23.34,17.3 12.44,0.16 24.47,-7.96 28.61,-19.49 0.81,-2.27 1.02,-4.77 1.49,-7.13 6.03,0.95 9.85,3.67 8.92,6.68 -1.08,3.5 0.95,4.03 3.17,4.36 4.11,0.6 8.26,1.09 12.4,1.2 7.98,0.21 8.35,-0.06 5.49,-7.32 -1.99,-5.06 -5.17,-9.66 -7.78,-14.4 -6.56,3.01 -7.55,2.52 -13.79,-6.54 18.29,-7.49 25.83,-20.65 14.59,-38.04 -9.34,-14.45 -23.52,-13.27 -37.66,-3.9 0,-2.89 -0.91,-5.85 0.17,-7.08 3.64,-4.18 1.9,-7.87 0.17,-11.88 -1.17,-2.7 -1.95,-5.57 -3.14,-8.27 -0.46,-1.06 -1.46,-2.45 -2.36,-2.57 -0.88,-0.12 -2.37,0.99 -2.85,1.94 -1.85,3.65 -3.12,7.62 -5.16,11.14 -1.83,3.18 -2.48,5.55 0.23,8.76 0.98,1.16 -0.35,4.26 -0.63,6.48 C 90.17,34.79 88,34.59 86.9,33.41 79.96,25.96 65.26,23.03 56.04,27.43 c -5.51,2.63 -8.85,7.19 -11.39,12.47 -3.05,6.34 -2.9,13.27 -0.58,19.35 2.94,7.71 8.47,13.75 17.26,15.79 1.22,0.28 2.9,2.02 2.99,3.18 0.29,4 -9.41,11.23 -13.47,10.23 -2.53,-0.62 -4.34,-0.25 -5.36,2.4 -2.22,5.78 -4.6,11.5 -6.74,17.3 -1.05,2.85 -0.32,4.88 3.26,4.11 4.06,-0.88 8.14,-1.76 12.06,-3.09 3.57,-1.22 6.39,-3.36 4.42,-7.77 z m -6.47,53.04 c 7.59,-0.07 16.46,-1.9 23.39,-8.87 1.4,-1.41 3.16,-3.84 2.81,-5.34 -1.04,-4.43 -3.74,-7.88 -8.42,-9.56 -4.98,-1.78 -9.81,-3.97 -14.7,-5.99 -5.57,-2.3 -10.97,-5.18 -16.73,-6.77 -6.35,-1.75 -11.93,-1.18 -16.33,4.6 -4.06,5.33 -2.8,10.17 1.05,14.91 0.46,0.56 0.62,1.35 1.01,1.97 5.98,9.73 13.94,16.05 27.92,15.05 z m 97.76,-36.82 c -5.03,0.65 -8.96,0.75 -12.65,1.72 -7.71,2.02 -15.29,4.57 -22.96,6.74 -3.81,1.08 -7.49,4.79 -6.94,8.15 1.92,11.73 9.36,19.93 22.12,18.83 3.81,-0.33 7.5,-2.24 11.29,-2.42 9.96,-0.47 15.84,-6.3 20.58,-14.17 2.99,-4.96 2.54,-13.37 -2.09,-16.48 -2.8,-1.86 -6.88,-1.8 -9.35,-2.37 z m -38.88,67.5 c -0.25,-0.29 -0.5,-0.57 -0.75,-0.86 -0.11,-0.88 0,-1.86 -0.35,-2.63 -4.37,-9.58 -5.07,-20.62 -11.62,-29.3 -0.93,-1.23 -2.57,-2.71 -3.85,-2.67 -1.32,0.04 -2.92,1.55 -3.82,2.83 -5.91,8.42 -6.32,18.83 -9.91,28.11 -1.33,3.44 -1.07,6.28 2.76,8.13 4,1.93 7.15,0.38 9.33,-2.59 2.28,-3.11 3.26,-4.09 5.09,0.29 1.3,3.11 4.55,4.65 7.72,3.51 2.12,-0.77 3.63,-3.17 5.4,-4.82 z"
   id="path4"
   inkscape:connector-curvature="0"
   style="fill:#000000;fill-opacity:1" />
	<path
   d="m 135.36,54.5 c -0.11,6.85 -7.3,13.13 -15.18,13.27 -4.71,0.08 -10.26,-5.86 -10.18,-10.92 0.13,-8.52 6,-15.34 13.32,-15.04 6.59,0.27 12.92,6.31 12.04,12.69 z"
   id="path6"
   inkscape:connector-curvature="0"
   style="fill:#000000;fill-opacity:1" />
	<path
   d="m 80.95,52.4 c 0,6.4 -4.36,10.01 -12.24,10.16 -5.34,0.11 -11.14,-5.95 -11.15,-11.67 -0.02,-6.88 5.48,-12.53 12.22,-12.54 6.2,0 11.18,6.25 11.17,14.05 z"
   id="path8"
   inkscape:connector-curvature="0"
   style="fill:#000000;fill-opacity:1" />
	<path
   d="m 93.8,83.77 c 6.71,-0.86 9.79,3.07 10.29,10.27 0.5,7.18 -4.93,12.72 -11.66,12.8 -5.77,0.07 -11.22,-5.72 -11.34,-12.08 -0.14,-7.58 3.72,-10.93 12.71,-10.99 z"
   id="path10"
   inkscape:connector-curvature="0"
   style="fill:#000000;fill-opacity:1" />
</g>
</svg>