<?xml version="1.0" encoding="UTF-8" standalone="no"?>
<!-- Generator: Adobe Illustrator 25.0.1, SVG Export Plug-In  -->

<svg
   xmlns:dc="http://purl.org/dc/elements/1.1/"
   xmlns:cc="http://creativecommons.org/ns#"
   xmlns:rdf="http://www.w3.org/1999/02/22-rdf-syntax-ns#"
   xmlns:svg="http://www.w3.org/2000/svg"
   xmlns="http://www.w3.org/2000/svg"
   xmlns:sodipodi="http://sodipodi.sourceforge.net/DTD/sodipodi-0.dtd"
   xmlns:inkscape="http://www.inkscape.org/namespaces/inkscape"
   version="1.1"
   x="0px"
   y="0px"
   width="240.804"
   height="240.804"
   viewBox="0 0 240.80401 240.80401"
   style="overflow:visible"
   xml:space="preserve"
   id="svg8"
   sodipodi:docname="slaanesh_sybarites.svg"
   inkscape:version="0.92.3 (2405546, 2018-03-11)"><metadata
   id="metadata12"><rdf:RDF><cc:Work
       rdf:about=""><dc:format>image/svg+xml</dc:format><dc:type
         rdf:resource="http://purl.org/dc/dcmitype/StillImage" /><dc:title /></cc:Work></rdf:RDF></metadata><sodipodi:namedview
   pagecolor="#ffffff"
   bordercolor="#666666"
   borderopacity="1"
   objecttolerance="10"
   gridtolerance="10"
   guidetolerance="10"
   inkscape:pageopacity="0"
   inkscape:pageshadow="2"
   inkscape:window-width="1920"
   inkscape:window-height="1017"
   id="namedview10"
   showgrid="false"
   inkscape:zoom="0.98010717"
   inkscape:cx="-219.2662"
   inkscape:cy="120.395"
   inkscape:window-x="-8"
   inkscape:window-y="-8"
   inkscape:window-maximized="1"
   inkscape:current-layer="svg8" />
<defs
   id="defs2">
</defs>
<g
   id="g6"
   transform="translate(25.927974,-0.00571418)"
   style="fill:#000000;fill-opacity:1">
	<path
   d="m 138.71,229.32 c -1.2,-3.12 -2.01,-5.25 -2.82,-7.37 -0.5,-0.14 -0.99,-0.28 -1.49,-0.41 -1.54,6.31 -2.89,12.78 -11.07,14.97 0,-2.73 0.25,-5.41 -0.12,-8.01 -0.15,-1.09 -1.6,-2 -2.46,-2.99 -0.79,0.88 -1.92,1.65 -2.29,2.68 -0.92,2.62 -1.58,5.33 -2.19,8.05 -0.78,3.45 -2.47,4.97 -6.32,4.48 -4,-0.51 -5.19,-2.33 -5.52,-6.18 -0.17,-1.91 -2.56,-3.64 -3.94,-5.44 -0.93,1.74 -2.13,3.38 -2.7,5.23 -0.52,1.71 -0.36,3.62 -0.49,5.39 -9.94,0.3 -12.31,0.5 -11.39,-10.88 0.08,-1.01 -1.37,-2.15 -2.11,-3.23 -0.86,0.79 -2.4,1.54 -2.45,2.37 -0.17,3.11 0.15,6.24 0.29,9.37 -6.5,0.62 -7.8,-0.95 -10.66,-14.22 -3.33,4.33 -6.05,7.86 -9.48,12.32 -4.34,-8.12 -6.17,-15.16 -5.38,-22.77 1.08,-10.4 -4.65,-18.78 -9.23,-26.97 -3.38,-6.05 -10.59,-8.64 -18.26,-6.54 -4.31,1.18 -6.41,-0.65 -9.75,-4.07 C 8.07,163.94 6.43,149.87 3.47,136.02 3.17,134.6 2.45,133.21 1.67,131.95 -0.97,127.67 -0.46,123.89 3.04,120.3 8.95,114.23 11.03,107.74 6.28,99.68 4.72,97.04 4.73,93.19 4.84,89.91 5.03,83.76 6.14,77.64 6.3,71.49 6.8,51.25 17.92,36.12 30.05,21.47 37.5,12.47 48.44,9.19 58.81,6.14 76.33,0.99 94.12,-0.97 112.88,0.46 c 16.67,1.27 30.27,7.93 43.49,15.91 9.71,5.86 17.92,14.16 20.65,26.48 2.01,9.05 5.61,17.74 8.11,26.7 4.98,17.87 2.9,35.89 0.73,53.91 -1.16,9.63 -2.39,19.34 2.85,28.42 0.52,0.9 0.14,3.05 -0.63,3.86 -7.79,8.18 -15.67,16.28 -23.69,24.23 -2.76,2.74 -6.14,3.19 -9.76,1.2 -3.17,-1.74 -4.95,-0.43 -6.49,2.74 -4.17,8.59 -3.88,17.75 -4,26.86 -0.09,6.44 -1.68,12.3 -5.43,18.55 z M 67.58,40.78 c 9.83,2.59 19.13,4.83 28.25,7.63 1.63,0.5 2.53,3.34 3.77,5.11 -2.22,0.81 -4.49,2.39 -6.65,2.25 -3.89,-0.26 -7.68,-2.08 -11.57,-2.28 -4.93,-0.26 -10.88,-1.16 -14.64,1.12 -4.81,2.91 -9.84,6.07 -13.25,11.74 -9.73,16.18 -0.26,40.02 18.29,42.27 10.09,1.23 20.28,0.41 28.71,-7.55 8.62,-8.14 11.74,-23.32 5.94,-33.69 -0.64,-1.14 -0.26,-2.86 -0.35,-4.31 1.68,-0.09 3.73,-0.85 4.98,-0.16 4.81,2.64 6.19,7.42 6.89,12.51 0.6,4.36 1.33,8.7 2.12,13.75 6.58,-11.14 4.34,-28.08 -4.42,-36.39 4.43,-4.52 8.12,-10.19 16.03,-7.67 1.34,0.43 2.99,0.13 4.45,-0.11 7.65,-1.21 11.98,-7.41 10.25,-14.55 -8.22,6.13 -14.22,7.18 -18.25,2.44 -1.67,-1.96 -2.65,-5.48 -2.21,-7.99 0.42,-2.41 3.06,-4.44 4.78,-6.7 -9.02,0.18 -14.69,5.01 -13.61,13.25 0.79,6.08 0.07,9.83 -5.44,13.2 -3.24,1.99 -5.01,2.38 -7.43,-0.41 -0.82,-0.95 -1.88,-1.92 -3.03,-2.34 C 90.17,37.88 79.03,38.36 67.58,40.78 Z M 51.14,158.29 c 9.63,-0.08 18.81,-1.26 26.7,-7.75 3.53,-2.9 3.84,-5.88 1.76,-9.18 -1.21,-1.92 -3.26,-3.71 -5.34,-4.62 -10.35,-4.54 -20.73,-9.09 -31.35,-12.92 -3.66,-1.32 -8.11,-1.02 -12.13,-0.64 -4.52,0.42 -9.28,7.36 -8.57,11.54 2.17,12.54 15.65,23.53 28.93,23.57 z m 104.71,-34.82 c -0.13,-0.5 -0.26,-1 -0.39,-1.5 -12.88,3.4 -25.82,6.58 -38.55,10.44 -1.73,0.52 -3.62,4.58 -3.39,6.78 1.31,12.52 10.29,19.5 22.2,18.06 4.43,-0.54 8.72,-2.1 13.15,-2.69 8.7,-1.17 13.82,-6.96 18.13,-13.68 5.62,-8.75 1.28,-16.98 -8.9,-17.28 -0.76,-0.03 -1.51,-0.09 -2.25,-0.13 z m -55.81,64.67 c 1.13,1.48 2.3,4.18 4.34,5.35 2.09,1.2 5.15,1.47 7.56,1.01 1.05,-0.2 2.61,-3.64 2.14,-4.96 -3.77,-10.57 -7.67,-21.13 -12.18,-31.4 -2.11,-4.8 -4.47,-4.77 -6.41,0.02 -4.09,10.09 -7.67,20.41 -10.97,30.79 -1.2,3.76 3.84,7.38 7.66,5.48 2.83,-1.42 5.07,-4 7.86,-6.29 z"
   id="path4"
   inkscape:connector-curvature="0"
   style="fill:#000000;fill-opacity:1" />
</g>
</svg>