<?xml version="1.0" encoding="UTF-8" standalone="no"?>
<!-- Created with Inkscape (http://www.inkscape.org/) -->

<svg
   xmlns:dc="http://purl.org/dc/elements/1.1/"
   xmlns:cc="http://creativecommons.org/ns#"
   xmlns:rdf="http://www.w3.org/1999/02/22-rdf-syntax-ns#"
   xmlns:svg="http://www.w3.org/2000/svg"
   xmlns="http://www.w3.org/2000/svg"
   xmlns:sodipodi="http://sodipodi.sourceforge.net/DTD/sodipodi-0.dtd"
   xmlns:inkscape="http://www.inkscape.org/namespaces/inkscape"
   width="215"
   height="215"
   viewBox="0 0 56.885415 56.885418"
   version="1.1"
   id="svg8"
   inkscape:version="0.92.3 (2405546, 2018-03-11)"
   sodipodi:docname="hallowheart.svg">
  <defs
     id="defs2" />
  <sodipodi:namedview
     id="base"
     pagecolor="#ffffff"
     bordercolor="#666666"
     borderopacity="1.0"
     inkscape:pageopacity="0.0"
     inkscape:pageshadow="2"
     inkscape:zoom="0.70710678"
     inkscape:cx="92.622405"
     inkscape:cy="492.4851"
     inkscape:document-units="px"
     inkscape:current-layer="layer1"
     showgrid="false"
     inkscape:snap-global="true"
     inkscape:window-width="958"
     inkscape:window-height="1008"
     inkscape:window-x="953"
     inkscape:window-y="0"
     inkscape:window-maximized="0"
     units="px" />
  <metadata
     id="metadata5">
    <rdf:RDF>
      <cc:Work
         rdf:about="">
        <dc:format>image/svg+xml</dc:format>
        <dc:type
           rdf:resource="http://purl.org/dc/dcmitype/StillImage" />
        <dc:title></dc:title>
      </cc:Work>
    </rdf:RDF>
  </metadata>
  <g
     inkscape:label="Layer 1"
     inkscape:groupmode="layer"
     id="layer1"
     transform="translate(0,-240.11457)">
    <g
       id="g942"
       style="fill:#ffffff;fill-opacity:1"
       transform="matrix(3.1535716,0,0,3.1535716,-295.52593,-281.38841)">
      <g
         id="g928"
         style="fill:#ffffff;fill-opacity:1">
        <path
           style="opacity:1;fill:#ffffff;fill-opacity:1;fill-rule:nonzero;stroke:none;stroke-width:0.12603508;stroke-linecap:butt;stroke-linejoin:miter;stroke-miterlimit:4;stroke-dasharray:none;stroke-dashoffset:0;stroke-opacity:0.45581438;paint-order:markers fill stroke"
           d="m 100.011,175.22031 1.76692,8.1871 1.76734,-8.1871 z m 1.60104,0.54881 c 0.19091,-0.009 0.35949,0.0723 0.5302,0.16691 0.17378,0.0963 0.36419,0.0963 0.55398,0.10129 0.0195,0 0.0399,-0.002 0.0827,-0.007 -0.016,0.11328 -0.0913,0.17685 -0.14315,0.25166 -0.0561,0.0813 -0.12352,0.15499 -0.17621,0.23823 -0.0734,0.11562 -0.12499,0.13854 -0.24288,0.0734 -0.0774,-0.0427 -0.15164,-0.0948 -0.21859,-0.15245 -0.12808,-0.11032 -0.269,-0.17491 -0.44132,-0.16588 -0.11265,0.006 -0.22656,0.0938 -0.25683,0.20412 -0.0483,0.17611 -0.0172,0.29628 0.10335,0.36381 0.0352,0.0198 0.0853,0.0262 0.12609,0.0207 0.14584,-0.0188 0.28408,-0.009 0.42788,0.0336 0.17291,0.0508 0.34588,0.0971 0.48008,0.22169 0.23635,0.21947 0.3331,0.55678 0.12557,0.87437 -0.0608,0.0928 -0.13914,0.1449 -0.23461,0.2005 -0.18833,0.10971 -0.38245,0.0885 -0.57981,0.0858 -0.0725,-7.9e-4 -0.14508,-0.002 -0.21756,0 -0.10042,0.004 -0.19202,1.3e-4 -0.27905,-0.0703 -0.08,-0.0649 -0.18673,-0.0958 -0.27027,-0.15762 -0.0672,-0.0498 -0.1212,-0.1195 -0.17156,-0.18758 -0.0143,-0.019 -0.008,-0.0777 0.0103,-0.093 0.10188,-0.0853 0.21147,-0.16183 0.31626,-0.24391 0.0498,-0.0393 0.0778,-0.0506 0.11679,0.0202 0.1243,0.22589 0.43702,0.37743 0.69143,0.34571 0.18629,-0.0233 0.33,-0.28512 0.23306,-0.44493 -0.12021,-0.19794 -0.30437,-0.32128 -0.53433,-0.34571 -0.16447,-0.0175 -0.33873,-0.0393 -0.48369,0.0904 -0.0186,0.0169 -0.0952,-8e-4 -0.12196,-0.0269 -0.34436,-0.33097 -0.33752,-0.68781 -0.0357,-1.08108 0.1048,-0.1368 0.2452,-0.21378 0.41083,-0.27491 0.0695,-0.0256 0.13532,-0.0385 0.19895,-0.0413 z"
           id="path838"
           inkscape:connector-curvature="0"
           sodipodi:nodetypes="ccccccccccccccccccccccccccccccccccccc" />
        <path
           style="opacity:1;fill:#ffffff;fill-opacity:1;fill-rule:nonzero;stroke:none;stroke-width:0.13105741;stroke-linecap:butt;stroke-linejoin:miter;stroke-miterlimit:4;stroke-dasharray:none;stroke-dashoffset:0;stroke-opacity:0.45581438;paint-order:markers fill stroke"
           inkscape:transform-center-y="1.4146218"
           d="m 102.15261,183.16724 1.66447,-7.94724 1.57792,-0.835 c -0.66677,3.08292 -1.87683,5.91037 -3.24239,8.78224 z"
           id="path840"
           inkscape:connector-curvature="0"
           sodipodi:nodetypes="cccc" />
        <path
           sodipodi:nodetypes="cccc"
           inkscape:connector-curvature="0"
           id="path845"
           d="m 101.40375,183.16724 -1.66475,-7.94709 -1.577811,-0.83522 c 0.66677,3.08292 1.876991,5.91044 3.242561,8.78231 z"
           inkscape:transform-center-y="1.4146218"
           style="opacity:1;fill:#ffffff;fill-opacity:1;fill-rule:nonzero;stroke:none;stroke-width:0.13105741;stroke-linecap:butt;stroke-linejoin:miter;stroke-miterlimit:4;stroke-dasharray:none;stroke-dashoffset:0;stroke-opacity:0.45581438;paint-order:markers fill stroke"
           inkscape:transform-center-x="-1.3536149e-006" />
        <path
           transform="matrix(1.2114088,0,0,1.5685314,-18.115807,-137.9903)"
           style="opacity:1;fill:#ffffff;fill-opacity:1;fill-rule:nonzero;stroke:none;stroke-width:0.26499999;stroke-linecap:butt;stroke-linejoin:miter;stroke-miterlimit:4;stroke-dasharray:none;stroke-dashoffset:0;stroke-opacity:0.45581438;paint-order:markers fill stroke"
           inkscape:transform-center-x="4.9125295e-006"
           inkscape:transform-center-y="-0.66048717"
           d="m 98.970711,196.97104 1.458479,2.52659 h -2.917263 z"
           id="path855"
           inkscape:connector-curvature="0"
           sodipodi:nodetypes="cccc" />
        <path
           style="fill:#ffffff;fill-opacity:1;stroke:none;stroke-width:0.26458332px;stroke-linecap:butt;stroke-linejoin:miter;stroke-opacity:1"
           d="m 99.739,174.928 1.62847,-3.67721 -3.206281,2.84221 z"
           id="path857"
           inkscape:connector-curvature="0"
           sodipodi:nodetypes="cccc" />
        <path
           sodipodi:nodetypes="cccc"
           inkscape:connector-curvature="0"
           id="path861"
           d="m 103.817,174.928 -1.6281,-3.67721 3.20627,2.84221 z"
           style="fill:#ffffff;fill-opacity:1;stroke:none;stroke-width:0.26458332px;stroke-linecap:butt;stroke-linejoin:miter;stroke-opacity:1" />
      </g>
      <g
         transform="translate(2.6211885,-24.593329)"
         id="g887"
         style="fill:#ffffff;fill-opacity:1">
        <path
           style="fill:#ffffff;fill-opacity:1;stroke:none;stroke-width:0.26458332px;stroke-linecap:butt;stroke-linejoin:miter;stroke-opacity:1"
           d="m 95.793339,197.87574 c -0.346927,-0.33594 -0.06048,-0.78718 -0.07779,-1.03894 -0.0173,-0.25176 -0.311301,-0.40394 -0.579615,-0.5381 -0.268314,-0.13416 -0.329331,-2.05851 0.1257,-2.41683 -0.091,0.3467 0.19508,0.78282 0.253707,0.19688 0.05863,-0.58594 0.08502,-1.46225 0.3634,-1.92726 0.278382,-0.46501 0.769407,-0.56118 0.998164,-0.70159 0.228757,-0.1404 0.538974,-0.56429 0.739495,-0.76979 0.200521,-0.20549 0.616681,-0.0249 0.865473,-0.16512 0.248791,-0.14022 0.528721,-0.26565 0.500636,-0.55266 0.555328,0.79844 -0.681837,1.55773 -0.850445,1.90414 -0.168608,0.34641 0.07806,0.57651 -0.0052,0.88698 -0.08331,0.31048 -1.087495,0.66719 -0.622318,1.25432 0.465176,0.58713 1.318811,0.65846 1.000049,1.54043 -1.244476,1.24447 -1.921894,1.53814 -2.711222,2.32747 z"
           id="path875"
           inkscape:connector-curvature="0"
           sodipodi:nodetypes="czzczzzzzczzzccc" />
        <path
           style="fill:#ffffff;fill-opacity:1;stroke:none;stroke-width:0.26458332px;stroke-linecap:butt;stroke-linejoin:miter;stroke-opacity:1"
           d="m 98.81715,192.6077 c -0.129004,-1.16566 0.767193,-0.94585 1.46469,-1.53553 -0.0524,1.29729 -0.969025,1.0079 -1.46469,1.53553 z"
           id="path877"
           inkscape:connector-curvature="0"
           sodipodi:nodetypes="ccc" />
        <path
           sodipodi:nodetypes="czcc"
           inkscape:connector-curvature="0"
           id="path879"
           d="m 103.36438,194.21843 c -0.0435,-0.78244 0.44039,-0.79474 0.75436,-1.16132 0.31397,-0.36658 0.48144,-0.99391 1.17331,-1.0791 -0.83408,1.06454 0.60996,2.24042 -1.92767,2.24042 z"
           style="fill:#ffffff;fill-opacity:1;stroke:none;stroke-width:0.26458332px;stroke-linecap:butt;stroke-linejoin:miter;stroke-opacity:1" />
        <path
           style="fill:#ffffff;fill-opacity:1;stroke:none;stroke-width:0.26458332px;stroke-linecap:butt;stroke-linejoin:miter;stroke-opacity:1"
           d="m 102.83315,198.06473 c -0.01,-0.61669 -0.18899,-0.69857 -0.18899,-1.15755 0,-0.45898 0.79138,-0.77788 0.79138,-1.27803 0,-0.50015 -0.77936,-1.13654 -0.77936,-1.53222 0,-0.39567 1.09448,-1.05145 1.15754,-1.75074 0.0631,-0.69929 0.17375,-1.82413 1.00122,-2.38386 -1.66355,-0.001 -1.69541,1.45542 -1.97002,1.74765 -0.20681,0.22007 -0.99486,0.27699 -1.42923,0.94494 -0.43437,0.66795 -0.10357,0.65695 -0.28348,0.96857 -0.17991,0.31162 -0.4447,0.21055 -0.57877,0.41341 -0.13407,0.20287 -0.53153,1.21274 -0.53153,1.64184 z"
           id="path881"
           inkscape:connector-curvature="0"
           sodipodi:nodetypes="czzzzcszzzcc" />
      </g>
    </g>
  </g>
</svg>
