<?xml version="1.0" encoding="UTF-8" standalone="no"?>
<svg
   xmlns:dc="http://purl.org/dc/elements/1.1/"
   xmlns:cc="http://creativecommons.org/ns#"
   xmlns:rdf="http://www.w3.org/1999/02/22-rdf-syntax-ns#"
   xmlns:svg="http://www.w3.org/2000/svg"
   xmlns="http://www.w3.org/2000/svg"
   xmlns:sodipodi="http://sodipodi.sourceforge.net/DTD/sodipodi-0.dtd"
   xmlns:inkscape="http://www.inkscape.org/namespaces/inkscape"
   width="215"
   height="215"
   viewBox="0 0 56.885415 56.885418"
   version="1.1"
   id="svg8"
   inkscape:version="1.0.2-2 (e86c870879, 2021-01-15)"
   sodipodi:docname="living_city.svg">
  <defs
     id="defs2" />
  <sodipodi:namedview
     id="base"
     pagecolor="#ffffff"
     bordercolor="#666666"
     borderopacity="1.0"
     inkscape:pageopacity="0.0"
     inkscape:pageshadow="2"
     inkscape:zoom="1.0920385"
     inkscape:cx="-24.631845"
     inkscape:cy="126.8125"
     inkscape:document-units="px"
     inkscape:current-layer="layer1"
     inkscape:document-rotation="0"
     showgrid="false"
     inkscape:window-width="1920"
     inkscape:window-height="1017"
     inkscape:window-x="-8"
     inkscape:window-y="-8"
     inkscape:window-maximized="1"
     inkscape:snap-global="true"
     units="px" />
  <metadata
     id="metadata5">
    <rdf:RDF>
      <cc:Work
         rdf:about="">
        <dc:format>image/svg+xml</dc:format>
        <dc:type
           rdf:resource="http://purl.org/dc/dcmitype/StillImage" />
        <dc:title></dc:title>
      </cc:Work>
    </rdf:RDF>
  </metadata>
  <g
     inkscape:label="Layer 1"
     inkscape:groupmode="layer"
     id="layer1"
     transform="translate(0,-240.11457)">
    <path
       id="path862"
       style="fill:#ffffff;fill-opacity:1;stroke:none;stroke-width:0.326447;stroke-opacity:1;paint-order:markers fill stroke"
       d="m 48.149713,240.11455 c -1.281062,0.12545 -4.20811,0.59021 -3.890146,1.77686 0.317961,1.18665 -0.524331,2.17818 -0.838553,2.17818 -0.588134,0 -1.477249,-0.64778 -1.124791,-1.18339 -1.029814,0.32502 -1.237514,1.98855 -1.701257,1.98855 -0.463748,0 -0.820339,-0.44811 -0.535304,-1.41019 -0.83683,0.6392 -2.681379,2.61293 -2.761157,3.96071 -0.07978,1.34777 -2.434077,3.1536 -2.635153,3.10893 -0.402147,-0.0894 -0.641009,-0.66194 -0.502334,-1.06221 -2.6196,0.88759 -3.299427,5.28505 -3.858435,5.13527 -0.559008,-0.14979 0.270043,-1.72959 -0.07812,-3.28806 -1.327384,2.4131 -3.152395,2.3713 -3.152395,3.59277 -0.07658,1.24713 -0.432573,3.34956 -1.16805,4.08504 -1.310258,1.31026 -2.120425,3.12034 -2.120429,5.11973 0,4.07835 2.147429,5.49885 2.435646,7.26536 0.137736,0.84417 0.174884,1.33376 0.161705,1.73507 -5.14841,-2.10611 -8.512116,-7.11635 -8.512165,-12.67889 -8e-6,-7.56569 6.133198,-13.6989 13.698887,-13.69889 0.858007,4e-5 1.714112,0.0807 2.55703,0.24088 -1.408254,-0.42076 -2.870215,-0.63446 -4.339979,-0.63443 -8.371976,6e-5 -15.158788,6.78687 -15.158845,15.15885 3.3e-5,6.88516 4.64018,12.90554 11.29831,14.65903 -0.155028,0.80449 -0.32966,1.68933 -0.463483,2.59336 -0.0341,0.23043 -0.05342,0.48755 -0.06489,0.75875 -8.575093,-2.31767 -14.53109,-10.09712 -14.531138,-18.9799 -6.1e-5,-10.8585 8.802446,-19.66111 19.660946,-19.66116 2.468434,3e-5 4.914788,0.46489 7.211181,1.37029 -2.880411,-1.35276 -6.023562,-2.05408 -9.20581,-2.05407 h -0.013 c -5.598718,0.003 -10.698996,2.13213 -14.540591,5.62185 -0.999884,-0.67295 -3.015343,-1.53018 -5.9091403,-0.37696 2.2631963,-0.13331 3.7322483,0.85299 4.5682533,1.70546 -2.594994,2.80408 -4.4581723,6.29544 -5.2839563,10.171 -0.187649,-0.38616 -0.342441,-0.74898 -0.423999,-1.03785 -0.358046,-1.26819 0.280175,-2.23547 -0.212735,-3.44094 -0.492909,-1.20548 -2.45158,-1.8811 -2.908793,-5.0372 -0.43975,0.93671 -0.608774,1.7487 -0.283925,2.73155 0.324844,0.98284 1.816277,1.90672 2.341352,2.55388 0.525075,0.64715 0.524713,1.58358 -0.248436,1.95116 -0.773149,0.36757 -2.536076,-0.70423 -2.412124,-2.05743 -0.337195,0.84612 -0.670976,1.44807 -0.248229,2.23467 0.422743,0.7866 1.906158,0.30366 2.766826,1.41901 0.430334,0.55768 0.71858,1.58539 0.899247,2.61206 0.180663,1.02665 0.253686,2.05213 0.253686,2.60533 4e-6,5.08254 1.763886,9.80153 4.7478083,13.52941 -0.90887,-0.5412 -1.614474,-0.91887 -2.3600423,-1.08153 -1.378583,-0.30077 -2.601768,0.82408 -5.138633,-1.3831 -0.08746,1.17187 0.87616,2.1203 1.876191,2.54821 1.000034,0.42791 2.452348,-0.35919 3.340143,0.0777 5.2775563,2.72116 8.9194693,7.72779 15.9942503,7.72779 -0.04653,0.36734 -0.123448,0.67706 -0.253686,0.88644 -0.579117,0.93101 -0.803722,0.2886 -1.011601,0.5899 -0.207874,0.30131 0.04516,0.73784 -0.168422,1.01139 -0.213585,0.27355 -0.402668,0.33995 -0.969389,0.42149 -0.566718,0.0815 -1.574835,-0.55944 -2.360042,-0.29506 -0.785207,0.26437 -0.908947,1.19538 -1.854144,1.81214 -0.945189,0.61675 -2.06325,0.31174 -3.877337,1.55929 2.053997,-0.65133 3.537216,-0.31347 4.551458,-0.71633 1.014238,-0.40286 1.093215,-0.99769 1.601502,-1.09581 0.508291,-0.0981 1.014713,-0.35197 1.137812,0.25285 0.123098,0.60482 -1.635887,0.91269 -2.064986,1.47508 -0.429103,0.56238 0.224147,0.84786 -0.589905,1.6015 -0.814052,0.75364 -3.330829,0.20178 -4.504415,1.74704 1.522346,-0.58805 4.383503,0.0213 5.309575,-0.77786 0.463036,-0.39958 0.290476,-1.47411 0.631698,-1.72835 0.341218,-0.25424 1.196185,0.31179 1.557401,-0.0888 0.722433,-0.80124 1.86109,-1.81465 2.83067,-1.04835 0.969576,0.7663 0.399688,1.46155 -0.09345,2.31762 -0.493141,0.85608 -2.172982,1.35085 -2.781529,1.93857 -0.608542,0.58771 -0.402513,0.89151 -0.870682,1.25499 -0.468169,0.36348 -1.489648,0.61885 -2.079688,1.06788 0.887063,-0.0834 2.73334,0.0519 3.362612,-0.38452 0.629273,-0.43642 0.41655,-1.32304 1.138653,-1.87346 0.722103,-0.55043 1.704139,-1.59454 2.218079,-1.13215 0.513944,0.46239 -0.04298,0.78376 -0.711497,1.61054 -0.668517,0.82678 -1.561318,1.32345 -0.571008,3.039 0.0084,-1.66381 0.89832,-1.41725 1.475083,-1.85436 0.576759,-0.4371 1.193186,-1.22129 1.51708,-1.81214 0.323893,-0.59084 -0.106022,-1.62328 0.505694,-1.6015 0.611717,0.0218 0.591503,1.36059 0.463483,1.93877 -0.128019,0.57818 -0.88456,0.47673 -0.969177,1.22202 -0.06723,1.58654 1.165413,3.36587 2.981871,1.7754 -1.248202,8.1e-4 -1.724779,-0.53934 -1.724779,-1.40515 0,-0.86581 1.434912,-1.66457 1.819491,-2.86616 0.384579,-1.2016 -0.929364,-3.33702 0.458863,-3.61903 1.388226,-0.28201 1.343211,1.7829 1.863381,2.69101 0.520166,0.90811 2.252524,1.93402 5.441041,0.23458 -2.297121,0.17598 -4.243735,0.1797 -4.246949,-0.43975 -0.0033,-0.61946 3.118338,-0.70076 4.195707,-0.54308 1.077362,0.15768 1.351847,0.94626 2.107197,0.96939 0.75535,0.0231 2.064985,-0.80075 2.064985,-0.80075 0,0 -1.333689,0.0119 -2.27583,-0.25285 -0.942141,-0.26481 -2.274953,-1.24839 -3.245008,-1.51708 -0.970064,-0.26869 -1.964458,0.22588 -2.444262,-0.25306 -0.479799,-0.47894 -0.624355,-1.32803 -0.168633,-1.60129 0.455729,-0.27327 1.001615,0.1676 1.327236,0.49792 0.325617,0.33032 0.591877,0.64857 0.105636,0.93495 1.489872,0.0858 0.824016,-1.10235 0.421479,-1.5173 -0.402538,-0.41494 -2.3098,-1.0214 -3.197758,-2.00807 -0.464036,-0.51562 -0.591893,-1.14102 -0.609855,-1.8008 2.162408,0 6.2642,-2.22968 8.101182,-2.50747 1.836983,-0.27778 1.639605,-0.0146 2.564547,-0.34105 0.924943,-0.32649 1.482432,-1.39056 2.961754,-1.78694 1.479322,-0.39638 2.607097,-0.58228 2.930117,-0.93915 0.32302,-0.35687 0.271373,-0.82081 0.250536,-1.94647 -0.301395,0.90294 -0.38905,1.54069 -1.103066,1.81459 -0.714016,0.27391 -1.492018,-0.0546 -2.412965,0.2539 -0.920948,0.30851 -1.933406,1.63531 -2.911732,1.96986 -0.978321,0.33454 -1.562862,0.1791 -2.497388,0.18711 1.969973,-1.33211 3.676818,-2.96022 5.081719,-4.80115 1.055664,-1.33218 5.054506,-4.01227 6.398457,-6.24809 -2.700317,2.36842 -3.881676,2.93897 -4.376309,3.05495 1.566837,-3.03034 2.421207,-6.43125 2.421154,-9.94524 -1.02e-4,-0.22377 -0.0037,-0.44752 -0.01069,-0.67118 -0.31605,9.71014 -7.676988,17.73362 -17.324006,18.8833 0.0228,-0.91888 0.06172,-1.88004 0.06342,-2.89199 4.06e-4,-0.26446 -0.01455,-0.54154 -0.03296,-0.8228 5.917755,-1.23538 10.535775,-5.86875 11.751503,-11.79057 -1.661456,5.27511 -6.331948,9.03372 -11.840335,9.52859 0.02804,-0.5438 0.117969,-1.07369 0.33244,-1.56202 0.6242,-1.42123 1.115371,-1.38166 3.017363,-3.28365 1.310298,-1.31025 2.120847,-3.12013 2.120847,-5.11952 0,-1.23553 3.930723,-1.63046 5.546254,-4.87256 -0.866326,0.12849 -1.354538,0.10679 -1.354538,-0.62014 0,-0.72693 1.26953,-1.54277 1.744099,-2.25462 0.474562,-0.71186 3.095121,-1.78663 2.845998,-2.65469 -0.24913,-0.86805 -0.668708,-1.854 -0.09933,-2.50495 0.569367,-0.65094 2.656662,-1.24429 3.230516,-2.05049 0.573854,-0.80621 -0.165488,-2.27576 0.436812,-2.89745 0.602301,-0.6217 2.728471,-1.64444 3.202378,-2.2143 0.473911,-0.56986 0.290197,-1.43203 0.200556,-2.48647 -0.883589,1.48514 -1.719691,1.86536 -2.460427,2.26302 -0.740736,0.39766 -1.658815,-0.53218 -2.504951,0.14847 -0.846132,0.68066 -1.195307,2.25932 -2.079055,3.1083 -0.883747,0.84898 -2.049753,1.24867 -2.903331,2.1513 -0.42679,0.45131 -0.579494,1.24075 -0.876562,1.61515 -0.297064,0.3744 -0.738513,0.33383 -0.99732,0.67349 -0.517614,0.67932 -0.808139,1.67299 -1.526532,2.19771 -0.758137,0.55376 -0.891733,0.0659 -1.296156,0.37738 -0.404423,0.31148 -0.893411,2.09851 -1.419006,1.95768 -0.525595,-0.14084 -0.282902,-1.35102 0.181443,-2.15529 0.464349,-0.80428 2.189197,-1.62461 2.866578,-2.77208 0.677384,-1.14747 0.0711,-1.19832 0.918777,-2.60743 0.847673,-1.40912 1.932894,-1.52016 2.912991,-3.01085 0.980098,-1.4907 1.120089,-3.48093 1.440009,-3.74336 0.319919,-0.26242 0.829324,-0.92392 1.87619,-1.65001 z"
       sodipodi:nodetypes="csscscsscsccssscccccccscsccssccccsscssscsssscscsccsssssscssssscssssssscsssscssssccssssccsscssssscsscsssscssscccccccccccscscssssssscsssssssssssssscc" />
  </g>
</svg>
