<?xml version="1.0" encoding="UTF-8" standalone="no"?>
<!-- Generated by IcoMoon.io -->

<svg
   xmlns:dc="http://purl.org/dc/elements/1.1/"
   xmlns:cc="http://creativecommons.org/ns#"
   xmlns:rdf="http://www.w3.org/1999/02/22-rdf-syntax-ns#"
   xmlns:svg="http://www.w3.org/2000/svg"
   xmlns="http://www.w3.org/2000/svg"
   xmlns:sodipodi="http://sodipodi.sourceforge.net/DTD/sodipodi-0.dtd"
   xmlns:inkscape="http://www.inkscape.org/namespaces/inkscape"
   version="1.1"
   width="215"
   height="215"
   viewBox="0 0 215 215"
   id="svg48"
   sodipodi:docname="wait.svg"
   inkscape:version="0.92.3 (2405546, 2018-03-11)">
  <metadata
     id="metadata54">
    <rdf:RDF>
      <cc:Work
         rdf:about="">
        <dc:format>image/svg+xml</dc:format>
        <dc:type
           rdf:resource="http://purl.org/dc/dcmitype/StillImage" />
        <dc:title>misc-wait</dc:title>
      </cc:Work>
    </rdf:RDF>
  </metadata>
  <defs
     id="defs52" />
  <sodipodi:namedview
     pagecolor="#ffffff"
     bordercolor="#666666"
     borderopacity="1"
     objecttolerance="10"
     gridtolerance="10"
     guidetolerance="10"
     inkscape:pageopacity="0"
     inkscape:pageshadow="2"
     inkscape:window-width="1920"
     inkscape:window-height="1017"
     id="namedview50"
     showgrid="false"
     fit-margin-top="0"
     fit-margin-left="0"
     fit-margin-right="0"
     fit-margin-bottom="0"
     inkscape:zoom="0.65186407"
     inkscape:cx="-220.26033"
     inkscape:cy="-173.04393"
     inkscape:window-x="-8"
     inkscape:window-y="-8"
     inkscape:window-maximized="1"
     inkscape:current-layer="svg48" />
  <title
     id="title2">misc-wait</title>
  <g
     id="g886"
     transform="matrix(6.7199276,0,0,6.7199276,-0.00912889,-0.02467263)">
    <path
       id="path4"
       d="m 6.784,14.714 c 0,-0.001 0.001,0.004 0,0 z"
       inkscape:connector-curvature="0"
       style="fill:#ffffff" />
    <path
       id="path6"
       d="M 18.02,6.832 C 18.021,6.831 18.021,6.83 18.022,6.829 18.009,6.822 18.011,6.825 18.02,6.832 Z"
       inkscape:connector-curvature="0"
       style="fill:#ffffff" />
    <path
       id="path8"
       d="m 24.278,14.802 c 0.002,-10e-4 0.003,-0.003 0.004,-0.003 -0.001,0.001 -0.002,0.002 -0.004,0.003 z"
       inkscape:connector-curvature="0"
       style="fill:#ffffff" />
    <path
       id="path10"
       d="m 6.78,14.702 c 0,-10e-4 0,-10e-4 0,-10e-4 0,0 0,10e-4 0,10e-4 z"
       inkscape:connector-curvature="0"
       style="fill:#ffffff" />
    <path
       id="path12"
       d="m 25.525,15.339 c 0.046,0.03 0.071,-0.017 0.076,-0.141 -0.025,0.047 -0.051,0.094 -0.076,0.141 z"
       inkscape:connector-curvature="0"
       style="fill:#ffffff" />
    <path
       id="path14"
       d="m 24.281,14.799 c 0.003,-0.002 0.003,-0.002 0,0 z"
       inkscape:connector-curvature="0"
       style="fill:#ffffff" />
    <path
       id="path16"
       d="m 6.779,14.701 c 0,-0.001 0,-0.001 0,0 z"
       inkscape:connector-curvature="0"
       style="fill:#ffffff" />
    <path
       id="path18"
       d="m 6.781,14.705 c 0,-10e-4 -10e-4,-0.002 -10e-4,-0.003 0,10e-4 10e-4,10e-4 10e-4,0.003 z"
       inkscape:connector-curvature="0"
       style="fill:#ffffff" />
    <path
       id="path20"
       d="m 6.784,14.714 c 0,0 0,-0.001 0,-0.001 0,0 0,0.001 0,0.001 z"
       inkscape:connector-curvature="0"
       style="fill:#ffffff" />
    <path
       id="path22"
       d="m 23.005,16.886 c -10e-4,0.001 0,0.001 0,0 z"
       inkscape:connector-curvature="0"
       style="fill:#ffffff" />
    <path
       id="path24"
       d="m 20.983,25.561 v 0.003 c 0.005,-0.002 0.004,-0.003 0,-0.003 z"
       inkscape:connector-curvature="0"
       style="fill:#ffffff" />
    <path
       id="path26"
       d="m 6.781,14.706 c 0,0 0,-10e-4 0,-10e-4 0,0 0,10e-4 0,10e-4 z"
       inkscape:connector-curvature="0"
       style="fill:#ffffff" />
    <path
       id="path28"
       d="m 6.783,14.713 c 0,-10e-4 -0.001,-0.003 -0.001,-0.004 0,0.001 0.001,0.003 0.001,0.004 z"
       inkscape:connector-curvature="0"
       style="fill:#ffffff" />
    <path
       id="path30"
       d="m 6.782,14.709 c 0,-10e-4 -0.001,-0.002 -0.001,-0.003 0,0.001 0.001,0.002 0.001,0.003 z"
       inkscape:connector-curvature="0"
       style="fill:#ffffff" />
    <path
       id="path32"
       d="m 11.274,16.982 c -0.154,-0.178 0.067,0.077 0,0 z"
       inkscape:connector-curvature="0"
       style="fill:#ffffff" />
    <path
       id="path34"
       d="m 11.523,10.126 c -0.004,0.001 -0.011,0.004 -0.02,0.007 0.011,-0.004 0.017,-0.006 0.02,-0.007 z"
       inkscape:connector-curvature="0"
       style="fill:#ffffff" />
    <path
       id="path36"
       d="m 12.738,22.773 c -0.002,-0.004 -0.002,-0.004 0,0 z"
       inkscape:connector-curvature="0"
       style="fill:#ffffff" />
    <path
       id="path38"
       d="m 11.502,10.133 c -0.002,0.001 -0.004,0.002 -0.007,0.002 0.002,-10e-4 0.005,-10e-4 0.007,-0.002 z"
       inkscape:connector-curvature="0"
       style="fill:#ffffff" />
    <path
       id="path40"
       d="m 12.738,22.773 c 0.003,0.007 0.001,0.002 0,0 z"
       inkscape:connector-curvature="0"
       style="fill:#ffffff" />
    <path
       id="path42"
       d="m 26.268,15.823 c -0.232,-0.153 -0.491,-0.352 -0.742,-0.482 -0.186,-0.096 -1.191,-0.259 -0.65,-0.385 -0.22,-0.032 -0.44,-0.065 -0.66,-0.097 0.103,-0.094 -0.755,-0.51 -0.894,-0.59 0.106,0.025 0.152,0.002 0.138,-0.07 -0.192,-0.054 -0.405,-0.071 -0.602,-0.1 0.028,0.286 0.232,1.158 -0.035,1.069 0.054,0.091 0.206,0.211 0.178,0.311 -0.088,-0.037 -0.504,-0.113 -0.259,0.059 -0.298,0.024 -1.241,0.286 -1.488,0.094 -0.258,-0.2 -0.084,-1.476 -0.1,-1.818 -0.029,-0.63 0.051,-1.059 0.042,-1.878 -0.012,-0.994 0.558,-5.6 -0.802,-5.563 0.529,0.742 -1.876,0.479 -2.15,0.489 C 17.45,6.892 16.437,6.955 15.521,6.953 14.702,6.951 13.911,7.022 13.118,7 12.61,6.986 11.334,7.145 10.94,6.893 10.505,6.614 10.903,6.257 10.212,6.333 c -0.008,0.076 0.03,0.09 0.114,0.041 -0.195,0.621 -0.142,1.115 -0.105,1.762 0.044,0.777 -0.042,1.502 -0.081,2.273 -0.042,0.84 10e-4,1.697 0.031,2.537 0.027,0.758 -0.116,1.861 0.192,2.543 C 9.961,15.498 9.562,15.447 9.16,15.441 9.233,15.442 8.005,15.527 8.024,15.54 7.341,15.1 8.563,13.95 7.122,14.475 c -0.811,0.295 -2.12,1.07 -3.039,1.608 0.352,0.408 0.795,0.499 1.357,0.691 0.621,0.212 2.094,0.466 2.318,0.906 0.034,0.005 0.067,0 0.098,-0.013 0.041,-0.482 -0.114,-0.977 0.395,-1.085 0.212,-0.044 0.627,0.11 0.773,0.139 0.837,0.168 1.086,0.015 1.095,0.945 0.007,0.717 -0.052,1.427 -0.102,2.142 -0.085,1.207 -0.233,2.439 -0.202,3.65 0.009,0.344 0.099,3.049 0.133,3.035 0.183,-0.074 0.201,-0.261 0.387,-0.295 0.179,-0.032 0.273,0.063 0.471,0.017 0.345,-0.08 0.702,-0.158 1.141,-0.161 1.376,-0.009 2.755,0.007 4.127,0.012 0.551,0.002 1.249,0.05 1.769,0.054 0.416,0.004 1.038,-0.095 1.534,-0.082 0.269,0.007 0.846,0.213 0.782,0.003 -0.016,0.26 0.086,0.441 0.307,0.542 -0.19,-0.124 0.42,-0.668 0.433,-0.7 0.067,-0.164 0.081,-0.457 0.084,-0.76 0.012,-1.044 0.089,-1.809 0.083,-2.778 -0.004,-0.623 0.079,-1.32 0.104,-2.028 0.025,-0.706 0.056,-1.452 0.012,-2.148 -0.027,-0.419 -0.294,-1.255 0.123,-1.225 -0.5,-0.404 1.092,-0.264 1.264,-0.228 0.758,0.159 0.185,0.683 0.759,0.951 0.496,0.231 2.303,-1.839 2.574,-1.221 -0.036,-0.146 -0.008,-0.27 0.085,-0.372 0.11,0.199 0.184,0.191 0.224,-0.024 0.086,-0.072 0.105,-0.148 0.059,-0.226 z m -15.507,5.095 c 0.286,-0.847 0.172,-1.856 0.211,-2.748 0.015,-0.333 0.037,-0.914 0.205,-1.209 0.165,-0.288 0.723,-0.418 0.858,-0.697 0.303,-0.625 -0.276,-0.279 -0.714,-0.664 -0.324,-0.284 -0.128,-1.037 -0.112,-1.48 0.02,-0.57 -0.437,-2.659 0.422,-2.121 -0.085,0.02 -0.171,0.039 -0.256,0.059 0.453,0.457 0.851,1.053 1.363,1.613 0.264,0.288 0.528,0.577 0.792,0.865 0.204,0.223 1.068,0.78 0.326,0.644 0.284,0.224 0.499,0.389 0.493,0.8 0.057,-0.05 0.114,-0.101 0.171,-0.151 -0.043,0.232 -0.063,0.755 -0.159,0.99 -0.123,0.301 0.046,0.236 -0.357,0.528 -0.537,0.388 -0.953,0.453 -1.431,0.942 -0.902,0.923 -1.138,1.881 -1.539,2.972 -0.071,-0.19 -0.377,-0.036 -0.273,-0.343 z m 4.54,-0.763 c -0.232,1.245 -2.045,2.291 -3.063,2.955 0.195,0.084 -0.724,0.562 -0.834,0.549 -0.438,-0.054 -0.248,-0.486 -0.213,-0.851 0.121,-1.251 0.398,-2.401 1.099,-3.452 0.503,-0.755 1.25,-1.449 2.16,-1.782 1.236,-0.451 1.006,1.749 0.851,2.58 z m -0.528,-6.424 c -1.253,-0.4 -2.143,-0.411 -2.726,-1.69 -0.342,-0.751 -0.663,-1.711 -0.48,-2.529 0.228,-1.021 0.472,-1.395 1.562,-1.413 1.128,-0.019 2.265,0.095 3.387,0.098 0.65,0.002 1.298,-0.034 1.948,-0.002 0.331,0.016 0.781,-10e-4 1.09,0.107 0.524,0.183 0.352,0.04 0.447,0.581 0.145,0.82 0.171,2.282 -0.131,3.039 -0.29,0.725 -0.86,1.365 -1.664,1.544 -1.024,0.227 -2.323,0.263 -3.432,0.263 z m 4.991,9.292 c -0.092,0.311 0.032,0.825 -0.329,0.954 -0.136,0.049 -1.196,-0.95 -1.343,-1.085 -0.591,-0.542 -1.269,-1.083 -1.847,-1.658 -0.665,-0.662 -0.514,-1.631 -0.488,-2.53 0.02,-0.667 0.197,-1.959 1.077,-0.981 0.002,-0.004 0.004,-0.009 0.005,-0.013 -0.005,0.012 1.748,1.188 1.915,1.356 0.855,0.859 1.348,2.816 1.01,3.957 z m 0.378,-8.679 c -0.054,0.464 -0.088,0.877 -0.24,1.319 0.071,-0.23 0.166,-0.289 0.283,-0.176 -0.261,0.357 -0.543,0.328 -0.969,0.455 0.218,0.356 0.604,0.603 0.779,0.943 0.165,0.32 0.047,0.772 0.062,1.108 0.031,0.701 -0.009,1.431 -0.009,2.251 -0.519,-0.843 -1.058,-1.709 -1.816,-2.362 -0.861,-0.743 -1.159,-0.746 -1.401,-1.911 0.3,0.178 2.726,-2.519 3.046,-2.838 -0.168,0.143 -0.297,0.138 -0.388,-0.016 0.127,-0.109 0.519,-0.563 0.713,-0.496 -0.048,0.192 -0.089,1.72 -0.061,1.723 z"
       inkscape:connector-curvature="0"
       style="fill:#ffffff" />
    <path
       id="path44"
       d="m 11.524,10.125 c 0.002,-10e-4 0.002,-10e-4 0,0 z"
       inkscape:connector-curvature="0"
       style="fill:#ffffff" />
    <path
       id="path46"
       d="m 16.819,31.678 c -0.206,-0.044 -0.41,-0.101 -0.618,-0.126 -0.089,-0.011 -0.216,0.017 -0.275,0.078 -0.382,0.39 -0.635,0.276 -1.065,0.053 -0.149,-0.078 -0.35,-0.055 -0.527,-0.082 -0.022,-0.003 -0.056,-0.025 -0.057,-0.04 -0.008,-0.083 0.006,-0.171 -0.014,-0.251 -0.016,-0.063 -0.06,-0.131 -0.112,-0.169 -0.022,-0.016 -0.116,0.026 -0.142,0.065 -0.075,0.11 -0.305,0.021 -0.293,0.233 C 13.665,31.421 13.615,31.4 13.563,31.386 13.509,31.371 13.452,31.362 13.397,31.35 13.348,31.34 13.278,31.347 13.255,31.318 13.178,31.22 13.122,31.105 13.048,31.003 13.023,30.968 12.971,30.954 12.931,30.93 c 0.002,0.03 0.007,0.06 0.004,0.09 -0.003,0.027 -0.008,0.064 -0.026,0.078 -0.083,0.064 -0.182,0.11 -0.254,0.183 -0.142,0.145 -0.289,0.198 -0.471,0.08 -0.016,-0.01 -0.047,-0.022 -0.046,-0.03 0.04,-0.278 -0.121,-0.104 -0.211,-0.096 -0.185,0.017 -0.392,-0.194 -0.369,-0.366 0.004,-0.031 -0.019,-0.09 -0.043,-0.098 C 11.336,30.71 11.181,30.58 10.957,30.712 10.844,30.778 10.638,30.741 10.496,30.689 10.294,30.615 10.12,30.471 9.922,30.382 9.71,30.286 9.486,30.219 9.266,30.14 9.248,30.134 9.222,30.141 9.209,30.131 9.045,30.01 8.929,29.998 8.809,30.21 8.775,30.271 8.535,30.287 8.444,30.233 8.117,30.039 7.733,29.865 7.521,29.574 7.27,29.23 6.948,29.077 6.604,28.892 6.099,28.62 5.643,28.271 5.34,27.761 5.316,27.72 5.28,27.669 5.239,27.656 4.868,27.537 4.671,27.226 4.428,26.956 4.147,26.643 3.802,26.386 3.531,26.064 3.274,25.758 3.074,25.403 2.854,25.066 2.593,24.666 2.329,24.268 2.083,23.859 1.88,23.523 1.597,23.19 1.535,22.824 1.42,22.15 0.946,21.663 0.761,21.042 0.684,20.785 0.676,20.506 0.64,20.237 0.591,19.865 0.555,19.49 0.495,19.119 0.441,18.785 0.498,18.487 0.698,18.212 0.729,18.169 0.725,18.078 0.703,18.023 0.645,17.879 0.577,17.737 0.495,17.605 0.254,17.217 0.177,16.805 0.214,16.346 0.24,16.02 0.149,15.686 0.15,15.355 0.152,14.745 0.02,14.136 0.17,13.521 0.295,13.011 0.334,12.479 0.453,11.967 0.52,11.677 0.693,11.414 0.777,11.126 0.888,10.746 0.935,10.346 1.053,9.969 1.207,9.478 1.401,8.998 1.585,8.516 1.827,7.882 2.242,7.355 2.669,6.841 2.919,6.54 3.19,6.256 3.455,5.968 3.795,5.598 4.229,5.381 4.67,5.153 4.981,4.992 5.222,4.698 5.495,4.464 5.532,4.432 5.581,4.382 5.617,4.388 5.821,4.423 5.922,4.338 5.943,4.14 5.944,4.135 5.943,4.126 5.944,4.126 6.186,4.066 6.062,3.867 6.099,3.728 6.109,3.689 6.152,3.653 6.188,3.627 6.406,3.472 6.637,3.346 6.914,3.335 6.936,3.334 6.958,3.316 6.98,3.304 7.008,3.288 7.023,3.145 7.072,3.296 7.076,3.307 7.163,3.313 7.187,3.292 7.286,3.209 7.375,3.114 7.467,3.024 7.47,3.021 7.472,3.015 7.474,3.011 7.757,3.185 7.851,2.807 8.078,2.801 8.134,2.799 8.185,2.72 8.243,2.683 8.323,2.633 8.406,2.589 8.489,2.545 8.518,2.53 8.566,2.533 8.581,2.511 8.899,2.053 9.441,1.954 9.889,1.71 c 0.264,-0.143 0.58,-0.189 0.868,-0.292 0.057,-0.021 0.084,-0.113 0.138,-0.157 0.095,-0.078 0.193,-0.154 0.3,-0.213 0.383,-0.214 0.752,-0.082 1.126,0.049 0.302,0.106 0.612,-0.071 0.673,-0.391 0.013,-0.068 -0.099,-0.161 -0.158,-0.24 -0.041,-0.056 -0.089,-0.107 -0.134,-0.16 0.071,0.028 0.149,0.046 0.211,0.087 0.11,0.073 0.211,0.161 0.316,0.241 0.027,0.02 0.06,0.033 0.091,0.049 0.003,-0.045 0.005,-0.09 0.008,-0.136 0.005,-0.094 0.001,-0.191 0.02,-0.282 0.005,-0.023 0.107,-0.055 0.13,-0.038 0.237,0.179 0.488,0.104 0.723,0.027 0.807,-0.266 1.613,-0.348 2.444,-0.108 0.165,0.048 0.364,-0.037 0.547,-0.032 0.175,0.005 0.395,-0.126 0.496,0.18 0.028,0.085 0.265,0.117 0.411,0.142 0.2,0.035 0.406,0.039 0.609,0.062 0.164,0.019 0.327,0.042 0.489,0.072 0.044,0.008 0.079,0.065 0.123,0.075 0.057,0.013 0.12,0 0.18,-0.001 0.24,-0.002 0.46,0.038 0.63,0.235 0.037,0.043 0.121,0.045 0.183,0.068 0.319,0.118 0.644,0.222 0.951,0.365 0.082,0.038 0.128,0.124 0.231,0.058 0.012,-0.008 0.053,0.003 0.054,0.008 0.03,0.273 0.282,0.173 0.426,0.251 0.216,0.116 0.465,0.184 0.654,0.332 0.2,0.157 0.339,0.389 0.518,0.576 0.046,0.048 0.141,0.061 0.216,0.068 0.082,0.008 0.186,-0.046 0.244,-0.011 0.21,0.125 0.407,0.272 0.601,0.42 0.035,0.026 0.045,0.094 0.053,0.145 0.021,0.134 0.06,0.197 0.215,0.125 0.057,-0.027 0.154,0.029 0.23,0.055 0.005,0.002 -0.033,0.083 -0.021,0.117 0.045,0.139 0.077,0.294 0.164,0.403 0.059,0.075 0.201,0.112 0.308,0.115 0.424,0.013 0.616,0.304 0.784,0.626 0.113,0.215 0.208,0.439 0.33,0.648 0.04,0.068 0.132,0.119 0.211,0.146 C 26.536,5.412 26.609,5.373 26.674,5.36 26.654,5.295 26.624,5.232 26.616,5.166 26.604,5.067 26.565,4.938 26.611,4.873 26.719,4.721 26.6,4.7 26.52,4.645 26.501,4.632 26.484,4.615 26.465,4.6 c 0.014,-0.011 0.028,-0.03 0.042,-0.03 0.022,-0.001 0.053,0.003 0.066,0.018 0.096,0.107 0.189,0.217 0.283,0.325 0.005,0.006 0.014,0.01 0.021,0.014 C 26.882,4.915 26.893,4.9 26.89,4.89 26.868,4.819 26.841,4.75 26.821,4.68 26.808,4.636 26.805,4.59 26.798,4.545 c 0.05,0 0.115,-0.019 0.147,0.005 0.222,0.166 0.468,0.316 0.646,0.522 0.174,0.201 0.377,0.46 0.382,0.698 0.004,0.23 0.115,0.379 0.174,0.563 0.1,0.312 0.314,0.518 0.582,0.718 0.212,0.159 0.309,0.472 0.457,0.716 0.112,0.184 0.223,0.368 0.334,0.553 0.078,0.13 0.155,0.261 0.233,0.391 0.101,0.169 0.204,0.336 0.301,0.506 0.023,0.041 0.026,0.093 0.041,0.139 0.025,0.075 0.029,0.178 0.082,0.219 0.234,0.183 0.316,0.447 0.416,0.704 0.118,0.305 0.247,0.606 0.367,0.91 0.047,0.119 0.069,0.249 0.13,0.359 0.063,0.112 0.191,0.194 0.233,0.31 0.046,0.129 0.013,0.283 0.04,0.422 0.03,0.156 0.079,0.311 0.137,0.459 0.066,0.166 0.06,0.304 -0.076,0.435 -0.026,0.025 -0.009,0.114 0.01,0.165 0.057,0.151 0.175,0.297 0.18,0.447 0.013,0.357 0.042,0.706 0.099,1.06 0.089,0.554 0.151,1.116 0.173,1.677 0.023,0.57 0.018,1.146 -0.038,1.712 -0.04,0.399 -0.179,0.789 -0.288,1.18 -0.14,0.5 -0.262,0.995 -0.335,1.517 -0.083,0.591 -0.366,1.156 -0.573,1.728 -0.088,0.244 -0.187,0.488 -0.312,0.715 -0.118,0.214 -0.094,0.461 -0.196,0.675 -0.005,0.011 0.008,0.031 0.013,0.047 0.03,-0.014 0.059,-0.03 0.091,-0.042 0.028,-0.011 0.059,-0.016 0.088,-0.024 -0.012,0.025 -0.024,0.05 -0.037,0.074 -0.078,0.138 -0.124,0.321 -0.241,0.404 -0.409,0.29 -0.575,0.747 -0.846,1.132 -0.131,0.187 -0.29,0.356 -0.45,0.519 -0.026,0.026 -0.127,-0.031 -0.194,-0.034 -0.031,-0.001 -0.064,0.035 -0.096,0.054 0.032,0.029 0.062,0.062 0.097,0.085 0.033,0.022 0.073,0.034 0.11,0.05 -0.037,0.016 -0.074,0.032 -0.112,0.047 -0.129,0.05 -0.258,0.099 -0.387,0.149 -0.05,0.019 -0.106,0.031 -0.146,0.064 -0.068,0.056 -0.14,0.117 -0.183,0.192 -0.108,0.192 -0.18,0.408 -0.306,0.586 -0.112,0.159 -0.275,0.282 -0.419,0.418 -0.255,0.24 -0.511,0.478 -0.77,0.714 -0.024,0.022 -0.067,0.024 -0.102,0.035 0.022,-0.026 0.038,-0.063 0.065,-0.075 0.254,-0.113 0.378,-0.345 0.508,-0.567 0.025,-0.042 -0.008,-0.118 -0.014,-0.178 -0.037,0.018 -0.082,0.027 -0.109,0.054 -0.197,0.197 -0.391,0.398 -0.585,0.598 -0.017,0.018 -0.049,0.043 -0.045,0.055 0.081,0.242 -0.173,0.235 -0.257,0.352 -0.046,0.064 -0.078,0.14 -0.109,0.214 -0.049,0.119 -0.059,0.278 -0.145,0.353 -0.198,0.175 -0.397,0.382 -0.708,0.34 -0.047,-0.006 -0.112,0.018 -0.149,0.05 -0.17,0.146 -0.331,0.302 -0.498,0.451 -0.1,0.089 -0.203,0.175 -0.31,0.254 -0.008,0.006 -0.065,-0.05 -0.095,-0.082 -0.018,-0.019 -0.029,-0.047 -0.043,-0.07 -0.017,0.016 -0.044,0.029 -0.05,0.048 -0.085,0.292 -0.367,0.2 -0.558,0.283 -0.122,0.053 -0.255,0.081 -0.385,0.114 -0.17,0.044 -0.344,0.074 -0.512,0.126 -0.08,0.025 -0.144,0.101 -0.223,0.126 -0.095,0.03 -0.243,0.215 -0.277,-0.061 -0.002,-0.013 -0.019,-0.024 -0.029,-0.036 -0.021,0.037 -0.036,0.081 -0.065,0.109 -0.05,0.048 -0.107,0.089 -0.165,0.127 -0.007,0.004 -0.047,-0.027 -0.058,-0.049 -0.018,-0.036 -0.014,-0.103 -0.037,-0.112 -0.042,-0.016 -0.12,-0.019 -0.141,0.007 -0.071,0.09 -0.112,0.205 -0.187,0.29 -0.081,0.091 -0.185,0.163 -0.283,0.238 -0.102,0.079 -0.204,0.161 -0.315,0.226 -0.15,0.087 -0.303,0.203 -0.465,0.225 -0.289,0.039 -0.588,0.029 -0.881,0.01 -0.078,-0.005 -0.172,-0.102 -0.221,-0.18 -0.167,-0.271 -0.253,-0.291 -0.546,-0.172 -0.192,0.078 -0.409,0.092 -0.605,0.161 -0.135,0.048 -0.25,0.149 -0.381,0.21 -0.067,0.031 -0.15,0.038 -0.225,0.039 -0.153,10e-4 -0.306,-0.01 -0.459,-0.014 -0.031,-0.001 -0.061,0.006 -0.092,0.009 10e-4,-0.019 -0.004,-0.045 0.006,-0.054 0.022,-0.02 0.051,-0.038 0.079,-0.044 0.053,-0.01 0.118,0.007 0.159,-0.018 0.081,-0.05 0.149,-0.121 0.222,-0.183 -0.081,-0.02 -0.162,-0.041 -0.243,-0.061 -0.001,0.014 -0.004,0.029 -0.007,0.043 z M 8.26,4.808 C 7.892,4.807 7.436,5.134 7.348,5.402 7.339,5.431 7.326,5.485 7.324,5.485 7.095,5.436 7.033,5.659 6.898,5.754 6.81,5.816 6.758,5.934 6.7,6.032 6.666,6.089 6.668,6.184 6.622,6.215 6.353,6.394 6.074,6.559 5.801,6.731 5.77,6.751 5.745,6.788 5.729,6.822 5.645,7 4.515,7.202 4.474,7.389 4.441,7.538 4.089,7.749 4.516,7.867 4.524,7.869 4.526,7.9 4.528,7.918 4.55,8.099 4.51,8.237 4.292,8.253 4.277,8.254 4.253,8.298 4.255,8.319 4.26,8.362 4.28,8.404 4.293,8.446 4.251,8.421 4.209,8.396 4.167,8.372 4.133,8.353 4.099,8.335 4.065,8.317 4.067,8.351 4.063,8.386 4.071,8.419 4.085,8.481 4.138,8.557 4.117,8.601 4.04,8.769 3.938,8.927 3.848,9.09 3.827,9.127 3.818,9.17 3.8,9.209 3.754,9.308 3.702,9.403 3.663,9.504 3.646,9.548 3.638,9.613 3.659,9.65 3.704,9.726 3.827,9.798 3.818,9.855 3.785,10.047 3.715,10.234 3.646,10.418 3.563,10.642 3.473,10.863 3.375,11.081 3.325,11.191 3.27,11.311 3.183,11.39 3.104,11.462 2.865,11.357 2.946,11.61 2.948,11.615 2.925,11.636 2.913,11.637 2.629,11.639 2.469,11.87 2.369,12.05 c -0.175,0.315 0.17,0.442 0.123,0.859 -0.042,0.371 0.109,0.732 0.013,1.097 -0.002,0.009 -0.004,0.023 10e-4,0.03 0.13,0.203 -0.098,0.314 -0.129,0.477 -0.037,0.194 -0.176,0.382 -0.169,0.569 0.01,0.262 0.032,0.506 -0.064,0.763 -0.137,0.365 -0.204,0.757 -0.352,1.116 -0.115,0.278 -0.13,0.526 -0.018,0.8 0.088,0.215 0.177,0.435 0.219,0.661 0.066,0.355 0.064,0.723 0.143,1.074 0.09,0.403 0.088,0.814 0.344,1.2 0.333,0.501 0.692,1.026 0.674,1.683 -10e-4,0.05 0.054,0.101 0.059,0.153 0.011,0.107 0.114,0.209 -0.056,0.321 -0.152,0.1 -0.18,0.275 0.022,0.41 0.086,0.058 0.142,0.158 0.218,0.232 0.658,0.638 1.321,1.273 1.976,1.914 0.228,0.223 0.426,0.478 0.662,0.691 0.229,0.206 0.486,0.381 0.737,0.561 0.25,0.179 0.565,0.302 0.747,0.531 0.233,0.293 0.542,0.443 0.835,0.631 0.327,0.21 0.68,0.381 1.004,0.595 0.417,0.275 0.819,0.575 1.225,0.867 0.082,0.059 0.152,0.134 0.234,0.193 0.073,0.052 0.153,0.127 0.233,0.132 0.629,0.041 1.223,0.215 1.805,0.442 0.183,0.071 0.369,0.173 0.558,0.184 0.388,0.023 0.78,-0.021 1.17,-0.011 0.573,0.015 1.146,0.055 1.718,0.08 0.035,0.002 0.102,-0.034 0.104,-0.056 0.025,-0.379 0.455,-0.433 0.589,-0.724 0.009,-0.02 0.11,-0.024 0.149,-0.002 0.16,0.089 0.336,0.168 0.465,0.293 0.292,0.281 0.584,0.302 0.967,0.171 0.587,-0.201 1.204,-0.315 1.802,-0.488 0.425,-0.124 0.832,-0.316 1.261,-0.422 0.482,-0.118 0.921,-0.309 1.33,-0.577 0.235,-0.154 0.458,-0.327 0.701,-0.465 0.182,-0.103 0.406,-0.136 0.579,-0.249 0.449,-0.294 0.883,-0.613 1.318,-0.929 0.056,-0.041 0.089,-0.117 0.124,-0.181 0.123,-0.229 0.199,-0.502 0.372,-0.684 0.72,-0.763 1.474,-1.494 2.204,-2.248 0.322,-0.332 0.674,-0.647 0.776,-1.138 0.048,-0.231 0.152,-0.451 0.234,-0.675 0.048,-0.132 0.165,-0.271 0.145,-0.389 -0.078,-0.456 0.159,-0.815 0.304,-1.208 0.075,-0.204 0.113,-0.432 0.118,-0.65 0.006,-0.285 -0.074,-0.574 -0.05,-0.855 0.028,-0.315 0.129,-0.623 0.202,-0.934 0.058,-0.247 0.093,-0.485 -0.064,-0.718 -0.094,-0.139 -0.161,-0.306 -0.034,-0.462 0.125,-0.154 0.151,-0.301 0.038,-0.47 -0.018,-0.026 -0.013,-0.068 -0.017,-0.103 -0.019,-0.177 -0.038,-0.353 -0.057,-0.53 -0.026,-0.24 -0.064,-0.48 -0.073,-0.721 -0.005,-0.135 0.105,-0.312 0.05,-0.4 C 29.632,14.165 29.794,13.819 29.734,13.49 29.695,13.278 29.748,13.003 29.631,12.865 29.497,12.707 29.345,12.568 29.279,12.369 29.205,12.149 29.101,11.92 29.107,11.697 29.115,11.368 29.069,11.08 28.879,10.806 28.785,10.67 28.721,10.509 28.66,10.353 28.491,9.918 28.337,9.477 28.165,9.043 28.117,8.921 28.018,8.82 27.966,8.699 27.916,8.584 27.92,8.444 27.86,8.337 27.71,8.067 27.544,7.805 27.371,7.55 27.326,7.484 27.235,7.425 27.156,7.411 27.007,7.385 26.848,7.414 26.702,7.381 26.635,7.366 26.584,7.26 26.537,7.188 26.528,7.175 26.572,7.128 26.592,7.096 26.542,7.072 26.492,7.03 26.441,7.028 26.091,7.011 26.033,7.047 26,6.782 25.991,6.708 26.017,6.619 26.055,6.553 26.149,6.393 25.396,5.617 25.205,5.871 25.164,5.925 25.122,5.983 25.068,6.023 24.927,6.127 24.966,6.344 24.959,6.475 24.958,6.504 24.972,6.534 24.979,6.564 24.953,6.543 24.922,6.525 24.903,6.5 24.755,6.301 24.61,6.099 24.462,5.9 24.304,5.687 24.128,6.154 23.987,5.931 23.831,5.685 23.623,5.882 23.661,5.548 23.674,5.435 23.608,5.314 23.575,5.197 23.57,5.179 23.55,5.15 23.541,5.151 23.332,5.186 23.549,5.065 23.495,5.019 23.437,4.969 23.446,4.828 23.387,4.794 23.189,4.68 22.966,4.607 22.765,4.495 22.631,4.421 22.521,4.304 22.395,4.216 22.354,4.188 22.283,4.165 22.244,4.181 22.207,4.197 21.854,4.133 21.831,3.938 21.827,3.9 21.822,3.843 21.797,3.828 21.504,3.654 21.212,3.475 20.909,3.321 20.662,3.195 20.391,3.115 20.144,2.988 19.532,2.674 18.917,2.409 18.203,2.616 18.135,2.636 18.049,2.599 17.972,2.585 17.596,2.517 17.222,2.427 16.842,2.386 16.44,2.343 16.032,2.354 15.627,2.328 15.265,2.304 14.904,2.255 14.542,2.227 14.103,2.193 13.693,2.327 13.279,2.45 12.956,2.546 12.616,2.588 12.294,2.688 11.827,2.833 11.37,3.011 10.908,3.172 10.68,3.252 10.434,3.296 10.225,3.409 9.92,3.573 9.651,3.803 9.348,3.971 8.998,4.165 8.58,4.244 8.326,4.593 8.302,4.626 8.264,4.688 8.276,4.704 8.266,4.743 8.296,4.773 8.26,4.809 Z"
       inkscape:connector-curvature="0"
       style="fill:#ffffff" />
  </g>
</svg>
