<?xml version="1.0" encoding="UTF-8" standalone="no"?>
<!-- Generated by IcoMoon.io -->

<svg
   xmlns:dc="http://purl.org/dc/elements/1.1/"
   xmlns:cc="http://creativecommons.org/ns#"
   xmlns:rdf="http://www.w3.org/1999/02/22-rdf-syntax-ns#"
   xmlns:svg="http://www.w3.org/2000/svg"
   xmlns="http://www.w3.org/2000/svg"
   xmlns:sodipodi="http://sodipodi.sourceforge.net/DTD/sodipodi-0.dtd"
   xmlns:inkscape="http://www.inkscape.org/namespaces/inkscape"
   version="1.1"
   width="215"
   height="215"
   viewBox="0 0 215 215"
   id="svg16"
   sodipodi:docname="weapons.svg"
   inkscape:version="0.92.3 (2405546, 2018-03-11)">
  <metadata
     id="metadata22">
    <rdf:RDF>
      <cc:Work
         rdf:about="">
        <dc:format>image/svg+xml</dc:format>
        <dc:type
           rdf:resource="http://purl.org/dc/dcmitype/StillImage" />
        <dc:title>treasure-weapons</dc:title>
      </cc:Work>
    </rdf:RDF>
  </metadata>
  <defs
     id="defs20" />
  <sodipodi:namedview
     pagecolor="#ffffff"
     bordercolor="#666666"
     borderopacity="1"
     objecttolerance="10"
     gridtolerance="10"
     guidetolerance="10"
     inkscape:pageopacity="0"
     inkscape:pageshadow="2"
     inkscape:window-width="1920"
     inkscape:window-height="1017"
     id="namedview18"
     showgrid="false"
     fit-margin-top="0"
     fit-margin-left="0"
     fit-margin-right="0"
     fit-margin-bottom="0"
     inkscape:zoom="1.84375"
     inkscape:cx="-54.697114"
     inkscape:cy="37.796196"
     inkscape:window-x="-8"
     inkscape:window-y="-8"
     inkscape:window-maximized="1"
     inkscape:current-layer="svg16" />
  <title
     id="title2">treasure-weapons</title>
  <g
     id="g835"
     transform="matrix(6.7188858,0,0,6.7188858,5.2923447e-4,0.00624892)"
     style="fill:#000000;fill-opacity:1">
    <path
       id="path4"
       d="M 8.339,31.399 C 8.392,31.307 8.352,31.241 8.207,31.241 8.049,31.241 8.009,31.162 8.049,30.924 8.102,30.673 8.062,30.621 7.904,30.673 7.785,30.699 7.851,30.62 8.062,30.502 8.26,30.37 8.418,30.212 8.418,30.146 c 0,-0.066 0.092,-0.198 0.198,-0.303 0.106,-0.119 0.198,-0.383 0.198,-0.594 0,-0.211 0.066,-0.383 0.132,-0.383 0.079,0 0.132,-0.079 0.132,-0.185 0,-0.106 0.079,-0.277 0.185,-0.369 0.092,-0.106 0.224,-0.317 0.264,-0.475 0.053,-0.158 0.158,-0.29 0.224,-0.29 0.066,0 0.119,-0.092 0.119,-0.198 0,-0.106 0.066,-0.198 0.132,-0.198 0.079,0 0.132,-0.079 0.132,-0.185 0,-0.106 0.092,-0.211 0.198,-0.264 0.106,-0.04 0.198,-0.198 0.198,-0.343 0,-0.145 0.066,-0.264 0.145,-0.264 0.066,0 0.224,-0.211 0.33,-0.462 0.106,-0.264 0.277,-0.501 0.383,-0.554 0.106,-0.04 0.198,-0.211 0.198,-0.383 0,-0.158 0.079,-0.356 0.171,-0.409 0.185,-0.119 0.462,-0.541 0.567,-0.857 0.053,-0.132 0.132,-0.237 0.198,-0.237 0.066,0 0.119,-0.079 0.119,-0.171 0,-0.317 0.488,-0.752 0.844,-0.752 0.185,0 0.343,0.066 0.343,0.132 0,0.079 0.119,0.132 0.264,0.132 0.145,0 0.264,0.092 0.264,0.198 0,0.106 0.092,0.198 0.198,0.198 0.106,0 0.198,0.092 0.198,0.198 0,0.119 0.119,0.198 0.303,0.198 0.317,0.013 0.752,0.29 0.752,0.475 0,0.066 -0.211,0.29 -0.462,0.514 -0.251,0.211 -0.462,0.475 -0.462,0.567 0,0.092 -0.066,0.132 -0.132,0.092 -0.119,-0.079 -1.055,0.752 -1.055,0.923 0,0.106 -0.818,0.857 -0.937,0.857 -0.066,0 -0.119,0.079 -0.119,0.171 0,0.106 -0.145,0.264 -0.33,0.356 -0.185,0.092 -0.33,0.251 -0.33,0.356 0,0.092 -0.092,0.171 -0.198,0.171 -0.106,0 -0.198,0.066 -0.198,0.145 0,0.145 -0.712,0.91 -0.857,0.91 -0.079,0 -0.251,0.145 -1.148,1.016 -0.132,0.119 -0.198,0.264 -0.145,0.343 0.04,0.079 0.026,0.092 -0.053,0.053 -0.132,-0.079 -0.567,0.343 -0.567,0.567 0,0.079 -0.079,0.119 -0.158,0.106 -0.092,-0.026 -0.158,0.066 -0.132,0.185 0.013,0.119 -0.04,0.264 -0.119,0.317 -0.106,0.053 -0.119,0.04 -0.066,-0.053 z"
       inkscape:connector-curvature="0"
       style="fill:#000000;fill-opacity:1" />
    <path
       id="path6"
       d="m 24.907,28.682 c 0,-0.106 -0.053,-0.211 -0.106,-0.237 -0.053,-0.013 -0.303,-0.303 -0.554,-0.633 -0.251,-0.33 -0.488,-0.62 -0.528,-0.66 -0.04,-0.04 -0.277,-0.33 -0.514,-0.633 -0.58,-0.752 -0.857,-1.068 -1.688,-1.965 -0.383,-0.409 -0.699,-0.791 -0.699,-0.844 0,-0.053 -0.092,-0.185 -0.198,-0.303 -0.185,-0.171 -0.185,-0.251 -0.013,-0.673 0.185,-0.435 0.185,-0.462 -0.066,-0.462 -0.132,0 -0.251,0.066 -0.251,0.132 0,0.079 -0.106,0.132 -0.224,0.132 -0.132,0 -0.383,0.158 -0.554,0.33 -0.171,0.185 -0.356,0.33 -0.422,0.33 -0.066,0 -0.119,0.092 -0.119,0.198 0,0.106 -0.053,0.211 -0.132,0.211 -0.066,0.013 -0.185,0.026 -0.264,0.04 -0.066,0 -0.198,0.092 -0.277,0.185 -0.251,0.237 -1.293,0.211 -1.385,-0.04 -0.053,-0.106 -0.171,-0.198 -0.277,-0.198 -0.119,0 -0.171,-0.079 -0.119,-0.198 0.053,-0.145 -0.026,-0.198 -0.317,-0.198 -0.224,0 -0.396,-0.053 -0.396,-0.132 0,-0.066 -0.066,-0.132 -0.145,-0.132 -0.079,0 -0.224,-0.079 -0.33,-0.185 -0.092,-0.106 -0.251,-0.224 -0.343,-0.251 -0.132,-0.053 -0.119,-0.106 0.026,-0.224 0.158,-0.132 0.145,-0.145 -0.092,-0.092 -0.158,0.04 -0.356,-0.013 -0.448,-0.119 -0.079,-0.106 -0.224,-0.185 -0.317,-0.185 -0.093,0 -0.237,-0.092 -0.33,-0.198 -0.092,-0.106 -0.356,-0.198 -0.594,-0.198 -0.251,0 -0.462,-0.066 -0.488,-0.132 -0.026,-0.079 -0.765,-0.158 -1.82,-0.185 L 9.155,21.11 9.102,20.675 c -0.026,-0.264 0.026,-0.488 0.132,-0.58 0.092,-0.079 0.237,-0.251 0.317,-0.396 0.08,-0.145 0.303,-0.277 0.501,-0.303 0.185,-0.026 0.317,-0.092 0.29,-0.145 -0.04,-0.053 0.066,-0.185 0.237,-0.277 0.303,-0.158 0.303,-0.171 0.066,-0.409 -0.132,-0.132 -0.303,-0.251 -0.369,-0.251 -0.171,0 -0.251,-0.475 -0.356,-2.071 C 9.867,15.333 9.775,14.845 9.656,14.739 9.419,14.541 9.419,14.093 9.643,14.093 c 0.092,0 0.317,-0.251 0.488,-0.554 0.171,-0.303 0.475,-0.712 0.66,-0.897 0.198,-0.198 0.396,-0.514 0.448,-0.712 0.052,-0.198 0.145,-0.317 0.211,-0.277 0.079,0.053 0.132,-0.211 0.132,-0.646 0,-0.409 0.066,-0.765 0.158,-0.818 0.092,-0.066 0.106,-0.026 0.04,0.092 -0.092,0.158 -0.066,0.158 0.079,0.013 0.119,-0.119 0.132,-0.198 0.04,-0.264 -0.251,-0.171 -0.303,-0.541 -0.33,-2.348 -0.013,-1.649 0.013,-1.807 0.264,-2.045 0.171,-0.171 0.462,-0.251 0.857,-0.251 0.343,0 0.607,-0.066 0.646,-0.171 0.026,-0.092 0.211,-0.171 0.409,-0.198 0.317,-0.026 0.343,0.013 0.343,0.514 0,0.343 -0.053,0.501 -0.145,0.449 -0.092,-0.066 -0.106,-0.013 -0.013,0.145 0.066,0.145 0.237,0.488 0.369,0.765 0.369,0.791 1.134,1.662 1.451,1.662 0.079,0 0.317,0.079 0.528,0.185 0.211,0.106 0.475,0.198 0.58,0.224 0.303,0.04 1.319,-0.171 1.398,-0.29 0.04,-0.066 0.224,-0.119 0.422,-0.132 0.198,0 0.277,-0.04 0.185,-0.079 -0.119,-0.053 -0.066,-0.198 0.198,-0.541 0.198,-0.277 0.409,-0.501 0.462,-0.528 0.053,-0.027 0.106,-0.158 0.106,-0.303 0,-0.145 0.092,-0.29 0.198,-0.33 0.145,-0.066 0.198,-0.29 0.198,-0.897 0,-0.462 0.066,-0.884 0.158,-0.976 0.198,-0.198 0.844,-0.211 0.963,-0.026 0.04,0.079 0.396,0.145 0.765,0.145 0.383,0.013 0.58,0.04 0.462,0.079 -0.224,0.053 -0.224,0.079 -0.026,0.277 0.211,0.198 0.211,0.462 -0.013,1.741 -0.04,0.185 -0.092,0.646 -0.145,1.029 -0.053,0.383 -0.145,0.726 -0.198,0.765 -0.158,0.092 -0.145,0.976 0.013,0.976 0.066,0 0.119,0.04 0.119,0.106 -0.013,0.053 -0.013,0.462 0,0.923 0.013,0.633 0.053,0.818 0.211,0.818 0.106,0 0.185,0.066 0.158,0.158 -0.013,0.092 0.066,0.158 0.171,0.171 0.106,0 0.185,0.106 0.185,0.224 -0.013,0.119 0.053,0.185 0.145,0.158 0.092,-0.04 0.198,0.026 0.237,0.132 0.053,0.132 0.251,0.211 0.514,0.211 0.699,0.013 0.937,0.277 0.857,0.95 -0.053,0.317 -0.158,1.24 -0.251,2.058 -0.092,0.897 -0.211,1.477 -0.303,1.477 -0.185,0 -0.857,0.686 -0.857,0.871 0,0.066 0.066,0.026 0.132,-0.079 0.106,-0.171 0.132,-0.158 0.132,0.04 0,0.158 0.106,0.224 0.396,0.224 0.224,0 0.396,0.053 0.396,0.132 0,0.066 0.237,0.185 0.528,0.264 0.291,0.079 0.528,0.171 0.528,0.211 0,0.053 -0.092,0.053 -0.198,0 -0.106,-0.04 -0.198,-0.013 -0.198,0.053 0,0.079 0.106,0.132 0.237,0.132 0.171,0 0.185,0.026 0.04,0.119 -0.145,0.093 -0.145,0.132 0,0.198 0.106,0.04 0.026,0.053 -0.158,0.013 -0.185,-0.026 -0.448,0.026 -0.594,0.132 -0.132,0.106 -0.356,0.198 -0.475,0.198 -0.251,0 -1.068,0.409 -1.134,0.567 -0.026,0.053 -0.145,0.092 -0.251,0.092 -0.264,0 -1.134,0.884 -1.042,1.042 0.053,0.066 0.211,0.092 0.383,0.066 0.198,-0.04 0.171,-0.013 -0.079,0.092 -0.277,0.106 -0.422,0.106 -0.528,0 -0.211,-0.211 -0.264,-0.185 -0.699,0.198 -0.356,0.317 -0.356,0.343 -0.079,0.277 0.158,-0.04 0.29,-0.013 0.29,0.04 0,0.158 0.369,0.079 0.554,-0.106 0.092,-0.092 0.264,-0.158 0.409,-0.158 0.264,0 1.016,0.673 1.016,0.91 0,0.079 0.066,0.145 0.145,0.145 0.185,0 0.91,0.726 0.91,0.91 0,0.079 0.066,0.145 0.132,0.145 0.079,0 0.211,0.145 0.29,0.33 0.079,0.185 0.264,0.33 0.396,0.33 0.145,0 0.211,0.066 0.171,0.132 -0.04,0.079 -0.013,0.132 0.053,0.132 0.079,0 0.145,0.079 0.145,0.171 0,0.092 0.303,0.448 0.66,0.778 0.369,0.343 0.66,0.673 0.66,0.752 0,0.079 0.158,0.145 0.369,0.145 0.277,0 0.317,0.026 0.158,0.132 -0.132,0.079 -0.145,0.132 -0.026,0.132 0.092,0 0.158,0.171 0.158,0.396 0,0.225 -0.053,0.396 -0.106,0.396 -0.066,0 -0.198,0.158 -0.29,0.343 -0.106,0.185 -0.343,0.369 -0.554,0.409 -0.198,0.04 -0.369,0.119 -0.369,0.185 0,0.066 -0.171,0.119 -0.396,0.119 -0.251,0 -0.396,-0.066 -0.396,-0.185 z M 10.212,20.161 c 0,-0.317 -0.264,-0.277 -0.317,0.04 -0.026,0.119 0.04,0.224 0.132,0.224 0.106,0 0.185,-0.119 0.185,-0.264 z m 5.263,-1.187 c 0.04,-0.066 0.013,-0.132 -0.053,-0.132 -0.079,0 -0.145,0.066 -0.145,0.132 0,0.079 0.026,0.132 0.053,0.132 0.04,0 0.106,-0.053 0.145,-0.132 z m 0.396,-0.66 c 0.04,-0.066 0.053,-0.132 0.013,-0.132 -0.04,0 -0.106,0.066 -0.145,0.132 -0.04,0.079 -0.053,0.132 -0.013,0.132 0.04,0 0.106,-0.053 0.145,-0.132 z m 0.91,-0.514 c 0.237,-0.264 0.185,-0.541 -0.092,-0.541 -0.092,0 -0.079,0.053 0.04,0.132 0.158,0.092 0.132,0.158 -0.119,0.383 -0.171,0.158 -0.264,0.277 -0.185,0.277 0.066,0 0.237,-0.119 0.356,-0.251 z m 1.135,-0.014 c 0,-0.066 -0.132,-0.132 -0.29,-0.119 -0.29,0 -0.29,0.013 -0.04,0.119 0.145,0.066 0.277,0.119 0.303,0.119 0.013,0.013 0.026,-0.04 0.026,-0.119 z m -0.673,-2.203 c 0,-0.871 0.053,-1.438 0.132,-1.464 0.198,-0.066 0.185,-1.702 0,-1.768 -0.106,-0.04 -0.026,-0.264 0.211,-0.607 0.356,-0.541 0.356,-0.554 0.119,-0.91 -0.132,-0.211 -0.224,-0.409 -0.211,-0.462 0.013,-0.066 -0.198,-0.106 -0.488,-0.106 -0.462,0 -0.541,0.053 -0.739,0.475 -0.198,0.422 -0.198,0.488 -0.013,0.778 0.171,0.264 0.211,0.752 0.211,2.704 0,2.256 0.013,2.374 0.251,2.374 0.185,0 0.277,-0.106 0.317,-0.356 0.04,-0.264 0.053,-0.237 0.053,0.119 -0.013,0.264 -0.04,0.462 -0.092,0.448 -0.04,-0.026 -0.185,0 -0.33,0.066 -0.224,0.079 -0.185,0.106 0.158,0.106 l 0.422,0.013 v -1.411 z m -3.258,-5.5 C 14.17,9.819 14.091,9.542 13.748,9.16 13.55,8.962 13.392,8.659 13.379,8.5 13.366,8.315 13.26,8.21 13.062,8.183 12.706,8.13 12.534,8.486 12.759,8.829 c 0.106,0.198 0.106,0.317 -0.013,0.501 -0.409,0.673 0.805,1.398 1.24,0.752 z m 5.25,-0.792 c 0,-0.251 -0.053,-0.303 -0.264,-0.251 -0.33,0.092 -0.343,0.396 -0.026,0.475 0.119,0.04 0.237,0.066 0.264,0.079 0.013,0 0.026,-0.132 0.026,-0.303 z m 1.82,-0.435 c 0.026,-0.475 -0.013,-0.699 -0.119,-0.699 -0.079,0 -0.237,-0.106 -0.33,-0.224 -0.171,-0.224 -0.171,-0.224 -0.185,0 0,0.277 -0.396,0.303 -0.396,0.026 0,-0.106 -0.066,-0.198 -0.158,-0.198 -0.079,0 -0.106,0.04 -0.066,0.092 0.053,0.04 -0.026,0.171 -0.171,0.264 -0.264,0.185 -0.264,0.198 0.053,0.475 0.29,0.251 0.303,0.29 0.092,0.448 -0.198,0.145 -0.198,0.158 0,0.171 0.119,0 0.264,0.092 0.303,0.211 0.053,0.132 0.211,0.185 0.501,0.158 0.422,-0.04 0.435,-0.053 0.475,-0.726 z m 0.396,-3.443 c -0.33,-0.066 -0.396,0.013 -0.29,0.29 0.079,0.211 0.106,0.211 0.317,-0.013 0.211,-0.224 0.211,-0.237 -0.026,-0.277 z"
       inkscape:connector-curvature="0"
       style="fill:#000000;fill-opacity:1" />
    <path
       id="path8"
       d="m 20.95,21.902 c 0,-0.066 0.092,-0.119 0.198,-0.119 0.106,0 0.198,0.053 0.198,0.119 0,0.053 -0.092,0.106 -0.198,0.106 -0.106,0 -0.198,-0.053 -0.198,-0.106 z"
       inkscape:connector-curvature="0"
       style="fill:#000000;fill-opacity:1" />
    <path
       id="path10"
       d="M 5.463,16.401 C 5.318,16.295 5.067,16.203 4.909,16.203 4.751,16.203 4.592,16.163 4.566,16.111 4.513,15.966 3.682,15.544 3.471,15.544 3.365,15.544 2.798,15.069 2.191,14.489 1.597,13.909 1.03,13.434 0.938,13.434 0.832,13.434 0.767,13.276 0.767,13.051 0.767,12.84 0.675,12.576 0.569,12.457 0.463,12.351 0.371,12.14 0.371,12.009 0.371,11.864 0.305,11.719 0.226,11.692 0.147,11.665 0.055,11.362 0.015,11.019 -0.064,10.399 0.173,9.819 0.595,9.568 0.687,9.515 0.766,9.357 0.766,9.212 0.766,9.08 0.885,8.922 1.043,8.882 1.188,8.829 1.531,8.565 1.795,8.275 2.098,7.958 2.415,7.761 2.613,7.747 2.798,7.747 2.877,7.707 2.798,7.681 2.706,7.641 2.838,7.43 3.115,7.167 3.616,6.666 3.801,6.6 3.801,6.903 c 0,0.106 -0.053,0.198 -0.132,0.198 -0.066,0 -0.132,0.237 -0.132,0.528 v 0.528 h 0.567 c 0.409,0 0.501,0.04 0.356,0.132 -0.132,0.079 -0.145,0.132 -0.026,0.132 0.079,0 0.158,0.092 0.158,0.198 0,0.106 0.066,0.198 0.132,0.198 0.132,0 0.185,-0.185 0.145,-0.488 C 4.856,8.237 4.909,8.158 4.975,8.158 5.278,8.158 6.294,7.01 6.334,6.615 6.36,6.364 6.558,6.048 6.875,5.758 7.139,5.494 7.363,5.23 7.363,5.138 c 0,-0.079 0.092,-0.145 0.198,-0.145 0.106,0 0.198,-0.053 0.198,-0.132 0,-0.066 0.092,-0.132 0.198,-0.132 0.119,0 0.198,0.119 0.198,0.33 0,0.237 0.066,0.33 0.264,0.33 0.145,0 0.303,-0.092 0.343,-0.198 0.053,-0.106 0.145,-0.198 0.237,-0.198 0.158,0 0.475,-0.594 0.475,-0.884 0,-0.092 0.053,-0.171 0.132,-0.171 0.132,0 0.514,-0.277 1.016,-0.765 0.185,-0.158 0.383,-0.264 0.448,-0.224 0.066,0.053 0.158,-0.013 0.198,-0.119 0.04,-0.119 0.171,-0.211 0.277,-0.211 0.106,0 0.158,0.053 0.106,0.119 -0.04,0.066 0.053,0.145 0.211,0.171 l 0.277,0.04 -0.277,0.317 c -0.158,0.171 -0.277,0.422 -0.277,0.567 0,0.132 -0.04,0.237 -0.106,0.237 -0.053,0 -0.211,0.224 -0.356,0.501 -0.145,0.264 -0.29,0.514 -0.33,0.554 -0.04,0.04 -0.264,0.356 -0.488,0.699 -0.739,1.068 -0.554,2.084 0.567,3.06 0.303,0.251 0.554,1.385 0.33,1.385 -0.066,0 -0.079,0.145 -0.04,0.33 0.053,0.277 0,0.33 -0.251,0.343 -0.171,0 -0.237,0.04 -0.145,0.079 0.211,0.079 0.198,0.264 -0.026,0.264 -0.119,0 -0.171,-0.106 -0.132,-0.303 0.026,-0.171 -0.013,-0.343 -0.092,-0.396 -0.106,-0.066 -0.119,-0.04 -0.053,0.092 0.106,0.158 0.079,0.158 -0.106,0 -0.119,-0.092 -0.185,-0.224 -0.145,-0.29 0.04,-0.066 -0.026,-0.119 -0.132,-0.119 -0.119,0 -0.211,-0.066 -0.211,-0.145 0,-0.158 -0.791,-0.91 -0.95,-0.91 C 8.721,9.214 8.813,8.963 9.051,8.911 9.17,8.871 8.945,8.871 8.55,8.911 8.155,8.951 7.811,9.043 7.785,9.096 7.759,9.162 7.666,9.215 7.574,9.215 c -0.185,0 -0.871,0.712 -0.871,0.91 0,0.066 -0.092,0.145 -0.198,0.198 -0.106,0.04 -0.198,0.158 -0.198,0.264 0,0.106 -0.066,0.211 -0.145,0.237 -0.079,0.026 -0.171,0.409 -0.211,0.844 -0.053,0.633 -0.013,0.91 0.198,1.398 0.29,0.62 0.765,1.029 1.187,1.029 0.277,0 0.818,0.514 0.818,0.778 0,0.092 0.066,0.119 0.132,0.079 0.079,-0.053 0.132,0.066 0.132,0.251 0,0.237 0.066,0.343 0.237,0.343 0.171,0 0.185,0.026 0.053,0.119 -0.145,0.092 -0.145,0.119 0.013,0.185 0.132,0.04 0.171,0.185 0.132,0.409 -0.079,0.356 -0.435,0.488 -0.435,0.145 0,-0.251 -0.449,-0.264 -0.66,-0.013 -0.119,0.158 -0.224,0.171 -0.475,0.053 -0.237,-0.119 -0.369,-0.106 -0.475,0 -0.224,0.224 -1.042,0.185 -1.345,-0.04 z"
       inkscape:connector-curvature="0"
       style="fill:#000000;fill-opacity:1" />
    <path
       id="path12"
       d="m 23.799,12.022 c -0.198,-0.053 -0.211,-0.092 -0.066,-0.185 0.132,-0.079 0.079,-0.119 -0.171,-0.119 -0.33,0 -0.435,-0.119 -0.383,-0.448 0.013,-0.066 -0.079,-0.079 -0.198,-0.026 -0.171,0.066 -0.198,0.026 -0.145,-0.185 0.04,-0.145 -0.013,-0.356 -0.119,-0.448 -0.211,-0.224 -0.251,-0.528 -0.053,-0.409 0.079,0.053 0.132,-0.106 0.132,-0.383 0,-0.251 0.079,-0.514 0.171,-0.567 0.185,-0.119 0.462,-0.541 0.567,-0.857 0.053,-0.158 0.224,-0.237 0.514,-0.237 0.356,0 0.448,-0.053 0.488,-0.33 0.04,-0.185 0.026,-0.33 -0.04,-0.33 -0.066,0 -0.29,-0.171 -0.514,-0.396 -0.224,-0.211 -0.488,-0.396 -0.594,-0.396 -0.33,0 -0.224,-0.488 0.211,-0.91 0.396,-0.409 0.646,-0.514 0.646,-0.29 0,0.066 0.145,0.158 0.33,0.198 0.185,0.053 0.33,0.145 0.33,0.211 0,0.079 0.092,0.132 0.198,0.132 0.106,0 0.198,0.079 0.198,0.171 0,0.079 0.145,0.224 0.317,0.303 0.29,0.132 0.33,0.119 0.396,-0.158 0.053,-0.171 0.145,-0.317 0.211,-0.317 0.079,0 0.132,-0.092 0.132,-0.198 0,-0.106 0.053,-0.198 0.119,-0.198 0.066,0 0.171,-0.132 0.224,-0.29 0.053,-0.158 0.29,-0.501 0.528,-0.765 0.251,-0.251 0.448,-0.501 0.448,-0.554 0,-0.053 0.33,-0.409 0.726,-0.818 0.686,-0.686 0.897,-1.148 0.594,-1.332 -0.066,-0.04 -0.132,-0.224 -0.132,-0.409 0,-0.171 0.066,-0.317 0.132,-0.317 0.079,0 0.132,-0.092 0.132,-0.211 0,-0.132 0.079,-0.185 0.198,-0.132 0.106,0.04 0.277,-0.013 0.383,-0.119 0.237,-0.237 0.699,-0.251 0.91,-0.026 0.092,0.079 0.303,0.383 0.488,0.646 0.185,0.277 0.448,0.514 0.58,0.528 0.396,0.066 0.422,0.369 0.04,0.369 -0.198,0 -0.409,0.132 -0.541,0.33 -0.119,0.185 -0.343,0.33 -0.501,0.33 -0.303,0 -0.963,0.66 -1.108,1.095 -0.066,0.224 -0.29,0.488 -1.134,1.425 -0.211,0.224 -0.369,0.462 -0.369,0.528 0,0.066 -0.053,0.119 -0.119,0.119 -0.066,0 -0.145,0.106 -0.198,0.237 -0.04,0.119 -0.185,0.409 -0.33,0.62 -0.277,0.435 -0.356,0.857 -0.145,0.857 0.079,0 0.132,0.079 0.132,0.171 0.013,0.079 0.251,0.343 0.528,0.554 0.277,0.224 0.514,0.475 0.528,0.567 0,0.079 0.066,0.158 0.145,0.158 0.251,0 0.554,0.409 0.567,0.778 0.013,0.251 -0.053,0.356 -0.224,0.356 -0.132,0 -0.211,-0.066 -0.171,-0.158 0.066,-0.158 -0.356,-0.58 -0.62,-0.594 -0.079,0 -0.04,-0.053 0.106,-0.119 0.251,-0.106 0.251,-0.119 -0.026,-0.119 -0.171,-0.013 -0.303,0.053 -0.303,0.132 0,0.066 -0.053,0.092 -0.132,0.053 -0.079,-0.039 -0.092,0.013 -0.053,0.119 0.04,0.119 0.132,0.211 0.198,0.211 0.066,0 0.119,0.119 0.119,0.264 0,0.185 0.066,0.237 0.224,0.171 0.145,-0.053 0.185,-0.04 0.119,0.066 -0.119,0.198 -0.607,0.211 -0.607,0.026 0,-0.066 -0.066,-0.132 -0.145,-0.132 -0.079,0 -0.383,-0.237 -0.66,-0.514 -0.488,-0.514 -0.62,-0.58 -1.068,-0.554 -0.185,0.013 -0.237,0.132 -0.237,0.514 0,0.488 -0.277,1.042 -0.62,1.253 -0.092,0.053 -0.171,0.171 -0.171,0.264 0,0.093 -0.158,0.277 -0.343,0.422 -0.317,0.224 -0.317,0.264 -0.092,0.343 0.198,0.079 0.171,0.106 -0.092,0.092 -0.185,0 -0.448,-0.04 -0.58,-0.066 z m 2.559,-3.153 c 0,-0.026 -0.145,-0.04 -0.317,-0.026 -0.185,0.013 -0.303,0.066 -0.264,0.119 0.053,0.092 0.58,0 0.58,-0.092 z M 25.632,8.685 c 0.04,-0.079 -0.013,-0.092 -0.119,-0.053 -0.237,0.092 -0.277,0.185 -0.092,0.185 0.079,0 0.171,-0.053 0.211,-0.132 z"
       inkscape:connector-curvature="0"
       style="fill:#000000;fill-opacity:1" />
    <path
       id="path14"
       d="m 12.244,2.63 c 0,-0.066 -0.158,-0.145 -0.356,-0.171 l -0.369,-0.04 0.422,-0.237 c 0.237,-0.119 0.607,-0.409 0.831,-0.62 0.224,-0.224 0.462,-0.396 0.528,-0.396 0.343,0 0.211,0.33 -0.396,0.937 -0.356,0.369 -0.66,0.607 -0.66,0.528 z"
       inkscape:connector-curvature="0"
       style="fill:#000000;fill-opacity:1" />
  </g>
</svg>
